%TF.GenerationSoftware,Altium Limited,Altium Designer,25.3.3 (18)*%
G04 Layer_Physical_Order=3*
G04 Layer_Color=16440176*
%FSLAX45Y45*%
%MOMM*%
%TF.SameCoordinates,5572F933-5C96-4131-A983-9EF7CB378A5A*%
%TF.FilePolarity,Positive*%
%TF.FileFunction,Copper,L3,Inr,Signal*%
%TF.Part,Single*%
G01*
G75*
%TA.AperFunction,Conductor*%
%ADD70C,0.40000*%
%ADD71C,0.20000*%
%ADD72C,0.25000*%
%ADD73C,0.50000*%
%ADD74C,0.30000*%
%ADD77C,0.80000*%
%TA.AperFunction,ComponentPad*%
G04:AMPARAMS|DCode=86|XSize=1.55mm|YSize=1.6mm|CornerRadius=0.3875mm|HoleSize=0mm|Usage=FLASHONLY|Rotation=270.000|XOffset=0mm|YOffset=0mm|HoleType=Round|Shape=RoundedRectangle|*
%AMROUNDEDRECTD86*
21,1,1.55000,0.82500,0,0,270.0*
21,1,0.77500,1.60000,0,0,270.0*
1,1,0.77500,-0.41250,-0.38750*
1,1,0.77500,-0.41250,0.38750*
1,1,0.77500,0.41250,0.38750*
1,1,0.77500,0.41250,-0.38750*
%
%ADD86ROUNDEDRECTD86*%
G04:AMPARAMS|DCode=90|XSize=2.2mm|YSize=2.2mm|CornerRadius=0.55mm|HoleSize=0mm|Usage=FLASHONLY|Rotation=270.000|XOffset=0mm|YOffset=0mm|HoleType=Round|Shape=RoundedRectangle|*
%AMROUNDEDRECTD90*
21,1,2.20000,1.10000,0,0,270.0*
21,1,1.10000,2.20000,0,0,270.0*
1,1,1.10000,-0.55000,-0.55000*
1,1,1.10000,-0.55000,0.55000*
1,1,1.10000,0.55000,0.55000*
1,1,1.10000,0.55000,-0.55000*
%
%ADD90ROUNDEDRECTD90*%
G04:AMPARAMS|DCode=91|XSize=2.2mm|YSize=2.2mm|CornerRadius=0mm|HoleSize=0mm|Usage=FLASHONLY|Rotation=270.000|XOffset=0mm|YOffset=0mm|HoleType=Round|Shape=Octagon|*
%AMOCTAGOND91*
4,1,8,-0.55000,-1.10000,0.55000,-1.10000,1.10000,-0.55000,1.10000,0.55000,0.55000,1.10000,-0.55000,1.10000,-1.10000,0.55000,-1.10000,-0.55000,-0.55000,-1.10000,0.0*
%
%ADD91OCTAGOND91*%

%TA.AperFunction,ViaPad*%
%ADD92C,0.35000*%
%ADD93C,0.60000*%
%TA.AperFunction,ComponentPad*%
G04:AMPARAMS|DCode=94|XSize=1.3mm|YSize=1.7mm|CornerRadius=0.325mm|HoleSize=0mm|Usage=FLASHONLY|Rotation=270.000|XOffset=0mm|YOffset=0mm|HoleType=Round|Shape=RoundedRectangle|*
%AMROUNDEDRECTD94*
21,1,1.30000,1.05000,0,0,270.0*
21,1,0.65000,1.70000,0,0,270.0*
1,1,0.65000,-0.52500,-0.32500*
1,1,0.65000,-0.52500,0.32500*
1,1,0.65000,0.52500,0.32500*
1,1,0.65000,0.52500,-0.32500*
%
%ADD94ROUNDEDRECTD94*%
G04:AMPARAMS|DCode=95|XSize=1.5mm|YSize=1.9mm|CornerRadius=0.375mm|HoleSize=0mm|Usage=FLASHONLY|Rotation=0.000|XOffset=0mm|YOffset=0mm|HoleType=Round|Shape=RoundedRectangle|*
%AMROUNDEDRECTD95*
21,1,1.50000,1.15000,0,0,0.0*
21,1,0.75000,1.90000,0,0,0.0*
1,1,0.75000,0.37500,-0.57500*
1,1,0.75000,-0.37500,-0.57500*
1,1,0.75000,-0.37500,0.57500*
1,1,0.75000,0.37500,0.57500*
%
%ADD95ROUNDEDRECTD95*%
G04:AMPARAMS|DCode=96|XSize=3.6mm|YSize=3.6mm|CornerRadius=0.54mm|HoleSize=0mm|Usage=FLASHONLY|Rotation=0.000|XOffset=0mm|YOffset=0mm|HoleType=Round|Shape=RoundedRectangle|*
%AMROUNDEDRECTD96*
21,1,3.60000,2.52000,0,0,0.0*
21,1,2.52000,3.60000,0,0,0.0*
1,1,1.08000,1.26000,-1.26000*
1,1,1.08000,-1.26000,-1.26000*
1,1,1.08000,-1.26000,1.26000*
1,1,1.08000,1.26000,1.26000*
%
%ADD96ROUNDEDRECTD96*%
G36*
X5153249Y5222684D02*
X5153354Y5220209D01*
X5153929Y5217543D01*
X5154975Y5214685D01*
X5156491Y5211636D01*
X5158477Y5208395D01*
X5160934Y5204963D01*
X5163860Y5201340D01*
X5171124Y5193518D01*
X5156982Y5179376D01*
X5152975Y5183243D01*
X5145537Y5189566D01*
X5142105Y5192023D01*
X5138864Y5194009D01*
X5135815Y5195525D01*
X5132957Y5196571D01*
X5130291Y5197146D01*
X5127816Y5197251D01*
X5125533Y5196886D01*
X5153614Y5224967D01*
X5153249Y5222684D01*
D02*
G37*
G36*
X3262691Y5196109D02*
X3259382Y5196107D01*
X3255905Y5195589D01*
X3252259Y5194553D01*
X3248445Y5193002D01*
X3244462Y5190933D01*
X3240310Y5188348D01*
X3235990Y5185246D01*
X3231502Y5181628D01*
X3222019Y5172842D01*
X3204342Y5190519D01*
X3208993Y5195345D01*
X3216746Y5204490D01*
X3219848Y5208810D01*
X3222433Y5212962D01*
X3224502Y5216945D01*
X3226053Y5220759D01*
X3227089Y5224405D01*
X3227607Y5227882D01*
X3227609Y5231191D01*
X3262691Y5196109D01*
D02*
G37*
G36*
X8434462Y5410484D02*
X8485651Y5389281D01*
X8529609Y5355551D01*
X8563338Y5311594D01*
X8584542Y5260404D01*
X8589867Y5219955D01*
X8591113Y5205471D01*
X8591116Y5205460D01*
X8591116Y5190471D01*
X8591180Y2793177D01*
X8582473Y2787358D01*
X8576180Y2784875D01*
X8559736D01*
X8542278Y2777643D01*
X8528916Y2764281D01*
X8521685Y2746823D01*
Y2727926D01*
X8528916Y2710468D01*
X8542278Y2697106D01*
X8559736Y2689875D01*
X8578633D01*
X8578711Y2689907D01*
X8591183Y2681574D01*
X8591247Y270194D01*
X8591247Y269996D01*
Y255256D01*
X8589999Y240773D01*
X8584683Y200394D01*
X8563507Y149271D01*
X8529821Y105371D01*
X8485921Y71685D01*
X8434798Y50509D01*
X8381926Y43549D01*
X8379938Y43944D01*
X7711646D01*
X7707096Y58944D01*
X7709769Y60731D01*
X7725793Y84712D01*
X7731420Y113000D01*
Y160500D01*
X7508580D01*
Y113000D01*
X7514207Y84712D01*
X7530231Y60731D01*
X7532904Y58944D01*
X7528354Y43944D01*
X7457646D01*
X7453096Y58944D01*
X7455769Y60731D01*
X7471793Y84712D01*
X7477420Y113000D01*
Y160500D01*
X7254580D01*
Y113000D01*
X7260207Y84712D01*
X7276231Y60731D01*
X7278904Y58944D01*
X7274354Y43944D01*
X7194646D01*
X7190096Y58944D01*
X7198164Y64336D01*
X7213083Y86663D01*
X7218322Y113000D01*
Y228000D01*
X7213083Y254337D01*
X7198164Y276664D01*
X7175837Y291583D01*
X7149500Y296822D01*
X7074500D01*
X7065928Y295117D01*
X7065302Y295565D01*
X7060698Y299479D01*
X7042677Y317500D01*
X7060135Y334958D01*
X7062879Y337507D01*
X7064990Y339212D01*
X7065928Y339883D01*
X7074500Y338178D01*
X7149500D01*
X7175837Y343417D01*
X7198164Y358336D01*
X7213083Y380663D01*
X7218322Y407000D01*
Y522000D01*
X7213083Y548337D01*
X7198164Y570664D01*
X7195098Y572713D01*
X7193720Y591674D01*
X7199346Y597300D01*
X7206578Y614758D01*
Y633655D01*
X7199346Y651113D01*
X7185984Y664475D01*
X7168526Y671707D01*
X7149630D01*
X7132171Y664475D01*
X7118809Y651113D01*
X7111578Y633655D01*
Y614758D01*
X7115280Y605822D01*
X7105689Y590822D01*
X7074500D01*
X7048163Y585583D01*
X7025836Y570664D01*
X7010917Y548337D01*
X7005678Y522000D01*
Y407000D01*
X7007383Y398428D01*
X7006935Y397802D01*
X7003020Y393197D01*
X6990607Y380784D01*
X6970930D01*
X6961414Y392379D01*
X6964322Y407000D01*
Y522000D01*
X6959083Y548337D01*
X6944164Y570664D01*
X6921837Y585583D01*
X6895500Y590822D01*
X6820500D01*
X6794163Y585583D01*
X6771836Y570664D01*
X6756917Y548337D01*
X6751678Y522000D01*
Y407000D01*
X6754586Y392379D01*
X6745070Y380784D01*
X6716930D01*
X6707414Y392379D01*
X6710322Y407000D01*
Y522000D01*
X6705083Y548337D01*
X6690164Y570664D01*
X6667837Y585583D01*
X6641500Y590822D01*
X6566500D01*
X6540163Y585583D01*
X6517836Y570664D01*
X6502917Y548337D01*
X6497678Y522000D01*
Y407000D01*
X6500586Y392379D01*
X6491070Y380784D01*
X6462930D01*
X6453414Y392379D01*
X6456322Y407000D01*
Y522000D01*
X6451083Y548337D01*
X6448137Y552747D01*
X6458081Y564863D01*
X6460422Y563894D01*
X6479319D01*
X6496777Y571125D01*
X6510139Y584487D01*
X6517371Y601945D01*
Y620842D01*
X6519626Y624217D01*
X6773113D01*
X6773115Y624216D01*
X6788722Y627321D01*
X6801953Y636162D01*
X6928698Y762907D01*
X6936593Y755012D01*
X6954051Y747781D01*
X6972947D01*
X6990406Y755012D01*
X7003768Y768374D01*
X7010999Y785832D01*
Y804729D01*
X7003768Y822187D01*
X6995873Y830082D01*
X7052476Y886685D01*
X7107774D01*
X7114209Y871906D01*
X7106978Y854448D01*
Y835552D01*
X7114209Y818094D01*
X7127571Y804732D01*
X7145029Y797500D01*
X7163926D01*
X7181384Y804732D01*
X7194746Y818094D01*
X7201977Y835552D01*
Y854448D01*
X7194746Y871906D01*
X7201181Y886685D01*
X7406841D01*
Y871772D01*
X7414073Y854314D01*
X7424386Y844001D01*
X7422500Y839448D01*
Y820552D01*
X7429732Y803094D01*
X7443094Y789732D01*
X7455671Y784522D01*
X7455831Y784415D01*
X7456019Y784378D01*
X7459308Y783015D01*
X7488243Y754081D01*
X7488243Y754080D01*
X7489000Y753574D01*
X7484521Y742760D01*
Y723863D01*
X7491752Y706405D01*
X7505114Y693043D01*
X7522572Y685812D01*
X7541469D01*
X7558927Y693043D01*
X7560783Y694899D01*
X7577424D01*
X7598823Y673500D01*
X7596968Y654142D01*
X7589732Y646907D01*
X7582500Y629448D01*
Y610552D01*
X7582727Y610005D01*
X7573099Y594050D01*
X7554212Y590293D01*
X7530231Y574269D01*
X7514207Y550288D01*
X7508580Y522000D01*
Y474500D01*
X7731420D01*
Y522000D01*
X7725793Y550288D01*
X7709769Y574269D01*
X7685788Y590293D01*
X7680401Y604869D01*
X7684778Y614104D01*
X8244886D01*
X8244887Y614104D01*
X8260495Y617208D01*
X8273726Y626049D01*
X8350692Y703016D01*
X8353981Y704378D01*
X8354169Y704415D01*
X8354329Y704522D01*
X8366907Y709732D01*
X8380268Y723094D01*
X8387500Y740552D01*
Y759448D01*
X8380268Y776906D01*
X8366907Y790268D01*
X8349448Y797500D01*
X8341121D01*
X8334908Y812500D01*
X8368838Y846429D01*
X8368838Y846430D01*
X8377679Y859661D01*
X8380784Y875268D01*
Y1056575D01*
X8377679Y1072183D01*
X8368838Y1085414D01*
X8368838Y1085414D01*
X8263762Y1190491D01*
X8250531Y1199331D01*
X8234923Y1202436D01*
X8234922Y1202436D01*
X8206570D01*
X8203587Y1217436D01*
X8211979Y1220912D01*
X8225341Y1234274D01*
X8232572Y1251732D01*
Y1270629D01*
X8227816Y1282111D01*
X8231404Y1285699D01*
X8238635Y1303158D01*
Y1322054D01*
X8231404Y1339512D01*
X8218042Y1352874D01*
X8204884Y1358325D01*
X8203201Y1372500D01*
X8204132Y1374440D01*
X8216906Y1379732D01*
X8230268Y1393093D01*
X8237500Y1410552D01*
Y1429448D01*
X8230834Y1445540D01*
X8231228Y1445934D01*
X8238460Y1463392D01*
Y1482289D01*
X8231228Y1499747D01*
X8226759Y1504216D01*
X8232972Y1519216D01*
X8249121D01*
X8249122Y1519216D01*
X8264730Y1522321D01*
X8277961Y1531162D01*
X8346568Y1599768D01*
X8349856Y1601131D01*
X8350045Y1601168D01*
X8350205Y1601275D01*
X8362782Y1606485D01*
X8376144Y1619847D01*
X8383375Y1637305D01*
Y1656201D01*
X8376144Y1673660D01*
X8366826Y1682978D01*
X8378775Y1694927D01*
X8386006Y1712385D01*
Y1731282D01*
X8378775Y1748740D01*
X8365413Y1762102D01*
X8347955Y1769334D01*
X8329058D01*
X8311600Y1762102D01*
X8298238Y1748740D01*
X8293029Y1736163D01*
X8292922Y1736003D01*
X8292884Y1735814D01*
X8291522Y1732526D01*
X8253661Y1694665D01*
X8234792Y1697009D01*
X8232699Y1700514D01*
X8235730Y1707833D01*
Y1726730D01*
X8228499Y1744188D01*
X8215137Y1757550D01*
X8197679Y1764781D01*
X8178782D01*
X8166205Y1759572D01*
X8166016Y1759534D01*
X8165856Y1759427D01*
X8162568Y1758065D01*
X7843210D01*
X7816931Y1784344D01*
X7821199Y1801290D01*
X7831204Y1805434D01*
X7844566Y1818796D01*
X7851798Y1836254D01*
Y1855150D01*
X7847357Y1865872D01*
X7858837Y1877352D01*
X7870552Y1872500D01*
X7889448D01*
X7906906Y1879732D01*
X7920268Y1893093D01*
X7927500Y1910552D01*
Y1929448D01*
X7920268Y1946906D01*
X7906906Y1960268D01*
X7889448Y1967500D01*
X7870552D01*
X7853094Y1960268D01*
X7839732Y1946906D01*
X7832500Y1929448D01*
Y1910552D01*
X7836941Y1899830D01*
X7825461Y1888350D01*
X7813746Y1893202D01*
X7794850D01*
X7777391Y1885971D01*
X7764029Y1872609D01*
X7759885Y1862604D01*
X7742940Y1858336D01*
X7657438Y1943838D01*
X7644206Y1952679D01*
X7628599Y1955783D01*
X7628598Y1955783D01*
X7478727D01*
X7472514Y1970783D01*
X7480035Y1978304D01*
X7487266Y1995763D01*
Y2014659D01*
X7482762Y2025534D01*
X7485884Y2028655D01*
X7493115Y2046113D01*
Y2065010D01*
X7485884Y2082468D01*
X7474764Y2093588D01*
X7474623Y2094478D01*
X7475789Y2104448D01*
X7477842Y2109862D01*
X7489995Y2114896D01*
X7503357Y2128258D01*
X7510588Y2145717D01*
Y2164613D01*
X7503357Y2182071D01*
X7496212Y2189217D01*
X7502425Y2204217D01*
X7538107D01*
X7581161Y2161162D01*
X7581162Y2161162D01*
X7594393Y2152321D01*
X7610000Y2149216D01*
X7773107D01*
X8121499Y1800824D01*
X8134730Y1791984D01*
X8150337Y1788879D01*
X8150338Y1788879D01*
X8301044D01*
X8301046Y1788879D01*
X8316653Y1791984D01*
X8329884Y1800824D01*
X8351598Y1822538D01*
X8354887Y1823901D01*
X8355075Y1823938D01*
X8355235Y1824045D01*
X8367812Y1829255D01*
X8381174Y1842617D01*
X8388406Y1860075D01*
Y1878971D01*
X8381174Y1896430D01*
X8375274Y1902330D01*
X8384212Y1911268D01*
X8391443Y1928726D01*
Y1947623D01*
X8384212Y1965081D01*
X8370850Y1978443D01*
X8353392Y1985674D01*
X8334495D01*
X8317855Y1978782D01*
X8314345Y1987256D01*
X8300983Y2000618D01*
X8283525Y2007849D01*
X8264629D01*
X8252052Y2002640D01*
X8251863Y2002602D01*
X8251703Y2002495D01*
X8248414Y2001133D01*
X8216544D01*
X8071531Y2146146D01*
X8077835Y2161055D01*
X8103000D01*
Y2265000D01*
X7996555D01*
Y2242335D01*
X7981646Y2236031D01*
X7808839Y2408838D01*
X7795607Y2417679D01*
X7780000Y2420784D01*
X7779999Y2420784D01*
X7716554D01*
X7704244Y2435784D01*
X7706077Y2445000D01*
Y2690000D01*
X7701809Y2711460D01*
X7689653Y2729653D01*
X7399241Y3020065D01*
X7404981Y3033923D01*
X7880000D01*
X7901460Y3038191D01*
X7919652Y3050347D01*
X8089653Y3220347D01*
X8101809Y3238540D01*
X8106077Y3260000D01*
X8101809Y3281460D01*
X8089653Y3299653D01*
X8071460Y3311809D01*
X8050000Y3316077D01*
X8028540Y3311809D01*
X8010347Y3299653D01*
X7856772Y3146077D01*
X6648076D01*
X6626616Y3141809D01*
X6608424Y3129653D01*
X6124848Y2646077D01*
X5270000D01*
X5248540Y2641809D01*
X5230347Y2629653D01*
X5120347Y2519653D01*
X5108191Y2501460D01*
X5103923Y2480000D01*
Y1700000D01*
X5108191Y1678540D01*
X5120347Y1660347D01*
X5138540Y1648191D01*
X5160000Y1643923D01*
X5181460Y1648191D01*
X5199653Y1660347D01*
X5211809Y1678540D01*
X5216077Y1700000D01*
Y2402304D01*
X5231078Y2411957D01*
X5246126Y2408964D01*
X5267585Y2413232D01*
X5285778Y2425388D01*
X5304313Y2443923D01*
X5535612D01*
X5541353Y2430065D01*
X5361430Y2250142D01*
X5349274Y2231949D01*
X5345005Y2210489D01*
X5349274Y2189029D01*
X5361430Y2170836D01*
X5379623Y2158680D01*
X5401082Y2154412D01*
X5422542Y2158680D01*
X5440735Y2170836D01*
X5643821Y2373923D01*
X5863643D01*
X5869383Y2360065D01*
X5785608Y2276290D01*
X5773452Y2258097D01*
X5769183Y2236637D01*
Y2235833D01*
X5773452Y2214373D01*
X5785608Y2196181D01*
X5803800Y2184025D01*
X5825260Y2179756D01*
X5846720Y2184025D01*
X5864913Y2196181D01*
X5866531Y2198602D01*
X5970154Y2302226D01*
X6096792D01*
X6105126Y2289754D01*
X6103721Y2286362D01*
Y2267466D01*
X6110952Y2250007D01*
X6124314Y2236646D01*
X6141773Y2229414D01*
X6160669D01*
X6173246Y2234624D01*
X6173435Y2234661D01*
X6173595Y2234768D01*
X6176884Y2236130D01*
X6267406D01*
X6277732Y2224734D01*
X6277090Y2216084D01*
X6266246Y2208838D01*
X6266246Y2208838D01*
X6223107Y2165699D01*
X6172005D01*
X6168717Y2167061D01*
X6168557Y2167168D01*
X6168368Y2167206D01*
X6155791Y2172415D01*
X6136894D01*
X6119436Y2165184D01*
X6106074Y2151822D01*
X6098843Y2134364D01*
Y2115467D01*
X6106074Y2098009D01*
X6119436Y2084647D01*
X6136894Y2077416D01*
X6155791D01*
X6168368Y2082625D01*
X6168557Y2082663D01*
X6168717Y2082770D01*
X6172005Y2084132D01*
X6239999D01*
X6240000Y2084132D01*
X6255607Y2087236D01*
X6268838Y2096077D01*
X6276567Y2103806D01*
X6293531Y2099556D01*
X6295678Y2092479D01*
X6295101Y2091902D01*
X6287869Y2074444D01*
Y2055547D01*
X6295101Y2038089D01*
X6308463Y2024727D01*
X6325921Y2017496D01*
X6333222D01*
X6344373Y2005220D01*
Y1986323D01*
X6351604Y1968865D01*
X6351979Y1968490D01*
X6345766Y1953490D01*
X6194609D01*
X6179002Y1950385D01*
X6165770Y1941545D01*
X6137033Y1912807D01*
X6133745Y1911446D01*
X6133556Y1911408D01*
X6133396Y1911301D01*
X6120819Y1906091D01*
X6107457Y1892730D01*
X6100226Y1875271D01*
Y1856375D01*
X6107457Y1838917D01*
X6120819Y1825555D01*
X6138278Y1818323D01*
X6157174D01*
X6174632Y1825555D01*
X6187994Y1838917D01*
X6193204Y1851494D01*
X6193311Y1851654D01*
X6193348Y1851842D01*
X6194710Y1855131D01*
X6211502Y1871923D01*
X6290542D01*
Y1857609D01*
X6295275Y1846183D01*
X6290950Y1841858D01*
X6283719Y1824400D01*
Y1805504D01*
X6283081Y1804549D01*
X6200572D01*
X6200571Y1804549D01*
X6184963Y1801445D01*
X6171732Y1792604D01*
X6171732Y1792603D01*
X6140119Y1760991D01*
X6136830Y1759629D01*
X6136642Y1759591D01*
X6136482Y1759484D01*
X6123905Y1754275D01*
X6110543Y1740913D01*
X6103311Y1723455D01*
Y1704558D01*
X6110543Y1687100D01*
X6123905Y1673738D01*
X6141363Y1666506D01*
X6160259D01*
X6177718Y1673738D01*
X6191080Y1687100D01*
X6196289Y1699677D01*
X6196396Y1699837D01*
X6196434Y1700026D01*
X6197796Y1703314D01*
X6217464Y1722982D01*
X6288479D01*
Y1705668D01*
X6295710Y1688210D01*
X6309072Y1674848D01*
X6326530Y1667616D01*
X6345427D01*
X6362885Y1674848D01*
X6376247Y1688210D01*
X6383478Y1705668D01*
Y1722982D01*
X6516210D01*
X6521950Y1709124D01*
X6436162Y1623336D01*
X6427321Y1610104D01*
X6424216Y1594497D01*
X6424217Y1594496D01*
Y1451893D01*
X6390587Y1418263D01*
X6379232Y1422967D01*
X6360335D01*
X6342877Y1415735D01*
X6329515Y1402373D01*
X6322284Y1384915D01*
Y1366019D01*
X6329515Y1348560D01*
X6342877Y1335198D01*
X6360335Y1327967D01*
X6366136D01*
X6366608Y1327392D01*
X6366608Y1327391D01*
Y1281894D01*
X6351804Y1267090D01*
X6347223Y1265193D01*
X6333861Y1251831D01*
X6326630Y1234372D01*
Y1227763D01*
X6325949Y1224342D01*
X6326630Y1220922D01*
Y1215476D01*
X6328714Y1210444D01*
X6329054Y1208735D01*
X6330022Y1207287D01*
X6333861Y1198018D01*
X6342876Y1189003D01*
X6336372Y1174294D01*
X5940826D01*
X5937713Y1188733D01*
X5937708Y1189294D01*
X5950974Y1202560D01*
X5958206Y1220018D01*
Y1238915D01*
X5950974Y1256373D01*
X5937612Y1269735D01*
X5927974Y1273727D01*
Y1284892D01*
X5920743Y1302350D01*
X5907381Y1315712D01*
X5902499Y1317734D01*
Y1334449D01*
X5901349Y1337226D01*
X5911372Y1352226D01*
X6083725D01*
X6096677Y1354802D01*
X6098721D01*
X6100609Y1355585D01*
X6101283Y1355719D01*
X6101855Y1356101D01*
X6108782Y1358970D01*
X6129749D01*
X6215564Y1273155D01*
X6219731Y1263094D01*
X6233093Y1249732D01*
X6250551Y1242500D01*
X6269448D01*
X6286906Y1249732D01*
X6300268Y1263094D01*
X6307499Y1280552D01*
Y1299449D01*
X6300268Y1316907D01*
X6286906Y1330269D01*
X6276845Y1334436D01*
X6178338Y1432943D01*
X6164280Y1442336D01*
X6147698Y1445635D01*
X6108782D01*
X6098721Y1449802D01*
X6079824D01*
X6065791Y1443989D01*
X5258385D01*
X5254478Y1445607D01*
X5235582D01*
X5218123Y1438376D01*
X5215784Y1436036D01*
X5200784Y1442250D01*
Y1470000D01*
X5197679Y1485608D01*
X5188838Y1498839D01*
X5188838Y1498839D01*
X4800783Y1886894D01*
Y2926643D01*
X4800784Y2926644D01*
X4797679Y2942251D01*
X4788838Y2955483D01*
X4788838Y2955483D01*
X4760583Y2983738D01*
X4759221Y2987025D01*
X4759183Y2987216D01*
X4759075Y2987377D01*
X4755888Y2995071D01*
X4755851Y2995260D01*
X4755744Y2995420D01*
X4754381Y2998709D01*
Y3016401D01*
X4754382Y3016402D01*
X4751277Y3032009D01*
X4742436Y3045241D01*
X4627194Y3160483D01*
Y3348548D01*
X4630604Y3350826D01*
X4649500D01*
X4666958Y3358058D01*
X4680320Y3371420D01*
X4687551Y3388878D01*
Y3407774D01*
X4680320Y3425233D01*
X4666958Y3438595D01*
X4649500Y3445826D01*
X4630604D01*
X4627194Y3448104D01*
Y3689999D01*
X4624089Y3705606D01*
X4615249Y3718837D01*
X4615248Y3718838D01*
X4561092Y3772993D01*
X4560939Y3778543D01*
X4575768Y3784927D01*
X5160348Y3200347D01*
X5178540Y3188191D01*
X5200000Y3183923D01*
X5613455D01*
X5683923Y3113455D01*
Y3030000D01*
X5688191Y3008540D01*
X5700347Y2990347D01*
X5733744Y2956950D01*
Y2935372D01*
X5729822Y2925902D01*
Y2902033D01*
X5738956Y2879980D01*
X5755835Y2863102D01*
X5777887Y2853968D01*
X5801756D01*
X5823809Y2863102D01*
X5840687Y2879980D01*
X5849822Y2902033D01*
Y2925902D01*
X5845899Y2935372D01*
Y2980178D01*
X5841631Y3001638D01*
X5834607Y3012150D01*
X5836907Y3019732D01*
X5850268Y3033093D01*
X5855222Y3034079D01*
X5997041Y2892260D01*
X6015233Y2880104D01*
X6031466Y2876876D01*
X6048065Y2870000D01*
X6071934D01*
X6093987Y2879134D01*
X6110865Y2896013D01*
X6119999Y2918065D01*
Y2941935D01*
X6110865Y2963987D01*
X6093987Y2980866D01*
X6071934Y2990000D01*
X6057912D01*
X5701990Y3345922D01*
X5683797Y3358078D01*
X5662337Y3362346D01*
X5248883D01*
X4545093Y4066137D01*
X4533770Y4073702D01*
X4520622Y4086851D01*
X4502429Y4099007D01*
X4480969Y4103275D01*
X4060968D01*
X4051498Y4107198D01*
X4027629D01*
X4005576Y4098063D01*
X3988698Y4081185D01*
X3979564Y4059133D01*
Y4035263D01*
X3988698Y4013211D01*
X3997512Y4004396D01*
X3988587Y3995472D01*
X3979453Y3973419D01*
Y3949550D01*
X3988587Y3927497D01*
X4005466Y3910619D01*
X4027518Y3901484D01*
X4051388D01*
X4060858Y3905407D01*
X4455288D01*
X4539039Y3821656D01*
X4530543Y3808939D01*
X4520087Y3813270D01*
X4501190D01*
X4483732Y3806039D01*
X4470370Y3792677D01*
X4463139Y3775219D01*
Y3756322D01*
X4470370Y3738864D01*
X4475522Y3733712D01*
X4475221Y3733167D01*
X4456906Y3730268D01*
X4439448Y3737500D01*
X4420552D01*
X4403094Y3730268D01*
X4389732Y3716906D01*
X4382500Y3699448D01*
Y3680552D01*
X4389732Y3663094D01*
X4403094Y3649732D01*
X4415669Y3644523D01*
X4415830Y3644415D01*
X4416021Y3644377D01*
X4419308Y3643016D01*
X4475478Y3586846D01*
Y3381468D01*
X4460477Y3371445D01*
X4453545Y3374317D01*
X4434648D01*
X4417190Y3367085D01*
X4403828Y3353723D01*
X4396597Y3336265D01*
Y3317369D01*
X4401215Y3306220D01*
Y2387900D01*
X4402068Y2383611D01*
Y1583349D01*
X4279822Y1461103D01*
X4267105Y1469600D01*
X4267500Y1470552D01*
Y1489448D01*
X4261385Y1504210D01*
X4270268Y1513093D01*
X4277500Y1530552D01*
Y1549448D01*
X4272290Y1562025D01*
X4272253Y1562214D01*
X4272146Y1562374D01*
X4270783Y1565663D01*
Y2199641D01*
X4285783Y2202625D01*
X4289732Y2193093D01*
X4303094Y2179731D01*
X4320552Y2172500D01*
X4339448D01*
X4356906Y2179731D01*
X4370268Y2193093D01*
X4377500Y2210552D01*
Y2229448D01*
X4370268Y2246906D01*
X4356906Y2260268D01*
X4339448Y2267500D01*
X4320552D01*
X4303094Y2260268D01*
X4289732Y2246906D01*
X4285783Y2237375D01*
X4270783Y2240358D01*
Y2959999D01*
X4270784Y2960000D01*
X4267679Y2975607D01*
X4258838Y2988838D01*
X4258838Y2988839D01*
X4070839Y3176838D01*
X4057608Y3185679D01*
X4042001Y3188783D01*
X4032521Y3199117D01*
X4031374Y3204886D01*
X4017560Y3225559D01*
X3996886Y3239373D01*
X3991963Y3240353D01*
Y3255647D01*
X3996886Y3256626D01*
X4017560Y3270440D01*
X4031374Y3291113D01*
X4036224Y3315500D01*
Y3380500D01*
X4031374Y3404886D01*
X4017560Y3425560D01*
X3996886Y3439373D01*
X3972500Y3444224D01*
X3867500D01*
X3843114Y3439373D01*
X3822440Y3425560D01*
X3808626Y3404886D01*
X3807647Y3399962D01*
X3792353D01*
X3791374Y3404886D01*
X3777560Y3425560D01*
X3756886Y3439373D01*
X3732500Y3444224D01*
X3627500D01*
X3603114Y3439373D01*
X3582440Y3425560D01*
X3568626Y3404886D01*
X3563776Y3380500D01*
Y3315500D01*
X3568626Y3291113D01*
X3582440Y3270440D01*
X3603114Y3256626D01*
X3608037Y3255647D01*
Y3240353D01*
X3603114Y3239373D01*
X3582440Y3225559D01*
X3568626Y3204886D01*
X3563776Y3180500D01*
Y3115499D01*
X3568626Y3091113D01*
X3582440Y3070440D01*
X3603114Y3056626D01*
X3608037Y3055647D01*
Y3040353D01*
X3603114Y3039373D01*
X3582440Y3025560D01*
X3568626Y3004886D01*
X3563776Y2980500D01*
Y2915500D01*
X3568626Y2891113D01*
X3582440Y2870440D01*
X3603114Y2856626D01*
X3608037Y2855647D01*
Y2840353D01*
X3603114Y2839373D01*
X3582440Y2825559D01*
X3568626Y2804886D01*
X3563776Y2780500D01*
Y2715500D01*
X3568626Y2691113D01*
X3582440Y2670440D01*
X3603114Y2656626D01*
X3608037Y2655647D01*
Y2640353D01*
X3603114Y2639373D01*
X3582440Y2625560D01*
X3568626Y2604886D01*
X3563776Y2580500D01*
Y2515500D01*
X3568626Y2491113D01*
X3582440Y2470440D01*
X3603114Y2456626D01*
X3627500Y2451775D01*
X3732500D01*
X3756886Y2456626D01*
X3777560Y2470440D01*
X3791374Y2491113D01*
X3792353Y2496037D01*
X3807647D01*
X3808626Y2491113D01*
X3822440Y2470440D01*
X3843114Y2456626D01*
X3867500Y2451775D01*
X3972500D01*
X3996886Y2456626D01*
X4017560Y2470440D01*
X4031374Y2491113D01*
X4036224Y2515500D01*
Y2580500D01*
X4031374Y2604886D01*
X4017560Y2625560D01*
X3996886Y2639373D01*
X3991963Y2640353D01*
Y2655647D01*
X3996886Y2656626D01*
X4017560Y2670440D01*
X4031374Y2691113D01*
X4036224Y2715500D01*
Y2780500D01*
X4031374Y2804886D01*
X4017560Y2825559D01*
X3996886Y2839373D01*
X3991963Y2840353D01*
Y2855647D01*
X3996886Y2856626D01*
X4017560Y2870440D01*
X4031374Y2891113D01*
X4036224Y2915500D01*
Y2980500D01*
X4033496Y2994216D01*
X4045147Y3009216D01*
X4063107D01*
X4143263Y2929060D01*
Y1515954D01*
X4143263Y1515953D01*
X4146368Y1500346D01*
X4155209Y1487115D01*
X4173015Y1469308D01*
X4174377Y1466021D01*
X4174415Y1465830D01*
X4174523Y1465669D01*
X4179732Y1453094D01*
X4193093Y1439732D01*
X4197960Y1437716D01*
X4194977Y1422716D01*
X3839383D01*
X3822801Y1419417D01*
X3808743Y1410024D01*
X3752692Y1353973D01*
X3743298Y1339915D01*
X3740000Y1323332D01*
Y590757D01*
X3739811Y585705D01*
X3739414Y582089D01*
X3739215Y580941D01*
X3723836Y570664D01*
X3708917Y548337D01*
X3703678Y522000D01*
Y407000D01*
X3708917Y380663D01*
X3723836Y358336D01*
X3746163Y343417D01*
X3772500Y338178D01*
X3847500D01*
X3873837Y343417D01*
X3896164Y358336D01*
X3911083Y380663D01*
X3916322Y407000D01*
Y522000D01*
X3911083Y548337D01*
X3896164Y570664D01*
X3873837Y585583D01*
X3847500Y590822D01*
X3826665D01*
Y1062328D01*
X3840523Y1068068D01*
X3968647Y939944D01*
X3968647Y939943D01*
X3981878Y931103D01*
X3997486Y927998D01*
X3997487Y927998D01*
X4014211D01*
X4016538Y926443D01*
X4032145Y923339D01*
X4038985D01*
X4132716Y829607D01*
X4131376Y819335D01*
X4116311Y814153D01*
X4110408Y820056D01*
X4092950Y827288D01*
X4074053D01*
X4056595Y820056D01*
X4043233Y806694D01*
X4036002Y789236D01*
Y770340D01*
X4043233Y752881D01*
X4056595Y739519D01*
X4074053Y732288D01*
X4092950D01*
X4109702Y739227D01*
X4110601Y739471D01*
X4127358Y735256D01*
X4129374Y730094D01*
X4128370Y727671D01*
Y708775D01*
X4135602Y691316D01*
X4148964Y677954D01*
X4166422Y670723D01*
X4185318D01*
X4202776Y677954D01*
X4216138Y691316D01*
X4219434Y699272D01*
X4235669D01*
X4239657Y689645D01*
X4253019Y676283D01*
X4270477Y669051D01*
X4289374D01*
X4306832Y676283D01*
X4311436Y680887D01*
X4391808Y600515D01*
X4391329Y597282D01*
X4389655Y595219D01*
X4374641Y587015D01*
X4355500Y590822D01*
X4280500D01*
X4254163Y585583D01*
X4231836Y570664D01*
X4216917Y548337D01*
X4211678Y522000D01*
Y407000D01*
X4216917Y380663D01*
X4231836Y358336D01*
X4254163Y343417D01*
X4280500Y338178D01*
X4355500D01*
X4381837Y343417D01*
X4395416Y352490D01*
X4411896Y352890D01*
X4416308Y349782D01*
X4477282Y288808D01*
X4478482Y287104D01*
X4480296Y268373D01*
X4470917Y254337D01*
X4465678Y228000D01*
Y113000D01*
X4470917Y86663D01*
X4485836Y64336D01*
X4493904Y58944D01*
X4489354Y43944D01*
X4400646D01*
X4396096Y58944D01*
X4404164Y64336D01*
X4419083Y86663D01*
X4424322Y113000D01*
Y228000D01*
X4419083Y254337D01*
X4404164Y276664D01*
X4381837Y291583D01*
X4355500Y296822D01*
X4280500D01*
X4254163Y291583D01*
X4231836Y276664D01*
X4216917Y254337D01*
X4211678Y228000D01*
Y113000D01*
X4216917Y86663D01*
X4231836Y64336D01*
X4239904Y58944D01*
X4235354Y43944D01*
X4146646D01*
X4142096Y58944D01*
X4150164Y64336D01*
X4165083Y86663D01*
X4170322Y113000D01*
Y228000D01*
X4165083Y254337D01*
X4150164Y276664D01*
X4127837Y291583D01*
X4101500Y296822D01*
X4026500D01*
X4000163Y291583D01*
X3977836Y276664D01*
X3962917Y254337D01*
X3957678Y228000D01*
Y113000D01*
X3962917Y86663D01*
X3977836Y64336D01*
X3985904Y58944D01*
X3981354Y43944D01*
X3892646D01*
X3888096Y58944D01*
X3896164Y64336D01*
X3911083Y86663D01*
X3916322Y113000D01*
Y228000D01*
X3911083Y254337D01*
X3896164Y276664D01*
X3873837Y291583D01*
X3847500Y296822D01*
X3772500D01*
X3746163Y291583D01*
X3723836Y276664D01*
X3708917Y254337D01*
X3703678Y228000D01*
Y113000D01*
X3708917Y86663D01*
X3723836Y64336D01*
X3731904Y58944D01*
X3727354Y43944D01*
X3638646D01*
X3634096Y58944D01*
X3642164Y64336D01*
X3657083Y86663D01*
X3662322Y113000D01*
Y228000D01*
X3657083Y254337D01*
X3642164Y276664D01*
X3619837Y291583D01*
X3593500Y296822D01*
X3518500D01*
X3492163Y291583D01*
X3469836Y276664D01*
X3454917Y254337D01*
X3449678Y228000D01*
Y113000D01*
X3454917Y86663D01*
X3469836Y64336D01*
X3477904Y58944D01*
X3473354Y43944D01*
X3384646D01*
X3380096Y58944D01*
X3388164Y64336D01*
X3403083Y86663D01*
X3408322Y113000D01*
Y228000D01*
X3403083Y254337D01*
X3388164Y276664D01*
X3365837Y291583D01*
X3339500Y296822D01*
X3264500D01*
X3238163Y291583D01*
X3215836Y276664D01*
X3200917Y254337D01*
X3195678Y228000D01*
Y113000D01*
X3200917Y86663D01*
X3215836Y64336D01*
X3223904Y58944D01*
X3219354Y43944D01*
X3130646D01*
X3126096Y58944D01*
X3134164Y64336D01*
X3149083Y86663D01*
X3154322Y113000D01*
Y228000D01*
X3149083Y254337D01*
X3134164Y276664D01*
X3111837Y291583D01*
X3085500Y296822D01*
X3010500D01*
X2984163Y291583D01*
X2961836Y276664D01*
X2946917Y254337D01*
X2941678Y228000D01*
Y113000D01*
X2946917Y86663D01*
X2961836Y64336D01*
X2969904Y58944D01*
X2965354Y43944D01*
X2876646D01*
X2872096Y58944D01*
X2880164Y64336D01*
X2895083Y86663D01*
X2900322Y113000D01*
Y228000D01*
X2895083Y254337D01*
X2880164Y276664D01*
X2857837Y291583D01*
X2831500Y296822D01*
X2756500D01*
X2730163Y291583D01*
X2707836Y276664D01*
X2692917Y254337D01*
X2687678Y228000D01*
Y113000D01*
X2692917Y86663D01*
X2707836Y64336D01*
X2715904Y58944D01*
X2711354Y43944D01*
X2622646D01*
X2618096Y58944D01*
X2626164Y64336D01*
X2641083Y86663D01*
X2646322Y113000D01*
Y228000D01*
X2641083Y254337D01*
X2626164Y276664D01*
X2603837Y291583D01*
X2577500Y296822D01*
X2502500D01*
X2476163Y291583D01*
X2453836Y276664D01*
X2438917Y254337D01*
X2433678Y228000D01*
Y113000D01*
X2438917Y86663D01*
X2453836Y64336D01*
X2461904Y58944D01*
X2457354Y43944D01*
X2368646D01*
X2364096Y58944D01*
X2372164Y64336D01*
X2387083Y86663D01*
X2392322Y113000D01*
Y228000D01*
X2387083Y254337D01*
X2372164Y276664D01*
X2349837Y291583D01*
X2323500Y296822D01*
X2248500D01*
X2222163Y291583D01*
X2199836Y276664D01*
X2184917Y254337D01*
X2179678Y228000D01*
Y113000D01*
X2184917Y86663D01*
X2199836Y64336D01*
X2207904Y58944D01*
X2203354Y43944D01*
X2123646D01*
X2119096Y58944D01*
X2121769Y60731D01*
X2137793Y84712D01*
X2143420Y113000D01*
Y160500D01*
X1920580D01*
Y113000D01*
X1926207Y84712D01*
X1942231Y60731D01*
X1944904Y58944D01*
X1940354Y43944D01*
X1371600D01*
X1369643Y43555D01*
X1317066Y50477D01*
X1266249Y71526D01*
X1222611Y105011D01*
X1189126Y148649D01*
X1168077Y199466D01*
X1161155Y252043D01*
X1161544Y254000D01*
Y1924556D01*
X1841500D01*
Y1923962D01*
X1899742Y1929699D01*
X1955745Y1946687D01*
X2007359Y1974275D01*
X2052598Y2011402D01*
X2089725Y2056641D01*
X2117313Y2108255D01*
X2134301Y2164258D01*
X2140038Y2222500D01*
X2139444D01*
Y3746500D01*
X2140038D01*
X2134301Y3804742D01*
X2117313Y3860745D01*
X2089725Y3912359D01*
X2052598Y3957598D01*
X2007359Y3994725D01*
X1955745Y4022313D01*
X1899742Y4039301D01*
X1841500Y4045038D01*
Y4044444D01*
X1161544D01*
Y5207000D01*
X1161155Y5208958D01*
X1168077Y5261534D01*
X1189126Y5312351D01*
X1222610Y5355989D01*
X1266248Y5389474D01*
X1317066Y5410523D01*
X1357121Y5415796D01*
X1371600Y5417055D01*
Y5417056D01*
X1940354D01*
X1944904Y5402056D01*
X1942231Y5400269D01*
X1926207Y5376288D01*
X1920580Y5348000D01*
Y5300500D01*
X2143420D01*
Y5348000D01*
X2137793Y5376288D01*
X2121769Y5400269D01*
X2119096Y5402056D01*
X2123646Y5417056D01*
X2203354D01*
X2207904Y5402056D01*
X2199836Y5396664D01*
X2184917Y5374337D01*
X2179678Y5348000D01*
Y5233000D01*
X2184917Y5206663D01*
X2199836Y5184336D01*
X2222163Y5169417D01*
X2248500Y5164178D01*
X2323500D01*
X2349837Y5169417D01*
X2372164Y5184336D01*
X2387083Y5206663D01*
X2392322Y5233000D01*
Y5348000D01*
X2387083Y5374337D01*
X2372164Y5396664D01*
X2364096Y5402056D01*
X2368646Y5417056D01*
X2457354D01*
X2461904Y5402056D01*
X2453836Y5396664D01*
X2438917Y5374337D01*
X2433678Y5348000D01*
Y5233000D01*
X2438917Y5206663D01*
X2453836Y5184336D01*
X2476163Y5169417D01*
X2502500Y5164178D01*
X2577500D01*
X2603837Y5169417D01*
X2626164Y5184336D01*
X2641083Y5206663D01*
X2646322Y5233000D01*
Y5348000D01*
X2641083Y5374337D01*
X2626164Y5396664D01*
X2618096Y5402056D01*
X2622646Y5417056D01*
X2711354D01*
X2715904Y5402056D01*
X2707836Y5396664D01*
X2692917Y5374337D01*
X2687678Y5348000D01*
Y5233000D01*
X2692917Y5206663D01*
X2707836Y5184336D01*
X2730163Y5169417D01*
X2756500Y5164178D01*
X2831500D01*
X2857837Y5169417D01*
X2880164Y5184336D01*
X2895083Y5206663D01*
X2900322Y5233000D01*
Y5348000D01*
X2895083Y5374337D01*
X2880164Y5396664D01*
X2872096Y5402056D01*
X2876646Y5417056D01*
X2965354D01*
X2969904Y5402056D01*
X2961836Y5396664D01*
X2946917Y5374337D01*
X2941678Y5348000D01*
Y5233000D01*
X2946917Y5206663D01*
X2961836Y5184336D01*
X2984163Y5169417D01*
X3010500Y5164178D01*
X3085500D01*
X3111837Y5169417D01*
X3134164Y5184336D01*
X3149083Y5206663D01*
X3154322Y5233000D01*
Y5348000D01*
X3149083Y5374337D01*
X3134164Y5396664D01*
X3126096Y5402056D01*
X3130646Y5417056D01*
X3219354D01*
X3223904Y5402056D01*
X3215836Y5396664D01*
X3200917Y5374337D01*
X3195678Y5348000D01*
Y5233000D01*
X3196424Y5229248D01*
X3195837Y5228118D01*
X3194414Y5225832D01*
X3192617Y5223329D01*
X3187432Y5217213D01*
X3160678Y5190459D01*
X3151284Y5176401D01*
X3147986Y5159818D01*
Y5106923D01*
X3132986Y5103452D01*
X3111837Y5117583D01*
X3085500Y5122822D01*
X3010500D01*
X2984163Y5117583D01*
X2961836Y5102664D01*
X2946917Y5080337D01*
X2941678Y5054000D01*
Y4939000D01*
X2946917Y4912663D01*
X2961836Y4890336D01*
X2963712Y4889082D01*
X2959162Y4874082D01*
X2882838D01*
X2878288Y4889082D01*
X2880164Y4890336D01*
X2895083Y4912663D01*
X2900322Y4939000D01*
Y5054000D01*
X2895083Y5080337D01*
X2880164Y5102664D01*
X2857837Y5117583D01*
X2831500Y5122822D01*
X2756500D01*
X2730163Y5117583D01*
X2707836Y5102664D01*
X2692917Y5080337D01*
X2687678Y5054000D01*
Y4939000D01*
X2692917Y4912663D01*
X2707836Y4890336D01*
X2709533Y4889202D01*
X2709606Y4888798D01*
X2706724Y4873038D01*
X2694619Y4868024D01*
X2681257Y4854662D01*
X2674026Y4837204D01*
Y4818307D01*
X2681257Y4800849D01*
X2694619Y4787487D01*
X2704681Y4783320D01*
X2738641Y4749360D01*
X2752699Y4739966D01*
X2769281Y4736668D01*
X3100000D01*
X3116583Y4739966D01*
X3130641Y4749360D01*
X3244088Y4862807D01*
X3247329Y4865796D01*
X3250038Y4867954D01*
X3252597Y4869759D01*
X3254655Y4871010D01*
X3256137Y4871756D01*
X3256282Y4871812D01*
X3264500Y4870178D01*
X3339500D01*
X3365837Y4875417D01*
X3388164Y4890336D01*
X3403083Y4912663D01*
X3408322Y4939000D01*
Y5054000D01*
X3403083Y5080337D01*
X3388164Y5102664D01*
X3365837Y5117583D01*
X3339500Y5122822D01*
X3264500D01*
X3250405Y5120018D01*
X3238761Y5129259D01*
X3238111Y5145330D01*
X3247947Y5155166D01*
X3251520Y5158476D01*
X3254523Y5160898D01*
X3257332Y5162914D01*
X3259619Y5164338D01*
X3260748Y5164924D01*
X3264500Y5164178D01*
X3339500D01*
X3365837Y5169417D01*
X3388164Y5184336D01*
X3403083Y5206663D01*
X3408322Y5233000D01*
Y5348000D01*
X3403083Y5374337D01*
X3388164Y5396664D01*
X3380096Y5402056D01*
X3384646Y5417056D01*
X3473354D01*
X3477904Y5402056D01*
X3469836Y5396664D01*
X3454917Y5374337D01*
X3449678Y5348000D01*
Y5233000D01*
X3454917Y5206663D01*
X3469836Y5184336D01*
X3492163Y5169417D01*
X3518500Y5164178D01*
X3593500D01*
X3619837Y5169417D01*
X3642164Y5184336D01*
X3657083Y5206663D01*
X3662322Y5233000D01*
Y5348000D01*
X3657083Y5374337D01*
X3642164Y5396664D01*
X3634096Y5402056D01*
X3638646Y5417056D01*
X3727354D01*
X3731904Y5402056D01*
X3723836Y5396664D01*
X3708917Y5374337D01*
X3703678Y5348000D01*
Y5233000D01*
X3708917Y5206663D01*
X3723836Y5184336D01*
X3746163Y5169417D01*
X3772500Y5164178D01*
X3847500D01*
X3873837Y5169417D01*
X3896164Y5184336D01*
X3911083Y5206663D01*
X3916322Y5233000D01*
Y5348000D01*
X3911083Y5374337D01*
X3896164Y5396664D01*
X3888096Y5402056D01*
X3892646Y5417056D01*
X3981354D01*
X3985904Y5402056D01*
X3977836Y5396664D01*
X3962917Y5374337D01*
X3957678Y5348000D01*
Y5233000D01*
X3962917Y5206663D01*
X3977836Y5184336D01*
X4000163Y5169417D01*
X4026500Y5164178D01*
X4101500D01*
X4127837Y5169417D01*
X4150164Y5184336D01*
X4165083Y5206663D01*
X4170322Y5233000D01*
Y5348000D01*
X4165083Y5374337D01*
X4150164Y5396664D01*
X4142096Y5402056D01*
X4146646Y5417056D01*
X4235354D01*
X4239904Y5402056D01*
X4231836Y5396664D01*
X4216917Y5374337D01*
X4211678Y5348000D01*
Y5233000D01*
X4216917Y5206663D01*
X4231836Y5184336D01*
X4254163Y5169417D01*
X4280500Y5164178D01*
X4355500D01*
X4381837Y5169417D01*
X4404164Y5184336D01*
X4419083Y5206663D01*
X4424322Y5233000D01*
Y5348000D01*
X4419083Y5374337D01*
X4404164Y5396664D01*
X4396096Y5402056D01*
X4400646Y5417056D01*
X4489354D01*
X4493904Y5402056D01*
X4485836Y5396664D01*
X4470917Y5374337D01*
X4465678Y5348000D01*
Y5233000D01*
X4470917Y5206663D01*
X4485836Y5184336D01*
X4508163Y5169417D01*
X4534500Y5164178D01*
X4609500D01*
X4635837Y5169417D01*
X4658164Y5184336D01*
X4673083Y5206663D01*
X4678322Y5233000D01*
Y5348000D01*
X4673083Y5374337D01*
X4658164Y5396664D01*
X4650096Y5402056D01*
X4654646Y5417056D01*
X4743354D01*
X4747904Y5402056D01*
X4739836Y5396664D01*
X4724917Y5374337D01*
X4719678Y5348000D01*
Y5233000D01*
X4724917Y5206663D01*
X4739836Y5184336D01*
X4762163Y5169417D01*
X4788500Y5164178D01*
X4863500D01*
X4889837Y5169417D01*
X4912164Y5184336D01*
X4927083Y5206663D01*
X4932322Y5233000D01*
Y5348000D01*
X4927083Y5374337D01*
X4912164Y5396664D01*
X4904096Y5402056D01*
X4908646Y5417056D01*
X4997354D01*
X5001904Y5402056D01*
X4993836Y5396664D01*
X4978917Y5374337D01*
X4973678Y5348000D01*
Y5233000D01*
X4978917Y5206663D01*
X4993836Y5184336D01*
X5016163Y5169417D01*
X5042500Y5164178D01*
X5117500D01*
X5126072Y5165883D01*
X5126698Y5165435D01*
X5131304Y5161520D01*
X5181661Y5111162D01*
X5181662Y5111161D01*
X5194893Y5102321D01*
X5210500Y5099216D01*
X5210501Y5099216D01*
X5229621D01*
X5236692Y5085988D01*
X5232917Y5080337D01*
X5227678Y5054000D01*
Y4939000D01*
X5232917Y4912663D01*
X5233789Y4911358D01*
X5226210Y4895701D01*
X5213093Y4890268D01*
X5199732Y4876906D01*
X5194522Y4864329D01*
X5194415Y4864169D01*
X5194377Y4863981D01*
X5193015Y4860692D01*
X5154011Y4821688D01*
X5139011Y4827901D01*
Y4836222D01*
X5131780Y4853681D01*
X5128407Y4857054D01*
X5133344Y4873330D01*
X5143837Y4875417D01*
X5166164Y4890336D01*
X5181083Y4912663D01*
X5186322Y4939000D01*
Y5054000D01*
X5181083Y5080337D01*
X5166164Y5102664D01*
X5143837Y5117583D01*
X5117500Y5122822D01*
X5042500D01*
X5016163Y5117583D01*
X4993836Y5102664D01*
X4978917Y5080337D01*
X4973678Y5054000D01*
Y4939000D01*
X4978917Y4912663D01*
X4993836Y4890336D01*
X5004898Y4882943D01*
X5000348Y4867944D01*
X4905652D01*
X4901102Y4882943D01*
X4912164Y4890336D01*
X4927083Y4912663D01*
X4932322Y4939000D01*
Y5054000D01*
X4927083Y5080337D01*
X4912164Y5102664D01*
X4889837Y5117583D01*
X4863500Y5122822D01*
X4788500D01*
X4762163Y5117583D01*
X4739836Y5102664D01*
X4724917Y5080337D01*
X4719678Y5054000D01*
Y4939000D01*
X4724917Y4912663D01*
X4739836Y4890336D01*
X4740270Y4890046D01*
X4735719Y4875046D01*
X4721759D01*
X4704301Y4867814D01*
X4690939Y4854452D01*
X4683707Y4836994D01*
Y4818098D01*
X4688808Y4805784D01*
X4681196Y4790783D01*
X4506893D01*
X4436985Y4860692D01*
X4435623Y4863981D01*
X4435585Y4864169D01*
X4435478Y4864329D01*
X4430269Y4876906D01*
X4416907Y4890268D01*
X4412914Y4903430D01*
X4419083Y4912663D01*
X4424322Y4939000D01*
Y5054000D01*
X4419083Y5080337D01*
X4404164Y5102664D01*
X4381837Y5117583D01*
X4355500Y5122822D01*
X4280500D01*
X4254163Y5117583D01*
X4231836Y5102664D01*
X4216917Y5080337D01*
X4211678Y5054000D01*
Y4939000D01*
X4216917Y4912663D01*
X4231836Y4890336D01*
X4254163Y4875417D01*
X4280500Y4870178D01*
X4335331D01*
X4342500Y4859448D01*
Y4840552D01*
X4348617Y4825784D01*
X4342443Y4810784D01*
X3840001D01*
X3840000Y4810784D01*
X3824393Y4807679D01*
X3811162Y4798839D01*
X3811161Y4798838D01*
X3609308Y4596984D01*
X3606021Y4595623D01*
X3605830Y4595585D01*
X3605669Y4595477D01*
X3593094Y4590268D01*
X3579732Y4576907D01*
X3572500Y4559448D01*
Y4540552D01*
X3579732Y4523094D01*
X3593094Y4509732D01*
X3610552Y4502500D01*
X3629448D01*
X3646907Y4509732D01*
X3660269Y4523094D01*
X3665477Y4535669D01*
X3665585Y4535830D01*
X3665623Y4536021D01*
X3666985Y4539308D01*
X3856893Y4729217D01*
X4135047D01*
X4139597Y4714217D01*
X4130384Y4708061D01*
X3999308Y4576984D01*
X3996021Y4575623D01*
X3995830Y4575585D01*
X3995669Y4575477D01*
X3983094Y4570268D01*
X3969732Y4556907D01*
X3962500Y4539448D01*
Y4520552D01*
X3969732Y4503094D01*
X3983094Y4489732D01*
X4000552Y4482500D01*
X4019448D01*
X4036907Y4489732D01*
X4050269Y4503094D01*
X4055477Y4515669D01*
X4055585Y4515830D01*
X4055623Y4516021D01*
X4056985Y4519308D01*
X4080251Y4542574D01*
X4093093Y4529732D01*
X4110552Y4522500D01*
X4129448D01*
X4146906Y4529732D01*
X4160268Y4543094D01*
X4165477Y4555669D01*
X4165585Y4555830D01*
X4165623Y4556021D01*
X4166984Y4559308D01*
X4211116Y4603439D01*
X5108355D01*
X5111897Y4595687D01*
X5112954Y4588439D01*
X5101139Y4576624D01*
X5093908Y4559166D01*
Y4540269D01*
X5101139Y4522811D01*
X5114501Y4509449D01*
X5131959Y4502218D01*
X5150856D01*
X5168314Y4509449D01*
X5178324Y4519459D01*
X5183033Y4514750D01*
X5200491Y4507519D01*
X5219388D01*
X5236846Y4514750D01*
X5250208Y4528112D01*
X5257439Y4545570D01*
Y4564467D01*
X5250208Y4581925D01*
X5236846Y4595287D01*
X5227951Y4598971D01*
X5225514Y4615384D01*
X5318016Y4707886D01*
X6481113D01*
X6488066Y4692886D01*
X6482500Y4679448D01*
Y4660552D01*
X6489731Y4643094D01*
X6503093Y4629732D01*
X6520552Y4622500D01*
X6539448D01*
X6552025Y4627710D01*
X6552214Y4627747D01*
X6552374Y4627854D01*
X6555663Y4629217D01*
X6801631D01*
Y4617767D01*
X6808862Y4600309D01*
X6822224Y4586947D01*
X6839683Y4579716D01*
X6858579D01*
X6869398Y4584197D01*
X6872748Y4576110D01*
X6886110Y4562748D01*
X6903568Y4555516D01*
X6922464D01*
X6939923Y4562748D01*
X6945045Y4567870D01*
X6960045Y4561657D01*
Y4424575D01*
X6960044Y4424574D01*
X6963149Y4408967D01*
X6971990Y4395735D01*
X6988785Y4378940D01*
X6990147Y4375652D01*
X6990185Y4375463D01*
X6990292Y4375303D01*
X6995501Y4362726D01*
X7008863Y4349364D01*
X7017507Y4345784D01*
X7014524Y4330784D01*
X6756457D01*
X6739638Y4347603D01*
X6738276Y4350891D01*
X6738238Y4351080D01*
X6738131Y4351240D01*
X6732922Y4363817D01*
X6719560Y4377179D01*
X6706983Y4382389D01*
X6706823Y4382496D01*
X6706634Y4382533D01*
X6705476Y4383013D01*
X6703930Y4390781D01*
X6695089Y4404013D01*
X6640264Y4458838D01*
X6627032Y4467679D01*
X6611425Y4470784D01*
X6611424Y4470784D01*
X6451566D01*
X6445669Y4479609D01*
Y4498505D01*
X6438438Y4515963D01*
X6425076Y4529325D01*
X6425957Y4545196D01*
X6436906Y4549732D01*
X6450268Y4563093D01*
X6457500Y4580552D01*
Y4599448D01*
X6450268Y4616906D01*
X6436906Y4630268D01*
X6419448Y4637500D01*
X6400552D01*
X6397397Y4636193D01*
X6391269Y4650989D01*
X6377907Y4664351D01*
X6360449Y4671582D01*
X6341552D01*
X6324094Y4664351D01*
X6310732Y4650989D01*
X6303500Y4633531D01*
X6299582Y4630315D01*
X6297226Y4630784D01*
X6297225Y4630783D01*
X6185663D01*
X6182374Y4632146D01*
X6182214Y4632253D01*
X6182025Y4632290D01*
X6169448Y4637500D01*
X6150552D01*
X6133094Y4630268D01*
X6119732Y4616906D01*
X6112500Y4599448D01*
Y4580552D01*
X6119732Y4563093D01*
X6133094Y4549732D01*
X6150552Y4542500D01*
X6169448D01*
X6182025Y4547710D01*
X6182214Y4547747D01*
X6182374Y4547854D01*
X6185663Y4549216D01*
X6280333D01*
X6343766Y4485784D01*
X6337553Y4470784D01*
X5932022D01*
X5809055Y4593750D01*
X5794997Y4603143D01*
X5778415Y4606442D01*
X5726388D01*
X5709806Y4603143D01*
X5695748Y4593750D01*
X5555330Y4453332D01*
X3703269D01*
X3686686Y4450034D01*
X3672628Y4440641D01*
X3459359Y4227372D01*
X3449966Y4213314D01*
X3446667Y4196731D01*
Y4119509D01*
X3442500Y4109448D01*
Y4090552D01*
X3449731Y4073093D01*
X3463093Y4059732D01*
X3480552Y4052500D01*
X3499448D01*
X3516906Y4059732D01*
X3530268Y4073093D01*
X3537500Y4090552D01*
Y4109448D01*
X3533332Y4119509D01*
Y4178782D01*
X3721218Y4366668D01*
X5573279D01*
X5589861Y4369966D01*
X5594474Y4368567D01*
X5599696Y4355960D01*
X5613058Y4342598D01*
X5630517Y4335366D01*
X5649413D01*
X5666871Y4342598D01*
X5680233Y4355960D01*
X5687465Y4373418D01*
Y4392314D01*
X5680233Y4409772D01*
X5666871Y4423134D01*
X5665783Y4423585D01*
X5662857Y4438297D01*
X5707998Y4483438D01*
X5709732Y4483093D01*
X5723093Y4469732D01*
X5735671Y4464522D01*
X5735831Y4464415D01*
X5736019Y4464378D01*
X5739308Y4463016D01*
X5841161Y4361162D01*
X5841162Y4361162D01*
X5854393Y4352321D01*
X5870000Y4349217D01*
X5920582D01*
Y4330693D01*
X5927814Y4313235D01*
X5941176Y4299873D01*
X5958634Y4292641D01*
X5977530D01*
X5994989Y4299873D01*
X6008350Y4313235D01*
X6015582Y4330693D01*
Y4349217D01*
X6473107D01*
X6592388Y4229935D01*
X6586648Y4216077D01*
X5320000D01*
X5298540Y4211809D01*
X5280347Y4199653D01*
X5096772Y4016077D01*
X5080000D01*
X5058540Y4011809D01*
X5040347Y3999653D01*
X5035897Y3992993D01*
X5016586Y3991091D01*
X4971548Y4036129D01*
X4971339Y4036442D01*
X4971338Y4036443D01*
X4946442Y4061338D01*
X4946129Y4061548D01*
X4798839Y4208838D01*
X4785607Y4217679D01*
X4770000Y4220784D01*
X4769999Y4220784D01*
X4635663D01*
X4632374Y4222146D01*
X4632214Y4222253D01*
X4632025Y4222290D01*
X4619448Y4227500D01*
X4600552D01*
X4583093Y4220268D01*
X4569732Y4206906D01*
X4562500Y4189448D01*
Y4170552D01*
X4569732Y4153094D01*
X4583093Y4139732D01*
X4600552Y4132500D01*
X4619448D01*
X4632025Y4137710D01*
X4632214Y4137747D01*
X4632374Y4137854D01*
X4635663Y4139217D01*
X4753107D01*
X4867574Y4024749D01*
X4859732Y4016906D01*
X4852500Y3999448D01*
Y3980552D01*
X4859732Y3963093D01*
X4873094Y3949731D01*
X4890552Y3942500D01*
X4909448D01*
X4926907Y3949731D01*
X4934749Y3957574D01*
X4958788Y3933536D01*
Y3866131D01*
X4957426Y3862842D01*
X4957319Y3862682D01*
X4957281Y3862494D01*
X4952072Y3849917D01*
Y3831020D01*
X4959303Y3813562D01*
X4972665Y3800200D01*
X4990123Y3792969D01*
X5009020D01*
X5026478Y3800200D01*
X5039840Y3813562D01*
X5047071Y3831020D01*
Y3849917D01*
X5041862Y3862494D01*
X5041824Y3862682D01*
X5041717Y3862842D01*
X5040355Y3866131D01*
Y3904432D01*
X5053583Y3911503D01*
X5058540Y3908191D01*
X5080000Y3903923D01*
X5120000D01*
X5141460Y3908191D01*
X5159653Y3920347D01*
X5343228Y4103923D01*
X6436607D01*
X6444940Y4091451D01*
X6444588Y4090601D01*
Y4071705D01*
X6451820Y4054246D01*
X6465182Y4040884D01*
X6482640Y4033653D01*
X6486113D01*
X6497500Y4021948D01*
Y4003052D01*
X6504732Y3985594D01*
X6514346Y3975980D01*
X6509045Y3960980D01*
X6489488D01*
Y3972025D01*
X6482257Y3989484D01*
X6468895Y4002845D01*
X6451436Y4010077D01*
X6432540D01*
X6415082Y4002845D01*
X6401720Y3989484D01*
X6386068Y3990893D01*
X6377490Y3996625D01*
X6357981Y4000506D01*
X6338472Y3996625D01*
X6321933Y3985574D01*
X6310882Y3969035D01*
X6307001Y3949526D01*
X6310882Y3930017D01*
X6312007Y3928332D01*
X6303990Y3913332D01*
X5517949D01*
X5448279Y3983002D01*
X5434222Y3992395D01*
X5417639Y3995694D01*
X5414970D01*
X5400947Y4001502D01*
X5382050D01*
X5364592Y3994271D01*
X5351230Y3980909D01*
X5343999Y3963451D01*
Y3944554D01*
X5351230Y3927096D01*
X5364592Y3913734D01*
X5382050Y3906502D01*
X5400947D01*
X5401845Y3906874D01*
X5469360Y3839359D01*
X5470751Y3838430D01*
X5472221Y3823502D01*
X5292051Y3643332D01*
X5189509D01*
X5179448Y3647500D01*
X5160552D01*
X5143094Y3640268D01*
X5129732Y3626906D01*
X5122500Y3609448D01*
Y3590552D01*
X5129732Y3573093D01*
X5143094Y3559732D01*
X5160552Y3552500D01*
X5179448D01*
X5189509Y3556668D01*
X5310000D01*
X5326583Y3559966D01*
X5340641Y3569359D01*
X5482328Y3711047D01*
X5493205Y3705391D01*
X5495687Y3703192D01*
Y3685204D01*
X5502918Y3667746D01*
X5513996Y3656668D01*
X5514892Y3639959D01*
X5455419Y3580486D01*
X5443263Y3562293D01*
X5438995Y3540833D01*
X5443263Y3519373D01*
X5455419Y3501180D01*
X5473612Y3489025D01*
X5495072Y3484756D01*
X5516532Y3489025D01*
X5534725Y3501180D01*
X5624461Y3590917D01*
X6358297D01*
X6379757Y3595186D01*
X6397949Y3607342D01*
X6401333Y3612405D01*
X6416260Y3613875D01*
X6416612Y3613524D01*
X6434070Y3606293D01*
X6452967D01*
X6470425Y3613524D01*
X6483787Y3626886D01*
X6491018Y3644344D01*
Y3663241D01*
X6483787Y3680699D01*
X6470425Y3694061D01*
X6452967Y3701292D01*
X6434070D01*
X6416612Y3694061D01*
X6413269Y3690718D01*
X6397950Y3686647D01*
X6392944Y3689991D01*
X6379757Y3698803D01*
X6358297Y3703072D01*
X6023886D01*
X6015308Y3718072D01*
X6019725Y3728736D01*
Y3747632D01*
X6013912Y3761667D01*
X6020515Y3776668D01*
X6345483D01*
X6380291Y3741859D01*
X6394349Y3732466D01*
X6410932Y3729168D01*
X6526020D01*
X6536081Y3725000D01*
X6554978D01*
X6565566Y3713150D01*
X6567030Y3709616D01*
X6567364Y3693519D01*
X6554002Y3680157D01*
X6546771Y3662699D01*
Y3643802D01*
X6554002Y3626344D01*
X6567364Y3612982D01*
X6584822Y3605751D01*
X6603719D01*
X6616296Y3610960D01*
X6616485Y3610998D01*
X6616645Y3611105D01*
X6619934Y3612467D01*
X6653326D01*
X6653327Y3612467D01*
X6654423Y3612685D01*
X6666058Y3595271D01*
X6684251Y3583116D01*
X6705711Y3578847D01*
X7208499D01*
X7208707Y3578805D01*
X7230167Y3583074D01*
X7248360Y3595230D01*
X7260516Y3613423D01*
X7264784Y3634882D01*
X7274063Y3646189D01*
X7596971D01*
X7596973Y3646189D01*
X7612580Y3649293D01*
X7625811Y3658134D01*
X7660502Y3692825D01*
X7661200D01*
X7678658Y3700056D01*
X7692020Y3713418D01*
X7699251Y3730876D01*
Y3749773D01*
X7692020Y3767231D01*
X7678658Y3780593D01*
X7661200Y3787825D01*
X7642303D01*
X7624845Y3780593D01*
X7611483Y3767231D01*
X7607212Y3756921D01*
X7606842Y3756419D01*
X7606600Y3755442D01*
X7605775Y3753452D01*
X7580079Y3727756D01*
X7115031D01*
X7109291Y3741614D01*
X7126893Y3759217D01*
X7184337D01*
X7187626Y3757854D01*
X7187786Y3757747D01*
X7187975Y3757710D01*
X7200552Y3752500D01*
X7219448D01*
X7236907Y3759732D01*
X7250268Y3773094D01*
X7257500Y3790552D01*
Y3809448D01*
X7250268Y3826906D01*
X7236907Y3840268D01*
X7219448Y3847500D01*
X7200552D01*
X7187975Y3842290D01*
X7187786Y3842253D01*
X7187626Y3842146D01*
X7184337Y3840784D01*
X7110000D01*
X7094393Y3837679D01*
X7081162Y3828838D01*
X7081161Y3828838D01*
X7045771Y3793448D01*
X7034478Y3804741D01*
X7017020Y3811972D01*
X6998124D01*
X6980665Y3804741D01*
X6978793Y3802868D01*
X6972717Y3808943D01*
X6955259Y3816175D01*
X6936363D01*
X6926302Y3812007D01*
X6861801D01*
X6857250Y3827007D01*
X6867644Y3833952D01*
X6878695Y3850491D01*
X6882575Y3870000D01*
X6878695Y3889509D01*
X6867644Y3906048D01*
X6819187Y3954505D01*
X6815873Y3956719D01*
X6818832Y3963863D01*
Y3978506D01*
X6831554Y3985607D01*
X6832691Y3985861D01*
X6881443Y3937109D01*
X6899636Y3924953D01*
X6921096Y3920684D01*
X6942556Y3924953D01*
X6960749Y3937109D01*
X6972905Y3955302D01*
X6977173Y3976761D01*
X6972905Y3998221D01*
X6960749Y4016414D01*
X6887510Y4089653D01*
X6869317Y4101809D01*
X6847858Y4106077D01*
X6792851D01*
X6783575Y4121078D01*
X6787500Y4130552D01*
Y4149448D01*
X6780268Y4166907D01*
X6766906Y4180268D01*
X6754329Y4185478D01*
X6754169Y4185585D01*
X6753981Y4185623D01*
X6750692Y4186985D01*
X6650420Y4287257D01*
X6654842Y4304048D01*
X6657582Y4304807D01*
X6665747Y4296642D01*
X6678324Y4291433D01*
X6678484Y4291326D01*
X6678672Y4291288D01*
X6681961Y4289926D01*
X6710725Y4261162D01*
X6710725Y4261162D01*
X6723957Y4252321D01*
X6739564Y4249217D01*
X7096545D01*
X7096546Y4249216D01*
X7112153Y4252321D01*
X7125385Y4261162D01*
X7190359Y4326136D01*
X7193648Y4327499D01*
X7193837Y4327536D01*
X7193997Y4327643D01*
X7201692Y4330831D01*
X7201881Y4330868D01*
X7202041Y4330975D01*
X7205330Y4332338D01*
X7333120D01*
X7333121Y4332337D01*
X7348728Y4335442D01*
X7361959Y4344283D01*
X7488642Y4470965D01*
X7504533Y4465643D01*
X7509731Y4453093D01*
X7523093Y4439732D01*
X7540552Y4432500D01*
X7559448D01*
X7576906Y4439732D01*
X7590268Y4453093D01*
X7597500Y4470552D01*
Y4489448D01*
X7590268Y4506906D01*
X7576906Y4520268D01*
X7568011Y4523953D01*
X7566907Y4539732D01*
X7580268Y4553094D01*
X7587500Y4570552D01*
Y4589448D01*
X7580268Y4606906D01*
X7566906Y4620268D01*
X7549448Y4627500D01*
X7530552D01*
X7513093Y4620268D01*
X7499732Y4606906D01*
X7494522Y4594329D01*
X7494415Y4594169D01*
X7494377Y4593981D01*
X7493015Y4590692D01*
X7316228Y4413905D01*
X7210914D01*
X7207180Y4417500D01*
X7208154Y4423938D01*
X7212091Y4433595D01*
X7226907Y4439732D01*
X7240268Y4453093D01*
X7247500Y4470552D01*
Y4489448D01*
X7240268Y4506906D01*
X7226907Y4520268D01*
X7209448Y4527500D01*
X7190552D01*
X7181912Y4523921D01*
X6976805Y4729028D01*
X6982545Y4742886D01*
X7069437D01*
X7119550Y4692773D01*
X7119551Y4692772D01*
X7132782Y4683931D01*
X7148389Y4680827D01*
X7148391Y4680827D01*
X7185127D01*
X7188416Y4679465D01*
X7188576Y4679358D01*
X7188765Y4679320D01*
X7201342Y4674111D01*
X7220238D01*
X7237696Y4681342D01*
X7251058Y4694704D01*
X7258290Y4712162D01*
Y4731059D01*
X7251058Y4748517D01*
X7237696Y4761879D01*
X7220238Y4769110D01*
X7201342D01*
X7188765Y4763901D01*
X7188576Y4763863D01*
X7188416Y4763756D01*
X7185127Y4762394D01*
X7165282D01*
X7115169Y4812508D01*
X7101938Y4821349D01*
X7086330Y4824453D01*
X7086329Y4824453D01*
X6731575D01*
X6727500Y4830552D01*
Y4849448D01*
X6720269Y4866906D01*
X6706907Y4880268D01*
X6702655Y4882029D01*
X6697022Y4900599D01*
X6705083Y4912663D01*
X6710322Y4939000D01*
Y5054000D01*
X6705083Y5080337D01*
X6690164Y5102664D01*
X6667837Y5117583D01*
X6641500Y5122822D01*
X6566500D01*
X6540163Y5117583D01*
X6517836Y5102664D01*
X6502917Y5080337D01*
X6497678Y5054000D01*
Y4939000D01*
X6502917Y4912663D01*
X6514195Y4895783D01*
X6507187Y4880783D01*
X6446813D01*
X6439805Y4895783D01*
X6451083Y4912663D01*
X6456322Y4939000D01*
Y5054000D01*
X6451083Y5080337D01*
X6436164Y5102664D01*
X6413837Y5117583D01*
X6387500Y5122822D01*
X6312500D01*
X6286163Y5117583D01*
X6263836Y5102664D01*
X6248917Y5080337D01*
X6243678Y5054000D01*
Y4939000D01*
X6248917Y4912663D01*
X6260195Y4895783D01*
X6253187Y4880783D01*
X6192813D01*
X6185805Y4895783D01*
X6197083Y4912663D01*
X6202322Y4939000D01*
Y5054000D01*
X6197083Y5080337D01*
X6182164Y5102664D01*
X6159837Y5117583D01*
X6133500Y5122822D01*
X6058500D01*
X6032163Y5117583D01*
X6009836Y5102664D01*
X5994917Y5080337D01*
X5989678Y5054000D01*
Y4939000D01*
X5994917Y4912663D01*
X6006195Y4895783D01*
X5999187Y4880783D01*
X5938813D01*
X5931805Y4895783D01*
X5943083Y4912663D01*
X5948322Y4939000D01*
Y5054000D01*
X5943083Y5080337D01*
X5928164Y5102664D01*
X5905837Y5117583D01*
X5879500Y5122822D01*
X5804500D01*
X5778163Y5117583D01*
X5767017Y5110136D01*
X5764512Y5110002D01*
X5748688Y5115929D01*
X5742527Y5125150D01*
X5698838Y5168838D01*
X5687094Y5176686D01*
X5684756Y5179451D01*
X5681920Y5185358D01*
X5680601Y5193969D01*
X5689083Y5206663D01*
X5694322Y5233000D01*
Y5348000D01*
X5689083Y5374337D01*
X5674164Y5396664D01*
X5666096Y5402056D01*
X5670646Y5417056D01*
X5759354D01*
X5763904Y5402056D01*
X5755836Y5396664D01*
X5740917Y5374337D01*
X5735678Y5348000D01*
Y5233000D01*
X5740917Y5206663D01*
X5755836Y5184336D01*
X5778163Y5169417D01*
X5804500Y5164178D01*
X5879500D01*
X5905837Y5169417D01*
X5928164Y5184336D01*
X5943083Y5206663D01*
X5948322Y5233000D01*
Y5348000D01*
X5943083Y5374337D01*
X5928164Y5396664D01*
X5920096Y5402056D01*
X5924646Y5417056D01*
X6013354D01*
X6017904Y5402056D01*
X6009836Y5396664D01*
X5994917Y5374337D01*
X5989678Y5348000D01*
Y5233000D01*
X5994917Y5206663D01*
X6009836Y5184336D01*
X6032163Y5169417D01*
X6058500Y5164178D01*
X6133500D01*
X6159837Y5169417D01*
X6182164Y5184336D01*
X6197083Y5206663D01*
X6202322Y5233000D01*
Y5348000D01*
X6197083Y5374337D01*
X6182164Y5396664D01*
X6174096Y5402056D01*
X6178646Y5417056D01*
X6267354D01*
X6271904Y5402056D01*
X6263836Y5396664D01*
X6248917Y5374337D01*
X6243678Y5348000D01*
Y5233000D01*
X6248917Y5206663D01*
X6263836Y5184336D01*
X6286163Y5169417D01*
X6312500Y5164178D01*
X6387500D01*
X6413837Y5169417D01*
X6436164Y5184336D01*
X6451083Y5206663D01*
X6456322Y5233000D01*
Y5348000D01*
X6451083Y5374337D01*
X6436164Y5396664D01*
X6428096Y5402056D01*
X6432646Y5417056D01*
X6521354D01*
X6525904Y5402056D01*
X6517836Y5396664D01*
X6502917Y5374337D01*
X6497678Y5348000D01*
Y5233000D01*
X6502917Y5206663D01*
X6517836Y5184336D01*
X6540163Y5169417D01*
X6566500Y5164178D01*
X6641500D01*
X6667837Y5169417D01*
X6690164Y5184336D01*
X6705083Y5206663D01*
X6710322Y5233000D01*
Y5348000D01*
X6705083Y5374337D01*
X6690164Y5396664D01*
X6682096Y5402056D01*
X6686646Y5417056D01*
X6775354D01*
X6779904Y5402056D01*
X6771836Y5396664D01*
X6756917Y5374337D01*
X6751678Y5348000D01*
Y5233000D01*
X6756917Y5206663D01*
X6771836Y5184336D01*
X6794163Y5169417D01*
X6820500Y5164178D01*
X6895500D01*
X6921837Y5169417D01*
X6944164Y5184336D01*
X6959083Y5206663D01*
X6964322Y5233000D01*
Y5348000D01*
X6959083Y5374337D01*
X6944164Y5396664D01*
X6936096Y5402056D01*
X6940646Y5417056D01*
X7029354D01*
X7033904Y5402056D01*
X7025836Y5396664D01*
X7010917Y5374337D01*
X7005678Y5348000D01*
Y5233000D01*
X7010917Y5206663D01*
X7025836Y5184336D01*
X7048163Y5169417D01*
X7074500Y5164178D01*
X7149500D01*
X7175837Y5169417D01*
X7198164Y5184336D01*
X7213083Y5206663D01*
X7218322Y5233000D01*
Y5348000D01*
X7213083Y5374337D01*
X7198164Y5396664D01*
X7190096Y5402056D01*
X7194646Y5417056D01*
X7283354D01*
X7287904Y5402056D01*
X7279836Y5396664D01*
X7264917Y5374337D01*
X7259678Y5348000D01*
Y5233000D01*
X7264917Y5206663D01*
X7279836Y5184336D01*
X7302163Y5169417D01*
X7328500Y5164178D01*
X7403500D01*
X7429837Y5169417D01*
X7452164Y5184336D01*
X7467083Y5206663D01*
X7472322Y5233000D01*
Y5348000D01*
X7467083Y5374337D01*
X7452164Y5396664D01*
X7444096Y5402056D01*
X7448646Y5417056D01*
X7537354D01*
X7541904Y5402056D01*
X7533836Y5396664D01*
X7518917Y5374337D01*
X7513678Y5348000D01*
Y5233000D01*
X7518917Y5206663D01*
X7533836Y5184336D01*
X7556163Y5169417D01*
X7582500Y5164178D01*
X7657500D01*
X7683837Y5169417D01*
X7706164Y5184336D01*
X7721083Y5206663D01*
X7726322Y5233000D01*
Y5348000D01*
X7721083Y5374337D01*
X7706164Y5396664D01*
X7698096Y5402056D01*
X7702646Y5417056D01*
X8379531D01*
X8381527Y5417453D01*
X8434462Y5410484D01*
D02*
G37*
G36*
X3257684Y4902602D02*
X3254390Y4902615D01*
X3250955Y4902139D01*
X3247380Y4901175D01*
X3243666Y4899722D01*
X3239811Y4897782D01*
X3235816Y4895353D01*
X3231681Y4892436D01*
X3227406Y4889032D01*
X3218435Y4880758D01*
X3202767Y4900444D01*
X3207398Y4905249D01*
X3215217Y4914458D01*
X3218405Y4918862D01*
X3221112Y4923132D01*
X3223337Y4927269D01*
X3225082Y4931272D01*
X3226346Y4935142D01*
X3227128Y4938878D01*
X3227430Y4942480D01*
X3257684Y4902602D01*
D02*
G37*
G36*
X5723729Y4913226D02*
X5724048Y4909909D01*
X5724328Y4908363D01*
X5724687Y4906890D01*
X5725126Y4905492D01*
X5725646Y4904168D01*
X5726245Y4902919D01*
X5726924Y4901744D01*
X5727682Y4900643D01*
X5699695D01*
X5700454Y4901744D01*
X5701133Y4902919D01*
X5701732Y4904168D01*
X5702251Y4905492D01*
X5702690Y4906890D01*
X5703050Y4908363D01*
X5703329Y4909909D01*
X5703529Y4911530D01*
X5703689Y4914996D01*
X5723689D01*
X5723729Y4913226D01*
D02*
G37*
G36*
X6669491Y4826007D02*
X6668391Y4826765D01*
X6667216Y4827444D01*
X6665966Y4828043D01*
X6664642Y4828562D01*
X6663244Y4829002D01*
X6661772Y4829361D01*
X6660225Y4829641D01*
X6658604Y4829840D01*
X6655139Y4830000D01*
Y4850000D01*
X6656908Y4850040D01*
X6660225Y4850359D01*
X6661772Y4850639D01*
X6663244Y4850998D01*
X6664642Y4851438D01*
X6665966Y4851957D01*
X6667216Y4852556D01*
X6668391Y4853235D01*
X6669491Y4853993D01*
Y4826007D01*
D02*
G37*
G36*
X5242464Y4832674D02*
X5241149Y4832433D01*
X5239838Y4832082D01*
X5238531Y4831622D01*
X5237228Y4831053D01*
X5235929Y4830375D01*
X5234634Y4829588D01*
X5233342Y4828692D01*
X5232055Y4827687D01*
X5229491Y4825349D01*
X5215349Y4839491D01*
X5216572Y4840771D01*
X5218692Y4843342D01*
X5219588Y4844634D01*
X5220375Y4845929D01*
X5221053Y4847228D01*
X5221622Y4848531D01*
X5222082Y4849838D01*
X5222433Y4851149D01*
X5222674Y4852464D01*
X5242464Y4832674D01*
D02*
G37*
G36*
X4407568Y4851149D02*
X4407918Y4849838D01*
X4408378Y4848531D01*
X4408947Y4847228D01*
X4409625Y4845929D01*
X4410412Y4844634D01*
X4411308Y4843342D01*
X4412314Y4842055D01*
X4414651Y4839491D01*
X4400509Y4825349D01*
X4399229Y4826573D01*
X4396658Y4828692D01*
X4395366Y4829588D01*
X4394071Y4830375D01*
X4392772Y4831053D01*
X4391469Y4831622D01*
X4390162Y4832082D01*
X4388851Y4832433D01*
X4387536Y4832674D01*
X4407326Y4852464D01*
X4407568Y4851149D01*
D02*
G37*
G36*
X2832904Y4844459D02*
X2833550Y4844205D01*
X2834361Y4843981D01*
X2835336Y4843787D01*
X2836478Y4843623D01*
X2839256Y4843384D01*
X2844663Y4843249D01*
Y4818249D01*
X2842695Y4818234D01*
X2835336Y4817712D01*
X2834361Y4817517D01*
X2833550Y4817294D01*
X2832904Y4817040D01*
X2832424Y4816756D01*
Y4844743D01*
X2832904Y4844459D01*
D02*
G37*
G36*
X4743108Y4840522D02*
X4744278Y4839817D01*
X4745523Y4839194D01*
X4746842Y4838654D01*
X4748236Y4838198D01*
X4749705Y4837824D01*
X4751249Y4837534D01*
X4752868Y4837326D01*
X4754561Y4837201D01*
X4756330Y4837160D01*
X4755792Y4817160D01*
X4754006Y4817122D01*
X4750674Y4816822D01*
X4749127Y4816560D01*
X4747660Y4816222D01*
X4746273Y4815810D01*
X4744966Y4815322D01*
X4743738Y4814759D01*
X4742590Y4814121D01*
X4741522Y4813409D01*
X4742013Y4841311D01*
X4743108Y4840522D01*
D02*
G37*
G36*
X5080705Y4813009D02*
X5079610Y4813798D01*
X5078440Y4814503D01*
X5077196Y4815126D01*
X5075877Y4815666D01*
X5074482Y4816122D01*
X5073013Y4816496D01*
X5071469Y4816786D01*
X5069851Y4816994D01*
X5068157Y4817119D01*
X5066389Y4817160D01*
X5066926Y4837160D01*
X5068712Y4837198D01*
X5072045Y4837498D01*
X5073591Y4837760D01*
X5075058Y4838098D01*
X5076446Y4838511D01*
X5077753Y4838998D01*
X5078980Y4839561D01*
X5080128Y4840199D01*
X5081196Y4840911D01*
X5080705Y4813009D01*
D02*
G37*
G36*
X2738990Y4829679D02*
X2739267Y4829043D01*
X2739682Y4828312D01*
X2740235Y4827484D01*
X2740926Y4826561D01*
X2742721Y4824427D01*
X2746449Y4820510D01*
X2728772Y4802832D01*
X2727370Y4804213D01*
X2721797Y4809046D01*
X2720970Y4809599D01*
X2720238Y4810014D01*
X2719602Y4810291D01*
X2719061Y4810430D01*
X2738852Y4830220D01*
X2738990Y4829679D01*
D02*
G37*
G36*
X7200281Y4707617D02*
X7199181Y4708376D01*
X7198005Y4709055D01*
X7196756Y4709654D01*
X7195432Y4710173D01*
X7194034Y4710612D01*
X7192562Y4710972D01*
X7191015Y4711251D01*
X7189394Y4711451D01*
X7185929Y4711611D01*
Y4731611D01*
X7187698Y4731650D01*
X7191015Y4731970D01*
X7192562Y4732250D01*
X7194034Y4732609D01*
X7195432Y4733048D01*
X7196756Y4733567D01*
X7198005Y4734166D01*
X7199181Y4734845D01*
X7200281Y4735604D01*
Y4707617D01*
D02*
G37*
G36*
X6541609Y4683235D02*
X6542784Y4682556D01*
X6544034Y4681957D01*
X6545357Y4681438D01*
X6546756Y4680999D01*
X6548228Y4680639D01*
X6549775Y4680359D01*
X6551396Y4680160D01*
X6554861Y4680000D01*
Y4660000D01*
X6553092Y4659960D01*
X6549775Y4659641D01*
X6548228Y4659361D01*
X6546756Y4659002D01*
X6545357Y4658562D01*
X6544034Y4658043D01*
X6542784Y4657444D01*
X6541609Y4656765D01*
X6540509Y4656007D01*
Y4683993D01*
X6541609Y4683235D01*
D02*
G37*
G36*
X6171609Y4603235D02*
X6172785Y4602556D01*
X6174034Y4601957D01*
X6175358Y4601438D01*
X6176756Y4600998D01*
X6178228Y4600639D01*
X6179775Y4600359D01*
X6181396Y4600160D01*
X6184861Y4600000D01*
Y4580000D01*
X6183092Y4579960D01*
X6179775Y4579641D01*
X6178228Y4579361D01*
X6176756Y4579002D01*
X6175358Y4578562D01*
X6174034Y4578043D01*
X6172785Y4577444D01*
X6171609Y4576765D01*
X6170509Y4576007D01*
Y4603993D01*
X6171609Y4603235D01*
D02*
G37*
G36*
X4144651Y4580508D02*
X4143427Y4579229D01*
X4141308Y4576658D01*
X4140412Y4575367D01*
X4139625Y4574071D01*
X4138947Y4572772D01*
X4138378Y4571469D01*
X4137918Y4570162D01*
X4137568Y4568851D01*
X4137326Y4567536D01*
X4117536Y4587326D01*
X4118851Y4587568D01*
X4120161Y4587918D01*
X4121469Y4588378D01*
X4122772Y4588947D01*
X4124071Y4589625D01*
X4125366Y4590412D01*
X4126658Y4591308D01*
X4127945Y4592313D01*
X4130508Y4594651D01*
X4144651Y4580508D01*
D02*
G37*
G36*
X7542464Y4562674D02*
X7541149Y4562433D01*
X7539838Y4562082D01*
X7538531Y4561622D01*
X7537228Y4561053D01*
X7535929Y4560375D01*
X7534634Y4559588D01*
X7533342Y4558692D01*
X7532055Y4557687D01*
X7529491Y4555349D01*
X7515349Y4569491D01*
X7516572Y4570771D01*
X7518692Y4573342D01*
X7519588Y4574634D01*
X7520375Y4575929D01*
X7521053Y4577228D01*
X7521622Y4578531D01*
X7522082Y4579838D01*
X7522433Y4581149D01*
X7522674Y4582464D01*
X7542464Y4562674D01*
D02*
G37*
G36*
X3644651Y4560509D02*
X3643428Y4559229D01*
X3641308Y4556658D01*
X3640412Y4555367D01*
X3639625Y4554071D01*
X3638948Y4552772D01*
X3638379Y4551469D01*
X3637919Y4550162D01*
X3637568Y4548851D01*
X3637326Y4547536D01*
X3617536Y4567326D01*
X3618851Y4567568D01*
X3620162Y4567918D01*
X3621469Y4568378D01*
X3622772Y4568947D01*
X3624071Y4569625D01*
X3625367Y4570412D01*
X3626658Y4571308D01*
X3627945Y4572313D01*
X3630509Y4574651D01*
X3644651Y4560509D01*
D02*
G37*
G36*
X4034651Y4540509D02*
X4033428Y4539229D01*
X4031308Y4536658D01*
X4030412Y4535367D01*
X4029625Y4534071D01*
X4028947Y4532772D01*
X4028379Y4531469D01*
X4027919Y4530162D01*
X4027568Y4528851D01*
X4027326Y4527536D01*
X4007536Y4547326D01*
X4008851Y4547568D01*
X4010162Y4547919D01*
X4011469Y4548379D01*
X4012772Y4548947D01*
X4014071Y4549625D01*
X4015367Y4550412D01*
X4016658Y4551308D01*
X4017945Y4552313D01*
X4020509Y4554651D01*
X4034651Y4540509D01*
D02*
G37*
G36*
X6388941Y4512484D02*
X6391512Y4510365D01*
X6392803Y4509469D01*
X6394098Y4508682D01*
X6395398Y4508004D01*
X6396701Y4507435D01*
X6398008Y4506975D01*
X6399319Y4506624D01*
X6400634Y4506382D01*
X6380844Y4486593D01*
X6380602Y4487908D01*
X6380251Y4489219D01*
X6379791Y4490525D01*
X6379222Y4491829D01*
X6378545Y4493128D01*
X6377757Y4494423D01*
X6376862Y4495715D01*
X6375856Y4497002D01*
X6373519Y4499565D01*
X6387661Y4513708D01*
X6388941Y4512484D01*
D02*
G37*
G36*
X5767567Y4511149D02*
X5767918Y4509838D01*
X5768378Y4508531D01*
X5768947Y4507228D01*
X5769625Y4505929D01*
X5770412Y4504634D01*
X5771308Y4503342D01*
X5772313Y4502055D01*
X5774651Y4499492D01*
X5760508Y4485349D01*
X5759229Y4486573D01*
X5756658Y4488692D01*
X5755366Y4489588D01*
X5754071Y4490375D01*
X5752772Y4491053D01*
X5751469Y4491622D01*
X5750162Y4492082D01*
X5748851Y4492433D01*
X5747536Y4492675D01*
X5767326Y4512464D01*
X5767567Y4511149D01*
D02*
G37*
G36*
X7189491Y4466007D02*
X7188391Y4466765D01*
X7187215Y4467444D01*
X7185966Y4468043D01*
X7184642Y4468562D01*
X7183244Y4469001D01*
X7181772Y4469361D01*
X7180225Y4469641D01*
X7178604Y4469840D01*
X7175139Y4470000D01*
Y4490000D01*
X7176908Y4490040D01*
X7180225Y4490359D01*
X7181772Y4490639D01*
X7183244Y4490998D01*
X7184642Y4491438D01*
X7185966Y4491957D01*
X7187215Y4492556D01*
X7188391Y4493235D01*
X7189491Y4493993D01*
Y4466007D01*
D02*
G37*
G36*
X7065067Y4491149D02*
X7065418Y4489838D01*
X7065878Y4488532D01*
X7066447Y4487228D01*
X7067125Y4485929D01*
X7067912Y4484634D01*
X7068808Y4483342D01*
X7069813Y4482055D01*
X7072151Y4479492D01*
X7058008Y4465349D01*
X7056729Y4466573D01*
X7054158Y4468692D01*
X7052866Y4469588D01*
X7051571Y4470375D01*
X7050272Y4471053D01*
X7048969Y4471622D01*
X7047662Y4472082D01*
X7046351Y4472433D01*
X7045036Y4472675D01*
X7064826Y4492464D01*
X7065067Y4491149D01*
D02*
G37*
G36*
X7026541Y4413060D02*
X7029112Y4410941D01*
X7030403Y4410045D01*
X7031698Y4409258D01*
X7032998Y4408580D01*
X7034301Y4408011D01*
X7035608Y4407551D01*
X7036919Y4407200D01*
X7038234Y4406958D01*
X7018444Y4387169D01*
X7018202Y4388483D01*
X7017851Y4389794D01*
X7017391Y4391101D01*
X7016822Y4392404D01*
X7016144Y4393704D01*
X7015357Y4394999D01*
X7014461Y4396290D01*
X7013456Y4397578D01*
X7011119Y4400141D01*
X7025261Y4414283D01*
X7026541Y4413060D01*
D02*
G37*
G36*
X7191276Y4386356D02*
X7192452Y4385677D01*
X7193701Y4385078D01*
X7195025Y4384559D01*
X7196423Y4384120D01*
X7197895Y4383760D01*
X7199442Y4383480D01*
X7201063Y4383281D01*
X7204528Y4383121D01*
Y4363121D01*
X7202759Y4363081D01*
X7199442Y4362762D01*
X7197895Y4362482D01*
X7196423Y4362123D01*
X7195025Y4361683D01*
X7193701Y4361164D01*
X7192452Y4360565D01*
X7191276Y4359886D01*
X7190176Y4359128D01*
Y4387114D01*
X7191276Y4386356D01*
D02*
G37*
G36*
X7182131Y4355795D02*
X7180816Y4355554D01*
X7179505Y4355203D01*
X7178198Y4354743D01*
X7176895Y4354174D01*
X7175596Y4353496D01*
X7174301Y4352709D01*
X7173009Y4351813D01*
X7171722Y4350808D01*
X7169159Y4348470D01*
X7155016Y4362613D01*
X7156240Y4363892D01*
X7158359Y4366463D01*
X7159255Y4367755D01*
X7160042Y4369050D01*
X7160720Y4370349D01*
X7161289Y4371652D01*
X7161749Y4372959D01*
X7162100Y4374270D01*
X7162342Y4375585D01*
X7182131Y4355795D01*
D02*
G37*
G36*
X6683424Y4360338D02*
X6685995Y4358219D01*
X6687287Y4357323D01*
X6688582Y4356536D01*
X6689881Y4355858D01*
X6691184Y4355289D01*
X6692491Y4354829D01*
X6693802Y4354478D01*
X6695117Y4354236D01*
X6675328Y4334447D01*
X6675086Y4335762D01*
X6674735Y4337073D01*
X6674275Y4338379D01*
X6673706Y4339683D01*
X6673028Y4340982D01*
X6672241Y4342277D01*
X6671345Y4343569D01*
X6670340Y4344856D01*
X6668002Y4347419D01*
X6682145Y4361562D01*
X6683424Y4360338D01*
D02*
G37*
G36*
X6710221Y4338060D02*
X6710571Y4336749D01*
X6711031Y4335442D01*
X6711600Y4334139D01*
X6712278Y4332840D01*
X6713065Y4331545D01*
X6713961Y4330253D01*
X6714967Y4328965D01*
X6717304Y4326402D01*
X6703162Y4312260D01*
X6701882Y4313483D01*
X6699311Y4315603D01*
X6698019Y4316499D01*
X6696724Y4317286D01*
X6695425Y4317964D01*
X6694122Y4318533D01*
X6692815Y4318993D01*
X6691504Y4319343D01*
X6690189Y4319585D01*
X6709979Y4339375D01*
X6710221Y4338060D01*
D02*
G37*
G36*
X4621609Y4193235D02*
X4622785Y4192556D01*
X4624034Y4191957D01*
X4625358Y4191438D01*
X4626756Y4190998D01*
X4628228Y4190639D01*
X4629775Y4190359D01*
X4631396Y4190160D01*
X4634861Y4190000D01*
Y4170000D01*
X4633092Y4169960D01*
X4629775Y4169641D01*
X4628228Y4169361D01*
X4626756Y4169002D01*
X4625358Y4168562D01*
X4624034Y4168043D01*
X4622785Y4167444D01*
X4621609Y4166765D01*
X4620509Y4166007D01*
Y4193993D01*
X4621609Y4193235D01*
D02*
G37*
G36*
X6730771Y4163428D02*
X6733342Y4161308D01*
X6734634Y4160412D01*
X6735929Y4159625D01*
X6737228Y4158947D01*
X6738531Y4158378D01*
X6739838Y4157918D01*
X6741149Y4157568D01*
X6742464Y4157326D01*
X6722674Y4137536D01*
X6722433Y4138851D01*
X6722082Y4140162D01*
X6721622Y4141469D01*
X6721053Y4142772D01*
X6720375Y4144071D01*
X6719588Y4145366D01*
X6718692Y4146658D01*
X6717687Y4147945D01*
X6715349Y4150509D01*
X6729491Y4164651D01*
X6730771Y4163428D01*
D02*
G37*
G36*
X3502515Y4120780D02*
X3503037Y4113421D01*
X3503232Y4112445D01*
X3503456Y4111635D01*
X3503710Y4110989D01*
X3503993Y4110509D01*
X3476007D01*
X3476290Y4110989D01*
X3476544Y4111635D01*
X3476768Y4112445D01*
X3476962Y4113421D01*
X3477127Y4114563D01*
X3477365Y4117341D01*
X3477500Y4122747D01*
X3502500D01*
X3502515Y4120780D01*
D02*
G37*
G36*
X5009611Y3863560D02*
X5009931Y3860243D01*
X5010210Y3858696D01*
X5010570Y3857224D01*
X5011009Y3855826D01*
X5011528Y3854502D01*
X5012127Y3853253D01*
X5012806Y3852078D01*
X5013565Y3850977D01*
X4985578D01*
X4986337Y3852078D01*
X4987016Y3853253D01*
X4987615Y3854502D01*
X4988134Y3855826D01*
X4988573Y3857224D01*
X4988932Y3858696D01*
X4989212Y3860243D01*
X4989412Y3861864D01*
X4989571Y3865330D01*
X5009571D01*
X5009611Y3863560D01*
D02*
G37*
G36*
X7199491Y3786007D02*
X7198391Y3786765D01*
X7197215Y3787444D01*
X7195966Y3788043D01*
X7194642Y3788562D01*
X7193244Y3789002D01*
X7191772Y3789361D01*
X7190225Y3789641D01*
X7188604Y3789840D01*
X7185139Y3790000D01*
Y3810000D01*
X7186908Y3810040D01*
X7190225Y3810359D01*
X7191772Y3810639D01*
X7193244Y3810998D01*
X7194642Y3811438D01*
X7195966Y3811957D01*
X7197215Y3812556D01*
X7198391Y3813235D01*
X7199491Y3813993D01*
Y3786007D01*
D02*
G37*
G36*
X6535021Y3758507D02*
X6534541Y3758790D01*
X6533895Y3759044D01*
X6533084Y3759268D01*
X6532108Y3759462D01*
X6530967Y3759627D01*
X6528189Y3759865D01*
X6522782Y3760000D01*
Y3785000D01*
X6524750Y3785015D01*
X6532108Y3785538D01*
X6533084Y3785732D01*
X6533895Y3785956D01*
X6534541Y3786210D01*
X6535021Y3786493D01*
Y3758507D01*
D02*
G37*
G36*
X6935302Y3754682D02*
X6934822Y3754965D01*
X6934176Y3755219D01*
X6933365Y3755443D01*
X6932389Y3755637D01*
X6931248Y3755802D01*
X6928470Y3756040D01*
X6923063Y3756175D01*
Y3781175D01*
X6925031Y3781190D01*
X6932389Y3781713D01*
X6933365Y3781907D01*
X6934176Y3782131D01*
X6934822Y3782385D01*
X6935302Y3782668D01*
Y3754682D01*
D02*
G37*
G36*
X4528206Y3766920D02*
X4528557Y3765609D01*
X4529017Y3764302D01*
X4529586Y3762998D01*
X4530264Y3761699D01*
X4531051Y3760404D01*
X4531947Y3759112D01*
X4532952Y3757825D01*
X4535289Y3755262D01*
X4521147Y3741120D01*
X4519868Y3742343D01*
X4517297Y3744462D01*
X4516005Y3745358D01*
X4514710Y3746145D01*
X4513411Y3746823D01*
X4512107Y3747392D01*
X4510800Y3747852D01*
X4509489Y3748203D01*
X4508174Y3748444D01*
X4527965Y3768235D01*
X4528206Y3766920D01*
D02*
G37*
G36*
X5961717Y3724191D02*
X5961236Y3724474D01*
X5960591Y3724728D01*
X5959780Y3724952D01*
X5958804Y3725146D01*
X5957662Y3725311D01*
X5954884Y3725550D01*
X5949478Y3725684D01*
Y3750684D01*
X5951445Y3750699D01*
X5958804Y3751222D01*
X5959780Y3751416D01*
X5960591Y3751640D01*
X5961236Y3751894D01*
X5961717Y3752177D01*
Y3724191D01*
D02*
G37*
G36*
X7653223Y3722887D02*
X7651874Y3722714D01*
X7650532Y3722426D01*
X7649198Y3722020D01*
X7647871Y3721499D01*
X7646552Y3720861D01*
X7645240Y3720107D01*
X7643936Y3719236D01*
X7642639Y3718249D01*
X7641350Y3717146D01*
X7640068Y3715926D01*
X7626923Y3731065D01*
X7628181Y3732371D01*
X7630365Y3734934D01*
X7631292Y3736193D01*
X7632107Y3737435D01*
X7632812Y3738662D01*
X7633406Y3739873D01*
X7633890Y3741068D01*
X7634263Y3742248D01*
X7634526Y3743411D01*
X7653223Y3722887D01*
D02*
G37*
G36*
X6626366Y3736550D02*
X6627113Y3735589D01*
X6627993Y3734742D01*
X6629007Y3734007D01*
X6630154Y3733385D01*
X6631434Y3732877D01*
X6632848Y3732481D01*
X6634395Y3732199D01*
X6636075Y3732029D01*
X6637888Y3731972D01*
X6636050Y3711973D01*
X6615940Y3713539D01*
X6625752Y3737624D01*
X6626366Y3736550D01*
D02*
G37*
G36*
X5568111Y3701898D02*
X5566730Y3700497D01*
X5561896Y3694924D01*
X5561343Y3694096D01*
X5560928Y3693364D01*
X5560652Y3692728D01*
X5560513Y3692188D01*
X5540722Y3711978D01*
X5541263Y3712117D01*
X5541899Y3712394D01*
X5542631Y3712809D01*
X5543458Y3713362D01*
X5544381Y3714053D01*
X5546515Y3715848D01*
X5550433Y3719576D01*
X5568111Y3701898D01*
D02*
G37*
G36*
X4528369Y3694808D02*
X4528720Y3693496D01*
X4529179Y3692187D01*
X4529748Y3690883D01*
X4530425Y3689583D01*
X4531212Y3688288D01*
X4532108Y3686996D01*
X4533112Y3685708D01*
X4535449Y3683145D01*
X4521295Y3669015D01*
X4520015Y3670238D01*
X4517444Y3672358D01*
X4516153Y3673255D01*
X4514859Y3674042D01*
X4513560Y3674720D01*
X4512258Y3675290D01*
X4510952Y3675750D01*
X4509642Y3676101D01*
X4508329Y3676343D01*
X4528128Y3696125D01*
X4528369Y3694808D01*
D02*
G37*
G36*
X4447568Y3691149D02*
X4447918Y3689838D01*
X4448378Y3688531D01*
X4448947Y3687228D01*
X4449625Y3685929D01*
X4450412Y3684633D01*
X4451308Y3683342D01*
X4452313Y3682055D01*
X4454651Y3679491D01*
X4440509Y3665349D01*
X4439229Y3666573D01*
X4436658Y3668692D01*
X4435367Y3669588D01*
X4434071Y3670375D01*
X4432772Y3671053D01*
X4431469Y3671622D01*
X4430162Y3672082D01*
X4428851Y3672432D01*
X4427536Y3672674D01*
X4447326Y3692464D01*
X4447568Y3691149D01*
D02*
G37*
G36*
X6605880Y3666485D02*
X6607055Y3665806D01*
X6608305Y3665207D01*
X6609628Y3664688D01*
X6611026Y3664249D01*
X6612499Y3663890D01*
X6614046Y3663610D01*
X6615667Y3663410D01*
X6619132Y3663250D01*
Y3643251D01*
X6617362Y3643211D01*
X6614046Y3642891D01*
X6612499Y3642611D01*
X6611026Y3642252D01*
X6609628Y3641813D01*
X6608305Y3641294D01*
X6607055Y3640695D01*
X6605880Y3640016D01*
X6604780Y3639257D01*
Y3667244D01*
X6605880Y3666485D01*
D02*
G37*
G36*
X5180989Y3613710D02*
X5181635Y3613456D01*
X5182446Y3613232D01*
X5183421Y3613037D01*
X5184563Y3612873D01*
X5187341Y3612634D01*
X5192748Y3612500D01*
Y3587500D01*
X5190780Y3587485D01*
X5183421Y3586962D01*
X5182446Y3586768D01*
X5181635Y3586544D01*
X5180989Y3586290D01*
X5180509Y3586007D01*
Y3613993D01*
X5180989Y3613710D01*
D02*
G37*
G36*
X4458027Y3316115D02*
X4457822Y3315522D01*
X4457640Y3314755D01*
X4457483Y3313816D01*
X4457241Y3311419D01*
X4457095Y3308329D01*
X4457047Y3304547D01*
X4432047Y3303626D01*
X4432031Y3305588D01*
X4431628Y3311817D01*
X4431444Y3312970D01*
X4431226Y3313960D01*
X4430975Y3314789D01*
X4430690Y3315455D01*
X4430372Y3315960D01*
X4458258Y3316535D01*
X4458027Y3316115D01*
D02*
G37*
G36*
X4004904Y3166100D02*
X4005856Y3164400D01*
X4007401Y3162899D01*
X4009541Y3161599D01*
X4012274Y3160500D01*
X4015602Y3159599D01*
X4019523Y3158899D01*
X4024038Y3158400D01*
X4034851Y3158000D01*
Y3138000D01*
X4029148Y3137899D01*
X4019523Y3137100D01*
X4015602Y3136400D01*
X4012274Y3135499D01*
X4009541Y3134400D01*
X4007401Y3133100D01*
X4005856Y3131600D01*
X4004904Y3129900D01*
X4004546Y3128000D01*
Y3168000D01*
X4004904Y3166100D01*
D02*
G37*
G36*
X4579829Y3103063D02*
X4580180Y3101752D01*
X4580640Y3100445D01*
X4581209Y3099142D01*
X4581887Y3097842D01*
X4582674Y3096547D01*
X4583570Y3095256D01*
X4584575Y3093968D01*
X4586912Y3091405D01*
X4572770Y3077263D01*
X4571490Y3078486D01*
X4568919Y3080605D01*
X4567628Y3081501D01*
X4566333Y3082288D01*
X4565034Y3082966D01*
X4563730Y3083535D01*
X4562423Y3083995D01*
X4561112Y3084346D01*
X4559797Y3084588D01*
X4579587Y3104378D01*
X4579829Y3103063D01*
D02*
G37*
G36*
X3764192Y3109184D02*
X3764604Y3106413D01*
X3765420Y3103517D01*
X3766639Y3100495D01*
X3768262Y3097347D01*
X3770288Y3094072D01*
X3772718Y3090671D01*
X3775552Y3087145D01*
X3782429Y3079713D01*
X3768287Y3065571D01*
X3764508Y3069211D01*
X3757328Y3075281D01*
X3753927Y3077711D01*
X3750653Y3079737D01*
X3747504Y3081360D01*
X3744482Y3082580D01*
X3741586Y3083395D01*
X3738816Y3083808D01*
X3736172Y3083817D01*
X3764183Y3111827D01*
X3764192Y3109184D01*
D02*
G37*
G36*
X4576329Y3038570D02*
X4576680Y3037259D01*
X4577140Y3035952D01*
X4577709Y3034649D01*
X4578387Y3033350D01*
X4579173Y3032054D01*
X4580070Y3030763D01*
X4581075Y3029476D01*
X4583412Y3026912D01*
X4569270Y3012770D01*
X4567990Y3013993D01*
X4565419Y3016113D01*
X4564128Y3017009D01*
X4562832Y3017796D01*
X4561533Y3018474D01*
X4560230Y3019042D01*
X4558923Y3019502D01*
X4557612Y3019853D01*
X4556297Y3020095D01*
X4576087Y3039885D01*
X4576329Y3038570D01*
D02*
G37*
G36*
X4723638Y2996138D02*
X4723957Y2992821D01*
X4724237Y2991274D01*
X4724596Y2989802D01*
X4725036Y2988404D01*
X4725555Y2987080D01*
X4726154Y2985831D01*
X4726833Y2984655D01*
X4727591Y2983555D01*
X4699605D01*
X4700363Y2984655D01*
X4701042Y2985831D01*
X4701641Y2987080D01*
X4702160Y2988404D01*
X4702599Y2989802D01*
X4702959Y2991274D01*
X4703238Y2992821D01*
X4703438Y2994442D01*
X4703598Y2997907D01*
X4723598D01*
X4723638Y2996138D01*
D02*
G37*
G36*
X4731166Y2974195D02*
X4731516Y2972885D01*
X4731976Y2971577D01*
X4732545Y2970274D01*
X4733223Y2968975D01*
X4734010Y2967680D01*
X4734906Y2966388D01*
X4735911Y2965101D01*
X4738249Y2962538D01*
X4724106Y2948395D01*
X4722827Y2949619D01*
X4720256Y2951738D01*
X4718964Y2952634D01*
X4717669Y2953421D01*
X4716370Y2954099D01*
X4715067Y2954668D01*
X4713759Y2955128D01*
X4712449Y2955478D01*
X4711134Y2955720D01*
X4730924Y2975510D01*
X4731166Y2974195D01*
D02*
G37*
G36*
X6953235Y2935891D02*
X6952556Y2934715D01*
X6951957Y2933466D01*
X6951438Y2932142D01*
X6950999Y2930744D01*
X6950639Y2929272D01*
X6950359Y2927725D01*
X6950160Y2926104D01*
X6950000Y2922639D01*
X6930000D01*
X6929960Y2924408D01*
X6929641Y2927725D01*
X6929361Y2929272D01*
X6929002Y2930744D01*
X6928562Y2932142D01*
X6928043Y2933466D01*
X6927444Y2934715D01*
X6926765Y2935891D01*
X6926007Y2936991D01*
X6953993D01*
X6953235Y2935891D01*
D02*
G37*
G36*
X4722771Y2895663D02*
X4722092Y2894488D01*
X4721493Y2893239D01*
X4720974Y2891915D01*
X4720534Y2890517D01*
X4720175Y2889045D01*
X4719895Y2887498D01*
X4719696Y2885877D01*
X4719536Y2882412D01*
X4699536D01*
X4699496Y2884181D01*
X4699177Y2887498D01*
X4698897Y2889045D01*
X4698537Y2890517D01*
X4698098Y2891915D01*
X4697579Y2893239D01*
X4696980Y2894488D01*
X4696301Y2895663D01*
X4695543Y2896764D01*
X4723529D01*
X4722771Y2895663D01*
D02*
G37*
G36*
X7290068Y2675896D02*
X7290418Y2674585D01*
X7290878Y2673278D01*
X7291447Y2671975D01*
X7292125Y2670676D01*
X7292912Y2669380D01*
X7293808Y2668089D01*
X7294813Y2666801D01*
X7297151Y2664238D01*
X7283009Y2650096D01*
X7281729Y2651319D01*
X7279158Y2653438D01*
X7277867Y2654335D01*
X7276571Y2655121D01*
X7275272Y2655799D01*
X7273969Y2656368D01*
X7272662Y2656828D01*
X7271351Y2657179D01*
X7270036Y2657421D01*
X7289826Y2677211D01*
X7290068Y2675896D01*
D02*
G37*
G36*
X6892500Y2956948D02*
Y2938052D01*
X6897710Y2925475D01*
X6897747Y2925286D01*
X6897854Y2925126D01*
X6899217Y2921837D01*
Y2806893D01*
X6732500Y2640177D01*
X6717500Y2646390D01*
Y2649448D01*
X6710269Y2666907D01*
X6700480Y2676695D01*
X6710940Y2687155D01*
X6718172Y2704613D01*
Y2723510D01*
X6710940Y2740968D01*
X6697578Y2754330D01*
X6680120Y2761561D01*
X6661224D01*
X6643765Y2754330D01*
X6630404Y2740968D01*
X6623172Y2723510D01*
Y2704613D01*
X6630404Y2687155D01*
X6640192Y2677367D01*
X6629732Y2666907D01*
X6622500Y2649448D01*
Y2630552D01*
X6629732Y2613094D01*
X6638825Y2604001D01*
X6634971Y2594697D01*
Y2575801D01*
X6642202Y2558343D01*
X6655564Y2544981D01*
X6669645Y2539148D01*
X6675601Y2523891D01*
X6637787Y2486077D01*
X6234981D01*
X6229241Y2499935D01*
X6693228Y2963923D01*
X6887840D01*
X6892500Y2956948D01*
D02*
G37*
G36*
X6694080Y2598484D02*
X6695255Y2597805D01*
X6696505Y2597206D01*
X6697828Y2596687D01*
X6699226Y2596248D01*
X6700699Y2595888D01*
X6702246Y2595608D01*
X6703867Y2595409D01*
X6707332Y2595249D01*
Y2575249D01*
X6705562Y2575209D01*
X6702246Y2574890D01*
X6700699Y2574610D01*
X6699226Y2574251D01*
X6697828Y2573811D01*
X6696505Y2573292D01*
X6695255Y2572693D01*
X6694080Y2572014D01*
X6692980Y2571256D01*
Y2599242D01*
X6694080Y2598484D01*
D02*
G37*
G36*
X7290068Y2526605D02*
X7290418Y2525294D01*
X7290878Y2523987D01*
X7291447Y2522684D01*
X7292125Y2521384D01*
X7292912Y2520089D01*
X7293808Y2518798D01*
X7294813Y2517510D01*
X7297151Y2514947D01*
X7283009Y2500805D01*
X7281729Y2502028D01*
X7279158Y2504147D01*
X7277867Y2505043D01*
X7276571Y2505830D01*
X7275272Y2506508D01*
X7273969Y2507077D01*
X7272662Y2507537D01*
X7271351Y2507888D01*
X7270036Y2508130D01*
X7289826Y2527920D01*
X7290068Y2526605D01*
D02*
G37*
G36*
X7593923Y2666772D02*
Y2445000D01*
X7595756Y2435784D01*
X7583446Y2420784D01*
X7496893D01*
X7480920Y2436756D01*
X7491781Y2447617D01*
X7499012Y2465075D01*
Y2483972D01*
X7491781Y2501430D01*
X7484818Y2508393D01*
X7487545Y2514977D01*
Y2533874D01*
X7480314Y2551332D01*
X7466952Y2564694D01*
X7468004Y2580494D01*
X7470386Y2581480D01*
X7483748Y2594842D01*
X7490979Y2612300D01*
Y2631197D01*
X7484667Y2646435D01*
X7487247Y2649016D01*
X7494479Y2666474D01*
Y2685370D01*
X7487247Y2702828D01*
X7473885Y2716190D01*
X7456427Y2723422D01*
X7437530D01*
X7420072Y2716190D01*
X7406710Y2702828D01*
X7399479Y2685370D01*
Y2666474D01*
X7405791Y2651235D01*
X7403211Y2648655D01*
X7395979Y2631197D01*
Y2626888D01*
X7380979Y2622338D01*
X7377744Y2627179D01*
X7377743Y2627180D01*
X7319484Y2685439D01*
X7318123Y2688726D01*
X7318085Y2688916D01*
X7317977Y2689078D01*
X7312768Y2701653D01*
X7299407Y2715015D01*
X7281948Y2722247D01*
X7263052D01*
X7245594Y2715015D01*
X7232232Y2701653D01*
X7225000Y2684195D01*
Y2665298D01*
X7232232Y2647840D01*
X7245594Y2634478D01*
X7258169Y2629270D01*
X7258330Y2629162D01*
X7258521Y2629124D01*
X7261808Y2627762D01*
X7300202Y2589368D01*
X7299157Y2581890D01*
X7282827Y2572592D01*
X7281948Y2572955D01*
X7263052D01*
X7245594Y2565724D01*
X7232232Y2552362D01*
X7225000Y2534904D01*
Y2516007D01*
X7232232Y2498549D01*
X7245594Y2485187D01*
X7258169Y2479978D01*
X7258330Y2479870D01*
X7258521Y2479832D01*
X7261808Y2478471D01*
X7405637Y2334642D01*
X7399897Y2320784D01*
X7386767D01*
X7371160Y2317679D01*
X7357929Y2308838D01*
X7357928Y2308838D01*
X7295407Y2246316D01*
X7294874Y2246537D01*
X7294714Y2246644D01*
X7294525Y2246681D01*
X7281948Y2251891D01*
X7263052D01*
X7245594Y2244659D01*
X7232232Y2231298D01*
X7225000Y2213839D01*
Y2194943D01*
X7232232Y2177485D01*
X7245594Y2164123D01*
X7263052Y2156891D01*
X7281948D01*
X7284855Y2158096D01*
X7301137Y2149114D01*
X7302126Y2142068D01*
X7261808Y2101750D01*
X7258519Y2100388D01*
X7258331Y2100350D01*
X7258171Y2100243D01*
X7245594Y2095034D01*
X7232232Y2081672D01*
X7225000Y2064214D01*
Y2045317D01*
X7232232Y2027859D01*
X7245594Y2014497D01*
X7263052Y2007265D01*
X7281948D01*
X7299407Y2014497D01*
X7312768Y2027859D01*
X7317978Y2040436D01*
X7318085Y2040596D01*
X7318123Y2040785D01*
X7319484Y2044073D01*
X7378838Y2103427D01*
X7387679Y2116658D01*
X7390784Y2132265D01*
X7390784Y2132267D01*
Y2160787D01*
X7403761Y2168958D01*
X7408090Y2167981D01*
X7413840Y2162232D01*
X7415589Y2161507D01*
Y2145717D01*
X7422820Y2128258D01*
X7433940Y2117139D01*
X7434080Y2116249D01*
X7432915Y2106278D01*
X7430862Y2100864D01*
X7418709Y2095830D01*
X7405347Y2082468D01*
X7398116Y2065010D01*
Y2046113D01*
X7402620Y2035239D01*
X7399498Y2032117D01*
X7392267Y2014659D01*
Y1995763D01*
X7399498Y1978304D01*
X7407019Y1970783D01*
X7400806Y1955783D01*
X7021171D01*
X7012837Y1968255D01*
X7013272Y1969305D01*
Y1988202D01*
X7006041Y2005660D01*
X6992679Y2019022D01*
X6975220Y2026253D01*
X6956324D01*
X6938866Y2019022D01*
X6925504Y2005660D01*
X6918272Y1988202D01*
Y1969305D01*
X6918707Y1968255D01*
X6910374Y1955783D01*
X6756893D01*
X6736430Y1976247D01*
X6744926Y1988963D01*
X6749946Y1986884D01*
X6768842D01*
X6786301Y1994115D01*
X6799663Y2007477D01*
X6806894Y2024935D01*
Y2043832D01*
X6799663Y2061290D01*
X6794094Y2066858D01*
X6792929Y2086907D01*
X6793639Y2087617D01*
X6800871Y2105075D01*
Y2123971D01*
X6793639Y2141430D01*
X6785921Y2149148D01*
X6780546Y2155458D01*
X6785881Y2168706D01*
X6790268Y2173093D01*
X6797500Y2190552D01*
Y2209448D01*
X6790268Y2226906D01*
X6776906Y2240268D01*
X6759448Y2247500D01*
X6740552D01*
X6723093Y2240268D01*
X6709732Y2226906D01*
X6702500Y2209448D01*
Y2190552D01*
X6709732Y2173093D01*
X6717450Y2165375D01*
X6722825Y2159065D01*
X6717489Y2145817D01*
X6713102Y2141430D01*
X6705871Y2123971D01*
Y2105075D01*
X6713102Y2087617D01*
X6718671Y2082048D01*
X6719836Y2062000D01*
X6719126Y2061290D01*
X6711894Y2043832D01*
Y2024935D01*
X6713973Y2019916D01*
X6701257Y2011419D01*
X6475783Y2236893D01*
Y2237126D01*
X6472679Y2252734D01*
X6463838Y2265965D01*
X6463837Y2265965D01*
X6441435Y2288368D01*
X6447176Y2302226D01*
X6838303D01*
X6859763Y2306494D01*
X6877956Y2318650D01*
X7021312Y2462007D01*
X7033468Y2480200D01*
X7037737Y2501659D01*
Y2564787D01*
X7033468Y2586247D01*
X7021312Y2604440D01*
X7003119Y2616596D01*
X6981659Y2620865D01*
X6960199Y2616596D01*
X6942007Y2604440D01*
X6929851Y2586247D01*
X6925582Y2564787D01*
Y2524888D01*
X6815075Y2414380D01*
X6744299D01*
X6738559Y2428238D01*
X6837153Y2526832D01*
X6849309Y2545025D01*
X6853577Y2566485D01*
X6849309Y2587945D01*
X6837153Y2606138D01*
X6832992Y2608917D01*
X6831522Y2623845D01*
X6968838Y2761162D01*
X6977679Y2774393D01*
X6980784Y2790000D01*
X6980784Y2790001D01*
Y2814420D01*
X6991476Y2821564D01*
X7010372D01*
X7027830Y2828796D01*
X7041192Y2842158D01*
X7048424Y2859616D01*
Y2878512D01*
X7041192Y2895971D01*
X7027830Y2909333D01*
X7010372Y2916564D01*
X6994835D01*
X6990690Y2919361D01*
X6988136Y2922483D01*
X6984051Y2929724D01*
X6987500Y2938052D01*
Y2956948D01*
X6992160Y2963923D01*
X7296772D01*
X7593923Y2666772D01*
D02*
G37*
G36*
X6162830Y2290149D02*
X6164005Y2289470D01*
X6165255Y2288871D01*
X6166578Y2288352D01*
X6167976Y2287912D01*
X6169449Y2287553D01*
X6170996Y2287273D01*
X6172617Y2287074D01*
X6176082Y2286914D01*
Y2266914D01*
X6174313Y2266874D01*
X6170996Y2266555D01*
X6169449Y2266275D01*
X6167976Y2265915D01*
X6166578Y2265476D01*
X6165255Y2264957D01*
X6164005Y2264358D01*
X6162830Y2263679D01*
X6161730Y2262921D01*
Y2290907D01*
X6162830Y2290149D01*
D02*
G37*
G36*
X7284109Y2217626D02*
X7285285Y2216947D01*
X7286534Y2216348D01*
X7287858Y2215829D01*
X7289256Y2215390D01*
X7290728Y2215030D01*
X7292275Y2214750D01*
X7293896Y2214551D01*
X7297361Y2214391D01*
Y2194391D01*
X7295592Y2194351D01*
X7292275Y2194032D01*
X7290728Y2193752D01*
X7289256Y2193393D01*
X7287858Y2192953D01*
X7286534Y2192434D01*
X7285285Y2191835D01*
X7284109Y2191156D01*
X7283009Y2190398D01*
Y2218384D01*
X7284109Y2217626D01*
D02*
G37*
G36*
X6157952Y2138150D02*
X6159127Y2137471D01*
X6160376Y2136872D01*
X6161700Y2136353D01*
X6163098Y2135914D01*
X6164571Y2135555D01*
X6166117Y2135275D01*
X6167738Y2135075D01*
X6171204Y2134915D01*
Y2114916D01*
X6169434Y2114876D01*
X6166117Y2114556D01*
X6164571Y2114276D01*
X6163098Y2113917D01*
X6161700Y2113478D01*
X6160376Y2112959D01*
X6159127Y2112360D01*
X6157952Y2111681D01*
X6156851Y2110922D01*
Y2138909D01*
X6157952Y2138150D01*
D02*
G37*
G36*
X7297151Y2065274D02*
X7295927Y2063994D01*
X7293808Y2061423D01*
X7292912Y2060132D01*
X7292125Y2058836D01*
X7291447Y2057537D01*
X7290878Y2056234D01*
X7290418Y2054927D01*
X7290067Y2053616D01*
X7289826Y2052301D01*
X7270036Y2072091D01*
X7271351Y2072333D01*
X7272662Y2072683D01*
X7273969Y2073143D01*
X7275272Y2073712D01*
X7276571Y2074390D01*
X7277866Y2075177D01*
X7279158Y2076073D01*
X7280445Y2077079D01*
X7283009Y2079416D01*
X7297151Y2065274D01*
D02*
G37*
G36*
X8263568Y1946356D02*
X8262468Y1947115D01*
X8261292Y1947794D01*
X8260043Y1948393D01*
X8258719Y1948912D01*
X8257321Y1949351D01*
X8255849Y1949711D01*
X8254302Y1949990D01*
X8252681Y1950190D01*
X8249216Y1950350D01*
Y1970350D01*
X8250985Y1970390D01*
X8254302Y1970709D01*
X8255849Y1970989D01*
X8257321Y1971348D01*
X8258719Y1971787D01*
X8260043Y1972306D01*
X8261292Y1972905D01*
X8262468Y1973584D01*
X8263568Y1974343D01*
Y1946356D01*
D02*
G37*
G36*
X8346408Y1920849D02*
X8345093Y1920607D01*
X8343782Y1920257D01*
X8342475Y1919797D01*
X8341172Y1919228D01*
X8339873Y1918550D01*
X8338577Y1917762D01*
X8337286Y1916867D01*
X8335998Y1915861D01*
X8333435Y1913524D01*
X8319293Y1927666D01*
X8320516Y1928946D01*
X8322636Y1931517D01*
X8323531Y1932808D01*
X8324319Y1934104D01*
X8324997Y1935403D01*
X8325566Y1936706D01*
X8326026Y1938013D01*
X8326376Y1939324D01*
X8326618Y1940639D01*
X8346408Y1920849D01*
D02*
G37*
G36*
X8240482Y1896629D02*
X8239382Y1897388D01*
X8238206Y1898067D01*
X8236957Y1898665D01*
X8235633Y1899185D01*
X8234235Y1899624D01*
X8232763Y1899983D01*
X8231216Y1900263D01*
X8229595Y1900463D01*
X8226130Y1900622D01*
Y1920622D01*
X8227899Y1920662D01*
X8231216Y1920982D01*
X8232763Y1921261D01*
X8234235Y1921621D01*
X8235633Y1922060D01*
X8236957Y1922579D01*
X8238206Y1923178D01*
X8239382Y1923857D01*
X8240482Y1924616D01*
Y1896629D01*
D02*
G37*
G36*
X6643242Y1899641D02*
X6637502Y1885783D01*
X6461893D01*
X6411447Y1936230D01*
X6413560Y1952250D01*
X6414623Y1953782D01*
X6418779Y1955503D01*
X6432141Y1968865D01*
X6439372Y1986323D01*
Y2005220D01*
X6432141Y2022678D01*
X6418779Y2036040D01*
X6401321Y2043271D01*
X6394020D01*
X6382869Y2055548D01*
Y2074444D01*
X6376299Y2090304D01*
X6384641Y2098646D01*
X6391872Y2116104D01*
Y2131478D01*
X6406158Y2136726D01*
X6643242Y1899641D01*
D02*
G37*
G36*
X6172377Y1876332D02*
X6171153Y1875052D01*
X6169034Y1872481D01*
X6168138Y1871189D01*
X6167351Y1869894D01*
X6166673Y1868595D01*
X6166104Y1867292D01*
X6165644Y1865985D01*
X6165293Y1864674D01*
X6165051Y1863359D01*
X6145262Y1883149D01*
X6146577Y1883390D01*
X6147888Y1883741D01*
X6149194Y1884201D01*
X6150498Y1884770D01*
X6151797Y1885448D01*
X6153092Y1886235D01*
X6154384Y1887131D01*
X6155671Y1888136D01*
X6158234Y1890474D01*
X6172377Y1876332D01*
D02*
G37*
G36*
X8343370Y1852197D02*
X8342055Y1851956D01*
X8340744Y1851605D01*
X8339437Y1851145D01*
X8338134Y1850576D01*
X8336835Y1849898D01*
X8335540Y1849111D01*
X8334248Y1848215D01*
X8332960Y1847210D01*
X8330397Y1844872D01*
X8316255Y1859015D01*
X8317478Y1860294D01*
X8319598Y1862865D01*
X8320494Y1864157D01*
X8321281Y1865452D01*
X8321959Y1866751D01*
X8322528Y1868054D01*
X8322988Y1869361D01*
X8323338Y1870672D01*
X8323580Y1871987D01*
X8343370Y1852197D01*
D02*
G37*
G36*
X6175462Y1724515D02*
X6174239Y1723235D01*
X6172119Y1720664D01*
X6171223Y1719372D01*
X6170436Y1718077D01*
X6169758Y1716778D01*
X6169189Y1715475D01*
X6168729Y1714168D01*
X6168379Y1712857D01*
X6168137Y1711542D01*
X6148347Y1731332D01*
X6149662Y1731574D01*
X6150973Y1731924D01*
X6152280Y1732384D01*
X6153583Y1732953D01*
X6154882Y1733631D01*
X6156177Y1734418D01*
X6157469Y1735314D01*
X6158757Y1736320D01*
X6161320Y1738657D01*
X6175462Y1724515D01*
D02*
G37*
G36*
X8177722Y1703288D02*
X8176621Y1704047D01*
X8175446Y1704726D01*
X8174197Y1705325D01*
X8172873Y1705844D01*
X8171475Y1706283D01*
X8170002Y1706643D01*
X8168456Y1706922D01*
X8166835Y1707122D01*
X8163369Y1707282D01*
Y1727282D01*
X8165139Y1727321D01*
X8168456Y1727641D01*
X8170002Y1727921D01*
X8171475Y1728280D01*
X8172873Y1728719D01*
X8174197Y1729238D01*
X8175446Y1729837D01*
X8176621Y1730516D01*
X8177722Y1731275D01*
Y1703288D01*
D02*
G37*
G36*
X8340971Y1704508D02*
X8339656Y1704266D01*
X8338345Y1703916D01*
X8337038Y1703456D01*
X8335735Y1702887D01*
X8334435Y1702209D01*
X8333140Y1701422D01*
X8331849Y1700526D01*
X8330561Y1699520D01*
X8327998Y1697183D01*
X8313856Y1711325D01*
X8315079Y1712605D01*
X8317199Y1715176D01*
X8318094Y1716467D01*
X8318882Y1717763D01*
X8319559Y1719062D01*
X8320128Y1720365D01*
X8320588Y1721672D01*
X8320939Y1722983D01*
X8321181Y1724298D01*
X8340971Y1704508D01*
D02*
G37*
G36*
X8179491Y1646007D02*
X8178391Y1646765D01*
X8177215Y1647444D01*
X8175966Y1648043D01*
X8174642Y1648562D01*
X8173244Y1649002D01*
X8171772Y1649361D01*
X8170225Y1649641D01*
X8168604Y1649840D01*
X8165139Y1650000D01*
Y1670000D01*
X8166908Y1670040D01*
X8170225Y1670359D01*
X8171772Y1670639D01*
X8173244Y1670998D01*
X8174642Y1671438D01*
X8175966Y1671957D01*
X8177215Y1672556D01*
X8178391Y1673235D01*
X8179491Y1673993D01*
Y1646007D01*
D02*
G37*
G36*
X8338340Y1629428D02*
X8337025Y1629186D01*
X8335714Y1628835D01*
X8334407Y1628375D01*
X8333104Y1627806D01*
X8331805Y1627128D01*
X8330509Y1626341D01*
X8329218Y1625445D01*
X8327930Y1624440D01*
X8325367Y1622102D01*
X8311225Y1636245D01*
X8312448Y1637524D01*
X8314568Y1640095D01*
X8315463Y1641387D01*
X8316251Y1642682D01*
X8316929Y1643981D01*
X8317497Y1645284D01*
X8317957Y1646591D01*
X8318308Y1647902D01*
X8318550Y1649217D01*
X8338340Y1629428D01*
D02*
G37*
G36*
X4842092Y1520232D02*
X4838572Y1502538D01*
X4833093Y1500268D01*
X4819732Y1486906D01*
X4812500Y1469448D01*
Y1450552D01*
X4819732Y1433093D01*
X4833093Y1419731D01*
X4850552Y1412500D01*
X4869448D01*
X4886906Y1419731D01*
X4900268Y1433093D01*
X4902538Y1438573D01*
X4920232Y1442092D01*
X4979217Y1383107D01*
Y1005950D01*
X4976235Y1003958D01*
X4957339D01*
X4944080Y998466D01*
X4943737Y998809D01*
X4926279Y1006041D01*
X4907382D01*
X4889924Y998809D01*
X4878201Y987086D01*
X4870505Y988275D01*
X4863201Y991685D01*
Y1114755D01*
X4864563Y1118044D01*
X4864670Y1118204D01*
X4864707Y1118392D01*
X4869917Y1130970D01*
Y1149866D01*
X4862685Y1167324D01*
X4849324Y1180686D01*
X4846432Y1181884D01*
Y1198120D01*
X4850647Y1199866D01*
X4864009Y1213228D01*
X4871240Y1230686D01*
Y1249582D01*
X4864009Y1267041D01*
X4850647Y1280403D01*
X4833189Y1287634D01*
X4814292D01*
X4796834Y1280403D01*
X4783472Y1267041D01*
X4778262Y1254464D01*
X4778156Y1254304D01*
X4778118Y1254115D01*
X4776756Y1250826D01*
X4741162Y1215232D01*
X4732321Y1202001D01*
X4729216Y1186394D01*
X4729217Y1186393D01*
Y750001D01*
X4729216Y750000D01*
X4732321Y734393D01*
X4741162Y721162D01*
X4856501Y605822D01*
X4850288Y590822D01*
X4788500D01*
X4762163Y585583D01*
X4739836Y570664D01*
X4724917Y548337D01*
X4719678Y522000D01*
Y407000D01*
X4724917Y380663D01*
X4739836Y358336D01*
X4762163Y343417D01*
X4788500Y338178D01*
X4863500D01*
X4889837Y343417D01*
X4900185Y350331D01*
X4902753Y350523D01*
X4919458Y345168D01*
X4924095Y338229D01*
X4971461Y290863D01*
X4971461Y290862D01*
X4981016Y284478D01*
X4986968Y268936D01*
X4986902Y266288D01*
X4978917Y254337D01*
X4973678Y228000D01*
Y113000D01*
X4978917Y86663D01*
X4993836Y64336D01*
X5001904Y58944D01*
X4997354Y43944D01*
X4908646D01*
X4904096Y58944D01*
X4912164Y64336D01*
X4927083Y86663D01*
X4932322Y113000D01*
Y228000D01*
X4927083Y254337D01*
X4912164Y276664D01*
X4889837Y291583D01*
X4863500Y296822D01*
X4788500D01*
X4762163Y291583D01*
X4747548Y281818D01*
X4684027Y345338D01*
X4672615Y352964D01*
X4669530Y357080D01*
X4667237Y362333D01*
X4666215Y370384D01*
X4673083Y380663D01*
X4678322Y407000D01*
Y522000D01*
X4673083Y548337D01*
X4658164Y570664D01*
X4635837Y585583D01*
X4609500Y590822D01*
X4534500D01*
X4508163Y585583D01*
X4497791Y578653D01*
X4482791Y586670D01*
Y607991D01*
X4482791Y607993D01*
X4479686Y623600D01*
X4470846Y636831D01*
X4470845Y636832D01*
X4363209Y744468D01*
Y837573D01*
X4363209Y837575D01*
X4360105Y853182D01*
X4351264Y866413D01*
X4351263Y866414D01*
X4320676Y897000D01*
X4326889Y912000D01*
X4328948D01*
X4346407Y919232D01*
X4359769Y932594D01*
X4367000Y950052D01*
Y968949D01*
X4359769Y986407D01*
X4346407Y999769D01*
X4328948Y1007000D01*
X4310052D01*
X4292594Y999769D01*
X4279232Y986407D01*
X4272000Y968949D01*
Y966890D01*
X4257000Y960677D01*
X3976564Y1241113D01*
X3963333Y1249953D01*
X3947726Y1253058D01*
X3947725Y1253058D01*
X3931037D01*
X3927827Y1266972D01*
X3927929Y1267756D01*
X3928181Y1268354D01*
X3928254Y1268385D01*
X3941616Y1281746D01*
X3948847Y1299205D01*
Y1318101D01*
X3947625Y1321051D01*
X3957648Y1336051D01*
X4259383D01*
X4275966Y1339349D01*
X4290024Y1348743D01*
X4476041Y1534759D01*
X4485434Y1548818D01*
X4488733Y1565400D01*
Y1631839D01*
X4502591Y1637579D01*
X4559842Y1580328D01*
X4578035Y1568172D01*
X4599494Y1563903D01*
X4620954Y1568172D01*
X4639147Y1580328D01*
X4651303Y1598521D01*
X4655572Y1619981D01*
X4651303Y1641440D01*
X4639147Y1659633D01*
X4566077Y1732703D01*
Y1776648D01*
X4579935Y1782388D01*
X4842092Y1520232D01*
D02*
G37*
G36*
X4240040Y1563092D02*
X4240359Y1559775D01*
X4240639Y1558228D01*
X4240998Y1556756D01*
X4241438Y1555358D01*
X4241957Y1554034D01*
X4242556Y1552785D01*
X4243235Y1551609D01*
X4243993Y1550509D01*
X4216007D01*
X4216765Y1551609D01*
X4217444Y1552785D01*
X4218043Y1554034D01*
X4218562Y1555358D01*
X4219001Y1556756D01*
X4219361Y1558228D01*
X4219641Y1559775D01*
X4219840Y1561396D01*
X4220000Y1564861D01*
X4240000D01*
X4240040Y1563092D01*
D02*
G37*
G36*
X4210771Y1503428D02*
X4213342Y1501308D01*
X4214633Y1500412D01*
X4215929Y1499625D01*
X4217228Y1498947D01*
X4218531Y1498379D01*
X4219838Y1497919D01*
X4221149Y1497568D01*
X4222464Y1497326D01*
X4202674Y1477536D01*
X4202432Y1478851D01*
X4202082Y1480162D01*
X4201622Y1481469D01*
X4201053Y1482772D01*
X4200375Y1484071D01*
X4199588Y1485367D01*
X4198692Y1486658D01*
X4197687Y1487945D01*
X4195349Y1490509D01*
X4209491Y1504651D01*
X4210771Y1503428D01*
D02*
G37*
G36*
X8180451Y1458847D02*
X8179351Y1459606D01*
X8178175Y1460285D01*
X8176926Y1460884D01*
X8175602Y1461403D01*
X8174204Y1461842D01*
X8172732Y1462202D01*
X8171185Y1462481D01*
X8169564Y1462681D01*
X8166099Y1462841D01*
Y1482841D01*
X8167868Y1482880D01*
X8171185Y1483200D01*
X8172732Y1483480D01*
X8174204Y1483839D01*
X8175602Y1484278D01*
X8176926Y1484797D01*
X8178175Y1485396D01*
X8179351Y1486075D01*
X8180451Y1486834D01*
Y1458847D01*
D02*
G37*
G36*
X8179491Y1406007D02*
X8178391Y1406765D01*
X8177215Y1407444D01*
X8175966Y1408043D01*
X8174642Y1408562D01*
X8173244Y1409001D01*
X8171772Y1409361D01*
X8170225Y1409641D01*
X8168604Y1409840D01*
X8165139Y1410000D01*
Y1430000D01*
X8166908Y1430040D01*
X8170225Y1430359D01*
X8171772Y1430639D01*
X8173244Y1430998D01*
X8174642Y1431438D01*
X8175966Y1431957D01*
X8177215Y1432556D01*
X8178391Y1433235D01*
X8179491Y1433993D01*
Y1406007D01*
D02*
G37*
G36*
X7827227Y1405097D02*
X7821014Y1390097D01*
X6994042D01*
X6994041Y1390097D01*
X6978433Y1386992D01*
X6971961Y1382668D01*
X6968632Y1382707D01*
X6955854Y1387396D01*
X6954537Y1388699D01*
X6949730Y1400304D01*
X6947626Y1402407D01*
X6950553Y1417119D01*
X6952794Y1418047D01*
X6966156Y1431409D01*
X6973387Y1448867D01*
Y1467764D01*
X6966156Y1485222D01*
X6952794Y1498584D01*
X6935336Y1505815D01*
X6916439D01*
X6898981Y1498584D01*
X6885619Y1485222D01*
X6878388Y1467764D01*
Y1448867D01*
X6885619Y1431409D01*
X6887722Y1429306D01*
X6884796Y1414594D01*
X6882555Y1413666D01*
X6869193Y1400304D01*
X6861961Y1382846D01*
Y1363949D01*
X6865344Y1355784D01*
X6855321Y1340783D01*
X6817488D01*
X6817487Y1340784D01*
X6801880Y1337679D01*
X6788649Y1328838D01*
X6788648Y1328838D01*
X6549448Y1089637D01*
X6536731Y1098134D01*
X6538486Y1102370D01*
Y1121267D01*
X6531255Y1138725D01*
X6517893Y1152087D01*
X6513874Y1153752D01*
X6510355Y1171445D01*
X6536499Y1197589D01*
X6543689Y1196159D01*
X6557051Y1182797D01*
X6574509Y1175566D01*
X6593406D01*
X6610864Y1182797D01*
X6624226Y1196159D01*
X6631457Y1213618D01*
Y1232514D01*
X6625796Y1246181D01*
X6645502Y1265887D01*
X6656553Y1282426D01*
X6660434Y1301935D01*
Y1318369D01*
X6662099Y1320861D01*
X6665980Y1340370D01*
X6662099Y1359879D01*
X6651048Y1376418D01*
X6634509Y1387469D01*
X6616866Y1390978D01*
X6610268Y1406907D01*
X6596907Y1420268D01*
X6579448Y1427500D01*
X6560552D01*
X6555784Y1425525D01*
X6540783Y1435548D01*
Y1553107D01*
X6686893Y1699217D01*
X7533107D01*
X7827227Y1405097D01*
D02*
G37*
G36*
X6100262Y1416012D02*
X6100907Y1415758D01*
X6101718Y1415534D01*
X6102694Y1415340D01*
X6103835Y1415175D01*
X6106613Y1414937D01*
X6112020Y1414802D01*
Y1389802D01*
X6110053Y1389787D01*
X6102694Y1389265D01*
X6101718Y1389070D01*
X6100907Y1388847D01*
X6100262Y1388593D01*
X6099781Y1388309D01*
Y1416296D01*
X6100262Y1416012D01*
D02*
G37*
G36*
X6381393Y1388702D02*
X6382568Y1388023D01*
X6383817Y1387424D01*
X6385141Y1386905D01*
X6386539Y1386465D01*
X6388012Y1386106D01*
X6389558Y1385826D01*
X6391179Y1385627D01*
X6394645Y1385467D01*
Y1365467D01*
X6392875Y1365427D01*
X6389558Y1365108D01*
X6388012Y1364828D01*
X6386539Y1364468D01*
X6385141Y1364029D01*
X6383817Y1363510D01*
X6382568Y1362911D01*
X6381393Y1362232D01*
X6380292Y1361474D01*
Y1389460D01*
X6381393Y1388702D01*
D02*
G37*
G36*
X8178741Y1335153D02*
X8180040Y1334065D01*
X8181347Y1333109D01*
X8182662Y1332284D01*
X8183986Y1331591D01*
X8185319Y1331030D01*
X8186660Y1330600D01*
X8188010Y1330302D01*
X8189368Y1330136D01*
X8190735Y1330101D01*
X8174154Y1308375D01*
X8173895Y1309206D01*
X8173518Y1310096D01*
X8173021Y1311044D01*
X8172406Y1312050D01*
X8171673Y1313115D01*
X8169850Y1315420D01*
X8167552Y1317958D01*
X8166225Y1319315D01*
X8177451Y1336373D01*
X8178741Y1335153D01*
D02*
G37*
G36*
X6254155Y1313543D02*
X6259728Y1308710D01*
X6260556Y1308157D01*
X6261287Y1307742D01*
X6261923Y1307465D01*
X6262464Y1307326D01*
X6242674Y1287536D01*
X6242535Y1288076D01*
X6242258Y1288712D01*
X6241843Y1289444D01*
X6241290Y1290272D01*
X6240599Y1291195D01*
X6238804Y1293328D01*
X6235076Y1297246D01*
X6252754Y1314924D01*
X6254155Y1313543D01*
D02*
G37*
G36*
X8172678Y1283727D02*
X8173977Y1282639D01*
X8175284Y1281683D01*
X8176599Y1280858D01*
X8177923Y1280165D01*
X8179256Y1279604D01*
X8180597Y1279174D01*
X8181947Y1278877D01*
X8183305Y1278710D01*
X8184672Y1278676D01*
X8168091Y1256949D01*
X8167832Y1257780D01*
X8167455Y1258670D01*
X8166958Y1259618D01*
X8166343Y1260624D01*
X8165610Y1261689D01*
X8163787Y1263994D01*
X8161489Y1266532D01*
X8160162Y1267889D01*
X8171388Y1284947D01*
X8172678Y1283727D01*
D02*
G37*
G36*
X6397037Y1240505D02*
X6395812Y1239204D01*
X6394736Y1237898D01*
X6393808Y1236589D01*
X6393028Y1235276D01*
X6392397Y1233959D01*
X6391914Y1232639D01*
X6391579Y1231314D01*
X6391393Y1229985D01*
X6391355Y1228652D01*
X6391465Y1227315D01*
X6368699Y1241560D01*
X6369085Y1241736D01*
X6369585Y1242046D01*
X6370197Y1242493D01*
X6371763Y1243792D01*
X6374960Y1246756D01*
X6377658Y1249409D01*
X6397037Y1240505D01*
D02*
G37*
G36*
X7346896Y1258529D02*
X7341151Y1244661D01*
Y1225764D01*
X7348382Y1208306D01*
X7361744Y1194944D01*
X7379202Y1187713D01*
X7398099D01*
X7407026Y1191410D01*
X7415582Y1182854D01*
X7433040Y1175623D01*
X7451937D01*
X7464514Y1180833D01*
X7464703Y1180870D01*
X7464863Y1180977D01*
X7468151Y1182339D01*
X7558616D01*
X7558617Y1182339D01*
X7574224Y1185444D01*
X7587455Y1194284D01*
X7590133Y1194473D01*
X7602500Y1184332D01*
Y1169885D01*
X7599516Y1165419D01*
X7503650D01*
X7503649Y1165419D01*
X7488042Y1162314D01*
X7474811Y1153474D01*
X7448251Y1126914D01*
X7444963Y1125552D01*
X7444774Y1125514D01*
X7444614Y1125407D01*
X7432037Y1120198D01*
X7418675Y1106836D01*
X7411443Y1089378D01*
Y1070481D01*
X7418675Y1053023D01*
X7432037Y1039661D01*
X7449495Y1032429D01*
X7468391D01*
X7485850Y1039661D01*
X7499212Y1053023D01*
X7504421Y1065600D01*
X7504528Y1065760D01*
X7504566Y1065949D01*
X7505928Y1069237D01*
X7520542Y1083852D01*
X7591331D01*
Y1070552D01*
X7598102Y1054205D01*
X7591249Y1037661D01*
Y1018764D01*
X7592509Y1015723D01*
X7584175Y1003251D01*
X7189446D01*
Y1015107D01*
X7182214Y1032565D01*
X7168853Y1045927D01*
X7151394Y1053158D01*
X7132498D01*
X7115040Y1045927D01*
X7101678Y1032565D01*
X7094446Y1015107D01*
Y1003251D01*
X7011858D01*
X7011857Y1003252D01*
X6996250Y1000147D01*
X6983019Y991306D01*
X6983018Y991306D01*
X6732496Y740784D01*
X6390618D01*
Y753451D01*
X6387545Y760870D01*
X6487500Y860825D01*
X6502500Y854612D01*
Y850552D01*
X6509732Y833094D01*
X6523094Y819732D01*
X6540552Y812500D01*
X6559448D01*
X6576907Y819732D01*
X6590269Y833094D01*
X6597500Y850552D01*
Y869448D01*
X6593119Y880025D01*
X6601620Y883547D01*
X6614982Y896909D01*
X6622214Y914367D01*
Y933264D01*
X6614982Y950722D01*
X6601621Y964083D01*
X6599818Y973143D01*
X6845892Y1219217D01*
X6954224D01*
X6954225Y1219216D01*
X6969832Y1222321D01*
X6983063Y1231162D01*
X7025431Y1273530D01*
X7340194D01*
X7346896Y1258529D01*
D02*
G37*
G36*
X4826204Y1222809D02*
X4824890Y1222567D01*
X4823579Y1222216D01*
X4822272Y1221756D01*
X4820969Y1221187D01*
X4819669Y1220509D01*
X4818374Y1219722D01*
X4817083Y1218826D01*
X4815795Y1217821D01*
X4813232Y1215483D01*
X4799090Y1229626D01*
X4800313Y1230905D01*
X4802432Y1233476D01*
X4803328Y1234768D01*
X4804115Y1236063D01*
X4804793Y1237362D01*
X4805362Y1238666D01*
X4805822Y1239972D01*
X4806173Y1241283D01*
X4806415Y1242598D01*
X4826204Y1222809D01*
D02*
G37*
G36*
X7454098Y1236357D02*
X7455273Y1235679D01*
X7456522Y1235080D01*
X7457846Y1234560D01*
X7459244Y1234121D01*
X7460717Y1233762D01*
X7462263Y1233482D01*
X7463884Y1233283D01*
X7467350Y1233123D01*
Y1213123D01*
X7465580Y1213083D01*
X7462263Y1212763D01*
X7460717Y1212484D01*
X7459244Y1212124D01*
X7457846Y1211685D01*
X7456522Y1211166D01*
X7455273Y1210567D01*
X7454098Y1209888D01*
X7452997Y1209129D01*
Y1237116D01*
X7454098Y1236357D01*
D02*
G37*
G36*
X3911956Y1225509D02*
X3913131Y1224830D01*
X3914381Y1224231D01*
X3915704Y1223712D01*
X3917102Y1223273D01*
X3918575Y1222913D01*
X3920122Y1222634D01*
X3921743Y1222434D01*
X3925208Y1222274D01*
Y1202274D01*
X3923438Y1202234D01*
X3920122Y1201915D01*
X3918575Y1201635D01*
X3917102Y1201276D01*
X3915704Y1200837D01*
X3914381Y1200317D01*
X3913131Y1199718D01*
X3911956Y1199040D01*
X3910856Y1198281D01*
Y1226268D01*
X3911956Y1225509D01*
D02*
G37*
G36*
X3848504Y1171348D02*
X3847825Y1170172D01*
X3847226Y1168923D01*
X3846707Y1167599D01*
X3846268Y1166201D01*
X3845909Y1164729D01*
X3845629Y1163182D01*
X3845429Y1161561D01*
X3845270Y1158096D01*
X3825270D01*
X3825230Y1159865D01*
X3824910Y1163182D01*
X3824631Y1164729D01*
X3824271Y1166201D01*
X3823832Y1167599D01*
X3823313Y1168923D01*
X3822714Y1170172D01*
X3822035Y1171348D01*
X3821276Y1172448D01*
X3849263D01*
X3848504Y1171348D01*
D02*
G37*
G36*
X5218123Y1357839D02*
X5235582Y1350608D01*
X5254478D01*
X5258385Y1352226D01*
X5798627D01*
X5808650Y1337226D01*
X5807500Y1334449D01*
Y1315552D01*
X5814731Y1298094D01*
X5828093Y1284732D01*
X5832975Y1282710D01*
Y1265996D01*
X5840206Y1248538D01*
X5853568Y1235176D01*
X5863206Y1231183D01*
Y1220018D01*
X5870438Y1202560D01*
X5883704Y1189294D01*
X5883699Y1188733D01*
X5880586Y1174294D01*
X5611931D01*
X5590471Y1170025D01*
X5572278Y1157869D01*
X5571282Y1156873D01*
X5558130Y1170025D01*
X5540672Y1177257D01*
X5521776D01*
X5504317Y1170025D01*
X5490955Y1156663D01*
X5483724Y1139205D01*
Y1120309D01*
X5484177Y1119215D01*
X5476096Y1115868D01*
X5462734Y1102506D01*
X5455503Y1085048D01*
Y1066152D01*
X5462734Y1048694D01*
X5451574Y1039423D01*
X5393050Y1097948D01*
X5389998Y1113288D01*
X5381157Y1126519D01*
X5381157Y1126520D01*
X5366985Y1140692D01*
X5365622Y1143981D01*
X5365585Y1144169D01*
X5365478Y1144329D01*
X5360268Y1156907D01*
X5346907Y1170268D01*
X5329448Y1177500D01*
X5310552D01*
X5293094Y1170268D01*
X5279732Y1156907D01*
X5272500Y1139448D01*
Y1120552D01*
X5279732Y1103094D01*
X5293094Y1089732D01*
X5305671Y1084522D01*
X5305831Y1084415D01*
X5306019Y1084378D01*
X5309308Y1083015D01*
X5311588Y1080735D01*
X5314640Y1065394D01*
X5323481Y1052163D01*
X5354893Y1020751D01*
X5349153Y1006893D01*
X5319969D01*
X5316733Y1008233D01*
X5316549Y1008356D01*
X5316334Y1008398D01*
X5303835Y1013575D01*
X5284939D01*
X5267481Y1006344D01*
X5256483Y995346D01*
X5240169Y990447D01*
X5200784Y1029832D01*
Y1353966D01*
X5215784Y1360179D01*
X5218123Y1357839D01*
D02*
G37*
G36*
X3895958Y1154881D02*
X3896901Y1154477D01*
X3897961Y1154120D01*
X3899139Y1153811D01*
X3900434Y1153549D01*
X3903374Y1153169D01*
X3905020Y1153050D01*
X3908664Y1152955D01*
X3912227Y1132955D01*
X3910454Y1132907D01*
X3908766Y1132761D01*
X3907162Y1132518D01*
X3905643Y1132178D01*
X3904209Y1131741D01*
X3902859Y1131207D01*
X3901594Y1130576D01*
X3900414Y1129847D01*
X3899318Y1129022D01*
X3898308Y1128099D01*
X3895131Y1155333D01*
X3895958Y1154881D01*
D02*
G37*
G36*
X4835652Y1128809D02*
X4834973Y1127633D01*
X4834374Y1126384D01*
X4833855Y1125060D01*
X4833416Y1123662D01*
X4833056Y1122190D01*
X4832776Y1120643D01*
X4832577Y1119022D01*
X4832417Y1115557D01*
X4812417D01*
X4812377Y1117326D01*
X4812058Y1120643D01*
X4811778Y1122190D01*
X4811419Y1123662D01*
X4810979Y1125060D01*
X4810460Y1126384D01*
X4809861Y1127633D01*
X4809182Y1128809D01*
X4808424Y1129909D01*
X4836410D01*
X4835652Y1128809D01*
D02*
G37*
G36*
X5337567Y1131149D02*
X5337918Y1129838D01*
X5338378Y1128531D01*
X5338947Y1127228D01*
X5339625Y1125929D01*
X5340412Y1124634D01*
X5341308Y1123342D01*
X5342313Y1122055D01*
X5344651Y1119492D01*
X5330509Y1105349D01*
X5329229Y1106573D01*
X5326658Y1108692D01*
X5325366Y1109588D01*
X5324071Y1110375D01*
X5322772Y1111053D01*
X5321469Y1111622D01*
X5320162Y1112082D01*
X5318851Y1112433D01*
X5317536Y1112674D01*
X5337326Y1132464D01*
X5337567Y1131149D01*
D02*
G37*
G36*
X7483594Y1090438D02*
X7482371Y1089158D01*
X7480251Y1086587D01*
X7479355Y1085296D01*
X7478568Y1084000D01*
X7477890Y1082701D01*
X7477321Y1081398D01*
X7476861Y1080091D01*
X7476511Y1078780D01*
X7476269Y1077465D01*
X7456479Y1097255D01*
X7457794Y1097497D01*
X7459105Y1097847D01*
X7460412Y1098307D01*
X7461715Y1098876D01*
X7463014Y1099554D01*
X7464309Y1100341D01*
X7465601Y1101237D01*
X7466889Y1102243D01*
X7469452Y1104580D01*
X7483594Y1090438D01*
D02*
G37*
G36*
X6449053Y1088931D02*
X6450718Y1084912D01*
X6464080Y1071550D01*
X6481538Y1064319D01*
X6500435D01*
X6504671Y1066074D01*
X6513168Y1053357D01*
X6410258Y950448D01*
X6389115D01*
X6385826Y951810D01*
X6385666Y951917D01*
X6385478Y951954D01*
X6372901Y957164D01*
X6354004D01*
X6336546Y949933D01*
X6323184Y936571D01*
X6315953Y919112D01*
Y915617D01*
X6300953Y912633D01*
X6300268Y914286D01*
X6286906Y927648D01*
X6276845Y931815D01*
X6188020Y1020640D01*
X6173962Y1030033D01*
X6157379Y1033332D01*
X6109509D01*
X6099448Y1037499D01*
X6080552D01*
X6063094Y1030268D01*
X6049732Y1016906D01*
X6042500Y999448D01*
Y980551D01*
X6049732Y963093D01*
X6063094Y949731D01*
X6080552Y942500D01*
X6099448D01*
X6109509Y946667D01*
X6139431D01*
X6215564Y870534D01*
X6219731Y860473D01*
X6233093Y847111D01*
X6250551Y839879D01*
X6269448D01*
X6286906Y847111D01*
X6300268Y860473D01*
X6307499Y877931D01*
Y881426D01*
X6322499Y884410D01*
X6323184Y882758D01*
X6336546Y869396D01*
X6352780Y862671D01*
X6355654Y856642D01*
X6358486Y847164D01*
X6314280Y802959D01*
X6305440Y789727D01*
X6302335Y774120D01*
X6302335Y774119D01*
Y769665D01*
X6300973Y766377D01*
X6300866Y766217D01*
X6300828Y766028D01*
X6295619Y753451D01*
Y740784D01*
X5750213D01*
X5567398Y923599D01*
X5569165Y932486D01*
X5582527Y945848D01*
X5589758Y963306D01*
Y982203D01*
X5582527Y999661D01*
X5569165Y1013023D01*
X5551707Y1020254D01*
X5532810D01*
X5515352Y1013023D01*
X5507270Y1004940D01*
X5488263Y1002734D01*
X5466826Y1024171D01*
X5476096Y1035331D01*
X5493554Y1028100D01*
X5512451D01*
X5529909Y1035331D01*
X5543271Y1048693D01*
X5549966Y1064856D01*
X5557156Y1067708D01*
X5565502Y1069660D01*
X5582419Y1058356D01*
X5603879Y1054087D01*
X5625339Y1058356D01*
X5631000Y1062139D01*
X6337558D01*
X6343320Y1060993D01*
X6368216D01*
X6389676Y1065261D01*
X6402434Y1073786D01*
X6408393Y1074971D01*
X6424932Y1086022D01*
X6431360Y1092450D01*
X6449053Y1088931D01*
D02*
G37*
G36*
X8217575Y1066126D02*
X8215027Y1047924D01*
X8208066Y1044144D01*
X8199546Y1047673D01*
X8180649D01*
X8163191Y1040442D01*
X8149829Y1027080D01*
X8144619Y1014503D01*
X8144513Y1014343D01*
X8144475Y1014154D01*
X8143113Y1010865D01*
X8135499Y1003251D01*
X7748644D01*
X7742431Y1018251D01*
X7747768Y1023589D01*
X7755000Y1041047D01*
Y1059944D01*
X7751310Y1068852D01*
X7760917Y1083852D01*
X8199848D01*
X8217575Y1066126D01*
D02*
G37*
G36*
X8257405Y987587D02*
X8256090Y987345D01*
X8254779Y986994D01*
X8253472Y986534D01*
X8252169Y985965D01*
X8250869Y985287D01*
X8249574Y984500D01*
X8248283Y983604D01*
X8246995Y982599D01*
X8244432Y980262D01*
X8230290Y994404D01*
X8231513Y995684D01*
X8233633Y998255D01*
X8234528Y999546D01*
X8235316Y1000841D01*
X8235993Y1002140D01*
X8236562Y1003444D01*
X8237022Y1004751D01*
X8237373Y1006061D01*
X8237615Y1007376D01*
X8257405Y987587D01*
D02*
G37*
G36*
X6100989Y1003709D02*
X6101635Y1003455D01*
X6102446Y1003231D01*
X6103421Y1003037D01*
X6104563Y1002873D01*
X6107341Y1002634D01*
X6112747Y1002499D01*
Y977500D01*
X6110780Y977485D01*
X6103421Y976962D01*
X6102446Y976768D01*
X6101635Y976544D01*
X6100989Y976290D01*
X6100509Y976006D01*
Y1003993D01*
X6100989Y1003709D01*
D02*
G37*
G36*
X8192561Y982848D02*
X8191247Y982606D01*
X8189936Y982255D01*
X8188629Y981795D01*
X8187326Y981226D01*
X8186026Y980548D01*
X8184731Y979761D01*
X8183440Y978865D01*
X8182152Y977860D01*
X8179589Y975523D01*
X8165447Y989665D01*
X8166670Y990944D01*
X8168789Y993515D01*
X8169685Y994807D01*
X8170472Y996102D01*
X8171150Y997401D01*
X8171719Y998705D01*
X8172179Y1000011D01*
X8172530Y1001322D01*
X8172772Y1002637D01*
X8192561Y982848D01*
D02*
G37*
G36*
X5305977Y979327D02*
X5307150Y978652D01*
X5308398Y978056D01*
X5309720Y977539D01*
X5311117Y977102D01*
X5312589Y976745D01*
X5314136Y976467D01*
X5315757Y976268D01*
X5319225Y976109D01*
X5319272Y956109D01*
X5317503Y956069D01*
X5314188Y955748D01*
X5312641Y955467D01*
X5311168Y955106D01*
X5309770Y954664D01*
X5308445Y954142D01*
X5307194Y953540D01*
X5306017Y952858D01*
X5304914Y952096D01*
X5304879Y980082D01*
X5305977Y979327D01*
D02*
G37*
G36*
X6375062Y922899D02*
X6376237Y922220D01*
X6377486Y921621D01*
X6378810Y921102D01*
X6380208Y920663D01*
X6381680Y920303D01*
X6383227Y920024D01*
X6384848Y919824D01*
X6388314Y919664D01*
Y899664D01*
X6386544Y899624D01*
X6383227Y899305D01*
X6381680Y899025D01*
X6380208Y898666D01*
X6378810Y898227D01*
X6377486Y897707D01*
X6376237Y897108D01*
X6375062Y896429D01*
X6373961Y895671D01*
Y923658D01*
X6375062Y922899D01*
D02*
G37*
G36*
X6254155Y910922D02*
X6259728Y906089D01*
X6260556Y905536D01*
X6261287Y905121D01*
X6261923Y904844D01*
X6262464Y904705D01*
X6242674Y884915D01*
X6242535Y885455D01*
X6242258Y886091D01*
X6241843Y886823D01*
X6241290Y887651D01*
X6240599Y888574D01*
X6238804Y890707D01*
X6235076Y894625D01*
X6252754Y912303D01*
X6254155Y910922D01*
D02*
G37*
G36*
X8261984Y845477D02*
X8260698Y844151D01*
X8257518Y840366D01*
X8256684Y839170D01*
X8255963Y838005D01*
X8255356Y836874D01*
X8254861Y835775D01*
X8254480Y834708D01*
X8254211Y833674D01*
X8236384Y854725D01*
X8237747Y854841D01*
X8239101Y855079D01*
X8240446Y855440D01*
X8241783Y855923D01*
X8243111Y856529D01*
X8244430Y857258D01*
X8245741Y858109D01*
X8247043Y859083D01*
X8248336Y860179D01*
X8249621Y861398D01*
X8261984Y845477D01*
D02*
G37*
G36*
X5090771Y853428D02*
X5093342Y851308D01*
X5094634Y850412D01*
X5095929Y849625D01*
X5097228Y848947D01*
X5098531Y848378D01*
X5099838Y847918D01*
X5101149Y847568D01*
X5102464Y847326D01*
X5082674Y827536D01*
X5082433Y828851D01*
X5082082Y830162D01*
X5081622Y831469D01*
X5081053Y832772D01*
X5080375Y834071D01*
X5079588Y835366D01*
X5078692Y836658D01*
X5077687Y837945D01*
X5075349Y840509D01*
X5089491Y854651D01*
X5090771Y853428D01*
D02*
G37*
G36*
X5169708Y845377D02*
X5172279Y843258D01*
X5173570Y842362D01*
X5174865Y841575D01*
X5176165Y840897D01*
X5177468Y840328D01*
X5178775Y839868D01*
X5180086Y839517D01*
X5181401Y839275D01*
X5161611Y819486D01*
X5161369Y820801D01*
X5161018Y822112D01*
X5160558Y823418D01*
X5159989Y824722D01*
X5159311Y826021D01*
X5158524Y827316D01*
X5157628Y828608D01*
X5156623Y829895D01*
X5154286Y832458D01*
X5168428Y846601D01*
X5169708Y845377D01*
D02*
G37*
G36*
X7487567Y831149D02*
X7487918Y829838D01*
X7488378Y828531D01*
X7488947Y827228D01*
X7489625Y825929D01*
X7490412Y824634D01*
X7491308Y823342D01*
X7492313Y822055D01*
X7494651Y819492D01*
X7480509Y805349D01*
X7479229Y806573D01*
X7476658Y808692D01*
X7475366Y809588D01*
X7474071Y810375D01*
X7472772Y811053D01*
X7471469Y811622D01*
X7470162Y812082D01*
X7468851Y812433D01*
X7467536Y812675D01*
X7487326Y832464D01*
X7487567Y831149D01*
D02*
G37*
G36*
X5511991Y766007D02*
X5510891Y766765D01*
X5509715Y767444D01*
X5508466Y768043D01*
X5507142Y768562D01*
X5505744Y769002D01*
X5504272Y769361D01*
X5502725Y769641D01*
X5501104Y769840D01*
X5497639Y770000D01*
Y790000D01*
X5499408Y790040D01*
X5502725Y790359D01*
X5504272Y790639D01*
X5505744Y790998D01*
X5507142Y791438D01*
X5508466Y791957D01*
X5509715Y792556D01*
X5510891Y793235D01*
X5511991Y793993D01*
Y766007D01*
D02*
G37*
G36*
X5401991D02*
X5400891Y766765D01*
X5399715Y767444D01*
X5398466Y768043D01*
X5397142Y768562D01*
X5395744Y769002D01*
X5394272Y769361D01*
X5392725Y769641D01*
X5391104Y769840D01*
X5387639Y770000D01*
Y790000D01*
X5389408Y790040D01*
X5392725Y790359D01*
X5394272Y790639D01*
X5395744Y790998D01*
X5397142Y791438D01*
X5398466Y791957D01*
X5399715Y792556D01*
X5400891Y793235D01*
X5401991Y793993D01*
Y766007D01*
D02*
G37*
G36*
X5300116Y780869D02*
X5302676Y778659D01*
X5303919Y777722D01*
X5306333Y776183D01*
X5307504Y775581D01*
X5308650Y775090D01*
X5309772Y774712D01*
X5310870Y774445D01*
X5290066Y756199D01*
X5289923Y757557D01*
X5289661Y758906D01*
X5289279Y760247D01*
X5288777Y761579D01*
X5288156Y762904D01*
X5287415Y764220D01*
X5286554Y765528D01*
X5285574Y766828D01*
X5284475Y768119D01*
X5283255Y769402D01*
X5298800Y782142D01*
X5300116Y780869D01*
D02*
G37*
G36*
X6353158Y767094D02*
X6353478Y763777D01*
X6353758Y762231D01*
X6354117Y760758D01*
X6354556Y759360D01*
X6355075Y758036D01*
X6355674Y756787D01*
X6356353Y755612D01*
X6357112Y754511D01*
X6329125D01*
X6329884Y755612D01*
X6330563Y756787D01*
X6331162Y758036D01*
X6331681Y759360D01*
X6332120Y760758D01*
X6332480Y762231D01*
X6332759Y763777D01*
X6332959Y765399D01*
X6333119Y768864D01*
X6353119D01*
X6353158Y767094D01*
D02*
G37*
G36*
X4185910Y741314D02*
X4186229Y737998D01*
X4186509Y736451D01*
X4186868Y734978D01*
X4187308Y733580D01*
X4187827Y732257D01*
X4188426Y731007D01*
X4189105Y729832D01*
X4189863Y728732D01*
X4161877D01*
X4162635Y729832D01*
X4163314Y731007D01*
X4163913Y732257D01*
X4164432Y733580D01*
X4164872Y734978D01*
X4165231Y736451D01*
X4165511Y737998D01*
X4165710Y739619D01*
X4165870Y743084D01*
X4185870D01*
X4185910Y741314D01*
D02*
G37*
G36*
X8281711Y735351D02*
X8280396Y735109D01*
X8279086Y734758D01*
X8277779Y734298D01*
X8276475Y733729D01*
X8275176Y733051D01*
X8273881Y732264D01*
X8272589Y731368D01*
X8271302Y730363D01*
X8268739Y728025D01*
X8254597Y742168D01*
X8255820Y743447D01*
X8257939Y746018D01*
X8258835Y747310D01*
X8259622Y748605D01*
X8260300Y749904D01*
X8260869Y751208D01*
X8261329Y752514D01*
X8261680Y753825D01*
X8261922Y755140D01*
X8281711Y735351D01*
D02*
G37*
G36*
X4289965Y739643D02*
X4290285Y736326D01*
X4290564Y734779D01*
X4290924Y733307D01*
X4291363Y731909D01*
X4291882Y730585D01*
X4292481Y729336D01*
X4293160Y728161D01*
X4293919Y727060D01*
X4265932D01*
X4266691Y728161D01*
X4267370Y729336D01*
X4267969Y730585D01*
X4268488Y731909D01*
X4268927Y733307D01*
X4269286Y734779D01*
X4269566Y736326D01*
X4269766Y737947D01*
X4269925Y741413D01*
X4289925D01*
X4289965Y739643D01*
D02*
G37*
G36*
X8342464Y732674D02*
X8341149Y732433D01*
X8339838Y732082D01*
X8338531Y731622D01*
X8337228Y731053D01*
X8335929Y730375D01*
X8334634Y729588D01*
X8333342Y728692D01*
X8332055Y727687D01*
X8329492Y725349D01*
X8315349Y739492D01*
X8316573Y740771D01*
X8318692Y743342D01*
X8319588Y744634D01*
X8320375Y745929D01*
X8321053Y747228D01*
X8321622Y748531D01*
X8322082Y749838D01*
X8322433Y751149D01*
X8322674Y752464D01*
X8342464Y732674D01*
D02*
G37*
G36*
X7542149Y747678D02*
X7543108Y747259D01*
X7544181Y746890D01*
X7545369Y746569D01*
X7546671Y746298D01*
X7549618Y745904D01*
X7551264Y745781D01*
X7554898Y745683D01*
X7558270Y725683D01*
X7556497Y725634D01*
X7554809Y725490D01*
X7553204Y725249D01*
X7551683Y724911D01*
X7550247Y724478D01*
X7548894Y723947D01*
X7547624Y723321D01*
X7546439Y722598D01*
X7545338Y721779D01*
X7544320Y720863D01*
X7541305Y748146D01*
X7542149Y747678D01*
D02*
G37*
G36*
X5291497Y626028D02*
X5291848Y624717D01*
X5292308Y623410D01*
X5292877Y622107D01*
X5293555Y620807D01*
X5294342Y619512D01*
X5295238Y618221D01*
X5296243Y616933D01*
X5298580Y614370D01*
X5284438Y600228D01*
X5283158Y601451D01*
X5280587Y603571D01*
X5279296Y604466D01*
X5278001Y605254D01*
X5276701Y605931D01*
X5275398Y606500D01*
X5274091Y606960D01*
X5272780Y607311D01*
X5271465Y607553D01*
X5291255Y627343D01*
X5291497Y626028D01*
D02*
G37*
G36*
X4889924Y918272D02*
X4907382Y911041D01*
X4926279D01*
X4939537Y916533D01*
X4939881Y916189D01*
X4957339Y908958D01*
X4976235Y908958D01*
X4982165Y895178D01*
X4982321Y894392D01*
X4991162Y881161D01*
X5053015Y819308D01*
X5054377Y816019D01*
X5054415Y815831D01*
X5054522Y815671D01*
X5059732Y803094D01*
X5073093Y789732D01*
X5090552Y782500D01*
X5109448D01*
X5126906Y789732D01*
X5146050Y787662D01*
X5152030Y781681D01*
X5169488Y774450D01*
X5188385D01*
X5205843Y781681D01*
X5216642Y792481D01*
X5260034Y749089D01*
Y747818D01*
X5267265Y730360D01*
X5280627Y716998D01*
X5298085Y709766D01*
X5316982D01*
X5334440Y716998D01*
X5347802Y730360D01*
X5351471Y739216D01*
X5386837D01*
X5390126Y737854D01*
X5390286Y737747D01*
X5390475Y737710D01*
X5403052Y732500D01*
X5421948D01*
X5439406Y739732D01*
X5440975Y741301D01*
X5451162Y751162D01*
X5464393Y742321D01*
X5480000Y739216D01*
X5496837D01*
X5500126Y737854D01*
X5500286Y737747D01*
X5500475Y737710D01*
X5513052Y732500D01*
X5531948D01*
X5549406Y739732D01*
X5562768Y753093D01*
X5571347Y754800D01*
X5689985Y636162D01*
X5703216Y627321D01*
X5718823Y624216D01*
X5718824Y624217D01*
X6420116D01*
X6422371Y620842D01*
Y601945D01*
X6424675Y596382D01*
X6416744Y588479D01*
X6412829Y585784D01*
X6387500Y590822D01*
X6312500D01*
X6286163Y585583D01*
X6263836Y570664D01*
X6248917Y548337D01*
X6243678Y522000D01*
Y407000D01*
X6246586Y392379D01*
X6237070Y380784D01*
X6214027D01*
X6204512Y392379D01*
X6207420Y407000D01*
Y454500D01*
X5984580D01*
Y407000D01*
X5987488Y392379D01*
X5977973Y380784D01*
X5954930D01*
X5945414Y392379D01*
X5948322Y407000D01*
Y522000D01*
X5943083Y548337D01*
X5928164Y570664D01*
X5905837Y585583D01*
X5879500Y590822D01*
X5804500D01*
X5778163Y585583D01*
X5755836Y570664D01*
X5740917Y548337D01*
X5735678Y522000D01*
Y407000D01*
X5738586Y392379D01*
X5729070Y380784D01*
X5700930D01*
X5691414Y392379D01*
X5694322Y407000D01*
Y522000D01*
X5689083Y548337D01*
X5674164Y570664D01*
X5651837Y585583D01*
X5625500Y590822D01*
X5550500D01*
X5524163Y585583D01*
X5501836Y570664D01*
X5501401Y570015D01*
X5500012Y569568D01*
X5484047Y571042D01*
X5478838Y578838D01*
X5435370Y622306D01*
X5422139Y631147D01*
X5406532Y634252D01*
X5406531Y634251D01*
X5322233D01*
X5320914Y635571D01*
X5319552Y638859D01*
X5319514Y639048D01*
X5319407Y639208D01*
X5314198Y651785D01*
X5300836Y665147D01*
X5283378Y672378D01*
X5264481D01*
X5247023Y665147D01*
X5233661Y651785D01*
X5226430Y634327D01*
Y615430D01*
X5233661Y597972D01*
X5234928Y596705D01*
X5234600Y576831D01*
X5234118Y576367D01*
X5231595Y576082D01*
X5168839Y638838D01*
X5155608Y647679D01*
X5140000Y650784D01*
X5139999Y650784D01*
X4986893D01*
X4863201Y774476D01*
Y925397D01*
X4870505Y928807D01*
X4878201Y929996D01*
X4889924Y918272D01*
D02*
G37*
G36*
X3795957Y589747D02*
X3796957Y577722D01*
X3797832Y572826D01*
X3798957Y568674D01*
X3800332Y565265D01*
X3801957Y562601D01*
X3803832Y560680D01*
X3805957Y559503D01*
X3808332Y559070D01*
X3758421Y556279D01*
X3760779Y557419D01*
X3762889Y559203D01*
X3764751Y561633D01*
X3766364Y564709D01*
X3767729Y568429D01*
X3768846Y572795D01*
X3769715Y577806D01*
X3770336Y583462D01*
X3770832Y596711D01*
X3795832Y596875D01*
X3795957Y589747D01*
D02*
G37*
G36*
X7066467Y370886D02*
X7064184Y371251D01*
X7061709Y371146D01*
X7059043Y370571D01*
X7056185Y369525D01*
X7053136Y368009D01*
X7049895Y366023D01*
X7046463Y363566D01*
X7042840Y360640D01*
X7035018Y353376D01*
X7020876Y367518D01*
X7024743Y371525D01*
X7031066Y378963D01*
X7033523Y382395D01*
X7035509Y385636D01*
X7037025Y388685D01*
X7038071Y391543D01*
X7038646Y394209D01*
X7038751Y396684D01*
X7038386Y398967D01*
X7066467Y370886D01*
D02*
G37*
G36*
X7039025Y277757D02*
X7046463Y271434D01*
X7049895Y268977D01*
X7053136Y266991D01*
X7056185Y265475D01*
X7059043Y264429D01*
X7061709Y263854D01*
X7064184Y263749D01*
X7066467Y264114D01*
X7038386Y236033D01*
X7038751Y238316D01*
X7038646Y240791D01*
X7038071Y243457D01*
X7037025Y246315D01*
X7035509Y249364D01*
X7033523Y252605D01*
X7031066Y256037D01*
X7028140Y259660D01*
X7020876Y267482D01*
X7035018Y281624D01*
X7039025Y277757D01*
D02*
G37*
%LPC*%
G36*
X2143420Y5280500D02*
X2042000D01*
Y5218697D01*
X2104030D01*
X2097944Y5206483D01*
X2092499Y5193809D01*
X2087695Y5180676D01*
X2083531Y5167083D01*
X2082307Y5161627D01*
X2097788Y5164707D01*
X2121769Y5180731D01*
X2137793Y5204712D01*
X2143420Y5233000D01*
Y5280500D01*
D02*
G37*
G36*
X2022000D02*
X1920580D01*
Y5233000D01*
X1926207Y5204712D01*
X1942231Y5180731D01*
X1966212Y5164707D01*
X1981693Y5161627D01*
X1980469Y5167083D01*
X1976305Y5180676D01*
X1971501Y5193809D01*
X1966056Y5206483D01*
X1959970Y5218697D01*
X2022000D01*
Y5280500D01*
D02*
G37*
G36*
X1586500Y5360244D02*
X1470500D01*
Y5153500D01*
X1677244D01*
Y5269500D01*
X1670336Y5304226D01*
X1650665Y5333665D01*
X1621226Y5353336D01*
X1586500Y5360244D01*
D02*
G37*
G36*
X1450500D02*
X1334500D01*
X1299774Y5353336D01*
X1270335Y5333665D01*
X1250664Y5304226D01*
X1243756Y5269500D01*
Y5153500D01*
X1450500D01*
Y5360244D01*
D02*
G37*
G36*
X8154250Y5118945D02*
X8123000D01*
Y5015000D01*
X8229444D01*
Y5043750D01*
X8223720Y5072526D01*
X8207420Y5096920D01*
X8183025Y5113221D01*
X8154250Y5118945D01*
D02*
G37*
G36*
X8103000D02*
X8071750D01*
X8042974Y5113221D01*
X8018579Y5096920D01*
X8002279Y5072526D01*
X7996555Y5043750D01*
Y5015000D01*
X8103000D01*
Y5118945D01*
D02*
G37*
G36*
X2082307Y5125373D02*
X2083531Y5119917D01*
X2087695Y5106324D01*
X2092499Y5093191D01*
X2097944Y5080517D01*
X2104030Y5068303D01*
X2042000D01*
Y5006500D01*
X2143420D01*
Y5054000D01*
X2137793Y5082288D01*
X2121769Y5106269D01*
X2097788Y5122293D01*
X2082307Y5125373D01*
D02*
G37*
G36*
X1981693D02*
X1966212Y5122293D01*
X1942231Y5106269D01*
X1926207Y5082288D01*
X1920580Y5054000D01*
Y5006500D01*
X2022000D01*
Y5068303D01*
X1959970D01*
X1966056Y5080517D01*
X1971501Y5093191D01*
X1976305Y5106324D01*
X1980469Y5119917D01*
X1981693Y5125373D01*
D02*
G37*
G36*
X1677244Y5133500D02*
X1470500D01*
Y4926756D01*
X1586500D01*
X1621226Y4933664D01*
X1650665Y4953335D01*
X1670336Y4982774D01*
X1677244Y5017500D01*
Y5133500D01*
D02*
G37*
G36*
X1450500D02*
X1243756D01*
Y5017500D01*
X1250664Y4982774D01*
X1270335Y4953335D01*
X1299774Y4933664D01*
X1334500Y4926756D01*
X1450500D01*
Y5133500D01*
D02*
G37*
G36*
X8229444Y4995000D02*
X8123000D01*
Y4891055D01*
X8154250D01*
X8183025Y4896779D01*
X8207420Y4913079D01*
X8223720Y4937474D01*
X8229444Y4966250D01*
Y4995000D01*
D02*
G37*
G36*
X8103000D02*
X7996555D01*
Y4966250D01*
X8002279Y4937474D01*
X8018579Y4913079D01*
X8042974Y4896779D01*
X8071750Y4891055D01*
X8103000D01*
Y4995000D01*
D02*
G37*
G36*
X7657500Y5122822D02*
X7582500D01*
X7556163Y5117583D01*
X7533836Y5102664D01*
X7518917Y5080337D01*
X7513678Y5054000D01*
Y4939000D01*
X7518917Y4912663D01*
X7533836Y4890336D01*
X7556163Y4875417D01*
X7582500Y4870178D01*
X7657500D01*
X7683837Y4875417D01*
X7706164Y4890336D01*
X7721083Y4912663D01*
X7726322Y4939000D01*
Y5054000D01*
X7721083Y5080337D01*
X7706164Y5102664D01*
X7683837Y5117583D01*
X7657500Y5122822D01*
D02*
G37*
G36*
X7403500D02*
X7328500D01*
X7302163Y5117583D01*
X7279836Y5102664D01*
X7264917Y5080337D01*
X7259678Y5054000D01*
Y4939000D01*
X7264917Y4912663D01*
X7279836Y4890336D01*
X7302163Y4875417D01*
X7328500Y4870178D01*
X7403500D01*
X7429837Y4875417D01*
X7452164Y4890336D01*
X7467083Y4912663D01*
X7472322Y4939000D01*
Y5054000D01*
X7467083Y5080337D01*
X7452164Y5102664D01*
X7429837Y5117583D01*
X7403500Y5122822D01*
D02*
G37*
G36*
X7149500D02*
X7074500D01*
X7048163Y5117583D01*
X7025836Y5102664D01*
X7010917Y5080337D01*
X7005678Y5054000D01*
Y4939000D01*
X7010917Y4912663D01*
X7025836Y4890336D01*
X7048163Y4875417D01*
X7074500Y4870178D01*
X7149500D01*
X7175837Y4875417D01*
X7198164Y4890336D01*
X7213083Y4912663D01*
X7218322Y4939000D01*
Y5054000D01*
X7213083Y5080337D01*
X7198164Y5102664D01*
X7175837Y5117583D01*
X7149500Y5122822D01*
D02*
G37*
G36*
X6895500D02*
X6820500D01*
X6794163Y5117583D01*
X6771836Y5102664D01*
X6756917Y5080337D01*
X6751678Y5054000D01*
Y4939000D01*
X6756917Y4912663D01*
X6771836Y4890336D01*
X6794163Y4875417D01*
X6820500Y4870178D01*
X6895500D01*
X6921837Y4875417D01*
X6944164Y4890336D01*
X6959083Y4912663D01*
X6964322Y4939000D01*
Y5054000D01*
X6959083Y5080337D01*
X6944164Y5102664D01*
X6921837Y5117583D01*
X6895500Y5122822D01*
D02*
G37*
G36*
X4609500D02*
X4534500D01*
X4508163Y5117583D01*
X4485836Y5102664D01*
X4470917Y5080337D01*
X4465678Y5054000D01*
Y4939000D01*
X4470917Y4912663D01*
X4485836Y4890336D01*
X4508163Y4875417D01*
X4534500Y4870178D01*
X4609500D01*
X4635837Y4875417D01*
X4658164Y4890336D01*
X4673083Y4912663D01*
X4678322Y4939000D01*
Y5054000D01*
X4673083Y5080337D01*
X4658164Y5102664D01*
X4635837Y5117583D01*
X4609500Y5122822D01*
D02*
G37*
G36*
X4101500D02*
X4026500D01*
X4000163Y5117583D01*
X3977836Y5102664D01*
X3962917Y5080337D01*
X3957678Y5054000D01*
Y4939000D01*
X3962917Y4912663D01*
X3977836Y4890336D01*
X4000163Y4875417D01*
X4026500Y4870178D01*
X4101500D01*
X4127837Y4875417D01*
X4150164Y4890336D01*
X4165083Y4912663D01*
X4170322Y4939000D01*
Y5054000D01*
X4165083Y5080337D01*
X4150164Y5102664D01*
X4127837Y5117583D01*
X4101500Y5122822D01*
D02*
G37*
G36*
X3847500D02*
X3772500D01*
X3746163Y5117583D01*
X3723836Y5102664D01*
X3708917Y5080337D01*
X3703678Y5054000D01*
Y4939000D01*
X3708917Y4912663D01*
X3723836Y4890336D01*
X3746163Y4875417D01*
X3772500Y4870178D01*
X3847500D01*
X3873837Y4875417D01*
X3896164Y4890336D01*
X3911083Y4912663D01*
X3916322Y4939000D01*
Y5054000D01*
X3911083Y5080337D01*
X3896164Y5102664D01*
X3873837Y5117583D01*
X3847500Y5122822D01*
D02*
G37*
G36*
X3593500D02*
X3518500D01*
X3492163Y5117583D01*
X3469836Y5102664D01*
X3454917Y5080337D01*
X3449678Y5054000D01*
Y4939000D01*
X3454917Y4912663D01*
X3469836Y4890336D01*
X3492163Y4875417D01*
X3518500Y4870178D01*
X3593500D01*
X3619837Y4875417D01*
X3642164Y4890336D01*
X3657083Y4912663D01*
X3662322Y4939000D01*
Y5054000D01*
X3657083Y5080337D01*
X3642164Y5102664D01*
X3619837Y5117583D01*
X3593500Y5122822D01*
D02*
G37*
G36*
X2577500D02*
X2502500D01*
X2476163Y5117583D01*
X2453836Y5102664D01*
X2438917Y5080337D01*
X2433678Y5054000D01*
Y4939000D01*
X2438917Y4912663D01*
X2453836Y4890336D01*
X2476163Y4875417D01*
X2502500Y4870178D01*
X2577500D01*
X2603837Y4875417D01*
X2626164Y4890336D01*
X2641083Y4912663D01*
X2646322Y4939000D01*
Y5054000D01*
X2641083Y5080337D01*
X2626164Y5102664D01*
X2603837Y5117583D01*
X2577500Y5122822D01*
D02*
G37*
G36*
X2323500D02*
X2248500D01*
X2222163Y5117583D01*
X2199836Y5102664D01*
X2184917Y5080337D01*
X2179678Y5054000D01*
Y4939000D01*
X2184917Y4912663D01*
X2199836Y4890336D01*
X2222163Y4875417D01*
X2248500Y4870178D01*
X2323500D01*
X2349837Y4875417D01*
X2372164Y4890336D01*
X2387083Y4912663D01*
X2392322Y4939000D01*
Y5054000D01*
X2387083Y5080337D01*
X2372164Y5102664D01*
X2349837Y5117583D01*
X2323500Y5122822D01*
D02*
G37*
G36*
X2143420Y4986500D02*
X2042000D01*
Y4865080D01*
X2069500D01*
X2097788Y4870707D01*
X2121769Y4886731D01*
X2137793Y4910712D01*
X2143420Y4939000D01*
Y4986500D01*
D02*
G37*
G36*
X2022000D02*
X1920580D01*
Y4939000D01*
X1926207Y4910712D01*
X1942231Y4886731D01*
X1966212Y4870707D01*
X1994500Y4865080D01*
X2022000D01*
Y4986500D01*
D02*
G37*
G36*
X7419448Y4747500D02*
X7400552D01*
X7383093Y4740268D01*
X7369732Y4726906D01*
X7362500Y4709448D01*
Y4690552D01*
X7369732Y4673094D01*
X7383093Y4659732D01*
X7400552Y4652500D01*
X7419448D01*
X7436906Y4659732D01*
X7450268Y4673094D01*
X7457500Y4690552D01*
Y4709448D01*
X7450268Y4726906D01*
X7436906Y4740268D01*
X7419448Y4747500D01*
D02*
G37*
G36*
X8189448Y4757500D02*
X8170552D01*
X8153093Y4750268D01*
X8139731Y4736906D01*
X8132500Y4719448D01*
Y4700552D01*
X8139731Y4683094D01*
X8148024Y4674800D01*
X8142417Y4669193D01*
X8135186Y4651735D01*
Y4632838D01*
X8142417Y4615380D01*
X8155779Y4602018D01*
X8173237Y4594787D01*
X8192134D01*
X8209592Y4602018D01*
X8222954Y4615380D01*
X8230185Y4632838D01*
Y4651735D01*
X8222954Y4669193D01*
X8214661Y4677486D01*
X8220268Y4683094D01*
X8227500Y4700552D01*
Y4719448D01*
X8220268Y4736906D01*
X8206906Y4750268D01*
X8189448Y4757500D01*
D02*
G37*
G36*
X5509311Y4679756D02*
X5490414D01*
X5472956Y4672524D01*
X5459594Y4659162D01*
X5452363Y4641704D01*
Y4622808D01*
X5459594Y4605349D01*
X5472956Y4591988D01*
X5490414Y4584756D01*
X5509311D01*
X5522575Y4590250D01*
X5523094Y4589731D01*
X5540552Y4582500D01*
X5559448D01*
X5576907Y4589731D01*
X5590268Y4603093D01*
X5597500Y4620552D01*
Y4639448D01*
X5590268Y4656906D01*
X5576907Y4670268D01*
X5559448Y4677500D01*
X5540552D01*
X5527288Y4672006D01*
X5526769Y4672524D01*
X5509311Y4679756D01*
D02*
G37*
G36*
X8344789Y4727795D02*
X8325892D01*
X8308434Y4720563D01*
X8295072Y4707201D01*
X8287841Y4689743D01*
Y4670847D01*
X8295072Y4653388D01*
X8297170Y4651291D01*
X8291621Y4637893D01*
Y4618997D01*
X8298852Y4601539D01*
X8312214Y4588177D01*
X8329672Y4580945D01*
X8348569D01*
X8366027Y4588177D01*
X8379389Y4601539D01*
X8386620Y4618997D01*
Y4637893D01*
X8379389Y4655352D01*
X8377291Y4657449D01*
X8382840Y4670847D01*
Y4689743D01*
X8375609Y4707201D01*
X8362247Y4720563D01*
X8344789Y4727795D01*
D02*
G37*
G36*
X5918439Y4674032D02*
X5899543D01*
X5882085Y4666801D01*
X5868723Y4653439D01*
X5861491Y4635981D01*
Y4617084D01*
X5868723Y4599626D01*
X5882085Y4586264D01*
X5899543Y4579032D01*
X5918439D01*
X5935897Y4586264D01*
X5938708Y4589074D01*
X5942147Y4585635D01*
X5959606Y4578404D01*
X5978502D01*
X5995960Y4585635D01*
X6009322Y4598997D01*
X6016554Y4616455D01*
Y4635352D01*
X6009322Y4652810D01*
X5995960Y4666172D01*
X5978502Y4673403D01*
X5959606D01*
X5942147Y4666172D01*
X5939337Y4663361D01*
X5935897Y4666801D01*
X5918439Y4674032D01*
D02*
G37*
G36*
X2947812Y4657319D02*
X2928916D01*
X2911457Y4650087D01*
X2898096Y4636726D01*
X2890864Y4619267D01*
Y4600371D01*
X2898096Y4582913D01*
X2911457Y4569551D01*
X2928916Y4562319D01*
X2947812D01*
X2965270Y4569551D01*
X2978632Y4582913D01*
X2985864Y4600371D01*
Y4619267D01*
X2978632Y4636726D01*
X2965270Y4650087D01*
X2947812Y4657319D01*
D02*
G37*
G36*
X3148924Y4671519D02*
X3130027D01*
X3112569Y4664288D01*
X3099207Y4650926D01*
X3091976Y4633467D01*
Y4614571D01*
X3095732Y4605503D01*
X3083093Y4600268D01*
X3069731Y4586906D01*
X3062500Y4569448D01*
Y4550552D01*
X3069731Y4533094D01*
X3083093Y4519732D01*
X3100552Y4512500D01*
X3119448D01*
X3136906Y4519732D01*
X3150268Y4533094D01*
X3157500Y4550552D01*
Y4569448D01*
X3153744Y4578516D01*
X3166382Y4583751D01*
X3179744Y4597113D01*
X3186975Y4614571D01*
Y4633467D01*
X3179744Y4650926D01*
X3166382Y4664288D01*
X3148924Y4671519D01*
D02*
G37*
G36*
X8204404Y4487137D02*
X8185507D01*
X8168049Y4479906D01*
X8154687Y4466544D01*
X8147456Y4449086D01*
Y4430189D01*
X8154687Y4412731D01*
X8167020Y4400398D01*
X8166419Y4398947D01*
Y4380051D01*
X8173650Y4362592D01*
X8187012Y4349231D01*
X8204470Y4341999D01*
X8223367D01*
X8240825Y4349231D01*
X8254187Y4362592D01*
X8261418Y4380051D01*
Y4398947D01*
X8254187Y4416405D01*
X8241854Y4428738D01*
X8242455Y4430189D01*
Y4449086D01*
X8235224Y4466544D01*
X8221862Y4479906D01*
X8204404Y4487137D01*
D02*
G37*
G36*
X8342521Y4489327D02*
X8323625D01*
X8306167Y4482096D01*
X8292805Y4468734D01*
X8285573Y4451276D01*
Y4432379D01*
X8292805Y4414921D01*
X8293020Y4414705D01*
X8286328Y4398549D01*
Y4379653D01*
X8293559Y4362195D01*
X8306921Y4348833D01*
X8324380Y4341601D01*
X8343276D01*
X8360734Y4348833D01*
X8374096Y4362195D01*
X8381328Y4379653D01*
Y4398549D01*
X8374096Y4416008D01*
X8373881Y4416223D01*
X8380573Y4432379D01*
Y4451276D01*
X8373341Y4468734D01*
X8359979Y4482096D01*
X8342521Y4489327D01*
D02*
G37*
G36*
X7299448Y4267500D02*
X7280552D01*
X7263093Y4260268D01*
X7249732Y4246906D01*
X7242500Y4229448D01*
Y4210552D01*
X7249732Y4193093D01*
X7263093Y4179732D01*
X7280552Y4172500D01*
X7299448D01*
X7316906Y4179732D01*
X7330268Y4193093D01*
X7337500Y4210552D01*
Y4229448D01*
X7330268Y4246906D01*
X7316906Y4260268D01*
X7299448Y4267500D01*
D02*
G37*
G36*
X7219448Y4177500D02*
X7200552D01*
X7183094Y4170269D01*
X7169732Y4156907D01*
X7162500Y4139448D01*
Y4120552D01*
X7169732Y4103094D01*
X7183094Y4089732D01*
X7200552Y4082500D01*
X7219448D01*
X7236907Y4089732D01*
X7250268Y4103094D01*
X7257500Y4120552D01*
Y4139448D01*
X7250268Y4156907D01*
X7236907Y4170269D01*
X7219448Y4177500D01*
D02*
G37*
G36*
X8234995Y4194771D02*
X8216098D01*
X8198640Y4187540D01*
X8185278Y4174178D01*
X8178047Y4156720D01*
Y4137823D01*
X8181738Y4128912D01*
X8169732Y4116906D01*
X8162500Y4099448D01*
Y4080552D01*
X8169732Y4063093D01*
X8173048Y4059776D01*
X8164955Y4051683D01*
X8157723Y4034225D01*
Y4015328D01*
X8163691Y4000921D01*
X8155741Y3992972D01*
X8148510Y3975514D01*
Y3956617D01*
X8155741Y3939159D01*
X8169103Y3925797D01*
X8186561Y3918566D01*
X8205458D01*
X8222916Y3925797D01*
X8236278Y3939159D01*
X8243510Y3956617D01*
Y3975514D01*
X8237542Y3989921D01*
X8245492Y3997870D01*
X8252723Y4015328D01*
Y4034225D01*
X8245492Y4051683D01*
X8242175Y4055000D01*
X8250268Y4063093D01*
X8257500Y4080552D01*
Y4099448D01*
X8253809Y4108359D01*
X8265815Y4120365D01*
X8273046Y4137823D01*
Y4156720D01*
X8265815Y4174178D01*
X8252453Y4187540D01*
X8234995Y4194771D01*
D02*
G37*
G36*
X8339448Y3767500D02*
X8320552D01*
X8303094Y3760268D01*
X8289732Y3746906D01*
X8282500Y3729448D01*
Y3710552D01*
X8289732Y3693093D01*
X8303094Y3679732D01*
X8320552Y3672500D01*
X8339448D01*
X8356907Y3679732D01*
X8370269Y3693093D01*
X8377500Y3710552D01*
Y3729448D01*
X8370269Y3746906D01*
X8356907Y3760268D01*
X8339448Y3767500D01*
D02*
G37*
G36*
X8199448D02*
X8180552D01*
X8163093Y3760268D01*
X8149731Y3746906D01*
X8142500Y3729448D01*
Y3710552D01*
X8149731Y3693093D01*
X8163093Y3679732D01*
X8180552Y3672500D01*
X8199448D01*
X8216906Y3679732D01*
X8230268Y3693093D01*
X8237500Y3710552D01*
Y3729448D01*
X8230268Y3746906D01*
X8216906Y3760268D01*
X8199448Y3767500D01*
D02*
G37*
G36*
X8348238Y3621066D02*
X8329342D01*
X8311884Y3613835D01*
X8304918Y3606869D01*
X8290079Y3600493D01*
X8272622Y3607724D01*
X8253725D01*
X8236267Y3600493D01*
X8222905Y3587131D01*
X8215673Y3569673D01*
Y3550776D01*
X8222905Y3533318D01*
X8227394Y3528829D01*
X8222478Y3523912D01*
X8215246Y3506454D01*
Y3499507D01*
X6688723D01*
X6673116Y3496402D01*
X6659885Y3487562D01*
X6659885Y3487561D01*
X6647145Y3474821D01*
X6635028D01*
X6631740Y3476184D01*
X6631580Y3476290D01*
X6631391Y3476328D01*
X6618814Y3481538D01*
X6599917D01*
X6582459Y3474306D01*
X6569097Y3460944D01*
X6561866Y3443486D01*
Y3424590D01*
X6569097Y3407131D01*
X6582459Y3393769D01*
X6599917Y3386538D01*
X6618814D01*
X6631391Y3391748D01*
X6631580Y3391785D01*
X6631740Y3391892D01*
X6635028Y3393254D01*
X6664037D01*
X6664038Y3393254D01*
X6679645Y3396359D01*
X6692876Y3405199D01*
X6705617Y3417940D01*
X6726826D01*
X6732500Y3409448D01*
Y3390552D01*
X6739732Y3373094D01*
X6753093Y3359732D01*
X6770552Y3352500D01*
X6789448D01*
X6806906Y3359732D01*
X6820268Y3373094D01*
X6824347Y3382940D01*
X7086501D01*
X7089485Y3367940D01*
X7083094Y3365292D01*
X7069732Y3351931D01*
X7062500Y3334472D01*
Y3315576D01*
X7069732Y3298118D01*
X7083094Y3284756D01*
X7100552Y3277524D01*
X7119448D01*
X7136906Y3284756D01*
X7150268Y3298118D01*
X7157500Y3315576D01*
Y3334472D01*
X7150268Y3351931D01*
X7136906Y3365292D01*
X7130515Y3367940D01*
X7133499Y3382940D01*
X8193383D01*
X8263520Y3312803D01*
X8257780Y3298945D01*
X8221750D01*
X8192974Y3293221D01*
X8168580Y3276921D01*
X8152279Y3252526D01*
X8146555Y3223750D01*
Y3195000D01*
X8263000D01*
Y3185000D01*
X8273000D01*
Y3071055D01*
X8304250D01*
X8324216Y3075027D01*
X8339216Y3064249D01*
Y3024492D01*
X8241209Y2926485D01*
X8228492Y2934981D01*
X8228730Y2935554D01*
Y2954451D01*
X8221498Y2971909D01*
X8208136Y2985271D01*
X8190678Y2992502D01*
X8178907D01*
X8170316Y2995429D01*
X8165049Y3005950D01*
Y3016120D01*
X8157817Y3033578D01*
X8144455Y3046940D01*
X8126997Y3054171D01*
X8108101D01*
X8090642Y3046940D01*
X8077281Y3033578D01*
X8070049Y3016120D01*
Y2997223D01*
X8077281Y2979765D01*
X8090642Y2966403D01*
X8108101Y2959172D01*
X8119514D01*
X8125727Y2944172D01*
X8108317Y2926761D01*
X8099477Y2913530D01*
X8096372Y2897923D01*
X8096372Y2897922D01*
Y2642704D01*
X8090770Y2637102D01*
X8083539Y2619644D01*
Y2600747D01*
X8090770Y2583289D01*
X8104132Y2569927D01*
X8121591Y2562696D01*
X8140487D01*
X8157945Y2569927D01*
X8167161Y2579143D01*
X8180698Y2579403D01*
X8185168Y2577553D01*
X8196630Y2566091D01*
X8214088Y2558859D01*
X8232985D01*
X8250443Y2566091D01*
X8263805Y2579453D01*
X8271037Y2596911D01*
Y2615807D01*
X8265827Y2628384D01*
X8265789Y2628573D01*
X8265682Y2628733D01*
X8264320Y2632022D01*
Y2780242D01*
X8445919Y2961841D01*
X8445920Y2961841D01*
X8454761Y2975072D01*
X8457865Y2990680D01*
Y3266414D01*
X8457865Y3266415D01*
X8454761Y3282022D01*
X8445920Y3295254D01*
X8445919Y3295254D01*
X8288787Y3452387D01*
X8289653Y3456738D01*
X8303014Y3470099D01*
X8305748Y3476700D01*
X8323442Y3480219D01*
X8323476Y3480185D01*
X8340934Y3472954D01*
X8359831D01*
X8377289Y3480185D01*
X8390651Y3493547D01*
X8397882Y3511005D01*
Y3529902D01*
X8390651Y3547360D01*
X8382659Y3555352D01*
X8386290Y3564118D01*
Y3583014D01*
X8379058Y3600473D01*
X8365697Y3613835D01*
X8348238Y3621066D01*
D02*
G37*
G36*
X3168890Y3954582D02*
X2327880D01*
X2308371Y3950702D01*
X2291832Y3939651D01*
X2205775Y3853593D01*
X2194724Y3837054D01*
X2190843Y3817545D01*
X2194724Y3798036D01*
X2205775Y3781497D01*
X2222314Y3770446D01*
X2241823Y3766566D01*
X2261332Y3770446D01*
X2277870Y3781497D01*
X2348996Y3852623D01*
X3119020D01*
Y3710000D01*
X3122901Y3690491D01*
X3133952Y3673952D01*
X3293952Y3513952D01*
X3310491Y3502901D01*
X3330000Y3499020D01*
X3977389D01*
X4053529Y3422880D01*
X4070068Y3411829D01*
X4089577Y3407948D01*
X4109086Y3411829D01*
X4125625Y3422880D01*
X4136676Y3439419D01*
X4140557Y3458928D01*
X4136676Y3478437D01*
X4125625Y3494976D01*
X4034553Y3586048D01*
X4018014Y3597099D01*
X3998505Y3600980D01*
X3351116D01*
X3220980Y3731116D01*
Y3902493D01*
X3217099Y3922002D01*
X3206048Y3938541D01*
X3204938Y3939651D01*
X3188399Y3950702D01*
X3168890Y3954582D01*
D02*
G37*
G36*
X2731524Y3311132D02*
X2712627D01*
X2695169Y3303900D01*
X2681807Y3290539D01*
X2674576Y3273080D01*
Y3254184D01*
X2681807Y3236726D01*
X2695169Y3223364D01*
X2712627Y3216132D01*
X2731524D01*
X2748982Y3223364D01*
X2762344Y3236726D01*
X2769575Y3254184D01*
Y3273080D01*
X2762344Y3290539D01*
X2748982Y3303900D01*
X2731524Y3311132D01*
D02*
G37*
G36*
X8253000Y3175000D02*
X8146555D01*
Y3146250D01*
X8152279Y3117474D01*
X8168580Y3093079D01*
X8192974Y3076779D01*
X8221750Y3071055D01*
X8253000D01*
Y3175000D01*
D02*
G37*
G36*
X2553016Y2967450D02*
X2534120D01*
X2516662Y2960218D01*
X2503300Y2946856D01*
X2496068Y2929398D01*
Y2910502D01*
X2503300Y2893043D01*
X2516662Y2879682D01*
X2534120Y2872450D01*
X2553016D01*
X2570475Y2879682D01*
X2583837Y2893043D01*
X2591068Y2910502D01*
Y2929398D01*
X2583837Y2946856D01*
X2570475Y2960218D01*
X2553016Y2967450D01*
D02*
G37*
G36*
X5536920Y2857500D02*
X5518024D01*
X5500565Y2850268D01*
X5487203Y2836906D01*
X5479972Y2819448D01*
Y2800552D01*
X5487203Y2783093D01*
X5500565Y2769732D01*
X5518024Y2762500D01*
X5536920D01*
X5554378Y2769732D01*
X5567740Y2783093D01*
X5574972Y2800552D01*
Y2819448D01*
X5567740Y2836906D01*
X5554378Y2850268D01*
X5536920Y2857500D01*
D02*
G37*
G36*
X7859226Y2679325D02*
X7840329D01*
X7822871Y2672093D01*
X7809509Y2658732D01*
X7802278Y2641273D01*
Y2622377D01*
X7809509Y2604919D01*
X7822871Y2591557D01*
X7840329Y2584325D01*
X7859226D01*
X7876684Y2591557D01*
X7890046Y2604919D01*
X7897277Y2622377D01*
Y2641273D01*
X7890046Y2658732D01*
X7876684Y2672093D01*
X7859226Y2679325D01*
D02*
G37*
G36*
X2393782Y2562839D02*
X2369913D01*
X2347860Y2553705D01*
X2330982Y2536826D01*
X2321848Y2514774D01*
Y2490904D01*
X2330982Y2468852D01*
X2347860Y2451974D01*
X2369913Y2442839D01*
X2393782D01*
X2415835Y2451974D01*
X2432713Y2468852D01*
X2441848Y2490904D01*
Y2514774D01*
X2432713Y2536826D01*
X2415835Y2553705D01*
X2393782Y2562839D01*
D02*
G37*
G36*
X8154250Y2388945D02*
X8123000D01*
Y2285000D01*
X8229444D01*
Y2313750D01*
X8223720Y2342526D01*
X8207420Y2366921D01*
X8183025Y2383221D01*
X8154250Y2388945D01*
D02*
G37*
G36*
X8079448Y2497499D02*
X8060552D01*
X8043094Y2490268D01*
X8029732Y2476906D01*
X8022500Y2459448D01*
Y2440551D01*
X8029732Y2423093D01*
X8043094Y2409731D01*
X8060552Y2402500D01*
X8063009D01*
X8064487Y2387500D01*
X8042974Y2383221D01*
X8018579Y2366921D01*
X8002279Y2342526D01*
X7996555Y2313750D01*
Y2285000D01*
X8103000D01*
Y2388945D01*
X8085920D01*
X8082937Y2403945D01*
X8096907Y2409731D01*
X8110269Y2423093D01*
X8117500Y2440551D01*
Y2459448D01*
X8110269Y2476906D01*
X8096907Y2490268D01*
X8079448Y2497499D01*
D02*
G37*
G36*
X3959448Y2297500D02*
X3940552D01*
X3923093Y2290268D01*
X3909732Y2276907D01*
X3902500Y2259448D01*
Y2240552D01*
X3909732Y2223094D01*
X3923093Y2209732D01*
X3940552Y2202500D01*
X3959448D01*
X3976906Y2209732D01*
X3990268Y2223094D01*
X3997500Y2240552D01*
Y2259448D01*
X3990268Y2276907D01*
X3976906Y2290268D01*
X3959448Y2297500D01*
D02*
G37*
G36*
X6012194Y2257500D02*
X5993297D01*
X5975839Y2250269D01*
X5962477Y2236907D01*
X5955246Y2219449D01*
Y2200552D01*
X5962477Y2183094D01*
X5975839Y2169732D01*
X5993297Y2162501D01*
X6012194D01*
X6029652Y2169732D01*
X6043014Y2183094D01*
X6050245Y2200552D01*
Y2219449D01*
X6043014Y2236907D01*
X6029652Y2250269D01*
X6012194Y2257500D01*
D02*
G37*
G36*
X8229444Y2265000D02*
X8123000D01*
Y2161055D01*
X8154250D01*
X8183025Y2166779D01*
X8207420Y2183079D01*
X8223720Y2207474D01*
X8229444Y2236250D01*
Y2265000D01*
D02*
G37*
G36*
X3463308Y2216870D02*
X3444411D01*
X3426953Y2209639D01*
X3413591Y2196277D01*
X3406360Y2178819D01*
Y2159922D01*
X3413591Y2142464D01*
X3426953Y2129102D01*
X3444411Y2121871D01*
X3463308D01*
X3480766Y2129102D01*
X3494128Y2142464D01*
X3501359Y2159922D01*
Y2178819D01*
X3494128Y2196277D01*
X3480766Y2209639D01*
X3463308Y2216870D01*
D02*
G37*
G36*
X5607381Y2239287D02*
X5588484D01*
X5571026Y2232056D01*
X5557664Y2218694D01*
X5550433Y2201236D01*
Y2182339D01*
X5557664Y2164881D01*
X5568376Y2154169D01*
X5567920Y2151874D01*
X5554558Y2138512D01*
X5547327Y2121054D01*
Y2102157D01*
X5554558Y2084699D01*
X5567920Y2071337D01*
X5585378Y2064106D01*
X5604275D01*
X5621733Y2071337D01*
X5635095Y2084699D01*
X5642326Y2102157D01*
Y2121054D01*
X5635095Y2138512D01*
X5624383Y2149224D01*
X5624839Y2151519D01*
X5638201Y2164881D01*
X5645432Y2182339D01*
Y2201236D01*
X5638201Y2218694D01*
X5624839Y2232056D01*
X5607381Y2239287D01*
D02*
G37*
G36*
X2619727Y2085434D02*
X2600830D01*
X2583372Y2078203D01*
X2570010Y2064841D01*
X2562779Y2047382D01*
Y2028486D01*
X2570010Y2011028D01*
X2583372Y1997666D01*
X2600830Y1990434D01*
X2619727D01*
X2637185Y1997666D01*
X2650547Y2011028D01*
X2657778Y2028486D01*
Y2047382D01*
X2650547Y2064841D01*
X2637185Y2078203D01*
X2619727Y2085434D01*
D02*
G37*
G36*
X5840744Y1914704D02*
X5821848D01*
X5804389Y1907472D01*
X5791028Y1894110D01*
X5783796Y1876652D01*
Y1857755D01*
X5791028Y1840297D01*
X5804389Y1826935D01*
X5821848Y1819704D01*
X5840744D01*
X5858202Y1826935D01*
X5871564Y1840297D01*
X5878796Y1857755D01*
Y1876652D01*
X5871564Y1894110D01*
X5858202Y1907472D01*
X5840744Y1914704D01*
D02*
G37*
G36*
X5629448Y2047500D02*
X5610552D01*
X5593093Y2040268D01*
X5579732Y2026907D01*
X5572500Y2009448D01*
Y2005127D01*
X5439332Y1871959D01*
X5430491Y1858728D01*
X5427387Y1843121D01*
X5427387Y1843120D01*
Y1825035D01*
X5414915Y1816702D01*
X5410936Y1818350D01*
X5392040D01*
X5374581Y1811119D01*
X5361219Y1797757D01*
X5353988Y1780298D01*
Y1761402D01*
X5361219Y1743944D01*
X5374581Y1730582D01*
X5392040Y1723350D01*
X5410936D01*
X5414915Y1724999D01*
X5427387Y1716665D01*
Y1604464D01*
X5426025Y1601176D01*
X5425918Y1601016D01*
X5425880Y1600827D01*
X5420671Y1588250D01*
Y1569353D01*
X5427902Y1551895D01*
X5441264Y1538533D01*
X5458722Y1531302D01*
X5477619D01*
X5495077Y1538533D01*
X5508439Y1551895D01*
X5515670Y1569353D01*
Y1588250D01*
X5510461Y1600827D01*
X5510423Y1601016D01*
X5510316Y1601176D01*
X5508954Y1604464D01*
Y1826227D01*
X5637587Y1954861D01*
X5638163Y1955401D01*
X5639737Y1956723D01*
X5639892Y1956826D01*
X5640891Y1957206D01*
X5640956Y1957267D01*
X5646906Y1959732D01*
X5660268Y1973094D01*
X5667500Y1990552D01*
Y2009448D01*
X5660268Y2026907D01*
X5646906Y2040268D01*
X5629448Y2047500D01*
D02*
G37*
G36*
X1969448Y1864891D02*
X1950551D01*
X1933093Y1857660D01*
X1919731Y1844298D01*
X1912500Y1826840D01*
Y1807943D01*
X1919731Y1790485D01*
X1933093Y1777123D01*
X1950551Y1769892D01*
X1969448D01*
X1986906Y1777123D01*
X2000268Y1790485D01*
X2007499Y1807943D01*
Y1826840D01*
X2000268Y1844298D01*
X1986906Y1857660D01*
X1969448Y1864891D01*
D02*
G37*
G36*
X6012194Y1838409D02*
X5993297D01*
X5975839Y1831177D01*
X5962477Y1817816D01*
X5955246Y1800357D01*
Y1781461D01*
X5962477Y1764003D01*
X5975839Y1750641D01*
X5993297Y1743409D01*
X6012194D01*
X6029652Y1750641D01*
X6043014Y1764003D01*
X6050245Y1781461D01*
Y1800357D01*
X6043014Y1817816D01*
X6029652Y1831177D01*
X6012194Y1838409D01*
D02*
G37*
G36*
X5609170Y1815595D02*
X5590274D01*
X5572816Y1808364D01*
X5559454Y1795002D01*
X5552222Y1777544D01*
Y1758647D01*
X5559454Y1741189D01*
X5561286Y1739356D01*
X5551821Y1729891D01*
X5544590Y1712433D01*
Y1693536D01*
X5551821Y1676078D01*
X5565183Y1662716D01*
X5582641Y1655485D01*
X5601538D01*
X5618996Y1662716D01*
X5632358Y1676078D01*
X5639589Y1693536D01*
Y1712433D01*
X5632358Y1729891D01*
X5630525Y1731724D01*
X5639990Y1741189D01*
X5647222Y1758647D01*
Y1777544D01*
X5639990Y1795002D01*
X5626629Y1808364D01*
X5609170Y1815595D01*
D02*
G37*
G36*
X6309448Y1657500D02*
X6290552D01*
X6273094Y1650268D01*
X6259732Y1636907D01*
X6252500Y1619448D01*
Y1600552D01*
X6259732Y1583094D01*
X6273094Y1569732D01*
X6290552Y1562500D01*
X6309448D01*
X6326907Y1569732D01*
X6340268Y1583094D01*
X6347500Y1600552D01*
Y1619448D01*
X6340268Y1636907D01*
X6326907Y1650268D01*
X6309448Y1657500D01*
D02*
G37*
G36*
X1881548Y1522274D02*
X1862652D01*
X1845194Y1515043D01*
X1831832Y1501681D01*
X1824600Y1484223D01*
Y1465326D01*
X1831832Y1447868D01*
X1845194Y1434506D01*
X1862652Y1427275D01*
X1881548D01*
X1899007Y1434506D01*
X1912369Y1447868D01*
X1919600Y1465326D01*
Y1484223D01*
X1912369Y1501681D01*
X1899007Y1515043D01*
X1881548Y1522274D01*
D02*
G37*
G36*
X3339448Y1517500D02*
X3320552D01*
X3303093Y1510269D01*
X3289732Y1496907D01*
X3282500Y1479448D01*
Y1460552D01*
X3289732Y1443094D01*
X3303093Y1429732D01*
X3320552Y1422500D01*
X3339448D01*
X3356906Y1429732D01*
X3370268Y1443094D01*
X3377500Y1460552D01*
Y1479448D01*
X3370268Y1496907D01*
X3356906Y1510269D01*
X3339448Y1517500D01*
D02*
G37*
G36*
X2136528Y1230554D02*
X2117632D01*
X2100173Y1223322D01*
X2086811Y1209960D01*
X2079580Y1192502D01*
Y1173605D01*
X2086811Y1156147D01*
X2100173Y1142785D01*
X2117632Y1135554D01*
X2136528D01*
X2153986Y1142785D01*
X2167348Y1156147D01*
X2174580Y1173605D01*
Y1192502D01*
X2167348Y1209960D01*
X2153986Y1223322D01*
X2136528Y1230554D01*
D02*
G37*
G36*
X3479448Y1097500D02*
X3460552D01*
X3443093Y1090268D01*
X3430607Y1077782D01*
X3420395Y1070963D01*
X3416906Y1070268D01*
X3399448Y1077500D01*
X3380552D01*
X3363094Y1070268D01*
X3349732Y1056906D01*
X3342500Y1039448D01*
Y1020552D01*
X3349732Y1003093D01*
X3363094Y989732D01*
X3365854Y988588D01*
X3369374Y970894D01*
X3243494Y845015D01*
X3233433Y840847D01*
X3220071Y827485D01*
X3212840Y810027D01*
Y791130D01*
X3220071Y773672D01*
X3233433Y760310D01*
X3250891Y753079D01*
X3269788D01*
X3287246Y760310D01*
X3300608Y773672D01*
X3304775Y783734D01*
X3500401Y979359D01*
X3509795Y993417D01*
X3513093Y1010000D01*
Y1029913D01*
X3517500Y1040552D01*
Y1059448D01*
X3510268Y1076906D01*
X3496906Y1090268D01*
X3479448Y1097500D01*
D02*
G37*
G36*
X3269145Y1163423D02*
X3250248D01*
X3232790Y1156192D01*
X3219428Y1142830D01*
X3212197Y1125372D01*
Y1106475D01*
X3219428Y1089017D01*
X3232790Y1075655D01*
X3250248Y1068424D01*
X3269145D01*
X3286603Y1075655D01*
X3299965Y1089017D01*
X3307196Y1106475D01*
Y1125372D01*
X3299965Y1142830D01*
X3286603Y1156192D01*
X3269145Y1163423D01*
D02*
G37*
G36*
X1966231Y1068969D02*
X1947334D01*
X1929876Y1061738D01*
X1916514Y1048376D01*
X1909283Y1030917D01*
Y1012021D01*
X1916514Y994563D01*
X1929876Y981201D01*
X1947334Y973969D01*
X1966231D01*
X1983689Y981201D01*
X1997051Y994563D01*
X2004282Y1012021D01*
Y1030917D01*
X1997051Y1048376D01*
X1983689Y1061738D01*
X1966231Y1068969D01*
D02*
G37*
G36*
X3027129Y1048805D02*
X3008232D01*
X2990774Y1041574D01*
X2977412Y1028212D01*
X2970181Y1010754D01*
Y991857D01*
X2977412Y974399D01*
X2990774Y961037D01*
X3008232Y953806D01*
X3027129D01*
X3044587Y961037D01*
X3057949Y974399D01*
X3065181Y991857D01*
Y1010754D01*
X3057949Y1028212D01*
X3044587Y1041574D01*
X3027129Y1048805D01*
D02*
G37*
G36*
X3392500Y2600980D02*
X3372991Y2597099D01*
X3356452Y2586048D01*
X3253952Y2483548D01*
X3242901Y2467009D01*
X3239020Y2447500D01*
Y2201116D01*
X2423952Y1386048D01*
X2412901Y1369509D01*
X2409020Y1350000D01*
Y991547D01*
X2327359Y909886D01*
X2305582Y900866D01*
X2288704Y883987D01*
X2279569Y861935D01*
Y838065D01*
X2288704Y816013D01*
X2305582Y799135D01*
X2327635Y790000D01*
X2351504D01*
X2373557Y799135D01*
X2390435Y816013D01*
X2399455Y837790D01*
X2489976Y928310D01*
X2501949Y920992D01*
X2502932Y920053D01*
Y901495D01*
X2510163Y884037D01*
X2523525Y870675D01*
X2540983Y863444D01*
X2559880D01*
X2577338Y870675D01*
X2590700Y884037D01*
X2597931Y901495D01*
Y920392D01*
X2590700Y937850D01*
X2577338Y951212D01*
X2559880Y958443D01*
X2540983D01*
X2523525Y951212D01*
X2522184Y949871D01*
X2508360Y957260D01*
X2510979Y970431D01*
Y1328884D01*
X3326048Y2143952D01*
X3337099Y2160491D01*
X3340980Y2180000D01*
Y2426384D01*
X3428548Y2513952D01*
X3439599Y2530491D01*
X3443480Y2550000D01*
X3439599Y2569509D01*
X3428548Y2586048D01*
X3412009Y2597099D01*
X3392500Y2600980D01*
D02*
G37*
G36*
X3940900Y880073D02*
X3922004D01*
X3904546Y872842D01*
X3891184Y859480D01*
X3883952Y842021D01*
Y823125D01*
X3891184Y805667D01*
X3904546Y792305D01*
X3922004Y785073D01*
X3940900D01*
X3958359Y792305D01*
X3971721Y805667D01*
X3978952Y823125D01*
Y842021D01*
X3971721Y859480D01*
X3958359Y872842D01*
X3940900Y880073D01*
D02*
G37*
G36*
X3208295Y988888D02*
X3189398D01*
X3171940Y981656D01*
X3158578Y968294D01*
X3154411Y958233D01*
X3017359Y821181D01*
X3007966Y807124D01*
X3004668Y790541D01*
Y590828D01*
X3004624Y589653D01*
X2984163Y585583D01*
X2961836Y570664D01*
X2946917Y548337D01*
X2941678Y522000D01*
Y407000D01*
X2946917Y380663D01*
X2961836Y358336D01*
X2984163Y343417D01*
X3010500Y338178D01*
X3085500D01*
X3111837Y343417D01*
X3134164Y358336D01*
X3149083Y380663D01*
X3154322Y407000D01*
Y522000D01*
X3149083Y548337D01*
X3134164Y570664D01*
X3111837Y585583D01*
X3091332Y589662D01*
Y718249D01*
X3106332Y721233D01*
X3108663Y715606D01*
X3122025Y702244D01*
X3139483Y695012D01*
X3158380D01*
X3175838Y702244D01*
X3189200Y715606D01*
X3196432Y733064D01*
Y751960D01*
X3189200Y769419D01*
X3175838Y782781D01*
X3158380Y790012D01*
X3139483D01*
X3122026Y782781D01*
X3112628Y793888D01*
X3215692Y896952D01*
X3225753Y901119D01*
X3239115Y914481D01*
X3246347Y931939D01*
Y950836D01*
X3239115Y968294D01*
X3225753Y981656D01*
X3208295Y988888D01*
D02*
G37*
G36*
X3352761Y766230D02*
X3333864D01*
X3316406Y758999D01*
X3303044Y745637D01*
X3295813Y728179D01*
Y709282D01*
X3303044Y691824D01*
X3316406Y678462D01*
X3333864Y671231D01*
X3352761D01*
X3370219Y678462D01*
X3383581Y691824D01*
X3390812Y709282D01*
Y728179D01*
X3383581Y745637D01*
X3370219Y758999D01*
X3352761Y766230D01*
D02*
G37*
G36*
X1550000Y835000D02*
X1410000D01*
X1340000Y765000D01*
Y625000D01*
X1410000Y555000D01*
X1550000D01*
X1620000Y625000D01*
Y765000D01*
X1550000Y835000D01*
D02*
G37*
G36*
X7859448Y577500D02*
X7840552D01*
X7823094Y570268D01*
X7809732Y556906D01*
X7802500Y539448D01*
Y520552D01*
X7809732Y503093D01*
X7823094Y489732D01*
X7840552Y482500D01*
X7859448D01*
X7876907Y489732D01*
X7890268Y503093D01*
X7897500Y520552D01*
Y539448D01*
X7890268Y556906D01*
X7876907Y570268D01*
X7859448Y577500D01*
D02*
G37*
G36*
X7403500Y595920D02*
X7376000D01*
Y474500D01*
X7477420D01*
Y522000D01*
X7471793Y550288D01*
X7455769Y574269D01*
X7431788Y590293D01*
X7403500Y595920D01*
D02*
G37*
G36*
X7356000D02*
X7328500D01*
X7300212Y590293D01*
X7276231Y574269D01*
X7260207Y550288D01*
X7254580Y522000D01*
Y474500D01*
X7356000D01*
Y595920D01*
D02*
G37*
G36*
X2069500D02*
X2042000D01*
Y474500D01*
X2143420D01*
Y522000D01*
X2137793Y550288D01*
X2121769Y574269D01*
X2097788Y590293D01*
X2069500Y595920D01*
D02*
G37*
G36*
X2022000D02*
X1994500D01*
X1966212Y590293D01*
X1942231Y574269D01*
X1926207Y550288D01*
X1920580Y522000D01*
Y474500D01*
X2022000D01*
Y595920D01*
D02*
G37*
G36*
X8304250Y568945D02*
X8273000D01*
Y465000D01*
X8379445D01*
Y493750D01*
X8373721Y522526D01*
X8357420Y546921D01*
X8333025Y563221D01*
X8304250Y568945D01*
D02*
G37*
G36*
X8253000D02*
X8221750D01*
X8192974Y563221D01*
X8168580Y546921D01*
X8152279Y522526D01*
X8146555Y493750D01*
Y465000D01*
X8253000D01*
Y568945D01*
D02*
G37*
G36*
X1535000Y491763D02*
X1490000D01*
Y355000D01*
X1626763D01*
Y400000D01*
X1619778Y435116D01*
X1599887Y464887D01*
X1570116Y484778D01*
X1535000Y491763D01*
D02*
G37*
G36*
X1470000D02*
X1425000D01*
X1389884Y484778D01*
X1360114Y464887D01*
X1340222Y435116D01*
X1333237Y400000D01*
Y355000D01*
X1470000D01*
Y491763D01*
D02*
G37*
G36*
X8379445Y445000D02*
X8273000D01*
Y341055D01*
X8304250D01*
X8333025Y346779D01*
X8357420Y363080D01*
X8373721Y387474D01*
X8379445Y416250D01*
Y445000D01*
D02*
G37*
G36*
X8253000D02*
X8146555D01*
Y416250D01*
X8152279Y387474D01*
X8168580Y363080D01*
X8192974Y346779D01*
X8221750Y341055D01*
X8253000D01*
Y445000D01*
D02*
G37*
G36*
X4101500Y590822D02*
X4026500D01*
X4000163Y585583D01*
X3977836Y570664D01*
X3962917Y548337D01*
X3957678Y522000D01*
Y407000D01*
X3962917Y380663D01*
X3977836Y358336D01*
X4000163Y343417D01*
X4026500Y338178D01*
X4101500D01*
X4127837Y343417D01*
X4150164Y358336D01*
X4165083Y380663D01*
X4170322Y407000D01*
Y522000D01*
X4165083Y548337D01*
X4150164Y570664D01*
X4127837Y585583D01*
X4101500Y590822D01*
D02*
G37*
G36*
X3593500D02*
X3518500D01*
X3492163Y585583D01*
X3469836Y570664D01*
X3454917Y548337D01*
X3449678Y522000D01*
Y407000D01*
X3454917Y380663D01*
X3469836Y358336D01*
X3492163Y343417D01*
X3518500Y338178D01*
X3593500D01*
X3619837Y343417D01*
X3642164Y358336D01*
X3657083Y380663D01*
X3662322Y407000D01*
Y522000D01*
X3657083Y548337D01*
X3642164Y570664D01*
X3619837Y585583D01*
X3593500Y590822D01*
D02*
G37*
G36*
X3339500D02*
X3264500D01*
X3238163Y585583D01*
X3215836Y570664D01*
X3200917Y548337D01*
X3195678Y522000D01*
Y407000D01*
X3200917Y380663D01*
X3215836Y358336D01*
X3238163Y343417D01*
X3264500Y338178D01*
X3339500D01*
X3365837Y343417D01*
X3388164Y358336D01*
X3403083Y380663D01*
X3408322Y407000D01*
Y522000D01*
X3403083Y548337D01*
X3388164Y570664D01*
X3365837Y585583D01*
X3339500Y590822D01*
D02*
G37*
G36*
X2831500D02*
X2756500D01*
X2730163Y585583D01*
X2707836Y570664D01*
X2692917Y548337D01*
X2687678Y522000D01*
Y407000D01*
X2692917Y380663D01*
X2707836Y358336D01*
X2730163Y343417D01*
X2756500Y338178D01*
X2831500D01*
X2857837Y343417D01*
X2880164Y358336D01*
X2895083Y380663D01*
X2900322Y407000D01*
Y522000D01*
X2895083Y548337D01*
X2880164Y570664D01*
X2857837Y585583D01*
X2831500Y590822D01*
D02*
G37*
G36*
X2577500D02*
X2502500D01*
X2476163Y585583D01*
X2453836Y570664D01*
X2438917Y548337D01*
X2433678Y522000D01*
Y407000D01*
X2438917Y380663D01*
X2453836Y358336D01*
X2476163Y343417D01*
X2502500Y338178D01*
X2577500D01*
X2603837Y343417D01*
X2626164Y358336D01*
X2641083Y380663D01*
X2646322Y407000D01*
Y522000D01*
X2641083Y548337D01*
X2626164Y570664D01*
X2603837Y585583D01*
X2577500Y590822D01*
D02*
G37*
G36*
X2323500D02*
X2248500D01*
X2222163Y585583D01*
X2199836Y570664D01*
X2184917Y548337D01*
X2179678Y522000D01*
Y407000D01*
X2184917Y380663D01*
X2199836Y358336D01*
X2222163Y343417D01*
X2248500Y338178D01*
X2323500D01*
X2349837Y343417D01*
X2372164Y358336D01*
X2387083Y380663D01*
X2392322Y407000D01*
Y522000D01*
X2387083Y548337D01*
X2372164Y570664D01*
X2349837Y585583D01*
X2323500Y590822D01*
D02*
G37*
G36*
X7731420Y454500D02*
X7630000D01*
Y392697D01*
X7692030D01*
X7685944Y380483D01*
X7680499Y367809D01*
X7675695Y354676D01*
X7671531Y341083D01*
X7670307Y335627D01*
X7685788Y338707D01*
X7709769Y354731D01*
X7725793Y378712D01*
X7731420Y407000D01*
Y454500D01*
D02*
G37*
G36*
X7610000D02*
X7508580D01*
Y407000D01*
X7514207Y378712D01*
X7530231Y354731D01*
X7554212Y338707D01*
X7569693Y335627D01*
X7568469Y341083D01*
X7564305Y354676D01*
X7559501Y367809D01*
X7554056Y380483D01*
X7547970Y392697D01*
X7610000D01*
Y454500D01*
D02*
G37*
G36*
X7477420D02*
X7376000D01*
Y392697D01*
X7438030D01*
X7431944Y380483D01*
X7426499Y367809D01*
X7421695Y354676D01*
X7417531Y341083D01*
X7416307Y335627D01*
X7431788Y338707D01*
X7455769Y354731D01*
X7471793Y378712D01*
X7477420Y407000D01*
Y454500D01*
D02*
G37*
G36*
X7356000D02*
X7254580D01*
Y407000D01*
X7260207Y378712D01*
X7276231Y354731D01*
X7300212Y338707D01*
X7315693Y335627D01*
X7314469Y341083D01*
X7310305Y354676D01*
X7305501Y367809D01*
X7300056Y380483D01*
X7293970Y392697D01*
X7356000D01*
Y454500D01*
D02*
G37*
G36*
X2143420D02*
X2042000D01*
Y333080D01*
X2069500D01*
X2097788Y338707D01*
X2121769Y354731D01*
X2137793Y378712D01*
X2143420Y407000D01*
Y454500D01*
D02*
G37*
G36*
X2022000D02*
X1920580D01*
Y407000D01*
X1926207Y378712D01*
X1942231Y354731D01*
X1966212Y338707D01*
X1994500Y333080D01*
X2022000D01*
Y454500D01*
D02*
G37*
G36*
X1626763Y335000D02*
X1490000D01*
Y198237D01*
X1535000D01*
X1570116Y205222D01*
X1599887Y225114D01*
X1619778Y254884D01*
X1626763Y290000D01*
Y335000D01*
D02*
G37*
G36*
X1470000D02*
X1333237D01*
Y290000D01*
X1340222Y254884D01*
X1360114Y225114D01*
X1389884Y205222D01*
X1425000Y198237D01*
X1470000D01*
Y335000D01*
D02*
G37*
G36*
X7670307Y299373D02*
X7671531Y293917D01*
X7675695Y280324D01*
X7680499Y267191D01*
X7685944Y254517D01*
X7692030Y242303D01*
X7630000D01*
Y180500D01*
X7731420D01*
Y228000D01*
X7725793Y256288D01*
X7709769Y280269D01*
X7685788Y296293D01*
X7670307Y299373D01*
D02*
G37*
G36*
X7569693D02*
X7554212Y296293D01*
X7530231Y280269D01*
X7514207Y256288D01*
X7508580Y228000D01*
Y180500D01*
X7610000D01*
Y242303D01*
X7547970D01*
X7554056Y254517D01*
X7559501Y267191D01*
X7564305Y280324D01*
X7568469Y293917D01*
X7569693Y299373D01*
D02*
G37*
G36*
X7416307D02*
X7417531Y293917D01*
X7421695Y280324D01*
X7426499Y267191D01*
X7431944Y254517D01*
X7438030Y242303D01*
X7376000D01*
Y180500D01*
X7477420D01*
Y228000D01*
X7471793Y256288D01*
X7455769Y280269D01*
X7431788Y296293D01*
X7416307Y299373D01*
D02*
G37*
G36*
X7315693D02*
X7300212Y296293D01*
X7276231Y280269D01*
X7260207Y256288D01*
X7254580Y228000D01*
Y180500D01*
X7356000D01*
Y242303D01*
X7293970D01*
X7300056Y254517D01*
X7305501Y267191D01*
X7310305Y280324D01*
X7314469Y293917D01*
X7315693Y299373D01*
D02*
G37*
G36*
X2069500Y301920D02*
X2042000D01*
Y180500D01*
X2143420D01*
Y228000D01*
X2137793Y256288D01*
X2121769Y280269D01*
X2097788Y296293D01*
X2069500Y301920D01*
D02*
G37*
G36*
X2022000D02*
X1994500D01*
X1966212Y296293D01*
X1942231Y280269D01*
X1926207Y256288D01*
X1920580Y228000D01*
Y180500D01*
X2022000D01*
Y301920D01*
D02*
G37*
%LPD*%
G36*
X6620975Y3447273D02*
X6622150Y3446594D01*
X6623399Y3445995D01*
X6624723Y3445475D01*
X6626121Y3445036D01*
X6627594Y3444677D01*
X6629140Y3444397D01*
X6630761Y3444198D01*
X6634227Y3444038D01*
Y3424038D01*
X6632457Y3423998D01*
X6629140Y3423678D01*
X6627594Y3423399D01*
X6626121Y3423039D01*
X6624723Y3422600D01*
X6623399Y3422081D01*
X6622150Y3421482D01*
X6620975Y3420803D01*
X6619874Y3420044D01*
Y3448031D01*
X6620975Y3447273D01*
D02*
G37*
G36*
X6804651Y3410509D02*
X6803427Y3409229D01*
X6801308Y3406658D01*
X6800412Y3405367D01*
X6799625Y3404071D01*
X6798947Y3402772D01*
X6798378Y3401469D01*
X6797918Y3400162D01*
X6797568Y3398851D01*
X6797326Y3397536D01*
X6777536Y3417326D01*
X6778851Y3417568D01*
X6780161Y3417918D01*
X6781469Y3418378D01*
X6782772Y3418947D01*
X6784071Y3419625D01*
X6785366Y3420412D01*
X6786658Y3421308D01*
X6787945Y3422313D01*
X6790508Y3424651D01*
X6804651Y3410509D01*
D02*
G37*
G36*
X8185003Y2927914D02*
X8184030Y2927646D01*
X8183016Y2927264D01*
X8181962Y2926767D01*
X8180868Y2926156D01*
X8179733Y2925430D01*
X8177343Y2923634D01*
X8176088Y2922564D01*
X8173456Y2920081D01*
X8157186Y2932095D01*
X8158405Y2933382D01*
X8159499Y2934677D01*
X8160467Y2935981D01*
X8161310Y2937294D01*
X8162027Y2938615D01*
X8162619Y2939945D01*
X8163086Y2941285D01*
X8163427Y2942633D01*
X8163643Y2943990D01*
X8163733Y2945355D01*
X8185003Y2927914D01*
D02*
G37*
G36*
X8211290Y2824747D02*
X8209116Y2822550D01*
X8200486Y2812808D01*
X8199783Y2811758D01*
X8199290Y2810871D01*
X8199007Y2810148D01*
X8183278Y2832287D01*
X8184639Y2832267D01*
X8185993Y2832385D01*
X8187338Y2832641D01*
X8188677Y2833035D01*
X8190009Y2833567D01*
X8191332Y2834236D01*
X8192648Y2835044D01*
X8193957Y2835989D01*
X8195258Y2837073D01*
X8196552Y2838294D01*
X8211290Y2824747D01*
D02*
G37*
G36*
X8233577Y2629451D02*
X8233896Y2626134D01*
X8234176Y2624587D01*
X8234535Y2623115D01*
X8234974Y2621717D01*
X8235494Y2620393D01*
X8236092Y2619144D01*
X8236771Y2617968D01*
X8237530Y2616868D01*
X8209543D01*
X8210302Y2617968D01*
X8210981Y2619144D01*
X8211580Y2620393D01*
X8212099Y2621717D01*
X8212538Y2623115D01*
X8212898Y2624587D01*
X8213177Y2626134D01*
X8213377Y2627755D01*
X8213537Y2631220D01*
X8233537D01*
X8233577Y2629451D01*
D02*
G37*
G36*
X5624661Y1983132D02*
X5623934Y1982849D01*
X5623044Y1982356D01*
X5621991Y1981653D01*
X5620774Y1980741D01*
X5617854Y1978288D01*
X5612251Y1973035D01*
X5610057Y1970866D01*
X5596520Y1985613D01*
X5597741Y1986906D01*
X5598825Y1988208D01*
X5599770Y1989516D01*
X5600579Y1990833D01*
X5601249Y1992156D01*
X5601782Y1993488D01*
X5602177Y1994827D01*
X5602434Y1996173D01*
X5602553Y1997527D01*
X5602535Y1998888D01*
X5624661Y1983132D01*
D02*
G37*
G36*
X5478210Y1601893D02*
X5478530Y1598576D01*
X5478809Y1597030D01*
X5479169Y1595557D01*
X5479608Y1594159D01*
X5480127Y1592835D01*
X5480726Y1591586D01*
X5481405Y1590411D01*
X5482164Y1589310D01*
X5454177D01*
X5454936Y1590411D01*
X5455615Y1591586D01*
X5456214Y1592835D01*
X5456733Y1594159D01*
X5457172Y1595557D01*
X5457531Y1597030D01*
X5457811Y1598576D01*
X5458011Y1600197D01*
X5458170Y1603663D01*
X5478170D01*
X5478210Y1601893D01*
D02*
G37*
G36*
X3483855Y1039310D02*
X3483552Y1038815D01*
X3483281Y1038156D01*
X3483042Y1037335D01*
X3482835Y1036350D01*
X3482659Y1035202D01*
X3482404Y1032416D01*
X3482276Y1028977D01*
X3482261Y1027013D01*
X3457261Y1027502D01*
X3457247Y1029475D01*
X3456777Y1036799D01*
X3456602Y1037756D01*
X3456401Y1038544D01*
X3456172Y1039162D01*
X3455917Y1039611D01*
X3483855Y1039310D01*
D02*
G37*
G36*
X3285263Y807825D02*
X3283882Y806423D01*
X3279049Y800850D01*
X3278496Y800023D01*
X3278081Y799291D01*
X3277804Y798655D01*
X3277665Y798114D01*
X3257875Y817905D01*
X3258416Y818044D01*
X3259052Y818320D01*
X3259783Y818735D01*
X3260611Y819288D01*
X3261534Y819979D01*
X3263668Y821775D01*
X3267586Y825503D01*
X3285263Y807825D01*
D02*
G37*
G36*
X2382251Y864397D02*
X2379953Y862043D01*
X2374393Y855636D01*
X2372983Y853719D01*
X2371796Y851912D01*
X2370832Y850214D01*
X2370089Y848625D01*
X2369569Y847146D01*
X2369271Y845776D01*
X2335345Y879701D01*
X2336715Y880000D01*
X2338194Y880520D01*
X2339783Y881262D01*
X2341481Y882227D01*
X2343289Y883414D01*
X2345206Y884823D01*
X2349367Y888308D01*
X2353967Y892681D01*
X2382251Y864397D01*
D02*
G37*
G36*
X3201311Y924062D02*
X3200771Y923923D01*
X3200135Y923646D01*
X3199403Y923231D01*
X3198575Y922678D01*
X3197652Y921987D01*
X3195519Y920192D01*
X3191601Y916464D01*
X3173923Y934142D01*
X3175304Y935543D01*
X3180137Y941116D01*
X3180690Y941944D01*
X3181105Y942676D01*
X3181382Y943312D01*
X3181521Y943852D01*
X3201311Y924062D01*
D02*
G37*
G36*
X3060625Y589747D02*
X3061625Y577722D01*
X3062500Y572826D01*
X3063625Y568674D01*
X3065000Y565265D01*
X3066625Y562601D01*
X3068500Y560680D01*
X3070625Y559503D01*
X3073000Y559070D01*
X3023000D01*
X3025375Y559503D01*
X3027500Y560680D01*
X3029375Y562601D01*
X3031000Y565265D01*
X3032375Y568674D01*
X3033500Y572826D01*
X3034375Y577722D01*
X3035000Y583363D01*
X3035500Y596875D01*
X3060500D01*
X3060625Y589747D01*
D02*
G37*
%LPC*%
G36*
X6759449Y2897500D02*
X6740552D01*
X6723094Y2890269D01*
X6709732Y2876907D01*
X6702500Y2859448D01*
Y2840552D01*
X6709732Y2823094D01*
X6723094Y2809732D01*
X6740552Y2802500D01*
X6759449D01*
X6776907Y2809732D01*
X6790269Y2823094D01*
X6797500Y2840552D01*
Y2859448D01*
X6790269Y2876907D01*
X6776907Y2890269D01*
X6759449Y2897500D01*
D02*
G37*
G36*
X6499448Y2597500D02*
X6480552D01*
X6463093Y2590268D01*
X6449732Y2576906D01*
X6442500Y2559448D01*
Y2540552D01*
X6449732Y2523094D01*
X6463093Y2509732D01*
X6480552Y2502500D01*
X6499448D01*
X6516906Y2509732D01*
X6530268Y2523094D01*
X6537500Y2540552D01*
Y2559448D01*
X6530268Y2576906D01*
X6516906Y2590268D01*
X6499448Y2597500D01*
D02*
G37*
G36*
X6979449Y2260713D02*
X6960552D01*
X6943094Y2253481D01*
X6929732Y2240119D01*
X6922501Y2222661D01*
Y2203764D01*
X6929732Y2186306D01*
X6943094Y2172944D01*
X6960552Y2165713D01*
X6979449D01*
X6996907Y2172944D01*
X7010269Y2186306D01*
X7017500Y2203764D01*
Y2222661D01*
X7010269Y2240119D01*
X6996907Y2253481D01*
X6979449Y2260713D01*
D02*
G37*
G36*
X7149448Y2177500D02*
X7130552D01*
X7113094Y2170268D01*
X7099732Y2156907D01*
X7092500Y2139448D01*
Y2120552D01*
X7099732Y2103094D01*
X7113094Y2089732D01*
X7130552Y2082500D01*
X7149448D01*
X7166907Y2089732D01*
X7180269Y2103094D01*
X7187500Y2120552D01*
Y2139448D01*
X7180269Y2156907D01*
X7166907Y2170268D01*
X7149448Y2177500D01*
D02*
G37*
G36*
X4789448Y1427500D02*
X4770552D01*
X4753094Y1420268D01*
X4739732Y1406907D01*
X4732500Y1389448D01*
Y1370552D01*
X4739732Y1353094D01*
X4753094Y1339732D01*
X4770552Y1332500D01*
X4789448D01*
X4806907Y1339732D01*
X4820268Y1353094D01*
X4827500Y1370552D01*
Y1389448D01*
X4820268Y1406907D01*
X4806907Y1420268D01*
X4789448Y1427500D01*
D02*
G37*
G36*
X7161806Y1554568D02*
X7142909D01*
X7125451Y1547337D01*
X7112089Y1533975D01*
X7104858Y1516517D01*
Y1497620D01*
X7112089Y1480162D01*
X7125451Y1466800D01*
X7142909Y1459569D01*
X7161806D01*
X7179264Y1466800D01*
X7192626Y1480162D01*
X7199857Y1497620D01*
Y1516517D01*
X7192626Y1533975D01*
X7179264Y1547337D01*
X7161806Y1554568D01*
D02*
G37*
G36*
X7156948Y1203986D02*
X7138052D01*
X7120594Y1196754D01*
X7107232Y1183392D01*
X7100000Y1165934D01*
Y1147038D01*
X7107232Y1129579D01*
X7120594Y1116217D01*
X7138052Y1108986D01*
X7156948D01*
X7174407Y1116217D01*
X7187768Y1129579D01*
X7195000Y1147038D01*
Y1165934D01*
X7187768Y1183392D01*
X7174407Y1196754D01*
X7156948Y1203986D01*
D02*
G37*
G36*
X6852884Y1105233D02*
X6833988D01*
X6816530Y1098002D01*
X6803168Y1084640D01*
X6795936Y1067182D01*
Y1048285D01*
X6803168Y1030827D01*
X6816530Y1017465D01*
X6833988Y1010234D01*
X6852884D01*
X6870343Y1017465D01*
X6883705Y1030827D01*
X6890936Y1048285D01*
Y1067182D01*
X6883705Y1084640D01*
X6870343Y1098002D01*
X6852884Y1105233D01*
D02*
G37*
G36*
X6677541Y875879D02*
X6658645D01*
X6641186Y868648D01*
X6627824Y855286D01*
X6620593Y837828D01*
Y818931D01*
X6627824Y801473D01*
X6641186Y788111D01*
X6658645Y780880D01*
X6677541D01*
X6694999Y788111D01*
X6708361Y801473D01*
X6715593Y818931D01*
Y837828D01*
X6708361Y855286D01*
X6694999Y868648D01*
X6677541Y875879D01*
D02*
G37*
G36*
X5863775Y983173D02*
X5844879D01*
X5827420Y975941D01*
X5814058Y962579D01*
X5806827Y945121D01*
Y926225D01*
X5814058Y908767D01*
X5827420Y895405D01*
X5835089Y892228D01*
X5833618Y876602D01*
X5820429Y871139D01*
X5807067Y857777D01*
X5799836Y840319D01*
Y821422D01*
X5807067Y803964D01*
X5820429Y790602D01*
X5837887Y783371D01*
X5856784D01*
X5868257Y788123D01*
X5868289Y788045D01*
X5881651Y774683D01*
X5899109Y767452D01*
X5918005D01*
X5935464Y774683D01*
X5948826Y788045D01*
X5956057Y805503D01*
Y824400D01*
X5948826Y841858D01*
X5935464Y855220D01*
X5918005Y862451D01*
X5899109D01*
X5887636Y857699D01*
X5887604Y857777D01*
X5874242Y871139D01*
X5866574Y874315D01*
X5868045Y889942D01*
X5881233Y895405D01*
X5894595Y908767D01*
X5901827Y926225D01*
Y945121D01*
X5894595Y962579D01*
X5881233Y975941D01*
X5863775Y983173D01*
D02*
G37*
G36*
X6133500Y595920D02*
X6106000D01*
Y474500D01*
X6207420D01*
Y522000D01*
X6201793Y550288D01*
X6185769Y574269D01*
X6161788Y590293D01*
X6133500Y595920D01*
D02*
G37*
G36*
X6086000D02*
X6058500D01*
X6030212Y590293D01*
X6006231Y574269D01*
X5990207Y550288D01*
X5984580Y522000D01*
Y474500D01*
X6086000D01*
Y595920D01*
D02*
G37*
%LPD*%
D70*
X3290000Y2447500D02*
X3392500Y2550000D01*
X3290000Y2180000D02*
Y2447500D01*
X2460000Y1350000D02*
X3290000Y2180000D01*
X2460000Y970431D02*
Y1350000D01*
X2339569Y850000D02*
X2460000Y970431D01*
X3330000Y3550000D02*
X3998505D01*
X4089577Y3458928D01*
X3170000Y3710000D02*
X3330000Y3550000D01*
X3170000Y3710000D02*
Y3902493D01*
X3168890Y3903603D02*
X3170000Y3902493D01*
X2241823Y3817545D02*
X2327880Y3903603D01*
X3168890D01*
X6542372Y1275559D02*
X6583078D01*
X6388884Y1122070D02*
X6542372Y1275559D01*
X6372070Y1122070D02*
X6388884D01*
X6609454Y1334824D02*
X6615000Y1340370D01*
X6609454Y1301935D02*
Y1334824D01*
X6583078Y1275559D02*
X6609454Y1301935D01*
X6783139Y3918457D02*
X6831596Y3870000D01*
X6549211Y3918457D02*
X6783139D01*
X6368216Y1118216D02*
X6372070Y1122070D01*
X6540754Y3910000D02*
X6549211Y3918457D01*
X6397507Y3910000D02*
X6540754D01*
X6357981Y3949526D02*
X6397507Y3910000D01*
D71*
X8194724Y2822324D02*
X8380000Y3007599D01*
X8223537Y2797135D02*
X8417081Y2990680D01*
X8380000Y3007599D02*
Y3254000D01*
X8417081Y2990680D02*
Y3266415D01*
X4709536Y1859961D02*
Y2907273D01*
X4610000Y1860503D02*
Y2986182D01*
Y1860503D02*
X5055000Y1415502D01*
X4760000Y1870001D02*
Y2926644D01*
X4570000Y1850000D02*
Y2960000D01*
X4760000Y1870001D02*
X5160000Y1470000D01*
X4660000Y1860000D02*
Y3004175D01*
Y1860000D02*
X5090000Y1430000D01*
X4570000Y1850000D02*
X5020000Y1400000D01*
X4709536Y1859961D02*
X5125000Y1444497D01*
X5020000Y910000D02*
Y1400000D01*
X5055000Y945886D02*
Y1415502D01*
X4184047Y1515953D02*
X4220000Y1480000D01*
X4080000Y3050000D02*
X4184047Y2945953D01*
Y1515953D02*
Y2945953D01*
X5278195Y293682D02*
X7008818D01*
X5206270Y365608D02*
Y543730D01*
Y365608D02*
X5278195Y293682D01*
X5140000Y610000D02*
X5206270Y543730D01*
X4952933Y367067D02*
X5000300Y319700D01*
X5185514D02*
X5259127Y246087D01*
X5000300Y319700D02*
X5185514D01*
X4770000Y750000D02*
X4952933Y567067D01*
Y367067D02*
Y567067D01*
X4322425Y727575D02*
X4442007Y607993D01*
Y381759D02*
Y607993D01*
Y381759D02*
X4507267Y316500D01*
X4655189D01*
X4783176Y233324D02*
X4826000Y190500D01*
X4738365Y233324D02*
X4783176D01*
X4655189Y316500D02*
X4738365Y233324D01*
X5263530Y246087D02*
X5319117Y190500D01*
X5259127Y246087D02*
X5263530D01*
X5319117Y190500D02*
X5334000D01*
X8244887Y654887D02*
X8340000Y750000D01*
X7675112Y654887D02*
X8244887D01*
X7594317Y735683D02*
X7675112Y654887D01*
X8218023Y691451D02*
X8279247Y752676D01*
X7596578Y782919D02*
X7688046Y691451D01*
X8218023D01*
X6160000Y4590000D02*
X6297226D01*
X6398170Y4489057D01*
X5301123Y4748670D02*
X6899487D01*
X5196676Y4644222D02*
X5301123Y4748670D01*
X7086330Y4783670D02*
X7148389Y4721611D01*
X6899487Y4748670D02*
X7168157Y4480000D01*
X5286626Y4783670D02*
X7086330D01*
X5182179Y4679222D02*
X5286626Y4783670D01*
X7168157Y4480000D02*
X7200000D01*
X7000828Y4424574D02*
X7035770Y4389633D01*
X7000828Y4424574D02*
Y4589172D01*
X6920000Y4670000D02*
X7000828Y4589172D01*
X5911524Y4430000D02*
X6611425D01*
X4731593Y4827160D02*
X5091125D01*
X4731207Y4827546D02*
X4731593Y4827160D01*
X5091125D02*
X5091511Y4826774D01*
X5140000Y4750000D02*
X5240000Y4850000D01*
X4390000D02*
X4490000Y4750000D01*
X5140000D01*
X3840000Y4770000D02*
X4390000D01*
X4445778Y4714222D02*
X5167681D01*
X4390000Y4770000D02*
X4445778Y4714222D01*
X4230000Y1540000D02*
Y2960000D01*
X4042000Y3148000D02*
X4230000Y2960000D01*
X5612500Y1987450D02*
Y1988441D01*
X5468170Y1843121D02*
X5612500Y1987450D01*
X5468170Y1578802D02*
Y1843121D01*
X5612500Y1988441D02*
X5620000Y1995941D01*
Y2000000D01*
X3900000Y3148000D02*
X4042000D01*
X3798000Y3050000D02*
X4080000D01*
X3700000Y3148000D02*
X3798000Y3050000D01*
X3900347Y1212274D02*
X3947726D01*
X4322425Y837575D01*
X3997486Y968782D02*
X4027486D01*
X3835270Y1130998D02*
X3997486Y968782D01*
X3835270Y1130998D02*
Y1182957D01*
X4027486Y968782D02*
X4032145Y964122D01*
X4055878D01*
X4175870Y844130D01*
Y718223D02*
Y844130D01*
X4322425Y727575D02*
Y837575D01*
X3888415Y1142955D02*
X3943416D01*
X3885916Y1140456D02*
X3888415Y1142955D01*
X3943416D02*
X4279925Y806446D01*
Y716551D02*
Y806446D01*
X6817487Y1300000D02*
X6944728D01*
X6427151Y909664D02*
X6817487Y1300000D01*
X6363452Y909664D02*
X6427151D01*
X6828999Y1260000D02*
X6954225D01*
X6343119Y774120D02*
X6828999Y1260000D01*
X6343119Y744003D02*
Y774120D01*
X7614807Y1279313D02*
X7659301D01*
X7776962Y1161652D02*
X8234923D01*
X7659301Y1279313D02*
X7776962Y1161652D01*
X7442489Y1223123D02*
X7558617D01*
X7614807Y1279313D01*
X8224773Y3458723D02*
X8417081Y3266415D01*
X8223537Y2606359D02*
Y2797135D01*
X8186202Y2814823D02*
X8193702Y2822324D01*
X8182143Y2814823D02*
X8186202D01*
X8193702Y2822324D02*
X8194724D01*
X6622087Y3721972D02*
X7031972D01*
X7110000Y3800000D02*
X7210000D01*
X7031972Y3721972D02*
X7110000Y3800000D01*
X6614059Y3730000D02*
X6622087Y3721972D01*
X6610000Y3730000D02*
X6614059D01*
X7596973Y3686973D02*
X7650325Y3740325D01*
X6653327Y3653251D02*
X6687049Y3686973D01*
X7596973D01*
X7650325Y3740325D02*
X7651751D01*
X6594271Y3653251D02*
X6653327D01*
X7534392Y735683D02*
X7594317D01*
X7532020Y733311D02*
X7534392Y735683D01*
X7035583Y927468D02*
X8177496D01*
X7011857Y962468D02*
X8152392D01*
X8234923Y1161652D02*
X8340000Y1056575D01*
X8216742Y1124635D02*
X8300000Y1041377D01*
X7503649Y1124635D02*
X8216742D01*
X7458943Y1079929D02*
X7503649Y1124635D01*
X6944728Y1300000D02*
X6994041Y1349313D01*
X6954225Y1260000D02*
X7008538Y1314313D01*
X8127880D01*
X8181013Y1261180D01*
X6994041Y1349313D02*
X8150369D01*
X8187076Y1312606D01*
X8191135D01*
X7790000Y2190000D02*
X8150337Y1829663D01*
X7610000Y2190000D02*
X7790000D01*
X7555000Y2245000D02*
X7610000Y2190000D01*
X7570000Y2280000D02*
X7620000Y2230000D01*
X7799497D02*
X8164834Y1864663D01*
X7620000Y2230000D02*
X7799497D01*
X7406219Y2245000D02*
X7555000D01*
X7386767Y2280000D02*
X7570000D01*
X7311158Y2204391D02*
X7386767Y2280000D01*
X7272500Y2204391D02*
X7311158D01*
X7350000Y2132265D02*
Y2188781D01*
X7406219Y2245000D01*
X7272500Y2054765D02*
X7350000Y2132265D01*
X6347604Y2177500D02*
X6350104Y2180000D01*
X6312396Y2177500D02*
X6347604D01*
X6309896Y2180000D02*
X6312396Y2177500D01*
X6362844Y2308303D02*
X6363823D01*
X6360281Y2310866D02*
X6362844Y2308303D01*
X6295084Y2180000D02*
X6309896D01*
X6350104D02*
X6420560D01*
X6313210Y2308303D02*
X6322510D01*
X6325073Y2310866D01*
X6360281D01*
X6281821Y2276914D02*
X6313210Y2308303D01*
X6151221Y2276914D02*
X6281821D01*
X6435000Y2220000D02*
Y2237126D01*
X6363823Y2308303D02*
X6435000Y2237126D01*
X6377294Y1912706D02*
X6445000Y1845000D01*
X6194609Y1912706D02*
X6377294D01*
X6147726Y1865823D02*
X6194609Y1912706D01*
X6445000Y1845000D02*
X7599605D01*
X6150811Y1714006D02*
X6200571Y1763766D01*
X6584771D02*
X6631006Y1810000D01*
X6200571Y1763766D02*
X6584771D01*
X6780000Y3400000D02*
X6803723Y3423723D01*
X8210276D01*
X8380000Y3254000D01*
X6688723Y3458723D02*
X8224773D01*
X6664038Y3434038D02*
X6688723Y3458723D01*
X6609365Y3434038D02*
X6664038D01*
X6940000Y2790000D02*
Y2947500D01*
X8137156Y2897923D02*
X8181230Y2941997D01*
Y2945002D01*
X8137156Y2626919D02*
Y2897923D01*
X8131039Y2610196D02*
X8133909Y2613066D01*
Y2623672D01*
X8137156Y2626919D01*
X8164834Y1864663D02*
X8270432D01*
X8150337Y1829663D02*
X8301046D01*
X8179378Y1910622D02*
X8250991D01*
X7751023Y2338978D02*
X8179378Y1910622D01*
X7458978Y2338978D02*
X7751023D01*
X7780000Y2380000D02*
X8199651Y1960350D01*
X7348906Y2511094D02*
X7480000Y2380000D01*
X7780000D01*
X8199651Y1960350D02*
X8274077D01*
X7614102Y1880000D02*
X7834102Y1660000D01*
X7872769Y1472841D02*
X8190960D01*
X7835107Y1560000D02*
X8249122D01*
X6740000Y1915000D02*
X7628599D01*
X7826317Y1717282D02*
X8188231D01*
X7834102Y1660000D02*
X8190000D01*
X7844604Y1600000D02*
X8216673D01*
X6645503Y1775000D02*
X7570610D01*
X6631006Y1810000D02*
X7585107D01*
X7599605Y1845000D02*
X7844604Y1600000D01*
X7628599Y1915000D02*
X7826317Y1717282D01*
X6720560Y1880000D02*
X7614102D01*
X7570610Y1775000D02*
X7872769Y1472841D01*
X7585107Y1810000D02*
X7835107Y1560000D01*
X6670000Y1740000D02*
X7550000D01*
X7870000Y1420000D02*
X8190000D01*
X7550000Y1740000D02*
X7870000Y1420000D01*
X8301046Y1829663D02*
X8340906Y1869523D01*
X8270432Y1864663D02*
X8343944Y1938175D01*
X5733320Y700000D02*
X6749389D01*
X5718823Y665000D02*
X6773115D01*
X5417714Y966109D02*
X5718823Y665000D01*
X6773115D02*
X7035583Y927468D01*
X5352319Y1081001D02*
X5733320Y700000D01*
X6749389D02*
X7011857Y962468D01*
X6682471Y2585249D02*
X6735249D01*
X6940000Y2790000D01*
X6366733Y1224342D02*
X6407392Y1265001D01*
X7348906Y2511094D02*
Y2598341D01*
X7470000Y830000D02*
X7517081Y782919D01*
X7596578D01*
X8177496Y927468D02*
X8254941Y1004912D01*
X8152392Y962468D02*
X8190097Y1000173D01*
X8184093Y842346D02*
X8186743Y839696D01*
X4770000Y1186394D02*
X4823740Y1240134D01*
X4770000Y750000D02*
Y1186394D01*
X4822417Y757583D02*
X4970000Y610000D01*
X4822417Y757583D02*
Y1140418D01*
X5294387Y966075D02*
X5294421Y966109D01*
X5417714D01*
X5320000Y1130000D02*
X5352319Y1097681D01*
Y1081001D02*
Y1097681D01*
X5344904Y780000D02*
X5412500D01*
X5329904Y795000D02*
X5344904Y780000D01*
X5328441Y795000D02*
X5329904D01*
X5125000Y998441D02*
Y1444497D01*
X5160000Y1012939D02*
Y1470000D01*
X5342939Y830000D02*
X5430000D01*
X5160000Y1012939D02*
X5342939Y830000D01*
X5125000Y998441D02*
X5328441Y795000D01*
X5090000Y976799D02*
X5307534Y759266D01*
Y757266D02*
Y759266D01*
X5090000Y976799D02*
Y1430000D01*
X6435000Y2220000D02*
X6740000Y1915000D01*
X6240000Y2124915D02*
X6295084Y2180000D01*
X6420560D02*
X6720560Y1880000D01*
X6407392Y1265001D02*
Y1327392D01*
X6146343Y2124915D02*
X6240000D01*
X4942500Y4007500D02*
Y4007604D01*
X4917500Y4032500D02*
X4917604D01*
X4942500Y4007500D02*
X4999571Y3950429D01*
X4770000Y4180000D02*
X4917500Y4032500D01*
X4917604D02*
X4942500Y4007604D01*
X4999571Y3840468D02*
Y3950429D01*
X4610000Y4180000D02*
X4770000D01*
X4516261Y3013739D02*
X4570000Y2960000D01*
X4516261Y3013739D02*
Y3603739D01*
X4558761Y3037421D02*
X4610000Y2986182D01*
X4430000Y3690000D02*
X4516261Y3603739D01*
X4551410Y3116824D02*
Y3653042D01*
X4562262Y3101914D02*
Y3105973D01*
X4510801Y3693651D02*
X4551410Y3653042D01*
X4586410Y3143590D02*
Y3689999D01*
Y3143590D02*
X4713598Y3016402D01*
X4551410Y3116824D02*
X4562262Y3105973D01*
Y3101914D02*
X4660000Y3004175D01*
X4510639Y3765770D02*
X4586410Y3689999D01*
X5450000Y400000D02*
Y550000D01*
X5305340Y593468D02*
X5406532D01*
X5450000Y550000D01*
Y400000D02*
X5510000Y340000D01*
X7007500D01*
X7112000Y444500D01*
X7008818Y293682D02*
X7112000Y190500D01*
X5273930Y624879D02*
X5305340Y593468D01*
X4713598Y2973046D02*
X4760000Y2926644D01*
X4510801Y3693651D02*
Y3693668D01*
X4713598Y2973046D02*
Y3016402D01*
X7333121Y4373121D02*
X7540000Y4580000D01*
X7179667Y4373121D02*
X7333121D01*
X6530000Y4670000D02*
X6920000D01*
X6611425Y4430000D02*
X6666251Y4375174D01*
Y4363313D02*
Y4375174D01*
Y4363313D02*
X6692653Y4336911D01*
X6739564Y4290000D01*
X7096546D01*
X7179667Y4373121D01*
X7176797Y4375991D02*
X7179667Y4373121D01*
X7047500Y4490000D02*
X7161509Y4375991D01*
X7176797D01*
X6490000Y4390000D02*
X6740000Y4140000D01*
X5870000Y4390000D02*
X6490000D01*
X5750000Y4510000D02*
X5870000Y4390000D01*
X7272500Y2525455D02*
X7458978Y2338978D01*
X7272500Y2674747D02*
X7348906Y2598341D01*
X4194222Y4644222D02*
X5196676D01*
X5293459Y4840000D02*
X6680000D01*
X5167681Y4714222D02*
X5293459Y4840000D01*
X4159222Y4679222D02*
X5182179D01*
X4010000Y4530000D02*
X4159222Y4679222D01*
X4120000Y4570000D02*
X4194222Y4644222D01*
X7148389Y4721611D02*
X7210790D01*
X3620000Y4550000D02*
X3840000Y4770000D01*
X5080000Y5270500D02*
X5210500Y5140000D01*
X5670000D01*
X5713689Y5096311D01*
Y4890134D02*
Y5096311D01*
X4970000Y610000D02*
X5140000D01*
X8216673Y1600000D02*
X8338507Y1721834D01*
X8249122Y1560000D02*
X8335876Y1646753D01*
X5430000Y830000D02*
X5480000Y780000D01*
X5020000Y910000D02*
X5100000Y830000D01*
X5480000Y780000D02*
X5522500D01*
X5055000Y945886D02*
X5178937Y821950D01*
X6500000Y1420000D02*
Y1570000D01*
X6407392Y1327392D02*
X6500000Y1420000D01*
X6405467Y1375467D02*
X6465000Y1435000D01*
Y1594497D01*
X6369784Y1375467D02*
X6405467D01*
X6500000Y1570000D02*
X6670000Y1740000D01*
X6465000Y1594497D02*
X6645503Y1775000D01*
X8181013Y1261180D02*
X8185072D01*
X8217022Y792978D02*
X8257710D01*
X8340000Y875268D01*
X8189613Y820387D02*
X8217022Y792978D01*
X8237078Y837239D02*
X8239604D01*
X8300000Y897635D01*
X8340000Y875268D02*
Y1056575D01*
X8300000Y897635D02*
Y1041377D01*
X8189613Y820387D02*
Y836826D01*
X8186743Y839696D02*
X8189613Y836826D01*
D72*
X5586719Y3738184D02*
X5972225D01*
X5543187Y3694652D02*
X5586719Y3738184D01*
X4445400Y1565400D02*
Y2387047D01*
X4259383Y1379383D02*
X4445400Y1565400D01*
X4444547Y2387900D02*
Y3326366D01*
Y2387900D02*
X4445400Y2387047D01*
X3839383Y1379383D02*
X4259383D01*
X3783332Y1323332D02*
X3839383Y1379383D01*
X3783332Y471168D02*
Y1323332D01*
Y471168D02*
X3810000Y444500D01*
X5530000Y3820000D02*
X6363432D01*
X5310000Y3600000D02*
X5530000Y3820000D01*
X5170000Y3600000D02*
X5310000D01*
X5500000Y3870000D02*
X6370000D01*
X5393140Y3952361D02*
X5417639D01*
X5500000Y3870000D01*
X5391499Y3954002D02*
X5393140Y3952361D01*
X5726388Y4563109D02*
X5778415D01*
X5911524Y4430000D01*
X3703269Y4410000D02*
X5573279D01*
X5726388Y4563109D01*
X4444097Y3326817D02*
X4444547Y3326366D01*
X6400000Y3840000D02*
X6590000D01*
X6661325Y3768675D01*
X6370000Y3870000D02*
X6400000Y3840000D01*
X6661325Y3768675D02*
X6945811D01*
X3260339Y800579D02*
X3469761Y1010000D01*
Y1049761D01*
X3470000Y1050000D01*
X3048000Y444500D02*
Y790541D01*
X3198847Y941388D01*
X6089273Y1402302D02*
X6147698D01*
X6260000Y1290000D01*
X6090000Y990000D02*
X6157379D01*
X6260000Y887379D01*
X6363432Y3820000D02*
X6410932Y3772500D01*
X6545530D01*
X3490000Y4196731D02*
X3703269Y4410000D01*
X3490000Y4100000D02*
Y4196731D01*
X3090749Y4830749D02*
X3191318Y4931318D01*
Y5159818D02*
X3302000Y5270500D01*
X3191318Y4931318D02*
Y5159818D01*
X2821915Y4830749D02*
X3090749D01*
X3100000Y4780000D02*
X3302000Y4982000D01*
Y5016500D01*
X2769281Y4780000D02*
X3100000D01*
X2721526Y4827756D02*
X2769281Y4780000D01*
D73*
X4510000Y1709475D02*
X4599494Y1619981D01*
X4510000Y1709475D02*
Y2670000D01*
X6981659Y2501659D02*
Y2564787D01*
X6838303Y2358303D02*
X6981659Y2501659D01*
X6383554Y2358303D02*
X6838303D01*
X6670000Y3020000D02*
X7320000D01*
X7650000Y2445000D02*
Y2690000D01*
X7320000Y3020000D02*
X7650000Y2690000D01*
X6610000Y4160000D02*
X6720000Y4050000D01*
X5320000Y4160000D02*
X6610000D01*
X6720000Y4050000D02*
X6847858D01*
X5160000Y2480000D02*
X5270000Y2590000D01*
X5160000Y1700000D02*
Y2480000D01*
X5246126Y2465041D02*
X5281085Y2500000D01*
X6150000D01*
X5270000Y2590000D02*
X6148076D01*
X6648076Y3090000D01*
X5401082Y2210489D02*
X5620593Y2430000D01*
X5662337Y3306269D02*
X6036693Y2931913D01*
X5225655Y3306269D02*
X5662337D01*
X4505440Y4026484D02*
X5225655Y3306269D01*
X5200000Y3240000D02*
X5636683D01*
X4478516Y3961484D02*
X5200000Y3240000D01*
X5636683D02*
X5740000Y3136683D01*
X6036693Y2931913D02*
X6058086D01*
X6060000Y2930000D01*
X5740000Y3030000D02*
Y3136683D01*
X6705711Y3634924D02*
X7208666D01*
X7208707Y3634883D01*
X6304362Y2360866D02*
X6380991D01*
X6383554Y2358303D01*
X6301799D02*
X6304362Y2360866D01*
X5946926Y2358303D02*
X6301799D01*
X5825260Y2236637D02*
X5946926Y2358303D01*
X6661015Y2430000D02*
X6797500Y2566485D01*
X5620593Y2430000D02*
X6661015D01*
X6150000Y2500000D02*
X6670000Y3020000D01*
X7880000Y3090000D02*
X8050000Y3260000D01*
X6648076Y3090000D02*
X7880000D01*
X5825260Y2235833D02*
Y2236637D01*
X6342174Y1118216D02*
X6343320Y1117070D01*
X6368216D01*
X5611931Y1118216D02*
X6342174D01*
X5603879Y1110165D02*
X5611931Y1118216D01*
X4039563Y4047198D02*
X4480969D01*
X4501683Y4026484D02*
X4505440D01*
X4480969Y4047198D02*
X4501683Y4026484D01*
X4039453Y3961484D02*
X4478516D01*
X5740000Y3030000D02*
X5789822Y2980178D01*
Y2913968D02*
Y2980178D01*
X5495072Y3540833D02*
X5601233Y3646994D01*
X6358297D01*
X5120000Y3960000D02*
X5320000Y4160000D01*
X5080000Y3960000D02*
X5120000D01*
X6847858Y4050000D02*
X6921096Y3976761D01*
D74*
X5245030Y1398108D02*
X6083725D01*
X6087919Y1402302D02*
X6089273D01*
X6083725Y1398108D02*
X6087919Y1402302D01*
D77*
X7366000Y190500D02*
Y444500D01*
X7620000Y190500D02*
Y444500D01*
X2032000Y5016500D02*
Y5270500D01*
D86*
X8263000Y455000D02*
D03*
X8113000Y2275000D02*
D03*
Y5005000D02*
D03*
X8263000Y3185000D02*
D03*
D90*
X1480000Y345000D02*
D03*
D91*
Y695000D02*
D03*
D92*
X2380667Y1287523D02*
D03*
X8569185Y2737375D02*
D03*
X8552500Y2559739D02*
D03*
X5639965Y4382866D02*
D03*
X5439190Y3644282D02*
D03*
X5543187Y3694652D02*
D03*
X6570000Y1380000D02*
D03*
X6909461Y1373397D02*
D03*
X4599494Y1619981D02*
D03*
X4510000Y2670000D02*
D03*
X2350000Y3210000D02*
D03*
X8336372Y684779D02*
D03*
X3950000Y2250000D02*
D03*
X3795090Y2117655D02*
D03*
X4008448Y1334383D02*
D03*
X4109413Y1779007D02*
D03*
X5091511Y4826774D02*
D03*
X4731207Y4827546D02*
D03*
X5969054Y4625903D02*
D03*
X6583957Y1223066D02*
D03*
X3440000Y3630000D02*
D03*
X3000000Y2200000D02*
D03*
Y2430000D02*
D03*
X2410000Y1930000D02*
D03*
Y1700000D02*
D03*
X3554238Y1637718D02*
D03*
X6981659Y2564787D02*
D03*
X6574714Y923815D02*
D03*
X5584281Y2736198D02*
D03*
X5246126Y2465041D02*
D03*
X4306654Y1298722D02*
D03*
X4220000Y1480000D02*
D03*
X4230000Y1540000D02*
D03*
X4330000Y2220000D02*
D03*
X5391499Y3954002D02*
D03*
X5401082Y2210489D02*
D03*
X5401488Y1770850D02*
D03*
X5395308Y2711469D02*
D03*
X4364802Y2633201D02*
D03*
X5160000Y1700000D02*
D03*
X5463722Y1916669D02*
D03*
X5632761Y1943620D02*
D03*
X4750000Y3410000D02*
D03*
X4850000Y3450000D02*
D03*
X4960000Y3240000D02*
D03*
X4966787Y956458D02*
D03*
X4444097Y3326817D02*
D03*
X3139476Y4624019D02*
D03*
X2927766Y4177072D02*
D03*
X3110000Y4560000D02*
D03*
X3259993Y3139994D02*
D03*
X2980000Y3170001D02*
D03*
X2938364Y4609819D02*
D03*
X3392500Y2550000D02*
D03*
X4089577Y3458928D02*
D03*
X3499875Y3182500D02*
D03*
X4089999Y2717500D02*
D03*
X3520000Y2350000D02*
D03*
X2610278Y2037934D02*
D03*
X3453859Y2169371D02*
D03*
X4048113Y1964887D02*
D03*
X3239578Y1866066D02*
D03*
X3900347Y1212274D02*
D03*
X3390000Y1030000D02*
D03*
X2722076Y3263632D02*
D03*
X7007572Y3764473D02*
D03*
X6945811Y3768675D02*
D03*
X7651751Y3740325D02*
D03*
X6705711Y3634924D02*
D03*
X7208707Y3634883D02*
D03*
X7417279Y1163852D02*
D03*
X7454341Y881220D02*
D03*
X7528805Y834542D02*
D03*
X7532020Y733311D02*
D03*
X7527955Y676064D02*
D03*
X7367773Y881230D02*
D03*
X7388651Y1235212D02*
D03*
X8213919Y4389499D02*
D03*
X8225547Y4147272D02*
D03*
X8196010Y3966066D02*
D03*
X8205223Y4024776D02*
D03*
X8210000Y4090000D02*
D03*
X7650000Y1179333D02*
D03*
X6962354Y1377731D02*
D03*
X7780000Y1400000D02*
D03*
X6925887Y1458315D02*
D03*
X7709582Y834248D02*
D03*
X7638749Y1028212D02*
D03*
X7439767Y2005211D02*
D03*
X7804298Y1845702D02*
D03*
X7445615Y2055562D02*
D03*
X7463088Y2155165D02*
D03*
X7440746Y2202500D02*
D03*
X7451513Y2474524D02*
D03*
X7443479Y2621749D02*
D03*
X6335369Y2064996D02*
D03*
X6330000Y2220000D02*
D03*
X6342677Y2268366D02*
D03*
X6792748Y2418006D02*
D03*
X6338042Y1867057D02*
D03*
X6331219Y1814952D02*
D03*
X6550367Y1920716D02*
D03*
X6391872Y1995771D02*
D03*
X6490000Y2550000D02*
D03*
X5503002Y1075600D02*
D03*
X6300000Y1610000D02*
D03*
X6550780Y1328225D02*
D03*
X6366643Y1175064D02*
D03*
X6490986Y1111819D02*
D03*
X6550000Y860000D02*
D03*
X6668093Y828380D02*
D03*
X5410000Y880000D02*
D03*
X6469871Y611393D02*
D03*
X7630000Y620000D02*
D03*
X6981610Y601044D02*
D03*
X7159078Y624207D02*
D03*
X6594271Y3653251D02*
D03*
X6831596Y3870000D02*
D03*
X6780000Y3400000D02*
D03*
X8182143Y2814823D02*
D03*
X8223537Y2606359D02*
D03*
X8117549Y3006671D02*
D03*
X7210000Y3800000D02*
D03*
X7717762Y736535D02*
D03*
X3259697Y1115924D02*
D03*
X6940000Y2947500D02*
D03*
X7852918Y2962686D02*
D03*
X8181422Y2878977D02*
D03*
X8181230Y2945002D02*
D03*
X7849778Y2631825D02*
D03*
X7880000Y1920000D02*
D03*
X7650000Y2280000D02*
D03*
Y2445000D02*
D03*
X7529112Y2444793D02*
D03*
X8131039Y2610196D02*
D03*
X8070000Y2450000D02*
D03*
X8130000Y2510000D02*
D03*
X8340407Y2047135D02*
D03*
X8274077Y1960350D02*
D03*
X8250991Y1910622D02*
D03*
X8343944Y1938175D02*
D03*
X8340906Y1869523D02*
D03*
X4500000Y4500000D02*
D03*
X5101347Y4503003D02*
D03*
X4751347D02*
D03*
X4921347Y2563003D02*
D03*
X6332200Y864003D02*
D03*
X6731497Y875833D02*
D03*
X6343119Y744003D02*
D03*
X6339046Y619481D02*
D03*
X5628845Y1664897D02*
D03*
X5592089Y1702985D02*
D03*
X5641227Y2324889D02*
D03*
X5825260Y2235833D02*
D03*
X5620000Y2000000D02*
D03*
X5619286Y2054045D02*
D03*
X5982366Y4273059D02*
D03*
X7520656Y4099404D02*
D03*
X8182685Y4642287D02*
D03*
X5600865Y3493579D02*
D03*
X5990551Y3539929D02*
D03*
X5960045Y2706612D02*
D03*
X6573796Y2813468D02*
D03*
X7185789Y2899534D02*
D03*
X6794371Y2714635D02*
D03*
X6380000Y3180000D02*
D03*
X7265540Y4278122D02*
D03*
X6949095Y4828738D02*
D03*
X7329264Y4827195D02*
D03*
X7850000Y4630000D02*
D03*
X7183075Y2593718D02*
D03*
X7262744Y2474203D02*
D03*
X7251723Y2624881D02*
D03*
X7250633Y2154582D02*
D03*
X7257710Y1991396D02*
D03*
X6787656Y1992762D02*
D03*
X6150000Y1660000D02*
D03*
X6130251Y1814943D02*
D03*
X6147726Y1865823D02*
D03*
X6680000Y2280001D02*
D03*
X5986360Y1060716D02*
D03*
X6374129Y1224924D02*
D03*
X6353138Y1325106D02*
D03*
X5908597Y763530D02*
D03*
X7471172Y1554359D02*
D03*
X6778295Y1595643D02*
D03*
X7442489Y1223123D02*
D03*
X7458943Y1079929D02*
D03*
X7364207Y1548600D02*
D03*
X6970983Y993664D02*
D03*
X6843436Y1057733D02*
D03*
X7470000Y830000D02*
D03*
X7456884Y1027268D02*
D03*
X7820000Y1050000D02*
D03*
X5894331Y1178451D02*
D03*
X5910706Y1229467D02*
D03*
X5880474Y1275444D02*
D03*
X5862353Y1446317D02*
D03*
X5720000Y1290000D02*
D03*
X5275076Y1241599D02*
D03*
X4823740Y1240134D02*
D03*
X4822417Y1140418D02*
D03*
X4870496Y1065889D02*
D03*
X4916830Y958541D02*
D03*
X5287568Y1086075D02*
D03*
X5320000Y1130000D02*
D03*
X5294387Y966075D02*
D03*
X5321854Y923496D02*
D03*
X5307534Y757266D02*
D03*
X3515675Y1155029D02*
D03*
X2680532Y600491D02*
D03*
X6142965Y2074473D02*
D03*
X6139320Y2225882D02*
D03*
X6151221Y2276914D02*
D03*
X6344372Y2125552D02*
D03*
X6670672Y2714062D02*
D03*
X7290000Y4220000D02*
D03*
X4860000Y1460000D02*
D03*
X5468170Y1578802D02*
D03*
X5972225Y3738184D02*
D03*
X8050000Y3260000D02*
D03*
X7850000Y530000D02*
D03*
X7141946Y1005659D02*
D03*
X4780000Y1380000D02*
D03*
X3343313Y718731D02*
D03*
X4319500Y959500D02*
D03*
X3901347Y1308653D02*
D03*
X3260339Y800579D02*
D03*
X3470000Y1050000D02*
D03*
X3198847Y941388D02*
D03*
X2127080Y1183054D02*
D03*
X1960000Y1817392D02*
D03*
X5599722Y1768096D02*
D03*
X5597932Y2191787D02*
D03*
X5847336Y830870D02*
D03*
X5854327Y935673D02*
D03*
X5854999Y1325000D02*
D03*
X6002746Y1790909D02*
D03*
Y2210001D02*
D03*
X6963499Y795281D02*
D03*
X6750000Y2200000D02*
D03*
X6797500Y2566485D02*
D03*
X6750000Y2850000D02*
D03*
X6670000Y2640000D02*
D03*
X6682471Y2585249D02*
D03*
X7410000Y4700000D02*
D03*
X6913016Y4603016D02*
D03*
X5403661Y2315116D02*
D03*
X5122333Y2713076D02*
D03*
X2543568Y2919950D02*
D03*
X5814897Y2701733D02*
D03*
X5859988Y2959994D02*
D03*
X5245030Y1398108D02*
D03*
X6260000Y1290000D02*
D03*
Y887379D02*
D03*
X6150811Y1714006D02*
D03*
X5831296Y1867204D02*
D03*
X6089273Y1402302D02*
D03*
X6090000Y990000D02*
D03*
X6363452Y909664D02*
D03*
X5594827Y2111606D02*
D03*
X7147500Y1156486D02*
D03*
X7152358Y1507069D02*
D03*
X7154477Y845000D02*
D03*
X6615000Y1340370D02*
D03*
X7140000Y2130000D02*
D03*
X7000924Y2869064D02*
D03*
X6970000Y2213213D02*
D03*
X8190000Y1660000D02*
D03*
X5603879Y1110165D02*
D03*
X7210000Y3325000D02*
D03*
X7707500Y1050495D02*
D03*
X8350383Y3520454D02*
D03*
X7718011Y884968D02*
D03*
X4560639Y4052602D02*
D03*
X5580000Y2950000D02*
D03*
X5490000Y3100000D02*
D03*
X4640052Y3398326D02*
D03*
X5527472Y2810000D02*
D03*
X4900000Y3990000D02*
D03*
X4800000Y3989014D02*
D03*
X5495072Y3540833D02*
D03*
X6697740Y3864157D02*
D03*
X6441988Y3962577D02*
D03*
X6492088Y4081153D02*
D03*
X6359182Y3751310D02*
D03*
X7110000Y3325024D02*
D03*
X6358297Y3646994D02*
D03*
X6357981Y3949526D02*
D03*
X5531224Y1129757D02*
D03*
X5542259Y972754D02*
D03*
X4558761Y3037421D02*
D03*
X4399547Y3283233D02*
D03*
X4175870Y718223D02*
D03*
X2550432Y910944D02*
D03*
X3330000Y1470000D02*
D03*
X3340380Y1746653D02*
D03*
X2241823Y3817545D02*
D03*
X3168890Y3903603D02*
D03*
X3490000Y4100000D02*
D03*
X3640000Y1930000D02*
D03*
X3017681Y1001305D02*
D03*
X5810000Y3060000D02*
D03*
X5170000Y3600000D02*
D03*
X4610000Y4180000D02*
D03*
X4999571Y3840468D02*
D03*
X7550000Y4480000D02*
D03*
X6358173Y3451494D02*
D03*
X6965772Y1978753D02*
D03*
X1810833Y1870415D02*
D03*
X6849131Y4627216D02*
D03*
X6530000Y4670000D02*
D03*
X6410000Y4590000D02*
D03*
X6398170Y4489057D02*
D03*
X6801229Y3169430D02*
D03*
X6609365Y3434038D02*
D03*
X3931452Y832573D02*
D03*
X6692653Y4336911D02*
D03*
X7179667Y4373121D02*
D03*
X7047500Y4490000D02*
D03*
X7200000Y4480000D02*
D03*
X5968082Y4340141D02*
D03*
X5750000Y4510000D02*
D03*
X5424918Y4327451D02*
D03*
X6545530Y3772500D02*
D03*
X5080000Y3960000D02*
D03*
X6921096Y3976761D02*
D03*
X6771333Y3973312D02*
D03*
X6545000Y4012500D02*
D03*
X7210000Y4130000D02*
D03*
X6610000Y3730000D02*
D03*
X6443518Y3653792D02*
D03*
X6695952Y3549687D02*
D03*
X6844695Y4195084D02*
D03*
X7096269Y3870175D02*
D03*
X4360000Y4721722D02*
D03*
X6740000Y4140000D02*
D03*
X7272500Y2525455D02*
D03*
Y2674747D02*
D03*
Y2054765D02*
D03*
Y2204391D02*
D03*
X5908991Y4626532D02*
D03*
X6623751Y4357570D02*
D03*
X6160000Y4590000D02*
D03*
X7210790Y4721611D02*
D03*
X7540000Y4580000D02*
D03*
X5550000Y4630000D02*
D03*
X5499863Y4632256D02*
D03*
X5141408Y4549718D02*
D03*
X5209939Y4555019D02*
D03*
X5908557Y814952D02*
D03*
X4120000Y4570000D02*
D03*
X6680000Y4840000D02*
D03*
X5240000Y4850000D02*
D03*
X4390000D02*
D03*
X3620000Y4550000D02*
D03*
X4022208Y4695489D02*
D03*
X4010000Y4530000D02*
D03*
X5713689Y4890134D02*
D03*
X7035770Y4389633D02*
D03*
X6351000Y4624083D02*
D03*
X4083501Y779788D02*
D03*
X2721526Y4827756D02*
D03*
X2821915Y4830749D02*
D03*
X1956782Y1021469D02*
D03*
X1872100Y1474775D02*
D03*
X3148932Y742512D02*
D03*
X3835270Y1182957D02*
D03*
X3885916Y1140456D02*
D03*
X4279925Y716551D02*
D03*
X6753371Y2114523D02*
D03*
X6759394Y2034384D02*
D03*
X4510801Y3693668D02*
D03*
X4510639Y3765770D02*
D03*
X4713598Y2973046D02*
D03*
X4709536Y2907273D02*
D03*
X4562262Y3101914D02*
D03*
X5100000Y830000D02*
D03*
X5522500Y780000D02*
D03*
X5412500D02*
D03*
X5178937Y821950D02*
D03*
X4430000Y3690000D02*
D03*
X5273930Y624879D02*
D03*
X8180000Y4710000D02*
D03*
X7446979Y2675922D02*
D03*
X7440046Y2524425D02*
D03*
X8263173Y3560225D02*
D03*
X8262746Y3497006D02*
D03*
X8342706Y3417398D02*
D03*
X8338790Y3573566D02*
D03*
X6146343Y2124915D02*
D03*
X6335978Y1715116D02*
D03*
X6369784Y1375467D02*
D03*
X8237078Y837239D02*
D03*
X8279247Y752676D02*
D03*
X7638831Y1080000D02*
D03*
X8244326Y924809D02*
D03*
X8254941Y1004912D02*
D03*
X8340000Y750000D02*
D03*
X7638017Y1230000D02*
D03*
X8186743Y839696D02*
D03*
X8339120Y4628445D02*
D03*
X8190097Y1000173D02*
D03*
X8336335Y1164376D02*
D03*
X8339832Y1564061D02*
D03*
X8335876Y1646753D02*
D03*
X8339173Y1805640D02*
D03*
X8339531Y3655497D02*
D03*
Y3895251D02*
D03*
X8340000Y4775000D02*
D03*
X8336858Y4295000D02*
D03*
X8338650Y4535000D02*
D03*
X8188231Y1717282D02*
D03*
X8338507Y1721834D02*
D03*
X8190960Y1472841D02*
D03*
X8190000Y1420000D02*
D03*
X8191135Y1312606D02*
D03*
X8185072Y1261180D02*
D03*
X8335341Y4680295D02*
D03*
X8194955Y4439638D02*
D03*
X8333828Y4389101D02*
D03*
X8333073Y4441828D02*
D03*
X8190000Y3720000D02*
D03*
X8330000D02*
D03*
X4660000Y3540000D02*
D03*
X5452481Y3430081D02*
D03*
X5211075Y3725690D02*
D03*
X4617952Y4340233D02*
D03*
X5122086Y2843916D02*
D03*
X5122718Y3168584D02*
D03*
X5120000Y2970000D02*
D03*
X4399284Y2814947D02*
D03*
X2007255Y4699313D02*
D03*
X2356010Y4700798D02*
D03*
X3480000Y4680000D02*
D03*
X3455458Y4401433D02*
D03*
X3679868Y4307891D02*
D03*
X3995327Y3694868D02*
D03*
X3679400Y3694491D02*
D03*
X3910010Y4305052D02*
D03*
X2872337Y4410493D02*
D03*
X2199302Y4269783D02*
D03*
X2639250Y4282943D02*
D03*
X3329814Y3813335D02*
D03*
X3437287Y3448980D02*
D03*
X4280000Y1860000D02*
D03*
X3259728Y1310946D02*
D03*
X2720000Y960000D02*
D03*
X3000433Y801168D02*
D03*
X2409956Y630605D02*
D03*
X1499738Y1226361D02*
D03*
X2064939Y1368211D02*
D03*
X2008492Y1298202D02*
D03*
X2250000Y1580000D02*
D03*
X2415559Y1525693D02*
D03*
X2510000Y2630000D02*
D03*
X2299407Y2977139D02*
D03*
X2365367Y3034777D02*
D03*
D93*
X2339569Y850000D02*
D03*
X6060000Y2930000D02*
D03*
X2381848Y2502839D02*
D03*
X5789822Y2913968D02*
D03*
X4039453Y3961484D02*
D03*
X4039563Y4047198D02*
D03*
X1300500Y5283500D02*
D03*
Y5003500D02*
D03*
X1620500D02*
D03*
Y5283500D02*
D03*
D94*
X3920000Y2548000D02*
D03*
Y2748000D02*
D03*
Y2948000D02*
D03*
Y3148000D02*
D03*
Y3348000D02*
D03*
X3680000Y2548000D02*
D03*
Y2748000D02*
D03*
Y2948000D02*
D03*
Y3148000D02*
D03*
Y3348000D02*
D03*
D95*
X2032000Y170500D02*
D03*
X2286000D02*
D03*
X2540000D02*
D03*
X2794000D02*
D03*
X3048000D02*
D03*
X3302000D02*
D03*
X3556000D02*
D03*
X3810000D02*
D03*
X4064000D02*
D03*
X4318000D02*
D03*
X4572000D02*
D03*
X4826000D02*
D03*
X5080000D02*
D03*
X5334000D02*
D03*
X5588000D02*
D03*
X5842000D02*
D03*
X6096000D02*
D03*
X6350000D02*
D03*
X6604000D02*
D03*
X6858000D02*
D03*
X7112000D02*
D03*
X7366000D02*
D03*
X7620000D02*
D03*
X2032000Y464500D02*
D03*
X2286000D02*
D03*
X2540000D02*
D03*
X2794000D02*
D03*
X3048000D02*
D03*
X3302000D02*
D03*
X3556000D02*
D03*
X3810000D02*
D03*
X4064000D02*
D03*
X4318000D02*
D03*
X4572000D02*
D03*
X4826000D02*
D03*
X5080000D02*
D03*
X5334000D02*
D03*
X5588000D02*
D03*
X5842000D02*
D03*
X6096000D02*
D03*
X6350000D02*
D03*
X6604000D02*
D03*
X6858000D02*
D03*
X7112000D02*
D03*
X7366000D02*
D03*
X7620000D02*
D03*
X2032000Y4996500D02*
D03*
X2286000D02*
D03*
X2540000D02*
D03*
X2794000D02*
D03*
X3048000D02*
D03*
X3302000D02*
D03*
X3556000D02*
D03*
X3810000D02*
D03*
X4064000D02*
D03*
X4318000D02*
D03*
X4572000D02*
D03*
X4826000D02*
D03*
X5080000D02*
D03*
X5334000D02*
D03*
X5588000D02*
D03*
X5842000D02*
D03*
X6096000D02*
D03*
X6350000D02*
D03*
X6604000D02*
D03*
X6858000D02*
D03*
X7112000D02*
D03*
X7366000D02*
D03*
X7620000D02*
D03*
X2032000Y5290500D02*
D03*
X2286000D02*
D03*
X2540000D02*
D03*
X2794000D02*
D03*
X3048000D02*
D03*
X3302000D02*
D03*
X3556000D02*
D03*
X3810000D02*
D03*
X4064000D02*
D03*
X4318000D02*
D03*
X4572000D02*
D03*
X4826000D02*
D03*
X5080000D02*
D03*
X5334000D02*
D03*
X5588000D02*
D03*
X5842000D02*
D03*
X6096000D02*
D03*
X6350000D02*
D03*
X6604000D02*
D03*
X6858000D02*
D03*
X7112000D02*
D03*
X7366000D02*
D03*
X7620000D02*
D03*
D96*
X1460500Y5143500D02*
D03*
%TF.MD5,d8ceba3e3634c60df28e26f14e18e9b3*%
M02*
