%TF.GenerationSoftware,Altium Limited,Altium Designer,25.3.3 (18)*%
G04 Layer_Physical_Order=4*
G04 Layer_Color=6736896*
%FSLAX45Y45*%
%MOMM*%
%TF.SameCoordinates,5572F933-5C96-4131-A983-9EF7CB378A5A*%
%TF.FilePolarity,Positive*%
%TF.FileFunction,Copper,L4,Inr,Signal*%
%TF.Part,Single*%
G01*
G75*
%TA.AperFunction,Conductor*%
%ADD70C,0.40000*%
%ADD71C,0.20000*%
%ADD72C,0.25000*%
%ADD73C,0.50000*%
%ADD74C,0.30000*%
%TA.AperFunction,ComponentPad*%
G04:AMPARAMS|DCode=86|XSize=1.55mm|YSize=1.6mm|CornerRadius=0.3875mm|HoleSize=0mm|Usage=FLASHONLY|Rotation=270.000|XOffset=0mm|YOffset=0mm|HoleType=Round|Shape=RoundedRectangle|*
%AMROUNDEDRECTD86*
21,1,1.55000,0.82500,0,0,270.0*
21,1,0.77500,1.60000,0,0,270.0*
1,1,0.77500,-0.41250,-0.38750*
1,1,0.77500,-0.41250,0.38750*
1,1,0.77500,0.41250,0.38750*
1,1,0.77500,0.41250,-0.38750*
%
%ADD86ROUNDEDRECTD86*%
G04:AMPARAMS|DCode=90|XSize=2.2mm|YSize=2.2mm|CornerRadius=0.55mm|HoleSize=0mm|Usage=FLASHONLY|Rotation=270.000|XOffset=0mm|YOffset=0mm|HoleType=Round|Shape=RoundedRectangle|*
%AMROUNDEDRECTD90*
21,1,2.20000,1.10000,0,0,270.0*
21,1,1.10000,2.20000,0,0,270.0*
1,1,1.10000,-0.55000,-0.55000*
1,1,1.10000,-0.55000,0.55000*
1,1,1.10000,0.55000,0.55000*
1,1,1.10000,0.55000,-0.55000*
%
%ADD90ROUNDEDRECTD90*%
G04:AMPARAMS|DCode=91|XSize=2.2mm|YSize=2.2mm|CornerRadius=0mm|HoleSize=0mm|Usage=FLASHONLY|Rotation=270.000|XOffset=0mm|YOffset=0mm|HoleType=Round|Shape=Octagon|*
%AMOCTAGOND91*
4,1,8,-0.55000,-1.10000,0.55000,-1.10000,1.10000,-0.55000,1.10000,0.55000,0.55000,1.10000,-0.55000,1.10000,-1.10000,0.55000,-1.10000,-0.55000,-0.55000,-1.10000,0.0*
%
%ADD91OCTAGOND91*%

%TA.AperFunction,ViaPad*%
%ADD92C,0.35000*%
%ADD93C,0.60000*%
%TA.AperFunction,ComponentPad*%
G04:AMPARAMS|DCode=94|XSize=1.3mm|YSize=1.7mm|CornerRadius=0.325mm|HoleSize=0mm|Usage=FLASHONLY|Rotation=270.000|XOffset=0mm|YOffset=0mm|HoleType=Round|Shape=RoundedRectangle|*
%AMROUNDEDRECTD94*
21,1,1.30000,1.05000,0,0,270.0*
21,1,0.65000,1.70000,0,0,270.0*
1,1,0.65000,-0.52500,-0.32500*
1,1,0.65000,-0.52500,0.32500*
1,1,0.65000,0.52500,0.32500*
1,1,0.65000,0.52500,-0.32500*
%
%ADD94ROUNDEDRECTD94*%
G04:AMPARAMS|DCode=95|XSize=1.5mm|YSize=1.9mm|CornerRadius=0.375mm|HoleSize=0mm|Usage=FLASHONLY|Rotation=0.000|XOffset=0mm|YOffset=0mm|HoleType=Round|Shape=RoundedRectangle|*
%AMROUNDEDRECTD95*
21,1,1.50000,1.15000,0,0,0.0*
21,1,0.75000,1.90000,0,0,0.0*
1,1,0.75000,0.37500,-0.57500*
1,1,0.75000,-0.37500,-0.57500*
1,1,0.75000,-0.37500,0.57500*
1,1,0.75000,0.37500,0.57500*
%
%ADD95ROUNDEDRECTD95*%
G04:AMPARAMS|DCode=96|XSize=3.6mm|YSize=3.6mm|CornerRadius=0.54mm|HoleSize=0mm|Usage=FLASHONLY|Rotation=0.000|XOffset=0mm|YOffset=0mm|HoleType=Round|Shape=RoundedRectangle|*
%AMROUNDEDRECTD96*
21,1,3.60000,2.52000,0,0,0.0*
21,1,2.52000,3.60000,0,0,0.0*
1,1,1.08000,1.26000,-1.26000*
1,1,1.08000,-1.26000,-1.26000*
1,1,1.08000,-1.26000,1.26000*
1,1,1.08000,1.26000,1.26000*
%
%ADD96ROUNDEDRECTD96*%
G36*
X4138393Y5227882D02*
X4138911Y5224405D01*
X4139947Y5220759D01*
X4141498Y5216945D01*
X4143567Y5212962D01*
X4146152Y5208810D01*
X4149254Y5204490D01*
X4152872Y5200002D01*
X4161658Y5190519D01*
X4143981Y5172842D01*
X4139155Y5177493D01*
X4130010Y5185246D01*
X4125690Y5188348D01*
X4121538Y5190933D01*
X4117555Y5193002D01*
X4113741Y5194553D01*
X4110095Y5195589D01*
X4106618Y5196107D01*
X4103309Y5196109D01*
X4138391Y5231191D01*
X4138393Y5227882D01*
D02*
G37*
G36*
X8434462Y5410484D02*
X8485651Y5389281D01*
X8529609Y5355551D01*
X8563338Y5311594D01*
X8584542Y5260404D01*
X8589867Y5219955D01*
X8591113Y5205471D01*
X8591116Y5205460D01*
X8591116Y5190471D01*
X8591180Y2793177D01*
X8582473Y2787358D01*
X8576180Y2784875D01*
X8559737D01*
X8550784Y2790857D01*
Y3360835D01*
X8550784Y3360836D01*
X8547679Y3376444D01*
X8538838Y3389675D01*
X8397367Y3531146D01*
X8396006Y3534433D01*
X8395968Y3534623D01*
X8395860Y3534785D01*
X8390651Y3547360D01*
X8382659Y3555352D01*
X8386290Y3564118D01*
Y3583014D01*
X8379058Y3600473D01*
X8365697Y3613835D01*
X8348238Y3621066D01*
X8329342D01*
X8311884Y3613835D01*
X8298522Y3600473D01*
X8283434Y3603246D01*
X8272622Y3607724D01*
X8253725D01*
X8236267Y3600493D01*
X8222905Y3587131D01*
X8217695Y3574554D01*
X8217588Y3574394D01*
X8217551Y3574205D01*
X8216189Y3570917D01*
X8195783Y3550512D01*
X8180783Y3556725D01*
Y3588950D01*
X8271050Y3679216D01*
X8304337D01*
X8307626Y3677854D01*
X8307786Y3677747D01*
X8307975Y3677710D01*
X8320552Y3672500D01*
X8339448D01*
X8356907Y3679732D01*
X8370269Y3693093D01*
X8377500Y3710552D01*
Y3729448D01*
X8370269Y3746906D01*
X8356907Y3760268D01*
X8339448Y3767500D01*
X8320552D01*
X8307975Y3762290D01*
X8307786Y3762253D01*
X8307626Y3762146D01*
X8304337Y3760783D01*
X8254158D01*
X8254157Y3760784D01*
X8238550Y3757679D01*
X8227128Y3750047D01*
X8216906Y3760268D01*
X8199448Y3767500D01*
X8180552D01*
X8163093Y3760268D01*
X8149731Y3746906D01*
X8144522Y3734329D01*
X8144415Y3734169D01*
X8144377Y3733981D01*
X8143015Y3730692D01*
X8069977Y3657654D01*
X8061136Y3644423D01*
X8060621Y3641833D01*
X8045783Y3644125D01*
Y3758266D01*
X8206524Y3919008D01*
X8209923Y3920415D01*
X8210030Y3920436D01*
X8210123Y3920498D01*
X8222916Y3925797D01*
X8236278Y3939159D01*
X8243510Y3956617D01*
Y3975514D01*
X8237542Y3989921D01*
X8245492Y3997870D01*
X8252723Y4015328D01*
Y4034225D01*
X8245492Y4051683D01*
X8242175Y4055000D01*
X8250268Y4063093D01*
X8257500Y4080552D01*
Y4099448D01*
X8253809Y4108359D01*
X8265815Y4120365D01*
X8273046Y4137823D01*
Y4156720D01*
X8265815Y4174178D01*
X8252453Y4187540D01*
X8234995Y4194771D01*
X8218388D01*
X8213834Y4200965D01*
X8211033Y4208630D01*
X8344520Y4342117D01*
X8347809Y4343479D01*
X8347997Y4343516D01*
X8348157Y4343623D01*
X8360734Y4348833D01*
X8374096Y4362195D01*
X8381328Y4379653D01*
Y4398549D01*
X8374096Y4416008D01*
X8373881Y4416223D01*
X8380573Y4432379D01*
Y4451276D01*
X8373341Y4468734D01*
X8359979Y4482096D01*
X8342521Y4489327D01*
X8323625D01*
X8306167Y4482096D01*
X8292805Y4468734D01*
X8290128Y4462272D01*
X8287386Y4460440D01*
X8287385Y4460439D01*
X8257455Y4430509D01*
X8242455Y4436722D01*
Y4449086D01*
X8235224Y4466544D01*
X8221862Y4479906D01*
X8212761Y4483676D01*
X8208868Y4500996D01*
X8295534Y4587662D01*
X8313458D01*
X8316746Y4586299D01*
X8316906Y4586193D01*
X8317095Y4586155D01*
X8329672Y4580945D01*
X8348569D01*
X8366027Y4588177D01*
X8379389Y4601539D01*
X8386620Y4618997D01*
Y4637893D01*
X8379389Y4655352D01*
X8377291Y4657449D01*
X8382840Y4670847D01*
Y4689743D01*
X8375609Y4707201D01*
X8362247Y4720563D01*
X8344789Y4727795D01*
X8325892D01*
X8313315Y4722585D01*
X8313127Y4722548D01*
X8312967Y4722441D01*
X8309678Y4721078D01*
X8280799D01*
X8280798Y4721079D01*
X8265190Y4717974D01*
X8251959Y4709133D01*
X8241879Y4699053D01*
X8227500Y4705887D01*
Y4719448D01*
X8220268Y4736906D01*
X8206906Y4750268D01*
X8189448Y4757500D01*
X8170552D01*
X8153093Y4750268D01*
X8139731Y4736906D01*
X8132500Y4719448D01*
Y4709882D01*
X8111347Y4688729D01*
X8108969Y4685170D01*
X7470639Y4046840D01*
X7462087Y4034041D01*
X7460928Y4033782D01*
X7447087Y4036536D01*
Y4319410D01*
X7560692Y4433016D01*
X7563981Y4434377D01*
X7564169Y4434415D01*
X7564329Y4434522D01*
X7576906Y4439732D01*
X7590268Y4453093D01*
X7597500Y4470552D01*
Y4489448D01*
X7590268Y4506906D01*
X7576906Y4520268D01*
X7568011Y4523953D01*
X7566907Y4539732D01*
X7580268Y4553094D01*
X7587500Y4570552D01*
Y4589448D01*
X7580268Y4606906D01*
X7566906Y4620268D01*
X7549448Y4627500D01*
X7530552D01*
X7513093Y4620268D01*
X7499732Y4606906D01*
X7492500Y4589448D01*
Y4570552D01*
X7499732Y4553094D01*
X7513093Y4539732D01*
X7521989Y4536047D01*
X7523093Y4520268D01*
X7509731Y4506906D01*
X7504522Y4494329D01*
X7504415Y4494169D01*
X7504377Y4493981D01*
X7503015Y4490692D01*
X7385607Y4373283D01*
X7365414Y4372262D01*
X7246984Y4490692D01*
X7245623Y4493981D01*
X7245585Y4494169D01*
X7245478Y4494329D01*
X7240268Y4506906D01*
X7226907Y4520268D01*
X7209448Y4527500D01*
X7193541D01*
Y4648135D01*
X7219517Y4674111D01*
X7220238D01*
X7237696Y4681342D01*
X7251058Y4694704D01*
X7258290Y4712162D01*
Y4731059D01*
X7251058Y4748517D01*
X7237696Y4761879D01*
X7220238Y4769110D01*
X7201342D01*
X7183884Y4761879D01*
X7170522Y4748517D01*
X7166265Y4738241D01*
X7165892Y4737736D01*
X7165645Y4736744D01*
X7164830Y4734777D01*
X7123919Y4693866D01*
X7115079Y4680635D01*
X7111974Y4665028D01*
X7111974Y4665027D01*
Y4465090D01*
X7111974Y4465089D01*
X7115079Y4449482D01*
X7123919Y4436251D01*
X7149771Y4410400D01*
X7139399Y4400028D01*
X7132167Y4382569D01*
Y4363673D01*
X7139399Y4346215D01*
X7152761Y4332853D01*
X7170219Y4325621D01*
X7189115D01*
X7206574Y4332853D01*
X7216946Y4343225D01*
X7278812Y4281358D01*
X7274121Y4264836D01*
X7263093Y4260268D01*
X7249732Y4246906D01*
X7242500Y4229448D01*
Y4210552D01*
X7247710Y4197975D01*
X7247747Y4197786D01*
X7247854Y4197626D01*
X7249216Y4194337D01*
Y4177557D01*
X7234216Y4171383D01*
X7219448Y4177500D01*
X7200552D01*
X7183094Y4170269D01*
X7169732Y4156907D01*
X7162500Y4139448D01*
Y4120552D01*
X7167710Y4107975D01*
X7167747Y4107786D01*
X7167854Y4107626D01*
X7169217Y4104337D01*
Y3825663D01*
X7167854Y3822374D01*
X7167747Y3822214D01*
X7167710Y3822025D01*
X7162500Y3809448D01*
Y3790552D01*
X7169732Y3773094D01*
X7183094Y3759732D01*
X7200552Y3752500D01*
X7219448D01*
X7234216Y3758617D01*
X7249216Y3752443D01*
Y3682761D01*
X7241074Y3678207D01*
X7234216Y3675730D01*
X7218155Y3682383D01*
X7199259D01*
X7181800Y3675151D01*
X7168439Y3661789D01*
X7161207Y3644331D01*
Y3625434D01*
X7168439Y3607976D01*
X7181800Y3594614D01*
X7199259Y3587383D01*
X7218155D01*
X7234216Y3594036D01*
X7241074Y3591559D01*
X7249216Y3587004D01*
Y3316893D01*
X7123107Y3190784D01*
X6960001D01*
X6960000Y3190784D01*
X6944393Y3187679D01*
X6931162Y3178838D01*
X6641162Y2888839D01*
X6632321Y2875607D01*
X6629216Y2860000D01*
X6629217Y2859999D01*
Y2738102D01*
X6628218Y2735691D01*
X6627823Y2735059D01*
X6627733Y2734521D01*
X6623172Y2723510D01*
Y2704613D01*
X6630404Y2687155D01*
X6640192Y2677367D01*
X6629732Y2666907D01*
X6622500Y2649448D01*
Y2630552D01*
X6619481Y2626033D01*
X6538508D01*
X6529164Y2632276D01*
X6513556Y2635381D01*
X6513555Y2635381D01*
X6367202D01*
X6361462Y2649239D01*
X6478838Y2766615D01*
X6487679Y2779846D01*
X6490784Y2795453D01*
X6490784Y2795455D01*
Y3053107D01*
X6790692Y3353015D01*
X6793981Y3354378D01*
X6794169Y3354415D01*
X6794329Y3354522D01*
X6806906Y3359732D01*
X6820268Y3373094D01*
X6825477Y3385669D01*
X6825585Y3385830D01*
X6825623Y3386021D01*
X6826984Y3389308D01*
X7015162Y3577486D01*
X7029020Y3571746D01*
Y3355024D01*
X7032901Y3335515D01*
X7043952Y3318976D01*
X7073952Y3288976D01*
X7090491Y3277925D01*
X7110000Y3274045D01*
X7129509Y3277925D01*
X7146048Y3288976D01*
X7157099Y3305515D01*
X7160980Y3325024D01*
X7157099Y3344533D01*
X7146048Y3361072D01*
X7130980Y3376140D01*
Y3780000D01*
X7127099Y3799509D01*
X7116048Y3816048D01*
X7026048Y3906048D01*
X7009509Y3917099D01*
X6990000Y3920979D01*
X6949747D01*
X6946763Y3935979D01*
X6948003Y3936493D01*
X6961365Y3949855D01*
X6968596Y3967313D01*
Y3986210D01*
X6961365Y4003668D01*
X6948003Y4017030D01*
X6930544Y4024261D01*
X6911648D01*
X6894190Y4017030D01*
X6880828Y4003668D01*
X6873596Y3986210D01*
Y3967313D01*
X6880828Y3949855D01*
X6894190Y3936493D01*
X6895429Y3935979D01*
X6892446Y3920979D01*
X6831596D01*
X6827410Y3924415D01*
Y3973312D01*
X6823141Y3994772D01*
X6810985Y4012964D01*
X6792793Y4025120D01*
X6771333Y4029389D01*
X6749873Y4025120D01*
X6731680Y4012964D01*
X6719524Y3994772D01*
X6715255Y3973312D01*
Y3834561D01*
X6666058Y3785364D01*
X6656832Y3771556D01*
X6642580Y3768046D01*
X6638840Y3768335D01*
X6636906Y3770268D01*
X6619448Y3777500D01*
X6600552D01*
X6590704Y3787563D01*
X6585798Y3799406D01*
X6572436Y3812768D01*
X6554978Y3820000D01*
X6536081D01*
X6518623Y3812768D01*
X6514596Y3808741D01*
X6499596Y3814954D01*
Y3961047D01*
X6498065Y3968739D01*
Y3971046D01*
X6513065Y3977260D01*
X6518094Y3972232D01*
X6535552Y3965000D01*
X6554448D01*
X6571907Y3972232D01*
X6585269Y3985594D01*
X6592500Y4003052D01*
Y4021948D01*
X6585269Y4039406D01*
X6571907Y4052768D01*
X6554449Y4060000D01*
X6546004Y4070289D01*
X6548165Y4081153D01*
X6546879Y4087621D01*
X6556395Y4099217D01*
X6714337D01*
X6717626Y4097854D01*
X6717786Y4097747D01*
X6717975Y4097710D01*
X6730552Y4092500D01*
X6749448D01*
X6766906Y4099732D01*
X6780268Y4113094D01*
X6787500Y4130552D01*
Y4149448D01*
X6780268Y4166907D01*
X6766906Y4180268D01*
X6749448Y4187500D01*
X6730552D01*
X6717975Y4182290D01*
X6717786Y4182253D01*
X6717626Y4182146D01*
X6714337Y4180784D01*
X6478561D01*
X6472821Y4194642D01*
X6487396Y4209216D01*
X6896136D01*
X6896137Y4209216D01*
X6911744Y4212321D01*
X6924975Y4221161D01*
X7046461Y4342648D01*
X7049750Y4344010D01*
X7049939Y4344048D01*
X7050099Y4344155D01*
X7062676Y4349364D01*
X7076038Y4362726D01*
X7083269Y4380184D01*
Y4399081D01*
X7076038Y4416539D01*
X7063570Y4429007D01*
X7063220Y4435465D01*
X7064202Y4445505D01*
X7074406Y4449732D01*
X7087768Y4463094D01*
X7095000Y4480552D01*
Y4499448D01*
X7087768Y4516907D01*
X7074406Y4530269D01*
X7056948Y4537500D01*
X7038052D01*
X7020594Y4530269D01*
X7007232Y4516907D01*
X7000000Y4499448D01*
Y4480552D01*
X7007232Y4463094D01*
X7019700Y4450626D01*
X7020049Y4444168D01*
X7019068Y4434128D01*
X7008863Y4429901D01*
X6995501Y4416539D01*
X6990292Y4403962D01*
X6990185Y4403802D01*
X6990147Y4403613D01*
X6988785Y4400324D01*
X6879244Y4290783D01*
X6734914D01*
X6728701Y4305783D01*
X6732922Y4310004D01*
X6740153Y4327463D01*
Y4346359D01*
X6732922Y4363817D01*
X6719560Y4377179D01*
X6702101Y4384411D01*
X6683205D01*
X6666852Y4377637D01*
X6664019Y4384477D01*
X6650658Y4397839D01*
X6633199Y4405070D01*
X6614303D01*
X6596845Y4397839D01*
X6583483Y4384477D01*
X6578273Y4371900D01*
X6578166Y4371740D01*
X6578129Y4371551D01*
X6576766Y4368262D01*
X6541917Y4333412D01*
X6533349Y4334459D01*
X6527866Y4350190D01*
X6709498Y4531822D01*
X6709499Y4531822D01*
X6718340Y4545053D01*
X6721444Y4560660D01*
X6721444Y4560662D01*
Y4592309D01*
X6721444Y4592310D01*
X6720784Y4595630D01*
Y4814337D01*
X6722146Y4817626D01*
X6722253Y4817786D01*
X6722290Y4817975D01*
X6727500Y4830552D01*
Y4849448D01*
X6720269Y4866906D01*
X6706907Y4880268D01*
X6702655Y4882029D01*
X6697022Y4900599D01*
X6705083Y4912663D01*
X6710322Y4939000D01*
Y5054000D01*
X6705083Y5080337D01*
X6690164Y5102664D01*
X6667837Y5117583D01*
X6641500Y5122822D01*
X6566500D01*
X6540163Y5117583D01*
X6517836Y5102664D01*
X6502917Y5080337D01*
X6497678Y5054000D01*
Y4939000D01*
X6502917Y4912663D01*
X6517836Y4890336D01*
X6540163Y4875417D01*
X6566500Y4870178D01*
X6624851D01*
X6634874Y4855178D01*
X6632500Y4849448D01*
Y4830552D01*
X6637710Y4817975D01*
X6637747Y4817786D01*
X6637854Y4817626D01*
X6639217Y4814337D01*
Y4592972D01*
X6639216Y4592970D01*
X6639877Y4589650D01*
Y4577553D01*
X6126162Y4063839D01*
X6117321Y4050608D01*
X6114216Y4035000D01*
X6114217Y4034999D01*
Y2981849D01*
X6099217Y2975636D01*
X6093987Y2980866D01*
X6071934Y2990000D01*
X6048065D01*
X6026012Y2980866D01*
X6009134Y2963987D01*
X6000000Y2941935D01*
Y2918065D01*
X6009134Y2896013D01*
X6026012Y2879134D01*
X6048065Y2870000D01*
X6071934D01*
X6093987Y2879134D01*
X6099217Y2884364D01*
X6114217Y2878151D01*
Y2780888D01*
X6022996Y2689667D01*
X5741397D01*
X5725790Y2686563D01*
X5712559Y2677722D01*
X5712559Y2677721D01*
X5456162Y2421325D01*
X5447321Y2408093D01*
X5444216Y2392486D01*
X5444216Y2392485D01*
Y2255743D01*
X5429216Y2249530D01*
X5427989Y2250757D01*
X5410531Y2257989D01*
X5391634D01*
X5374176Y2250757D01*
X5360814Y2237396D01*
X5353583Y2219937D01*
Y2201041D01*
X5360814Y2183583D01*
X5374176Y2170221D01*
X5391634Y2162989D01*
X5410531D01*
X5427989Y2170221D01*
X5429216Y2171448D01*
X5444216Y2165235D01*
Y1971448D01*
X5443417Y1967427D01*
X5446521Y1951820D01*
X5455362Y1938588D01*
X5511754Y1882197D01*
Y1742538D01*
X5511753Y1742537D01*
X5514858Y1726930D01*
X5523699Y1713699D01*
X5545105Y1692293D01*
X5546467Y1689004D01*
X5546505Y1688815D01*
X5546611Y1688655D01*
X5551821Y1676078D01*
X5565183Y1662716D01*
X5582641Y1655485D01*
X5601538D01*
X5618996Y1662716D01*
X5619477Y1663198D01*
X5634477Y1656984D01*
Y1625187D01*
X5560074Y1550784D01*
X5524215D01*
X5514192Y1565784D01*
X5515670Y1569353D01*
Y1588250D01*
X5508439Y1605708D01*
X5495077Y1619070D01*
X5477619Y1626301D01*
X5458722D01*
X5446145Y1621092D01*
X5445956Y1621054D01*
X5445796Y1620947D01*
X5442508Y1619585D01*
X4978802D01*
X4963194Y1616481D01*
X4949963Y1607640D01*
X4949963Y1607639D01*
X4849308Y1506984D01*
X4846019Y1505622D01*
X4845831Y1505585D01*
X4845671Y1505478D01*
X4833093Y1500268D01*
X4819732Y1486906D01*
X4812500Y1469448D01*
Y1450552D01*
X4819732Y1433093D01*
X4832574Y1420251D01*
X4819749Y1407426D01*
X4806907Y1420268D01*
X4789448Y1427500D01*
X4770552D01*
X4753094Y1420268D01*
X4739732Y1406907D01*
X4732500Y1389448D01*
Y1370552D01*
X4739732Y1353094D01*
X4752574Y1340251D01*
X4504357Y1092033D01*
X3925882D01*
X3919668Y1107033D01*
X3926184Y1113549D01*
X3933416Y1131007D01*
Y1149904D01*
X3930439Y1157089D01*
X3927254Y1172006D01*
X3940615Y1185368D01*
X3947847Y1202826D01*
Y1221722D01*
X3940615Y1239181D01*
X3927254Y1252542D01*
X3928229Y1268374D01*
X3928254Y1268385D01*
X3941616Y1281746D01*
X3948847Y1299205D01*
Y1318101D01*
X3941616Y1335559D01*
X3928254Y1348921D01*
X3910796Y1356153D01*
X3891899D01*
X3874441Y1348921D01*
X3861079Y1335559D01*
X3853848Y1318101D01*
Y1299205D01*
X3861079Y1281746D01*
X3874441Y1268385D01*
X3873465Y1252553D01*
X3873440Y1252543D01*
X3860078Y1239181D01*
X3854745Y1226304D01*
X3844718Y1230457D01*
X3825821D01*
X3808363Y1223225D01*
X3795001Y1209863D01*
X3787770Y1192405D01*
Y1173509D01*
X3795001Y1156051D01*
X3808363Y1142689D01*
X3825821Y1135457D01*
X3838416D01*
Y1131007D01*
X3845647Y1113549D01*
X3859009Y1100187D01*
X3873814Y1094055D01*
X3877012Y1086730D01*
X3877779Y1077956D01*
X3377568Y577745D01*
X3365837Y585583D01*
X3339500Y590822D01*
X3264500D01*
X3238163Y585583D01*
X3215836Y570664D01*
X3200917Y548337D01*
X3195678Y522000D01*
Y407000D01*
X3200917Y380663D01*
X3215836Y358336D01*
X3238163Y343417D01*
X3264500Y338178D01*
X3339500D01*
X3365837Y343417D01*
X3388164Y358336D01*
X3403083Y380663D01*
X3408322Y407000D01*
Y495716D01*
X3416068Y500891D01*
X3434678Y519501D01*
X3449678Y513288D01*
Y407000D01*
X3454917Y380663D01*
X3469836Y358336D01*
X3492163Y343417D01*
X3518500Y338178D01*
X3593500D01*
X3618320Y343115D01*
X3621231Y342564D01*
X3633938Y334798D01*
X3634790Y326966D01*
X3607867Y300043D01*
X3605121Y297493D01*
X3603010Y295788D01*
X3602072Y295117D01*
X3593500Y296822D01*
X3518500D01*
X3492163Y291583D01*
X3469836Y276664D01*
X3454917Y254337D01*
X3449678Y228000D01*
Y113000D01*
X3454917Y86663D01*
X3469836Y64336D01*
X3477904Y58944D01*
X3473354Y43944D01*
X3384646D01*
X3380096Y58944D01*
X3388164Y64336D01*
X3403083Y86663D01*
X3408322Y113000D01*
Y228000D01*
X3403083Y254337D01*
X3388164Y276664D01*
X3365837Y291583D01*
X3339500Y296822D01*
X3264500D01*
X3238163Y291583D01*
X3215836Y276664D01*
X3200917Y254337D01*
X3195678Y228000D01*
Y113000D01*
X3200917Y86663D01*
X3215836Y64336D01*
X3223904Y58944D01*
X3219354Y43944D01*
X3130646D01*
X3126096Y58944D01*
X3134164Y64336D01*
X3149083Y86663D01*
X3154322Y113000D01*
Y228000D01*
X3149083Y254337D01*
X3134164Y276664D01*
X3111837Y291583D01*
X3085500Y296822D01*
X3010500D01*
X2984163Y291583D01*
X2961836Y276664D01*
X2946917Y254337D01*
X2941678Y228000D01*
Y113000D01*
X2946917Y86663D01*
X2961836Y64336D01*
X2969904Y58944D01*
X2965354Y43944D01*
X2876646D01*
X2872096Y58944D01*
X2880164Y64336D01*
X2895083Y86663D01*
X2900322Y113000D01*
Y228000D01*
X2895083Y254337D01*
X2880164Y276664D01*
X2857837Y291583D01*
X2831500Y296822D01*
X2756500D01*
X2730163Y291583D01*
X2707836Y276664D01*
X2692917Y254337D01*
X2687678Y228000D01*
Y113000D01*
X2692917Y86663D01*
X2707836Y64336D01*
X2715904Y58944D01*
X2711354Y43944D01*
X2622646D01*
X2618096Y58944D01*
X2626164Y64336D01*
X2641083Y86663D01*
X2646322Y113000D01*
Y228000D01*
X2641083Y254337D01*
X2626164Y276664D01*
X2603837Y291583D01*
X2577500Y296822D01*
X2502500D01*
X2476163Y291583D01*
X2453836Y276664D01*
X2438917Y254337D01*
X2433678Y228000D01*
Y113000D01*
X2438917Y86663D01*
X2453836Y64336D01*
X2461904Y58944D01*
X2457354Y43944D01*
X2368646D01*
X2364096Y58944D01*
X2372164Y64336D01*
X2387083Y86663D01*
X2392322Y113000D01*
Y228000D01*
X2387083Y254337D01*
X2372164Y276664D01*
X2349837Y291583D01*
X2323500Y296822D01*
X2248500D01*
X2222163Y291583D01*
X2199836Y276664D01*
X2184917Y254337D01*
X2179678Y228000D01*
Y113000D01*
X2184917Y86663D01*
X2199836Y64336D01*
X2207904Y58944D01*
X2203354Y43944D01*
X2123646D01*
X2119096Y58944D01*
X2121769Y60731D01*
X2137793Y84712D01*
X2143420Y113000D01*
Y160500D01*
X1920580D01*
Y113000D01*
X1926207Y84712D01*
X1942231Y60731D01*
X1944904Y58944D01*
X1940354Y43944D01*
X1371600D01*
X1369643Y43555D01*
X1317066Y50477D01*
X1266249Y71526D01*
X1222611Y105011D01*
X1189126Y148649D01*
X1168077Y199466D01*
X1161155Y252043D01*
X1161544Y254000D01*
Y1924556D01*
X1841500D01*
Y1923962D01*
X1899742Y1929699D01*
X1955745Y1946687D01*
X2007359Y1974275D01*
X2052598Y2011402D01*
X2089725Y2056641D01*
X2117313Y2108255D01*
X2134301Y2164258D01*
X2140038Y2222500D01*
X2139444D01*
Y3746500D01*
X2140038D01*
X2134301Y3804742D01*
X2117313Y3860745D01*
X2089725Y3912359D01*
X2052598Y3957598D01*
X2007359Y3994725D01*
X1955745Y4022313D01*
X1899742Y4039301D01*
X1841500Y4045038D01*
Y4044444D01*
X1161544D01*
Y5207000D01*
X1161155Y5208958D01*
X1168077Y5261534D01*
X1189126Y5312351D01*
X1222610Y5355989D01*
X1266248Y5389474D01*
X1317066Y5410523D01*
X1357121Y5415796D01*
X1371600Y5417055D01*
Y5417056D01*
X1940354D01*
X1944904Y5402056D01*
X1942231Y5400269D01*
X1926207Y5376288D01*
X1920580Y5348000D01*
Y5300500D01*
X2143420D01*
Y5348000D01*
X2137793Y5376288D01*
X2121769Y5400269D01*
X2119096Y5402056D01*
X2123646Y5417056D01*
X2203354D01*
X2207904Y5402056D01*
X2199836Y5396664D01*
X2184917Y5374337D01*
X2179678Y5348000D01*
Y5233000D01*
X2184917Y5206663D01*
X2199836Y5184336D01*
X2222163Y5169417D01*
X2248500Y5164178D01*
X2323500D01*
X2349837Y5169417D01*
X2372164Y5184336D01*
X2387083Y5206663D01*
X2392322Y5233000D01*
Y5348000D01*
X2387083Y5374337D01*
X2372164Y5396664D01*
X2364096Y5402056D01*
X2368646Y5417056D01*
X2457354D01*
X2461904Y5402056D01*
X2453836Y5396664D01*
X2438917Y5374337D01*
X2433678Y5348000D01*
Y5233000D01*
X2438917Y5206663D01*
X2453836Y5184336D01*
X2476163Y5169417D01*
X2502500Y5164178D01*
X2577500D01*
X2603837Y5169417D01*
X2626164Y5184336D01*
X2641083Y5206663D01*
X2646322Y5233000D01*
Y5348000D01*
X2641083Y5374337D01*
X2626164Y5396664D01*
X2618096Y5402056D01*
X2622646Y5417056D01*
X2711354D01*
X2715904Y5402056D01*
X2707836Y5396664D01*
X2692917Y5374337D01*
X2687678Y5348000D01*
Y5233000D01*
X2692917Y5206663D01*
X2707836Y5184336D01*
X2730163Y5169417D01*
X2756500Y5164178D01*
X2831500D01*
X2857837Y5169417D01*
X2880164Y5184336D01*
X2895083Y5206663D01*
X2900322Y5233000D01*
Y5348000D01*
X2895083Y5374337D01*
X2880164Y5396664D01*
X2872096Y5402056D01*
X2876646Y5417056D01*
X2965354D01*
X2969904Y5402056D01*
X2961836Y5396664D01*
X2946917Y5374337D01*
X2941678Y5348000D01*
Y5233000D01*
X2946917Y5206663D01*
X2961836Y5184336D01*
X2984163Y5169417D01*
X3010500Y5164178D01*
X3085500D01*
X3111837Y5169417D01*
X3134164Y5184336D01*
X3149083Y5206663D01*
X3154322Y5233000D01*
Y5348000D01*
X3149083Y5374337D01*
X3134164Y5396664D01*
X3126096Y5402056D01*
X3130646Y5417056D01*
X3219354D01*
X3223904Y5402056D01*
X3215836Y5396664D01*
X3200917Y5374337D01*
X3195678Y5348000D01*
Y5233000D01*
X3200917Y5206663D01*
X3215836Y5184336D01*
X3238163Y5169417D01*
X3264500Y5164178D01*
X3339500D01*
X3365837Y5169417D01*
X3388164Y5184336D01*
X3403083Y5206663D01*
X3408322Y5233000D01*
Y5348000D01*
X3403083Y5374337D01*
X3388164Y5396664D01*
X3380096Y5402056D01*
X3384646Y5417056D01*
X3473354D01*
X3477904Y5402056D01*
X3469836Y5396664D01*
X3454917Y5374337D01*
X3449678Y5348000D01*
Y5233000D01*
X3454917Y5206663D01*
X3469836Y5184336D01*
X3492163Y5169417D01*
X3518500Y5164178D01*
X3593500D01*
X3619837Y5169417D01*
X3642164Y5184336D01*
X3657083Y5206663D01*
X3662322Y5233000D01*
Y5348000D01*
X3657083Y5374337D01*
X3642164Y5396664D01*
X3634096Y5402056D01*
X3638646Y5417056D01*
X3727354D01*
X3731904Y5402056D01*
X3723836Y5396664D01*
X3708917Y5374337D01*
X3703678Y5348000D01*
Y5233000D01*
X3708917Y5206663D01*
X3723836Y5184336D01*
X3746163Y5169417D01*
X3772500Y5164178D01*
X3847500D01*
X3873837Y5169417D01*
X3896164Y5184336D01*
X3911083Y5206663D01*
X3916322Y5233000D01*
Y5348000D01*
X3911083Y5374337D01*
X3896164Y5396664D01*
X3888096Y5402056D01*
X3892646Y5417056D01*
X3981354D01*
X3985904Y5402056D01*
X3977836Y5396664D01*
X3962917Y5374337D01*
X3957678Y5348000D01*
Y5233000D01*
X3962917Y5206663D01*
X3977836Y5184336D01*
X4000163Y5169417D01*
X4026500Y5164178D01*
X4101500D01*
X4105252Y5164924D01*
X4106382Y5164337D01*
X4108668Y5162914D01*
X4111171Y5161117D01*
X4117287Y5155932D01*
X4144048Y5129171D01*
X4143457Y5125187D01*
X4127976Y5117651D01*
X4127185Y5117713D01*
X4101500Y5122822D01*
X4026500D01*
X4000163Y5117583D01*
X3977836Y5102664D01*
X3962917Y5080337D01*
X3957678Y5054000D01*
Y4939000D01*
X3962917Y4912663D01*
X3977836Y4890336D01*
X4000163Y4875417D01*
X4026500Y4870178D01*
X4101500D01*
X4127837Y4875417D01*
X4139549Y4883243D01*
X4154549Y4875225D01*
Y4622224D01*
X4139549Y4613316D01*
X4129448Y4617500D01*
X4110552D01*
X4093093Y4610268D01*
X4079731Y4596906D01*
X4072500Y4579448D01*
Y4560552D01*
X4079731Y4543094D01*
X4093093Y4529732D01*
X4110552Y4522500D01*
X4129448D01*
X4139549Y4526684D01*
X4154549Y4517776D01*
Y2342191D01*
X3918216Y2105858D01*
X2915423D01*
X2790641Y2230640D01*
X2776583Y2240034D01*
X2760000Y2243332D01*
X2520000D01*
X2503417Y2240034D01*
X2489359Y2230640D01*
X1779359Y1520640D01*
X1769966Y1506582D01*
X1766668Y1490000D01*
Y1168252D01*
X1769966Y1151669D01*
X1779359Y1137611D01*
X1912347Y1004624D01*
X1916514Y994563D01*
X1929876Y981201D01*
X1947334Y973969D01*
X1966231D01*
X1983689Y981201D01*
X1997051Y994563D01*
X2004282Y1012021D01*
Y1030917D01*
X1997051Y1048376D01*
X1983689Y1061738D01*
X1973628Y1065905D01*
X1853332Y1186200D01*
Y1421047D01*
X1862652Y1427275D01*
X1881548D01*
X1899007Y1434506D01*
X1912369Y1447868D01*
X1919600Y1465326D01*
Y1479087D01*
X2557180Y2116668D01*
X2722051D01*
X2846834Y1991885D01*
X2860892Y1982492D01*
X2877475Y1979193D01*
X3952734D01*
X3969316Y1982492D01*
X3983374Y1991885D01*
X4290641Y2299152D01*
X4300034Y2313209D01*
X4303333Y2329792D01*
Y4870178D01*
X4335331D01*
X4342500Y4859448D01*
Y4840552D01*
X4349732Y4823093D01*
X4363094Y4809732D01*
X4380552Y4802500D01*
X4399448D01*
X4416907Y4809732D01*
X4430269Y4823093D01*
X4437500Y4840552D01*
Y4859448D01*
X4430269Y4876906D01*
X4416907Y4890268D01*
X4412914Y4903430D01*
X4419083Y4912663D01*
X4424322Y4939000D01*
Y5054000D01*
X4419083Y5080337D01*
X4404164Y5102664D01*
X4381837Y5117583D01*
X4355500Y5122822D01*
X4280500D01*
X4256214Y5117991D01*
X4247151Y5121332D01*
X4241214Y5124505D01*
Y5136618D01*
X4237916Y5153201D01*
X4228522Y5167259D01*
X4224754Y5171027D01*
X4234316Y5182678D01*
X4254163Y5169417D01*
X4280500Y5164178D01*
X4355500D01*
X4381837Y5169417D01*
X4404164Y5184336D01*
X4419083Y5206663D01*
X4424322Y5233000D01*
Y5348000D01*
X4419083Y5374337D01*
X4404164Y5396664D01*
X4396096Y5402056D01*
X4400646Y5417056D01*
X4489354D01*
X4493904Y5402056D01*
X4485836Y5396664D01*
X4470917Y5374337D01*
X4465678Y5348000D01*
Y5233000D01*
X4470917Y5206663D01*
X4485836Y5184336D01*
X4508163Y5169417D01*
X4534500Y5164178D01*
X4609500D01*
X4635837Y5169417D01*
X4658164Y5184336D01*
X4673083Y5206663D01*
X4678322Y5233000D01*
Y5348000D01*
X4673083Y5374337D01*
X4658164Y5396664D01*
X4650096Y5402056D01*
X4654646Y5417056D01*
X4743354D01*
X4747904Y5402056D01*
X4739836Y5396664D01*
X4724917Y5374337D01*
X4719678Y5348000D01*
Y5233000D01*
X4724917Y5206663D01*
X4739836Y5184336D01*
X4762163Y5169417D01*
X4788500Y5164178D01*
X4863500D01*
X4889837Y5169417D01*
X4912164Y5184336D01*
X4927083Y5206663D01*
X4932322Y5233000D01*
Y5348000D01*
X4927083Y5374337D01*
X4912164Y5396664D01*
X4904096Y5402056D01*
X4908646Y5417056D01*
X4997354D01*
X5001904Y5402056D01*
X4993836Y5396664D01*
X4978917Y5374337D01*
X4973678Y5348000D01*
Y5233000D01*
X4978917Y5206663D01*
X4993836Y5184336D01*
X5016163Y5169417D01*
X5042500Y5164178D01*
X5117500D01*
X5143837Y5169417D01*
X5166164Y5184336D01*
X5181083Y5206663D01*
X5186322Y5233000D01*
Y5348000D01*
X5181083Y5374337D01*
X5166164Y5396664D01*
X5158096Y5402056D01*
X5162646Y5417056D01*
X5251354D01*
X5255904Y5402056D01*
X5247836Y5396664D01*
X5232917Y5374337D01*
X5227678Y5348000D01*
Y5233000D01*
X5232917Y5206663D01*
X5247836Y5184336D01*
X5270163Y5169417D01*
X5296500Y5164178D01*
X5371500D01*
X5397837Y5169417D01*
X5420164Y5184336D01*
X5435083Y5206663D01*
X5440322Y5233000D01*
Y5348000D01*
X5435083Y5374337D01*
X5420164Y5396664D01*
X5412096Y5402056D01*
X5416646Y5417056D01*
X5505354D01*
X5509904Y5402056D01*
X5501836Y5396664D01*
X5486917Y5374337D01*
X5481678Y5348000D01*
Y5233000D01*
X5486917Y5206663D01*
X5501836Y5184336D01*
X5524163Y5169417D01*
X5550500Y5164178D01*
X5625500D01*
X5651837Y5169417D01*
X5674164Y5184336D01*
X5689083Y5206663D01*
X5694322Y5233000D01*
Y5348000D01*
X5689083Y5374337D01*
X5674164Y5396664D01*
X5666096Y5402056D01*
X5670646Y5417056D01*
X5759354D01*
X5763904Y5402056D01*
X5755836Y5396664D01*
X5740917Y5374337D01*
X5735678Y5348000D01*
Y5233000D01*
X5740917Y5206663D01*
X5755836Y5184336D01*
X5778163Y5169417D01*
X5804500Y5164178D01*
X5879500D01*
X5905837Y5169417D01*
X5928164Y5184336D01*
X5943083Y5206663D01*
X5948322Y5233000D01*
Y5348000D01*
X5943083Y5374337D01*
X5928164Y5396664D01*
X5920096Y5402056D01*
X5924646Y5417056D01*
X6013354D01*
X6017904Y5402056D01*
X6009836Y5396664D01*
X5994917Y5374337D01*
X5989678Y5348000D01*
Y5233000D01*
X5994917Y5206663D01*
X6009836Y5184336D01*
X6032163Y5169417D01*
X6058500Y5164178D01*
X6133500D01*
X6159837Y5169417D01*
X6182164Y5184336D01*
X6197083Y5206663D01*
X6202322Y5233000D01*
Y5348000D01*
X6197083Y5374337D01*
X6182164Y5396664D01*
X6174096Y5402056D01*
X6178646Y5417056D01*
X6267354D01*
X6271904Y5402056D01*
X6263836Y5396664D01*
X6248917Y5374337D01*
X6243678Y5348000D01*
Y5233000D01*
X6248917Y5206663D01*
X6263836Y5184336D01*
X6286163Y5169417D01*
X6312500Y5164178D01*
X6387500D01*
X6413837Y5169417D01*
X6436164Y5184336D01*
X6451083Y5206663D01*
X6456322Y5233000D01*
Y5348000D01*
X6451083Y5374337D01*
X6436164Y5396664D01*
X6428096Y5402056D01*
X6432646Y5417056D01*
X6521354D01*
X6525904Y5402056D01*
X6517836Y5396664D01*
X6502917Y5374337D01*
X6497678Y5348000D01*
Y5233000D01*
X6502917Y5206663D01*
X6517836Y5184336D01*
X6540163Y5169417D01*
X6566500Y5164178D01*
X6641500D01*
X6667837Y5169417D01*
X6690164Y5184336D01*
X6705083Y5206663D01*
X6710322Y5233000D01*
Y5348000D01*
X6705083Y5374337D01*
X6690164Y5396664D01*
X6682096Y5402056D01*
X6686646Y5417056D01*
X6775354D01*
X6779904Y5402056D01*
X6771836Y5396664D01*
X6756917Y5374337D01*
X6751678Y5348000D01*
Y5233000D01*
X6756917Y5206663D01*
X6771836Y5184336D01*
X6794163Y5169417D01*
X6820500Y5164178D01*
X6895500D01*
X6921837Y5169417D01*
X6944164Y5184336D01*
X6959083Y5206663D01*
X6964322Y5233000D01*
Y5348000D01*
X6959083Y5374337D01*
X6944164Y5396664D01*
X6936096Y5402056D01*
X6940646Y5417056D01*
X7029354D01*
X7033904Y5402056D01*
X7025836Y5396664D01*
X7010917Y5374337D01*
X7005678Y5348000D01*
Y5233000D01*
X7010917Y5206663D01*
X7025836Y5184336D01*
X7048163Y5169417D01*
X7074500Y5164178D01*
X7149500D01*
X7175837Y5169417D01*
X7198164Y5184336D01*
X7213083Y5206663D01*
X7218322Y5233000D01*
Y5348000D01*
X7213083Y5374337D01*
X7198164Y5396664D01*
X7190096Y5402056D01*
X7194646Y5417056D01*
X7283354D01*
X7287904Y5402056D01*
X7279836Y5396664D01*
X7264917Y5374337D01*
X7259678Y5348000D01*
Y5233000D01*
X7264917Y5206663D01*
X7279836Y5184336D01*
X7302163Y5169417D01*
X7328500Y5164178D01*
X7403500D01*
X7429837Y5169417D01*
X7452164Y5184336D01*
X7467083Y5206663D01*
X7472322Y5233000D01*
Y5348000D01*
X7467083Y5374337D01*
X7452164Y5396664D01*
X7444096Y5402056D01*
X7448646Y5417056D01*
X7537354D01*
X7541904Y5402056D01*
X7533836Y5396664D01*
X7518917Y5374337D01*
X7513678Y5348000D01*
Y5233000D01*
X7518917Y5206663D01*
X7533836Y5184336D01*
X7556163Y5169417D01*
X7582500Y5164178D01*
X7657500D01*
X7683837Y5169417D01*
X7706164Y5184336D01*
X7721083Y5206663D01*
X7726322Y5233000D01*
Y5348000D01*
X7721083Y5374337D01*
X7706164Y5396664D01*
X7698096Y5402056D01*
X7702646Y5417056D01*
X8379531D01*
X8381527Y5417453D01*
X8434462Y5410484D01*
D02*
G37*
G36*
X6693235Y4828391D02*
X6692556Y4827215D01*
X6691957Y4825966D01*
X6691438Y4824642D01*
X6690999Y4823244D01*
X6690639Y4821772D01*
X6690359Y4820225D01*
X6690160Y4818604D01*
X6690000Y4815139D01*
X6670000D01*
X6669960Y4816908D01*
X6669641Y4820225D01*
X6669361Y4821772D01*
X6669002Y4823244D01*
X6668562Y4824642D01*
X6668043Y4825966D01*
X6667444Y4827215D01*
X6666765Y4828391D01*
X6666007Y4829491D01*
X6693993D01*
X6693235Y4828391D01*
D02*
G37*
G36*
X7212246Y4704171D02*
X7210896Y4704000D01*
X7209554Y4703712D01*
X7208219Y4703308D01*
X7206892Y4702787D01*
X7205573Y4702150D01*
X7204261Y4701396D01*
X7202956Y4700526D01*
X7201659Y4699539D01*
X7200370Y4698436D01*
X7199089Y4697217D01*
X7185960Y4712372D01*
X7187218Y4713678D01*
X7189403Y4716242D01*
X7190330Y4717499D01*
X7191146Y4718741D01*
X7191852Y4719966D01*
X7192446Y4721176D01*
X7192930Y4722369D01*
X7193303Y4723546D01*
X7193566Y4724707D01*
X7212246Y4704171D01*
D02*
G37*
G36*
X8324832Y4666302D02*
X8323731Y4667060D01*
X8322556Y4667739D01*
X8321307Y4668338D01*
X8319983Y4668857D01*
X8318585Y4669296D01*
X8317113Y4669656D01*
X8315566Y4669936D01*
X8313945Y4670135D01*
X8310479Y4670295D01*
Y4690295D01*
X8312249Y4690335D01*
X8315566Y4690654D01*
X8317113Y4690934D01*
X8318585Y4691293D01*
X8319983Y4691733D01*
X8321307Y4692252D01*
X8322556Y4692851D01*
X8323731Y4693530D01*
X8324832Y4694288D01*
Y4666302D01*
D02*
G37*
G36*
X8185415Y4625001D02*
X8184162Y4624748D01*
X8182905Y4624387D01*
X8181644Y4623916D01*
X8180378Y4623335D01*
X8179109Y4622645D01*
X8177835Y4621845D01*
X8176557Y4620936D01*
X8175275Y4619917D01*
X8172698Y4617551D01*
X8158134Y4631270D01*
X8159355Y4632550D01*
X8161460Y4635127D01*
X8162346Y4636425D01*
X8163119Y4637729D01*
X8163780Y4639038D01*
X8164329Y4640354D01*
X8164767Y4641675D01*
X8165092Y4643003D01*
X8165306Y4644336D01*
X8185415Y4625001D01*
D02*
G37*
G36*
X8328612Y4614452D02*
X8327511Y4615210D01*
X8326336Y4615889D01*
X8325087Y4616488D01*
X8323763Y4617008D01*
X8322365Y4617447D01*
X8320892Y4617806D01*
X8319346Y4618086D01*
X8317725Y4618285D01*
X8314259Y4618445D01*
Y4638445D01*
X8316029Y4638485D01*
X8319346Y4638805D01*
X8320892Y4639084D01*
X8322365Y4639444D01*
X8323763Y4639883D01*
X8325087Y4640402D01*
X8326336Y4641001D01*
X8327511Y4641680D01*
X8328612Y4642439D01*
Y4614452D01*
D02*
G37*
G36*
X7552464Y4462674D02*
X7551149Y4462433D01*
X7549838Y4462082D01*
X7548531Y4461622D01*
X7547228Y4461053D01*
X7545929Y4460375D01*
X7544634Y4459588D01*
X7543342Y4458692D01*
X7542055Y4457687D01*
X7539491Y4455349D01*
X7525349Y4469491D01*
X7526572Y4470771D01*
X7528692Y4473342D01*
X7529588Y4474634D01*
X7530375Y4475929D01*
X7531053Y4477228D01*
X7531622Y4478531D01*
X7532082Y4479838D01*
X7532432Y4481149D01*
X7532674Y4482464D01*
X7552464Y4462674D01*
D02*
G37*
G36*
X7217567Y4481149D02*
X7217918Y4479838D01*
X7218378Y4478531D01*
X7218947Y4477228D01*
X7219625Y4475929D01*
X7220412Y4474634D01*
X7221308Y4473342D01*
X7222313Y4472055D01*
X7224651Y4469491D01*
X7210509Y4455349D01*
X7209229Y4456572D01*
X7206658Y4458692D01*
X7205366Y4459588D01*
X7204071Y4460375D01*
X7202772Y4461053D01*
X7201469Y4461622D01*
X7200162Y4462082D01*
X7198851Y4462433D01*
X7197536Y4462674D01*
X7217326Y4482464D01*
X7217567Y4481149D01*
D02*
G37*
G36*
X8200630Y4423083D02*
X8200292Y4422881D01*
X8199715Y4422426D01*
X8197843Y4420753D01*
X8186475Y4409643D01*
X8172243Y4423696D01*
X8173470Y4425000D01*
X8174544Y4426305D01*
X8175468Y4427614D01*
X8176239Y4428924D01*
X8176858Y4430238D01*
X8177326Y4431553D01*
X8177642Y4432871D01*
X8177807Y4434192D01*
X8177820Y4435515D01*
X8177681Y4436840D01*
X8200630Y4423083D01*
D02*
G37*
G36*
X7038234Y4372307D02*
X7036919Y4372065D01*
X7035608Y4371714D01*
X7034301Y4371254D01*
X7032998Y4370685D01*
X7031698Y4370008D01*
X7030403Y4369220D01*
X7029112Y4368325D01*
X7027824Y4367319D01*
X7025261Y4364982D01*
X7011119Y4379124D01*
X7012342Y4380404D01*
X7014461Y4382975D01*
X7015357Y4384266D01*
X7016144Y4385561D01*
X7016822Y4386861D01*
X7017391Y4388164D01*
X7017851Y4389471D01*
X7018202Y4390782D01*
X7018444Y4392097D01*
X7038234Y4372307D01*
D02*
G37*
G36*
X8216383Y4372173D02*
X8215068Y4371932D01*
X8213757Y4371581D01*
X8212450Y4371121D01*
X8211147Y4370552D01*
X8209847Y4369874D01*
X8208552Y4369087D01*
X8207261Y4368191D01*
X8205973Y4367186D01*
X8203410Y4364848D01*
X8189268Y4378990D01*
X8190491Y4380270D01*
X8192610Y4382841D01*
X8193506Y4384133D01*
X8194293Y4385428D01*
X8194971Y4386727D01*
X8195540Y4388030D01*
X8196000Y4389337D01*
X8196351Y4390648D01*
X8196593Y4391963D01*
X8216383Y4372173D01*
D02*
G37*
G36*
X8336292Y4371776D02*
X8334977Y4371534D01*
X8333666Y4371183D01*
X8332359Y4370723D01*
X8331056Y4370154D01*
X8329757Y4369476D01*
X8328462Y4368689D01*
X8327170Y4367793D01*
X8325883Y4366788D01*
X8323319Y4364451D01*
X8309177Y4378593D01*
X8310400Y4379872D01*
X8312520Y4382443D01*
X8313416Y4383735D01*
X8314203Y4385030D01*
X8314881Y4386329D01*
X8315450Y4387633D01*
X8315910Y4388939D01*
X8316260Y4390250D01*
X8316502Y4391565D01*
X8336292Y4371776D01*
D02*
G37*
G36*
X6626215Y4340245D02*
X6624900Y4340003D01*
X6623589Y4339652D01*
X6622282Y4339192D01*
X6620979Y4338623D01*
X6619680Y4337945D01*
X6618385Y4337158D01*
X6617093Y4336262D01*
X6615806Y4335257D01*
X6613243Y4332919D01*
X6599100Y4347062D01*
X6600324Y4348341D01*
X6602443Y4350912D01*
X6603339Y4352204D01*
X6604126Y4353499D01*
X6604804Y4354798D01*
X6605373Y4356102D01*
X6605833Y4357408D01*
X6606184Y4358719D01*
X6606425Y4360034D01*
X6626215Y4340245D01*
D02*
G37*
G36*
X7303235Y4208391D02*
X7302556Y4207215D01*
X7301957Y4205966D01*
X7301438Y4204642D01*
X7300998Y4203244D01*
X7300639Y4201772D01*
X7300359Y4200225D01*
X7300160Y4198604D01*
X7300000Y4195139D01*
X7280000D01*
X7279960Y4196908D01*
X7279641Y4200225D01*
X7279361Y4201772D01*
X7279001Y4203244D01*
X7278562Y4204642D01*
X7278043Y4205966D01*
X7277444Y4207215D01*
X7276765Y4208391D01*
X7276007Y4209491D01*
X7303993D01*
X7303235Y4208391D01*
D02*
G37*
G36*
X8213405Y4134668D02*
X8203189Y4134402D01*
X8200452Y4154402D01*
X8202183Y4154410D01*
X8208936Y4154827D01*
X8209457Y4154957D01*
X8209805Y4155104D01*
X8209981Y4155269D01*
X8213405Y4134668D01*
D02*
G37*
G36*
X6729491Y4126007D02*
X6728391Y4126765D01*
X6727215Y4127444D01*
X6725966Y4128043D01*
X6724642Y4128562D01*
X6723244Y4129002D01*
X6721772Y4129361D01*
X6720225Y4129641D01*
X6718604Y4129840D01*
X6715139Y4130000D01*
Y4150000D01*
X6716908Y4150040D01*
X6720225Y4150359D01*
X6721772Y4150639D01*
X6723244Y4150999D01*
X6724642Y4151438D01*
X6725966Y4151957D01*
X6727215Y4152556D01*
X6728391Y4153235D01*
X6729491Y4153993D01*
Y4126007D01*
D02*
G37*
G36*
X7223235Y4118391D02*
X7222556Y4117216D01*
X7221957Y4115966D01*
X7221438Y4114643D01*
X7220999Y4113245D01*
X7220639Y4111772D01*
X7220359Y4110225D01*
X7220160Y4108604D01*
X7220000Y4105139D01*
X7200000D01*
X7199960Y4106908D01*
X7199641Y4110225D01*
X7199361Y4111772D01*
X7199002Y4113245D01*
X7198562Y4114643D01*
X7198043Y4115966D01*
X7197444Y4117216D01*
X7196765Y4118391D01*
X7196007Y4119491D01*
X7223993D01*
X7223235Y4118391D01*
D02*
G37*
G36*
X8212614Y4072696D02*
X8211334Y4072448D01*
X8210053Y4072091D01*
X8208771Y4071625D01*
X8207490Y4071049D01*
X8206207Y4070364D01*
X8204923Y4069569D01*
X8203640Y4068666D01*
X8202355Y4067653D01*
X8199784Y4065299D01*
X8185403Y4079203D01*
X8186625Y4080482D01*
X8188736Y4083057D01*
X8189626Y4084352D01*
X8190406Y4085653D01*
X8191074Y4086959D01*
X8191632Y4088270D01*
X8192080Y4089586D01*
X8192417Y4090908D01*
X8192644Y4092235D01*
X8212614Y4072696D01*
D02*
G37*
G36*
X8201022Y4007788D02*
X8200542Y4007822D01*
X8199968Y4007708D01*
X8199302Y4007447D01*
X8198542Y4007038D01*
X8197688Y4006483D01*
X8196742Y4005780D01*
X8194570Y4003932D01*
X8192025Y4001495D01*
X8180313Y4018068D01*
X8187789Y4026298D01*
X8201022Y4007788D01*
D02*
G37*
G36*
X8198412Y3948731D02*
X8197091Y3948494D01*
X8195775Y3948146D01*
X8194464Y3947689D01*
X8193157Y3947123D01*
X8191855Y3946448D01*
X8190557Y3945663D01*
X8189264Y3944769D01*
X8187976Y3943766D01*
X8186692Y3942653D01*
X8185413Y3941431D01*
X8171344Y3955645D01*
X8172569Y3956927D01*
X8174693Y3959498D01*
X8175591Y3960787D01*
X8176381Y3962078D01*
X8177061Y3963373D01*
X8177632Y3964669D01*
X8178094Y3965969D01*
X8178447Y3967271D01*
X8178691Y3968576D01*
X8198412Y3948731D01*
D02*
G37*
G36*
X7220040Y3823092D02*
X7220359Y3819775D01*
X7220639Y3818228D01*
X7220999Y3816756D01*
X7221438Y3815358D01*
X7221957Y3814034D01*
X7222556Y3812785D01*
X7223235Y3811609D01*
X7223993Y3810509D01*
X7196007D01*
X7196765Y3811609D01*
X7197444Y3812785D01*
X7198043Y3814034D01*
X7198562Y3815358D01*
X7199002Y3816756D01*
X7199361Y3818228D01*
X7199641Y3819775D01*
X7199840Y3821396D01*
X7200000Y3824861D01*
X7220000D01*
X7220040Y3823092D01*
D02*
G37*
G36*
X7020807Y3752863D02*
X7020128Y3751688D01*
X7019529Y3750439D01*
X7019010Y3749115D01*
X7018570Y3747717D01*
X7018211Y3746244D01*
X7017931Y3744698D01*
X7017732Y3743077D01*
X7017572Y3739611D01*
X6997572D01*
X6997532Y3741381D01*
X6997213Y3744698D01*
X6996933Y3746244D01*
X6996574Y3747717D01*
X6996134Y3749115D01*
X6995615Y3750439D01*
X6995016Y3751688D01*
X6994337Y3752863D01*
X6993579Y3753964D01*
X7021565D01*
X7020807Y3752863D01*
D02*
G37*
G36*
X8319491Y3706007D02*
X8318391Y3706765D01*
X8317216Y3707444D01*
X8315966Y3708043D01*
X8314643Y3708562D01*
X8313244Y3709001D01*
X8311772Y3709361D01*
X8310225Y3709641D01*
X8308604Y3709840D01*
X8305139Y3710000D01*
Y3730000D01*
X8306908Y3730040D01*
X8310225Y3730359D01*
X8311772Y3730639D01*
X8313244Y3730998D01*
X8314643Y3731438D01*
X8315966Y3731957D01*
X8317216Y3732556D01*
X8318391Y3733235D01*
X8319491Y3733993D01*
Y3706007D01*
D02*
G37*
G36*
X8192464Y3702674D02*
X8191149Y3702433D01*
X8189838Y3702082D01*
X8188531Y3701622D01*
X8187228Y3701053D01*
X8185929Y3700375D01*
X8184634Y3699588D01*
X8183342Y3698692D01*
X8182055Y3697687D01*
X8179491Y3695349D01*
X8165349Y3709491D01*
X8166572Y3710771D01*
X8168692Y3713342D01*
X8169588Y3714634D01*
X8170375Y3715929D01*
X8171053Y3717228D01*
X8171622Y3718531D01*
X8172082Y3719838D01*
X8172432Y3721149D01*
X8172674Y3722464D01*
X8192464Y3702674D01*
D02*
G37*
G36*
X6913981Y3804020D02*
X6905542Y3795581D01*
X6898311Y3778123D01*
Y3759227D01*
X6905542Y3741768D01*
X6918904Y3728407D01*
X6936363Y3721175D01*
X6955259D01*
X6966788Y3713471D01*
Y3644465D01*
X6769308Y3446984D01*
X6766021Y3445623D01*
X6765830Y3445585D01*
X6765669Y3445477D01*
X6753093Y3440268D01*
X6739732Y3426907D01*
X6734522Y3414329D01*
X6734415Y3414169D01*
X6734377Y3413981D01*
X6733015Y3410692D01*
X6664007Y3341684D01*
X6650149Y3347424D01*
Y3408375D01*
X6651511Y3411664D01*
X6651618Y3411824D01*
X6651656Y3412012D01*
X6656865Y3424590D01*
Y3443486D01*
X6649634Y3460944D01*
X6636272Y3474306D01*
X6618814Y3481538D01*
X6599917D01*
X6582459Y3474306D01*
X6569097Y3460944D01*
X6561866Y3443486D01*
Y3424590D01*
X6567075Y3412012D01*
X6567113Y3411824D01*
X6567220Y3411664D01*
X6568582Y3408375D01*
Y3306259D01*
X6377939Y3115616D01*
X6369098Y3102384D01*
X6365993Y3086777D01*
X6365994Y3086776D01*
Y2823671D01*
X6314641Y2772318D01*
X6300783Y2778058D01*
Y3612813D01*
X6314641Y3618554D01*
X6322249Y3610946D01*
X6338788Y3599895D01*
X6358297Y3596015D01*
X6377806Y3599895D01*
X6389930Y3607996D01*
X6403866Y3614140D01*
X6422058Y3601984D01*
X6443518Y3597715D01*
X6464978Y3601984D01*
X6483171Y3614140D01*
X6495327Y3632332D01*
X6499596Y3653792D01*
Y3730046D01*
X6514596Y3736259D01*
X6518623Y3732232D01*
X6536081Y3725000D01*
X6554978D01*
X6565566Y3713150D01*
X6567030Y3709616D01*
X6567364Y3693519D01*
X6554002Y3680157D01*
X6546771Y3662699D01*
Y3643802D01*
X6554002Y3626344D01*
X6567364Y3612982D01*
X6584822Y3605751D01*
X6603719D01*
X6621177Y3612982D01*
X6634539Y3626344D01*
X6635557Y3628802D01*
X6651157Y3627266D01*
X6653902Y3613464D01*
X6666058Y3595271D01*
X6684251Y3583116D01*
X6705711Y3578847D01*
X6727171Y3583116D01*
X6745363Y3595271D01*
X6757519Y3613464D01*
X6761788Y3634924D01*
Y3722483D01*
X6810985Y3771680D01*
X6823142Y3789873D01*
X6826114Y3804817D01*
X6831596Y3819020D01*
X6907768D01*
X6913981Y3804020D01*
D02*
G37*
G36*
X8341254Y3556240D02*
X8339939Y3555998D01*
X8338628Y3555648D01*
X8337321Y3555188D01*
X8336018Y3554619D01*
X8334719Y3553941D01*
X8333424Y3553154D01*
X8332132Y3552258D01*
X8330845Y3551253D01*
X8328282Y3548915D01*
X8314139Y3563058D01*
X8315363Y3564337D01*
X8317482Y3566908D01*
X8318378Y3568200D01*
X8319165Y3569495D01*
X8319843Y3570794D01*
X8320412Y3572098D01*
X8320872Y3573405D01*
X8321222Y3574715D01*
X8321464Y3576030D01*
X8341254Y3556240D01*
D02*
G37*
G36*
X8265637Y3542899D02*
X8264322Y3542657D01*
X8263011Y3542306D01*
X8261705Y3541846D01*
X8260401Y3541277D01*
X8259102Y3540599D01*
X8257807Y3539812D01*
X8256515Y3538916D01*
X8255228Y3537911D01*
X8252665Y3535574D01*
X8238523Y3549716D01*
X8239746Y3550996D01*
X8241865Y3553567D01*
X8242761Y3554858D01*
X8243548Y3556153D01*
X8244226Y3557453D01*
X8244795Y3558756D01*
X8245255Y3560063D01*
X8245606Y3561374D01*
X8245848Y3562689D01*
X8265637Y3542899D01*
D02*
G37*
G36*
X8367950Y3521603D02*
X8368301Y3520292D01*
X8368761Y3518985D01*
X8369330Y3517682D01*
X8370008Y3516383D01*
X8370795Y3515087D01*
X8371691Y3513796D01*
X8372696Y3512508D01*
X8375033Y3509945D01*
X8360891Y3495803D01*
X8359611Y3497026D01*
X8357040Y3499145D01*
X8355749Y3500042D01*
X8354454Y3500828D01*
X8353154Y3501506D01*
X8351851Y3502075D01*
X8350544Y3502535D01*
X8349233Y3502886D01*
X8347918Y3503128D01*
X8367708Y3522918D01*
X8367950Y3521603D01*
D02*
G37*
G36*
X8275981Y3485396D02*
X8275302Y3484221D01*
X8274703Y3482972D01*
X8274184Y3481648D01*
X8273744Y3480250D01*
X8273385Y3478778D01*
X8273105Y3477231D01*
X8272906Y3475610D01*
X8272746Y3472144D01*
X8252746D01*
X8252706Y3473914D01*
X8252387Y3477231D01*
X8252107Y3478778D01*
X8251748Y3480250D01*
X8251308Y3481648D01*
X8250789Y3482972D01*
X8250190Y3484221D01*
X8249511Y3485396D01*
X8248753Y3486497D01*
X8276739D01*
X8275981Y3485396D01*
D02*
G37*
G36*
X6622600Y3422429D02*
X6621921Y3421253D01*
X6621322Y3420004D01*
X6620803Y3418680D01*
X6620364Y3417282D01*
X6620005Y3415810D01*
X6619725Y3414263D01*
X6619525Y3412642D01*
X6619365Y3409177D01*
X6599366D01*
X6599326Y3410946D01*
X6599006Y3414263D01*
X6598726Y3415810D01*
X6598367Y3417282D01*
X6597928Y3418680D01*
X6597409Y3420004D01*
X6596810Y3421253D01*
X6596131Y3422429D01*
X6595372Y3423529D01*
X6623359D01*
X6622600Y3422429D01*
D02*
G37*
G36*
X6804651Y3410509D02*
X6803427Y3409229D01*
X6801308Y3406658D01*
X6800412Y3405367D01*
X6799625Y3404071D01*
X6798947Y3402772D01*
X6798378Y3401469D01*
X6797918Y3400162D01*
X6797568Y3398851D01*
X6797326Y3397536D01*
X6777536Y3417326D01*
X6778851Y3417568D01*
X6780161Y3417918D01*
X6781469Y3418378D01*
X6782772Y3418947D01*
X6784071Y3419625D01*
X6785366Y3420412D01*
X6786658Y3421308D01*
X6787945Y3422313D01*
X6790508Y3424651D01*
X6804651Y3410509D01*
D02*
G37*
G36*
X6782464Y3382674D02*
X6781149Y3382433D01*
X6779838Y3382082D01*
X6778531Y3381622D01*
X6777228Y3381053D01*
X6775929Y3380375D01*
X6774634Y3379588D01*
X6773342Y3378692D01*
X6772055Y3377687D01*
X6769491Y3375349D01*
X6755349Y3389492D01*
X6756572Y3390771D01*
X6758692Y3393342D01*
X6759588Y3394634D01*
X6760375Y3395929D01*
X6761053Y3397228D01*
X6761622Y3398531D01*
X6762082Y3399838D01*
X6762432Y3401149D01*
X6762674Y3402464D01*
X6782464Y3382674D01*
D02*
G37*
G36*
X7458693Y3237769D02*
Y2745313D01*
X7436287Y2722907D01*
X7433000Y2721545D01*
X7432809Y2721507D01*
X7432648Y2721399D01*
X7420072Y2716190D01*
X7406710Y2702828D01*
X7399479Y2685370D01*
Y2666474D01*
X7405791Y2651235D01*
X7403211Y2648655D01*
X7395979Y2631197D01*
Y2612300D01*
X7403211Y2594842D01*
X7416572Y2581480D01*
X7415520Y2565680D01*
X7413139Y2564694D01*
X7399777Y2551332D01*
X7392546Y2533874D01*
Y2514977D01*
X7399777Y2497519D01*
X7406740Y2490556D01*
X7404013Y2483972D01*
Y2465075D01*
X7411244Y2447617D01*
X7424606Y2434255D01*
X7442064Y2427024D01*
X7460961D01*
X7478419Y2434255D01*
X7491781Y2447617D01*
X7499012Y2465075D01*
Y2483972D01*
X7491781Y2501430D01*
X7484818Y2508393D01*
X7485523Y2510095D01*
X7485631Y2510256D01*
X7485669Y2510446D01*
X7487030Y2513733D01*
X7516971Y2543674D01*
X7530829Y2537934D01*
Y2350260D01*
X7430054Y2249484D01*
X7426767Y2248123D01*
X7426576Y2248085D01*
X7426415Y2247977D01*
X7413840Y2242768D01*
X7400478Y2229407D01*
X7393246Y2211948D01*
Y2193052D01*
X7400478Y2175594D01*
X7413840Y2162232D01*
X7415589Y2161507D01*
Y2145717D01*
X7422820Y2128258D01*
X7434674Y2116404D01*
X7433228Y2107106D01*
X7430862Y2100864D01*
X7418709Y2095830D01*
X7405347Y2082468D01*
X7398116Y2065010D01*
Y2046113D01*
X7402620Y2035239D01*
X7399498Y2032117D01*
X7392267Y2014659D01*
Y1995763D01*
X7399498Y1978304D01*
X7402019Y1975783D01*
X7395806Y1960783D01*
X7018966D01*
X7013272Y1969305D01*
Y1988202D01*
X7006041Y2005660D01*
X6992679Y2019022D01*
X6975220Y2026253D01*
X6956324D01*
X6938866Y2019022D01*
X6925504Y2005660D01*
X6918272Y1988202D01*
Y1969305D01*
X6912579Y1960783D01*
X6702354D01*
X6418520Y2244618D01*
X6418224Y2246105D01*
X6409383Y2259337D01*
X6409382Y2259337D01*
X6389661Y2279058D01*
X6388300Y2282345D01*
X6388262Y2282536D01*
X6388154Y2282697D01*
X6382945Y2295273D01*
X6369583Y2308634D01*
X6352125Y2315866D01*
X6333228D01*
X6315770Y2308634D01*
X6302408Y2295273D01*
X6295177Y2277814D01*
Y2258918D01*
X6297100Y2254275D01*
X6289732Y2246906D01*
X6282500Y2229448D01*
Y2210552D01*
X6289732Y2193093D01*
X6303094Y2179731D01*
X6308965Y2177299D01*
X6311612Y2159967D01*
X6304104Y2152459D01*
X6296873Y2135001D01*
Y2116104D01*
X6303442Y2100243D01*
X6295101Y2091902D01*
X6287869Y2074444D01*
Y2055547D01*
X6295101Y2038089D01*
X6308463Y2024727D01*
X6325921Y2017496D01*
X6333222D01*
X6344373Y2005220D01*
Y1986323D01*
X6351604Y1968865D01*
X6364966Y1955503D01*
X6382424Y1948272D01*
X6401321D01*
X6418779Y1955503D01*
X6432141Y1968865D01*
X6439372Y1986323D01*
Y2005220D01*
X6432141Y2022678D01*
X6418779Y2036040D01*
X6401321Y2043271D01*
X6394020D01*
X6382869Y2055548D01*
Y2074444D01*
X6389768Y2084769D01*
X6407554D01*
X6591382Y1900941D01*
X6585642Y1887083D01*
X6428751D01*
X6419939Y1895896D01*
X6406708Y1904736D01*
X6391100Y1907841D01*
X6391099Y1907841D01*
X6363705D01*
X6360416Y1909203D01*
X6360256Y1909310D01*
X6360068Y1909347D01*
X6347490Y1914557D01*
X6328594D01*
X6311136Y1907326D01*
X6297774Y1893964D01*
X6290542Y1876506D01*
Y1857609D01*
X6295275Y1846183D01*
X6290950Y1841858D01*
X6283719Y1824400D01*
Y1805504D01*
X6290950Y1788045D01*
X6304312Y1774684D01*
X6310389Y1772166D01*
Y1755930D01*
X6309072Y1755385D01*
X6295710Y1742023D01*
X6288479Y1724564D01*
Y1705668D01*
X6295710Y1688210D01*
X6309072Y1674848D01*
X6326530Y1667616D01*
X6345427D01*
X6362885Y1674848D01*
X6367041Y1679003D01*
X6373594Y1680307D01*
X6386825Y1689148D01*
X6468193Y1770516D01*
X7013509D01*
X7014947Y1768622D01*
X7019051Y1755516D01*
X6687188Y1423653D01*
X6588784D01*
X6588715Y1423662D01*
X6588617Y1423702D01*
X6586855Y1424565D01*
X6586476Y1424589D01*
X6579448Y1427500D01*
X6560552D01*
X6543094Y1420268D01*
X6529732Y1406907D01*
X6522500Y1389448D01*
Y1370552D01*
X6523505Y1368125D01*
X6510512Y1355132D01*
X6503281Y1337673D01*
Y1318777D01*
X6510512Y1301319D01*
X6523874Y1287957D01*
X6541332Y1280725D01*
X6560228D01*
X6565580Y1266867D01*
X6557051Y1263334D01*
X6543689Y1249972D01*
X6536458Y1232514D01*
Y1213618D01*
X6543689Y1196159D01*
X6557051Y1182797D01*
X6574509Y1175566D01*
X6593406D01*
X6610864Y1182797D01*
X6624226Y1196159D01*
X6629435Y1208736D01*
X6629542Y1208896D01*
X6629580Y1209085D01*
X6630942Y1212374D01*
X6636152Y1217584D01*
X6648055Y1219951D01*
X6661286Y1228792D01*
X6812320Y1379825D01*
X6826178Y1374085D01*
Y1208854D01*
X6751158Y1133835D01*
X6634348D01*
X6618741Y1130730D01*
X6605510Y1121890D01*
X6605510Y1121889D01*
X6417459Y933838D01*
X6403720Y936571D01*
X6390359Y949933D01*
X6372901Y957164D01*
X6354004D01*
X6336546Y949933D01*
X6323184Y936571D01*
X6315953Y919112D01*
Y915617D01*
X6300953Y912633D01*
X6300268Y914286D01*
X6286906Y927648D01*
X6269448Y934879D01*
X6250551D01*
X6233093Y927648D01*
X6219731Y914286D01*
X6212500Y896828D01*
Y877931D01*
X6213814Y874758D01*
X6205481Y862286D01*
X6128204D01*
X6055840Y934650D01*
X6065402Y946301D01*
X6070491Y942901D01*
X6090000Y939020D01*
X6109509Y942901D01*
X6126048Y953952D01*
X6137099Y970491D01*
X6140980Y990000D01*
Y1401575D01*
X6140252Y1405232D01*
Y1665764D01*
X6141363Y1666506D01*
X6160259D01*
X6177718Y1673738D01*
X6191080Y1687100D01*
X6198311Y1704558D01*
Y1723455D01*
X6191080Y1740913D01*
X6177718Y1754275D01*
X6160259Y1761506D01*
X6141363D01*
X6123905Y1754275D01*
X6115863Y1746233D01*
X6046153Y1815943D01*
X6038794Y1826957D01*
X6027781Y1834316D01*
X5958844Y1903252D01*
X5942305Y1914303D01*
X5922796Y1918183D01*
X5882276D01*
Y2164706D01*
X5882492Y2166668D01*
X5983236D01*
X5993297Y2162501D01*
X6012194D01*
X6029652Y2169732D01*
X6043014Y2183094D01*
X6050245Y2200552D01*
Y2219449D01*
X6043014Y2236907D01*
X6029652Y2250269D01*
X6012194Y2257500D01*
X5993297D01*
X5983236Y2253333D01*
X5875705D01*
X5867344Y2265845D01*
X5866661Y2284664D01*
X5945097Y2363101D01*
X6173883D01*
X6173884Y2363100D01*
X6189492Y2366205D01*
X6202723Y2375046D01*
X6336893Y2509216D01*
X6464337D01*
X6467626Y2507854D01*
X6467786Y2507747D01*
X6467975Y2507710D01*
X6480552Y2502500D01*
X6499448D01*
X6516906Y2509732D01*
X6530268Y2523094D01*
X6537500Y2540552D01*
Y2544466D01*
X6656808D01*
X6660097Y2543103D01*
X6660257Y2542996D01*
X6660445Y2542959D01*
X6673022Y2537749D01*
X6691919D01*
X6709377Y2544981D01*
X6722739Y2558343D01*
X6729971Y2575801D01*
Y2594697D01*
X6722739Y2612156D01*
X6713646Y2621249D01*
X6717500Y2630552D01*
Y2649448D01*
X6710269Y2666907D01*
X6700480Y2676695D01*
X6710940Y2687155D01*
X6718172Y2704613D01*
Y2723510D01*
X6710940Y2740968D01*
X6710784Y2741125D01*
Y2802443D01*
X6725784Y2808617D01*
X6740552Y2802500D01*
X6759449D01*
X6776907Y2809732D01*
X6790269Y2823094D01*
X6797500Y2840552D01*
Y2859448D01*
X6790269Y2876907D01*
X6778033Y2889143D01*
X6775381Y2893622D01*
X6773045Y2905368D01*
X6799461Y2931784D01*
X6813319Y2926044D01*
Y2618242D01*
X6806948Y2613985D01*
X6788052D01*
X6770594Y2606753D01*
X6757232Y2593391D01*
X6750000Y2575933D01*
Y2557037D01*
X6757232Y2539578D01*
X6770594Y2526216D01*
X6788052Y2518985D01*
X6806948D01*
X6813319Y2514728D01*
Y2234988D01*
X6804177Y2226957D01*
X6790268Y2226907D01*
X6776906Y2240268D01*
X6759448Y2247500D01*
X6740552D01*
X6723093Y2240268D01*
X6709732Y2226906D01*
X6702500Y2209448D01*
Y2190552D01*
X6709732Y2173093D01*
X6717450Y2165375D01*
X6722825Y2159065D01*
X6717489Y2145817D01*
X6713102Y2141430D01*
X6705871Y2123971D01*
Y2105075D01*
X6713102Y2087617D01*
X6718671Y2082048D01*
X6719836Y2062000D01*
X6719126Y2061290D01*
X6711894Y2043832D01*
Y2024935D01*
X6719126Y2007477D01*
X6732488Y1994115D01*
X6749946Y1986884D01*
X6768842D01*
X6786301Y1994115D01*
X6799663Y2007477D01*
X6804872Y2020054D01*
X6804979Y2020214D01*
X6805017Y2020403D01*
X6806379Y2023692D01*
X6922173Y2139486D01*
X6922173Y2139486D01*
X6931014Y2152718D01*
X6931428Y2154798D01*
X6948095Y2161702D01*
X6948540Y2161404D01*
X6970000Y2157135D01*
X7033213D01*
X7033502Y2157193D01*
X7100347Y2090347D01*
X7118540Y2078191D01*
X7140000Y2073923D01*
X7161460Y2078191D01*
X7179653Y2090347D01*
X7191809Y2108540D01*
X7196078Y2130000D01*
X7191809Y2151460D01*
X7179653Y2169653D01*
X7096440Y2252865D01*
X7096078Y2253108D01*
Y2565000D01*
Y2588431D01*
X7096077Y2588433D01*
Y2829988D01*
X7091809Y2851448D01*
X7079653Y2869641D01*
X7040576Y2908717D01*
X7022383Y2920873D01*
X7000924Y2925141D01*
X6998812Y2924721D01*
X6995259Y2928235D01*
X6993203Y2943027D01*
X7049393Y2999217D01*
X7189999D01*
X7190000Y2999216D01*
X7205607Y3002321D01*
X7218838Y3011162D01*
X7435141Y3227464D01*
X7435142Y3227465D01*
X7443694Y3240264D01*
X7444852Y3240523D01*
X7458693Y3237769D01*
D02*
G37*
G36*
X6964651Y2958009D02*
X6963428Y2956729D01*
X6961308Y2954158D01*
X6960412Y2952867D01*
X6959625Y2951571D01*
X6958947Y2950272D01*
X6958379Y2948969D01*
X6957919Y2947662D01*
X6957568Y2946351D01*
X6957326Y2945036D01*
X6937536Y2964826D01*
X6938851Y2965068D01*
X6940162Y2965419D01*
X6941469Y2965878D01*
X6942772Y2966447D01*
X6944071Y2967125D01*
X6945367Y2967912D01*
X6946658Y2968808D01*
X6947945Y2969813D01*
X6950509Y2972151D01*
X6964651Y2958009D01*
D02*
G37*
G36*
X6680043Y2737600D02*
X6680383Y2734290D01*
X6680681Y2732749D01*
X6681065Y2731283D01*
X6681533Y2729893D01*
X6682087Y2728580D01*
X6682726Y2727341D01*
X6683449Y2726178D01*
X6684258Y2725091D01*
X6656430Y2724232D01*
X6657109Y2725273D01*
X6657715Y2726399D01*
X6658251Y2727609D01*
X6658715Y2728903D01*
X6659108Y2730281D01*
X6659429Y2731743D01*
X6659679Y2733289D01*
X6659964Y2736633D01*
X6660000Y2738431D01*
X6680000Y2739368D01*
X6680043Y2737600D01*
D02*
G37*
G36*
X7859216Y3821275D02*
Y2679325D01*
X7840783D01*
Y3826999D01*
X7844216Y3829293D01*
X7859216Y3821275D01*
D02*
G37*
G36*
X7471629Y2686430D02*
X7470406Y2685151D01*
X7468287Y2682580D01*
X7467391Y2681289D01*
X7466604Y2679993D01*
X7465926Y2678694D01*
X7465357Y2677391D01*
X7464897Y2676084D01*
X7464546Y2674773D01*
X7464305Y2673458D01*
X7444514Y2693248D01*
X7445829Y2693490D01*
X7447140Y2693840D01*
X7448447Y2694300D01*
X7449751Y2694869D01*
X7451050Y2695547D01*
X7452345Y2696334D01*
X7453637Y2697230D01*
X7454924Y2698235D01*
X7457487Y2700573D01*
X7471629Y2686430D01*
D02*
G37*
G36*
X8061136Y3095578D02*
X8069977Y3082346D01*
X8090459Y3061864D01*
X8087406Y3043704D01*
X8077281Y3033578D01*
X8070049Y3016120D01*
Y2997223D01*
X8077281Y2979765D01*
X8090642Y2966403D01*
X8108101Y2959172D01*
X8119872D01*
X8128462Y2956245D01*
X8133730Y2945724D01*
Y2935554D01*
X8140961Y2918096D01*
X8154323Y2904734D01*
X8171781Y2897503D01*
X8190678D01*
X8208136Y2904734D01*
X8221498Y2918096D01*
X8232116Y2920208D01*
X8275380Y2876943D01*
Y2641534D01*
X8260380Y2636690D01*
X8250443Y2646627D01*
X8232985Y2653859D01*
X8214088D01*
X8196630Y2646627D01*
X8187415Y2637412D01*
X8173877Y2637152D01*
X8169408Y2639001D01*
X8157945Y2650464D01*
X8140487Y2657695D01*
X8121591D01*
X8104132Y2650464D01*
X8090770Y2637102D01*
X8083539Y2619644D01*
Y2600747D01*
X8090770Y2583289D01*
X8104132Y2569927D01*
X8121591Y2562696D01*
X8140487D01*
X8157945Y2569927D01*
X8167161Y2579143D01*
X8180698Y2579403D01*
X8185168Y2577553D01*
X8196630Y2566091D01*
X8214088Y2558859D01*
X8232985D01*
X8250443Y2566091D01*
X8260380Y2576028D01*
X8275380Y2571184D01*
Y2292554D01*
X8243302Y2260476D01*
X8232381Y2265000D01*
X8113000D01*
Y2275000D01*
X8103000D01*
Y2388945D01*
X8085920D01*
X8082937Y2403945D01*
X8096907Y2409731D01*
X8110269Y2423093D01*
X8117500Y2440551D01*
Y2459448D01*
X8110269Y2476906D01*
X8096907Y2490268D01*
X8079448Y2497499D01*
X8060552D01*
X8058255Y2496548D01*
X8045783Y2504882D01*
Y3095875D01*
X8060621Y3098167D01*
X8061136Y3095578D01*
D02*
G37*
G36*
X6671962Y2571256D02*
X6670861Y2572014D01*
X6669686Y2572693D01*
X6668437Y2573292D01*
X6667113Y2573811D01*
X6665715Y2574251D01*
X6664243Y2574610D01*
X6662696Y2574890D01*
X6661075Y2575089D01*
X6657609Y2575249D01*
Y2595249D01*
X6659379Y2595289D01*
X6662696Y2595608D01*
X6664243Y2595888D01*
X6665715Y2596248D01*
X6667113Y2596687D01*
X6668437Y2597206D01*
X6669686Y2597805D01*
X6670861Y2598484D01*
X6671962Y2599242D01*
Y2571256D01*
D02*
G37*
G36*
X6479491Y2536007D02*
X6478391Y2536765D01*
X6477215Y2537444D01*
X6475966Y2538043D01*
X6474642Y2538562D01*
X6473244Y2539002D01*
X6471772Y2539361D01*
X6470225Y2539641D01*
X6468604Y2539840D01*
X6465139Y2540000D01*
Y2560000D01*
X6466908Y2560040D01*
X6470225Y2560359D01*
X6471772Y2560639D01*
X6473244Y2560998D01*
X6474642Y2561438D01*
X6475966Y2561957D01*
X6477215Y2562556D01*
X6478391Y2563235D01*
X6479491Y2563993D01*
Y2536007D01*
D02*
G37*
G36*
X7464696Y2534934D02*
X7463473Y2533654D01*
X7461354Y2531083D01*
X7460458Y2529792D01*
X7459671Y2528497D01*
X7458993Y2527197D01*
X7458424Y2525894D01*
X7457964Y2524587D01*
X7457613Y2523276D01*
X7457371Y2521961D01*
X7437581Y2541751D01*
X7438896Y2541993D01*
X7440207Y2542344D01*
X7441514Y2542804D01*
X7442817Y2543373D01*
X7444117Y2544051D01*
X7445412Y2544838D01*
X7446703Y2545734D01*
X7447991Y2546739D01*
X7450554Y2549076D01*
X7464696Y2534934D01*
D02*
G37*
G36*
X6360244Y2269515D02*
X6360595Y2268205D01*
X6361055Y2266897D01*
X6361624Y2265594D01*
X6362302Y2264295D01*
X6363089Y2263000D01*
X6363985Y2261708D01*
X6364990Y2260421D01*
X6367327Y2257858D01*
X6353185Y2243715D01*
X6351906Y2244939D01*
X6349335Y2247058D01*
X6348043Y2247954D01*
X6346748Y2248741D01*
X6345449Y2249419D01*
X6344145Y2249988D01*
X6342838Y2250448D01*
X6341527Y2250798D01*
X6340212Y2251040D01*
X6360003Y2270830D01*
X6360244Y2269515D01*
D02*
G37*
G36*
X5607972Y2214879D02*
X5608292Y2211562D01*
X5608571Y2210015D01*
X5608931Y2208543D01*
X5609370Y2207145D01*
X5609889Y2205821D01*
X5610488Y2204572D01*
X5611167Y2203397D01*
X5611926Y2202296D01*
X5583939D01*
X5584698Y2203397D01*
X5585377Y2204572D01*
X5585976Y2205821D01*
X5586495Y2207145D01*
X5586934Y2208543D01*
X5587293Y2210015D01*
X5587573Y2211562D01*
X5587773Y2213183D01*
X5587932Y2216649D01*
X5607932D01*
X5607972Y2214879D01*
D02*
G37*
G36*
X7465397Y2213009D02*
X7464174Y2211729D01*
X7462054Y2209158D01*
X7461158Y2207867D01*
X7460371Y2206571D01*
X7459693Y2205272D01*
X7459125Y2203969D01*
X7458665Y2202662D01*
X7458314Y2201351D01*
X7458072Y2200036D01*
X7438282Y2219826D01*
X7439597Y2220068D01*
X7440908Y2220418D01*
X7442215Y2220878D01*
X7443518Y2221447D01*
X7444817Y2222125D01*
X7446113Y2222912D01*
X7447404Y2223808D01*
X7448691Y2224813D01*
X7451255Y2227151D01*
X7465397Y2213009D01*
D02*
G37*
G36*
X5992237Y2196007D02*
X5991757Y2196291D01*
X5991111Y2196545D01*
X5990300Y2196769D01*
X5989324Y2196963D01*
X5988183Y2197127D01*
X5985405Y2197366D01*
X5979998Y2197501D01*
Y2222501D01*
X5981966Y2222515D01*
X5989324Y2223038D01*
X5990300Y2223233D01*
X5991111Y2223456D01*
X5991757Y2223710D01*
X5992237Y2223994D01*
Y2196007D01*
D02*
G37*
G36*
X5851546Y2228411D02*
X5852296Y2227171D01*
X5853546Y2226076D01*
X5855296Y2225127D01*
X5857546Y2224324D01*
X5860296Y2223668D01*
X5863546Y2223157D01*
X5871546Y2222573D01*
X5876296Y2222500D01*
Y2197500D01*
X5871546Y2197100D01*
X5867296Y2195900D01*
X5863546Y2193900D01*
X5860296Y2191100D01*
X5857546Y2187500D01*
X5855296Y2183100D01*
X5853546Y2177900D01*
X5852296Y2171900D01*
X5851546Y2165100D01*
X5851296Y2157500D01*
X5811296Y2210000D01*
X5851296Y2229798D01*
X5851546Y2228411D01*
D02*
G37*
G36*
X6778021Y2125032D02*
X6776798Y2123752D01*
X6774679Y2121181D01*
X6773783Y2119889D01*
X6772996Y2118594D01*
X6772318Y2117295D01*
X6771749Y2115992D01*
X6771289Y2114685D01*
X6770938Y2113374D01*
X6770696Y2112059D01*
X6750907Y2131849D01*
X6752222Y2132090D01*
X6753533Y2132441D01*
X6754839Y2132901D01*
X6756143Y2133470D01*
X6757442Y2134148D01*
X6758737Y2134935D01*
X6760029Y2135831D01*
X6761316Y2136836D01*
X6763879Y2139174D01*
X6778021Y2125032D01*
D02*
G37*
G36*
X6355982Y2138787D02*
X6357157Y2138108D01*
X6358406Y2137509D01*
X6359730Y2136990D01*
X6361128Y2136551D01*
X6362600Y2136191D01*
X6364147Y2135912D01*
X6365768Y2135712D01*
X6369234Y2135552D01*
Y2115552D01*
X6367464Y2115512D01*
X6364147Y2115193D01*
X6362600Y2114913D01*
X6361128Y2114554D01*
X6359730Y2114115D01*
X6358406Y2113595D01*
X6357157Y2112997D01*
X6355982Y2112318D01*
X6354881Y2111559D01*
Y2139546D01*
X6355982Y2138787D01*
D02*
G37*
G36*
X5585598Y2135033D02*
X5588169Y2132914D01*
X5589460Y2132018D01*
X5590755Y2131231D01*
X5592055Y2130553D01*
X5593358Y2129984D01*
X5594665Y2129524D01*
X5595976Y2129173D01*
X5597291Y2128931D01*
X5577501Y2109142D01*
X5577259Y2110457D01*
X5576908Y2111767D01*
X5576448Y2113074D01*
X5575879Y2114378D01*
X5575201Y2115677D01*
X5574414Y2116972D01*
X5573518Y2118263D01*
X5572513Y2119551D01*
X5570176Y2122114D01*
X5584318Y2136256D01*
X5585598Y2135033D01*
D02*
G37*
G36*
X7470266Y2066070D02*
X7469043Y2064790D01*
X7466923Y2062219D01*
X7466027Y2060928D01*
X7465240Y2059633D01*
X7464562Y2058333D01*
X7463993Y2057030D01*
X7463533Y2055723D01*
X7463183Y2054412D01*
X7462941Y2053097D01*
X7443151Y2072887D01*
X7444466Y2073129D01*
X7445777Y2073480D01*
X7447084Y2073940D01*
X7448387Y2074509D01*
X7449686Y2075187D01*
X7450982Y2075974D01*
X7452273Y2076870D01*
X7453561Y2077875D01*
X7456124Y2080212D01*
X7470266Y2066070D01*
D02*
G37*
G36*
X6784045Y2044892D02*
X6782822Y2043613D01*
X6780702Y2041042D01*
X6779806Y2039750D01*
X6779019Y2038455D01*
X6778341Y2037156D01*
X6777772Y2035852D01*
X6777312Y2034546D01*
X6776962Y2033235D01*
X6776720Y2031920D01*
X6756930Y2051709D01*
X6758245Y2051951D01*
X6759556Y2052302D01*
X6760863Y2052762D01*
X6762166Y2053331D01*
X6763465Y2054009D01*
X6764760Y2054796D01*
X6766052Y2055692D01*
X6767340Y2056697D01*
X6769903Y2059034D01*
X6784045Y2044892D01*
D02*
G37*
G36*
X6349652Y1880292D02*
X6350827Y1879613D01*
X6352076Y1879014D01*
X6353400Y1878495D01*
X6354798Y1878056D01*
X6356270Y1877696D01*
X6357817Y1877417D01*
X6359438Y1877217D01*
X6362903Y1877057D01*
Y1857057D01*
X6361134Y1857017D01*
X6357817Y1856698D01*
X6356270Y1856418D01*
X6354798Y1856059D01*
X6353400Y1855620D01*
X6352076Y1855100D01*
X6350827Y1854501D01*
X6349652Y1853823D01*
X6348551Y1853064D01*
Y1881051D01*
X6349652Y1880292D01*
D02*
G37*
G36*
X5609762Y1791187D02*
X5610081Y1787870D01*
X5610361Y1786324D01*
X5610721Y1784851D01*
X5611160Y1783453D01*
X5611679Y1782129D01*
X5612278Y1780880D01*
X5612957Y1779705D01*
X5613715Y1778604D01*
X5585729D01*
X5586487Y1779705D01*
X5587166Y1780880D01*
X5587765Y1782129D01*
X5588284Y1783453D01*
X5588724Y1784851D01*
X5589083Y1786324D01*
X5589363Y1787870D01*
X5589562Y1789491D01*
X5589722Y1792957D01*
X5609722D01*
X5609762Y1791187D01*
D02*
G37*
G36*
X5582861Y1726412D02*
X5585432Y1724293D01*
X5586723Y1723397D01*
X5588018Y1722610D01*
X5589317Y1721932D01*
X5590621Y1721363D01*
X5591928Y1720903D01*
X5593238Y1720552D01*
X5594553Y1720310D01*
X5574764Y1700521D01*
X5574522Y1701836D01*
X5574171Y1703146D01*
X5573711Y1704453D01*
X5573142Y1705757D01*
X5572464Y1707056D01*
X5571677Y1708351D01*
X5570781Y1709643D01*
X5569776Y1710930D01*
X5567439Y1713493D01*
X5581581Y1727635D01*
X5582861Y1726412D01*
D02*
G37*
G36*
X7762182Y1800569D02*
X7766146Y1783320D01*
X7269935Y1287109D01*
X7256077Y1292850D01*
Y1460000D01*
X7251809Y1481460D01*
X7239653Y1499653D01*
X7189653Y1549653D01*
X7188012Y1566320D01*
X7195579Y1574472D01*
X7513746D01*
X7513747Y1574472D01*
X7529354Y1577576D01*
X7542585Y1586417D01*
X7758139Y1801970D01*
X7762182Y1800569D01*
D02*
G37*
G36*
X5457662Y1564808D02*
X5456561Y1565567D01*
X5455386Y1566246D01*
X5454137Y1566845D01*
X5452813Y1567364D01*
X5451415Y1567803D01*
X5449942Y1568162D01*
X5448396Y1568442D01*
X5446774Y1568642D01*
X5443309Y1568802D01*
Y1588801D01*
X5445079Y1588841D01*
X5448396Y1589161D01*
X5449942Y1589441D01*
X5451415Y1589800D01*
X5452813Y1590239D01*
X5454137Y1590758D01*
X5455386Y1591357D01*
X5456561Y1592036D01*
X5457662Y1592795D01*
Y1564808D01*
D02*
G37*
G36*
X4884651Y1470508D02*
X4883427Y1469229D01*
X4881308Y1466658D01*
X4880412Y1465366D01*
X4879625Y1464071D01*
X4878947Y1462772D01*
X4878378Y1461469D01*
X4877918Y1460162D01*
X4877567Y1458851D01*
X4877326Y1457536D01*
X4857536Y1477325D01*
X4858851Y1477567D01*
X4860162Y1477918D01*
X4861469Y1478378D01*
X4862772Y1478947D01*
X4864071Y1479625D01*
X4865366Y1480412D01*
X4866658Y1481308D01*
X4867945Y1482313D01*
X4870508Y1484651D01*
X4884651Y1470508D01*
D02*
G37*
G36*
X6929245Y1441140D02*
X6928153Y1440874D01*
X6927036Y1440495D01*
X6925895Y1440004D01*
X6924728Y1439401D01*
X6923536Y1438687D01*
X6922319Y1437861D01*
X6919809Y1435872D01*
X6918517Y1434710D01*
X6917200Y1433436D01*
X6901620Y1446141D01*
X6902839Y1447424D01*
X6903938Y1448715D01*
X6904918Y1450015D01*
X6905777Y1451324D01*
X6906517Y1452640D01*
X6907137Y1453965D01*
X6907637Y1455298D01*
X6908017Y1456639D01*
X6908278Y1457989D01*
X6908418Y1459347D01*
X6929245Y1441140D01*
D02*
G37*
G36*
X6579787Y1394595D02*
X6580683Y1394233D01*
X6581704Y1393913D01*
X6582851Y1393637D01*
X6584122Y1393402D01*
X6587041Y1393061D01*
X6590461Y1392891D01*
X6592358Y1392870D01*
X6596482Y1372870D01*
X6594707Y1372820D01*
X6593019Y1372672D01*
X6591419Y1372424D01*
X6589906Y1372077D01*
X6588479Y1371630D01*
X6587140Y1371085D01*
X6585888Y1370440D01*
X6584723Y1369697D01*
X6583645Y1368854D01*
X6582654Y1367912D01*
X6579016Y1394999D01*
X6579787Y1394595D01*
D02*
G37*
G36*
X8591183Y2681574D02*
X8591247Y270194D01*
X8591247Y269996D01*
Y255256D01*
X8589999Y240773D01*
X8584683Y200394D01*
X8563507Y149271D01*
X8529821Y105371D01*
X8485921Y71685D01*
X8434798Y50509D01*
X8381926Y43549D01*
X8379938Y43944D01*
X7711646D01*
X7707096Y58944D01*
X7709769Y60731D01*
X7725793Y84712D01*
X7731420Y113000D01*
Y160500D01*
X7508580D01*
Y113000D01*
X7514207Y84712D01*
X7530231Y60731D01*
X7532904Y58944D01*
X7528354Y43944D01*
X7457646D01*
X7453096Y58944D01*
X7455769Y60731D01*
X7471793Y84712D01*
X7477420Y113000D01*
Y160500D01*
X7254580D01*
Y113000D01*
X7260207Y84712D01*
X7276231Y60731D01*
X7278904Y58944D01*
X7274354Y43944D01*
X7194646D01*
X7190096Y58944D01*
X7198164Y64336D01*
X7213083Y86663D01*
X7218322Y113000D01*
Y228000D01*
X7213083Y254337D01*
X7198164Y276664D01*
X7175837Y291583D01*
X7149500Y296822D01*
X7074500D01*
X7048163Y291583D01*
X7025836Y276664D01*
X7010917Y254337D01*
X7005678Y228000D01*
Y113000D01*
X7010917Y86663D01*
X7025836Y64336D01*
X7033904Y58944D01*
X7029354Y43944D01*
X6940646D01*
X6936096Y58944D01*
X6944164Y64336D01*
X6959083Y86663D01*
X6964322Y113000D01*
Y228000D01*
X6959083Y254337D01*
X6944164Y276664D01*
X6921837Y291583D01*
X6895500Y296822D01*
X6820500D01*
X6794163Y291583D01*
X6771836Y276664D01*
X6756917Y254337D01*
X6751678Y228000D01*
Y113000D01*
X6756917Y86663D01*
X6771836Y64336D01*
X6779904Y58944D01*
X6775354Y43944D01*
X6686646D01*
X6682096Y58944D01*
X6690164Y64336D01*
X6705083Y86663D01*
X6710322Y113000D01*
Y228000D01*
X6705083Y254337D01*
X6690164Y276664D01*
X6667837Y291583D01*
X6641500Y296822D01*
X6566500D01*
X6540163Y291583D01*
X6517836Y276664D01*
X6502917Y254337D01*
X6497678Y228000D01*
Y113000D01*
X6502917Y86663D01*
X6517836Y64336D01*
X6525904Y58944D01*
X6521354Y43944D01*
X6432646D01*
X6428096Y58944D01*
X6436164Y64336D01*
X6451083Y86663D01*
X6456322Y113000D01*
Y228000D01*
X6451083Y254337D01*
X6436164Y276664D01*
X6413837Y291583D01*
X6387500Y296822D01*
X6312500D01*
X6286163Y291583D01*
X6263836Y276664D01*
X6248917Y254337D01*
X6243678Y228000D01*
Y113000D01*
X6248917Y86663D01*
X6263836Y64336D01*
X6271904Y58944D01*
X6267354Y43944D01*
X6178646D01*
X6174096Y58944D01*
X6182164Y64336D01*
X6197083Y86663D01*
X6202322Y113000D01*
Y228000D01*
X6197083Y254337D01*
X6182164Y276664D01*
X6159837Y291583D01*
X6133500Y296822D01*
X6058500D01*
X6032163Y291583D01*
X6009836Y276664D01*
X5994917Y254337D01*
X5989678Y228000D01*
Y113000D01*
X5994917Y86663D01*
X6009836Y64336D01*
X6017904Y58944D01*
X6013354Y43944D01*
X5924646D01*
X5920096Y58944D01*
X5928164Y64336D01*
X5943083Y86663D01*
X5948322Y113000D01*
Y228000D01*
X5943083Y254337D01*
X5928164Y276664D01*
X5905837Y291583D01*
X5879500Y296822D01*
X5804500D01*
X5778163Y291583D01*
X5755836Y276664D01*
X5740917Y254337D01*
X5735678Y228000D01*
Y113000D01*
X5740917Y86663D01*
X5755836Y64336D01*
X5763904Y58944D01*
X5759354Y43944D01*
X5670646D01*
X5666096Y58944D01*
X5674164Y64336D01*
X5689083Y86663D01*
X5694322Y113000D01*
Y228000D01*
X5689083Y254337D01*
X5674164Y276664D01*
X5651837Y291583D01*
X5625500Y296822D01*
X5550500D01*
X5524163Y291583D01*
X5501836Y276664D01*
X5486917Y254337D01*
X5481678Y228000D01*
Y113000D01*
X5486917Y86663D01*
X5501836Y64336D01*
X5509904Y58944D01*
X5505354Y43944D01*
X5416646D01*
X5412096Y58944D01*
X5420164Y64336D01*
X5435083Y86663D01*
X5440322Y113000D01*
Y228000D01*
X5435083Y254337D01*
X5420164Y276664D01*
X5397837Y291583D01*
X5371500Y296822D01*
X5296500D01*
X5270163Y291583D01*
X5247836Y276664D01*
X5232917Y254337D01*
X5227678Y228000D01*
Y113000D01*
X5232917Y86663D01*
X5247836Y64336D01*
X5255904Y58944D01*
X5251354Y43944D01*
X5162646D01*
X5158096Y58944D01*
X5166164Y64336D01*
X5181083Y86663D01*
X5186322Y113000D01*
Y228000D01*
X5181083Y254337D01*
X5166164Y276664D01*
X5143837Y291583D01*
X5117500Y296822D01*
X5042500D01*
X5016163Y291583D01*
X4993836Y276664D01*
X4978917Y254337D01*
X4973678Y228000D01*
Y113000D01*
X4978917Y86663D01*
X4993836Y64336D01*
X5001904Y58944D01*
X4997354Y43944D01*
X4908646D01*
X4904096Y58944D01*
X4912164Y64336D01*
X4927083Y86663D01*
X4932322Y113000D01*
Y228000D01*
X4927083Y254337D01*
X4912164Y276664D01*
X4889837Y291583D01*
X4863500Y296822D01*
X4788500D01*
X4762163Y291583D01*
X4739836Y276664D01*
X4724917Y254337D01*
X4719678Y228000D01*
Y113000D01*
X4724917Y86663D01*
X4739836Y64336D01*
X4747904Y58944D01*
X4743354Y43944D01*
X4654646D01*
X4650096Y58944D01*
X4658164Y64336D01*
X4673083Y86663D01*
X4678322Y113000D01*
Y228000D01*
X4673083Y254337D01*
X4658164Y276664D01*
X4635837Y291583D01*
X4609500Y296822D01*
X4534500D01*
X4508163Y291583D01*
X4485836Y276664D01*
X4470917Y254337D01*
X4465678Y228000D01*
Y113000D01*
X4470917Y86663D01*
X4485836Y64336D01*
X4493904Y58944D01*
X4489354Y43944D01*
X4400646D01*
X4396096Y58944D01*
X4404164Y64336D01*
X4419083Y86663D01*
X4424322Y113000D01*
Y228000D01*
X4419083Y254337D01*
X4404164Y276664D01*
X4381837Y291583D01*
X4355500Y296822D01*
X4280500D01*
X4254163Y291583D01*
X4231836Y276664D01*
X4216917Y254337D01*
X4211678Y228000D01*
Y113000D01*
X4216917Y86663D01*
X4231836Y64336D01*
X4239904Y58944D01*
X4235354Y43944D01*
X4146646D01*
X4142096Y58944D01*
X4150164Y64336D01*
X4165083Y86663D01*
X4170322Y113000D01*
Y228000D01*
X4165083Y254337D01*
X4150164Y276664D01*
X4127837Y291583D01*
X4101500Y296822D01*
X4026500D01*
X4000163Y291583D01*
X3977836Y276664D01*
X3962917Y254337D01*
X3957678Y228000D01*
Y113000D01*
X3962917Y86663D01*
X3977836Y64336D01*
X3985904Y58944D01*
X3981354Y43944D01*
X3892646D01*
X3888096Y58944D01*
X3896164Y64336D01*
X3911083Y86663D01*
X3916322Y113000D01*
Y228000D01*
X3911083Y254337D01*
X3896164Y276664D01*
X3873837Y291583D01*
X3847500Y296822D01*
X3772500D01*
X3746163Y291583D01*
X3723836Y276664D01*
X3708917Y254337D01*
X3703678Y228000D01*
Y113000D01*
X3708917Y86663D01*
X3723836Y64336D01*
X3731904Y58944D01*
X3727354Y43944D01*
X3638646D01*
X3634096Y58944D01*
X3642164Y64336D01*
X3657083Y86663D01*
X3662322Y113000D01*
Y228000D01*
X3660617Y236572D01*
X3661065Y237198D01*
X3664980Y241804D01*
X3708838Y285661D01*
X3708838Y285662D01*
X3717679Y298893D01*
X3720784Y314500D01*
X3720784Y314501D01*
Y342334D01*
X3735783Y350352D01*
X3746163Y343417D01*
X3772500Y338178D01*
X3847500D01*
X3873837Y343417D01*
X3896164Y358336D01*
X3911083Y380663D01*
X3916322Y407000D01*
Y522000D01*
X3911083Y548337D01*
X3896164Y570664D01*
X3873837Y585583D01*
X3847500Y590822D01*
X3772500D01*
X3746163Y585583D01*
X3735783Y578648D01*
X3720784Y586666D01*
Y733107D01*
X3956893Y969217D01*
X4271821D01*
X4272000Y968948D01*
Y952242D01*
X4010339D01*
X4010338Y952243D01*
X3994731Y949138D01*
X3981500Y940297D01*
X3920760Y879558D01*
X3917473Y878196D01*
X3917282Y878158D01*
X3917121Y878050D01*
X3904546Y872842D01*
X3891184Y859480D01*
X3883952Y842021D01*
Y823125D01*
X3891184Y805667D01*
X3904546Y792305D01*
X3922004Y785073D01*
X3940900D01*
X3958359Y792305D01*
X3971721Y805667D01*
X3976929Y818242D01*
X3977037Y818403D01*
X3977075Y818594D01*
X3978437Y821881D01*
X4027231Y870675D01*
X4097114D01*
X4102854Y856817D01*
X4072809Y826772D01*
X4069522Y825411D01*
X4069332Y825373D01*
X4069170Y825265D01*
X4056595Y820056D01*
X4043233Y806694D01*
X4036002Y789236D01*
Y770340D01*
X4043233Y752881D01*
X4056595Y739519D01*
X4074053Y732288D01*
X4092950D01*
X4110408Y739519D01*
X4114750Y743862D01*
X4126609Y751013D01*
X4126656Y750982D01*
X4132736Y738213D01*
X4128370Y727671D01*
Y708775D01*
X4135602Y691316D01*
X4148964Y677954D01*
X4166422Y670723D01*
X4185318D01*
X4202776Y677954D01*
X4216138Y691316D01*
X4219434Y699272D01*
X4235669D01*
X4239657Y689645D01*
X4253019Y676283D01*
X4270477Y669051D01*
X4289374D01*
X4306832Y676283D01*
X4320194Y689645D01*
X4327425Y707103D01*
Y726000D01*
X4320194Y743458D01*
X4306832Y756820D01*
X4289374Y764051D01*
X4270477D01*
X4253019Y756820D01*
X4239657Y743458D01*
X4236362Y735502D01*
X4220126D01*
X4216138Y745129D01*
X4202776Y758491D01*
X4185318Y765723D01*
X4166422D01*
X4148964Y758491D01*
X4141914Y751442D01*
X4127920Y758656D01*
X4129087Y765618D01*
X4129122Y765798D01*
X4129125Y765808D01*
X4129185Y765954D01*
X4130486Y769096D01*
X4197066Y835675D01*
X5052500D01*
Y820552D01*
X5059732Y803094D01*
X5073093Y789732D01*
X5090552Y782500D01*
X5109448D01*
X5126906Y789732D01*
X5140464Y793248D01*
X5152030Y781681D01*
X5169488Y774450D01*
X5188385D01*
X5205843Y781681D01*
X5219205Y795043D01*
X5226436Y812502D01*
Y831398D01*
X5219205Y848856D01*
X5205843Y862218D01*
X5188385Y869450D01*
X5169488D01*
X5152030Y862218D01*
X5137662Y863772D01*
X5130792Y878115D01*
X5220468Y967792D01*
X5246887D01*
Y956627D01*
X5254119Y939169D01*
X5267481Y925807D01*
X5284939Y918576D01*
X5303835D01*
X5321294Y925807D01*
X5334656Y939169D01*
X5341887Y956627D01*
Y968363D01*
X5354624Y970896D01*
X5367855Y979737D01*
X5443661Y1055543D01*
X5461355Y1052023D01*
X5462734Y1048693D01*
X5476096Y1035331D01*
X5493554Y1028100D01*
X5509284D01*
X5512321Y1012831D01*
X5513458Y1011129D01*
X5501990Y999661D01*
X5494759Y982203D01*
Y963306D01*
X5501990Y945848D01*
X5515352Y932486D01*
X5527929Y927276D01*
X5528089Y927169D01*
X5528278Y927132D01*
X5531566Y925770D01*
X5820837Y636499D01*
X5820838Y636498D01*
X5834069Y627657D01*
X5849676Y624553D01*
X6419891D01*
X6422371Y620842D01*
Y601945D01*
X6424675Y596382D01*
X6416744Y588479D01*
X6412829Y585784D01*
X6387500Y590822D01*
X6312500D01*
X6286163Y585583D01*
X6263836Y570664D01*
X6248917Y548337D01*
X6243678Y522000D01*
Y407000D01*
X6248917Y380663D01*
X6263836Y358336D01*
X6286163Y343417D01*
X6312500Y338178D01*
X6387500D01*
X6413837Y343417D01*
X6436164Y358336D01*
X6451083Y380663D01*
X6456322Y407000D01*
Y522000D01*
X6451083Y548337D01*
X6448137Y552747D01*
X6458081Y564863D01*
X6460422Y563894D01*
X6479319D01*
X6496777Y571125D01*
X6510139Y584487D01*
X6517371Y601945D01*
Y620842D01*
X6519850Y624553D01*
X6935335D01*
X6935336Y624553D01*
X6942226Y625923D01*
X7111578D01*
Y614758D01*
X7115280Y605822D01*
X7105689Y590822D01*
X7074500D01*
X7048163Y585583D01*
X7025836Y570664D01*
X7010917Y548337D01*
X7005678Y522000D01*
Y407000D01*
X7010917Y380663D01*
X7025836Y358336D01*
X7048163Y343417D01*
X7074500Y338178D01*
X7149500D01*
X7175837Y343417D01*
X7198164Y358336D01*
X7213083Y380663D01*
X7218322Y407000D01*
Y522000D01*
X7213083Y548337D01*
X7198164Y570664D01*
X7195098Y572713D01*
X7193720Y591674D01*
X7199346Y597300D01*
X7206578Y614758D01*
Y633655D01*
X7199346Y651113D01*
X7185985Y664475D01*
X7183689Y676013D01*
X7338838Y831161D01*
X7338839Y831162D01*
X7347679Y844393D01*
X7350784Y860000D01*
Y1184691D01*
X7354211Y1187898D01*
X7365784Y1193271D01*
X7379202Y1187713D01*
X7398099D01*
X7407026Y1191410D01*
X7415582Y1182854D01*
X7433040Y1175623D01*
X7451937D01*
X7469395Y1182854D01*
X7482757Y1196216D01*
X7489988Y1213674D01*
Y1232571D01*
X7482757Y1250029D01*
X7469395Y1263391D01*
X7451937Y1270623D01*
X7439513D01*
X7433299Y1285623D01*
X7985358Y1837682D01*
X7999216Y1831941D01*
Y1386893D01*
X7883107Y1270784D01*
X7663680D01*
X7660391Y1272146D01*
X7660231Y1272253D01*
X7660043Y1272291D01*
X7647466Y1277500D01*
X7628569D01*
X7611111Y1270269D01*
X7597749Y1256907D01*
X7590517Y1239449D01*
Y1220552D01*
X7597749Y1203094D01*
X7605301Y1195542D01*
X7602500Y1188782D01*
Y1169885D01*
X7609732Y1152427D01*
X7621633Y1140526D01*
X7621885Y1131699D01*
X7620600Y1123862D01*
X7611925Y1120269D01*
X7598563Y1106907D01*
X7591331Y1089448D01*
Y1070552D01*
X7598102Y1054205D01*
X7591249Y1037661D01*
Y1018764D01*
X7598481Y1001306D01*
X7611843Y987944D01*
X7629301Y980713D01*
X7648198D01*
X7665656Y987944D01*
X7679018Y1001306D01*
X7682402Y1009478D01*
X7698052Y1002996D01*
X7716948D01*
X7734406Y1010227D01*
X7747768Y1023589D01*
X7755000Y1041047D01*
Y1059944D01*
X7747768Y1077402D01*
X7734406Y1090764D01*
X7730561Y1092356D01*
X7727635Y1107068D01*
X7769783Y1149216D01*
X7909999D01*
X7910000Y1149216D01*
X7925607Y1152321D01*
X7938838Y1161162D01*
X8108838Y1331161D01*
X8108838Y1331162D01*
X8117679Y1344393D01*
X8120784Y1360000D01*
X8120784Y1360001D01*
Y1829939D01*
X8189633Y1898789D01*
X8206344Y1894287D01*
X8210722Y1883716D01*
X8224084Y1870354D01*
X8241543Y1863123D01*
X8260439D01*
X8277897Y1870354D01*
X8278406Y1870863D01*
X8293406Y1864649D01*
Y1860075D01*
X8300637Y1842617D01*
X8313999Y1829255D01*
X8331458Y1822023D01*
X8350354D01*
X8367812Y1829255D01*
X8381174Y1842617D01*
X8388406Y1860075D01*
Y1878971D01*
X8381174Y1896430D01*
X8375274Y1902330D01*
X8384212Y1911268D01*
X8391443Y1928726D01*
Y1947623D01*
X8384212Y1965081D01*
X8370850Y1978443D01*
X8353392Y1985674D01*
X8334495D01*
X8317855Y1978782D01*
X8314345Y1987256D01*
X8300984Y2000618D01*
X8299404Y2008560D01*
X8420359Y2129515D01*
X8434217Y2123775D01*
Y1498239D01*
X8253635Y1317658D01*
X8244336Y1320383D01*
X8238103Y1323339D01*
X8231404Y1339512D01*
X8218042Y1352874D01*
X8204117Y1358642D01*
X8203029Y1373326D01*
X8203161Y1374038D01*
X8216906Y1379732D01*
X8230268Y1393093D01*
X8237500Y1410552D01*
Y1429448D01*
X8230834Y1445540D01*
X8231228Y1445934D01*
X8238460Y1463392D01*
Y1482289D01*
X8231228Y1499747D01*
X8217866Y1513109D01*
X8200408Y1520340D01*
X8181512D01*
X8164054Y1513109D01*
X8150692Y1499747D01*
X8143460Y1482289D01*
Y1463392D01*
X8150126Y1447301D01*
X8149731Y1446906D01*
X8142500Y1429448D01*
Y1410552D01*
X8149731Y1393093D01*
X8163093Y1379732D01*
X8177018Y1373964D01*
X8178106Y1359280D01*
X8177974Y1358568D01*
X8164229Y1352874D01*
X8150867Y1339512D01*
X8143635Y1322054D01*
Y1303158D01*
X8148392Y1291675D01*
X8144804Y1288087D01*
X8137572Y1270629D01*
Y1251732D01*
X8144804Y1234274D01*
X8157528Y1221550D01*
X7861729Y925752D01*
X7743674D01*
X7740385Y927114D01*
X7740225Y927221D01*
X7740036Y927258D01*
X7727459Y932468D01*
X7708563D01*
X7691105Y925236D01*
X7677743Y911874D01*
X7670511Y894416D01*
Y875520D01*
X7674368Y866208D01*
X7669314Y861154D01*
X7662082Y843696D01*
Y824799D01*
X7669314Y807341D01*
X7682676Y793979D01*
X7687900Y791815D01*
X7689285Y784778D01*
X7689124Y775072D01*
X7677493Y763441D01*
X7670262Y745983D01*
Y727087D01*
X7677493Y709629D01*
X7690855Y696267D01*
X7708313Y689035D01*
X7727210D01*
X7739787Y694245D01*
X7739976Y694282D01*
X7740136Y694389D01*
X7743424Y695751D01*
X7779685D01*
X7779686Y695751D01*
X7795294Y698856D01*
X7808525Y707697D01*
X8538838Y1438010D01*
X8538838Y1438010D01*
X8547679Y1451241D01*
X8550784Y1466848D01*
X8550784Y1466850D01*
Y2683893D01*
X8559737Y2689875D01*
X8578633D01*
X8578711Y2689907D01*
X8591183Y2681574D01*
D02*
G37*
G36*
X6608608Y1233574D02*
X6607385Y1232295D01*
X6605265Y1229724D01*
X6604370Y1228432D01*
X6603582Y1227137D01*
X6602904Y1225838D01*
X6602336Y1224535D01*
X6601876Y1223228D01*
X6601525Y1221917D01*
X6601283Y1220602D01*
X6581493Y1240391D01*
X6582808Y1240633D01*
X6584119Y1240984D01*
X6585426Y1241444D01*
X6586729Y1242013D01*
X6588028Y1242691D01*
X6589324Y1243478D01*
X6590615Y1244374D01*
X6591903Y1245379D01*
X6594466Y1247717D01*
X6608608Y1233574D01*
D02*
G37*
G36*
X7649627Y1243235D02*
X7650802Y1242556D01*
X7652051Y1241957D01*
X7653375Y1241438D01*
X7654773Y1240999D01*
X7656245Y1240639D01*
X7657792Y1240360D01*
X7659413Y1240160D01*
X7662879Y1240000D01*
Y1220000D01*
X7661109Y1219960D01*
X7657792Y1219641D01*
X7656245Y1219361D01*
X7654773Y1219002D01*
X7653375Y1218563D01*
X7652051Y1218044D01*
X7650802Y1217445D01*
X7649627Y1216766D01*
X7648526Y1216007D01*
Y1243994D01*
X7649627Y1243235D01*
D02*
G37*
G36*
X5472682Y1250359D02*
X5375368Y1153044D01*
X5360656Y1155971D01*
X5360268Y1156907D01*
X5346907Y1170268D01*
X5329448Y1177500D01*
X5310552D01*
X5293094Y1170268D01*
X5279732Y1156907D01*
X5272500Y1139448D01*
Y1120552D01*
X5279732Y1103094D01*
X5283466Y1099359D01*
X5277253Y1084359D01*
X5183575D01*
X5167968Y1081254D01*
X5154737Y1072414D01*
X5154736Y1072413D01*
X5034566Y952242D01*
X5014287D01*
Y965906D01*
X5009371Y977774D01*
X5009301Y978150D01*
X5009064Y978516D01*
X5007863Y981416D01*
Y1150186D01*
X5121893Y1264217D01*
X5466942D01*
X5472682Y1250359D01*
D02*
G37*
G36*
X5548788Y1128851D02*
X5548997Y1128022D01*
X5549348Y1127124D01*
X5549842Y1126155D01*
X5550478Y1125117D01*
X5551258Y1124009D01*
X5553245Y1121584D01*
X5554453Y1120266D01*
X5555804Y1118879D01*
X5541356Y1105043D01*
X5539967Y1106398D01*
X5536238Y1109619D01*
X5535141Y1110411D01*
X5534117Y1111063D01*
X5533166Y1111574D01*
X5532287Y1111944D01*
X5531482Y1112174D01*
X5530749Y1112263D01*
X5548723Y1129610D01*
X5548788Y1128851D01*
D02*
G37*
G36*
X7663741Y1086709D02*
X7662414Y1085352D01*
X7659146Y1081632D01*
X7658294Y1080509D01*
X7656945Y1078438D01*
X7656449Y1077490D01*
X7656071Y1076600D01*
X7655812Y1075769D01*
X7639231Y1097495D01*
X7640598Y1097530D01*
X7641956Y1097696D01*
X7643306Y1097994D01*
X7644647Y1098424D01*
X7645980Y1098985D01*
X7647304Y1099678D01*
X7648619Y1100503D01*
X7649927Y1101459D01*
X7651225Y1102547D01*
X7652515Y1103767D01*
X7663741Y1086709D01*
D02*
G37*
G36*
X6832927Y1043740D02*
X6831827Y1044499D01*
X6830652Y1045178D01*
X6829402Y1045777D01*
X6828079Y1046296D01*
X6826681Y1046735D01*
X6825208Y1047094D01*
X6823661Y1047374D01*
X6822040Y1047574D01*
X6818575Y1047733D01*
Y1067733D01*
X6820345Y1067773D01*
X6823661Y1068093D01*
X6825208Y1068373D01*
X6826681Y1068732D01*
X6828079Y1069171D01*
X6829402Y1069690D01*
X6830652Y1070289D01*
X6831827Y1070968D01*
X6832927Y1071727D01*
Y1043740D01*
D02*
G37*
G36*
X1950938Y1045012D02*
X1956511Y1040179D01*
X1957338Y1039626D01*
X1958070Y1039211D01*
X1958706Y1038934D01*
X1959247Y1038795D01*
X1939457Y1019005D01*
X1939318Y1019545D01*
X1939041Y1020181D01*
X1938626Y1020913D01*
X1938073Y1021741D01*
X1937382Y1022664D01*
X1935587Y1024797D01*
X1931859Y1028715D01*
X1949536Y1046393D01*
X1950938Y1045012D01*
D02*
G37*
G36*
X4796834Y1199866D02*
X4799725Y1198668D01*
Y1182432D01*
X4795511Y1180686D01*
X4782149Y1167324D01*
X4774917Y1149866D01*
Y1130970D01*
X4782149Y1113511D01*
X4795511Y1100149D01*
X4812969Y1092918D01*
X4831865D01*
X4849324Y1100149D01*
X4862685Y1113511D01*
X4866665Y1123120D01*
X4881665Y1120136D01*
Y990551D01*
X4876562Y985447D01*
X4869331Y967989D01*
Y952242D01*
X4367000D01*
Y968948D01*
X4367179Y969217D01*
X4529999D01*
X4530000Y969216D01*
X4545607Y972321D01*
X4558838Y981162D01*
X4787188Y1209511D01*
X4796834Y1199866D01*
D02*
G37*
G36*
X4977079Y981111D02*
X4977117Y979329D01*
X4977422Y976001D01*
X4977689Y974454D01*
X4978032Y972986D01*
X4978451Y971596D01*
X4978946Y970284D01*
X4979518Y969051D01*
X4980166Y967896D01*
X4980889Y966820D01*
X4952964Y967190D01*
X4953746Y968287D01*
X4954446Y969459D01*
X4955063Y970705D01*
X4955598Y972027D01*
X4956051Y973422D01*
X4956421Y974892D01*
X4956709Y976437D01*
X4956915Y978056D01*
X4957038Y979750D01*
X4957079Y981518D01*
X4977079Y981111D01*
D02*
G37*
G36*
X4932449Y985614D02*
X4932664Y965994D01*
X4906943Y972980D01*
X4907989Y973789D01*
X4908925Y974706D01*
X4909751Y975734D01*
X4910467Y976870D01*
X4911072Y978116D01*
X4911568Y979471D01*
X4911953Y980935D01*
X4912229Y982509D01*
X4912394Y984192D01*
X4912449Y985984D01*
X4932449Y985614D01*
D02*
G37*
G36*
X5963043Y1754861D02*
X5964139Y1754129D01*
X5964870Y1753034D01*
X6038293Y1679611D01*
Y1402302D01*
X6039020Y1398645D01*
Y990000D01*
X6042901Y970491D01*
X6046302Y965401D01*
X6034650Y955839D01*
X5721651Y1268838D01*
X5708420Y1277679D01*
X5692813Y1280784D01*
X5692812Y1280784D01*
X5617556D01*
X5611816Y1294642D01*
X5809098Y1491924D01*
X5809099Y1491925D01*
X5817940Y1505156D01*
X5821044Y1520763D01*
Y1807810D01*
X5831296Y1816224D01*
X5901680D01*
X5963043Y1754861D01*
D02*
G37*
G36*
X5559826Y973903D02*
X5560177Y972592D01*
X5560637Y971286D01*
X5561206Y969982D01*
X5561884Y968683D01*
X5562671Y967388D01*
X5563567Y966096D01*
X5564572Y964809D01*
X5566909Y962246D01*
X5552767Y948104D01*
X5551488Y949327D01*
X5548917Y951446D01*
X5547625Y952342D01*
X5546330Y953129D01*
X5545031Y953807D01*
X5543727Y954376D01*
X5542420Y954836D01*
X5541110Y955187D01*
X5539795Y955429D01*
X5559584Y975218D01*
X5559826Y973903D01*
D02*
G37*
G36*
X6584502Y938444D02*
X6585552Y938091D01*
X6586839Y937779D01*
X6588362Y937509D01*
X6592117Y937094D01*
X6596818Y936844D01*
X6602464Y936761D01*
X6601229Y916761D01*
X6599454Y916711D01*
X6597767Y916562D01*
X6596167Y916313D01*
X6594655Y915965D01*
X6593230Y915517D01*
X6591893Y914969D01*
X6590643Y914322D01*
X6589482Y913575D01*
X6588407Y912728D01*
X6587421Y911783D01*
X6583688Y938839D01*
X6584502Y938444D01*
D02*
G37*
G36*
X7729620Y898203D02*
X7730796Y897524D01*
X7732045Y896925D01*
X7733369Y896406D01*
X7734767Y895966D01*
X7736239Y895607D01*
X7737786Y895327D01*
X7739407Y895128D01*
X7742872Y894968D01*
Y874968D01*
X7741103Y874928D01*
X7737786Y874609D01*
X7736239Y874329D01*
X7734767Y873970D01*
X7733369Y873530D01*
X7732045Y873011D01*
X7730796Y872412D01*
X7729620Y871733D01*
X7728520Y870975D01*
Y898961D01*
X7729620Y898203D01*
D02*
G37*
G36*
X3956103Y843082D02*
X3954880Y841802D01*
X3952760Y839231D01*
X3951864Y837940D01*
X3951077Y836644D01*
X3950400Y835345D01*
X3949831Y834042D01*
X3949371Y832735D01*
X3949020Y831424D01*
X3948778Y830109D01*
X3928988Y849899D01*
X3930303Y850141D01*
X3931614Y850492D01*
X3932921Y850952D01*
X3934224Y851521D01*
X3935523Y852198D01*
X3936819Y852985D01*
X3938110Y853881D01*
X3939398Y854887D01*
X3941961Y857224D01*
X3956103Y843082D01*
D02*
G37*
G36*
X6679702Y841614D02*
X6680877Y840935D01*
X6682127Y840336D01*
X6683450Y839817D01*
X6684848Y839378D01*
X6686321Y839019D01*
X6687868Y838739D01*
X6689489Y838539D01*
X6692954Y838380D01*
Y818380D01*
X6691184Y818340D01*
X6687868Y818020D01*
X6686321Y817741D01*
X6684848Y817381D01*
X6683450Y816942D01*
X6682127Y816423D01*
X6680877Y815824D01*
X6679702Y815145D01*
X6678602Y814386D01*
Y842373D01*
X6679702Y841614D01*
D02*
G37*
G36*
X7106811Y1118384D02*
X7107847Y1116833D01*
X7126040Y1104677D01*
X7143369Y1101230D01*
Y1053158D01*
X7132498D01*
X7115040Y1045927D01*
X7101678Y1032565D01*
X7094446Y1015107D01*
Y996210D01*
X7101678Y978752D01*
X7115040Y965390D01*
X7132498Y958159D01*
X7143369D01*
Y913197D01*
X7114825Y884653D01*
X7102669Y866460D01*
X7098400Y845000D01*
X7102669Y823540D01*
X7114825Y805347D01*
X7121798Y800688D01*
X7123700Y781377D01*
X7084890Y742567D01*
X6997559D01*
X6995863Y745518D01*
X6992960Y757567D01*
X7003768Y768374D01*
X7010999Y785832D01*
Y804729D01*
X7003768Y822187D01*
X6990406Y835549D01*
X6972947Y842780D01*
X6954051D01*
X6936593Y835549D01*
X6923231Y822187D01*
X6915999Y804729D01*
Y785832D01*
X6923231Y768374D01*
X6934038Y757567D01*
X6931136Y745518D01*
X6929439Y742567D01*
X6544500D01*
X6543088Y742286D01*
X6410120D01*
X6405570Y757286D01*
X6406136Y757664D01*
X6490001Y841530D01*
X6507695Y838011D01*
X6509732Y833094D01*
X6523094Y819732D01*
X6540552Y812500D01*
X6559448D01*
X6576907Y819732D01*
X6590269Y833094D01*
X6597500Y850552D01*
Y869448D01*
X6595378Y874570D01*
X6606765Y885978D01*
X6643827D01*
X6646811Y870978D01*
X6641186Y868648D01*
X6627824Y855286D01*
X6620593Y837828D01*
Y818931D01*
X6627824Y801473D01*
X6641186Y788111D01*
X6658645Y780880D01*
X6677541D01*
X6690118Y786089D01*
X6690307Y786127D01*
X6690467Y786234D01*
X6693756Y787596D01*
X6745593D01*
X6745595Y787596D01*
X6761202Y790700D01*
X6774433Y799541D01*
X7083837Y1108946D01*
X7083838Y1108946D01*
X7089458Y1117356D01*
X7104351Y1119044D01*
X7106811Y1118384D01*
D02*
G37*
G36*
X4108152Y790296D02*
X4106929Y789017D01*
X4104810Y786446D01*
X4103914Y785154D01*
X4103127Y783859D01*
X4102449Y782560D01*
X4101880Y781257D01*
X4101420Y779949D01*
X4101069Y778639D01*
X4100827Y777324D01*
X4081037Y797114D01*
X4082352Y797356D01*
X4083663Y797706D01*
X4084970Y798166D01*
X4086273Y798735D01*
X4087572Y799413D01*
X4088868Y800200D01*
X4090159Y801096D01*
X4091447Y802101D01*
X4094010Y804439D01*
X4108152Y790296D01*
D02*
G37*
G36*
X7729371Y749770D02*
X7730546Y749091D01*
X7731795Y748492D01*
X7733119Y747973D01*
X7734517Y747533D01*
X7735990Y747174D01*
X7737536Y746894D01*
X7739157Y746695D01*
X7742623Y746535D01*
Y726535D01*
X7740853Y726495D01*
X7737536Y726176D01*
X7735990Y725896D01*
X7734517Y725537D01*
X7733119Y725097D01*
X7731795Y724578D01*
X7730546Y723979D01*
X7729371Y723300D01*
X7728270Y722542D01*
Y750528D01*
X7729371Y749770D01*
D02*
G37*
G36*
X3647124Y267482D02*
X3643257Y263475D01*
X3636934Y256037D01*
X3634477Y252605D01*
X3632491Y249364D01*
X3630975Y246315D01*
X3629929Y243457D01*
X3629354Y240791D01*
X3629249Y238316D01*
X3629614Y236033D01*
X3601533Y264114D01*
X3603816Y263749D01*
X3606291Y263854D01*
X3608957Y264429D01*
X3611815Y265475D01*
X3614864Y266991D01*
X3618105Y268977D01*
X3621537Y271434D01*
X3625160Y274360D01*
X3632982Y281624D01*
X3647124Y267482D01*
D02*
G37*
%LPC*%
G36*
X2143420Y5280500D02*
X2042000D01*
Y5159080D01*
X2069500D01*
X2097788Y5164707D01*
X2121769Y5180731D01*
X2137793Y5204712D01*
X2143420Y5233000D01*
Y5280500D01*
D02*
G37*
G36*
X2022000D02*
X1920580D01*
Y5233000D01*
X1926207Y5204712D01*
X1942231Y5180731D01*
X1966212Y5164707D01*
X1994500Y5159080D01*
X2022000D01*
Y5280500D01*
D02*
G37*
G36*
X1586500Y5360244D02*
X1470500D01*
Y5153500D01*
X1677244D01*
Y5269500D01*
X1670336Y5304226D01*
X1650665Y5333665D01*
X1621226Y5353336D01*
X1586500Y5360244D01*
D02*
G37*
G36*
X1450500D02*
X1334500D01*
X1299774Y5353336D01*
X1270335Y5333665D01*
X1250664Y5304226D01*
X1243756Y5269500D01*
Y5153500D01*
X1450500D01*
Y5360244D01*
D02*
G37*
G36*
X8154250Y5118945D02*
X8123000D01*
Y5015000D01*
X8229444D01*
Y5043750D01*
X8223720Y5072526D01*
X8207420Y5096920D01*
X8183025Y5113221D01*
X8154250Y5118945D01*
D02*
G37*
G36*
X8103000D02*
X8071750D01*
X8042974Y5113221D01*
X8018579Y5096920D01*
X8002279Y5072526D01*
X7996555Y5043750D01*
Y5015000D01*
X8103000D01*
Y5118945D01*
D02*
G37*
G36*
X2069500Y5127920D02*
X2042000D01*
Y5006500D01*
X2143420D01*
Y5054000D01*
X2137793Y5082288D01*
X2121769Y5106269D01*
X2097788Y5122293D01*
X2069500Y5127920D01*
D02*
G37*
G36*
X2022000D02*
X1994500D01*
X1966212Y5122293D01*
X1942231Y5106269D01*
X1926207Y5082288D01*
X1920580Y5054000D01*
Y5006500D01*
X2022000D01*
Y5127920D01*
D02*
G37*
G36*
X5879500Y5122822D02*
X5804500D01*
X5778163Y5117583D01*
X5755836Y5102664D01*
X5740917Y5080337D01*
X5735678Y5054000D01*
Y4948676D01*
X5723362Y4937832D01*
X5721276Y4937634D01*
X5708724D01*
X5703864Y4938095D01*
X5694322Y4949762D01*
Y5054000D01*
X5689083Y5080337D01*
X5674164Y5102664D01*
X5651837Y5117583D01*
X5625500Y5122822D01*
X5550500D01*
X5524163Y5117583D01*
X5501836Y5102664D01*
X5486917Y5080337D01*
X5481678Y5054000D01*
Y4939000D01*
X5486917Y4912663D01*
X5501836Y4890336D01*
X5524163Y4875417D01*
X5550500Y4870178D01*
X5625500D01*
X5651837Y4875417D01*
X5652331Y4875747D01*
X5670640Y4869940D01*
X5673420Y4863228D01*
X5686782Y4849866D01*
X5704241Y4842635D01*
X5723137D01*
X5740595Y4849866D01*
X5753957Y4863228D01*
X5757306Y4871313D01*
X5775047Y4877499D01*
X5778163Y4875417D01*
X5804500Y4870178D01*
X5879500D01*
X5905837Y4875417D01*
X5928164Y4890336D01*
X5943083Y4912663D01*
X5948322Y4939000D01*
Y5054000D01*
X5943083Y5080337D01*
X5928164Y5102664D01*
X5905837Y5117583D01*
X5879500Y5122822D01*
D02*
G37*
G36*
X1677244Y5133500D02*
X1470500D01*
Y4926756D01*
X1586500D01*
X1621226Y4933664D01*
X1650665Y4953335D01*
X1670336Y4982774D01*
X1677244Y5017500D01*
Y5133500D01*
D02*
G37*
G36*
X1450500D02*
X1243756D01*
Y5017500D01*
X1250664Y4982774D01*
X1270335Y4953335D01*
X1299774Y4933664D01*
X1334500Y4926756D01*
X1450500D01*
Y5133500D01*
D02*
G37*
G36*
X8229444Y4995000D02*
X8123000D01*
Y4891055D01*
X8154250D01*
X8183025Y4896779D01*
X8207420Y4913079D01*
X8223720Y4937474D01*
X8229444Y4966250D01*
Y4995000D01*
D02*
G37*
G36*
X8103000D02*
X7996555D01*
Y4966250D01*
X8002279Y4937474D01*
X8018579Y4913079D01*
X8042974Y4896779D01*
X8071750Y4891055D01*
X8103000D01*
Y4995000D01*
D02*
G37*
G36*
X7657500Y5122822D02*
X7582500D01*
X7556163Y5117583D01*
X7533836Y5102664D01*
X7518917Y5080337D01*
X7513678Y5054000D01*
Y4939000D01*
X7518917Y4912663D01*
X7533836Y4890336D01*
X7556163Y4875417D01*
X7582500Y4870178D01*
X7657500D01*
X7683837Y4875417D01*
X7706164Y4890336D01*
X7721083Y4912663D01*
X7726322Y4939000D01*
Y5054000D01*
X7721083Y5080337D01*
X7706164Y5102664D01*
X7683837Y5117583D01*
X7657500Y5122822D01*
D02*
G37*
G36*
X7403500D02*
X7328500D01*
X7302163Y5117583D01*
X7279836Y5102664D01*
X7264917Y5080337D01*
X7259678Y5054000D01*
Y4939000D01*
X7264917Y4912663D01*
X7279836Y4890336D01*
X7302163Y4875417D01*
X7328500Y4870178D01*
X7403500D01*
X7429837Y4875417D01*
X7452164Y4890336D01*
X7467083Y4912663D01*
X7472322Y4939000D01*
Y5054000D01*
X7467083Y5080337D01*
X7452164Y5102664D01*
X7429837Y5117583D01*
X7403500Y5122822D01*
D02*
G37*
G36*
X7149500D02*
X7074500D01*
X7048163Y5117583D01*
X7025836Y5102664D01*
X7010917Y5080337D01*
X7005678Y5054000D01*
Y4939000D01*
X7010917Y4912663D01*
X7025836Y4890336D01*
X7048163Y4875417D01*
X7074500Y4870178D01*
X7149500D01*
X7175837Y4875417D01*
X7198164Y4890336D01*
X7213083Y4912663D01*
X7218322Y4939000D01*
Y5054000D01*
X7213083Y5080337D01*
X7198164Y5102664D01*
X7175837Y5117583D01*
X7149500Y5122822D01*
D02*
G37*
G36*
X6895500D02*
X6820500D01*
X6794163Y5117583D01*
X6771836Y5102664D01*
X6756917Y5080337D01*
X6751678Y5054000D01*
Y4939000D01*
X6756917Y4912663D01*
X6771836Y4890336D01*
X6794163Y4875417D01*
X6820500Y4870178D01*
X6895500D01*
X6921837Y4875417D01*
X6944164Y4890336D01*
X6959083Y4912663D01*
X6964322Y4939000D01*
Y5054000D01*
X6959083Y5080337D01*
X6944164Y5102664D01*
X6921837Y5117583D01*
X6895500Y5122822D01*
D02*
G37*
G36*
X6387500D02*
X6312500D01*
X6286163Y5117583D01*
X6263836Y5102664D01*
X6248917Y5080337D01*
X6243678Y5054000D01*
Y4939000D01*
X6248917Y4912663D01*
X6263836Y4890336D01*
X6286163Y4875417D01*
X6312500Y4870178D01*
X6387500D01*
X6413837Y4875417D01*
X6436164Y4890336D01*
X6451083Y4912663D01*
X6456322Y4939000D01*
Y5054000D01*
X6451083Y5080337D01*
X6436164Y5102664D01*
X6413837Y5117583D01*
X6387500Y5122822D01*
D02*
G37*
G36*
X6133500D02*
X6058500D01*
X6032163Y5117583D01*
X6009836Y5102664D01*
X5994917Y5080337D01*
X5989678Y5054000D01*
Y4939000D01*
X5994917Y4912663D01*
X6009836Y4890336D01*
X6032163Y4875417D01*
X6058500Y4870178D01*
X6133500D01*
X6159837Y4875417D01*
X6182164Y4890336D01*
X6197083Y4912663D01*
X6202322Y4939000D01*
Y5054000D01*
X6197083Y5080337D01*
X6182164Y5102664D01*
X6159837Y5117583D01*
X6133500Y5122822D01*
D02*
G37*
G36*
X4863500D02*
X4788500D01*
X4762163Y5117583D01*
X4739836Y5102664D01*
X4724917Y5080337D01*
X4719678Y5054000D01*
Y4939000D01*
X4724917Y4912663D01*
X4739836Y4890336D01*
X4740270Y4890046D01*
X4735719Y4875046D01*
X4721759D01*
X4704301Y4867814D01*
X4690939Y4854452D01*
X4683707Y4836994D01*
Y4818098D01*
X4690939Y4800639D01*
X4704301Y4787277D01*
X4721759Y4780046D01*
X4740655D01*
X4758114Y4787277D01*
X4771476Y4800639D01*
X4778707Y4818098D01*
Y4836994D01*
X4771476Y4854452D01*
X4766710Y4859218D01*
X4774099Y4873043D01*
X4788500Y4870178D01*
X4863500D01*
X4889837Y4875417D01*
X4912164Y4890336D01*
X4927083Y4912663D01*
X4932322Y4939000D01*
Y5054000D01*
X4927083Y5080337D01*
X4912164Y5102664D01*
X4889837Y5117583D01*
X4863500Y5122822D01*
D02*
G37*
G36*
X4609500D02*
X4534500D01*
X4508163Y5117583D01*
X4485836Y5102664D01*
X4470917Y5080337D01*
X4465678Y5054000D01*
Y4939000D01*
X4470917Y4912663D01*
X4485836Y4890336D01*
X4508163Y4875417D01*
X4534500Y4870178D01*
X4609500D01*
X4635837Y4875417D01*
X4658164Y4890336D01*
X4673083Y4912663D01*
X4678322Y4939000D01*
Y5054000D01*
X4673083Y5080337D01*
X4658164Y5102664D01*
X4635837Y5117583D01*
X4609500Y5122822D01*
D02*
G37*
G36*
X3847500D02*
X3772500D01*
X3746163Y5117583D01*
X3723836Y5102664D01*
X3708917Y5080337D01*
X3703678Y5054000D01*
Y4939000D01*
X3708917Y4912663D01*
X3723836Y4890336D01*
X3746163Y4875417D01*
X3772500Y4870178D01*
X3847500D01*
X3873837Y4875417D01*
X3896164Y4890336D01*
X3911083Y4912663D01*
X3916322Y4939000D01*
Y5054000D01*
X3911083Y5080337D01*
X3896164Y5102664D01*
X3873837Y5117583D01*
X3847500Y5122822D01*
D02*
G37*
G36*
X3339500D02*
X3264500D01*
X3238163Y5117583D01*
X3215836Y5102664D01*
X3200917Y5080337D01*
X3195678Y5054000D01*
Y4939000D01*
X3200917Y4912663D01*
X3215836Y4890336D01*
X3238163Y4875417D01*
X3264500Y4870178D01*
X3339500D01*
X3365837Y4875417D01*
X3388164Y4890336D01*
X3403083Y4912663D01*
X3408322Y4939000D01*
Y5054000D01*
X3403083Y5080337D01*
X3388164Y5102664D01*
X3365837Y5117583D01*
X3339500Y5122822D01*
D02*
G37*
G36*
X3085500D02*
X3010500D01*
X2984163Y5117583D01*
X2961836Y5102664D01*
X2946917Y5080337D01*
X2941678Y5054000D01*
Y4939000D01*
X2946917Y4912663D01*
X2961836Y4890336D01*
X2984163Y4875417D01*
X3010500Y4870178D01*
X3085500D01*
X3111837Y4875417D01*
X3134164Y4890336D01*
X3149083Y4912663D01*
X3154322Y4939000D01*
Y5054000D01*
X3149083Y5080337D01*
X3134164Y5102664D01*
X3111837Y5117583D01*
X3085500Y5122822D01*
D02*
G37*
G36*
X2577500D02*
X2502500D01*
X2476163Y5117583D01*
X2453836Y5102664D01*
X2438917Y5080337D01*
X2433678Y5054000D01*
Y4939000D01*
X2438917Y4912663D01*
X2453836Y4890336D01*
X2476163Y4875417D01*
X2502500Y4870178D01*
X2577500D01*
X2603837Y4875417D01*
X2626164Y4890336D01*
X2641083Y4912663D01*
X2646322Y4939000D01*
Y5054000D01*
X2641083Y5080337D01*
X2626164Y5102664D01*
X2603837Y5117583D01*
X2577500Y5122822D01*
D02*
G37*
G36*
X2323500D02*
X2248500D01*
X2222163Y5117583D01*
X2199836Y5102664D01*
X2184917Y5080337D01*
X2179678Y5054000D01*
Y4939000D01*
X2184917Y4912663D01*
X2199836Y4890336D01*
X2222163Y4875417D01*
X2248500Y4870178D01*
X2323500D01*
X2349837Y4875417D01*
X2372164Y4890336D01*
X2387083Y4912663D01*
X2392322Y4939000D01*
Y5054000D01*
X2387083Y5080337D01*
X2372164Y5102664D01*
X2349837Y5117583D01*
X2323500Y5122822D01*
D02*
G37*
G36*
X2143420Y4986500D02*
X2042000D01*
Y4865080D01*
X2069500D01*
X2097788Y4870707D01*
X2121769Y4886731D01*
X2137793Y4910712D01*
X2143420Y4939000D01*
Y4986500D01*
D02*
G37*
G36*
X2022000D02*
X1920580D01*
Y4939000D01*
X1926207Y4910712D01*
X1942231Y4886731D01*
X1966212Y4870707D01*
X1994500Y4865080D01*
X2022000D01*
Y4986500D01*
D02*
G37*
G36*
X5371500Y5122822D02*
X5296500D01*
X5270163Y5117583D01*
X5247836Y5102664D01*
X5232917Y5080337D01*
X5227678Y5054000D01*
Y4939000D01*
X5232917Y4912663D01*
X5233789Y4911358D01*
X5226210Y4895701D01*
X5213093Y4890268D01*
X5199732Y4876906D01*
X5192500Y4859448D01*
Y4840552D01*
X5199732Y4823093D01*
X5213093Y4809732D01*
X5230552Y4802500D01*
X5249448D01*
X5266906Y4809732D01*
X5280268Y4823093D01*
X5287500Y4840552D01*
Y4856674D01*
X5292198Y4863724D01*
X5299291Y4870178D01*
X5371500D01*
X5397837Y4875417D01*
X5420164Y4890336D01*
X5435083Y4912663D01*
X5440322Y4939000D01*
Y5054000D01*
X5435083Y5080337D01*
X5420164Y5102664D01*
X5397837Y5117583D01*
X5371500Y5122822D01*
D02*
G37*
G36*
X2831500D02*
X2756500D01*
X2730163Y5117583D01*
X2707836Y5102664D01*
X2692917Y5080337D01*
X2687678Y5054000D01*
Y4939000D01*
X2692917Y4912663D01*
X2707836Y4890336D01*
X2709533Y4889202D01*
X2709606Y4888798D01*
X2706724Y4873038D01*
X2694619Y4868024D01*
X2681257Y4854662D01*
X2674026Y4837204D01*
Y4818307D01*
X2681257Y4800849D01*
X2694619Y4787487D01*
X2712077Y4780256D01*
X2730974D01*
X2748432Y4787487D01*
X2761794Y4800849D01*
X2764222Y4806712D01*
X2780458D01*
X2781647Y4803843D01*
X2795009Y4790481D01*
X2812467Y4783250D01*
X2831363D01*
X2848822Y4790481D01*
X2862184Y4803843D01*
X2869415Y4821301D01*
Y4840198D01*
X2862184Y4857656D01*
X2859405Y4860435D01*
X2859038Y4863943D01*
X2862512Y4878540D01*
X2880164Y4890336D01*
X2895083Y4912663D01*
X2900322Y4939000D01*
Y5054000D01*
X2895083Y5080337D01*
X2880164Y5102664D01*
X2857837Y5117583D01*
X2831500Y5122822D01*
D02*
G37*
G36*
X5117500D02*
X5042500D01*
X5016163Y5117583D01*
X4993836Y5102664D01*
X4978917Y5080337D01*
X4973678Y5054000D01*
Y4939000D01*
X4978917Y4912663D01*
X4993836Y4890336D01*
X5016163Y4875417D01*
X5042500Y4870178D01*
X5046527D01*
X5052740Y4855178D01*
X5051243Y4853681D01*
X5044012Y4836222D01*
Y4817326D01*
X5051243Y4799868D01*
X5064605Y4786506D01*
X5082063Y4779274D01*
X5100960D01*
X5118418Y4786506D01*
X5131780Y4799868D01*
X5139011Y4817326D01*
Y4836222D01*
X5131780Y4853681D01*
X5128407Y4857054D01*
X5133344Y4873330D01*
X5143837Y4875417D01*
X5166164Y4890336D01*
X5181083Y4912663D01*
X5186322Y4939000D01*
Y5054000D01*
X5181083Y5080337D01*
X5166164Y5102664D01*
X5143837Y5117583D01*
X5117500Y5122822D01*
D02*
G37*
G36*
X7419448Y4747500D02*
X7400552D01*
X7383093Y4740268D01*
X7369732Y4726906D01*
X7362500Y4709448D01*
Y4690552D01*
X7369732Y4673094D01*
X7383093Y4659732D01*
X7400552Y4652500D01*
X7419448D01*
X7436906Y4659732D01*
X7450268Y4673094D01*
X7457500Y4690552D01*
Y4709448D01*
X7450268Y4726906D01*
X7436906Y4740268D01*
X7419448Y4747500D01*
D02*
G37*
G36*
X6539448Y4717500D02*
X6520552D01*
X6503093Y4710268D01*
X6489731Y4696907D01*
X6482500Y4679448D01*
Y4660552D01*
X6489731Y4643094D01*
X6503093Y4629732D01*
X6520552Y4622500D01*
X6539448D01*
X6556906Y4629732D01*
X6570268Y4643094D01*
X6577500Y4660552D01*
Y4679448D01*
X6570268Y4696907D01*
X6556906Y4710268D01*
X6539448Y4717500D01*
D02*
G37*
G36*
X5219388Y4602518D02*
X5200491D01*
X5183033Y4595287D01*
X5173023Y4585277D01*
X5168314Y4589986D01*
X5150856Y4597217D01*
X5131959D01*
X5114501Y4589986D01*
X5101139Y4576624D01*
X5093908Y4559166D01*
Y4540269D01*
X5101139Y4522811D01*
X5114501Y4509449D01*
X5131959Y4502218D01*
X5150856D01*
X5168314Y4509449D01*
X5178324Y4519459D01*
X5183033Y4514750D01*
X5200491Y4507519D01*
X5219388D01*
X5236846Y4514750D01*
X5250208Y4528112D01*
X5257439Y4545570D01*
Y4564467D01*
X5250208Y4581925D01*
X5236846Y4595287D01*
X5219388Y4602518D01*
D02*
G37*
G36*
X5509311Y4679756D02*
X5490414D01*
X5472956Y4672524D01*
X5459594Y4659162D01*
X5452363Y4641704D01*
Y4622808D01*
X5459594Y4605349D01*
X5472956Y4591988D01*
X5490414Y4584756D01*
X5509311D01*
X5522575Y4590250D01*
X5523094Y4589731D01*
X5540552Y4582500D01*
X5559448D01*
X5576907Y4589731D01*
X5590268Y4603093D01*
X5597500Y4620552D01*
Y4639448D01*
X5590268Y4656906D01*
X5576907Y4670268D01*
X5559448Y4677500D01*
X5540552D01*
X5527288Y4672006D01*
X5526769Y4672524D01*
X5509311Y4679756D01*
D02*
G37*
G36*
X5918439Y4674032D02*
X5899543D01*
X5882085Y4666801D01*
X5868723Y4653439D01*
X5861491Y4635981D01*
Y4617084D01*
X5868723Y4599626D01*
X5882085Y4586264D01*
X5899543Y4579032D01*
X5918439D01*
X5935897Y4586264D01*
X5938708Y4589074D01*
X5942147Y4585635D01*
X5959606Y4578404D01*
X5978502D01*
X5995960Y4585635D01*
X6009322Y4598997D01*
X6016554Y4616455D01*
Y4635352D01*
X6009322Y4652810D01*
X5995960Y4666172D01*
X5978502Y4673403D01*
X5959606D01*
X5942147Y4666172D01*
X5939337Y4663361D01*
X5935897Y4666801D01*
X5918439Y4674032D01*
D02*
G37*
G36*
X2947812Y4657319D02*
X2928916D01*
X2911457Y4650087D01*
X2898096Y4636726D01*
X2890864Y4619267D01*
Y4600371D01*
X2898096Y4582913D01*
X2911457Y4569551D01*
X2928916Y4562319D01*
X2947812D01*
X2965270Y4569551D01*
X2978632Y4582913D01*
X2985864Y4600371D01*
Y4619267D01*
X2978632Y4636726D01*
X2965270Y4650087D01*
X2947812Y4657319D01*
D02*
G37*
G36*
X6858579Y4674715D02*
X6839683D01*
X6822224Y4667484D01*
X6808862Y4654122D01*
X6801631Y4636664D01*
Y4617767D01*
X6808862Y4600309D01*
X6822224Y4586947D01*
X6839683Y4579716D01*
X6858579D01*
X6869398Y4584197D01*
X6872748Y4576110D01*
X6886110Y4562748D01*
X6903568Y4555516D01*
X6922464D01*
X6939923Y4562748D01*
X6953285Y4576110D01*
X6960516Y4593568D01*
Y4612464D01*
X6953285Y4629923D01*
X6939923Y4643285D01*
X6922464Y4650516D01*
X6903568D01*
X6892749Y4646035D01*
X6889399Y4654122D01*
X6876037Y4667484D01*
X6858579Y4674715D01*
D02*
G37*
G36*
X6169448Y4637500D02*
X6150552D01*
X6133094Y4630268D01*
X6119732Y4616906D01*
X6112500Y4599448D01*
Y4580552D01*
X6119732Y4563093D01*
X6133094Y4549732D01*
X6150552Y4542500D01*
X6169448D01*
X6186907Y4549732D01*
X6200269Y4563093D01*
X6207500Y4580552D01*
Y4599448D01*
X6200269Y4616906D01*
X6186907Y4630268D01*
X6169448Y4637500D01*
D02*
G37*
G36*
X3148924Y4671519D02*
X3130027D01*
X3112569Y4664288D01*
X3099207Y4650926D01*
X3091976Y4633467D01*
Y4614571D01*
X3095732Y4605503D01*
X3083093Y4600268D01*
X3069731Y4586906D01*
X3062500Y4569448D01*
Y4550552D01*
X3069731Y4533094D01*
X3083093Y4519732D01*
X3100552Y4512500D01*
X3119448D01*
X3136906Y4519732D01*
X3150268Y4533094D01*
X3157500Y4550552D01*
Y4569448D01*
X3153744Y4578516D01*
X3166382Y4583751D01*
X3179744Y4597113D01*
X3186975Y4614571D01*
Y4633467D01*
X3179744Y4650926D01*
X3166382Y4664288D01*
X3148924Y4671519D01*
D02*
G37*
G36*
X4019448Y4577500D02*
X4000552D01*
X3983094Y4570268D01*
X3969732Y4556907D01*
X3962500Y4539448D01*
Y4520552D01*
X3969732Y4503094D01*
X3983094Y4489732D01*
X4000552Y4482500D01*
X4019448D01*
X4036907Y4489732D01*
X4050269Y4503094D01*
X4057500Y4520552D01*
Y4539448D01*
X4050269Y4556907D01*
X4036907Y4570268D01*
X4019448Y4577500D01*
D02*
G37*
G36*
X5759448Y4557500D02*
X5740552D01*
X5723093Y4550269D01*
X5709732Y4536907D01*
X5702500Y4519448D01*
Y4500552D01*
X5709732Y4483094D01*
X5723093Y4469732D01*
X5740552Y4462500D01*
X5759448D01*
X5776906Y4469732D01*
X5790268Y4483094D01*
X5797500Y4500552D01*
Y4519448D01*
X5790268Y4536907D01*
X5776906Y4550269D01*
X5759448Y4557500D01*
D02*
G37*
G36*
X6360449Y4671582D02*
X6341552D01*
X6324094Y4664351D01*
X6310732Y4650989D01*
X6303500Y4633531D01*
Y4614634D01*
X6310732Y4597176D01*
X6324094Y4583814D01*
X6341552Y4576583D01*
X6360449D01*
X6363603Y4577889D01*
X6369731Y4563093D01*
X6383093Y4549732D01*
X6382212Y4533861D01*
X6371263Y4529325D01*
X6357901Y4515963D01*
X6350670Y4498505D01*
Y4479609D01*
X6357901Y4462150D01*
X6371263Y4448788D01*
X6388721Y4441557D01*
X6407618D01*
X6425076Y4448788D01*
X6438438Y4462150D01*
X6445669Y4479609D01*
Y4498505D01*
X6438438Y4515963D01*
X6425076Y4529325D01*
X6425957Y4545196D01*
X6436906Y4549732D01*
X6450268Y4563093D01*
X6457500Y4580552D01*
Y4599448D01*
X6450268Y4616906D01*
X6436906Y4630268D01*
X6419448Y4637500D01*
X6400552D01*
X6397397Y4636193D01*
X6391269Y4650989D01*
X6377907Y4664351D01*
X6360449Y4671582D01*
D02*
G37*
G36*
X5649413Y4430366D02*
X5630517D01*
X5613058Y4423134D01*
X5599696Y4409772D01*
X5592465Y4392314D01*
Y4373418D01*
X5599696Y4355960D01*
X5613058Y4342598D01*
X5630517Y4335366D01*
X5649413D01*
X5666871Y4342598D01*
X5680233Y4355960D01*
X5687465Y4373418D01*
Y4392314D01*
X5680233Y4409772D01*
X5666871Y4423134D01*
X5649413Y4430366D01*
D02*
G37*
G36*
X4619448Y4227500D02*
X4600552D01*
X4583093Y4220268D01*
X4569732Y4206906D01*
X4562500Y4189448D01*
Y4170552D01*
X4569732Y4153094D01*
X4583093Y4139732D01*
X4600552Y4132500D01*
X4619448D01*
X4636906Y4139732D01*
X4650268Y4153094D01*
X4657500Y4170552D01*
Y4189448D01*
X4650268Y4206906D01*
X4636906Y4220268D01*
X4619448Y4227500D01*
D02*
G37*
G36*
X5089448Y4007500D02*
X5070552D01*
X5053094Y4000268D01*
X5039732Y3986906D01*
X5032500Y3969448D01*
Y3950552D01*
X5039732Y3933093D01*
X5053094Y3919732D01*
X5070552Y3912500D01*
X5089448D01*
X5106906Y3919732D01*
X5120268Y3933093D01*
X5127500Y3950552D01*
Y3969448D01*
X5120268Y3986906D01*
X5106906Y4000268D01*
X5089448Y4007500D01*
D02*
G37*
G36*
X5400947Y4001502D02*
X5382050D01*
X5364592Y3994271D01*
X5351230Y3980909D01*
X5343999Y3963451D01*
Y3944554D01*
X5351230Y3927096D01*
X5364592Y3913734D01*
X5382050Y3906502D01*
X5400947D01*
X5418405Y3913734D01*
X5431767Y3927096D01*
X5438999Y3944554D01*
Y3963451D01*
X5431767Y3980909D01*
X5418405Y3994271D01*
X5400947Y4001502D01*
D02*
G37*
G36*
X3593500Y5122822D02*
X3518500D01*
X3492163Y5117583D01*
X3469836Y5102664D01*
X3454917Y5080337D01*
X3449678Y5054000D01*
Y4939000D01*
X3454917Y4912663D01*
X3469836Y4890336D01*
X3492163Y4875417D01*
X3512668Y4871338D01*
Y4183949D01*
X3473155Y4144436D01*
X3463093Y4140268D01*
X3449731Y4126906D01*
X3445564Y4116845D01*
X3231390Y3902671D01*
X3216390Y3908885D01*
Y3913051D01*
X3209159Y3930509D01*
X3195797Y3943871D01*
X3178339Y3951103D01*
X3159442D01*
X3141984Y3943871D01*
X3128622Y3930509D01*
X3121391Y3913051D01*
Y3894155D01*
X3128622Y3876696D01*
X3141984Y3863334D01*
X3159442Y3856103D01*
X3163608D01*
X3169822Y3841103D01*
X2691435Y3362716D01*
X2682042Y3348658D01*
X2678743Y3332076D01*
Y3283141D01*
X2674576Y3273080D01*
Y3254184D01*
X2678743Y3244123D01*
Y2917925D01*
X2682042Y2901342D01*
X2691435Y2887284D01*
X3359360Y2219360D01*
X3373417Y2209966D01*
X3390000Y2206668D01*
X3404383D01*
X3411682Y2191667D01*
X3406360Y2178819D01*
Y2159922D01*
X3413591Y2142464D01*
X3426953Y2129102D01*
X3444411Y2121871D01*
X3463308D01*
X3480766Y2129102D01*
X3494128Y2142464D01*
X3501359Y2159922D01*
Y2178819D01*
X3496037Y2191667D01*
X3503336Y2206668D01*
X3930491D01*
X3940552Y2202500D01*
X3959448D01*
X3976906Y2209732D01*
X3990268Y2223094D01*
X3997500Y2240552D01*
Y2259448D01*
X3990268Y2276907D01*
X3976906Y2290268D01*
X3959448Y2297500D01*
X3940552D01*
X3930491Y2293332D01*
X3407949D01*
X2765408Y2935873D01*
Y3244123D01*
X2769575Y3254184D01*
Y3273080D01*
X2765408Y3283141D01*
Y3314127D01*
X3506845Y4055564D01*
X3516906Y4059732D01*
X3530268Y4073093D01*
X3534436Y4083155D01*
X3586641Y4135359D01*
X3596034Y4149417D01*
X3599332Y4166000D01*
Y4495003D01*
X3610552Y4502500D01*
X3629448D01*
X3646907Y4509732D01*
X3660269Y4523094D01*
X3667500Y4540552D01*
Y4559448D01*
X3660269Y4576907D01*
X3646907Y4590268D01*
X3629448Y4597500D01*
X3610552D01*
X3599332Y4604997D01*
Y4870172D01*
X3599376Y4871347D01*
X3619837Y4875417D01*
X3642164Y4890336D01*
X3657083Y4912663D01*
X3662322Y4939000D01*
Y5054000D01*
X3657083Y5080337D01*
X3642164Y5102664D01*
X3619837Y5117583D01*
X3593500Y5122822D01*
D02*
G37*
G36*
X4051498Y4107198D02*
X4027629D01*
X4005576Y4098063D01*
X3988698Y4081185D01*
X3979564Y4059133D01*
Y4035263D01*
X3988698Y4013211D01*
X3997512Y4004396D01*
X3988587Y3995472D01*
X3979453Y3973419D01*
Y3949550D01*
X3988587Y3927497D01*
X4005466Y3910619D01*
X4027518Y3901484D01*
X4051388D01*
X4073440Y3910619D01*
X4090318Y3927497D01*
X4099453Y3949550D01*
Y3973419D01*
X4090318Y3995472D01*
X4081504Y4004286D01*
X4090429Y4013211D01*
X4099563Y4035263D01*
Y4059133D01*
X4090429Y4081185D01*
X4073551Y4098063D01*
X4051498Y4107198D01*
D02*
G37*
G36*
X4900000Y4046077D02*
X4878540Y4041809D01*
X4860347Y4029653D01*
X4848191Y4011460D01*
X4843923Y3990000D01*
Y3681503D01*
X4600347Y3437927D01*
X4588191Y3419735D01*
X4583923Y3398275D01*
Y3157574D01*
X4571710Y3149413D01*
X4552813D01*
X4535355Y3142182D01*
X4521993Y3128820D01*
X4514762Y3111362D01*
Y3092465D01*
X4521993Y3075007D01*
X4525583Y3071417D01*
X4518493Y3064327D01*
X4511261Y3046869D01*
Y3027973D01*
X4518493Y3010514D01*
X4531855Y2997153D01*
X4549313Y2989921D01*
X4568210D01*
X4571451Y2991264D01*
X4583923Y2982930D01*
Y2502954D01*
X4583270Y2499255D01*
X4582317Y2496396D01*
X4581464Y2494811D01*
X4580764Y2493956D01*
X4579908Y2493255D01*
X4578324Y2492403D01*
X4575465Y2491450D01*
X4571763Y2490796D01*
X4544719D01*
X4523259Y2486528D01*
X4505066Y2474372D01*
X4290347Y2259653D01*
X4278191Y2241460D01*
X4273923Y2220000D01*
X4278191Y2198540D01*
X4290347Y2180347D01*
X4308540Y2168191D01*
X4330000Y2163923D01*
X4351460Y2168191D01*
X4369653Y2180347D01*
X4567947Y2378642D01*
X5216836D01*
X5238296Y2382910D01*
X5256489Y2395066D01*
X5285778Y2424356D01*
X5285970Y2424643D01*
X5287086Y2425388D01*
X5567125Y2705427D01*
X5579281Y2723620D01*
X5583549Y2745080D01*
Y2786772D01*
X5679653Y2882875D01*
X5691809Y2901068D01*
X5696077Y2922528D01*
Y3360000D01*
X5691809Y3381460D01*
X5679653Y3399653D01*
X5551149Y3528156D01*
Y3540833D01*
X5546881Y3562293D01*
X5534725Y3580486D01*
X5516532Y3592642D01*
X5495072Y3596911D01*
X5473612Y3592642D01*
X5455419Y3580486D01*
X5443263Y3562293D01*
X5438995Y3540833D01*
Y3504928D01*
X5443263Y3483468D01*
X5455419Y3465276D01*
X5583923Y3336772D01*
Y2945756D01*
X5487819Y2849653D01*
X5475663Y2831460D01*
X5471394Y2810000D01*
Y2768308D01*
X5210413Y2507326D01*
X5206473Y2504694D01*
X5204394Y2501582D01*
X5193608Y2490796D01*
X4708237D01*
X4704535Y2491450D01*
X4701676Y2492402D01*
X4700092Y2493255D01*
X4699237Y2493956D01*
X4698536Y2494811D01*
X4697684Y2496396D01*
X4696731Y2499255D01*
X4696077Y2502954D01*
Y2857093D01*
X4700088Y2859773D01*
X4718984D01*
X4736442Y2867004D01*
X4749804Y2880366D01*
X4757036Y2897825D01*
Y2916721D01*
X4749804Y2934179D01*
X4745855Y2938128D01*
X4753866Y2946140D01*
X4761098Y2963598D01*
Y2982494D01*
X4753866Y2999953D01*
X4740504Y3013315D01*
X4723046Y3020546D01*
X4704150D01*
X4696077Y3025940D01*
Y3375047D01*
X4939653Y3618622D01*
X4951809Y3636815D01*
X4956077Y3658275D01*
Y3795574D01*
X4971077Y3801787D01*
X4972665Y3800200D01*
X4990123Y3792969D01*
X5009020D01*
X5026478Y3800200D01*
X5039840Y3813562D01*
X5047071Y3831020D01*
Y3849917D01*
X5039840Y3867375D01*
X5026478Y3880737D01*
X5009020Y3887968D01*
X4990123D01*
X4972665Y3880737D01*
X4971077Y3879149D01*
X4956077Y3885363D01*
Y3990000D01*
X4951809Y4011460D01*
X4939653Y4029653D01*
X4921460Y4041809D01*
X4900000Y4046077D01*
D02*
G37*
G36*
X2251271Y3865045D02*
X2232374D01*
X2214916Y3857814D01*
X2201554Y3844452D01*
X2194323Y3826994D01*
Y3808097D01*
X2201554Y3790639D01*
X2214916Y3777277D01*
X2232374Y3770046D01*
X2251271D01*
X2268729Y3777277D01*
X2282091Y3790639D01*
X2289322Y3808097D01*
Y3826994D01*
X2282091Y3844452D01*
X2268729Y3857814D01*
X2251271Y3865045D01*
D02*
G37*
G36*
X4520087Y3813270D02*
X4501190D01*
X4483732Y3806039D01*
X4470370Y3792677D01*
X4463139Y3775219D01*
Y3756322D01*
X4470370Y3738864D01*
X4475522Y3733712D01*
X4475221Y3733167D01*
X4456906Y3730268D01*
X4439448Y3737500D01*
X4420552D01*
X4403094Y3730268D01*
X4389732Y3716906D01*
X4382500Y3699448D01*
Y3680552D01*
X4389732Y3663094D01*
X4403094Y3649732D01*
X4420552Y3642500D01*
X4439448D01*
X4456907Y3649732D01*
X4470268Y3663093D01*
X4473548Y3663746D01*
X4483894Y3653399D01*
X4501352Y3646168D01*
X4520249D01*
X4537707Y3653399D01*
X4551069Y3666761D01*
X4558301Y3684219D01*
Y3703116D01*
X4551069Y3720574D01*
X4541843Y3729800D01*
X4550907Y3738864D01*
X4558138Y3756322D01*
Y3775219D01*
X4550907Y3792677D01*
X4537545Y3806039D01*
X4520087Y3813270D01*
D02*
G37*
G36*
X5981674Y3785684D02*
X5962777D01*
X5945319Y3778452D01*
X5931957Y3765091D01*
X5924726Y3747632D01*
Y3728736D01*
X5931957Y3711278D01*
X5945319Y3697916D01*
X5962777Y3690684D01*
X5981674D01*
X5999132Y3697916D01*
X6012494Y3711278D01*
X6019725Y3728736D01*
Y3747632D01*
X6012494Y3765091D01*
X5999132Y3778452D01*
X5981674Y3785684D01*
D02*
G37*
G36*
X5552635Y3742152D02*
X5533738D01*
X5516280Y3734921D01*
X5502918Y3721559D01*
X5495687Y3704101D01*
Y3685204D01*
X5502918Y3667746D01*
X5516280Y3654384D01*
X5533738Y3647152D01*
X5552635D01*
X5570093Y3654384D01*
X5583455Y3667746D01*
X5590687Y3685204D01*
Y3704101D01*
X5583455Y3721559D01*
X5570093Y3734921D01*
X5552635Y3742152D01*
D02*
G37*
G36*
X5179448Y3647500D02*
X5160552D01*
X5143094Y3640268D01*
X5129732Y3626906D01*
X5122500Y3609448D01*
Y3590552D01*
X5129732Y3573093D01*
X5143094Y3559732D01*
X5160552Y3552500D01*
X5179448D01*
X5196907Y3559732D01*
X5210268Y3573093D01*
X5217500Y3590552D01*
Y3609448D01*
X5210268Y3626906D01*
X5196907Y3640268D01*
X5179448Y3647500D01*
D02*
G37*
G36*
X4099026Y3506428D02*
X4080129D01*
X4062671Y3499196D01*
X4049309Y3485834D01*
X4042078Y3468376D01*
Y3449480D01*
X4049309Y3432021D01*
X4062671Y3418659D01*
X4080129Y3411428D01*
X4099026D01*
X4116484Y3418659D01*
X4129846Y3432021D01*
X4137077Y3449480D01*
Y3468376D01*
X4129846Y3485834D01*
X4116484Y3499196D01*
X4099026Y3506428D01*
D02*
G37*
G36*
X3972500Y3444224D02*
X3867500D01*
X3843114Y3439373D01*
X3822440Y3425560D01*
X3808626Y3404886D01*
X3807647Y3399962D01*
X3792353D01*
X3791374Y3404886D01*
X3777560Y3425560D01*
X3756886Y3439373D01*
X3732500Y3444224D01*
X3627500D01*
X3603114Y3439373D01*
X3582440Y3425560D01*
X3568626Y3404886D01*
X3563776Y3380500D01*
Y3315500D01*
X3568626Y3291113D01*
X3582440Y3270440D01*
X3603114Y3256626D01*
X3608037Y3255647D01*
Y3240353D01*
X3603114Y3239373D01*
X3582440Y3225559D01*
X3568626Y3204886D01*
X3563776Y3180500D01*
Y3115499D01*
X3568626Y3091113D01*
X3582440Y3070440D01*
X3603114Y3056626D01*
X3608037Y3055647D01*
Y3040353D01*
X3603114Y3039373D01*
X3582440Y3025560D01*
X3568626Y3004886D01*
X3563776Y2980500D01*
Y2915500D01*
X3568626Y2891113D01*
X3582440Y2870440D01*
X3603114Y2856626D01*
X3608037Y2855647D01*
Y2840353D01*
X3603114Y2839373D01*
X3582440Y2825559D01*
X3568626Y2804886D01*
X3563776Y2780500D01*
Y2715500D01*
X3568626Y2691113D01*
X3582440Y2670440D01*
X3603114Y2656626D01*
X3608037Y2655647D01*
Y2640353D01*
X3603114Y2639373D01*
X3582440Y2625560D01*
X3568626Y2604886D01*
X3563776Y2580500D01*
Y2515500D01*
X3568626Y2491113D01*
X3582440Y2470440D01*
X3603114Y2456626D01*
X3627500Y2451775D01*
X3732500D01*
X3756886Y2456626D01*
X3777560Y2470440D01*
X3791374Y2491113D01*
X3792353Y2496037D01*
X3807647D01*
X3808626Y2491113D01*
X3822440Y2470440D01*
X3843114Y2456626D01*
X3867500Y2451775D01*
X3972500D01*
X3996886Y2456626D01*
X4017560Y2470440D01*
X4031374Y2491113D01*
X4036224Y2515500D01*
Y2580500D01*
X4031374Y2604886D01*
X4017560Y2625560D01*
X3996886Y2639373D01*
X3991963Y2640353D01*
Y2655647D01*
X3996886Y2656626D01*
X4017560Y2670440D01*
X4031374Y2691113D01*
X4036224Y2715500D01*
Y2780500D01*
X4031374Y2804886D01*
X4017560Y2825559D01*
X3996886Y2839373D01*
X3991963Y2840353D01*
Y2855647D01*
X3996886Y2856626D01*
X4017560Y2870440D01*
X4031374Y2891113D01*
X4036224Y2915500D01*
Y2980500D01*
X4031374Y3004886D01*
X4017560Y3025560D01*
X3996886Y3039373D01*
X3991963Y3040353D01*
Y3055647D01*
X3996886Y3056626D01*
X4017560Y3070440D01*
X4031374Y3091113D01*
X4036224Y3115499D01*
Y3180500D01*
X4031374Y3204886D01*
X4017560Y3225559D01*
X3996886Y3239373D01*
X3991963Y3240353D01*
Y3255647D01*
X3996886Y3256626D01*
X4017560Y3270440D01*
X4031374Y3291113D01*
X4036224Y3315500D01*
Y3380500D01*
X4031374Y3404886D01*
X4017560Y3425560D01*
X3996886Y3439373D01*
X3972500Y3444224D01*
D02*
G37*
G36*
X4453545Y3374317D02*
X4434648D01*
X4417190Y3367085D01*
X4403828Y3353723D01*
X4396597Y3336265D01*
Y3317369D01*
X4403828Y3299910D01*
X4417190Y3286548D01*
X4434648Y3279317D01*
X4453545D01*
X4471003Y3286548D01*
X4484365Y3299910D01*
X4491597Y3317369D01*
Y3336265D01*
X4484365Y3353723D01*
X4471003Y3367085D01*
X4453545Y3374317D01*
D02*
G37*
G36*
X5977530Y4387641D02*
X5958634D01*
X5941176Y4380410D01*
X5927814Y4367048D01*
X5924739Y4359626D01*
X5777557Y4212443D01*
X5767611Y4197558D01*
X5764119Y4180000D01*
Y3073355D01*
X5762500Y3069448D01*
Y3050552D01*
X5769732Y3033094D01*
X5783094Y3019732D01*
X5800552Y3012500D01*
X5819448D01*
X5836907Y3019732D01*
X5850268Y3033094D01*
X5857500Y3050552D01*
Y3069448D01*
X5855882Y3073355D01*
Y4160995D01*
X5994597Y4299710D01*
X5994989Y4299873D01*
X6008350Y4313235D01*
X6011797Y4321556D01*
X6012389Y4322442D01*
X6012597Y4323487D01*
X6015582Y4330693D01*
Y4338493D01*
X6015882Y4340000D01*
X6015582Y4341507D01*
Y4349589D01*
X6012489Y4357057D01*
X6012389Y4357558D01*
X6012105Y4357983D01*
X6008350Y4367048D01*
X5994989Y4380410D01*
X5977530Y4387641D01*
D02*
G37*
G36*
X2553016Y2967450D02*
X2534120D01*
X2516662Y2960218D01*
X2503300Y2946856D01*
X2496068Y2929398D01*
Y2910502D01*
X2503300Y2893043D01*
X2516662Y2879682D01*
X2534120Y2872450D01*
X2553016D01*
X2570475Y2879682D01*
X2583837Y2893043D01*
X2591068Y2910502D01*
Y2929398D01*
X2583837Y2946856D01*
X2570475Y2960218D01*
X2553016Y2967450D01*
D02*
G37*
G36*
X5801756Y2973967D02*
X5777887D01*
X5755835Y2964833D01*
X5738956Y2947955D01*
X5729822Y2925902D01*
Y2902033D01*
X5738956Y2879980D01*
X5755835Y2863102D01*
X5777887Y2853968D01*
X5801756D01*
X5823809Y2863102D01*
X5840687Y2879980D01*
X5849822Y2902033D01*
Y2925902D01*
X5840687Y2947955D01*
X5823809Y2964833D01*
X5801756Y2973967D01*
D02*
G37*
G36*
X4519448Y2717500D02*
X4500552D01*
X4483094Y2710268D01*
X4469732Y2696906D01*
X4462500Y2679448D01*
Y2660552D01*
X4469732Y2643094D01*
X4483094Y2629732D01*
X4500552Y2622500D01*
X4519448D01*
X4536907Y2629732D01*
X4550269Y2643094D01*
X4557500Y2660552D01*
Y2679448D01*
X4550269Y2696906D01*
X4536907Y2710268D01*
X4519448Y2717500D01*
D02*
G37*
G36*
X3401948Y2597500D02*
X3383052D01*
X3365593Y2590268D01*
X3352232Y2576906D01*
X3345000Y2559448D01*
Y2540552D01*
X3352232Y2523094D01*
X3365593Y2509732D01*
X3383052Y2502500D01*
X3401948D01*
X3419406Y2509732D01*
X3432768Y2523094D01*
X3440000Y2540552D01*
Y2559448D01*
X3432768Y2576906D01*
X3419406Y2590268D01*
X3401948Y2597500D01*
D02*
G37*
G36*
X2393782Y2562839D02*
X2369913D01*
X2347860Y2553705D01*
X2330982Y2536826D01*
X2321848Y2514774D01*
Y2490904D01*
X2330982Y2468852D01*
X2347860Y2451974D01*
X2369913Y2442839D01*
X2393782D01*
X2415835Y2451974D01*
X2432713Y2468852D01*
X2441848Y2490904D01*
Y2514774D01*
X2432713Y2536826D01*
X2415835Y2553705D01*
X2393782Y2562839D01*
D02*
G37*
G36*
X1969448Y1864891D02*
X1950551D01*
X1933093Y1857660D01*
X1919731Y1844298D01*
X1912500Y1826840D01*
Y1807943D01*
X1919731Y1790485D01*
X1933093Y1777123D01*
X1950551Y1769892D01*
X1969448D01*
X1986906Y1777123D01*
X2000268Y1790485D01*
X2007499Y1807943D01*
Y1826840D01*
X2000268Y1844298D01*
X1986906Y1857660D01*
X1969448Y1864891D01*
D02*
G37*
G36*
X5410936Y1818350D02*
X5392040D01*
X5374581Y1811119D01*
X5361219Y1797757D01*
X5353988Y1780298D01*
Y1761402D01*
X5361219Y1743944D01*
X5374581Y1730582D01*
X5392040Y1723350D01*
X5410936D01*
X5428394Y1730582D01*
X5441756Y1743944D01*
X5448988Y1761402D01*
Y1780298D01*
X5441756Y1797757D01*
X5428394Y1811119D01*
X5410936Y1818350D01*
D02*
G37*
G36*
X5169448Y1747500D02*
X5150552D01*
X5133094Y1740268D01*
X5119732Y1726906D01*
X5112500Y1709448D01*
Y1690552D01*
X5119732Y1673093D01*
X5133094Y1659732D01*
X5150552Y1652500D01*
X5169448D01*
X5186907Y1659732D01*
X5200268Y1673093D01*
X5207500Y1690552D01*
Y1709448D01*
X5200268Y1726906D01*
X5186907Y1740268D01*
X5169448Y1747500D01*
D02*
G37*
G36*
X4608943Y1667480D02*
X4590046D01*
X4572588Y1660249D01*
X4559226Y1646887D01*
X4551995Y1629429D01*
Y1610532D01*
X4559226Y1593074D01*
X4572588Y1579712D01*
X4590046Y1572481D01*
X4608943D01*
X4626401Y1579712D01*
X4639763Y1593074D01*
X4646994Y1610532D01*
Y1629429D01*
X4639763Y1646887D01*
X4626401Y1660249D01*
X4608943Y1667480D01*
D02*
G37*
G36*
X4239448Y1587500D02*
X4220552D01*
X4203093Y1580268D01*
X4189732Y1566906D01*
X4182500Y1549448D01*
Y1530552D01*
X4188615Y1515790D01*
X4179732Y1506907D01*
X4172500Y1489448D01*
Y1470552D01*
X4179732Y1453094D01*
X4193093Y1439732D01*
X4210552Y1432500D01*
X4229448D01*
X4246906Y1439732D01*
X4260268Y1453094D01*
X4267500Y1470552D01*
Y1489448D01*
X4261385Y1504210D01*
X4270268Y1513093D01*
X4277500Y1530552D01*
Y1549448D01*
X4270268Y1566906D01*
X4256906Y1580268D01*
X4239448Y1587500D01*
D02*
G37*
G36*
X3339448Y1517500D02*
X3320552D01*
X3303093Y1510269D01*
X3289732Y1496907D01*
X3282500Y1479448D01*
Y1460552D01*
X3289732Y1443094D01*
X3303093Y1429732D01*
X3320552Y1422500D01*
X3339448D01*
X3356906Y1429732D01*
X3370268Y1443094D01*
X3377500Y1460552D01*
Y1479448D01*
X3370268Y1496907D01*
X3356906Y1510269D01*
X3339448Y1517500D01*
D02*
G37*
G36*
X2136528Y1230554D02*
X2117632D01*
X2100173Y1223322D01*
X2086811Y1209960D01*
X2079580Y1192502D01*
Y1173605D01*
X2086811Y1156147D01*
X2100173Y1142785D01*
X2117632Y1135554D01*
X2136528D01*
X2153986Y1142785D01*
X2167348Y1156147D01*
X2174580Y1173605D01*
Y1192502D01*
X2167348Y1209960D01*
X2153986Y1223322D01*
X2136528Y1230554D01*
D02*
G37*
G36*
X3479448Y1097500D02*
X3460552D01*
X3443093Y1090268D01*
X3429732Y1076907D01*
X3411648Y1072446D01*
X3399448Y1077500D01*
X3380552D01*
X3363094Y1070268D01*
X3349732Y1056906D01*
X3342500Y1039448D01*
Y1020552D01*
X3349732Y1003093D01*
X3363094Y989732D01*
X3380552Y982500D01*
X3399448D01*
X3416907Y989732D01*
X3429393Y1002218D01*
X3439605Y1009037D01*
X3443094Y1009732D01*
X3460552Y1002500D01*
X3479448D01*
X3496906Y1009732D01*
X3510268Y1023093D01*
X3517500Y1040552D01*
Y1059448D01*
X3510268Y1076906D01*
X3496906Y1090268D01*
X3479448Y1097500D01*
D02*
G37*
G36*
X3269145Y1163423D02*
X3250248D01*
X3232790Y1156192D01*
X3219428Y1142830D01*
X3212197Y1125372D01*
Y1106475D01*
X3219428Y1089017D01*
X3232790Y1075655D01*
X3250248Y1068424D01*
X3269145D01*
X3286603Y1075655D01*
X3299965Y1089017D01*
X3307196Y1106475D01*
Y1125372D01*
X3299965Y1142830D01*
X3286603Y1156192D01*
X3269145Y1163423D01*
D02*
G37*
G36*
X3027129Y1048805D02*
X3008232D01*
X2990774Y1041574D01*
X2977412Y1028212D01*
X2970181Y1010754D01*
Y991857D01*
X2977412Y974399D01*
X2990774Y961037D01*
X3008232Y953806D01*
X3027129D01*
X3044587Y961037D01*
X3057949Y974399D01*
X3065181Y991857D01*
Y1010754D01*
X3057949Y1028212D01*
X3044587Y1041574D01*
X3027129Y1048805D01*
D02*
G37*
G36*
X3208295Y988888D02*
X3189398D01*
X3171940Y981656D01*
X3158578Y968294D01*
X3151347Y950836D01*
Y931939D01*
X3158578Y914481D01*
X3171940Y901119D01*
X3189398Y893888D01*
X3208295D01*
X3225753Y901119D01*
X3239115Y914481D01*
X3246347Y931939D01*
Y950836D01*
X3239115Y968294D01*
X3225753Y981656D01*
X3208295Y988888D01*
D02*
G37*
G36*
X2610278Y2094012D02*
X2588819Y2089743D01*
X2570626Y2077587D01*
X2510779Y2017740D01*
X2498623Y1999547D01*
X2494354Y1978087D01*
Y910944D01*
X2498623Y889484D01*
X2510779Y871291D01*
X2528972Y859135D01*
X2550432Y854866D01*
X2571891Y859135D01*
X2590084Y871291D01*
X2602240Y889484D01*
X2606509Y910944D01*
Y1954859D01*
X2649931Y1998281D01*
X2662087Y2016475D01*
X2666356Y2037934D01*
X2662087Y2059394D01*
X2649931Y2077587D01*
X2631738Y2089743D01*
X2610278Y2094012D01*
D02*
G37*
G36*
X2351504Y910000D02*
X2327635D01*
X2305582Y900866D01*
X2288704Y883987D01*
X2279569Y861935D01*
Y838065D01*
X2288704Y816013D01*
X2305582Y799135D01*
X2327635Y790000D01*
X2351504D01*
X2373557Y799135D01*
X2390435Y816013D01*
X2399569Y838065D01*
Y861935D01*
X2390435Y883987D01*
X2373557Y900866D01*
X2351504Y910000D01*
D02*
G37*
G36*
X3269788Y848079D02*
X3250891D01*
X3233433Y840847D01*
X3220071Y827485D01*
X3212840Y810027D01*
Y791130D01*
X3220071Y773672D01*
X3233433Y760310D01*
X3250891Y753079D01*
X3269788D01*
X3287246Y760310D01*
X3300608Y773672D01*
X3307839Y791130D01*
Y810027D01*
X3300608Y827485D01*
X3287246Y840847D01*
X3269788Y848079D01*
D02*
G37*
G36*
X3158380Y790012D02*
X3139483D01*
X3122025Y782781D01*
X3108663Y769419D01*
X3101432Y751960D01*
Y733064D01*
X3108663Y715606D01*
X3122025Y702244D01*
X3139483Y695012D01*
X3158380D01*
X3175838Y702244D01*
X3189200Y715606D01*
X3196432Y733064D01*
Y751960D01*
X3189200Y769419D01*
X3175838Y782781D01*
X3158380Y790012D01*
D02*
G37*
G36*
X3352761Y766230D02*
X3333864D01*
X3316406Y758999D01*
X3303044Y745637D01*
X3295813Y728179D01*
Y709282D01*
X3303044Y691824D01*
X3316406Y678462D01*
X3333864Y671231D01*
X3352761D01*
X3370219Y678462D01*
X3383581Y691824D01*
X3390812Y709282D01*
Y728179D01*
X3383581Y745637D01*
X3370219Y758999D01*
X3352761Y766230D01*
D02*
G37*
G36*
X1550000Y835000D02*
X1410000D01*
X1340000Y765000D01*
Y625000D01*
X1410000Y555000D01*
X1550000D01*
X1620000Y625000D01*
Y765000D01*
X1550000Y835000D01*
D02*
G37*
G36*
X2069500Y595920D02*
X2042000D01*
Y474500D01*
X2143420D01*
Y522000D01*
X2137793Y550288D01*
X2121769Y574269D01*
X2097788Y590293D01*
X2069500Y595920D01*
D02*
G37*
G36*
X2022000D02*
X1994500D01*
X1966212Y590293D01*
X1942231Y574269D01*
X1926207Y550288D01*
X1920580Y522000D01*
Y474500D01*
X2022000D01*
Y595920D01*
D02*
G37*
G36*
X1535000Y491763D02*
X1490000D01*
Y355000D01*
X1626763D01*
Y400000D01*
X1619778Y435116D01*
X1599887Y464887D01*
X1570116Y484778D01*
X1535000Y491763D01*
D02*
G37*
G36*
X1470000D02*
X1425000D01*
X1389884Y484778D01*
X1360114Y464887D01*
X1340222Y435116D01*
X1333237Y400000D01*
Y355000D01*
X1470000D01*
Y491763D01*
D02*
G37*
G36*
X3085500Y590822D02*
X3010500D01*
X2984163Y585583D01*
X2961836Y570664D01*
X2946917Y548337D01*
X2941678Y522000D01*
Y407000D01*
X2946917Y380663D01*
X2961836Y358336D01*
X2984163Y343417D01*
X3010500Y338178D01*
X3085500D01*
X3111837Y343417D01*
X3134164Y358336D01*
X3149083Y380663D01*
X3154322Y407000D01*
Y522000D01*
X3149083Y548337D01*
X3134164Y570664D01*
X3111837Y585583D01*
X3085500Y590822D01*
D02*
G37*
G36*
X2831500D02*
X2756500D01*
X2730163Y585583D01*
X2707836Y570664D01*
X2692917Y548337D01*
X2687678Y522000D01*
Y407000D01*
X2692917Y380663D01*
X2707836Y358336D01*
X2730163Y343417D01*
X2756500Y338178D01*
X2831500D01*
X2857837Y343417D01*
X2880164Y358336D01*
X2895083Y380663D01*
X2900322Y407000D01*
Y522000D01*
X2895083Y548337D01*
X2880164Y570664D01*
X2857837Y585583D01*
X2831500Y590822D01*
D02*
G37*
G36*
X2577500D02*
X2502500D01*
X2476163Y585583D01*
X2453836Y570664D01*
X2438917Y548337D01*
X2433678Y522000D01*
Y407000D01*
X2438917Y380663D01*
X2453836Y358336D01*
X2476163Y343417D01*
X2502500Y338178D01*
X2577500D01*
X2603837Y343417D01*
X2626164Y358336D01*
X2641083Y380663D01*
X2646322Y407000D01*
Y522000D01*
X2641083Y548337D01*
X2626164Y570664D01*
X2603837Y585583D01*
X2577500Y590822D01*
D02*
G37*
G36*
X2323500D02*
X2248500D01*
X2222163Y585583D01*
X2199836Y570664D01*
X2184917Y548337D01*
X2179678Y522000D01*
Y407000D01*
X2184917Y380663D01*
X2199836Y358336D01*
X2222163Y343417D01*
X2248500Y338178D01*
X2323500D01*
X2349837Y343417D01*
X2372164Y358336D01*
X2387083Y380663D01*
X2392322Y407000D01*
Y522000D01*
X2387083Y548337D01*
X2372164Y570664D01*
X2349837Y585583D01*
X2323500Y590822D01*
D02*
G37*
G36*
X2143420Y454500D02*
X2042000D01*
Y333080D01*
X2069500D01*
X2097788Y338707D01*
X2121769Y354731D01*
X2137793Y378712D01*
X2143420Y407000D01*
Y454500D01*
D02*
G37*
G36*
X2022000D02*
X1920580D01*
Y407000D01*
X1926207Y378712D01*
X1942231Y354731D01*
X1966212Y338707D01*
X1994500Y333080D01*
X2022000D01*
Y454500D01*
D02*
G37*
G36*
X1626763Y335000D02*
X1490000D01*
Y198237D01*
X1535000D01*
X1570116Y205222D01*
X1599887Y225114D01*
X1619778Y254884D01*
X1626763Y290000D01*
Y335000D01*
D02*
G37*
G36*
X1470000D02*
X1333237D01*
Y290000D01*
X1340222Y254884D01*
X1360114Y225114D01*
X1389884Y205222D01*
X1425000Y198237D01*
X1470000D01*
Y335000D01*
D02*
G37*
G36*
X2069500Y301920D02*
X2042000D01*
Y180500D01*
X2143420D01*
Y228000D01*
X2137793Y256288D01*
X2121769Y280269D01*
X2097788Y296293D01*
X2069500Y301920D01*
D02*
G37*
G36*
X2022000D02*
X1994500D01*
X1966212Y296293D01*
X1942231Y280269D01*
X1926207Y256288D01*
X1920580Y228000D01*
Y180500D01*
X2022000D01*
Y301920D01*
D02*
G37*
%LPD*%
G36*
X3578625Y4901497D02*
X3576500Y4900320D01*
X3574625Y4898399D01*
X3573000Y4895735D01*
X3571625Y4892326D01*
X3570500Y4888174D01*
X3569625Y4883278D01*
X3569000Y4877637D01*
X3568500Y4864125D01*
X3543500D01*
X3543375Y4871253D01*
X3542375Y4883278D01*
X3541500Y4888174D01*
X3540375Y4892326D01*
X3539000Y4895735D01*
X3537375Y4898399D01*
X3535500Y4900320D01*
X3533375Y4901497D01*
X3531000Y4901930D01*
X3581000D01*
X3578625Y4901497D01*
D02*
G37*
G36*
X3514924Y4107246D02*
X3513543Y4105844D01*
X3508710Y4100271D01*
X3508157Y4099444D01*
X3507742Y4098712D01*
X3507465Y4098076D01*
X3507326Y4097536D01*
X3487536Y4117326D01*
X3488076Y4117465D01*
X3488712Y4117742D01*
X3489444Y4118157D01*
X3490271Y4118710D01*
X3491194Y4119400D01*
X3493328Y4121196D01*
X3497246Y4124924D01*
X3514924Y4107246D01*
D02*
G37*
G36*
X3492464Y4082674D02*
X3491924Y4082535D01*
X3491288Y4082258D01*
X3490556Y4081843D01*
X3489728Y4081290D01*
X3488805Y4080600D01*
X3486672Y4078804D01*
X3482754Y4075076D01*
X3465076Y4092754D01*
X3466457Y4094156D01*
X3471290Y4099728D01*
X3471843Y4100556D01*
X3472258Y4101288D01*
X3472535Y4101924D01*
X3472674Y4102464D01*
X3492464Y4082674D01*
D02*
G37*
G36*
X2734590Y3284412D02*
X2735113Y3277053D01*
X2735307Y3276078D01*
X2735531Y3275267D01*
X2735785Y3274621D01*
X2736069Y3274141D01*
X2708082D01*
X2708366Y3274621D01*
X2708620Y3275267D01*
X2708844Y3276078D01*
X2709038Y3277053D01*
X2709202Y3278195D01*
X2709441Y3280973D01*
X2709575Y3286380D01*
X2734576D01*
X2734590Y3284412D01*
D02*
G37*
G36*
X2735785Y3252643D02*
X2735531Y3251997D01*
X2735307Y3251187D01*
X2735113Y3250211D01*
X2734949Y3249069D01*
X2734710Y3246291D01*
X2734576Y3240885D01*
X2709575D01*
X2709561Y3242852D01*
X2709038Y3250211D01*
X2708844Y3251187D01*
X2708620Y3251997D01*
X2708366Y3252643D01*
X2708082Y3253123D01*
X2736069D01*
X2735785Y3252643D01*
D02*
G37*
G36*
X3939491Y2236007D02*
X3939011Y2236290D01*
X3938365Y2236544D01*
X3937554Y2236768D01*
X3936579Y2236963D01*
X3935437Y2237127D01*
X3932659Y2237366D01*
X3927252Y2237500D01*
Y2262500D01*
X3929220Y2262515D01*
X3936579Y2263038D01*
X3937554Y2263232D01*
X3938365Y2263456D01*
X3939011Y2263710D01*
X3939491Y2263993D01*
Y2236007D01*
D02*
G37*
G36*
X4665500Y2500219D02*
X4667000Y2491719D01*
X4669500Y2484219D01*
X4673000Y2477719D01*
X4677500Y2472219D01*
X4683000Y2467719D01*
X4689500Y2464219D01*
X4697000Y2461719D01*
X4705500Y2460219D01*
X4715000Y2459719D01*
X4640000Y2409719D01*
X4565000Y2459719D01*
X4574500Y2460219D01*
X4583000Y2461719D01*
X4590500Y2464219D01*
X4597000Y2467719D01*
X4602500Y2472219D01*
X4607000Y2477719D01*
X4610500Y2484219D01*
X4613000Y2491719D01*
X4614500Y2500219D01*
X4615000Y2509719D01*
X4665000D01*
X4665500Y2500219D01*
D02*
G37*
%LPC*%
G36*
X7281948Y2722247D02*
X7263052D01*
X7245594Y2715015D01*
X7232232Y2701653D01*
X7225000Y2684195D01*
Y2665298D01*
X7232232Y2647840D01*
X7245594Y2634478D01*
X7263052Y2627247D01*
X7281948D01*
X7299407Y2634478D01*
X7312768Y2647840D01*
X7320000Y2665298D01*
Y2684195D01*
X7312768Y2701653D01*
X7299407Y2715015D01*
X7281948Y2722247D01*
D02*
G37*
G36*
Y2572955D02*
X7263052D01*
X7245594Y2565724D01*
X7232232Y2552362D01*
X7225000Y2534904D01*
Y2516007D01*
X7232232Y2498549D01*
X7245594Y2485187D01*
X7263052Y2477956D01*
X7281948D01*
X7299407Y2485187D01*
X7312768Y2498549D01*
X7320000Y2516007D01*
Y2534904D01*
X7312768Y2552362D01*
X7299407Y2565724D01*
X7281948Y2572955D01*
D02*
G37*
G36*
X6160669Y2324414D02*
X6141773D01*
X6124314Y2317182D01*
X6110952Y2303820D01*
X6103721Y2286362D01*
Y2267466D01*
X6110952Y2250007D01*
X6124314Y2236646D01*
X6141773Y2229414D01*
X6160669D01*
X6178127Y2236646D01*
X6191489Y2250007D01*
X6198721Y2267466D01*
Y2286362D01*
X6191489Y2303820D01*
X6178127Y2317182D01*
X6160669Y2324414D01*
D02*
G37*
G36*
X7281948Y2251891D02*
X7263052D01*
X7245594Y2244659D01*
X7232232Y2231298D01*
X7225000Y2213839D01*
Y2194943D01*
X7232232Y2177485D01*
X7245594Y2164123D01*
X7263052Y2156891D01*
X7281948D01*
X7299407Y2164123D01*
X7312768Y2177485D01*
X7320000Y2194943D01*
Y2213839D01*
X7312768Y2231298D01*
X7299407Y2244659D01*
X7281948Y2251891D01*
D02*
G37*
G36*
X6155791Y2172415D02*
X6136894D01*
X6119436Y2165184D01*
X6106074Y2151822D01*
X6098843Y2134364D01*
Y2115467D01*
X6106074Y2098009D01*
X6119436Y2084647D01*
X6136894Y2077416D01*
X6155791D01*
X6173249Y2084647D01*
X6186611Y2098009D01*
X6193842Y2115467D01*
Y2134364D01*
X6186611Y2151822D01*
X6173249Y2165184D01*
X6155791Y2172415D01*
D02*
G37*
G36*
X7281948Y2102265D02*
X7263052D01*
X7245594Y2095034D01*
X7232232Y2081672D01*
X7225000Y2064214D01*
Y2045317D01*
X7232232Y2027859D01*
X7245594Y2014497D01*
X7263052Y2007265D01*
X7281948D01*
X7299407Y2014497D01*
X7312768Y2027859D01*
X7320000Y2045317D01*
Y2064214D01*
X7312768Y2081672D01*
X7299407Y2095034D01*
X7281948Y2102265D01*
D02*
G37*
G36*
X6157174Y1913323D02*
X6138278D01*
X6120819Y1906091D01*
X6107457Y1892730D01*
X6100226Y1875271D01*
Y1856375D01*
X6107457Y1838917D01*
X6120819Y1825555D01*
X6138278Y1818323D01*
X6157174D01*
X6174632Y1825555D01*
X6187994Y1838917D01*
X6195226Y1856375D01*
Y1875271D01*
X6187994Y1892730D01*
X6174632Y1906091D01*
X6157174Y1913323D01*
D02*
G37*
G36*
X6309448Y1657500D02*
X6290552D01*
X6273094Y1650268D01*
X6259732Y1636907D01*
X6252500Y1619448D01*
Y1600552D01*
X6259732Y1583094D01*
X6273094Y1569732D01*
X6290552Y1562500D01*
X6309448D01*
X6326907Y1569732D01*
X6340268Y1583094D01*
X6347500Y1600552D01*
Y1619448D01*
X6340268Y1636907D01*
X6326907Y1650268D01*
X6309448Y1657500D01*
D02*
G37*
G36*
X6379232Y1422967D02*
X6360335D01*
X6342877Y1415735D01*
X6329515Y1402373D01*
X6322284Y1384915D01*
Y1366019D01*
X6329515Y1348560D01*
X6342877Y1335198D01*
X6360335Y1327967D01*
X6379232D01*
X6396690Y1335198D01*
X6410052Y1348560D01*
X6417283Y1366019D01*
Y1384915D01*
X6410052Y1402373D01*
X6396690Y1415735D01*
X6379232Y1422967D01*
D02*
G37*
G36*
X6269448Y1337500D02*
X6250551D01*
X6233093Y1330269D01*
X6219731Y1316907D01*
X6212500Y1299449D01*
Y1280552D01*
X6219731Y1263094D01*
X6233093Y1249732D01*
X6250551Y1242500D01*
X6269448D01*
X6286906Y1249732D01*
X6300268Y1263094D01*
X6307499Y1280552D01*
Y1299449D01*
X6300268Y1316907D01*
X6286906Y1330269D01*
X6269448Y1337500D01*
D02*
G37*
G36*
X6383578Y1272424D02*
X6364681D01*
X6347223Y1265193D01*
X6333861Y1251831D01*
X6326630Y1234372D01*
Y1215476D01*
X6333861Y1198018D01*
X6347223Y1184656D01*
X6364681Y1177424D01*
X6383578D01*
X6401036Y1184656D01*
X6414398Y1198018D01*
X6421629Y1215476D01*
Y1234372D01*
X6414398Y1251831D01*
X6401036Y1265193D01*
X6383578Y1272424D01*
D02*
G37*
G36*
X6500435Y1159318D02*
X6481538D01*
X6464080Y1152087D01*
X6450718Y1138725D01*
X6443486Y1121267D01*
Y1102370D01*
X6450718Y1084912D01*
X6464080Y1071550D01*
X6481538Y1064319D01*
X6500435D01*
X6517893Y1071550D01*
X6531255Y1084912D01*
X6538486Y1102370D01*
Y1121267D01*
X6531255Y1138725D01*
X6517893Y1152087D01*
X6500435Y1159318D01*
D02*
G37*
G36*
X8191591Y2862323D02*
X8172695D01*
X8155237Y2855092D01*
X8141875Y2841730D01*
X8134643Y2824272D01*
Y2805375D01*
X8141875Y2787917D01*
X8155237Y2774555D01*
X8172695Y2767324D01*
X8191591D01*
X8209050Y2774555D01*
X8222412Y2787917D01*
X8229643Y2805375D01*
Y2824272D01*
X8222412Y2841730D01*
X8209050Y2855092D01*
X8191591Y2862323D01*
D02*
G37*
G36*
X8154250Y2388945D02*
X8123000D01*
Y2285000D01*
X8229444D01*
Y2313750D01*
X8223720Y2342526D01*
X8207420Y2366921D01*
X8183025Y2383221D01*
X8154250Y2388945D01*
D02*
G37*
G36*
X8197679Y1764781D02*
X8178782D01*
X8161324Y1757550D01*
X8147962Y1744188D01*
X8140731Y1726730D01*
Y1707833D01*
X8147962Y1690375D01*
X8150581Y1687756D01*
X8149731Y1686906D01*
X8142500Y1669448D01*
Y1650552D01*
X8149731Y1633094D01*
X8163093Y1619732D01*
X8180552Y1612500D01*
X8199448D01*
X8216906Y1619732D01*
X8230268Y1633094D01*
X8237500Y1650552D01*
Y1669448D01*
X8230268Y1686906D01*
X8227649Y1689525D01*
X8228499Y1690375D01*
X8235730Y1707833D01*
Y1726730D01*
X8228499Y1744188D01*
X8215137Y1757550D01*
X8197679Y1764781D01*
D02*
G37*
G36*
X8347955Y1769334D02*
X8329058D01*
X8311600Y1762102D01*
X8298238Y1748740D01*
X8291007Y1731282D01*
Y1712385D01*
X8298238Y1694927D01*
X8307557Y1685609D01*
X8295607Y1673660D01*
X8288376Y1656201D01*
Y1637305D01*
X8295607Y1619847D01*
X8308969Y1606485D01*
X8326427Y1599253D01*
X8345324D01*
X8362782Y1606485D01*
X8376144Y1619847D01*
X8383375Y1637305D01*
Y1656201D01*
X8376144Y1673660D01*
X8366826Y1682978D01*
X8378775Y1694927D01*
X8386006Y1712385D01*
Y1731282D01*
X8378775Y1748740D01*
X8365413Y1762102D01*
X8347955Y1769334D01*
D02*
G37*
G36*
X8264389Y1052412D02*
X8245492D01*
X8228034Y1045181D01*
X8220149Y1037296D01*
X8217004Y1040442D01*
X8199546Y1047673D01*
X8180649D01*
X8163191Y1040442D01*
X8149829Y1027080D01*
X8142598Y1009622D01*
Y990725D01*
X8149829Y973267D01*
X8163191Y959905D01*
X8180649Y952673D01*
X8199546D01*
X8217004Y959905D01*
X8224889Y967790D01*
X8228034Y964644D01*
X8245492Y957413D01*
X8264389D01*
X8281847Y964644D01*
X8295209Y978006D01*
X8302440Y995464D01*
Y1014361D01*
X8295209Y1031819D01*
X8281847Y1045181D01*
X8264389Y1052412D01*
D02*
G37*
G36*
X7468391Y1127429D02*
X7449495D01*
X7432037Y1120198D01*
X7418675Y1106836D01*
X7411443Y1089378D01*
Y1070481D01*
X7418675Y1053023D01*
X7432037Y1039661D01*
X7449495Y1032429D01*
X7468391D01*
X7485850Y1039661D01*
X7499212Y1053023D01*
X7506443Y1070481D01*
Y1089378D01*
X7499212Y1106836D01*
X7485850Y1120198D01*
X7468391Y1127429D01*
D02*
G37*
G36*
X7463789Y928720D02*
X7444893D01*
X7427435Y921489D01*
X7414073Y908127D01*
X7406841Y890669D01*
Y871772D01*
X7414073Y854314D01*
X7424386Y844001D01*
X7422500Y839448D01*
Y820552D01*
X7429732Y803094D01*
X7443094Y789732D01*
X7460552Y782500D01*
X7479448D01*
X7496907Y789732D01*
X7510268Y803094D01*
X7517500Y820552D01*
Y839448D01*
X7510268Y856907D01*
X7499955Y867220D01*
X7501841Y871772D01*
Y890669D01*
X7494610Y908127D01*
X7481248Y921489D01*
X7463789Y928720D01*
D02*
G37*
G36*
X5419448Y927500D02*
X5400552D01*
X5383094Y920268D01*
X5369732Y906906D01*
X5362500Y889448D01*
Y870552D01*
X5369732Y853094D01*
X5383094Y839732D01*
X5388239Y837600D01*
Y821364D01*
X5385593Y820268D01*
X5372232Y806906D01*
X5365000Y789448D01*
Y781850D01*
X5350000Y778866D01*
X5347802Y784173D01*
X5334440Y797535D01*
X5316982Y804766D01*
X5298085D01*
X5280627Y797535D01*
X5267265Y784173D01*
X5260034Y766714D01*
Y747818D01*
X5267265Y730360D01*
X5280627Y716998D01*
X5298085Y709766D01*
X5316982D01*
X5334440Y716998D01*
X5347802Y730360D01*
X5355033Y747818D01*
Y755416D01*
X5370033Y758400D01*
X5372232Y753093D01*
X5385593Y739732D01*
X5403052Y732500D01*
X5421948D01*
X5439406Y739732D01*
X5452768Y753093D01*
X5460000Y770552D01*
Y789448D01*
X5452768Y806906D01*
X5439406Y820268D01*
X5434261Y822400D01*
Y838636D01*
X5436907Y839732D01*
X5450268Y853094D01*
X5457500Y870552D01*
Y889448D01*
X5450268Y906906D01*
X5436907Y920268D01*
X5419448Y927500D01*
D02*
G37*
G36*
X5531948Y827500D02*
X5513052D01*
X5495594Y820268D01*
X5482232Y806906D01*
X5475000Y789448D01*
Y770552D01*
X5482232Y753093D01*
X5495594Y739732D01*
X5513052Y732500D01*
X5531948D01*
X5549406Y739732D01*
X5562768Y753093D01*
X5570000Y770552D01*
Y789448D01*
X5562768Y806906D01*
X5549406Y820268D01*
X5531948Y827500D01*
D02*
G37*
G36*
X8196191Y887196D02*
X8177294D01*
X8159836Y879965D01*
X8146474Y866603D01*
X8139243Y849145D01*
Y830248D01*
X8146474Y812790D01*
X8159836Y799428D01*
X8177294Y792197D01*
X8196191D01*
X8209452Y797690D01*
X8210172Y796970D01*
X8227630Y789739D01*
X8228186D01*
X8230718Y787356D01*
X8236973Y774739D01*
X8231748Y762124D01*
Y743228D01*
X8238979Y725770D01*
X8252341Y712408D01*
X8269799Y705176D01*
X8288696D01*
X8306154Y712408D01*
X8308286Y714540D01*
X8313094Y709732D01*
X8330552Y702500D01*
X8349448D01*
X8366907Y709732D01*
X8380268Y723094D01*
X8387500Y740552D01*
Y759448D01*
X8380268Y776906D01*
X8366907Y790268D01*
X8349448Y797500D01*
X8330552D01*
X8313094Y790268D01*
X8310962Y788137D01*
X8306154Y792945D01*
X8288696Y800176D01*
X8288140D01*
X8285608Y802559D01*
X8279353Y815176D01*
X8284578Y827791D01*
Y846687D01*
X8277347Y864145D01*
X8263985Y877507D01*
X8246527Y884739D01*
X8227630D01*
X8214368Y879245D01*
X8213649Y879965D01*
X8196191Y887196D01*
D02*
G37*
G36*
X7541469Y780811D02*
X7522572D01*
X7505114Y773580D01*
X7491752Y760218D01*
X7484521Y742760D01*
Y723863D01*
X7491752Y706405D01*
X7505114Y693043D01*
X7522572Y685812D01*
X7541469D01*
X7558927Y693043D01*
X7572289Y706405D01*
X7579520Y723863D01*
Y742760D01*
X7572289Y760218D01*
X7558927Y773580D01*
X7541469Y780811D01*
D02*
G37*
G36*
X7859448Y577500D02*
X7840552D01*
X7823094Y570268D01*
X7809732Y556906D01*
X7802500Y539448D01*
Y520552D01*
X7809732Y503093D01*
X7823094Y489732D01*
X7840552Y482500D01*
X7859448D01*
X7876907Y489732D01*
X7890268Y503093D01*
X7897500Y520552D01*
Y539448D01*
X7890268Y556906D01*
X7876907Y570268D01*
X7859448Y577500D01*
D02*
G37*
G36*
X7639448Y667500D02*
X7620552D01*
X7603094Y660268D01*
X7589732Y646907D01*
X7582500Y629448D01*
Y610552D01*
X7582727Y610005D01*
X7573099Y594050D01*
X7554212Y590293D01*
X7530231Y574269D01*
X7514207Y550288D01*
X7508580Y522000D01*
Y474500D01*
X7731420D01*
Y522000D01*
X7725793Y550288D01*
X7709769Y574269D01*
X7685788Y590293D01*
X7681973Y591052D01*
X7674902Y604281D01*
X7677500Y610552D01*
Y629448D01*
X7670268Y646907D01*
X7656906Y660268D01*
X7639448Y667500D01*
D02*
G37*
G36*
X7403500Y595920D02*
X7376000D01*
Y474500D01*
X7477420D01*
Y522000D01*
X7471793Y550288D01*
X7455769Y574269D01*
X7431788Y590293D01*
X7403500Y595920D01*
D02*
G37*
G36*
X7356000D02*
X7328500D01*
X7300212Y590293D01*
X7276231Y574269D01*
X7260207Y550288D01*
X7254580Y522000D01*
Y474500D01*
X7356000D01*
Y595920D01*
D02*
G37*
G36*
X6133500D02*
X6106000D01*
Y474500D01*
X6207420D01*
Y522000D01*
X6201793Y550288D01*
X6185769Y574269D01*
X6161788Y590293D01*
X6133500Y595920D01*
D02*
G37*
G36*
X6086000D02*
X6058500D01*
X6030212Y590293D01*
X6006231Y574269D01*
X5990207Y550288D01*
X5984580Y522000D01*
Y474500D01*
X6086000D01*
Y595920D01*
D02*
G37*
G36*
X8304250Y568945D02*
X8273000D01*
Y465000D01*
X8379445D01*
Y493750D01*
X8373721Y522526D01*
X8357420Y546921D01*
X8333025Y563221D01*
X8304250Y568945D01*
D02*
G37*
G36*
X8253000D02*
X8221750D01*
X8192974Y563221D01*
X8168580Y546921D01*
X8152279Y522526D01*
X8146555Y493750D01*
Y465000D01*
X8253000D01*
Y568945D01*
D02*
G37*
G36*
X8379445Y445000D02*
X8273000D01*
Y341055D01*
X8304250D01*
X8333025Y346779D01*
X8357420Y363080D01*
X8373721Y387474D01*
X8379445Y416250D01*
Y445000D01*
D02*
G37*
G36*
X8253000D02*
X8146555D01*
Y416250D01*
X8152279Y387474D01*
X8168580Y363080D01*
X8192974Y346779D01*
X8221750Y341055D01*
X8253000D01*
Y445000D01*
D02*
G37*
G36*
X6895500Y590822D02*
X6820500D01*
X6794163Y585583D01*
X6771836Y570664D01*
X6756917Y548337D01*
X6751678Y522000D01*
Y407000D01*
X6756917Y380663D01*
X6771836Y358336D01*
X6794163Y343417D01*
X6820500Y338178D01*
X6895500D01*
X6921837Y343417D01*
X6944164Y358336D01*
X6959083Y380663D01*
X6964322Y407000D01*
Y522000D01*
X6959083Y548337D01*
X6944164Y570664D01*
X6921837Y585583D01*
X6895500Y590822D01*
D02*
G37*
G36*
X6641500D02*
X6566500D01*
X6540163Y585583D01*
X6517836Y570664D01*
X6502917Y548337D01*
X6497678Y522000D01*
Y407000D01*
X6502917Y380663D01*
X6517836Y358336D01*
X6540163Y343417D01*
X6566500Y338178D01*
X6641500D01*
X6667837Y343417D01*
X6690164Y358336D01*
X6705083Y380663D01*
X6710322Y407000D01*
Y522000D01*
X6705083Y548337D01*
X6690164Y570664D01*
X6667837Y585583D01*
X6641500Y590822D01*
D02*
G37*
G36*
X5879500D02*
X5804500D01*
X5778163Y585583D01*
X5755836Y570664D01*
X5740917Y548337D01*
X5735678Y522000D01*
Y407000D01*
X5740917Y380663D01*
X5755836Y358336D01*
X5778163Y343417D01*
X5804500Y338178D01*
X5879500D01*
X5905837Y343417D01*
X5928164Y358336D01*
X5943083Y380663D01*
X5948322Y407000D01*
Y522000D01*
X5943083Y548337D01*
X5928164Y570664D01*
X5905837Y585583D01*
X5879500Y590822D01*
D02*
G37*
G36*
X5625500D02*
X5550500D01*
X5524163Y585583D01*
X5501836Y570664D01*
X5486917Y548337D01*
X5481678Y522000D01*
Y407000D01*
X5486917Y380663D01*
X5501836Y358336D01*
X5524163Y343417D01*
X5550500Y338178D01*
X5625500D01*
X5651837Y343417D01*
X5674164Y358336D01*
X5689083Y380663D01*
X5694322Y407000D01*
Y522000D01*
X5689083Y548337D01*
X5674164Y570664D01*
X5651837Y585583D01*
X5625500Y590822D01*
D02*
G37*
G36*
X5283378Y672378D02*
X5264481D01*
X5247023Y665147D01*
X5233661Y651785D01*
X5226430Y634327D01*
Y615430D01*
X5233661Y597972D01*
X5244894Y586739D01*
X5246743Y576635D01*
X5246461Y568607D01*
X5232917Y548337D01*
X5227678Y522000D01*
Y407000D01*
X5232917Y380663D01*
X5247836Y358336D01*
X5270163Y343417D01*
X5296500Y338178D01*
X5371500D01*
X5397837Y343417D01*
X5420164Y358336D01*
X5435083Y380663D01*
X5440322Y407000D01*
Y522000D01*
X5435083Y548337D01*
X5420164Y570664D01*
X5397837Y585583D01*
X5371500Y590822D01*
X5326646D01*
X5317449Y605822D01*
X5321429Y615430D01*
Y634327D01*
X5314198Y651785D01*
X5300836Y665147D01*
X5283378Y672378D01*
D02*
G37*
G36*
X5117500Y590822D02*
X5042500D01*
X5016163Y585583D01*
X4993836Y570664D01*
X4978917Y548337D01*
X4973678Y522000D01*
Y407000D01*
X4978917Y380663D01*
X4993836Y358336D01*
X5016163Y343417D01*
X5042500Y338178D01*
X5117500D01*
X5143837Y343417D01*
X5166164Y358336D01*
X5181083Y380663D01*
X5186322Y407000D01*
Y522000D01*
X5181083Y548337D01*
X5166164Y570664D01*
X5143837Y585583D01*
X5117500Y590822D01*
D02*
G37*
G36*
X4863500D02*
X4788500D01*
X4762163Y585583D01*
X4739836Y570664D01*
X4724917Y548337D01*
X4719678Y522000D01*
Y407000D01*
X4724917Y380663D01*
X4739836Y358336D01*
X4762163Y343417D01*
X4788500Y338178D01*
X4863500D01*
X4889837Y343417D01*
X4912164Y358336D01*
X4927083Y380663D01*
X4932322Y407000D01*
Y522000D01*
X4927083Y548337D01*
X4912164Y570664D01*
X4889837Y585583D01*
X4863500Y590822D01*
D02*
G37*
G36*
X4609500D02*
X4534500D01*
X4508163Y585583D01*
X4485836Y570664D01*
X4470917Y548337D01*
X4465678Y522000D01*
Y407000D01*
X4470917Y380663D01*
X4485836Y358336D01*
X4508163Y343417D01*
X4534500Y338178D01*
X4609500D01*
X4635837Y343417D01*
X4658164Y358336D01*
X4673083Y380663D01*
X4678322Y407000D01*
Y522000D01*
X4673083Y548337D01*
X4658164Y570664D01*
X4635837Y585583D01*
X4609500Y590822D01*
D02*
G37*
G36*
X4355500D02*
X4280500D01*
X4254163Y585583D01*
X4231836Y570664D01*
X4216917Y548337D01*
X4211678Y522000D01*
Y407000D01*
X4216917Y380663D01*
X4231836Y358336D01*
X4254163Y343417D01*
X4280500Y338178D01*
X4355500D01*
X4381837Y343417D01*
X4404164Y358336D01*
X4419083Y380663D01*
X4424322Y407000D01*
Y522000D01*
X4419083Y548337D01*
X4404164Y570664D01*
X4381837Y585583D01*
X4355500Y590822D01*
D02*
G37*
G36*
X4101500D02*
X4026500D01*
X4000163Y585583D01*
X3977836Y570664D01*
X3962917Y548337D01*
X3957678Y522000D01*
Y407000D01*
X3962917Y380663D01*
X3977836Y358336D01*
X4000163Y343417D01*
X4026500Y338178D01*
X4101500D01*
X4127837Y343417D01*
X4150164Y358336D01*
X4165083Y380663D01*
X4170322Y407000D01*
Y522000D01*
X4165083Y548337D01*
X4150164Y570664D01*
X4127837Y585583D01*
X4101500Y590822D01*
D02*
G37*
G36*
X7731420Y454500D02*
X7630000D01*
Y333080D01*
X7657500D01*
X7685788Y338707D01*
X7709769Y354731D01*
X7725793Y378712D01*
X7731420Y407000D01*
Y454500D01*
D02*
G37*
G36*
X7610000D02*
X7508580D01*
Y407000D01*
X7514207Y378712D01*
X7530231Y354731D01*
X7554212Y338707D01*
X7582500Y333080D01*
X7610000D01*
Y454500D01*
D02*
G37*
G36*
X7477420D02*
X7376000D01*
Y333080D01*
X7403500D01*
X7431788Y338707D01*
X7455769Y354731D01*
X7471793Y378712D01*
X7477420Y407000D01*
Y454500D01*
D02*
G37*
G36*
X7356000D02*
X7254580D01*
Y407000D01*
X7260207Y378712D01*
X7276231Y354731D01*
X7300212Y338707D01*
X7328500Y333080D01*
X7356000D01*
Y454500D01*
D02*
G37*
G36*
X6207420D02*
X6106000D01*
Y333080D01*
X6133500D01*
X6161788Y338707D01*
X6185769Y354731D01*
X6201793Y378712D01*
X6207420Y407000D01*
Y454500D01*
D02*
G37*
G36*
X6086000D02*
X5984580D01*
Y407000D01*
X5990207Y378712D01*
X6006231Y354731D01*
X6030212Y338707D01*
X6058500Y333080D01*
X6086000D01*
Y454500D01*
D02*
G37*
G36*
X7657500Y301920D02*
X7630000D01*
Y180500D01*
X7731420D01*
Y228000D01*
X7725793Y256288D01*
X7709769Y280269D01*
X7685788Y296293D01*
X7657500Y301920D01*
D02*
G37*
G36*
X7610000D02*
X7582500D01*
X7554212Y296293D01*
X7530231Y280269D01*
X7514207Y256288D01*
X7508580Y228000D01*
Y180500D01*
X7610000D01*
Y301920D01*
D02*
G37*
G36*
X7403500D02*
X7376000D01*
Y180500D01*
X7477420D01*
Y228000D01*
X7471793Y256288D01*
X7455769Y280269D01*
X7431788Y296293D01*
X7403500Y301920D01*
D02*
G37*
G36*
X7356000D02*
X7328500D01*
X7300212Y296293D01*
X7276231Y280269D01*
X7260207Y256288D01*
X7254580Y228000D01*
Y180500D01*
X7356000D01*
Y301920D01*
D02*
G37*
G36*
X5864448Y1372500D02*
X5845551D01*
X5828093Y1365269D01*
X5814731Y1351907D01*
X5807500Y1334449D01*
Y1315552D01*
X5814731Y1298094D01*
X5828093Y1284732D01*
X5832975Y1282710D01*
Y1265996D01*
X5840206Y1248538D01*
X5853568Y1235176D01*
X5863206Y1231183D01*
Y1220018D01*
X5870438Y1202560D01*
X5883800Y1189198D01*
X5901258Y1181967D01*
X5920154D01*
X5937612Y1189198D01*
X5950974Y1202560D01*
X5958206Y1220018D01*
Y1238915D01*
X5950974Y1256373D01*
X5937612Y1269735D01*
X5927974Y1273727D01*
Y1284892D01*
X5920743Y1302350D01*
X5907381Y1315712D01*
X5902499Y1317734D01*
Y1334449D01*
X5895268Y1351907D01*
X5881906Y1365269D01*
X5864448Y1372500D01*
D02*
G37*
%LPD*%
D70*
X1300500Y5283500D02*
X1600500D01*
X1460500Y5143500D02*
X1600500Y5283500D01*
X1300500Y5003500D02*
X1440500Y5143500D01*
X1460500D01*
X1300500Y5003500D02*
Y5283500D01*
Y5003500D02*
X1620500D01*
X1504000Y5120000D02*
X1620500Y5003500D01*
X1440000Y5120000D02*
X1504000D01*
X1440000D02*
Y5123000D01*
X1460500Y5143500D01*
X1320500Y5283500D02*
X1460500Y5143500D01*
X1300500Y5283500D02*
X1320500D01*
X7080000Y3355024D02*
X7110000Y3325024D01*
X7080000Y3355024D02*
Y3780000D01*
X6990000Y3870000D02*
X7080000Y3780000D01*
X6831596Y3870000D02*
X6990000D01*
X5831296Y2210000D02*
Y2229798D01*
X5825260Y2235833D02*
X5831296Y2229798D01*
X5999091Y1790909D02*
X6002746D01*
X6000918Y1789082D02*
X6089273Y1700728D01*
Y1402302D02*
Y1700728D01*
X5922796Y1867204D02*
X5999091Y1790909D01*
X5831296Y1867204D02*
X5922796D01*
X5831296D02*
Y2210000D01*
X6089273Y1402302D02*
X6090000Y1401575D01*
Y990000D02*
Y1401575D01*
X7033213Y2213213D02*
X7056788D01*
X7033213D02*
X7040000Y2220000D01*
X7040000Y2588432D02*
X7040000Y2588431D01*
X7147570Y1156486D02*
X7151084Y1160000D01*
X7150000Y1509426D02*
X7152358Y1507069D01*
X7150000Y1509426D02*
Y1510000D01*
X6306682Y3698609D02*
Y3898227D01*
X6357981Y3949526D01*
X6306682Y3698609D02*
X6358297Y3646994D01*
D71*
X8510000Y1466848D02*
Y3360836D01*
X8475000Y1481346D02*
Y3345208D01*
X8353619Y2263619D02*
Y2916381D01*
X8140000Y3130000D02*
X8353619Y2916381D01*
X8430000Y2196833D02*
Y3250000D01*
X8395000Y2211330D02*
Y3233810D01*
X8098815Y3111185D02*
X8316164Y2893836D01*
Y2275661D02*
Y2893836D01*
X6570000Y1380000D02*
X6572870Y1382870D01*
X6704081D01*
X6588190Y926685D02*
X6588266Y926761D01*
X6794479D01*
X6574714Y923815D02*
X6577584Y926685D01*
X6794479Y926761D02*
X7020000Y1152282D01*
X6577584Y926685D02*
X6588190D01*
X7571612Y2333366D02*
Y3981110D01*
X7440746Y2202500D02*
X7571612Y2333366D01*
X6854103Y2987553D02*
X6981549Y3115000D01*
X6753371Y2114523D02*
X6854103Y2215255D01*
Y2987553D01*
X6759394Y2034384D02*
X6893335Y2168325D01*
Y2975489D02*
X6997846Y3080000D01*
X6893335Y2168325D02*
Y2975489D01*
X6190000Y4020000D02*
X6460000Y4290000D01*
X6556181D02*
X6623751Y4357570D01*
X6460000Y4290000D02*
X6556181D01*
X7406303Y4336303D02*
X7550000Y4480000D01*
X7180000Y3080000D02*
X7371303Y3271303D01*
X7155000Y3115000D02*
X7336303Y3296303D01*
X7406303Y3256303D02*
Y4336303D01*
X7190000Y3040000D02*
X7406303Y3256303D01*
X7200000Y4480000D02*
X7371303Y4308697D01*
X7336303Y3296303D02*
Y4281544D01*
X7152758Y4465089D02*
X7336303Y4281544D01*
X7371303Y3271303D02*
Y4308697D01*
X7534477Y3993471D02*
X8182685Y4641680D01*
X7534477Y2618857D02*
Y3993471D01*
X7440046Y2524425D02*
X7534477Y2618857D01*
X7499477Y2728420D02*
Y4018001D01*
X7446979Y2675922D02*
X7499477Y2728420D01*
Y4018001D02*
X8140185Y4658710D01*
X6260000Y2714517D02*
Y3990000D01*
X6089367Y2543884D02*
X6260000Y2714517D01*
X5784889Y2543884D02*
X6089367D01*
X6406777Y2806777D02*
Y3086777D01*
X6108884Y2508884D02*
X6406777Y2806777D01*
X5884712Y2508884D02*
X6108884D01*
X6406777Y3086777D02*
X6609365Y3289366D01*
X7718011Y884968D02*
X7878622D01*
X8475000Y1481346D01*
X7154035Y1650255D02*
X7230255D01*
X7020000Y1516220D02*
X7154035Y1650255D01*
X7020000Y1152282D02*
Y1516220D01*
X7055000Y1137785D02*
Y1496937D01*
X7173318Y1615255D02*
X7513747D01*
X7055000Y1496937D02*
X7173318Y1615255D01*
X5531224Y1129317D02*
Y1129757D01*
X5550000Y1028439D02*
Y1110541D01*
X5531224Y1129317D02*
X5550000Y1110541D01*
X3302000Y466823D02*
X3364907Y529730D01*
X3908750Y1051250D02*
X4521250D01*
X3302000Y444500D02*
Y466823D01*
X3387230Y529730D02*
X3908750Y1051250D01*
X3364907Y529730D02*
X3387230D01*
X6583957Y1223066D02*
X6618522Y1257630D01*
X5071459Y876459D02*
X5203575Y1008575D01*
X5051459Y911459D02*
X5183575Y1043575D01*
X4010338Y911459D02*
X5051459D01*
X4083501Y779788D02*
X4180172Y876459D01*
X5071459D01*
X3931452Y832573D02*
X4010338Y911459D01*
X4967079Y956750D02*
Y1167079D01*
X3680000Y750000D02*
X3940000Y1010000D01*
X4530000D01*
X4980000Y1460000D02*
X5580000D01*
X4530000Y1010000D02*
X4980000Y1460000D01*
X4980000Y1510000D02*
X5576967D01*
X4521250Y1051250D02*
X4980000Y1510000D01*
X5105000Y1305000D02*
X5564497D01*
X4967079Y1167079D02*
X5105000Y1305000D01*
X7007572Y3627572D02*
Y3764473D01*
X6780000Y3400000D02*
X7007572Y3627572D01*
X6450000Y3070000D02*
X6780000Y3400000D01*
X7310000Y1220000D02*
X8353619Y2263619D01*
X7270000Y1229497D02*
X8316164Y2275661D01*
X7310000Y860000D02*
Y1220000D01*
X7270000Y870000D02*
Y1229497D01*
X7116707Y666707D02*
X7310000Y860000D01*
X7101784Y701783D02*
X7270000Y870000D01*
X6936707Y666707D02*
X7116707D01*
X6544500Y701783D02*
X7101784D01*
X7694251Y2194251D02*
Y3931562D01*
X8194955Y4435578D02*
Y4439638D01*
X8187455Y4428078D02*
X8194955Y4435578D01*
X8187455Y4424766D02*
Y4428078D01*
X7694251Y3931562D02*
X8187455Y4424766D01*
X8164088Y4339668D02*
X8213919Y4389499D01*
X8164088Y4334941D02*
Y4339668D01*
X7764251Y2165257D02*
Y3879629D01*
X7729251Y3900104D02*
X8164088Y4334941D01*
X7764251Y3879629D02*
X8316224Y4431601D01*
X7729251Y2179754D02*
Y3900104D01*
X8222677Y4144402D02*
X8225547Y4147272D01*
X8200452Y4144402D02*
X8222677D01*
X7900000Y3843949D02*
X8200452Y4144402D01*
X7900000Y2150000D02*
Y3843949D01*
X8005000Y3775160D02*
X8195906Y3966066D01*
X8196010D01*
X7970000Y3800160D02*
X8178406Y4008566D01*
X7935000Y2135503D02*
Y3814657D01*
X8201164Y4024776D02*
X8205223D01*
X8184953Y4008566D02*
X8201164Y4024776D01*
X8178406Y4008566D02*
X8184953D01*
X7935000Y3814657D02*
X8210000Y4089657D01*
X7970000Y2121005D02*
Y3800160D01*
X6866961Y1397340D02*
X6925887Y1456266D01*
X6768051Y1093051D02*
X6866961Y1191961D01*
Y1397340D01*
X6925887Y1456266D02*
Y1458315D01*
X6685461Y1920000D02*
X7420000D01*
X7694251Y2194251D01*
X6411858Y1846300D02*
X7445294D01*
X7800000Y2151508D02*
Y3855273D01*
X6668700Y1881300D02*
X7430797D01*
X7445294Y1846300D02*
X7764251Y2165257D01*
X7459791Y1811300D02*
X7800000Y2151508D01*
X7430797Y1881300D02*
X7729251Y2179754D01*
X6451300Y1811300D02*
X7459791D01*
X7230255Y1650255D02*
X7499250D01*
X7513747Y1615255D02*
X8005000Y2106508D01*
X7480000Y1730000D02*
X7900000Y2150000D01*
X8005000Y2106508D02*
Y3775160D01*
X7489497Y1690000D02*
X7935000Y2135503D01*
X7064817Y1690000D02*
X7489497D01*
X7051211Y1730000D02*
X7480000D01*
X7499250Y1650255D02*
X7970000Y2121005D01*
X7445615Y2055562D02*
X7606612Y2216559D01*
X6342677Y2268366D02*
X6380545Y2230498D01*
Y2224916D02*
Y2230498D01*
Y2224916D02*
X6685461Y1920000D01*
X6391100Y1867057D02*
X6411858Y1846300D01*
X6338042Y1867057D02*
X6391100D01*
X6320000Y2550000D02*
X6490000D01*
X6159387Y2438884D02*
X6315100Y2594597D01*
X6513556D02*
X6522904Y2585249D01*
X6315100Y2594597D02*
X6513556D01*
X6522904Y2585249D02*
X6682471D01*
X6618522Y1257630D02*
X6632448D01*
X7064817Y1690000D01*
X6668093Y828380D02*
X6745595D01*
X7055000Y1137785D01*
X7210000Y3800000D02*
Y4130000D01*
X7717762Y736535D02*
X7779686D01*
X8510000Y1466848D01*
X6940000Y2947500D02*
X7032500Y3040000D01*
X7800000Y3855273D02*
X8333828Y4389101D01*
X7571612Y3981110D02*
X8107640Y4517138D01*
X7606612Y3956417D02*
X8278641Y4628445D01*
X7606612Y2216559D02*
Y3956417D01*
X8080000Y1360000D02*
Y1846833D01*
X8040000Y1370000D02*
Y1856330D01*
X8080000Y1846833D02*
X8430000Y2196833D01*
X8040000Y1856330D02*
X8395000Y2211330D01*
X8350383Y3520454D02*
X8510000Y3360836D01*
X8352707Y3467501D02*
X8475000Y3345208D01*
X8220000Y3408810D02*
X8395000Y3233810D01*
X8262746Y3417254D02*
X8430000Y3250000D01*
X5484200Y1967427D02*
X5552537Y1899090D01*
Y1742537D02*
Y1899090D01*
Y1742537D02*
X5592089Y1702985D01*
X5485000Y1967427D02*
Y2392486D01*
X5520000Y1983759D02*
Y2377989D01*
X5599722Y1768096D02*
Y1904037D01*
X5520000Y1983759D02*
X5599722Y1904037D01*
X6111310Y821503D02*
X6362800D01*
X6634348Y1093051D01*
X6089380Y786503D02*
X6377297D01*
X6648528Y1057733D02*
X6843436D01*
X6634348Y1093051D02*
X6768051D01*
X6377297Y786503D02*
X6648528Y1057733D01*
X5550000Y1028439D02*
X5876936Y701503D01*
X5670882Y1205000D02*
X6089380Y786503D01*
X5876936Y701503D02*
X6544219D01*
X5692813Y1240000D02*
X6111310Y821503D01*
X6544219Y701503D02*
X6544500Y701783D01*
X5542259Y972754D02*
X5849676Y665336D01*
X6935336D02*
X6936707Y666707D01*
X5849676Y665336D02*
X6935336D01*
X5710261Y1590261D02*
Y2284935D01*
X5780260Y2255941D02*
X5928204Y2403884D01*
X5564497Y1305000D02*
X5780260Y1520763D01*
X5576967Y1510000D02*
X5675261Y1608294D01*
X5580000Y1460000D02*
X5710261Y1590261D01*
X5745261Y1535261D02*
Y2270438D01*
X5913706Y2438884D01*
X5550000Y1340000D02*
X5745261Y1535261D01*
X5675261Y2299433D02*
X5884712Y2508884D01*
X5675261Y1608294D02*
Y2299433D01*
X5710261Y2284935D02*
X5899209Y2473884D01*
X5780260Y1520763D02*
Y2255941D01*
X5928204Y2403884D02*
X6173884D01*
X5899209Y2473884D02*
X6128431D01*
X5913706Y2438884D02*
X6159387D01*
X6424448Y2125552D02*
X6668700Y1881300D01*
X6344372Y2125552D02*
X6424448D01*
X8278641Y4628445D02*
X8339120D01*
X8172500Y4692205D02*
Y4698441D01*
X8180000Y4705941D01*
Y4710000D01*
X8182685Y4641680D02*
Y4642287D01*
X8280798Y4680295D02*
X8335341D01*
X8107640Y4517138D02*
X8117640D01*
X8140185Y4659891D02*
X8172500Y4692205D01*
X8140185Y4658710D02*
Y4659891D01*
X8117640Y4517138D02*
X8280798Y4680295D01*
X4919700Y961411D02*
Y972017D01*
X4922449Y974766D02*
Y1182449D01*
X5080000Y1340000D01*
X4916830Y958541D02*
X4919700Y961411D01*
Y972017D02*
X4922449Y974766D01*
X5203575Y1008575D02*
X5339017D01*
X5535441Y1205000D01*
X5183575Y1043575D02*
X5323575D01*
X5520000Y1240000D01*
X5692813D01*
X5535441Y1205000D02*
X5670882D01*
X6670000Y2713390D02*
X6670672Y2714062D01*
X6670000Y2713390D02*
Y2860000D01*
X6960000Y3150000D01*
X7140000D01*
X7290000Y3300000D01*
Y4220000D01*
X6450000Y2795453D02*
Y3070000D01*
X6128431Y2473884D02*
X6450000Y2795453D01*
X6997846Y3080000D02*
X7180000D01*
X6981549Y3115000D02*
X7155000D01*
X4978802Y1578802D02*
X5468170D01*
X4860000Y1460000D02*
X4978802Y1578802D01*
X5555432Y2363924D02*
X5770392Y2578884D01*
X5555432Y2151000D02*
X5594827Y2111606D01*
X5597932Y2191787D02*
Y2356927D01*
X5555432Y2151000D02*
Y2363924D01*
X7032500Y3040000D02*
X7190000D01*
X5485000Y2392486D02*
X5741397Y2648884D01*
X5597932Y2356927D02*
X5784889Y2543884D01*
X6173884Y2403884D02*
X6320000Y2550000D01*
X5520000Y2377989D02*
X5755895Y2613884D01*
X6039889Y2648884D02*
X6155000Y2763994D01*
X5755895Y2613884D02*
X6054387D01*
X5770392Y2578884D02*
X6068884D01*
X5741397Y2648884D02*
X6039889D01*
X6068884Y2578884D02*
X6225000Y2735000D01*
X6054387Y2613884D02*
X6190000Y2749497D01*
X6225000Y2735000D02*
Y4004497D01*
X6190000Y2749497D02*
Y4020000D01*
X6155000Y2763994D02*
Y4035000D01*
X6704081Y1382870D02*
X7051211Y1730000D01*
X8342499Y3467501D02*
X8352707D01*
X8307883Y3502117D02*
X8342499Y3467501D01*
X8307883Y3502117D02*
Y3542659D01*
X8338790Y3573566D01*
X6225000Y4004497D02*
X6470503Y4250000D01*
X6260000Y3990000D02*
X6410000Y4140000D01*
X6155000Y4035000D02*
X6680660Y4560660D01*
X6609365Y3289366D02*
Y3434038D01*
X5080000Y1340000D02*
X5550000D01*
X3680000Y314500D02*
Y750000D01*
X3556000Y190500D02*
X3680000Y314500D01*
X7152758Y4465089D02*
Y4665028D01*
X6470503Y4250000D02*
X6896137D01*
X6410000Y4140000D02*
X6740000D01*
X6680660Y4560660D02*
Y4592310D01*
X6896137Y4250000D02*
X7035770Y4389633D01*
X7152758Y4665028D02*
X7209340Y4721611D01*
X7210790D01*
X6680000Y4592970D02*
Y4840000D01*
Y4592970D02*
X6680660Y4592310D01*
X6338848Y1717986D02*
X6357986D01*
X6335978Y1715116D02*
X6338848Y1717986D01*
X6357986D02*
X6451300Y1811300D01*
X8329014Y4441828D02*
X8333073D01*
X8318788Y4431601D02*
X8329014Y4441828D01*
X8316224Y4431601D02*
X8318788D01*
X8098815Y3111185D02*
Y3628815D01*
X8140000Y3130000D02*
Y3605843D01*
X8098815Y3628815D02*
X8190000Y3720000D01*
X8140000Y3605843D02*
X8254157Y3720000D01*
X8220000Y3408810D02*
Y3517051D01*
X8262746Y3417254D02*
Y3497006D01*
X8220000Y3517051D02*
X8263173Y3560225D01*
X7910000Y1190000D02*
X8080000Y1360000D01*
X7642890Y1080000D02*
X7752890Y1190000D01*
X7910000D01*
X8254157Y3720000D02*
X8330000D01*
X7900000Y1230000D02*
X8040000Y1370000D01*
X7638017Y1230000D02*
X7900000D01*
X7638831Y1080000D02*
X7642890D01*
D72*
X4064000Y5270500D02*
X4197882Y5136618D01*
Y2324242D02*
Y5136618D01*
X3936165Y2062525D02*
X4197882Y2324242D01*
X3390000Y2250000D02*
X3950000D01*
X2897475Y2062525D02*
X3936165D01*
X2740000Y2160000D02*
X2877475Y2022526D01*
X2760000Y2200000D02*
X2897475Y2062525D01*
X4260000Y2329792D02*
Y4904970D01*
X2877475Y2022526D02*
X3952734D01*
X4260000Y2329792D01*
X2539232Y2160000D02*
X2740000D01*
X1874013Y1476688D02*
Y1494782D01*
X2539232Y2160000D01*
X1872100Y1474775D02*
X1874013Y1476688D01*
X2520000Y2200000D02*
X2760000D01*
X1810000Y1490000D02*
X2520000Y2200000D01*
X2722076Y2917925D02*
Y3263632D01*
Y2917925D02*
X3390000Y2250000D01*
X2722076Y3263632D02*
Y3332076D01*
X5831297Y2210001D02*
X6002746D01*
X5831296Y2210000D02*
X5831297Y2210001D01*
X4260000Y4904970D02*
X4318000Y4962970D01*
Y5016500D01*
X1810000Y1168252D02*
Y1490000D01*
Y1168252D02*
X1956782Y1021469D01*
X3490000Y4100000D02*
X3556000Y4166000D01*
X2722076Y3332076D02*
X3490000Y4100000D01*
X3556000Y4166000D02*
Y5016500D01*
D73*
X6705711Y3745711D02*
X6771333Y3811333D01*
X6705711Y3634924D02*
Y3745711D01*
X6771333Y3811333D02*
Y3973312D01*
X7016356Y2564787D02*
X7040000Y2588432D01*
X7040000Y2220000D02*
Y2565000D01*
X6981659Y2564787D02*
X7016356D01*
X7040000Y2565000D02*
Y2588431D01*
X5247433Y2465041D02*
X5527472Y2745080D01*
Y2810000D01*
X5216836Y2434719D02*
X5246126Y2464009D01*
X4640000Y2434719D02*
X5216836D01*
X5246126Y2464009D02*
Y2465041D01*
X4544719Y2434719D02*
X4640000D01*
X5527472Y2810000D02*
X5640000Y2922528D01*
X4330000Y2220000D02*
X4544719Y2434719D01*
X4640000D02*
Y3398275D01*
X2550432Y1978087D02*
X2610278Y2037934D01*
X2550432Y910944D02*
Y1978087D01*
X4640000Y3398275D02*
X4640052Y3398326D01*
X5495072Y3504928D02*
X5640000Y3360000D01*
X5495072Y3504928D02*
Y3540833D01*
X5640000Y2922528D02*
Y3360000D01*
X7199446Y889969D02*
Y1160000D01*
X7154477Y845000D02*
X7199446Y889969D01*
X6970000Y2213213D02*
X7033213D01*
X7040000Y2588432D02*
Y2829988D01*
X7000924Y2869064D02*
X7040000Y2829988D01*
X7147500Y1156486D02*
X7147570D01*
X7151084Y1160000D02*
X7200000D01*
Y1460000D01*
X7150000Y1510000D02*
X7200000Y1460000D01*
X7056788Y2213213D02*
X7140000Y2130000D01*
X4900000Y3658275D02*
Y3990000D01*
X4640052Y3398326D02*
X4900000Y3658275D01*
X6441988Y3962577D02*
Y4031053D01*
X6443518Y3653792D02*
Y3961047D01*
X6441988Y4031053D02*
X6492088Y4081153D01*
X6441988Y3962577D02*
X6443518Y3961047D01*
D74*
X5810000Y3060000D02*
Y4180000D01*
X5969859Y4340141D02*
X5970000Y4340000D01*
X5810000Y4180000D02*
X5970000Y4340000D01*
X5968082Y4340141D02*
X5969859D01*
D86*
X8263000Y455000D02*
D03*
X8113000Y2275000D02*
D03*
Y5005000D02*
D03*
X8263000Y3185000D02*
D03*
D90*
X1480000Y345000D02*
D03*
D91*
Y695000D02*
D03*
D92*
X2380667Y1287523D02*
D03*
X8569185Y2737375D02*
D03*
X8552500Y2559739D02*
D03*
X5639965Y4382866D02*
D03*
X5439190Y3644282D02*
D03*
X5543187Y3694652D02*
D03*
X6570000Y1380000D02*
D03*
X6909461Y1373397D02*
D03*
X4599494Y1619981D02*
D03*
X4510000Y2670000D02*
D03*
X2350000Y3210000D02*
D03*
X8336372Y684779D02*
D03*
X3950000Y2250000D02*
D03*
X3795090Y2117655D02*
D03*
X4008448Y1334383D02*
D03*
X4109413Y1779007D02*
D03*
X5091511Y4826774D02*
D03*
X4731207Y4827546D02*
D03*
X5969054Y4625903D02*
D03*
X6583957Y1223066D02*
D03*
X3440000Y3630000D02*
D03*
X3000000Y2200000D02*
D03*
Y2430000D02*
D03*
X2410000Y1930000D02*
D03*
Y1700000D02*
D03*
X3554238Y1637718D02*
D03*
X6981659Y2564787D02*
D03*
X6574714Y923815D02*
D03*
X5584281Y2736198D02*
D03*
X5246126Y2465041D02*
D03*
X4306654Y1298722D02*
D03*
X4220000Y1480000D02*
D03*
X4230000Y1540000D02*
D03*
X4330000Y2220000D02*
D03*
X5391499Y3954002D02*
D03*
X5401082Y2210489D02*
D03*
X5401488Y1770850D02*
D03*
X5395308Y2711469D02*
D03*
X4364802Y2633201D02*
D03*
X5160000Y1700000D02*
D03*
X5463722Y1916669D02*
D03*
X5632761Y1943620D02*
D03*
X4750000Y3410000D02*
D03*
X4850000Y3450000D02*
D03*
X4960000Y3240000D02*
D03*
X4966787Y956458D02*
D03*
X4444097Y3326817D02*
D03*
X3139476Y4624019D02*
D03*
X2927766Y4177072D02*
D03*
X3110000Y4560000D02*
D03*
X3259993Y3139994D02*
D03*
X2980000Y3170001D02*
D03*
X2938364Y4609819D02*
D03*
X3392500Y2550000D02*
D03*
X4089577Y3458928D02*
D03*
X3499875Y3182500D02*
D03*
X4089999Y2717500D02*
D03*
X3520000Y2350000D02*
D03*
X2610278Y2037934D02*
D03*
X3453859Y2169371D02*
D03*
X4048113Y1964887D02*
D03*
X3239578Y1866066D02*
D03*
X3900347Y1212274D02*
D03*
X3390000Y1030000D02*
D03*
X2722076Y3263632D02*
D03*
X7007572Y3764473D02*
D03*
X6945811Y3768675D02*
D03*
X7651751Y3740325D02*
D03*
X6705711Y3634924D02*
D03*
X7208707Y3634883D02*
D03*
X7417279Y1163852D02*
D03*
X7454341Y881220D02*
D03*
X7528805Y834542D02*
D03*
X7532020Y733311D02*
D03*
X7527955Y676064D02*
D03*
X7367773Y881230D02*
D03*
X7388651Y1235212D02*
D03*
X8213919Y4389499D02*
D03*
X8225547Y4147272D02*
D03*
X8196010Y3966066D02*
D03*
X8205223Y4024776D02*
D03*
X8210000Y4090000D02*
D03*
X7650000Y1179333D02*
D03*
X6962354Y1377731D02*
D03*
X7780000Y1400000D02*
D03*
X6925887Y1458315D02*
D03*
X7709582Y834248D02*
D03*
X7638749Y1028212D02*
D03*
X7439767Y2005211D02*
D03*
X7804298Y1845702D02*
D03*
X7445615Y2055562D02*
D03*
X7463088Y2155165D02*
D03*
X7440746Y2202500D02*
D03*
X7451513Y2474524D02*
D03*
X7443479Y2621749D02*
D03*
X6335369Y2064996D02*
D03*
X6330000Y2220000D02*
D03*
X6342677Y2268366D02*
D03*
X6792748Y2418006D02*
D03*
X6338042Y1867057D02*
D03*
X6331219Y1814952D02*
D03*
X6550367Y1920716D02*
D03*
X6391872Y1995771D02*
D03*
X6490000Y2550000D02*
D03*
X5503002Y1075600D02*
D03*
X6300000Y1610000D02*
D03*
X6550780Y1328225D02*
D03*
X6366643Y1175064D02*
D03*
X6490986Y1111819D02*
D03*
X6550000Y860000D02*
D03*
X6668093Y828380D02*
D03*
X5410000Y880000D02*
D03*
X6469871Y611393D02*
D03*
X7630000Y620000D02*
D03*
X6981610Y601044D02*
D03*
X7159078Y624207D02*
D03*
X6594271Y3653251D02*
D03*
X6831596Y3870000D02*
D03*
X6780000Y3400000D02*
D03*
X8182143Y2814823D02*
D03*
X8223537Y2606359D02*
D03*
X8117549Y3006671D02*
D03*
X7210000Y3800000D02*
D03*
X7717762Y736535D02*
D03*
X3259697Y1115924D02*
D03*
X6940000Y2947500D02*
D03*
X7852918Y2962686D02*
D03*
X8181422Y2878977D02*
D03*
X8181230Y2945002D02*
D03*
X7849778Y2631825D02*
D03*
X7880000Y1920000D02*
D03*
X7650000Y2280000D02*
D03*
Y2445000D02*
D03*
X7529112Y2444793D02*
D03*
X8131039Y2610196D02*
D03*
X8070000Y2450000D02*
D03*
X8130000Y2510000D02*
D03*
X8340407Y2047135D02*
D03*
X8274077Y1960350D02*
D03*
X8250991Y1910622D02*
D03*
X8343944Y1938175D02*
D03*
X8340906Y1869523D02*
D03*
X4500000Y4500000D02*
D03*
X5101347Y4503003D02*
D03*
X4751347D02*
D03*
X4921347Y2563003D02*
D03*
X6332200Y864003D02*
D03*
X6731497Y875833D02*
D03*
X6343119Y744003D02*
D03*
X6339046Y619481D02*
D03*
X5628845Y1664897D02*
D03*
X5592089Y1702985D02*
D03*
X5641227Y2324889D02*
D03*
X5825260Y2235833D02*
D03*
X5620000Y2000000D02*
D03*
X5619286Y2054045D02*
D03*
X5982366Y4273059D02*
D03*
X7520656Y4099404D02*
D03*
X8182685Y4642287D02*
D03*
X5600865Y3493579D02*
D03*
X5990551Y3539929D02*
D03*
X5960045Y2706612D02*
D03*
X6573796Y2813468D02*
D03*
X7185789Y2899534D02*
D03*
X6794371Y2714635D02*
D03*
X6380000Y3180000D02*
D03*
X7265540Y4278122D02*
D03*
X6949095Y4828738D02*
D03*
X7329264Y4827195D02*
D03*
X7850000Y4630000D02*
D03*
X7183075Y2593718D02*
D03*
X7262744Y2474203D02*
D03*
X7251723Y2624881D02*
D03*
X7250633Y2154582D02*
D03*
X7257710Y1991396D02*
D03*
X6787656Y1992762D02*
D03*
X6150000Y1660000D02*
D03*
X6130251Y1814943D02*
D03*
X6147726Y1865823D02*
D03*
X6680000Y2280001D02*
D03*
X5986360Y1060716D02*
D03*
X6374129Y1224924D02*
D03*
X6353138Y1325106D02*
D03*
X5908597Y763530D02*
D03*
X7471172Y1554359D02*
D03*
X6778295Y1595643D02*
D03*
X7442489Y1223123D02*
D03*
X7458943Y1079929D02*
D03*
X7364207Y1548600D02*
D03*
X6970983Y993664D02*
D03*
X6843436Y1057733D02*
D03*
X7470000Y830000D02*
D03*
X7456884Y1027268D02*
D03*
X7820000Y1050000D02*
D03*
X5894331Y1178451D02*
D03*
X5910706Y1229467D02*
D03*
X5880474Y1275444D02*
D03*
X5862353Y1446317D02*
D03*
X5720000Y1290000D02*
D03*
X5275076Y1241599D02*
D03*
X4823740Y1240134D02*
D03*
X4822417Y1140418D02*
D03*
X4870496Y1065889D02*
D03*
X4916830Y958541D02*
D03*
X5287568Y1086075D02*
D03*
X5320000Y1130000D02*
D03*
X5294387Y966075D02*
D03*
X5321854Y923496D02*
D03*
X5307534Y757266D02*
D03*
X3515675Y1155029D02*
D03*
X2680532Y600491D02*
D03*
X6142965Y2074473D02*
D03*
X6139320Y2225882D02*
D03*
X6151221Y2276914D02*
D03*
X6344372Y2125552D02*
D03*
X6670672Y2714062D02*
D03*
X7290000Y4220000D02*
D03*
X4860000Y1460000D02*
D03*
X5468170Y1578802D02*
D03*
X5972225Y3738184D02*
D03*
X8050000Y3260000D02*
D03*
X7850000Y530000D02*
D03*
X7141946Y1005659D02*
D03*
X4780000Y1380000D02*
D03*
X3343313Y718731D02*
D03*
X4319500Y959500D02*
D03*
X3901347Y1308653D02*
D03*
X3260339Y800579D02*
D03*
X3470000Y1050000D02*
D03*
X3198847Y941388D02*
D03*
X2127080Y1183054D02*
D03*
X1960000Y1817392D02*
D03*
X5599722Y1768096D02*
D03*
X5597932Y2191787D02*
D03*
X5847336Y830870D02*
D03*
X5854327Y935673D02*
D03*
X5854999Y1325000D02*
D03*
X6002746Y1790909D02*
D03*
Y2210001D02*
D03*
X6963499Y795281D02*
D03*
X6750000Y2200000D02*
D03*
X6797500Y2566485D02*
D03*
X6750000Y2850000D02*
D03*
X6670000Y2640000D02*
D03*
X6682471Y2585249D02*
D03*
X7410000Y4700000D02*
D03*
X6913016Y4603016D02*
D03*
X5403661Y2315116D02*
D03*
X5122333Y2713076D02*
D03*
X2543568Y2919950D02*
D03*
X5814897Y2701733D02*
D03*
X5859988Y2959994D02*
D03*
X5245030Y1398108D02*
D03*
X6260000Y1290000D02*
D03*
Y887379D02*
D03*
X6150811Y1714006D02*
D03*
X5831296Y1867204D02*
D03*
X6089273Y1402302D02*
D03*
X6090000Y990000D02*
D03*
X6363452Y909664D02*
D03*
X5594827Y2111606D02*
D03*
X7147500Y1156486D02*
D03*
X7152358Y1507069D02*
D03*
X7154477Y845000D02*
D03*
X6615000Y1340370D02*
D03*
X7140000Y2130000D02*
D03*
X7000924Y2869064D02*
D03*
X6970000Y2213213D02*
D03*
X8190000Y1660000D02*
D03*
X5603879Y1110165D02*
D03*
X7210000Y3325000D02*
D03*
X7707500Y1050495D02*
D03*
X8350383Y3520454D02*
D03*
X7718011Y884968D02*
D03*
X4560639Y4052602D02*
D03*
X5580000Y2950000D02*
D03*
X5490000Y3100000D02*
D03*
X4640052Y3398326D02*
D03*
X5527472Y2810000D02*
D03*
X4900000Y3990000D02*
D03*
X4800000Y3989014D02*
D03*
X5495072Y3540833D02*
D03*
X6697740Y3864157D02*
D03*
X6441988Y3962577D02*
D03*
X6492088Y4081153D02*
D03*
X6359182Y3751310D02*
D03*
X7110000Y3325024D02*
D03*
X6358297Y3646994D02*
D03*
X6357981Y3949526D02*
D03*
X5531224Y1129757D02*
D03*
X5542259Y972754D02*
D03*
X4558761Y3037421D02*
D03*
X4399547Y3283233D02*
D03*
X4175870Y718223D02*
D03*
X2550432Y910944D02*
D03*
X3330000Y1470000D02*
D03*
X3340380Y1746653D02*
D03*
X2241823Y3817545D02*
D03*
X3168890Y3903603D02*
D03*
X3490000Y4100000D02*
D03*
X3640000Y1930000D02*
D03*
X3017681Y1001305D02*
D03*
X5810000Y3060000D02*
D03*
X5170000Y3600000D02*
D03*
X4610000Y4180000D02*
D03*
X4999571Y3840468D02*
D03*
X7550000Y4480000D02*
D03*
X6358173Y3451494D02*
D03*
X6965772Y1978753D02*
D03*
X1810833Y1870415D02*
D03*
X6849131Y4627216D02*
D03*
X6530000Y4670000D02*
D03*
X6410000Y4590000D02*
D03*
X6398170Y4489057D02*
D03*
X6801229Y3169430D02*
D03*
X6609365Y3434038D02*
D03*
X3931452Y832573D02*
D03*
X6692653Y4336911D02*
D03*
X7179667Y4373121D02*
D03*
X7047500Y4490000D02*
D03*
X7200000Y4480000D02*
D03*
X5968082Y4340141D02*
D03*
X5750000Y4510000D02*
D03*
X5424918Y4327451D02*
D03*
X6545530Y3772500D02*
D03*
X5080000Y3960000D02*
D03*
X6921096Y3976761D02*
D03*
X6771333Y3973312D02*
D03*
X6545000Y4012500D02*
D03*
X7210000Y4130000D02*
D03*
X6610000Y3730000D02*
D03*
X6443518Y3653792D02*
D03*
X6695952Y3549687D02*
D03*
X6844695Y4195084D02*
D03*
X7096269Y3870175D02*
D03*
X4360000Y4721722D02*
D03*
X6740000Y4140000D02*
D03*
X7272500Y2525455D02*
D03*
Y2674747D02*
D03*
Y2054765D02*
D03*
Y2204391D02*
D03*
X5908991Y4626532D02*
D03*
X6623751Y4357570D02*
D03*
X6160000Y4590000D02*
D03*
X7210790Y4721611D02*
D03*
X7540000Y4580000D02*
D03*
X5550000Y4630000D02*
D03*
X5499863Y4632256D02*
D03*
X5141408Y4549718D02*
D03*
X5209939Y4555019D02*
D03*
X5908557Y814952D02*
D03*
X4120000Y4570000D02*
D03*
X6680000Y4840000D02*
D03*
X5240000Y4850000D02*
D03*
X4390000D02*
D03*
X3620000Y4550000D02*
D03*
X4022208Y4695489D02*
D03*
X4010000Y4530000D02*
D03*
X5713689Y4890134D02*
D03*
X7035770Y4389633D02*
D03*
X6351000Y4624083D02*
D03*
X4083501Y779788D02*
D03*
X2721526Y4827756D02*
D03*
X2821915Y4830749D02*
D03*
X1956782Y1021469D02*
D03*
X1872100Y1474775D02*
D03*
X3148932Y742512D02*
D03*
X3835270Y1182957D02*
D03*
X3885916Y1140456D02*
D03*
X4279925Y716551D02*
D03*
X6753371Y2114523D02*
D03*
X6759394Y2034384D02*
D03*
X4510801Y3693668D02*
D03*
X4510639Y3765770D02*
D03*
X4713598Y2973046D02*
D03*
X4709536Y2907273D02*
D03*
X4562262Y3101914D02*
D03*
X5100000Y830000D02*
D03*
X5522500Y780000D02*
D03*
X5412500D02*
D03*
X5178937Y821950D02*
D03*
X4430000Y3690000D02*
D03*
X5273930Y624879D02*
D03*
X8180000Y4710000D02*
D03*
X7446979Y2675922D02*
D03*
X7440046Y2524425D02*
D03*
X8263173Y3560225D02*
D03*
X8262746Y3497006D02*
D03*
X8342706Y3417398D02*
D03*
X8338790Y3573566D02*
D03*
X6146343Y2124915D02*
D03*
X6335978Y1715116D02*
D03*
X6369784Y1375467D02*
D03*
X8237078Y837239D02*
D03*
X8279247Y752676D02*
D03*
X7638831Y1080000D02*
D03*
X8244326Y924809D02*
D03*
X8254941Y1004912D02*
D03*
X8340000Y750000D02*
D03*
X7638017Y1230000D02*
D03*
X8186743Y839696D02*
D03*
X8339120Y4628445D02*
D03*
X8190097Y1000173D02*
D03*
X8336335Y1164376D02*
D03*
X8339832Y1564061D02*
D03*
X8335876Y1646753D02*
D03*
X8339173Y1805640D02*
D03*
X8339531Y3655497D02*
D03*
Y3895251D02*
D03*
X8340000Y4775000D02*
D03*
X8336858Y4295000D02*
D03*
X8338650Y4535000D02*
D03*
X8188231Y1717282D02*
D03*
X8338507Y1721834D02*
D03*
X8190960Y1472841D02*
D03*
X8190000Y1420000D02*
D03*
X8191135Y1312606D02*
D03*
X8185072Y1261180D02*
D03*
X8335341Y4680295D02*
D03*
X8194955Y4439638D02*
D03*
X8333828Y4389101D02*
D03*
X8333073Y4441828D02*
D03*
X8190000Y3720000D02*
D03*
X8330000D02*
D03*
X4660000Y3540000D02*
D03*
X5452481Y3430081D02*
D03*
X5211075Y3725690D02*
D03*
X4617952Y4340233D02*
D03*
X5122086Y2843916D02*
D03*
X5122718Y3168584D02*
D03*
X5120000Y2970000D02*
D03*
X4399284Y2814947D02*
D03*
X2007255Y4699313D02*
D03*
X2356010Y4700798D02*
D03*
X3480000Y4680000D02*
D03*
X3455458Y4401433D02*
D03*
X3679868Y4307891D02*
D03*
X3995327Y3694868D02*
D03*
X3679400Y3694491D02*
D03*
X3910010Y4305052D02*
D03*
X2872337Y4410493D02*
D03*
X2199302Y4269783D02*
D03*
X2639250Y4282943D02*
D03*
X3329814Y3813335D02*
D03*
X3437287Y3448980D02*
D03*
X4280000Y1860000D02*
D03*
X3259728Y1310946D02*
D03*
X2720000Y960000D02*
D03*
X3000433Y801168D02*
D03*
X2409956Y630605D02*
D03*
X1499738Y1226361D02*
D03*
X2064939Y1368211D02*
D03*
X2008492Y1298202D02*
D03*
X2250000Y1580000D02*
D03*
X2415559Y1525693D02*
D03*
X2510000Y2630000D02*
D03*
X2299407Y2977139D02*
D03*
X2365367Y3034777D02*
D03*
D93*
X2339569Y850000D02*
D03*
X6060000Y2930000D02*
D03*
X2381848Y2502839D02*
D03*
X5789822Y2913968D02*
D03*
X4039453Y3961484D02*
D03*
X4039563Y4047198D02*
D03*
X1300500Y5283500D02*
D03*
Y5003500D02*
D03*
X1620500D02*
D03*
Y5283500D02*
D03*
D94*
X3920000Y2548000D02*
D03*
Y2748000D02*
D03*
Y2948000D02*
D03*
Y3148000D02*
D03*
Y3348000D02*
D03*
X3680000Y2548000D02*
D03*
Y2748000D02*
D03*
Y2948000D02*
D03*
Y3148000D02*
D03*
Y3348000D02*
D03*
D95*
X2032000Y170500D02*
D03*
X2286000D02*
D03*
X2540000D02*
D03*
X2794000D02*
D03*
X3048000D02*
D03*
X3302000D02*
D03*
X3556000D02*
D03*
X3810000D02*
D03*
X4064000D02*
D03*
X4318000D02*
D03*
X4572000D02*
D03*
X4826000D02*
D03*
X5080000D02*
D03*
X5334000D02*
D03*
X5588000D02*
D03*
X5842000D02*
D03*
X6096000D02*
D03*
X6350000D02*
D03*
X6604000D02*
D03*
X6858000D02*
D03*
X7112000D02*
D03*
X7366000D02*
D03*
X7620000D02*
D03*
X2032000Y464500D02*
D03*
X2286000D02*
D03*
X2540000D02*
D03*
X2794000D02*
D03*
X3048000D02*
D03*
X3302000D02*
D03*
X3556000D02*
D03*
X3810000D02*
D03*
X4064000D02*
D03*
X4318000D02*
D03*
X4572000D02*
D03*
X4826000D02*
D03*
X5080000D02*
D03*
X5334000D02*
D03*
X5588000D02*
D03*
X5842000D02*
D03*
X6096000D02*
D03*
X6350000D02*
D03*
X6604000D02*
D03*
X6858000D02*
D03*
X7112000D02*
D03*
X7366000D02*
D03*
X7620000D02*
D03*
X2032000Y4996500D02*
D03*
X2286000D02*
D03*
X2540000D02*
D03*
X2794000D02*
D03*
X3048000D02*
D03*
X3302000D02*
D03*
X3556000D02*
D03*
X3810000D02*
D03*
X4064000D02*
D03*
X4318000D02*
D03*
X4572000D02*
D03*
X4826000D02*
D03*
X5080000D02*
D03*
X5334000D02*
D03*
X5588000D02*
D03*
X5842000D02*
D03*
X6096000D02*
D03*
X6350000D02*
D03*
X6604000D02*
D03*
X6858000D02*
D03*
X7112000D02*
D03*
X7366000D02*
D03*
X7620000D02*
D03*
X2032000Y5290500D02*
D03*
X2286000D02*
D03*
X2540000D02*
D03*
X2794000D02*
D03*
X3048000D02*
D03*
X3302000D02*
D03*
X3556000D02*
D03*
X3810000D02*
D03*
X4064000D02*
D03*
X4318000D02*
D03*
X4572000D02*
D03*
X4826000D02*
D03*
X5080000D02*
D03*
X5334000D02*
D03*
X5588000D02*
D03*
X5842000D02*
D03*
X6096000D02*
D03*
X6350000D02*
D03*
X6604000D02*
D03*
X6858000D02*
D03*
X7112000D02*
D03*
X7366000D02*
D03*
X7620000D02*
D03*
D96*
X1460500Y5143500D02*
D03*
%TF.MD5,b68a4a6edb3a29aa057995f2f2cee8ce*%
M02*
