%TF.GenerationSoftware,Altium Limited,Altium Designer,25.3.3 (18)*%
G04 Layer_Color=255*
%FSLAX45Y45*%
%MOMM*%
%TF.SameCoordinates,5572F933-5C96-4131-A983-9EF7CB378A5A*%
%TF.FilePolarity,Positive*%
%TF.FileFunction,Pads,Bot*%
%TF.Part,Single*%
G01*
G75*
%TA.AperFunction,SMDPad,CuDef*%
G04:AMPARAMS|DCode=43|XSize=1.65mm|YSize=1.25mm|CornerRadius=0.3125mm|HoleSize=0mm|Usage=FLASHONLY|Rotation=270.000|XOffset=0mm|YOffset=0mm|HoleType=Round|Shape=RoundedRectangle|*
%AMROUNDEDRECTD43*
21,1,1.65000,0.62500,0,0,270.0*
21,1,1.02500,1.25000,0,0,270.0*
1,1,0.62500,-0.31250,-0.51250*
1,1,0.62500,-0.31250,0.51250*
1,1,0.62500,0.31250,0.51250*
1,1,0.62500,0.31250,-0.51250*
%
%ADD43ROUNDEDRECTD43*%
G04:AMPARAMS|DCode=54|XSize=1.65mm|YSize=1.25mm|CornerRadius=0.3125mm|HoleSize=0mm|Usage=FLASHONLY|Rotation=0.000|XOffset=0mm|YOffset=0mm|HoleType=Round|Shape=RoundedRectangle|*
%AMROUNDEDRECTD54*
21,1,1.65000,0.62500,0,0,0.0*
21,1,1.02500,1.25000,0,0,0.0*
1,1,0.62500,0.51250,-0.31250*
1,1,0.62500,-0.51250,-0.31250*
1,1,0.62500,-0.51250,0.31250*
1,1,0.62500,0.51250,0.31250*
%
%ADD54ROUNDEDRECTD54*%
%TA.AperFunction,ComponentPad*%
G04:AMPARAMS|DCode=84|XSize=1.4mm|YSize=1.7mm|CornerRadius=0.35mm|HoleSize=0mm|Usage=FLASHONLY|Rotation=270.000|XOffset=0mm|YOffset=0mm|HoleType=Round|Shape=RoundedRectangle|*
%AMROUNDEDRECTD84*
21,1,1.40000,1.00000,0,0,270.0*
21,1,0.70000,1.70000,0,0,270.0*
1,1,0.70000,-0.50000,-0.35000*
1,1,0.70000,-0.50000,0.35000*
1,1,0.70000,0.50000,0.35000*
1,1,0.70000,0.50000,-0.35000*
%
%ADD84ROUNDEDRECTD84*%
G04:AMPARAMS|DCode=85|XSize=1.4mm|YSize=1.7mm|CornerRadius=0mm|HoleSize=0mm|Usage=FLASHONLY|Rotation=270.000|XOffset=0mm|YOffset=0mm|HoleType=Round|Shape=Octagon|*
%AMOCTAGOND85*
4,1,8,0.85000,0.35000,0.85000,-0.35000,0.50000,-0.70000,-0.50000,-0.70000,-0.85000,-0.35000,-0.85000,0.35000,-0.50000,0.70000,0.50000,0.70000,0.85000,0.35000,0.0*
%
%ADD85OCTAGOND85*%

G04:AMPARAMS|DCode=86|XSize=1.55mm|YSize=1.6mm|CornerRadius=0.3875mm|HoleSize=0mm|Usage=FLASHONLY|Rotation=270.000|XOffset=0mm|YOffset=0mm|HoleType=Round|Shape=RoundedRectangle|*
%AMROUNDEDRECTD86*
21,1,1.55000,0.82500,0,0,270.0*
21,1,0.77500,1.60000,0,0,270.0*
1,1,0.77500,-0.41250,-0.38750*
1,1,0.77500,-0.41250,0.38750*
1,1,0.77500,0.41250,0.38750*
1,1,0.77500,0.41250,-0.38750*
%
%ADD86ROUNDEDRECTD86*%
G04:AMPARAMS|DCode=87|XSize=1.7mm|YSize=2.1mm|CornerRadius=0mm|HoleSize=0mm|Usage=FLASHONLY|Rotation=0.000|XOffset=0mm|YOffset=0mm|HoleType=Round|Shape=Octagon|*
%AMOCTAGOND87*
4,1,8,-0.42500,1.05000,0.42500,1.05000,0.85000,0.62500,0.85000,-0.62500,0.42500,-1.05000,-0.42500,-1.05000,-0.85000,-0.62500,-0.85000,0.62500,-0.42500,1.05000,0.0*
%
%ADD87OCTAGOND87*%

G04:AMPARAMS|DCode=88|XSize=1.7mm|YSize=2.1mm|CornerRadius=0.425mm|HoleSize=0mm|Usage=FLASHONLY|Rotation=0.000|XOffset=0mm|YOffset=0mm|HoleType=Round|Shape=RoundedRectangle|*
%AMROUNDEDRECTD88*
21,1,1.70000,1.25001,0,0,0.0*
21,1,0.85000,2.10000,0,0,0.0*
1,1,0.85000,0.42500,-0.62500*
1,1,0.85000,-0.42500,-0.62500*
1,1,0.85000,-0.42500,0.62500*
1,1,0.85000,0.42500,0.62500*
%
%ADD88ROUNDEDRECTD88*%
G04:AMPARAMS|DCode=89|XSize=4mm|YSize=3.6mm|CornerRadius=0.54mm|HoleSize=0mm|Usage=FLASHONLY|Rotation=0.000|XOffset=0mm|YOffset=0mm|HoleType=Round|Shape=RoundedRectangle|*
%AMROUNDEDRECTD89*
21,1,4.00000,2.52000,0,0,0.0*
21,1,2.92000,3.60000,0,0,0.0*
1,1,1.08000,1.46000,-1.26000*
1,1,1.08000,-1.46000,-1.26000*
1,1,1.08000,-1.46000,1.26000*
1,1,1.08000,1.46000,1.26000*
%
%ADD89ROUNDEDRECTD89*%
G04:AMPARAMS|DCode=90|XSize=2.2mm|YSize=2.2mm|CornerRadius=0.55mm|HoleSize=0mm|Usage=FLASHONLY|Rotation=270.000|XOffset=0mm|YOffset=0mm|HoleType=Round|Shape=RoundedRectangle|*
%AMROUNDEDRECTD90*
21,1,2.20000,1.10000,0,0,270.0*
21,1,1.10000,2.20000,0,0,270.0*
1,1,1.10000,-0.55000,-0.55000*
1,1,1.10000,-0.55000,0.55000*
1,1,1.10000,0.55000,0.55000*
1,1,1.10000,0.55000,-0.55000*
%
%ADD90ROUNDEDRECTD90*%
G04:AMPARAMS|DCode=91|XSize=2.2mm|YSize=2.2mm|CornerRadius=0mm|HoleSize=0mm|Usage=FLASHONLY|Rotation=270.000|XOffset=0mm|YOffset=0mm|HoleType=Round|Shape=Octagon|*
%AMOCTAGOND91*
4,1,8,-0.55000,-1.10000,0.55000,-1.10000,1.10000,-0.55000,1.10000,0.55000,0.55000,1.10000,-0.55000,1.10000,-1.10000,0.55000,-1.10000,-0.55000,-0.55000,-1.10000,0.0*
%
%ADD91OCTAGOND91*%

D43*
X5460000Y2380000D02*
D03*
X5180000D02*
D03*
X7020000Y3330000D02*
D03*
X7300000D02*
D03*
X6100000Y2820000D02*
D03*
X5820000D02*
D03*
D54*
X2460000Y3220000D02*
D03*
Y2940000D02*
D03*
X4038072Y4142450D02*
D03*
Y3862450D02*
D03*
X2330000Y3880000D02*
D03*
Y4160000D02*
D03*
X3410000Y2090000D02*
D03*
Y2370000D02*
D03*
D84*
X3920000Y2548000D02*
D03*
Y2748000D02*
D03*
Y2948000D02*
D03*
Y3148000D02*
D03*
Y3348000D02*
D03*
X3680000Y2548000D02*
D03*
Y2748000D02*
D03*
Y2948000D02*
D03*
Y3148000D02*
D03*
D85*
Y3348000D02*
D03*
D86*
X8263000Y455000D02*
D03*
X8113000Y2275000D02*
D03*
Y5005000D02*
D03*
X8263000Y3185000D02*
D03*
D87*
X2032000Y170500D02*
D03*
Y4996500D02*
D03*
D88*
X2286000Y170500D02*
D03*
X2540000D02*
D03*
X2794000D02*
D03*
X3048000D02*
D03*
X3302000D02*
D03*
X3556000D02*
D03*
X3810000D02*
D03*
X4064000D02*
D03*
X4318000D02*
D03*
X4572000D02*
D03*
X4826000D02*
D03*
X5080000D02*
D03*
X5334000D02*
D03*
X5588000D02*
D03*
X5842000D02*
D03*
X6096000D02*
D03*
X6350000D02*
D03*
X6604000D02*
D03*
X6858000D02*
D03*
X7112000D02*
D03*
X7366000D02*
D03*
X7620000D02*
D03*
X2032000Y464500D02*
D03*
X2286000D02*
D03*
X2540000D02*
D03*
X2794000D02*
D03*
X3048000D02*
D03*
X3302000D02*
D03*
X3556000D02*
D03*
X3810000D02*
D03*
X4064000D02*
D03*
X4318000D02*
D03*
X4572000D02*
D03*
X4826000D02*
D03*
X5080000D02*
D03*
X5334000D02*
D03*
X5588000D02*
D03*
X5842000D02*
D03*
X6096000D02*
D03*
X6350000D02*
D03*
X6604000D02*
D03*
X6858000D02*
D03*
X7112000D02*
D03*
X7366000D02*
D03*
X7620000D02*
D03*
X2286000Y4996500D02*
D03*
X2540000D02*
D03*
X2794000D02*
D03*
X3048000D02*
D03*
X3302000D02*
D03*
X3556000D02*
D03*
X3810000D02*
D03*
X4064000D02*
D03*
X4318000D02*
D03*
X4572000D02*
D03*
X4826000D02*
D03*
X5080000D02*
D03*
X5334000D02*
D03*
X5588000D02*
D03*
X5842000D02*
D03*
X6096000D02*
D03*
X6350000D02*
D03*
X6604000D02*
D03*
X6858000D02*
D03*
X7112000D02*
D03*
X7366000D02*
D03*
X7620000D02*
D03*
X2032000Y5290500D02*
D03*
X2286000D02*
D03*
X2540000D02*
D03*
X2794000D02*
D03*
X3048000D02*
D03*
X3302000D02*
D03*
X3556000D02*
D03*
X3810000D02*
D03*
X4064000D02*
D03*
X4318000D02*
D03*
X4572000D02*
D03*
X4826000D02*
D03*
X5080000D02*
D03*
X5334000D02*
D03*
X5588000D02*
D03*
X5842000D02*
D03*
X6096000D02*
D03*
X6350000D02*
D03*
X6604000D02*
D03*
X6858000D02*
D03*
X7112000D02*
D03*
X7366000D02*
D03*
X7620000D02*
D03*
D89*
X1460500Y5143500D02*
D03*
D90*
X1480000Y345000D02*
D03*
D91*
Y695000D02*
D03*
%TF.MD5,398f2f70e3f10fe0696f81a3366cba35*%
M02*
