%TF.GenerationSoftware,Altium Limited,Altium Designer,25.3.3 (18)*%
G04 Layer_Color=8388736*
%FSLAX45Y45*%
%MOMM*%
%TF.SameCoordinates,5572F933-5C96-4131-A983-9EF7CB378A5A*%
%TF.FilePolarity,Positive*%
%TF.FileFunction,Other,Top_Designator*%
%TF.Part,Single*%
G01*
G75*
%TA.AperFunction,NonConductor*%
%ADD98C,0.15000*%
D98*
X5230000Y3930035D02*
X5220004Y3940031D01*
X5200010D01*
X5190013Y3930035D01*
Y3890048D01*
X5200010Y3880051D01*
X5220004D01*
X5230000Y3890048D01*
X5249994Y3880051D02*
X5269987D01*
X5259990D01*
Y3940031D01*
X5249994Y3930035D01*
X4605012Y3499952D02*
X4595015Y3509949D01*
X4575022D01*
X4565025Y3499952D01*
Y3459965D01*
X4575022Y3449968D01*
X4595015D01*
X4605012Y3459965D01*
X4625005Y3449968D02*
X4644999D01*
X4635002D01*
Y3509949D01*
X4625005Y3499952D01*
X4674989D02*
X4684986Y3509949D01*
X4704979D01*
X4714976Y3499952D01*
Y3459965D01*
X4704979Y3449968D01*
X4684986D01*
X4674989Y3459965D01*
Y3499952D01*
X4559965Y3605008D02*
X4549969Y3595012D01*
Y3575018D01*
X4559965Y3565021D01*
X4599952D01*
X4609949Y3575018D01*
Y3595012D01*
X4599952Y3605008D01*
X4609949Y3625002D02*
Y3644996D01*
Y3634999D01*
X4549969D01*
X4559965Y3625002D01*
X4609949Y3674986D02*
Y3694979D01*
Y3684982D01*
X4549969D01*
X4559965Y3674986D01*
X4659965Y3640003D02*
X4649968Y3630006D01*
Y3610013D01*
X4659965Y3600016D01*
X4699952D01*
X4709949Y3610013D01*
Y3630006D01*
X4699952Y3640003D01*
X4709949Y3689987D02*
X4649968D01*
X4679959Y3659997D01*
Y3699984D01*
X4759965Y3640003D02*
X4749968Y3630006D01*
Y3610013D01*
X4759965Y3600016D01*
X4799952D01*
X4809949Y3610013D01*
Y3630006D01*
X4799952Y3640003D01*
X4749968Y3699984D02*
Y3659997D01*
X4779959D01*
X4769962Y3679990D01*
Y3689987D01*
X4779959Y3699984D01*
X4799952D01*
X4809949Y3689987D01*
Y3669993D01*
X4799952Y3659997D01*
X4815012Y4060035D02*
X4805015Y4070031D01*
X4785021D01*
X4775025Y4060035D01*
Y4020048D01*
X4785021Y4010051D01*
X4805015D01*
X4815012Y4020048D01*
X4835005Y4010051D02*
X4854999D01*
X4845002D01*
Y4070031D01*
X4835005Y4060035D01*
X4924976Y4010051D02*
X4884989D01*
X4924976Y4050038D01*
Y4060035D01*
X4914979Y4070031D01*
X4894986D01*
X4884989Y4060035D01*
X4815012Y3960034D02*
X4805015Y3970031D01*
X4785021D01*
X4775025Y3960034D01*
Y3920048D01*
X4785021Y3910051D01*
X4805015D01*
X4815012Y3920048D01*
X4835005Y3910051D02*
X4854999D01*
X4845002D01*
Y3970031D01*
X4835005Y3960034D01*
X4884989D02*
X4894986Y3970031D01*
X4914979D01*
X4924976Y3960034D01*
Y3950038D01*
X4914979Y3940041D01*
X4904983D01*
X4914979D01*
X4924976Y3930044D01*
Y3920048D01*
X4914979Y3910051D01*
X4894986D01*
X4884989Y3920048D01*
X5140003Y3449952D02*
X5130007Y3459949D01*
X5110013D01*
X5100016Y3449952D01*
Y3409965D01*
X5110013Y3399968D01*
X5130007D01*
X5140003Y3409965D01*
X5159997Y3449952D02*
X5169994Y3459949D01*
X5189987D01*
X5199984Y3449952D01*
Y3439955D01*
X5189987Y3429959D01*
X5179991D01*
X5189987D01*
X5199984Y3419962D01*
Y3409965D01*
X5189987Y3399968D01*
X5169994D01*
X5159997Y3409965D01*
X5380004Y3069952D02*
X5370007Y3079949D01*
X5350013D01*
X5340017Y3069952D01*
Y3029965D01*
X5350013Y3019968D01*
X5370007D01*
X5380004Y3029965D01*
X5399997Y3079949D02*
X5439984D01*
Y3069952D01*
X5399997Y3029965D01*
Y3019968D01*
X5420004Y3189993D02*
X5410007Y3199990D01*
X5390013D01*
X5380017Y3189993D01*
Y3150006D01*
X5390013Y3140010D01*
X5410007D01*
X5420004Y3150006D01*
X5439997Y3189993D02*
X5449994Y3199990D01*
X5469988D01*
X5479984Y3189993D01*
Y3179997D01*
X5469988Y3170000D01*
X5479984Y3160003D01*
Y3150006D01*
X5469988Y3140010D01*
X5449994D01*
X5439997Y3150006D01*
Y3160003D01*
X5449994Y3170000D01*
X5439997Y3179997D01*
Y3189993D01*
X5449994Y3170000D02*
X5469988D01*
X5420004Y2949993D02*
X5410007Y2959990D01*
X5390013D01*
X5380017Y2949993D01*
Y2910006D01*
X5390013Y2900010D01*
X5410007D01*
X5420004Y2910006D01*
X5439997D02*
X5449994Y2900010D01*
X5469988D01*
X5479984Y2910006D01*
Y2949993D01*
X5469988Y2959990D01*
X5449994D01*
X5439997Y2949993D01*
Y2939997D01*
X5449994Y2930000D01*
X5479984D01*
X4410013Y2780035D02*
X4400016Y2790032D01*
X4380023D01*
X4370026Y2780035D01*
Y2740048D01*
X4380023Y2730051D01*
X4400016D01*
X4410013Y2740048D01*
X4469994Y2730051D02*
X4430007D01*
X4469994Y2770038D01*
Y2780035D01*
X4459997Y2790032D01*
X4440003D01*
X4430007Y2780035D01*
X4489987D02*
X4499984Y2790032D01*
X4519977D01*
X4529974Y2780035D01*
Y2740048D01*
X4519977Y2730051D01*
X4499984D01*
X4489987Y2740048D01*
Y2780035D01*
X4420010Y2890035D02*
X4410013Y2900032D01*
X4390020D01*
X4380023Y2890035D01*
Y2850048D01*
X4390020Y2840051D01*
X4410013D01*
X4420010Y2850048D01*
X4479991Y2840051D02*
X4440004D01*
X4479991Y2880038D01*
Y2890035D01*
X4469994Y2900032D01*
X4450000D01*
X4440004Y2890035D01*
X4499984Y2840051D02*
X4519978D01*
X4509981D01*
Y2900032D01*
X4499984Y2890035D01*
X5319966Y2720013D02*
X5309969Y2710016D01*
Y2690023D01*
X5319966Y2680026D01*
X5359953D01*
X5369949Y2690023D01*
Y2710016D01*
X5359953Y2720013D01*
X5369949Y2779993D02*
Y2740006D01*
X5329962Y2779993D01*
X5319966D01*
X5309969Y2769997D01*
Y2750003D01*
X5319966Y2740006D01*
X5369949Y2839974D02*
Y2799987D01*
X5329962Y2839974D01*
X5319966D01*
X5309969Y2829977D01*
Y2809984D01*
X5319966Y2799987D01*
X5429965Y2720013D02*
X5419968Y2710016D01*
Y2690023D01*
X5429965Y2680026D01*
X5469952D01*
X5479949Y2690023D01*
Y2710016D01*
X5469952Y2720013D01*
X5479949Y2779993D02*
Y2740006D01*
X5439962Y2779993D01*
X5429965D01*
X5419968Y2769997D01*
Y2750003D01*
X5429965Y2740006D01*
Y2799987D02*
X5419968Y2809984D01*
Y2829977D01*
X5429965Y2839974D01*
X5439962D01*
X5449959Y2829977D01*
Y2819981D01*
Y2829977D01*
X5459955Y2839974D01*
X5469952D01*
X5479949Y2829977D01*
Y2809984D01*
X5469952Y2799987D01*
X4020006Y1660012D02*
X4010009Y1650016D01*
Y1630022D01*
X4020006Y1620025D01*
X4059993D01*
X4069990Y1630022D01*
Y1650016D01*
X4059993Y1660012D01*
Y1680006D02*
X4069990Y1690003D01*
Y1709996D01*
X4059993Y1719993D01*
X4020006D01*
X4010009Y1709996D01*
Y1690003D01*
X4020006Y1680006D01*
X4030003D01*
X4040000Y1690003D01*
Y1719993D01*
X4010009Y1739987D02*
Y1779974D01*
X4020006D01*
X4059993Y1739987D01*
X4069990D01*
X4160006Y1660012D02*
X4150009Y1650016D01*
Y1630022D01*
X4160006Y1620025D01*
X4199993D01*
X4209990Y1630022D01*
Y1650016D01*
X4199993Y1660012D01*
Y1680006D02*
X4209990Y1690003D01*
Y1709996D01*
X4199993Y1719993D01*
X4160006D01*
X4150009Y1709996D01*
Y1690003D01*
X4160006Y1680006D01*
X4170003D01*
X4180000Y1690003D01*
Y1719993D01*
X4150009Y1779974D02*
Y1739987D01*
X4180000D01*
X4170003Y1759980D01*
Y1769977D01*
X4180000Y1779974D01*
X4199993D01*
X4209990Y1769977D01*
Y1749983D01*
X4199993Y1739987D01*
X2120007Y4150013D02*
X2110010Y4140016D01*
Y4120023D01*
X2120007Y4110026D01*
X2159994D01*
X2169990Y4120023D01*
Y4140016D01*
X2159994Y4150013D01*
X2110010Y4170007D02*
Y4209994D01*
X2120007D01*
X2159994Y4170007D01*
X2169990D01*
X2110010Y4269974D02*
X2120007Y4249981D01*
X2140000Y4229987D01*
X2159994D01*
X2169990Y4239984D01*
Y4259978D01*
X2159994Y4269974D01*
X2149997D01*
X2140000Y4259978D01*
Y4229987D01*
X2505021Y2589993D02*
X2495024Y2599990D01*
X2475031D01*
X2465034Y2589993D01*
Y2550006D01*
X2475031Y2540010D01*
X2495024D01*
X2505021Y2550006D01*
X2525015Y2540010D02*
X2545008D01*
X2535011D01*
Y2599990D01*
X2525015Y2589993D01*
X2574998D02*
X2584995Y2599990D01*
X2604989D01*
X2614985Y2589993D01*
Y2550006D01*
X2604989Y2540010D01*
X2584995D01*
X2574998Y2550006D01*
Y2589993D01*
X2634979D02*
X2644976Y2599990D01*
X2664969D01*
X2674966Y2589993D01*
Y2579997D01*
X2664969Y2570000D01*
X2654973D01*
X2664969D01*
X2674966Y2560003D01*
Y2550006D01*
X2664969Y2540010D01*
X2644976D01*
X2634979Y2550006D01*
X2390006Y730013D02*
X2380009Y720016D01*
Y700022D01*
X2390006Y690026D01*
X2429993D01*
X2439990Y700022D01*
Y720016D01*
X2429993Y730013D01*
X2380009Y750006D02*
Y789993D01*
X2390006D01*
X2429993Y750006D01*
X2439990D01*
X2380009Y809987D02*
Y849974D01*
X2390006D01*
X2429993Y809987D01*
X2439990D01*
X3320006Y1570013D02*
X3310009Y1560016D01*
Y1540022D01*
X3320006Y1530026D01*
X3359993D01*
X3369990Y1540022D01*
Y1560016D01*
X3359993Y1570013D01*
Y1590006D02*
X3369990Y1600003D01*
Y1619997D01*
X3359993Y1629993D01*
X3320006D01*
X3310009Y1619997D01*
Y1600003D01*
X3320006Y1590006D01*
X3330003D01*
X3340000Y1600003D01*
Y1629993D01*
X3369990Y1679977D02*
X3310009D01*
X3340000Y1649987D01*
Y1689974D01*
X4910013Y3309993D02*
X4900016Y3319990D01*
X4880023D01*
X4870026Y3309993D01*
Y3270006D01*
X4880023Y3260010D01*
X4900016D01*
X4910013Y3270006D01*
X4969994Y3319990D02*
X4950000Y3309993D01*
X4930007Y3290000D01*
Y3270006D01*
X4940003Y3260010D01*
X4959997D01*
X4969994Y3270006D01*
Y3280003D01*
X4959997Y3290000D01*
X4930007D01*
X5029974Y3260010D02*
X4989987D01*
X5029974Y3299997D01*
Y3309993D01*
X5019978Y3319990D01*
X4999984D01*
X4989987Y3309993D01*
X5960013Y1460035D02*
X5950016Y1470032D01*
X5930022D01*
X5920026Y1460035D01*
Y1420048D01*
X5930022Y1410051D01*
X5950016D01*
X5960013Y1420048D01*
X6019993Y1470032D02*
X6000000Y1460035D01*
X5980006Y1440041D01*
Y1420048D01*
X5990003Y1410051D01*
X6009997D01*
X6019993Y1420048D01*
Y1430045D01*
X6009997Y1440041D01*
X5980006D01*
X6079974Y1470032D02*
X6039987D01*
Y1440041D01*
X6059981Y1450038D01*
X6069977D01*
X6079974Y1440041D01*
Y1420048D01*
X6069977Y1410051D01*
X6049984D01*
X6039987Y1420048D01*
X5460013Y2330035D02*
X5450017Y2340032D01*
X5430023D01*
X5420026Y2330035D01*
Y2290048D01*
X5430023Y2280051D01*
X5450017D01*
X5460013Y2290048D01*
X5519994Y2340032D02*
X5500000Y2330035D01*
X5480007Y2310042D01*
Y2290048D01*
X5490003Y2280051D01*
X5509997D01*
X5519994Y2290048D01*
Y2300045D01*
X5509997Y2310042D01*
X5480007D01*
X5539987Y2330035D02*
X5549984Y2340032D01*
X5569978D01*
X5579974Y2330035D01*
Y2320038D01*
X5569978Y2310042D01*
X5579974Y2300045D01*
Y2290048D01*
X5569978Y2280051D01*
X5549984D01*
X5539987Y2290048D01*
Y2300045D01*
X5549984Y2310042D01*
X5539987Y2320038D01*
Y2330035D01*
X5549984Y2310042D02*
X5569978D01*
X6620014Y2870035D02*
X6610017Y2880032D01*
X6590023D01*
X6580027Y2870035D01*
Y2830048D01*
X6590023Y2820051D01*
X6610017D01*
X6620014Y2830048D01*
X6679994Y2880032D02*
X6660001Y2870035D01*
X6640007Y2850041D01*
Y2830048D01*
X6650004Y2820051D01*
X6669998D01*
X6679994Y2830048D01*
Y2840045D01*
X6669998Y2850041D01*
X6640007D01*
X6699988Y2830048D02*
X6709985Y2820051D01*
X6729978D01*
X6739975Y2830048D01*
Y2870035D01*
X6729978Y2880032D01*
X6709985D01*
X6699988Y2870035D01*
Y2860038D01*
X6709985Y2850041D01*
X6739975D01*
X6840013Y2300035D02*
X6830017Y2310032D01*
X6810023D01*
X6800027Y2300035D01*
Y2260048D01*
X6810023Y2250051D01*
X6830017D01*
X6840013Y2260048D01*
X6899994Y2310032D02*
X6880001Y2300035D01*
X6860007Y2280042D01*
Y2260048D01*
X6870004Y2250051D01*
X6889997D01*
X6899994Y2260048D01*
Y2270045D01*
X6889997Y2280042D01*
X6860007D01*
X6949978Y2250051D02*
Y2310032D01*
X6919988Y2280042D01*
X6959975D01*
X7510006Y2505021D02*
X7500009Y2495024D01*
Y2475031D01*
X7510006Y2465034D01*
X7549993D01*
X7559990Y2475031D01*
Y2495024D01*
X7549993Y2505021D01*
X7559990Y2525015D02*
Y2545008D01*
Y2535011D01*
X7500009D01*
X7510006Y2525015D01*
X7559990Y2614985D02*
Y2574998D01*
X7520003Y2614985D01*
X7510006D01*
X7500009Y2604988D01*
Y2584995D01*
X7510006Y2574998D01*
Y2634979D02*
X7500009Y2644975D01*
Y2664969D01*
X7510006Y2674966D01*
X7520003D01*
X7530000Y2664969D01*
Y2654972D01*
Y2664969D01*
X7539996Y2674966D01*
X7549993D01*
X7559990Y2664969D01*
Y2644975D01*
X7549993Y2634979D01*
X6590048Y1445021D02*
X6580051Y1435025D01*
Y1415031D01*
X6590048Y1405034D01*
X6630035D01*
X6640031Y1415031D01*
Y1435025D01*
X6630035Y1445021D01*
X6640031Y1465015D02*
Y1485008D01*
Y1475012D01*
X6580051D01*
X6590048Y1465015D01*
X6640031Y1554985D02*
Y1514998D01*
X6600044Y1554985D01*
X6590048D01*
X6580051Y1544989D01*
Y1524995D01*
X6590048Y1514998D01*
X6640031Y1604969D02*
X6580051D01*
X6610041Y1574979D01*
Y1614966D01*
X6600048Y985021D02*
X6590051Y975024D01*
Y955031D01*
X6600048Y945034D01*
X6640035D01*
X6650031Y955031D01*
Y975024D01*
X6640035Y985021D01*
X6650031Y1005015D02*
Y1025008D01*
Y1015011D01*
X6590051D01*
X6600048Y1005015D01*
X6650031Y1094985D02*
Y1054998D01*
X6610044Y1094985D01*
X6600048D01*
X6590051Y1084989D01*
Y1064995D01*
X6600048Y1054998D01*
X6590051Y1154966D02*
Y1114979D01*
X6620041D01*
X6610044Y1134973D01*
Y1144969D01*
X6620041Y1154966D01*
X6640035D01*
X6650031Y1144969D01*
Y1124976D01*
X6640035Y1114979D01*
X7510006Y2265021D02*
X7500009Y2255024D01*
Y2235031D01*
X7510006Y2225034D01*
X7549993D01*
X7559990Y2235031D01*
Y2255024D01*
X7549993Y2265021D01*
X7559990Y2285014D02*
Y2305008D01*
Y2295011D01*
X7500009D01*
X7510006Y2285014D01*
X7559990Y2374985D02*
Y2334998D01*
X7520003Y2374985D01*
X7510006D01*
X7500009Y2364988D01*
Y2344995D01*
X7510006Y2334998D01*
X7500009Y2434966D02*
X7510006Y2414972D01*
X7530000Y2394979D01*
X7549993D01*
X7559990Y2404975D01*
Y2424969D01*
X7549993Y2434966D01*
X7539996D01*
X7530000Y2424969D01*
Y2394979D01*
X6339965Y3785021D02*
X6329968Y3775024D01*
Y3755031D01*
X6339965Y3745034D01*
X6379952D01*
X6389949Y3755031D01*
Y3775024D01*
X6379952Y3785021D01*
X6389949Y3805015D02*
Y3825008D01*
Y3815011D01*
X6329968D01*
X6339965Y3805015D01*
X6389949Y3894985D02*
Y3854998D01*
X6349962Y3894985D01*
X6339965D01*
X6329968Y3884989D01*
Y3864995D01*
X6339965Y3854998D01*
X6329968Y3914979D02*
Y3954966D01*
X6339965D01*
X6379952Y3914979D01*
X6389949D01*
X6749965Y3795021D02*
X6739968Y3785024D01*
Y3765031D01*
X6749965Y3755034D01*
X6789952D01*
X6799949Y3765031D01*
Y3785024D01*
X6789952Y3795021D01*
X6799949Y3815015D02*
Y3835008D01*
Y3825011D01*
X6739968D01*
X6749965Y3815015D01*
X6799949Y3904985D02*
Y3864998D01*
X6759962Y3904985D01*
X6749965D01*
X6739968Y3894989D01*
Y3874995D01*
X6749965Y3864998D01*
Y3924979D02*
X6739968Y3934976D01*
Y3954969D01*
X6749965Y3964966D01*
X6759962D01*
X6769959Y3954969D01*
X6779955Y3964966D01*
X6789952D01*
X6799949Y3954969D01*
Y3934976D01*
X6789952Y3924979D01*
X6779955D01*
X6769959Y3934976D01*
X6759962Y3924979D01*
X6749965D01*
X6769959Y3934976D02*
Y3954969D01*
X4440004Y3250035D02*
X4430007Y3260032D01*
X4410013D01*
X4400017Y3250035D01*
Y3210048D01*
X4410013Y3200051D01*
X4430007D01*
X4440004Y3210048D01*
X4499984Y3200051D02*
X4459997D01*
X4499984Y3240038D01*
Y3250035D01*
X4489987Y3260032D01*
X4469994D01*
X4459997Y3250035D01*
X3509965Y4690013D02*
X3499968Y4680016D01*
Y4660023D01*
X3509965Y4650026D01*
X3549952D01*
X3559949Y4660023D01*
Y4680016D01*
X3549952Y4690013D01*
X3509965Y4710007D02*
X3499968Y4720003D01*
Y4739997D01*
X3509965Y4749994D01*
X3519962D01*
X3529959Y4739997D01*
X3539955Y4749994D01*
X3549952D01*
X3559949Y4739997D01*
Y4720003D01*
X3549952Y4710007D01*
X3539955D01*
X3529959Y4720003D01*
X3519962Y4710007D01*
X3509965D01*
X3529959Y4720003D02*
Y4739997D01*
X3559949Y4799977D02*
X3499968D01*
X3529959Y4769987D01*
Y4809974D01*
X3530006Y3775021D02*
X3520009Y3765024D01*
Y3745031D01*
X3530006Y3735034D01*
X3569993D01*
X3579990Y3745031D01*
Y3765024D01*
X3569993Y3775021D01*
X3579990Y3795015D02*
Y3815008D01*
Y3805011D01*
X3520009D01*
X3530006Y3795015D01*
Y3844998D02*
X3520009Y3854995D01*
Y3874988D01*
X3530006Y3884985D01*
X3569993D01*
X3579990Y3874988D01*
Y3854995D01*
X3569993Y3844998D01*
X3530006D01*
X3579990Y3934969D02*
X3520009D01*
X3550000Y3904979D01*
Y3944966D01*
X5285021Y3449952D02*
X5275025Y3459949D01*
X5255031D01*
X5245034Y3449952D01*
Y3409965D01*
X5255031Y3399968D01*
X5275025D01*
X5285021Y3409965D01*
X5305015Y3399968D02*
X5325009D01*
X5315012D01*
Y3459949D01*
X5305015Y3449952D01*
X5354999D02*
X5364995Y3459949D01*
X5384989D01*
X5394986Y3449952D01*
Y3409965D01*
X5384989Y3399968D01*
X5364995D01*
X5354999Y3409965D01*
Y3449952D01*
X5454966Y3459949D02*
X5414979D01*
Y3429959D01*
X5434973Y3439955D01*
X5444970D01*
X5454966Y3429959D01*
Y3409965D01*
X5444970Y3399968D01*
X5424976D01*
X5414979Y3409965D01*
X3215021Y3879952D02*
X3205025Y3889949D01*
X3185031D01*
X3175034Y3879952D01*
Y3839965D01*
X3185031Y3829968D01*
X3205025D01*
X3215021Y3839965D01*
X3235015Y3829968D02*
X3255008D01*
X3245012D01*
Y3889949D01*
X3235015Y3879952D01*
X3284999D02*
X3294995Y3889949D01*
X3314989D01*
X3324985Y3879952D01*
Y3839965D01*
X3314989Y3829968D01*
X3294995D01*
X3284999Y3839965D01*
Y3879952D01*
X3384966Y3889949D02*
X3364973Y3879952D01*
X3344979Y3859958D01*
Y3839965D01*
X3354976Y3829968D01*
X3374969D01*
X3384966Y3839965D01*
Y3849962D01*
X3374969Y3859958D01*
X3344979D01*
X2620006Y4075021D02*
X2610009Y4065024D01*
Y4045031D01*
X2620006Y4035034D01*
X2659993D01*
X2669990Y4045031D01*
Y4065024D01*
X2659993Y4075021D01*
X2669990Y4095015D02*
Y4115008D01*
Y4105011D01*
X2610009D01*
X2620006Y4095015D01*
Y4144998D02*
X2610009Y4154995D01*
Y4174989D01*
X2620006Y4184985D01*
X2659993D01*
X2669990Y4174989D01*
Y4154995D01*
X2659993Y4144998D01*
X2620006D01*
X2610009Y4204979D02*
Y4244966D01*
X2620006D01*
X2659993Y4204979D01*
X2669990D01*
X2965021Y4300035D02*
X2955024Y4310032D01*
X2935031D01*
X2925034Y4300035D01*
Y4260048D01*
X2935031Y4250051D01*
X2955024D01*
X2965021Y4260048D01*
X2985015Y4250051D02*
X3005008D01*
X2995011D01*
Y4310032D01*
X2985015Y4300035D01*
X3034998D02*
X3044995Y4310032D01*
X3064989D01*
X3074985Y4300035D01*
Y4260048D01*
X3064989Y4250051D01*
X3044995D01*
X3034998Y4260048D01*
Y4300035D01*
X3094979D02*
X3104976Y4310032D01*
X3124969D01*
X3134966Y4300035D01*
Y4290038D01*
X3124969Y4280041D01*
X3134966Y4270045D01*
Y4260048D01*
X3124969Y4250051D01*
X3104976D01*
X3094979Y4260048D01*
Y4270045D01*
X3104976Y4280041D01*
X3094979Y4290038D01*
Y4300035D01*
X3104976Y4280041D02*
X3124969D01*
X2660020Y4369993D02*
X2650023Y4379990D01*
X2630029D01*
X2620033Y4369993D01*
Y4330006D01*
X2630029Y4320010D01*
X2650023D01*
X2660020Y4330006D01*
X2680013Y4320010D02*
X2700007D01*
X2690010D01*
Y4379990D01*
X2680013Y4369993D01*
X2729997Y4320010D02*
X2749990D01*
X2739994D01*
Y4379990D01*
X2729997Y4369993D01*
X2779980Y4379990D02*
X2819967D01*
Y4369993D01*
X2779980Y4330006D01*
Y4320010D01*
X5420007Y3555022D02*
X5410010Y3545025D01*
Y3525031D01*
X5420007Y3515035D01*
X5459994D01*
X5469991Y3525031D01*
Y3545025D01*
X5459994Y3555022D01*
X5469991Y3575015D02*
Y3595009D01*
Y3585012D01*
X5410010D01*
X5420007Y3575015D01*
Y3624999D02*
X5410010Y3634996D01*
Y3654989D01*
X5420007Y3664986D01*
X5459994D01*
X5469991Y3654989D01*
Y3634996D01*
X5459994Y3624999D01*
X5420007D01*
X5459994Y3684979D02*
X5469991Y3694976D01*
Y3714970D01*
X5459994Y3724966D01*
X5420007D01*
X5410010Y3714970D01*
Y3694976D01*
X5420007Y3684979D01*
X5430004D01*
X5440000Y3694976D01*
Y3724966D01*
X3340019Y4379994D02*
X3330023Y4389990D01*
X3310029D01*
X3300033Y4379994D01*
Y4340007D01*
X3310029Y4330010D01*
X3330023D01*
X3340019Y4340007D01*
X3360013Y4330010D02*
X3380007D01*
X3370010D01*
Y4389990D01*
X3360013Y4379994D01*
X3409997Y4330010D02*
X3429990D01*
X3419993D01*
Y4389990D01*
X3409997Y4379994D01*
X3459980D02*
X3469977Y4389990D01*
X3489971D01*
X3499967Y4379994D01*
Y4340007D01*
X3489971Y4330010D01*
X3469977D01*
X3459980Y4340007D01*
Y4379994D01*
X3320020Y3649993D02*
X3310023Y3659990D01*
X3290029D01*
X3280033Y3649993D01*
Y3610006D01*
X3290029Y3600010D01*
X3310023D01*
X3320020Y3610006D01*
X3340013Y3600010D02*
X3360007D01*
X3350010D01*
Y3659990D01*
X3340013Y3649993D01*
X3389997Y3600010D02*
X3409991D01*
X3399994D01*
Y3659990D01*
X3389997Y3649993D01*
X3469971Y3600010D02*
Y3659990D01*
X3439981Y3630000D01*
X3479968D01*
X3710007Y3690020D02*
X3700010Y3680023D01*
Y3660030D01*
X3710007Y3650033D01*
X3749994D01*
X3759990Y3660030D01*
Y3680023D01*
X3749994Y3690020D01*
X3759990Y3710013D02*
Y3730007D01*
Y3720010D01*
X3700010D01*
X3710007Y3710013D01*
X3759990Y3759997D02*
Y3779991D01*
Y3769994D01*
X3700010D01*
X3710007Y3759997D01*
X3700010Y3849968D02*
X3710007Y3829974D01*
X3730000Y3809981D01*
X3749994D01*
X3759990Y3819977D01*
Y3839971D01*
X3749994Y3849968D01*
X3739997D01*
X3730000Y3839971D01*
Y3809981D01*
X3240020Y3469993D02*
X3230023Y3479990D01*
X3210029D01*
X3200033Y3469993D01*
Y3430006D01*
X3210029Y3420010D01*
X3230023D01*
X3240020Y3430006D01*
X3260013Y3420010D02*
X3280007D01*
X3270010D01*
Y3479990D01*
X3260013Y3469993D01*
X3309997Y3420010D02*
X3329991D01*
X3319994D01*
Y3479990D01*
X3309997Y3469993D01*
X3399968Y3479990D02*
X3359981D01*
Y3450000D01*
X3379974Y3459997D01*
X3389971D01*
X3399968Y3450000D01*
Y3430006D01*
X3389971Y3420010D01*
X3369977D01*
X3359981Y3430006D01*
X1870013Y1890035D02*
X1860016Y1900032D01*
X1840022D01*
X1830026Y1890035D01*
Y1850048D01*
X1840022Y1840051D01*
X1860016D01*
X1870013Y1850048D01*
X1890006Y1890035D02*
X1900003Y1900032D01*
X1919997D01*
X1929993Y1890035D01*
Y1880038D01*
X1919997Y1870041D01*
X1929993Y1860045D01*
Y1850048D01*
X1919997Y1840051D01*
X1900003D01*
X1890006Y1850048D01*
Y1860045D01*
X1900003Y1870041D01*
X1890006Y1880038D01*
Y1890035D01*
X1900003Y1870041D02*
X1919997D01*
X1949987Y1890035D02*
X1959984Y1900032D01*
X1979977D01*
X1989974Y1890035D01*
Y1850048D01*
X1979977Y1840051D01*
X1959984D01*
X1949987Y1850048D01*
Y1890035D01*
X6290006Y2995011D02*
X6280010Y2985015D01*
Y2965021D01*
X6290006Y2955024D01*
X6329993D01*
X6339990Y2965021D01*
Y2985015D01*
X6329993Y2995011D01*
X6339990Y3015005D02*
Y3034999D01*
Y3025002D01*
X6280010D01*
X6290006Y3015005D01*
X6280010Y3104976D02*
X6290006Y3084982D01*
X6310000Y3064989D01*
X6329993D01*
X6339990Y3074985D01*
Y3094979D01*
X6329993Y3104976D01*
X6319997D01*
X6310000Y3094979D01*
Y3064989D01*
X5949965Y2975011D02*
X5939968Y2965015D01*
Y2945021D01*
X5949965Y2935024D01*
X5989952D01*
X5999949Y2945021D01*
Y2965015D01*
X5989952Y2975011D01*
X5999949Y2995005D02*
Y3014999D01*
Y3005002D01*
X5939968D01*
X5949965Y2995005D01*
X5939968Y3044989D02*
Y3084976D01*
X5949965D01*
X5989952Y3044989D01*
X5999949D01*
X5629965Y2975011D02*
X5619968Y2965015D01*
Y2945021D01*
X5629965Y2935024D01*
X5669952D01*
X5679949Y2945021D01*
Y2965015D01*
X5669952Y2975011D01*
X5679949Y2995005D02*
Y3014999D01*
Y3005002D01*
X5619968D01*
X5629965Y2995005D01*
Y3044989D02*
X5619968Y3054985D01*
Y3074979D01*
X5629965Y3084976D01*
X5639962D01*
X5649959Y3074979D01*
X5659955Y3084976D01*
X5669952D01*
X5679949Y3074979D01*
Y3054985D01*
X5669952Y3044989D01*
X5659955D01*
X5649959Y3054985D01*
X5639962Y3044989D01*
X5629965D01*
X5649959Y3054985D02*
Y3074979D01*
X7829965Y4670019D02*
X7819968Y4660023D01*
Y4640029D01*
X7829965Y4630032D01*
X7869952D01*
X7879949Y4640029D01*
Y4660023D01*
X7869952Y4670019D01*
X7879949Y4690013D02*
Y4710007D01*
Y4700010D01*
X7819968D01*
X7829965Y4690013D01*
X7879949Y4739997D02*
Y4759990D01*
Y4749993D01*
X7819968D01*
X7829965Y4739997D01*
Y4789980D02*
X7819968Y4799977D01*
Y4819971D01*
X7829965Y4829967D01*
X7839962D01*
X7849958Y4819971D01*
X7859955Y4829967D01*
X7869952D01*
X7879949Y4819971D01*
Y4799977D01*
X7869952Y4789980D01*
X7859955D01*
X7849958Y4799977D01*
X7839962Y4789980D01*
X7829965D01*
X7849958Y4799977D02*
Y4819971D01*
X7830048Y600020D02*
X7820051Y590023D01*
Y570030D01*
X7830048Y560033D01*
X7870035D01*
X7880031Y570030D01*
Y590023D01*
X7870035Y600020D01*
X7880031Y620013D02*
Y640007D01*
Y630010D01*
X7820051D01*
X7830048Y620013D01*
X7880031Y669997D02*
Y689991D01*
Y679994D01*
X7820051D01*
X7830048Y669997D01*
X7870035Y719981D02*
X7880031Y729977D01*
Y749971D01*
X7870035Y759968D01*
X7830048D01*
X7820051Y749971D01*
Y729977D01*
X7830048Y719981D01*
X7840045D01*
X7850041Y729977D01*
Y759968D01*
X7025022Y2919952D02*
X7015025Y2929949D01*
X6995031D01*
X6985035Y2919952D01*
Y2879965D01*
X6995031Y2869968D01*
X7015025D01*
X7025022Y2879965D01*
X7045015Y2869968D02*
X7065009D01*
X7055012D01*
Y2929949D01*
X7045015Y2919952D01*
X7094999D02*
X7104996Y2929949D01*
X7124989D01*
X7134986Y2919952D01*
Y2879965D01*
X7124989Y2869968D01*
X7104996D01*
X7094999Y2879965D01*
Y2919952D01*
X7154980D02*
X7164976Y2929949D01*
X7184970D01*
X7194967Y2919952D01*
Y2879965D01*
X7184970Y2869968D01*
X7164976D01*
X7154980Y2879965D01*
Y2919952D01*
X7624240Y3644637D02*
Y3584657D01*
X7654231D01*
X7664227Y3594653D01*
Y3634640D01*
X7654231Y3644637D01*
X7624240D01*
X7684221Y3584657D02*
X7704214D01*
X7694218D01*
Y3644637D01*
X7684221Y3634640D01*
X7774191Y3644637D02*
X7754198Y3634640D01*
X7734204Y3614647D01*
Y3594653D01*
X7744201Y3584657D01*
X7764195D01*
X7774191Y3594653D01*
Y3604650D01*
X7764195Y3614647D01*
X7734204D01*
X7624240Y1744637D02*
Y1684657D01*
X7654231D01*
X7664227Y1694653D01*
Y1734640D01*
X7654231Y1744637D01*
X7624240D01*
X7684221Y1684657D02*
X7704214D01*
X7694218D01*
Y1744637D01*
X7684221Y1734640D01*
X7734204Y1744637D02*
X7774191D01*
Y1734640D01*
X7734204Y1694653D01*
Y1684657D01*
X7650016Y4044637D02*
Y3984657D01*
X7680007D01*
X7690003Y3994653D01*
Y4034640D01*
X7680007Y4044637D01*
X7650016D01*
X7709997Y4034640D02*
X7719994Y4044637D01*
X7739987D01*
X7749984Y4034640D01*
Y4024644D01*
X7739987Y4014647D01*
X7729991D01*
X7739987D01*
X7749984Y4004650D01*
Y3994653D01*
X7739987Y3984657D01*
X7719994D01*
X7709997Y3994653D01*
X7650016Y2144638D02*
Y2084657D01*
X7680007D01*
X7690003Y2094654D01*
Y2134641D01*
X7680007Y2144638D01*
X7650016D01*
X7739987Y2084657D02*
Y2144638D01*
X7709997Y2114647D01*
X7749984D01*
X2240010Y730013D02*
X2299990D01*
Y770000D01*
Y789994D02*
Y809987D01*
Y799990D01*
X2240010D01*
X2250007Y789994D01*
X2520010Y720016D02*
X2579990D01*
Y760003D01*
Y819984D02*
Y779997D01*
X2540003Y819984D01*
X2530007D01*
X2520010Y809987D01*
Y789994D01*
X2530007Y779997D01*
X1410516Y5113510D02*
Y5173490D01*
X1430510Y5153497D01*
X1450503Y5173490D01*
Y5113510D01*
X1510484Y5173490D02*
X1490491Y5163493D01*
X1470497Y5143500D01*
Y5123506D01*
X1480494Y5113510D01*
X1500487D01*
X1510484Y5123506D01*
Y5133503D01*
X1500487Y5143500D01*
X1470497D01*
X5290013Y3980010D02*
Y4039990D01*
X5320004D01*
X5330000Y4029993D01*
Y4010000D01*
X5320004Y4000003D01*
X5290013D01*
X5310007D02*
X5330000Y3980010D01*
X5349994D02*
X5369987D01*
X5359991D01*
Y4039990D01*
X5349994Y4029993D01*
X5080017Y3980010D02*
Y4039990D01*
X5110007D01*
X5120004Y4029993D01*
Y4010000D01*
X5110007Y4000003D01*
X5080017D01*
X5100010D02*
X5120004Y3980010D01*
X5179984D02*
X5139997D01*
X5179984Y4019997D01*
Y4029993D01*
X5169988Y4039990D01*
X5149994D01*
X5139997Y4029993D01*
X4410017Y4200010D02*
Y4259990D01*
X4440007D01*
X4450004Y4249993D01*
Y4230000D01*
X4440007Y4220003D01*
X4410017D01*
X4430010D02*
X4450004Y4200010D01*
X4469997Y4259990D02*
X4509984D01*
Y4249993D01*
X4469997Y4210006D01*
Y4200010D01*
X5029990Y3430017D02*
X4970010D01*
Y3460007D01*
X4980007Y3470003D01*
X5000000D01*
X5009997Y3460007D01*
Y3430017D01*
Y3450010D02*
X5029990Y3470003D01*
X4980007Y3489997D02*
X4970010Y3499994D01*
Y3519987D01*
X4980007Y3529984D01*
X4990003D01*
X5000000Y3519987D01*
X5009997Y3529984D01*
X5019994D01*
X5029990Y3519987D01*
Y3499994D01*
X5019994Y3489997D01*
X5009997D01*
X5000000Y3499994D01*
X4990003Y3489997D01*
X4980007D01*
X5000000Y3499994D02*
Y3519987D01*
X5760370Y3980010D02*
Y4039990D01*
X5790361D01*
X5800357Y4029993D01*
Y4010000D01*
X5790361Y4000003D01*
X5760370D01*
X5780364D02*
X5800357Y3980010D01*
X5820351Y3990006D02*
X5830347Y3980010D01*
X5850341D01*
X5860338Y3990006D01*
Y4029993D01*
X5850341Y4039990D01*
X5830347D01*
X5820351Y4029993D01*
Y4019997D01*
X5830347Y4010000D01*
X5860338D01*
X4400017Y3100010D02*
Y3159990D01*
X4430007D01*
X4440004Y3149993D01*
Y3130000D01*
X4430007Y3120003D01*
X4400017D01*
X4420010D02*
X4440004Y3100010D01*
X4499984Y3159990D02*
X4479991Y3149993D01*
X4459997Y3130000D01*
Y3110006D01*
X4469994Y3100010D01*
X4489987D01*
X4499984Y3110006D01*
Y3120003D01*
X4489987Y3130000D01*
X4459997D01*
X7169990Y2130026D02*
X7110009D01*
Y2160016D01*
X7120006Y2170013D01*
X7140000D01*
X7149996Y2160016D01*
Y2130026D01*
Y2150019D02*
X7169990Y2170013D01*
X7120006Y2190006D02*
X7110009Y2200003D01*
Y2219997D01*
X7120006Y2229993D01*
X7130003D01*
X7140000Y2219997D01*
Y2210000D01*
Y2219997D01*
X7149996Y2229993D01*
X7159993D01*
X7169990Y2219997D01*
Y2200003D01*
X7159993Y2190006D01*
X7110009Y2289974D02*
Y2249987D01*
X7140000D01*
X7130003Y2269980D01*
Y2279977D01*
X7140000Y2289974D01*
X7159993D01*
X7169990Y2279977D01*
Y2259984D01*
X7159993Y2249987D01*
X7750033Y2770010D02*
Y2829990D01*
X7780023D01*
X7790020Y2819993D01*
Y2800000D01*
X7780023Y2790003D01*
X7750033D01*
X7770026D02*
X7790020Y2770010D01*
X7810013D02*
X7830007D01*
X7820010D01*
Y2829990D01*
X7810013Y2819993D01*
X7859997Y2770010D02*
X7879991D01*
X7869994D01*
Y2829990D01*
X7859997Y2819993D01*
X7949968Y2770010D02*
X7909981D01*
X7949968Y2809997D01*
Y2819993D01*
X7939971Y2829990D01*
X7919977D01*
X7909981Y2819993D01*
X5100026Y1110010D02*
Y1169991D01*
X5130017D01*
X5140013Y1159994D01*
Y1140000D01*
X5130017Y1130004D01*
X5100026D01*
X5120020D02*
X5140013Y1110010D01*
X5199994Y1169991D02*
X5160007D01*
Y1140000D01*
X5180001Y1149997D01*
X5189997D01*
X5199994Y1140000D01*
Y1120007D01*
X5189997Y1110010D01*
X5170004D01*
X5160007Y1120007D01*
X5259974Y1169991D02*
X5219988D01*
Y1140000D01*
X5239981Y1149997D01*
X5249978D01*
X5259974Y1140000D01*
Y1120007D01*
X5249978Y1110010D01*
X5229984D01*
X5219988Y1120007D01*
X7750033Y2660010D02*
Y2719990D01*
X7780023D01*
X7790020Y2709993D01*
Y2690000D01*
X7780023Y2680003D01*
X7750033D01*
X7770026D02*
X7790020Y2660010D01*
X7810013D02*
X7830007D01*
X7820010D01*
Y2719990D01*
X7810013Y2709993D01*
X7859997Y2660010D02*
X7879991D01*
X7869994D01*
Y2719990D01*
X7859997Y2709993D01*
X7909981D02*
X7919977Y2719990D01*
X7939971D01*
X7949968Y2709993D01*
Y2699997D01*
X7939971Y2690000D01*
X7929974D01*
X7939971D01*
X7949968Y2680003D01*
Y2670006D01*
X7939971Y2660010D01*
X7919977D01*
X7909981Y2670006D01*
X4459991Y3480016D02*
X4400010D01*
Y3510007D01*
X4410007Y3520003D01*
X4430000D01*
X4439997Y3510007D01*
Y3480016D01*
Y3500010D02*
X4459991Y3520003D01*
Y3569987D02*
X4400010D01*
X4430000Y3539997D01*
Y3579984D01*
X4385021Y2970010D02*
Y3029990D01*
X4415012D01*
X4425008Y3019993D01*
Y3000000D01*
X4415012Y2990003D01*
X4385021D01*
X4405015D02*
X4425008Y2970010D01*
X4445002D02*
X4464996D01*
X4454999D01*
Y3029990D01*
X4445002Y3019993D01*
X4494986Y2970010D02*
X4514979D01*
X4504982D01*
Y3029990D01*
X4494986Y3019993D01*
X3230026Y1130010D02*
Y1189991D01*
X3260017D01*
X3270013Y1179994D01*
Y1160000D01*
X3260017Y1150004D01*
X3230026D01*
X3250020D02*
X3270013Y1130010D01*
X3290007Y1140007D02*
X3300004Y1130010D01*
X3319997D01*
X3329994Y1140007D01*
Y1179994D01*
X3319997Y1189991D01*
X3300004D01*
X3290007Y1179994D01*
Y1169997D01*
X3300004Y1160000D01*
X3329994D01*
X3349987Y1179994D02*
X3359984Y1189991D01*
X3379978D01*
X3389974Y1179994D01*
Y1140007D01*
X3379978Y1130010D01*
X3359984D01*
X3349987Y1140007D01*
Y1179994D01*
X3230026Y1230010D02*
Y1289991D01*
X3260017D01*
X3270013Y1279994D01*
Y1260000D01*
X3260017Y1250004D01*
X3230026D01*
X3250020D02*
X3270013Y1230010D01*
X3290007Y1240007D02*
X3300004Y1230010D01*
X3319997D01*
X3329994Y1240007D01*
Y1279994D01*
X3319997Y1289991D01*
X3300004D01*
X3290007Y1279994D01*
Y1269997D01*
X3300004Y1260000D01*
X3329994D01*
X3389974Y1289991D02*
X3349987D01*
Y1260000D01*
X3369981Y1269997D01*
X3379978D01*
X3389974Y1260000D01*
Y1240007D01*
X3379978Y1230010D01*
X3359984D01*
X3349987Y1240007D01*
X6570026Y2100010D02*
Y2159991D01*
X6600017D01*
X6610013Y2149994D01*
Y2130001D01*
X6600017Y2120004D01*
X6570026D01*
X6590020D02*
X6610013Y2100010D01*
X6630007Y2149994D02*
X6640004Y2159991D01*
X6659997D01*
X6669994Y2149994D01*
Y2139997D01*
X6659997Y2130001D01*
X6650001D01*
X6659997D01*
X6669994Y2120004D01*
Y2110007D01*
X6659997Y2100010D01*
X6640004D01*
X6630007Y2110007D01*
X6729975Y2100010D02*
X6689988D01*
X6729975Y2139997D01*
Y2149994D01*
X6719978Y2159991D01*
X6699984D01*
X6689988Y2149994D01*
X4700026Y4169990D02*
X4740013D01*
X4720020D01*
Y4110010D01*
X4760007D02*
Y4169990D01*
X4789997D01*
X4799994Y4159993D01*
Y4140000D01*
X4789997Y4130003D01*
X4760007D01*
X4859975Y4110010D02*
X4819988D01*
X4859975Y4149997D01*
Y4159993D01*
X4849978Y4169990D01*
X4829984D01*
X4819988Y4159993D01*
X5010023Y3939990D02*
X5050010D01*
X5030017D01*
Y3880010D01*
X5070004D02*
Y3939990D01*
X5099994D01*
X5109991Y3929993D01*
Y3910000D01*
X5099994Y3900003D01*
X5070004D01*
X5129984Y3880010D02*
X5149978D01*
X5139981D01*
Y3939990D01*
X5129984Y3929993D01*
X4830026Y3669990D02*
X4870013D01*
X4850020D01*
Y3610010D01*
X4890007D02*
Y3669990D01*
X4919997D01*
X4929994Y3659993D01*
Y3640000D01*
X4919997Y3630003D01*
X4890007D01*
X4949987Y3659993D02*
X4959984Y3669990D01*
X4979978D01*
X4989974Y3659993D01*
Y3649997D01*
X4979978Y3640000D01*
X4969981D01*
X4979978D01*
X4989974Y3630003D01*
Y3620006D01*
X4979978Y3610010D01*
X4959984D01*
X4949987Y3620006D01*
X5070026Y3349990D02*
X5110013D01*
X5090020D01*
Y3290010D01*
X5130007D02*
Y3349990D01*
X5159997D01*
X5169994Y3339993D01*
Y3320000D01*
X5159997Y3310003D01*
X5130007D01*
X5219978Y3290010D02*
Y3349990D01*
X5189987Y3320000D01*
X5229974D01*
X4530010Y3932516D02*
X4579994D01*
X4589990Y3942513D01*
Y3962506D01*
X4579994Y3972503D01*
X4530010D01*
X4589990Y4032483D02*
Y3992496D01*
X4550003Y4032483D01*
X4540007D01*
X4530010Y4022487D01*
Y4002493D01*
X4540007Y3992496D01*
X5090013Y4259990D02*
Y4210006D01*
X5100010Y4200010D01*
X5120004D01*
X5130000Y4210006D01*
Y4259990D01*
X5149994Y4200010D02*
X5169988D01*
X5159991D01*
Y4259990D01*
X5149994Y4249993D01*
X6810374Y2820313D02*
Y2770329D01*
X6820371Y2760333D01*
X6840365D01*
X6850361Y2770329D01*
Y2820313D01*
X6870355Y2760333D02*
X6890349D01*
X6880352D01*
Y2820313D01*
X6870355Y2810316D01*
X6920339Y2760333D02*
X6940332D01*
X6930335D01*
Y2820313D01*
X6920339Y2810316D01*
X6965379Y1110313D02*
Y1060329D01*
X6975376Y1050332D01*
X6995369D01*
X7005366Y1060329D01*
Y1110313D01*
X7065347Y1050332D02*
X7025360D01*
X7065347Y1090319D01*
Y1100316D01*
X7055350Y1110313D01*
X7035356D01*
X7025360Y1100316D01*
X7125327Y1110313D02*
X7105334Y1100316D01*
X7085340Y1080323D01*
Y1060329D01*
X7095337Y1050332D01*
X7115330D01*
X7125327Y1060329D01*
Y1070326D01*
X7115330Y1080323D01*
X7085340D01*
X6785379Y2120314D02*
Y2070330D01*
X6795376Y2060333D01*
X6815370D01*
X6825366Y2070330D01*
Y2120314D01*
X6885347Y2060333D02*
X6845360D01*
X6885347Y2100320D01*
Y2110317D01*
X6875350Y2120314D01*
X6855357D01*
X6845360Y2110317D01*
X6905341D02*
X6915337Y2120314D01*
X6935331D01*
X6945327Y2110317D01*
Y2100320D01*
X6935331Y2090323D01*
X6925334D01*
X6935331D01*
X6945327Y2080327D01*
Y2070330D01*
X6935331Y2060333D01*
X6915337D01*
X6905341Y2070330D01*
X5905379Y1280314D02*
Y1230330D01*
X5915375Y1220333D01*
X5935369D01*
X5945366Y1230330D01*
Y1280314D01*
X6005346Y1220333D02*
X5965359D01*
X6005346Y1260320D01*
Y1270317D01*
X5995349Y1280314D01*
X5975356D01*
X5965359Y1270317D01*
X6025340D02*
X6035336Y1280314D01*
X6055330D01*
X6065327Y1270317D01*
Y1260320D01*
X6055330Y1250323D01*
X6065327Y1240327D01*
Y1230330D01*
X6055330Y1220333D01*
X6035336D01*
X6025340Y1230330D01*
Y1240327D01*
X6035336Y1250323D01*
X6025340Y1260320D01*
Y1270317D01*
X6035336Y1250323D02*
X6055330D01*
X6800378Y2520313D02*
Y2470330D01*
X6810374Y2460333D01*
X6830368D01*
X6840365Y2470330D01*
Y2520313D01*
X6860358Y2460333D02*
X6880352D01*
X6870355D01*
Y2520313D01*
X6860358Y2510317D01*
X6950329Y2460333D02*
X6910342D01*
X6950329Y2500320D01*
Y2510317D01*
X6940332Y2520313D01*
X6920339D01*
X6910342Y2510317D01*
X8055025Y2905086D02*
Y2855102D01*
X8065021Y2845105D01*
X8085015D01*
X8095011Y2855102D01*
Y2905086D01*
X8115005Y2845105D02*
X8134999D01*
X8125002D01*
Y2905086D01*
X8115005Y2895089D01*
X8204976Y2905086D02*
X8164989D01*
Y2875095D01*
X8184982Y2885092D01*
X8194979D01*
X8204976Y2875095D01*
Y2855102D01*
X8194979Y2845105D01*
X8174985D01*
X8164989Y2855102D01*
X6965379Y1460314D02*
Y1410330D01*
X6975376Y1400333D01*
X6995369D01*
X7005366Y1410330D01*
Y1460314D01*
X7065347Y1400333D02*
X7025360D01*
X7065347Y1440320D01*
Y1450317D01*
X7055350Y1460314D01*
X7035356D01*
X7025360Y1450317D01*
X7115330Y1400333D02*
Y1460314D01*
X7085340Y1430323D01*
X7125327D01*
X6965379Y800313D02*
Y750329D01*
X6975376Y740333D01*
X6995369D01*
X7005366Y750329D01*
Y800313D01*
X7065347Y740333D02*
X7025360D01*
X7065347Y780320D01*
Y790316D01*
X7055350Y800313D01*
X7035356D01*
X7025360Y790316D01*
X7085340Y750329D02*
X7095337Y740333D01*
X7115330D01*
X7125327Y750329D01*
Y790316D01*
X7115330Y800313D01*
X7095337D01*
X7085340Y790316D01*
Y780320D01*
X7095337Y770323D01*
X7125327D01*
X5635379Y1770314D02*
Y1720330D01*
X5645376Y1710333D01*
X5665370D01*
X5675366Y1720330D01*
Y1770314D01*
X5735347Y1710333D02*
X5695360D01*
X5735347Y1750320D01*
Y1760317D01*
X5725350Y1770314D01*
X5705357D01*
X5695360Y1760317D01*
X5755341Y1770314D02*
X5795327D01*
Y1760317D01*
X5755341Y1720330D01*
Y1710333D01*
X6506393Y3573652D02*
Y3523668D01*
X6516389Y3513671D01*
X6536383D01*
X6546380Y3523668D01*
Y3573652D01*
X6566373Y3513671D02*
X6586367D01*
X6576370D01*
Y3573652D01*
X6566373Y3563655D01*
X6616357D02*
X6626354Y3573652D01*
X6646347D01*
X6656344Y3563655D01*
Y3553658D01*
X6646347Y3543661D01*
X6636350D01*
X6646347D01*
X6656344Y3533665D01*
Y3523668D01*
X6646347Y3513671D01*
X6626354D01*
X6616357Y3523668D01*
X8154813Y2622179D02*
Y2572195D01*
X8164810Y2562198D01*
X8184804D01*
X8194800Y2572195D01*
Y2622179D01*
X8214794Y2562198D02*
X8234787D01*
X8224791D01*
Y2622179D01*
X8214794Y2612182D01*
X8294768Y2562198D02*
Y2622179D01*
X8264777Y2592189D01*
X8304764D01*
X2840026Y4069990D02*
Y4020006D01*
X2850022Y4010010D01*
X2870016D01*
X2880013Y4020006D01*
Y4069990D01*
X2939993Y4010010D02*
X2900006D01*
X2939993Y4049997D01*
Y4059993D01*
X2929997Y4069990D01*
X2910003D01*
X2900006Y4059993D01*
X2999974Y4010010D02*
X2959987D01*
X2999974Y4049997D01*
Y4059993D01*
X2989977Y4069990D01*
X2969984D01*
X2959987Y4059993D01*
X5790010Y3350016D02*
X5839994D01*
X5849990Y3360013D01*
Y3380006D01*
X5839994Y3390003D01*
X5790010D01*
X5800007Y3409997D02*
X5790010Y3419993D01*
Y3439987D01*
X5800007Y3449984D01*
X5810003D01*
X5820000Y3439987D01*
Y3429990D01*
Y3439987D01*
X5829997Y3449984D01*
X5839994D01*
X5849990Y3439987D01*
Y3419993D01*
X5839994Y3409997D01*
X4778516Y5111510D02*
Y5171490D01*
X4808507D01*
X4818503Y5161493D01*
Y5141500D01*
X4808507Y5131503D01*
X4778516D01*
X4838497Y5161493D02*
X4848493Y5171490D01*
X4868487D01*
X4878484Y5161493D01*
Y5151497D01*
X4868487Y5141500D01*
X4878484Y5131503D01*
Y5121506D01*
X4868487Y5111510D01*
X4848493D01*
X4838497Y5121506D01*
Y5131503D01*
X4848493Y5141500D01*
X4838497Y5151497D01*
Y5161493D01*
X4848493Y5141500D02*
X4868487D01*
X4778516Y285510D02*
Y345490D01*
X4808507D01*
X4818503Y335493D01*
Y315500D01*
X4808507Y305503D01*
X4778516D01*
X4838497Y295506D02*
X4848493Y285510D01*
X4868487D01*
X4878484Y295506D01*
Y335493D01*
X4868487Y345490D01*
X4848493D01*
X4838497Y335493D01*
Y325497D01*
X4848493Y315500D01*
X4878484D01*
X3870013Y1369952D02*
X3860016Y1379949D01*
X3840023D01*
X3830026Y1369952D01*
Y1329965D01*
X3840023Y1319968D01*
X3860016D01*
X3870013Y1329965D01*
X3890007Y1379949D02*
X3929994D01*
Y1369952D01*
X3890007Y1329965D01*
Y1319968D01*
X3949987Y1369952D02*
X3959984Y1379949D01*
X3979978D01*
X3989974Y1369952D01*
Y1359955D01*
X3979978Y1349959D01*
X3989974Y1339962D01*
Y1329965D01*
X3979978Y1319968D01*
X3959984D01*
X3949987Y1329965D01*
Y1339962D01*
X3959984Y1349959D01*
X3949987Y1359955D01*
Y1369952D01*
X3959984Y1349959D02*
X3979978D01*
X2100016Y4744637D02*
Y4684657D01*
X2130007D01*
X2140003Y4694654D01*
Y4734641D01*
X2130007Y4744637D01*
X2100016D01*
X2199984D02*
X2159997D01*
Y4714647D01*
X2179991Y4724644D01*
X2189987D01*
X2199984Y4714647D01*
Y4694654D01*
X2189987Y4684657D01*
X2169994D01*
X2159997Y4694654D01*
X4110016Y4744637D02*
Y4684657D01*
X4140007D01*
X4150003Y4694654D01*
Y4734641D01*
X4140007Y4744637D01*
X4110016D01*
X4209984D02*
X4189991Y4734641D01*
X4169997Y4714647D01*
Y4694654D01*
X4179994Y4684657D01*
X4199987D01*
X4209984Y4694654D01*
Y4704650D01*
X4199987Y4714647D01*
X4169997D01*
X4239990Y650026D02*
X4180009D01*
Y680016D01*
X4190006Y690013D01*
X4210000D01*
X4219996Y680016D01*
Y650026D01*
Y670019D02*
X4239990Y690013D01*
X4190006Y710006D02*
X4180009Y720003D01*
Y739997D01*
X4190006Y749993D01*
X4200003D01*
X4210000Y739997D01*
X4219996Y749993D01*
X4229993D01*
X4239990Y739997D01*
Y720003D01*
X4229993Y710006D01*
X4219996D01*
X4210000Y720003D01*
X4200003Y710006D01*
X4190006D01*
X4210000Y720003D02*
Y739997D01*
X4180009Y769987D02*
Y809974D01*
X4190006D01*
X4229993Y769987D01*
X4239990D01*
X4349990Y651026D02*
X4290010D01*
Y681016D01*
X4300007Y691013D01*
X4320000D01*
X4329997Y681016D01*
Y651026D01*
Y671020D02*
X4349990Y691013D01*
X4300007Y711007D02*
X4290010Y721003D01*
Y740997D01*
X4300007Y750994D01*
X4310003D01*
X4320000Y740997D01*
X4329997Y750994D01*
X4339994D01*
X4349990Y740997D01*
Y721003D01*
X4339994Y711007D01*
X4329997D01*
X4320000Y721003D01*
X4310003Y711007D01*
X4300007D01*
X4320000Y721003D02*
Y740997D01*
X4300007Y770987D02*
X4290010Y780984D01*
Y800978D01*
X4300007Y810974D01*
X4310003D01*
X4320000Y800978D01*
X4329997Y810974D01*
X4339994D01*
X4349990Y800978D01*
Y780984D01*
X4339994Y770987D01*
X4329997D01*
X4320000Y780984D01*
X4310003Y770987D01*
X4300007D01*
X4320000Y780984D02*
Y800978D01*
X3830026Y1220010D02*
Y1279990D01*
X3860016D01*
X3870013Y1269993D01*
Y1250000D01*
X3860016Y1240003D01*
X3830026D01*
X3850020D02*
X3870013Y1220010D01*
X3890007Y1269993D02*
X3900003Y1279990D01*
X3919997D01*
X3929994Y1269993D01*
Y1259997D01*
X3919997Y1250000D01*
X3929994Y1240003D01*
Y1230006D01*
X3919997Y1220010D01*
X3900003D01*
X3890007Y1230006D01*
Y1240003D01*
X3900003Y1250000D01*
X3890007Y1259997D01*
Y1269993D01*
X3900003Y1250000D02*
X3919997D01*
X3949987Y1230006D02*
X3959984Y1220010D01*
X3979978D01*
X3989974Y1230006D01*
Y1269993D01*
X3979978Y1279990D01*
X3959984D01*
X3949987Y1269993D01*
Y1259997D01*
X3959984Y1250000D01*
X3989974D01*
X3230026Y1330010D02*
Y1389991D01*
X3260017D01*
X3270013Y1379994D01*
Y1360000D01*
X3260017Y1350004D01*
X3230026D01*
X3250020D02*
X3270013Y1330010D01*
X3290007Y1340007D02*
X3300004Y1330010D01*
X3319997D01*
X3329994Y1340007D01*
Y1379994D01*
X3319997Y1389991D01*
X3300004D01*
X3290007Y1379994D01*
Y1369997D01*
X3300004Y1360000D01*
X3329994D01*
X3389974Y1389991D02*
X3369981Y1379994D01*
X3349987Y1360000D01*
Y1340007D01*
X3359984Y1330010D01*
X3379978D01*
X3389974Y1340007D01*
Y1350004D01*
X3379978Y1360000D01*
X3349987D01*
X2849990Y4660023D02*
X2790010D01*
Y4690013D01*
X2800007Y4700010D01*
X2820000D01*
X2829997Y4690013D01*
Y4660023D01*
Y4680016D02*
X2849990Y4700010D01*
X2839994Y4720003D02*
X2849990Y4730000D01*
Y4749994D01*
X2839994Y4759990D01*
X2800007D01*
X2790010Y4749994D01*
Y4730000D01*
X2800007Y4720003D01*
X2810003D01*
X2820000Y4730000D01*
Y4759990D01*
X2849990Y4779984D02*
Y4799977D01*
Y4789981D01*
X2790010D01*
X2800007Y4779984D01*
X4869991Y4650026D02*
X4810010D01*
Y4680016D01*
X4820007Y4690013D01*
X4840000D01*
X4849997Y4680016D01*
Y4650026D01*
Y4670020D02*
X4869991Y4690013D01*
X4859994Y4710007D02*
X4869991Y4720003D01*
Y4739997D01*
X4859994Y4749994D01*
X4820007D01*
X4810010Y4739997D01*
Y4720003D01*
X4820007Y4710007D01*
X4830004D01*
X4840000Y4720003D01*
Y4749994D01*
X4869991Y4809974D02*
Y4769987D01*
X4830004Y4809974D01*
X4820007D01*
X4810010Y4799977D01*
Y4779984D01*
X4820007Y4769987D01*
X3533946Y1269990D02*
Y1220006D01*
X3543943Y1210010D01*
X3563936D01*
X3573933Y1220006D01*
Y1269990D01*
X3593927Y1210010D02*
X3613920D01*
X3603923D01*
Y1269990D01*
X3593927Y1259993D01*
X3643910Y1269990D02*
X3683897D01*
Y1259993D01*
X3643910Y1220006D01*
Y1210010D01*
X5870007Y2745012D02*
X5860010Y2735015D01*
Y2715021D01*
X5870007Y2705025D01*
X5909994D01*
X5919990Y2715021D01*
Y2735015D01*
X5909994Y2745012D01*
X5919990Y2765005D02*
Y2784999D01*
Y2775002D01*
X5860010D01*
X5870007Y2765005D01*
X5919990Y2844979D02*
X5860010D01*
X5890000Y2814989D01*
Y2854976D01*
X2360010Y4150017D02*
X2419990D01*
Y4190004D01*
X2370007Y4209997D02*
X2360010Y4219994D01*
Y4239987D01*
X2370007Y4249984D01*
X2380003D01*
X2390000Y4239987D01*
X2399997Y4249984D01*
X2409994D01*
X2419990Y4239987D01*
Y4219994D01*
X2409994Y4209997D01*
X2399997D01*
X2390000Y4219994D01*
X2380003Y4209997D01*
X2370007D01*
X2390000Y4219994D02*
Y4239987D01*
X3570048Y2060013D02*
X3560051Y2050016D01*
Y2030023D01*
X3570048Y2020026D01*
X3610035D01*
X3620031Y2030023D01*
Y2050016D01*
X3610035Y2060013D01*
X3570048Y2080007D02*
X3560051Y2090003D01*
Y2109997D01*
X3570048Y2119994D01*
X3580044D01*
X3590041Y2109997D01*
X3600038Y2119994D01*
X3610035D01*
X3620031Y2109997D01*
Y2090003D01*
X3610035Y2080007D01*
X3600038D01*
X3590041Y2090003D01*
X3580044Y2080007D01*
X3570048D01*
X3590041Y2090003D02*
Y2109997D01*
X3560051Y2179974D02*
Y2139987D01*
X3590041D01*
X3580044Y2159981D01*
Y2169978D01*
X3590041Y2179974D01*
X3610035D01*
X3620031Y2169978D01*
Y2149984D01*
X3610035Y2139987D01*
X4259965Y1920013D02*
X4249968Y1910016D01*
Y1890023D01*
X4259965Y1880026D01*
X4299952D01*
X4309949Y1890023D01*
Y1910016D01*
X4299952Y1920013D01*
X4259965Y1940007D02*
X4249968Y1950003D01*
Y1969997D01*
X4259965Y1979994D01*
X4269962D01*
X4279959Y1969997D01*
X4289955Y1979994D01*
X4299952D01*
X4309949Y1969997D01*
Y1950003D01*
X4299952Y1940007D01*
X4289955D01*
X4279959Y1950003D01*
X4269962Y1940007D01*
X4259965D01*
X4279959Y1950003D02*
Y1969997D01*
X4249968Y2039974D02*
X4259965Y2019981D01*
X4279959Y1999987D01*
X4299952D01*
X4309949Y2009984D01*
Y2029977D01*
X4299952Y2039974D01*
X4289955D01*
X4279959Y2029977D01*
Y1999987D01*
X3460013Y1949993D02*
X3450016Y1959990D01*
X3430023D01*
X3420026Y1949993D01*
Y1910006D01*
X3430023Y1900010D01*
X3450016D01*
X3460013Y1910006D01*
X3480007D02*
X3490003Y1900010D01*
X3509997D01*
X3519994Y1910006D01*
Y1949993D01*
X3509997Y1959990D01*
X3490003D01*
X3480007Y1949993D01*
Y1939997D01*
X3490003Y1930000D01*
X3519994D01*
X3539987Y1949993D02*
X3549984Y1959990D01*
X3569978D01*
X3579974Y1949993D01*
Y1910006D01*
X3569978Y1900010D01*
X3549984D01*
X3539987Y1910006D01*
Y1949993D01*
X4040013Y1939993D02*
X4030017Y1949990D01*
X4010023D01*
X4000026Y1939993D01*
Y1900006D01*
X4010023Y1890010D01*
X4030017D01*
X4040013Y1900006D01*
X4060007Y1939993D02*
X4070004Y1949990D01*
X4089997D01*
X4099994Y1939993D01*
Y1929997D01*
X4089997Y1920000D01*
X4099994Y1910003D01*
Y1900006D01*
X4089997Y1890010D01*
X4070004D01*
X4060007Y1900006D01*
Y1910003D01*
X4070004Y1920000D01*
X4060007Y1929997D01*
Y1939993D01*
X4070004Y1920000D02*
X4089997D01*
X4119987Y1949990D02*
X4159974D01*
Y1939993D01*
X4119987Y1900006D01*
Y1890010D01*
X2430010Y3210035D02*
X2420013Y3220032D01*
X2400020D01*
X2390023Y3210035D01*
Y3170048D01*
X2400020Y3160051D01*
X2420013D01*
X2430010Y3170048D01*
X2450003D02*
X2460000Y3160051D01*
X2479994D01*
X2489990Y3170048D01*
Y3210035D01*
X2479994Y3220032D01*
X2460000D01*
X2450003Y3210035D01*
Y3200038D01*
X2460000Y3190041D01*
X2489990D01*
X2509984Y3160051D02*
X2529978D01*
X2519981D01*
Y3220032D01*
X2509984Y3210035D01*
X2340013Y2939993D02*
X2330016Y2949990D01*
X2310023D01*
X2300026Y2939993D01*
Y2900006D01*
X2310023Y2890010D01*
X2330016D01*
X2340013Y2900006D01*
X2360007D02*
X2370003Y2890010D01*
X2389997D01*
X2399994Y2900006D01*
Y2939993D01*
X2389997Y2949990D01*
X2370003D01*
X2360007Y2939993D01*
Y2929997D01*
X2370003Y2920000D01*
X2399994D01*
X2459974Y2890010D02*
X2419987D01*
X2459974Y2929997D01*
Y2939993D01*
X2449978Y2949990D01*
X2429984D01*
X2419987Y2939993D01*
X3570047Y2260013D02*
X3560051Y2250016D01*
Y2230022D01*
X3570047Y2220026D01*
X3610034D01*
X3620031Y2230022D01*
Y2250016D01*
X3610034Y2260013D01*
Y2280006D02*
X3620031Y2290003D01*
Y2309997D01*
X3610034Y2319993D01*
X3570047D01*
X3560051Y2309997D01*
Y2290003D01*
X3570047Y2280006D01*
X3580044D01*
X3590041Y2290003D01*
Y2319993D01*
X3570047Y2339987D02*
X3560051Y2349984D01*
Y2369977D01*
X3570047Y2379974D01*
X3580044D01*
X3590041Y2369977D01*
Y2359981D01*
Y2369977D01*
X3600038Y2379974D01*
X3610034D01*
X3620031Y2369977D01*
Y2349984D01*
X3610034Y2339987D01*
X2960016Y4409993D02*
X2950020Y4419990D01*
X2930026D01*
X2920029Y4409993D01*
Y4370006D01*
X2930026Y4360010D01*
X2950020D01*
X2960016Y4370006D01*
X2980010Y4360010D02*
X3000004D01*
X2990007D01*
Y4419990D01*
X2980010Y4409993D01*
X3029994Y4360010D02*
X3049987D01*
X3039990D01*
Y4419990D01*
X3029994Y4409993D01*
X3079977Y4360010D02*
X3099971D01*
X3089974D01*
Y4419990D01*
X3079977Y4409993D01*
X3390006Y2190013D02*
X3380009Y2180016D01*
Y2160023D01*
X3390006Y2150026D01*
X3429993D01*
X3439990Y2160023D01*
Y2180016D01*
X3429993Y2190013D01*
X3390006Y2210007D02*
X3380009Y2220003D01*
Y2239997D01*
X3390006Y2249993D01*
X3400003D01*
X3410000Y2239997D01*
X3419996Y2249993D01*
X3429993D01*
X3439990Y2239997D01*
Y2220003D01*
X3429993Y2210007D01*
X3419996D01*
X3410000Y2220003D01*
X3400003Y2210007D01*
X3390006D01*
X3410000Y2220003D02*
Y2239997D01*
X3390006Y2269987D02*
X3380009Y2279984D01*
Y2299977D01*
X3390006Y2309974D01*
X3400003D01*
X3410000Y2299977D01*
Y2289981D01*
Y2299977D01*
X3419996Y2309974D01*
X3429993D01*
X3439990Y2299977D01*
Y2279984D01*
X3429993Y2269987D01*
X3060010Y3060035D02*
X3050013Y3070032D01*
X3030020D01*
X3020023Y3060035D01*
Y3020048D01*
X3030020Y3010051D01*
X3050013D01*
X3060010Y3020048D01*
X3080003Y3060035D02*
X3090000Y3070032D01*
X3109994D01*
X3119990Y3060035D01*
Y3050038D01*
X3109994Y3040041D01*
X3119990Y3030045D01*
Y3020048D01*
X3109994Y3010051D01*
X3090000D01*
X3080003Y3020048D01*
Y3030045D01*
X3090000Y3040041D01*
X3080003Y3050038D01*
Y3060035D01*
X3090000Y3040041D02*
X3109994D01*
X3139984Y3010051D02*
X3159978D01*
X3149981D01*
Y3070032D01*
X3139984Y3060035D01*
X3006271Y2947843D02*
Y2887863D01*
X3036262D01*
X3046258Y2897859D01*
Y2937846D01*
X3036262Y2947843D01*
X3006271D01*
X3066252Y2887863D02*
X3086246D01*
X3076249D01*
Y2947843D01*
X3066252Y2937846D01*
X3116236Y2887863D02*
X3136229D01*
X3126232D01*
Y2947843D01*
X3116236Y2937846D01*
X2366275Y3097843D02*
Y3037863D01*
X2396265D01*
X2406262Y3047859D01*
Y3087846D01*
X2396265Y3097843D01*
X2366275D01*
X2426255Y3037863D02*
X2446249D01*
X2436252D01*
Y3097843D01*
X2426255Y3087846D01*
X2516226Y3037863D02*
X2476239D01*
X2516226Y3077850D01*
Y3087846D01*
X2506229Y3097843D01*
X2486236D01*
X2476239Y3087846D01*
X2690016Y2859990D02*
Y2800010D01*
X2730003D01*
X2789984Y2859990D02*
X2749997D01*
Y2830000D01*
X2769991Y2839997D01*
X2779987D01*
X2789984Y2830000D01*
Y2810006D01*
X2779987Y2800010D01*
X2759994D01*
X2749997Y2810006D01*
X5599990Y650026D02*
X5540009D01*
Y680016D01*
X5550006Y690013D01*
X5570000D01*
X5579996Y680016D01*
Y650026D01*
Y670019D02*
X5599990Y690013D01*
X5540009Y710006D02*
Y749993D01*
X5550006D01*
X5589993Y710006D01*
X5599990D01*
X5540009Y809974D02*
X5550006Y789981D01*
X5570000Y769987D01*
X5589993D01*
X5599990Y779984D01*
Y799977D01*
X5589993Y809974D01*
X5579996D01*
X5570000Y799977D01*
Y769987D01*
X3489990Y750026D02*
X3430010D01*
Y780016D01*
X3440007Y790013D01*
X3460000D01*
X3469997Y780016D01*
Y750026D01*
Y770020D02*
X3489990Y790013D01*
X3479994Y810007D02*
X3489990Y820003D01*
Y839997D01*
X3479994Y849994D01*
X3440007D01*
X3430010Y839997D01*
Y820003D01*
X3440007Y810007D01*
X3450003D01*
X3460000Y820003D01*
Y849994D01*
X3440007Y869987D02*
X3430010Y879984D01*
Y899978D01*
X3440007Y909974D01*
X3450003D01*
X3460000Y899978D01*
X3469997Y909974D01*
X3479994D01*
X3489990Y899978D01*
Y879984D01*
X3479994Y869987D01*
X3469997D01*
X3460000Y879984D01*
X3450003Y869987D01*
X3440007D01*
X3460000Y879984D02*
Y899978D01*
X3069991Y3105034D02*
X3010010D01*
Y3135025D01*
X3020007Y3145021D01*
X3040000D01*
X3049997Y3135025D01*
Y3105034D01*
Y3125028D02*
X3069991Y3145021D01*
Y3165015D02*
Y3185009D01*
Y3175012D01*
X3010010D01*
X3020007Y3165015D01*
Y3214999D02*
X3010010Y3224995D01*
Y3244989D01*
X3020007Y3254986D01*
X3059994D01*
X3069991Y3244989D01*
Y3224995D01*
X3059994Y3214999D01*
X3020007D01*
X3010010Y3314966D02*
Y3274979D01*
X3040000D01*
X3030004Y3294973D01*
Y3304970D01*
X3040000Y3314966D01*
X3059994D01*
X3069991Y3304970D01*
Y3284976D01*
X3059994Y3274979D01*
X2849990Y660026D02*
X2790010D01*
Y690016D01*
X2800007Y700013D01*
X2820000D01*
X2829997Y690016D01*
Y660026D01*
Y680019D02*
X2849990Y700013D01*
X2839994Y720006D02*
X2849990Y730003D01*
Y749997D01*
X2839994Y759993D01*
X2800007D01*
X2790010Y749997D01*
Y730003D01*
X2800007Y720006D01*
X2810003D01*
X2820000Y730003D01*
Y759993D01*
X2839994Y779987D02*
X2849990Y789984D01*
Y809977D01*
X2839994Y819974D01*
X2800007D01*
X2790010Y809977D01*
Y789984D01*
X2800007Y779987D01*
X2810003D01*
X2820000Y789984D01*
Y819974D01*
X3169990Y3105034D02*
X3110010D01*
Y3135025D01*
X3120007Y3145021D01*
X3140000D01*
X3149997Y3135025D01*
Y3105034D01*
Y3125028D02*
X3169990Y3145021D01*
Y3165015D02*
Y3185009D01*
Y3175012D01*
X3110010D01*
X3120007Y3165015D01*
Y3214999D02*
X3110010Y3224995D01*
Y3244989D01*
X3120007Y3254986D01*
X3159994D01*
X3169990Y3244989D01*
Y3224995D01*
X3159994Y3214999D01*
X3120007D01*
X3169990Y3304970D02*
X3110010D01*
X3140000Y3274979D01*
Y3314966D01*
X1940010Y1480016D02*
Y1520003D01*
Y1500010D01*
X1999990D01*
Y1579984D02*
Y1539997D01*
X1960003Y1579984D01*
X1950007D01*
X1940010Y1569987D01*
Y1549994D01*
X1950007Y1539997D01*
X3855025Y2179991D02*
Y2130007D01*
X3865022Y2120010D01*
X3885016D01*
X3895012Y2130007D01*
Y2179991D01*
X3915006Y2120010D02*
X3934999D01*
X3925003D01*
Y2179991D01*
X3915006Y2169994D01*
X3964990Y2130007D02*
X3974986Y2120010D01*
X3994980D01*
X4004976Y2130007D01*
Y2169994D01*
X3994980Y2179991D01*
X3974986D01*
X3964990Y2169994D01*
Y2159997D01*
X3974986Y2150001D01*
X4004976D01*
X2700027Y3192491D02*
Y3142507D01*
X2710023Y3132510D01*
X2730017D01*
X2740014Y3142507D01*
Y3192491D01*
X2799994Y3132510D02*
X2760007D01*
X2799994Y3172497D01*
Y3182494D01*
X2789997Y3192491D01*
X2770004D01*
X2760007Y3182494D01*
X2819988D02*
X2829984Y3192491D01*
X2849978D01*
X2859975Y3182494D01*
Y3142507D01*
X2849978Y3132510D01*
X2829984D01*
X2819988Y3142507D01*
Y3182494D01*
X3313774Y1042137D02*
Y982157D01*
X3343765D01*
X3353761Y992153D01*
Y1032140D01*
X3343765Y1042137D01*
X3313774D01*
X3373755Y982157D02*
X3393749D01*
X3383752D01*
Y1042137D01*
X3373755Y1032140D01*
X3453729Y982157D02*
Y1042137D01*
X3423739Y1012147D01*
X3463726D01*
X2739990Y645031D02*
X2680010D01*
Y675021D01*
X2690007Y685018D01*
X2710000D01*
X2719997Y675021D01*
Y645031D01*
Y665025D02*
X2739990Y685018D01*
Y705012D02*
Y725005D01*
Y715008D01*
X2680010D01*
X2690007Y705012D01*
Y754995D02*
X2680010Y764992D01*
Y784985D01*
X2690007Y794982D01*
X2729994D01*
X2739990Y784985D01*
Y764992D01*
X2729994Y754995D01*
X2690007D01*
X2739990Y814976D02*
Y834969D01*
Y824972D01*
X2680010D01*
X2690007Y814976D01*
X3459990Y4625034D02*
X3400009D01*
Y4655024D01*
X3410006Y4665021D01*
X3430000D01*
X3439996Y4655024D01*
Y4625034D01*
Y4645028D02*
X3459990Y4665021D01*
Y4685015D02*
Y4705008D01*
Y4695011D01*
X3400009D01*
X3410006Y4685015D01*
Y4734998D02*
X3400009Y4744995D01*
Y4764988D01*
X3410006Y4774985D01*
X3449993D01*
X3459990Y4764988D01*
Y4744995D01*
X3449993Y4734998D01*
X3410006D01*
Y4794979D02*
X3400009Y4804975D01*
Y4824969D01*
X3410006Y4834966D01*
X3420003D01*
X3430000Y4824969D01*
Y4814972D01*
Y4824969D01*
X3439996Y4834966D01*
X3449993D01*
X3459990Y4824969D01*
Y4804975D01*
X3449993Y4794979D01*
X5745025Y3710010D02*
Y3769990D01*
X5775015D01*
X5785012Y3759993D01*
Y3740000D01*
X5775015Y3730003D01*
X5745025D01*
X5765018D02*
X5785012Y3710010D01*
X5805005D02*
X5824999D01*
X5815002D01*
Y3769990D01*
X5805005Y3759993D01*
X5894976Y3710010D02*
X5854989D01*
X5894976Y3749997D01*
Y3759993D01*
X5884979Y3769990D01*
X5864986D01*
X5854989Y3759993D01*
X3640013Y834990D02*
X3680000D01*
X3660007D01*
Y775009D01*
X3699994D02*
X3719987D01*
X3709990D01*
Y834990D01*
X3699994Y824993D01*
X2995024Y837490D02*
Y787506D01*
X3005021Y777509D01*
X3025015D01*
X3035011Y787506D01*
Y837490D01*
X3055005Y777509D02*
X3074999D01*
X3065002D01*
Y837490D01*
X3055005Y827493D01*
X3104989D02*
X3114985Y837490D01*
X3134979D01*
X3144976Y827493D01*
Y817496D01*
X3134979Y807500D01*
X3144976Y797503D01*
Y787506D01*
X3134979Y777509D01*
X3114985D01*
X3104989Y787506D01*
Y797503D01*
X3114985Y807500D01*
X3104989Y817496D01*
Y827493D01*
X3114985Y807500D02*
X3134979D01*
X1399657Y519647D02*
Y499654D01*
Y509651D01*
X1449640D01*
X1459637Y499654D01*
Y489657D01*
X1449640Y479660D01*
X1459637Y539641D02*
Y559635D01*
Y549638D01*
X1399657D01*
X1409654Y539641D01*
X2360010Y3730016D02*
X2419990D01*
Y3770003D01*
X2409993Y3789997D02*
X2419990Y3799994D01*
Y3819987D01*
X2409993Y3829984D01*
X2370006D01*
X2360010Y3819987D01*
Y3799994D01*
X2370006Y3789997D01*
X2380003D01*
X2390000Y3799994D01*
Y3829984D01*
X2855025Y3709990D02*
Y3650010D01*
X2895011D01*
X2915005D02*
X2934999D01*
X2925002D01*
Y3709990D01*
X2915005Y3699993D01*
X3004976Y3650010D02*
X2964989D01*
X3004976Y3689997D01*
Y3699993D01*
X2994979Y3709990D01*
X2974985D01*
X2964989Y3699993D01*
X1363766Y1420010D02*
Y1479990D01*
X1393757D01*
X1403753Y1469993D01*
Y1450000D01*
X1393757Y1440003D01*
X1363766D01*
X1463734Y1420010D02*
X1423747D01*
X1463734Y1459997D01*
Y1469993D01*
X1453737Y1479990D01*
X1433744D01*
X1423747Y1469993D01*
X8286740Y4020024D02*
X8226760D01*
Y4050015D01*
X8236756Y4060011D01*
X8256750D01*
X8266746Y4050015D01*
Y4020024D01*
X8286740Y4080005D02*
Y4099999D01*
Y4090002D01*
X8226760D01*
X8236756Y4080005D01*
Y4129989D02*
X8226760Y4139985D01*
Y4159979D01*
X8236756Y4169976D01*
X8276743D01*
X8286740Y4159979D01*
Y4139985D01*
X8276743Y4129989D01*
X8236756D01*
X8286740Y1300021D02*
X8226759D01*
Y1330011D01*
X8236756Y1340008D01*
X8256750D01*
X8266746Y1330011D01*
Y1300021D01*
X8286740Y1360002D02*
Y1379995D01*
Y1369998D01*
X8226759D01*
X8236756Y1360002D01*
X8286740Y1409985D02*
Y1429979D01*
Y1419982D01*
X8226759D01*
X8236756Y1409985D01*
X3339990Y4650026D02*
X3280010D01*
Y4680016D01*
X3290007Y4690013D01*
X3310000D01*
X3319997Y4680016D01*
Y4650026D01*
Y4670020D02*
X3339990Y4690013D01*
X3280010Y4749994D02*
Y4710007D01*
X3310000D01*
X3300003Y4730000D01*
Y4739997D01*
X3310000Y4749994D01*
X3329994D01*
X3339990Y4739997D01*
Y4720003D01*
X3329994Y4710007D01*
Y4769987D02*
X3339990Y4779984D01*
Y4799977D01*
X3329994Y4809974D01*
X3290007D01*
X3280010Y4799977D01*
Y4779984D01*
X3290007Y4769987D01*
X3300003D01*
X3310000Y4779984D01*
Y4809974D01*
X1830026Y1160010D02*
Y1219990D01*
X1860016D01*
X1870013Y1209994D01*
Y1190000D01*
X1860016Y1180003D01*
X1830026D01*
X1850020D02*
X1870013Y1160010D01*
X1890007Y1170007D02*
X1900003Y1160010D01*
X1919997D01*
X1929994Y1170007D01*
Y1209994D01*
X1919997Y1219990D01*
X1900003D01*
X1890007Y1209994D01*
Y1199997D01*
X1900003Y1190000D01*
X1929994D01*
X1949987Y1219990D02*
X1989974D01*
Y1209994D01*
X1949987Y1170007D01*
Y1160010D01*
X1805034Y1730010D02*
Y1789990D01*
X1835024D01*
X1845021Y1779993D01*
Y1760000D01*
X1835024Y1750003D01*
X1805034D01*
X1825028D02*
X1845021Y1730010D01*
X1865015D02*
X1885008D01*
X1875011D01*
Y1789990D01*
X1865015Y1779993D01*
X1914998D02*
X1924995Y1789990D01*
X1944988D01*
X1954985Y1779993D01*
Y1740006D01*
X1944988Y1730010D01*
X1924995D01*
X1914998Y1740006D01*
Y1779993D01*
X1974979D02*
X1984975Y1789990D01*
X2004969D01*
X2014966Y1779993D01*
Y1740006D01*
X2004969Y1730010D01*
X1984975D01*
X1974979Y1740006D01*
Y1779993D01*
X1805034Y1270010D02*
Y1329990D01*
X1835025D01*
X1845021Y1319993D01*
Y1300000D01*
X1835025Y1290003D01*
X1805034D01*
X1825028D02*
X1845021Y1270010D01*
X1865015D02*
X1885008D01*
X1875011D01*
Y1329990D01*
X1865015Y1319993D01*
X1914998D02*
X1924995Y1329990D01*
X1944989D01*
X1954985Y1319993D01*
Y1280006D01*
X1944989Y1270010D01*
X1924995D01*
X1914998Y1280006D01*
Y1319993D01*
X2014966Y1270010D02*
X1974979D01*
X2014966Y1309997D01*
Y1319993D01*
X2004969Y1329990D01*
X1984976D01*
X1974979Y1319993D01*
X6570026Y2000010D02*
Y2059991D01*
X6600017D01*
X6610013Y2049994D01*
Y2030001D01*
X6600017Y2020004D01*
X6570026D01*
X6590020D02*
X6610013Y2000010D01*
X6630007Y2049994D02*
X6640004Y2059991D01*
X6659997D01*
X6669994Y2049994D01*
Y2039997D01*
X6659997Y2030001D01*
X6650001D01*
X6659997D01*
X6669994Y2020004D01*
Y2010007D01*
X6659997Y2000010D01*
X6640004D01*
X6630007Y2010007D01*
X6719978Y2000010D02*
Y2059991D01*
X6689988Y2030001D01*
X6729975D01*
X7169990Y1910026D02*
X7110010D01*
Y1940016D01*
X7120007Y1950013D01*
X7140000D01*
X7149997Y1940016D01*
Y1910026D01*
Y1930020D02*
X7169990Y1950013D01*
X7120007Y1970007D02*
X7110010Y1980003D01*
Y1999997D01*
X7120007Y2009994D01*
X7130003D01*
X7140000Y1999997D01*
Y1990000D01*
Y1999997D01*
X7149997Y2009994D01*
X7159994D01*
X7169990Y1999997D01*
Y1980003D01*
X7159994Y1970007D01*
X7110010Y2029987D02*
Y2069974D01*
X7120007D01*
X7159994Y2029987D01*
X7169990D01*
X5929990Y2030027D02*
X5870009D01*
Y2060017D01*
X5880006Y2070014D01*
X5900000D01*
X5909996Y2060017D01*
Y2030027D01*
Y2050020D02*
X5929990Y2070014D01*
X5880006Y2090007D02*
X5870009Y2100004D01*
Y2119998D01*
X5880006Y2129994D01*
X5890003D01*
X5900000Y2119998D01*
Y2110001D01*
Y2119998D01*
X5909996Y2129994D01*
X5919993D01*
X5929990Y2119998D01*
Y2100004D01*
X5919993Y2090007D01*
Y2149988D02*
X5929990Y2159985D01*
Y2179978D01*
X5919993Y2189975D01*
X5880006D01*
X5870009Y2179978D01*
Y2159985D01*
X5880006Y2149988D01*
X5890003D01*
X5900000Y2159985D01*
Y2189975D01*
X6289990Y1110026D02*
X6230009D01*
Y1140016D01*
X6240006Y1150013D01*
X6259999D01*
X6269996Y1140016D01*
Y1110026D01*
Y1130020D02*
X6289990Y1150013D01*
Y1199997D02*
X6230009D01*
X6259999Y1170007D01*
Y1209994D01*
X6230009Y1269974D02*
Y1229987D01*
X6259999D01*
X6250003Y1249981D01*
Y1259977D01*
X6259999Y1269974D01*
X6279993D01*
X6289990Y1259977D01*
Y1239984D01*
X6279993Y1229987D01*
X6750026Y1420010D02*
Y1479990D01*
X6780016D01*
X6790013Y1469994D01*
Y1450000D01*
X6780016Y1440003D01*
X6750026D01*
X6770020D02*
X6790013Y1420010D01*
X6839997D02*
Y1479990D01*
X6810007Y1450000D01*
X6849994D01*
X6869987Y1479990D02*
X6909974D01*
Y1469994D01*
X6869987Y1430007D01*
Y1420010D01*
X7349990Y960026D02*
X7290010D01*
Y990016D01*
X7300007Y1000013D01*
X7320000D01*
X7329997Y990016D01*
Y960026D01*
Y980019D02*
X7349990Y1000013D01*
Y1049997D02*
X7290010D01*
X7320000Y1020006D01*
Y1059993D01*
X7339994Y1079987D02*
X7349990Y1089984D01*
Y1109977D01*
X7339994Y1119974D01*
X7300007D01*
X7290010Y1109977D01*
Y1089984D01*
X7300007Y1079987D01*
X7310003D01*
X7320000Y1089984D01*
Y1119974D01*
X7200023Y1320010D02*
Y1379990D01*
X7230013D01*
X7240010Y1369993D01*
Y1350000D01*
X7230013Y1340003D01*
X7200023D01*
X7220017D02*
X7240010Y1320010D01*
X7299990Y1379990D02*
X7260004D01*
Y1350000D01*
X7279997Y1359997D01*
X7289994D01*
X7299990Y1350000D01*
Y1330006D01*
X7289994Y1320010D01*
X7270000D01*
X7260004Y1330006D01*
X7319984Y1320010D02*
X7339978D01*
X7329981D01*
Y1379990D01*
X7319984Y1369993D01*
X7190026Y3020009D02*
Y3079990D01*
X7220016D01*
X7230013Y3069993D01*
Y3050000D01*
X7220016Y3040003D01*
X7190026D01*
X7210020D02*
X7230013Y3020009D01*
X7289994Y3079990D02*
X7250007D01*
Y3050000D01*
X7270000Y3059996D01*
X7279997D01*
X7289994Y3050000D01*
Y3030006D01*
X7279997Y3020009D01*
X7260003D01*
X7250007Y3030006D01*
X7309987Y3069993D02*
X7319984Y3079990D01*
X7339977D01*
X7349974Y3069993D01*
Y3059996D01*
X7339977Y3050000D01*
X7349974Y3040003D01*
Y3030006D01*
X7339977Y3020009D01*
X7319984D01*
X7309987Y3030006D01*
Y3040003D01*
X7319984Y3050000D01*
X7309987Y3059996D01*
Y3069993D01*
X7319984Y3050000D02*
X7339977D01*
X7169990Y2350026D02*
X7110010D01*
Y2380016D01*
X7120007Y2390013D01*
X7140000D01*
X7149997Y2380016D01*
Y2350026D01*
Y2370020D02*
X7169990Y2390013D01*
X7120007Y2410007D02*
X7110010Y2420003D01*
Y2439997D01*
X7120007Y2449994D01*
X7130003D01*
X7140000Y2439997D01*
Y2430000D01*
Y2439997D01*
X7149997Y2449994D01*
X7159994D01*
X7169990Y2439997D01*
Y2420003D01*
X7159994Y2410007D01*
X7120007Y2469987D02*
X7110010Y2479984D01*
Y2499977D01*
X7120007Y2509974D01*
X7130003D01*
X7140000Y2499977D01*
Y2489981D01*
Y2499977D01*
X7149997Y2509974D01*
X7159994D01*
X7169990Y2499977D01*
Y2479984D01*
X7159994Y2469987D01*
X5420026Y2180010D02*
Y2239991D01*
X5450017D01*
X5460013Y2229994D01*
Y2210000D01*
X5450017Y2200004D01*
X5420026D01*
X5440020D02*
X5460013Y2180010D01*
X5480007Y2229994D02*
X5490003Y2239991D01*
X5509997D01*
X5519994Y2229994D01*
Y2219997D01*
X5509997Y2210000D01*
X5500000D01*
X5509997D01*
X5519994Y2200004D01*
Y2190007D01*
X5509997Y2180010D01*
X5490003D01*
X5480007Y2190007D01*
X5579974Y2239991D02*
X5559981Y2229994D01*
X5539987Y2210000D01*
Y2190007D01*
X5549984Y2180010D01*
X5569978D01*
X5579974Y2190007D01*
Y2200004D01*
X5569978Y2210000D01*
X5539987D01*
X6029990Y2230027D02*
X5970009D01*
Y2260017D01*
X5980006Y2270014D01*
X6000000D01*
X6009996Y2260017D01*
Y2230027D01*
Y2250020D02*
X6029990Y2270014D01*
X5980006Y2290007D02*
X5970009Y2300004D01*
Y2319998D01*
X5980006Y2329994D01*
X5990003D01*
X6000000Y2319998D01*
Y2310001D01*
Y2319998D01*
X6009996Y2329994D01*
X6019993D01*
X6029990Y2319998D01*
Y2300004D01*
X6019993Y2290007D01*
X5980006Y2349988D02*
X5970009Y2359985D01*
Y2379978D01*
X5980006Y2389975D01*
X5990003D01*
X6000000Y2379978D01*
X6009996Y2389975D01*
X6019993D01*
X6029990Y2379978D01*
Y2359985D01*
X6019993Y2349988D01*
X6009996D01*
X6000000Y2359985D01*
X5990003Y2349988D01*
X5980006D01*
X6000000Y2359985D02*
Y2379978D01*
X6029990Y2030027D02*
X5970009D01*
Y2060017D01*
X5980006Y2070014D01*
X6000000D01*
X6009996Y2060017D01*
Y2030027D01*
Y2050020D02*
X6029990Y2070014D01*
Y2119998D02*
X5970009D01*
X6000000Y2090007D01*
Y2129994D01*
X5980006Y2149988D02*
X5970009Y2159985D01*
Y2179978D01*
X5980006Y2189975D01*
X6019993D01*
X6029990Y2179978D01*
Y2159985D01*
X6019993Y2149988D01*
X5980006D01*
X4650027Y1210010D02*
Y1269990D01*
X4680017D01*
X4690013Y1259993D01*
Y1240000D01*
X4680017Y1230003D01*
X4650027D01*
X4670020D02*
X4690013Y1210010D01*
X4739997D02*
Y1269990D01*
X4710007Y1240000D01*
X4749994D01*
X4799978Y1210010D02*
Y1269990D01*
X4769988Y1240000D01*
X4809975D01*
X4650027Y1110010D02*
Y1169990D01*
X4680017D01*
X4690013Y1159993D01*
Y1140000D01*
X4680017Y1130003D01*
X4650027D01*
X4670020D02*
X4690013Y1110010D01*
X4739997D02*
Y1169990D01*
X4710007Y1140000D01*
X4749994D01*
X4809975Y1169990D02*
X4789981Y1159993D01*
X4769988Y1140000D01*
Y1120006D01*
X4779984Y1110010D01*
X4799978D01*
X4809975Y1120006D01*
Y1130003D01*
X4799978Y1140000D01*
X4769988D01*
X6750026Y1080010D02*
Y1139990D01*
X6780016D01*
X6790013Y1129993D01*
Y1110000D01*
X6780016Y1100003D01*
X6750026D01*
X6770020D02*
X6790013Y1080010D01*
X6839997D02*
Y1139990D01*
X6810007Y1110000D01*
X6849994D01*
X6869987Y1129993D02*
X6879984Y1139990D01*
X6899978D01*
X6909974Y1129993D01*
Y1119997D01*
X6899978Y1110000D01*
X6909974Y1100003D01*
Y1090006D01*
X6899978Y1080010D01*
X6879984D01*
X6869987Y1090006D01*
Y1100003D01*
X6879984Y1110000D01*
X6869987Y1119997D01*
Y1129993D01*
X6879984Y1110000D02*
X6899978D01*
X6750026Y1320010D02*
Y1379990D01*
X6780016D01*
X6790013Y1369993D01*
Y1350000D01*
X6780016Y1340003D01*
X6750026D01*
X6770020D02*
X6790013Y1320010D01*
X6849994Y1379990D02*
X6810007D01*
Y1350000D01*
X6830000Y1359997D01*
X6839997D01*
X6849994Y1350000D01*
Y1330006D01*
X6839997Y1320010D01*
X6820003D01*
X6810007Y1330006D01*
X6869987Y1369993D02*
X6879984Y1379990D01*
X6899978D01*
X6909974Y1369993D01*
Y1330006D01*
X6899978Y1320010D01*
X6879984D01*
X6869987Y1330006D01*
Y1369993D01*
X6750026Y760010D02*
Y819990D01*
X6780016D01*
X6790013Y809993D01*
Y790000D01*
X6780016Y780003D01*
X6750026D01*
X6770020D02*
X6790013Y760010D01*
X6849994Y819990D02*
X6810007D01*
Y790000D01*
X6830000Y799997D01*
X6839997D01*
X6849994Y790000D01*
Y770006D01*
X6839997Y760010D01*
X6820003D01*
X6810007Y770006D01*
X6909974Y760010D02*
X6869987D01*
X6909974Y799997D01*
Y809993D01*
X6899978Y819990D01*
X6879984D01*
X6869987Y809993D01*
X8369990Y2740026D02*
X8310010D01*
Y2770016D01*
X8320006Y2780013D01*
X8340000D01*
X8349997Y2770016D01*
Y2740026D01*
Y2760019D02*
X8369990Y2780013D01*
X8310010Y2839993D02*
Y2800006D01*
X8340000D01*
X8330003Y2820000D01*
Y2829997D01*
X8340000Y2839993D01*
X8359993D01*
X8369990Y2829997D01*
Y2810003D01*
X8359993Y2800006D01*
X8310010Y2899974D02*
X8320006Y2879981D01*
X8340000Y2859987D01*
X8359993D01*
X8369990Y2869984D01*
Y2889977D01*
X8359993Y2899974D01*
X8349997D01*
X8340000Y2889977D01*
Y2859987D01*
X7999990Y2450026D02*
X7940010D01*
Y2480016D01*
X7950007Y2490013D01*
X7970000D01*
X7979997Y2480016D01*
Y2450026D01*
Y2470019D02*
X7999990Y2490013D01*
X7940010Y2549993D02*
Y2510006D01*
X7970000D01*
X7960003Y2530000D01*
Y2539997D01*
X7970000Y2549993D01*
X7989994D01*
X7999990Y2539997D01*
Y2520003D01*
X7989994Y2510006D01*
X7940010Y2569987D02*
Y2609974D01*
X7950007D01*
X7989994Y2569987D01*
X7999990D01*
X3469990Y3725034D02*
X3410009D01*
Y3755024D01*
X3420006Y3765021D01*
X3440000D01*
X3449996Y3755024D01*
Y3725034D01*
Y3745028D02*
X3469990Y3765021D01*
Y3785015D02*
Y3805008D01*
Y3795011D01*
X3410009D01*
X3420006Y3785015D01*
Y3834998D02*
X3410009Y3844995D01*
Y3864988D01*
X3420006Y3874985D01*
X3459993D01*
X3469990Y3864988D01*
Y3844995D01*
X3459993Y3834998D01*
X3420006D01*
Y3894979D02*
X3410009Y3904975D01*
Y3924969D01*
X3420006Y3934966D01*
X3430003D01*
X3440000Y3924969D01*
X3449996Y3934966D01*
X3459993D01*
X3469990Y3924969D01*
Y3904975D01*
X3459993Y3894979D01*
X3449996D01*
X3440000Y3904975D01*
X3430003Y3894979D01*
X3420006D01*
X3440000Y3904975D02*
Y3924969D01*
X3160033Y4060010D02*
Y4119990D01*
X3190023D01*
X3200020Y4109993D01*
Y4090000D01*
X3190023Y4080003D01*
X3160033D01*
X3180026D02*
X3200020Y4060010D01*
X3220013D02*
X3240007D01*
X3230010D01*
Y4119990D01*
X3220013Y4109993D01*
X3269997Y4060010D02*
X3289991D01*
X3279994D01*
Y4119990D01*
X3269997Y4109993D01*
X3319981D02*
X3329977Y4119990D01*
X3349971D01*
X3359968Y4109993D01*
Y4070006D01*
X3349971Y4060010D01*
X3329977D01*
X3319981Y4070006D01*
Y4109993D01*
X3170029Y4160010D02*
Y4219990D01*
X3200020D01*
X3210016Y4209993D01*
Y4190000D01*
X3200020Y4180003D01*
X3170029D01*
X3190023D02*
X3210016Y4160010D01*
X3230010D02*
X3250004D01*
X3240007D01*
Y4219990D01*
X3230010Y4209993D01*
X3279994Y4160010D02*
X3299987D01*
X3289990D01*
Y4219990D01*
X3279994Y4209993D01*
X3329977Y4160010D02*
X3349971D01*
X3339974D01*
Y4219990D01*
X3329977Y4209993D01*
X4670017Y4210010D02*
Y4269990D01*
X4700007D01*
X4710004Y4259993D01*
Y4240000D01*
X4700007Y4230003D01*
X4670017D01*
X4690010D02*
X4710004Y4210010D01*
X4729997Y4259993D02*
X4739994Y4269990D01*
X4759987D01*
X4769984Y4259993D01*
Y4249997D01*
X4759987Y4240000D01*
X4749991D01*
X4759987D01*
X4769984Y4230003D01*
Y4220006D01*
X4759987Y4210010D01*
X4739994D01*
X4729997Y4220006D01*
X5049990Y3690016D02*
X4990010D01*
Y3720006D01*
X5000007Y3730003D01*
X5020000D01*
X5029997Y3720006D01*
Y3690016D01*
Y3710010D02*
X5049990Y3730003D01*
X4990010Y3789984D02*
Y3749997D01*
X5020000D01*
X5010003Y3769990D01*
Y3779987D01*
X5020000Y3789984D01*
X5039993D01*
X5049990Y3779987D01*
Y3759993D01*
X5039993Y3749997D01*
X3469990Y3975034D02*
X3410009D01*
Y4005024D01*
X3420006Y4015021D01*
X3440000D01*
X3449996Y4005024D01*
Y3975034D01*
Y3995028D02*
X3469990Y4015021D01*
Y4035015D02*
Y4055008D01*
Y4045011D01*
X3410009D01*
X3420006Y4035015D01*
Y4084998D02*
X3410009Y4094995D01*
Y4114988D01*
X3420006Y4124985D01*
X3459993D01*
X3469990Y4114988D01*
Y4094995D01*
X3459993Y4084998D01*
X3420006D01*
X3459993Y4144979D02*
X3469990Y4154975D01*
Y4174969D01*
X3459993Y4184966D01*
X3420006D01*
X3410009Y4174969D01*
Y4154975D01*
X3420006Y4144979D01*
X3430003D01*
X3440000Y4154975D01*
Y4184966D01*
X5379990Y650026D02*
X5320009D01*
Y680016D01*
X5330006Y690013D01*
X5350000D01*
X5359996Y680016D01*
Y650026D01*
Y670019D02*
X5379990Y690013D01*
X5320009Y710006D02*
Y749993D01*
X5330006D01*
X5369993Y710006D01*
X5379990D01*
X5320009Y809974D02*
Y769987D01*
X5350000D01*
X5340003Y789981D01*
Y799977D01*
X5350000Y809974D01*
X5369993D01*
X5379990Y799977D01*
Y779984D01*
X5369993Y769987D01*
X5489990Y650026D02*
X5430009D01*
Y680016D01*
X5440006Y690013D01*
X5460000D01*
X5469996Y680016D01*
Y650026D01*
Y670019D02*
X5489990Y690013D01*
X5430009Y710006D02*
Y749993D01*
X5440006D01*
X5479993Y710006D01*
X5489990D01*
Y799977D02*
X5430009D01*
X5460000Y769987D01*
Y809974D01*
X5929990Y1820023D02*
X5870010D01*
Y1850013D01*
X5880007Y1860010D01*
X5900000D01*
X5909997Y1850013D01*
Y1820023D01*
Y1840016D02*
X5929990Y1860010D01*
Y1909994D02*
X5870010D01*
X5900000Y1880003D01*
Y1919990D01*
X5929990Y1939984D02*
Y1959978D01*
Y1949981D01*
X5870010D01*
X5880007Y1939984D01*
X6029990Y1810026D02*
X5970010D01*
Y1840016D01*
X5980007Y1850013D01*
X6000000D01*
X6009997Y1840016D01*
Y1810026D01*
Y1830020D02*
X6029990Y1850013D01*
Y1899997D02*
X5970010D01*
X6000000Y1870007D01*
Y1909994D01*
X6029990Y1969974D02*
Y1929987D01*
X5990004Y1969974D01*
X5980007D01*
X5970010Y1959978D01*
Y1939984D01*
X5980007Y1929987D01*
X5669990Y4650026D02*
X5610010D01*
Y4680016D01*
X5620007Y4690013D01*
X5640000D01*
X5649997Y4680016D01*
Y4650026D01*
Y4670020D02*
X5669990Y4690013D01*
X5610010Y4710007D02*
Y4749994D01*
X5620007D01*
X5659994Y4710007D01*
X5669990D01*
Y4809974D02*
Y4769987D01*
X5630003Y4809974D01*
X5620007D01*
X5610010Y4799977D01*
Y4779984D01*
X5620007Y4769987D01*
X5389990Y4650026D02*
X5330010D01*
Y4680016D01*
X5340007Y4690013D01*
X5360000D01*
X5369997Y4680016D01*
Y4650026D01*
Y4670020D02*
X5389990Y4690013D01*
X5330010Y4749994D02*
X5340007Y4730000D01*
X5360000Y4710007D01*
X5379994D01*
X5389990Y4720003D01*
Y4739997D01*
X5379994Y4749994D01*
X5369997D01*
X5360000Y4739997D01*
Y4710007D01*
X5379994Y4769987D02*
X5389990Y4779984D01*
Y4799977D01*
X5379994Y4809974D01*
X5340007D01*
X5330010Y4799977D01*
Y4779984D01*
X5340007Y4769987D01*
X5350003D01*
X5360000Y4779984D01*
Y4809974D01*
X6879990Y4650026D02*
X6820010D01*
Y4680016D01*
X6830007Y4690013D01*
X6850000D01*
X6859997Y4680016D01*
Y4650026D01*
Y4670020D02*
X6879990Y4690013D01*
X6820010Y4710007D02*
Y4749994D01*
X6830007D01*
X6869994Y4710007D01*
X6879990D01*
X6820010Y4769987D02*
Y4809974D01*
X6830007D01*
X6869994Y4769987D01*
X6879990D01*
X6779990Y4650026D02*
X6720010D01*
Y4680016D01*
X6730007Y4690013D01*
X6750000D01*
X6759997Y4680016D01*
Y4650026D01*
Y4670020D02*
X6779990Y4690013D01*
X6720010Y4710007D02*
Y4749994D01*
X6730007D01*
X6769994Y4710007D01*
X6779990D01*
X6730007Y4769987D02*
X6720010Y4779984D01*
Y4799977D01*
X6730007Y4809974D01*
X6740003D01*
X6750000Y4799977D01*
X6759997Y4809974D01*
X6769994D01*
X6779990Y4799977D01*
Y4779984D01*
X6769994Y4769987D01*
X6759997D01*
X6750000Y4779984D01*
X6740003Y4769987D01*
X6730007D01*
X6750000Y4779984D02*
Y4799977D01*
X5899990Y4650026D02*
X5840010D01*
Y4680016D01*
X5850007Y4690013D01*
X5870000D01*
X5879997Y4680016D01*
Y4650026D01*
Y4670020D02*
X5899990Y4690013D01*
X5850007Y4710007D02*
X5840010Y4720003D01*
Y4739997D01*
X5850007Y4749994D01*
X5860003D01*
X5870000Y4739997D01*
X5879997Y4749994D01*
X5889994D01*
X5899990Y4739997D01*
Y4720003D01*
X5889994Y4710007D01*
X5879997D01*
X5870000Y4720003D01*
X5860003Y4710007D01*
X5850007D01*
X5870000Y4720003D02*
Y4739997D01*
X5840010Y4809974D02*
Y4769987D01*
X5870000D01*
X5860003Y4789981D01*
Y4799977D01*
X5870000Y4809974D01*
X5889994D01*
X5899990Y4799977D01*
Y4779984D01*
X5889994Y4769987D01*
X5999990Y4650026D02*
X5940010D01*
Y4680016D01*
X5950007Y4690013D01*
X5970000D01*
X5979997Y4680016D01*
Y4650026D01*
Y4670020D02*
X5999990Y4690013D01*
X5950007Y4710007D02*
X5940010Y4720003D01*
Y4739997D01*
X5950007Y4749994D01*
X5960003D01*
X5970000Y4739997D01*
X5979997Y4749994D01*
X5989994D01*
X5999990Y4739997D01*
Y4720003D01*
X5989994Y4710007D01*
X5979997D01*
X5970000Y4720003D01*
X5960003Y4710007D01*
X5950007D01*
X5970000Y4720003D02*
Y4739997D01*
X5940010Y4809974D02*
X5950007Y4789981D01*
X5970000Y4769987D01*
X5989994D01*
X5999990Y4779984D01*
Y4799977D01*
X5989994Y4809974D01*
X5979997D01*
X5970000Y4799977D01*
Y4769987D01*
X3789990Y4650026D02*
X3730010D01*
Y4680016D01*
X3740007Y4690013D01*
X3760000D01*
X3769997Y4680016D01*
Y4650026D01*
Y4670020D02*
X3789990Y4690013D01*
X3730010Y4749994D02*
X3740007Y4730000D01*
X3760000Y4710007D01*
X3779994D01*
X3789990Y4720003D01*
Y4739997D01*
X3779994Y4749994D01*
X3769997D01*
X3760000Y4739997D01*
Y4710007D01*
X3740007Y4769987D02*
X3730010Y4779984D01*
Y4799977D01*
X3740007Y4809974D01*
X3779994D01*
X3789990Y4799977D01*
Y4779984D01*
X3779994Y4769987D01*
X3740007D01*
X3679990Y4660023D02*
X3620010D01*
Y4690013D01*
X3630007Y4700010D01*
X3650000D01*
X3659997Y4690013D01*
Y4660023D01*
Y4680016D02*
X3679990Y4700010D01*
X3620010Y4759990D02*
X3630007Y4739997D01*
X3650000Y4720003D01*
X3669994D01*
X3679990Y4730000D01*
Y4749994D01*
X3669994Y4759990D01*
X3659997D01*
X3650000Y4749994D01*
Y4720003D01*
X3679990Y4779984D02*
Y4799977D01*
Y4789981D01*
X3620010D01*
X3630007Y4779984D01*
X3929990Y4650026D02*
X3870010D01*
Y4680016D01*
X3880007Y4690013D01*
X3900000D01*
X3909997Y4680016D01*
Y4650026D01*
Y4670020D02*
X3929990Y4690013D01*
X3870010Y4749994D02*
X3880007Y4730000D01*
X3900000Y4710007D01*
X3919994D01*
X3929990Y4720003D01*
Y4739997D01*
X3919994Y4749994D01*
X3909997D01*
X3900000Y4739997D01*
Y4710007D01*
X3929990Y4809974D02*
Y4769987D01*
X3890003Y4809974D01*
X3880007D01*
X3870010Y4799977D01*
Y4779984D01*
X3880007Y4769987D01*
X6600027Y2360010D02*
Y2419990D01*
X6630017D01*
X6640014Y2409993D01*
Y2390000D01*
X6630017Y2380003D01*
X6600027D01*
X6620020D02*
X6640014Y2360010D01*
X6699994Y2419990D02*
X6680001Y2409993D01*
X6660007Y2390000D01*
Y2370006D01*
X6670004Y2360010D01*
X6689998D01*
X6699994Y2370006D01*
Y2380003D01*
X6689998Y2390000D01*
X6660007D01*
X6719988Y2409993D02*
X6729985Y2419990D01*
X6749978D01*
X6759975Y2409993D01*
Y2399997D01*
X6749978Y2390000D01*
X6739981D01*
X6749978D01*
X6759975Y2380003D01*
Y2370006D01*
X6749978Y2360010D01*
X6729985D01*
X6719988Y2370006D01*
X3959990Y651026D02*
X3900010D01*
Y681016D01*
X3910007Y691013D01*
X3930000D01*
X3939997Y681016D01*
Y651026D01*
Y671020D02*
X3959990Y691013D01*
X3900010Y750994D02*
X3910007Y731000D01*
X3930000Y711007D01*
X3949994D01*
X3959990Y721003D01*
Y740997D01*
X3949994Y750994D01*
X3939997D01*
X3930000Y740997D01*
Y711007D01*
X3959990Y800978D02*
X3900010D01*
X3930000Y770987D01*
Y810974D01*
X4069990Y650026D02*
X4010010D01*
Y680016D01*
X4020006Y690013D01*
X4040000D01*
X4049996Y680016D01*
Y650026D01*
Y670019D02*
X4069990Y690013D01*
X4010010Y749993D02*
X4020006Y730000D01*
X4040000Y710006D01*
X4059993D01*
X4069990Y720003D01*
Y739997D01*
X4059993Y749993D01*
X4049996D01*
X4040000Y739997D01*
Y710006D01*
X4010010Y809974D02*
Y769987D01*
X4040000D01*
X4030003Y789981D01*
Y799977D01*
X4040000Y809974D01*
X4059993D01*
X4069990Y799977D01*
Y779984D01*
X4059993Y769987D01*
X4889990Y650026D02*
X4830009D01*
Y680016D01*
X4840006Y690013D01*
X4860000D01*
X4869996Y680016D01*
Y650026D01*
Y670019D02*
X4889990Y690013D01*
X4830009Y749993D02*
X4840006Y730000D01*
X4860000Y710006D01*
X4879993D01*
X4889990Y720003D01*
Y739997D01*
X4879993Y749993D01*
X4869996D01*
X4860000Y739997D01*
Y710006D01*
X4830009Y809974D02*
X4840006Y789981D01*
X4860000Y769987D01*
X4879993D01*
X4889990Y779984D01*
Y799977D01*
X4879993Y809974D01*
X4869996D01*
X4860000Y799977D01*
Y769987D01*
X5779990Y4650026D02*
X5720010D01*
Y4680016D01*
X5730007Y4690013D01*
X5750000D01*
X5759997Y4680016D01*
Y4650026D01*
Y4670020D02*
X5779990Y4690013D01*
X5720010Y4749994D02*
X5730007Y4730000D01*
X5750000Y4710007D01*
X5769994D01*
X5779990Y4720003D01*
Y4739997D01*
X5769994Y4749994D01*
X5759997D01*
X5750000Y4739997D01*
Y4710007D01*
X5720010Y4769987D02*
Y4809974D01*
X5730007D01*
X5769994Y4769987D01*
X5779990D01*
X4999990Y650026D02*
X4940009D01*
Y680016D01*
X4950006Y690013D01*
X4970000D01*
X4979996Y680016D01*
Y650026D01*
Y670019D02*
X4999990Y690013D01*
X4940009Y749993D02*
X4950006Y730000D01*
X4970000Y710006D01*
X4989993D01*
X4999990Y720003D01*
Y739997D01*
X4989993Y749993D01*
X4979996D01*
X4970000Y739997D01*
Y710006D01*
X4950006Y769987D02*
X4940009Y779984D01*
Y799977D01*
X4950006Y809974D01*
X4960003D01*
X4970000Y799977D01*
X4979996Y809974D01*
X4989993D01*
X4999990Y799977D01*
Y779984D01*
X4989993Y769987D01*
X4979996D01*
X4970000Y779984D01*
X4960003Y769987D01*
X4950006D01*
X4970000Y779984D02*
Y799977D01*
X3930006Y4190019D02*
X3920009Y4180023D01*
Y4160029D01*
X3930006Y4150032D01*
X3969993D01*
X3979990Y4160029D01*
Y4180023D01*
X3969993Y4190019D01*
X3979990Y4210013D02*
Y4230007D01*
Y4220010D01*
X3920009D01*
X3930006Y4210013D01*
X3979990Y4259997D02*
Y4279990D01*
Y4269993D01*
X3920009D01*
X3930006Y4259997D01*
X3979990Y4349967D02*
Y4309980D01*
X3940003Y4349967D01*
X3930006D01*
X3920009Y4339970D01*
Y4319977D01*
X3930006Y4309980D01*
X4254240Y1394638D02*
Y1334657D01*
X4284231D01*
X4294227Y1344654D01*
Y1384641D01*
X4284231Y1394638D01*
X4254240D01*
X4314221Y1334657D02*
X4334215D01*
X4324218D01*
Y1394638D01*
X4314221Y1384641D01*
X4364205D02*
X4374201Y1394638D01*
X4394195D01*
X4404192Y1384641D01*
Y1374644D01*
X4394195Y1364648D01*
X4384198D01*
X4394195D01*
X4404192Y1354651D01*
Y1344654D01*
X4394195Y1334657D01*
X4374201D01*
X4364205Y1344654D01*
X5690026Y740010D02*
Y799991D01*
X5720016D01*
X5730013Y789994D01*
Y770000D01*
X5720016Y760004D01*
X5690026D01*
X5710020D02*
X5730013Y740010D01*
X5750007Y799991D02*
X5789993D01*
Y789994D01*
X5750007Y750007D01*
Y740010D01*
X5809987Y789994D02*
X5819984Y799991D01*
X5839977D01*
X5849974Y789994D01*
Y750007D01*
X5839977Y740010D01*
X5819984D01*
X5809987Y750007D01*
Y789994D01*
X5139990Y660023D02*
X5080009D01*
Y690013D01*
X5090006Y700010D01*
X5110000D01*
X5119996Y690013D01*
Y660023D01*
Y680016D02*
X5139990Y700010D01*
X5080009Y720003D02*
Y759990D01*
X5090006D01*
X5129993Y720003D01*
X5139990D01*
Y779984D02*
Y799977D01*
Y789980D01*
X5080009D01*
X5090006Y779984D01*
X7190026Y3130009D02*
Y3189990D01*
X7220016D01*
X7230013Y3179993D01*
Y3160000D01*
X7220016Y3150003D01*
X7190026D01*
X7210020D02*
X7230013Y3130009D01*
X7250007Y3189990D02*
X7289994D01*
Y3179993D01*
X7250007Y3140006D01*
Y3130009D01*
X7309987Y3179993D02*
X7319984Y3189990D01*
X7339977D01*
X7349974Y3179993D01*
Y3169996D01*
X7339977Y3160000D01*
X7329981D01*
X7339977D01*
X7349974Y3150003D01*
Y3140006D01*
X7339977Y3130009D01*
X7319984D01*
X7309987Y3140006D01*
X5249990Y660023D02*
X5190009D01*
Y690013D01*
X5200006Y700010D01*
X5220000D01*
X5229996Y690013D01*
Y660023D01*
Y680016D02*
X5249990Y700010D01*
X5200006Y720003D02*
X5190009Y730000D01*
Y749993D01*
X5200006Y759990D01*
X5210003D01*
X5220000Y749993D01*
X5229996Y759990D01*
X5239993D01*
X5249990Y749993D01*
Y730000D01*
X5239993Y720003D01*
X5229996D01*
X5220000Y730000D01*
X5210003Y720003D01*
X5200006D01*
X5220000Y730000D02*
Y749993D01*
X5249990Y779984D02*
Y799977D01*
Y789980D01*
X5190009D01*
X5200006Y779984D01*
X4609990Y650026D02*
X4550009D01*
Y680016D01*
X4560006Y690013D01*
X4580000D01*
X4589996Y680016D01*
Y650026D01*
Y670019D02*
X4609990Y690013D01*
X4560006Y710006D02*
X4550009Y720003D01*
Y739997D01*
X4560006Y749993D01*
X4570003D01*
X4580000Y739997D01*
X4589996Y749993D01*
X4599993D01*
X4609990Y739997D01*
Y720003D01*
X4599993Y710006D01*
X4589996D01*
X4580000Y720003D01*
X4570003Y710006D01*
X4560006D01*
X4580000Y720003D02*
Y739997D01*
X4609990Y799977D02*
X4550009D01*
X4580000Y769987D01*
Y809974D01*
X4235034Y1440010D02*
Y1499991D01*
X4265025D01*
X4275021Y1489994D01*
Y1470000D01*
X4265025Y1460004D01*
X4235034D01*
X4255028D02*
X4275021Y1440010D01*
X4295015D02*
X4315009D01*
X4305012D01*
Y1499991D01*
X4295015Y1489994D01*
X4344999D02*
X4354995Y1499991D01*
X4374989D01*
X4384986Y1489994D01*
Y1450007D01*
X4374989Y1440010D01*
X4354995D01*
X4344999Y1450007D01*
Y1489994D01*
X4444966Y1499991D02*
X4424973Y1489994D01*
X4404979Y1470000D01*
Y1450007D01*
X4414976Y1440010D01*
X4434970D01*
X4444966Y1450007D01*
Y1460004D01*
X4434970Y1470000D01*
X4404979D01*
X2875021Y2449993D02*
X2865024Y2459990D01*
X2845031D01*
X2835034Y2449993D01*
Y2410006D01*
X2845031Y2400010D01*
X2865024D01*
X2875021Y2410006D01*
X2895015Y2400010D02*
X2915008D01*
X2905011D01*
Y2459990D01*
X2895015Y2449993D01*
X2944998D02*
X2954995Y2459990D01*
X2974988D01*
X2984985Y2449993D01*
Y2410006D01*
X2974988Y2400010D01*
X2954995D01*
X2944998Y2410006D01*
Y2449993D01*
X3044966Y2400010D02*
X3004979D01*
X3044966Y2439997D01*
Y2449993D01*
X3034969Y2459990D01*
X3014975D01*
X3004979Y2449993D01*
X2885018Y2219994D02*
X2875021Y2229990D01*
X2855027D01*
X2845031Y2219994D01*
Y2180007D01*
X2855027Y2170010D01*
X2875021D01*
X2885018Y2180007D01*
X2905011Y2170010D02*
X2925005D01*
X2915008D01*
Y2229990D01*
X2905011Y2219994D01*
X2954995D02*
X2964992Y2229990D01*
X2984985D01*
X2994982Y2219994D01*
Y2180007D01*
X2984985Y2170010D01*
X2964992D01*
X2954995Y2180007D01*
Y2219994D01*
X3014975Y2170010D02*
X3034969D01*
X3024972D01*
Y2229990D01*
X3014975Y2219994D01*
X4640013Y3369993D02*
X4630016Y3379990D01*
X4610023D01*
X4600026Y3369993D01*
Y3330006D01*
X4610023Y3320010D01*
X4630016D01*
X4640013Y3330006D01*
X4699994Y3320010D02*
X4660007D01*
X4699994Y3359997D01*
Y3369993D01*
X4689997Y3379990D01*
X4670003D01*
X4660007Y3369993D01*
X4759974Y3379990D02*
X4719987D01*
Y3350000D01*
X4739981Y3359997D01*
X4749978D01*
X4759974Y3350000D01*
Y3330006D01*
X4749978Y3320010D01*
X4729984D01*
X4719987Y3330006D01*
X5610007Y2730013D02*
X5600010Y2720016D01*
Y2700023D01*
X5610007Y2690026D01*
X5649994D01*
X5659990Y2700023D01*
Y2720016D01*
X5649994Y2730013D01*
X5659990Y2789993D02*
Y2750006D01*
X5620003Y2789993D01*
X5610007D01*
X5600010Y2779997D01*
Y2760003D01*
X5610007Y2750006D01*
X5600010Y2849974D02*
X5610007Y2829981D01*
X5630000Y2809987D01*
X5649994D01*
X5659990Y2819984D01*
Y2839977D01*
X5649994Y2849974D01*
X5639997D01*
X5630000Y2839977D01*
Y2809987D01*
X3315025Y709990D02*
Y650010D01*
X3345015D01*
X3355012Y660006D01*
Y699993D01*
X3345015Y709990D01*
X3315025D01*
X3375005Y650010D02*
X3394999D01*
X3385002D01*
Y709990D01*
X3375005Y699993D01*
X3424989D02*
X3434986Y709990D01*
X3454979D01*
X3464976Y699993D01*
Y660006D01*
X3454979Y650010D01*
X3434986D01*
X3424989Y660006D01*
Y699993D01*
X2730013Y930034D02*
X2720016Y940031D01*
X2700023D01*
X2690026Y930034D01*
Y890047D01*
X2700023Y880051D01*
X2720016D01*
X2730013Y890047D01*
X2750007Y940031D02*
X2789994D01*
Y930034D01*
X2750007Y890047D01*
Y880051D01*
X2809987Y890047D02*
X2819984Y880051D01*
X2839978D01*
X2849974Y890047D01*
Y930034D01*
X2839978Y940031D01*
X2819984D01*
X2809987Y930034D01*
Y920038D01*
X2819984Y910041D01*
X2849974D01*
X2449232Y4744637D02*
Y4684657D01*
X2479222D01*
X2489219Y4694654D01*
Y4734641D01*
X2479222Y4744637D01*
X2449232D01*
X2509212D02*
X2549199D01*
Y4734641D01*
X2509212Y4694654D01*
Y4684657D01*
X4459232Y4744637D02*
Y4684657D01*
X4489222D01*
X4499219Y4694654D01*
Y4734641D01*
X4489222Y4744637D01*
X4459232D01*
X4519213Y4734641D02*
X4529209Y4744637D01*
X4549203D01*
X4559200Y4734641D01*
Y4724644D01*
X4549203Y4714647D01*
X4559200Y4704650D01*
Y4694654D01*
X4549203Y4684657D01*
X4529209D01*
X4519213Y4694654D01*
Y4704650D01*
X4529209Y4714647D01*
X4519213Y4724644D01*
Y4734641D01*
X4529209Y4714647D02*
X4549203D01*
X4759990Y4650026D02*
X4700010D01*
Y4680016D01*
X4710007Y4690013D01*
X4730000D01*
X4739997Y4680016D01*
Y4650026D01*
Y4670020D02*
X4759990Y4690013D01*
X4749994Y4710007D02*
X4759990Y4720003D01*
Y4739997D01*
X4749994Y4749994D01*
X4710007D01*
X4700010Y4739997D01*
Y4720003D01*
X4710007Y4710007D01*
X4720004D01*
X4730000Y4720003D01*
Y4749994D01*
X4759990Y4799977D02*
X4700010D01*
X4730000Y4769987D01*
Y4809974D01*
X5785025Y4310010D02*
Y4369990D01*
X5815015D01*
X5825012Y4359993D01*
Y4340000D01*
X5815015Y4330003D01*
X5785025D01*
X5805018D02*
X5825012Y4310010D01*
X5845005D02*
X5864999D01*
X5855002D01*
Y4369990D01*
X5845005Y4359993D01*
X5894989D02*
X5904986Y4369990D01*
X5924979D01*
X5934976Y4359993D01*
Y4349997D01*
X5924979Y4340000D01*
X5934976Y4330003D01*
Y4320006D01*
X5924979Y4310010D01*
X5904986D01*
X5894989Y4320006D01*
Y4330003D01*
X5904986Y4340000D01*
X5894989Y4349997D01*
Y4359993D01*
X5904986Y4340000D02*
X5924979D01*
X6580027Y2720010D02*
Y2779990D01*
X6610017D01*
X6620014Y2769993D01*
Y2750000D01*
X6610017Y2740003D01*
X6580027D01*
X6600020D02*
X6620014Y2720010D01*
X6640007Y2769993D02*
X6650004Y2779990D01*
X6669998D01*
X6679994Y2769993D01*
Y2759997D01*
X6669998Y2750000D01*
X6660001D01*
X6669998D01*
X6679994Y2740003D01*
Y2730006D01*
X6669998Y2720010D01*
X6650004D01*
X6640007Y2730006D01*
X6699988Y2769993D02*
X6709985Y2779990D01*
X6729978D01*
X6739975Y2769993D01*
Y2730006D01*
X6729978Y2720010D01*
X6709985D01*
X6699988Y2730006D01*
Y2769993D01*
X7169990Y2680023D02*
X7110010D01*
Y2710013D01*
X7120007Y2720010D01*
X7140000D01*
X7149997Y2710013D01*
Y2680023D01*
Y2700016D02*
X7169990Y2720010D01*
X7120007Y2740003D02*
X7110010Y2750000D01*
Y2769993D01*
X7120007Y2779990D01*
X7130004D01*
X7140000Y2769993D01*
Y2759997D01*
Y2769993D01*
X7149997Y2779990D01*
X7159994D01*
X7169990Y2769993D01*
Y2750000D01*
X7159994Y2740003D01*
X7169990Y2799984D02*
Y2819977D01*
Y2809980D01*
X7110010D01*
X7120007Y2799984D01*
X7249990Y660026D02*
X7190010D01*
Y690016D01*
X7200007Y700013D01*
X7220000D01*
X7229997Y690016D01*
Y660026D01*
Y680019D02*
X7249990Y700013D01*
X7190010Y759993D02*
Y720006D01*
X7220000D01*
X7210003Y740000D01*
Y749997D01*
X7220000Y759993D01*
X7239994D01*
X7249990Y749997D01*
Y730003D01*
X7239994Y720006D01*
X7200007Y779987D02*
X7190010Y789984D01*
Y809977D01*
X7200007Y819974D01*
X7210003D01*
X7220000Y809977D01*
Y799981D01*
Y809977D01*
X7229997Y819974D01*
X7239994D01*
X7249990Y809977D01*
Y789984D01*
X7239994Y779987D01*
X7349990Y660026D02*
X7290010D01*
Y690016D01*
X7300006Y700013D01*
X7320000D01*
X7329997Y690016D01*
Y660026D01*
Y680019D02*
X7349990Y700013D01*
X7290010Y759993D02*
Y720006D01*
X7320000D01*
X7310003Y740000D01*
Y749997D01*
X7320000Y759993D01*
X7339993D01*
X7349990Y749997D01*
Y730003D01*
X7339993Y720006D01*
X7349990Y809977D02*
X7290010D01*
X7320000Y779987D01*
Y819974D01*
X5600004Y3759952D02*
X5590007Y3769949D01*
X5570013D01*
X5560017Y3759952D01*
Y3719965D01*
X5570013Y3709968D01*
X5590007D01*
X5600004Y3719965D01*
X5659984Y3769949D02*
X5639991Y3759952D01*
X5619997Y3739958D01*
Y3719965D01*
X5629994Y3709968D01*
X5649987D01*
X5659984Y3719965D01*
Y3729962D01*
X5649987Y3739958D01*
X5619997D01*
X3290007Y3050013D02*
X3280010Y3040016D01*
Y3020022D01*
X3290007Y3010026D01*
X3329994D01*
X3339990Y3020022D01*
Y3040016D01*
X3329994Y3050013D01*
X3290007Y3070006D02*
X3280010Y3080003D01*
Y3099997D01*
X3290007Y3109993D01*
X3300003D01*
X3310000Y3099997D01*
X3319997Y3109993D01*
X3329994D01*
X3339990Y3099997D01*
Y3080003D01*
X3329994Y3070006D01*
X3319997D01*
X3310000Y3080003D01*
X3300003Y3070006D01*
X3290007D01*
X3310000Y3080003D02*
Y3099997D01*
X3339990Y3169974D02*
Y3129987D01*
X3300003Y3169974D01*
X3290007D01*
X3280010Y3159977D01*
Y3139984D01*
X3290007Y3129987D01*
X3250013Y1840034D02*
X3240016Y1850031D01*
X3220023D01*
X3210026Y1840034D01*
Y1800047D01*
X3220023Y1790051D01*
X3240016D01*
X3250013Y1800047D01*
X3270007D02*
X3280003Y1790051D01*
X3299997D01*
X3309994Y1800047D01*
Y1840034D01*
X3299997Y1850031D01*
X3280003D01*
X3270007Y1840034D01*
Y1830038D01*
X3280003Y1820041D01*
X3309994D01*
X3369974Y1850031D02*
X3349981Y1840034D01*
X3329987Y1820041D01*
Y1800047D01*
X3339984Y1790051D01*
X3359978D01*
X3369974Y1800047D01*
Y1810044D01*
X3359978Y1820041D01*
X3329987D01*
X7710048Y1265021D02*
X7700051Y1255024D01*
Y1235031D01*
X7710048Y1225034D01*
X7750035D01*
X7760031Y1235031D01*
Y1255024D01*
X7750035Y1265021D01*
X7760031Y1285015D02*
Y1305008D01*
Y1295011D01*
X7700051D01*
X7710048Y1285015D01*
X7760031Y1374985D02*
Y1334998D01*
X7720045Y1374985D01*
X7710048D01*
X7700051Y1364989D01*
Y1344995D01*
X7710048Y1334998D01*
X7760031Y1434966D02*
Y1394979D01*
X7720045Y1434966D01*
X7710048D01*
X7700051Y1424969D01*
Y1404976D01*
X7710048Y1394979D01*
X3620022Y1699990D02*
Y1650006D01*
X3630019Y1640009D01*
X3650013D01*
X3660009Y1650006D01*
Y1699990D01*
X3719990Y1640009D02*
X3680003D01*
X3719990Y1679996D01*
Y1689993D01*
X3709993Y1699990D01*
X3690000D01*
X3680003Y1689993D01*
X3739984Y1640009D02*
X3759977D01*
X3749980D01*
Y1699990D01*
X3739984Y1689993D01*
X5635379Y2190313D02*
Y2140329D01*
X5645376Y2130333D01*
X5665370D01*
X5675366Y2140329D01*
Y2190313D01*
X5735347Y2130333D02*
X5695360D01*
X5735347Y2170320D01*
Y2180316D01*
X5725350Y2190313D01*
X5705357D01*
X5695360Y2180316D01*
X5795327Y2190313D02*
X5755341D01*
Y2160323D01*
X5775334Y2170320D01*
X5785331D01*
X5795327Y2160323D01*
Y2140329D01*
X5785331Y2130333D01*
X5765337D01*
X5755341Y2140329D01*
X2510010Y2250016D02*
X2569990D01*
Y2290003D01*
X2520007Y2309997D02*
X2510010Y2319994D01*
Y2339987D01*
X2520007Y2349984D01*
X2530003D01*
X2540000Y2339987D01*
Y2329991D01*
Y2339987D01*
X2549997Y2349984D01*
X2559994D01*
X2569990Y2339987D01*
Y2319994D01*
X2559994Y2309997D01*
X5465025Y3260010D02*
Y3319990D01*
X5495015D01*
X5505012Y3309993D01*
Y3290000D01*
X5495015Y3280003D01*
X5465025D01*
X5485018D02*
X5505012Y3260010D01*
X5525005D02*
X5544999D01*
X5535002D01*
Y3319990D01*
X5525005Y3309993D01*
X5574989D02*
X5584986Y3319990D01*
X5604979D01*
X5614976Y3309993D01*
Y3270006D01*
X5604979Y3260010D01*
X5584986D01*
X5574989Y3270006D01*
Y3309993D01*
X5740006Y2735011D02*
X5730009Y2725015D01*
Y2705021D01*
X5740006Y2695024D01*
X5779993D01*
X5789990Y2705021D01*
Y2725015D01*
X5779993Y2735011D01*
X5789990Y2755005D02*
Y2774999D01*
Y2765002D01*
X5730009D01*
X5740006Y2755005D01*
X5779993Y2804989D02*
X5789990Y2814985D01*
Y2834979D01*
X5779993Y2844976D01*
X5740006D01*
X5730009Y2834979D01*
Y2814985D01*
X5740006Y2804989D01*
X5750003D01*
X5760000Y2814985D01*
Y2844976D01*
X6000006Y2730013D02*
X5990009Y2720016D01*
Y2700023D01*
X6000006Y2690026D01*
X6039993D01*
X6049990Y2700023D01*
Y2720016D01*
X6039993Y2730013D01*
X6049990Y2779997D02*
X5990009D01*
X6020000Y2750006D01*
Y2789993D01*
X6000006Y2809987D02*
X5990009Y2819984D01*
Y2839977D01*
X6000006Y2849974D01*
X6010003D01*
X6020000Y2839977D01*
X6029996Y2849974D01*
X6039993D01*
X6049990Y2839977D01*
Y2819984D01*
X6039993Y2809987D01*
X6029996D01*
X6020000Y2819984D01*
X6010003Y2809987D01*
X6000006D01*
X6020000Y2819984D02*
Y2839977D01*
X8469965Y2580009D02*
X8459968Y2570013D01*
Y2550019D01*
X8469965Y2540022D01*
X8509952D01*
X8519949Y2550019D01*
Y2570013D01*
X8509952Y2580009D01*
X8459968Y2600003D02*
Y2639990D01*
X8469965D01*
X8509952Y2600003D01*
X8519949D01*
Y2659984D02*
Y2679977D01*
Y2669980D01*
X8459968D01*
X8469965Y2659984D01*
X7069991Y2650033D02*
X7010010D01*
Y2680023D01*
X7020007Y2690020D01*
X7040001D01*
X7049997Y2680023D01*
Y2650033D01*
Y2670026D02*
X7069991Y2690020D01*
Y2710013D02*
Y2730007D01*
Y2720010D01*
X7010010D01*
X7020007Y2710013D01*
X7069991Y2759997D02*
Y2779991D01*
Y2769994D01*
X7010010D01*
X7020007Y2759997D01*
X7069991Y2839971D02*
X7010010D01*
X7040001Y2809981D01*
Y2849968D01*
X7069990Y2350032D02*
X7010009D01*
Y2380023D01*
X7020006Y2390019D01*
X7040000D01*
X7049996Y2380023D01*
Y2350032D01*
Y2370026D02*
X7069990Y2390019D01*
Y2410013D02*
Y2430007D01*
Y2420010D01*
X7010009D01*
X7020006Y2410013D01*
X7069990Y2459997D02*
Y2479990D01*
Y2469993D01*
X7010009D01*
X7020006Y2459997D01*
X7010009Y2549967D02*
Y2509980D01*
X7040000D01*
X7030003Y2529974D01*
Y2539971D01*
X7040000Y2549967D01*
X7059993D01*
X7069990Y2539971D01*
Y2519977D01*
X7059993Y2509980D01*
X7069990Y2130033D02*
X7010010D01*
Y2160023D01*
X7020007Y2170020D01*
X7040000D01*
X7049997Y2160023D01*
Y2130033D01*
Y2150026D02*
X7069990Y2170020D01*
Y2190013D02*
Y2210007D01*
Y2200010D01*
X7010010D01*
X7020007Y2190013D01*
X7069990Y2239997D02*
Y2259991D01*
Y2249994D01*
X7010010D01*
X7020007Y2239997D01*
X7010010Y2329968D02*
X7020007Y2309974D01*
X7040000Y2289981D01*
X7059994D01*
X7069990Y2299977D01*
Y2319971D01*
X7059994Y2329968D01*
X7049997D01*
X7040000Y2319971D01*
Y2289981D01*
X7069990Y1900033D02*
X7010009D01*
Y1930023D01*
X7020006Y1940019D01*
X7040000D01*
X7049996Y1930023D01*
Y1900033D01*
Y1920026D02*
X7069990Y1940019D01*
Y1960013D02*
Y1980007D01*
Y1970010D01*
X7010009D01*
X7020006Y1960013D01*
X7069990Y2009997D02*
Y2029990D01*
Y2019993D01*
X7010009D01*
X7020006Y2009997D01*
X7010009Y2059980D02*
Y2099967D01*
X7020006D01*
X7059993Y2059980D01*
X7069990D01*
X5929990Y2210033D02*
X5870009D01*
Y2240023D01*
X5880006Y2250020D01*
X5899999D01*
X5909996Y2240023D01*
Y2210033D01*
Y2230027D02*
X5929990Y2250020D01*
Y2270014D02*
Y2290007D01*
Y2280010D01*
X5870009D01*
X5880006Y2270014D01*
X5929990Y2319997D02*
Y2339991D01*
Y2329994D01*
X5870009D01*
X5880006Y2319997D01*
Y2369981D02*
X5870009Y2379978D01*
Y2399971D01*
X5880006Y2409968D01*
X5890003D01*
X5899999Y2399971D01*
X5909996Y2409968D01*
X5919993D01*
X5929990Y2399971D01*
Y2379978D01*
X5919993Y2369981D01*
X5909996D01*
X5899999Y2379978D01*
X5890003Y2369981D01*
X5880006D01*
X5899999Y2379978D02*
Y2399971D01*
X6189990Y1090033D02*
X6130009D01*
Y1120023D01*
X6140006Y1130020D01*
X6160000D01*
X6169996Y1120023D01*
Y1090033D01*
Y1110026D02*
X6189990Y1130020D01*
Y1150013D02*
Y1170007D01*
Y1160010D01*
X6130009D01*
X6140006Y1150013D01*
X6189990Y1199997D02*
Y1219991D01*
Y1209994D01*
X6130009D01*
X6140006Y1199997D01*
X6179993Y1249981D02*
X6189990Y1259977D01*
Y1279971D01*
X6179993Y1289968D01*
X6140006D01*
X6130009Y1279971D01*
Y1259977D01*
X6140006Y1249981D01*
X6150003D01*
X6160000Y1259977D01*
Y1289968D01*
X6189990Y1285035D02*
X6130009D01*
Y1315025D01*
X6140006Y1325021D01*
X6160000D01*
X6169996Y1315025D01*
Y1285035D01*
Y1305028D02*
X6189990Y1325021D01*
Y1345015D02*
Y1365009D01*
Y1355012D01*
X6130009D01*
X6140006Y1345015D01*
X6189990Y1434986D02*
Y1394999D01*
X6150003Y1434986D01*
X6140006D01*
X6130009Y1424989D01*
Y1404995D01*
X6140006Y1394999D01*
Y1454979D02*
X6130009Y1464976D01*
Y1484970D01*
X6140006Y1494966D01*
X6179993D01*
X6189990Y1484970D01*
Y1464976D01*
X6179993Y1454979D01*
X6140006D01*
X7175031Y1420010D02*
Y1479990D01*
X7205021D01*
X7215018Y1469994D01*
Y1450000D01*
X7205021Y1440003D01*
X7175031D01*
X7195025D02*
X7215018Y1420010D01*
X7235012D02*
X7255005D01*
X7245008D01*
Y1479990D01*
X7235012Y1469994D01*
X7324982Y1420010D02*
X7284995D01*
X7324982Y1459997D01*
Y1469994D01*
X7314986Y1479990D01*
X7294992D01*
X7284995Y1469994D01*
X7344976Y1420010D02*
X7364970D01*
X7354973D01*
Y1479990D01*
X7344976Y1469994D01*
X7249990Y935034D02*
X7190010D01*
Y965024D01*
X7200007Y975021D01*
X7220000D01*
X7229997Y965024D01*
Y935034D01*
Y955027D02*
X7249990Y975021D01*
Y995014D02*
Y1015008D01*
Y1005011D01*
X7190010D01*
X7200007Y995014D01*
X7249990Y1084985D02*
Y1044998D01*
X7210003Y1084985D01*
X7200007D01*
X7190010Y1074988D01*
Y1054995D01*
X7200007Y1044998D01*
X7249990Y1144965D02*
Y1104978D01*
X7210003Y1144965D01*
X7200007D01*
X7190010Y1134969D01*
Y1114975D01*
X7200007Y1104978D01*
X5075035Y1010010D02*
Y1069990D01*
X5105025D01*
X5115022Y1059994D01*
Y1040000D01*
X5105025Y1030004D01*
X5075035D01*
X5095028D02*
X5115022Y1010010D01*
X5135015D02*
X5155009D01*
X5145012D01*
Y1069990D01*
X5135015Y1059994D01*
X5224986Y1010010D02*
X5184999D01*
X5224986Y1049997D01*
Y1059994D01*
X5214989Y1069990D01*
X5194995D01*
X5184999Y1059994D01*
X5244979D02*
X5254976Y1069990D01*
X5274970D01*
X5284966Y1059994D01*
Y1049997D01*
X5274970Y1040000D01*
X5264973D01*
X5274970D01*
X5284966Y1030004D01*
Y1020007D01*
X5274970Y1010010D01*
X5254976D01*
X5244979Y1020007D01*
X7315021Y4800035D02*
X7305025Y4810032D01*
X7285031D01*
X7275034Y4800035D01*
Y4760048D01*
X7285031Y4750051D01*
X7305025D01*
X7315021Y4760048D01*
X7335015Y4750051D02*
X7355008D01*
X7345011D01*
Y4810032D01*
X7335015Y4800035D01*
X7424985Y4750051D02*
X7384998D01*
X7424985Y4790038D01*
Y4800035D01*
X7414989Y4810032D01*
X7394995D01*
X7384998Y4800035D01*
X7444979Y4760048D02*
X7454976Y4750051D01*
X7474969D01*
X7484966Y4760048D01*
Y4800035D01*
X7474969Y4810032D01*
X7454976D01*
X7444979Y4800035D01*
Y4790038D01*
X7454976Y4780041D01*
X7484966D01*
X7285024Y4527138D02*
Y4477154D01*
X7295021Y4467158D01*
X7315014D01*
X7325011Y4477154D01*
Y4527138D01*
X7345005Y4517141D02*
X7355001Y4527138D01*
X7374995D01*
X7384992Y4517141D01*
Y4507145D01*
X7374995Y4497148D01*
X7364998D01*
X7374995D01*
X7384992Y4487151D01*
Y4477154D01*
X7374995Y4467158D01*
X7355001D01*
X7345005Y4477154D01*
X7404985Y4517141D02*
X7414982Y4527138D01*
X7434975D01*
X7444972Y4517141D01*
Y4477154D01*
X7434975Y4467158D01*
X7414982D01*
X7404985Y4477154D01*
Y4517141D01*
X7205021Y1569952D02*
X7195025Y1579949D01*
X7175031D01*
X7165034Y1569952D01*
Y1529965D01*
X7175031Y1519969D01*
X7195025D01*
X7205021Y1529965D01*
X7225015Y1519969D02*
X7245009D01*
X7235012D01*
Y1579949D01*
X7225015Y1569952D01*
X7274999D02*
X7284995Y1579949D01*
X7304989D01*
X7314986Y1569952D01*
Y1559955D01*
X7304989Y1549959D01*
X7294992D01*
X7304989D01*
X7314986Y1539962D01*
Y1529965D01*
X7304989Y1519969D01*
X7284995D01*
X7274999Y1529965D01*
X7334979Y1569952D02*
X7344976Y1579949D01*
X7364970D01*
X7374966Y1569952D01*
Y1529965D01*
X7364970Y1519969D01*
X7344976D01*
X7334979Y1529965D01*
Y1569952D01*
X7035018Y2619993D02*
X7025021Y2629990D01*
X7005028D01*
X6995031Y2619993D01*
Y2580006D01*
X7005028Y2570010D01*
X7025021D01*
X7035018Y2580006D01*
X7055012Y2570010D02*
X7075005D01*
X7065008D01*
Y2629990D01*
X7055012Y2619993D01*
X7104995D02*
X7114992Y2629990D01*
X7134985D01*
X7144982Y2619993D01*
Y2609997D01*
X7134985Y2600000D01*
X7124989D01*
X7134985D01*
X7144982Y2590003D01*
Y2580006D01*
X7134985Y2570010D01*
X7114992D01*
X7104995Y2580006D01*
X7164976Y2570010D02*
X7184969D01*
X7174972D01*
Y2629990D01*
X7164976Y2619993D01*
X3330007Y785021D02*
X3320010Y775025D01*
Y755031D01*
X3330007Y745034D01*
X3369994D01*
X3379990Y755031D01*
Y775025D01*
X3369994Y785021D01*
X3379990Y805015D02*
Y825009D01*
Y815012D01*
X3320010D01*
X3330007Y805015D01*
Y854999D02*
X3320010Y864995D01*
Y884989D01*
X3330007Y894986D01*
X3340003D01*
X3350000Y884989D01*
Y874992D01*
Y884989D01*
X3359997Y894986D01*
X3369994D01*
X3379990Y884989D01*
Y864995D01*
X3369994Y854999D01*
X3379990Y954966D02*
Y914979D01*
X3340003Y954966D01*
X3330007D01*
X3320010Y944969D01*
Y924976D01*
X3330007Y914979D01*
X5665022Y1960035D02*
X5655025Y1970032D01*
X5635031D01*
X5625035Y1960035D01*
Y1920048D01*
X5635031Y1910051D01*
X5655025D01*
X5665022Y1920048D01*
X5685015Y1910051D02*
X5705009D01*
X5695012D01*
Y1970032D01*
X5685015Y1960035D01*
X5734999D02*
X5744996Y1970032D01*
X5764989D01*
X5774986Y1960035D01*
Y1950038D01*
X5764989Y1940041D01*
X5754993D01*
X5764989D01*
X5774986Y1930045D01*
Y1920048D01*
X5764989Y1910051D01*
X5744996D01*
X5734999Y1920048D01*
X5824970Y1910051D02*
Y1970032D01*
X5794980Y1940041D01*
X5834966D01*
X5665022Y2380035D02*
X5655025Y2390032D01*
X5635031D01*
X5625035Y2380035D01*
Y2340048D01*
X5635031Y2330051D01*
X5655025D01*
X5665022Y2340048D01*
X5685015Y2330051D02*
X5705009D01*
X5695012D01*
Y2390032D01*
X5685015Y2380035D01*
X5734999D02*
X5744996Y2390032D01*
X5764989D01*
X5774986Y2380035D01*
Y2370038D01*
X5764989Y2360041D01*
X5754993D01*
X5764989D01*
X5774986Y2350045D01*
Y2340048D01*
X5764989Y2330051D01*
X5744996D01*
X5734999Y2340048D01*
X5834966Y2390032D02*
X5794980D01*
Y2360041D01*
X5814973Y2370038D01*
X5824970D01*
X5834966Y2360041D01*
Y2340048D01*
X5824970Y2330051D01*
X5804976D01*
X5794980Y2340048D01*
X6930048Y4665021D02*
X6920051Y4655024D01*
Y4635031D01*
X6930048Y4625034D01*
X6970035D01*
X6980031Y4635031D01*
Y4655024D01*
X6970035Y4665021D01*
X6980031Y4685015D02*
Y4705008D01*
Y4695011D01*
X6920051D01*
X6930048Y4685015D01*
Y4734998D02*
X6920051Y4744995D01*
Y4764988D01*
X6930048Y4774985D01*
X6940044D01*
X6950041Y4764988D01*
Y4754992D01*
Y4764988D01*
X6960038Y4774985D01*
X6970035D01*
X6980031Y4764988D01*
Y4744995D01*
X6970035Y4734998D01*
X6920051Y4834966D02*
X6930048Y4814972D01*
X6950041Y4794979D01*
X6970035D01*
X6980031Y4804975D01*
Y4824969D01*
X6970035Y4834966D01*
X6960038D01*
X6950041Y4824969D01*
Y4794979D01*
X6750026Y1220010D02*
Y1279991D01*
X6780016D01*
X6790013Y1269994D01*
Y1250000D01*
X6780016Y1240004D01*
X6750026D01*
X6770020D02*
X6790013Y1220010D01*
X6810007Y1279991D02*
X6849994D01*
Y1269994D01*
X6810007Y1230007D01*
Y1220010D01*
X6869987Y1230007D02*
X6879984Y1220010D01*
X6899978D01*
X6909974Y1230007D01*
Y1269994D01*
X6899978Y1279991D01*
X6879984D01*
X6869987Y1269994D01*
Y1259997D01*
X6879984Y1250000D01*
X6909974D01*
X5690026Y1130010D02*
Y1189991D01*
X5720016D01*
X5730013Y1179994D01*
Y1160000D01*
X5720016Y1150004D01*
X5690026D01*
X5710019D02*
X5730013Y1130010D01*
X5750006Y1179994D02*
X5760003Y1189991D01*
X5779997D01*
X5789993Y1179994D01*
Y1169997D01*
X5779997Y1160000D01*
X5789993Y1150004D01*
Y1140007D01*
X5779997Y1130010D01*
X5760003D01*
X5750006Y1140007D01*
Y1150004D01*
X5760003Y1160000D01*
X5750006Y1169997D01*
Y1179994D01*
X5760003Y1160000D02*
X5779997D01*
X5809987Y1179994D02*
X5819984Y1189991D01*
X5839977D01*
X5849974Y1179994D01*
Y1140007D01*
X5839977Y1130010D01*
X5819984D01*
X5809987Y1140007D01*
Y1179994D01*
X4650027Y1010010D02*
Y1069990D01*
X4680017D01*
X4690013Y1059994D01*
Y1040000D01*
X4680017Y1030004D01*
X4650027D01*
X4670020D02*
X4690013Y1010010D01*
X4710007Y1059994D02*
X4720004Y1069990D01*
X4739997D01*
X4749994Y1059994D01*
Y1049997D01*
X4739997Y1040000D01*
X4749994Y1030004D01*
Y1020007D01*
X4739997Y1010010D01*
X4720004D01*
X4710007Y1020007D01*
Y1030004D01*
X4720004Y1040000D01*
X4710007Y1049997D01*
Y1059994D01*
X4720004Y1040000D02*
X4739997D01*
X4809975Y1010010D02*
X4769988D01*
X4809975Y1049997D01*
Y1059994D01*
X4799978Y1069990D01*
X4779984D01*
X4769988Y1059994D01*
X4719990Y650026D02*
X4660009D01*
Y680016D01*
X4670006Y690013D01*
X4690000D01*
X4699996Y680016D01*
Y650026D01*
Y670019D02*
X4719990Y690013D01*
X4670006Y710006D02*
X4660009Y720003D01*
Y739997D01*
X4670006Y749993D01*
X4680003D01*
X4690000Y739997D01*
X4699996Y749993D01*
X4709993D01*
X4719990Y739997D01*
Y720003D01*
X4709993Y710006D01*
X4699996D01*
X4690000Y720003D01*
X4680003Y710006D01*
X4670006D01*
X4690000Y720003D02*
Y739997D01*
X4670006Y769987D02*
X4660009Y779984D01*
Y799977D01*
X4670006Y809974D01*
X4680003D01*
X4690000Y799977D01*
Y789981D01*
Y799977D01*
X4699996Y809974D01*
X4709993D01*
X4719990Y799977D01*
Y779984D01*
X4709993Y769987D01*
X6179990Y4625034D02*
X6120009D01*
Y4655024D01*
X6130006Y4665021D01*
X6150000D01*
X6159996Y4655024D01*
Y4625034D01*
Y4645028D02*
X6179990Y4665021D01*
Y4685015D02*
Y4705008D01*
Y4695011D01*
X6120009D01*
X6130006Y4685015D01*
X6179990Y4774985D02*
Y4734998D01*
X6140003Y4774985D01*
X6130006D01*
X6120009Y4764988D01*
Y4744995D01*
X6130006Y4734998D01*
X6179990Y4824969D02*
X6120009D01*
X6150000Y4794979D01*
Y4834966D01*
X6279990Y4625034D02*
X6220009D01*
Y4655024D01*
X6230006Y4665021D01*
X6250000D01*
X6259996Y4655024D01*
Y4625034D01*
Y4645028D02*
X6279990Y4665021D01*
Y4685015D02*
Y4705008D01*
Y4695011D01*
X6220009D01*
X6230006Y4685015D01*
X6279990Y4774985D02*
Y4734998D01*
X6240003Y4774985D01*
X6230006D01*
X6220009Y4764988D01*
Y4744995D01*
X6230006Y4734998D01*
X6220009Y4834966D02*
Y4794979D01*
X6250000D01*
X6240003Y4814972D01*
Y4824969D01*
X6250000Y4834966D01*
X6269993D01*
X6279990Y4824969D01*
Y4804975D01*
X6269993Y4794979D01*
X6379990Y4625034D02*
X6320009D01*
Y4655024D01*
X6330006Y4665021D01*
X6350000D01*
X6359996Y4655024D01*
Y4625034D01*
Y4645028D02*
X6379990Y4665021D01*
Y4685015D02*
Y4705008D01*
Y4695011D01*
X6320009D01*
X6330006Y4685015D01*
X6379990Y4774985D02*
Y4734998D01*
X6340003Y4774985D01*
X6330006D01*
X6320009Y4764988D01*
Y4744995D01*
X6330006Y4734998D01*
X6320009Y4834966D02*
X6330006Y4814972D01*
X6350000Y4794979D01*
X6369993D01*
X6379990Y4804975D01*
Y4824969D01*
X6369993Y4834966D01*
X6359996D01*
X6350000Y4824969D01*
Y4794979D01*
X6499990Y4625034D02*
X6440009D01*
Y4655024D01*
X6450006Y4665021D01*
X6470000D01*
X6479996Y4655024D01*
Y4625034D01*
Y4645028D02*
X6499990Y4665021D01*
Y4685015D02*
Y4705008D01*
Y4695011D01*
X6440009D01*
X6450006Y4685015D01*
X6499990Y4774985D02*
Y4734998D01*
X6460003Y4774985D01*
X6450006D01*
X6440009Y4764988D01*
Y4744995D01*
X6450006Y4734998D01*
X6440009Y4794979D02*
Y4834966D01*
X6450006D01*
X6489993Y4794979D01*
X6499990D01*
X6800023Y4437138D02*
Y4387154D01*
X6810019Y4377157D01*
X6830013D01*
X6840010Y4387154D01*
Y4437138D01*
X6860003Y4427141D02*
X6870000Y4437138D01*
X6889994D01*
X6899990Y4427141D01*
Y4417144D01*
X6889994Y4407147D01*
X6879997D01*
X6889994D01*
X6899990Y4397151D01*
Y4387154D01*
X6889994Y4377157D01*
X6870000D01*
X6860003Y4387154D01*
X6919984Y4377157D02*
X6939977D01*
X6929981D01*
Y4437138D01*
X6919984Y4427141D01*
X6901394Y3893652D02*
Y3843668D01*
X6911391Y3833671D01*
X6931384D01*
X6941381Y3843668D01*
Y3893652D01*
X6961375Y3883655D02*
X6971371Y3893652D01*
X6991365D01*
X7001362Y3883655D01*
Y3873658D01*
X6991365Y3863661D01*
X6981368D01*
X6991365D01*
X7001362Y3853665D01*
Y3843668D01*
X6991365Y3833671D01*
X6971371D01*
X6961375Y3843668D01*
X7021355Y3883655D02*
X7031352Y3893652D01*
X7051346D01*
X7061342Y3883655D01*
Y3873658D01*
X7051346Y3863661D01*
X7041349D01*
X7051346D01*
X7061342Y3853665D01*
Y3843668D01*
X7051346Y3833671D01*
X7031352D01*
X7021355Y3843668D01*
X6501394Y3893652D02*
Y3843668D01*
X6511391Y3833672D01*
X6531384D01*
X6541381Y3843668D01*
Y3893652D01*
X6561375Y3883655D02*
X6571371Y3893652D01*
X6591365D01*
X6601362Y3883655D01*
Y3873658D01*
X6591365Y3863662D01*
X6581368D01*
X6591365D01*
X6601362Y3853665D01*
Y3843668D01*
X6591365Y3833672D01*
X6571371D01*
X6561375Y3843668D01*
X6661342Y3893652D02*
X6621355D01*
Y3863662D01*
X6641349Y3873658D01*
X6651346D01*
X6661342Y3863662D01*
Y3843668D01*
X6651346Y3833672D01*
X6631352D01*
X6621355Y3843668D01*
X5140016Y3480010D02*
Y3539990D01*
X5160010Y3519997D01*
X5180003Y3539990D01*
Y3480010D01*
X5239984D02*
X5199997D01*
X5239984Y3519997D01*
Y3529993D01*
X5229987Y3539990D01*
X5209994D01*
X5199997Y3529993D01*
X7675021Y2230034D02*
X7665025Y2240031D01*
X7645031D01*
X7635034Y2230034D01*
Y2190047D01*
X7645031Y2180051D01*
X7665025D01*
X7675021Y2190047D01*
X7695015Y2180051D02*
X7715008D01*
X7705012D01*
Y2240031D01*
X7695015Y2230034D01*
X7784985Y2180051D02*
X7744998D01*
X7784985Y2220038D01*
Y2230034D01*
X7774989Y2240031D01*
X7754995D01*
X7744998Y2230034D01*
X7804979D02*
X7814976Y2240031D01*
X7834969D01*
X7844966Y2230034D01*
Y2190047D01*
X7834969Y2180051D01*
X7814976D01*
X7804979Y2190047D01*
Y2230034D01*
X7745018Y3350034D02*
X7735021Y3360031D01*
X7715027D01*
X7705031Y3350034D01*
Y3310047D01*
X7715027Y3300051D01*
X7735021D01*
X7745018Y3310047D01*
X7765011Y3300051D02*
X7785005D01*
X7775008D01*
Y3360031D01*
X7765011Y3350034D01*
X7854982Y3300051D02*
X7814995D01*
X7854982Y3340038D01*
Y3350034D01*
X7844985Y3360031D01*
X7824992D01*
X7814995Y3350034D01*
X7874976Y3300051D02*
X7894969D01*
X7884972D01*
Y3360031D01*
X7874976Y3350034D01*
X2749990Y4650026D02*
X2690010D01*
Y4680016D01*
X2700007Y4690013D01*
X2720000D01*
X2729997Y4680016D01*
Y4650026D01*
Y4670020D02*
X2749990Y4690013D01*
X2739994Y4710007D02*
X2749990Y4720003D01*
Y4739997D01*
X2739994Y4749994D01*
X2700007D01*
X2690010Y4739997D01*
Y4720003D01*
X2700007Y4710007D01*
X2710003D01*
X2720000Y4720003D01*
Y4749994D01*
X2700007Y4769987D02*
X2690010Y4779984D01*
Y4799977D01*
X2700007Y4809974D01*
X2710003D01*
X2720000Y4799977D01*
Y4789981D01*
Y4799977D01*
X2729997Y4809974D01*
X2739994D01*
X2749990Y4799977D01*
Y4779984D01*
X2739994Y4769987D01*
X7205021Y1209952D02*
X7195025Y1219949D01*
X7175031D01*
X7165034Y1209952D01*
Y1169965D01*
X7175031Y1159968D01*
X7195025D01*
X7205021Y1169965D01*
X7225015Y1159968D02*
X7245009D01*
X7235012D01*
Y1219949D01*
X7225015Y1209952D01*
X7274999D02*
X7284995Y1219949D01*
X7304989D01*
X7314986Y1209952D01*
Y1199955D01*
X7304989Y1189958D01*
X7294992D01*
X7304989D01*
X7314986Y1179962D01*
Y1169965D01*
X7304989Y1159968D01*
X7284995D01*
X7274999Y1169965D01*
X7334979Y1219949D02*
X7374966D01*
Y1209952D01*
X7334979Y1169965D01*
Y1159968D01*
X7205021Y909952D02*
X7195025Y919949D01*
X7175031D01*
X7165034Y909952D01*
Y869965D01*
X7175031Y859968D01*
X7195025D01*
X7205021Y869965D01*
X7225015Y859968D02*
X7245009D01*
X7235012D01*
Y919949D01*
X7225015Y909952D01*
X7274999D02*
X7284995Y919949D01*
X7304989D01*
X7314986Y909952D01*
Y899955D01*
X7304989Y889959D01*
X7294992D01*
X7304989D01*
X7314986Y879962D01*
Y869965D01*
X7304989Y859968D01*
X7284995D01*
X7274999Y869965D01*
X7334979Y909952D02*
X7344976Y919949D01*
X7364970D01*
X7374966Y909952D01*
Y899955D01*
X7364970Y889959D01*
X7374966Y879962D01*
Y869965D01*
X7364970Y859968D01*
X7344976D01*
X7334979Y869965D01*
Y879962D01*
X7344976Y889959D01*
X7334979Y899955D01*
Y909952D01*
X7344976Y889959D02*
X7364970D01*
X6765021Y910035D02*
X6755025Y920031D01*
X6735031D01*
X6725034Y910035D01*
Y870048D01*
X6735031Y860051D01*
X6755025D01*
X6765021Y870048D01*
X6785015Y860051D02*
X6805008D01*
X6795012D01*
Y920031D01*
X6785015Y910035D01*
X6834999D02*
X6844995Y920031D01*
X6864989D01*
X6874985Y910035D01*
Y900038D01*
X6864989Y890041D01*
X6854992D01*
X6864989D01*
X6874985Y880044D01*
Y870048D01*
X6864989Y860051D01*
X6844995D01*
X6834999Y870048D01*
X6894979D02*
X6904976Y860051D01*
X6924969D01*
X6934966Y870048D01*
Y910035D01*
X6924969Y920031D01*
X6904976D01*
X6894979Y910035D01*
Y900038D01*
X6904976Y890041D01*
X6934966D01*
X3824990Y2898016D02*
X3765009D01*
Y2928006D01*
X3775006Y2938003D01*
X3795000D01*
X3804996Y2928006D01*
Y2898016D01*
X3775006Y2957996D02*
X3765009Y2967993D01*
Y2987986D01*
X3775006Y2997983D01*
X3785003D01*
X3795000Y2987986D01*
Y2977990D01*
Y2987986D01*
X3804996Y2997983D01*
X3814993D01*
X3824990Y2987986D01*
Y2967993D01*
X3814993Y2957996D01*
X2969990Y4625034D02*
X2910009D01*
Y4655024D01*
X2920006Y4665021D01*
X2940000D01*
X2949996Y4655024D01*
Y4625034D01*
Y4645028D02*
X2969990Y4665021D01*
Y4685015D02*
Y4705008D01*
Y4695011D01*
X2910009D01*
X2920006Y4685015D01*
Y4734998D02*
X2910009Y4744995D01*
Y4764988D01*
X2920006Y4774985D01*
X2959993D01*
X2969990Y4764988D01*
Y4744995D01*
X2959993Y4734998D01*
X2920006D01*
X2910009Y4794979D02*
Y4834966D01*
X2920006D01*
X2959993Y4794979D01*
X2969990D01*
X6029990Y1610026D02*
X5970010D01*
Y1640016D01*
X5980007Y1650013D01*
X6000000D01*
X6009997Y1640016D01*
Y1610026D01*
Y1630020D02*
X6029990Y1650013D01*
Y1709994D02*
Y1670007D01*
X5990004Y1709994D01*
X5980007D01*
X5970010Y1699997D01*
Y1680003D01*
X5980007Y1670007D01*
X5970010Y1769974D02*
Y1729987D01*
X6000000D01*
X5990004Y1749981D01*
Y1759977D01*
X6000000Y1769974D01*
X6019994D01*
X6029990Y1759977D01*
Y1739984D01*
X6019994Y1729987D01*
X4655021Y4360034D02*
X4645025Y4370031D01*
X4625031D01*
X4615034Y4360034D01*
Y4320047D01*
X4625031Y4310051D01*
X4645025D01*
X4655021Y4320047D01*
X4675015Y4310051D02*
X4695009D01*
X4685012D01*
Y4370031D01*
X4675015Y4360034D01*
X4724999D02*
X4734995Y4370031D01*
X4754989D01*
X4764986Y4360034D01*
Y4350038D01*
X4754989Y4340041D01*
X4744992D01*
X4754989D01*
X4764986Y4330044D01*
Y4320047D01*
X4754989Y4310051D01*
X4734995D01*
X4724999Y4320047D01*
X4784979Y4360034D02*
X4794976Y4370031D01*
X4814970D01*
X4824966Y4360034D01*
Y4350038D01*
X4814970Y4340041D01*
X4804973D01*
X4814970D01*
X4824966Y4330044D01*
Y4320047D01*
X4814970Y4310051D01*
X4794976D01*
X4784979Y4320047D01*
X4879966Y3425018D02*
X4869969Y3415021D01*
Y3395028D01*
X4879966Y3385031D01*
X4919953D01*
X4929949Y3395028D01*
Y3415021D01*
X4919953Y3425018D01*
X4929949Y3445012D02*
Y3465005D01*
Y3455008D01*
X4869969D01*
X4879966Y3445012D01*
X4929949Y3524986D02*
X4869969D01*
X4899959Y3494995D01*
Y3534982D01*
X4929949Y3554976D02*
Y3574969D01*
Y3564973D01*
X4869969D01*
X4879966Y3554976D01*
X3930007Y3685021D02*
X3920010Y3675025D01*
Y3655031D01*
X3930007Y3645034D01*
X3969994D01*
X3979990Y3655031D01*
Y3675025D01*
X3969994Y3685021D01*
X3979990Y3705015D02*
Y3725009D01*
Y3715012D01*
X3920010D01*
X3930007Y3705015D01*
X3979990Y3784989D02*
X3920010D01*
X3950000Y3754999D01*
Y3794986D01*
X3920010Y3854966D02*
Y3814979D01*
X3950000D01*
X3940003Y3834973D01*
Y3844969D01*
X3950000Y3854966D01*
X3969994D01*
X3979990Y3844969D01*
Y3824976D01*
X3969994Y3814979D01*
X3710006Y4185021D02*
X3700009Y4175024D01*
Y4155031D01*
X3710006Y4145034D01*
X3749993D01*
X3759990Y4155031D01*
Y4175024D01*
X3749993Y4185021D01*
X3759990Y4205014D02*
Y4225008D01*
Y4215011D01*
X3700009D01*
X3710006Y4205014D01*
X3759990Y4284988D02*
X3700009D01*
X3730000Y4254998D01*
Y4294985D01*
X3700009Y4354966D02*
X3710006Y4334972D01*
X3730000Y4314979D01*
X3749993D01*
X3759990Y4324975D01*
Y4344969D01*
X3749993Y4354966D01*
X3739996D01*
X3730000Y4344969D01*
Y4314979D01*
X5460006Y3975021D02*
X5450009Y3965024D01*
Y3945031D01*
X5460006Y3935034D01*
X5499993D01*
X5509990Y3945031D01*
Y3965024D01*
X5499993Y3975021D01*
X5509990Y3995015D02*
Y4015008D01*
Y4005011D01*
X5450009D01*
X5460006Y3995015D01*
X5509990Y4074989D02*
X5450009D01*
X5480000Y4044998D01*
Y4084985D01*
X5450009Y4104979D02*
Y4144966D01*
X5460006D01*
X5499993Y4104979D01*
X5509990D01*
X5999966Y4225021D02*
X5989969Y4215025D01*
Y4195031D01*
X5999966Y4185034D01*
X6039953D01*
X6049949Y4195031D01*
Y4215025D01*
X6039953Y4225021D01*
X6049949Y4245015D02*
Y4265008D01*
Y4255012D01*
X5989969D01*
X5999966Y4245015D01*
X6049949Y4324989D02*
X5989969D01*
X6019959Y4294999D01*
Y4334985D01*
X5999966Y4354979D02*
X5989969Y4364976D01*
Y4384969D01*
X5999966Y4394966D01*
X6009962D01*
X6019959Y4384969D01*
X6029956Y4394966D01*
X6039953D01*
X6049949Y4384969D01*
Y4364976D01*
X6039953Y4354979D01*
X6029956D01*
X6019959Y4364976D01*
X6009962Y4354979D01*
X5999966D01*
X6019959Y4364976D02*
Y4384969D01*
X5460048Y4225021D02*
X5450051Y4215025D01*
Y4195031D01*
X5460048Y4185034D01*
X5500035D01*
X5510032Y4195031D01*
Y4215025D01*
X5500035Y4225021D01*
X5510032Y4245015D02*
Y4265008D01*
Y4255012D01*
X5450051D01*
X5460048Y4245015D01*
X5510032Y4324989D02*
X5450051D01*
X5480042Y4294999D01*
Y4334985D01*
X5500035Y4354979D02*
X5510032Y4364976D01*
Y4384969D01*
X5500035Y4394966D01*
X5460048D01*
X5450051Y4384969D01*
Y4364976D01*
X5460048Y4354979D01*
X5470045D01*
X5480042Y4364976D01*
Y4394966D01*
X7780026Y4910010D02*
Y4969990D01*
X7820013Y4910010D01*
Y4969990D01*
X7840007D02*
X7879994D01*
X7860000D01*
Y4910010D01*
X7939974D02*
X7899987D01*
X7939974Y4949997D01*
Y4959993D01*
X7929978Y4969990D01*
X7909984D01*
X7899987Y4959993D01*
X5709991Y4185034D02*
X5650010D01*
Y4215025D01*
X5660007Y4225021D01*
X5680001D01*
X5689997Y4215025D01*
Y4185034D01*
Y4205028D02*
X5709991Y4225021D01*
Y4245015D02*
Y4265008D01*
Y4255012D01*
X5650010D01*
X5660007Y4245015D01*
X5709991Y4334985D02*
Y4294999D01*
X5670004Y4334985D01*
X5660007D01*
X5650010Y4324989D01*
Y4304995D01*
X5660007Y4294999D01*
Y4354979D02*
X5650010Y4364976D01*
Y4384969D01*
X5660007Y4394966D01*
X5670004D01*
X5680001Y4384969D01*
X5689997Y4394966D01*
X5699994D01*
X5709991Y4384969D01*
Y4364976D01*
X5699994Y4354979D01*
X5689997D01*
X5680001Y4364976D01*
X5670004Y4354979D01*
X5660007D01*
X5680001Y4364976D02*
Y4384969D01*
X5755034Y4210010D02*
Y4269990D01*
X5785025D01*
X5795021Y4259993D01*
Y4240000D01*
X5785025Y4230003D01*
X5755034D01*
X5775028D02*
X5795021Y4210010D01*
X5815015D02*
X5835009D01*
X5825012D01*
Y4269990D01*
X5815015Y4259993D01*
X5904986Y4210010D02*
X5864999D01*
X5904986Y4249997D01*
Y4259993D01*
X5894989Y4269990D01*
X5874995D01*
X5864999Y4259993D01*
X5924979Y4220006D02*
X5934976Y4210010D01*
X5954970D01*
X5964966Y4220006D01*
Y4259993D01*
X5954970Y4269990D01*
X5934976D01*
X5924979Y4259993D01*
Y4249997D01*
X5934976Y4240000D01*
X5964966D01*
X5609991Y4185034D02*
X5550010D01*
Y4215025D01*
X5560007Y4225021D01*
X5580001D01*
X5589997Y4215025D01*
Y4185034D01*
Y4205028D02*
X5609991Y4225021D01*
Y4245015D02*
Y4265008D01*
Y4255012D01*
X5550010D01*
X5560007Y4245015D01*
Y4294999D02*
X5550010Y4304995D01*
Y4324989D01*
X5560007Y4334985D01*
X5570004D01*
X5580001Y4324989D01*
Y4314992D01*
Y4324989D01*
X5589997Y4334985D01*
X5599994D01*
X5609991Y4324989D01*
Y4304995D01*
X5599994Y4294999D01*
X5560007Y4354979D02*
X5550010Y4364976D01*
Y4384969D01*
X5560007Y4394966D01*
X5599994D01*
X5609991Y4384969D01*
Y4364976D01*
X5599994Y4354979D01*
X5560007D01*
X5189657Y3580026D02*
X5239641D01*
X5249638Y3590023D01*
Y3610016D01*
X5239641Y3620013D01*
X5189657D01*
X5199654Y3640007D02*
X5189657Y3650003D01*
Y3669997D01*
X5199654Y3679994D01*
X5209651D01*
X5219647Y3669997D01*
Y3660000D01*
Y3669997D01*
X5229644Y3679994D01*
X5239641D01*
X5249638Y3669997D01*
Y3650003D01*
X5239641Y3640007D01*
X5249638Y3739974D02*
Y3699987D01*
X5209651Y3739974D01*
X5199654D01*
X5189657Y3729978D01*
Y3709984D01*
X5199654Y3699987D01*
X2620007Y3755021D02*
X2610010Y3745025D01*
Y3725031D01*
X2620007Y3715034D01*
X2659994D01*
X2669990Y3725031D01*
Y3745025D01*
X2659994Y3755021D01*
X2669990Y3775015D02*
Y3795008D01*
Y3785011D01*
X2610010D01*
X2620007Y3775015D01*
X2610010Y3864985D02*
Y3824998D01*
X2640000D01*
X2630003Y3844992D01*
Y3854989D01*
X2640000Y3864985D01*
X2659994D01*
X2669990Y3854989D01*
Y3834995D01*
X2659994Y3824998D01*
X2669990Y3914969D02*
X2610010D01*
X2640000Y3884979D01*
Y3924966D01*
X3540006Y4030013D02*
X3530009Y4020016D01*
Y4000022D01*
X3540006Y3990026D01*
X3579993D01*
X3589990Y4000022D01*
Y4020016D01*
X3579993Y4030013D01*
Y4050006D02*
X3589990Y4060003D01*
Y4079997D01*
X3579993Y4089993D01*
X3540006D01*
X3530009Y4079997D01*
Y4060003D01*
X3540006Y4050006D01*
X3550003D01*
X3560000Y4060003D01*
Y4089993D01*
X3540006Y4109987D02*
X3530009Y4119984D01*
Y4139977D01*
X3540006Y4149974D01*
X3550003D01*
X3560000Y4139977D01*
X3569996Y4149974D01*
X3579993D01*
X3589990Y4139977D01*
Y4119984D01*
X3579993Y4109987D01*
X3569996D01*
X3560000Y4119984D01*
X3550003Y4109987D01*
X3540006D01*
X3560000Y4119984D02*
Y4139977D01*
X4870017Y2954990D02*
Y2905006D01*
X4880013Y2895010D01*
X4900007D01*
X4910004Y2905006D01*
Y2954990D01*
X4959988Y2895010D02*
Y2954990D01*
X4929997Y2925000D01*
X4969984D01*
X7255379Y2629992D02*
Y2580008D01*
X7265376Y2570011D01*
X7285369D01*
X7295366Y2580008D01*
Y2629992D01*
X7315360Y2619995D02*
X7325356Y2629992D01*
X7345350D01*
X7355347Y2619995D01*
Y2609998D01*
X7345350Y2600001D01*
X7335353D01*
X7345350D01*
X7355347Y2590005D01*
Y2580008D01*
X7345350Y2570011D01*
X7325356D01*
X7315360Y2580008D01*
X7415327Y2629992D02*
X7395334Y2619995D01*
X7375340Y2600001D01*
Y2580008D01*
X7385337Y2570011D01*
X7405331D01*
X7415327Y2580008D01*
Y2590005D01*
X7405331Y2600001D01*
X7375340D01*
X7462376Y1184992D02*
Y1135008D01*
X7472372Y1125011D01*
X7492366D01*
X7502363Y1135008D01*
Y1184992D01*
X7552347Y1125011D02*
Y1184992D01*
X7522356Y1155002D01*
X7562343D01*
X7582337Y1125011D02*
X7602330D01*
X7592334D01*
Y1184992D01*
X7582337Y1174995D01*
X6365378Y1329992D02*
Y1280008D01*
X6375375Y1270011D01*
X6395368D01*
X6405365Y1280008D01*
Y1329992D01*
X6425358Y1319995D02*
X6435355Y1329992D01*
X6455349D01*
X6465345Y1319995D01*
Y1309998D01*
X6455349Y1300001D01*
X6445352D01*
X6455349D01*
X6465345Y1290005D01*
Y1280008D01*
X6455349Y1270011D01*
X6435355D01*
X6425358Y1280008D01*
X6515329Y1270011D02*
Y1329992D01*
X6485339Y1300001D01*
X6525326D01*
X7255379Y2159992D02*
Y2110008D01*
X7265376Y2100011D01*
X7285369D01*
X7295366Y2110008D01*
Y2159992D01*
X7315360Y2149995D02*
X7325356Y2159992D01*
X7345350D01*
X7355347Y2149995D01*
Y2139998D01*
X7345350Y2130001D01*
X7335353D01*
X7345350D01*
X7355347Y2120005D01*
Y2110008D01*
X7345350Y2100011D01*
X7325356D01*
X7315360Y2110008D01*
X7375340Y2149995D02*
X7385337Y2159992D01*
X7405331D01*
X7415327Y2149995D01*
Y2139998D01*
X7405331Y2130001D01*
X7415327Y2120005D01*
Y2110008D01*
X7405331Y2100011D01*
X7385337D01*
X7375340Y2110008D01*
Y2120005D01*
X7385337Y2130001D01*
X7375340Y2139998D01*
Y2149995D01*
X7385337Y2130001D02*
X7405331D01*
X6145379Y2229992D02*
Y2180008D01*
X6155376Y2170011D01*
X6175370D01*
X6185366Y2180008D01*
Y2229992D01*
X6235350Y2170011D02*
Y2229992D01*
X6205360Y2200001D01*
X6245347D01*
X6265341Y2219995D02*
X6275337Y2229992D01*
X6295331D01*
X6305327Y2219995D01*
Y2180008D01*
X6295331Y2170011D01*
X6275337D01*
X6265341Y2180008D01*
Y2219995D01*
X6358378Y864991D02*
Y815008D01*
X6368375Y805011D01*
X6388369D01*
X6398365Y815008D01*
Y864991D01*
X6418359Y854994D02*
X6428356Y864991D01*
X6448349D01*
X6458346Y854994D01*
Y844998D01*
X6448349Y835001D01*
X6438353D01*
X6448349D01*
X6458346Y825004D01*
Y815008D01*
X6448349Y805011D01*
X6428356D01*
X6418359Y815008D01*
X6478340Y864991D02*
X6518327D01*
Y854994D01*
X6478340Y815008D01*
Y805011D01*
X5320026Y1069990D02*
Y1020006D01*
X5330023Y1010010D01*
X5350016D01*
X5360013Y1020006D01*
Y1069990D01*
X5380007Y1059993D02*
X5390003Y1069990D01*
X5409997D01*
X5419994Y1059993D01*
Y1049997D01*
X5409997Y1040000D01*
X5400000D01*
X5409997D01*
X5419994Y1030003D01*
Y1020006D01*
X5409997Y1010010D01*
X5390003D01*
X5380007Y1020006D01*
X5439987D02*
X5449984Y1010010D01*
X5469978D01*
X5479974Y1020006D01*
Y1059993D01*
X5469978Y1069990D01*
X5449984D01*
X5439987Y1059993D01*
Y1049997D01*
X5449984Y1040000D01*
X5479974D01*
X5839965Y2945021D02*
X5829968Y2935025D01*
Y2915031D01*
X5839965Y2905034D01*
X5879952D01*
X5889949Y2915031D01*
Y2935025D01*
X5879952Y2945021D01*
X5889949Y2965015D02*
Y2985009D01*
Y2975012D01*
X5829968D01*
X5839965Y2965015D01*
X5889949Y3044989D02*
X5829968D01*
X5859959Y3014999D01*
Y3054986D01*
X5889949Y3104969D02*
X5829968D01*
X5859959Y3074979D01*
Y3114966D01*
X5615031Y3820010D02*
Y3879990D01*
X5645021D01*
X5655018Y3869993D01*
Y3850000D01*
X5645021Y3840003D01*
X5615031D01*
X5635025D02*
X5655018Y3820010D01*
X5675012D02*
X5695005D01*
X5685008D01*
Y3879990D01*
X5675012Y3869993D01*
X5724995D02*
X5734992Y3879990D01*
X5754985D01*
X5764982Y3869993D01*
Y3859997D01*
X5754985Y3850000D01*
X5744989D01*
X5754985D01*
X5764982Y3840003D01*
Y3830006D01*
X5754985Y3820010D01*
X5734992D01*
X5724995Y3830006D01*
X5784976Y3820010D02*
X5804969D01*
X5794972D01*
Y3879990D01*
X5784976Y3869993D01*
X5845034Y3820010D02*
Y3879990D01*
X5875025D01*
X5885021Y3869993D01*
Y3850000D01*
X5875025Y3840003D01*
X5845034D01*
X5865028D02*
X5885021Y3820010D01*
X5905015D02*
X5925008D01*
X5915012D01*
Y3879990D01*
X5905015Y3869993D01*
X5954999D02*
X5964995Y3879990D01*
X5984989D01*
X5994985Y3869993D01*
Y3859997D01*
X5984989Y3850000D01*
X5974992D01*
X5984989D01*
X5994985Y3840003D01*
Y3830006D01*
X5984989Y3820010D01*
X5964995D01*
X5954999Y3830006D01*
X6054966Y3820010D02*
X6014979D01*
X6054966Y3859997D01*
Y3869993D01*
X6044969Y3879990D01*
X6024976D01*
X6014979Y3869993D01*
X5570007Y3505021D02*
X5560010Y3495025D01*
Y3475031D01*
X5570007Y3465034D01*
X5609994D01*
X5619990Y3475031D01*
Y3495025D01*
X5609994Y3505021D01*
X5619990Y3525015D02*
Y3545008D01*
Y3535011D01*
X5560010D01*
X5570007Y3525015D01*
X5560010Y3614985D02*
Y3574998D01*
X5590000D01*
X5580003Y3594992D01*
Y3604989D01*
X5590000Y3614985D01*
X5609994D01*
X5619990Y3604989D01*
Y3584995D01*
X5609994Y3574998D01*
X5560010Y3674966D02*
Y3634979D01*
X5590000D01*
X5580003Y3654973D01*
Y3664969D01*
X5590000Y3674966D01*
X5609994D01*
X5619990Y3664969D01*
Y3644976D01*
X5609994Y3634979D01*
X5739965Y2945021D02*
X5729968Y2935025D01*
Y2915031D01*
X5739965Y2905034D01*
X5779952D01*
X5789949Y2915031D01*
Y2935025D01*
X5779952Y2945021D01*
X5789949Y2965015D02*
Y2985009D01*
Y2975012D01*
X5729968D01*
X5739965Y2965015D01*
X5729968Y3054986D02*
Y3014999D01*
X5759959D01*
X5749962Y3034992D01*
Y3044989D01*
X5759959Y3054986D01*
X5779952D01*
X5789949Y3044989D01*
Y3024995D01*
X5779952Y3014999D01*
X5729968Y3114966D02*
X5739965Y3094973D01*
X5759959Y3074979D01*
X5779952D01*
X5789949Y3084976D01*
Y3104969D01*
X5779952Y3114966D01*
X5769955D01*
X5759959Y3104969D01*
Y3074979D01*
X6019966Y3525021D02*
X6009969Y3515024D01*
Y3495031D01*
X6019966Y3485034D01*
X6059953D01*
X6069949Y3495031D01*
Y3515024D01*
X6059953Y3525021D01*
X6069949Y3545015D02*
Y3565008D01*
Y3555011D01*
X6009969D01*
X6019966Y3545015D01*
X6009969Y3634985D02*
Y3594998D01*
X6039959D01*
X6029962Y3614992D01*
Y3624989D01*
X6039959Y3634985D01*
X6059953D01*
X6069949Y3624989D01*
Y3604995D01*
X6059953Y3594998D01*
X6009969Y3654979D02*
Y3694966D01*
X6019966D01*
X6059953Y3654979D01*
X6069949D01*
X4310006Y2240013D02*
X4300009Y2230016D01*
Y2210023D01*
X4310006Y2200026D01*
X4349993D01*
X4359990Y2210023D01*
Y2230016D01*
X4349993Y2240013D01*
X4310006Y2260006D02*
X4300009Y2270003D01*
Y2289997D01*
X4310006Y2299993D01*
X4320003D01*
X4330000Y2289997D01*
X4339996Y2299993D01*
X4349993D01*
X4359990Y2289997D01*
Y2270003D01*
X4349993Y2260006D01*
X4339996D01*
X4330000Y2270003D01*
X4320003Y2260006D01*
X4310006D01*
X4330000Y2270003D02*
Y2289997D01*
X4310006Y2319987D02*
X4300009Y2329984D01*
Y2349977D01*
X4310006Y2359974D01*
X4320003D01*
X4330000Y2349977D01*
X4339996Y2359974D01*
X4349993D01*
X4359990Y2349977D01*
Y2329984D01*
X4349993Y2319987D01*
X4339996D01*
X4330000Y2329984D01*
X4320003Y2319987D01*
X4310006D01*
X4330000Y2329984D02*
Y2349977D01*
X2435011Y1719993D02*
X2425015Y1729990D01*
X2405021D01*
X2395024Y1719993D01*
Y1680006D01*
X2405021Y1670010D01*
X2425015D01*
X2435011Y1680006D01*
X2455005Y1670010D02*
X2474999D01*
X2465002D01*
Y1729990D01*
X2455005Y1719993D01*
X2544976Y1729990D02*
X2504989D01*
Y1700000D01*
X2524982Y1709997D01*
X2534979D01*
X2544976Y1700000D01*
Y1680006D01*
X2534979Y1670010D01*
X2514985D01*
X2504989Y1680006D01*
X2870013Y1399993D02*
X2860016Y1409990D01*
X2840023D01*
X2830026Y1399993D01*
Y1360006D01*
X2840023Y1350010D01*
X2860016D01*
X2870013Y1360006D01*
X2929994Y1350010D02*
X2890007D01*
X2929994Y1389997D01*
Y1399993D01*
X2919997Y1409990D01*
X2900003D01*
X2890007Y1399993D01*
X2979978Y1350010D02*
Y1409990D01*
X2949987Y1380000D01*
X2989974D01*
X2430013Y1949993D02*
X2420016Y1959990D01*
X2400023D01*
X2390026Y1949993D01*
Y1910006D01*
X2400023Y1900010D01*
X2420016D01*
X2430013Y1910006D01*
X2489993Y1900010D02*
X2450007D01*
X2489993Y1939997D01*
Y1949993D01*
X2479997Y1959990D01*
X2460003D01*
X2450007Y1949993D01*
X2509987Y1959990D02*
X2549974D01*
Y1949993D01*
X2509987Y1910006D01*
Y1900010D01*
X2230006Y1400013D02*
X2220010Y1390016D01*
Y1370023D01*
X2230006Y1360026D01*
X2269993D01*
X2279990Y1370023D01*
Y1390016D01*
X2269993Y1400013D01*
X2279990Y1459994D02*
Y1420007D01*
X2240003Y1459994D01*
X2230006D01*
X2220010Y1449997D01*
Y1430003D01*
X2230006Y1420007D01*
Y1479987D02*
X2220010Y1489984D01*
Y1509977D01*
X2230006Y1519974D01*
X2240003D01*
X2250000Y1509977D01*
X2259996Y1519974D01*
X2269993D01*
X2279990Y1509977D01*
Y1489984D01*
X2269993Y1479987D01*
X2259996D01*
X2250000Y1489984D01*
X2240003Y1479987D01*
X2230006D01*
X2250000Y1489984D02*
Y1509977D01*
X2040006Y730013D02*
X2030009Y720016D01*
Y700022D01*
X2040006Y690026D01*
X2079993D01*
X2089990Y700022D01*
Y720016D01*
X2079993Y730013D01*
X2089990Y789993D02*
Y750006D01*
X2050003Y789993D01*
X2040006D01*
X2030009Y779997D01*
Y760003D01*
X2040006Y750006D01*
X2079993Y809987D02*
X2089990Y819984D01*
Y839977D01*
X2079993Y849974D01*
X2040006D01*
X2030009Y839977D01*
Y819984D01*
X2040006Y809987D01*
X2050003D01*
X2060000Y819984D01*
Y849974D01*
X2340047Y1440013D02*
X2330050Y1430016D01*
Y1410023D01*
X2340047Y1400026D01*
X2380034D01*
X2390031Y1410023D01*
Y1430016D01*
X2380034Y1440013D01*
X2340047Y1460006D02*
X2330050Y1470003D01*
Y1489997D01*
X2340047Y1499993D01*
X2350044D01*
X2360041Y1489997D01*
Y1480000D01*
Y1489997D01*
X2370037Y1499993D01*
X2380034D01*
X2390031Y1489997D01*
Y1470003D01*
X2380034Y1460006D01*
X2340047Y1519987D02*
X2330050Y1529984D01*
Y1549977D01*
X2340047Y1559974D01*
X2380034D01*
X2390031Y1549977D01*
Y1529984D01*
X2380034Y1519987D01*
X2340047D01*
X2430010Y1249993D02*
X2420013Y1259990D01*
X2400019D01*
X2390023Y1249993D01*
Y1210006D01*
X2400019Y1200010D01*
X2420013D01*
X2430010Y1210006D01*
X2450003Y1249993D02*
X2460000Y1259990D01*
X2479994D01*
X2489990Y1249993D01*
Y1239997D01*
X2479994Y1230000D01*
X2469997D01*
X2479994D01*
X2489990Y1220003D01*
Y1210006D01*
X2479994Y1200010D01*
X2460000D01*
X2450003Y1210006D01*
X2509984Y1200010D02*
X2529977D01*
X2519980D01*
Y1259990D01*
X2509984Y1249993D01*
X7090048Y3070013D02*
X7080051Y3060016D01*
Y3040022D01*
X7090048Y3030026D01*
X7130035D01*
X7140031Y3040022D01*
Y3060016D01*
X7130035Y3070013D01*
X7090048Y3090006D02*
X7080051Y3100003D01*
Y3119997D01*
X7090048Y3129993D01*
X7100044D01*
X7110041Y3119997D01*
Y3110000D01*
Y3119997D01*
X7120038Y3129993D01*
X7130035D01*
X7140031Y3119997D01*
Y3100003D01*
X7130035Y3090006D01*
X7140031Y3189974D02*
Y3149987D01*
X7100044Y3189974D01*
X7090048D01*
X7080051Y3179977D01*
Y3159984D01*
X7090048Y3149987D01*
X7120013Y3399952D02*
X7110016Y3409949D01*
X7090023D01*
X7080026Y3399952D01*
Y3359965D01*
X7090023Y3349968D01*
X7110016D01*
X7120013Y3359965D01*
X7140007Y3399952D02*
X7150003Y3409949D01*
X7169997D01*
X7179994Y3399952D01*
Y3389955D01*
X7169997Y3379958D01*
X7160000D01*
X7169997D01*
X7179994Y3369962D01*
Y3359965D01*
X7169997Y3349968D01*
X7150003D01*
X7140007Y3359965D01*
X7199987Y3399952D02*
X7209984Y3409949D01*
X7229977D01*
X7239974Y3399952D01*
Y3389955D01*
X7229977Y3379958D01*
X7219981D01*
X7229977D01*
X7239974Y3369962D01*
Y3359965D01*
X7229977Y3349968D01*
X7209984D01*
X7199987Y3359965D01*
X7120013Y3289952D02*
X7110016Y3299949D01*
X7090023D01*
X7080026Y3289952D01*
Y3249965D01*
X7090023Y3239968D01*
X7110016D01*
X7120013Y3249965D01*
X7140007Y3289952D02*
X7150003Y3299949D01*
X7169997D01*
X7179994Y3289952D01*
Y3279955D01*
X7169997Y3269958D01*
X7160000D01*
X7169997D01*
X7179994Y3259962D01*
Y3249965D01*
X7169997Y3239968D01*
X7150003D01*
X7140007Y3249965D01*
X7229977Y3239968D02*
Y3299949D01*
X7199987Y3269958D01*
X7239974D01*
X6339965Y3510013D02*
X6329968Y3500016D01*
Y3480023D01*
X6339965Y3470026D01*
X6379952D01*
X6389949Y3480023D01*
Y3500016D01*
X6379952Y3510013D01*
X6339965Y3530006D02*
X6329968Y3540003D01*
Y3559997D01*
X6339965Y3569993D01*
X6349962D01*
X6359958Y3559997D01*
Y3550000D01*
Y3559997D01*
X6369955Y3569993D01*
X6379952D01*
X6389949Y3559997D01*
Y3540003D01*
X6379952Y3530006D01*
X6329968Y3629974D02*
Y3589987D01*
X6359958D01*
X6349962Y3609981D01*
Y3619977D01*
X6359958Y3629974D01*
X6379952D01*
X6389949Y3619977D01*
Y3599984D01*
X6379952Y3589987D01*
X7810013Y2930035D02*
X7800016Y2940031D01*
X7780023D01*
X7770026Y2930035D01*
Y2890048D01*
X7780023Y2880051D01*
X7800016D01*
X7810013Y2890048D01*
X7830007Y2930035D02*
X7840003Y2940031D01*
X7859997D01*
X7869994Y2930035D01*
Y2920038D01*
X7859997Y2910041D01*
X7850000D01*
X7859997D01*
X7869994Y2900044D01*
Y2890048D01*
X7859997Y2880051D01*
X7840003D01*
X7830007Y2890048D01*
X7929974Y2940031D02*
X7909981Y2930035D01*
X7889987Y2910041D01*
Y2890048D01*
X7899984Y2880051D01*
X7919978D01*
X7929974Y2890048D01*
Y2900044D01*
X7919978Y2910041D01*
X7889987D01*
X5570048Y1200013D02*
X5560051Y1190016D01*
Y1170023D01*
X5570048Y1160026D01*
X5610034D01*
X5620031Y1170023D01*
Y1190016D01*
X5610034Y1200013D01*
X5570048Y1220006D02*
X5560051Y1230003D01*
Y1249997D01*
X5570048Y1259993D01*
X5580044D01*
X5590041Y1249997D01*
Y1240000D01*
Y1249997D01*
X5600038Y1259993D01*
X5610034D01*
X5620031Y1249997D01*
Y1230003D01*
X5610034Y1220006D01*
X5570048Y1279987D02*
X5560051Y1289984D01*
Y1309977D01*
X5570048Y1319974D01*
X5580044D01*
X5590041Y1309977D01*
X5600038Y1319974D01*
X5610034D01*
X5620031Y1309977D01*
Y1289984D01*
X5610034Y1279987D01*
X5600038D01*
X5590041Y1289984D01*
X5580044Y1279987D01*
X5570048D01*
X5590041Y1289984D02*
Y1309977D01*
X7750047Y960013D02*
X7740051Y950016D01*
Y930023D01*
X7750047Y920026D01*
X7790034D01*
X7800031Y930023D01*
Y950016D01*
X7790034Y960013D01*
X7750047Y980006D02*
X7740051Y990003D01*
Y1009997D01*
X7750047Y1019993D01*
X7760044D01*
X7770041Y1009997D01*
Y1000000D01*
Y1009997D01*
X7780038Y1019993D01*
X7790034D01*
X7800031Y1009997D01*
Y990003D01*
X7790034Y980006D01*
Y1039987D02*
X7800031Y1049984D01*
Y1069977D01*
X7790034Y1079974D01*
X7750047D01*
X7740051Y1069977D01*
Y1049984D01*
X7750047Y1039987D01*
X7760044D01*
X7770041Y1049984D01*
Y1079974D01*
X6400014Y1939952D02*
X6390017Y1949949D01*
X6370023D01*
X6360027Y1939952D01*
Y1899965D01*
X6370023Y1889969D01*
X6390017D01*
X6400014Y1899965D01*
X6449998Y1889969D02*
Y1949949D01*
X6420007Y1919959D01*
X6459994D01*
X6479988Y1939952D02*
X6489984Y1949949D01*
X6509978D01*
X6519975Y1939952D01*
Y1899965D01*
X6509978Y1889969D01*
X6489984D01*
X6479988Y1899965D01*
Y1939952D01*
X6410010Y2349952D02*
X6400014Y2359949D01*
X6380020D01*
X6370023Y2349952D01*
Y2309965D01*
X6380020Y2299968D01*
X6400014D01*
X6410010Y2309965D01*
X6459994Y2299968D02*
Y2359949D01*
X6430004Y2329959D01*
X6469991D01*
X6489984Y2299968D02*
X6509978D01*
X6499981D01*
Y2359949D01*
X6489984Y2349952D01*
X2880009Y1700016D02*
X2939990D01*
Y1740003D01*
Y1789987D02*
X2880009D01*
X2910000Y1759997D01*
Y1799984D01*
X3529990Y3190023D02*
X3470010D01*
X3529990Y3230010D01*
X3470010D01*
Y3250003D02*
Y3289990D01*
Y3269997D01*
X3529990D01*
Y3309984D02*
Y3329977D01*
Y3319980D01*
X3470010D01*
X3480007Y3309984D01*
X4119990Y3300026D02*
X4060010D01*
X4119990Y3340013D01*
X4060010D01*
Y3360006D02*
Y3399993D01*
Y3380000D01*
X4119990D01*
Y3449977D02*
X4060010D01*
X4090000Y3419987D01*
Y3459974D01*
X3390026Y2520010D02*
Y2579990D01*
X3430013Y2520010D01*
Y2579990D01*
X3450007D02*
X3489994D01*
X3470000D01*
Y2520010D01*
X3549974Y2579990D02*
X3509987D01*
Y2550000D01*
X3529981Y2559997D01*
X3539977D01*
X3549974Y2550000D01*
Y2530006D01*
X3539977Y2520010D01*
X3519984D01*
X3509987Y2530006D01*
X4119990Y2560026D02*
X4060010D01*
X4119990Y2600013D01*
X4060010D01*
Y2620007D02*
Y2659994D01*
Y2640000D01*
X4119990D01*
X4060010Y2719974D02*
X4070007Y2699981D01*
X4090000Y2679987D01*
X4109994D01*
X4119990Y2689984D01*
Y2709978D01*
X4109994Y2719974D01*
X4099997D01*
X4090000Y2709978D01*
Y2679987D01*
X2329990Y2215024D02*
X2270009D01*
Y2245015D01*
X2280006Y2255011D01*
X2300000D01*
X2309996Y2245015D01*
Y2215024D01*
Y2235018D02*
X2329990Y2255011D01*
Y2275005D02*
Y2294998D01*
Y2285002D01*
X2270009D01*
X2280006Y2275005D01*
Y2324988D02*
X2270009Y2334985D01*
Y2354979D01*
X2280006Y2364975D01*
X2290003D01*
X2300000Y2354979D01*
Y2344982D01*
Y2354979D01*
X2309996Y2364975D01*
X2319993D01*
X2329990Y2354979D01*
Y2334985D01*
X2319993Y2324988D01*
X3039990Y1135024D02*
X2980010D01*
Y1165015D01*
X2990006Y1175011D01*
X3010000D01*
X3019996Y1165015D01*
Y1135024D01*
Y1155018D02*
X3039990Y1175011D01*
Y1195005D02*
Y1214999D01*
Y1205002D01*
X2980010D01*
X2990006Y1195005D01*
X3039990Y1274979D02*
X2980010D01*
X3010000Y1244989D01*
Y1284976D01*
X2939990Y1135024D02*
X2880010D01*
Y1165015D01*
X2890007Y1175011D01*
X2910000D01*
X2919997Y1165015D01*
Y1135024D01*
Y1155018D02*
X2939990Y1175011D01*
Y1195005D02*
Y1214999D01*
Y1205002D01*
X2880010D01*
X2890007Y1195005D01*
X2880010Y1284976D02*
Y1244989D01*
X2910000D01*
X2900003Y1264982D01*
Y1274979D01*
X2910000Y1284976D01*
X2929994D01*
X2939990Y1274979D01*
Y1254985D01*
X2929994Y1244989D01*
X2839990Y1135024D02*
X2780010D01*
Y1165015D01*
X2790007Y1175011D01*
X2810000D01*
X2819997Y1165015D01*
Y1135024D01*
Y1155018D02*
X2839990Y1175011D01*
Y1195005D02*
Y1214999D01*
Y1205002D01*
X2780010D01*
X2790007Y1195005D01*
X2780010Y1284976D02*
X2790007Y1264982D01*
X2810000Y1244989D01*
X2829994D01*
X2839990Y1254985D01*
Y1274979D01*
X2829994Y1284976D01*
X2819997D01*
X2810000Y1274979D01*
Y1244989D01*
X5425025Y2080010D02*
Y2139991D01*
X5455015D01*
X5465012Y2129994D01*
Y2110000D01*
X5455015Y2100004D01*
X5425025D01*
X5445018D02*
X5465012Y2080010D01*
X5485005D02*
X5504999D01*
X5495002D01*
Y2139991D01*
X5485005Y2129994D01*
X5534989Y2139991D02*
X5574976D01*
Y2129994D01*
X5534989Y2090007D01*
Y2080010D01*
X5425025Y1740010D02*
Y1799991D01*
X5455015D01*
X5465012Y1789994D01*
Y1770000D01*
X5455015Y1760004D01*
X5425025D01*
X5445019D02*
X5465012Y1740010D01*
X5485006D02*
X5504999D01*
X5495002D01*
Y1799991D01*
X5485006Y1789994D01*
X5534989Y1750007D02*
X5544986Y1740010D01*
X5564979D01*
X5574976Y1750007D01*
Y1789994D01*
X5564979Y1799991D01*
X5544986D01*
X5534989Y1789994D01*
Y1779997D01*
X5544986Y1770000D01*
X5574976D01*
X5420026Y1640010D02*
Y1699991D01*
X5450017D01*
X5460013Y1689994D01*
Y1670000D01*
X5450017Y1660004D01*
X5420026D01*
X5440020D02*
X5460013Y1640010D01*
X5519994D02*
X5480007D01*
X5519994Y1679997D01*
Y1689994D01*
X5509997Y1699991D01*
X5490004D01*
X5480007Y1689994D01*
X5539988D02*
X5549984Y1699991D01*
X5569978D01*
X5579975Y1689994D01*
Y1650007D01*
X5569978Y1640010D01*
X5549984D01*
X5539988Y1650007D01*
Y1689994D01*
X1840023Y1050010D02*
Y1109990D01*
X1870013D01*
X1880010Y1099993D01*
Y1080000D01*
X1870013Y1070003D01*
X1840023D01*
X1860016D02*
X1880010Y1050010D01*
X1939990D02*
X1900003D01*
X1939990Y1089997D01*
Y1099993D01*
X1929994Y1109990D01*
X1910000D01*
X1900003Y1099993D01*
X1959984Y1050010D02*
X1979977D01*
X1969981D01*
Y1109990D01*
X1959984Y1099993D01*
X5009990Y4650026D02*
X4950010D01*
Y4680016D01*
X4960007Y4690013D01*
X4980000D01*
X4989997Y4680016D01*
Y4650026D01*
Y4670020D02*
X5009990Y4690013D01*
Y4749994D02*
Y4710007D01*
X4970003Y4749994D01*
X4960007D01*
X4950010Y4739997D01*
Y4720003D01*
X4960007Y4710007D01*
X5009990Y4809974D02*
Y4769987D01*
X4970003Y4809974D01*
X4960007D01*
X4950010Y4799977D01*
Y4779984D01*
X4960007Y4769987D01*
X5119990Y4650026D02*
X5060010D01*
Y4680016D01*
X5070007Y4690013D01*
X5090000D01*
X5099997Y4680016D01*
Y4650026D01*
Y4670020D02*
X5119990Y4690013D01*
Y4749994D02*
Y4710007D01*
X5080003Y4749994D01*
X5070007D01*
X5060010Y4739997D01*
Y4720003D01*
X5070007Y4710007D01*
Y4769987D02*
X5060010Y4779984D01*
Y4799977D01*
X5070007Y4809974D01*
X5080003D01*
X5090000Y4799977D01*
Y4789981D01*
Y4799977D01*
X5099997Y4809974D01*
X5109994D01*
X5119990Y4799977D01*
Y4779984D01*
X5109994Y4769987D01*
X5929990Y1610026D02*
X5870010D01*
Y1640016D01*
X5880007Y1650013D01*
X5900000D01*
X5909997Y1640016D01*
Y1610026D01*
Y1630020D02*
X5929990Y1650013D01*
Y1709994D02*
Y1670007D01*
X5890003Y1709994D01*
X5880007D01*
X5870010Y1699997D01*
Y1680003D01*
X5880007Y1670007D01*
X5929990Y1759977D02*
X5870010D01*
X5900000Y1729987D01*
Y1769974D01*
X6189990Y900026D02*
X6130009D01*
Y930017D01*
X6140006Y940013D01*
X6160000D01*
X6169996Y930017D01*
Y900026D01*
Y920020D02*
X6189990Y940013D01*
Y999994D02*
Y960007D01*
X6150003Y999994D01*
X6140006D01*
X6130009Y989997D01*
Y970004D01*
X6140006Y960007D01*
X6130009Y1059975D02*
X6140006Y1039981D01*
X6160000Y1019988D01*
X6179993D01*
X6189990Y1029984D01*
Y1049978D01*
X6179993Y1059975D01*
X6169996D01*
X6160000Y1049978D01*
Y1019988D01*
X6289990Y900026D02*
X6230009D01*
Y930016D01*
X6240006Y940013D01*
X6259999D01*
X6269996Y930016D01*
Y900026D01*
Y920019D02*
X6289990Y940013D01*
Y999993D02*
Y960006D01*
X6250003Y999993D01*
X6240006D01*
X6230009Y989997D01*
Y970003D01*
X6240006Y960006D01*
X6230009Y1019987D02*
Y1059974D01*
X6240006D01*
X6279993Y1019987D01*
X6289990D01*
X6189990Y700026D02*
X6130009D01*
Y730017D01*
X6140006Y740013D01*
X6160000D01*
X6169996Y730017D01*
Y700026D01*
Y720020D02*
X6189990Y740013D01*
Y799994D02*
Y760007D01*
X6150003Y799994D01*
X6140006D01*
X6130009Y789997D01*
Y770004D01*
X6140006Y760007D01*
Y819987D02*
X6130009Y829984D01*
Y849978D01*
X6140006Y859974D01*
X6150003D01*
X6160000Y849978D01*
X6169996Y859974D01*
X6179993D01*
X6189990Y849978D01*
Y829984D01*
X6179993Y819987D01*
X6169996D01*
X6160000Y829984D01*
X6150003Y819987D01*
X6140006D01*
X6160000Y829984D02*
Y849978D01*
X6289990Y700026D02*
X6230009D01*
Y730017D01*
X6240006Y740013D01*
X6260000D01*
X6269996Y730017D01*
Y700026D01*
Y720020D02*
X6289990Y740013D01*
Y799994D02*
Y760007D01*
X6250003Y799994D01*
X6240006D01*
X6230009Y789997D01*
Y770004D01*
X6240006Y760007D01*
X6279993Y819987D02*
X6289990Y829984D01*
Y849978D01*
X6279993Y859974D01*
X6240006D01*
X6230009Y849978D01*
Y829984D01*
X6240006Y819987D01*
X6250003D01*
X6260000Y829984D01*
Y859974D01*
X3169990Y4625034D02*
X3110010D01*
Y4655024D01*
X3120006Y4665021D01*
X3140000D01*
X3149996Y4655024D01*
Y4625034D01*
Y4645028D02*
X3169990Y4665021D01*
Y4685015D02*
Y4705008D01*
Y4695011D01*
X3110010D01*
X3120006Y4685015D01*
Y4734998D02*
X3110010Y4744995D01*
Y4764988D01*
X3120006Y4774985D01*
X3130003D01*
X3140000Y4764988D01*
Y4754992D01*
Y4764988D01*
X3149996Y4774985D01*
X3159993D01*
X3169990Y4764988D01*
Y4744995D01*
X3159993Y4734998D01*
X3120006Y4794979D02*
X3110010Y4804975D01*
Y4824969D01*
X3120006Y4834966D01*
X3130003D01*
X3140000Y4824969D01*
Y4814972D01*
Y4824969D01*
X3149996Y4834966D01*
X3159993D01*
X3169990Y4824969D01*
Y4804975D01*
X3159993Y4794979D01*
X3069990Y4625034D02*
X3010009D01*
Y4655024D01*
X3020006Y4665021D01*
X3040000D01*
X3049996Y4655024D01*
Y4625034D01*
Y4645028D02*
X3069990Y4665021D01*
Y4685015D02*
Y4705008D01*
Y4695011D01*
X3010009D01*
X3020006Y4685015D01*
Y4734998D02*
X3010009Y4744995D01*
Y4764988D01*
X3020006Y4774985D01*
X3030003D01*
X3040000Y4764988D01*
Y4754992D01*
Y4764988D01*
X3049996Y4774985D01*
X3059993D01*
X3069990Y4764988D01*
Y4744995D01*
X3059993Y4734998D01*
X3069990Y4824969D02*
X3010009D01*
X3040000Y4794979D01*
Y4834966D01*
X2527163Y1479990D02*
Y1430006D01*
X2537160Y1420010D01*
X2557153D01*
X2567150Y1430006D01*
Y1479990D01*
X2627131D02*
X2587144D01*
Y1450000D01*
X2607137Y1459997D01*
X2617134D01*
X2627131Y1450000D01*
Y1430006D01*
X2617134Y1420010D01*
X2597140D01*
X2587144Y1430006D01*
X4900370Y1175469D02*
Y1125485D01*
X4910366Y1115488D01*
X4930360D01*
X4940357Y1125485D01*
Y1175469D01*
X5000337D02*
X4980344Y1165472D01*
X4960350Y1145479D01*
Y1125485D01*
X4970347Y1115488D01*
X4990341D01*
X5000337Y1125485D01*
Y1135482D01*
X4990341Y1145479D01*
X4960350D01*
X5940369Y875469D02*
Y825485D01*
X5950366Y815488D01*
X5970359D01*
X5980356Y825485D01*
Y875469D01*
X6000349D02*
X6040336D01*
Y865472D01*
X6000349Y825485D01*
Y815488D01*
X7560016Y846069D02*
Y796085D01*
X7570013Y786088D01*
X7590007D01*
X7600003Y796085D01*
Y846069D01*
X7619997Y836072D02*
X7629994Y846069D01*
X7649987D01*
X7659984Y836072D01*
Y826075D01*
X7649987Y816079D01*
X7659984Y806082D01*
Y796085D01*
X7649987Y786088D01*
X7629994D01*
X7619997Y796085D01*
Y806082D01*
X7629994Y816079D01*
X7619997Y826075D01*
Y836072D01*
X7629994Y816079D02*
X7649987D01*
X6179994Y1826063D02*
Y1776079D01*
X6189991Y1766083D01*
X6209985D01*
X6219981Y1776079D01*
Y1826063D01*
X6239975Y1776079D02*
X6249972Y1766083D01*
X6269965D01*
X6279962Y1776079D01*
Y1816066D01*
X6269965Y1826063D01*
X6249972D01*
X6239975Y1816066D01*
Y1806070D01*
X6249972Y1796073D01*
X6279962D01*
X6795025Y3209637D02*
Y3159653D01*
X6805021Y3149657D01*
X6825015D01*
X6835011Y3159653D01*
Y3209637D01*
X6855005Y3149657D02*
X6874999D01*
X6865002D01*
Y3209637D01*
X6855005Y3199640D01*
X6904989D02*
X6914985Y3209637D01*
X6934979D01*
X6944976Y3199640D01*
Y3159653D01*
X6934979Y3149657D01*
X6914985D01*
X6904989Y3159653D01*
Y3199640D01*
X6289990Y1310026D02*
X6230009D01*
Y1340016D01*
X6240006Y1350013D01*
X6259999D01*
X6269996Y1340016D01*
Y1310026D01*
Y1330020D02*
X6289990Y1350013D01*
Y1399997D02*
X6230009D01*
X6259999Y1370007D01*
Y1409994D01*
X6240006Y1429987D02*
X6230009Y1439984D01*
Y1459978D01*
X6240006Y1469974D01*
X6250003D01*
X6259999Y1459978D01*
Y1449981D01*
Y1459978D01*
X6269996Y1469974D01*
X6279993D01*
X6289990Y1459978D01*
Y1439984D01*
X6279993Y1429987D01*
X7899990Y2270026D02*
X7840010D01*
X7899990Y2310013D01*
X7840010D01*
Y2330007D02*
Y2369994D01*
Y2350000D01*
X7899990D01*
X7850007Y2389987D02*
X7840010Y2399984D01*
Y2419978D01*
X7850007Y2429974D01*
X7860003D01*
X7870000Y2419978D01*
Y2409981D01*
Y2419978D01*
X7879997Y2429974D01*
X7889994D01*
X7899990Y2419978D01*
Y2399984D01*
X7889994Y2389987D01*
X5960013Y1050035D02*
X5950016Y1060032D01*
X5930022D01*
X5920026Y1050035D01*
Y1010048D01*
X5930022Y1000051D01*
X5950016D01*
X5960013Y1010048D01*
X6009997Y1000051D02*
Y1060032D01*
X5980006Y1030041D01*
X6019993D01*
X6079974Y1000051D02*
X6039987D01*
X6079974Y1040038D01*
Y1050035D01*
X6069977Y1060032D01*
X6049984D01*
X6039987Y1050035D01*
X5140013Y1259952D02*
X5130017Y1269949D01*
X5110023D01*
X5100026Y1259952D01*
Y1219965D01*
X5110023Y1209969D01*
X5130017D01*
X5140013Y1219965D01*
X5189997Y1209969D02*
Y1269949D01*
X5160007Y1239959D01*
X5199994D01*
X5219988Y1259952D02*
X5229984Y1269949D01*
X5249978D01*
X5259974Y1259952D01*
Y1249956D01*
X5249978Y1239959D01*
X5239981D01*
X5249978D01*
X5259974Y1229962D01*
Y1219965D01*
X5249978Y1209969D01*
X5229984D01*
X5219988Y1219965D01*
X5730013Y990035D02*
X5720016Y1000032D01*
X5700023D01*
X5690026Y990035D01*
Y950048D01*
X5700023Y940051D01*
X5720016D01*
X5730013Y950048D01*
X5779997Y940051D02*
Y1000032D01*
X5750007Y970041D01*
X5789993D01*
X5839977Y940051D02*
Y1000032D01*
X5809987Y970041D01*
X5849974D01*
X5730013Y1380035D02*
X5720016Y1390032D01*
X5700022D01*
X5690026Y1380035D01*
Y1340048D01*
X5700022Y1330051D01*
X5720016D01*
X5730013Y1340048D01*
X5779997Y1330051D02*
Y1390032D01*
X5750006Y1360041D01*
X5789993D01*
X5849974Y1390032D02*
X5809987D01*
Y1360041D01*
X5829980Y1370038D01*
X5839977D01*
X5849974Y1360041D01*
Y1340048D01*
X5839977Y1330051D01*
X5819984D01*
X5809987Y1340048D01*
X5460013Y1890035D02*
X5450017Y1900032D01*
X5430023D01*
X5420026Y1890035D01*
Y1850048D01*
X5430023Y1840051D01*
X5450017D01*
X5460013Y1850048D01*
X5509997Y1840051D02*
Y1900032D01*
X5480007Y1870041D01*
X5519994D01*
X5579975Y1900032D02*
X5559981Y1890035D01*
X5539988Y1870041D01*
Y1850048D01*
X5549984Y1840051D01*
X5569978D01*
X5579975Y1850048D01*
Y1860045D01*
X5569978Y1870041D01*
X5539988D01*
X6790013Y1570035D02*
X6780016Y1580032D01*
X6760023D01*
X6750026Y1570035D01*
Y1530048D01*
X6760023Y1520051D01*
X6780016D01*
X6790013Y1530048D01*
X6839997Y1520051D02*
Y1580032D01*
X6810007Y1550041D01*
X6849994D01*
X6869987Y1530048D02*
X6879984Y1520051D01*
X6899978D01*
X6909974Y1530048D01*
Y1570035D01*
X6899978Y1580032D01*
X6879984D01*
X6869987Y1570035D01*
Y1560038D01*
X6879984Y1550041D01*
X6909974D01*
%TF.MD5,b70b0ad61b245cfbc42c13f61bd737a9*%
M02*
