%TF.GenerationSoftware,Altium Limited,Altium Designer,25.3.3 (18)*%
G04 Layer_Color=32768*
%FSLAX45Y45*%
%MOMM*%
%TF.SameCoordinates,5572F933-5C96-4131-A983-9EF7CB378A5A*%
%TF.FilePolarity,Positive*%
%TF.FileFunction,Other,Bottom_Designator*%
%TF.Part,Single*%
G01*
G75*
%TA.AperFunction,NonConductor*%
%ADD98C,0.15000*%
D98*
X3429993Y2165021D02*
X3439990Y2155025D01*
Y2135031D01*
X3429993Y2125034D01*
X3390006D01*
X3380010Y2135031D01*
Y2155025D01*
X3390006Y2165021D01*
X3380010Y2185015D02*
Y2205009D01*
Y2195012D01*
X3439990D01*
X3429993Y2185015D01*
X3439990Y2274986D02*
Y2234999D01*
X3410000D01*
X3419997Y2254992D01*
Y2264989D01*
X3410000Y2274986D01*
X3390006D01*
X3380010Y2264989D01*
Y2244995D01*
X3390006Y2234999D01*
X3429993Y2294979D02*
X3439990Y2304976D01*
Y2324969D01*
X3429993Y2334966D01*
X3390006D01*
X3380010Y2324969D01*
Y2304976D01*
X3390006Y2294979D01*
X3429993D01*
X7214982Y3349993D02*
X7224979Y3359990D01*
X7244972D01*
X7254969Y3349993D01*
Y3310006D01*
X7244972Y3300010D01*
X7224979D01*
X7214982Y3310006D01*
X7194988Y3300010D02*
X7174995D01*
X7184992D01*
Y3359990D01*
X7194988Y3349993D01*
X7105018Y3359990D02*
X7145005D01*
Y3330000D01*
X7125011Y3339997D01*
X7115014D01*
X7105018Y3330000D01*
Y3310006D01*
X7115014Y3300010D01*
X7135008D01*
X7145005Y3310006D01*
X7085024Y3300010D02*
X7065031D01*
X7075028D01*
Y3359990D01*
X7085024Y3349993D01*
X2349993Y3955021D02*
X2359990Y3945025D01*
Y3925031D01*
X2349993Y3915034D01*
X2310006D01*
X2300010Y3925031D01*
Y3945025D01*
X2310006Y3955021D01*
X2300010Y3975015D02*
Y3995009D01*
Y3985012D01*
X2359990D01*
X2349993Y3975015D01*
X2359990Y4064986D02*
Y4024999D01*
X2330000D01*
X2339997Y4044992D01*
Y4054989D01*
X2330000Y4064986D01*
X2310006D01*
X2300010Y4054989D01*
Y4034995D01*
X2310006Y4024999D01*
X2300010Y4124966D02*
Y4084979D01*
X2339997Y4124966D01*
X2349993D01*
X2359990Y4114969D01*
Y4094976D01*
X2349993Y4084979D01*
X5999987Y2839993D02*
X6009984Y2849990D01*
X6029977D01*
X6039974Y2839993D01*
Y2800006D01*
X6029977Y2790010D01*
X6009984D01*
X5999987Y2800006D01*
X5950003Y2790010D02*
Y2849990D01*
X5979993Y2820000D01*
X5940006D01*
X5920013Y2849990D02*
X5880026D01*
Y2839993D01*
X5920013Y2800006D01*
Y2790010D01*
X2479993Y3015021D02*
X2489990Y3005024D01*
Y2985031D01*
X2479993Y2975034D01*
X2440006D01*
X2430010Y2985031D01*
Y3005024D01*
X2440006Y3015021D01*
X2430010Y3035015D02*
Y3055008D01*
Y3045011D01*
X2489990D01*
X2479993Y3035015D01*
X2489990Y3124985D02*
X2479993Y3104992D01*
X2460000Y3084998D01*
X2440006D01*
X2430010Y3094995D01*
Y3114989D01*
X2440006Y3124985D01*
X2450003D01*
X2460000Y3114989D01*
Y3084998D01*
X2479993Y3144979D02*
X2489990Y3154976D01*
Y3174969D01*
X2479993Y3184966D01*
X2440006D01*
X2430010Y3174969D01*
Y3154976D01*
X2440006Y3144979D01*
X2479993D01*
X5374982Y2399993D02*
X5384979Y2409990D01*
X5404972D01*
X5414969Y2399993D01*
Y2360006D01*
X5404972Y2350010D01*
X5384979D01*
X5374982Y2360006D01*
X5354989Y2350010D02*
X5334995D01*
X5344992D01*
Y2409990D01*
X5354989Y2399993D01*
X5265018Y2409990D02*
X5285011Y2399993D01*
X5305005Y2380000D01*
Y2360006D01*
X5295008Y2350010D01*
X5275015D01*
X5265018Y2360006D01*
Y2370003D01*
X5275015Y2380000D01*
X5305005D01*
X5245024Y2350010D02*
X5225031D01*
X5235028D01*
Y2409990D01*
X5245024Y2399993D01*
X4058066Y3937471D02*
X4068063Y3927475D01*
Y3907481D01*
X4058066Y3897484D01*
X4018079D01*
X4008082Y3907481D01*
Y3927475D01*
X4018079Y3937471D01*
X4008082Y3957465D02*
Y3977459D01*
Y3967462D01*
X4068063D01*
X4058066Y3957465D01*
X4068063Y4047436D02*
X4058066Y4027442D01*
X4038072Y4007449D01*
X4018079D01*
X4008082Y4017445D01*
Y4037439D01*
X4018079Y4047436D01*
X4028076D01*
X4038072Y4037439D01*
Y4007449D01*
X4008082Y4107416D02*
Y4067429D01*
X4048069Y4107416D01*
X4058066D01*
X4068063Y4097420D01*
Y4077426D01*
X4058066Y4067429D01*
%TF.MD5,5ecfa43e5f2d8e37b2b8db34dccff921*%
M02*
