%TF.GenerationSoftware,Altium Limited,Altium Designer,25.3.3 (18)*%
G04 Layer_Color=32896*
%FSLAX45Y45*%
%MOMM*%
%TF.SameCoordinates,5572F933-5C96-4131-A983-9EF7CB378A5A*%
%TF.FilePolarity,Positive*%
%TF.FileFunction,Legend,Bot*%
%TF.Part,Single*%
G01*
G75*
%TA.AperFunction,NonConductor*%
%ADD97C,0.20000*%
%ADD98C,0.15000*%
G36*
X2032000Y50500D02*
X1999842Y10500D01*
X2064157D01*
X2032000Y50500D01*
D02*
G37*
G36*
Y4876500D02*
X1999842Y4836500D01*
X2064157D01*
X2032000Y4876500D01*
D02*
G37*
G36*
X3560000Y3351921D02*
X3520000Y3384079D01*
Y3319764D01*
X3560000Y3351921D01*
D02*
G37*
D97*
X4030000Y3418000D02*
Y3478000D01*
X3570000Y3418000D02*
Y3478000D01*
X3540000Y3448000D02*
X4060000D01*
X4030000Y2417999D02*
Y2477999D01*
X3570000Y2417999D02*
Y2477999D01*
X3540000Y2447999D02*
X4060000D01*
X6962000Y570500D02*
X7007000D01*
X6962000Y65500D02*
X7007000D01*
X6985000Y34500D02*
Y599500D01*
X6962000Y65500D02*
X7007000D01*
X6962000Y570500D02*
X7007000D01*
X6985000Y25500D02*
Y610500D01*
X5692000Y570500D02*
X5737000D01*
X5692000Y65500D02*
X5737000D01*
X5715000Y34500D02*
Y599500D01*
X5692000Y65500D02*
X5737000D01*
X5692000Y570500D02*
X5737000D01*
X5715000Y25500D02*
Y610500D01*
X4422000Y570500D02*
X4467000D01*
X4422000Y65500D02*
X4467000D01*
X4445000Y34500D02*
Y599500D01*
X4422000Y65500D02*
X4467000D01*
X4422000Y570500D02*
X4467000D01*
X4445000Y25500D02*
Y610500D01*
X7777000Y25500D02*
Y610500D01*
X7723000Y65500D02*
X7773000D01*
X7723000Y570500D02*
X7773000D01*
X3152000D02*
X3197000D01*
X3152000Y65500D02*
X3197000D01*
X3175000Y34500D02*
Y599500D01*
X3152000Y65500D02*
X3197000D01*
X3152000Y570500D02*
X3197000D01*
X3175000Y25500D02*
Y610500D01*
X1882000Y65500D02*
X1932000D01*
X1880000Y25500D02*
Y610500D01*
X1882000Y570500D02*
X1932000D01*
X6962000Y5396500D02*
X7007000D01*
X6962000Y4891500D02*
X7007000D01*
X6985000Y4860500D02*
Y5425500D01*
X6962000Y4891500D02*
X7007000D01*
X6962000Y5396500D02*
X7007000D01*
X6985000Y4851500D02*
Y5436500D01*
X5692000Y5396500D02*
X5737000D01*
X5692000Y4891500D02*
X5737000D01*
X5715000Y4860500D02*
Y5425500D01*
X5692000Y4891500D02*
X5737000D01*
X5692000Y5396500D02*
X5737000D01*
X5715000Y4851500D02*
Y5436500D01*
X4422000Y5396500D02*
X4467000D01*
X4422000Y4891500D02*
X4467000D01*
X4445000Y4860500D02*
Y5425500D01*
X4422000Y4891500D02*
X4467000D01*
X4422000Y5396500D02*
X4467000D01*
X4445000Y4851500D02*
Y5436500D01*
X7777000Y4851500D02*
Y5436500D01*
X7723000Y4891500D02*
X7773000D01*
X7723000Y5396500D02*
X7773000D01*
X3152000D02*
X3197000D01*
X3152000Y4891500D02*
X3197000D01*
X3175000Y4860500D02*
Y5425500D01*
X3152000Y4891500D02*
X3197000D01*
X3152000Y5396500D02*
X3197000D01*
X3175000Y4851500D02*
Y5436500D01*
X1882000Y4891500D02*
X1932000D01*
X1880000Y4851500D02*
Y5436500D01*
X1882000Y5396500D02*
X1932000D01*
X1339968Y570000D02*
Y636645D01*
X1323306D01*
X1256661Y570000D01*
X1240000D01*
X1289984Y669968D02*
Y736613D01*
X1240000Y769935D02*
Y803258D01*
Y786597D01*
X1339968D01*
X1323306Y769935D01*
X1339968Y853242D02*
Y919887D01*
X1323306D01*
X1256661Y853242D01*
X1240000D01*
X1339968Y953210D02*
X1273323D01*
X1240000Y986532D01*
X1273323Y1019855D01*
X1339968D01*
X6920000Y3379968D02*
Y3280000D01*
X6853355D01*
X6753387Y3379968D02*
X6820032D01*
Y3329984D01*
X6786710Y3346645D01*
X6770048D01*
X6753387Y3329984D01*
Y3296661D01*
X6770048Y3280000D01*
X6803371D01*
X6820032Y3296661D01*
X6720065Y3379968D02*
Y3313323D01*
X6686742Y3280000D01*
X6653420Y3313323D01*
Y3379968D01*
X4410000Y4090000D02*
X4376678D01*
X4393339D01*
Y4189968D01*
X4410000Y4173306D01*
X4260049Y4189968D02*
X4293371Y4173306D01*
X4326694Y4139984D01*
Y4106661D01*
X4310032Y4090000D01*
X4276710D01*
X4260049Y4106661D01*
Y4123322D01*
X4276710Y4139984D01*
X4326694D01*
X4226726Y4189968D02*
Y4123322D01*
X4193403Y4090000D01*
X4160081Y4123322D01*
Y4189968D01*
X2373355Y3769968D02*
X2440000D01*
Y3719984D01*
X2406677Y3736645D01*
X2390016D01*
X2373355Y3719984D01*
Y3686661D01*
X2390016Y3670000D01*
X2423339D01*
X2440000Y3686661D01*
X2340032Y3769968D02*
Y3703323D01*
X2306710Y3670000D01*
X2273387Y3703323D01*
Y3769968D01*
X2453355Y2829968D02*
X2520000D01*
Y2779984D01*
X2486678Y2796645D01*
X2470016D01*
X2453355Y2779984D01*
Y2746661D01*
X2470016Y2730000D01*
X2503339D01*
X2520000Y2746661D01*
X2420032Y2829968D02*
Y2763322D01*
X2386710Y2730000D01*
X2353387Y2763322D01*
Y2829968D01*
X3643355Y2129968D02*
X3676677Y2113306D01*
X3710000Y2079984D01*
Y2046661D01*
X3693339Y2030000D01*
X3660016D01*
X3643355Y2046661D01*
Y2063323D01*
X3660016Y2079984D01*
X3710000D01*
X3610032Y2129968D02*
Y2063323D01*
X3576710Y2030000D01*
X3543387Y2063323D01*
Y2129968D01*
X5070000Y2429968D02*
Y2330000D01*
X5003355D01*
X4903387Y2429968D02*
X4970032D01*
Y2379984D01*
X4936710Y2396645D01*
X4920048D01*
X4903387Y2379984D01*
Y2346661D01*
X4920048Y2330000D01*
X4953371D01*
X4970032Y2346661D01*
X4870064Y2429968D02*
Y2363322D01*
X4836742Y2330000D01*
X4803419Y2363322D01*
Y2429968D01*
X6460000Y2780000D02*
X6426678D01*
X6443339D01*
Y2879968D01*
X6460000Y2863306D01*
X6310049Y2879968D02*
X6343371Y2863306D01*
X6376694Y2829984D01*
Y2796661D01*
X6360032Y2780000D01*
X6326710D01*
X6310049Y2796661D01*
Y2813323D01*
X6326710Y2829984D01*
X6376694D01*
X6276726Y2879968D02*
Y2813323D01*
X6243403Y2780000D01*
X6210081Y2813323D01*
Y2879968D01*
X1323306Y256645D02*
X1339968Y239984D01*
Y206661D01*
X1323306Y190000D01*
X1256661D01*
X1240000Y206661D01*
Y239984D01*
X1256661Y256645D01*
X1289984D01*
Y223322D01*
X1240000Y289967D02*
X1339968D01*
X1240000Y356612D01*
X1339968D01*
Y389935D02*
X1240000D01*
Y439919D01*
X1256661Y456580D01*
X1323306D01*
X1339968Y439919D01*
Y389935D01*
X3609968Y4706645D02*
Y4640000D01*
X3510000D01*
Y4706645D01*
X3559984Y4640000D02*
Y4673322D01*
X3510000Y4739967D02*
X3609968D01*
X3510000Y4806612D01*
X3609968D01*
X2839968Y666645D02*
Y600000D01*
X2789984D01*
X2806645Y633322D01*
Y649983D01*
X2789984Y666645D01*
X2756661D01*
X2740000Y649983D01*
Y616661D01*
X2756661Y600000D01*
X2839968Y699967D02*
X2773322D01*
X2740000Y733290D01*
X2773322Y766612D01*
X2839968D01*
X2589968Y666645D02*
Y600000D01*
X2539984D01*
X2556645Y633322D01*
Y649983D01*
X2539984Y666645D01*
X2506661D01*
X2490000Y649983D01*
Y616661D01*
X2506661Y600000D01*
X2589968Y699967D02*
X2523322D01*
X2490000Y733290D01*
X2523322Y766612D01*
X2589968D01*
Y866580D02*
Y799935D01*
X2490000D01*
Y866580D01*
X2539984Y799935D02*
Y833258D01*
X2323306Y600000D02*
X2339968Y616661D01*
Y649983D01*
X2323306Y666645D01*
X2306645D01*
X2289984Y649983D01*
Y633322D01*
Y649983D01*
X2273322Y666645D01*
X2256661D01*
X2240000Y649983D01*
Y616661D01*
X2256661Y600000D01*
X2339968Y699967D02*
X2273322D01*
X2240000Y733290D01*
X2273322Y766612D01*
X2339968D01*
X2323306Y799935D02*
X2339968Y816597D01*
Y849919D01*
X2323306Y866580D01*
X2306645D01*
X2289984Y849919D01*
Y833258D01*
Y849919D01*
X2273322Y866580D01*
X2256661D01*
X2240000Y849919D01*
Y816597D01*
X2256661Y799935D01*
X2063306Y666645D02*
X2079968Y649983D01*
Y616661D01*
X2063306Y600000D01*
X1996661D01*
X1980000Y616661D01*
Y649983D01*
X1996661Y666645D01*
X2029984D01*
Y633322D01*
X1980000Y699967D02*
X2079968D01*
X1980000Y766612D01*
X2079968D01*
Y799935D02*
X1980000D01*
Y849919D01*
X1996661Y866580D01*
X2063306D01*
X2079968Y849919D01*
Y799935D01*
D98*
X5270000Y2380073D02*
X5305000Y2380000D01*
X5335000Y2380073D02*
X5370000D01*
X5335000Y2330000D02*
Y2430000D01*
X5305000Y2330000D02*
Y2430000D01*
X2459927Y3030000D02*
X2460000Y3065000D01*
X2459927Y3095000D02*
Y3130000D01*
X2410000Y3095000D02*
X2510000D01*
X2410000Y3065000D02*
X2510000D01*
X7145000Y3280000D02*
Y3380000D01*
X7175000Y3280000D02*
Y3380000D01*
Y3330073D02*
X7210000D01*
X7110000D02*
X7145000Y3330000D01*
X3988073Y4017450D02*
X4088072D01*
X3988073Y3987450D02*
X4088072D01*
X4038146Y3952450D02*
Y3987450D01*
X4038072Y4017450D02*
X4038146Y4052450D01*
X2280000Y4005000D02*
X2380000D01*
X2280000Y4035000D02*
X2380000D01*
X2329927D02*
Y4070000D01*
Y3970000D02*
X2330000Y4005000D01*
X3360000Y2215000D02*
X3460000D01*
X3360000Y2245000D02*
X3460000D01*
X3409927D02*
Y2280000D01*
Y2180000D02*
X3410000Y2215000D01*
X5975000Y2770000D02*
Y2870000D01*
X5945000Y2770000D02*
Y2870000D01*
X5910000Y2819927D02*
X5945000D01*
X5975000Y2820000D02*
X6010000Y2819927D01*
%TF.MD5,21f2cc6a464d9a1ff6e6da1c6839c875*%
M02*
