%TF.GenerationSoftware,Altium Limited,Altium Designer,25.3.3 (18)*%
G04 Layer_Color=2752767*
%FSLAX45Y45*%
%MOMM*%
%TF.SameCoordinates,5572F933-5C96-4131-A983-9EF7CB378A5A*%
%TF.FilePolarity,Positive*%
%TF.FileFunction,Drawing*%
%TF.Part,Single*%
G01*
G75*
%TA.AperFunction,NonConductor*%
%ADD630C,0.12700*%
%ADD631C,0.16933*%
D630*
X3849200Y2548000D02*
X3900000Y2598800D01*
X3950800Y2548000D01*
X3900000Y2497200D01*
X3849200Y2548000D01*
Y2748000D02*
X3900000Y2798800D01*
X3950800Y2748000D01*
X3900000Y2697200D01*
X3849200Y2748000D01*
Y2948000D02*
X3900000Y2998800D01*
X3950800Y2948000D01*
X3900000Y2897200D01*
X3849200Y2948000D01*
Y3148000D02*
X3900000Y3198800D01*
X3950800Y3148000D01*
X3900000Y3097200D01*
X3849200Y3148000D01*
Y3348000D02*
X3900000Y3398800D01*
X3950800Y3348000D01*
X3900000Y3297200D01*
X3849200Y3348000D01*
X3649200Y2548000D02*
X3700000Y2598800D01*
X3750800Y2548000D01*
X3700000Y2497200D01*
X3649200Y2548000D01*
Y2748000D02*
X3700000Y2798800D01*
X3750800Y2748000D01*
X3700000Y2697200D01*
X3649200Y2748000D01*
Y2948000D02*
X3700000Y2998800D01*
X3750800Y2948000D01*
X3700000Y2897200D01*
X3649200Y2948000D01*
Y3148000D02*
X3700000Y3198800D01*
X3750800Y3148000D01*
X3700000Y3097200D01*
X3649200Y3148000D01*
Y3348000D02*
X3700000Y3398800D01*
X3750800Y3348000D01*
X3700000Y3297200D01*
X3649200Y3348000D01*
X1981200Y139700D02*
Y241300D01*
X2082800D01*
Y139700D01*
X1981200D01*
X2235200D02*
Y241300D01*
X2336800D01*
Y139700D01*
X2235200D01*
X2489200D02*
Y241300D01*
X2590800D01*
Y139700D01*
X2489200D01*
X2743200D02*
Y241300D01*
X2844800D01*
Y139700D01*
X2743200D01*
X2997200D02*
Y241300D01*
X3098800D01*
Y139700D01*
X2997200D01*
X3251200D02*
Y241300D01*
X3352800D01*
Y139700D01*
X3251200D01*
X3505200D02*
Y241300D01*
X3606800D01*
Y139700D01*
X3505200D01*
X3759200D02*
Y241300D01*
X3860800D01*
Y139700D01*
X3759200D01*
X4013200D02*
Y241300D01*
X4114800D01*
Y139700D01*
X4013200D01*
X4267200D02*
Y241300D01*
X4368800D01*
Y139700D01*
X4267200D01*
X4521200D02*
Y241300D01*
X4622800D01*
Y139700D01*
X4521200D01*
X4775200D02*
Y241300D01*
X4876800D01*
Y139700D01*
X4775200D01*
X5029200D02*
Y241300D01*
X5130800D01*
Y139700D01*
X5029200D01*
X5283200D02*
Y241300D01*
X5384800D01*
Y139700D01*
X5283200D01*
X5537200D02*
Y241300D01*
X5638800D01*
Y139700D01*
X5537200D01*
X5791200D02*
Y241300D01*
X5892800D01*
Y139700D01*
X5791200D01*
X6045200D02*
Y241300D01*
X6146800D01*
Y139700D01*
X6045200D01*
X6299200D02*
Y241300D01*
X6400800D01*
Y139700D01*
X6299200D01*
X6553200D02*
Y241300D01*
X6654800D01*
Y139700D01*
X6553200D01*
X6807200D02*
Y241300D01*
X6908800D01*
Y139700D01*
X6807200D01*
X7061200D02*
Y241300D01*
X7162800D01*
Y139700D01*
X7061200D01*
X7315200D02*
Y241300D01*
X7416800D01*
Y139700D01*
X7315200D01*
X7569200D02*
Y241300D01*
X7670800D01*
Y139700D01*
X7569200D01*
X1981200Y393700D02*
Y495300D01*
X2082800D01*
Y393700D01*
X1981200D01*
X2235200D02*
Y495300D01*
X2336800D01*
Y393700D01*
X2235200D01*
X2489200D02*
Y495300D01*
X2590800D01*
Y393700D01*
X2489200D01*
X2743200D02*
Y495300D01*
X2844800D01*
Y393700D01*
X2743200D01*
X2997200D02*
Y495300D01*
X3098800D01*
Y393700D01*
X2997200D01*
X3251200D02*
Y495300D01*
X3352800D01*
Y393700D01*
X3251200D01*
X3505200D02*
Y495300D01*
X3606800D01*
Y393700D01*
X3505200D01*
X3759200D02*
Y495300D01*
X3860800D01*
Y393700D01*
X3759200D01*
X4013200D02*
Y495300D01*
X4114800D01*
Y393700D01*
X4013200D01*
X4267200D02*
Y495300D01*
X4368800D01*
Y393700D01*
X4267200D01*
X4521200D02*
Y495300D01*
X4622800D01*
Y393700D01*
X4521200D01*
X4775200D02*
Y495300D01*
X4876800D01*
Y393700D01*
X4775200D01*
X5029200D02*
Y495300D01*
X5130800D01*
Y393700D01*
X5029200D01*
X5283200D02*
Y495300D01*
X5384800D01*
Y393700D01*
X5283200D01*
X5537200D02*
Y495300D01*
X5638800D01*
Y393700D01*
X5537200D01*
X5791200D02*
Y495300D01*
X5892800D01*
Y393700D01*
X5791200D01*
X6045200D02*
Y495300D01*
X6146800D01*
Y393700D01*
X6045200D01*
X6299200D02*
Y495300D01*
X6400800D01*
Y393700D01*
X6299200D01*
X6553200D02*
Y495300D01*
X6654800D01*
Y393700D01*
X6553200D01*
X6807200D02*
Y495300D01*
X6908800D01*
Y393700D01*
X6807200D01*
X7061200D02*
Y495300D01*
X7162800D01*
Y393700D01*
X7061200D01*
X7315200D02*
Y495300D01*
X7416800D01*
Y393700D01*
X7315200D01*
X7569200D02*
Y495300D01*
X7670800D01*
Y393700D01*
X7569200D01*
X1981200Y4965700D02*
Y5067300D01*
X2082800D01*
Y4965700D01*
X1981200D01*
X2235200D02*
Y5067300D01*
X2336800D01*
Y4965700D01*
X2235200D01*
X2489200D02*
Y5067300D01*
X2590800D01*
Y4965700D01*
X2489200D01*
X2743200D02*
Y5067300D01*
X2844800D01*
Y4965700D01*
X2743200D01*
X2997200D02*
Y5067300D01*
X3098800D01*
Y4965700D01*
X2997200D01*
X3251200D02*
Y5067300D01*
X3352800D01*
Y4965700D01*
X3251200D01*
X3505200D02*
Y5067300D01*
X3606800D01*
Y4965700D01*
X3505200D01*
X3759200D02*
Y5067300D01*
X3860800D01*
Y4965700D01*
X3759200D01*
X4013200D02*
Y5067300D01*
X4114800D01*
Y4965700D01*
X4013200D01*
X4267200D02*
Y5067300D01*
X4368800D01*
Y4965700D01*
X4267200D01*
X4521200D02*
Y5067300D01*
X4622800D01*
Y4965700D01*
X4521200D01*
X4775200D02*
Y5067300D01*
X4876800D01*
Y4965700D01*
X4775200D01*
X5029200D02*
Y5067300D01*
X5130800D01*
Y4965700D01*
X5029200D01*
X5283200D02*
Y5067300D01*
X5384800D01*
Y4965700D01*
X5283200D01*
X5537200D02*
Y5067300D01*
X5638800D01*
Y4965700D01*
X5537200D01*
X5791200D02*
Y5067300D01*
X5892800D01*
Y4965700D01*
X5791200D01*
X6045200D02*
Y5067300D01*
X6146800D01*
Y4965700D01*
X6045200D01*
X6299200D02*
Y5067300D01*
X6400800D01*
Y4965700D01*
X6299200D01*
X6553200D02*
Y5067300D01*
X6654800D01*
Y4965700D01*
X6553200D01*
X6807200D02*
Y5067300D01*
X6908800D01*
Y4965700D01*
X6807200D01*
X7061200D02*
Y5067300D01*
X7162800D01*
Y4965700D01*
X7061200D01*
X7315200D02*
Y5067300D01*
X7416800D01*
Y4965700D01*
X7315200D01*
X7569200D02*
Y5067300D01*
X7670800D01*
Y4965700D01*
X7569200D01*
X1981200Y5219700D02*
Y5321300D01*
X2082800D01*
Y5219700D01*
X1981200D01*
X2235200D02*
Y5321300D01*
X2336800D01*
Y5219700D01*
X2235200D01*
X2489200D02*
Y5321300D01*
X2590800D01*
Y5219700D01*
X2489200D01*
X2743200D02*
Y5321300D01*
X2844800D01*
Y5219700D01*
X2743200D01*
X2997200D02*
Y5321300D01*
X3098800D01*
Y5219700D01*
X2997200D01*
X3251200D02*
Y5321300D01*
X3352800D01*
Y5219700D01*
X3251200D01*
X3505200D02*
Y5321300D01*
X3606800D01*
Y5219700D01*
X3505200D01*
X3759200D02*
Y5321300D01*
X3860800D01*
Y5219700D01*
X3759200D01*
X4013200D02*
Y5321300D01*
X4114800D01*
Y5219700D01*
X4013200D01*
X4267200D02*
Y5321300D01*
X4368800D01*
Y5219700D01*
X4267200D01*
X4521200D02*
Y5321300D01*
X4622800D01*
Y5219700D01*
X4521200D01*
X4775200D02*
Y5321300D01*
X4876800D01*
Y5219700D01*
X4775200D01*
X5029200D02*
Y5321300D01*
X5130800D01*
Y5219700D01*
X5029200D01*
X5283200D02*
Y5321300D01*
X5384800D01*
Y5219700D01*
X5283200D01*
X5537200D02*
Y5321300D01*
X5638800D01*
Y5219700D01*
X5537200D01*
X5791200D02*
Y5321300D01*
X5892800D01*
Y5219700D01*
X5791200D01*
X6045200D02*
Y5321300D01*
X6146800D01*
Y5219700D01*
X6045200D01*
X6299200D02*
Y5321300D01*
X6400800D01*
Y5219700D01*
X6299200D01*
X6553200D02*
Y5321300D01*
X6654800D01*
Y5219700D01*
X6553200D01*
X6807200D02*
Y5321300D01*
X6908800D01*
Y5219700D01*
X6807200D01*
X7061200D02*
Y5321300D01*
X7162800D01*
Y5219700D01*
X7061200D01*
X7315200D02*
Y5321300D01*
X7416800D01*
Y5219700D01*
X7315200D01*
X7569200D02*
Y5321300D01*
X7670800D01*
Y5219700D01*
X7569200D01*
X1460500Y5092700D02*
X1409700Y5194300D01*
X1511300D01*
X1460500Y5092700D01*
X2329867Y1236723D02*
X2355267Y1287523D01*
X2329867Y1338323D01*
X2380667Y1312923D01*
X2431467Y1338323D01*
X2406067Y1287523D01*
X2431467Y1236723D01*
X2380667Y1262123D01*
X2329867Y1236723D01*
X8518385Y2686575D02*
X8543785Y2737375D01*
X8518385Y2788175D01*
X8569185Y2762775D01*
X8619985Y2788175D01*
X8594585Y2737375D01*
X8619985Y2686575D01*
X8569185Y2711975D01*
X8518385Y2686575D01*
X8501700Y2508939D02*
X8527100Y2559739D01*
X8501700Y2610539D01*
X8552500Y2585139D01*
X8603300Y2610539D01*
X8577900Y2559739D01*
X8603300Y2508939D01*
X8552500Y2534339D01*
X8501700Y2508939D01*
X5589165Y4332066D02*
X5614565Y4382866D01*
X5589165Y4433666D01*
X5639965Y4408266D01*
X5690765Y4433666D01*
X5665365Y4382866D01*
X5690765Y4332066D01*
X5639965Y4357466D01*
X5589165Y4332066D01*
X5388390Y3593482D02*
X5413790Y3644282D01*
X5388390Y3695082D01*
X5439190Y3669682D01*
X5489990Y3695082D01*
X5464590Y3644282D01*
X5489990Y3593482D01*
X5439190Y3618882D01*
X5388390Y3593482D01*
X5492387Y3643852D02*
X5517787Y3694652D01*
X5492387Y3745452D01*
X5543187Y3720052D01*
X5593987Y3745452D01*
X5568587Y3694652D01*
X5593987Y3643852D01*
X5543187Y3669252D01*
X5492387Y3643852D01*
X6519200Y1329200D02*
X6544600Y1380000D01*
X6519200Y1430800D01*
X6570000Y1405400D01*
X6620800Y1430800D01*
X6595400Y1380000D01*
X6620800Y1329200D01*
X6570000Y1354600D01*
X6519200Y1329200D01*
X6858661Y1322597D02*
X6884061Y1373397D01*
X6858661Y1424197D01*
X6909461Y1398797D01*
X6960261Y1424197D01*
X6934861Y1373397D01*
X6960261Y1322597D01*
X6909461Y1347997D01*
X6858661Y1322597D01*
X4548694Y1569181D02*
X4574094Y1619981D01*
X4548694Y1670781D01*
X4599494Y1645381D01*
X4650294Y1670781D01*
X4624894Y1619981D01*
X4650294Y1569181D01*
X4599494Y1594581D01*
X4548694Y1569181D01*
X4459200Y2619200D02*
X4484600Y2670000D01*
X4459200Y2720800D01*
X4510000Y2695400D01*
X4560800Y2720800D01*
X4535400Y2670000D01*
X4560800Y2619200D01*
X4510000Y2644600D01*
X4459200Y2619200D01*
X2299200Y3159200D02*
X2324600Y3210000D01*
X2299200Y3260800D01*
X2350000Y3235400D01*
X2400800Y3260800D01*
X2375400Y3210000D01*
X2400800Y3159200D01*
X2350000Y3184600D01*
X2299200Y3159200D01*
X8285572Y633979D02*
X8310972Y684779D01*
X8285572Y735579D01*
X8336372Y710179D01*
X8387172Y735579D01*
X8361772Y684779D01*
X8387172Y633979D01*
X8336372Y659379D01*
X8285572Y633979D01*
X3899200Y2199200D02*
X3924600Y2250000D01*
X3899200Y2300800D01*
X3950000Y2275400D01*
X4000800Y2300800D01*
X3975400Y2250000D01*
X4000800Y2199200D01*
X3950000Y2224600D01*
X3899200Y2199200D01*
X3744290Y2066855D02*
X3769690Y2117655D01*
X3744290Y2168455D01*
X3795090Y2143055D01*
X3845890Y2168455D01*
X3820490Y2117655D01*
X3845890Y2066855D01*
X3795090Y2092255D01*
X3744290Y2066855D01*
X3957648Y1283583D02*
X3983048Y1334383D01*
X3957648Y1385183D01*
X4008448Y1359783D01*
X4059248Y1385183D01*
X4033848Y1334383D01*
X4059248Y1283583D01*
X4008448Y1308983D01*
X3957648Y1283583D01*
X4058613Y1728207D02*
X4084013Y1779007D01*
X4058613Y1829807D01*
X4109413Y1804407D01*
X4160213Y1829807D01*
X4134813Y1779007D01*
X4160213Y1728207D01*
X4109413Y1753607D01*
X4058613Y1728207D01*
X5040711Y4775974D02*
X5066111Y4826774D01*
X5040711Y4877574D01*
X5091511Y4852174D01*
X5142311Y4877574D01*
X5116911Y4826774D01*
X5142311Y4775974D01*
X5091511Y4801374D01*
X5040711Y4775974D01*
X4680407Y4776746D02*
X4705807Y4827546D01*
X4680407Y4878346D01*
X4731207Y4852946D01*
X4782007Y4878346D01*
X4756607Y4827546D01*
X4782007Y4776746D01*
X4731207Y4802146D01*
X4680407Y4776746D01*
X5918254Y4575103D02*
X5943654Y4625903D01*
X5918254Y4676703D01*
X5969054Y4651303D01*
X6019854Y4676703D01*
X5994454Y4625903D01*
X6019854Y4575103D01*
X5969054Y4600503D01*
X5918254Y4575103D01*
X6533157Y1172266D02*
X6558557Y1223066D01*
X6533157Y1273866D01*
X6583957Y1248466D01*
X6634757Y1273866D01*
X6609357Y1223066D01*
X6634757Y1172266D01*
X6583957Y1197666D01*
X6533157Y1172266D01*
X3389200Y3579200D02*
X3414600Y3630000D01*
X3389200Y3680800D01*
X3440000Y3655400D01*
X3490800Y3680800D01*
X3465400Y3630000D01*
X3490800Y3579200D01*
X3440000Y3604600D01*
X3389200Y3579200D01*
X2949200Y2149200D02*
X2974600Y2200000D01*
X2949200Y2250800D01*
X3000000Y2225400D01*
X3050800Y2250800D01*
X3025400Y2200000D01*
X3050800Y2149200D01*
X3000000Y2174600D01*
X2949200Y2149200D01*
Y2379200D02*
X2974600Y2430000D01*
X2949200Y2480800D01*
X3000000Y2455400D01*
X3050800Y2480800D01*
X3025400Y2430000D01*
X3050800Y2379200D01*
X3000000Y2404600D01*
X2949200Y2379200D01*
X2359200Y1879200D02*
X2384600Y1930000D01*
X2359200Y1980800D01*
X2410000Y1955400D01*
X2460800Y1980800D01*
X2435400Y1930000D01*
X2460800Y1879200D01*
X2410000Y1904600D01*
X2359200Y1879200D01*
Y1649200D02*
X2384600Y1700000D01*
X2359200Y1750800D01*
X2410000Y1725400D01*
X2460800Y1750800D01*
X2435400Y1700000D01*
X2460800Y1649200D01*
X2410000Y1674600D01*
X2359200Y1649200D01*
X3503438Y1586918D02*
X3528838Y1637718D01*
X3503438Y1688518D01*
X3554238Y1663118D01*
X3605038Y1688518D01*
X3579638Y1637718D01*
X3605038Y1586918D01*
X3554238Y1612318D01*
X3503438Y1586918D01*
X6930859Y2513987D02*
X6956259Y2564787D01*
X6930859Y2615587D01*
X6981659Y2590187D01*
X7032459Y2615587D01*
X7007059Y2564787D01*
X7032459Y2513987D01*
X6981659Y2539387D01*
X6930859Y2513987D01*
X6523914Y873015D02*
X6549314Y923815D01*
X6523914Y974615D01*
X6574714Y949215D01*
X6625514Y974615D01*
X6600114Y923815D01*
X6625514Y873015D01*
X6574714Y898415D01*
X6523914Y873015D01*
X5533481Y2685398D02*
X5558881Y2736198D01*
X5533481Y2786998D01*
X5584281Y2761598D01*
X5635081Y2786998D01*
X5609681Y2736198D01*
X5635081Y2685398D01*
X5584281Y2710798D01*
X5533481Y2685398D01*
X5195326Y2414241D02*
X5220726Y2465041D01*
X5195326Y2515841D01*
X5246126Y2490441D01*
X5296926Y2515841D01*
X5271526Y2465041D01*
X5296926Y2414241D01*
X5246126Y2439641D01*
X5195326Y2414241D01*
X4255854Y1247922D02*
X4281254Y1298722D01*
X4255854Y1349522D01*
X4306654Y1324122D01*
X4357454Y1349522D01*
X4332054Y1298722D01*
X4357454Y1247922D01*
X4306654Y1273322D01*
X4255854Y1247922D01*
X4169200Y1429200D02*
X4194600Y1480000D01*
X4169200Y1530800D01*
X4220000Y1505400D01*
X4270800Y1530800D01*
X4245400Y1480000D01*
X4270800Y1429200D01*
X4220000Y1454600D01*
X4169200Y1429200D01*
X4179200Y1489200D02*
X4204600Y1540000D01*
X4179200Y1590800D01*
X4230000Y1565400D01*
X4280800Y1590800D01*
X4255400Y1540000D01*
X4280800Y1489200D01*
X4230000Y1514600D01*
X4179200Y1489200D01*
X4279200Y2169200D02*
X4304600Y2220000D01*
X4279200Y2270800D01*
X4330000Y2245400D01*
X4380800Y2270800D01*
X4355400Y2220000D01*
X4380800Y2169200D01*
X4330000Y2194600D01*
X4279200Y2169200D01*
X5340699Y3903202D02*
X5366099Y3954002D01*
X5340699Y4004802D01*
X5391499Y3979402D01*
X5442299Y4004802D01*
X5416899Y3954002D01*
X5442299Y3903202D01*
X5391499Y3928602D01*
X5340699Y3903202D01*
X5350282Y2159689D02*
X5375682Y2210489D01*
X5350282Y2261289D01*
X5401082Y2235889D01*
X5451882Y2261289D01*
X5426482Y2210489D01*
X5451882Y2159689D01*
X5401082Y2185089D01*
X5350282Y2159689D01*
X5350688Y1720050D02*
X5376088Y1770850D01*
X5350688Y1821650D01*
X5401488Y1796250D01*
X5452288Y1821650D01*
X5426888Y1770850D01*
X5452288Y1720050D01*
X5401488Y1745450D01*
X5350688Y1720050D01*
X5344508Y2660669D02*
X5369908Y2711469D01*
X5344508Y2762269D01*
X5395308Y2736869D01*
X5446108Y2762269D01*
X5420708Y2711469D01*
X5446108Y2660669D01*
X5395308Y2686069D01*
X5344508Y2660669D01*
X4314002Y2582401D02*
X4339402Y2633201D01*
X4314002Y2684001D01*
X4364802Y2658601D01*
X4415602Y2684001D01*
X4390202Y2633201D01*
X4415602Y2582401D01*
X4364802Y2607801D01*
X4314002Y2582401D01*
X5109200Y1649200D02*
X5134600Y1700000D01*
X5109200Y1750800D01*
X5160000Y1725400D01*
X5210800Y1750800D01*
X5185400Y1700000D01*
X5210800Y1649200D01*
X5160000Y1674600D01*
X5109200Y1649200D01*
X5412922Y1865869D02*
X5438322Y1916669D01*
X5412922Y1967469D01*
X5463722Y1942069D01*
X5514522Y1967469D01*
X5489122Y1916669D01*
X5514522Y1865869D01*
X5463722Y1891269D01*
X5412922Y1865869D01*
X5581961Y1892820D02*
X5607361Y1943620D01*
X5581961Y1994420D01*
X5632761Y1969020D01*
X5683561Y1994420D01*
X5658161Y1943620D01*
X5683561Y1892820D01*
X5632761Y1918220D01*
X5581961Y1892820D01*
X4699200Y3359200D02*
X4724600Y3410000D01*
X4699200Y3460800D01*
X4750000Y3435400D01*
X4800800Y3460800D01*
X4775400Y3410000D01*
X4800800Y3359200D01*
X4750000Y3384600D01*
X4699200Y3359200D01*
X4799200Y3399200D02*
X4824600Y3450000D01*
X4799200Y3500800D01*
X4850000Y3475400D01*
X4900800Y3500800D01*
X4875400Y3450000D01*
X4900800Y3399200D01*
X4850000Y3424600D01*
X4799200Y3399200D01*
X4909200Y3189200D02*
X4934600Y3240000D01*
X4909200Y3290800D01*
X4960000Y3265400D01*
X5010800Y3290800D01*
X4985400Y3240000D01*
X5010800Y3189200D01*
X4960000Y3214600D01*
X4909200Y3189200D01*
X4915987Y905658D02*
X4941387Y956458D01*
X4915987Y1007258D01*
X4966787Y981858D01*
X5017587Y1007258D01*
X4992187Y956458D01*
X5017587Y905658D01*
X4966787Y931058D01*
X4915987Y905658D01*
X4393297Y3276017D02*
X4418697Y3326817D01*
X4393297Y3377617D01*
X4444097Y3352217D01*
X4494897Y3377617D01*
X4469497Y3326817D01*
X4494897Y3276017D01*
X4444097Y3301417D01*
X4393297Y3276017D01*
X3088676Y4573219D02*
X3114076Y4624019D01*
X3088676Y4674819D01*
X3139476Y4649419D01*
X3190276Y4674819D01*
X3164876Y4624019D01*
X3190276Y4573219D01*
X3139476Y4598619D01*
X3088676Y4573219D01*
X2876966Y4126272D02*
X2902366Y4177072D01*
X2876966Y4227872D01*
X2927766Y4202472D01*
X2978566Y4227872D01*
X2953166Y4177072D01*
X2978566Y4126272D01*
X2927766Y4151672D01*
X2876966Y4126272D01*
X3059200Y4509200D02*
X3084600Y4560000D01*
X3059200Y4610800D01*
X3110000Y4585400D01*
X3160800Y4610800D01*
X3135400Y4560000D01*
X3160800Y4509200D01*
X3110000Y4534600D01*
X3059200Y4509200D01*
X3209193Y3089194D02*
X3234593Y3139994D01*
X3209193Y3190794D01*
X3259993Y3165394D01*
X3310793Y3190794D01*
X3285393Y3139994D01*
X3310793Y3089194D01*
X3259993Y3114594D01*
X3209193Y3089194D01*
X2929200Y3119201D02*
X2954600Y3170001D01*
X2929200Y3220801D01*
X2980000Y3195401D01*
X3030800Y3220801D01*
X3005400Y3170001D01*
X3030800Y3119201D01*
X2980000Y3144601D01*
X2929200Y3119201D01*
X2887564Y4559019D02*
X2912964Y4609819D01*
X2887564Y4660619D01*
X2938364Y4635219D01*
X2989164Y4660619D01*
X2963764Y4609819D01*
X2989164Y4559019D01*
X2938364Y4584419D01*
X2887564Y4559019D01*
X3341700Y2499200D02*
X3367100Y2550000D01*
X3341700Y2600800D01*
X3392500Y2575400D01*
X3443300Y2600800D01*
X3417900Y2550000D01*
X3443300Y2499200D01*
X3392500Y2524600D01*
X3341700Y2499200D01*
X4038777Y3408128D02*
X4064177Y3458928D01*
X4038777Y3509728D01*
X4089577Y3484328D01*
X4140377Y3509728D01*
X4114977Y3458928D01*
X4140377Y3408128D01*
X4089577Y3433528D01*
X4038777Y3408128D01*
X3449075Y3131700D02*
X3474475Y3182500D01*
X3449075Y3233300D01*
X3499875Y3207900D01*
X3550675Y3233300D01*
X3525275Y3182500D01*
X3550675Y3131700D01*
X3499875Y3157100D01*
X3449075Y3131700D01*
X4039199Y2666700D02*
X4064599Y2717500D01*
X4039199Y2768300D01*
X4089999Y2742900D01*
X4140799Y2768300D01*
X4115399Y2717500D01*
X4140799Y2666700D01*
X4089999Y2692100D01*
X4039199Y2666700D01*
X3469200Y2299200D02*
X3494600Y2350000D01*
X3469200Y2400800D01*
X3520000Y2375400D01*
X3570800Y2400800D01*
X3545400Y2350000D01*
X3570800Y2299200D01*
X3520000Y2324600D01*
X3469200Y2299200D01*
X2559478Y1987134D02*
X2584878Y2037934D01*
X2559478Y2088734D01*
X2610278Y2063334D01*
X2661078Y2088734D01*
X2635678Y2037934D01*
X2661078Y1987134D01*
X2610278Y2012534D01*
X2559478Y1987134D01*
X3403059Y2118571D02*
X3428459Y2169371D01*
X3403059Y2220171D01*
X3453859Y2194771D01*
X3504659Y2220171D01*
X3479259Y2169371D01*
X3504659Y2118571D01*
X3453859Y2143971D01*
X3403059Y2118571D01*
X3997313Y1914087D02*
X4022713Y1964887D01*
X3997313Y2015687D01*
X4048113Y1990287D01*
X4098913Y2015687D01*
X4073513Y1964887D01*
X4098913Y1914087D01*
X4048113Y1939487D01*
X3997313Y1914087D01*
X3188778Y1815266D02*
X3214178Y1866066D01*
X3188778Y1916866D01*
X3239578Y1891466D01*
X3290378Y1916866D01*
X3264978Y1866066D01*
X3290378Y1815266D01*
X3239578Y1840666D01*
X3188778Y1815266D01*
X3849547Y1161474D02*
X3874947Y1212274D01*
X3849547Y1263074D01*
X3900347Y1237674D01*
X3951147Y1263074D01*
X3925747Y1212274D01*
X3951147Y1161474D01*
X3900347Y1186874D01*
X3849547Y1161474D01*
X3339200Y979200D02*
X3364600Y1030000D01*
X3339200Y1080800D01*
X3390000Y1055400D01*
X3440800Y1080800D01*
X3415400Y1030000D01*
X3440800Y979200D01*
X3390000Y1004600D01*
X3339200Y979200D01*
X2671276Y3212832D02*
X2696676Y3263632D01*
X2671276Y3314432D01*
X2722076Y3289032D01*
X2772876Y3314432D01*
X2747476Y3263632D01*
X2772876Y3212832D01*
X2722076Y3238232D01*
X2671276Y3212832D01*
X6956772Y3713673D02*
X6982172Y3764473D01*
X6956772Y3815273D01*
X7007572Y3789873D01*
X7058372Y3815273D01*
X7032972Y3764473D01*
X7058372Y3713673D01*
X7007572Y3739073D01*
X6956772Y3713673D01*
X6895011Y3717875D02*
X6920411Y3768675D01*
X6895011Y3819475D01*
X6945811Y3794075D01*
X6996611Y3819475D01*
X6971211Y3768675D01*
X6996611Y3717875D01*
X6945811Y3743275D01*
X6895011Y3717875D01*
X7600951Y3689525D02*
X7626351Y3740325D01*
X7600951Y3791125D01*
X7651751Y3765725D01*
X7702551Y3791125D01*
X7677151Y3740325D01*
X7702551Y3689525D01*
X7651751Y3714925D01*
X7600951Y3689525D01*
X6654911Y3584124D02*
X6680311Y3634924D01*
X6654911Y3685724D01*
X6705711Y3660324D01*
X6756511Y3685724D01*
X6731111Y3634924D01*
X6756511Y3584124D01*
X6705711Y3609524D01*
X6654911Y3584124D01*
X7157907Y3584083D02*
X7183307Y3634883D01*
X7157907Y3685683D01*
X7208707Y3660283D01*
X7259507Y3685683D01*
X7234107Y3634883D01*
X7259507Y3584083D01*
X7208707Y3609483D01*
X7157907Y3584083D01*
X7366479Y1113052D02*
X7391879Y1163852D01*
X7366479Y1214652D01*
X7417279Y1189252D01*
X7468079Y1214652D01*
X7442679Y1163852D01*
X7468079Y1113052D01*
X7417279Y1138452D01*
X7366479Y1113052D01*
X7403541Y830420D02*
X7428941Y881220D01*
X7403541Y932020D01*
X7454341Y906620D01*
X7505141Y932020D01*
X7479741Y881220D01*
X7505141Y830420D01*
X7454341Y855820D01*
X7403541Y830420D01*
X7478005Y783742D02*
X7503405Y834542D01*
X7478005Y885342D01*
X7528805Y859942D01*
X7579605Y885342D01*
X7554205Y834542D01*
X7579605Y783742D01*
X7528805Y809142D01*
X7478005Y783742D01*
X7481220Y682511D02*
X7506620Y733311D01*
X7481220Y784111D01*
X7532020Y758711D01*
X7582820Y784111D01*
X7557420Y733311D01*
X7582820Y682511D01*
X7532020Y707911D01*
X7481220Y682511D01*
X7477155Y625264D02*
X7502555Y676064D01*
X7477155Y726864D01*
X7527955Y701464D01*
X7578755Y726864D01*
X7553355Y676064D01*
X7578755Y625264D01*
X7527955Y650664D01*
X7477155Y625264D01*
X7316973Y830430D02*
X7342373Y881230D01*
X7316973Y932030D01*
X7367773Y906630D01*
X7418573Y932030D01*
X7393173Y881230D01*
X7418573Y830430D01*
X7367773Y855830D01*
X7316973Y830430D01*
X7337851Y1184412D02*
X7363251Y1235212D01*
X7337851Y1286012D01*
X7388651Y1260612D01*
X7439451Y1286012D01*
X7414051Y1235212D01*
X7439451Y1184412D01*
X7388651Y1209812D01*
X7337851Y1184412D01*
X8163119Y4338699D02*
X8188519Y4389499D01*
X8163119Y4440299D01*
X8213919Y4414899D01*
X8264719Y4440299D01*
X8239319Y4389499D01*
X8264719Y4338699D01*
X8213919Y4364099D01*
X8163119Y4338699D01*
X8174747Y4096472D02*
X8200147Y4147272D01*
X8174747Y4198072D01*
X8225547Y4172672D01*
X8276347Y4198072D01*
X8250947Y4147272D01*
X8276347Y4096472D01*
X8225547Y4121872D01*
X8174747Y4096472D01*
X8145210Y3915266D02*
X8170610Y3966066D01*
X8145210Y4016866D01*
X8196010Y3991466D01*
X8246810Y4016866D01*
X8221410Y3966066D01*
X8246810Y3915266D01*
X8196010Y3940666D01*
X8145210Y3915266D01*
X8154423Y3973976D02*
X8179823Y4024776D01*
X8154423Y4075576D01*
X8205223Y4050176D01*
X8256023Y4075576D01*
X8230623Y4024776D01*
X8256023Y3973976D01*
X8205223Y3999376D01*
X8154423Y3973976D01*
X8159200Y4039200D02*
X8184600Y4090000D01*
X8159200Y4140800D01*
X8210000Y4115400D01*
X8260800Y4140800D01*
X8235400Y4090000D01*
X8260800Y4039200D01*
X8210000Y4064600D01*
X8159200Y4039200D01*
X7599200Y1128533D02*
X7624600Y1179333D01*
X7599200Y1230133D01*
X7650000Y1204733D01*
X7700800Y1230133D01*
X7675400Y1179333D01*
X7700800Y1128533D01*
X7650000Y1153933D01*
X7599200Y1128533D01*
X6911554Y1326931D02*
X6936954Y1377731D01*
X6911554Y1428531D01*
X6962354Y1403131D01*
X7013154Y1428531D01*
X6987754Y1377731D01*
X7013154Y1326931D01*
X6962354Y1352331D01*
X6911554Y1326931D01*
X7729200Y1349200D02*
X7754600Y1400000D01*
X7729200Y1450800D01*
X7780000Y1425400D01*
X7830800Y1450800D01*
X7805400Y1400000D01*
X7830800Y1349200D01*
X7780000Y1374600D01*
X7729200Y1349200D01*
X6875087Y1407515D02*
X6900487Y1458315D01*
X6875087Y1509115D01*
X6925887Y1483715D01*
X6976687Y1509115D01*
X6951287Y1458315D01*
X6976687Y1407515D01*
X6925887Y1432915D01*
X6875087Y1407515D01*
X7658782Y783448D02*
X7684182Y834248D01*
X7658782Y885048D01*
X7709582Y859648D01*
X7760382Y885048D01*
X7734982Y834248D01*
X7760382Y783448D01*
X7709582Y808848D01*
X7658782Y783448D01*
X7587949Y977412D02*
X7613349Y1028212D01*
X7587949Y1079012D01*
X7638749Y1053612D01*
X7689549Y1079012D01*
X7664149Y1028212D01*
X7689549Y977412D01*
X7638749Y1002812D01*
X7587949Y977412D01*
X7388967Y1954411D02*
X7414367Y2005211D01*
X7388967Y2056011D01*
X7439767Y2030611D01*
X7490567Y2056011D01*
X7465167Y2005211D01*
X7490567Y1954411D01*
X7439767Y1979811D01*
X7388967Y1954411D01*
X7753498Y1794902D02*
X7778898Y1845702D01*
X7753498Y1896502D01*
X7804298Y1871102D01*
X7855098Y1896502D01*
X7829698Y1845702D01*
X7855098Y1794902D01*
X7804298Y1820302D01*
X7753498Y1794902D01*
X7394815Y2004762D02*
X7420215Y2055562D01*
X7394815Y2106362D01*
X7445615Y2080962D01*
X7496415Y2106362D01*
X7471015Y2055562D01*
X7496415Y2004762D01*
X7445615Y2030162D01*
X7394815Y2004762D01*
X7412288Y2104365D02*
X7437688Y2155165D01*
X7412288Y2205965D01*
X7463088Y2180565D01*
X7513888Y2205965D01*
X7488488Y2155165D01*
X7513888Y2104365D01*
X7463088Y2129765D01*
X7412288Y2104365D01*
X7389946Y2151700D02*
X7415346Y2202500D01*
X7389946Y2253300D01*
X7440746Y2227900D01*
X7491546Y2253300D01*
X7466146Y2202500D01*
X7491546Y2151700D01*
X7440746Y2177100D01*
X7389946Y2151700D01*
X7400713Y2423724D02*
X7426113Y2474524D01*
X7400713Y2525324D01*
X7451513Y2499924D01*
X7502313Y2525324D01*
X7476913Y2474524D01*
X7502313Y2423724D01*
X7451513Y2449124D01*
X7400713Y2423724D01*
X7392679Y2570949D02*
X7418079Y2621749D01*
X7392679Y2672549D01*
X7443479Y2647149D01*
X7494279Y2672549D01*
X7468879Y2621749D01*
X7494279Y2570949D01*
X7443479Y2596349D01*
X7392679Y2570949D01*
X6284569Y2014196D02*
X6309969Y2064996D01*
X6284569Y2115796D01*
X6335369Y2090396D01*
X6386169Y2115796D01*
X6360769Y2064996D01*
X6386169Y2014196D01*
X6335369Y2039596D01*
X6284569Y2014196D01*
X6279200Y2169200D02*
X6304600Y2220000D01*
X6279200Y2270800D01*
X6330000Y2245400D01*
X6380800Y2270800D01*
X6355400Y2220000D01*
X6380800Y2169200D01*
X6330000Y2194600D01*
X6279200Y2169200D01*
X6291877Y2217566D02*
X6317277Y2268366D01*
X6291877Y2319166D01*
X6342677Y2293766D01*
X6393477Y2319166D01*
X6368077Y2268366D01*
X6393477Y2217566D01*
X6342677Y2242966D01*
X6291877Y2217566D01*
X6741948Y2367206D02*
X6767348Y2418006D01*
X6741948Y2468806D01*
X6792748Y2443406D01*
X6843548Y2468806D01*
X6818148Y2418006D01*
X6843548Y2367206D01*
X6792748Y2392606D01*
X6741948Y2367206D01*
X6287242Y1816257D02*
X6312642Y1867057D01*
X6287242Y1917857D01*
X6338042Y1892457D01*
X6388842Y1917857D01*
X6363442Y1867057D01*
X6388842Y1816257D01*
X6338042Y1841657D01*
X6287242Y1816257D01*
X6280419Y1764152D02*
X6305819Y1814952D01*
X6280419Y1865752D01*
X6331219Y1840352D01*
X6382019Y1865752D01*
X6356619Y1814952D01*
X6382019Y1764152D01*
X6331219Y1789552D01*
X6280419Y1764152D01*
X6499567Y1869916D02*
X6524967Y1920716D01*
X6499567Y1971516D01*
X6550367Y1946116D01*
X6601167Y1971516D01*
X6575767Y1920716D01*
X6601167Y1869916D01*
X6550367Y1895316D01*
X6499567Y1869916D01*
X6341072Y1944971D02*
X6366472Y1995771D01*
X6341072Y2046571D01*
X6391872Y2021171D01*
X6442672Y2046571D01*
X6417272Y1995771D01*
X6442672Y1944971D01*
X6391872Y1970371D01*
X6341072Y1944971D01*
X6439200Y2499200D02*
X6464600Y2550000D01*
X6439200Y2600800D01*
X6490000Y2575400D01*
X6540800Y2600800D01*
X6515400Y2550000D01*
X6540800Y2499200D01*
X6490000Y2524600D01*
X6439200Y2499200D01*
X5452202Y1024800D02*
X5477602Y1075600D01*
X5452202Y1126400D01*
X5503002Y1101000D01*
X5553802Y1126400D01*
X5528402Y1075600D01*
X5553802Y1024800D01*
X5503002Y1050200D01*
X5452202Y1024800D01*
X6249200Y1559200D02*
X6274600Y1610000D01*
X6249200Y1660800D01*
X6300000Y1635400D01*
X6350800Y1660800D01*
X6325400Y1610000D01*
X6350800Y1559200D01*
X6300000Y1584600D01*
X6249200Y1559200D01*
X6499980Y1277425D02*
X6525380Y1328225D01*
X6499980Y1379025D01*
X6550780Y1353625D01*
X6601580Y1379025D01*
X6576180Y1328225D01*
X6601580Y1277425D01*
X6550780Y1302825D01*
X6499980Y1277425D01*
X6315843Y1124264D02*
X6341243Y1175064D01*
X6315843Y1225864D01*
X6366643Y1200464D01*
X6417443Y1225864D01*
X6392043Y1175064D01*
X6417443Y1124264D01*
X6366643Y1149664D01*
X6315843Y1124264D01*
X6440186Y1061019D02*
X6465586Y1111819D01*
X6440186Y1162619D01*
X6490986Y1137219D01*
X6541786Y1162619D01*
X6516386Y1111819D01*
X6541786Y1061019D01*
X6490986Y1086419D01*
X6440186Y1061019D01*
X6499200Y809200D02*
X6524600Y860000D01*
X6499200Y910800D01*
X6550000Y885400D01*
X6600800Y910800D01*
X6575400Y860000D01*
X6600800Y809200D01*
X6550000Y834600D01*
X6499200Y809200D01*
X6617293Y777580D02*
X6642693Y828380D01*
X6617293Y879180D01*
X6668093Y853780D01*
X6718893Y879180D01*
X6693493Y828380D01*
X6718893Y777580D01*
X6668093Y802980D01*
X6617293Y777580D01*
X5359200Y829200D02*
X5384600Y880000D01*
X5359200Y930800D01*
X5410000Y905400D01*
X5460800Y930800D01*
X5435400Y880000D01*
X5460800Y829200D01*
X5410000Y854600D01*
X5359200Y829200D01*
X6419071Y560593D02*
X6444471Y611393D01*
X6419071Y662193D01*
X6469871Y636793D01*
X6520671Y662193D01*
X6495271Y611393D01*
X6520671Y560593D01*
X6469871Y585993D01*
X6419071Y560593D01*
X7579200Y569200D02*
X7604600Y620000D01*
X7579200Y670800D01*
X7630000Y645400D01*
X7680800Y670800D01*
X7655400Y620000D01*
X7680800Y569200D01*
X7630000Y594600D01*
X7579200Y569200D01*
X6930810Y550244D02*
X6956210Y601044D01*
X6930810Y651844D01*
X6981610Y626444D01*
X7032410Y651844D01*
X7007010Y601044D01*
X7032410Y550244D01*
X6981610Y575644D01*
X6930810Y550244D01*
X7108278Y573407D02*
X7133678Y624207D01*
X7108278Y675007D01*
X7159078Y649607D01*
X7209878Y675007D01*
X7184478Y624207D01*
X7209878Y573407D01*
X7159078Y598807D01*
X7108278Y573407D01*
X6543471Y3602451D02*
X6568871Y3653251D01*
X6543471Y3704051D01*
X6594271Y3678651D01*
X6645071Y3704051D01*
X6619671Y3653251D01*
X6645071Y3602451D01*
X6594271Y3627851D01*
X6543471Y3602451D01*
X6780796Y3819200D02*
X6806196Y3870000D01*
X6780796Y3920800D01*
X6831596Y3895400D01*
X6882396Y3920800D01*
X6856996Y3870000D01*
X6882396Y3819200D01*
X6831596Y3844600D01*
X6780796Y3819200D01*
X6729200Y3349200D02*
X6754600Y3400000D01*
X6729200Y3450800D01*
X6780000Y3425400D01*
X6830800Y3450800D01*
X6805400Y3400000D01*
X6830800Y3349200D01*
X6780000Y3374600D01*
X6729200Y3349200D01*
X8131343Y2764023D02*
X8156743Y2814823D01*
X8131343Y2865623D01*
X8182143Y2840223D01*
X8232943Y2865623D01*
X8207543Y2814823D01*
X8232943Y2764023D01*
X8182143Y2789423D01*
X8131343Y2764023D01*
X8172737Y2555559D02*
X8198137Y2606359D01*
X8172737Y2657159D01*
X8223537Y2631759D01*
X8274337Y2657159D01*
X8248937Y2606359D01*
X8274337Y2555559D01*
X8223537Y2580959D01*
X8172737Y2555559D01*
X8066749Y2955871D02*
X8092149Y3006671D01*
X8066749Y3057471D01*
X8117549Y3032071D01*
X8168349Y3057471D01*
X8142949Y3006671D01*
X8168349Y2955871D01*
X8117549Y2981271D01*
X8066749Y2955871D01*
X7159200Y3749200D02*
X7184600Y3800000D01*
X7159200Y3850800D01*
X7210000Y3825400D01*
X7260800Y3850800D01*
X7235400Y3800000D01*
X7260800Y3749200D01*
X7210000Y3774600D01*
X7159200Y3749200D01*
X7666962Y685735D02*
X7692362Y736535D01*
X7666962Y787335D01*
X7717762Y761935D01*
X7768562Y787335D01*
X7743162Y736535D01*
X7768562Y685735D01*
X7717762Y711135D01*
X7666962Y685735D01*
X3208897Y1065124D02*
X3234297Y1115924D01*
X3208897Y1166724D01*
X3259697Y1141324D01*
X3310497Y1166724D01*
X3285097Y1115924D01*
X3310497Y1065124D01*
X3259697Y1090524D01*
X3208897Y1065124D01*
X6889200Y2896700D02*
X6914600Y2947500D01*
X6889200Y2998300D01*
X6940000Y2972900D01*
X6990800Y2998300D01*
X6965400Y2947500D01*
X6990800Y2896700D01*
X6940000Y2922100D01*
X6889200Y2896700D01*
X7802118Y2911886D02*
X7827518Y2962686D01*
X7802118Y3013486D01*
X7852918Y2988086D01*
X7903718Y3013486D01*
X7878318Y2962686D01*
X7903718Y2911886D01*
X7852918Y2937286D01*
X7802118Y2911886D01*
X8130622Y2828177D02*
X8156022Y2878977D01*
X8130622Y2929777D01*
X8181422Y2904377D01*
X8232222Y2929777D01*
X8206822Y2878977D01*
X8232222Y2828177D01*
X8181422Y2853577D01*
X8130622Y2828177D01*
X8130430Y2894202D02*
X8155830Y2945002D01*
X8130430Y2995802D01*
X8181230Y2970402D01*
X8232030Y2995802D01*
X8206630Y2945002D01*
X8232030Y2894202D01*
X8181230Y2919602D01*
X8130430Y2894202D01*
X7798978Y2581025D02*
X7824378Y2631825D01*
X7798978Y2682625D01*
X7849778Y2657225D01*
X7900578Y2682625D01*
X7875178Y2631825D01*
X7900578Y2581025D01*
X7849778Y2606425D01*
X7798978Y2581025D01*
X7829200Y1869200D02*
X7854600Y1920000D01*
X7829200Y1970800D01*
X7880000Y1945400D01*
X7930800Y1970800D01*
X7905400Y1920000D01*
X7930800Y1869200D01*
X7880000Y1894600D01*
X7829200Y1869200D01*
X7599200Y2229200D02*
X7624600Y2280000D01*
X7599200Y2330800D01*
X7650000Y2305400D01*
X7700800Y2330800D01*
X7675400Y2280000D01*
X7700800Y2229200D01*
X7650000Y2254600D01*
X7599200Y2229200D01*
Y2394200D02*
X7624600Y2445000D01*
X7599200Y2495800D01*
X7650000Y2470400D01*
X7700800Y2495800D01*
X7675400Y2445000D01*
X7700800Y2394200D01*
X7650000Y2419600D01*
X7599200Y2394200D01*
X7478312Y2393993D02*
X7503712Y2444793D01*
X7478312Y2495593D01*
X7529112Y2470193D01*
X7579912Y2495593D01*
X7554512Y2444793D01*
X7579912Y2393993D01*
X7529112Y2419393D01*
X7478312Y2393993D01*
X8080239Y2559396D02*
X8105639Y2610196D01*
X8080239Y2660996D01*
X8131039Y2635596D01*
X8181839Y2660996D01*
X8156439Y2610196D01*
X8181839Y2559396D01*
X8131039Y2584796D01*
X8080239Y2559396D01*
X8019200Y2399200D02*
X8044600Y2450000D01*
X8019200Y2500800D01*
X8070000Y2475400D01*
X8120800Y2500800D01*
X8095400Y2450000D01*
X8120800Y2399200D01*
X8070000Y2424600D01*
X8019200Y2399200D01*
X8079200Y2459200D02*
X8104600Y2510000D01*
X8079200Y2560800D01*
X8130000Y2535400D01*
X8180800Y2560800D01*
X8155400Y2510000D01*
X8180800Y2459200D01*
X8130000Y2484600D01*
X8079200Y2459200D01*
X8289607Y1996335D02*
X8315007Y2047135D01*
X8289607Y2097935D01*
X8340407Y2072535D01*
X8391207Y2097935D01*
X8365807Y2047135D01*
X8391207Y1996335D01*
X8340407Y2021735D01*
X8289607Y1996335D01*
X8223277Y1909550D02*
X8248677Y1960350D01*
X8223277Y2011150D01*
X8274077Y1985750D01*
X8324877Y2011150D01*
X8299477Y1960350D01*
X8324877Y1909550D01*
X8274077Y1934950D01*
X8223277Y1909550D01*
X8200191Y1859822D02*
X8225591Y1910622D01*
X8200191Y1961422D01*
X8250991Y1936022D01*
X8301791Y1961422D01*
X8276391Y1910622D01*
X8301791Y1859822D01*
X8250991Y1885222D01*
X8200191Y1859822D01*
X8293144Y1887375D02*
X8318544Y1938175D01*
X8293144Y1988975D01*
X8343944Y1963575D01*
X8394744Y1988975D01*
X8369344Y1938175D01*
X8394744Y1887375D01*
X8343944Y1912775D01*
X8293144Y1887375D01*
X8290106Y1818723D02*
X8315506Y1869523D01*
X8290106Y1920323D01*
X8340906Y1894923D01*
X8391706Y1920323D01*
X8366306Y1869523D01*
X8391706Y1818723D01*
X8340906Y1844123D01*
X8290106Y1818723D01*
X4449200Y4449200D02*
X4474600Y4500000D01*
X4449200Y4550800D01*
X4500000Y4525400D01*
X4550800Y4550800D01*
X4525400Y4500000D01*
X4550800Y4449200D01*
X4500000Y4474600D01*
X4449200Y4449200D01*
X5050547Y4452203D02*
X5075947Y4503003D01*
X5050547Y4553803D01*
X5101347Y4528403D01*
X5152147Y4553803D01*
X5126747Y4503003D01*
X5152147Y4452203D01*
X5101347Y4477603D01*
X5050547Y4452203D01*
X4700547D02*
X4725947Y4503003D01*
X4700547Y4553803D01*
X4751347Y4528403D01*
X4802147Y4553803D01*
X4776747Y4503003D01*
X4802147Y4452203D01*
X4751347Y4477603D01*
X4700547Y4452203D01*
X4870547Y2512203D02*
X4895947Y2563003D01*
X4870547Y2613803D01*
X4921347Y2588403D01*
X4972147Y2613803D01*
X4946747Y2563003D01*
X4972147Y2512203D01*
X4921347Y2537603D01*
X4870547Y2512203D01*
X6281400Y813203D02*
X6306800Y864003D01*
X6281400Y914803D01*
X6332200Y889403D01*
X6383000Y914803D01*
X6357600Y864003D01*
X6383000Y813203D01*
X6332200Y838603D01*
X6281400Y813203D01*
X6680697Y825033D02*
X6706097Y875833D01*
X6680697Y926633D01*
X6731497Y901233D01*
X6782297Y926633D01*
X6756897Y875833D01*
X6782297Y825033D01*
X6731497Y850433D01*
X6680697Y825033D01*
X6292319Y693203D02*
X6317719Y744003D01*
X6292319Y794803D01*
X6343119Y769403D01*
X6393919Y794803D01*
X6368519Y744003D01*
X6393919Y693203D01*
X6343119Y718603D01*
X6292319Y693203D01*
X6288246Y568681D02*
X6313646Y619481D01*
X6288246Y670281D01*
X6339046Y644881D01*
X6389846Y670281D01*
X6364446Y619481D01*
X6389846Y568681D01*
X6339046Y594081D01*
X6288246Y568681D01*
X5578045Y1614097D02*
X5603445Y1664897D01*
X5578045Y1715697D01*
X5628845Y1690297D01*
X5679645Y1715697D01*
X5654245Y1664897D01*
X5679645Y1614097D01*
X5628845Y1639497D01*
X5578045Y1614097D01*
X5541289Y1652185D02*
X5566689Y1702985D01*
X5541289Y1753785D01*
X5592089Y1728385D01*
X5642889Y1753785D01*
X5617489Y1702985D01*
X5642889Y1652185D01*
X5592089Y1677585D01*
X5541289Y1652185D01*
X5590427Y2274089D02*
X5615827Y2324889D01*
X5590427Y2375689D01*
X5641227Y2350289D01*
X5692027Y2375689D01*
X5666627Y2324889D01*
X5692027Y2274089D01*
X5641227Y2299489D01*
X5590427Y2274089D01*
X5774460Y2185033D02*
X5799860Y2235833D01*
X5774460Y2286633D01*
X5825260Y2261233D01*
X5876060Y2286633D01*
X5850660Y2235833D01*
X5876060Y2185033D01*
X5825260Y2210433D01*
X5774460Y2185033D01*
X5569200Y1949200D02*
X5594600Y2000000D01*
X5569200Y2050800D01*
X5620000Y2025400D01*
X5670800Y2050800D01*
X5645400Y2000000D01*
X5670800Y1949200D01*
X5620000Y1974600D01*
X5569200Y1949200D01*
X5568486Y2003245D02*
X5593886Y2054045D01*
X5568486Y2104845D01*
X5619286Y2079445D01*
X5670086Y2104845D01*
X5644686Y2054045D01*
X5670086Y2003245D01*
X5619286Y2028645D01*
X5568486Y2003245D01*
X5931566Y4222259D02*
X5956966Y4273059D01*
X5931566Y4323859D01*
X5982366Y4298459D01*
X6033166Y4323859D01*
X6007766Y4273059D01*
X6033166Y4222259D01*
X5982366Y4247659D01*
X5931566Y4222259D01*
X7469856Y4048604D02*
X7495256Y4099404D01*
X7469856Y4150204D01*
X7520656Y4124804D01*
X7571456Y4150204D01*
X7546056Y4099404D01*
X7571456Y4048604D01*
X7520656Y4074004D01*
X7469856Y4048604D01*
X8131885Y4591487D02*
X8157285Y4642287D01*
X8131885Y4693087D01*
X8182685Y4667687D01*
X8233485Y4693087D01*
X8208085Y4642287D01*
X8233485Y4591487D01*
X8182685Y4616887D01*
X8131885Y4591487D01*
X5550065Y3442780D02*
X5575465Y3493579D01*
X5550065Y3544380D01*
X5600865Y3518980D01*
X5651665Y3544380D01*
X5626265Y3493579D01*
X5651665Y3442780D01*
X5600865Y3468180D01*
X5550065Y3442780D01*
X5939751Y3489129D02*
X5965151Y3539929D01*
X5939751Y3590729D01*
X5990551Y3565329D01*
X6041351Y3590729D01*
X6015951Y3539929D01*
X6041351Y3489129D01*
X5990551Y3514529D01*
X5939751Y3489129D01*
X5909245Y2655812D02*
X5934645Y2706612D01*
X5909245Y2757412D01*
X5960045Y2732012D01*
X6010845Y2757412D01*
X5985445Y2706612D01*
X6010845Y2655812D01*
X5960045Y2681212D01*
X5909245Y2655812D01*
X6522996Y2762668D02*
X6548396Y2813468D01*
X6522996Y2864268D01*
X6573796Y2838868D01*
X6624596Y2864268D01*
X6599196Y2813468D01*
X6624596Y2762668D01*
X6573796Y2788068D01*
X6522996Y2762668D01*
X7134989Y2848734D02*
X7160389Y2899534D01*
X7134989Y2950334D01*
X7185789Y2924934D01*
X7236589Y2950334D01*
X7211189Y2899534D01*
X7236589Y2848734D01*
X7185789Y2874134D01*
X7134989Y2848734D01*
X6743571Y2663835D02*
X6768971Y2714635D01*
X6743571Y2765435D01*
X6794371Y2740035D01*
X6845171Y2765435D01*
X6819771Y2714635D01*
X6845171Y2663835D01*
X6794371Y2689235D01*
X6743571Y2663835D01*
X6329200Y3129200D02*
X6354600Y3180000D01*
X6329200Y3230800D01*
X6380000Y3205400D01*
X6430800Y3230800D01*
X6405400Y3180000D01*
X6430800Y3129200D01*
X6380000Y3154600D01*
X6329200Y3129200D01*
X7214740Y4227322D02*
X7240140Y4278122D01*
X7214740Y4328922D01*
X7265540Y4303522D01*
X7316340Y4328922D01*
X7290940Y4278122D01*
X7316340Y4227322D01*
X7265540Y4252722D01*
X7214740Y4227322D01*
X6898295Y4777938D02*
X6923695Y4828738D01*
X6898295Y4879538D01*
X6949095Y4854138D01*
X6999895Y4879538D01*
X6974495Y4828738D01*
X6999895Y4777938D01*
X6949095Y4803338D01*
X6898295Y4777938D01*
X7278464Y4776395D02*
X7303864Y4827195D01*
X7278464Y4877995D01*
X7329264Y4852595D01*
X7380064Y4877995D01*
X7354664Y4827195D01*
X7380064Y4776395D01*
X7329264Y4801795D01*
X7278464Y4776395D01*
X7799200Y4579200D02*
X7824600Y4630000D01*
X7799200Y4680800D01*
X7850000Y4655400D01*
X7900800Y4680800D01*
X7875400Y4630000D01*
X7900800Y4579200D01*
X7850000Y4604600D01*
X7799200Y4579200D01*
X7132275Y2542918D02*
X7157675Y2593718D01*
X7132275Y2644518D01*
X7183075Y2619118D01*
X7233875Y2644518D01*
X7208475Y2593718D01*
X7233875Y2542918D01*
X7183075Y2568318D01*
X7132275Y2542918D01*
X7211944Y2423403D02*
X7237344Y2474203D01*
X7211944Y2525003D01*
X7262744Y2499603D01*
X7313544Y2525003D01*
X7288144Y2474203D01*
X7313544Y2423403D01*
X7262744Y2448803D01*
X7211944Y2423403D01*
X7200923Y2574081D02*
X7226323Y2624881D01*
X7200923Y2675681D01*
X7251723Y2650281D01*
X7302523Y2675681D01*
X7277123Y2624881D01*
X7302523Y2574081D01*
X7251723Y2599481D01*
X7200923Y2574081D01*
X7199833Y2103782D02*
X7225233Y2154582D01*
X7199833Y2205382D01*
X7250633Y2179982D01*
X7301433Y2205382D01*
X7276033Y2154582D01*
X7301433Y2103782D01*
X7250633Y2129182D01*
X7199833Y2103782D01*
X7206910Y1940596D02*
X7232310Y1991396D01*
X7206910Y2042196D01*
X7257710Y2016796D01*
X7308510Y2042196D01*
X7283110Y1991396D01*
X7308510Y1940596D01*
X7257710Y1965996D01*
X7206910Y1940596D01*
X6736856Y1941962D02*
X6762256Y1992762D01*
X6736856Y2043562D01*
X6787656Y2018162D01*
X6838456Y2043562D01*
X6813056Y1992762D01*
X6838456Y1941962D01*
X6787656Y1967362D01*
X6736856Y1941962D01*
X6099200Y1609200D02*
X6124600Y1660000D01*
X6099200Y1710800D01*
X6150000Y1685400D01*
X6200800Y1710800D01*
X6175400Y1660000D01*
X6200800Y1609200D01*
X6150000Y1634600D01*
X6099200Y1609200D01*
X6079451Y1764143D02*
X6104851Y1814943D01*
X6079451Y1865743D01*
X6130251Y1840343D01*
X6181051Y1865743D01*
X6155651Y1814943D01*
X6181051Y1764143D01*
X6130251Y1789543D01*
X6079451Y1764143D01*
X6096926Y1815023D02*
X6122326Y1865823D01*
X6096926Y1916623D01*
X6147726Y1891223D01*
X6198526Y1916623D01*
X6173126Y1865823D01*
X6198526Y1815023D01*
X6147726Y1840423D01*
X6096926Y1815023D01*
X6629200Y2229201D02*
X6654600Y2280001D01*
X6629200Y2330801D01*
X6680000Y2305401D01*
X6730800Y2330801D01*
X6705400Y2280001D01*
X6730800Y2229201D01*
X6680000Y2254601D01*
X6629200Y2229201D01*
X5935560Y1009916D02*
X5960960Y1060716D01*
X5935560Y1111516D01*
X5986360Y1086116D01*
X6037160Y1111516D01*
X6011760Y1060716D01*
X6037160Y1009916D01*
X5986360Y1035316D01*
X5935560Y1009916D01*
X6323329Y1174124D02*
X6348729Y1224924D01*
X6323329Y1275724D01*
X6374129Y1250324D01*
X6424929Y1275724D01*
X6399529Y1224924D01*
X6424929Y1174124D01*
X6374129Y1199524D01*
X6323329Y1174124D01*
X6302338Y1274306D02*
X6327738Y1325106D01*
X6302338Y1375906D01*
X6353138Y1350506D01*
X6403938Y1375906D01*
X6378538Y1325106D01*
X6403938Y1274306D01*
X6353138Y1299706D01*
X6302338Y1274306D01*
X5857797Y712730D02*
X5883197Y763530D01*
X5857797Y814330D01*
X5908597Y788930D01*
X5959397Y814330D01*
X5933997Y763530D01*
X5959397Y712730D01*
X5908597Y738130D01*
X5857797Y712730D01*
X7420372Y1503559D02*
X7445772Y1554359D01*
X7420372Y1605159D01*
X7471172Y1579759D01*
X7521972Y1605159D01*
X7496572Y1554359D01*
X7521972Y1503559D01*
X7471172Y1528959D01*
X7420372Y1503559D01*
X6727495Y1544843D02*
X6752895Y1595643D01*
X6727495Y1646443D01*
X6778295Y1621043D01*
X6829095Y1646443D01*
X6803695Y1595643D01*
X6829095Y1544843D01*
X6778295Y1570243D01*
X6727495Y1544843D01*
X7391689Y1172323D02*
X7417089Y1223123D01*
X7391689Y1273923D01*
X7442489Y1248523D01*
X7493289Y1273923D01*
X7467889Y1223123D01*
X7493289Y1172323D01*
X7442489Y1197723D01*
X7391689Y1172323D01*
X7408143Y1029129D02*
X7433543Y1079929D01*
X7408143Y1130729D01*
X7458943Y1105329D01*
X7509743Y1130729D01*
X7484343Y1079929D01*
X7509743Y1029129D01*
X7458943Y1054529D01*
X7408143Y1029129D01*
X7313407Y1497800D02*
X7338807Y1548600D01*
X7313407Y1599400D01*
X7364207Y1574000D01*
X7415007Y1599400D01*
X7389607Y1548600D01*
X7415007Y1497800D01*
X7364207Y1523200D01*
X7313407Y1497800D01*
X6920183Y942864D02*
X6945583Y993664D01*
X6920183Y1044464D01*
X6970983Y1019064D01*
X7021783Y1044464D01*
X6996383Y993664D01*
X7021783Y942864D01*
X6970983Y968264D01*
X6920183Y942864D01*
X6792636Y1006933D02*
X6818036Y1057733D01*
X6792636Y1108533D01*
X6843436Y1083133D01*
X6894236Y1108533D01*
X6868836Y1057733D01*
X6894236Y1006933D01*
X6843436Y1032333D01*
X6792636Y1006933D01*
X7419200Y779200D02*
X7444600Y830000D01*
X7419200Y880800D01*
X7470000Y855400D01*
X7520800Y880800D01*
X7495400Y830000D01*
X7520800Y779200D01*
X7470000Y804600D01*
X7419200Y779200D01*
X7406084Y976468D02*
X7431484Y1027268D01*
X7406084Y1078068D01*
X7456884Y1052668D01*
X7507684Y1078068D01*
X7482284Y1027268D01*
X7507684Y976468D01*
X7456884Y1001868D01*
X7406084Y976468D01*
X7769200Y999200D02*
X7794600Y1050000D01*
X7769200Y1100800D01*
X7820000Y1075400D01*
X7870800Y1100800D01*
X7845400Y1050000D01*
X7870800Y999200D01*
X7820000Y1024600D01*
X7769200Y999200D01*
X5843531Y1127651D02*
X5868931Y1178451D01*
X5843531Y1229251D01*
X5894331Y1203851D01*
X5945131Y1229251D01*
X5919731Y1178451D01*
X5945131Y1127651D01*
X5894331Y1153051D01*
X5843531Y1127651D01*
X5859906Y1178667D02*
X5885306Y1229467D01*
X5859906Y1280267D01*
X5910706Y1254867D01*
X5961506Y1280267D01*
X5936106Y1229467D01*
X5961506Y1178667D01*
X5910706Y1204067D01*
X5859906Y1178667D01*
X5829674Y1224644D02*
X5855074Y1275444D01*
X5829674Y1326244D01*
X5880474Y1300844D01*
X5931274Y1326244D01*
X5905874Y1275444D01*
X5931274Y1224644D01*
X5880474Y1250044D01*
X5829674Y1224644D01*
X5811553Y1395517D02*
X5836953Y1446317D01*
X5811553Y1497117D01*
X5862353Y1471717D01*
X5913153Y1497117D01*
X5887753Y1446317D01*
X5913153Y1395517D01*
X5862353Y1420917D01*
X5811553Y1395517D01*
X5669200Y1239200D02*
X5694600Y1290000D01*
X5669200Y1340800D01*
X5720000Y1315400D01*
X5770800Y1340800D01*
X5745400Y1290000D01*
X5770800Y1239200D01*
X5720000Y1264600D01*
X5669200Y1239200D01*
X5224276Y1190799D02*
X5249676Y1241599D01*
X5224276Y1292399D01*
X5275076Y1266999D01*
X5325876Y1292399D01*
X5300476Y1241599D01*
X5325876Y1190799D01*
X5275076Y1216199D01*
X5224276Y1190799D01*
X4772940Y1189334D02*
X4798340Y1240134D01*
X4772940Y1290934D01*
X4823740Y1265534D01*
X4874540Y1290934D01*
X4849140Y1240134D01*
X4874540Y1189334D01*
X4823740Y1214734D01*
X4772940Y1189334D01*
X4771617Y1089618D02*
X4797017Y1140418D01*
X4771617Y1191218D01*
X4822417Y1165818D01*
X4873217Y1191218D01*
X4847817Y1140418D01*
X4873217Y1089618D01*
X4822417Y1115018D01*
X4771617Y1089618D01*
X4819696Y1015089D02*
X4845096Y1065889D01*
X4819696Y1116689D01*
X4870496Y1091289D01*
X4921296Y1116689D01*
X4895896Y1065889D01*
X4921296Y1015089D01*
X4870496Y1040489D01*
X4819696Y1015089D01*
X4866030Y907741D02*
X4891430Y958541D01*
X4866030Y1009341D01*
X4916830Y983941D01*
X4967630Y1009341D01*
X4942230Y958541D01*
X4967630Y907741D01*
X4916830Y933141D01*
X4866030Y907741D01*
X5236768Y1035275D02*
X5262168Y1086075D01*
X5236768Y1136875D01*
X5287568Y1111475D01*
X5338368Y1136875D01*
X5312968Y1086075D01*
X5338368Y1035275D01*
X5287568Y1060675D01*
X5236768Y1035275D01*
X5269200Y1079200D02*
X5294600Y1130000D01*
X5269200Y1180800D01*
X5320000Y1155400D01*
X5370800Y1180800D01*
X5345400Y1130000D01*
X5370800Y1079200D01*
X5320000Y1104600D01*
X5269200Y1079200D01*
X5243587Y915275D02*
X5268987Y966075D01*
X5243587Y1016875D01*
X5294387Y991475D01*
X5345187Y1016875D01*
X5319787Y966075D01*
X5345187Y915275D01*
X5294387Y940675D01*
X5243587Y915275D01*
X5271054Y872696D02*
X5296454Y923496D01*
X5271054Y974296D01*
X5321854Y948896D01*
X5372654Y974296D01*
X5347254Y923496D01*
X5372654Y872696D01*
X5321854Y898096D01*
X5271054Y872696D01*
X5256734Y706466D02*
X5282134Y757266D01*
X5256734Y808066D01*
X5307534Y782666D01*
X5358334Y808066D01*
X5332934Y757266D01*
X5358334Y706466D01*
X5307534Y731866D01*
X5256734Y706466D01*
X3464875Y1104229D02*
X3490275Y1155029D01*
X3464875Y1205829D01*
X3515675Y1180429D01*
X3566475Y1205829D01*
X3541075Y1155029D01*
X3566475Y1104229D01*
X3515675Y1129629D01*
X3464875Y1104229D01*
X2629732Y549691D02*
X2655132Y600491D01*
X2629732Y651291D01*
X2680532Y625891D01*
X2731332Y651291D01*
X2705932Y600491D01*
X2731332Y549691D01*
X2680532Y575091D01*
X2629732Y549691D01*
X6092165Y2023673D02*
X6117565Y2074473D01*
X6092165Y2125273D01*
X6142965Y2099873D01*
X6193765Y2125273D01*
X6168365Y2074473D01*
X6193765Y2023673D01*
X6142965Y2049073D01*
X6092165Y2023673D01*
X6088520Y2175082D02*
X6113920Y2225882D01*
X6088520Y2276682D01*
X6139320Y2251282D01*
X6190120Y2276682D01*
X6164720Y2225882D01*
X6190120Y2175082D01*
X6139320Y2200482D01*
X6088520Y2175082D01*
X6100421Y2226114D02*
X6125821Y2276914D01*
X6100421Y2327714D01*
X6151221Y2302314D01*
X6202021Y2327714D01*
X6176621Y2276914D01*
X6202021Y2226114D01*
X6151221Y2251514D01*
X6100421Y2226114D01*
X6293572Y2074752D02*
X6318972Y2125552D01*
X6293572Y2176352D01*
X6344372Y2150952D01*
X6395172Y2176352D01*
X6369772Y2125552D01*
X6395172Y2074752D01*
X6344372Y2100152D01*
X6293572Y2074752D01*
X6619872Y2663262D02*
X6645272Y2714062D01*
X6619872Y2764862D01*
X6670672Y2739462D01*
X6721472Y2764862D01*
X6696072Y2714062D01*
X6721472Y2663262D01*
X6670672Y2688662D01*
X6619872Y2663262D01*
X7239200Y4169200D02*
X7264600Y4220000D01*
X7239200Y4270800D01*
X7290000Y4245400D01*
X7340800Y4270800D01*
X7315400Y4220000D01*
X7340800Y4169200D01*
X7290000Y4194600D01*
X7239200Y4169200D01*
X4809200Y1409200D02*
X4834600Y1460000D01*
X4809200Y1510800D01*
X4860000Y1485400D01*
X4910800Y1510800D01*
X4885400Y1460000D01*
X4910800Y1409200D01*
X4860000Y1434600D01*
X4809200Y1409200D01*
X5417370Y1528002D02*
X5442770Y1578802D01*
X5417370Y1629602D01*
X5468170Y1604202D01*
X5518970Y1629602D01*
X5493570Y1578802D01*
X5518970Y1528002D01*
X5468170Y1553402D01*
X5417370Y1528002D01*
X5921425Y3687384D02*
X5946825Y3738184D01*
X5921425Y3788984D01*
X5972225Y3763584D01*
X6023025Y3788984D01*
X5997625Y3738184D01*
X6023025Y3687384D01*
X5972225Y3712784D01*
X5921425Y3687384D01*
X7999200Y3209200D02*
X8024600Y3260000D01*
X7999200Y3310800D01*
X8050000Y3285400D01*
X8100800Y3310800D01*
X8075400Y3260000D01*
X8100800Y3209200D01*
X8050000Y3234600D01*
X7999200Y3209200D01*
X7799200Y479200D02*
X7824600Y530000D01*
X7799200Y580800D01*
X7850000Y555400D01*
X7900800Y580800D01*
X7875400Y530000D01*
X7900800Y479200D01*
X7850000Y504600D01*
X7799200Y479200D01*
X7091146Y954859D02*
X7116546Y1005659D01*
X7091146Y1056459D01*
X7141946Y1031059D01*
X7192746Y1056459D01*
X7167346Y1005659D01*
X7192746Y954859D01*
X7141946Y980259D01*
X7091146Y954859D01*
X4729200Y1329200D02*
X4754600Y1380000D01*
X4729200Y1430800D01*
X4780000Y1405400D01*
X4830800Y1430800D01*
X4805400Y1380000D01*
X4830800Y1329200D01*
X4780000Y1354600D01*
X4729200Y1329200D01*
X3292513Y667931D02*
X3317913Y718731D01*
X3292513Y769531D01*
X3343313Y744131D01*
X3394113Y769531D01*
X3368713Y718731D01*
X3394113Y667931D01*
X3343313Y693331D01*
X3292513Y667931D01*
X4268700Y908700D02*
X4294100Y959500D01*
X4268700Y1010300D01*
X4319500Y984900D01*
X4370300Y1010300D01*
X4344900Y959500D01*
X4370300Y908700D01*
X4319500Y934100D01*
X4268700Y908700D01*
X3850547Y1257853D02*
X3875947Y1308653D01*
X3850547Y1359453D01*
X3901347Y1334053D01*
X3952147Y1359453D01*
X3926747Y1308653D01*
X3952147Y1257853D01*
X3901347Y1283253D01*
X3850547Y1257853D01*
X3209539Y749779D02*
X3234939Y800579D01*
X3209539Y851379D01*
X3260339Y825979D01*
X3311139Y851379D01*
X3285739Y800579D01*
X3311139Y749779D01*
X3260339Y775179D01*
X3209539Y749779D01*
X3419200Y999200D02*
X3444600Y1050000D01*
X3419200Y1100800D01*
X3470000Y1075400D01*
X3520800Y1100800D01*
X3495400Y1050000D01*
X3520800Y999200D01*
X3470000Y1024600D01*
X3419200Y999200D01*
X3148047Y890588D02*
X3173447Y941388D01*
X3148047Y992188D01*
X3198847Y966788D01*
X3249647Y992188D01*
X3224247Y941388D01*
X3249647Y890588D01*
X3198847Y915988D01*
X3148047Y890588D01*
X2288769Y799200D02*
X2314169D01*
X2339569Y824600D01*
X2364969Y799200D01*
X2390369D01*
Y824600D01*
X2364969Y850000D01*
X2390369Y875400D01*
Y900800D01*
X2364969D01*
X2339569Y875400D01*
X2314169Y900800D01*
X2288769D01*
Y875400D01*
X2314169Y850000D01*
X2288769Y824600D01*
Y799200D01*
X2076280Y1132254D02*
X2101680Y1183054D01*
X2076280Y1233854D01*
X2127080Y1208454D01*
X2177880Y1233854D01*
X2152480Y1183054D01*
X2177880Y1132254D01*
X2127080Y1157654D01*
X2076280Y1132254D01*
X1909200Y1766592D02*
X1934600Y1817392D01*
X1909200Y1868192D01*
X1960000Y1842792D01*
X2010800Y1868192D01*
X1985400Y1817392D01*
X2010800Y1766592D01*
X1960000Y1791992D01*
X1909200Y1766592D01*
X5548922Y1717296D02*
X5574322Y1768096D01*
X5548922Y1818896D01*
X5599722Y1793496D01*
X5650522Y1818896D01*
X5625122Y1768096D01*
X5650522Y1717296D01*
X5599722Y1742696D01*
X5548922Y1717296D01*
X5547132Y2140987D02*
X5572532Y2191787D01*
X5547132Y2242587D01*
X5597932Y2217187D01*
X5648732Y2242587D01*
X5623332Y2191787D01*
X5648732Y2140987D01*
X5597932Y2166387D01*
X5547132Y2140987D01*
X5796536Y780070D02*
X5821936Y830870D01*
X5796536Y881670D01*
X5847336Y856270D01*
X5898136Y881670D01*
X5872736Y830870D01*
X5898136Y780070D01*
X5847336Y805470D01*
X5796536Y780070D01*
X5803527Y884873D02*
X5828927Y935673D01*
X5803527Y986473D01*
X5854327Y961073D01*
X5905127Y986473D01*
X5879727Y935673D01*
X5905127Y884873D01*
X5854327Y910273D01*
X5803527Y884873D01*
X5804199Y1274200D02*
X5829599Y1325000D01*
X5804199Y1375800D01*
X5854999Y1350400D01*
X5905799Y1375800D01*
X5880399Y1325000D01*
X5905799Y1274200D01*
X5854999Y1299600D01*
X5804199Y1274200D01*
X5951946Y1740109D02*
X5977346Y1790909D01*
X5951946Y1841709D01*
X6002746Y1816309D01*
X6053546Y1841709D01*
X6028146Y1790909D01*
X6053546Y1740109D01*
X6002746Y1765509D01*
X5951946Y1740109D01*
Y2159201D02*
X5977346Y2210001D01*
X5951946Y2260801D01*
X6002746Y2235401D01*
X6053546Y2260801D01*
X6028146Y2210001D01*
X6053546Y2159201D01*
X6002746Y2184601D01*
X5951946Y2159201D01*
X6912699Y744481D02*
X6938099Y795281D01*
X6912699Y846081D01*
X6963499Y820681D01*
X7014299Y846081D01*
X6988899Y795281D01*
X7014299Y744481D01*
X6963499Y769881D01*
X6912699Y744481D01*
X6699200Y2149200D02*
X6724600Y2200000D01*
X6699200Y2250800D01*
X6750000Y2225400D01*
X6800800Y2250800D01*
X6775400Y2200000D01*
X6800800Y2149200D01*
X6750000Y2174600D01*
X6699200Y2149200D01*
X6746700Y2515685D02*
X6772100Y2566485D01*
X6746700Y2617285D01*
X6797500Y2591885D01*
X6848300Y2617285D01*
X6822900Y2566485D01*
X6848300Y2515685D01*
X6797500Y2541085D01*
X6746700Y2515685D01*
X6699200Y2799200D02*
X6724600Y2850000D01*
X6699200Y2900800D01*
X6750000Y2875400D01*
X6800800Y2900800D01*
X6775400Y2850000D01*
X6800800Y2799200D01*
X6750000Y2824600D01*
X6699200Y2799200D01*
X6619200Y2589200D02*
X6644600Y2640000D01*
X6619200Y2690800D01*
X6670000Y2665400D01*
X6720800Y2690800D01*
X6695400Y2640000D01*
X6720800Y2589200D01*
X6670000Y2614600D01*
X6619200Y2589200D01*
X6631671Y2534449D02*
X6657071Y2585249D01*
X6631671Y2636049D01*
X6682471Y2610649D01*
X6733271Y2636049D01*
X6707871Y2585249D01*
X6733271Y2534449D01*
X6682471Y2559849D01*
X6631671Y2534449D01*
X7359200Y4649200D02*
X7384600Y4700000D01*
X7359200Y4750800D01*
X7410000Y4725400D01*
X7460800Y4750800D01*
X7435400Y4700000D01*
X7460800Y4649200D01*
X7410000Y4674600D01*
X7359200Y4649200D01*
X6862216Y4552216D02*
X6887616Y4603016D01*
X6862216Y4653816D01*
X6913016Y4628416D01*
X6963816Y4653816D01*
X6938416Y4603016D01*
X6963816Y4552216D01*
X6913016Y4577616D01*
X6862216Y4552216D01*
X5352861Y2264316D02*
X5378261Y2315116D01*
X5352861Y2365916D01*
X5403661Y2340516D01*
X5454461Y2365916D01*
X5429061Y2315116D01*
X5454461Y2264316D01*
X5403661Y2289716D01*
X5352861Y2264316D01*
X5071533Y2662276D02*
X5096933Y2713076D01*
X5071533Y2763876D01*
X5122333Y2738476D01*
X5173133Y2763876D01*
X5147733Y2713076D01*
X5173133Y2662276D01*
X5122333Y2687676D01*
X5071533Y2662276D01*
X2492768Y2869150D02*
X2518168Y2919950D01*
X2492768Y2970750D01*
X2543568Y2945350D01*
X2594368Y2970750D01*
X2568968Y2919950D01*
X2594368Y2869150D01*
X2543568Y2894550D01*
X2492768Y2869150D01*
X5764097Y2650933D02*
X5789497Y2701733D01*
X5764097Y2752533D01*
X5814897Y2727133D01*
X5865697Y2752533D01*
X5840297Y2701733D01*
X5865697Y2650933D01*
X5814897Y2676333D01*
X5764097Y2650933D01*
X5809188Y2909194D02*
X5834588Y2959994D01*
X5809188Y3010794D01*
X5859988Y2985394D01*
X5910788Y3010794D01*
X5885388Y2959994D01*
X5910788Y2909194D01*
X5859988Y2934594D01*
X5809188Y2909194D01*
X5194230Y1347308D02*
X5219630Y1398108D01*
X5194230Y1448908D01*
X5245030Y1423508D01*
X5295830Y1448908D01*
X5270430Y1398108D01*
X5295830Y1347308D01*
X5245030Y1372708D01*
X5194230Y1347308D01*
X6209200Y1239200D02*
X6234600Y1290000D01*
X6209200Y1340800D01*
X6260000Y1315400D01*
X6310800Y1340800D01*
X6285400Y1290000D01*
X6310800Y1239200D01*
X6260000Y1264600D01*
X6209200Y1239200D01*
Y836579D02*
X6234600Y887379D01*
X6209200Y938179D01*
X6260000Y912779D01*
X6310800Y938179D01*
X6285400Y887379D01*
X6310800Y836579D01*
X6260000Y861979D01*
X6209200Y836579D01*
X6100011Y1663206D02*
X6125411Y1714006D01*
X6100011Y1764806D01*
X6150811Y1739406D01*
X6201611Y1764806D01*
X6176211Y1714006D01*
X6201611Y1663206D01*
X6150811Y1688606D01*
X6100011Y1663206D01*
X5780496Y1816404D02*
X5805896Y1867204D01*
X5780496Y1918004D01*
X5831296Y1892604D01*
X5882096Y1918004D01*
X5856696Y1867204D01*
X5882096Y1816404D01*
X5831296Y1841804D01*
X5780496Y1816404D01*
X6038473Y1351502D02*
X6063873Y1402302D01*
X6038473Y1453102D01*
X6089273Y1427702D01*
X6140073Y1453102D01*
X6114673Y1402302D01*
X6140073Y1351502D01*
X6089273Y1376902D01*
X6038473Y1351502D01*
X6039200Y939200D02*
X6064600Y990000D01*
X6039200Y1040800D01*
X6090000Y1015400D01*
X6140800Y1040800D01*
X6115400Y990000D01*
X6140800Y939200D01*
X6090000Y964600D01*
X6039200Y939200D01*
X6312652Y858864D02*
X6338052Y909664D01*
X6312652Y960464D01*
X6363452Y935064D01*
X6414252Y960464D01*
X6388852Y909664D01*
X6414252Y858864D01*
X6363452Y884264D01*
X6312652Y858864D01*
X5544027Y2060806D02*
X5569427Y2111606D01*
X5544027Y2162406D01*
X5594827Y2137006D01*
X5645627Y2162406D01*
X5620227Y2111606D01*
X5645627Y2060806D01*
X5594827Y2086206D01*
X5544027Y2060806D01*
X6009200Y2879200D02*
X6034600D01*
X6060000Y2904600D01*
X6085400Y2879200D01*
X6110800D01*
Y2904600D01*
X6085400Y2930000D01*
X6110800Y2955400D01*
Y2980800D01*
X6085400D01*
X6060000Y2955400D01*
X6034600Y2980800D01*
X6009200D01*
Y2955400D01*
X6034600Y2930000D01*
X6009200Y2904600D01*
Y2879200D01*
X7096700Y1105686D02*
X7122100Y1156486D01*
X7096700Y1207286D01*
X7147500Y1181886D01*
X7198300Y1207286D01*
X7172900Y1156486D01*
X7198300Y1105686D01*
X7147500Y1131086D01*
X7096700Y1105686D01*
X7101558Y1456269D02*
X7126958Y1507069D01*
X7101558Y1557869D01*
X7152358Y1532469D01*
X7203158Y1557869D01*
X7177758Y1507069D01*
X7203158Y1456269D01*
X7152358Y1481669D01*
X7101558Y1456269D01*
X7103677Y794200D02*
X7129077Y845000D01*
X7103677Y895800D01*
X7154477Y870400D01*
X7205277Y895800D01*
X7179877Y845000D01*
X7205277Y794200D01*
X7154477Y819600D01*
X7103677Y794200D01*
X6564200Y1289570D02*
X6589600Y1340370D01*
X6564200Y1391170D01*
X6615000Y1365770D01*
X6665800Y1391170D01*
X6640400Y1340370D01*
X6665800Y1289570D01*
X6615000Y1314970D01*
X6564200Y1289570D01*
X7089200Y2079200D02*
X7114600Y2130000D01*
X7089200Y2180800D01*
X7140000Y2155400D01*
X7190800Y2180800D01*
X7165400Y2130000D01*
X7190800Y2079200D01*
X7140000Y2104600D01*
X7089200Y2079200D01*
X6950124Y2818264D02*
X6975524Y2869064D01*
X6950124Y2919864D01*
X7000924Y2894464D01*
X7051724Y2919864D01*
X7026324Y2869064D01*
X7051724Y2818264D01*
X7000924Y2843664D01*
X6950124Y2818264D01*
X6919200Y2162413D02*
X6944600Y2213213D01*
X6919200Y2264013D01*
X6970000Y2238613D01*
X7020800Y2264013D01*
X6995400Y2213213D01*
X7020800Y2162413D01*
X6970000Y2187813D01*
X6919200Y2162413D01*
X8139200Y1609200D02*
X8164600Y1660000D01*
X8139200Y1710800D01*
X8190000Y1685400D01*
X8240800Y1710800D01*
X8215400Y1660000D01*
X8240800Y1609200D01*
X8190000Y1634600D01*
X8139200Y1609200D01*
X5553079Y1059365D02*
X5578479Y1110165D01*
X5553079Y1160965D01*
X5603879Y1135565D01*
X5654679Y1160965D01*
X5629279Y1110165D01*
X5654679Y1059365D01*
X5603879Y1084765D01*
X5553079Y1059365D01*
X7159200Y3274200D02*
X7184600Y3325000D01*
X7159200Y3375800D01*
X7210000Y3350400D01*
X7260800Y3375800D01*
X7235400Y3325000D01*
X7260800Y3274200D01*
X7210000Y3299600D01*
X7159200Y3274200D01*
X7656700Y999695D02*
X7682100Y1050495D01*
X7656700Y1101295D01*
X7707500Y1075895D01*
X7758300Y1101295D01*
X7732900Y1050495D01*
X7758300Y999695D01*
X7707500Y1025095D01*
X7656700Y999695D01*
X8299583Y3469654D02*
X8324983Y3520454D01*
X8299583Y3571254D01*
X8350383Y3545854D01*
X8401183Y3571254D01*
X8375783Y3520454D01*
X8401183Y3469654D01*
X8350383Y3495054D01*
X8299583Y3469654D01*
X7667211Y834168D02*
X7692611Y884968D01*
X7667211Y935768D01*
X7718011Y910368D01*
X7768811Y935768D01*
X7743411Y884968D01*
X7768811Y834168D01*
X7718011Y859568D01*
X7667211Y834168D01*
X4509839Y4001802D02*
X4535239Y4052602D01*
X4509839Y4103402D01*
X4560639Y4078002D01*
X4611439Y4103402D01*
X4586039Y4052602D01*
X4611439Y4001802D01*
X4560639Y4027202D01*
X4509839Y4001802D01*
X5529200Y2899200D02*
X5554600Y2950000D01*
X5529200Y3000800D01*
X5580000Y2975400D01*
X5630800Y3000800D01*
X5605400Y2950000D01*
X5630800Y2899200D01*
X5580000Y2924600D01*
X5529200Y2899200D01*
X5439200Y3049200D02*
X5464600Y3100000D01*
X5439200Y3150800D01*
X5490000Y3125400D01*
X5540800Y3150800D01*
X5515400Y3100000D01*
X5540800Y3049200D01*
X5490000Y3074600D01*
X5439200Y3049200D01*
X4589252Y3347526D02*
X4614652Y3398326D01*
X4589252Y3449126D01*
X4640052Y3423726D01*
X4690852Y3449126D01*
X4665452Y3398326D01*
X4690852Y3347526D01*
X4640052Y3372926D01*
X4589252Y3347526D01*
X5476672Y2759200D02*
X5502072Y2810000D01*
X5476672Y2860800D01*
X5527472Y2835400D01*
X5578272Y2860800D01*
X5552872Y2810000D01*
X5578272Y2759200D01*
X5527472Y2784600D01*
X5476672Y2759200D01*
X4849200Y3939200D02*
X4874600Y3990000D01*
X4849200Y4040800D01*
X4900000Y4015400D01*
X4950800Y4040800D01*
X4925400Y3990000D01*
X4950800Y3939200D01*
X4900000Y3964600D01*
X4849200Y3939200D01*
X4749200Y3938214D02*
X4774600Y3989014D01*
X4749200Y4039814D01*
X4800000Y4014414D01*
X4850800Y4039814D01*
X4825400Y3989014D01*
X4850800Y3938214D01*
X4800000Y3963614D01*
X4749200Y3938214D01*
X5444272Y3490033D02*
X5469672Y3540833D01*
X5444272Y3591633D01*
X5495072Y3566233D01*
X5545872Y3591633D01*
X5520472Y3540833D01*
X5545872Y3490033D01*
X5495072Y3515433D01*
X5444272Y3490033D01*
X6646940Y3813357D02*
X6672340Y3864157D01*
X6646940Y3914957D01*
X6697740Y3889557D01*
X6748540Y3914957D01*
X6723140Y3864157D01*
X6748540Y3813357D01*
X6697740Y3838757D01*
X6646940Y3813357D01*
X6391188Y3911777D02*
X6416588Y3962577D01*
X6391188Y4013377D01*
X6441988Y3987977D01*
X6492788Y4013377D01*
X6467388Y3962577D01*
X6492788Y3911777D01*
X6441988Y3937177D01*
X6391188Y3911777D01*
X6441288Y4030353D02*
X6466688Y4081153D01*
X6441288Y4131953D01*
X6492088Y4106553D01*
X6542888Y4131953D01*
X6517488Y4081153D01*
X6542888Y4030353D01*
X6492088Y4055753D01*
X6441288Y4030353D01*
X6308382Y3700510D02*
X6333782Y3751310D01*
X6308382Y3802110D01*
X6359182Y3776710D01*
X6409982Y3802110D01*
X6384582Y3751310D01*
X6409982Y3700510D01*
X6359182Y3725910D01*
X6308382Y3700510D01*
X7059200Y3274224D02*
X7084600Y3325024D01*
X7059200Y3375824D01*
X7110000Y3350424D01*
X7160800Y3375824D01*
X7135400Y3325024D01*
X7160800Y3274224D01*
X7110000Y3299624D01*
X7059200Y3274224D01*
X6307497Y3596194D02*
X6332897Y3646994D01*
X6307497Y3697794D01*
X6358297Y3672394D01*
X6409097Y3697794D01*
X6383697Y3646994D01*
X6409097Y3596194D01*
X6358297Y3621594D01*
X6307497Y3596194D01*
X6307181Y3898726D02*
X6332581Y3949526D01*
X6307181Y4000326D01*
X6357981Y3974926D01*
X6408781Y4000326D01*
X6383381Y3949526D01*
X6408781Y3898726D01*
X6357981Y3924126D01*
X6307181Y3898726D01*
X5480424Y1078957D02*
X5505824Y1129757D01*
X5480424Y1180557D01*
X5531224Y1155157D01*
X5582024Y1180557D01*
X5556624Y1129757D01*
X5582024Y1078957D01*
X5531224Y1104357D01*
X5480424Y1078957D01*
X5491459Y921954D02*
X5516859Y972754D01*
X5491459Y1023554D01*
X5542259Y998154D01*
X5593059Y1023554D01*
X5567659Y972754D01*
X5593059Y921954D01*
X5542259Y947354D01*
X5491459Y921954D01*
X4507961Y2986621D02*
X4533361Y3037421D01*
X4507961Y3088221D01*
X4558761Y3062821D01*
X4609561Y3088221D01*
X4584161Y3037421D01*
X4609561Y2986621D01*
X4558761Y3012021D01*
X4507961Y2986621D01*
X4348747Y3232433D02*
X4374147Y3283233D01*
X4348747Y3334033D01*
X4399547Y3308633D01*
X4450347Y3334033D01*
X4424947Y3283233D01*
X4450347Y3232433D01*
X4399547Y3257833D01*
X4348747Y3232433D01*
X4125070Y667423D02*
X4150470Y718223D01*
X4125070Y769023D01*
X4175870Y743623D01*
X4226670Y769023D01*
X4201270Y718223D01*
X4226670Y667423D01*
X4175870Y692823D01*
X4125070Y667423D01*
X2499632Y860144D02*
X2525032Y910944D01*
X2499632Y961744D01*
X2550432Y936344D01*
X2601232Y961744D01*
X2575832Y910944D01*
X2601232Y860144D01*
X2550432Y885544D01*
X2499632Y860144D01*
X3279200Y1419200D02*
X3304600Y1470000D01*
X3279200Y1520800D01*
X3330000Y1495400D01*
X3380800Y1520800D01*
X3355400Y1470000D01*
X3380800Y1419200D01*
X3330000Y1444600D01*
X3279200Y1419200D01*
X3289580Y1695853D02*
X3314980Y1746653D01*
X3289580Y1797453D01*
X3340380Y1772053D01*
X3391180Y1797453D01*
X3365780Y1746653D01*
X3391180Y1695853D01*
X3340380Y1721253D01*
X3289580Y1695853D01*
X2191023Y3766745D02*
X2216423Y3817545D01*
X2191023Y3868345D01*
X2241823Y3842945D01*
X2292623Y3868345D01*
X2267223Y3817545D01*
X2292623Y3766745D01*
X2241823Y3792145D01*
X2191023Y3766745D01*
X3118090Y3852803D02*
X3143490Y3903603D01*
X3118090Y3954403D01*
X3168890Y3929003D01*
X3219690Y3954403D01*
X3194290Y3903603D01*
X3219690Y3852803D01*
X3168890Y3878203D01*
X3118090Y3852803D01*
X3439200Y4049200D02*
X3464600Y4100000D01*
X3439200Y4150800D01*
X3490000Y4125400D01*
X3540800Y4150800D01*
X3515400Y4100000D01*
X3540800Y4049200D01*
X3490000Y4074600D01*
X3439200Y4049200D01*
X2331048Y2452039D02*
X2356448D01*
X2381848Y2477439D01*
X2407248Y2452039D01*
X2432648D01*
Y2477439D01*
X2407248Y2502839D01*
X2432648Y2528239D01*
Y2553639D01*
X2407248D01*
X2381848Y2528239D01*
X2356448Y2553639D01*
X2331048D01*
Y2528239D01*
X2356448Y2502839D01*
X2331048Y2477439D01*
Y2452039D01*
X3589200Y1879200D02*
X3614600Y1930000D01*
X3589200Y1980800D01*
X3640000Y1955400D01*
X3690800Y1980800D01*
X3665400Y1930000D01*
X3690800Y1879200D01*
X3640000Y1904600D01*
X3589200Y1879200D01*
X2966881Y950505D02*
X2992281Y1001305D01*
X2966881Y1052105D01*
X3017681Y1026705D01*
X3068481Y1052105D01*
X3043081Y1001305D01*
X3068481Y950505D01*
X3017681Y975905D01*
X2966881Y950505D01*
X5739022Y2863168D02*
X5764422D01*
X5789822Y2888568D01*
X5815222Y2863168D01*
X5840622D01*
Y2888568D01*
X5815222Y2913968D01*
X5840622Y2939368D01*
Y2964768D01*
X5815222D01*
X5789822Y2939368D01*
X5764422Y2964768D01*
X5739022D01*
Y2939368D01*
X5764422Y2913968D01*
X5739022Y2888568D01*
Y2863168D01*
X3988653Y3910684D02*
X4014053D01*
X4039453Y3936084D01*
X4064853Y3910684D01*
X4090253D01*
Y3936084D01*
X4064853Y3961484D01*
X4090253Y3986884D01*
Y4012284D01*
X4064853D01*
X4039453Y3986884D01*
X4014053Y4012284D01*
X3988653D01*
Y3986884D01*
X4014053Y3961484D01*
X3988653Y3936084D01*
Y3910684D01*
X5759200Y3009200D02*
X5784600Y3060000D01*
X5759200Y3110800D01*
X5810000Y3085400D01*
X5860800Y3110800D01*
X5835400Y3060000D01*
X5860800Y3009200D01*
X5810000Y3034600D01*
X5759200Y3009200D01*
X5119200Y3549200D02*
X5144600Y3600000D01*
X5119200Y3650800D01*
X5170000Y3625400D01*
X5220800Y3650800D01*
X5195400Y3600000D01*
X5220800Y3549200D01*
X5170000Y3574600D01*
X5119200Y3549200D01*
X3988763Y3996398D02*
X4014163D01*
X4039563Y4021798D01*
X4064963Y3996398D01*
X4090363D01*
Y4021798D01*
X4064963Y4047198D01*
X4090363Y4072598D01*
Y4097998D01*
X4064963D01*
X4039563Y4072598D01*
X4014163Y4097998D01*
X3988763D01*
Y4072598D01*
X4014163Y4047198D01*
X3988763Y4021798D01*
Y3996398D01*
X4559200Y4129200D02*
X4584600Y4180000D01*
X4559200Y4230800D01*
X4610000Y4205400D01*
X4660800Y4230800D01*
X4635400Y4180000D01*
X4660800Y4129200D01*
X4610000Y4154600D01*
X4559200Y4129200D01*
X4948771Y3789668D02*
X4974171Y3840468D01*
X4948771Y3891268D01*
X4999571Y3865868D01*
X5050371Y3891268D01*
X5024971Y3840468D01*
X5050371Y3789668D01*
X4999571Y3815068D01*
X4948771Y3789668D01*
X7499200Y4429200D02*
X7524600Y4480000D01*
X7499200Y4530800D01*
X7550000Y4505400D01*
X7600800Y4530800D01*
X7575400Y4480000D01*
X7600800Y4429200D01*
X7550000Y4454600D01*
X7499200Y4429200D01*
X6307373Y3400694D02*
X6332773Y3451494D01*
X6307373Y3502294D01*
X6358173Y3476894D01*
X6408973Y3502294D01*
X6383573Y3451494D01*
X6408973Y3400694D01*
X6358173Y3426094D01*
X6307373Y3400694D01*
X6914972Y1927953D02*
X6940372Y1978753D01*
X6914972Y2029553D01*
X6965772Y2004153D01*
X7016572Y2029553D01*
X6991172Y1978753D01*
X7016572Y1927953D01*
X6965772Y1953353D01*
X6914972Y1927953D01*
X1760033Y1819615D02*
X1785433Y1870415D01*
X1760033Y1921215D01*
X1810833Y1895815D01*
X1861633Y1921215D01*
X1836233Y1870415D01*
X1861633Y1819615D01*
X1810833Y1845015D01*
X1760033Y1819615D01*
X6798331Y4576416D02*
X6823731Y4627216D01*
X6798331Y4678016D01*
X6849131Y4652616D01*
X6899931Y4678016D01*
X6874531Y4627216D01*
X6899931Y4576416D01*
X6849131Y4601816D01*
X6798331Y4576416D01*
X6479200Y4619200D02*
X6504600Y4670000D01*
X6479200Y4720800D01*
X6530000Y4695400D01*
X6580800Y4720800D01*
X6555400Y4670000D01*
X6580800Y4619200D01*
X6530000Y4644600D01*
X6479200Y4619200D01*
X6359200Y4539200D02*
X6384600Y4590000D01*
X6359200Y4640800D01*
X6410000Y4615400D01*
X6460800Y4640800D01*
X6435400Y4590000D01*
X6460800Y4539200D01*
X6410000Y4564600D01*
X6359200Y4539200D01*
X6347370Y4438257D02*
X6372770Y4489057D01*
X6347370Y4539857D01*
X6398170Y4514457D01*
X6448970Y4539857D01*
X6423570Y4489057D01*
X6448970Y4438257D01*
X6398170Y4463657D01*
X6347370Y4438257D01*
X6750429Y3118630D02*
X6775829Y3169430D01*
X6750429Y3220230D01*
X6801229Y3194830D01*
X6852029Y3220230D01*
X6826629Y3169430D01*
X6852029Y3118630D01*
X6801229Y3144030D01*
X6750429Y3118630D01*
X6558565Y3383238D02*
X6583965Y3434038D01*
X6558565Y3484838D01*
X6609365Y3459438D01*
X6660165Y3484838D01*
X6634765Y3434038D01*
X6660165Y3383238D01*
X6609365Y3408638D01*
X6558565Y3383238D01*
X3880652Y781773D02*
X3906052Y832573D01*
X3880652Y883373D01*
X3931452Y857973D01*
X3982252Y883373D01*
X3956852Y832573D01*
X3982252Y781773D01*
X3931452Y807173D01*
X3880652Y781773D01*
X6641853Y4286111D02*
X6667253Y4336911D01*
X6641853Y4387711D01*
X6692653Y4362311D01*
X6743453Y4387711D01*
X6718053Y4336911D01*
X6743453Y4286111D01*
X6692653Y4311511D01*
X6641853Y4286111D01*
X7128867Y4322321D02*
X7154267Y4373121D01*
X7128867Y4423921D01*
X7179667Y4398521D01*
X7230467Y4423921D01*
X7205067Y4373121D01*
X7230467Y4322321D01*
X7179667Y4347721D01*
X7128867Y4322321D01*
X6996700Y4439200D02*
X7022100Y4490000D01*
X6996700Y4540800D01*
X7047500Y4515400D01*
X7098300Y4540800D01*
X7072900Y4490000D01*
X7098300Y4439200D01*
X7047500Y4464600D01*
X6996700Y4439200D01*
X7149200Y4429200D02*
X7174600Y4480000D01*
X7149200Y4530800D01*
X7200000Y4505400D01*
X7250800Y4530800D01*
X7225400Y4480000D01*
X7250800Y4429200D01*
X7200000Y4454600D01*
X7149200Y4429200D01*
X5917282Y4289341D02*
X5942682Y4340141D01*
X5917282Y4390941D01*
X5968082Y4365541D01*
X6018882Y4390941D01*
X5993482Y4340141D01*
X6018882Y4289341D01*
X5968082Y4314741D01*
X5917282Y4289341D01*
X5699200Y4459200D02*
X5724600Y4510000D01*
X5699200Y4560800D01*
X5750000Y4535400D01*
X5800800Y4560800D01*
X5775400Y4510000D01*
X5800800Y4459200D01*
X5750000Y4484600D01*
X5699200Y4459200D01*
X5374118Y4276651D02*
X5399518Y4327451D01*
X5374118Y4378251D01*
X5424918Y4352851D01*
X5475718Y4378251D01*
X5450318Y4327451D01*
X5475718Y4276651D01*
X5424918Y4302051D01*
X5374118Y4276651D01*
X6494730Y3721700D02*
X6520130Y3772500D01*
X6494730Y3823300D01*
X6545530Y3797900D01*
X6596330Y3823300D01*
X6570930Y3772500D01*
X6596330Y3721700D01*
X6545530Y3747100D01*
X6494730Y3721700D01*
X5029200Y3909200D02*
X5054600Y3960000D01*
X5029200Y4010800D01*
X5080000Y3985400D01*
X5130800Y4010800D01*
X5105400Y3960000D01*
X5130800Y3909200D01*
X5080000Y3934600D01*
X5029200Y3909200D01*
X6870296Y3925961D02*
X6895696Y3976761D01*
X6870296Y4027561D01*
X6921096Y4002161D01*
X6971896Y4027561D01*
X6946496Y3976761D01*
X6971896Y3925961D01*
X6921096Y3951361D01*
X6870296Y3925961D01*
X6720533Y3922512D02*
X6745933Y3973312D01*
X6720533Y4024112D01*
X6771333Y3998712D01*
X6822133Y4024112D01*
X6796733Y3973312D01*
X6822133Y3922512D01*
X6771333Y3947912D01*
X6720533Y3922512D01*
X6494200Y3961700D02*
X6519600Y4012500D01*
X6494200Y4063300D01*
X6545000Y4037900D01*
X6595800Y4063300D01*
X6570400Y4012500D01*
X6595800Y3961700D01*
X6545000Y3987100D01*
X6494200Y3961700D01*
X7159200Y4079200D02*
X7184600Y4130000D01*
X7159200Y4180800D01*
X7210000Y4155400D01*
X7260800Y4180800D01*
X7235400Y4130000D01*
X7260800Y4079200D01*
X7210000Y4104600D01*
X7159200Y4079200D01*
X6559200Y3679200D02*
X6584600Y3730000D01*
X6559200Y3780800D01*
X6610000Y3755400D01*
X6660800Y3780800D01*
X6635400Y3730000D01*
X6660800Y3679200D01*
X6610000Y3704600D01*
X6559200Y3679200D01*
X6392718Y3602992D02*
X6418118Y3653792D01*
X6392718Y3704592D01*
X6443518Y3679192D01*
X6494318Y3704592D01*
X6468918Y3653792D01*
X6494318Y3602992D01*
X6443518Y3628392D01*
X6392718Y3602992D01*
X6645152Y3498887D02*
X6670552Y3549687D01*
X6645152Y3600487D01*
X6695952Y3575087D01*
X6746752Y3600487D01*
X6721352Y3549687D01*
X6746752Y3498887D01*
X6695952Y3524287D01*
X6645152Y3498887D01*
X6793895Y4144284D02*
X6819295Y4195084D01*
X6793895Y4245884D01*
X6844695Y4220484D01*
X6895495Y4245884D01*
X6870095Y4195084D01*
X6895495Y4144284D01*
X6844695Y4169684D01*
X6793895Y4144284D01*
X7045469Y3819375D02*
X7070869Y3870175D01*
X7045469Y3920975D01*
X7096269Y3895575D01*
X7147069Y3920975D01*
X7121669Y3870175D01*
X7147069Y3819375D01*
X7096269Y3844775D01*
X7045469Y3819375D01*
X4309200Y4670922D02*
X4334600Y4721722D01*
X4309200Y4772522D01*
X4360000Y4747122D01*
X4410800Y4772522D01*
X4385400Y4721722D01*
X4410800Y4670922D01*
X4360000Y4696322D01*
X4309200Y4670922D01*
X6689200Y4089200D02*
X6714600Y4140000D01*
X6689200Y4190800D01*
X6740000Y4165400D01*
X6790800Y4190800D01*
X6765400Y4140000D01*
X6790800Y4089200D01*
X6740000Y4114600D01*
X6689200Y4089200D01*
X7221700Y2474655D02*
X7247100Y2525455D01*
X7221700Y2576255D01*
X7272500Y2550855D01*
X7323300Y2576255D01*
X7297900Y2525455D01*
X7323300Y2474655D01*
X7272500Y2500055D01*
X7221700Y2474655D01*
Y2623947D02*
X7247100Y2674747D01*
X7221700Y2725547D01*
X7272500Y2700147D01*
X7323300Y2725547D01*
X7297900Y2674747D01*
X7323300Y2623947D01*
X7272500Y2649347D01*
X7221700Y2623947D01*
Y2003965D02*
X7247100Y2054765D01*
X7221700Y2105565D01*
X7272500Y2080165D01*
X7323300Y2105565D01*
X7297900Y2054765D01*
X7323300Y2003965D01*
X7272500Y2029365D01*
X7221700Y2003965D01*
Y2153591D02*
X7247100Y2204391D01*
X7221700Y2255191D01*
X7272500Y2229791D01*
X7323300Y2255191D01*
X7297900Y2204391D01*
X7323300Y2153591D01*
X7272500Y2178991D01*
X7221700Y2153591D01*
X5858191Y4575732D02*
X5883591Y4626532D01*
X5858191Y4677332D01*
X5908991Y4651932D01*
X5959791Y4677332D01*
X5934391Y4626532D01*
X5959791Y4575732D01*
X5908991Y4601132D01*
X5858191Y4575732D01*
X6572951Y4306770D02*
X6598351Y4357570D01*
X6572951Y4408370D01*
X6623751Y4382970D01*
X6674551Y4408370D01*
X6649151Y4357570D01*
X6674551Y4306770D01*
X6623751Y4332170D01*
X6572951Y4306770D01*
X6109200Y4539200D02*
X6134600Y4590000D01*
X6109200Y4640800D01*
X6160000Y4615400D01*
X6210800Y4640800D01*
X6185400Y4590000D01*
X6210800Y4539200D01*
X6160000Y4564600D01*
X6109200Y4539200D01*
X7159990Y4670811D02*
X7185390Y4721611D01*
X7159990Y4772411D01*
X7210790Y4747011D01*
X7261590Y4772411D01*
X7236190Y4721611D01*
X7261590Y4670811D01*
X7210790Y4696211D01*
X7159990Y4670811D01*
X7489200Y4529200D02*
X7514600Y4580000D01*
X7489200Y4630800D01*
X7540000Y4605400D01*
X7590800Y4630800D01*
X7565400Y4580000D01*
X7590800Y4529200D01*
X7540000Y4554600D01*
X7489200Y4529200D01*
X5499200Y4579200D02*
X5524600Y4630000D01*
X5499200Y4680800D01*
X5550000Y4655400D01*
X5600800Y4680800D01*
X5575400Y4630000D01*
X5600800Y4579200D01*
X5550000Y4604600D01*
X5499200Y4579200D01*
X5449063Y4581456D02*
X5474463Y4632256D01*
X5449063Y4683056D01*
X5499863Y4657656D01*
X5550663Y4683056D01*
X5525263Y4632256D01*
X5550663Y4581456D01*
X5499863Y4606856D01*
X5449063Y4581456D01*
X5090608Y4498918D02*
X5116008Y4549718D01*
X5090608Y4600518D01*
X5141408Y4575118D01*
X5192208Y4600518D01*
X5166808Y4549718D01*
X5192208Y4498918D01*
X5141408Y4524318D01*
X5090608Y4498918D01*
X5159139Y4504219D02*
X5184539Y4555019D01*
X5159139Y4605819D01*
X5209939Y4580419D01*
X5260739Y4605819D01*
X5235339Y4555019D01*
X5260739Y4504219D01*
X5209939Y4529619D01*
X5159139Y4504219D01*
X5857757Y764152D02*
X5883157Y814952D01*
X5857757Y865752D01*
X5908557Y840352D01*
X5959357Y865752D01*
X5933957Y814952D01*
X5959357Y764152D01*
X5908557Y789552D01*
X5857757Y764152D01*
X4069200Y4519200D02*
X4094600Y4570000D01*
X4069200Y4620800D01*
X4120000Y4595400D01*
X4170800Y4620800D01*
X4145400Y4570000D01*
X4170800Y4519200D01*
X4120000Y4544600D01*
X4069200Y4519200D01*
X6629200Y4789200D02*
X6654600Y4840000D01*
X6629200Y4890800D01*
X6680000Y4865400D01*
X6730800Y4890800D01*
X6705400Y4840000D01*
X6730800Y4789200D01*
X6680000Y4814600D01*
X6629200Y4789200D01*
X5189200Y4799200D02*
X5214600Y4850000D01*
X5189200Y4900800D01*
X5240000Y4875400D01*
X5290800Y4900800D01*
X5265400Y4850000D01*
X5290800Y4799200D01*
X5240000Y4824600D01*
X5189200Y4799200D01*
X4339200D02*
X4364600Y4850000D01*
X4339200Y4900800D01*
X4390000Y4875400D01*
X4440800Y4900800D01*
X4415400Y4850000D01*
X4440800Y4799200D01*
X4390000Y4824600D01*
X4339200Y4799200D01*
X3569200Y4499200D02*
X3594600Y4550000D01*
X3569200Y4600800D01*
X3620000Y4575400D01*
X3670800Y4600800D01*
X3645400Y4550000D01*
X3670800Y4499200D01*
X3620000Y4524600D01*
X3569200Y4499200D01*
X3971408Y4644689D02*
X3996808Y4695489D01*
X3971408Y4746289D01*
X4022208Y4720889D01*
X4073008Y4746289D01*
X4047608Y4695489D01*
X4073008Y4644689D01*
X4022208Y4670089D01*
X3971408Y4644689D01*
X3959200Y4479200D02*
X3984600Y4530000D01*
X3959200Y4580800D01*
X4010000Y4555400D01*
X4060800Y4580800D01*
X4035400Y4530000D01*
X4060800Y4479200D01*
X4010000Y4504600D01*
X3959200Y4479200D01*
X5662889Y4839334D02*
X5688289Y4890134D01*
X5662889Y4940934D01*
X5713689Y4915534D01*
X5764489Y4940934D01*
X5739089Y4890134D01*
X5764489Y4839334D01*
X5713689Y4864734D01*
X5662889Y4839334D01*
X6984970Y4338833D02*
X7010370Y4389633D01*
X6984970Y4440433D01*
X7035770Y4415033D01*
X7086570Y4440433D01*
X7061170Y4389633D01*
X7086570Y4338833D01*
X7035770Y4364233D01*
X6984970Y4338833D01*
X6300200Y4573283D02*
X6325600Y4624083D01*
X6300200Y4674883D01*
X6351000Y4649483D01*
X6401800Y4674883D01*
X6376400Y4624083D01*
X6401800Y4573283D01*
X6351000Y4598683D01*
X6300200Y4573283D01*
X4032701Y728988D02*
X4058101Y779788D01*
X4032701Y830588D01*
X4083501Y805188D01*
X4134301Y830588D01*
X4108901Y779788D01*
X4134301Y728988D01*
X4083501Y754388D01*
X4032701Y728988D01*
X2670726Y4776956D02*
X2696126Y4827756D01*
X2670726Y4878556D01*
X2721526Y4853156D01*
X2772326Y4878556D01*
X2746926Y4827756D01*
X2772326Y4776956D01*
X2721526Y4802356D01*
X2670726Y4776956D01*
X2771115Y4779949D02*
X2796515Y4830749D01*
X2771115Y4881549D01*
X2821915Y4856149D01*
X2872715Y4881549D01*
X2847315Y4830749D01*
X2872715Y4779949D01*
X2821915Y4805349D01*
X2771115Y4779949D01*
X1905982Y970669D02*
X1931382Y1021469D01*
X1905982Y1072269D01*
X1956782Y1046869D01*
X2007582Y1072269D01*
X1982182Y1021469D01*
X2007582Y970669D01*
X1956782Y996069D01*
X1905982Y970669D01*
X1821300Y1423975D02*
X1846700Y1474775D01*
X1821300Y1525575D01*
X1872100Y1500175D01*
X1922900Y1525575D01*
X1897500Y1474775D01*
X1922900Y1423975D01*
X1872100Y1449375D01*
X1821300Y1423975D01*
X3098132Y691712D02*
X3123532Y742512D01*
X3098132Y793312D01*
X3148932Y767912D01*
X3199732Y793312D01*
X3174332Y742512D01*
X3199732Y691712D01*
X3148932Y717112D01*
X3098132Y691712D01*
X3784470Y1132157D02*
X3809870Y1182957D01*
X3784470Y1233757D01*
X3835270Y1208357D01*
X3886070Y1233757D01*
X3860670Y1182957D01*
X3886070Y1132157D01*
X3835270Y1157557D01*
X3784470Y1132157D01*
X3835116Y1089656D02*
X3860516Y1140456D01*
X3835116Y1191256D01*
X3885916Y1165856D01*
X3936716Y1191256D01*
X3911316Y1140456D01*
X3936716Y1089656D01*
X3885916Y1115056D01*
X3835116Y1089656D01*
X4229125Y665751D02*
X4254525Y716551D01*
X4229125Y767351D01*
X4279925Y741951D01*
X4330725Y767351D01*
X4305325Y716551D01*
X4330725Y665751D01*
X4279925Y691151D01*
X4229125Y665751D01*
X6702571Y2063723D02*
X6727971Y2114523D01*
X6702571Y2165323D01*
X6753371Y2139923D01*
X6804171Y2165323D01*
X6778771Y2114523D01*
X6804171Y2063723D01*
X6753371Y2089123D01*
X6702571Y2063723D01*
X6708594Y1983584D02*
X6733994Y2034384D01*
X6708594Y2085184D01*
X6759394Y2059784D01*
X6810194Y2085184D01*
X6784794Y2034384D01*
X6810194Y1983584D01*
X6759394Y2008984D01*
X6708594Y1983584D01*
X4460001Y3642868D02*
X4485401Y3693668D01*
X4460001Y3744468D01*
X4510801Y3719068D01*
X4561601Y3744468D01*
X4536201Y3693668D01*
X4561601Y3642868D01*
X4510801Y3668268D01*
X4460001Y3642868D01*
X4459839Y3714970D02*
X4485239Y3765770D01*
X4459839Y3816570D01*
X4510639Y3791170D01*
X4561439Y3816570D01*
X4536039Y3765770D01*
X4561439Y3714970D01*
X4510639Y3740370D01*
X4459839Y3714970D01*
X4662798Y2922246D02*
X4688198Y2973046D01*
X4662798Y3023846D01*
X4713598Y2998446D01*
X4764398Y3023846D01*
X4738998Y2973046D01*
X4764398Y2922246D01*
X4713598Y2947646D01*
X4662798Y2922246D01*
X4658736Y2856473D02*
X4684136Y2907273D01*
X4658736Y2958073D01*
X4709536Y2932673D01*
X4760336Y2958073D01*
X4734936Y2907273D01*
X4760336Y2856473D01*
X4709536Y2881873D01*
X4658736Y2856473D01*
X4511462Y3051114D02*
X4536862Y3101914D01*
X4511462Y3152714D01*
X4562262Y3127314D01*
X4613062Y3152714D01*
X4587662Y3101914D01*
X4613062Y3051114D01*
X4562262Y3076514D01*
X4511462Y3051114D01*
X5049200Y779200D02*
X5074600Y830000D01*
X5049200Y880800D01*
X5100000Y855400D01*
X5150800Y880800D01*
X5125400Y830000D01*
X5150800Y779200D01*
X5100000Y804600D01*
X5049200Y779200D01*
X5471700Y729200D02*
X5497100Y780000D01*
X5471700Y830800D01*
X5522500Y805400D01*
X5573300Y830800D01*
X5547900Y780000D01*
X5573300Y729200D01*
X5522500Y754600D01*
X5471700Y729200D01*
X5361700D02*
X5387100Y780000D01*
X5361700Y830800D01*
X5412500Y805400D01*
X5463300Y830800D01*
X5437900Y780000D01*
X5463300Y729200D01*
X5412500Y754600D01*
X5361700Y729200D01*
X5128137Y771150D02*
X5153537Y821950D01*
X5128137Y872750D01*
X5178937Y847350D01*
X5229737Y872750D01*
X5204337Y821950D01*
X5229737Y771150D01*
X5178937Y796550D01*
X5128137Y771150D01*
X4379200Y3639200D02*
X4404600Y3690000D01*
X4379200Y3740800D01*
X4430000Y3715400D01*
X4480800Y3740800D01*
X4455400Y3690000D01*
X4480800Y3639200D01*
X4430000Y3664600D01*
X4379200Y3639200D01*
X5223130Y574079D02*
X5248530Y624879D01*
X5223130Y675679D01*
X5273930Y650279D01*
X5324730Y675679D01*
X5299330Y624879D01*
X5324730Y574079D01*
X5273930Y599479D01*
X5223130Y574079D01*
X8129200Y4659200D02*
X8154600Y4710000D01*
X8129200Y4760800D01*
X8180000Y4735400D01*
X8230800Y4760800D01*
X8205400Y4710000D01*
X8230800Y4659200D01*
X8180000Y4684600D01*
X8129200Y4659200D01*
X7396179Y2625122D02*
X7421579Y2675922D01*
X7396179Y2726722D01*
X7446979Y2701322D01*
X7497779Y2726722D01*
X7472379Y2675922D01*
X7497779Y2625122D01*
X7446979Y2650522D01*
X7396179Y2625122D01*
X7389246Y2473625D02*
X7414646Y2524425D01*
X7389246Y2575225D01*
X7440046Y2549825D01*
X7490846Y2575225D01*
X7465446Y2524425D01*
X7490846Y2473625D01*
X7440046Y2499025D01*
X7389246Y2473625D01*
X8212373Y3509425D02*
X8237773Y3560225D01*
X8212373Y3611025D01*
X8263173Y3585625D01*
X8313973Y3611025D01*
X8288573Y3560225D01*
X8313973Y3509425D01*
X8263173Y3534825D01*
X8212373Y3509425D01*
X8211946Y3446206D02*
X8237346Y3497006D01*
X8211946Y3547806D01*
X8262746Y3522406D01*
X8313546Y3547806D01*
X8288146Y3497006D01*
X8313546Y3446206D01*
X8262746Y3471606D01*
X8211946Y3446206D01*
X8291906Y3366598D02*
X8317306Y3417398D01*
X8291906Y3468198D01*
X8342706Y3442798D01*
X8393506Y3468198D01*
X8368106Y3417398D01*
X8393506Y3366598D01*
X8342706Y3391998D01*
X8291906Y3366598D01*
X8287990Y3522766D02*
X8313390Y3573566D01*
X8287990Y3624366D01*
X8338790Y3598966D01*
X8389590Y3624366D01*
X8364190Y3573566D01*
X8389590Y3522766D01*
X8338790Y3548166D01*
X8287990Y3522766D01*
X6095543Y2074115D02*
X6120943Y2124915D01*
X6095543Y2175715D01*
X6146343Y2150315D01*
X6197143Y2175715D01*
X6171743Y2124915D01*
X6197143Y2074115D01*
X6146343Y2099515D01*
X6095543Y2074115D01*
X6285178Y1664316D02*
X6310578Y1715116D01*
X6285178Y1765916D01*
X6335978Y1740516D01*
X6386778Y1765916D01*
X6361378Y1715116D01*
X6386778Y1664316D01*
X6335978Y1689716D01*
X6285178Y1664316D01*
X6318984Y1324667D02*
X6344384Y1375467D01*
X6318984Y1426267D01*
X6369784Y1400867D01*
X6420584Y1426267D01*
X6395184Y1375467D01*
X6420584Y1324667D01*
X6369784Y1350067D01*
X6318984Y1324667D01*
X8186278Y786439D02*
X8211678Y837239D01*
X8186278Y888039D01*
X8237078Y862639D01*
X8287878Y888039D01*
X8262478Y837239D01*
X8287878Y786439D01*
X8237078Y811839D01*
X8186278Y786439D01*
X8228447Y701876D02*
X8253847Y752676D01*
X8228447Y803476D01*
X8279247Y778076D01*
X8330047Y803476D01*
X8304647Y752676D01*
X8330047Y701876D01*
X8279247Y727276D01*
X8228447Y701876D01*
X7588031Y1029200D02*
X7613431Y1080000D01*
X7588031Y1130800D01*
X7638831Y1105400D01*
X7689631Y1130800D01*
X7664231Y1080000D01*
X7689631Y1029200D01*
X7638831Y1054600D01*
X7588031Y1029200D01*
X8193526Y874009D02*
X8218926Y924809D01*
X8193526Y975609D01*
X8244326Y950209D01*
X8295126Y975609D01*
X8269726Y924809D01*
X8295126Y874009D01*
X8244326Y899409D01*
X8193526Y874009D01*
X8204141Y954112D02*
X8229541Y1004912D01*
X8204141Y1055712D01*
X8254941Y1030312D01*
X8305741Y1055712D01*
X8280341Y1004912D01*
X8305741Y954112D01*
X8254941Y979512D01*
X8204141Y954112D01*
X8289200Y699200D02*
X8314600Y750000D01*
X8289200Y800800D01*
X8340000Y775400D01*
X8390800Y800800D01*
X8365400Y750000D01*
X8390800Y699200D01*
X8340000Y724600D01*
X8289200Y699200D01*
X7587217Y1179200D02*
X7612617Y1230000D01*
X7587217Y1280800D01*
X7638017Y1255400D01*
X7688817Y1280800D01*
X7663417Y1230000D01*
X7688817Y1179200D01*
X7638017Y1204600D01*
X7587217Y1179200D01*
X8135943Y788896D02*
X8161343Y839696D01*
X8135943Y890496D01*
X8186743Y865096D01*
X8237543Y890496D01*
X8212143Y839696D01*
X8237543Y788896D01*
X8186743Y814296D01*
X8135943Y788896D01*
X8288320Y4577645D02*
X8313720Y4628445D01*
X8288320Y4679245D01*
X8339120Y4653845D01*
X8389920Y4679245D01*
X8364520Y4628445D01*
X8389920Y4577645D01*
X8339120Y4603045D01*
X8288320Y4577645D01*
X8139297Y949373D02*
X8164697Y1000173D01*
X8139297Y1050973D01*
X8190097Y1025573D01*
X8240897Y1050973D01*
X8215497Y1000173D01*
X8240897Y949373D01*
X8190097Y974773D01*
X8139297Y949373D01*
X8285535Y1113576D02*
X8310935Y1164376D01*
X8285535Y1215176D01*
X8336335Y1189776D01*
X8387135Y1215176D01*
X8361735Y1164376D01*
X8387135Y1113576D01*
X8336335Y1138976D01*
X8285535Y1113576D01*
X8289032Y1513261D02*
X8314432Y1564061D01*
X8289032Y1614861D01*
X8339832Y1589461D01*
X8390632Y1614861D01*
X8365232Y1564061D01*
X8390632Y1513261D01*
X8339832Y1538661D01*
X8289032Y1513261D01*
X8285076Y1595953D02*
X8310476Y1646753D01*
X8285076Y1697553D01*
X8335876Y1672153D01*
X8386676Y1697553D01*
X8361276Y1646753D01*
X8386676Y1595953D01*
X8335876Y1621353D01*
X8285076Y1595953D01*
X8288373Y1754840D02*
X8313773Y1805640D01*
X8288373Y1856440D01*
X8339173Y1831040D01*
X8389973Y1856440D01*
X8364573Y1805640D01*
X8389973Y1754840D01*
X8339173Y1780240D01*
X8288373Y1754840D01*
X8288731Y3604697D02*
X8314131Y3655497D01*
X8288731Y3706297D01*
X8339531Y3680897D01*
X8390331Y3706297D01*
X8364931Y3655497D01*
X8390331Y3604697D01*
X8339531Y3630097D01*
X8288731Y3604697D01*
Y3844451D02*
X8314131Y3895251D01*
X8288731Y3946051D01*
X8339531Y3920651D01*
X8390331Y3946051D01*
X8364931Y3895251D01*
X8390331Y3844451D01*
X8339531Y3869851D01*
X8288731Y3844451D01*
X8289200Y4724200D02*
X8314600Y4775000D01*
X8289200Y4825800D01*
X8340000Y4800400D01*
X8390800Y4825800D01*
X8365400Y4775000D01*
X8390800Y4724200D01*
X8340000Y4749600D01*
X8289200Y4724200D01*
X8286058Y4244200D02*
X8311458Y4295000D01*
X8286058Y4345800D01*
X8336858Y4320400D01*
X8387658Y4345800D01*
X8362258Y4295000D01*
X8387658Y4244200D01*
X8336858Y4269600D01*
X8286058Y4244200D01*
X8287850Y4484200D02*
X8313250Y4535000D01*
X8287850Y4585800D01*
X8338650Y4560400D01*
X8389450Y4585800D01*
X8364050Y4535000D01*
X8389450Y4484200D01*
X8338650Y4509600D01*
X8287850Y4484200D01*
X8137431Y1666482D02*
X8162831Y1717282D01*
X8137431Y1768082D01*
X8188231Y1742682D01*
X8239031Y1768082D01*
X8213631Y1717282D01*
X8239031Y1666482D01*
X8188231Y1691882D01*
X8137431Y1666482D01*
X8287707Y1671034D02*
X8313107Y1721834D01*
X8287707Y1772634D01*
X8338507Y1747234D01*
X8389307Y1772634D01*
X8363907Y1721834D01*
X8389307Y1671034D01*
X8338507Y1696434D01*
X8287707Y1671034D01*
X8140160Y1422041D02*
X8165560Y1472841D01*
X8140160Y1523641D01*
X8190960Y1498241D01*
X8241760Y1523641D01*
X8216360Y1472841D01*
X8241760Y1422041D01*
X8190960Y1447441D01*
X8140160Y1422041D01*
X8139200Y1369200D02*
X8164600Y1420000D01*
X8139200Y1470800D01*
X8190000Y1445400D01*
X8240800Y1470800D01*
X8215400Y1420000D01*
X8240800Y1369200D01*
X8190000Y1394600D01*
X8139200Y1369200D01*
X8140335Y1261806D02*
X8165735Y1312606D01*
X8140335Y1363406D01*
X8191135Y1338006D01*
X8241935Y1363406D01*
X8216535Y1312606D01*
X8241935Y1261806D01*
X8191135Y1287206D01*
X8140335Y1261806D01*
X8134272Y1210380D02*
X8159672Y1261180D01*
X8134272Y1311980D01*
X8185072Y1286580D01*
X8235872Y1311980D01*
X8210472Y1261180D01*
X8235872Y1210380D01*
X8185072Y1235780D01*
X8134272Y1210380D01*
X8284541Y4629495D02*
X8309941Y4680295D01*
X8284541Y4731095D01*
X8335341Y4705695D01*
X8386141Y4731095D01*
X8360741Y4680295D01*
X8386141Y4629495D01*
X8335341Y4654895D01*
X8284541Y4629495D01*
X8144155Y4388838D02*
X8169555Y4439638D01*
X8144155Y4490438D01*
X8194955Y4465038D01*
X8245755Y4490438D01*
X8220355Y4439638D01*
X8245755Y4388838D01*
X8194955Y4414238D01*
X8144155Y4388838D01*
X8283028Y4338301D02*
X8308428Y4389101D01*
X8283028Y4439901D01*
X8333828Y4414501D01*
X8384628Y4439901D01*
X8359228Y4389101D01*
X8384628Y4338301D01*
X8333828Y4363701D01*
X8283028Y4338301D01*
X8282273Y4391028D02*
X8307673Y4441828D01*
X8282273Y4492628D01*
X8333073Y4467228D01*
X8383873Y4492628D01*
X8358473Y4441828D01*
X8383873Y4391028D01*
X8333073Y4416428D01*
X8282273Y4391028D01*
X8139200Y3669200D02*
X8164600Y3720000D01*
X8139200Y3770800D01*
X8190000Y3745400D01*
X8240800Y3770800D01*
X8215400Y3720000D01*
X8240800Y3669200D01*
X8190000Y3694600D01*
X8139200Y3669200D01*
X8279200D02*
X8304600Y3720000D01*
X8279200Y3770800D01*
X8330000Y3745400D01*
X8380800Y3770800D01*
X8355400Y3720000D01*
X8380800Y3669200D01*
X8330000Y3694600D01*
X8279200Y3669200D01*
X4609200Y3489200D02*
X4634600Y3540000D01*
X4609200Y3590800D01*
X4660000Y3565400D01*
X4710800Y3590800D01*
X4685400Y3540000D01*
X4710800Y3489200D01*
X4660000Y3514600D01*
X4609200Y3489200D01*
X5401681Y3379281D02*
X5427081Y3430081D01*
X5401681Y3480881D01*
X5452481Y3455481D01*
X5503281Y3480881D01*
X5477881Y3430081D01*
X5503281Y3379281D01*
X5452481Y3404681D01*
X5401681Y3379281D01*
X5160275Y3674890D02*
X5185675Y3725690D01*
X5160275Y3776490D01*
X5211075Y3751090D01*
X5261875Y3776490D01*
X5236475Y3725690D01*
X5261875Y3674890D01*
X5211075Y3700290D01*
X5160275Y3674890D01*
X4567152Y4289433D02*
X4592552Y4340233D01*
X4567152Y4391033D01*
X4617952Y4365633D01*
X4668752Y4391033D01*
X4643352Y4340233D01*
X4668752Y4289433D01*
X4617952Y4314833D01*
X4567152Y4289433D01*
X5071286Y2793116D02*
X5096686Y2843916D01*
X5071286Y2894716D01*
X5122086Y2869316D01*
X5172886Y2894716D01*
X5147486Y2843916D01*
X5172886Y2793116D01*
X5122086Y2818516D01*
X5071286Y2793116D01*
X5071918Y3117784D02*
X5097318Y3168584D01*
X5071918Y3219384D01*
X5122718Y3193984D01*
X5173518Y3219384D01*
X5148118Y3168584D01*
X5173518Y3117784D01*
X5122718Y3143184D01*
X5071918Y3117784D01*
X5069200Y2919200D02*
X5094600Y2970000D01*
X5069200Y3020800D01*
X5120000Y2995400D01*
X5170800Y3020800D01*
X5145400Y2970000D01*
X5170800Y2919200D01*
X5120000Y2944600D01*
X5069200Y2919200D01*
X4348484Y2764147D02*
X4373884Y2814947D01*
X4348484Y2865747D01*
X4399284Y2840347D01*
X4450084Y2865747D01*
X4424684Y2814947D01*
X4450084Y2764147D01*
X4399284Y2789547D01*
X4348484Y2764147D01*
X1956455Y4648513D02*
X1981855Y4699313D01*
X1956455Y4750113D01*
X2007255Y4724713D01*
X2058055Y4750113D01*
X2032655Y4699313D01*
X2058055Y4648513D01*
X2007255Y4673913D01*
X1956455Y4648513D01*
X2305210Y4649998D02*
X2330610Y4700798D01*
X2305210Y4751598D01*
X2356010Y4726198D01*
X2406810Y4751598D01*
X2381410Y4700798D01*
X2406810Y4649998D01*
X2356010Y4675398D01*
X2305210Y4649998D01*
X3429200Y4629200D02*
X3454600Y4680000D01*
X3429200Y4730800D01*
X3480000Y4705400D01*
X3530800Y4730800D01*
X3505400Y4680000D01*
X3530800Y4629200D01*
X3480000Y4654600D01*
X3429200Y4629200D01*
X3404658Y4350633D02*
X3430058Y4401433D01*
X3404658Y4452233D01*
X3455458Y4426833D01*
X3506258Y4452233D01*
X3480858Y4401433D01*
X3506258Y4350633D01*
X3455458Y4376033D01*
X3404658Y4350633D01*
X3629068Y4257091D02*
X3654468Y4307891D01*
X3629068Y4358691D01*
X3679868Y4333291D01*
X3730668Y4358691D01*
X3705268Y4307891D01*
X3730668Y4257091D01*
X3679868Y4282491D01*
X3629068Y4257091D01*
X3944527Y3644068D02*
X3969927Y3694868D01*
X3944527Y3745668D01*
X3995327Y3720268D01*
X4046127Y3745668D01*
X4020727Y3694868D01*
X4046127Y3644068D01*
X3995327Y3669468D01*
X3944527Y3644068D01*
X3628600Y3643691D02*
X3654000Y3694491D01*
X3628600Y3745291D01*
X3679400Y3719891D01*
X3730200Y3745291D01*
X3704800Y3694491D01*
X3730200Y3643691D01*
X3679400Y3669091D01*
X3628600Y3643691D01*
X3859210Y4254252D02*
X3884610Y4305052D01*
X3859210Y4355852D01*
X3910010Y4330452D01*
X3960810Y4355852D01*
X3935410Y4305052D01*
X3960810Y4254252D01*
X3910010Y4279652D01*
X3859210Y4254252D01*
X2821537Y4359693D02*
X2846937Y4410493D01*
X2821537Y4461293D01*
X2872337Y4435893D01*
X2923137Y4461293D01*
X2897737Y4410493D01*
X2923137Y4359693D01*
X2872337Y4385093D01*
X2821537Y4359693D01*
X2148502Y4218983D02*
X2173902Y4269783D01*
X2148502Y4320583D01*
X2199302Y4295183D01*
X2250102Y4320583D01*
X2224702Y4269783D01*
X2250102Y4218983D01*
X2199302Y4244383D01*
X2148502Y4218983D01*
X2588450Y4232143D02*
X2613850Y4282943D01*
X2588450Y4333743D01*
X2639250Y4308343D01*
X2690050Y4333743D01*
X2664650Y4282943D01*
X2690050Y4232143D01*
X2639250Y4257543D01*
X2588450Y4232143D01*
X3279014Y3762535D02*
X3304414Y3813335D01*
X3279014Y3864135D01*
X3329814Y3838735D01*
X3380614Y3864135D01*
X3355214Y3813335D01*
X3380614Y3762535D01*
X3329814Y3787935D01*
X3279014Y3762535D01*
X3386487Y3398180D02*
X3411887Y3448980D01*
X3386487Y3499780D01*
X3437287Y3474380D01*
X3488087Y3499780D01*
X3462687Y3448980D01*
X3488087Y3398180D01*
X3437287Y3423580D01*
X3386487Y3398180D01*
X4229200Y1809200D02*
X4254600Y1860000D01*
X4229200Y1910800D01*
X4280000Y1885400D01*
X4330800Y1910800D01*
X4305400Y1860000D01*
X4330800Y1809200D01*
X4280000Y1834600D01*
X4229200Y1809200D01*
X3208928Y1260146D02*
X3234328Y1310946D01*
X3208928Y1361746D01*
X3259728Y1336346D01*
X3310528Y1361746D01*
X3285128Y1310946D01*
X3310528Y1260146D01*
X3259728Y1285546D01*
X3208928Y1260146D01*
X2669200Y909200D02*
X2694600Y960000D01*
X2669200Y1010800D01*
X2720000Y985400D01*
X2770800Y1010800D01*
X2745400Y960000D01*
X2770800Y909200D01*
X2720000Y934600D01*
X2669200Y909200D01*
X2949633Y750368D02*
X2975033Y801168D01*
X2949633Y851968D01*
X3000433Y826568D01*
X3051233Y851968D01*
X3025833Y801168D01*
X3051233Y750368D01*
X3000433Y775768D01*
X2949633Y750368D01*
X2359156Y579805D02*
X2384556Y630605D01*
X2359156Y681405D01*
X2409956Y656005D01*
X2460756Y681405D01*
X2435356Y630605D01*
X2460756Y579805D01*
X2409956Y605205D01*
X2359156Y579805D01*
X1448938Y1175561D02*
X1474338Y1226361D01*
X1448938Y1277161D01*
X1499738Y1251761D01*
X1550538Y1277161D01*
X1525138Y1226361D01*
X1550538Y1175561D01*
X1499738Y1200961D01*
X1448938Y1175561D01*
X2014139Y1317411D02*
X2039539Y1368211D01*
X2014139Y1419011D01*
X2064939Y1393611D01*
X2115739Y1419011D01*
X2090339Y1368211D01*
X2115739Y1317411D01*
X2064939Y1342811D01*
X2014139Y1317411D01*
X1957692Y1247402D02*
X1983092Y1298202D01*
X1957692Y1349002D01*
X2008492Y1323602D01*
X2059292Y1349002D01*
X2033892Y1298202D01*
X2059292Y1247402D01*
X2008492Y1272802D01*
X1957692Y1247402D01*
X2199200Y1529200D02*
X2224600Y1580000D01*
X2199200Y1630800D01*
X2250000Y1605400D01*
X2300800Y1630800D01*
X2275400Y1580000D01*
X2300800Y1529200D01*
X2250000Y1554600D01*
X2199200Y1529200D01*
X2364759Y1474893D02*
X2390159Y1525693D01*
X2364759Y1576493D01*
X2415559Y1551093D01*
X2466359Y1576493D01*
X2440959Y1525693D01*
X2466359Y1474893D01*
X2415559Y1500293D01*
X2364759Y1474893D01*
X2459200Y2579200D02*
X2484600Y2630000D01*
X2459200Y2680800D01*
X2510000Y2655400D01*
X2560800Y2680800D01*
X2535400Y2630000D01*
X2560800Y2579200D01*
X2510000Y2604600D01*
X2459200Y2579200D01*
X2248607Y2926339D02*
X2274007Y2977139D01*
X2248607Y3027939D01*
X2299407Y3002539D01*
X2350207Y3027939D01*
X2324807Y2977139D01*
X2350207Y2926339D01*
X2299407Y2951739D01*
X2248607Y2926339D01*
X2314567Y2983977D02*
X2339967Y3034777D01*
X2314567Y3085577D01*
X2365367Y3060177D01*
X2416167Y3085577D01*
X2390767Y3034777D01*
X2416167Y2983977D01*
X2365367Y3009377D01*
X2314567Y2983977D01*
X1275100Y5258100D02*
Y5232700D01*
X1325900D01*
Y5258100D01*
X1351300D01*
Y5308900D01*
X1325900D01*
Y5334300D01*
X1275100D01*
Y5308900D01*
X1249700D01*
Y5258100D01*
X1275100D01*
Y4978100D02*
Y4952700D01*
X1325900D01*
Y4978100D01*
X1351300D01*
Y5028900D01*
X1325900D01*
Y5054300D01*
X1275100D01*
Y5028900D01*
X1249700D01*
Y4978100D01*
X1275100D01*
X1595100D02*
Y4952700D01*
X1645900D01*
Y4978100D01*
X1671300D01*
Y5028900D01*
X1645900D01*
Y5054300D01*
X1595100D01*
Y5028900D01*
X1569700D01*
Y4978100D01*
X1595100D01*
Y5258100D02*
Y5232700D01*
X1645900D01*
Y5258100D01*
X1671300D01*
Y5308900D01*
X1645900D01*
Y5334300D01*
X1595100D01*
Y5308900D01*
X1569700D01*
Y5258100D01*
X1595100D01*
D631*
X8313800Y455000D02*
G03*
X8313800Y455000I-50800J0D01*
G01*
X8163800Y2275000D02*
G03*
X8163800Y2275000I-50800J0D01*
G01*
Y5005000D02*
G03*
X8163800Y5005000I-50800J0D01*
G01*
X8313800Y3185000D02*
G03*
X8313800Y3185000I-50800J0D01*
G01*
X1530800Y345000D02*
G03*
X1530800Y345000I-50800J0D01*
G01*
Y695000D02*
G03*
X1530800Y695000I-50800J0D01*
G01*
%TF.MD5,5b823a0a32f278932030552a5018f1c2*%
M02*
