%TF.GenerationSoftware,Altium Limited,Altium Designer,25.3.3 (18)*%
G04 Layer_Physical_Order=5*
G04 Layer_Color=16737945*
%FSLAX45Y45*%
%MOMM*%
%TF.SameCoordinates,5572F933-5C96-4131-A983-9EF7CB378A5A*%
%TF.FilePolarity,Positive*%
%TF.FileFunction,Copper,L5,Inr,Signal*%
%TF.Part,Single*%
G01*
G75*
%TA.AperFunction,ComponentPad*%
G04:AMPARAMS|DCode=86|XSize=1.55mm|YSize=1.6mm|CornerRadius=0.3875mm|HoleSize=0mm|Usage=FLASHONLY|Rotation=270.000|XOffset=0mm|YOffset=0mm|HoleType=Round|Shape=RoundedRectangle|*
%AMROUNDEDRECTD86*
21,1,1.55000,0.82500,0,0,270.0*
21,1,0.77500,1.60000,0,0,270.0*
1,1,0.77500,-0.41250,-0.38750*
1,1,0.77500,-0.41250,0.38750*
1,1,0.77500,0.41250,0.38750*
1,1,0.77500,0.41250,-0.38750*
%
%ADD86ROUNDEDRECTD86*%
G04:AMPARAMS|DCode=90|XSize=2.2mm|YSize=2.2mm|CornerRadius=0.55mm|HoleSize=0mm|Usage=FLASHONLY|Rotation=270.000|XOffset=0mm|YOffset=0mm|HoleType=Round|Shape=RoundedRectangle|*
%AMROUNDEDRECTD90*
21,1,2.20000,1.10000,0,0,270.0*
21,1,1.10000,2.20000,0,0,270.0*
1,1,1.10000,-0.55000,-0.55000*
1,1,1.10000,-0.55000,0.55000*
1,1,1.10000,0.55000,0.55000*
1,1,1.10000,0.55000,-0.55000*
%
%ADD90ROUNDEDRECTD90*%
G04:AMPARAMS|DCode=91|XSize=2.2mm|YSize=2.2mm|CornerRadius=0mm|HoleSize=0mm|Usage=FLASHONLY|Rotation=270.000|XOffset=0mm|YOffset=0mm|HoleType=Round|Shape=Octagon|*
%AMOCTAGOND91*
4,1,8,-0.55000,-1.10000,0.55000,-1.10000,1.10000,-0.55000,1.10000,0.55000,0.55000,1.10000,-0.55000,1.10000,-1.10000,0.55000,-1.10000,-0.55000,-0.55000,-1.10000,0.0*
%
%ADD91OCTAGOND91*%

%TA.AperFunction,ViaPad*%
%ADD92C,0.35000*%
%ADD93C,0.60000*%
%TA.AperFunction,ComponentPad*%
G04:AMPARAMS|DCode=94|XSize=1.3mm|YSize=1.7mm|CornerRadius=0.325mm|HoleSize=0mm|Usage=FLASHONLY|Rotation=270.000|XOffset=0mm|YOffset=0mm|HoleType=Round|Shape=RoundedRectangle|*
%AMROUNDEDRECTD94*
21,1,1.30000,1.05000,0,0,270.0*
21,1,0.65000,1.70000,0,0,270.0*
1,1,0.65000,-0.52500,-0.32500*
1,1,0.65000,-0.52500,0.32500*
1,1,0.65000,0.52500,0.32500*
1,1,0.65000,0.52500,-0.32500*
%
%ADD94ROUNDEDRECTD94*%
G04:AMPARAMS|DCode=95|XSize=1.5mm|YSize=1.9mm|CornerRadius=0.375mm|HoleSize=0mm|Usage=FLASHONLY|Rotation=0.000|XOffset=0mm|YOffset=0mm|HoleType=Round|Shape=RoundedRectangle|*
%AMROUNDEDRECTD95*
21,1,1.50000,1.15000,0,0,0.0*
21,1,0.75000,1.90000,0,0,0.0*
1,1,0.75000,0.37500,-0.57500*
1,1,0.75000,-0.37500,-0.57500*
1,1,0.75000,-0.37500,0.57500*
1,1,0.75000,0.37500,0.57500*
%
%ADD95ROUNDEDRECTD95*%
G04:AMPARAMS|DCode=96|XSize=3.6mm|YSize=3.6mm|CornerRadius=0.54mm|HoleSize=0mm|Usage=FLASHONLY|Rotation=0.000|XOffset=0mm|YOffset=0mm|HoleType=Round|Shape=RoundedRectangle|*
%AMROUNDEDRECTD96*
21,1,3.60000,2.52000,0,0,0.0*
21,1,2.52000,3.60000,0,0,0.0*
1,1,1.08000,1.26000,-1.26000*
1,1,1.08000,-1.26000,-1.26000*
1,1,1.08000,-1.26000,1.26000*
1,1,1.08000,1.26000,1.26000*
%
%ADD96ROUNDEDRECTD96*%
G36*
X8434462Y5410484D02*
X8485651Y5389281D01*
X8529609Y5355551D01*
X8563338Y5311594D01*
X8584542Y5260404D01*
X8589867Y5219955D01*
X8591113Y5205471D01*
X8591116Y5205460D01*
X8591116Y5190471D01*
X8591180Y2793177D01*
X8582473Y2787358D01*
X8576180Y2784875D01*
X8559736D01*
X8542278Y2777643D01*
X8528916Y2764281D01*
X8521685Y2746823D01*
Y2727926D01*
X8528916Y2710468D01*
X8542278Y2697106D01*
X8559736Y2689875D01*
X8578633D01*
X8578711Y2689907D01*
X8591183Y2681574D01*
X8591247Y270194D01*
X8591247Y269996D01*
Y255256D01*
X8589999Y240773D01*
X8584683Y200394D01*
X8563507Y149271D01*
X8529821Y105371D01*
X8485921Y71685D01*
X8434798Y50509D01*
X8381926Y43549D01*
X8379938Y43944D01*
X7711646D01*
X7707096Y58944D01*
X7709769Y60731D01*
X7725793Y84712D01*
X7731420Y113000D01*
Y160500D01*
X7508580D01*
Y113000D01*
X7514207Y84712D01*
X7530231Y60731D01*
X7532904Y58944D01*
X7528354Y43944D01*
X7457646D01*
X7453096Y58944D01*
X7455769Y60731D01*
X7471793Y84712D01*
X7477420Y113000D01*
Y160500D01*
X7254580D01*
Y113000D01*
X7260207Y84712D01*
X7276231Y60731D01*
X7278904Y58944D01*
X7274354Y43944D01*
X7194646D01*
X7190096Y58944D01*
X7198164Y64336D01*
X7213083Y86663D01*
X7218322Y113000D01*
Y228000D01*
X7213083Y254337D01*
X7198164Y276664D01*
X7175837Y291583D01*
X7149500Y296822D01*
X7074500D01*
X7048163Y291583D01*
X7025836Y276664D01*
X7010917Y254337D01*
X7005678Y228000D01*
Y113000D01*
X7010917Y86663D01*
X7025836Y64336D01*
X7033904Y58944D01*
X7029354Y43944D01*
X6940646D01*
X6936096Y58944D01*
X6944164Y64336D01*
X6959083Y86663D01*
X6964322Y113000D01*
Y228000D01*
X6959083Y254337D01*
X6944164Y276664D01*
X6921837Y291583D01*
X6895500Y296822D01*
X6820500D01*
X6794163Y291583D01*
X6771836Y276664D01*
X6756917Y254337D01*
X6751678Y228000D01*
Y113000D01*
X6756917Y86663D01*
X6771836Y64336D01*
X6779904Y58944D01*
X6775354Y43944D01*
X6686646D01*
X6682096Y58944D01*
X6690164Y64336D01*
X6705083Y86663D01*
X6710322Y113000D01*
Y228000D01*
X6705083Y254337D01*
X6690164Y276664D01*
X6667837Y291583D01*
X6641500Y296822D01*
X6566500D01*
X6540163Y291583D01*
X6517836Y276664D01*
X6502917Y254337D01*
X6497678Y228000D01*
Y113000D01*
X6502917Y86663D01*
X6517836Y64336D01*
X6525904Y58944D01*
X6521354Y43944D01*
X6432646D01*
X6428096Y58944D01*
X6436164Y64336D01*
X6451083Y86663D01*
X6456322Y113000D01*
Y228000D01*
X6451083Y254337D01*
X6436164Y276664D01*
X6413837Y291583D01*
X6387500Y296822D01*
X6312500D01*
X6286163Y291583D01*
X6263836Y276664D01*
X6248917Y254337D01*
X6243678Y228000D01*
Y113000D01*
X6248917Y86663D01*
X6263836Y64336D01*
X6271904Y58944D01*
X6267354Y43944D01*
X6178646D01*
X6174096Y58944D01*
X6182164Y64336D01*
X6197083Y86663D01*
X6202322Y113000D01*
Y228000D01*
X6197083Y254337D01*
X6182164Y276664D01*
X6159837Y291583D01*
X6133500Y296822D01*
X6058500D01*
X6032163Y291583D01*
X6009836Y276664D01*
X5994917Y254337D01*
X5989678Y228000D01*
Y113000D01*
X5994917Y86663D01*
X6009836Y64336D01*
X6017904Y58944D01*
X6013354Y43944D01*
X5924646D01*
X5920096Y58944D01*
X5928164Y64336D01*
X5943083Y86663D01*
X5948322Y113000D01*
Y228000D01*
X5943083Y254337D01*
X5928164Y276664D01*
X5905837Y291583D01*
X5879500Y296822D01*
X5804500D01*
X5778163Y291583D01*
X5755836Y276664D01*
X5740917Y254337D01*
X5735678Y228000D01*
Y113000D01*
X5740917Y86663D01*
X5755836Y64336D01*
X5763904Y58944D01*
X5759354Y43944D01*
X5670646D01*
X5666096Y58944D01*
X5674164Y64336D01*
X5689083Y86663D01*
X5694322Y113000D01*
Y228000D01*
X5689083Y254337D01*
X5674164Y276664D01*
X5651837Y291583D01*
X5625500Y296822D01*
X5550500D01*
X5524163Y291583D01*
X5501836Y276664D01*
X5486917Y254337D01*
X5481678Y228000D01*
Y113000D01*
X5486917Y86663D01*
X5501836Y64336D01*
X5509904Y58944D01*
X5505354Y43944D01*
X5416646D01*
X5412096Y58944D01*
X5420164Y64336D01*
X5435083Y86663D01*
X5440322Y113000D01*
Y228000D01*
X5435083Y254337D01*
X5420164Y276664D01*
X5397837Y291583D01*
X5371500Y296822D01*
X5296500D01*
X5270163Y291583D01*
X5247836Y276664D01*
X5232917Y254337D01*
X5227678Y228000D01*
Y113000D01*
X5232917Y86663D01*
X5247836Y64336D01*
X5255904Y58944D01*
X5251354Y43944D01*
X5162646D01*
X5158096Y58944D01*
X5166164Y64336D01*
X5181083Y86663D01*
X5186322Y113000D01*
Y228000D01*
X5181083Y254337D01*
X5166164Y276664D01*
X5143837Y291583D01*
X5117500Y296822D01*
X5042500D01*
X5016163Y291583D01*
X4993836Y276664D01*
X4978917Y254337D01*
X4973678Y228000D01*
Y113000D01*
X4978917Y86663D01*
X4993836Y64336D01*
X5001904Y58944D01*
X4997354Y43944D01*
X4908646D01*
X4904096Y58944D01*
X4912164Y64336D01*
X4927083Y86663D01*
X4932322Y113000D01*
Y228000D01*
X4927083Y254337D01*
X4912164Y276664D01*
X4889837Y291583D01*
X4863500Y296822D01*
X4788500D01*
X4762163Y291583D01*
X4739836Y276664D01*
X4724917Y254337D01*
X4719678Y228000D01*
Y113000D01*
X4724917Y86663D01*
X4739836Y64336D01*
X4747904Y58944D01*
X4743354Y43944D01*
X4654646D01*
X4650096Y58944D01*
X4658164Y64336D01*
X4673083Y86663D01*
X4678322Y113000D01*
Y228000D01*
X4673083Y254337D01*
X4658164Y276664D01*
X4635837Y291583D01*
X4609500Y296822D01*
X4534500D01*
X4508163Y291583D01*
X4485836Y276664D01*
X4470917Y254337D01*
X4465678Y228000D01*
Y113000D01*
X4470917Y86663D01*
X4485836Y64336D01*
X4493904Y58944D01*
X4489354Y43944D01*
X4400646D01*
X4396096Y58944D01*
X4404164Y64336D01*
X4419083Y86663D01*
X4424322Y113000D01*
Y228000D01*
X4419083Y254337D01*
X4404164Y276664D01*
X4381837Y291583D01*
X4355500Y296822D01*
X4280500D01*
X4254163Y291583D01*
X4231836Y276664D01*
X4216917Y254337D01*
X4211678Y228000D01*
Y113000D01*
X4216917Y86663D01*
X4231836Y64336D01*
X4239904Y58944D01*
X4235354Y43944D01*
X4146646D01*
X4142096Y58944D01*
X4150164Y64336D01*
X4165083Y86663D01*
X4170322Y113000D01*
Y228000D01*
X4165083Y254337D01*
X4150164Y276664D01*
X4127837Y291583D01*
X4101500Y296822D01*
X4026500D01*
X4000163Y291583D01*
X3977836Y276664D01*
X3962917Y254337D01*
X3957678Y228000D01*
Y113000D01*
X3962917Y86663D01*
X3977836Y64336D01*
X3985904Y58944D01*
X3981354Y43944D01*
X3892646D01*
X3888096Y58944D01*
X3896164Y64336D01*
X3911083Y86663D01*
X3916322Y113000D01*
Y228000D01*
X3911083Y254337D01*
X3896164Y276664D01*
X3873837Y291583D01*
X3847500Y296822D01*
X3772500D01*
X3746163Y291583D01*
X3723836Y276664D01*
X3708917Y254337D01*
X3703678Y228000D01*
Y113000D01*
X3708917Y86663D01*
X3723836Y64336D01*
X3731904Y58944D01*
X3727354Y43944D01*
X3638646D01*
X3634096Y58944D01*
X3642164Y64336D01*
X3657083Y86663D01*
X3662322Y113000D01*
Y228000D01*
X3657083Y254337D01*
X3642164Y276664D01*
X3619837Y291583D01*
X3593500Y296822D01*
X3518500D01*
X3492163Y291583D01*
X3469836Y276664D01*
X3454917Y254337D01*
X3449678Y228000D01*
Y113000D01*
X3454917Y86663D01*
X3469836Y64336D01*
X3477904Y58944D01*
X3473354Y43944D01*
X3384646D01*
X3380096Y58944D01*
X3388164Y64336D01*
X3403083Y86663D01*
X3408322Y113000D01*
Y228000D01*
X3403083Y254337D01*
X3388164Y276664D01*
X3365837Y291583D01*
X3339500Y296822D01*
X3264500D01*
X3238163Y291583D01*
X3215836Y276664D01*
X3200917Y254337D01*
X3195678Y228000D01*
Y113000D01*
X3200917Y86663D01*
X3215836Y64336D01*
X3223904Y58944D01*
X3219354Y43944D01*
X3130646D01*
X3126096Y58944D01*
X3134164Y64336D01*
X3149083Y86663D01*
X3154322Y113000D01*
Y228000D01*
X3149083Y254337D01*
X3134164Y276664D01*
X3111837Y291583D01*
X3085500Y296822D01*
X3010500D01*
X2984163Y291583D01*
X2961836Y276664D01*
X2946917Y254337D01*
X2941678Y228000D01*
Y113000D01*
X2946917Y86663D01*
X2961836Y64336D01*
X2969904Y58944D01*
X2965354Y43944D01*
X2876646D01*
X2872096Y58944D01*
X2880164Y64336D01*
X2895083Y86663D01*
X2900322Y113000D01*
Y228000D01*
X2895083Y254337D01*
X2880164Y276664D01*
X2857837Y291583D01*
X2831500Y296822D01*
X2756500D01*
X2730163Y291583D01*
X2707836Y276664D01*
X2692917Y254337D01*
X2687678Y228000D01*
Y113000D01*
X2692917Y86663D01*
X2707836Y64336D01*
X2715904Y58944D01*
X2711354Y43944D01*
X2622646D01*
X2618096Y58944D01*
X2626164Y64336D01*
X2641083Y86663D01*
X2646322Y113000D01*
Y228000D01*
X2641083Y254337D01*
X2626164Y276664D01*
X2603837Y291583D01*
X2577500Y296822D01*
X2502500D01*
X2476163Y291583D01*
X2453836Y276664D01*
X2438917Y254337D01*
X2433678Y228000D01*
Y113000D01*
X2438917Y86663D01*
X2453836Y64336D01*
X2461904Y58944D01*
X2457354Y43944D01*
X2368646D01*
X2364096Y58944D01*
X2372164Y64336D01*
X2387083Y86663D01*
X2392322Y113000D01*
Y228000D01*
X2387083Y254337D01*
X2372164Y276664D01*
X2349837Y291583D01*
X2323500Y296822D01*
X2248500D01*
X2222163Y291583D01*
X2199836Y276664D01*
X2184917Y254337D01*
X2179678Y228000D01*
Y113000D01*
X2184917Y86663D01*
X2199836Y64336D01*
X2207904Y58944D01*
X2203354Y43944D01*
X2123646D01*
X2119096Y58944D01*
X2121769Y60731D01*
X2137793Y84712D01*
X2143420Y113000D01*
Y160500D01*
X1920580D01*
Y113000D01*
X1926207Y84712D01*
X1942231Y60731D01*
X1944904Y58944D01*
X1940354Y43944D01*
X1371600D01*
X1369643Y43555D01*
X1317066Y50477D01*
X1266249Y71526D01*
X1222611Y105011D01*
X1189126Y148649D01*
X1168077Y199466D01*
X1161155Y252043D01*
X1161544Y254000D01*
Y1924556D01*
X1841500D01*
Y1923962D01*
X1899742Y1929699D01*
X1955745Y1946687D01*
X2007359Y1974275D01*
X2052598Y2011402D01*
X2089725Y2056641D01*
X2117313Y2108255D01*
X2134301Y2164258D01*
X2140038Y2222500D01*
X2139444D01*
Y3746500D01*
X2140038D01*
X2134301Y3804742D01*
X2117313Y3860745D01*
X2089725Y3912359D01*
X2052598Y3957598D01*
X2007359Y3994725D01*
X1955745Y4022313D01*
X1899742Y4039301D01*
X1841500Y4045038D01*
Y4044444D01*
X1161544D01*
Y5207000D01*
X1161155Y5208958D01*
X1168077Y5261534D01*
X1189126Y5312351D01*
X1222610Y5355989D01*
X1266248Y5389474D01*
X1317066Y5410523D01*
X1357121Y5415796D01*
X1371600Y5417055D01*
Y5417056D01*
X1940354D01*
X1944904Y5402056D01*
X1942231Y5400269D01*
X1926207Y5376288D01*
X1920580Y5348000D01*
Y5300500D01*
X2143420D01*
Y5348000D01*
X2137793Y5376288D01*
X2121769Y5400269D01*
X2119096Y5402056D01*
X2123646Y5417056D01*
X2203354D01*
X2207904Y5402056D01*
X2199836Y5396664D01*
X2184917Y5374337D01*
X2179678Y5348000D01*
Y5233000D01*
X2184917Y5206663D01*
X2199836Y5184336D01*
X2222163Y5169417D01*
X2248500Y5164178D01*
X2323500D01*
X2349837Y5169417D01*
X2372164Y5184336D01*
X2387083Y5206663D01*
X2392322Y5233000D01*
Y5348000D01*
X2387083Y5374337D01*
X2372164Y5396664D01*
X2364096Y5402056D01*
X2368646Y5417056D01*
X2457354D01*
X2461904Y5402056D01*
X2453836Y5396664D01*
X2438917Y5374337D01*
X2433678Y5348000D01*
Y5233000D01*
X2438917Y5206663D01*
X2453836Y5184336D01*
X2476163Y5169417D01*
X2502500Y5164178D01*
X2577500D01*
X2603837Y5169417D01*
X2626164Y5184336D01*
X2641083Y5206663D01*
X2646322Y5233000D01*
Y5348000D01*
X2641083Y5374337D01*
X2626164Y5396664D01*
X2618096Y5402056D01*
X2622646Y5417056D01*
X2711354D01*
X2715904Y5402056D01*
X2707836Y5396664D01*
X2692917Y5374337D01*
X2687678Y5348000D01*
Y5233000D01*
X2692917Y5206663D01*
X2707836Y5184336D01*
X2730163Y5169417D01*
X2756500Y5164178D01*
X2831500D01*
X2857837Y5169417D01*
X2880164Y5184336D01*
X2895083Y5206663D01*
X2900322Y5233000D01*
Y5348000D01*
X2895083Y5374337D01*
X2880164Y5396664D01*
X2872096Y5402056D01*
X2876646Y5417056D01*
X2965354D01*
X2969904Y5402056D01*
X2961836Y5396664D01*
X2946917Y5374337D01*
X2941678Y5348000D01*
Y5233000D01*
X2946917Y5206663D01*
X2961836Y5184336D01*
X2984163Y5169417D01*
X3010500Y5164178D01*
X3085500D01*
X3111837Y5169417D01*
X3134164Y5184336D01*
X3149083Y5206663D01*
X3154322Y5233000D01*
Y5348000D01*
X3149083Y5374337D01*
X3134164Y5396664D01*
X3126096Y5402056D01*
X3130646Y5417056D01*
X3219354D01*
X3223904Y5402056D01*
X3215836Y5396664D01*
X3200917Y5374337D01*
X3195678Y5348000D01*
Y5233000D01*
X3200917Y5206663D01*
X3215836Y5184336D01*
X3238163Y5169417D01*
X3264500Y5164178D01*
X3339500D01*
X3365837Y5169417D01*
X3388164Y5184336D01*
X3403083Y5206663D01*
X3408322Y5233000D01*
Y5348000D01*
X3403083Y5374337D01*
X3388164Y5396664D01*
X3380096Y5402056D01*
X3384646Y5417056D01*
X3473354D01*
X3477904Y5402056D01*
X3469836Y5396664D01*
X3454917Y5374337D01*
X3449678Y5348000D01*
Y5233000D01*
X3454917Y5206663D01*
X3469836Y5184336D01*
X3492163Y5169417D01*
X3518500Y5164178D01*
X3593500D01*
X3619837Y5169417D01*
X3642164Y5184336D01*
X3657083Y5206663D01*
X3662322Y5233000D01*
Y5348000D01*
X3657083Y5374337D01*
X3642164Y5396664D01*
X3634096Y5402056D01*
X3638646Y5417056D01*
X3727354D01*
X3731904Y5402056D01*
X3723836Y5396664D01*
X3708917Y5374337D01*
X3703678Y5348000D01*
Y5233000D01*
X3708917Y5206663D01*
X3723836Y5184336D01*
X3746163Y5169417D01*
X3772500Y5164178D01*
X3847500D01*
X3873837Y5169417D01*
X3896164Y5184336D01*
X3911083Y5206663D01*
X3916322Y5233000D01*
Y5348000D01*
X3911083Y5374337D01*
X3896164Y5396664D01*
X3888096Y5402056D01*
X3892646Y5417056D01*
X3981354D01*
X3985904Y5402056D01*
X3977836Y5396664D01*
X3962917Y5374337D01*
X3957678Y5348000D01*
Y5233000D01*
X3962917Y5206663D01*
X3977836Y5184336D01*
X4000163Y5169417D01*
X4026500Y5164178D01*
X4101500D01*
X4127837Y5169417D01*
X4150164Y5184336D01*
X4165083Y5206663D01*
X4170322Y5233000D01*
Y5348000D01*
X4165083Y5374337D01*
X4150164Y5396664D01*
X4142096Y5402056D01*
X4146646Y5417056D01*
X4235354D01*
X4239904Y5402056D01*
X4231836Y5396664D01*
X4216917Y5374337D01*
X4211678Y5348000D01*
Y5233000D01*
X4216917Y5206663D01*
X4231836Y5184336D01*
X4254163Y5169417D01*
X4280500Y5164178D01*
X4355500D01*
X4381837Y5169417D01*
X4404164Y5184336D01*
X4419083Y5206663D01*
X4424322Y5233000D01*
Y5348000D01*
X4419083Y5374337D01*
X4404164Y5396664D01*
X4396096Y5402056D01*
X4400646Y5417056D01*
X4489354D01*
X4493904Y5402056D01*
X4485836Y5396664D01*
X4470917Y5374337D01*
X4465678Y5348000D01*
Y5233000D01*
X4470917Y5206663D01*
X4485836Y5184336D01*
X4508163Y5169417D01*
X4534500Y5164178D01*
X4609500D01*
X4635837Y5169417D01*
X4658164Y5184336D01*
X4673083Y5206663D01*
X4678322Y5233000D01*
Y5348000D01*
X4673083Y5374337D01*
X4658164Y5396664D01*
X4650096Y5402056D01*
X4654646Y5417056D01*
X4743354D01*
X4747904Y5402056D01*
X4739836Y5396664D01*
X4724917Y5374337D01*
X4719678Y5348000D01*
Y5233000D01*
X4724917Y5206663D01*
X4739836Y5184336D01*
X4762163Y5169417D01*
X4788500Y5164178D01*
X4863500D01*
X4889837Y5169417D01*
X4912164Y5184336D01*
X4927083Y5206663D01*
X4932322Y5233000D01*
Y5348000D01*
X4927083Y5374337D01*
X4912164Y5396664D01*
X4904096Y5402056D01*
X4908646Y5417056D01*
X4997354D01*
X5001904Y5402056D01*
X4993836Y5396664D01*
X4978917Y5374337D01*
X4973678Y5348000D01*
Y5233000D01*
X4978917Y5206663D01*
X4993836Y5184336D01*
X5016163Y5169417D01*
X5042500Y5164178D01*
X5117500D01*
X5143837Y5169417D01*
X5166164Y5184336D01*
X5181083Y5206663D01*
X5186322Y5233000D01*
Y5348000D01*
X5181083Y5374337D01*
X5166164Y5396664D01*
X5158096Y5402056D01*
X5162646Y5417056D01*
X5251354D01*
X5255904Y5402056D01*
X5247836Y5396664D01*
X5232917Y5374337D01*
X5227678Y5348000D01*
Y5233000D01*
X5232917Y5206663D01*
X5247836Y5184336D01*
X5270163Y5169417D01*
X5296500Y5164178D01*
X5371500D01*
X5397837Y5169417D01*
X5420164Y5184336D01*
X5435083Y5206663D01*
X5440322Y5233000D01*
Y5348000D01*
X5435083Y5374337D01*
X5420164Y5396664D01*
X5412096Y5402056D01*
X5416646Y5417056D01*
X5505354D01*
X5509904Y5402056D01*
X5501836Y5396664D01*
X5486917Y5374337D01*
X5481678Y5348000D01*
Y5233000D01*
X5486917Y5206663D01*
X5501836Y5184336D01*
X5524163Y5169417D01*
X5550500Y5164178D01*
X5625500D01*
X5651837Y5169417D01*
X5674164Y5184336D01*
X5689083Y5206663D01*
X5694322Y5233000D01*
Y5348000D01*
X5689083Y5374337D01*
X5674164Y5396664D01*
X5666096Y5402056D01*
X5670646Y5417056D01*
X5759354D01*
X5763904Y5402056D01*
X5755836Y5396664D01*
X5740917Y5374337D01*
X5735678Y5348000D01*
Y5233000D01*
X5740917Y5206663D01*
X5755836Y5184336D01*
X5778163Y5169417D01*
X5804500Y5164178D01*
X5879500D01*
X5905837Y5169417D01*
X5928164Y5184336D01*
X5943083Y5206663D01*
X5948322Y5233000D01*
Y5348000D01*
X5943083Y5374337D01*
X5928164Y5396664D01*
X5920096Y5402056D01*
X5924646Y5417056D01*
X6013354D01*
X6017904Y5402056D01*
X6009836Y5396664D01*
X5994917Y5374337D01*
X5989678Y5348000D01*
Y5233000D01*
X5994917Y5206663D01*
X6009836Y5184336D01*
X6032163Y5169417D01*
X6058500Y5164178D01*
X6133500D01*
X6159837Y5169417D01*
X6182164Y5184336D01*
X6197083Y5206663D01*
X6202322Y5233000D01*
Y5348000D01*
X6197083Y5374337D01*
X6182164Y5396664D01*
X6174096Y5402056D01*
X6178646Y5417056D01*
X6267354D01*
X6271904Y5402056D01*
X6263836Y5396664D01*
X6248917Y5374337D01*
X6243678Y5348000D01*
Y5233000D01*
X6248917Y5206663D01*
X6263836Y5184336D01*
X6286163Y5169417D01*
X6312500Y5164178D01*
X6387500D01*
X6413837Y5169417D01*
X6436164Y5184336D01*
X6451083Y5206663D01*
X6456322Y5233000D01*
Y5348000D01*
X6451083Y5374337D01*
X6436164Y5396664D01*
X6428096Y5402056D01*
X6432646Y5417056D01*
X6521354D01*
X6525904Y5402056D01*
X6517836Y5396664D01*
X6502917Y5374337D01*
X6497678Y5348000D01*
Y5233000D01*
X6502917Y5206663D01*
X6517836Y5184336D01*
X6540163Y5169417D01*
X6566500Y5164178D01*
X6641500D01*
X6667837Y5169417D01*
X6690164Y5184336D01*
X6705083Y5206663D01*
X6710322Y5233000D01*
Y5348000D01*
X6705083Y5374337D01*
X6690164Y5396664D01*
X6682096Y5402056D01*
X6686646Y5417056D01*
X6775354D01*
X6779904Y5402056D01*
X6771836Y5396664D01*
X6756917Y5374337D01*
X6751678Y5348000D01*
Y5233000D01*
X6756917Y5206663D01*
X6771836Y5184336D01*
X6794163Y5169417D01*
X6820500Y5164178D01*
X6895500D01*
X6921837Y5169417D01*
X6944164Y5184336D01*
X6959083Y5206663D01*
X6964322Y5233000D01*
Y5348000D01*
X6959083Y5374337D01*
X6944164Y5396664D01*
X6936096Y5402056D01*
X6940646Y5417056D01*
X7029354D01*
X7033904Y5402056D01*
X7025836Y5396664D01*
X7010917Y5374337D01*
X7005678Y5348000D01*
Y5233000D01*
X7010917Y5206663D01*
X7025836Y5184336D01*
X7048163Y5169417D01*
X7074500Y5164178D01*
X7149500D01*
X7175837Y5169417D01*
X7198164Y5184336D01*
X7213083Y5206663D01*
X7218322Y5233000D01*
Y5348000D01*
X7213083Y5374337D01*
X7198164Y5396664D01*
X7190096Y5402056D01*
X7194646Y5417056D01*
X7283354D01*
X7287904Y5402056D01*
X7279836Y5396664D01*
X7264917Y5374337D01*
X7259678Y5348000D01*
Y5233000D01*
X7264917Y5206663D01*
X7279836Y5184336D01*
X7302163Y5169417D01*
X7328500Y5164178D01*
X7403500D01*
X7429837Y5169417D01*
X7452164Y5184336D01*
X7467083Y5206663D01*
X7472322Y5233000D01*
Y5348000D01*
X7467083Y5374337D01*
X7452164Y5396664D01*
X7444096Y5402056D01*
X7448646Y5417056D01*
X7537354D01*
X7541904Y5402056D01*
X7533836Y5396664D01*
X7518917Y5374337D01*
X7513678Y5348000D01*
Y5233000D01*
X7518917Y5206663D01*
X7533836Y5184336D01*
X7556163Y5169417D01*
X7582500Y5164178D01*
X7657500D01*
X7683837Y5169417D01*
X7706164Y5184336D01*
X7721083Y5206663D01*
X7726322Y5233000D01*
Y5348000D01*
X7721083Y5374337D01*
X7706164Y5396664D01*
X7698096Y5402056D01*
X7702646Y5417056D01*
X8379531D01*
X8381527Y5417453D01*
X8434462Y5410484D01*
D02*
G37*
%LPC*%
G36*
X2143420Y5280500D02*
X2042000D01*
Y5159080D01*
X2069500D01*
X2097788Y5164707D01*
X2121769Y5180731D01*
X2137793Y5204712D01*
X2143420Y5233000D01*
Y5280500D01*
D02*
G37*
G36*
X2022000D02*
X1920580D01*
Y5233000D01*
X1926207Y5204712D01*
X1942231Y5180731D01*
X1966212Y5164707D01*
X1994500Y5159080D01*
X2022000D01*
Y5280500D01*
D02*
G37*
G36*
X1586500Y5360244D02*
X1470500D01*
Y5153500D01*
X1677244D01*
Y5269500D01*
X1670336Y5304226D01*
X1650665Y5333665D01*
X1621226Y5353336D01*
X1586500Y5360244D01*
D02*
G37*
G36*
X1450500D02*
X1334500D01*
X1299774Y5353336D01*
X1270335Y5333665D01*
X1250664Y5304226D01*
X1243756Y5269500D01*
Y5153500D01*
X1450500D01*
Y5360244D01*
D02*
G37*
G36*
X8154250Y5118945D02*
X8123000D01*
Y5015000D01*
X8229444D01*
Y5043750D01*
X8223720Y5072526D01*
X8207420Y5096920D01*
X8183025Y5113221D01*
X8154250Y5118945D01*
D02*
G37*
G36*
X8103000D02*
X8071750D01*
X8042974Y5113221D01*
X8018579Y5096920D01*
X8002279Y5072526D01*
X7996555Y5043750D01*
Y5015000D01*
X8103000D01*
Y5118945D01*
D02*
G37*
G36*
X2069500Y5127920D02*
X2042000D01*
Y5006500D01*
X2143420D01*
Y5054000D01*
X2137793Y5082288D01*
X2121769Y5106269D01*
X2097788Y5122293D01*
X2069500Y5127920D01*
D02*
G37*
G36*
X2022000D02*
X1994500D01*
X1966212Y5122293D01*
X1942231Y5106269D01*
X1926207Y5082288D01*
X1920580Y5054000D01*
Y5006500D01*
X2022000D01*
Y5127920D01*
D02*
G37*
G36*
X5879500Y5122822D02*
X5804500D01*
X5778163Y5117583D01*
X5755836Y5102664D01*
X5740917Y5080337D01*
X5735678Y5054000D01*
Y4948676D01*
X5723362Y4937832D01*
X5721276Y4937634D01*
X5708724D01*
X5703864Y4938095D01*
X5694322Y4949762D01*
Y5054000D01*
X5689083Y5080337D01*
X5674164Y5102664D01*
X5651837Y5117583D01*
X5625500Y5122822D01*
X5550500D01*
X5524163Y5117583D01*
X5501836Y5102664D01*
X5486917Y5080337D01*
X5481678Y5054000D01*
Y4939000D01*
X5486917Y4912663D01*
X5501836Y4890336D01*
X5524163Y4875417D01*
X5550500Y4870178D01*
X5625500D01*
X5651837Y4875417D01*
X5652331Y4875747D01*
X5670640Y4869940D01*
X5673420Y4863228D01*
X5686782Y4849866D01*
X5704241Y4842635D01*
X5723137D01*
X5740595Y4849866D01*
X5753957Y4863228D01*
X5757306Y4871313D01*
X5775047Y4877499D01*
X5778163Y4875417D01*
X5804500Y4870178D01*
X5879500D01*
X5905837Y4875417D01*
X5928164Y4890336D01*
X5943083Y4912663D01*
X5948322Y4939000D01*
Y5054000D01*
X5943083Y5080337D01*
X5928164Y5102664D01*
X5905837Y5117583D01*
X5879500Y5122822D01*
D02*
G37*
G36*
X1677244Y5133500D02*
X1470500D01*
Y4926756D01*
X1586500D01*
X1621226Y4933664D01*
X1650665Y4953335D01*
X1670336Y4982774D01*
X1677244Y5017500D01*
Y5133500D01*
D02*
G37*
G36*
X1450500D02*
X1243756D01*
Y5017500D01*
X1250664Y4982774D01*
X1270335Y4953335D01*
X1299774Y4933664D01*
X1334500Y4926756D01*
X1450500D01*
Y5133500D01*
D02*
G37*
G36*
X8229444Y4995000D02*
X8123000D01*
Y4891055D01*
X8154250D01*
X8183025Y4896779D01*
X8207420Y4913079D01*
X8223720Y4937474D01*
X8229444Y4966250D01*
Y4995000D01*
D02*
G37*
G36*
X8103000D02*
X7996555D01*
Y4966250D01*
X8002279Y4937474D01*
X8018579Y4913079D01*
X8042974Y4896779D01*
X8071750Y4891055D01*
X8103000D01*
Y4995000D01*
D02*
G37*
G36*
X7657500Y5122822D02*
X7582500D01*
X7556163Y5117583D01*
X7533836Y5102664D01*
X7518917Y5080337D01*
X7513678Y5054000D01*
Y4939000D01*
X7518917Y4912663D01*
X7533836Y4890336D01*
X7556163Y4875417D01*
X7582500Y4870178D01*
X7657500D01*
X7683837Y4875417D01*
X7706164Y4890336D01*
X7721083Y4912663D01*
X7726322Y4939000D01*
Y5054000D01*
X7721083Y5080337D01*
X7706164Y5102664D01*
X7683837Y5117583D01*
X7657500Y5122822D01*
D02*
G37*
G36*
X7403500D02*
X7328500D01*
X7302163Y5117583D01*
X7279836Y5102664D01*
X7264917Y5080337D01*
X7259678Y5054000D01*
Y4939000D01*
X7264917Y4912663D01*
X7279836Y4890336D01*
X7302163Y4875417D01*
X7328500Y4870178D01*
X7403500D01*
X7429837Y4875417D01*
X7452164Y4890336D01*
X7467083Y4912663D01*
X7472322Y4939000D01*
Y5054000D01*
X7467083Y5080337D01*
X7452164Y5102664D01*
X7429837Y5117583D01*
X7403500Y5122822D01*
D02*
G37*
G36*
X7149500D02*
X7074500D01*
X7048163Y5117583D01*
X7025836Y5102664D01*
X7010917Y5080337D01*
X7005678Y5054000D01*
Y4939000D01*
X7010917Y4912663D01*
X7025836Y4890336D01*
X7048163Y4875417D01*
X7074500Y4870178D01*
X7149500D01*
X7175837Y4875417D01*
X7198164Y4890336D01*
X7213083Y4912663D01*
X7218322Y4939000D01*
Y5054000D01*
X7213083Y5080337D01*
X7198164Y5102664D01*
X7175837Y5117583D01*
X7149500Y5122822D01*
D02*
G37*
G36*
X6895500D02*
X6820500D01*
X6794163Y5117583D01*
X6771836Y5102664D01*
X6756917Y5080337D01*
X6751678Y5054000D01*
Y4939000D01*
X6756917Y4912663D01*
X6771836Y4890336D01*
X6794163Y4875417D01*
X6820500Y4870178D01*
X6895500D01*
X6921837Y4875417D01*
X6944164Y4890336D01*
X6959083Y4912663D01*
X6964322Y4939000D01*
Y5054000D01*
X6959083Y5080337D01*
X6944164Y5102664D01*
X6921837Y5117583D01*
X6895500Y5122822D01*
D02*
G37*
G36*
X6387500D02*
X6312500D01*
X6286163Y5117583D01*
X6263836Y5102664D01*
X6248917Y5080337D01*
X6243678Y5054000D01*
Y4939000D01*
X6248917Y4912663D01*
X6263836Y4890336D01*
X6286163Y4875417D01*
X6312500Y4870178D01*
X6387500D01*
X6413837Y4875417D01*
X6436164Y4890336D01*
X6451083Y4912663D01*
X6456322Y4939000D01*
Y5054000D01*
X6451083Y5080337D01*
X6436164Y5102664D01*
X6413837Y5117583D01*
X6387500Y5122822D01*
D02*
G37*
G36*
X6133500D02*
X6058500D01*
X6032163Y5117583D01*
X6009836Y5102664D01*
X5994917Y5080337D01*
X5989678Y5054000D01*
Y4939000D01*
X5994917Y4912663D01*
X6009836Y4890336D01*
X6032163Y4875417D01*
X6058500Y4870178D01*
X6133500D01*
X6159837Y4875417D01*
X6182164Y4890336D01*
X6197083Y4912663D01*
X6202322Y4939000D01*
Y5054000D01*
X6197083Y5080337D01*
X6182164Y5102664D01*
X6159837Y5117583D01*
X6133500Y5122822D01*
D02*
G37*
G36*
X4863500D02*
X4788500D01*
X4762163Y5117583D01*
X4739836Y5102664D01*
X4724917Y5080337D01*
X4719678Y5054000D01*
Y4939000D01*
X4724917Y4912663D01*
X4739836Y4890336D01*
X4740270Y4890046D01*
X4735719Y4875046D01*
X4721759D01*
X4704301Y4867814D01*
X4690939Y4854452D01*
X4683707Y4836994D01*
Y4818098D01*
X4690939Y4800639D01*
X4704301Y4787277D01*
X4721759Y4780046D01*
X4740655D01*
X4758114Y4787277D01*
X4771476Y4800639D01*
X4778707Y4818098D01*
Y4836994D01*
X4771476Y4854452D01*
X4766710Y4859218D01*
X4774099Y4873043D01*
X4788500Y4870178D01*
X4863500D01*
X4889837Y4875417D01*
X4912164Y4890336D01*
X4927083Y4912663D01*
X4932322Y4939000D01*
Y5054000D01*
X4927083Y5080337D01*
X4912164Y5102664D01*
X4889837Y5117583D01*
X4863500Y5122822D01*
D02*
G37*
G36*
X4609500D02*
X4534500D01*
X4508163Y5117583D01*
X4485836Y5102664D01*
X4470917Y5080337D01*
X4465678Y5054000D01*
Y4939000D01*
X4470917Y4912663D01*
X4485836Y4890336D01*
X4508163Y4875417D01*
X4534500Y4870178D01*
X4609500D01*
X4635837Y4875417D01*
X4658164Y4890336D01*
X4673083Y4912663D01*
X4678322Y4939000D01*
Y5054000D01*
X4673083Y5080337D01*
X4658164Y5102664D01*
X4635837Y5117583D01*
X4609500Y5122822D01*
D02*
G37*
G36*
X4101500D02*
X4026500D01*
X4000163Y5117583D01*
X3977836Y5102664D01*
X3962917Y5080337D01*
X3957678Y5054000D01*
Y4939000D01*
X3962917Y4912663D01*
X3977836Y4890336D01*
X4000163Y4875417D01*
X4026500Y4870178D01*
X4101500D01*
X4127837Y4875417D01*
X4150164Y4890336D01*
X4165083Y4912663D01*
X4170322Y4939000D01*
Y5054000D01*
X4165083Y5080337D01*
X4150164Y5102664D01*
X4127837Y5117583D01*
X4101500Y5122822D01*
D02*
G37*
G36*
X3847500D02*
X3772500D01*
X3746163Y5117583D01*
X3723836Y5102664D01*
X3708917Y5080337D01*
X3703678Y5054000D01*
Y4939000D01*
X3708917Y4912663D01*
X3723836Y4890336D01*
X3746163Y4875417D01*
X3772500Y4870178D01*
X3847500D01*
X3873837Y4875417D01*
X3896164Y4890336D01*
X3911083Y4912663D01*
X3916322Y4939000D01*
Y5054000D01*
X3911083Y5080337D01*
X3896164Y5102664D01*
X3873837Y5117583D01*
X3847500Y5122822D01*
D02*
G37*
G36*
X3593500D02*
X3518500D01*
X3492163Y5117583D01*
X3469836Y5102664D01*
X3454917Y5080337D01*
X3449678Y5054000D01*
Y4939000D01*
X3454917Y4912663D01*
X3469836Y4890336D01*
X3492163Y4875417D01*
X3518500Y4870178D01*
X3593500D01*
X3619837Y4875417D01*
X3642164Y4890336D01*
X3657083Y4912663D01*
X3662322Y4939000D01*
Y5054000D01*
X3657083Y5080337D01*
X3642164Y5102664D01*
X3619837Y5117583D01*
X3593500Y5122822D01*
D02*
G37*
G36*
X3339500D02*
X3264500D01*
X3238163Y5117583D01*
X3215836Y5102664D01*
X3200917Y5080337D01*
X3195678Y5054000D01*
Y4939000D01*
X3200917Y4912663D01*
X3215836Y4890336D01*
X3238163Y4875417D01*
X3264500Y4870178D01*
X3339500D01*
X3365837Y4875417D01*
X3388164Y4890336D01*
X3403083Y4912663D01*
X3408322Y4939000D01*
Y5054000D01*
X3403083Y5080337D01*
X3388164Y5102664D01*
X3365837Y5117583D01*
X3339500Y5122822D01*
D02*
G37*
G36*
X3085500D02*
X3010500D01*
X2984163Y5117583D01*
X2961836Y5102664D01*
X2946917Y5080337D01*
X2941678Y5054000D01*
Y4939000D01*
X2946917Y4912663D01*
X2961836Y4890336D01*
X2984163Y4875417D01*
X3010500Y4870178D01*
X3085500D01*
X3111837Y4875417D01*
X3134164Y4890336D01*
X3149083Y4912663D01*
X3154322Y4939000D01*
Y5054000D01*
X3149083Y5080337D01*
X3134164Y5102664D01*
X3111837Y5117583D01*
X3085500Y5122822D01*
D02*
G37*
G36*
X2577500D02*
X2502500D01*
X2476163Y5117583D01*
X2453836Y5102664D01*
X2438917Y5080337D01*
X2433678Y5054000D01*
Y4939000D01*
X2438917Y4912663D01*
X2453836Y4890336D01*
X2476163Y4875417D01*
X2502500Y4870178D01*
X2577500D01*
X2603837Y4875417D01*
X2626164Y4890336D01*
X2641083Y4912663D01*
X2646322Y4939000D01*
Y5054000D01*
X2641083Y5080337D01*
X2626164Y5102664D01*
X2603837Y5117583D01*
X2577500Y5122822D01*
D02*
G37*
G36*
X2323500D02*
X2248500D01*
X2222163Y5117583D01*
X2199836Y5102664D01*
X2184917Y5080337D01*
X2179678Y5054000D01*
Y4939000D01*
X2184917Y4912663D01*
X2199836Y4890336D01*
X2222163Y4875417D01*
X2248500Y4870178D01*
X2323500D01*
X2349837Y4875417D01*
X2372164Y4890336D01*
X2387083Y4912663D01*
X2392322Y4939000D01*
Y5054000D01*
X2387083Y5080337D01*
X2372164Y5102664D01*
X2349837Y5117583D01*
X2323500Y5122822D01*
D02*
G37*
G36*
X2143420Y4986500D02*
X2042000D01*
Y4865080D01*
X2069500D01*
X2097788Y4870707D01*
X2121769Y4886731D01*
X2137793Y4910712D01*
X2143420Y4939000D01*
Y4986500D01*
D02*
G37*
G36*
X2022000D02*
X1920580D01*
Y4939000D01*
X1926207Y4910712D01*
X1942231Y4886731D01*
X1966212Y4870707D01*
X1994500Y4865080D01*
X2022000D01*
Y4986500D01*
D02*
G37*
G36*
X5371500Y5122822D02*
X5296500D01*
X5270163Y5117583D01*
X5247836Y5102664D01*
X5232917Y5080337D01*
X5227678Y5054000D01*
Y4939000D01*
X5232917Y4912663D01*
X5233789Y4911358D01*
X5226210Y4895701D01*
X5213093Y4890268D01*
X5199732Y4876906D01*
X5192500Y4859448D01*
Y4840552D01*
X5199732Y4823093D01*
X5213093Y4809732D01*
X5230552Y4802500D01*
X5249448D01*
X5266906Y4809732D01*
X5280268Y4823093D01*
X5287500Y4840552D01*
Y4856674D01*
X5292198Y4863724D01*
X5299291Y4870178D01*
X5371500D01*
X5397837Y4875417D01*
X5420164Y4890336D01*
X5435083Y4912663D01*
X5440322Y4939000D01*
Y5054000D01*
X5435083Y5080337D01*
X5420164Y5102664D01*
X5397837Y5117583D01*
X5371500Y5122822D01*
D02*
G37*
G36*
X4355500D02*
X4280500D01*
X4254163Y5117583D01*
X4231836Y5102664D01*
X4216917Y5080337D01*
X4211678Y5054000D01*
Y4939000D01*
X4216917Y4912663D01*
X4231836Y4890336D01*
X4254163Y4875417D01*
X4280500Y4870178D01*
X4335331D01*
X4342500Y4859448D01*
Y4840552D01*
X4349732Y4823093D01*
X4363094Y4809732D01*
X4380552Y4802500D01*
X4399448D01*
X4416907Y4809732D01*
X4430269Y4823093D01*
X4437500Y4840552D01*
Y4859448D01*
X4430269Y4876906D01*
X4416907Y4890268D01*
X4412914Y4903430D01*
X4419083Y4912663D01*
X4424322Y4939000D01*
Y5054000D01*
X4419083Y5080337D01*
X4404164Y5102664D01*
X4381837Y5117583D01*
X4355500Y5122822D01*
D02*
G37*
G36*
X6641500D02*
X6566500D01*
X6540163Y5117583D01*
X6517836Y5102664D01*
X6502917Y5080337D01*
X6497678Y5054000D01*
Y4939000D01*
X6502917Y4912663D01*
X6517836Y4890336D01*
X6540163Y4875417D01*
X6566500Y4870178D01*
X6624851D01*
X6634874Y4855178D01*
X6632500Y4849448D01*
Y4830552D01*
X6639732Y4813093D01*
X6653094Y4799732D01*
X6670552Y4792500D01*
X6689448D01*
X6706907Y4799732D01*
X6720269Y4813093D01*
X6727500Y4830552D01*
Y4849448D01*
X6720269Y4866906D01*
X6706907Y4880268D01*
X6702655Y4882029D01*
X6697022Y4900599D01*
X6705083Y4912663D01*
X6710322Y4939000D01*
Y5054000D01*
X6705083Y5080337D01*
X6690164Y5102664D01*
X6667837Y5117583D01*
X6641500Y5122822D01*
D02*
G37*
G36*
X2831500D02*
X2756500D01*
X2730163Y5117583D01*
X2707836Y5102664D01*
X2692917Y5080337D01*
X2687678Y5054000D01*
Y4939000D01*
X2692917Y4912663D01*
X2707836Y4890336D01*
X2709533Y4889202D01*
X2709606Y4888798D01*
X2706724Y4873038D01*
X2694619Y4868024D01*
X2681257Y4854662D01*
X2674026Y4837204D01*
Y4818307D01*
X2681257Y4800849D01*
X2694619Y4787487D01*
X2712077Y4780256D01*
X2730974D01*
X2748432Y4787487D01*
X2761794Y4800849D01*
X2764222Y4806712D01*
X2780458D01*
X2781647Y4803843D01*
X2795009Y4790481D01*
X2812467Y4783250D01*
X2831363D01*
X2848822Y4790481D01*
X2862184Y4803843D01*
X2869415Y4821301D01*
Y4840198D01*
X2862184Y4857656D01*
X2859405Y4860435D01*
X2859038Y4863943D01*
X2862512Y4878540D01*
X2880164Y4890336D01*
X2895083Y4912663D01*
X2900322Y4939000D01*
Y5054000D01*
X2895083Y5080337D01*
X2880164Y5102664D01*
X2857837Y5117583D01*
X2831500Y5122822D01*
D02*
G37*
G36*
X5117500D02*
X5042500D01*
X5016163Y5117583D01*
X4993836Y5102664D01*
X4978917Y5080337D01*
X4973678Y5054000D01*
Y4939000D01*
X4978917Y4912663D01*
X4993836Y4890336D01*
X5016163Y4875417D01*
X5042500Y4870178D01*
X5046527D01*
X5052740Y4855178D01*
X5051243Y4853681D01*
X5044012Y4836222D01*
Y4817326D01*
X5051243Y4799868D01*
X5064605Y4786506D01*
X5082063Y4779274D01*
X5100960D01*
X5118418Y4786506D01*
X5131780Y4799868D01*
X5139011Y4817326D01*
Y4836222D01*
X5131780Y4853681D01*
X5128407Y4857054D01*
X5133344Y4873330D01*
X5143837Y4875417D01*
X5166164Y4890336D01*
X5181083Y4912663D01*
X5186322Y4939000D01*
Y5054000D01*
X5181083Y5080337D01*
X5166164Y5102664D01*
X5143837Y5117583D01*
X5117500Y5122822D01*
D02*
G37*
G36*
X7220238Y4769110D02*
X7201342D01*
X7183884Y4761879D01*
X7170522Y4748517D01*
X7163290Y4731059D01*
Y4712162D01*
X7170522Y4694704D01*
X7183884Y4681342D01*
X7201342Y4674111D01*
X7220238D01*
X7237696Y4681342D01*
X7251058Y4694704D01*
X7258290Y4712162D01*
Y4731059D01*
X7251058Y4748517D01*
X7237696Y4761879D01*
X7220238Y4769110D01*
D02*
G37*
G36*
X7419448Y4747500D02*
X7400552D01*
X7383093Y4740268D01*
X7369732Y4726906D01*
X7362500Y4709448D01*
Y4690552D01*
X7369732Y4673094D01*
X7383093Y4659732D01*
X7400552Y4652500D01*
X7419448D01*
X7436906Y4659732D01*
X7450268Y4673094D01*
X7457500Y4690552D01*
Y4709448D01*
X7450268Y4726906D01*
X7436906Y4740268D01*
X7419448Y4747500D01*
D02*
G37*
G36*
X6539448Y4717500D02*
X6520552D01*
X6503093Y4710268D01*
X6489731Y4696907D01*
X6482500Y4679448D01*
Y4660552D01*
X6489731Y4643094D01*
X6503093Y4629732D01*
X6520552Y4622500D01*
X6539448D01*
X6556906Y4629732D01*
X6570268Y4643094D01*
X6577500Y4660552D01*
Y4679448D01*
X6570268Y4696907D01*
X6556906Y4710268D01*
X6539448Y4717500D01*
D02*
G37*
G36*
X8189448Y4757500D02*
X8170552D01*
X8153093Y4750268D01*
X8139731Y4736906D01*
X8132500Y4719448D01*
Y4700552D01*
X8139731Y4683094D01*
X8148024Y4674800D01*
X8142417Y4669193D01*
X8135186Y4651735D01*
Y4632838D01*
X8142417Y4615380D01*
X8155779Y4602018D01*
X8173237Y4594787D01*
X8192134D01*
X8209592Y4602018D01*
X8222954Y4615380D01*
X8230185Y4632838D01*
Y4651735D01*
X8222954Y4669193D01*
X8214661Y4677486D01*
X8220268Y4683094D01*
X8227500Y4700552D01*
Y4719448D01*
X8220268Y4736906D01*
X8206906Y4750268D01*
X8189448Y4757500D01*
D02*
G37*
G36*
X5219388Y4602518D02*
X5200491D01*
X5183033Y4595287D01*
X5173023Y4585277D01*
X5168314Y4589986D01*
X5150856Y4597217D01*
X5131959D01*
X5114501Y4589986D01*
X5101139Y4576624D01*
X5093908Y4559166D01*
Y4540269D01*
X5101139Y4522811D01*
X5114501Y4509449D01*
X5131959Y4502218D01*
X5150856D01*
X5168314Y4509449D01*
X5178324Y4519459D01*
X5183033Y4514750D01*
X5200491Y4507519D01*
X5219388D01*
X5236846Y4514750D01*
X5250208Y4528112D01*
X5257439Y4545570D01*
Y4564467D01*
X5250208Y4581925D01*
X5236846Y4595287D01*
X5219388Y4602518D01*
D02*
G37*
G36*
X5509311Y4679756D02*
X5490414D01*
X5472956Y4672524D01*
X5459594Y4659162D01*
X5452363Y4641704D01*
Y4622808D01*
X5459594Y4605349D01*
X5472956Y4591988D01*
X5490414Y4584756D01*
X5509311D01*
X5522575Y4590250D01*
X5523094Y4589731D01*
X5540552Y4582500D01*
X5559448D01*
X5576907Y4589731D01*
X5590268Y4603093D01*
X5597500Y4620552D01*
Y4639448D01*
X5590268Y4656906D01*
X5576907Y4670268D01*
X5559448Y4677500D01*
X5540552D01*
X5527288Y4672006D01*
X5526769Y4672524D01*
X5509311Y4679756D01*
D02*
G37*
G36*
X8344789Y4727795D02*
X8325892D01*
X8308434Y4720563D01*
X8295072Y4707201D01*
X8287841Y4689743D01*
Y4670847D01*
X8295072Y4653388D01*
X8297170Y4651291D01*
X8291621Y4637893D01*
Y4618997D01*
X8298852Y4601539D01*
X8312214Y4588177D01*
X8329672Y4580945D01*
X8348569D01*
X8366027Y4588177D01*
X8379389Y4601539D01*
X8386620Y4618997D01*
Y4637893D01*
X8379389Y4655352D01*
X8377291Y4657449D01*
X8382840Y4670847D01*
Y4689743D01*
X8375609Y4707201D01*
X8362247Y4720563D01*
X8344789Y4727795D01*
D02*
G37*
G36*
X5918439Y4674032D02*
X5899543D01*
X5882085Y4666801D01*
X5868723Y4653439D01*
X5861491Y4635981D01*
Y4617084D01*
X5868723Y4599626D01*
X5882085Y4586264D01*
X5899543Y4579032D01*
X5918439D01*
X5935897Y4586264D01*
X5938708Y4589074D01*
X5942147Y4585635D01*
X5959606Y4578404D01*
X5978502D01*
X5995960Y4585635D01*
X6009322Y4598997D01*
X6016554Y4616455D01*
Y4635352D01*
X6009322Y4652810D01*
X5995960Y4666172D01*
X5978502Y4673403D01*
X5959606D01*
X5942147Y4666172D01*
X5939337Y4663361D01*
X5935897Y4666801D01*
X5918439Y4674032D01*
D02*
G37*
G36*
X2947812Y4657319D02*
X2928916D01*
X2911457Y4650087D01*
X2898096Y4636726D01*
X2890864Y4619267D01*
Y4600371D01*
X2898096Y4582913D01*
X2911457Y4569551D01*
X2928916Y4562319D01*
X2947812D01*
X2965270Y4569551D01*
X2978632Y4582913D01*
X2985864Y4600371D01*
Y4619267D01*
X2978632Y4636726D01*
X2965270Y4650087D01*
X2947812Y4657319D01*
D02*
G37*
G36*
X6858579Y4674715D02*
X6839683D01*
X6822224Y4667484D01*
X6808862Y4654122D01*
X6801631Y4636664D01*
Y4617767D01*
X6808862Y4600309D01*
X6822224Y4586947D01*
X6839683Y4579716D01*
X6858579D01*
X6869398Y4584197D01*
X6872748Y4576110D01*
X6886110Y4562748D01*
X6903568Y4555516D01*
X6922464D01*
X6939923Y4562748D01*
X6953285Y4576110D01*
X6960516Y4593568D01*
Y4612464D01*
X6953285Y4629923D01*
X6939923Y4643285D01*
X6922464Y4650516D01*
X6903568D01*
X6892749Y4646035D01*
X6889399Y4654122D01*
X6876037Y4667484D01*
X6858579Y4674715D01*
D02*
G37*
G36*
X6169448Y4637500D02*
X6150552D01*
X6133094Y4630268D01*
X6119732Y4616906D01*
X6112500Y4599448D01*
Y4580552D01*
X6119732Y4563093D01*
X6133094Y4549732D01*
X6150552Y4542500D01*
X6169448D01*
X6186907Y4549732D01*
X6200269Y4563093D01*
X6207500Y4580552D01*
Y4599448D01*
X6200269Y4616906D01*
X6186907Y4630268D01*
X6169448Y4637500D01*
D02*
G37*
G36*
X4129448Y4617500D02*
X4110552D01*
X4093093Y4610268D01*
X4079731Y4596906D01*
X4072500Y4579448D01*
Y4560552D01*
X4079731Y4543094D01*
X4093093Y4529732D01*
X4110552Y4522500D01*
X4129448D01*
X4146906Y4529732D01*
X4160268Y4543094D01*
X4167500Y4560552D01*
Y4579448D01*
X4160268Y4596906D01*
X4146906Y4610268D01*
X4129448Y4617500D01*
D02*
G37*
G36*
X3148924Y4671519D02*
X3130027D01*
X3112569Y4664288D01*
X3099207Y4650926D01*
X3091976Y4633467D01*
Y4614571D01*
X3095732Y4605503D01*
X3083093Y4600268D01*
X3069731Y4586906D01*
X3062500Y4569448D01*
Y4550552D01*
X3069731Y4533094D01*
X3083093Y4519732D01*
X3100552Y4512500D01*
X3119448D01*
X3136906Y4519732D01*
X3150268Y4533094D01*
X3157500Y4550552D01*
Y4569448D01*
X3153744Y4578516D01*
X3166382Y4583751D01*
X3179744Y4597113D01*
X3186975Y4614571D01*
Y4633467D01*
X3179744Y4650926D01*
X3166382Y4664288D01*
X3148924Y4671519D01*
D02*
G37*
G36*
X3629448Y4597500D02*
X3610552D01*
X3593094Y4590268D01*
X3579732Y4576907D01*
X3572500Y4559448D01*
Y4540552D01*
X3579732Y4523094D01*
X3593094Y4509732D01*
X3610552Y4502500D01*
X3629448D01*
X3646907Y4509732D01*
X3660269Y4523094D01*
X3667500Y4540552D01*
Y4559448D01*
X3660269Y4576907D01*
X3646907Y4590268D01*
X3629448Y4597500D01*
D02*
G37*
G36*
X4019448Y4577500D02*
X4000552D01*
X3983094Y4570268D01*
X3969732Y4556907D01*
X3962500Y4539448D01*
Y4520552D01*
X3969732Y4503094D01*
X3983094Y4489732D01*
X4000552Y4482500D01*
X4019448D01*
X4036907Y4489732D01*
X4050269Y4503094D01*
X4057500Y4520552D01*
Y4539448D01*
X4050269Y4556907D01*
X4036907Y4570268D01*
X4019448Y4577500D01*
D02*
G37*
G36*
X5759448Y4557500D02*
X5740552D01*
X5723093Y4550269D01*
X5709732Y4536907D01*
X5702500Y4519448D01*
Y4500552D01*
X5709732Y4483094D01*
X5723093Y4469732D01*
X5740552Y4462500D01*
X5759448D01*
X5776906Y4469732D01*
X5790268Y4483094D01*
X5797500Y4500552D01*
Y4519448D01*
X5790268Y4536907D01*
X5776906Y4550269D01*
X5759448Y4557500D01*
D02*
G37*
G36*
X6360449Y4671582D02*
X6341552D01*
X6324094Y4664351D01*
X6310732Y4650989D01*
X6303500Y4633531D01*
Y4614634D01*
X6310732Y4597176D01*
X6324094Y4583814D01*
X6341552Y4576583D01*
X6360449D01*
X6363603Y4577889D01*
X6369731Y4563093D01*
X6383093Y4549732D01*
X6382212Y4533861D01*
X6371263Y4529325D01*
X6357901Y4515963D01*
X6350670Y4498505D01*
Y4479609D01*
X6357901Y4462150D01*
X6371263Y4448788D01*
X6388721Y4441557D01*
X6407618D01*
X6425076Y4448788D01*
X6438438Y4462150D01*
X6445669Y4479609D01*
Y4498505D01*
X6438438Y4515963D01*
X6425076Y4529325D01*
X6425957Y4545196D01*
X6436906Y4549732D01*
X6450268Y4563093D01*
X6457500Y4580552D01*
Y4599448D01*
X6450268Y4616906D01*
X6436906Y4630268D01*
X6419448Y4637500D01*
X6400552D01*
X6397397Y4636193D01*
X6391269Y4650989D01*
X6377907Y4664351D01*
X6360449Y4671582D01*
D02*
G37*
G36*
X7549448Y4627500D02*
X7530552D01*
X7513093Y4620268D01*
X7499732Y4606906D01*
X7492500Y4589448D01*
Y4570552D01*
X7499732Y4553094D01*
X7513093Y4539732D01*
X7521989Y4536047D01*
X7523093Y4520268D01*
X7509731Y4506906D01*
X7502500Y4489448D01*
Y4470552D01*
X7509731Y4453093D01*
X7523093Y4439732D01*
X7540552Y4432500D01*
X7559448D01*
X7576906Y4439732D01*
X7590268Y4453093D01*
X7597500Y4470552D01*
Y4489448D01*
X7590268Y4506906D01*
X7576906Y4520268D01*
X7568011Y4523953D01*
X7566907Y4539732D01*
X7580268Y4553094D01*
X7587500Y4570552D01*
Y4589448D01*
X7580268Y4606906D01*
X7566906Y4620268D01*
X7549448Y4627500D01*
D02*
G37*
G36*
X7056948Y4537500D02*
X7038052D01*
X7020594Y4530269D01*
X7007232Y4516907D01*
X7000000Y4499448D01*
Y4480552D01*
X7007232Y4463094D01*
X7019700Y4450626D01*
X7020049Y4444168D01*
X7019068Y4434128D01*
X7008863Y4429901D01*
X6995501Y4416539D01*
X6988270Y4399081D01*
Y4380184D01*
X6995501Y4362726D01*
X7008863Y4349364D01*
X7026321Y4342133D01*
X7045218D01*
X7062676Y4349364D01*
X7076038Y4362726D01*
X7083269Y4380184D01*
Y4399081D01*
X7076038Y4416539D01*
X7063570Y4429007D01*
X7063220Y4435465D01*
X7064202Y4445505D01*
X7074406Y4449732D01*
X7087768Y4463094D01*
X7095000Y4480552D01*
Y4499448D01*
X7087768Y4516907D01*
X7074406Y4530269D01*
X7056948Y4537500D01*
D02*
G37*
G36*
X8204404Y4487137D02*
X8185507D01*
X8168049Y4479906D01*
X8154687Y4466544D01*
X8147456Y4449086D01*
Y4430189D01*
X8154687Y4412731D01*
X8167020Y4400398D01*
X8166419Y4398947D01*
Y4380051D01*
X8173650Y4362592D01*
X8187012Y4349231D01*
X8204470Y4341999D01*
X8223367D01*
X8240825Y4349231D01*
X8254187Y4362592D01*
X8261418Y4380051D01*
Y4398947D01*
X8254187Y4416405D01*
X8241854Y4428738D01*
X8242455Y4430189D01*
Y4449086D01*
X8235224Y4466544D01*
X8221862Y4479906D01*
X8204404Y4487137D01*
D02*
G37*
G36*
X8342521Y4489327D02*
X8323625D01*
X8306167Y4482096D01*
X8292805Y4468734D01*
X8285573Y4451276D01*
Y4432379D01*
X8292805Y4414921D01*
X8293020Y4414705D01*
X8286328Y4398549D01*
Y4379653D01*
X8293559Y4362195D01*
X8306921Y4348833D01*
X8324380Y4341601D01*
X8343276D01*
X8360734Y4348833D01*
X8374096Y4362195D01*
X8381328Y4379653D01*
Y4398549D01*
X8374096Y4416008D01*
X8373881Y4416223D01*
X8380573Y4432379D01*
Y4451276D01*
X8373341Y4468734D01*
X8359979Y4482096D01*
X8342521Y4489327D01*
D02*
G37*
G36*
X5649413Y4430366D02*
X5630517D01*
X5613058Y4423134D01*
X5599696Y4409772D01*
X5592465Y4392314D01*
Y4373418D01*
X5599696Y4355960D01*
X5613058Y4342598D01*
X5630517Y4335366D01*
X5649413D01*
X5666871Y4342598D01*
X5680233Y4355960D01*
X5687465Y4373418D01*
Y4392314D01*
X5680233Y4409772D01*
X5666871Y4423134D01*
X5649413Y4430366D01*
D02*
G37*
G36*
X7209448Y4527500D02*
X7190552D01*
X7173094Y4520268D01*
X7159732Y4506906D01*
X7152500Y4489448D01*
Y4470552D01*
X7159732Y4453093D01*
X7173094Y4439732D01*
X7183018Y4435621D01*
X7180034Y4420621D01*
X7170219D01*
X7152761Y4413389D01*
X7139399Y4400028D01*
X7132167Y4382569D01*
Y4363673D01*
X7139399Y4346215D01*
X7152761Y4332853D01*
X7170219Y4325621D01*
X7189115D01*
X7206574Y4332853D01*
X7219936Y4346215D01*
X7227167Y4363673D01*
Y4382569D01*
X7219936Y4400028D01*
X7206574Y4413389D01*
X7196650Y4417500D01*
X7199633Y4432500D01*
X7209448D01*
X7226907Y4439732D01*
X7240268Y4453093D01*
X7247500Y4470552D01*
Y4489448D01*
X7240268Y4506906D01*
X7226907Y4520268D01*
X7209448Y4527500D01*
D02*
G37*
G36*
X5977530Y4387641D02*
X5958634D01*
X5941176Y4380410D01*
X5927814Y4367048D01*
X5920582Y4349589D01*
Y4330693D01*
X5927814Y4313235D01*
X5941176Y4299873D01*
X5958634Y4292641D01*
X5977530D01*
X5994989Y4299873D01*
X6008350Y4313235D01*
X6015582Y4330693D01*
Y4349589D01*
X6008350Y4367048D01*
X5994989Y4380410D01*
X5977530Y4387641D01*
D02*
G37*
G36*
X6633199Y4405070D02*
X6614303D01*
X6596845Y4397839D01*
X6583483Y4384477D01*
X6576251Y4367018D01*
Y4348122D01*
X6583483Y4330664D01*
X6596845Y4317302D01*
X6614303Y4310070D01*
X6633199D01*
X6649552Y4316844D01*
X6652385Y4310004D01*
X6665747Y4296642D01*
X6683205Y4289411D01*
X6702101D01*
X6719560Y4296642D01*
X6732922Y4310004D01*
X6740153Y4327463D01*
Y4346359D01*
X6732922Y4363817D01*
X6719560Y4377179D01*
X6702101Y4384411D01*
X6683205D01*
X6666852Y4377637D01*
X6664019Y4384477D01*
X6650658Y4397839D01*
X6633199Y4405070D01*
D02*
G37*
G36*
X7299448Y4267500D02*
X7280552D01*
X7263093Y4260268D01*
X7249732Y4246906D01*
X7242500Y4229448D01*
Y4210552D01*
X7249732Y4193093D01*
X7263093Y4179732D01*
X7280552Y4172500D01*
X7299448D01*
X7316906Y4179732D01*
X7330268Y4193093D01*
X7337500Y4210552D01*
Y4229448D01*
X7330268Y4246906D01*
X7316906Y4260268D01*
X7299448Y4267500D01*
D02*
G37*
G36*
X4619448Y4227500D02*
X4600552D01*
X4583093Y4220268D01*
X4569732Y4206906D01*
X4562500Y4189448D01*
Y4170552D01*
X4569732Y4153094D01*
X4583093Y4139732D01*
X4600552Y4132500D01*
X4619448D01*
X4636906Y4139732D01*
X4650268Y4153094D01*
X4657500Y4170552D01*
Y4189448D01*
X4650268Y4206906D01*
X4636906Y4220268D01*
X4619448Y4227500D01*
D02*
G37*
G36*
X6749448Y4187500D02*
X6730552D01*
X6713094Y4180268D01*
X6699732Y4166907D01*
X6692500Y4149448D01*
Y4130552D01*
X6699732Y4113094D01*
X6713094Y4099732D01*
X6730552Y4092500D01*
X6749448D01*
X6766906Y4099732D01*
X6780268Y4113094D01*
X6787500Y4130552D01*
Y4149448D01*
X6780268Y4166907D01*
X6766906Y4180268D01*
X6749448Y4187500D01*
D02*
G37*
G36*
X7219448Y4177500D02*
X7200552D01*
X7183094Y4170269D01*
X7169732Y4156907D01*
X7162500Y4139448D01*
Y4120552D01*
X7169732Y4103094D01*
X7183094Y4089732D01*
X7200552Y4082500D01*
X7219448D01*
X7236907Y4089732D01*
X7250268Y4103094D01*
X7257500Y4120552D01*
Y4139448D01*
X7250268Y4156907D01*
X7236907Y4170269D01*
X7219448Y4177500D01*
D02*
G37*
G36*
X3499448Y4147500D02*
X3480552D01*
X3463093Y4140268D01*
X3449731Y4126906D01*
X3442500Y4109448D01*
Y4090552D01*
X3449731Y4073093D01*
X3463093Y4059732D01*
X3480552Y4052500D01*
X3499448D01*
X3516906Y4059732D01*
X3530268Y4073093D01*
X3537500Y4090552D01*
Y4109448D01*
X3530268Y4126906D01*
X3516906Y4140268D01*
X3499448Y4147500D01*
D02*
G37*
G36*
X6451436Y4010077D02*
X6432540D01*
X6415082Y4002845D01*
X6404066Y3991829D01*
X6387796Y3986886D01*
X6384887Y3989794D01*
X6367429Y3997026D01*
X6348532D01*
X6331074Y3989794D01*
X6317712Y3976432D01*
X6310481Y3958974D01*
Y3940078D01*
X6317712Y3922620D01*
X6331074Y3909258D01*
X6348532Y3902026D01*
X6367429D01*
X6384887Y3909258D01*
X6395903Y3920274D01*
X6412173Y3925217D01*
X6415082Y3922309D01*
X6432540Y3915077D01*
X6451436D01*
X6468895Y3922309D01*
X6482257Y3935671D01*
X6489488Y3953129D01*
Y3972025D01*
X6482257Y3989484D01*
X6468895Y4002845D01*
X6451436Y4010077D01*
D02*
G37*
G36*
X6501536Y4128653D02*
X6482640D01*
X6465182Y4121421D01*
X6451820Y4108059D01*
X6444588Y4090601D01*
Y4071705D01*
X6451820Y4054246D01*
X6465182Y4040884D01*
X6482640Y4033653D01*
X6486113D01*
X6497500Y4021948D01*
Y4003052D01*
X6504732Y3985594D01*
X6518094Y3972232D01*
X6535552Y3965000D01*
X6554448D01*
X6571907Y3972232D01*
X6585269Y3985594D01*
X6592500Y4003052D01*
Y4021948D01*
X6585269Y4039406D01*
X6571907Y4052768D01*
X6554448Y4060000D01*
X6550975D01*
X6539588Y4071705D01*
Y4090601D01*
X6532357Y4108059D01*
X6518995Y4121421D01*
X6501536Y4128653D01*
D02*
G37*
G36*
X4909448Y4037500D02*
X4890552D01*
X4873094Y4030268D01*
X4859732Y4016906D01*
X4852500Y3999448D01*
Y3980552D01*
X4859732Y3963093D01*
X4873094Y3949731D01*
X4890552Y3942500D01*
X4909448D01*
X4926907Y3949731D01*
X4940269Y3963093D01*
X4947500Y3980552D01*
Y3999448D01*
X4940269Y4016906D01*
X4926907Y4030268D01*
X4909448Y4037500D01*
D02*
G37*
G36*
X6930544Y4024261D02*
X6911648D01*
X6894190Y4017030D01*
X6880828Y4003668D01*
X6873596Y3986210D01*
Y3967313D01*
X6880828Y3949855D01*
X6894190Y3936493D01*
X6911648Y3929262D01*
X6930544D01*
X6948003Y3936493D01*
X6961365Y3949855D01*
X6968596Y3967313D01*
Y3986210D01*
X6961365Y4003668D01*
X6948003Y4017030D01*
X6930544Y4024261D01*
D02*
G37*
G36*
X6780781Y4020811D02*
X6761884D01*
X6744426Y4013580D01*
X6731064Y4000218D01*
X6723833Y3982760D01*
Y3963863D01*
X6731064Y3946405D01*
X6744426Y3933043D01*
X6761884Y3925812D01*
X6780781D01*
X6798239Y3933043D01*
X6811601Y3946405D01*
X6818832Y3963863D01*
Y3982760D01*
X6811601Y4000218D01*
X6798239Y4013580D01*
X6780781Y4020811D01*
D02*
G37*
G36*
X8234995Y4194771D02*
X8216098D01*
X8198640Y4187540D01*
X8185278Y4174178D01*
X8178047Y4156720D01*
Y4137823D01*
X8181738Y4128912D01*
X8169732Y4116906D01*
X8162500Y4099448D01*
Y4080552D01*
X8169732Y4063093D01*
X8173048Y4059776D01*
X8164955Y4051683D01*
X8157723Y4034225D01*
Y4015328D01*
X8163691Y4000921D01*
X8155741Y3992972D01*
X8148510Y3975514D01*
Y3956617D01*
X8155741Y3939159D01*
X8169103Y3925797D01*
X8186561Y3918566D01*
X8205458D01*
X8222916Y3925797D01*
X8236278Y3939159D01*
X8243510Y3956617D01*
Y3975514D01*
X8237542Y3989921D01*
X8245492Y3997870D01*
X8252723Y4015328D01*
Y4034225D01*
X8245492Y4051683D01*
X8242175Y4055000D01*
X8250268Y4063093D01*
X8257500Y4080552D01*
Y4099448D01*
X8253809Y4108359D01*
X8265815Y4120365D01*
X8273046Y4137823D01*
Y4156720D01*
X8265815Y4174178D01*
X8252453Y4187540D01*
X8234995Y4194771D01*
D02*
G37*
G36*
X5089448Y4007500D02*
X5070552D01*
X5053094Y4000268D01*
X5039732Y3986906D01*
X5032500Y3969448D01*
Y3950552D01*
X5039732Y3933093D01*
X5053094Y3919732D01*
X5070552Y3912500D01*
X5089448D01*
X5106906Y3919732D01*
X5120268Y3933093D01*
X5127500Y3950552D01*
Y3969448D01*
X5120268Y3986906D01*
X5106906Y4000268D01*
X5089448Y4007500D01*
D02*
G37*
G36*
X5400947Y4001502D02*
X5382050D01*
X5364592Y3994271D01*
X5351230Y3980909D01*
X5343999Y3963451D01*
Y3944554D01*
X5351230Y3927096D01*
X5364592Y3913734D01*
X5382050Y3906502D01*
X5400947D01*
X5418405Y3913734D01*
X5431767Y3927096D01*
X5438999Y3944554D01*
Y3963451D01*
X5431767Y3980909D01*
X5418405Y3994271D01*
X5400947Y4001502D01*
D02*
G37*
G36*
X4051498Y4107198D02*
X4027629D01*
X4005576Y4098063D01*
X3988698Y4081185D01*
X3979564Y4059133D01*
Y4035263D01*
X3988698Y4013211D01*
X3997512Y4004396D01*
X3988587Y3995472D01*
X3979453Y3973419D01*
Y3949550D01*
X3988587Y3927497D01*
X4005466Y3910619D01*
X4027518Y3901484D01*
X4051388D01*
X4073440Y3910619D01*
X4090318Y3927497D01*
X4099453Y3949550D01*
Y3973419D01*
X4090318Y3995472D01*
X4081504Y4004286D01*
X4090429Y4013211D01*
X4099563Y4035263D01*
Y4059133D01*
X4090429Y4081185D01*
X4073551Y4098063D01*
X4051498Y4107198D01*
D02*
G37*
G36*
X3178339Y3951103D02*
X3159442D01*
X3141984Y3943871D01*
X3128622Y3930509D01*
X3121391Y3913051D01*
Y3894155D01*
X3128622Y3876696D01*
X3141984Y3863334D01*
X3159442Y3856103D01*
X3178339D01*
X3195797Y3863334D01*
X3209159Y3876696D01*
X3216390Y3894155D01*
Y3913051D01*
X3209159Y3930509D01*
X3195797Y3943871D01*
X3178339Y3951103D01*
D02*
G37*
G36*
X6841044Y3917500D02*
X6822147D01*
X6804689Y3910268D01*
X6791327Y3896906D01*
X6784096Y3879448D01*
Y3860552D01*
X6791327Y3843093D01*
X6804689Y3829731D01*
X6822147Y3822500D01*
X6841044D01*
X6858502Y3829731D01*
X6871864Y3843093D01*
X6879095Y3860552D01*
Y3879448D01*
X6871864Y3896906D01*
X6858502Y3910268D01*
X6841044Y3917500D01*
D02*
G37*
G36*
X5009020Y3887968D02*
X4990123D01*
X4972665Y3880737D01*
X4959303Y3867375D01*
X4952072Y3849917D01*
Y3831020D01*
X4959303Y3813562D01*
X4972665Y3800200D01*
X4990123Y3792969D01*
X5009020D01*
X5026478Y3800200D01*
X5039840Y3813562D01*
X5047071Y3831020D01*
Y3849917D01*
X5039840Y3867375D01*
X5026478Y3880737D01*
X5009020Y3887968D01*
D02*
G37*
G36*
X2251271Y3865045D02*
X2232374D01*
X2214916Y3857814D01*
X2201554Y3844452D01*
X2194323Y3826994D01*
Y3808097D01*
X2201554Y3790639D01*
X2214916Y3777277D01*
X2232374Y3770046D01*
X2251271D01*
X2268729Y3777277D01*
X2282091Y3790639D01*
X2289322Y3808097D01*
Y3826994D01*
X2282091Y3844452D01*
X2268729Y3857814D01*
X2251271Y3865045D01*
D02*
G37*
G36*
X7219448Y3847500D02*
X7200552D01*
X7183094Y3840268D01*
X7169732Y3826906D01*
X7162500Y3809448D01*
Y3790552D01*
X7169732Y3773094D01*
X7183094Y3759732D01*
X7200552Y3752500D01*
X7219448D01*
X7236907Y3759732D01*
X7250268Y3773094D01*
X7257500Y3790552D01*
Y3809448D01*
X7250268Y3826906D01*
X7236907Y3840268D01*
X7219448Y3847500D01*
D02*
G37*
G36*
X4520087Y3813270D02*
X4501190D01*
X4483732Y3806039D01*
X4470370Y3792677D01*
X4463139Y3775219D01*
Y3756322D01*
X4470370Y3738864D01*
X4475522Y3733712D01*
X4475221Y3733167D01*
X4456906Y3730268D01*
X4439448Y3737500D01*
X4420552D01*
X4403094Y3730268D01*
X4389732Y3716906D01*
X4382500Y3699448D01*
Y3680552D01*
X4389732Y3663094D01*
X4403094Y3649732D01*
X4420552Y3642500D01*
X4439448D01*
X4456907Y3649732D01*
X4470268Y3663093D01*
X4473548Y3663746D01*
X4483894Y3653399D01*
X4501352Y3646168D01*
X4520249D01*
X4537707Y3653399D01*
X4551069Y3666761D01*
X4558301Y3684219D01*
Y3703116D01*
X4551069Y3720574D01*
X4541843Y3729800D01*
X4550907Y3738864D01*
X4558138Y3756322D01*
Y3775219D01*
X4550907Y3792677D01*
X4537545Y3806039D01*
X4520087Y3813270D01*
D02*
G37*
G36*
X6955259Y3816175D02*
X6936363D01*
X6918904Y3808943D01*
X6905542Y3795581D01*
X6898311Y3778123D01*
Y3759227D01*
X6905542Y3741768D01*
X6918904Y3728407D01*
X6936363Y3721175D01*
X6955259D01*
X6972717Y3728407D01*
X6974590Y3730280D01*
X6980665Y3724204D01*
X6998124Y3716973D01*
X7017020D01*
X7034478Y3724204D01*
X7047840Y3737566D01*
X7055072Y3755024D01*
Y3773921D01*
X7047840Y3791379D01*
X7034478Y3804741D01*
X7017020Y3811972D01*
X6998124D01*
X6980665Y3804741D01*
X6978793Y3802868D01*
X6972717Y3808943D01*
X6955259Y3816175D01*
D02*
G37*
G36*
X7661200Y3787825D02*
X7642303D01*
X7624845Y3780593D01*
X7611483Y3767231D01*
X7604251Y3749773D01*
Y3730876D01*
X7611483Y3713418D01*
X7624845Y3700056D01*
X7642303Y3692825D01*
X7661200D01*
X7678658Y3700056D01*
X7692020Y3713418D01*
X7699251Y3730876D01*
Y3749773D01*
X7692020Y3767231D01*
X7678658Y3780593D01*
X7661200Y3787825D01*
D02*
G37*
G36*
X5981674Y3785684D02*
X5962777D01*
X5945319Y3778452D01*
X5931957Y3765091D01*
X5924726Y3747632D01*
Y3728736D01*
X5931957Y3711278D01*
X5945319Y3697916D01*
X5962777Y3690684D01*
X5981674D01*
X5999132Y3697916D01*
X6012494Y3711278D01*
X6019725Y3728736D01*
Y3747632D01*
X6012494Y3765091D01*
X5999132Y3778452D01*
X5981674Y3785684D01*
D02*
G37*
G36*
X6452967Y3701292D02*
X6434070D01*
X6416612Y3694061D01*
X6403250Y3680699D01*
X6388406Y3684060D01*
X6385203Y3687263D01*
X6367745Y3694494D01*
X6348848D01*
X6331390Y3687263D01*
X6318028Y3673901D01*
X6310797Y3656443D01*
Y3637546D01*
X6318028Y3620088D01*
X6331390Y3606726D01*
X6348848Y3599494D01*
X6367745D01*
X6385203Y3606726D01*
X6398565Y3620088D01*
X6413409Y3616727D01*
X6416612Y3613524D01*
X6434070Y3606293D01*
X6452967D01*
X6470425Y3613524D01*
X6483787Y3626886D01*
X6491018Y3644344D01*
Y3663241D01*
X6483787Y3680699D01*
X6470425Y3694061D01*
X6452967Y3701292D01*
D02*
G37*
G36*
X8339448Y3767500D02*
X8320552D01*
X8303094Y3760268D01*
X8289732Y3746906D01*
X8282500Y3729448D01*
Y3710552D01*
X8289732Y3693093D01*
X8303094Y3679732D01*
X8320552Y3672500D01*
X8339448D01*
X8356907Y3679732D01*
X8370269Y3693093D01*
X8377500Y3710552D01*
Y3729448D01*
X8370269Y3746906D01*
X8356907Y3760268D01*
X8339448Y3767500D01*
D02*
G37*
G36*
X8199448D02*
X8180552D01*
X8163093Y3760268D01*
X8149731Y3746906D01*
X8142500Y3729448D01*
Y3710552D01*
X8149731Y3693093D01*
X8163093Y3679732D01*
X8180552Y3672500D01*
X8199448D01*
X8216906Y3679732D01*
X8230268Y3693093D01*
X8237500Y3710552D01*
Y3729448D01*
X8230268Y3746906D01*
X8216906Y3760268D01*
X8199448Y3767500D01*
D02*
G37*
G36*
X5552635Y3742152D02*
X5533738D01*
X5516280Y3734921D01*
X5502918Y3721559D01*
X5495687Y3704101D01*
Y3685204D01*
X5502918Y3667746D01*
X5516280Y3654384D01*
X5533738Y3647152D01*
X5552635D01*
X5570093Y3654384D01*
X5583455Y3667746D01*
X5590687Y3685204D01*
Y3704101D01*
X5583455Y3721559D01*
X5570093Y3734921D01*
X5552635Y3742152D01*
D02*
G37*
G36*
X6554978Y3820000D02*
X6536081D01*
X6518623Y3812768D01*
X6505261Y3799406D01*
X6498030Y3781948D01*
Y3763052D01*
X6505261Y3745593D01*
X6518623Y3732232D01*
X6536081Y3725000D01*
X6554978D01*
X6565566Y3713150D01*
X6567030Y3709616D01*
X6567364Y3693519D01*
X6554002Y3680157D01*
X6546771Y3662699D01*
Y3643802D01*
X6554002Y3626344D01*
X6567364Y3612982D01*
X6584822Y3605751D01*
X6603719D01*
X6621177Y3612982D01*
X6634539Y3626344D01*
X6641771Y3643802D01*
Y3662699D01*
X6637241Y3673634D01*
X6636907Y3689732D01*
X6650268Y3703093D01*
X6657500Y3720552D01*
Y3739448D01*
X6650268Y3756906D01*
X6636906Y3770268D01*
X6619448Y3777500D01*
X6600552D01*
X6590704Y3787563D01*
X6585798Y3799406D01*
X6572436Y3812768D01*
X6554978Y3820000D01*
D02*
G37*
G36*
X8348238Y3621066D02*
X8329342D01*
X8311884Y3613835D01*
X8304918Y3606869D01*
X8290079Y3600493D01*
X8272622Y3607724D01*
X8253725D01*
X8236267Y3600493D01*
X8222905Y3587131D01*
X8215673Y3569673D01*
Y3550776D01*
X8222905Y3533318D01*
X8227394Y3528829D01*
X8222478Y3523912D01*
X8215246Y3506454D01*
Y3487557D01*
X8222478Y3470099D01*
X8235840Y3456737D01*
X8253298Y3449506D01*
X8272194D01*
X8289652Y3456737D01*
X8303014Y3470099D01*
X8305748Y3476700D01*
X8323442Y3480219D01*
X8323476Y3480185D01*
X8340934Y3472954D01*
X8359831D01*
X8377289Y3480185D01*
X8390651Y3493547D01*
X8397882Y3511005D01*
Y3529902D01*
X8390651Y3547360D01*
X8382659Y3555352D01*
X8386290Y3564118D01*
Y3583014D01*
X8379058Y3600473D01*
X8365697Y3613835D01*
X8348238Y3621066D01*
D02*
G37*
G36*
X6715159Y3682424D02*
X6696262D01*
X6678804Y3675193D01*
X6665442Y3661831D01*
X6658211Y3644372D01*
Y3625476D01*
X6665442Y3608018D01*
X6678804Y3594656D01*
X6696262Y3587424D01*
X6715159D01*
X6732617Y3594656D01*
X6745979Y3608018D01*
X6753211Y3625476D01*
Y3644372D01*
X6745979Y3661831D01*
X6732617Y3675193D01*
X6715159Y3682424D01*
D02*
G37*
G36*
X7218155Y3682383D02*
X7199259D01*
X7181800Y3675151D01*
X7168439Y3661789D01*
X7161207Y3644331D01*
Y3625434D01*
X7168439Y3607976D01*
X7181800Y3594614D01*
X7199259Y3587383D01*
X7218155D01*
X7235613Y3594614D01*
X7248975Y3607976D01*
X7256207Y3625434D01*
Y3644331D01*
X7248975Y3661789D01*
X7235613Y3675151D01*
X7218155Y3682383D01*
D02*
G37*
G36*
X5179448Y3647500D02*
X5160552D01*
X5143094Y3640268D01*
X5129732Y3626906D01*
X5122500Y3609448D01*
Y3590552D01*
X5129732Y3573093D01*
X5143094Y3559732D01*
X5160552Y3552500D01*
X5179448D01*
X5196907Y3559732D01*
X5210268Y3573093D01*
X5217500Y3590552D01*
Y3609448D01*
X5210268Y3626906D01*
X5196907Y3640268D01*
X5179448Y3647500D01*
D02*
G37*
G36*
X5504520Y3588333D02*
X5485624D01*
X5468166Y3581102D01*
X5454804Y3567740D01*
X5447572Y3550281D01*
Y3531385D01*
X5454804Y3513927D01*
X5468166Y3500565D01*
X5485624Y3493333D01*
X5504520D01*
X5521979Y3500565D01*
X5535340Y3513927D01*
X5542572Y3531385D01*
Y3550281D01*
X5535340Y3567740D01*
X5521979Y3581102D01*
X5504520Y3588333D01*
D02*
G37*
G36*
X4099026Y3506428D02*
X4080129D01*
X4062671Y3499196D01*
X4049309Y3485834D01*
X4042078Y3468376D01*
Y3449480D01*
X4049309Y3432021D01*
X4062671Y3418659D01*
X4080129Y3411428D01*
X4099026D01*
X4116484Y3418659D01*
X4129846Y3432021D01*
X4137077Y3449480D01*
Y3468376D01*
X4129846Y3485834D01*
X4116484Y3499196D01*
X4099026Y3506428D01*
D02*
G37*
G36*
X3972500Y3444224D02*
X3867500D01*
X3843114Y3439373D01*
X3822440Y3425560D01*
X3808626Y3404886D01*
X3807647Y3399962D01*
X3792353D01*
X3791374Y3404886D01*
X3777560Y3425560D01*
X3756886Y3439373D01*
X3732500Y3444224D01*
X3627500D01*
X3603114Y3439373D01*
X3582440Y3425560D01*
X3568626Y3404886D01*
X3563776Y3380500D01*
Y3315500D01*
X3568626Y3291113D01*
X3582440Y3270440D01*
X3603114Y3256626D01*
X3608037Y3255647D01*
Y3240353D01*
X3603114Y3239373D01*
X3582440Y3225559D01*
X3568626Y3204886D01*
X3563776Y3180500D01*
Y3115499D01*
X3568626Y3091113D01*
X3582440Y3070440D01*
X3603114Y3056626D01*
X3608037Y3055647D01*
Y3040353D01*
X3603114Y3039373D01*
X3582440Y3025560D01*
X3568626Y3004886D01*
X3563776Y2980500D01*
Y2915500D01*
X3568626Y2891113D01*
X3582440Y2870440D01*
X3603114Y2856626D01*
X3608037Y2855647D01*
Y2840353D01*
X3603114Y2839373D01*
X3582440Y2825559D01*
X3568626Y2804886D01*
X3563776Y2780500D01*
Y2715500D01*
X3568626Y2691113D01*
X3582440Y2670440D01*
X3603114Y2656626D01*
X3608037Y2655647D01*
Y2640353D01*
X3603114Y2639373D01*
X3582440Y2625560D01*
X3568626Y2604886D01*
X3563776Y2580500D01*
Y2515500D01*
X3568626Y2491113D01*
X3582440Y2470440D01*
X3603114Y2456626D01*
X3627500Y2451775D01*
X3732500D01*
X3756886Y2456626D01*
X3777560Y2470440D01*
X3791374Y2491113D01*
X3792353Y2496037D01*
X3807647D01*
X3808626Y2491113D01*
X3822440Y2470440D01*
X3843114Y2456626D01*
X3867500Y2451775D01*
X3972500D01*
X3996886Y2456626D01*
X4017560Y2470440D01*
X4031374Y2491113D01*
X4036224Y2515500D01*
Y2580500D01*
X4031374Y2604886D01*
X4017560Y2625560D01*
X3996886Y2639373D01*
X3991963Y2640353D01*
Y2655647D01*
X3996886Y2656626D01*
X4017560Y2670440D01*
X4031374Y2691113D01*
X4036224Y2715500D01*
Y2780500D01*
X4031374Y2804886D01*
X4017560Y2825559D01*
X3996886Y2839373D01*
X3991963Y2840353D01*
Y2855647D01*
X3996886Y2856626D01*
X4017560Y2870440D01*
X4031374Y2891113D01*
X4036224Y2915500D01*
Y2980500D01*
X4031374Y3004886D01*
X4017560Y3025560D01*
X3996886Y3039373D01*
X3991963Y3040353D01*
Y3055647D01*
X3996886Y3056626D01*
X4017560Y3070440D01*
X4031374Y3091113D01*
X4036224Y3115499D01*
Y3180500D01*
X4031374Y3204886D01*
X4017560Y3225559D01*
X3996886Y3239373D01*
X3991963Y3240353D01*
Y3255647D01*
X3996886Y3256626D01*
X4017560Y3270440D01*
X4031374Y3291113D01*
X4036224Y3315500D01*
Y3380500D01*
X4031374Y3404886D01*
X4017560Y3425560D01*
X3996886Y3439373D01*
X3972500Y3444224D01*
D02*
G37*
G36*
X6618814Y3481538D02*
X6599917D01*
X6582459Y3474306D01*
X6569097Y3460944D01*
X6561866Y3443486D01*
Y3424590D01*
X6569097Y3407131D01*
X6582459Y3393769D01*
X6599917Y3386538D01*
X6618814D01*
X6636272Y3393769D01*
X6649634Y3407131D01*
X6656865Y3424590D01*
Y3443486D01*
X6649634Y3460944D01*
X6636272Y3474306D01*
X6618814Y3481538D01*
D02*
G37*
G36*
X6789448Y3447500D02*
X6770552D01*
X6753093Y3440268D01*
X6739732Y3426907D01*
X6732500Y3409448D01*
Y3390552D01*
X6739732Y3373094D01*
X6753093Y3359732D01*
X6770552Y3352500D01*
X6789448D01*
X6806906Y3359732D01*
X6820268Y3373094D01*
X6827500Y3390552D01*
Y3409448D01*
X6820268Y3426907D01*
X6806906Y3440268D01*
X6789448Y3447500D01*
D02*
G37*
G36*
X4649500Y3445826D02*
X4630603D01*
X4613145Y3438595D01*
X4599783Y3425233D01*
X4592552Y3407774D01*
Y3388878D01*
X4599783Y3371420D01*
X4613145Y3358058D01*
X4630603Y3350826D01*
X4649500D01*
X4666958Y3358058D01*
X4680320Y3371420D01*
X4687551Y3388878D01*
Y3407774D01*
X4680320Y3425233D01*
X4666958Y3438595D01*
X4649500Y3445826D01*
D02*
G37*
G36*
X4453545Y3374317D02*
X4434648D01*
X4417190Y3367085D01*
X4403828Y3353723D01*
X4396597Y3336265D01*
Y3317369D01*
X4403828Y3299910D01*
X4417190Y3286548D01*
X4434648Y3279317D01*
X4453545D01*
X4471003Y3286548D01*
X4484365Y3299910D01*
X4491597Y3317369D01*
Y3336265D01*
X4484365Y3353723D01*
X4471003Y3367085D01*
X4453545Y3374317D01*
D02*
G37*
G36*
X7119448Y3372524D02*
X7100552D01*
X7083094Y3365292D01*
X7069732Y3351931D01*
X7062500Y3334472D01*
Y3315576D01*
X7069732Y3298118D01*
X7083094Y3284756D01*
X7100552Y3277524D01*
X7119448D01*
X7136906Y3284756D01*
X7150268Y3298118D01*
X7157500Y3315576D01*
Y3334472D01*
X7150268Y3351931D01*
X7136906Y3365292D01*
X7119448Y3372524D01*
D02*
G37*
G36*
X2731524Y3311132D02*
X2712627D01*
X2695169Y3303900D01*
X2681807Y3290539D01*
X2674576Y3273080D01*
Y3254184D01*
X2681807Y3236726D01*
X2695169Y3223364D01*
X2712627Y3216132D01*
X2731524D01*
X2748982Y3223364D01*
X2762344Y3236726D01*
X2769575Y3254184D01*
Y3273080D01*
X2762344Y3290539D01*
X2748982Y3303900D01*
X2731524Y3311132D01*
D02*
G37*
G36*
X8059448Y3307500D02*
X8040552D01*
X8023093Y3300268D01*
X8009732Y3286907D01*
X8002500Y3269448D01*
Y3250552D01*
X8009732Y3233094D01*
X8023093Y3219732D01*
X8040552Y3212500D01*
X8059448D01*
X8076906Y3219732D01*
X8090268Y3233094D01*
X8097500Y3250552D01*
Y3269448D01*
X8090268Y3286907D01*
X8076906Y3300268D01*
X8059448Y3307500D01*
D02*
G37*
G36*
X8304250Y3298945D02*
X8273000D01*
Y3195000D01*
X8379445D01*
Y3223750D01*
X8373721Y3252526D01*
X8357420Y3276921D01*
X8333025Y3293221D01*
X8304250Y3298945D01*
D02*
G37*
G36*
X8253000D02*
X8221750D01*
X8192974Y3293221D01*
X8168580Y3276921D01*
X8152279Y3252526D01*
X8146555Y3223750D01*
Y3195000D01*
X8253000D01*
Y3298945D01*
D02*
G37*
G36*
X8379445Y3175000D02*
X8273000D01*
Y3071055D01*
X8304250D01*
X8333025Y3076779D01*
X8357420Y3093079D01*
X8373721Y3117474D01*
X8379445Y3146250D01*
Y3175000D01*
D02*
G37*
G36*
X8253000D02*
X8146555D01*
Y3146250D01*
X8152279Y3117474D01*
X8168580Y3093079D01*
X8192974Y3076779D01*
X8221750Y3071055D01*
X8253000D01*
Y3175000D01*
D02*
G37*
G36*
X5819448Y3107500D02*
X5800552D01*
X5783094Y3100268D01*
X5769732Y3086906D01*
X5762500Y3069448D01*
Y3050552D01*
X5769732Y3033094D01*
X5783094Y3019732D01*
X5800552Y3012500D01*
X5819448D01*
X5836907Y3019732D01*
X5850268Y3033094D01*
X5857500Y3050552D01*
Y3069448D01*
X5850268Y3086906D01*
X5836907Y3100268D01*
X5819448Y3107500D01*
D02*
G37*
G36*
X4571710Y3149413D02*
X4552813D01*
X4535355Y3142182D01*
X4521993Y3128820D01*
X4514762Y3111362D01*
Y3092465D01*
X4521993Y3075007D01*
X4525583Y3071417D01*
X4518493Y3064327D01*
X4511261Y3046869D01*
Y3027973D01*
X4518493Y3010514D01*
X4531855Y2997153D01*
X4549313Y2989921D01*
X4568210D01*
X4585668Y2997153D01*
X4599030Y3010514D01*
X4606261Y3027973D01*
Y3046869D01*
X4599030Y3064327D01*
X4595440Y3067917D01*
X4602530Y3075007D01*
X4609761Y3092465D01*
Y3111362D01*
X4602530Y3128820D01*
X4589168Y3142182D01*
X4571710Y3149413D01*
D02*
G37*
G36*
X8126997Y3054171D02*
X8108101D01*
X8090642Y3046940D01*
X8077281Y3033578D01*
X8070049Y3016120D01*
Y2997223D01*
X8077281Y2979765D01*
X8090642Y2966403D01*
X8108101Y2959172D01*
X8119872D01*
X8128462Y2956245D01*
X8133730Y2945724D01*
Y2935554D01*
X8140961Y2918096D01*
X8154323Y2904734D01*
X8171781Y2897503D01*
X8190678D01*
X8208136Y2904734D01*
X8221498Y2918096D01*
X8228730Y2935554D01*
Y2954451D01*
X8221498Y2971909D01*
X8208136Y2985271D01*
X8190678Y2992502D01*
X8178907D01*
X8170316Y2995429D01*
X8165049Y3005950D01*
Y3016120D01*
X8157817Y3033578D01*
X8144455Y3046940D01*
X8126997Y3054171D01*
D02*
G37*
G36*
X2553016Y2967450D02*
X2534120D01*
X2516662Y2960218D01*
X2503300Y2946856D01*
X2496068Y2929398D01*
Y2910502D01*
X2503300Y2893043D01*
X2516662Y2879682D01*
X2534120Y2872450D01*
X2553016D01*
X2570475Y2879682D01*
X2583837Y2893043D01*
X2591068Y2910502D01*
Y2929398D01*
X2583837Y2946856D01*
X2570475Y2960218D01*
X2553016Y2967450D01*
D02*
G37*
G36*
X6071934Y2990000D02*
X6048065D01*
X6026012Y2980866D01*
X6009134Y2963987D01*
X6000000Y2941935D01*
Y2918065D01*
X6009134Y2896013D01*
X6026012Y2879134D01*
X6048065Y2870000D01*
X6071934D01*
X6093987Y2879134D01*
X6110865Y2896013D01*
X6119999Y2918065D01*
Y2941935D01*
X6110865Y2963987D01*
X6093987Y2980866D01*
X6071934Y2990000D01*
D02*
G37*
G36*
X4723046Y3020546D02*
X4704150D01*
X4686691Y3013315D01*
X4673329Y2999953D01*
X4666098Y2982494D01*
Y2963598D01*
X4673329Y2946140D01*
X4677279Y2942190D01*
X4669268Y2934179D01*
X4662036Y2916721D01*
Y2897825D01*
X4669268Y2880366D01*
X4682629Y2867004D01*
X4700088Y2859773D01*
X4718984D01*
X4736442Y2867004D01*
X4749804Y2880366D01*
X4757036Y2897825D01*
Y2916721D01*
X4749804Y2934179D01*
X4745855Y2938128D01*
X4753866Y2946140D01*
X4761098Y2963598D01*
Y2982494D01*
X4753866Y2999953D01*
X4740504Y3013315D01*
X4723046Y3020546D01*
D02*
G37*
G36*
X5801756Y2973967D02*
X5777887D01*
X5755835Y2964833D01*
X5738956Y2947955D01*
X5729822Y2925902D01*
Y2902033D01*
X5738956Y2879980D01*
X5755835Y2863102D01*
X5777887Y2853968D01*
X5801756D01*
X5823809Y2863102D01*
X5840687Y2879980D01*
X5849822Y2902033D01*
Y2925902D01*
X5840687Y2947955D01*
X5823809Y2964833D01*
X5801756Y2973967D01*
D02*
G37*
G36*
X6949448Y2995000D02*
X6930552D01*
X6913094Y2987768D01*
X6899732Y2974407D01*
X6892500Y2956948D01*
Y2938052D01*
X6899732Y2920594D01*
X6913094Y2907232D01*
X6930552Y2900000D01*
X6946088D01*
X6954038Y2891866D01*
X6956873Y2886840D01*
X6953424Y2878512D01*
Y2859616D01*
X6960655Y2842158D01*
X6974017Y2828796D01*
X6991475Y2821564D01*
X7010372D01*
X7027830Y2828796D01*
X7041192Y2842158D01*
X7048424Y2859616D01*
Y2878512D01*
X7041192Y2895971D01*
X7027830Y2909333D01*
X7010372Y2916564D01*
X6994835D01*
X6986886Y2924698D01*
X6984051Y2929724D01*
X6987500Y2938052D01*
Y2956948D01*
X6980268Y2974407D01*
X6966907Y2987768D01*
X6949448Y2995000D01*
D02*
G37*
G36*
X6759449Y2897500D02*
X6740552D01*
X6723094Y2890269D01*
X6709732Y2876907D01*
X6702500Y2859448D01*
Y2840552D01*
X6709732Y2823094D01*
X6723094Y2809732D01*
X6740552Y2802500D01*
X6759449D01*
X6776907Y2809732D01*
X6790269Y2823094D01*
X6797500Y2840552D01*
Y2859448D01*
X6790269Y2876907D01*
X6776907Y2890269D01*
X6759449Y2897500D01*
D02*
G37*
G36*
X8191591Y2862323D02*
X8172695D01*
X8155237Y2855092D01*
X8141875Y2841730D01*
X8134643Y2824272D01*
Y2805375D01*
X8141875Y2787917D01*
X8155237Y2774555D01*
X8172695Y2767324D01*
X8191591D01*
X8209050Y2774555D01*
X8222412Y2787917D01*
X8229643Y2805375D01*
Y2824272D01*
X8222412Y2841730D01*
X8209050Y2855092D01*
X8191591Y2862323D01*
D02*
G37*
G36*
X5536920Y2857500D02*
X5518024D01*
X5500565Y2850268D01*
X5487203Y2836906D01*
X5479972Y2819448D01*
Y2800552D01*
X5487203Y2783093D01*
X5500565Y2769732D01*
X5518024Y2762500D01*
X5536920D01*
X5554378Y2769732D01*
X5567740Y2783093D01*
X5574972Y2800552D01*
Y2819448D01*
X5567740Y2836906D01*
X5554378Y2850268D01*
X5536920Y2857500D01*
D02*
G37*
G36*
X7281948Y2722247D02*
X7263052D01*
X7245594Y2715015D01*
X7232232Y2701653D01*
X7225000Y2684195D01*
Y2665298D01*
X7232232Y2647840D01*
X7245594Y2634478D01*
X7263052Y2627247D01*
X7281948D01*
X7299407Y2634478D01*
X7312768Y2647840D01*
X7320000Y2665298D01*
Y2684195D01*
X7312768Y2701653D01*
X7299407Y2715015D01*
X7281948Y2722247D01*
D02*
G37*
G36*
X4519448Y2717500D02*
X4500552D01*
X4483094Y2710268D01*
X4469732Y2696906D01*
X4462500Y2679448D01*
Y2660552D01*
X4469732Y2643094D01*
X4483094Y2629732D01*
X4500552Y2622500D01*
X4519448D01*
X4536907Y2629732D01*
X4550269Y2643094D01*
X4557500Y2660552D01*
Y2679448D01*
X4550269Y2696906D01*
X4536907Y2710268D01*
X4519448Y2717500D01*
D02*
G37*
G36*
X7859226Y2679325D02*
X7840329D01*
X7822871Y2672093D01*
X7809509Y2658732D01*
X7802278Y2641273D01*
Y2622377D01*
X7809509Y2604919D01*
X7822871Y2591557D01*
X7840329Y2584325D01*
X7859226D01*
X7876684Y2591557D01*
X7890046Y2604919D01*
X7897277Y2622377D01*
Y2641273D01*
X7890046Y2658732D01*
X7876684Y2672093D01*
X7859226Y2679325D01*
D02*
G37*
G36*
X8140487Y2657695D02*
X8121591D01*
X8104132Y2650464D01*
X8090770Y2637102D01*
X8083539Y2619644D01*
Y2600747D01*
X8090770Y2583289D01*
X8104132Y2569927D01*
X8121591Y2562696D01*
X8140487D01*
X8157945Y2569927D01*
X8167161Y2579143D01*
X8180698Y2579403D01*
X8185168Y2577553D01*
X8196630Y2566091D01*
X8214088Y2558859D01*
X8232985D01*
X8250443Y2566091D01*
X8263805Y2579453D01*
X8271037Y2596911D01*
Y2615807D01*
X8263805Y2633265D01*
X8250443Y2646627D01*
X8232985Y2653859D01*
X8214088D01*
X8196630Y2646627D01*
X8187415Y2637412D01*
X8173877Y2637152D01*
X8169408Y2639001D01*
X8157945Y2650464D01*
X8140487Y2657695D01*
D02*
G37*
G36*
X6680120Y2761561D02*
X6661224D01*
X6643765Y2754330D01*
X6630404Y2740968D01*
X6623172Y2723510D01*
Y2704613D01*
X6630404Y2687155D01*
X6640192Y2677367D01*
X6629732Y2666907D01*
X6622500Y2649448D01*
Y2630552D01*
X6629732Y2613094D01*
X6638825Y2604001D01*
X6634971Y2594697D01*
Y2575801D01*
X6642202Y2558343D01*
X6655564Y2544981D01*
X6673022Y2537749D01*
X6691919D01*
X6709377Y2544981D01*
X6722739Y2558343D01*
X6729971Y2575801D01*
Y2594697D01*
X6722739Y2612156D01*
X6713646Y2621249D01*
X6717500Y2630552D01*
Y2649448D01*
X6710269Y2666907D01*
X6700480Y2676695D01*
X6710940Y2687155D01*
X6718172Y2704613D01*
Y2723510D01*
X6710940Y2740968D01*
X6697578Y2754330D01*
X6680120Y2761561D01*
D02*
G37*
G36*
X6806948Y2613985D02*
X6788052D01*
X6770594Y2606753D01*
X6757232Y2593391D01*
X6750000Y2575933D01*
Y2557037D01*
X6757232Y2539578D01*
X6770594Y2526216D01*
X6788052Y2518985D01*
X6806948D01*
X6824406Y2526216D01*
X6837768Y2539578D01*
X6845000Y2557037D01*
Y2575933D01*
X6837768Y2593391D01*
X6824406Y2606753D01*
X6806948Y2613985D01*
D02*
G37*
G36*
X6991108Y2612287D02*
X6972211D01*
X6954753Y2605056D01*
X6941391Y2591694D01*
X6934160Y2574236D01*
Y2555339D01*
X6941391Y2537881D01*
X6954753Y2524519D01*
X6972211Y2517288D01*
X6991108D01*
X7008566Y2524519D01*
X7021928Y2537881D01*
X7029159Y2555339D01*
Y2574236D01*
X7021928Y2591694D01*
X7008566Y2605056D01*
X6991108Y2612287D01*
D02*
G37*
G36*
X6499448Y2597500D02*
X6480552D01*
X6463093Y2590268D01*
X6449732Y2576906D01*
X6442500Y2559448D01*
Y2540552D01*
X6449732Y2523094D01*
X6463093Y2509732D01*
X6480552Y2502500D01*
X6499448D01*
X6516906Y2509732D01*
X6530268Y2523094D01*
X6537500Y2540552D01*
Y2559448D01*
X6530268Y2576906D01*
X6516906Y2590268D01*
X6499448Y2597500D01*
D02*
G37*
G36*
X3401948D02*
X3383052D01*
X3365593Y2590268D01*
X3352232Y2576906D01*
X3345000Y2559448D01*
Y2540552D01*
X3352232Y2523094D01*
X3365593Y2509732D01*
X3383052Y2502500D01*
X3401948D01*
X3419406Y2509732D01*
X3432768Y2523094D01*
X3440000Y2540552D01*
Y2559448D01*
X3432768Y2576906D01*
X3419406Y2590268D01*
X3401948Y2597500D01*
D02*
G37*
G36*
X7281948Y2572955D02*
X7263052D01*
X7245594Y2565724D01*
X7232232Y2552362D01*
X7225000Y2534904D01*
Y2516007D01*
X7232232Y2498549D01*
X7245594Y2485187D01*
X7263052Y2477956D01*
X7281948D01*
X7299407Y2485187D01*
X7312768Y2498549D01*
X7320000Y2516007D01*
Y2534904D01*
X7312768Y2552362D01*
X7299407Y2565724D01*
X7281948Y2572955D01*
D02*
G37*
G36*
X2393782Y2562839D02*
X2369913D01*
X2347860Y2553705D01*
X2330982Y2536826D01*
X2321848Y2514774D01*
Y2490904D01*
X2330982Y2468852D01*
X2347860Y2451974D01*
X2369913Y2442839D01*
X2393782D01*
X2415835Y2451974D01*
X2432713Y2468852D01*
X2441848Y2490904D01*
Y2514774D01*
X2432713Y2536826D01*
X2415835Y2553705D01*
X2393782Y2562839D01*
D02*
G37*
G36*
X7456427Y2723422D02*
X7437530D01*
X7420072Y2716190D01*
X7406710Y2702828D01*
X7399479Y2685370D01*
Y2666474D01*
X7405791Y2651235D01*
X7403211Y2648655D01*
X7395979Y2631197D01*
Y2612300D01*
X7403211Y2594842D01*
X7416572Y2581480D01*
X7415520Y2565680D01*
X7413139Y2564694D01*
X7399777Y2551332D01*
X7392546Y2533874D01*
Y2514977D01*
X7399777Y2497519D01*
X7406740Y2490556D01*
X7404013Y2483972D01*
Y2465075D01*
X7411244Y2447617D01*
X7424606Y2434255D01*
X7442064Y2427024D01*
X7460961D01*
X7478419Y2434255D01*
X7491781Y2447617D01*
X7499012Y2465075D01*
Y2483972D01*
X7491781Y2501430D01*
X7484818Y2508393D01*
X7487545Y2514977D01*
Y2533874D01*
X7480314Y2551332D01*
X7466952Y2564694D01*
X7468004Y2580494D01*
X7470386Y2581480D01*
X7483748Y2594842D01*
X7490979Y2612300D01*
Y2631197D01*
X7484667Y2646435D01*
X7487247Y2649016D01*
X7494479Y2666474D01*
Y2685370D01*
X7487247Y2702828D01*
X7473885Y2716190D01*
X7456427Y2723422D01*
D02*
G37*
G36*
X5255574Y2512541D02*
X5236677D01*
X5219219Y2505309D01*
X5205857Y2491948D01*
X5198626Y2474489D01*
Y2455593D01*
X5205857Y2438135D01*
X5219219Y2424773D01*
X5236677Y2417541D01*
X5255574D01*
X5273032Y2424773D01*
X5286394Y2438135D01*
X5293625Y2455593D01*
Y2474489D01*
X5286394Y2491948D01*
X5273032Y2505309D01*
X5255574Y2512541D01*
D02*
G37*
G36*
X7659448Y2492500D02*
X7640552D01*
X7623093Y2485268D01*
X7609732Y2471906D01*
X7602500Y2454448D01*
Y2435552D01*
X7609732Y2418093D01*
X7623093Y2404732D01*
X7640552Y2397500D01*
X7659448D01*
X7676906Y2404732D01*
X7690268Y2418093D01*
X7697500Y2435552D01*
Y2454448D01*
X7690268Y2471906D01*
X7676906Y2485268D01*
X7659448Y2492500D01*
D02*
G37*
G36*
X8154250Y2388945D02*
X8123000D01*
Y2285000D01*
X8229444D01*
Y2313750D01*
X8223720Y2342526D01*
X8207420Y2366921D01*
X8183025Y2383221D01*
X8154250Y2388945D01*
D02*
G37*
G36*
X8079448Y2497499D02*
X8060552D01*
X8043094Y2490268D01*
X8029732Y2476906D01*
X8022500Y2459448D01*
Y2440551D01*
X8029732Y2423093D01*
X8043094Y2409731D01*
X8060552Y2402500D01*
X8063009D01*
X8064487Y2387500D01*
X8042974Y2383221D01*
X8018579Y2366921D01*
X8002279Y2342526D01*
X7996555Y2313750D01*
Y2285000D01*
X8103000D01*
Y2388945D01*
X8085920D01*
X8082937Y2403945D01*
X8096907Y2409731D01*
X8110269Y2423093D01*
X8117500Y2440551D01*
Y2459448D01*
X8110269Y2476906D01*
X8096907Y2490268D01*
X8079448Y2497499D01*
D02*
G37*
G36*
X6160669Y2324414D02*
X6141773D01*
X6124314Y2317182D01*
X6110952Y2303820D01*
X6103721Y2286362D01*
Y2267466D01*
X6110952Y2250007D01*
X6124314Y2236646D01*
X6141773Y2229414D01*
X6160669D01*
X6178127Y2236646D01*
X6191489Y2250007D01*
X6198721Y2267466D01*
Y2286362D01*
X6191489Y2303820D01*
X6178127Y2317182D01*
X6160669Y2324414D01*
D02*
G37*
G36*
X3959448Y2297500D02*
X3940552D01*
X3923093Y2290268D01*
X3909732Y2276907D01*
X3902500Y2259448D01*
Y2240552D01*
X3909732Y2223094D01*
X3923093Y2209732D01*
X3940552Y2202500D01*
X3959448D01*
X3976906Y2209732D01*
X3990268Y2223094D01*
X3997500Y2240552D01*
Y2259448D01*
X3990268Y2276907D01*
X3976906Y2290268D01*
X3959448Y2297500D01*
D02*
G37*
G36*
X5834709Y2283333D02*
X5815812D01*
X5798354Y2276102D01*
X5784992Y2262740D01*
X5777761Y2245282D01*
Y2226385D01*
X5784992Y2208927D01*
X5798354Y2195565D01*
X5815812Y2188333D01*
X5834709D01*
X5852167Y2195565D01*
X5865529Y2208927D01*
X5872760Y2226385D01*
Y2245282D01*
X5865529Y2262740D01*
X5852167Y2276102D01*
X5834709Y2283333D01*
D02*
G37*
G36*
X4339448Y2267500D02*
X4320552D01*
X4303094Y2260268D01*
X4289732Y2246906D01*
X4282500Y2229448D01*
Y2210552D01*
X4289732Y2193093D01*
X4303094Y2179731D01*
X4320552Y2172500D01*
X4339448D01*
X4356906Y2179731D01*
X4370268Y2193093D01*
X4377500Y2210552D01*
Y2229448D01*
X4370268Y2246906D01*
X4356906Y2260268D01*
X4339448Y2267500D01*
D02*
G37*
G36*
X6979449Y2260713D02*
X6960552D01*
X6943094Y2253481D01*
X6929732Y2240119D01*
X6922501Y2222661D01*
Y2203764D01*
X6929732Y2186306D01*
X6943094Y2172944D01*
X6960552Y2165713D01*
X6979449D01*
X6996907Y2172944D01*
X7010269Y2186306D01*
X7017500Y2203764D01*
Y2222661D01*
X7010269Y2240119D01*
X6996907Y2253481D01*
X6979449Y2260713D01*
D02*
G37*
G36*
X5410531Y2257989D02*
X5391634D01*
X5374176Y2250757D01*
X5360814Y2237396D01*
X5353583Y2219937D01*
Y2201041D01*
X5360814Y2183583D01*
X5374176Y2170221D01*
X5391634Y2162989D01*
X5410531D01*
X5427989Y2170221D01*
X5441351Y2183583D01*
X5448582Y2201041D01*
Y2219937D01*
X5441351Y2237396D01*
X5427989Y2250757D01*
X5410531Y2257989D01*
D02*
G37*
G36*
X6012194Y2257500D02*
X5993297D01*
X5975839Y2250269D01*
X5962477Y2236907D01*
X5955246Y2219449D01*
Y2200552D01*
X5962477Y2183094D01*
X5975839Y2169732D01*
X5993297Y2162501D01*
X6012194D01*
X6029652Y2169732D01*
X6043014Y2183094D01*
X6050245Y2200552D01*
Y2219449D01*
X6043014Y2236907D01*
X6029652Y2250269D01*
X6012194Y2257500D01*
D02*
G37*
G36*
X8229444Y2265000D02*
X8123000D01*
Y2161055D01*
X8154250D01*
X8183025Y2166779D01*
X8207420Y2183079D01*
X8223720Y2207474D01*
X8229444Y2236250D01*
Y2265000D01*
D02*
G37*
G36*
X8103000D02*
X7996555D01*
Y2236250D01*
X8002279Y2207474D01*
X8018579Y2183079D01*
X8042974Y2166779D01*
X8071750Y2161055D01*
X8103000D01*
Y2265000D01*
D02*
G37*
G36*
X7281948Y2251891D02*
X7263052D01*
X7245594Y2244659D01*
X7232232Y2231298D01*
X7225000Y2213839D01*
Y2194943D01*
X7232232Y2177485D01*
X7245594Y2164123D01*
X7263052Y2156891D01*
X7281948D01*
X7299407Y2164123D01*
X7312768Y2177485D01*
X7320000Y2194943D01*
Y2213839D01*
X7312768Y2231298D01*
X7299407Y2244659D01*
X7281948Y2251891D01*
D02*
G37*
G36*
X3463308Y2216870D02*
X3444411D01*
X3426953Y2209639D01*
X3413591Y2196277D01*
X3406360Y2178819D01*
Y2159922D01*
X3413591Y2142464D01*
X3426953Y2129102D01*
X3444411Y2121871D01*
X3463308D01*
X3480766Y2129102D01*
X3494128Y2142464D01*
X3501359Y2159922D01*
Y2178819D01*
X3494128Y2196277D01*
X3480766Y2209639D01*
X3463308Y2216870D01*
D02*
G37*
G36*
X7149448Y2177500D02*
X7130552D01*
X7113094Y2170268D01*
X7099732Y2156907D01*
X7092500Y2139448D01*
Y2120552D01*
X7099732Y2103094D01*
X7113094Y2089732D01*
X7130552Y2082500D01*
X7149448D01*
X7166907Y2089732D01*
X7180269Y2103094D01*
X7187500Y2120552D01*
Y2139448D01*
X7180269Y2156907D01*
X7166907Y2170268D01*
X7149448Y2177500D01*
D02*
G37*
G36*
X6155791Y2172415D02*
X6136894D01*
X6119436Y2165184D01*
X6106074Y2151822D01*
X6098843Y2134364D01*
Y2115467D01*
X6106074Y2098009D01*
X6119436Y2084647D01*
X6136894Y2077416D01*
X6155791D01*
X6173249Y2084647D01*
X6186611Y2098009D01*
X6193842Y2115467D01*
Y2134364D01*
X6186611Y2151822D01*
X6173249Y2165184D01*
X6155791Y2172415D01*
D02*
G37*
G36*
X5607381Y2239287D02*
X5588484D01*
X5571026Y2232056D01*
X5557664Y2218694D01*
X5550433Y2201236D01*
Y2182339D01*
X5557664Y2164881D01*
X5568376Y2154169D01*
X5567920Y2151874D01*
X5554558Y2138512D01*
X5547327Y2121054D01*
Y2102157D01*
X5554558Y2084699D01*
X5567920Y2071337D01*
X5585378Y2064106D01*
X5604275D01*
X5621733Y2071337D01*
X5635095Y2084699D01*
X5642326Y2102157D01*
Y2121054D01*
X5635095Y2138512D01*
X5624383Y2149224D01*
X5624839Y2151519D01*
X5638201Y2164881D01*
X5645432Y2182339D01*
Y2201236D01*
X5638201Y2218694D01*
X5624839Y2232056D01*
X5607381Y2239287D01*
D02*
G37*
G36*
X7281948Y2102265D02*
X7263052D01*
X7245594Y2095034D01*
X7232232Y2081672D01*
X7225000Y2064214D01*
Y2045317D01*
X7232232Y2027859D01*
X7245594Y2014497D01*
X7263052Y2007265D01*
X7281948D01*
X7299407Y2014497D01*
X7312768Y2027859D01*
X7320000Y2045317D01*
Y2064214D01*
X7312768Y2081672D01*
X7299407Y2095034D01*
X7281948Y2102265D01*
D02*
G37*
G36*
X2619727Y2085434D02*
X2600830D01*
X2583372Y2078203D01*
X2570010Y2064841D01*
X2562779Y2047382D01*
Y2028486D01*
X2570010Y2011028D01*
X2583372Y1997666D01*
X2600830Y1990434D01*
X2619727D01*
X2637185Y1997666D01*
X2650547Y2011028D01*
X2657778Y2028486D01*
Y2047382D01*
X2650547Y2064841D01*
X2637185Y2078203D01*
X2619727Y2085434D01*
D02*
G37*
G36*
X6759448Y2247500D02*
X6740552D01*
X6723093Y2240268D01*
X6709732Y2226906D01*
X6702500Y2209448D01*
Y2190552D01*
X6709732Y2173093D01*
X6717450Y2165375D01*
X6722825Y2159065D01*
X6717489Y2145817D01*
X6713102Y2141430D01*
X6705871Y2123971D01*
Y2105075D01*
X6713102Y2087617D01*
X6718671Y2082048D01*
X6719836Y2062000D01*
X6719126Y2061290D01*
X6711894Y2043832D01*
Y2024935D01*
X6719126Y2007477D01*
X6732488Y1994115D01*
X6749946Y1986884D01*
X6768842D01*
X6786301Y1994115D01*
X6799663Y2007477D01*
X6806894Y2024935D01*
Y2043832D01*
X6799663Y2061290D01*
X6794094Y2066858D01*
X6792929Y2086907D01*
X6793639Y2087617D01*
X6800871Y2105075D01*
Y2123971D01*
X6793639Y2141430D01*
X6785921Y2149148D01*
X6780546Y2155458D01*
X6785881Y2168706D01*
X6790268Y2173093D01*
X6797500Y2190552D01*
Y2209448D01*
X6790268Y2226906D01*
X6776906Y2240268D01*
X6759448Y2247500D01*
D02*
G37*
G36*
X7450194Y2250000D02*
X7431298D01*
X7413840Y2242768D01*
X7400478Y2229407D01*
X7393246Y2211948D01*
Y2193052D01*
X7400478Y2175594D01*
X7413840Y2162232D01*
X7415589Y2161507D01*
Y2145717D01*
X7422820Y2128258D01*
X7433940Y2117139D01*
X7434080Y2116249D01*
X7432915Y2106278D01*
X7430862Y2100864D01*
X7418709Y2095830D01*
X7405347Y2082468D01*
X7398116Y2065010D01*
Y2046113D01*
X7402620Y2035239D01*
X7399498Y2032117D01*
X7392267Y2014659D01*
Y1995763D01*
X7399498Y1978304D01*
X7412860Y1964942D01*
X7430318Y1957711D01*
X7449215D01*
X7466673Y1964942D01*
X7480035Y1978304D01*
X7487266Y1995763D01*
Y2014659D01*
X7482762Y2025534D01*
X7485884Y2028655D01*
X7493115Y2046113D01*
Y2065010D01*
X7485884Y2082468D01*
X7474764Y2093588D01*
X7474623Y2094478D01*
X7475789Y2104448D01*
X7477842Y2109862D01*
X7489995Y2114896D01*
X7503357Y2128258D01*
X7510588Y2145717D01*
Y2164613D01*
X7503357Y2182071D01*
X7489995Y2195433D01*
X7488246Y2196158D01*
Y2211948D01*
X7481015Y2229407D01*
X7467653Y2242768D01*
X7450194Y2250000D01*
D02*
G37*
G36*
X5629448Y2047500D02*
X5610552D01*
X5593093Y2040268D01*
X5579732Y2026907D01*
X5572500Y2009448D01*
Y1990552D01*
X5579732Y1973094D01*
X5593093Y1959732D01*
X5610552Y1952500D01*
X5629448D01*
X5646906Y1959732D01*
X5660268Y1973094D01*
X5667500Y1990552D01*
Y2009448D01*
X5660268Y2026907D01*
X5646906Y2040268D01*
X5629448Y2047500D01*
D02*
G37*
G36*
X6352125Y2315866D02*
X6333228D01*
X6315770Y2308634D01*
X6302408Y2295273D01*
X6295177Y2277814D01*
Y2258918D01*
X6297100Y2254275D01*
X6289732Y2246906D01*
X6282500Y2229448D01*
Y2210552D01*
X6289732Y2193093D01*
X6303094Y2179731D01*
X6308965Y2177299D01*
X6311612Y2159967D01*
X6304104Y2152459D01*
X6296873Y2135001D01*
Y2116104D01*
X6303442Y2100243D01*
X6295101Y2091902D01*
X6287869Y2074444D01*
Y2055547D01*
X6295101Y2038089D01*
X6308463Y2024727D01*
X6325921Y2017496D01*
X6333222D01*
X6344373Y2005220D01*
Y1986323D01*
X6351604Y1968865D01*
X6364966Y1955503D01*
X6382424Y1948272D01*
X6401321D01*
X6418779Y1955503D01*
X6432141Y1968865D01*
X6439372Y1986323D01*
Y2005220D01*
X6432141Y2022678D01*
X6418779Y2036040D01*
X6401321Y2043271D01*
X6394020D01*
X6382869Y2055548D01*
Y2074444D01*
X6376299Y2090304D01*
X6384641Y2098646D01*
X6391872Y2116104D01*
Y2135001D01*
X6384641Y2152459D01*
X6371279Y2165821D01*
X6365408Y2168253D01*
X6362760Y2185585D01*
X6370268Y2193093D01*
X6377500Y2210552D01*
Y2229448D01*
X6375577Y2234091D01*
X6382945Y2241460D01*
X6390176Y2258918D01*
Y2277814D01*
X6382945Y2295273D01*
X6369583Y2308634D01*
X6352125Y2315866D01*
D02*
G37*
G36*
X6975220Y2026253D02*
X6956324D01*
X6938866Y2019022D01*
X6925504Y2005660D01*
X6918272Y1988202D01*
Y1969305D01*
X6925504Y1951847D01*
X6938866Y1938485D01*
X6956324Y1931253D01*
X6975220D01*
X6992679Y1938485D01*
X7006041Y1951847D01*
X7013272Y1969305D01*
Y1988202D01*
X7006041Y2005660D01*
X6992679Y2019022D01*
X6975220Y2026253D01*
D02*
G37*
G36*
X7889448Y1967500D02*
X7870552D01*
X7853094Y1960268D01*
X7839732Y1946906D01*
X7832500Y1929448D01*
Y1910552D01*
X7836941Y1899830D01*
X7825461Y1888350D01*
X7813746Y1893202D01*
X7794850D01*
X7777391Y1885971D01*
X7764029Y1872609D01*
X7756798Y1855150D01*
Y1836254D01*
X7764029Y1818796D01*
X7777391Y1805434D01*
X7794850Y1798202D01*
X7813746D01*
X7831204Y1805434D01*
X7844566Y1818796D01*
X7851798Y1836254D01*
Y1855150D01*
X7847357Y1865872D01*
X7858837Y1877352D01*
X7870552Y1872500D01*
X7889448D01*
X7906906Y1879732D01*
X7920268Y1893093D01*
X7927500Y1910552D01*
Y1929448D01*
X7920268Y1946906D01*
X7906906Y1960268D01*
X7889448Y1967500D01*
D02*
G37*
G36*
X8283525Y2007849D02*
X8264629D01*
X8247170Y2000618D01*
X8233809Y1987256D01*
X8226577Y1969798D01*
Y1951923D01*
X8224084Y1950891D01*
X8210722Y1937529D01*
X8203491Y1920071D01*
Y1901174D01*
X8210722Y1883716D01*
X8224084Y1870354D01*
X8241543Y1863123D01*
X8260439D01*
X8277897Y1870354D01*
X8278406Y1870863D01*
X8293406Y1864649D01*
Y1860075D01*
X8300637Y1842617D01*
X8313999Y1829255D01*
X8331458Y1822023D01*
X8350354D01*
X8367812Y1829255D01*
X8381174Y1842617D01*
X8388406Y1860075D01*
Y1878971D01*
X8381174Y1896430D01*
X8375274Y1902330D01*
X8384212Y1911268D01*
X8391443Y1928726D01*
Y1947623D01*
X8384212Y1965081D01*
X8370850Y1978443D01*
X8353392Y1985674D01*
X8334495D01*
X8317855Y1978782D01*
X8314345Y1987256D01*
X8300983Y2000618D01*
X8283525Y2007849D01*
D02*
G37*
G36*
X5840744Y1914704D02*
X5821848D01*
X5804389Y1907472D01*
X5791028Y1894110D01*
X5783796Y1876652D01*
Y1857755D01*
X5791028Y1840297D01*
X5804389Y1826935D01*
X5821848Y1819704D01*
X5840744D01*
X5858202Y1826935D01*
X5871564Y1840297D01*
X5878796Y1857755D01*
Y1876652D01*
X5871564Y1894110D01*
X5858202Y1907472D01*
X5840744Y1914704D01*
D02*
G37*
G36*
X6157174Y1913323D02*
X6138278D01*
X6120819Y1906091D01*
X6107457Y1892730D01*
X6100226Y1875271D01*
Y1856375D01*
X6107457Y1838917D01*
X6120819Y1825555D01*
X6138278Y1818323D01*
X6157174D01*
X6174632Y1825555D01*
X6187994Y1838917D01*
X6195226Y1856375D01*
Y1875271D01*
X6187994Y1892730D01*
X6174632Y1906091D01*
X6157174Y1913323D01*
D02*
G37*
G36*
X1969448Y1864891D02*
X1950551D01*
X1933093Y1857660D01*
X1919731Y1844298D01*
X1912500Y1826840D01*
Y1807943D01*
X1919731Y1790485D01*
X1933093Y1777123D01*
X1950551Y1769892D01*
X1969448D01*
X1986906Y1777123D01*
X2000268Y1790485D01*
X2007499Y1807943D01*
Y1826840D01*
X2000268Y1844298D01*
X1986906Y1857660D01*
X1969448Y1864891D01*
D02*
G37*
G36*
X6012194Y1838409D02*
X5993297D01*
X5975839Y1831177D01*
X5962477Y1817816D01*
X5955246Y1800357D01*
Y1781461D01*
X5962477Y1764003D01*
X5975839Y1750641D01*
X5993297Y1743409D01*
X6012194D01*
X6029652Y1750641D01*
X6043014Y1764003D01*
X6050245Y1781461D01*
Y1800357D01*
X6043014Y1817816D01*
X6029652Y1831177D01*
X6012194Y1838409D01*
D02*
G37*
G36*
X5410936Y1818350D02*
X5392040D01*
X5374581Y1811119D01*
X5361219Y1797757D01*
X5353988Y1780298D01*
Y1761402D01*
X5361219Y1743944D01*
X5374581Y1730582D01*
X5392040Y1723350D01*
X5410936D01*
X5428394Y1730582D01*
X5441756Y1743944D01*
X5448988Y1761402D01*
Y1780298D01*
X5441756Y1797757D01*
X5428394Y1811119D01*
X5410936Y1818350D01*
D02*
G37*
G36*
X6347490Y1914557D02*
X6328594D01*
X6311136Y1907326D01*
X6297774Y1893964D01*
X6290542Y1876506D01*
Y1857609D01*
X6295275Y1846183D01*
X6290950Y1841858D01*
X6283719Y1824400D01*
Y1805504D01*
X6290950Y1788045D01*
X6304312Y1774684D01*
X6310389Y1772166D01*
Y1755930D01*
X6309072Y1755385D01*
X6295710Y1742023D01*
X6288479Y1724564D01*
Y1705668D01*
X6295710Y1688210D01*
X6309072Y1674848D01*
X6326530Y1667616D01*
X6345427D01*
X6362885Y1674848D01*
X6376247Y1688210D01*
X6383478Y1705668D01*
Y1724564D01*
X6376247Y1742023D01*
X6362885Y1755385D01*
X6356808Y1757902D01*
Y1774138D01*
X6358125Y1774684D01*
X6371487Y1788045D01*
X6378719Y1805504D01*
Y1824400D01*
X6373986Y1835826D01*
X6378311Y1840151D01*
X6385542Y1857609D01*
Y1876506D01*
X6378311Y1893964D01*
X6364949Y1907326D01*
X6347490Y1914557D01*
D02*
G37*
G36*
X6160259Y1761506D02*
X6141363D01*
X6123905Y1754275D01*
X6110543Y1740913D01*
X6103311Y1723455D01*
Y1704558D01*
X6110543Y1687100D01*
X6123905Y1673738D01*
X6141363Y1666506D01*
X6160259D01*
X6177718Y1673738D01*
X6191080Y1687100D01*
X6198311Y1704558D01*
Y1723455D01*
X6191080Y1740913D01*
X6177718Y1754275D01*
X6160259Y1761506D01*
D02*
G37*
G36*
X5609170Y1815595D02*
X5590274D01*
X5572816Y1808364D01*
X5559454Y1795002D01*
X5552222Y1777544D01*
Y1758647D01*
X5559454Y1741189D01*
X5561286Y1739356D01*
X5551821Y1729891D01*
X5544590Y1712433D01*
Y1693536D01*
X5551821Y1676078D01*
X5565183Y1662716D01*
X5582641Y1655485D01*
X5601538D01*
X5618996Y1662716D01*
X5632358Y1676078D01*
X5639589Y1693536D01*
Y1712433D01*
X5632358Y1729891D01*
X5630525Y1731724D01*
X5639990Y1741189D01*
X5647222Y1758647D01*
Y1777544D01*
X5639990Y1795002D01*
X5626629Y1808364D01*
X5609170Y1815595D01*
D02*
G37*
G36*
X5169448Y1747500D02*
X5150552D01*
X5133094Y1740268D01*
X5119732Y1726906D01*
X5112500Y1709448D01*
Y1690552D01*
X5119732Y1673093D01*
X5133094Y1659732D01*
X5150552Y1652500D01*
X5169448D01*
X5186907Y1659732D01*
X5200268Y1673093D01*
X5207500Y1690552D01*
Y1709448D01*
X5200268Y1726906D01*
X5186907Y1740268D01*
X5169448Y1747500D01*
D02*
G37*
G36*
X8197679Y1764781D02*
X8178782D01*
X8161324Y1757550D01*
X8147962Y1744188D01*
X8140731Y1726730D01*
Y1707833D01*
X8147962Y1690375D01*
X8150581Y1687756D01*
X8149731Y1686906D01*
X8142500Y1669448D01*
Y1650552D01*
X8149731Y1633094D01*
X8163093Y1619732D01*
X8180552Y1612500D01*
X8199448D01*
X8216906Y1619732D01*
X8230268Y1633094D01*
X8237500Y1650552D01*
Y1669448D01*
X8230268Y1686906D01*
X8227649Y1689525D01*
X8228499Y1690375D01*
X8235730Y1707833D01*
Y1726730D01*
X8228499Y1744188D01*
X8215137Y1757550D01*
X8197679Y1764781D01*
D02*
G37*
G36*
X8347955Y1769334D02*
X8329058D01*
X8311600Y1762102D01*
X8298238Y1748740D01*
X8291007Y1731282D01*
Y1712385D01*
X8298238Y1694927D01*
X8307557Y1685609D01*
X8295607Y1673660D01*
X8288376Y1656201D01*
Y1637305D01*
X8295607Y1619847D01*
X8308969Y1606485D01*
X8326427Y1599253D01*
X8345324D01*
X8362782Y1606485D01*
X8376144Y1619847D01*
X8383375Y1637305D01*
Y1656201D01*
X8376144Y1673660D01*
X8366826Y1682978D01*
X8378775Y1694927D01*
X8386006Y1712385D01*
Y1731282D01*
X8378775Y1748740D01*
X8365413Y1762102D01*
X8347955Y1769334D01*
D02*
G37*
G36*
X4608943Y1667480D02*
X4590046D01*
X4572588Y1660249D01*
X4559226Y1646887D01*
X4551995Y1629429D01*
Y1610532D01*
X4559226Y1593074D01*
X4572588Y1579712D01*
X4590046Y1572481D01*
X4608943D01*
X4626401Y1579712D01*
X4639763Y1593074D01*
X4646994Y1610532D01*
Y1629429D01*
X4639763Y1646887D01*
X4626401Y1660249D01*
X4608943Y1667480D01*
D02*
G37*
G36*
X6309448Y1657500D02*
X6290552D01*
X6273094Y1650268D01*
X6259732Y1636907D01*
X6252500Y1619448D01*
Y1600552D01*
X6259732Y1583094D01*
X6273094Y1569732D01*
X6290552Y1562500D01*
X6309448D01*
X6326907Y1569732D01*
X6340268Y1583094D01*
X6347500Y1600552D01*
Y1619448D01*
X6340268Y1636907D01*
X6326907Y1650268D01*
X6309448Y1657500D01*
D02*
G37*
G36*
X5477619Y1626301D02*
X5458722D01*
X5441264Y1619070D01*
X5427902Y1605708D01*
X5420671Y1588250D01*
Y1569353D01*
X5427902Y1551895D01*
X5441264Y1538533D01*
X5458722Y1531302D01*
X5477619D01*
X5495077Y1538533D01*
X5508439Y1551895D01*
X5515670Y1569353D01*
Y1588250D01*
X5508439Y1605708D01*
X5495077Y1619070D01*
X5477619Y1626301D01*
D02*
G37*
G36*
X7161806Y1554568D02*
X7142909D01*
X7125451Y1547337D01*
X7112089Y1533975D01*
X7104858Y1516517D01*
Y1497620D01*
X7112089Y1480162D01*
X7125451Y1466800D01*
X7142909Y1459569D01*
X7161806D01*
X7179264Y1466800D01*
X7192626Y1480162D01*
X7199857Y1497620D01*
Y1516517D01*
X7192626Y1533975D01*
X7179264Y1547337D01*
X7161806Y1554568D01*
D02*
G37*
G36*
X4239448Y1587500D02*
X4220552D01*
X4203093Y1580268D01*
X4189732Y1566906D01*
X4182500Y1549448D01*
Y1530552D01*
X4188615Y1515790D01*
X4179732Y1506907D01*
X4172500Y1489448D01*
Y1470552D01*
X4179732Y1453094D01*
X4193093Y1439732D01*
X4210552Y1432500D01*
X4229448D01*
X4246906Y1439732D01*
X4260268Y1453094D01*
X4267500Y1470552D01*
Y1489448D01*
X4261385Y1504210D01*
X4270268Y1513093D01*
X4277500Y1530552D01*
Y1549448D01*
X4270268Y1566906D01*
X4256906Y1580268D01*
X4239448Y1587500D01*
D02*
G37*
G36*
X1881548Y1522274D02*
X1862652D01*
X1845194Y1515043D01*
X1831832Y1501681D01*
X1824600Y1484223D01*
Y1465326D01*
X1831832Y1447868D01*
X1845194Y1434506D01*
X1862652Y1427275D01*
X1881548D01*
X1899007Y1434506D01*
X1912369Y1447868D01*
X1919600Y1465326D01*
Y1484223D01*
X1912369Y1501681D01*
X1899007Y1515043D01*
X1881548Y1522274D01*
D02*
G37*
G36*
X3339448Y1517500D02*
X3320552D01*
X3303093Y1510269D01*
X3289732Y1496907D01*
X3282500Y1479448D01*
Y1460552D01*
X3289732Y1443094D01*
X3303093Y1429732D01*
X3320552Y1422500D01*
X3339448D01*
X3356906Y1429732D01*
X3370268Y1443094D01*
X3377500Y1460552D01*
Y1479448D01*
X3370268Y1496907D01*
X3356906Y1510269D01*
X3339448Y1517500D01*
D02*
G37*
G36*
X4869448Y1507500D02*
X4850552D01*
X4833093Y1500268D01*
X4819732Y1486906D01*
X4812500Y1469448D01*
Y1450552D01*
X4819732Y1433093D01*
X4833093Y1419731D01*
X4850552Y1412500D01*
X4869448D01*
X4886906Y1419731D01*
X4900268Y1433093D01*
X4907500Y1450552D01*
Y1469448D01*
X4900268Y1486906D01*
X4886906Y1500268D01*
X4869448Y1507500D01*
D02*
G37*
G36*
X6098721Y1449802D02*
X6079824D01*
X6062366Y1442571D01*
X6049004Y1429209D01*
X6041773Y1411751D01*
Y1392854D01*
X6049004Y1375396D01*
X6062366Y1362034D01*
X6079824Y1354802D01*
X6098721D01*
X6116179Y1362034D01*
X6129541Y1375396D01*
X6136772Y1392854D01*
Y1411751D01*
X6129541Y1429209D01*
X6116179Y1442571D01*
X6098721Y1449802D01*
D02*
G37*
G36*
X5254478Y1445607D02*
X5235582D01*
X5218123Y1438376D01*
X5204761Y1425014D01*
X5197530Y1407556D01*
Y1388659D01*
X5204761Y1371201D01*
X5218123Y1357839D01*
X5235582Y1350608D01*
X5254478D01*
X5271936Y1357839D01*
X5285298Y1371201D01*
X5292530Y1388659D01*
Y1407556D01*
X5285298Y1425014D01*
X5271936Y1438376D01*
X5254478Y1445607D01*
D02*
G37*
G36*
X4789448Y1427500D02*
X4770552D01*
X4753094Y1420268D01*
X4739732Y1406907D01*
X4732500Y1389448D01*
Y1370552D01*
X4739732Y1353094D01*
X4753094Y1339732D01*
X4770552Y1332500D01*
X4789448D01*
X4806907Y1339732D01*
X4820268Y1353094D01*
X4827500Y1370552D01*
Y1389448D01*
X4820268Y1406907D01*
X4806907Y1420268D01*
X4789448Y1427500D01*
D02*
G37*
G36*
X6379232Y1422967D02*
X6360335D01*
X6342877Y1415735D01*
X6329515Y1402373D01*
X6322284Y1384915D01*
Y1366019D01*
X6329515Y1348560D01*
X6342877Y1335198D01*
X6360335Y1327967D01*
X6379232D01*
X6396690Y1335198D01*
X6410052Y1348560D01*
X6417283Y1366019D01*
Y1384915D01*
X6410052Y1402373D01*
X6396690Y1415735D01*
X6379232Y1422967D01*
D02*
G37*
G36*
X6935336Y1505815D02*
X6916439D01*
X6898981Y1498584D01*
X6885619Y1485222D01*
X6878388Y1467764D01*
Y1448867D01*
X6885619Y1431409D01*
X6887722Y1429306D01*
X6884796Y1414594D01*
X6882555Y1413666D01*
X6869193Y1400304D01*
X6861961Y1382846D01*
Y1363949D01*
X6869193Y1346491D01*
X6882555Y1333129D01*
X6900013Y1325898D01*
X6918909D01*
X6936368Y1333129D01*
X6949730Y1346491D01*
X6956961Y1363949D01*
Y1382846D01*
X6949730Y1400304D01*
X6947626Y1402407D01*
X6950553Y1417119D01*
X6952794Y1418047D01*
X6966156Y1431409D01*
X6973387Y1448867D01*
Y1467764D01*
X6966156Y1485222D01*
X6952794Y1498584D01*
X6935336Y1505815D01*
D02*
G37*
G36*
X6579448Y1427500D02*
X6560552D01*
X6543094Y1420268D01*
X6529732Y1406907D01*
X6522500Y1389448D01*
Y1370552D01*
X6523505Y1368125D01*
X6510512Y1355132D01*
X6503281Y1337673D01*
Y1318777D01*
X6510512Y1301319D01*
X6523874Y1287957D01*
X6541332Y1280725D01*
X6555206D01*
X6560228Y1280725D01*
X6565579Y1266867D01*
X6557051Y1263334D01*
X6543689Y1249972D01*
X6536458Y1232514D01*
Y1213618D01*
X6543689Y1196159D01*
X6557051Y1182797D01*
X6574509Y1175566D01*
X6593406D01*
X6610864Y1182797D01*
X6624226Y1196159D01*
X6631457Y1213618D01*
Y1232514D01*
X6624226Y1249972D01*
X6610864Y1263334D01*
X6593406Y1270566D01*
X6579532D01*
X6574510Y1270566D01*
X6569158Y1284424D01*
X6577687Y1287957D01*
X6589323Y1299593D01*
X6605552Y1292870D01*
X6624448D01*
X6641906Y1300102D01*
X6655268Y1313463D01*
X6662500Y1330922D01*
Y1349818D01*
X6655268Y1367276D01*
X6641906Y1380638D01*
X6624448Y1387870D01*
X6617500D01*
Y1389448D01*
X6610268Y1406907D01*
X6596907Y1420268D01*
X6579448Y1427500D01*
D02*
G37*
G36*
X6269448Y1337500D02*
X6250551D01*
X6233093Y1330269D01*
X6219731Y1316907D01*
X6212500Y1299449D01*
Y1280552D01*
X6219731Y1263094D01*
X6233093Y1249732D01*
X6250551Y1242500D01*
X6269448D01*
X6286906Y1249732D01*
X6300268Y1263094D01*
X6307499Y1280552D01*
Y1299449D01*
X6300268Y1316907D01*
X6286906Y1330269D01*
X6269448Y1337500D01*
D02*
G37*
G36*
X3910796Y1356153D02*
X3891899D01*
X3874441Y1348921D01*
X3861079Y1335559D01*
X3853848Y1318101D01*
Y1299205D01*
X3861079Y1281746D01*
X3874441Y1268385D01*
X3873465Y1252553D01*
X3873440Y1252543D01*
X3860078Y1239181D01*
X3854745Y1226304D01*
X3844718Y1230457D01*
X3825821D01*
X3808363Y1223225D01*
X3795001Y1209863D01*
X3787770Y1192405D01*
Y1173509D01*
X3795001Y1156051D01*
X3808363Y1142689D01*
X3825821Y1135457D01*
X3838416D01*
Y1131007D01*
X3845647Y1113549D01*
X3859009Y1100187D01*
X3876467Y1092956D01*
X3895364D01*
X3912822Y1100187D01*
X3926184Y1113549D01*
X3933416Y1131007D01*
Y1149904D01*
X3930439Y1157089D01*
X3927254Y1172006D01*
X3940615Y1185368D01*
X3947847Y1202826D01*
Y1221722D01*
X3940615Y1239181D01*
X3927254Y1252542D01*
X3928229Y1268374D01*
X3928254Y1268385D01*
X3941616Y1281746D01*
X3948847Y1299205D01*
Y1318101D01*
X3941616Y1335559D01*
X3928254Y1348921D01*
X3910796Y1356153D01*
D02*
G37*
G36*
X8200408Y1520340D02*
X8181512D01*
X8164054Y1513109D01*
X8150692Y1499747D01*
X8143460Y1482289D01*
Y1463392D01*
X8150126Y1447301D01*
X8149731Y1446906D01*
X8142500Y1429448D01*
Y1410552D01*
X8149731Y1393093D01*
X8163093Y1379732D01*
X8177018Y1373964D01*
X8178106Y1359280D01*
X8177974Y1358568D01*
X8164229Y1352874D01*
X8150867Y1339512D01*
X8143635Y1322054D01*
Y1303158D01*
X8148392Y1291675D01*
X8144804Y1288087D01*
X8137572Y1270629D01*
Y1251732D01*
X8144804Y1234274D01*
X8158166Y1220912D01*
X8175624Y1213681D01*
X8194521D01*
X8211979Y1220912D01*
X8225341Y1234274D01*
X8232572Y1251732D01*
Y1270629D01*
X8227816Y1282111D01*
X8231404Y1285699D01*
X8238635Y1303158D01*
Y1322054D01*
X8231404Y1339512D01*
X8218042Y1352874D01*
X8204117Y1358642D01*
X8203029Y1373326D01*
X8203161Y1374038D01*
X8216906Y1379732D01*
X8230268Y1393093D01*
X8237500Y1410552D01*
Y1429448D01*
X8230834Y1445540D01*
X8231228Y1445934D01*
X8238460Y1463392D01*
Y1482289D01*
X8231228Y1499747D01*
X8217866Y1513109D01*
X8200408Y1520340D01*
D02*
G37*
G36*
X5864448Y1372500D02*
X5845551D01*
X5828093Y1365269D01*
X5814731Y1351907D01*
X5807500Y1334449D01*
Y1315552D01*
X5814731Y1298094D01*
X5828093Y1284732D01*
X5832975Y1282710D01*
Y1265996D01*
X5840206Y1248538D01*
X5853568Y1235176D01*
X5863206Y1231183D01*
Y1220018D01*
X5870438Y1202560D01*
X5883800Y1189198D01*
X5901258Y1181967D01*
X5920154D01*
X5937612Y1189198D01*
X5950974Y1202560D01*
X5958206Y1220018D01*
Y1238915D01*
X5950974Y1256373D01*
X5937612Y1269735D01*
X5927974Y1273727D01*
Y1284892D01*
X5920743Y1302350D01*
X5907381Y1315712D01*
X5902499Y1317734D01*
Y1334449D01*
X5895268Y1351907D01*
X5881906Y1365269D01*
X5864448Y1372500D01*
D02*
G37*
G36*
X6383578Y1272424D02*
X6364681D01*
X6347223Y1265193D01*
X6333861Y1251831D01*
X6326630Y1234372D01*
Y1215476D01*
X6333861Y1198018D01*
X6347223Y1184656D01*
X6364681Y1177424D01*
X6383578D01*
X6401036Y1184656D01*
X6414398Y1198018D01*
X6421629Y1215476D01*
Y1234372D01*
X6414398Y1251831D01*
X6401036Y1265193D01*
X6383578Y1272424D01*
D02*
G37*
G36*
X7398099Y1282712D02*
X7379202D01*
X7361744Y1275481D01*
X7348382Y1262119D01*
X7341151Y1244661D01*
Y1225764D01*
X7348382Y1208306D01*
X7361744Y1194944D01*
X7379202Y1187713D01*
X7398099D01*
X7407026Y1191410D01*
X7415582Y1182854D01*
X7433040Y1175623D01*
X7451937D01*
X7469395Y1182854D01*
X7482757Y1196216D01*
X7489988Y1213674D01*
Y1232571D01*
X7482757Y1250029D01*
X7469395Y1263391D01*
X7451937Y1270623D01*
X7433040D01*
X7424113Y1266925D01*
X7415557Y1275481D01*
X7398099Y1282712D01*
D02*
G37*
G36*
X2136528Y1230554D02*
X2117632D01*
X2100173Y1223322D01*
X2086811Y1209960D01*
X2079580Y1192502D01*
Y1173605D01*
X2086811Y1156147D01*
X2100173Y1142785D01*
X2117632Y1135554D01*
X2136528D01*
X2153986Y1142785D01*
X2167348Y1156147D01*
X2174580Y1173605D01*
Y1192502D01*
X2167348Y1209960D01*
X2153986Y1223322D01*
X2136528Y1230554D01*
D02*
G37*
G36*
X7156948Y1203986D02*
X7138052D01*
X7120594Y1196754D01*
X7107232Y1183392D01*
X7100000Y1165934D01*
Y1147038D01*
X7107232Y1129579D01*
X7120594Y1116217D01*
X7138052Y1108986D01*
X7156948D01*
X7174407Y1116217D01*
X7187768Y1129579D01*
X7195000Y1147038D01*
Y1165934D01*
X7187768Y1183392D01*
X7174407Y1196754D01*
X7156948Y1203986D01*
D02*
G37*
G36*
X4833189Y1287634D02*
X4814292D01*
X4796834Y1280403D01*
X4783472Y1267041D01*
X4776241Y1249582D01*
Y1230686D01*
X4783472Y1213228D01*
X4796834Y1199866D01*
X4799725Y1198668D01*
Y1182432D01*
X4795511Y1180686D01*
X4782149Y1167324D01*
X4774917Y1149866D01*
Y1130970D01*
X4782149Y1113511D01*
X4795511Y1100149D01*
X4812969Y1092918D01*
X4831865D01*
X4849324Y1100149D01*
X4862685Y1113511D01*
X4869917Y1130970D01*
Y1149866D01*
X4862685Y1167324D01*
X4849324Y1180686D01*
X4846432Y1181884D01*
Y1198120D01*
X4850647Y1199866D01*
X4864009Y1213228D01*
X4871240Y1230686D01*
Y1249582D01*
X4864009Y1267041D01*
X4850647Y1280403D01*
X4833189Y1287634D01*
D02*
G37*
G36*
X5329448Y1177500D02*
X5310552D01*
X5293094Y1170268D01*
X5279732Y1156907D01*
X5272500Y1139448D01*
Y1120552D01*
X5279732Y1103094D01*
X5293094Y1089732D01*
X5310552Y1082500D01*
X5329448D01*
X5346907Y1089732D01*
X5360268Y1103094D01*
X5367500Y1120552D01*
Y1139448D01*
X5360268Y1156907D01*
X5346907Y1170268D01*
X5329448Y1177500D01*
D02*
G37*
G36*
X3479448Y1097500D02*
X3460552D01*
X3443093Y1090268D01*
X3430607Y1077782D01*
X3420395Y1070963D01*
X3416906Y1070268D01*
X3399448Y1077500D01*
X3380552D01*
X3363094Y1070268D01*
X3349732Y1056906D01*
X3342500Y1039448D01*
Y1020552D01*
X3349732Y1003093D01*
X3363094Y989732D01*
X3380552Y982500D01*
X3399448D01*
X3416907Y989732D01*
X3429393Y1002218D01*
X3439605Y1009037D01*
X3443094Y1009732D01*
X3460552Y1002500D01*
X3479448D01*
X3496906Y1009732D01*
X3510268Y1023093D01*
X3517500Y1040552D01*
Y1059448D01*
X3510268Y1076906D01*
X3496906Y1090268D01*
X3479448Y1097500D01*
D02*
G37*
G36*
X3269145Y1163423D02*
X3250248D01*
X3232790Y1156192D01*
X3219428Y1142830D01*
X3212197Y1125372D01*
Y1106475D01*
X3219428Y1089017D01*
X3232790Y1075655D01*
X3250248Y1068424D01*
X3269145D01*
X3286603Y1075655D01*
X3299965Y1089017D01*
X3307196Y1106475D01*
Y1125372D01*
X3299965Y1142830D01*
X3286603Y1156192D01*
X3269145Y1163423D01*
D02*
G37*
G36*
X6500435Y1159318D02*
X6481538D01*
X6464080Y1152087D01*
X6450718Y1138725D01*
X6443486Y1121267D01*
Y1102370D01*
X6450718Y1084912D01*
X6464080Y1071550D01*
X6481538Y1064319D01*
X6500435D01*
X6517893Y1071550D01*
X6531255Y1084912D01*
X6538486Y1102370D01*
Y1121267D01*
X6531255Y1138725D01*
X6517893Y1152087D01*
X6500435Y1159318D01*
D02*
G37*
G36*
X5540672Y1177257D02*
X5521776D01*
X5504317Y1170025D01*
X5490955Y1156663D01*
X5483724Y1139205D01*
Y1120309D01*
X5484177Y1119215D01*
X5476096Y1115868D01*
X5462734Y1102506D01*
X5455503Y1085048D01*
Y1066152D01*
X5462734Y1048693D01*
X5476096Y1035331D01*
X5493554Y1028100D01*
X5512451D01*
X5529909Y1035331D01*
X5543271Y1048693D01*
X5550502Y1066152D01*
Y1076768D01*
X5556574Y1079774D01*
X5565502Y1081367D01*
X5576973Y1069896D01*
X5594431Y1062665D01*
X5613327D01*
X5630786Y1069896D01*
X5644147Y1083258D01*
X5651379Y1100716D01*
Y1119613D01*
X5644147Y1137071D01*
X5630786Y1150433D01*
X5613327Y1157664D01*
X5594431D01*
X5588356Y1155148D01*
X5571492Y1156664D01*
X5558130Y1170025D01*
X5540672Y1177257D01*
D02*
G37*
G36*
X8264389Y1052412D02*
X8245492D01*
X8228034Y1045181D01*
X8220149Y1037296D01*
X8217004Y1040442D01*
X8199546Y1047673D01*
X8180649D01*
X8163191Y1040442D01*
X8149829Y1027080D01*
X8142598Y1009622D01*
Y990725D01*
X8149829Y973267D01*
X8163191Y959905D01*
X8180649Y952673D01*
X8199546D01*
X8217004Y959905D01*
X8224889Y967790D01*
X8228034Y964644D01*
X8245492Y957413D01*
X8264389D01*
X8281847Y964644D01*
X8295209Y978006D01*
X8302440Y995464D01*
Y1014361D01*
X8295209Y1031819D01*
X8281847Y1045181D01*
X8264389Y1052412D01*
D02*
G37*
G36*
X7468391Y1127429D02*
X7449495D01*
X7432037Y1120198D01*
X7418675Y1106836D01*
X7411443Y1089378D01*
Y1070481D01*
X7418675Y1053023D01*
X7432037Y1039661D01*
X7449495Y1032429D01*
X7468391D01*
X7485850Y1039661D01*
X7499212Y1053023D01*
X7506443Y1070481D01*
Y1089378D01*
X7499212Y1106836D01*
X7485850Y1120198D01*
X7468391Y1127429D01*
D02*
G37*
G36*
X6852884Y1105233D02*
X6833988D01*
X6816530Y1098002D01*
X6803168Y1084640D01*
X6795936Y1067182D01*
Y1048285D01*
X6803168Y1030827D01*
X6816530Y1017465D01*
X6833988Y1010234D01*
X6852884D01*
X6870343Y1017465D01*
X6883705Y1030827D01*
X6890936Y1048285D01*
Y1067182D01*
X6883705Y1084640D01*
X6870343Y1098002D01*
X6852884Y1105233D01*
D02*
G37*
G36*
X7647466Y1277500D02*
X7628569D01*
X7611111Y1270269D01*
X7597749Y1256907D01*
X7590517Y1239449D01*
Y1220552D01*
X7597749Y1203094D01*
X7605301Y1195542D01*
X7602500Y1188782D01*
Y1169885D01*
X7609732Y1152427D01*
X7621633Y1140526D01*
X7621885Y1131699D01*
X7620600Y1123862D01*
X7611925Y1120269D01*
X7598563Y1106907D01*
X7591331Y1089448D01*
Y1070552D01*
X7598102Y1054205D01*
X7591249Y1037661D01*
Y1018764D01*
X7598481Y1001306D01*
X7611843Y987944D01*
X7629301Y980713D01*
X7648198D01*
X7665656Y987944D01*
X7679018Y1001306D01*
X7682402Y1009478D01*
X7698052Y1002996D01*
X7716948D01*
X7734406Y1010227D01*
X7747768Y1023589D01*
X7755000Y1041047D01*
Y1059944D01*
X7747768Y1077402D01*
X7734406Y1090764D01*
X7716948Y1097995D01*
X7698052D01*
X7685026Y1092600D01*
X7679099Y1106907D01*
X7667198Y1118808D01*
X7666946Y1127635D01*
X7668231Y1135472D01*
X7676906Y1139065D01*
X7690268Y1152427D01*
X7697500Y1169885D01*
Y1188782D01*
X7690268Y1206240D01*
X7682717Y1213792D01*
X7685517Y1220552D01*
Y1239449D01*
X7678286Y1256907D01*
X7664924Y1270269D01*
X7647466Y1277500D01*
D02*
G37*
G36*
X1966231Y1068969D02*
X1947334D01*
X1929876Y1061738D01*
X1916514Y1048376D01*
X1909283Y1030917D01*
Y1012021D01*
X1916514Y994563D01*
X1929876Y981201D01*
X1947334Y973969D01*
X1966231D01*
X1983689Y981201D01*
X1997051Y994563D01*
X2004282Y1012021D01*
Y1030917D01*
X1997051Y1048376D01*
X1983689Y1061738D01*
X1966231Y1068969D01*
D02*
G37*
G36*
X7151394Y1053158D02*
X7132498D01*
X7115040Y1045927D01*
X7101678Y1032565D01*
X7094446Y1015107D01*
Y996210D01*
X7101678Y978752D01*
X7115040Y965390D01*
X7132498Y958159D01*
X7151394D01*
X7168853Y965390D01*
X7182214Y978752D01*
X7189446Y996210D01*
Y1015107D01*
X7182214Y1032565D01*
X7168853Y1045927D01*
X7151394Y1053158D01*
D02*
G37*
G36*
X3027129Y1048805D02*
X3008232D01*
X2990774Y1041574D01*
X2977412Y1028212D01*
X2970181Y1010754D01*
Y991857D01*
X2977412Y974399D01*
X2990774Y961037D01*
X3008232Y953806D01*
X3027129D01*
X3044587Y961037D01*
X3057949Y974399D01*
X3065181Y991857D01*
Y1010754D01*
X3057949Y1028212D01*
X3044587Y1041574D01*
X3027129Y1048805D01*
D02*
G37*
G36*
X6099448Y1037499D02*
X6080552D01*
X6063094Y1030268D01*
X6049732Y1016906D01*
X6042500Y999448D01*
Y980551D01*
X6049732Y963093D01*
X6063094Y949731D01*
X6080552Y942500D01*
X6099448D01*
X6116906Y949731D01*
X6130268Y963093D01*
X6137500Y980551D01*
Y999448D01*
X6130268Y1016906D01*
X6116906Y1030268D01*
X6099448Y1037499D01*
D02*
G37*
G36*
X5551707Y1020254D02*
X5532810D01*
X5515352Y1013023D01*
X5501990Y999661D01*
X5494759Y982203D01*
Y963306D01*
X5501990Y945848D01*
X5515352Y932486D01*
X5532810Y925254D01*
X5551707D01*
X5569165Y932486D01*
X5582527Y945848D01*
X5589758Y963306D01*
Y982203D01*
X5582527Y999661D01*
X5569165Y1013023D01*
X5551707Y1020254D01*
D02*
G37*
G36*
X5303835Y1013575D02*
X5284939D01*
X5267481Y1006344D01*
X5254119Y992982D01*
X5246887Y975524D01*
Y956627D01*
X5254119Y939169D01*
X5267481Y925807D01*
X5284939Y918576D01*
X5303835D01*
X5321294Y925807D01*
X5334656Y939169D01*
X5341887Y956627D01*
Y975524D01*
X5334656Y992982D01*
X5321294Y1006344D01*
X5303835Y1013575D01*
D02*
G37*
G36*
X6372901Y957164D02*
X6354004D01*
X6336546Y949933D01*
X6323184Y936571D01*
X6315953Y919112D01*
Y915617D01*
X6300953Y912633D01*
X6300268Y914286D01*
X6286906Y927648D01*
X6269448Y934879D01*
X6250551D01*
X6233093Y927648D01*
X6219731Y914286D01*
X6212500Y896828D01*
Y877931D01*
X6219731Y860473D01*
X6233093Y847111D01*
X6250551Y839879D01*
X6269448D01*
X6286906Y847111D01*
X6300268Y860473D01*
X6307499Y877931D01*
Y881426D01*
X6322499Y884410D01*
X6323184Y882758D01*
X6336546Y869396D01*
X6354004Y862164D01*
X6372901D01*
X6390359Y869396D01*
X6403721Y882758D01*
X6410952Y900216D01*
Y919112D01*
X6403721Y936571D01*
X6390359Y949933D01*
X6372901Y957164D01*
D02*
G37*
G36*
X4328948Y1007000D02*
X4310052D01*
X4292594Y999769D01*
X4279232Y986407D01*
X4272000Y968949D01*
Y950052D01*
X4279232Y932594D01*
X4292594Y919232D01*
X4310052Y912000D01*
X4328948D01*
X4346407Y919232D01*
X4359769Y932594D01*
X4367000Y950052D01*
Y968949D01*
X4359769Y986407D01*
X4346407Y999769D01*
X4328948Y1007000D01*
D02*
G37*
G36*
X4926279Y1006041D02*
X4907382D01*
X4889924Y998809D01*
X4876562Y985447D01*
X4869331Y967989D01*
Y949093D01*
X4876562Y931634D01*
X4889924Y918272D01*
X4907382Y911041D01*
X4926279D01*
X4939537Y916533D01*
X4939881Y916189D01*
X4957339Y908958D01*
X4976235D01*
X4993694Y916189D01*
X5007056Y929551D01*
X5014287Y947010D01*
Y965906D01*
X5007056Y983364D01*
X4993694Y996726D01*
X4976235Y1003958D01*
X4957339D01*
X4944080Y998466D01*
X4943737Y998809D01*
X4926279Y1006041D01*
D02*
G37*
G36*
X3208295Y988888D02*
X3189398D01*
X3171940Y981656D01*
X3158578Y968294D01*
X3151347Y950836D01*
Y931939D01*
X3158578Y914481D01*
X3171940Y901119D01*
X3189398Y893888D01*
X3208295D01*
X3225753Y901119D01*
X3239115Y914481D01*
X3246347Y931939D01*
Y950836D01*
X3239115Y968294D01*
X3225753Y981656D01*
X3208295Y988888D01*
D02*
G37*
G36*
X2559880Y958443D02*
X2540983D01*
X2523525Y951212D01*
X2510163Y937850D01*
X2502932Y920392D01*
Y901495D01*
X2510163Y884037D01*
X2523525Y870675D01*
X2540983Y863444D01*
X2559880D01*
X2577338Y870675D01*
X2590700Y884037D01*
X2597931Y901495D01*
Y920392D01*
X2590700Y937850D01*
X2577338Y951212D01*
X2559880Y958443D01*
D02*
G37*
G36*
X6584162Y971315D02*
X6565266D01*
X6547807Y964084D01*
X6534445Y950722D01*
X6527214Y933264D01*
Y914367D01*
X6531595Y903790D01*
X6523094Y900268D01*
X6509732Y886907D01*
X6502500Y869448D01*
Y850552D01*
X6509732Y833094D01*
X6523094Y819732D01*
X6540552Y812500D01*
X6559448D01*
X6576907Y819732D01*
X6590269Y833094D01*
X6597500Y850552D01*
Y869448D01*
X6593119Y880025D01*
X6601620Y883547D01*
X6614982Y896909D01*
X6622214Y914367D01*
Y933264D01*
X6614982Y950722D01*
X6601620Y964084D01*
X6584162Y971315D01*
D02*
G37*
G36*
X7163926Y892500D02*
X7145029D01*
X7127571Y885268D01*
X7114209Y871907D01*
X7106978Y854448D01*
Y835552D01*
X7114209Y818094D01*
X7127571Y804732D01*
X7145029Y797500D01*
X7163926D01*
X7181384Y804732D01*
X7194746Y818094D01*
X7201977Y835552D01*
Y854448D01*
X7194746Y871907D01*
X7181384Y885268D01*
X7163926Y892500D01*
D02*
G37*
G36*
X2351504Y910000D02*
X2327635D01*
X2305582Y900866D01*
X2288704Y883987D01*
X2279569Y861935D01*
Y838065D01*
X2288704Y816013D01*
X2305582Y799135D01*
X2327635Y790000D01*
X2351504D01*
X2373557Y799135D01*
X2390435Y816013D01*
X2399569Y838065D01*
Y861935D01*
X2390435Y883987D01*
X2373557Y900866D01*
X2351504Y910000D01*
D02*
G37*
G36*
X3940900Y880073D02*
X3922004D01*
X3904546Y872842D01*
X3891184Y859480D01*
X3883952Y842021D01*
Y823125D01*
X3891184Y805667D01*
X3904546Y792305D01*
X3922004Y785073D01*
X3940900D01*
X3958359Y792305D01*
X3971721Y805667D01*
X3978952Y823125D01*
Y842021D01*
X3971721Y859480D01*
X3958359Y872842D01*
X3940900Y880073D01*
D02*
G37*
G36*
X7463789Y928720D02*
X7444893D01*
X7427435Y921489D01*
X7414073Y908127D01*
X7406841Y890669D01*
Y871772D01*
X7414073Y854314D01*
X7424386Y844001D01*
X7422500Y839448D01*
Y820552D01*
X7429732Y803094D01*
X7443094Y789732D01*
X7460552Y782500D01*
X7479448D01*
X7496907Y789732D01*
X7510268Y803094D01*
X7517500Y820552D01*
Y839448D01*
X7510268Y856907D01*
X7499955Y867220D01*
X7501841Y871772D01*
Y890669D01*
X7494610Y908127D01*
X7481248Y921489D01*
X7463789Y928720D01*
D02*
G37*
G36*
X6677541Y875879D02*
X6658645D01*
X6641186Y868648D01*
X6627824Y855286D01*
X6620593Y837828D01*
Y818931D01*
X6627824Y801473D01*
X6641186Y788111D01*
X6658645Y780880D01*
X6677541D01*
X6694999Y788111D01*
X6708361Y801473D01*
X6715593Y818931D01*
Y837828D01*
X6708361Y855286D01*
X6694999Y868648D01*
X6677541Y875879D01*
D02*
G37*
G36*
X5419448Y927500D02*
X5400552D01*
X5383094Y920268D01*
X5369732Y906906D01*
X5362500Y889448D01*
Y870552D01*
X5369732Y853094D01*
X5383094Y839732D01*
X5388239Y837600D01*
Y821364D01*
X5385593Y820268D01*
X5372232Y806906D01*
X5365000Y789448D01*
Y781850D01*
X5350000Y778866D01*
X5347802Y784173D01*
X5334440Y797535D01*
X5316982Y804766D01*
X5298085D01*
X5280627Y797535D01*
X5267265Y784173D01*
X5260034Y766714D01*
Y747818D01*
X5267265Y730360D01*
X5280627Y716998D01*
X5298085Y709766D01*
X5316982D01*
X5334440Y716998D01*
X5347802Y730360D01*
X5355033Y747818D01*
Y755416D01*
X5370033Y758400D01*
X5372232Y753093D01*
X5385593Y739732D01*
X5403052Y732500D01*
X5421948D01*
X5439406Y739732D01*
X5452768Y753093D01*
X5460000Y770552D01*
Y789448D01*
X5452768Y806906D01*
X5439406Y820268D01*
X5434261Y822400D01*
Y838636D01*
X5436907Y839732D01*
X5450268Y853094D01*
X5457500Y870552D01*
Y889448D01*
X5450268Y906906D01*
X5436907Y920268D01*
X5419448Y927500D01*
D02*
G37*
G36*
X5109448Y877500D02*
X5090552D01*
X5073093Y870269D01*
X5059732Y856907D01*
X5052500Y839448D01*
Y820552D01*
X5059732Y803094D01*
X5073093Y789732D01*
X5090552Y782500D01*
X5109448D01*
X5126906Y789732D01*
X5146050Y787662D01*
X5152030Y781681D01*
X5169488Y774450D01*
X5188385D01*
X5205843Y781681D01*
X5219205Y795043D01*
X5226436Y812502D01*
Y831398D01*
X5219205Y848856D01*
X5205843Y862218D01*
X5188385Y869450D01*
X5169488D01*
X5152030Y862218D01*
X5132887Y864288D01*
X5126906Y870269D01*
X5109448Y877500D01*
D02*
G37*
G36*
X5863775Y983173D02*
X5844879D01*
X5827420Y975941D01*
X5814058Y962579D01*
X5806827Y945121D01*
Y926225D01*
X5814058Y908767D01*
X5827420Y895405D01*
X5835089Y892228D01*
X5833618Y876602D01*
X5820429Y871139D01*
X5807067Y857777D01*
X5799836Y840319D01*
Y821422D01*
X5807067Y803964D01*
X5820429Y790602D01*
X5837887Y783371D01*
X5856784D01*
X5868257Y788123D01*
X5868289Y788045D01*
X5881651Y774683D01*
X5899109Y767452D01*
X5918005D01*
X5935464Y774683D01*
X5948826Y788045D01*
X5956057Y805503D01*
Y824400D01*
X5948826Y841858D01*
X5935464Y855220D01*
X5918005Y862451D01*
X5899109D01*
X5887636Y857699D01*
X5887604Y857777D01*
X5874242Y871139D01*
X5866574Y874315D01*
X5868045Y889942D01*
X5881233Y895405D01*
X5894595Y908767D01*
X5901827Y926225D01*
Y945121D01*
X5894595Y962579D01*
X5881233Y975941D01*
X5863775Y983173D01*
D02*
G37*
G36*
X3269788Y848079D02*
X3250891D01*
X3233433Y840847D01*
X3220071Y827485D01*
X3212840Y810027D01*
Y791130D01*
X3220071Y773672D01*
X3233433Y760310D01*
X3250891Y753079D01*
X3269788D01*
X3287246Y760310D01*
X3300608Y773672D01*
X3307839Y791130D01*
Y810027D01*
X3300608Y827485D01*
X3287246Y840847D01*
X3269788Y848079D01*
D02*
G37*
G36*
X6972947Y842780D02*
X6954051D01*
X6936593Y835549D01*
X6923231Y822187D01*
X6915999Y804729D01*
Y785832D01*
X6923231Y768374D01*
X6936593Y755012D01*
X6954051Y747781D01*
X6972947D01*
X6990406Y755012D01*
X7003768Y768374D01*
X7010999Y785832D01*
Y804729D01*
X7003768Y822187D01*
X6990406Y835549D01*
X6972947Y842780D01*
D02*
G37*
G36*
X5531948Y827500D02*
X5513052D01*
X5495594Y820268D01*
X5482232Y806906D01*
X5475000Y789448D01*
Y770552D01*
X5482232Y753093D01*
X5495594Y739732D01*
X5513052Y732500D01*
X5531948D01*
X5549406Y739732D01*
X5562768Y753093D01*
X5570000Y770552D01*
Y789448D01*
X5562768Y806906D01*
X5549406Y820268D01*
X5531948Y827500D01*
D02*
G37*
G36*
X8196191Y887196D02*
X8177294D01*
X8159836Y879965D01*
X8146474Y866603D01*
X8139243Y849145D01*
Y830248D01*
X8146474Y812790D01*
X8159836Y799428D01*
X8177294Y792197D01*
X8196191D01*
X8209452Y797690D01*
X8210172Y796970D01*
X8227630Y789739D01*
X8228186D01*
X8230718Y787356D01*
X8236973Y774739D01*
X8231748Y762124D01*
Y743228D01*
X8238979Y725770D01*
X8252341Y712408D01*
X8269799Y705176D01*
X8288696D01*
X8306154Y712408D01*
X8308286Y714540D01*
X8313094Y709732D01*
X8330552Y702500D01*
X8349448D01*
X8366907Y709732D01*
X8380268Y723094D01*
X8387500Y740552D01*
Y759448D01*
X8380268Y776906D01*
X8366907Y790268D01*
X8349448Y797500D01*
X8330552D01*
X8313094Y790268D01*
X8310962Y788137D01*
X8306154Y792945D01*
X8288696Y800176D01*
X8288140D01*
X8285608Y802559D01*
X8279353Y815176D01*
X8284578Y827791D01*
Y846687D01*
X8277347Y864145D01*
X8263985Y877507D01*
X8246527Y884739D01*
X8227630D01*
X8214368Y879245D01*
X8213649Y879965D01*
X8196191Y887196D01*
D02*
G37*
G36*
X6352567Y791502D02*
X6333670D01*
X6316212Y784271D01*
X6302850Y770909D01*
X6295619Y753451D01*
Y734554D01*
X6302850Y717096D01*
X6316212Y703734D01*
X6333670Y696503D01*
X6352567D01*
X6370025Y703734D01*
X6383387Y717096D01*
X6390618Y734554D01*
Y753451D01*
X6383387Y770909D01*
X6370025Y784271D01*
X6352567Y791502D01*
D02*
G37*
G36*
X3158380Y790012D02*
X3139483D01*
X3122025Y782781D01*
X3108663Y769419D01*
X3101432Y751960D01*
Y733064D01*
X3108663Y715606D01*
X3122025Y702244D01*
X3139483Y695012D01*
X3158380D01*
X3175838Y702244D01*
X3189200Y715606D01*
X3196432Y733064D01*
Y751960D01*
X3189200Y769419D01*
X3175838Y782781D01*
X3158380Y790012D01*
D02*
G37*
G36*
X7727459Y932468D02*
X7708563D01*
X7691105Y925236D01*
X7677743Y911874D01*
X7670511Y894416D01*
Y875520D01*
X7674368Y866208D01*
X7669314Y861154D01*
X7662082Y843696D01*
Y824799D01*
X7669314Y807341D01*
X7682676Y793979D01*
X7687900Y791815D01*
X7689285Y784778D01*
X7689124Y775072D01*
X7677493Y763441D01*
X7670262Y745983D01*
Y727087D01*
X7677493Y709629D01*
X7690855Y696267D01*
X7708313Y689035D01*
X7727210D01*
X7744668Y696267D01*
X7758030Y709629D01*
X7765261Y727087D01*
Y745983D01*
X7758030Y763441D01*
X7744668Y776803D01*
X7739444Y778967D01*
X7738059Y786004D01*
X7738220Y795710D01*
X7749851Y807341D01*
X7757082Y824799D01*
Y843696D01*
X7753225Y853007D01*
X7758279Y858062D01*
X7765511Y875520D01*
Y894416D01*
X7758279Y911874D01*
X7744917Y925236D01*
X7727459Y932468D01*
D02*
G37*
G36*
X7541469Y780811D02*
X7522572D01*
X7505114Y773580D01*
X7491752Y760218D01*
X7484521Y742760D01*
Y723863D01*
X7491752Y706405D01*
X7505114Y693043D01*
X7522572Y685812D01*
X7541469D01*
X7558927Y693043D01*
X7572289Y706405D01*
X7579520Y723863D01*
Y742760D01*
X7572289Y760218D01*
X7558927Y773580D01*
X7541469Y780811D01*
D02*
G37*
G36*
X3352761Y766230D02*
X3333864D01*
X3316406Y758999D01*
X3303044Y745637D01*
X3295813Y728179D01*
Y709282D01*
X3303044Y691824D01*
X3316406Y678462D01*
X3333864Y671231D01*
X3352761D01*
X3370219Y678462D01*
X3383581Y691824D01*
X3390812Y709282D01*
Y728179D01*
X3383581Y745637D01*
X3370219Y758999D01*
X3352761Y766230D01*
D02*
G37*
G36*
X4092950Y827288D02*
X4074053D01*
X4056595Y820056D01*
X4043233Y806694D01*
X4036002Y789236D01*
Y770340D01*
X4043233Y752881D01*
X4056595Y739519D01*
X4074053Y732288D01*
X4092950D01*
X4110408Y739519D01*
X4123770Y752881D01*
X4135591Y745104D01*
X4128370Y727671D01*
Y708775D01*
X4135602Y691316D01*
X4148964Y677954D01*
X4166422Y670723D01*
X4185318D01*
X4202776Y677954D01*
X4216138Y691316D01*
X4219434Y699272D01*
X4235669D01*
X4239657Y689645D01*
X4253019Y676283D01*
X4270477Y669051D01*
X4289374D01*
X4306832Y676283D01*
X4320194Y689645D01*
X4327425Y707103D01*
Y726000D01*
X4320194Y743458D01*
X4306832Y756820D01*
X4289374Y764051D01*
X4270477D01*
X4253019Y756820D01*
X4239657Y743458D01*
X4236362Y735502D01*
X4220126D01*
X4216138Y745129D01*
X4202776Y758491D01*
X4185318Y765723D01*
X4166422D01*
X4148964Y758491D01*
X4135602Y745130D01*
X4123781Y752907D01*
X4131001Y770340D01*
Y789236D01*
X4123770Y806694D01*
X4110408Y820056D01*
X4092950Y827288D01*
D02*
G37*
G36*
X6479319Y658893D02*
X6460422D01*
X6442964Y651662D01*
X6429602Y638300D01*
X6422371Y620842D01*
Y601945D01*
X6424675Y596382D01*
X6416744Y588479D01*
X6412829Y585784D01*
X6387500Y590822D01*
X6312500D01*
X6286163Y585583D01*
X6263836Y570664D01*
X6248917Y548337D01*
X6243678Y522000D01*
Y407000D01*
X6248917Y380663D01*
X6263836Y358336D01*
X6286163Y343417D01*
X6312500Y338178D01*
X6387500D01*
X6413837Y343417D01*
X6436164Y358336D01*
X6451083Y380663D01*
X6456322Y407000D01*
Y522000D01*
X6451083Y548337D01*
X6448137Y552747D01*
X6458081Y564863D01*
X6460422Y563894D01*
X6479319D01*
X6496777Y571125D01*
X6510139Y584487D01*
X6517371Y601945D01*
Y620842D01*
X6510139Y638300D01*
X6496777Y651662D01*
X6479319Y658893D01*
D02*
G37*
G36*
X1550000Y835000D02*
X1410000D01*
X1340000Y765000D01*
Y625000D01*
X1410000Y555000D01*
X1550000D01*
X1620000Y625000D01*
Y765000D01*
X1550000Y835000D01*
D02*
G37*
G36*
X7859448Y577500D02*
X7840552D01*
X7823094Y570268D01*
X7809732Y556906D01*
X7802500Y539448D01*
Y520552D01*
X7809732Y503093D01*
X7823094Y489732D01*
X7840552Y482500D01*
X7859448D01*
X7876907Y489732D01*
X7890268Y503093D01*
X7897500Y520552D01*
Y539448D01*
X7890268Y556906D01*
X7876907Y570268D01*
X7859448Y577500D01*
D02*
G37*
G36*
X7639448Y667500D02*
X7620552D01*
X7603094Y660268D01*
X7589732Y646907D01*
X7582500Y629448D01*
Y610552D01*
X7582727Y610005D01*
X7573099Y594050D01*
X7554212Y590293D01*
X7530231Y574269D01*
X7514207Y550288D01*
X7508580Y522000D01*
Y474500D01*
X7731420D01*
Y522000D01*
X7725793Y550288D01*
X7709769Y574269D01*
X7685788Y590293D01*
X7681973Y591052D01*
X7674902Y604281D01*
X7677500Y610552D01*
Y629448D01*
X7670268Y646907D01*
X7656906Y660268D01*
X7639448Y667500D01*
D02*
G37*
G36*
X7403500Y595920D02*
X7376000D01*
Y474500D01*
X7477420D01*
Y522000D01*
X7471793Y550288D01*
X7455769Y574269D01*
X7431788Y590293D01*
X7403500Y595920D01*
D02*
G37*
G36*
X7356000D02*
X7328500D01*
X7300212Y590293D01*
X7276231Y574269D01*
X7260207Y550288D01*
X7254580Y522000D01*
Y474500D01*
X7356000D01*
Y595920D01*
D02*
G37*
G36*
X6133500D02*
X6106000D01*
Y474500D01*
X6207420D01*
Y522000D01*
X6201793Y550288D01*
X6185769Y574269D01*
X6161788Y590293D01*
X6133500Y595920D01*
D02*
G37*
G36*
X6086000D02*
X6058500D01*
X6030212Y590293D01*
X6006231Y574269D01*
X5990207Y550288D01*
X5984580Y522000D01*
Y474500D01*
X6086000D01*
Y595920D01*
D02*
G37*
G36*
X2069500D02*
X2042000D01*
Y474500D01*
X2143420D01*
Y522000D01*
X2137793Y550288D01*
X2121769Y574269D01*
X2097788Y590293D01*
X2069500Y595920D01*
D02*
G37*
G36*
X2022000D02*
X1994500D01*
X1966212Y590293D01*
X1942231Y574269D01*
X1926207Y550288D01*
X1920580Y522000D01*
Y474500D01*
X2022000D01*
Y595920D01*
D02*
G37*
G36*
X8304250Y568945D02*
X8273000D01*
Y465000D01*
X8379445D01*
Y493750D01*
X8373721Y522526D01*
X8357420Y546921D01*
X8333025Y563221D01*
X8304250Y568945D01*
D02*
G37*
G36*
X8253000D02*
X8221750D01*
X8192974Y563221D01*
X8168580Y546921D01*
X8152279Y522526D01*
X8146555Y493750D01*
Y465000D01*
X8253000D01*
Y568945D01*
D02*
G37*
G36*
X1535000Y491763D02*
X1490000D01*
Y355000D01*
X1626763D01*
Y400000D01*
X1619778Y435116D01*
X1599887Y464887D01*
X1570116Y484778D01*
X1535000Y491763D01*
D02*
G37*
G36*
X1470000D02*
X1425000D01*
X1389884Y484778D01*
X1360114Y464887D01*
X1340222Y435116D01*
X1333237Y400000D01*
Y355000D01*
X1470000D01*
Y491763D01*
D02*
G37*
G36*
X8379445Y445000D02*
X8273000D01*
Y341055D01*
X8304250D01*
X8333025Y346779D01*
X8357420Y363080D01*
X8373721Y387474D01*
X8379445Y416250D01*
Y445000D01*
D02*
G37*
G36*
X8253000D02*
X8146555D01*
Y416250D01*
X8152279Y387474D01*
X8168580Y363080D01*
X8192974Y346779D01*
X8221750Y341055D01*
X8253000D01*
Y445000D01*
D02*
G37*
G36*
X7168526Y671707D02*
X7149630D01*
X7132171Y664475D01*
X7118809Y651113D01*
X7111578Y633655D01*
Y614758D01*
X7115280Y605822D01*
X7105689Y590822D01*
X7074500D01*
X7048163Y585583D01*
X7025836Y570664D01*
X7010917Y548337D01*
X7005678Y522000D01*
Y407000D01*
X7010917Y380663D01*
X7025836Y358336D01*
X7048163Y343417D01*
X7074500Y338178D01*
X7149500D01*
X7175837Y343417D01*
X7198164Y358336D01*
X7213083Y380663D01*
X7218322Y407000D01*
Y522000D01*
X7213083Y548337D01*
X7198164Y570664D01*
X7195098Y572713D01*
X7193720Y591674D01*
X7199346Y597300D01*
X7206578Y614758D01*
Y633655D01*
X7199346Y651113D01*
X7185984Y664475D01*
X7168526Y671707D01*
D02*
G37*
G36*
X6895500Y590822D02*
X6820500D01*
X6794163Y585583D01*
X6771836Y570664D01*
X6756917Y548337D01*
X6751678Y522000D01*
Y407000D01*
X6756917Y380663D01*
X6771836Y358336D01*
X6794163Y343417D01*
X6820500Y338178D01*
X6895500D01*
X6921837Y343417D01*
X6944164Y358336D01*
X6959083Y380663D01*
X6964322Y407000D01*
Y522000D01*
X6959083Y548337D01*
X6944164Y570664D01*
X6921837Y585583D01*
X6895500Y590822D01*
D02*
G37*
G36*
X6641500D02*
X6566500D01*
X6540163Y585583D01*
X6517836Y570664D01*
X6502917Y548337D01*
X6497678Y522000D01*
Y407000D01*
X6502917Y380663D01*
X6517836Y358336D01*
X6540163Y343417D01*
X6566500Y338178D01*
X6641500D01*
X6667837Y343417D01*
X6690164Y358336D01*
X6705083Y380663D01*
X6710322Y407000D01*
Y522000D01*
X6705083Y548337D01*
X6690164Y570664D01*
X6667837Y585583D01*
X6641500Y590822D01*
D02*
G37*
G36*
X5879500D02*
X5804500D01*
X5778163Y585583D01*
X5755836Y570664D01*
X5740917Y548337D01*
X5735678Y522000D01*
Y407000D01*
X5740917Y380663D01*
X5755836Y358336D01*
X5778163Y343417D01*
X5804500Y338178D01*
X5879500D01*
X5905837Y343417D01*
X5928164Y358336D01*
X5943083Y380663D01*
X5948322Y407000D01*
Y522000D01*
X5943083Y548337D01*
X5928164Y570664D01*
X5905837Y585583D01*
X5879500Y590822D01*
D02*
G37*
G36*
X5625500D02*
X5550500D01*
X5524163Y585583D01*
X5501836Y570664D01*
X5486917Y548337D01*
X5481678Y522000D01*
Y407000D01*
X5486917Y380663D01*
X5501836Y358336D01*
X5524163Y343417D01*
X5550500Y338178D01*
X5625500D01*
X5651837Y343417D01*
X5674164Y358336D01*
X5689083Y380663D01*
X5694322Y407000D01*
Y522000D01*
X5689083Y548337D01*
X5674164Y570664D01*
X5651837Y585583D01*
X5625500Y590822D01*
D02*
G37*
G36*
X5283378Y672378D02*
X5264481D01*
X5247023Y665147D01*
X5233661Y651785D01*
X5226430Y634327D01*
Y615430D01*
X5233661Y597972D01*
X5244894Y586739D01*
X5246743Y576635D01*
X5246461Y568607D01*
X5232917Y548337D01*
X5227678Y522000D01*
Y407000D01*
X5232917Y380663D01*
X5247836Y358336D01*
X5270163Y343417D01*
X5296500Y338178D01*
X5371500D01*
X5397837Y343417D01*
X5420164Y358336D01*
X5435083Y380663D01*
X5440322Y407000D01*
Y522000D01*
X5435083Y548337D01*
X5420164Y570664D01*
X5397837Y585583D01*
X5371500Y590822D01*
X5326646D01*
X5317449Y605822D01*
X5321429Y615430D01*
Y634327D01*
X5314198Y651785D01*
X5300836Y665147D01*
X5283378Y672378D01*
D02*
G37*
G36*
X5117500Y590822D02*
X5042500D01*
X5016163Y585583D01*
X4993836Y570664D01*
X4978917Y548337D01*
X4973678Y522000D01*
Y407000D01*
X4978917Y380663D01*
X4993836Y358336D01*
X5016163Y343417D01*
X5042500Y338178D01*
X5117500D01*
X5143837Y343417D01*
X5166164Y358336D01*
X5181083Y380663D01*
X5186322Y407000D01*
Y522000D01*
X5181083Y548337D01*
X5166164Y570664D01*
X5143837Y585583D01*
X5117500Y590822D01*
D02*
G37*
G36*
X4863500D02*
X4788500D01*
X4762163Y585583D01*
X4739836Y570664D01*
X4724917Y548337D01*
X4719678Y522000D01*
Y407000D01*
X4724917Y380663D01*
X4739836Y358336D01*
X4762163Y343417D01*
X4788500Y338178D01*
X4863500D01*
X4889837Y343417D01*
X4912164Y358336D01*
X4927083Y380663D01*
X4932322Y407000D01*
Y522000D01*
X4927083Y548337D01*
X4912164Y570664D01*
X4889837Y585583D01*
X4863500Y590822D01*
D02*
G37*
G36*
X4609500D02*
X4534500D01*
X4508163Y585583D01*
X4485836Y570664D01*
X4470917Y548337D01*
X4465678Y522000D01*
Y407000D01*
X4470917Y380663D01*
X4485836Y358336D01*
X4508163Y343417D01*
X4534500Y338178D01*
X4609500D01*
X4635837Y343417D01*
X4658164Y358336D01*
X4673083Y380663D01*
X4678322Y407000D01*
Y522000D01*
X4673083Y548337D01*
X4658164Y570664D01*
X4635837Y585583D01*
X4609500Y590822D01*
D02*
G37*
G36*
X4355500D02*
X4280500D01*
X4254163Y585583D01*
X4231836Y570664D01*
X4216917Y548337D01*
X4211678Y522000D01*
Y407000D01*
X4216917Y380663D01*
X4231836Y358336D01*
X4254163Y343417D01*
X4280500Y338178D01*
X4355500D01*
X4381837Y343417D01*
X4404164Y358336D01*
X4419083Y380663D01*
X4424322Y407000D01*
Y522000D01*
X4419083Y548337D01*
X4404164Y570664D01*
X4381837Y585583D01*
X4355500Y590822D01*
D02*
G37*
G36*
X4101500D02*
X4026500D01*
X4000163Y585583D01*
X3977836Y570664D01*
X3962917Y548337D01*
X3957678Y522000D01*
Y407000D01*
X3962917Y380663D01*
X3977836Y358336D01*
X4000163Y343417D01*
X4026500Y338178D01*
X4101500D01*
X4127837Y343417D01*
X4150164Y358336D01*
X4165083Y380663D01*
X4170322Y407000D01*
Y522000D01*
X4165083Y548337D01*
X4150164Y570664D01*
X4127837Y585583D01*
X4101500Y590822D01*
D02*
G37*
G36*
X3847500D02*
X3772500D01*
X3746163Y585583D01*
X3723836Y570664D01*
X3708917Y548337D01*
X3703678Y522000D01*
Y407000D01*
X3708917Y380663D01*
X3723836Y358336D01*
X3746163Y343417D01*
X3772500Y338178D01*
X3847500D01*
X3873837Y343417D01*
X3896164Y358336D01*
X3911083Y380663D01*
X3916322Y407000D01*
Y522000D01*
X3911083Y548337D01*
X3896164Y570664D01*
X3873837Y585583D01*
X3847500Y590822D01*
D02*
G37*
G36*
X3593500D02*
X3518500D01*
X3492163Y585583D01*
X3469836Y570664D01*
X3454917Y548337D01*
X3449678Y522000D01*
Y407000D01*
X3454917Y380663D01*
X3469836Y358336D01*
X3492163Y343417D01*
X3518500Y338178D01*
X3593500D01*
X3619837Y343417D01*
X3642164Y358336D01*
X3657083Y380663D01*
X3662322Y407000D01*
Y522000D01*
X3657083Y548337D01*
X3642164Y570664D01*
X3619837Y585583D01*
X3593500Y590822D01*
D02*
G37*
G36*
X3339500D02*
X3264500D01*
X3238163Y585583D01*
X3215836Y570664D01*
X3200917Y548337D01*
X3195678Y522000D01*
Y407000D01*
X3200917Y380663D01*
X3215836Y358336D01*
X3238163Y343417D01*
X3264500Y338178D01*
X3339500D01*
X3365837Y343417D01*
X3388164Y358336D01*
X3403083Y380663D01*
X3408322Y407000D01*
Y522000D01*
X3403083Y548337D01*
X3388164Y570664D01*
X3365837Y585583D01*
X3339500Y590822D01*
D02*
G37*
G36*
X3085500D02*
X3010500D01*
X2984163Y585583D01*
X2961836Y570664D01*
X2946917Y548337D01*
X2941678Y522000D01*
Y407000D01*
X2946917Y380663D01*
X2961836Y358336D01*
X2984163Y343417D01*
X3010500Y338178D01*
X3085500D01*
X3111837Y343417D01*
X3134164Y358336D01*
X3149083Y380663D01*
X3154322Y407000D01*
Y522000D01*
X3149083Y548337D01*
X3134164Y570664D01*
X3111837Y585583D01*
X3085500Y590822D01*
D02*
G37*
G36*
X2831500D02*
X2756500D01*
X2730163Y585583D01*
X2707836Y570664D01*
X2692917Y548337D01*
X2687678Y522000D01*
Y407000D01*
X2692917Y380663D01*
X2707836Y358336D01*
X2730163Y343417D01*
X2756500Y338178D01*
X2831500D01*
X2857837Y343417D01*
X2880164Y358336D01*
X2895083Y380663D01*
X2900322Y407000D01*
Y522000D01*
X2895083Y548337D01*
X2880164Y570664D01*
X2857837Y585583D01*
X2831500Y590822D01*
D02*
G37*
G36*
X2577500D02*
X2502500D01*
X2476163Y585583D01*
X2453836Y570664D01*
X2438917Y548337D01*
X2433678Y522000D01*
Y407000D01*
X2438917Y380663D01*
X2453836Y358336D01*
X2476163Y343417D01*
X2502500Y338178D01*
X2577500D01*
X2603837Y343417D01*
X2626164Y358336D01*
X2641083Y380663D01*
X2646322Y407000D01*
Y522000D01*
X2641083Y548337D01*
X2626164Y570664D01*
X2603837Y585583D01*
X2577500Y590822D01*
D02*
G37*
G36*
X2323500D02*
X2248500D01*
X2222163Y585583D01*
X2199836Y570664D01*
X2184917Y548337D01*
X2179678Y522000D01*
Y407000D01*
X2184917Y380663D01*
X2199836Y358336D01*
X2222163Y343417D01*
X2248500Y338178D01*
X2323500D01*
X2349837Y343417D01*
X2372164Y358336D01*
X2387083Y380663D01*
X2392322Y407000D01*
Y522000D01*
X2387083Y548337D01*
X2372164Y570664D01*
X2349837Y585583D01*
X2323500Y590822D01*
D02*
G37*
G36*
X7731420Y454500D02*
X7630000D01*
Y333080D01*
X7657500D01*
X7685788Y338707D01*
X7709769Y354731D01*
X7725793Y378712D01*
X7731420Y407000D01*
Y454500D01*
D02*
G37*
G36*
X7610000D02*
X7508580D01*
Y407000D01*
X7514207Y378712D01*
X7530231Y354731D01*
X7554212Y338707D01*
X7582500Y333080D01*
X7610000D01*
Y454500D01*
D02*
G37*
G36*
X7477420D02*
X7376000D01*
Y333080D01*
X7403500D01*
X7431788Y338707D01*
X7455769Y354731D01*
X7471793Y378712D01*
X7477420Y407000D01*
Y454500D01*
D02*
G37*
G36*
X7356000D02*
X7254580D01*
Y407000D01*
X7260207Y378712D01*
X7276231Y354731D01*
X7300212Y338707D01*
X7328500Y333080D01*
X7356000D01*
Y454500D01*
D02*
G37*
G36*
X6207420D02*
X6106000D01*
Y333080D01*
X6133500D01*
X6161788Y338707D01*
X6185769Y354731D01*
X6201793Y378712D01*
X6207420Y407000D01*
Y454500D01*
D02*
G37*
G36*
X6086000D02*
X5984580D01*
Y407000D01*
X5990207Y378712D01*
X6006231Y354731D01*
X6030212Y338707D01*
X6058500Y333080D01*
X6086000D01*
Y454500D01*
D02*
G37*
G36*
X2143420D02*
X2042000D01*
Y333080D01*
X2069500D01*
X2097788Y338707D01*
X2121769Y354731D01*
X2137793Y378712D01*
X2143420Y407000D01*
Y454500D01*
D02*
G37*
G36*
X2022000D02*
X1920580D01*
Y407000D01*
X1926207Y378712D01*
X1942231Y354731D01*
X1966212Y338707D01*
X1994500Y333080D01*
X2022000D01*
Y454500D01*
D02*
G37*
G36*
X1626763Y335000D02*
X1490000D01*
Y198237D01*
X1535000D01*
X1570116Y205222D01*
X1599887Y225114D01*
X1619778Y254884D01*
X1626763Y290000D01*
Y335000D01*
D02*
G37*
G36*
X1470000D02*
X1333237D01*
Y290000D01*
X1340222Y254884D01*
X1360114Y225114D01*
X1389884Y205222D01*
X1425000Y198237D01*
X1470000D01*
Y335000D01*
D02*
G37*
G36*
X7657500Y301920D02*
X7630000D01*
Y180500D01*
X7731420D01*
Y228000D01*
X7725793Y256288D01*
X7709769Y280269D01*
X7685788Y296293D01*
X7657500Y301920D01*
D02*
G37*
G36*
X7610000D02*
X7582500D01*
X7554212Y296293D01*
X7530231Y280269D01*
X7514207Y256288D01*
X7508580Y228000D01*
Y180500D01*
X7610000D01*
Y301920D01*
D02*
G37*
G36*
X7403500D02*
X7376000D01*
Y180500D01*
X7477420D01*
Y228000D01*
X7471793Y256288D01*
X7455769Y280269D01*
X7431788Y296293D01*
X7403500Y301920D01*
D02*
G37*
G36*
X7356000D02*
X7328500D01*
X7300212Y296293D01*
X7276231Y280269D01*
X7260207Y256288D01*
X7254580Y228000D01*
Y180500D01*
X7356000D01*
Y301920D01*
D02*
G37*
G36*
X2069500D02*
X2042000D01*
Y180500D01*
X2143420D01*
Y228000D01*
X2137793Y256288D01*
X2121769Y280269D01*
X2097788Y296293D01*
X2069500Y301920D01*
D02*
G37*
G36*
X2022000D02*
X1994500D01*
X1966212Y296293D01*
X1942231Y280269D01*
X1926207Y256288D01*
X1920580Y228000D01*
Y180500D01*
X2022000D01*
Y301920D01*
D02*
G37*
%LPD*%
D86*
X8263000Y455000D02*
D03*
X8113000Y2275000D02*
D03*
Y5005000D02*
D03*
X8263000Y3185000D02*
D03*
D90*
X1480000Y345000D02*
D03*
D91*
Y695000D02*
D03*
D92*
X2380667Y1287523D02*
D03*
X8569185Y2737375D02*
D03*
X8552500Y2559739D02*
D03*
X5639965Y4382866D02*
D03*
X5439190Y3644282D02*
D03*
X5543187Y3694652D02*
D03*
X6570000Y1380000D02*
D03*
X6909461Y1373397D02*
D03*
X4599494Y1619981D02*
D03*
X4510000Y2670000D02*
D03*
X2350000Y3210000D02*
D03*
X8336372Y684779D02*
D03*
X3950000Y2250000D02*
D03*
X3795090Y2117655D02*
D03*
X4008448Y1334383D02*
D03*
X4109413Y1779007D02*
D03*
X5091511Y4826774D02*
D03*
X4731207Y4827546D02*
D03*
X5969054Y4625903D02*
D03*
X6583957Y1223066D02*
D03*
X3440000Y3630000D02*
D03*
X3000000Y2200000D02*
D03*
Y2430000D02*
D03*
X2410000Y1930000D02*
D03*
Y1700000D02*
D03*
X3554238Y1637718D02*
D03*
X6981659Y2564787D02*
D03*
X6574714Y923815D02*
D03*
X5584281Y2736198D02*
D03*
X5246126Y2465041D02*
D03*
X4306654Y1298722D02*
D03*
X4220000Y1480000D02*
D03*
X4230000Y1540000D02*
D03*
X4330000Y2220000D02*
D03*
X5391499Y3954002D02*
D03*
X5401082Y2210489D02*
D03*
X5401488Y1770850D02*
D03*
X5395308Y2711469D02*
D03*
X4364802Y2633201D02*
D03*
X5160000Y1700000D02*
D03*
X5463722Y1916669D02*
D03*
X5632761Y1943620D02*
D03*
X4750000Y3410000D02*
D03*
X4850000Y3450000D02*
D03*
X4960000Y3240000D02*
D03*
X4966787Y956458D02*
D03*
X4444097Y3326817D02*
D03*
X3139476Y4624019D02*
D03*
X2927766Y4177072D02*
D03*
X3110000Y4560000D02*
D03*
X3259993Y3139994D02*
D03*
X2980000Y3170001D02*
D03*
X2938364Y4609819D02*
D03*
X3392500Y2550000D02*
D03*
X4089577Y3458928D02*
D03*
X3499875Y3182500D02*
D03*
X4089999Y2717500D02*
D03*
X3520000Y2350000D02*
D03*
X2610278Y2037934D02*
D03*
X3453859Y2169371D02*
D03*
X4048113Y1964887D02*
D03*
X3239578Y1866066D02*
D03*
X3900347Y1212274D02*
D03*
X3390000Y1030000D02*
D03*
X2722076Y3263632D02*
D03*
X7007572Y3764473D02*
D03*
X6945811Y3768675D02*
D03*
X7651751Y3740325D02*
D03*
X6705711Y3634924D02*
D03*
X7208707Y3634883D02*
D03*
X7417279Y1163852D02*
D03*
X7454341Y881220D02*
D03*
X7528805Y834542D02*
D03*
X7532020Y733311D02*
D03*
X7527955Y676064D02*
D03*
X7367773Y881230D02*
D03*
X7388651Y1235212D02*
D03*
X8213919Y4389499D02*
D03*
X8225547Y4147272D02*
D03*
X8196010Y3966066D02*
D03*
X8205223Y4024776D02*
D03*
X8210000Y4090000D02*
D03*
X7650000Y1179333D02*
D03*
X6962354Y1377731D02*
D03*
X7780000Y1400000D02*
D03*
X6925887Y1458315D02*
D03*
X7709582Y834248D02*
D03*
X7638749Y1028212D02*
D03*
X7439767Y2005211D02*
D03*
X7804298Y1845702D02*
D03*
X7445615Y2055562D02*
D03*
X7463088Y2155165D02*
D03*
X7440746Y2202500D02*
D03*
X7451513Y2474524D02*
D03*
X7443479Y2621749D02*
D03*
X6335369Y2064996D02*
D03*
X6330000Y2220000D02*
D03*
X6342677Y2268366D02*
D03*
X6792748Y2418006D02*
D03*
X6338042Y1867057D02*
D03*
X6331219Y1814952D02*
D03*
X6550367Y1920716D02*
D03*
X6391872Y1995771D02*
D03*
X6490000Y2550000D02*
D03*
X5503002Y1075600D02*
D03*
X6300000Y1610000D02*
D03*
X6550780Y1328225D02*
D03*
X6366643Y1175064D02*
D03*
X6490986Y1111819D02*
D03*
X6550000Y860000D02*
D03*
X6668093Y828380D02*
D03*
X5410000Y880000D02*
D03*
X6469871Y611393D02*
D03*
X7630000Y620000D02*
D03*
X6981610Y601044D02*
D03*
X7159078Y624207D02*
D03*
X6594271Y3653251D02*
D03*
X6831596Y3870000D02*
D03*
X6780000Y3400000D02*
D03*
X8182143Y2814823D02*
D03*
X8223537Y2606359D02*
D03*
X8117549Y3006671D02*
D03*
X7210000Y3800000D02*
D03*
X7717762Y736535D02*
D03*
X3259697Y1115924D02*
D03*
X6940000Y2947500D02*
D03*
X7852918Y2962686D02*
D03*
X8181422Y2878977D02*
D03*
X8181230Y2945002D02*
D03*
X7849778Y2631825D02*
D03*
X7880000Y1920000D02*
D03*
X7650000Y2280000D02*
D03*
Y2445000D02*
D03*
X7529112Y2444793D02*
D03*
X8131039Y2610196D02*
D03*
X8070000Y2450000D02*
D03*
X8130000Y2510000D02*
D03*
X8340407Y2047135D02*
D03*
X8274077Y1960350D02*
D03*
X8250991Y1910622D02*
D03*
X8343944Y1938175D02*
D03*
X8340906Y1869523D02*
D03*
X4500000Y4500000D02*
D03*
X5101347Y4503003D02*
D03*
X4751347D02*
D03*
X4921347Y2563003D02*
D03*
X6332200Y864003D02*
D03*
X6731497Y875833D02*
D03*
X6343119Y744003D02*
D03*
X6339046Y619481D02*
D03*
X5628845Y1664897D02*
D03*
X5592089Y1702985D02*
D03*
X5641227Y2324889D02*
D03*
X5825260Y2235833D02*
D03*
X5620000Y2000000D02*
D03*
X5619286Y2054045D02*
D03*
X5982366Y4273059D02*
D03*
X7520656Y4099404D02*
D03*
X8182685Y4642287D02*
D03*
X5600865Y3493579D02*
D03*
X5990551Y3539929D02*
D03*
X5960045Y2706612D02*
D03*
X6573796Y2813468D02*
D03*
X7185789Y2899534D02*
D03*
X6794371Y2714635D02*
D03*
X6380000Y3180000D02*
D03*
X7265540Y4278122D02*
D03*
X6949095Y4828738D02*
D03*
X7329264Y4827195D02*
D03*
X7850000Y4630000D02*
D03*
X7183075Y2593718D02*
D03*
X7262744Y2474203D02*
D03*
X7251723Y2624881D02*
D03*
X7250633Y2154582D02*
D03*
X7257710Y1991396D02*
D03*
X6787656Y1992762D02*
D03*
X6150000Y1660000D02*
D03*
X6130251Y1814943D02*
D03*
X6147726Y1865823D02*
D03*
X6680000Y2280001D02*
D03*
X5986360Y1060716D02*
D03*
X6374129Y1224924D02*
D03*
X6353138Y1325106D02*
D03*
X5908597Y763530D02*
D03*
X7471172Y1554359D02*
D03*
X6778295Y1595643D02*
D03*
X7442489Y1223123D02*
D03*
X7458943Y1079929D02*
D03*
X7364207Y1548600D02*
D03*
X6970983Y993664D02*
D03*
X6843436Y1057733D02*
D03*
X7470000Y830000D02*
D03*
X7456884Y1027268D02*
D03*
X7820000Y1050000D02*
D03*
X5894331Y1178451D02*
D03*
X5910706Y1229467D02*
D03*
X5880474Y1275444D02*
D03*
X5862353Y1446317D02*
D03*
X5720000Y1290000D02*
D03*
X5275076Y1241599D02*
D03*
X4823740Y1240134D02*
D03*
X4822417Y1140418D02*
D03*
X4870496Y1065889D02*
D03*
X4916830Y958541D02*
D03*
X5287568Y1086075D02*
D03*
X5320000Y1130000D02*
D03*
X5294387Y966075D02*
D03*
X5321854Y923496D02*
D03*
X5307534Y757266D02*
D03*
X3515675Y1155029D02*
D03*
X2680532Y600491D02*
D03*
X6142965Y2074473D02*
D03*
X6139320Y2225882D02*
D03*
X6151221Y2276914D02*
D03*
X6344372Y2125552D02*
D03*
X6670672Y2714062D02*
D03*
X7290000Y4220000D02*
D03*
X4860000Y1460000D02*
D03*
X5468170Y1578802D02*
D03*
X5972225Y3738184D02*
D03*
X8050000Y3260000D02*
D03*
X7850000Y530000D02*
D03*
X7141946Y1005659D02*
D03*
X4780000Y1380000D02*
D03*
X3343313Y718731D02*
D03*
X4319500Y959500D02*
D03*
X3901347Y1308653D02*
D03*
X3260339Y800579D02*
D03*
X3470000Y1050000D02*
D03*
X3198847Y941388D02*
D03*
X2127080Y1183054D02*
D03*
X1960000Y1817392D02*
D03*
X5599722Y1768096D02*
D03*
X5597932Y2191787D02*
D03*
X5847336Y830870D02*
D03*
X5854327Y935673D02*
D03*
X5854999Y1325000D02*
D03*
X6002746Y1790909D02*
D03*
Y2210001D02*
D03*
X6963499Y795281D02*
D03*
X6750000Y2200000D02*
D03*
X6797500Y2566485D02*
D03*
X6750000Y2850000D02*
D03*
X6670000Y2640000D02*
D03*
X6682471Y2585249D02*
D03*
X7410000Y4700000D02*
D03*
X6913016Y4603016D02*
D03*
X5403661Y2315116D02*
D03*
X5122333Y2713076D02*
D03*
X2543568Y2919950D02*
D03*
X5814897Y2701733D02*
D03*
X5859988Y2959994D02*
D03*
X5245030Y1398108D02*
D03*
X6260000Y1290000D02*
D03*
Y887379D02*
D03*
X6150811Y1714006D02*
D03*
X5831296Y1867204D02*
D03*
X6089273Y1402302D02*
D03*
X6090000Y990000D02*
D03*
X6363452Y909664D02*
D03*
X5594827Y2111606D02*
D03*
X7147500Y1156486D02*
D03*
X7152358Y1507069D02*
D03*
X7154477Y845000D02*
D03*
X6615000Y1340370D02*
D03*
X7140000Y2130000D02*
D03*
X7000924Y2869064D02*
D03*
X6970000Y2213213D02*
D03*
X8190000Y1660000D02*
D03*
X5603879Y1110165D02*
D03*
X7210000Y3325000D02*
D03*
X7707500Y1050495D02*
D03*
X8350383Y3520454D02*
D03*
X7718011Y884968D02*
D03*
X4560639Y4052602D02*
D03*
X5580000Y2950000D02*
D03*
X5490000Y3100000D02*
D03*
X4640052Y3398326D02*
D03*
X5527472Y2810000D02*
D03*
X4900000Y3990000D02*
D03*
X4800000Y3989014D02*
D03*
X5495072Y3540833D02*
D03*
X6697740Y3864157D02*
D03*
X6441988Y3962577D02*
D03*
X6492088Y4081153D02*
D03*
X6359182Y3751310D02*
D03*
X7110000Y3325024D02*
D03*
X6358297Y3646994D02*
D03*
X6357981Y3949526D02*
D03*
X5531224Y1129757D02*
D03*
X5542259Y972754D02*
D03*
X4558761Y3037421D02*
D03*
X4399547Y3283233D02*
D03*
X4175870Y718223D02*
D03*
X2550432Y910944D02*
D03*
X3330000Y1470000D02*
D03*
X3340380Y1746653D02*
D03*
X2241823Y3817545D02*
D03*
X3168890Y3903603D02*
D03*
X3490000Y4100000D02*
D03*
X3640000Y1930000D02*
D03*
X3017681Y1001305D02*
D03*
X5810000Y3060000D02*
D03*
X5170000Y3600000D02*
D03*
X4610000Y4180000D02*
D03*
X4999571Y3840468D02*
D03*
X7550000Y4480000D02*
D03*
X6358173Y3451494D02*
D03*
X6965772Y1978753D02*
D03*
X1810833Y1870415D02*
D03*
X6849131Y4627216D02*
D03*
X6530000Y4670000D02*
D03*
X6410000Y4590000D02*
D03*
X6398170Y4489057D02*
D03*
X6801229Y3169430D02*
D03*
X6609365Y3434038D02*
D03*
X3931452Y832573D02*
D03*
X6692653Y4336911D02*
D03*
X7179667Y4373121D02*
D03*
X7047500Y4490000D02*
D03*
X7200000Y4480000D02*
D03*
X5968082Y4340141D02*
D03*
X5750000Y4510000D02*
D03*
X5424918Y4327451D02*
D03*
X6545530Y3772500D02*
D03*
X5080000Y3960000D02*
D03*
X6921096Y3976761D02*
D03*
X6771333Y3973312D02*
D03*
X6545000Y4012500D02*
D03*
X7210000Y4130000D02*
D03*
X6610000Y3730000D02*
D03*
X6443518Y3653792D02*
D03*
X6695952Y3549687D02*
D03*
X6844695Y4195084D02*
D03*
X7096269Y3870175D02*
D03*
X4360000Y4721722D02*
D03*
X6740000Y4140000D02*
D03*
X7272500Y2525455D02*
D03*
Y2674747D02*
D03*
Y2054765D02*
D03*
Y2204391D02*
D03*
X5908991Y4626532D02*
D03*
X6623751Y4357570D02*
D03*
X6160000Y4590000D02*
D03*
X7210790Y4721611D02*
D03*
X7540000Y4580000D02*
D03*
X5550000Y4630000D02*
D03*
X5499863Y4632256D02*
D03*
X5141408Y4549718D02*
D03*
X5209939Y4555019D02*
D03*
X5908557Y814952D02*
D03*
X4120000Y4570000D02*
D03*
X6680000Y4840000D02*
D03*
X5240000Y4850000D02*
D03*
X4390000D02*
D03*
X3620000Y4550000D02*
D03*
X4022208Y4695489D02*
D03*
X4010000Y4530000D02*
D03*
X5713689Y4890134D02*
D03*
X7035770Y4389633D02*
D03*
X6351000Y4624083D02*
D03*
X4083501Y779788D02*
D03*
X2721526Y4827756D02*
D03*
X2821915Y4830749D02*
D03*
X1956782Y1021469D02*
D03*
X1872100Y1474775D02*
D03*
X3148932Y742512D02*
D03*
X3835270Y1182957D02*
D03*
X3885916Y1140456D02*
D03*
X4279925Y716551D02*
D03*
X6753371Y2114523D02*
D03*
X6759394Y2034384D02*
D03*
X4510801Y3693668D02*
D03*
X4510639Y3765770D02*
D03*
X4713598Y2973046D02*
D03*
X4709536Y2907273D02*
D03*
X4562262Y3101914D02*
D03*
X5100000Y830000D02*
D03*
X5522500Y780000D02*
D03*
X5412500D02*
D03*
X5178937Y821950D02*
D03*
X4430000Y3690000D02*
D03*
X5273930Y624879D02*
D03*
X8180000Y4710000D02*
D03*
X7446979Y2675922D02*
D03*
X7440046Y2524425D02*
D03*
X8263173Y3560225D02*
D03*
X8262746Y3497006D02*
D03*
X8342706Y3417398D02*
D03*
X8338790Y3573566D02*
D03*
X6146343Y2124915D02*
D03*
X6335978Y1715116D02*
D03*
X6369784Y1375467D02*
D03*
X8237078Y837239D02*
D03*
X8279247Y752676D02*
D03*
X7638831Y1080000D02*
D03*
X8244326Y924809D02*
D03*
X8254941Y1004912D02*
D03*
X8340000Y750000D02*
D03*
X7638017Y1230000D02*
D03*
X8186743Y839696D02*
D03*
X8339120Y4628445D02*
D03*
X8190097Y1000173D02*
D03*
X8336335Y1164376D02*
D03*
X8339832Y1564061D02*
D03*
X8335876Y1646753D02*
D03*
X8339173Y1805640D02*
D03*
X8339531Y3655497D02*
D03*
Y3895251D02*
D03*
X8340000Y4775000D02*
D03*
X8336858Y4295000D02*
D03*
X8338650Y4535000D02*
D03*
X8188231Y1717282D02*
D03*
X8338507Y1721834D02*
D03*
X8190960Y1472841D02*
D03*
X8190000Y1420000D02*
D03*
X8191135Y1312606D02*
D03*
X8185072Y1261180D02*
D03*
X8335341Y4680295D02*
D03*
X8194955Y4439638D02*
D03*
X8333828Y4389101D02*
D03*
X8333073Y4441828D02*
D03*
X8190000Y3720000D02*
D03*
X8330000D02*
D03*
X4660000Y3540000D02*
D03*
X5452481Y3430081D02*
D03*
X5211075Y3725690D02*
D03*
X4617952Y4340233D02*
D03*
X5122086Y2843916D02*
D03*
X5122718Y3168584D02*
D03*
X5120000Y2970000D02*
D03*
X4399284Y2814947D02*
D03*
X2007255Y4699313D02*
D03*
X2356010Y4700798D02*
D03*
X3480000Y4680000D02*
D03*
X3455458Y4401433D02*
D03*
X3679868Y4307891D02*
D03*
X3995327Y3694868D02*
D03*
X3679400Y3694491D02*
D03*
X3910010Y4305052D02*
D03*
X2872337Y4410493D02*
D03*
X2199302Y4269783D02*
D03*
X2639250Y4282943D02*
D03*
X3329814Y3813335D02*
D03*
X3437287Y3448980D02*
D03*
X4280000Y1860000D02*
D03*
X3259728Y1310946D02*
D03*
X2720000Y960000D02*
D03*
X3000433Y801168D02*
D03*
X2409956Y630605D02*
D03*
X1499738Y1226361D02*
D03*
X2064939Y1368211D02*
D03*
X2008492Y1298202D02*
D03*
X2250000Y1580000D02*
D03*
X2415559Y1525693D02*
D03*
X2510000Y2630000D02*
D03*
X2299407Y2977139D02*
D03*
X2365367Y3034777D02*
D03*
D93*
X2339569Y850000D02*
D03*
X6060000Y2930000D02*
D03*
X2381848Y2502839D02*
D03*
X5789822Y2913968D02*
D03*
X4039453Y3961484D02*
D03*
X4039563Y4047198D02*
D03*
X1300500Y5283500D02*
D03*
Y5003500D02*
D03*
X1620500D02*
D03*
Y5283500D02*
D03*
D94*
X3920000Y2548000D02*
D03*
Y2748000D02*
D03*
Y2948000D02*
D03*
Y3148000D02*
D03*
Y3348000D02*
D03*
X3680000Y2548000D02*
D03*
Y2748000D02*
D03*
Y2948000D02*
D03*
Y3148000D02*
D03*
Y3348000D02*
D03*
D95*
X2032000Y170500D02*
D03*
X2286000D02*
D03*
X2540000D02*
D03*
X2794000D02*
D03*
X3048000D02*
D03*
X3302000D02*
D03*
X3556000D02*
D03*
X3810000D02*
D03*
X4064000D02*
D03*
X4318000D02*
D03*
X4572000D02*
D03*
X4826000D02*
D03*
X5080000D02*
D03*
X5334000D02*
D03*
X5588000D02*
D03*
X5842000D02*
D03*
X6096000D02*
D03*
X6350000D02*
D03*
X6604000D02*
D03*
X6858000D02*
D03*
X7112000D02*
D03*
X7366000D02*
D03*
X7620000D02*
D03*
X2032000Y464500D02*
D03*
X2286000D02*
D03*
X2540000D02*
D03*
X2794000D02*
D03*
X3048000D02*
D03*
X3302000D02*
D03*
X3556000D02*
D03*
X3810000D02*
D03*
X4064000D02*
D03*
X4318000D02*
D03*
X4572000D02*
D03*
X4826000D02*
D03*
X5080000D02*
D03*
X5334000D02*
D03*
X5588000D02*
D03*
X5842000D02*
D03*
X6096000D02*
D03*
X6350000D02*
D03*
X6604000D02*
D03*
X6858000D02*
D03*
X7112000D02*
D03*
X7366000D02*
D03*
X7620000D02*
D03*
X2032000Y4996500D02*
D03*
X2286000D02*
D03*
X2540000D02*
D03*
X2794000D02*
D03*
X3048000D02*
D03*
X3302000D02*
D03*
X3556000D02*
D03*
X3810000D02*
D03*
X4064000D02*
D03*
X4318000D02*
D03*
X4572000D02*
D03*
X4826000D02*
D03*
X5080000D02*
D03*
X5334000D02*
D03*
X5588000D02*
D03*
X5842000D02*
D03*
X6096000D02*
D03*
X6350000D02*
D03*
X6604000D02*
D03*
X6858000D02*
D03*
X7112000D02*
D03*
X7366000D02*
D03*
X7620000D02*
D03*
X2032000Y5290500D02*
D03*
X2286000D02*
D03*
X2540000D02*
D03*
X2794000D02*
D03*
X3048000D02*
D03*
X3302000D02*
D03*
X3556000D02*
D03*
X3810000D02*
D03*
X4064000D02*
D03*
X4318000D02*
D03*
X4572000D02*
D03*
X4826000D02*
D03*
X5080000D02*
D03*
X5334000D02*
D03*
X5588000D02*
D03*
X5842000D02*
D03*
X6096000D02*
D03*
X6350000D02*
D03*
X6604000D02*
D03*
X6858000D02*
D03*
X7112000D02*
D03*
X7366000D02*
D03*
X7620000D02*
D03*
D96*
X1460500Y5143500D02*
D03*
%TF.MD5,0b871cf108e17254dc47f4f648a1a9b0*%
M02*
