%TF.GenerationSoftware,Altium Limited,Altium Designer,25.3.3 (18)*%
G04 Layer_Physical_Order=6*
G04 Layer_Color=16711680*
%FSLAX45Y45*%
%MOMM*%
%TF.SameCoordinates,5572F933-5C96-4131-A983-9EF7CB378A5A*%
%TF.FilePolarity,Positive*%
%TF.FileFunction,Copper,L6,Bot,Signal*%
%TF.Part,Single*%
G01*
G75*
%TA.AperFunction,SMDPad,CuDef*%
G04:AMPARAMS|DCode=43|XSize=1.65mm|YSize=1.25mm|CornerRadius=0.3125mm|HoleSize=0mm|Usage=FLASHONLY|Rotation=270.000|XOffset=0mm|YOffset=0mm|HoleType=Round|Shape=RoundedRectangle|*
%AMROUNDEDRECTD43*
21,1,1.65000,0.62500,0,0,270.0*
21,1,1.02500,1.25000,0,0,270.0*
1,1,0.62500,-0.31250,-0.51250*
1,1,0.62500,-0.31250,0.51250*
1,1,0.62500,0.31250,0.51250*
1,1,0.62500,0.31250,-0.51250*
%
%ADD43ROUNDEDRECTD43*%
G04:AMPARAMS|DCode=54|XSize=1.65mm|YSize=1.25mm|CornerRadius=0.3125mm|HoleSize=0mm|Usage=FLASHONLY|Rotation=0.000|XOffset=0mm|YOffset=0mm|HoleType=Round|Shape=RoundedRectangle|*
%AMROUNDEDRECTD54*
21,1,1.65000,0.62500,0,0,0.0*
21,1,1.02500,1.25000,0,0,0.0*
1,1,0.62500,0.51250,-0.31250*
1,1,0.62500,-0.51250,-0.31250*
1,1,0.62500,-0.51250,0.31250*
1,1,0.62500,0.51250,0.31250*
%
%ADD54ROUNDEDRECTD54*%
%TA.AperFunction,Conductor*%
%ADD70C,0.40000*%
%ADD71C,0.20000*%
%ADD72C,0.25000*%
%ADD73C,0.50000*%
%ADD74C,0.30000*%
%TA.AperFunction,ComponentPad*%
G04:AMPARAMS|DCode=84|XSize=1.4mm|YSize=1.7mm|CornerRadius=0.35mm|HoleSize=0mm|Usage=FLASHONLY|Rotation=270.000|XOffset=0mm|YOffset=0mm|HoleType=Round|Shape=RoundedRectangle|*
%AMROUNDEDRECTD84*
21,1,1.40000,1.00000,0,0,270.0*
21,1,0.70000,1.70000,0,0,270.0*
1,1,0.70000,-0.50000,-0.35000*
1,1,0.70000,-0.50000,0.35000*
1,1,0.70000,0.50000,0.35000*
1,1,0.70000,0.50000,-0.35000*
%
%ADD84ROUNDEDRECTD84*%
G04:AMPARAMS|DCode=85|XSize=1.4mm|YSize=1.7mm|CornerRadius=0mm|HoleSize=0mm|Usage=FLASHONLY|Rotation=270.000|XOffset=0mm|YOffset=0mm|HoleType=Round|Shape=Octagon|*
%AMOCTAGOND85*
4,1,8,0.85000,0.35000,0.85000,-0.35000,0.50000,-0.70000,-0.50000,-0.70000,-0.85000,-0.35000,-0.85000,0.35000,-0.50000,0.70000,0.50000,0.70000,0.85000,0.35000,0.0*
%
%ADD85OCTAGOND85*%

G04:AMPARAMS|DCode=86|XSize=1.55mm|YSize=1.6mm|CornerRadius=0.3875mm|HoleSize=0mm|Usage=FLASHONLY|Rotation=270.000|XOffset=0mm|YOffset=0mm|HoleType=Round|Shape=RoundedRectangle|*
%AMROUNDEDRECTD86*
21,1,1.55000,0.82500,0,0,270.0*
21,1,0.77500,1.60000,0,0,270.0*
1,1,0.77500,-0.41250,-0.38750*
1,1,0.77500,-0.41250,0.38750*
1,1,0.77500,0.41250,0.38750*
1,1,0.77500,0.41250,-0.38750*
%
%ADD86ROUNDEDRECTD86*%
G04:AMPARAMS|DCode=87|XSize=1.7mm|YSize=2.1mm|CornerRadius=0mm|HoleSize=0mm|Usage=FLASHONLY|Rotation=0.000|XOffset=0mm|YOffset=0mm|HoleType=Round|Shape=Octagon|*
%AMOCTAGOND87*
4,1,8,-0.42500,1.05000,0.42500,1.05000,0.85000,0.62500,0.85000,-0.62500,0.42500,-1.05000,-0.42500,-1.05000,-0.85000,-0.62500,-0.85000,0.62500,-0.42500,1.05000,0.0*
%
%ADD87OCTAGOND87*%

G04:AMPARAMS|DCode=88|XSize=1.7mm|YSize=2.1mm|CornerRadius=0.425mm|HoleSize=0mm|Usage=FLASHONLY|Rotation=0.000|XOffset=0mm|YOffset=0mm|HoleType=Round|Shape=RoundedRectangle|*
%AMROUNDEDRECTD88*
21,1,1.70000,1.25001,0,0,0.0*
21,1,0.85000,2.10000,0,0,0.0*
1,1,0.85000,0.42500,-0.62500*
1,1,0.85000,-0.42500,-0.62500*
1,1,0.85000,-0.42500,0.62500*
1,1,0.85000,0.42500,0.62500*
%
%ADD88ROUNDEDRECTD88*%
G04:AMPARAMS|DCode=89|XSize=4mm|YSize=3.6mm|CornerRadius=0.54mm|HoleSize=0mm|Usage=FLASHONLY|Rotation=0.000|XOffset=0mm|YOffset=0mm|HoleType=Round|Shape=RoundedRectangle|*
%AMROUNDEDRECTD89*
21,1,4.00000,2.52000,0,0,0.0*
21,1,2.92000,3.60000,0,0,0.0*
1,1,1.08000,1.46000,-1.26000*
1,1,1.08000,-1.46000,-1.26000*
1,1,1.08000,-1.46000,1.26000*
1,1,1.08000,1.46000,1.26000*
%
%ADD89ROUNDEDRECTD89*%
G04:AMPARAMS|DCode=90|XSize=2.2mm|YSize=2.2mm|CornerRadius=0.55mm|HoleSize=0mm|Usage=FLASHONLY|Rotation=270.000|XOffset=0mm|YOffset=0mm|HoleType=Round|Shape=RoundedRectangle|*
%AMROUNDEDRECTD90*
21,1,2.20000,1.10000,0,0,270.0*
21,1,1.10000,2.20000,0,0,270.0*
1,1,1.10000,-0.55000,-0.55000*
1,1,1.10000,-0.55000,0.55000*
1,1,1.10000,0.55000,0.55000*
1,1,1.10000,0.55000,-0.55000*
%
%ADD90ROUNDEDRECTD90*%
G04:AMPARAMS|DCode=91|XSize=2.2mm|YSize=2.2mm|CornerRadius=0mm|HoleSize=0mm|Usage=FLASHONLY|Rotation=270.000|XOffset=0mm|YOffset=0mm|HoleType=Round|Shape=Octagon|*
%AMOCTAGOND91*
4,1,8,-0.55000,-1.10000,0.55000,-1.10000,1.10000,-0.55000,1.10000,0.55000,0.55000,1.10000,-0.55000,1.10000,-1.10000,0.55000,-1.10000,-0.55000,-0.55000,-1.10000,0.0*
%
%ADD91OCTAGOND91*%

%TA.AperFunction,ViaPad*%
%ADD92C,0.35000*%
%ADD93C,0.60000*%
G36*
X6549458Y5187877D02*
X6547178Y5188245D01*
X6544713Y5188149D01*
X6542062Y5187590D01*
X6539226Y5186566D01*
X6536205Y5185078D01*
X6532999Y5183127D01*
X6529608Y5180711D01*
X6526032Y5177832D01*
X6518324Y5170682D01*
X6504182Y5184824D01*
X6507989Y5188770D01*
X6514212Y5196108D01*
X6516627Y5199499D01*
X6518578Y5202705D01*
X6520066Y5205726D01*
X6521090Y5208562D01*
X6521649Y5211212D01*
X6521745Y5213678D01*
X6521377Y5215958D01*
X6549458Y5187877D01*
D02*
G37*
G36*
X2999117Y5186535D02*
X2995817Y5186542D01*
X2992366Y5186050D01*
X2988764Y5185058D01*
X2985012Y5183568D01*
X2981108Y5181579D01*
X2977053Y5179090D01*
X2972847Y5176103D01*
X2968491Y5172617D01*
X2959325Y5164147D01*
X2941647Y5181824D01*
X2946132Y5186483D01*
X2953603Y5195347D01*
X2956591Y5199553D01*
X2959079Y5203608D01*
X2961068Y5207511D01*
X2962559Y5211264D01*
X2963550Y5214866D01*
X2964042Y5218317D01*
X2964035Y5221617D01*
X2999117Y5186535D01*
D02*
G37*
G36*
X8434462Y5410484D02*
X8485651Y5389281D01*
X8529609Y5355551D01*
X8563338Y5311594D01*
X8584542Y5260404D01*
X8589867Y5219955D01*
X8591113Y5205471D01*
X8591116Y5205460D01*
X8591116Y5190471D01*
X8591180Y2793177D01*
X8582473Y2787358D01*
X8576180Y2784875D01*
X8559736D01*
X8549676Y2780707D01*
X8476077D01*
Y2816579D01*
X8471809Y2838039D01*
X8459653Y2856231D01*
X8269560Y3046324D01*
X8254996Y3056055D01*
X8259182Y3071055D01*
X8304250D01*
X8333025Y3076779D01*
X8357420Y3093079D01*
X8373721Y3117474D01*
X8379445Y3146250D01*
Y3175000D01*
X8263000D01*
Y3185000D01*
X8253000D01*
Y3298945D01*
X8221750D01*
X8192974Y3293221D01*
X8168580Y3276921D01*
X8154568Y3255951D01*
X8137922Y3251383D01*
X8089653Y3299653D01*
X8071460Y3311809D01*
X8050000Y3316077D01*
X8028540Y3311809D01*
X8010347Y3299653D01*
X7998191Y3281460D01*
X7993923Y3260000D01*
X7998191Y3238540D01*
X8010347Y3220347D01*
X8061472Y3169223D01*
Y3006671D01*
X8065740Y2985211D01*
X8077896Y2967019D01*
X8096089Y2954863D01*
X8117549Y2950594D01*
X8133730D01*
Y2935554D01*
X8140961Y2918096D01*
X8154323Y2904734D01*
X8171781Y2897503D01*
X8190678D01*
X8208136Y2904734D01*
X8221498Y2918096D01*
X8221510Y2918125D01*
X8236222Y2921051D01*
X8363923Y2793351D01*
Y2740000D01*
Y1992711D01*
X8353392Y1985674D01*
X8334495D01*
X8317855Y1978782D01*
X8314345Y1987256D01*
X8300983Y2000618D01*
X8283525Y2007849D01*
X8264629D01*
X8247170Y2000618D01*
X8233809Y1987256D01*
X8226577Y1969798D01*
Y1951923D01*
X8224084Y1950891D01*
X8210722Y1937529D01*
X8203491Y1920071D01*
Y1901174D01*
X8210722Y1883716D01*
X8224084Y1870354D01*
X8241543Y1863123D01*
X8260439D01*
X8277897Y1870354D01*
X8278406Y1870863D01*
X8293406Y1864649D01*
Y1860075D01*
X8300637Y1842617D01*
X8313999Y1829255D01*
X8331458Y1822023D01*
X8350354D01*
X8351451Y1822477D01*
X8363923Y1814144D01*
Y1776219D01*
X8351451Y1767885D01*
X8347955Y1769334D01*
X8329058D01*
X8311600Y1762102D01*
X8298238Y1748740D01*
X8291007Y1731282D01*
Y1712385D01*
X8298238Y1694927D01*
X8307557Y1685609D01*
X8295607Y1673660D01*
X8288376Y1656201D01*
Y1637305D01*
X8295607Y1619847D01*
X8308969Y1606485D01*
X8326427Y1599253D01*
X8345324D01*
X8348922Y1600744D01*
X8363923Y1590721D01*
Y805004D01*
X8351451Y796670D01*
X8349448Y797500D01*
X8330552D01*
X8313094Y790268D01*
X8310962Y788137D01*
X8306154Y792945D01*
X8288696Y800176D01*
X8288140D01*
X8285608Y802559D01*
X8279353Y815176D01*
X8284578Y827791D01*
Y846687D01*
X8277347Y864145D01*
X8263985Y877507D01*
X8246527Y884739D01*
X8227630D01*
X8214368Y879245D01*
X8213649Y879965D01*
X8196191Y887196D01*
X8177294D01*
X8159836Y879965D01*
X8146474Y866603D01*
X8139243Y849145D01*
Y830248D01*
X8146474Y812790D01*
X8159836Y799428D01*
X8177294Y792197D01*
X8196191D01*
X8209452Y797690D01*
X8210172Y796970D01*
X8227630Y789739D01*
X8228186D01*
X8230718Y787356D01*
X8236973Y774739D01*
X8231748Y762124D01*
Y743228D01*
X8238979Y725770D01*
X8252341Y712408D01*
X8269799Y705176D01*
X8288696D01*
X8306154Y712408D01*
X8308286Y714540D01*
X8313094Y709732D01*
X8330552Y702500D01*
X8349448D01*
X8355023Y688642D01*
X8355568Y682538D01*
X8319108Y646077D01*
X7910000D01*
X7888540Y641809D01*
X7870347Y629653D01*
X7810347Y569653D01*
X7798191Y551460D01*
X7793923Y530000D01*
X7798191Y508540D01*
X7810347Y490347D01*
X7828540Y478191D01*
X7850000Y473923D01*
X7871460Y478191D01*
X7889653Y490347D01*
X7933228Y533923D01*
X8143227D01*
X8151563Y518923D01*
X8146555Y493750D01*
Y465000D01*
X8263000D01*
X8379445D01*
Y493750D01*
X8373721Y522526D01*
X8371651Y525624D01*
X8375893Y546274D01*
X8381989Y550347D01*
X8459653Y628011D01*
X8471809Y646204D01*
X8476077Y667664D01*
Y2694042D01*
X8549676D01*
X8559736Y2689875D01*
X8578633D01*
X8578711Y2689907D01*
X8591183Y2681574D01*
X8591247Y270194D01*
X8591247Y269996D01*
Y255256D01*
X8589999Y240773D01*
X8584683Y200394D01*
X8563507Y149271D01*
X8529821Y105371D01*
X8485921Y71685D01*
X8434798Y50509D01*
X8381926Y43549D01*
X8379938Y43944D01*
X7730948D01*
X7722930Y58944D01*
X7735503Y77761D01*
X7741518Y108000D01*
Y160500D01*
X7620000D01*
Y180500D01*
X7741518D01*
Y233000D01*
X7735503Y263239D01*
X7718374Y288874D01*
X7692739Y306003D01*
X7673386Y309853D01*
Y325147D01*
X7692739Y328997D01*
X7718374Y346126D01*
X7735503Y371761D01*
X7741518Y402000D01*
Y454500D01*
X7620000D01*
Y474500D01*
X7741518D01*
Y527000D01*
X7735503Y557239D01*
X7718374Y582874D01*
X7692739Y600003D01*
X7681996Y602140D01*
X7677500Y610552D01*
Y629448D01*
X7672290Y642025D01*
X7672253Y642214D01*
X7672146Y642374D01*
X7670783Y645663D01*
Y695125D01*
X7685783Y701338D01*
X7690855Y696267D01*
X7708313Y689035D01*
X7727210D01*
X7744668Y696267D01*
X7758030Y709629D01*
X7765261Y727087D01*
Y745983D01*
X7758030Y763441D01*
X7744668Y776803D01*
X7739444Y778967D01*
X7738059Y786004D01*
X7738220Y795710D01*
X7749851Y807341D01*
X7757082Y824799D01*
Y843696D01*
X7753225Y853007D01*
X7758279Y858062D01*
X7765511Y875520D01*
Y894416D01*
X7758279Y911874D01*
X7744917Y925236D01*
X7727459Y932468D01*
X7708563D01*
X7691105Y925236D01*
X7685783Y919915D01*
X7670783Y926129D01*
Y970000D01*
X7667679Y985607D01*
X7665933Y988221D01*
X7679017Y1001306D01*
X7681152Y1001953D01*
X7686040Y998687D01*
X7707500Y994418D01*
X7728960Y998687D01*
X7747153Y1010843D01*
X7759309Y1029036D01*
X7763577Y1050495D01*
Y1798035D01*
X7772413Y1802767D01*
X7778577Y1804943D01*
X7794850Y1798202D01*
X7813746D01*
X7831204Y1805434D01*
X7844566Y1818796D01*
X7851798Y1836254D01*
Y1855150D01*
X7847630Y1865211D01*
Y1867744D01*
X7859281Y1877169D01*
X7870552Y1872500D01*
X7889448D01*
X7906906Y1879732D01*
X7920268Y1893093D01*
X7927500Y1910552D01*
Y1929448D01*
X7922290Y1942025D01*
X7922253Y1942214D01*
X7922146Y1942374D01*
X7920783Y1945663D01*
Y2323107D01*
X8009518Y2411842D01*
X8040983D01*
X8043094Y2409731D01*
X8060552Y2402500D01*
X8063009D01*
X8064487Y2387500D01*
X8042974Y2383221D01*
X8018579Y2366921D01*
X8002279Y2342526D01*
X7996555Y2313750D01*
Y2285000D01*
X8103000D01*
Y2388945D01*
X8085920D01*
X8082937Y2403945D01*
X8096907Y2409731D01*
X8110269Y2423093D01*
X8117500Y2440551D01*
Y2459448D01*
X8110269Y2476906D01*
X8096907Y2490268D01*
X8079448Y2497499D01*
X8060552D01*
X8053133Y2494427D01*
X8052674Y2494392D01*
X8050940Y2493518D01*
X8050831Y2493473D01*
X8050545Y2493409D01*
X7992625D01*
X7977018Y2490304D01*
X7963787Y2481464D01*
X7963786Y2481463D01*
X7887659Y2405336D01*
X7873801Y2411076D01*
Y2546376D01*
X7880418Y2552993D01*
X7889812Y2567050D01*
X7893110Y2583633D01*
Y2612316D01*
X7897277Y2622377D01*
Y2641273D01*
X7890046Y2658732D01*
X7876684Y2672093D01*
X7859226Y2679325D01*
X7840329D01*
X7822871Y2672093D01*
X7809509Y2658732D01*
X7802278Y2641273D01*
Y2622377D01*
X7806445Y2612316D01*
Y2601582D01*
X7799828Y2594965D01*
X7790435Y2580907D01*
X7787137Y2564325D01*
Y1933631D01*
X7777351Y1925846D01*
X7763577Y1931870D01*
Y2387500D01*
X7759309Y2408960D01*
X7747153Y2427153D01*
X7689653Y2484653D01*
X7671460Y2496809D01*
X7650000Y2501077D01*
X7628540Y2496809D01*
X7610347Y2484653D01*
X7598191Y2466460D01*
X7593923Y2445000D01*
X7598191Y2423540D01*
X7610347Y2405347D01*
X7651423Y2364272D01*
Y1280144D01*
X7647465Y1277500D01*
X7628569D01*
X7611111Y1270269D01*
X7605783Y1264941D01*
X7590783Y1271155D01*
Y1770000D01*
X7587679Y1785607D01*
X7578838Y1798838D01*
X7578838Y1798839D01*
X7434966Y1942711D01*
X7441179Y1957711D01*
X7449215D01*
X7466673Y1964942D01*
X7480035Y1978304D01*
X7487266Y1995763D01*
Y2014659D01*
X7482762Y2025534D01*
X7485884Y2028655D01*
X7493115Y2046113D01*
Y2065010D01*
X7485884Y2082468D01*
X7474764Y2093588D01*
X7474623Y2094478D01*
X7475789Y2104448D01*
X7477842Y2109862D01*
X7489995Y2114896D01*
X7503357Y2128258D01*
X7510588Y2145717D01*
Y2164613D01*
X7503357Y2182071D01*
X7489995Y2195433D01*
X7488246Y2196158D01*
Y2211948D01*
X7481015Y2229407D01*
X7467653Y2242768D01*
X7450194Y2250000D01*
X7431298D01*
X7413840Y2242768D01*
X7405784Y2234712D01*
X7390784Y2240926D01*
Y2433740D01*
X7425850D01*
X7429139Y2432378D01*
X7429299Y2432271D01*
X7429487Y2432233D01*
X7442064Y2427024D01*
X7460961D01*
X7478419Y2434255D01*
X7491781Y2447617D01*
X7499012Y2465075D01*
Y2483972D01*
X7491781Y2501430D01*
X7484818Y2508393D01*
X7487545Y2514977D01*
Y2533874D01*
X7480314Y2551332D01*
X7466952Y2564694D01*
X7467436Y2571966D01*
X7474619Y2583835D01*
X7490226Y2586939D01*
X7503457Y2595780D01*
X7623706Y2716029D01*
X7624072Y2716322D01*
X7625184Y2717078D01*
X7626259Y2717688D01*
X7627322Y2718181D01*
X7628425Y2718585D01*
X7629613Y2718913D01*
X7630934Y2719165D01*
X7631402Y2719217D01*
X7964341D01*
X8084054Y2599504D01*
X8085416Y2596217D01*
X8085454Y2596026D01*
X8085562Y2595865D01*
X8090770Y2583289D01*
X8104132Y2569927D01*
X8121591Y2562696D01*
X8140487D01*
X8157945Y2569927D01*
X8167161Y2579143D01*
X8180698Y2579403D01*
X8185168Y2577553D01*
X8196630Y2566091D01*
X8214088Y2558859D01*
X8232985D01*
X8250443Y2566091D01*
X8263805Y2579453D01*
X8271037Y2596911D01*
Y2615807D01*
X8263805Y2633265D01*
X8250443Y2646627D01*
X8232985Y2653859D01*
X8214088D01*
X8196630Y2646627D01*
X8187415Y2637412D01*
X8173877Y2637152D01*
X8169408Y2639001D01*
X8157945Y2650464D01*
X8145370Y2655673D01*
X8145208Y2655781D01*
X8145018Y2655819D01*
X8141731Y2657180D01*
X8010073Y2788838D01*
X7996842Y2797679D01*
X7981234Y2800784D01*
X7981233Y2800784D01*
X7650784D01*
Y3333107D01*
X7680589Y3362912D01*
X7680590Y3362913D01*
X7689430Y3376144D01*
X7692535Y3391751D01*
Y3714662D01*
X7693897Y3717951D01*
X7694004Y3718111D01*
X7694042Y3718299D01*
X7699251Y3730876D01*
Y3749773D01*
X7692020Y3767231D01*
X7678658Y3780593D01*
X7661200Y3787825D01*
X7642303D01*
X7624845Y3780593D01*
X7611483Y3767231D01*
X7604251Y3749773D01*
Y3730876D01*
X7609461Y3718299D01*
X7609499Y3718111D01*
X7609606Y3717951D01*
X7610968Y3714662D01*
Y3408644D01*
X7581162Y3378838D01*
X7572321Y3365607D01*
X7569216Y3350000D01*
X7569217Y3349999D01*
Y2781402D01*
X7569165Y2780934D01*
X7568913Y2779613D01*
X7568584Y2778422D01*
X7568181Y2777322D01*
X7567688Y2776258D01*
X7567079Y2775186D01*
X7566322Y2774072D01*
X7566029Y2773706D01*
X7500169Y2707846D01*
X7480593Y2709483D01*
X7473885Y2716190D01*
X7456427Y2723422D01*
X7437530D01*
X7420072Y2716190D01*
X7406710Y2702828D01*
X7399479Y2685370D01*
Y2670680D01*
X7384393Y2667679D01*
X7371162Y2658838D01*
X7371161Y2658838D01*
X7321162Y2608838D01*
X7312321Y2595607D01*
X7309216Y2580000D01*
X7309217Y2579999D01*
Y2575513D01*
X7294216Y2567874D01*
X7281948Y2572955D01*
X7263052D01*
X7245594Y2565724D01*
X7232232Y2552362D01*
X7225000Y2534904D01*
Y2516007D01*
X7232232Y2498549D01*
X7245594Y2485187D01*
X7263052Y2477956D01*
X7281948D01*
X7294217Y2483037D01*
X7298015Y2482268D01*
X7306927Y2476803D01*
X7309217Y2474250D01*
Y2254448D01*
X7294216Y2246809D01*
X7281948Y2251891D01*
X7263052D01*
X7245594Y2244659D01*
X7232232Y2231298D01*
X7225000Y2213839D01*
Y2194943D01*
X7232232Y2177485D01*
X7245594Y2164123D01*
X7263052Y2156891D01*
X7281948D01*
X7294217Y2161973D01*
X7296420Y2161683D01*
X7307093Y2155554D01*
X7309217Y2153186D01*
Y2104822D01*
X7294216Y2097184D01*
X7281948Y2102265D01*
X7263052D01*
X7245594Y2095034D01*
X7232232Y2081672D01*
X7225000Y2064214D01*
Y2045317D01*
X7232232Y2027859D01*
X7245594Y2014497D01*
X7263052Y2007265D01*
X7281948D01*
X7294217Y2012347D01*
X7296943Y2011920D01*
X7307039Y2005988D01*
X7309217Y2003560D01*
Y1970001D01*
X7309216Y1970000D01*
X7312321Y1954393D01*
X7321162Y1941161D01*
X7509216Y1753107D01*
Y1180000D01*
Y1118044D01*
X7494216Y1111831D01*
X7485850Y1120198D01*
X7468391Y1127429D01*
X7449495D01*
X7432037Y1120198D01*
X7428082Y1116243D01*
X7413082Y1122456D01*
Y1167654D01*
X7428082Y1177677D01*
X7433040Y1175623D01*
X7451937D01*
X7469395Y1182854D01*
X7482757Y1196216D01*
X7489988Y1213674D01*
Y1232571D01*
X7482757Y1250029D01*
X7469395Y1263391D01*
X7451937Y1270623D01*
X7433040D01*
X7424113Y1266925D01*
X7415557Y1275481D01*
X7398099Y1282712D01*
X7379202D01*
X7361744Y1275481D01*
X7348382Y1262119D01*
X7341151Y1244661D01*
Y1241647D01*
X7340421Y1240288D01*
X7334619Y1231604D01*
X7331514Y1215997D01*
X7331515Y1215995D01*
Y963265D01*
X7331514Y963263D01*
X7334619Y947656D01*
X7343460Y934425D01*
X7375007Y902878D01*
X7375007Y902878D01*
X7375008Y902877D01*
X7407357Y870528D01*
X7408719Y867240D01*
X7408756Y867051D01*
X7408863Y866891D01*
X7414073Y854314D01*
X7424386Y844001D01*
X7422500Y839448D01*
Y820552D01*
X7429732Y803094D01*
X7443094Y789732D01*
X7460552Y782500D01*
X7479448D01*
X7496907Y789732D01*
X7510268Y803094D01*
X7517500Y820552D01*
Y839448D01*
X7510268Y856907D01*
X7499955Y867220D01*
X7501841Y871772D01*
Y890669D01*
X7494610Y908127D01*
X7481248Y921489D01*
X7468671Y926698D01*
X7468511Y926805D01*
X7468322Y926843D01*
X7465034Y928205D01*
X7432684Y960554D01*
X7432683Y960555D01*
X7413082Y980157D01*
Y1037403D01*
X7428082Y1043616D01*
X7432037Y1039661D01*
X7449495Y1032429D01*
X7468391D01*
X7485850Y1039661D01*
X7494795Y1048606D01*
X7494854Y1048611D01*
X7510431Y1043895D01*
X7512321Y1034393D01*
X7521161Y1021162D01*
X7561161Y981162D01*
X7561162Y981162D01*
X7589216Y953107D01*
Y830001D01*
X7589216Y830000D01*
X7589216Y829999D01*
Y758548D01*
X7574216Y755564D01*
X7572289Y760218D01*
X7558927Y773580D01*
X7541469Y780811D01*
X7522572D01*
X7505114Y773580D01*
X7491752Y760218D01*
X7484521Y742760D01*
Y723863D01*
X7491752Y706405D01*
X7505114Y693043D01*
X7522572Y685812D01*
X7541469D01*
X7558927Y693043D01*
X7572289Y706405D01*
X7574216Y711059D01*
X7589216Y708075D01*
Y660784D01*
X7560001D01*
X7560000Y660784D01*
X7544393Y657679D01*
X7531161Y648838D01*
X7531161Y648838D01*
X7474859Y592536D01*
X7470866Y588857D01*
X7453839Y589913D01*
X7438739Y600003D01*
X7408500Y606018D01*
X7376000D01*
Y464500D01*
X7366000D01*
Y454500D01*
X7244482D01*
Y402000D01*
X7249475Y376898D01*
X7240572Y364495D01*
X7232367Y364550D01*
X7223626Y377896D01*
X7228420Y402000D01*
Y527000D01*
X7222793Y555288D01*
X7206769Y579270D01*
X7200724Y583309D01*
X7199346Y597301D01*
X7206578Y614758D01*
Y633655D01*
X7199346Y651113D01*
X7185984Y664475D01*
X7168526Y671707D01*
X7149630D01*
X7141108Y668177D01*
X7140496Y668112D01*
X7139034Y667318D01*
X7138164Y666957D01*
X7070720D01*
X6998103Y739574D01*
X6998064Y742731D01*
X7003319Y755571D01*
X7013527Y757601D01*
X7026758Y766442D01*
X7093119Y832804D01*
X7109937Y828408D01*
X7114209Y818094D01*
X7127571Y804732D01*
X7145029Y797500D01*
X7163926D01*
X7181384Y804732D01*
X7194746Y818094D01*
X7201977Y835552D01*
Y854448D01*
X7194746Y871907D01*
X7181384Y885268D01*
X7171070Y889541D01*
X7166674Y906358D01*
X7218838Y958522D01*
X7218838Y958523D01*
X7227679Y971754D01*
X7230784Y987361D01*
X7230784Y987363D01*
Y1369999D01*
X7230784Y1370000D01*
X7227679Y1385608D01*
X7218838Y1398839D01*
X7218838Y1398839D01*
X7171842Y1445835D01*
X7176095Y1462795D01*
X7188405Y1471021D01*
X7199457Y1487560D01*
X7203337Y1507069D01*
Y2117643D01*
X7199457Y2137152D01*
X7188405Y2153691D01*
X7176048Y2166048D01*
X7159509Y2177099D01*
X7140000Y2180980D01*
X7120491Y2177099D01*
X7103952Y2166048D01*
X7092901Y2149509D01*
X7089021Y2130000D01*
X7092901Y2110491D01*
X7101378Y2097805D01*
Y1535897D01*
X7087520Y1530157D01*
X6762319Y1855358D01*
X6768059Y1869216D01*
X6859998D01*
X6860000Y1869216D01*
X6875607Y1872321D01*
X6888838Y1881162D01*
X6944024Y1936348D01*
X6956324Y1931253D01*
X6975220D01*
X6992679Y1938485D01*
X7006041Y1951847D01*
X7013272Y1969305D01*
Y1988202D01*
X7006041Y2005660D01*
X6992679Y2019022D01*
X6975220Y2026253D01*
X6956324D01*
X6943747Y2021043D01*
X6943558Y2021006D01*
X6943398Y2020899D01*
X6940109Y2019537D01*
X6928753D01*
X6913146Y2016432D01*
X6899915Y2007592D01*
X6899914Y2007591D01*
X6843106Y1950784D01*
X6716391D01*
X6618651Y2048524D01*
Y2360622D01*
X6618651Y2360623D01*
X6615546Y2376231D01*
X6606706Y2389462D01*
X6606705Y2389462D01*
X6506841Y2489326D01*
X6510361Y2507020D01*
X6516906Y2509732D01*
X6530268Y2523094D01*
X6537500Y2540552D01*
Y2559448D01*
X6530268Y2576906D01*
X6516906Y2590268D01*
X6499448Y2597500D01*
X6480552D01*
X6463093Y2590268D01*
X6449732Y2576907D01*
X6433434Y2576758D01*
X6430783Y2578246D01*
Y2741942D01*
X6444641Y2747682D01*
X6581161Y2611162D01*
X6581162Y2611162D01*
X6594393Y2602321D01*
X6610000Y2599217D01*
X6631951D01*
X6634971Y2594697D01*
Y2575801D01*
X6642202Y2558343D01*
X6655564Y2544981D01*
X6673022Y2537749D01*
X6691919D01*
X6709377Y2544981D01*
X6722739Y2558343D01*
X6724186Y2561836D01*
X6727096Y2562475D01*
X6744470Y2551164D01*
X6745691Y2545025D01*
X6757847Y2526832D01*
X6776040Y2514676D01*
X6797500Y2510407D01*
X6813923D01*
Y2343228D01*
X6710347Y2239653D01*
X6698191Y2221460D01*
X6693923Y2200000D01*
X6698191Y2178540D01*
X6710347Y2160347D01*
X6713509Y2158234D01*
X6714980Y2143307D01*
X6713102Y2141430D01*
X6705871Y2123971D01*
Y2105075D01*
X6713102Y2087617D01*
X6718671Y2082048D01*
X6719836Y2062000D01*
X6719126Y2061290D01*
X6711894Y2043832D01*
Y2024935D01*
X6719126Y2007477D01*
X6732488Y1994115D01*
X6749946Y1986884D01*
X6768842D01*
X6786301Y1994115D01*
X6799663Y2007477D01*
X6806894Y2024935D01*
Y2043832D01*
X6799663Y2061290D01*
X6794094Y2066858D01*
X6792929Y2086907D01*
X6793639Y2087617D01*
X6800871Y2105075D01*
Y2123971D01*
X6793639Y2141430D01*
X6789701Y2145367D01*
X6792794Y2163488D01*
X6909653Y2280347D01*
X6921809Y2298540D01*
X6926077Y2320000D01*
Y2535654D01*
X6941077Y2538638D01*
X6941391Y2537881D01*
X6954753Y2524519D01*
X6972211Y2517288D01*
X6991108D01*
X7008566Y2524519D01*
X7021928Y2537881D01*
X7029159Y2555339D01*
Y2574236D01*
X7021928Y2591694D01*
X7008566Y2605056D01*
X6996203Y2610177D01*
X6990959Y2626145D01*
X7028736Y2663923D01*
X7114042D01*
X7135502Y2668191D01*
X7153695Y2680347D01*
X7449653Y2976305D01*
X7461809Y2994498D01*
X7466077Y3015958D01*
Y4700000D01*
X7461809Y4721460D01*
X7449653Y4739653D01*
X7431460Y4751809D01*
X7410000Y4756077D01*
X7388540Y4751809D01*
X7370347Y4739653D01*
X7289788Y4659094D01*
X6913016D01*
X6891556Y4654825D01*
X6890159Y4653892D01*
X6889399Y4654122D01*
X6876037Y4667484D01*
X6858579Y4674715D01*
X6839683D01*
X6822224Y4667484D01*
X6808862Y4654122D01*
X6801631Y4636664D01*
Y4617767D01*
X6806841Y4605190D01*
X6806878Y4605001D01*
X6806985Y4604841D01*
X6808347Y4601553D01*
Y4599843D01*
X6613059Y4404555D01*
X6609770Y4403193D01*
X6609582Y4403155D01*
X6609422Y4403048D01*
X6596845Y4397839D01*
X6583483Y4384477D01*
X6576251Y4367018D01*
Y4348122D01*
X6583483Y4330664D01*
X6596845Y4317302D01*
X6614303Y4310070D01*
X6633199D01*
X6649552Y4316844D01*
X6652385Y4310004D01*
X6665747Y4296642D01*
X6683205Y4289411D01*
X6702101D01*
X6719560Y4296642D01*
X6732922Y4310004D01*
X6740153Y4327463D01*
Y4346359D01*
X6732922Y4363817D01*
X6719560Y4377179D01*
X6718934Y4377438D01*
X6716008Y4392150D01*
X6877968Y4554111D01*
X6877969Y4554112D01*
X6880821Y4558380D01*
X6891556Y4551208D01*
X6913016Y4546939D01*
X7021642D01*
X7024626Y4531939D01*
X7020594Y4530269D01*
X7007232Y4516907D01*
X7000000Y4499448D01*
Y4480552D01*
X7007232Y4463094D01*
X7019700Y4450626D01*
X7020049Y4444168D01*
X7019068Y4434128D01*
X7008863Y4429901D01*
X6995501Y4416539D01*
X6988270Y4399081D01*
Y4380184D01*
X6995501Y4362726D01*
X7008863Y4349364D01*
X7026321Y4342133D01*
X7045218D01*
X7062676Y4349364D01*
X7076038Y4362726D01*
X7083269Y4380184D01*
Y4399081D01*
X7076038Y4416539D01*
X7063570Y4429007D01*
X7063220Y4435465D01*
X7064202Y4445505D01*
X7074406Y4449732D01*
X7087768Y4463094D01*
X7095000Y4480552D01*
Y4499448D01*
X7087768Y4516907D01*
X7074406Y4530269D01*
X7070374Y4531939D01*
X7073358Y4546939D01*
X7313016D01*
X7334476Y4551208D01*
X7338923Y4554179D01*
X7353923Y4546161D01*
Y3456110D01*
X7342327Y3446594D01*
X7331250Y3448798D01*
X7310000D01*
Y3330000D01*
Y3211202D01*
X7331250D01*
X7342327Y3213406D01*
X7353923Y3203890D01*
Y3039186D01*
X7090814Y2776077D01*
X7005508D01*
X6984048Y2771809D01*
X6965855Y2759653D01*
X6929935Y2723733D01*
X6916077Y2729473D01*
Y2740000D01*
X6911809Y2761460D01*
X6899653Y2779653D01*
X6789653Y2889653D01*
X6771460Y2901809D01*
X6750000Y2906077D01*
X6728541Y2901809D01*
X6710348Y2889653D01*
X6698192Y2871460D01*
X6693923Y2850000D01*
X6698192Y2828540D01*
X6710348Y2810347D01*
X6803923Y2716772D01*
Y2622562D01*
X6797500D01*
X6776040Y2618293D01*
X6757847Y2606138D01*
X6745691Y2587945D01*
X6744971Y2584321D01*
X6729971Y2585798D01*
Y2594697D01*
X6722739Y2612156D01*
X6713646Y2621249D01*
X6717500Y2630552D01*
Y2649448D01*
X6710269Y2666907D01*
X6700480Y2676695D01*
X6710940Y2687155D01*
X6718172Y2704613D01*
Y2723510D01*
X6710940Y2740968D01*
X6697578Y2754330D01*
X6680120Y2761561D01*
X6661224D01*
X6643765Y2754330D01*
X6630404Y2740968D01*
X6623172Y2723510D01*
Y2705718D01*
X6620212Y2703163D01*
X6609675Y2698002D01*
X6480784Y2826893D01*
Y3010000D01*
X6477679Y3025607D01*
X6468838Y3038838D01*
X6468838Y3038839D01*
X6320783Y3186893D01*
Y3597734D01*
X6335784Y3604906D01*
X6348848Y3599494D01*
X6367745D01*
X6385203Y3606726D01*
X6398565Y3620088D01*
X6413409Y3616727D01*
X6416612Y3613524D01*
X6434070Y3606293D01*
X6452967D01*
X6470425Y3613524D01*
X6483787Y3626886D01*
X6491018Y3644344D01*
Y3663241D01*
X6483787Y3680699D01*
X6470425Y3694061D01*
X6452967Y3701292D01*
X6434070D01*
X6416612Y3694061D01*
X6403250Y3680699D01*
X6388406Y3684060D01*
X6385203Y3687263D01*
X6367745Y3694494D01*
X6348848D01*
X6335784Y3689082D01*
X6320783Y3696254D01*
Y3899950D01*
X6335784Y3907307D01*
X6348532Y3902026D01*
X6367429D01*
X6384887Y3909258D01*
X6395903Y3920274D01*
X6412173Y3925217D01*
X6415082Y3922309D01*
X6432540Y3915077D01*
X6451436D01*
X6468895Y3922309D01*
X6482257Y3935671D01*
X6489488Y3953129D01*
Y3972025D01*
X6482257Y3989484D01*
X6468895Y4002845D01*
X6451436Y4010077D01*
X6432540D01*
X6415082Y4002845D01*
X6404066Y3991829D01*
X6387796Y3986886D01*
X6384887Y3989794D01*
X6367429Y3997026D01*
X6348532D01*
X6335784Y3991745D01*
X6320783Y3999102D01*
Y4230357D01*
X6632838Y4542412D01*
X6641679Y4555643D01*
X6644784Y4571250D01*
X6644784Y4571251D01*
Y4788443D01*
X6659784Y4796960D01*
X6670552Y4792500D01*
X6689448D01*
X6706907Y4799732D01*
X6720269Y4813093D01*
X6727500Y4830552D01*
Y4849448D01*
X6720269Y4866906D01*
X6706907Y4880268D01*
X6704061Y4889650D01*
X6714793Y4905712D01*
X6720420Y4934000D01*
Y5059000D01*
X6714793Y5087288D01*
X6698769Y5111270D01*
X6674788Y5127294D01*
X6646500Y5132920D01*
X6561500D01*
X6541290Y5128900D01*
X6533901Y5142725D01*
X6543374Y5152197D01*
X6546048Y5154678D01*
X6548088Y5156320D01*
X6548557Y5156654D01*
X6561500Y5154080D01*
X6646500D01*
X6674788Y5159706D01*
X6698769Y5175730D01*
X6714793Y5199712D01*
X6720420Y5228000D01*
Y5353000D01*
X6714793Y5381288D01*
X6700917Y5402056D01*
X6706074Y5417056D01*
X6755926D01*
X6761083Y5402056D01*
X6747207Y5381288D01*
X6741580Y5353000D01*
Y5228000D01*
X6747207Y5199712D01*
X6763231Y5175730D01*
X6787212Y5159706D01*
X6815500Y5154080D01*
X6900500D01*
X6928788Y5159706D01*
X6952769Y5175730D01*
X6968793Y5199712D01*
X6974420Y5228000D01*
Y5353000D01*
X6968793Y5381288D01*
X6954917Y5402056D01*
X6960074Y5417056D01*
X7009926D01*
X7015083Y5402056D01*
X7001207Y5381288D01*
X6995580Y5353000D01*
Y5228000D01*
X7001207Y5199712D01*
X7017231Y5175730D01*
X7041212Y5159706D01*
X7069500Y5154080D01*
X7154500D01*
X7182788Y5159706D01*
X7206769Y5175730D01*
X7222793Y5199712D01*
X7228420Y5228000D01*
Y5353000D01*
X7222793Y5381288D01*
X7208917Y5402056D01*
X7214074Y5417056D01*
X7263926D01*
X7269083Y5402056D01*
X7255207Y5381288D01*
X7249580Y5353000D01*
Y5228000D01*
X7255207Y5199712D01*
X7271231Y5175730D01*
X7295212Y5159706D01*
X7323500Y5154080D01*
X7408500D01*
X7436788Y5159706D01*
X7460769Y5175730D01*
X7476793Y5199712D01*
X7482420Y5228000D01*
Y5353000D01*
X7476793Y5381288D01*
X7462917Y5402056D01*
X7468074Y5417056D01*
X7517926D01*
X7523083Y5402056D01*
X7509207Y5381288D01*
X7503580Y5353000D01*
Y5228000D01*
X7509207Y5199712D01*
X7525231Y5175730D01*
X7549212Y5159706D01*
X7577500Y5154080D01*
X7662500D01*
X7690788Y5159706D01*
X7714769Y5175730D01*
X7730793Y5199712D01*
X7736420Y5228000D01*
Y5353000D01*
X7730793Y5381288D01*
X7716917Y5402056D01*
X7722074Y5417056D01*
X8379531D01*
X8381527Y5417453D01*
X8434462Y5410484D01*
D02*
G37*
G36*
X6253083Y5402056D02*
X6239207Y5381288D01*
X6233580Y5353000D01*
Y5228000D01*
X6239207Y5199712D01*
X6255231Y5175730D01*
X6279212Y5159706D01*
X6307500Y5154080D01*
X6392500D01*
X6420788Y5159706D01*
X6427432Y5164146D01*
X6431699Y5162772D01*
X6440932Y5155126D01*
X6439216Y5146500D01*
X6439216Y5146499D01*
Y5130890D01*
X6425988Y5123819D01*
X6420788Y5127294D01*
X6392500Y5132920D01*
X6307500D01*
X6279212Y5127294D01*
X6255231Y5111270D01*
X6239207Y5087288D01*
X6233580Y5059000D01*
Y4934000D01*
X6239207Y4905712D01*
X6255231Y4881730D01*
X6279212Y4865707D01*
X6307500Y4860080D01*
X6392500D01*
X6420788Y4865707D01*
X6425988Y4869181D01*
X6439216Y4862110D01*
Y4645547D01*
X6424216Y4635525D01*
X6419448Y4637500D01*
X6400552D01*
X6397397Y4636193D01*
X6391269Y4650989D01*
X6377907Y4664351D01*
X6360449Y4671582D01*
X6341552D01*
X6324094Y4664351D01*
X6310732Y4650989D01*
X6303500Y4633531D01*
Y4614634D01*
X6307442Y4605119D01*
X6194642Y4492318D01*
X6180784Y4498059D01*
Y4515060D01*
X6180784Y4515061D01*
X6177679Y4530668D01*
X6176271Y4532776D01*
X6180625Y4547130D01*
X6186907Y4549732D01*
X6200269Y4563093D01*
X6207500Y4580552D01*
Y4599448D01*
X6200269Y4616906D01*
X6186907Y4630268D01*
X6169448Y4637500D01*
X6150552D01*
X6133094Y4630268D01*
X6119732Y4616906D01*
X6117898Y4612478D01*
X6103186Y4609552D01*
X6015496Y4697242D01*
X6002265Y4706083D01*
X5986658Y4709187D01*
X5986657Y4709187D01*
X5950863D01*
X5950862Y4709187D01*
X5935255Y4706083D01*
X5922024Y4697242D01*
X5898299Y4673517D01*
X5895010Y4672155D01*
X5894822Y4672117D01*
X5894662Y4672010D01*
X5882085Y4666801D01*
X5868723Y4653439D01*
X5861491Y4635981D01*
Y4617084D01*
X5868723Y4599626D01*
X5882085Y4586264D01*
X5899543Y4579032D01*
X5918439D01*
X5935897Y4586264D01*
X5938708Y4589074D01*
X5942147Y4585635D01*
X5954724Y4580425D01*
X5954884Y4580318D01*
X5955073Y4580281D01*
X5958362Y4578919D01*
X6064217Y4473064D01*
Y3097012D01*
X6064216Y3097011D01*
X6067321Y3081404D01*
X6076162Y3068173D01*
X6168507Y2975828D01*
Y2935931D01*
X6158075Y2930355D01*
X6153506Y2929273D01*
X6131250Y2933700D01*
X6119999D01*
Y2941935D01*
X6110865Y2963987D01*
X6093987Y2980866D01*
X6071934Y2990000D01*
X6048065D01*
X6026012Y2980866D01*
X6009134Y2963987D01*
X6000000Y2941935D01*
Y2918065D01*
X6009134Y2896013D01*
X6010281Y2894866D01*
Y2891264D01*
X6006300Y2871250D01*
Y2768750D01*
X6011054Y2744852D01*
X6024591Y2724591D01*
X6044852Y2711054D01*
X6068750Y2706300D01*
X6131250D01*
X6153506Y2710727D01*
X6158075Y2709645D01*
X6168507Y2704069D01*
Y2510001D01*
X6168506Y2510000D01*
X6171611Y2494393D01*
X6180452Y2481162D01*
X6331890Y2329724D01*
X6327081Y2313319D01*
X6315770Y2308634D01*
X6302408Y2295273D01*
X6295177Y2277814D01*
Y2258918D01*
X6297100Y2254275D01*
X6289732Y2246906D01*
X6284522Y2234329D01*
X6284415Y2234169D01*
X6284378Y2233981D01*
X6283015Y2230692D01*
X6261162Y2208838D01*
X6252321Y2195607D01*
X6249216Y2180000D01*
X6249217Y2179999D01*
Y2060001D01*
X6249216Y2060000D01*
X6249217Y2059999D01*
Y1828929D01*
X6249216Y1828927D01*
X6249217Y1828926D01*
Y1624061D01*
X6249216Y1624059D01*
X6252321Y1608452D01*
X6252500Y1608183D01*
Y1600552D01*
X6257710Y1587975D01*
X6257747Y1587786D01*
X6257854Y1587626D01*
X6259217Y1584337D01*
Y1579007D01*
X6259216Y1579005D01*
X6262321Y1563398D01*
X6271162Y1550167D01*
X6384504Y1436825D01*
X6381341Y1428510D01*
X6377149Y1422967D01*
X6360335D01*
X6342877Y1415735D01*
X6329515Y1402373D01*
X6322284Y1384915D01*
Y1366019D01*
X6329515Y1348560D01*
X6342877Y1335198D01*
X6360335Y1327967D01*
X6379232D01*
X6396690Y1335198D01*
X6410052Y1348560D01*
X6417283Y1366019D01*
Y1382832D01*
X6422827Y1387024D01*
X6431142Y1390187D01*
X6493104Y1328225D01*
X6462148Y1297269D01*
X6453307Y1284038D01*
X6450202Y1268431D01*
X6450203Y1268430D01*
Y1137482D01*
X6448841Y1134193D01*
X6448734Y1134033D01*
X6448696Y1133844D01*
X6443486Y1121267D01*
Y1102370D01*
X6448696Y1089793D01*
X6448734Y1089605D01*
X6448841Y1089445D01*
X6450203Y1086156D01*
Y919015D01*
X6450202Y919014D01*
X6453307Y903407D01*
X6462148Y890176D01*
X6503015Y849308D01*
X6504378Y846019D01*
X6504415Y845831D01*
X6504522Y845671D01*
X6507710Y837975D01*
X6507747Y837786D01*
X6507854Y837626D01*
X6509217Y834337D01*
Y708416D01*
X6459178Y658378D01*
X6455890Y657016D01*
X6455701Y656978D01*
X6455541Y656871D01*
X6442964Y651662D01*
X6429602Y638300D01*
X6422371Y620842D01*
Y610273D01*
X6409672Y598087D01*
X6408513Y597735D01*
X6392500Y600920D01*
X6307500D01*
X6279212Y595293D01*
X6255231Y579270D01*
X6239207Y555288D01*
X6233580Y527000D01*
Y402000D01*
X6238374Y377896D01*
X6229633Y364550D01*
X6221428Y364495D01*
X6212525Y376898D01*
X6217518Y402000D01*
Y454500D01*
X5974482D01*
Y402000D01*
X5979475Y376898D01*
X5970572Y364495D01*
X5962367Y364550D01*
X5953626Y377896D01*
X5958420Y402000D01*
Y527000D01*
X5952793Y555288D01*
X5936769Y579270D01*
X5912788Y595293D01*
X5884500Y600920D01*
X5799500D01*
X5771212Y595293D01*
X5747231Y579270D01*
X5731207Y555288D01*
X5725580Y527000D01*
Y402000D01*
X5730794Y375784D01*
X5727214Y366243D01*
X5724296Y360784D01*
X5705704D01*
X5702786Y366243D01*
X5699206Y375784D01*
X5704420Y402000D01*
Y527000D01*
X5698793Y555288D01*
X5682769Y579270D01*
X5658788Y595293D01*
X5630500Y600920D01*
X5545500D01*
X5517212Y595293D01*
X5514012Y593156D01*
X5500784Y600226D01*
Y724303D01*
X5513052Y732500D01*
X5531948D01*
X5549406Y739732D01*
X5562768Y753093D01*
X5570000Y770552D01*
Y789448D01*
X5562768Y806906D01*
X5549406Y820268D01*
X5531948Y827500D01*
X5515411D01*
X5512364Y828021D01*
X5499193Y837996D01*
X5497679Y845607D01*
X5488838Y858839D01*
X5456985Y890692D01*
X5455623Y893981D01*
X5455585Y894169D01*
X5455478Y894329D01*
X5452290Y902025D01*
X5452253Y902214D01*
X5452146Y902374D01*
X5450784Y905663D01*
Y965704D01*
X5486472Y1001392D01*
X5499188Y992895D01*
X5494759Y982203D01*
Y963306D01*
X5501990Y945848D01*
X5515352Y932486D01*
X5532810Y925254D01*
X5551707D01*
X5569165Y932486D01*
X5582527Y945848D01*
X5589758Y963306D01*
Y982203D01*
X5582527Y999661D01*
X5569165Y1013023D01*
X5551707Y1020254D01*
X5538893D01*
X5528620Y1031453D01*
X5527625Y1034112D01*
X5527728Y1034428D01*
X5529909Y1035331D01*
X5543271Y1048693D01*
X5549921Y1064748D01*
X5556348Y1067564D01*
X5565502Y1069776D01*
X5582069Y1058706D01*
X5603529Y1054437D01*
X5624989Y1058706D01*
X5637348Y1066964D01*
X5652348Y1059635D01*
Y946870D01*
X5652347Y946869D01*
X5655452Y931262D01*
X5664293Y918031D01*
X5780291Y802033D01*
X5780291Y802032D01*
X5793523Y793191D01*
X5809130Y790087D01*
X5821673D01*
X5824961Y788725D01*
X5825121Y788618D01*
X5825310Y788580D01*
X5837887Y783371D01*
X5856784D01*
X5868257Y788123D01*
X5868289Y788045D01*
X5881651Y774683D01*
X5899109Y767452D01*
X5918005D01*
X5935464Y774683D01*
X5948826Y788045D01*
X5956057Y805503D01*
Y824400D01*
X5948826Y841858D01*
X5946471Y844213D01*
Y844313D01*
X5943366Y859920D01*
X5934526Y873151D01*
X5934525Y873152D01*
X5898838Y908838D01*
X5897243Y909904D01*
X5901426Y916164D01*
X5905306Y935673D01*
X5901426Y955182D01*
X5890375Y971721D01*
X5857149Y1004947D01*
Y1196251D01*
X5864099Y1199551D01*
X5872149Y1200849D01*
X5883800Y1189198D01*
X5901258Y1181967D01*
X5920154D01*
X5937612Y1189198D01*
X5950974Y1202560D01*
X5953885Y1209587D01*
X5954136Y1209872D01*
X5954754Y1211678D01*
X5954945Y1211970D01*
X5989083Y1246108D01*
X5989084Y1246109D01*
X5997925Y1259340D01*
X6001029Y1274947D01*
X6001029Y1274948D01*
Y1743409D01*
X6012194D01*
X6029652Y1750641D01*
X6043014Y1764003D01*
X6050245Y1781461D01*
Y1800357D01*
X6043014Y1817816D01*
X6029652Y1831177D01*
X6012194Y1838409D01*
X6001029D01*
Y2162501D01*
X6012194D01*
X6029652Y2169732D01*
X6043014Y2183094D01*
X6050245Y2200552D01*
Y2219449D01*
X6043014Y2236907D01*
X6029652Y2250269D01*
X6012194Y2257500D01*
X6001029D01*
Y2449754D01*
X5997925Y2465362D01*
X5989084Y2478593D01*
X5989083Y2478593D01*
X5773671Y2694006D01*
X5781060Y2707830D01*
X5788750Y2706300D01*
X5851250D01*
X5875149Y2711054D01*
X5895409Y2724591D01*
X5908946Y2744852D01*
X5913700Y2768750D01*
Y2871250D01*
X5908946Y2895148D01*
X5895409Y2915409D01*
X5875149Y2928946D01*
X5851250Y2933700D01*
X5846592D01*
X5840687Y2947955D01*
X5823809Y2964833D01*
X5801756Y2973967D01*
X5777887D01*
X5773255Y2972049D01*
X5760783Y2980382D01*
Y3020828D01*
X5775783Y3027042D01*
X5783094Y3019732D01*
X5800552Y3012500D01*
X5819448D01*
X5836907Y3019732D01*
X5850268Y3033094D01*
X5857500Y3050552D01*
Y3069448D01*
X5850268Y3086906D01*
X5836907Y3100268D01*
X5819448Y3107500D01*
X5800552D01*
X5783094Y3100268D01*
X5775783Y3092958D01*
X5760783Y3099172D01*
Y3546609D01*
X5762644Y3549393D01*
X5765748Y3565000D01*
Y4435036D01*
X5762644Y4450643D01*
X5769875Y4466819D01*
X5776906Y4469732D01*
X5790268Y4483094D01*
X5797500Y4500552D01*
Y4519448D01*
X5790268Y4536907D01*
X5776906Y4550269D01*
X5759448Y4557500D01*
X5740552D01*
X5723093Y4550269D01*
X5709732Y4536907D01*
X5707462Y4531428D01*
X5689768Y4527908D01*
X5597390Y4620287D01*
X5597500Y4620552D01*
Y4639448D01*
X5590268Y4656906D01*
X5576907Y4670268D01*
X5559448Y4677500D01*
X5540552D01*
X5527288Y4672006D01*
X5526769Y4672524D01*
X5509311Y4679756D01*
X5490414D01*
X5472956Y4672524D01*
X5459594Y4659162D01*
X5452363Y4641704D01*
Y4622808D01*
X5459594Y4605349D01*
X5462668Y4602276D01*
X5464712Y4592002D01*
X5473552Y4578771D01*
X5609362Y4442962D01*
X5607892Y4428034D01*
X5599637Y4422519D01*
X5570347Y4393229D01*
X5558191Y4375036D01*
X5553923Y4353576D01*
Y3743013D01*
X5552635Y3742152D01*
X5533738D01*
X5516280Y3734921D01*
X5502918Y3721559D01*
X5495687Y3704101D01*
Y3685204D01*
X5502918Y3667746D01*
X5513996Y3656668D01*
X5514892Y3639959D01*
X5455419Y3580486D01*
X5443263Y3562293D01*
X5438995Y3540833D01*
X5443263Y3519373D01*
X5455419Y3501180D01*
X5473612Y3489025D01*
X5495072Y3484756D01*
X5516532Y3489025D01*
X5534725Y3501180D01*
X5615359Y3581814D01*
X5629217Y3576074D01*
Y2680001D01*
X5629216Y2680000D01*
X5632321Y2664393D01*
X5641162Y2651162D01*
X5883565Y2408758D01*
Y2258392D01*
X5868565Y2255409D01*
X5865529Y2262740D01*
X5852167Y2276102D01*
X5834709Y2283333D01*
X5815812D01*
X5798354Y2276102D01*
X5784992Y2262740D01*
X5777761Y2245282D01*
Y2226385D01*
X5784992Y2208927D01*
X5798354Y2195565D01*
X5815812Y2188333D01*
X5834709D01*
X5852167Y2195565D01*
X5865529Y2208927D01*
X5868565Y2216257D01*
X5883565Y2213274D01*
Y1901708D01*
X5882546Y1901062D01*
X5868565Y1897109D01*
X5858202Y1907472D01*
X5840744Y1914704D01*
X5821848D01*
X5804389Y1907472D01*
X5791028Y1894110D01*
X5783796Y1876652D01*
Y1857755D01*
X5791028Y1840297D01*
X5804389Y1826935D01*
X5821848Y1819704D01*
X5840744D01*
X5858202Y1826935D01*
X5868565Y1837298D01*
X5882546Y1833345D01*
X5883565Y1832700D01*
Y1382715D01*
X5879432Y1379177D01*
X5868565Y1375868D01*
X5842217Y1402217D01*
X5602807Y1641627D01*
X5607636Y1658011D01*
X5618996Y1662716D01*
X5632358Y1676078D01*
X5639589Y1693536D01*
Y1712433D01*
X5632358Y1729891D01*
X5630525Y1731724D01*
X5639990Y1741189D01*
X5647222Y1758647D01*
Y1777544D01*
X5639990Y1795002D01*
X5626629Y1808364D01*
X5609170Y1815595D01*
X5590274D01*
X5572816Y1808364D01*
X5559454Y1795002D01*
X5552222Y1777544D01*
Y1758647D01*
X5559454Y1741189D01*
X5561286Y1739356D01*
X5551821Y1729891D01*
X5547116Y1718531D01*
X5530731Y1713702D01*
X5457160Y1787274D01*
Y2210489D01*
X5452891Y2231949D01*
X5443368Y2246202D01*
X5448378Y2259255D01*
X5450000Y2261188D01*
Y2380000D01*
Y2498798D01*
X5428750D01*
X5404782Y2494031D01*
X5398524Y2495996D01*
X5389782Y2500668D01*
Y3906502D01*
X5400947D01*
X5418405Y3913734D01*
X5431767Y3927096D01*
X5438999Y3944554D01*
Y3963451D01*
X5431767Y3980909D01*
X5418405Y3994271D01*
X5400947Y4001502D01*
X5389782D01*
Y4415958D01*
X5389782Y4415959D01*
X5386678Y4431566D01*
X5377837Y4444798D01*
X5377836Y4444798D01*
X5256924Y4565711D01*
X5255562Y4568999D01*
X5255524Y4569188D01*
X5255417Y4569348D01*
X5250208Y4581925D01*
X5236846Y4595287D01*
X5219388Y4602518D01*
X5200491D01*
X5183033Y4595287D01*
X5173023Y4585277D01*
X5168314Y4589986D01*
X5150856Y4597217D01*
X5131959D01*
X5114501Y4589986D01*
X5101139Y4576624D01*
X5093908Y4559166D01*
Y4540269D01*
X5101139Y4522811D01*
X5114501Y4509449D01*
X5127078Y4504240D01*
X5127238Y4504133D01*
X5127427Y4504095D01*
X5130715Y4502733D01*
X5271284Y4362165D01*
Y2531046D01*
X5256283Y2519098D01*
X5246126Y2521118D01*
X5224666Y2516850D01*
X5206473Y2504694D01*
X5195479Y2493700D01*
X5148750D01*
X5124852Y2488946D01*
X5104591Y2475409D01*
X5091054Y2455149D01*
X5086300Y2431250D01*
Y2328750D01*
X5091054Y2304852D01*
X5104591Y2284591D01*
X5124852Y2271054D01*
X5148750Y2266300D01*
X5203923D01*
Y1744466D01*
X5188923Y1738252D01*
X5186907Y1740268D01*
X5169448Y1747500D01*
X5150552D01*
X5133094Y1740268D01*
X5119732Y1726906D01*
X5112500Y1709448D01*
Y1690552D01*
X5119732Y1673093D01*
X5133094Y1659732D01*
X5150552Y1652500D01*
X5169448D01*
X5186907Y1659732D01*
X5188923Y1661748D01*
X5203923Y1655534D01*
Y1516838D01*
X5208191Y1495378D01*
X5220347Y1477185D01*
X5238066Y1459466D01*
X5232138Y1444181D01*
X5218123Y1438376D01*
X5204761Y1425014D01*
X5197530Y1407556D01*
Y1388659D01*
X5204761Y1371201D01*
X5218123Y1357839D01*
X5235582Y1350608D01*
X5254478D01*
X5271936Y1357839D01*
X5285298Y1371201D01*
X5291103Y1385216D01*
X5306388Y1391144D01*
X5511169Y1186363D01*
X5508243Y1171651D01*
X5504317Y1170025D01*
X5490955Y1156663D01*
X5483724Y1139205D01*
Y1120309D01*
X5484177Y1119215D01*
X5476096Y1115868D01*
X5462734Y1102506D01*
X5457525Y1089929D01*
X5457418Y1089769D01*
X5457380Y1089580D01*
X5456018Y1086292D01*
X5381162Y1011436D01*
X5372321Y998205D01*
X5369216Y982597D01*
X5369217Y982596D01*
Y905663D01*
X5367854Y902374D01*
X5367747Y902214D01*
X5367710Y902025D01*
X5362500Y889448D01*
Y870552D01*
X5369732Y853094D01*
X5383094Y839732D01*
X5388239Y837600D01*
Y821364D01*
X5385593Y820268D01*
X5372232Y806906D01*
X5365000Y789448D01*
Y781850D01*
X5350000Y778866D01*
X5347802Y784173D01*
X5334440Y797535D01*
X5316982Y804766D01*
X5298085D01*
X5280627Y797535D01*
X5267265Y784173D01*
X5260034Y766714D01*
Y747818D01*
X5267265Y730360D01*
X5280627Y716998D01*
X5298085Y709766D01*
X5316982D01*
X5334440Y716998D01*
X5347802Y730360D01*
X5355033Y747818D01*
Y755416D01*
X5370033Y758400D01*
X5372232Y753093D01*
X5385593Y739732D01*
X5403052Y732500D01*
X5419216D01*
Y603077D01*
X5406885Y595120D01*
X5404217Y595407D01*
X5376500Y600920D01*
X5328918D01*
X5320585Y613392D01*
X5321429Y615430D01*
Y634327D01*
X5314198Y651785D01*
X5300836Y665147D01*
X5283378Y672378D01*
X5264481D01*
X5247023Y665147D01*
X5233661Y651785D01*
X5226430Y634327D01*
Y615430D01*
X5233661Y597972D01*
X5236289Y595345D01*
X5239230Y579270D01*
X5236641Y575394D01*
X5223207Y555288D01*
X5217580Y527000D01*
Y402000D01*
X5222794Y375784D01*
X5219214Y366243D01*
X5216296Y360784D01*
X5197704D01*
X5194786Y366243D01*
X5191206Y375784D01*
X5196420Y402000D01*
Y527000D01*
X5190793Y555288D01*
X5174769Y579270D01*
X5150788Y595293D01*
X5122500Y600920D01*
X5037500D01*
X5009212Y595293D01*
X4985231Y579270D01*
X4969207Y555288D01*
X4963580Y527000D01*
Y402000D01*
X4968794Y375784D01*
X4965214Y366243D01*
X4962296Y360784D01*
X4943704D01*
X4940786Y366243D01*
X4937206Y375784D01*
X4942420Y402000D01*
Y527000D01*
X4936793Y555288D01*
X4920769Y579270D01*
X4896788Y595293D01*
X4868500Y600920D01*
X4783500D01*
X4755212Y595293D01*
X4731231Y579270D01*
X4715207Y555288D01*
X4709580Y527000D01*
Y402000D01*
X4714794Y375784D01*
X4711214Y366243D01*
X4708296Y360784D01*
X4689704D01*
X4686786Y366243D01*
X4683206Y375784D01*
X4688420Y402000D01*
Y527000D01*
X4682793Y555288D01*
X4666769Y579270D01*
X4642788Y595293D01*
X4614500Y600920D01*
X4529500D01*
X4501212Y595293D01*
X4477231Y579270D01*
X4461207Y555288D01*
X4455580Y527000D01*
Y402000D01*
X4460794Y375784D01*
X4457214Y366243D01*
X4454296Y360784D01*
X4435704D01*
X4432786Y366243D01*
X4429206Y375784D01*
X4434420Y402000D01*
Y527000D01*
X4428793Y555288D01*
X4412769Y579270D01*
X4388788Y595293D01*
X4360500Y600920D01*
X4275500D01*
X4247212Y595293D01*
X4223231Y579270D01*
X4207207Y555288D01*
X4201580Y527000D01*
Y402000D01*
X4206794Y375784D01*
X4203214Y366243D01*
X4200296Y360784D01*
X4181704D01*
X4178786Y366243D01*
X4175206Y375784D01*
X4180420Y402000D01*
Y527000D01*
X4174793Y555288D01*
X4158769Y579270D01*
X4134788Y595293D01*
X4106500Y600920D01*
X4021500D01*
X3993212Y595293D01*
X3969231Y579270D01*
X3953207Y555288D01*
X3947580Y527000D01*
Y402000D01*
X3952794Y375784D01*
X3949214Y366243D01*
X3946296Y360784D01*
X3927704D01*
X3924786Y366243D01*
X3921206Y375784D01*
X3926420Y402000D01*
Y527000D01*
X3920793Y555288D01*
X3904769Y579270D01*
X3880788Y595293D01*
X3852500Y600920D01*
X3767500D01*
X3739212Y595293D01*
X3715231Y579270D01*
X3699207Y555288D01*
X3693580Y527000D01*
Y402000D01*
X3698794Y375784D01*
X3695214Y366243D01*
X3692296Y360784D01*
X3673704D01*
X3670786Y366243D01*
X3667206Y375784D01*
X3672420Y402000D01*
Y527000D01*
X3666793Y555288D01*
X3650769Y579270D01*
X3626788Y595293D01*
X3598500Y600920D01*
X3540784D01*
Y756377D01*
X3653123Y868717D01*
X3880822D01*
X3888797Y853717D01*
X3883952Y842021D01*
Y823125D01*
X3891184Y805667D01*
X3904546Y792305D01*
X3922004Y785073D01*
X3940900D01*
X3958359Y792305D01*
X3971721Y805667D01*
X3978952Y823125D01*
Y842021D01*
X3974108Y853717D01*
X3982082Y868717D01*
X4399499D01*
X4399500Y868717D01*
X4415108Y871821D01*
X4428339Y880662D01*
X4767316Y1219640D01*
X4782028Y1216714D01*
X4783472Y1213228D01*
X4796834Y1199866D01*
X4799725Y1198668D01*
Y1182432D01*
X4795511Y1180686D01*
X4782149Y1167324D01*
X4774917Y1149866D01*
Y1130970D01*
X4782149Y1113511D01*
X4795511Y1100149D01*
X4812969Y1092918D01*
X4831865D01*
X4849324Y1100149D01*
X4862685Y1113511D01*
X4869917Y1130970D01*
Y1149866D01*
X4862685Y1167324D01*
X4849324Y1180686D01*
X4846432Y1181884D01*
Y1198120D01*
X4850647Y1199866D01*
X4864009Y1213228D01*
X4871240Y1230686D01*
Y1249582D01*
X4864009Y1267041D01*
X4850647Y1280403D01*
X4847161Y1281847D01*
X4844235Y1296558D01*
X4888838Y1341161D01*
X4888838Y1341162D01*
X4897679Y1354393D01*
X4900783Y1370000D01*
Y1434337D01*
X4902146Y1437626D01*
X4902253Y1437786D01*
X4902290Y1437975D01*
X4907500Y1450552D01*
Y1469448D01*
X4900268Y1486906D01*
X4886906Y1500268D01*
X4869448Y1507500D01*
X4850552D01*
X4833093Y1500268D01*
X4819732Y1486906D01*
X4812500Y1469448D01*
Y1450552D01*
X4804067Y1432842D01*
X4801460Y1431809D01*
X4780000Y1436077D01*
X4758540Y1431809D01*
X4740347Y1419653D01*
X4336272Y1015578D01*
X4032014D01*
X4028100Y1016130D01*
X4024545Y1017078D01*
X4022535Y1017944D01*
X4021749Y1018458D01*
X4021625Y1018580D01*
X4021569Y1018664D01*
X4021283Y1019350D01*
X4020980Y1020724D01*
Y1242696D01*
X4017099Y1262204D01*
X4006048Y1278743D01*
X3940090Y1344701D01*
X3923551Y1355752D01*
X3904042Y1359633D01*
X3884534Y1355752D01*
X3867995Y1344701D01*
X3863512Y1337993D01*
X3861079Y1335559D01*
X3859762Y1332380D01*
X3856944Y1328162D01*
X3855954Y1323186D01*
X3853848Y1318101D01*
Y1312597D01*
X3853063Y1308653D01*
X3853848Y1304709D01*
Y1299205D01*
X3855954Y1294120D01*
X3856944Y1289144D01*
X3859762Y1284926D01*
X3861079Y1281746D01*
X3863512Y1279313D01*
X3867995Y1272605D01*
X3873169Y1267430D01*
X3870142Y1249244D01*
X3860078Y1239181D01*
X3854745Y1226304D01*
X3844718Y1230457D01*
X3825821D01*
X3808363Y1223225D01*
X3795001Y1209863D01*
X3787770Y1192405D01*
Y1173509D01*
X3795001Y1156051D01*
X3808363Y1142689D01*
X3825821Y1135457D01*
X3838416D01*
Y1131007D01*
X3845647Y1113549D01*
X3859009Y1100187D01*
X3876467Y1092956D01*
X3895364D01*
X3904020Y1096541D01*
X3919020Y1086787D01*
Y1020723D01*
X3918717Y1019350D01*
X3918431Y1018664D01*
X3918375Y1018580D01*
X3918250Y1018458D01*
X3917465Y1017944D01*
X3915455Y1017078D01*
X3911899Y1016130D01*
X3907987Y1015578D01*
X3584082D01*
X3562622Y1011309D01*
X3544430Y999153D01*
X3451758Y906481D01*
X3448860Y904138D01*
X3445136Y901656D01*
X3443876Y901011D01*
X3376244Y968642D01*
X3377857Y973829D01*
X3383600Y982500D01*
X3399448D01*
X3416907Y989732D01*
X3429393Y1002218D01*
X3439605Y1009037D01*
X3443094Y1009732D01*
X3460552Y1002500D01*
X3479448D01*
X3496906Y1009732D01*
X3510268Y1023093D01*
X3517500Y1040552D01*
Y1059448D01*
X3510268Y1076906D01*
X3496906Y1090268D01*
X3479448Y1097500D01*
X3460552D01*
X3448333Y1092439D01*
X3433332Y1100106D01*
Y1800000D01*
X3430034Y1816583D01*
X3420641Y1830641D01*
X3213332Y2037949D01*
Y2820000D01*
X3210034Y2836583D01*
X3200641Y2850641D01*
X2863332Y3187949D01*
Y4722051D01*
X2950641Y4809359D01*
X2960034Y4823417D01*
X2963332Y4840000D01*
Y4859071D01*
X2974886Y4865246D01*
X2978332Y4865484D01*
X3005500Y4860080D01*
X3090500D01*
X3118788Y4865707D01*
X3142769Y4881730D01*
X3158793Y4905712D01*
X3164420Y4934000D01*
Y5059000D01*
X3158793Y5087288D01*
X3142769Y5111270D01*
X3118788Y5127294D01*
X3090500Y5132920D01*
X3005500D01*
X2989790Y5129795D01*
X2982401Y5143620D01*
X2985080Y5146299D01*
X2988450Y5149413D01*
X2991275Y5151674D01*
X2993928Y5153558D01*
X2996075Y5154876D01*
X2997597Y5155652D01*
X3005500Y5154080D01*
X3090500D01*
X3118788Y5159706D01*
X3142769Y5175730D01*
X3158793Y5199712D01*
X3164420Y5228000D01*
Y5353000D01*
X3158793Y5381288D01*
X3144917Y5402056D01*
X3150074Y5417056D01*
X3199926D01*
X3205083Y5402056D01*
X3191207Y5381288D01*
X3185580Y5353000D01*
Y5228000D01*
X3191207Y5199712D01*
X3207231Y5175730D01*
X3231212Y5159706D01*
X3259500Y5154080D01*
X3344500D01*
X3372788Y5159706D01*
X3396769Y5175730D01*
X3412793Y5199712D01*
X3418420Y5228000D01*
Y5353000D01*
X3412793Y5381288D01*
X3398917Y5402056D01*
X3404074Y5417056D01*
X3453926D01*
X3459083Y5402056D01*
X3445207Y5381288D01*
X3439580Y5353000D01*
Y5228000D01*
X3445207Y5199712D01*
X3461231Y5175730D01*
X3485212Y5159706D01*
X3513500Y5154080D01*
X3598500D01*
X3626788Y5159706D01*
X3650769Y5175730D01*
X3666793Y5199712D01*
X3672420Y5228000D01*
Y5353000D01*
X3666793Y5381288D01*
X3652917Y5402056D01*
X3658074Y5417056D01*
X3707926D01*
X3713083Y5402056D01*
X3699207Y5381288D01*
X3693580Y5353000D01*
Y5228000D01*
X3699207Y5199712D01*
X3715231Y5175730D01*
X3739212Y5159706D01*
X3767500Y5154080D01*
X3852500D01*
X3880788Y5159706D01*
X3904769Y5175730D01*
X3920793Y5199712D01*
X3926420Y5228000D01*
Y5353000D01*
X3920793Y5381288D01*
X3906917Y5402056D01*
X3912074Y5417056D01*
X3961926D01*
X3967083Y5402056D01*
X3953207Y5381288D01*
X3947580Y5353000D01*
Y5228000D01*
X3953207Y5199712D01*
X3969231Y5175730D01*
X3993212Y5159706D01*
X4021500Y5154080D01*
X4106500D01*
X4134788Y5159706D01*
X4158769Y5175730D01*
X4174793Y5199712D01*
X4180420Y5228000D01*
Y5353000D01*
X4174793Y5381288D01*
X4160917Y5402056D01*
X4166074Y5417056D01*
X4215926D01*
X4221083Y5402056D01*
X4207207Y5381288D01*
X4201580Y5353000D01*
Y5228000D01*
X4207207Y5199712D01*
X4223231Y5175730D01*
X4247212Y5159706D01*
X4275500Y5154080D01*
X4360500D01*
X4388788Y5159706D01*
X4412769Y5175730D01*
X4428793Y5199712D01*
X4434420Y5228000D01*
Y5353000D01*
X4428793Y5381288D01*
X4414917Y5402056D01*
X4420074Y5417056D01*
X4469926D01*
X4475083Y5402056D01*
X4461207Y5381288D01*
X4455580Y5353000D01*
Y5228000D01*
X4461207Y5199712D01*
X4477231Y5175730D01*
X4501212Y5159706D01*
X4529500Y5154080D01*
X4614500D01*
X4642788Y5159706D01*
X4666769Y5175730D01*
X4682793Y5199712D01*
X4688420Y5228000D01*
Y5353000D01*
X4682793Y5381288D01*
X4668917Y5402056D01*
X4674074Y5417056D01*
X4723926D01*
X4729083Y5402056D01*
X4715207Y5381288D01*
X4709580Y5353000D01*
Y5228000D01*
X4715207Y5199712D01*
X4731231Y5175730D01*
X4755212Y5159706D01*
X4783500Y5154080D01*
X4868500D01*
X4896788Y5159706D01*
X4920769Y5175730D01*
X4936793Y5199712D01*
X4942420Y5228000D01*
Y5353000D01*
X4936793Y5381288D01*
X4922917Y5402056D01*
X4928074Y5417056D01*
X4977926D01*
X4983083Y5402056D01*
X4969207Y5381288D01*
X4963580Y5353000D01*
Y5228000D01*
X4969207Y5199712D01*
X4985231Y5175730D01*
X5009212Y5159706D01*
X5037500Y5154080D01*
X5122500D01*
X5150788Y5159706D01*
X5174769Y5175730D01*
X5190793Y5199712D01*
X5196420Y5228000D01*
Y5353000D01*
X5190793Y5381288D01*
X5176917Y5402056D01*
X5182074Y5417056D01*
X5231926D01*
X5237083Y5402056D01*
X5223207Y5381288D01*
X5217580Y5353000D01*
Y5228000D01*
X5223207Y5199712D01*
X5239231Y5175730D01*
X5263212Y5159706D01*
X5291500Y5154080D01*
X5376500D01*
X5404788Y5159706D01*
X5428769Y5175730D01*
X5444793Y5199712D01*
X5450420Y5228000D01*
Y5353000D01*
X5444793Y5381288D01*
X5430917Y5402056D01*
X5436074Y5417056D01*
X5485926D01*
X5491083Y5402056D01*
X5477207Y5381288D01*
X5471580Y5353000D01*
Y5228000D01*
X5477207Y5199712D01*
X5493231Y5175730D01*
X5517212Y5159706D01*
X5545500Y5154080D01*
X5630500D01*
X5658788Y5159706D01*
X5682769Y5175730D01*
X5698793Y5199712D01*
X5704420Y5228000D01*
Y5353000D01*
X5698793Y5381288D01*
X5684917Y5402056D01*
X5690074Y5417056D01*
X5739926D01*
X5745083Y5402056D01*
X5731207Y5381288D01*
X5725580Y5353000D01*
Y5228000D01*
X5731207Y5199712D01*
X5747231Y5175730D01*
X5771212Y5159706D01*
X5799500Y5154080D01*
X5884500D01*
X5912788Y5159706D01*
X5936769Y5175730D01*
X5952793Y5199712D01*
X5958420Y5228000D01*
Y5353000D01*
X5952793Y5381288D01*
X5938917Y5402056D01*
X5944074Y5417056D01*
X5993926D01*
X5999083Y5402056D01*
X5985207Y5381288D01*
X5979580Y5353000D01*
Y5228000D01*
X5985207Y5199712D01*
X6001231Y5175730D01*
X6025212Y5159706D01*
X6053500Y5154080D01*
X6138500D01*
X6166788Y5159706D01*
X6190769Y5175730D01*
X6206793Y5199712D01*
X6212420Y5228000D01*
Y5353000D01*
X6206793Y5381288D01*
X6192917Y5402056D01*
X6198074Y5417056D01*
X6247926D01*
X6253083Y5402056D01*
D02*
G37*
G36*
X2697083D02*
X2683207Y5381288D01*
X2677580Y5353000D01*
Y5228000D01*
X2683207Y5199712D01*
X2699231Y5175730D01*
X2723212Y5159706D01*
X2751500Y5154080D01*
X2836500D01*
X2864788Y5159706D01*
X2864797Y5159713D01*
X2878297Y5150693D01*
X2876668Y5142500D01*
Y5136023D01*
X2861667Y5127914D01*
X2836500Y5132920D01*
X2751500D01*
X2723212Y5127294D01*
X2699231Y5111270D01*
X2683207Y5087288D01*
X2677580Y5059000D01*
Y4934000D01*
X2683207Y4905712D01*
X2696907Y4885208D01*
X2694831Y4868859D01*
X2693868Y4867273D01*
X2681257Y4854662D01*
X2674026Y4837204D01*
Y4818307D01*
X2681257Y4800849D01*
X2694619Y4787487D01*
X2712077Y4780256D01*
X2730974D01*
X2748432Y4787487D01*
X2761794Y4800849D01*
X2764222Y4806712D01*
X2780458D01*
X2781647Y4803843D01*
X2795008Y4790481D01*
X2797363Y4778644D01*
X2789359Y4770640D01*
X2779966Y4756583D01*
X2776668Y4740000D01*
Y3295155D01*
X2765127Y3291436D01*
X2761668Y3291215D01*
X2748982Y3303900D01*
X2731524Y3311132D01*
X2712627D01*
X2695169Y3303900D01*
X2681807Y3290539D01*
X2674576Y3273080D01*
Y3254184D01*
X2681807Y3236726D01*
X2695169Y3223364D01*
X2712627Y3216132D01*
X2731524D01*
X2748982Y3223364D01*
X2761668Y3236049D01*
X2765127Y3235828D01*
X2776668Y3232109D01*
Y3170000D01*
X2779966Y3153418D01*
X2789359Y3139360D01*
X3126668Y2802051D01*
Y2020000D01*
X3129966Y2003418D01*
X3139359Y1989360D01*
X3346668Y1782051D01*
Y1552236D01*
X3332810Y1546496D01*
X3316077Y1563228D01*
Y1685217D01*
X3311809Y1706677D01*
X3299653Y1724870D01*
X2484870Y2539653D01*
X2466677Y2551809D01*
X2445217Y2556077D01*
X2410106D01*
X2393782Y2562839D01*
X2369913D01*
X2347860Y2553705D01*
X2330982Y2536826D01*
X2321848Y2514774D01*
Y2490904D01*
X2330982Y2468852D01*
X2347860Y2451974D01*
X2369913Y2442839D01*
X2393782D01*
X2396398Y2443923D01*
X2421989D01*
X3203923Y1661989D01*
Y1581002D01*
X3186511Y1569368D01*
X3084277Y1467134D01*
X3072121Y1448941D01*
X3067852Y1427481D01*
Y1130782D01*
X2978028Y1040958D01*
X2965872Y1022765D01*
X2961603Y1001305D01*
X2965872Y979846D01*
X2978028Y961653D01*
X2996221Y949497D01*
X3017681Y945228D01*
X3039140Y949497D01*
X3057333Y961653D01*
X3163582Y1067901D01*
X3175738Y1086094D01*
X3180007Y1107554D01*
Y1404253D01*
X3248224Y1472471D01*
X3290347Y1430347D01*
X3308540Y1418191D01*
X3330000Y1413923D01*
X3335073Y1414932D01*
X3346668Y1405416D01*
Y1049509D01*
X3342500Y1039448D01*
Y1023599D01*
X3333829Y1017856D01*
X3328642Y1016244D01*
X3305578Y1039308D01*
Y1102569D01*
X3307196Y1106475D01*
Y1125372D01*
X3299965Y1142830D01*
X3286603Y1156192D01*
X3269145Y1163423D01*
X3250248D01*
X3232790Y1156192D01*
X3219428Y1142830D01*
X3212197Y1125372D01*
Y1106475D01*
X3213815Y1102569D01*
Y1020304D01*
X3217308Y1002745D01*
X3218559Y1000872D01*
X3208615Y988755D01*
X3208295Y988888D01*
X3189398D01*
X3171940Y981656D01*
X3158578Y968294D01*
X3151347Y950836D01*
Y931939D01*
X3158578Y914481D01*
X3171940Y901119D01*
X3189398Y893888D01*
X3208295D01*
X3225753Y901119D01*
X3239115Y914481D01*
X3246347Y931939D01*
Y947554D01*
X3255803Y953615D01*
X3260205Y954909D01*
X3372354Y842760D01*
X3370088Y824811D01*
X3315355Y770078D01*
X3302639Y778575D01*
X3307839Y791130D01*
Y810027D01*
X3300608Y827485D01*
X3287246Y840847D01*
X3269788Y848079D01*
X3250891D01*
X3233433Y840847D01*
X3220071Y827485D01*
X3212840Y810027D01*
Y791130D01*
X3220071Y773672D01*
X3233433Y760310D01*
X3250891Y753079D01*
X3269788D01*
X3270085Y753202D01*
X3280006Y741075D01*
X3277895Y737937D01*
X3196432D01*
Y751960D01*
X3189200Y769419D01*
X3175838Y782781D01*
X3158380Y790012D01*
X3139483D01*
X3122025Y782781D01*
X3108663Y769419D01*
X3101432Y751960D01*
Y737937D01*
X2530938D01*
X2395647Y873228D01*
Y970564D01*
X2391378Y992024D01*
X2379222Y1010217D01*
X2175882Y1213557D01*
Y1647391D01*
X2172389Y1664949D01*
X2162443Y1679834D01*
X2001886Y1840391D01*
X2000268Y1844298D01*
X1986906Y1857660D01*
X1969448Y1864891D01*
X1950551D01*
X1933093Y1857660D01*
X1919731Y1844298D01*
X1912500Y1826840D01*
Y1807943D01*
X1919731Y1790485D01*
X1933093Y1777123D01*
X1937000Y1775505D01*
X2084119Y1628386D01*
Y1217755D01*
X2075271Y1204513D01*
X2071002Y1183054D01*
X2075271Y1161594D01*
X2087427Y1143401D01*
X2283492Y947336D01*
Y871405D01*
X2279569Y861935D01*
Y838065D01*
X2288704Y816013D01*
X2305582Y799135D01*
X2315052Y795212D01*
X2468057Y642207D01*
X2486250Y630051D01*
X2507710Y625782D01*
X3306442D01*
X3327902Y630051D01*
X3346094Y642207D01*
X3445359Y741471D01*
X3459217Y735731D01*
Y576255D01*
X3445207Y555288D01*
X3439580Y527000D01*
Y402000D01*
X3445207Y373712D01*
X3458632Y353620D01*
X3451476Y348839D01*
X3451475Y348838D01*
X3391457Y288820D01*
X3372788Y301294D01*
X3344500Y306920D01*
X3259500D01*
X3231212Y301294D01*
X3207231Y285270D01*
X3191207Y261288D01*
X3185580Y233000D01*
Y108000D01*
X3191207Y79712D01*
X3205083Y58944D01*
X3199926Y43944D01*
X3150074D01*
X3144917Y58944D01*
X3158793Y79712D01*
X3164420Y108000D01*
Y233000D01*
X3158793Y261288D01*
X3142769Y285270D01*
X3118788Y301294D01*
X3090500Y306920D01*
X3005500D01*
X2977212Y301294D01*
X2953231Y285270D01*
X2937207Y261288D01*
X2931580Y233000D01*
Y108000D01*
X2937207Y79712D01*
X2951083Y58944D01*
X2945926Y43944D01*
X2896074D01*
X2890917Y58944D01*
X2904793Y79712D01*
X2910420Y108000D01*
Y233000D01*
X2904793Y261288D01*
X2888769Y285270D01*
X2864788Y301294D01*
X2836500Y306920D01*
X2751500D01*
X2723212Y301294D01*
X2699231Y285270D01*
X2683207Y261288D01*
X2677580Y233000D01*
Y108000D01*
X2683207Y79712D01*
X2697083Y58944D01*
X2691926Y43944D01*
X2642074D01*
X2636917Y58944D01*
X2650793Y79712D01*
X2656420Y108000D01*
Y233000D01*
X2650793Y261288D01*
X2634769Y285270D01*
X2610788Y301294D01*
X2582500Y306920D01*
X2497500D01*
X2469212Y301294D01*
X2445231Y285270D01*
X2429207Y261288D01*
X2423580Y233000D01*
Y108000D01*
X2429207Y79712D01*
X2443083Y58944D01*
X2437926Y43944D01*
X2388074D01*
X2382917Y58944D01*
X2396793Y79712D01*
X2402420Y108000D01*
Y233000D01*
X2396793Y261288D01*
X2380769Y285270D01*
X2356788Y301294D01*
X2328500Y306920D01*
X2243500D01*
X2215212Y301294D01*
X2191231Y285270D01*
X2175207Y261288D01*
X2169580Y233000D01*
Y108000D01*
X2175207Y79712D01*
X2189083Y58944D01*
X2183926Y43944D01*
X2125042D01*
X2119302Y57802D01*
X2152000Y90500D01*
Y160500D01*
X1912000D01*
Y90500D01*
X1944698Y57802D01*
X1938958Y43944D01*
X1371600D01*
X1369643Y43555D01*
X1317066Y50477D01*
X1266249Y71526D01*
X1222611Y105011D01*
X1189126Y148649D01*
X1168077Y199466D01*
X1161155Y252043D01*
X1161544Y254000D01*
Y1924556D01*
X1841500D01*
Y1923962D01*
X1899742Y1929699D01*
X1955745Y1946687D01*
X2007359Y1974275D01*
X2052598Y2011402D01*
X2089725Y2056641D01*
X2117313Y2108255D01*
X2134301Y2164258D01*
X2140038Y2222500D01*
X2139444D01*
Y3746500D01*
X2140038D01*
X2134301Y3804742D01*
X2117313Y3860745D01*
X2089725Y3912359D01*
X2052598Y3957598D01*
X2007359Y3994725D01*
X1955745Y4022313D01*
X1899742Y4039301D01*
X1841500Y4045038D01*
Y4044444D01*
X1161544D01*
Y5207000D01*
X1161155Y5208958D01*
X1168077Y5261534D01*
X1189126Y5312351D01*
X1222610Y5355989D01*
X1266248Y5389474D01*
X1317066Y5410523D01*
X1357121Y5415796D01*
X1371600Y5417055D01*
X1371600Y5417056D01*
X1921052D01*
X1929070Y5402056D01*
X1916497Y5383239D01*
X1910482Y5353000D01*
Y5300500D01*
X2153518D01*
Y5353000D01*
X2147503Y5383239D01*
X2134930Y5402056D01*
X2142948Y5417056D01*
X2183926D01*
X2189083Y5402056D01*
X2175207Y5381288D01*
X2169580Y5353000D01*
Y5228000D01*
X2175207Y5199712D01*
X2191231Y5175730D01*
X2215212Y5159706D01*
X2243500Y5154080D01*
X2328500D01*
X2356788Y5159706D01*
X2380769Y5175730D01*
X2396793Y5199712D01*
X2402420Y5228000D01*
Y5353000D01*
X2396793Y5381288D01*
X2382917Y5402056D01*
X2388074Y5417056D01*
X2437926D01*
X2443083Y5402056D01*
X2429207Y5381288D01*
X2423580Y5353000D01*
Y5228000D01*
X2429207Y5199712D01*
X2445231Y5175730D01*
X2469212Y5159706D01*
X2497500Y5154080D01*
X2582500D01*
X2610788Y5159706D01*
X2634769Y5175730D01*
X2650793Y5199712D01*
X2656420Y5228000D01*
Y5353000D01*
X2650793Y5381288D01*
X2636917Y5402056D01*
X2642074Y5417056D01*
X2691926D01*
X2697083Y5402056D01*
D02*
G37*
G36*
X6622100Y4891547D02*
X6620400Y4890596D01*
X6618900Y4889050D01*
X6617600Y4886910D01*
X6616500Y4884177D01*
X6615600Y4880849D01*
X6614900Y4876928D01*
X6614400Y4872413D01*
X6614000Y4861601D01*
X6594000D01*
X6593900Y4867304D01*
X6593100Y4876928D01*
X6592400Y4880849D01*
X6591500Y4884177D01*
X6590400Y4886910D01*
X6589100Y4889050D01*
X6587600Y4890596D01*
X6585900Y4891547D01*
X6584000Y4891905D01*
X6624000D01*
X6622100Y4891547D01*
D02*
G37*
G36*
X5933642Y4637041D02*
X5932418Y4635761D01*
X5930299Y4633190D01*
X5929403Y4631899D01*
X5928616Y4630603D01*
X5927938Y4629304D01*
X5927369Y4628001D01*
X5926909Y4626694D01*
X5926558Y4625383D01*
X5926317Y4624068D01*
X5906527Y4643858D01*
X5907842Y4644100D01*
X5909153Y4644450D01*
X5910460Y4644910D01*
X5911763Y4645479D01*
X5913062Y4646157D01*
X5914357Y4646944D01*
X5915649Y4647840D01*
X5916936Y4648846D01*
X5919499Y4651183D01*
X5933642Y4637041D01*
D02*
G37*
G36*
X6862365Y4615606D02*
X6861687Y4614431D01*
X6861088Y4613182D01*
X6860568Y4611858D01*
X6860129Y4610460D01*
X6859770Y4608987D01*
X6859490Y4607441D01*
X6859291Y4605820D01*
X6859131Y4602354D01*
X6839131D01*
X6839091Y4604124D01*
X6838771Y4607441D01*
X6838492Y4608987D01*
X6838132Y4610460D01*
X6837693Y4611858D01*
X6837174Y4613182D01*
X6836575Y4614431D01*
X6835896Y4615606D01*
X6835137Y4616707D01*
X6863124D01*
X6862365Y4615606D01*
D02*
G37*
G36*
X5986621Y4627052D02*
X5986972Y4625742D01*
X5987432Y4624435D01*
X5988001Y4623131D01*
X5988679Y4621832D01*
X5989466Y4620537D01*
X5990362Y4619246D01*
X5991367Y4617958D01*
X5993705Y4615395D01*
X5979562Y4601253D01*
X5978283Y4602476D01*
X5975712Y4604595D01*
X5974420Y4605491D01*
X5973125Y4606278D01*
X5971826Y4606956D01*
X5970522Y4607525D01*
X5969216Y4607985D01*
X5967905Y4608336D01*
X5966590Y4608578D01*
X5986379Y4628367D01*
X5986621Y4627052D01*
D02*
G37*
G36*
X6364235Y4612473D02*
X6363556Y4611298D01*
X6362957Y4610049D01*
X6362438Y4608725D01*
X6361999Y4607327D01*
X6361639Y4605855D01*
X6361360Y4604308D01*
X6361160Y4602687D01*
X6361000Y4599221D01*
X6341000D01*
X6340960Y4600991D01*
X6340641Y4604308D01*
X6340361Y4605855D01*
X6340002Y4607327D01*
X6339563Y4608725D01*
X6339043Y4610049D01*
X6338445Y4611298D01*
X6337766Y4612473D01*
X6337007Y4613574D01*
X6364994D01*
X6364235Y4612473D01*
D02*
G37*
G36*
X6412464Y4572674D02*
X6411149Y4572433D01*
X6409838Y4572082D01*
X6408531Y4571622D01*
X6407228Y4571053D01*
X6405929Y4570375D01*
X6404634Y4569588D01*
X6403342Y4568692D01*
X6402055Y4567687D01*
X6399491Y4565349D01*
X6385349Y4579491D01*
X6386572Y4580771D01*
X6388692Y4583342D01*
X6389588Y4584634D01*
X6390375Y4585929D01*
X6391053Y4587228D01*
X6391622Y4588531D01*
X6392082Y4589838D01*
X6392432Y4591149D01*
X6392674Y4592464D01*
X6412464Y4572674D01*
D02*
G37*
G36*
X5227507Y4556168D02*
X5227857Y4554857D01*
X5228317Y4553550D01*
X5228886Y4552247D01*
X5229564Y4550947D01*
X5230351Y4549652D01*
X5231247Y4548361D01*
X5232253Y4547073D01*
X5234590Y4544510D01*
X5220448Y4530368D01*
X5219168Y4531591D01*
X5216597Y4533711D01*
X5215306Y4534606D01*
X5214010Y4535394D01*
X5212711Y4536071D01*
X5211408Y4536640D01*
X5210101Y4537100D01*
X5208790Y4537451D01*
X5207475Y4537693D01*
X5227265Y4557483D01*
X5227507Y4556168D01*
D02*
G37*
G36*
X5158975Y4550867D02*
X5159326Y4549556D01*
X5159786Y4548249D01*
X5160355Y4546946D01*
X5161033Y4545646D01*
X5161820Y4544351D01*
X5162716Y4543060D01*
X5163721Y4541772D01*
X5166058Y4539209D01*
X5151916Y4525067D01*
X5150636Y4526290D01*
X5148065Y4528410D01*
X5146774Y4529305D01*
X5145479Y4530093D01*
X5144179Y4530770D01*
X5142876Y4531339D01*
X5141569Y4531799D01*
X5140258Y4532150D01*
X5138943Y4532392D01*
X5158733Y4552182D01*
X5158975Y4550867D01*
D02*
G37*
G36*
X6648402Y4368079D02*
X6647178Y4366799D01*
X6645059Y4364228D01*
X6644163Y4362936D01*
X6643376Y4361641D01*
X6642698Y4360342D01*
X6642129Y4359039D01*
X6641669Y4357732D01*
X6641318Y4356421D01*
X6641077Y4355106D01*
X6621287Y4374896D01*
X6622602Y4375138D01*
X6623913Y4375488D01*
X6625220Y4375948D01*
X6626523Y4376517D01*
X6627822Y4377195D01*
X6629117Y4377982D01*
X6630409Y4378878D01*
X6631696Y4379884D01*
X6634260Y4382221D01*
X6648402Y4368079D01*
D02*
G37*
G36*
X7664986Y3728715D02*
X7664307Y3727540D01*
X7663708Y3726291D01*
X7663189Y3724967D01*
X7662750Y3723569D01*
X7662390Y3722097D01*
X7662111Y3720550D01*
X7661911Y3718929D01*
X7661751Y3715463D01*
X7641751D01*
X7641711Y3717233D01*
X7641392Y3720550D01*
X7641112Y3722097D01*
X7640753Y3723569D01*
X7640314Y3724967D01*
X7639794Y3726291D01*
X7639196Y3727540D01*
X7638517Y3728715D01*
X7637758Y3729816D01*
X7665745D01*
X7664986Y3728715D01*
D02*
G37*
G36*
X7620200Y2786200D02*
X7620800Y2782800D01*
X7621800Y2779800D01*
X7623200Y2777200D01*
X7625000Y2775000D01*
X7627200Y2773200D01*
X7629800Y2771800D01*
X7632800Y2770800D01*
X7636200Y2770200D01*
X7640000Y2770000D01*
X7634142Y2750000D01*
X7630201Y2749859D01*
X7626376Y2749434D01*
X7622669Y2748727D01*
X7619080Y2747737D01*
X7615607Y2746465D01*
X7612251Y2744909D01*
X7609012Y2743070D01*
X7605891Y2740949D01*
X7602887Y2738545D01*
X7600000Y2735858D01*
X7585858Y2750000D01*
X7588545Y2752887D01*
X7590949Y2755891D01*
X7593070Y2759013D01*
X7594909Y2762251D01*
X7596465Y2765607D01*
X7597737Y2769080D01*
X7598727Y2772669D01*
X7599434Y2776376D01*
X7599859Y2780201D01*
X7600000Y2784142D01*
X7620000Y2790000D01*
X7620200Y2786200D01*
D02*
G37*
G36*
X6659491Y2626007D02*
X6658391Y2626765D01*
X6657216Y2627444D01*
X6655966Y2628043D01*
X6654643Y2628562D01*
X6653245Y2629002D01*
X6651772Y2629361D01*
X6650225Y2629641D01*
X6648604Y2629840D01*
X6645139Y2630000D01*
Y2650000D01*
X6646908Y2650040D01*
X6650225Y2650359D01*
X6651772Y2650639D01*
X6653245Y2650999D01*
X6654643Y2651438D01*
X6655966Y2651957D01*
X6657216Y2652556D01*
X6658391Y2653235D01*
X6659491Y2653993D01*
Y2626007D01*
D02*
G37*
G36*
X7453266Y2636343D02*
X7454162Y2635981D01*
X7455183Y2635662D01*
X7456330Y2635385D01*
X7457602Y2635151D01*
X7460520Y2634810D01*
X7463940Y2634640D01*
X7465837Y2634619D01*
X7469961Y2614619D01*
X7468186Y2614569D01*
X7466498Y2614420D01*
X7464898Y2614172D01*
X7463385Y2613825D01*
X7461958Y2613379D01*
X7460619Y2612833D01*
X7459367Y2612189D01*
X7458202Y2611445D01*
X7457124Y2610602D01*
X7456133Y2609660D01*
X7452495Y2636748D01*
X7453266Y2636343D01*
D02*
G37*
G36*
X7863487Y2620836D02*
X7863233Y2620190D01*
X7863009Y2619380D01*
X7862815Y2618404D01*
X7862651Y2617262D01*
X7862412Y2614484D01*
X7862277Y2609078D01*
X7837278D01*
X7837263Y2611045D01*
X7836740Y2618404D01*
X7836546Y2619380D01*
X7836322Y2620190D01*
X7836068Y2620836D01*
X7835784Y2621316D01*
X7863771D01*
X7863487Y2620836D01*
D02*
G37*
G36*
X8121810Y2633623D02*
X8124381Y2631504D01*
X8125672Y2630608D01*
X8126968Y2629821D01*
X8128267Y2629143D01*
X8129570Y2628574D01*
X8130877Y2628114D01*
X8132188Y2627763D01*
X8133503Y2627522D01*
X8113713Y2607731D01*
X8113471Y2609046D01*
X8113120Y2610357D01*
X8112660Y2611664D01*
X8112091Y2612968D01*
X8111414Y2614267D01*
X8110627Y2615562D01*
X8109731Y2616854D01*
X8108725Y2618141D01*
X8106388Y2620704D01*
X8120530Y2634846D01*
X8121810Y2633623D01*
D02*
G37*
G36*
X6885354Y2675701D02*
X6886414Y2668262D01*
X6888182Y2662529D01*
X6890657Y2658504D01*
X6893839Y2656186D01*
X6897728Y2655575D01*
X6902324Y2656672D01*
X6907627Y2659475D01*
X6913638Y2663985D01*
X6920355Y2670203D01*
X6860000Y2574492D01*
X6835000D01*
X6885000Y2684847D01*
X6885354Y2675701D01*
D02*
G37*
G36*
X7441004Y2460530D02*
X7439903Y2461289D01*
X7438728Y2461968D01*
X7437479Y2462567D01*
X7436155Y2463086D01*
X7434757Y2463525D01*
X7433285Y2463885D01*
X7431738Y2464164D01*
X7430117Y2464364D01*
X7426651Y2464524D01*
Y2484524D01*
X7428421Y2484563D01*
X7431738Y2484883D01*
X7433285Y2485163D01*
X7434757Y2485522D01*
X7436155Y2485961D01*
X7437479Y2486480D01*
X7438728Y2487079D01*
X7439903Y2487758D01*
X7441004Y2488517D01*
Y2460530D01*
D02*
G37*
G36*
X8057519Y2437734D02*
X8056514Y2438663D01*
X8055425Y2439494D01*
X8054250Y2440228D01*
X8052989Y2440864D01*
X8051643Y2441402D01*
X8050211Y2441843D01*
X8048694Y2442185D01*
X8047091Y2442430D01*
X8045403Y2442576D01*
X8043630Y2442625D01*
X8047382Y2462625D01*
X8049268Y2462648D01*
X8054208Y2462992D01*
X8055615Y2463199D01*
X8058069Y2463749D01*
X8059117Y2464093D01*
X8060045Y2464483D01*
X8060852Y2464918D01*
X8057519Y2437734D01*
D02*
G37*
G36*
X6332464Y2202674D02*
X6331149Y2202432D01*
X6329838Y2202082D01*
X6328531Y2201622D01*
X6327228Y2201053D01*
X6325929Y2200375D01*
X6324634Y2199588D01*
X6323342Y2198692D01*
X6322055Y2197686D01*
X6319492Y2195349D01*
X6305349Y2209491D01*
X6306573Y2210771D01*
X6308692Y2213342D01*
X6309588Y2214634D01*
X6310375Y2215929D01*
X6311053Y2217228D01*
X6311622Y2218531D01*
X6312082Y2219838D01*
X6312433Y2221149D01*
X6312674Y2222464D01*
X6332464Y2202674D01*
D02*
G37*
G36*
X7452580Y2141171D02*
X7451479Y2141930D01*
X7450304Y2142609D01*
X7449055Y2143208D01*
X7447731Y2143727D01*
X7446333Y2144166D01*
X7444860Y2144526D01*
X7443314Y2144805D01*
X7441693Y2145005D01*
X7438227Y2145165D01*
Y2165165D01*
X7439997Y2165205D01*
X7443314Y2165524D01*
X7444860Y2165804D01*
X7446333Y2166163D01*
X7447731Y2166602D01*
X7449055Y2167122D01*
X7450304Y2167721D01*
X7451479Y2168400D01*
X7452580Y2169158D01*
Y2141171D01*
D02*
G37*
G36*
X6324860Y2051002D02*
X6323760Y2051761D01*
X6322585Y2052440D01*
X6321335Y2053039D01*
X6320011Y2053558D01*
X6318613Y2053997D01*
X6317141Y2054357D01*
X6315594Y2054636D01*
X6313973Y2054836D01*
X6310508Y2054996D01*
Y2074996D01*
X6312277Y2075035D01*
X6315594Y2075355D01*
X6317141Y2075635D01*
X6318613Y2075994D01*
X6320011Y2076433D01*
X6321335Y2076952D01*
X6322585Y2077551D01*
X6323760Y2078230D01*
X6324860Y2078989D01*
Y2051002D01*
D02*
G37*
G36*
X7429258Y1991218D02*
X7428157Y1991976D01*
X7426982Y1992655D01*
X7425733Y1993254D01*
X7424409Y1993773D01*
X7423011Y1994212D01*
X7421539Y1994572D01*
X7419992Y1994851D01*
X7418371Y1995051D01*
X7414905Y1995211D01*
Y2015211D01*
X7416675Y2015251D01*
X7419992Y2015570D01*
X7421539Y2015850D01*
X7423011Y2016209D01*
X7424409Y2016648D01*
X7425733Y2017168D01*
X7426982Y2017767D01*
X7428157Y2018446D01*
X7429258Y2019204D01*
Y1991218D01*
D02*
G37*
G36*
X7360200Y2036200D02*
X7360800Y2032800D01*
X7361800Y2029800D01*
X7363200Y2027200D01*
X7365000Y2025000D01*
X7367200Y2023200D01*
X7369800Y2021800D01*
X7372800Y2020800D01*
X7376200Y2020200D01*
X7380000Y2020000D01*
Y2000000D01*
X7376200Y1999800D01*
X7372800Y1999200D01*
X7369800Y1998200D01*
X7367200Y1996800D01*
X7365000Y1995000D01*
X7363200Y1992800D01*
X7361800Y1990200D01*
X7360800Y1987200D01*
X7360200Y1983800D01*
X7360000Y1980000D01*
X7340000Y2010000D01*
X7360000Y2040000D01*
X7360200Y2036200D01*
D02*
G37*
G36*
X6955263Y1964760D02*
X6954163Y1965519D01*
X6952988Y1966197D01*
X6951738Y1966796D01*
X6950415Y1967316D01*
X6949017Y1967755D01*
X6947544Y1968114D01*
X6945997Y1968394D01*
X6944376Y1968593D01*
X6940911Y1968753D01*
Y1988753D01*
X6942681Y1988793D01*
X6945997Y1989113D01*
X6947544Y1989392D01*
X6949017Y1989752D01*
X6950415Y1990191D01*
X6951738Y1990710D01*
X6952988Y1991309D01*
X6954163Y1991988D01*
X6955263Y1992747D01*
Y1964760D01*
D02*
G37*
G36*
X7890040Y1943092D02*
X7890359Y1939775D01*
X7890639Y1938228D01*
X7890998Y1936756D01*
X7891438Y1935358D01*
X7891957Y1934034D01*
X7892556Y1932785D01*
X7893235Y1931609D01*
X7893993Y1930509D01*
X7866007D01*
X7866765Y1931609D01*
X7867444Y1932785D01*
X7868043Y1934034D01*
X7868562Y1935358D01*
X7869002Y1936756D01*
X7869361Y1938228D01*
X7869641Y1939775D01*
X7869840Y1941396D01*
X7870000Y1944861D01*
X7890000D01*
X7890040Y1943092D01*
D02*
G37*
G36*
X7816813Y1866482D02*
X7817335Y1859124D01*
X7817530Y1858148D01*
X7817753Y1857337D01*
X7818007Y1856691D01*
X7818291Y1856211D01*
X7790304D01*
X7790588Y1856691D01*
X7790842Y1857337D01*
X7791066Y1858148D01*
X7791260Y1859124D01*
X7791425Y1860265D01*
X7791663Y1863043D01*
X7791798Y1868450D01*
X7816798D01*
X7816813Y1866482D01*
D02*
G37*
G36*
X6318999Y1802425D02*
X6317976Y1803334D01*
X6316870Y1804148D01*
X6315680Y1804866D01*
X6314407Y1805488D01*
X6313052Y1806015D01*
X6311612Y1806446D01*
X6310090Y1806781D01*
X6308484Y1807020D01*
X6306796Y1807164D01*
X6305024Y1807212D01*
X6308231Y1827211D01*
X6310100Y1827237D01*
X6315034Y1827617D01*
X6316455Y1827846D01*
X6318959Y1828455D01*
X6320043Y1828835D01*
X6321015Y1829267D01*
X6321875Y1829749D01*
X6318999Y1802425D01*
D02*
G37*
G36*
X6300055Y1636164D02*
X6300220Y1634482D01*
X6300494Y1632956D01*
X6300878Y1631585D01*
X6301372Y1630369D01*
X6301976Y1629309D01*
X6302690Y1628403D01*
X6303513Y1627653D01*
X6304446Y1627057D01*
X6305489Y1626617D01*
X6283105Y1614563D01*
X6280000Y1634861D01*
X6300000Y1638000D01*
X6300055Y1636164D01*
D02*
G37*
G36*
X6313235Y1598391D02*
X6312556Y1597215D01*
X6311957Y1595966D01*
X6311438Y1594642D01*
X6310999Y1593244D01*
X6310639Y1591772D01*
X6310359Y1590225D01*
X6310160Y1588604D01*
X6310000Y1585139D01*
X6290000D01*
X6289960Y1586908D01*
X6289641Y1590225D01*
X6289361Y1591772D01*
X6289002Y1593244D01*
X6288562Y1594642D01*
X6288043Y1595966D01*
X6287444Y1597215D01*
X6286765Y1598391D01*
X6286007Y1599491D01*
X6313993D01*
X6313235Y1598391D01*
D02*
G37*
G36*
X4873235Y1448391D02*
X4872556Y1447215D01*
X4871957Y1445966D01*
X4871438Y1444642D01*
X4870998Y1443244D01*
X4870639Y1441772D01*
X4870359Y1440225D01*
X4870160Y1438604D01*
X4870000Y1435139D01*
X4850000D01*
X4849960Y1436908D01*
X4849641Y1440225D01*
X4849361Y1441772D01*
X4849001Y1443244D01*
X4848562Y1444642D01*
X4848043Y1445966D01*
X4847444Y1447215D01*
X4846765Y1448391D01*
X4846007Y1449491D01*
X4873993D01*
X4873235Y1448391D01*
D02*
G37*
G36*
X6900232Y1396825D02*
X6902803Y1394705D01*
X6904095Y1393810D01*
X6905390Y1393022D01*
X6906689Y1392344D01*
X6907993Y1391775D01*
X6909299Y1391315D01*
X6910610Y1390965D01*
X6911925Y1390723D01*
X6892136Y1370933D01*
X6891894Y1372248D01*
X6891543Y1373559D01*
X6891083Y1374866D01*
X6890514Y1376169D01*
X6889836Y1377468D01*
X6889049Y1378764D01*
X6888153Y1380055D01*
X6887148Y1381343D01*
X6884810Y1383906D01*
X6898953Y1398048D01*
X6900232Y1396825D01*
D02*
G37*
G36*
X5806169Y1366169D02*
X5833195Y1310858D01*
X5831860Y1311793D01*
X5830666Y1311788D01*
X5829612Y1310842D01*
X5828699Y1308955D01*
X5827926Y1306128D01*
X5827293Y1302361D01*
X5826239Y1285414D01*
X5826169Y1277885D01*
X5786169Y1317885D01*
X5785886Y1325768D01*
X5785038Y1333416D01*
X5783623Y1340830D01*
X5781644Y1348010D01*
X5779098Y1354956D01*
X5775987Y1361667D01*
X5772310Y1368144D01*
X5768067Y1374387D01*
X5763259Y1380395D01*
X5757885Y1386169D01*
X5806169Y1366169D01*
D02*
G37*
G36*
X6541552Y1351653D02*
X6544123Y1349533D01*
X6545414Y1348637D01*
X6546709Y1347850D01*
X6548008Y1347172D01*
X6549312Y1346603D01*
X6550619Y1346143D01*
X6551929Y1345793D01*
X6553244Y1345551D01*
X6535919Y1328225D01*
X6553244Y1310900D01*
X6551929Y1310658D01*
X6550619Y1310307D01*
X6549312Y1309847D01*
X6548008Y1309278D01*
X6546709Y1308600D01*
X6545414Y1307813D01*
X6544123Y1306917D01*
X6542835Y1305912D01*
X6540272Y1303574D01*
X6526130Y1317717D01*
X6527353Y1318996D01*
X6529472Y1321567D01*
X6530368Y1322859D01*
X6531155Y1324154D01*
X6531833Y1325453D01*
X6532402Y1326757D01*
X6532862Y1328063D01*
X6532905Y1328225D01*
X6532862Y1328387D01*
X6532402Y1329694D01*
X6531833Y1330997D01*
X6531155Y1332296D01*
X6530368Y1333591D01*
X6529472Y1334883D01*
X6528467Y1336171D01*
X6526130Y1338734D01*
X6540272Y1352876D01*
X6541552Y1351653D01*
D02*
G37*
G36*
X6880216Y1225472D02*
Y1107728D01*
X6865215Y1100126D01*
X6852884Y1105233D01*
X6833988D01*
X6816530Y1098002D01*
X6803168Y1084640D01*
X6795936Y1067182D01*
Y1048285D01*
X6803168Y1030827D01*
X6816530Y1017465D01*
X6833988Y1010234D01*
X6852884D01*
X6865215Y1015341D01*
X6880216Y1007739D01*
Y759003D01*
X6880215Y759001D01*
X6883320Y743394D01*
X6892161Y730163D01*
X7021896Y600428D01*
X7023032Y583146D01*
X7017231Y579270D01*
X7001207Y555288D01*
X6995580Y527000D01*
Y402000D01*
X7000794Y375784D01*
X6997214Y366243D01*
X6994296Y360784D01*
X6975704D01*
X6972786Y366243D01*
X6969206Y375784D01*
X6974420Y402000D01*
Y527000D01*
X6968793Y555288D01*
X6952769Y579270D01*
X6928788Y595293D01*
X6900500Y600920D01*
X6815500D01*
X6787212Y595293D01*
X6763231Y579270D01*
X6747207Y555288D01*
X6741580Y527000D01*
Y402000D01*
X6746794Y375784D01*
X6743214Y366243D01*
X6740296Y360784D01*
X6721704D01*
X6718786Y366243D01*
X6715206Y375784D01*
X6720420Y402000D01*
Y527000D01*
X6714793Y555288D01*
X6698769Y579270D01*
X6674788Y595293D01*
X6646500Y600920D01*
X6561500D01*
X6533212Y595293D01*
X6531551Y594183D01*
X6521989Y605835D01*
X6578839Y662684D01*
X6587679Y675916D01*
X6590784Y691523D01*
X6590784Y691524D01*
Y834337D01*
X6592146Y837626D01*
X6592253Y837786D01*
X6592290Y837975D01*
X6597500Y850552D01*
Y869448D01*
X6593119Y880025D01*
X6601620Y883547D01*
X6614982Y896909D01*
X6622214Y914367D01*
Y933264D01*
X6614982Y950722D01*
X6601620Y964084D01*
X6584162Y971315D01*
X6565266D01*
X6547807Y964084D01*
X6546770Y963046D01*
X6531770Y969259D01*
Y1086156D01*
X6533132Y1089445D01*
X6533239Y1089605D01*
X6533276Y1089793D01*
X6538486Y1102370D01*
Y1121267D01*
X6533276Y1133844D01*
X6533239Y1134033D01*
X6533132Y1134193D01*
X6531770Y1137482D01*
Y1188480D01*
X6532453Y1188920D01*
X6546770Y1193079D01*
X6557051Y1182797D01*
X6574509Y1175566D01*
X6593406D01*
X6610864Y1182797D01*
X6624226Y1196159D01*
X6631457Y1213618D01*
Y1232514D01*
X6624226Y1249972D01*
X6610864Y1263334D01*
X6593406Y1270566D01*
X6574509D01*
X6569158Y1284424D01*
X6577687Y1287957D01*
X6588004Y1298274D01*
X6595491Y1293271D01*
X6615000Y1289390D01*
X6634509Y1293271D01*
X6651048Y1304322D01*
X6661613Y1314886D01*
X6672664Y1331425D01*
X6676544Y1350935D01*
Y1409545D01*
X6690402Y1415285D01*
X6880216Y1225472D01*
D02*
G37*
G36*
X5905125Y1285952D02*
X5903902Y1284673D01*
X5901782Y1282102D01*
X5900887Y1280810D01*
X5900099Y1279515D01*
X5899422Y1278216D01*
X5898853Y1276913D01*
X5898393Y1275606D01*
X5898042Y1274295D01*
X5897800Y1272980D01*
X5878010Y1292770D01*
X5879325Y1293011D01*
X5880636Y1293362D01*
X5881943Y1293822D01*
X5883246Y1294391D01*
X5884546Y1295069D01*
X5885841Y1295856D01*
X5887132Y1296752D01*
X5888420Y1297757D01*
X5890983Y1300095D01*
X5905125Y1285952D01*
D02*
G37*
G36*
X5741052Y1359191D02*
X5743440Y1356206D01*
X5746317Y1351973D01*
X5748765Y1347662D01*
X5750815Y1343239D01*
X5752490Y1338668D01*
X5753809Y1333886D01*
X5754768Y1328858D01*
X5755189Y1325059D01*
Y1255192D01*
X5741331Y1249452D01*
X5473340Y1517443D01*
X5479794Y1532203D01*
X5495077Y1538533D01*
X5508439Y1551895D01*
X5513914Y1565114D01*
X5529528Y1570714D01*
X5741052Y1359191D01*
D02*
G37*
G36*
X5935616Y1236175D02*
X5934289Y1234818D01*
X5931021Y1231099D01*
X5930169Y1229975D01*
X5928820Y1227904D01*
X5928324Y1226956D01*
X5927946Y1226067D01*
X5927687Y1225236D01*
X5911106Y1246962D01*
X5912473Y1246996D01*
X5913831Y1247163D01*
X5915181Y1247461D01*
X5916522Y1247890D01*
X5917855Y1248452D01*
X5919179Y1249145D01*
X5920494Y1249969D01*
X5921801Y1250926D01*
X5923100Y1252014D01*
X5924390Y1253233D01*
X5935616Y1236175D01*
D02*
G37*
G36*
X7388020Y1217724D02*
X7380738Y1210295D01*
X7365227Y1223068D01*
X7366509Y1224359D01*
X7371580Y1230036D01*
X7371747Y1230368D01*
X7371775Y1230579D01*
X7388020Y1217724D01*
D02*
G37*
G36*
X7638974Y1165743D02*
X7637887Y1166552D01*
X7636724Y1167276D01*
X7635486Y1167914D01*
X7634172Y1168468D01*
X7632782Y1168936D01*
X7631316Y1169319D01*
X7629775Y1169617D01*
X7628158Y1169830D01*
X7626465Y1169957D01*
X7624697Y1170000D01*
X7625626Y1190000D01*
X7627424Y1190036D01*
X7630768Y1190321D01*
X7632314Y1190572D01*
X7633776Y1190893D01*
X7635154Y1191286D01*
X7636449Y1191751D01*
X7637659Y1192287D01*
X7638785Y1192894D01*
X7639827Y1193573D01*
X7638974Y1165743D01*
D02*
G37*
G36*
X7560200Y1206200D02*
X7560800Y1202800D01*
X7561800Y1199800D01*
X7563200Y1197200D01*
X7565000Y1195000D01*
X7567200Y1193200D01*
X7569800Y1191800D01*
X7572800Y1190800D01*
X7576200Y1190200D01*
X7580000Y1190000D01*
Y1170000D01*
X7576200Y1169800D01*
X7572800Y1169200D01*
X7569800Y1168200D01*
X7567200Y1166800D01*
X7565000Y1165000D01*
X7563200Y1162800D01*
X7561800Y1160200D01*
X7560800Y1157200D01*
X7560200Y1153800D01*
X7560000Y1150000D01*
X7540000Y1180000D01*
X7560000Y1210000D01*
X7560200Y1206200D01*
D02*
G37*
G36*
X6501026Y1134910D02*
X6501346Y1131594D01*
X6501625Y1130047D01*
X6501985Y1128574D01*
X6502424Y1127176D01*
X6502943Y1125852D01*
X6503542Y1124603D01*
X6504221Y1123428D01*
X6504980Y1122327D01*
X6476993D01*
X6477752Y1123428D01*
X6478431Y1124603D01*
X6479029Y1125852D01*
X6479549Y1127176D01*
X6479988Y1128574D01*
X6480347Y1130047D01*
X6480627Y1131594D01*
X6480827Y1133215D01*
X6480986Y1136680D01*
X6500986D01*
X6501026Y1134910D01*
D02*
G37*
G36*
X6504221Y1100209D02*
X6503542Y1099034D01*
X6502943Y1097785D01*
X6502424Y1096461D01*
X6501985Y1095063D01*
X6501625Y1093591D01*
X6501346Y1092044D01*
X6501146Y1090423D01*
X6500986Y1086957D01*
X6480986D01*
X6480946Y1088727D01*
X6480627Y1092044D01*
X6480347Y1093591D01*
X6479988Y1095063D01*
X6479549Y1096461D01*
X6479029Y1097785D01*
X6478431Y1099034D01*
X6477752Y1100209D01*
X6476993Y1101310D01*
X6504980D01*
X6504221Y1100209D01*
D02*
G37*
G36*
X5505467Y1058274D02*
X5504152Y1058032D01*
X5502841Y1057682D01*
X5501534Y1057222D01*
X5500231Y1056653D01*
X5498931Y1055975D01*
X5497636Y1055188D01*
X5496345Y1054292D01*
X5495057Y1053286D01*
X5492494Y1050949D01*
X5478352Y1065091D01*
X5479575Y1066371D01*
X5481694Y1068942D01*
X5482590Y1070234D01*
X5483377Y1071529D01*
X5484055Y1072828D01*
X5484624Y1074131D01*
X5485084Y1075438D01*
X5485435Y1076749D01*
X5485677Y1078064D01*
X5505467Y1058274D01*
D02*
G37*
G36*
X7149217Y1353107D02*
Y1203986D01*
X7138052D01*
X7120594Y1196754D01*
X7107232Y1183392D01*
X7100000Y1165934D01*
Y1147038D01*
X7107232Y1129579D01*
X7120594Y1116217D01*
X7138052Y1108986D01*
X7149217D01*
Y1053158D01*
X7132498D01*
X7119921Y1047949D01*
X7119732Y1047911D01*
X7119572Y1047804D01*
X7116283Y1046442D01*
X7081235D01*
X7000783Y1126894D01*
Y1259999D01*
X7000784Y1260000D01*
X6997679Y1275607D01*
X6988838Y1288838D01*
X6940458Y1337219D01*
X6949730Y1346491D01*
X6956961Y1363949D01*
Y1382846D01*
X6949730Y1400304D01*
X6947626Y1402407D01*
X6950553Y1417119D01*
X6952794Y1418047D01*
X6966156Y1431409D01*
X6973387Y1448867D01*
Y1467764D01*
X6966156Y1485222D01*
X6952794Y1498584D01*
X6935336Y1505815D01*
X6916439D01*
X6898981Y1498584D01*
X6885619Y1485222D01*
X6879654Y1470822D01*
X6864529Y1464733D01*
X6548651Y1780612D01*
Y1934075D01*
X6562509Y1939815D01*
X7149217Y1353107D01*
D02*
G37*
G36*
X3402515Y1050780D02*
X3403038Y1043421D01*
X3403232Y1042445D01*
X3403456Y1041635D01*
X3403710Y1040989D01*
X3403993Y1040509D01*
X3376007D01*
X3376290Y1040989D01*
X3376544Y1041635D01*
X3376768Y1042445D01*
X3376963Y1043421D01*
X3377127Y1044563D01*
X3377366Y1047341D01*
X3377500Y1052747D01*
X3402500D01*
X3402515Y1050780D01*
D02*
G37*
G36*
X7629734Y1013213D02*
X7628963Y1013618D01*
X7628067Y1013980D01*
X7627045Y1014299D01*
X7625899Y1014576D01*
X7624627Y1014810D01*
X7621708Y1015151D01*
X7618289Y1015321D01*
X7616391Y1015342D01*
X7612268Y1035342D01*
X7614042Y1035392D01*
X7615730Y1035541D01*
X7617330Y1035789D01*
X7618844Y1036136D01*
X7620270Y1036582D01*
X7621609Y1037127D01*
X7622862Y1037772D01*
X7624027Y1038516D01*
X7625105Y1039359D01*
X7626095Y1040301D01*
X7629734Y1013213D01*
D02*
G37*
G36*
X7131437Y991665D02*
X7130337Y992424D01*
X7129162Y993103D01*
X7127912Y993702D01*
X7126588Y994221D01*
X7125190Y994660D01*
X7123718Y995020D01*
X7122171Y995299D01*
X7120550Y995499D01*
X7117085Y995659D01*
Y1015659D01*
X7118854Y1015699D01*
X7122171Y1016018D01*
X7123718Y1016298D01*
X7125190Y1016657D01*
X7126588Y1017096D01*
X7127912Y1017615D01*
X7129162Y1018214D01*
X7130337Y1018893D01*
X7131437Y1019652D01*
Y991665D01*
D02*
G37*
G36*
X7578628Y1035680D02*
X7581280Y1033524D01*
X7583815Y1031816D01*
X7586232Y1030557D01*
X7588532Y1029745D01*
X7590715Y1029382D01*
X7592780Y1029468D01*
X7594728Y1030001D01*
X7596558Y1030983D01*
X7598271Y1032413D01*
X7612414Y1018271D01*
X7610983Y1016558D01*
X7610002Y1014728D01*
X7609468Y1012780D01*
X7609383Y1010715D01*
X7609746Y1008532D01*
X7610557Y1006232D01*
X7611816Y1003815D01*
X7613524Y1001280D01*
X7615680Y998628D01*
X7618284Y995858D01*
X7597071Y988787D01*
X7582929Y1002929D01*
X7575858Y1038284D01*
X7578628Y1035680D01*
D02*
G37*
G36*
X3990500Y1016900D02*
X3992000Y1010100D01*
X3994500Y1004100D01*
X3998000Y998900D01*
X4002500Y994500D01*
X4008000Y990900D01*
X4014500Y988100D01*
X4022000Y986100D01*
X4030500Y984900D01*
X4040000Y984500D01*
X3970000Y934500D01*
X3900000Y984500D01*
X3909500Y984900D01*
X3918000Y986100D01*
X3925500Y988100D01*
X3932000Y990900D01*
X3937500Y994500D01*
X3942000Y998900D01*
X3945500Y1004100D01*
X3948000Y1010100D01*
X3949500Y1016900D01*
X3950000Y1024500D01*
X3990000D01*
X3990500Y1016900D01*
D02*
G37*
G36*
X5420040Y903092D02*
X5420359Y899775D01*
X5420639Y898228D01*
X5420999Y896756D01*
X5421438Y895358D01*
X5421957Y894034D01*
X5422556Y892785D01*
X5423235Y891609D01*
X5423993Y890509D01*
X5396007D01*
X5396765Y891609D01*
X5397444Y892785D01*
X5398043Y894034D01*
X5398562Y895358D01*
X5399002Y896756D01*
X5399361Y898228D01*
X5399641Y899775D01*
X5399840Y901396D01*
X5400000Y904861D01*
X5420000D01*
X5420040Y903092D01*
D02*
G37*
G36*
X7445112Y904648D02*
X7447683Y902529D01*
X7448975Y901633D01*
X7450270Y900846D01*
X7451569Y900168D01*
X7452873Y899599D01*
X7454179Y899139D01*
X7455490Y898788D01*
X7456805Y898546D01*
X7437016Y878756D01*
X7436774Y880071D01*
X7436423Y881382D01*
X7435963Y882689D01*
X7435394Y883992D01*
X7434716Y885292D01*
X7433929Y886587D01*
X7433033Y887878D01*
X7432028Y889166D01*
X7429690Y891729D01*
X7443833Y905871D01*
X7445112Y904648D01*
D02*
G37*
G36*
X3469969Y810031D02*
X3434613Y774676D01*
X3388652Y799425D01*
X3395157Y806354D01*
X3400531Y813001D01*
X3404773Y819365D01*
X3407885Y825446D01*
X3409865Y831244D01*
X3410713Y836760D01*
X3410430Y841992D01*
X3409016Y846942D01*
X3406471Y851609D01*
X3402794Y855993D01*
X3424007Y877207D01*
X3428391Y873529D01*
X3433058Y870984D01*
X3438008Y869570D01*
X3443240Y869287D01*
X3448756Y870135D01*
X3454554Y872115D01*
X3460635Y875227D01*
X3466999Y879469D01*
X3473646Y884843D01*
X3480575Y891348D01*
X3469969Y810031D01*
D02*
G37*
G36*
X6540771Y883427D02*
X6543342Y881308D01*
X6544634Y880412D01*
X6545929Y879625D01*
X6547228Y878947D01*
X6548531Y878378D01*
X6549838Y877918D01*
X6551149Y877567D01*
X6552464Y877326D01*
X6532675Y857536D01*
X6532433Y858851D01*
X6532082Y860162D01*
X6531622Y861469D01*
X6531053Y862772D01*
X6530375Y864071D01*
X6529588Y865366D01*
X6528692Y866658D01*
X6527687Y867945D01*
X6525349Y870509D01*
X6539492Y884651D01*
X6540771Y883427D01*
D02*
G37*
G36*
X5427568Y881149D02*
X5427918Y879838D01*
X5428378Y878531D01*
X5428947Y877228D01*
X5429625Y875929D01*
X5430412Y874634D01*
X5431308Y873342D01*
X5432313Y872055D01*
X5434651Y869492D01*
X5420509Y855349D01*
X5419229Y856573D01*
X5416658Y858692D01*
X5415366Y859588D01*
X5414071Y860375D01*
X5412772Y861053D01*
X5411469Y861622D01*
X5410162Y862082D01*
X5408851Y862433D01*
X5407536Y862674D01*
X5427326Y882464D01*
X5427568Y881149D01*
D02*
G37*
G36*
X6563235Y848391D02*
X6562556Y847215D01*
X6561957Y845966D01*
X6561438Y844642D01*
X6560999Y843244D01*
X6560639Y841772D01*
X6560359Y840225D01*
X6560160Y838604D01*
X6560000Y835139D01*
X6540000D01*
X6539960Y836908D01*
X6539641Y840225D01*
X6539361Y841772D01*
X6539002Y843244D01*
X6538562Y844642D01*
X6538043Y845966D01*
X6537444Y847215D01*
X6536765Y848391D01*
X6536007Y849491D01*
X6563993D01*
X6563235Y848391D01*
D02*
G37*
G36*
X5915737Y839658D02*
X5915886Y837971D01*
X5916133Y836370D01*
X5916480Y834857D01*
X5916927Y833431D01*
X5917472Y832092D01*
X5918117Y830839D01*
X5918861Y829674D01*
X5919703Y828596D01*
X5920646Y827605D01*
X5893558Y823967D01*
X5893963Y824738D01*
X5894325Y825634D01*
X5894644Y826656D01*
X5894921Y827802D01*
X5895155Y829074D01*
X5895496Y831993D01*
X5895666Y835412D01*
X5895687Y837310D01*
X5915687Y841433D01*
X5915737Y839658D01*
D02*
G37*
G36*
X7699074Y820254D02*
X7697973Y821013D01*
X7696798Y821692D01*
X7695548Y822291D01*
X7694225Y822810D01*
X7692827Y823249D01*
X7691354Y823608D01*
X7689807Y823888D01*
X7688186Y824088D01*
X7684721Y824248D01*
Y844247D01*
X7686491Y844287D01*
X7689807Y844607D01*
X7691354Y844887D01*
X7692827Y845246D01*
X7694225Y845685D01*
X7695548Y846204D01*
X7696798Y846803D01*
X7697973Y847482D01*
X7699074Y848241D01*
Y820254D01*
D02*
G37*
G36*
X5836827Y816877D02*
X5835726Y817636D01*
X5834551Y818315D01*
X5833302Y818914D01*
X5831978Y819433D01*
X5830580Y819872D01*
X5829107Y820231D01*
X5827561Y820511D01*
X5825940Y820711D01*
X5822474Y820870D01*
Y840870D01*
X5824244Y840910D01*
X5827561Y841230D01*
X5829107Y841509D01*
X5830580Y841869D01*
X5831978Y842308D01*
X5833302Y842827D01*
X5834551Y843426D01*
X5835726Y844105D01*
X5836827Y844864D01*
Y816877D01*
D02*
G37*
G36*
X7641318Y827176D02*
X7641068Y826726D01*
X7640013Y809671D01*
X7640000Y805858D01*
X7620000Y830000D01*
X7630000D01*
X7641318Y827176D01*
D02*
G37*
G36*
X6975108Y808515D02*
X6976284Y807836D01*
X6977533Y807237D01*
X6978857Y806718D01*
X6980255Y806279D01*
X6981727Y805920D01*
X6983274Y805640D01*
X6984895Y805440D01*
X6988360Y805281D01*
Y785281D01*
X6986591Y785241D01*
X6983274Y784921D01*
X6981727Y784642D01*
X6980255Y784282D01*
X6978857Y783843D01*
X6977533Y783324D01*
X6976284Y782725D01*
X6975108Y782046D01*
X6974008Y781287D01*
Y809274D01*
X6975108Y808515D01*
D02*
G37*
G36*
X7147071Y611476D02*
X7146034Y612368D01*
X7144915Y613167D01*
X7143715Y613872D01*
X7142433Y614482D01*
X7141070Y614999D01*
X7139625Y615422D01*
X7138099Y615751D01*
X7136491Y615986D01*
X7134802Y616127D01*
X7133031Y616174D01*
X7135809Y636174D01*
X7137665Y636201D01*
X7142594Y636611D01*
X7144024Y636856D01*
X7145348Y637157D01*
X7146565Y637512D01*
X7147676Y637922D01*
X7148681Y638386D01*
X7149579Y638904D01*
X7147071Y611476D01*
D02*
G37*
G36*
X6494521Y621902D02*
X6493298Y620622D01*
X6491179Y618051D01*
X6490283Y616760D01*
X6489496Y615465D01*
X6488818Y614165D01*
X6488249Y612862D01*
X6487789Y611555D01*
X6487438Y610244D01*
X6487196Y608929D01*
X6467407Y628719D01*
X6468722Y628961D01*
X6470033Y629312D01*
X6471339Y629772D01*
X6472643Y630341D01*
X6473942Y631019D01*
X6475237Y631806D01*
X6476529Y632702D01*
X6477816Y633707D01*
X6480379Y636044D01*
X6494521Y621902D01*
D02*
G37*
G36*
X7640040Y643092D02*
X7640359Y639775D01*
X7640639Y638228D01*
X7640998Y636756D01*
X7641438Y635358D01*
X7641957Y634034D01*
X7642556Y632785D01*
X7643235Y631609D01*
X7643993Y630509D01*
X7619491D01*
Y606007D01*
X7618391Y606765D01*
X7617215Y607444D01*
X7615966Y608043D01*
X7614642Y608562D01*
X7613244Y609002D01*
X7611772Y609361D01*
X7610225Y609641D01*
X7608604Y609840D01*
X7605139Y610000D01*
Y630000D01*
X7606908Y630040D01*
X7610225Y630359D01*
X7611772Y630639D01*
X7613244Y630998D01*
X7614642Y631438D01*
X7615966Y631957D01*
X7617215Y632556D01*
X7617360Y632640D01*
X7617444Y632785D01*
X7618043Y634034D01*
X7618562Y635358D01*
X7619002Y636756D01*
X7619361Y638228D01*
X7619641Y639775D01*
X7619840Y641396D01*
X7620000Y644861D01*
X7640000D01*
X7640040Y643092D01*
D02*
G37*
G36*
X6483169Y599859D02*
X6482504Y598693D01*
X6481917Y597451D01*
X6481408Y596132D01*
X6480978Y594738D01*
X6480626Y593267D01*
X6480352Y591720D01*
X6480156Y590097D01*
X6480000Y586623D01*
X6460000Y586443D01*
X6459959Y588211D01*
X6459635Y591526D01*
X6459352Y593072D01*
X6458987Y594544D01*
X6458542Y595941D01*
X6458015Y597265D01*
X6457407Y598514D01*
X6456718Y599689D01*
X6455949Y600790D01*
X6483913Y600950D01*
X6483169Y599859D01*
D02*
G37*
G36*
X6480200Y346200D02*
X6480800Y342800D01*
X6481800Y339800D01*
X6483200Y337200D01*
X6485000Y335000D01*
X6487200Y333200D01*
X6489800Y331800D01*
X6492800Y330800D01*
X6496200Y330200D01*
X6500000Y330000D01*
X6470000Y310000D01*
X6440000Y330000D01*
X6443800Y330200D01*
X6447200Y330800D01*
X6450200Y331800D01*
X6452800Y333200D01*
X6455000Y335000D01*
X6456800Y337200D01*
X6458200Y339800D01*
X6459200Y342800D01*
X6459800Y346200D01*
X6460000Y350000D01*
X6480000D01*
X6480200Y346200D01*
D02*
G37*
G36*
X5470200D02*
X5470800Y342800D01*
X5471800Y339800D01*
X5473200Y337200D01*
X5475000Y335000D01*
X5477200Y333200D01*
X5479800Y331800D01*
X5482800Y330800D01*
X5486200Y330200D01*
X5490000Y330000D01*
X5460000Y310000D01*
X5430000Y330000D01*
X5433800Y330200D01*
X5437200Y330800D01*
X5440200Y331800D01*
X5442800Y333200D01*
X5445000Y335000D01*
X5446800Y337200D01*
X5448200Y339800D01*
X5449200Y342800D01*
X5449800Y346200D01*
X5450000Y350000D01*
X5470000D01*
X5470200Y346200D01*
D02*
G37*
%LPC*%
G36*
X8154250Y5118945D02*
X8123000D01*
Y5015000D01*
X8229444D01*
Y5043750D01*
X8223720Y5072526D01*
X8207420Y5096920D01*
X8183025Y5113221D01*
X8154250Y5118945D01*
D02*
G37*
G36*
X8103000D02*
X8071750D01*
X8042974Y5113221D01*
X8018579Y5096920D01*
X8002279Y5072526D01*
X7996555Y5043750D01*
Y5015000D01*
X8103000D01*
Y5118945D01*
D02*
G37*
G36*
X8229444Y4995000D02*
X8123000D01*
Y4891055D01*
X8154250D01*
X8183025Y4896779D01*
X8207420Y4913079D01*
X8223720Y4937474D01*
X8229444Y4966250D01*
Y4995000D01*
D02*
G37*
G36*
X8103000D02*
X7996555D01*
Y4966250D01*
X8002279Y4937474D01*
X8018579Y4913079D01*
X8042974Y4896779D01*
X8071750Y4891055D01*
X8103000D01*
Y4995000D01*
D02*
G37*
G36*
X7662500Y5132920D02*
X7577500D01*
X7549212Y5127294D01*
X7525231Y5111270D01*
X7509207Y5087288D01*
X7503580Y5059000D01*
Y4934000D01*
X7509207Y4905712D01*
X7525231Y4881730D01*
X7549212Y4865707D01*
X7577500Y4860080D01*
X7662500D01*
X7690788Y4865707D01*
X7714769Y4881730D01*
X7730793Y4905712D01*
X7736420Y4934000D01*
Y5059000D01*
X7730793Y5087288D01*
X7714769Y5111270D01*
X7690788Y5127294D01*
X7662500Y5132920D01*
D02*
G37*
G36*
X7408500D02*
X7323500D01*
X7295212Y5127294D01*
X7271231Y5111270D01*
X7255207Y5087288D01*
X7249580Y5059000D01*
Y4934000D01*
X7255207Y4905712D01*
X7271231Y4881730D01*
X7295212Y4865707D01*
X7323500Y4860080D01*
X7408500D01*
X7436788Y4865707D01*
X7460769Y4881730D01*
X7476793Y4905712D01*
X7482420Y4934000D01*
Y5059000D01*
X7476793Y5087288D01*
X7460769Y5111270D01*
X7436788Y5127294D01*
X7408500Y5132920D01*
D02*
G37*
G36*
X7154500D02*
X7069500D01*
X7041212Y5127294D01*
X7017231Y5111270D01*
X7001207Y5087288D01*
X6995580Y5059000D01*
Y4934000D01*
X7001207Y4905712D01*
X7017231Y4881730D01*
X7041212Y4865707D01*
X7069500Y4860080D01*
X7154500D01*
X7182788Y4865707D01*
X7206769Y4881730D01*
X7222793Y4905712D01*
X7228420Y4934000D01*
Y5059000D01*
X7222793Y5087288D01*
X7206769Y5111270D01*
X7182788Y5127294D01*
X7154500Y5132920D01*
D02*
G37*
G36*
X6900500D02*
X6815500D01*
X6787212Y5127294D01*
X6763231Y5111270D01*
X6747207Y5087288D01*
X6741580Y5059000D01*
Y4934000D01*
X6747207Y4905712D01*
X6763231Y4881730D01*
X6787212Y4865707D01*
X6815500Y4860080D01*
X6900500D01*
X6928788Y4865707D01*
X6952769Y4881730D01*
X6968793Y4905712D01*
X6974420Y4934000D01*
Y5059000D01*
X6968793Y5087288D01*
X6952769Y5111270D01*
X6928788Y5127294D01*
X6900500Y5132920D01*
D02*
G37*
G36*
X7220238Y4769110D02*
X7201342D01*
X7183884Y4761879D01*
X7170522Y4748517D01*
X7163290Y4731059D01*
Y4712162D01*
X7170522Y4694704D01*
X7183884Y4681342D01*
X7201342Y4674111D01*
X7220238D01*
X7237696Y4681342D01*
X7251058Y4694704D01*
X7258290Y4712162D01*
Y4731059D01*
X7251058Y4748517D01*
X7237696Y4761879D01*
X7220238Y4769110D01*
D02*
G37*
G36*
X8189448Y4757500D02*
X8170552D01*
X8153093Y4750268D01*
X8139731Y4736906D01*
X8132500Y4719448D01*
Y4700552D01*
X8139731Y4683094D01*
X8148024Y4674800D01*
X8142417Y4669193D01*
X8135186Y4651735D01*
Y4632838D01*
X8142417Y4615380D01*
X8155779Y4602018D01*
X8173237Y4594787D01*
X8192134D01*
X8209592Y4602018D01*
X8222954Y4615380D01*
X8230185Y4632838D01*
Y4651735D01*
X8222954Y4669193D01*
X8214661Y4677486D01*
X8220268Y4683094D01*
X8227500Y4700552D01*
Y4719448D01*
X8220268Y4736906D01*
X8206906Y4750268D01*
X8189448Y4757500D01*
D02*
G37*
G36*
X8344789Y4727795D02*
X8325892D01*
X8308434Y4720563D01*
X8295072Y4707201D01*
X8287841Y4689743D01*
Y4670847D01*
X8295072Y4653388D01*
X8297170Y4651291D01*
X8291621Y4637893D01*
Y4618997D01*
X8298852Y4601539D01*
X8312214Y4588177D01*
X8329672Y4580945D01*
X8348569D01*
X8366027Y4588177D01*
X8379389Y4601539D01*
X8386620Y4618997D01*
Y4637893D01*
X8379389Y4655352D01*
X8377291Y4657449D01*
X8382840Y4670847D01*
Y4689743D01*
X8375609Y4707201D01*
X8362247Y4720563D01*
X8344789Y4727795D01*
D02*
G37*
G36*
X7549448Y4627500D02*
X7530552D01*
X7513093Y4620268D01*
X7499732Y4606906D01*
X7492500Y4589448D01*
Y4570552D01*
X7499732Y4553094D01*
X7513093Y4539732D01*
X7521989Y4536047D01*
X7523093Y4520268D01*
X7509731Y4506906D01*
X7502500Y4489448D01*
Y4470552D01*
X7509731Y4453093D01*
X7523093Y4439732D01*
X7540552Y4432500D01*
X7559448D01*
X7576906Y4439732D01*
X7590268Y4453093D01*
X7597500Y4470552D01*
Y4489448D01*
X7590268Y4506906D01*
X7576906Y4520268D01*
X7568011Y4523953D01*
X7566907Y4539732D01*
X7580268Y4553094D01*
X7587500Y4570552D01*
Y4589448D01*
X7580268Y4606906D01*
X7566906Y4620268D01*
X7549448Y4627500D01*
D02*
G37*
G36*
X8204404Y4487137D02*
X8185507D01*
X8168049Y4479906D01*
X8154687Y4466544D01*
X8147456Y4449086D01*
Y4430189D01*
X8154687Y4412731D01*
X8167020Y4400398D01*
X8166419Y4398947D01*
Y4380051D01*
X8173650Y4362592D01*
X8187012Y4349231D01*
X8204470Y4341999D01*
X8223367D01*
X8240825Y4349231D01*
X8254187Y4362592D01*
X8261418Y4380051D01*
Y4398947D01*
X8254187Y4416405D01*
X8241854Y4428738D01*
X8242455Y4430189D01*
Y4449086D01*
X8235224Y4466544D01*
X8221862Y4479906D01*
X8204404Y4487137D01*
D02*
G37*
G36*
X8342521Y4489327D02*
X8323625D01*
X8306167Y4482096D01*
X8292805Y4468734D01*
X8285573Y4451276D01*
Y4432379D01*
X8292805Y4414921D01*
X8293020Y4414705D01*
X8286328Y4398549D01*
Y4379653D01*
X8293559Y4362195D01*
X8306921Y4348833D01*
X8324380Y4341601D01*
X8343276D01*
X8360734Y4348833D01*
X8374096Y4362195D01*
X8381328Y4379653D01*
Y4398549D01*
X8374096Y4416008D01*
X8373881Y4416223D01*
X8380573Y4432379D01*
Y4451276D01*
X8373341Y4468734D01*
X8359979Y4482096D01*
X8342521Y4489327D01*
D02*
G37*
G36*
X7209448Y4527500D02*
X7190552D01*
X7173094Y4520268D01*
X7159732Y4506906D01*
X7152500Y4489448D01*
Y4470552D01*
X7159732Y4453093D01*
X7173094Y4439732D01*
X7183018Y4435621D01*
X7180034Y4420621D01*
X7170219D01*
X7152761Y4413389D01*
X7139399Y4400028D01*
X7132167Y4382569D01*
Y4363673D01*
X7139399Y4346215D01*
X7152761Y4332853D01*
X7170219Y4325621D01*
X7189115D01*
X7206574Y4332853D01*
X7219936Y4346215D01*
X7227167Y4363673D01*
Y4382569D01*
X7219936Y4400028D01*
X7206574Y4413389D01*
X7196650Y4417500D01*
X7199633Y4432500D01*
X7209448D01*
X7226907Y4439732D01*
X7240268Y4453093D01*
X7247500Y4470552D01*
Y4489448D01*
X7240268Y4506906D01*
X7226907Y4520268D01*
X7209448Y4527500D01*
D02*
G37*
G36*
X7299448Y4267500D02*
X7280552D01*
X7263093Y4260268D01*
X7249732Y4246906D01*
X7242500Y4229448D01*
Y4210552D01*
X7249732Y4193093D01*
X7263093Y4179732D01*
X7280552Y4172500D01*
X7299448D01*
X7316906Y4179732D01*
X7330268Y4193093D01*
X7337500Y4210552D01*
Y4229448D01*
X7330268Y4246906D01*
X7316906Y4260268D01*
X7299448Y4267500D01*
D02*
G37*
G36*
X6749448Y4187500D02*
X6730552D01*
X6713094Y4180268D01*
X6699732Y4166907D01*
X6692500Y4149448D01*
Y4130552D01*
X6699732Y4113094D01*
X6713094Y4099732D01*
X6730552Y4092500D01*
X6749448D01*
X6766906Y4099732D01*
X6780268Y4113094D01*
X6787500Y4130552D01*
Y4149448D01*
X6780268Y4166907D01*
X6766906Y4180268D01*
X6749448Y4187500D01*
D02*
G37*
G36*
X7219448Y4177500D02*
X7200552D01*
X7183094Y4170269D01*
X7169732Y4156907D01*
X7162500Y4139448D01*
Y4120552D01*
X7169732Y4103094D01*
X7183094Y4089732D01*
X7200552Y4082500D01*
X7219448D01*
X7236907Y4089732D01*
X7250268Y4103094D01*
X7257500Y4120552D01*
Y4139448D01*
X7250268Y4156907D01*
X7236907Y4170269D01*
X7219448Y4177500D01*
D02*
G37*
G36*
X6501536Y4128653D02*
X6482640D01*
X6465182Y4121421D01*
X6451820Y4108059D01*
X6444588Y4090601D01*
Y4071705D01*
X6451820Y4054246D01*
X6465182Y4040884D01*
X6482640Y4033653D01*
X6486113D01*
X6497500Y4021948D01*
Y4003052D01*
X6504732Y3985594D01*
X6518094Y3972232D01*
X6535552Y3965000D01*
X6554448D01*
X6571907Y3972232D01*
X6585269Y3985594D01*
X6592500Y4003052D01*
Y4021948D01*
X6585269Y4039406D01*
X6571907Y4052768D01*
X6554448Y4060000D01*
X6550975D01*
X6539588Y4071705D01*
Y4090601D01*
X6532357Y4108059D01*
X6518995Y4121421D01*
X6501536Y4128653D01*
D02*
G37*
G36*
X6930544Y4024261D02*
X6911648D01*
X6894190Y4017030D01*
X6880828Y4003668D01*
X6873596Y3986210D01*
Y3967313D01*
X6880828Y3949855D01*
X6894190Y3936493D01*
X6911648Y3929262D01*
X6930544D01*
X6948003Y3936493D01*
X6961365Y3949855D01*
X6968596Y3967313D01*
Y3986210D01*
X6961365Y4003668D01*
X6948003Y4017030D01*
X6930544Y4024261D01*
D02*
G37*
G36*
X6780781Y4020811D02*
X6761884D01*
X6744426Y4013580D01*
X6731064Y4000218D01*
X6723833Y3982760D01*
Y3963863D01*
X6731064Y3946405D01*
X6744426Y3933043D01*
X6761884Y3925812D01*
X6780781D01*
X6798239Y3933043D01*
X6811601Y3946405D01*
X6818832Y3963863D01*
Y3982760D01*
X6811601Y4000218D01*
X6798239Y4013580D01*
X6780781Y4020811D01*
D02*
G37*
G36*
X8234995Y4194771D02*
X8216098D01*
X8198640Y4187540D01*
X8185278Y4174178D01*
X8178047Y4156720D01*
Y4137823D01*
X8181738Y4128912D01*
X8169732Y4116906D01*
X8162500Y4099448D01*
Y4080552D01*
X8169732Y4063093D01*
X8173048Y4059776D01*
X8164955Y4051683D01*
X8157723Y4034225D01*
Y4015328D01*
X8163691Y4000921D01*
X8155741Y3992972D01*
X8148510Y3975514D01*
Y3956617D01*
X8155741Y3939159D01*
X8169103Y3925797D01*
X8186561Y3918566D01*
X8205458D01*
X8222916Y3925797D01*
X8236278Y3939159D01*
X8243510Y3956617D01*
Y3975514D01*
X8237542Y3989921D01*
X8245492Y3997870D01*
X8252723Y4015328D01*
Y4034225D01*
X8245492Y4051683D01*
X8242175Y4055000D01*
X8250268Y4063093D01*
X8257500Y4080552D01*
Y4099448D01*
X8253809Y4108359D01*
X8265815Y4120365D01*
X8273046Y4137823D01*
Y4156720D01*
X8265815Y4174178D01*
X8252453Y4187540D01*
X8234995Y4194771D01*
D02*
G37*
G36*
X6841044Y3917500D02*
X6822147D01*
X6804689Y3910268D01*
X6791327Y3896906D01*
X6784096Y3879448D01*
Y3860552D01*
X6791327Y3843093D01*
X6804689Y3829731D01*
X6822147Y3822500D01*
X6841044D01*
X6858502Y3829731D01*
X6871864Y3843093D01*
X6879095Y3860552D01*
Y3879448D01*
X6871864Y3896906D01*
X6858502Y3910268D01*
X6841044Y3917500D01*
D02*
G37*
G36*
X7219448Y3847500D02*
X7200552D01*
X7183094Y3840268D01*
X7169732Y3826906D01*
X7162500Y3809448D01*
Y3790552D01*
X7169732Y3773094D01*
X7183094Y3759732D01*
X7200552Y3752500D01*
X7219448D01*
X7236907Y3759732D01*
X7250268Y3773094D01*
X7257500Y3790552D01*
Y3809448D01*
X7250268Y3826906D01*
X7236907Y3840268D01*
X7219448Y3847500D01*
D02*
G37*
G36*
X6955259Y3816175D02*
X6936363D01*
X6918904Y3808943D01*
X6905542Y3795581D01*
X6898311Y3778123D01*
Y3759227D01*
X6905542Y3741768D01*
X6918904Y3728407D01*
X6936363Y3721175D01*
X6955259D01*
X6972717Y3728407D01*
X6974590Y3730280D01*
X6980665Y3724204D01*
X6998124Y3716973D01*
X7017020D01*
X7034478Y3724204D01*
X7047840Y3737566D01*
X7055072Y3755024D01*
Y3773921D01*
X7047840Y3791379D01*
X7034478Y3804741D01*
X7017020Y3811972D01*
X6998124D01*
X6980665Y3804741D01*
X6978793Y3802868D01*
X6972717Y3808943D01*
X6955259Y3816175D01*
D02*
G37*
G36*
X8339448Y3767500D02*
X8320552D01*
X8303094Y3760268D01*
X8289732Y3746906D01*
X8282500Y3729448D01*
Y3710552D01*
X8289732Y3693093D01*
X8303094Y3679732D01*
X8320552Y3672500D01*
X8339448D01*
X8356907Y3679732D01*
X8370269Y3693093D01*
X8377500Y3710552D01*
Y3729448D01*
X8370269Y3746906D01*
X8356907Y3760268D01*
X8339448Y3767500D01*
D02*
G37*
G36*
X8199448D02*
X8180552D01*
X8163093Y3760268D01*
X8149731Y3746906D01*
X8142500Y3729448D01*
Y3710552D01*
X8149731Y3693093D01*
X8163093Y3679732D01*
X8180552Y3672500D01*
X8199448D01*
X8216906Y3679732D01*
X8230268Y3693093D01*
X8237500Y3710552D01*
Y3729448D01*
X8230268Y3746906D01*
X8216906Y3760268D01*
X8199448Y3767500D01*
D02*
G37*
G36*
X6554978Y3820000D02*
X6536081D01*
X6518623Y3812768D01*
X6505261Y3799406D01*
X6498030Y3781948D01*
Y3763052D01*
X6505261Y3745593D01*
X6518623Y3732232D01*
X6536081Y3725000D01*
X6554978D01*
X6565566Y3713150D01*
X6567030Y3709616D01*
X6567364Y3693519D01*
X6554002Y3680157D01*
X6546771Y3662699D01*
Y3643802D01*
X6554002Y3626344D01*
X6567364Y3612982D01*
X6584822Y3605751D01*
X6603719D01*
X6621177Y3612982D01*
X6634539Y3626344D01*
X6641771Y3643802D01*
Y3662699D01*
X6637241Y3673634D01*
X6636907Y3689732D01*
X6650268Y3703093D01*
X6657500Y3720552D01*
Y3739448D01*
X6650268Y3756906D01*
X6636906Y3770268D01*
X6619448Y3777500D01*
X6600552D01*
X6589964Y3789350D01*
X6585798Y3799406D01*
X6572436Y3812768D01*
X6554978Y3820000D01*
D02*
G37*
G36*
X8348238Y3621066D02*
X8329342D01*
X8311884Y3613835D01*
X8304918Y3606869D01*
X8290079Y3600493D01*
X8272622Y3607724D01*
X8253725D01*
X8236267Y3600493D01*
X8222905Y3587131D01*
X8215673Y3569673D01*
Y3550776D01*
X8222905Y3533318D01*
X8227394Y3528829D01*
X8222478Y3523912D01*
X8215246Y3506454D01*
Y3487557D01*
X8222478Y3470099D01*
X8235840Y3456737D01*
X8253298Y3449506D01*
X8272194D01*
X8289652Y3456737D01*
X8303014Y3470099D01*
X8305748Y3476700D01*
X8323442Y3480219D01*
X8323476Y3480185D01*
X8340934Y3472954D01*
X8359831D01*
X8377289Y3480185D01*
X8390651Y3493547D01*
X8397882Y3511005D01*
Y3529902D01*
X8390651Y3547360D01*
X8382659Y3555352D01*
X8386290Y3564118D01*
Y3583014D01*
X8379058Y3600473D01*
X8365697Y3613835D01*
X8348238Y3621066D01*
D02*
G37*
G36*
X6715159Y3682424D02*
X6696262D01*
X6678804Y3675193D01*
X6665442Y3661831D01*
X6658211Y3644372D01*
Y3625476D01*
X6665442Y3608018D01*
X6678804Y3594656D01*
X6696262Y3587424D01*
X6715159D01*
X6732617Y3594656D01*
X6745979Y3608018D01*
X6753211Y3625476D01*
Y3644372D01*
X6745979Y3661831D01*
X6732617Y3675193D01*
X6715159Y3682424D01*
D02*
G37*
G36*
X7218155Y3682383D02*
X7199259D01*
X7181800Y3675151D01*
X7168439Y3661789D01*
X7161207Y3644331D01*
Y3625434D01*
X7168439Y3607976D01*
X7181800Y3594614D01*
X7199259Y3587383D01*
X7218155D01*
X7235613Y3594614D01*
X7248975Y3607976D01*
X7256207Y3625434D01*
Y3644331D01*
X7248975Y3661789D01*
X7235613Y3675151D01*
X7218155Y3682383D01*
D02*
G37*
G36*
X6618814Y3481538D02*
X6599917D01*
X6582459Y3474306D01*
X6569097Y3460944D01*
X6561866Y3443486D01*
Y3424590D01*
X6569097Y3407131D01*
X6582459Y3393769D01*
X6599917Y3386538D01*
X6618814D01*
X6636272Y3393769D01*
X6649634Y3407131D01*
X6656865Y3424590D01*
Y3443486D01*
X6649634Y3460944D01*
X6636272Y3474306D01*
X6618814Y3481538D01*
D02*
G37*
G36*
X6789448Y3447500D02*
X6770552D01*
X6753093Y3440268D01*
X6739732Y3426907D01*
X6732500Y3409448D01*
Y3390552D01*
X6739732Y3373094D01*
X6753093Y3359732D01*
X6770552Y3352500D01*
X6789448D01*
X6806906Y3359732D01*
X6820268Y3373094D01*
X6827500Y3390552D01*
Y3409448D01*
X6820268Y3426907D01*
X6806906Y3440268D01*
X6789448Y3447500D01*
D02*
G37*
G36*
X7290000Y3448798D02*
X7268750D01*
X7242900Y3443656D01*
X7220986Y3429013D01*
X7206344Y3407099D01*
X7201202Y3381250D01*
Y3340000D01*
X7290000D01*
Y3448798D01*
D02*
G37*
G36*
X7051250Y3443700D02*
X6988750D01*
X6964851Y3438946D01*
X6944591Y3425409D01*
X6931054Y3405148D01*
X6926300Y3381250D01*
Y3278750D01*
X6931054Y3254852D01*
X6944591Y3234591D01*
X6964851Y3221054D01*
X6988750Y3216300D01*
X7051250D01*
X7075148Y3221054D01*
X7095409Y3234591D01*
X7108946Y3254852D01*
X7112878Y3274617D01*
X7129509Y3277925D01*
X7146048Y3288976D01*
X7157099Y3305515D01*
X7160980Y3325024D01*
X7157099Y3344533D01*
X7146048Y3361072D01*
X7129509Y3372123D01*
X7113700Y3375268D01*
Y3381250D01*
X7108946Y3405148D01*
X7095409Y3425409D01*
X7075148Y3438946D01*
X7051250Y3443700D01*
D02*
G37*
G36*
X7290000Y3320000D02*
X7201202D01*
Y3278750D01*
X7206344Y3252901D01*
X7220986Y3230986D01*
X7242900Y3216344D01*
X7268750Y3211202D01*
X7290000D01*
Y3320000D01*
D02*
G37*
G36*
X8304250Y3298945D02*
X8273000D01*
Y3195000D01*
X8379445D01*
Y3223750D01*
X8373721Y3252526D01*
X8357420Y3276921D01*
X8333025Y3293221D01*
X8304250Y3298945D01*
D02*
G37*
G36*
X6949448Y2995000D02*
X6930552D01*
X6913094Y2987768D01*
X6899732Y2974407D01*
X6892500Y2956948D01*
Y2938052D01*
X6899732Y2920594D01*
X6913094Y2907232D01*
X6930552Y2900000D01*
X6946088D01*
X6954038Y2891866D01*
X6956873Y2886840D01*
X6953424Y2878512D01*
Y2859616D01*
X6960655Y2842158D01*
X6974017Y2828796D01*
X6991475Y2821564D01*
X7010372D01*
X7027830Y2828796D01*
X7041192Y2842158D01*
X7048424Y2859616D01*
Y2878512D01*
X7041192Y2895971D01*
X7027830Y2909333D01*
X7010372Y2916564D01*
X6994835D01*
X6986886Y2924698D01*
X6984051Y2929724D01*
X6987500Y2938052D01*
Y2956948D01*
X6980268Y2974407D01*
X6966907Y2987768D01*
X6949448Y2995000D01*
D02*
G37*
G36*
X8191591Y2862323D02*
X8172695D01*
X8155237Y2855092D01*
X8141875Y2841730D01*
X8134643Y2824272D01*
Y2805375D01*
X8141875Y2787917D01*
X8155237Y2774555D01*
X8172695Y2767324D01*
X8191591D01*
X8209050Y2774555D01*
X8222412Y2787917D01*
X8229643Y2805375D01*
Y2824272D01*
X8222412Y2841730D01*
X8209050Y2855092D01*
X8191591Y2862323D01*
D02*
G37*
G36*
X7281948Y2722247D02*
X7263052D01*
X7245594Y2715015D01*
X7232232Y2701653D01*
X7225000Y2684195D01*
Y2665298D01*
X7232232Y2647840D01*
X7245594Y2634478D01*
X7263052Y2627247D01*
X7281948D01*
X7299407Y2634478D01*
X7312768Y2647840D01*
X7320000Y2665298D01*
Y2684195D01*
X7312768Y2701653D01*
X7299407Y2715015D01*
X7281948Y2722247D01*
D02*
G37*
G36*
X8154250Y2388945D02*
X8123000D01*
Y2285000D01*
X8229444D01*
Y2313750D01*
X8223720Y2342526D01*
X8207420Y2366921D01*
X8183025Y2383221D01*
X8154250Y2388945D01*
D02*
G37*
G36*
X6979449Y2260713D02*
X6960552D01*
X6943094Y2253481D01*
X6929732Y2240119D01*
X6922501Y2222661D01*
Y2203764D01*
X6929732Y2186306D01*
X6943094Y2172944D01*
X6960552Y2165713D01*
X6979449D01*
X6996907Y2172944D01*
X7010269Y2186306D01*
X7017500Y2203764D01*
Y2222661D01*
X7010269Y2240119D01*
X6996907Y2253481D01*
X6979449Y2260713D01*
D02*
G37*
G36*
X8229444Y2265000D02*
X8123000D01*
Y2161055D01*
X8154250D01*
X8183025Y2166779D01*
X8207420Y2183079D01*
X8223720Y2207474D01*
X8229444Y2236250D01*
Y2265000D01*
D02*
G37*
G36*
X8103000D02*
X7996555D01*
Y2236250D01*
X8002279Y2207474D01*
X8018579Y2183079D01*
X8042974Y2166779D01*
X8071750Y2161055D01*
X8103000D01*
Y2265000D01*
D02*
G37*
G36*
X8197679Y1764781D02*
X8178782D01*
X8161324Y1757550D01*
X8147962Y1744188D01*
X8140731Y1726730D01*
Y1707833D01*
X8147962Y1690375D01*
X8150581Y1687756D01*
X8149731Y1686906D01*
X8142500Y1669448D01*
Y1650552D01*
X8149731Y1633094D01*
X8163093Y1619732D01*
X8180552Y1612500D01*
X8199448D01*
X8216906Y1619732D01*
X8230268Y1633094D01*
X8237500Y1650552D01*
Y1669448D01*
X8230268Y1686906D01*
X8227649Y1689525D01*
X8228499Y1690375D01*
X8235730Y1707833D01*
Y1726730D01*
X8228499Y1744188D01*
X8215137Y1757550D01*
X8197679Y1764781D01*
D02*
G37*
G36*
X8200408Y1520340D02*
X8181512D01*
X8164054Y1513109D01*
X8150692Y1499747D01*
X8143460Y1482289D01*
Y1463392D01*
X8150126Y1447301D01*
X8149731Y1446906D01*
X8142500Y1429448D01*
Y1410552D01*
X8149731Y1393093D01*
X8163093Y1379732D01*
X8177018Y1373964D01*
X8178106Y1359280D01*
X8177974Y1358568D01*
X8164229Y1352874D01*
X8150867Y1339512D01*
X8143635Y1322054D01*
Y1303158D01*
X8148392Y1291675D01*
X8144804Y1288087D01*
X8137572Y1270629D01*
Y1251732D01*
X8144804Y1234274D01*
X8158166Y1220912D01*
X8175624Y1213681D01*
X8194521D01*
X8211979Y1220912D01*
X8225341Y1234274D01*
X8232572Y1251732D01*
Y1270629D01*
X8227816Y1282111D01*
X8231404Y1285699D01*
X8238635Y1303158D01*
Y1322054D01*
X8231404Y1339512D01*
X8218042Y1352874D01*
X8204117Y1358642D01*
X8203029Y1373326D01*
X8203161Y1374038D01*
X8216906Y1379732D01*
X8230268Y1393093D01*
X8237500Y1410552D01*
Y1429448D01*
X8230834Y1445540D01*
X8231228Y1445934D01*
X8238460Y1463392D01*
Y1482289D01*
X8231228Y1499747D01*
X8217866Y1513109D01*
X8200408Y1520340D01*
D02*
G37*
G36*
X8264389Y1052412D02*
X8245492D01*
X8228034Y1045181D01*
X8220149Y1037296D01*
X8217004Y1040442D01*
X8199546Y1047673D01*
X8180649D01*
X8163191Y1040442D01*
X8149829Y1027080D01*
X8142598Y1009622D01*
Y990725D01*
X8149829Y973267D01*
X8163191Y959905D01*
X8180649Y952673D01*
X8199546D01*
X8217004Y959905D01*
X8224889Y967790D01*
X8228034Y964644D01*
X8245492Y957413D01*
X8264389D01*
X8281847Y964644D01*
X8295209Y978006D01*
X8302440Y995464D01*
Y1014361D01*
X8295209Y1031819D01*
X8281847Y1045181D01*
X8264389Y1052412D01*
D02*
G37*
G36*
X7356000Y606018D02*
X7323500D01*
X7293261Y600003D01*
X7267626Y582874D01*
X7250497Y557239D01*
X7244482Y527000D01*
Y474500D01*
X7356000D01*
Y606018D01*
D02*
G37*
G36*
X8379445Y445000D02*
X8273000D01*
Y341055D01*
X8304250D01*
X8333025Y346779D01*
X8357420Y363080D01*
X8373721Y387474D01*
X8379445Y416250D01*
Y445000D01*
D02*
G37*
G36*
X8253000D02*
X8146555D01*
Y416250D01*
X8152279Y387474D01*
X8168580Y363080D01*
X8192974Y346779D01*
X8221750Y341055D01*
X8253000D01*
Y445000D01*
D02*
G37*
G36*
X5884500Y5132920D02*
X5799500D01*
X5771212Y5127294D01*
X5747231Y5111270D01*
X5731207Y5087288D01*
X5725580Y5059000D01*
Y4939266D01*
X5723137Y4937634D01*
X5704420D01*
Y5059000D01*
X5698793Y5087288D01*
X5682769Y5111270D01*
X5658788Y5127294D01*
X5630500Y5132920D01*
X5545500D01*
X5517212Y5127294D01*
X5493231Y5111270D01*
X5477207Y5087288D01*
X5471580Y5059000D01*
Y4934000D01*
X5477207Y4905712D01*
X5493231Y4881730D01*
X5517212Y4865707D01*
X5545500Y4860080D01*
X5630500D01*
X5658788Y4865707D01*
X5660806Y4867055D01*
X5673421Y4863228D01*
X5686782Y4849866D01*
X5704241Y4842635D01*
X5723137D01*
X5740595Y4849866D01*
X5753957Y4863228D01*
X5753978Y4863277D01*
X5768332Y4867631D01*
X5771212Y4865707D01*
X5799500Y4860080D01*
X5884500D01*
X5912788Y4865707D01*
X5936769Y4881730D01*
X5952793Y4905712D01*
X5958420Y4934000D01*
Y5059000D01*
X5952793Y5087288D01*
X5936769Y5111270D01*
X5912788Y5127294D01*
X5884500Y5132920D01*
D02*
G37*
G36*
X6138500D02*
X6053500D01*
X6025212Y5127294D01*
X6001231Y5111270D01*
X5985207Y5087288D01*
X5979580Y5059000D01*
Y4934000D01*
X5985207Y4905712D01*
X6001231Y4881730D01*
X6025212Y4865707D01*
X6053500Y4860080D01*
X6138500D01*
X6166788Y4865707D01*
X6190769Y4881730D01*
X6206793Y4905712D01*
X6212420Y4934000D01*
Y5059000D01*
X6206793Y5087288D01*
X6190769Y5111270D01*
X6166788Y5127294D01*
X6138500Y5132920D01*
D02*
G37*
G36*
X4614500D02*
X4529500D01*
X4501212Y5127294D01*
X4477231Y5111270D01*
X4461207Y5087288D01*
X4455580Y5059000D01*
Y4934000D01*
X4461207Y4905712D01*
X4477231Y4881730D01*
X4501212Y4865707D01*
X4529500Y4860080D01*
X4614500D01*
X4642788Y4865707D01*
X4666769Y4881730D01*
X4682793Y4905712D01*
X4688420Y4934000D01*
Y5059000D01*
X4682793Y5087288D01*
X4666769Y5111270D01*
X4642788Y5127294D01*
X4614500Y5132920D01*
D02*
G37*
G36*
X4106500D02*
X4021500D01*
X3993212Y5127294D01*
X3969231Y5111270D01*
X3953207Y5087288D01*
X3947580Y5059000D01*
Y4934000D01*
X3953207Y4905712D01*
X3969231Y4881730D01*
X3993212Y4865707D01*
X4021500Y4860080D01*
X4106500D01*
X4134788Y4865707D01*
X4158769Y4881730D01*
X4174793Y4905712D01*
X4180420Y4934000D01*
Y5059000D01*
X4174793Y5087288D01*
X4158769Y5111270D01*
X4134788Y5127294D01*
X4106500Y5132920D01*
D02*
G37*
G36*
X3852500D02*
X3767500D01*
X3739212Y5127294D01*
X3715231Y5111270D01*
X3699207Y5087288D01*
X3693580Y5059000D01*
Y4934000D01*
X3699207Y4905712D01*
X3715231Y4881730D01*
X3739212Y4865707D01*
X3767500Y4860080D01*
X3852500D01*
X3880788Y4865707D01*
X3904769Y4881730D01*
X3920793Y4905712D01*
X3926420Y4934000D01*
Y5059000D01*
X3920793Y5087288D01*
X3904769Y5111270D01*
X3880788Y5127294D01*
X3852500Y5132920D01*
D02*
G37*
G36*
X3598500D02*
X3513500D01*
X3485212Y5127294D01*
X3461231Y5111270D01*
X3445207Y5087288D01*
X3439580Y5059000D01*
Y4934000D01*
X3445207Y4905712D01*
X3461231Y4881730D01*
X3485212Y4865707D01*
X3513500Y4860080D01*
X3598500D01*
X3626788Y4865707D01*
X3650769Y4881730D01*
X3666793Y4905712D01*
X3672420Y4934000D01*
Y5059000D01*
X3666793Y5087288D01*
X3650769Y5111270D01*
X3626788Y5127294D01*
X3598500Y5132920D01*
D02*
G37*
G36*
X3344500D02*
X3259500D01*
X3231212Y5127294D01*
X3207231Y5111270D01*
X3191207Y5087288D01*
X3185580Y5059000D01*
Y4934000D01*
X3191207Y4905712D01*
X3207231Y4881730D01*
X3231212Y4865707D01*
X3259500Y4860080D01*
X3344500D01*
X3372788Y4865707D01*
X3396769Y4881730D01*
X3412793Y4905712D01*
X3418420Y4934000D01*
Y5059000D01*
X3412793Y5087288D01*
X3396769Y5111270D01*
X3372788Y5127294D01*
X3344500Y5132920D01*
D02*
G37*
G36*
X5376500D02*
X5291500D01*
X5263212Y5127294D01*
X5239231Y5111270D01*
X5223207Y5087288D01*
X5217580Y5059000D01*
Y4934000D01*
X5223207Y4905712D01*
X5219302Y4892840D01*
X5213093Y4890268D01*
X5199732Y4876906D01*
X5192500Y4859448D01*
Y4840552D01*
X5199732Y4823093D01*
X5213093Y4809732D01*
X5230552Y4802500D01*
X5249448D01*
X5266906Y4809732D01*
X5280268Y4823093D01*
X5287500Y4840552D01*
Y4845581D01*
X5291374Y4859625D01*
X5301358Y4860080D01*
X5376500D01*
X5404788Y4865707D01*
X5428769Y4881730D01*
X5444793Y4905712D01*
X5450420Y4934000D01*
Y5059000D01*
X5444793Y5087288D01*
X5428769Y5111270D01*
X5404788Y5127294D01*
X5376500Y5132920D01*
D02*
G37*
G36*
X4360500D02*
X4275500D01*
X4247212Y5127294D01*
X4223231Y5111270D01*
X4207207Y5087288D01*
X4201580Y5059000D01*
Y4934000D01*
X4207207Y4905712D01*
X4223231Y4881730D01*
X4247212Y4865707D01*
X4275500Y4860080D01*
X4342078D01*
X4342500Y4859448D01*
Y4840552D01*
X4349732Y4823093D01*
X4363094Y4809732D01*
X4380552Y4802500D01*
X4399448D01*
X4416907Y4809732D01*
X4430269Y4823093D01*
X4437500Y4840552D01*
Y4859448D01*
X4430269Y4876906D01*
X4417846Y4889329D01*
X4428793Y4905712D01*
X4434420Y4934000D01*
Y5059000D01*
X4428793Y5087288D01*
X4412769Y5111270D01*
X4388788Y5127294D01*
X4360500Y5132920D01*
D02*
G37*
G36*
X4868500D02*
X4783500D01*
X4755212Y5127294D01*
X4731231Y5111270D01*
X4715207Y5087288D01*
X4709580Y5059000D01*
Y4934000D01*
X4715207Y4905712D01*
X4725675Y4890046D01*
X4724305Y4884799D01*
X4718546Y4873715D01*
X4704301Y4867814D01*
X4690939Y4854452D01*
X4683707Y4836994D01*
Y4818098D01*
X4690939Y4800639D01*
X4704301Y4787277D01*
X4721759Y4780046D01*
X4740655D01*
X4758114Y4787277D01*
X4771476Y4800639D01*
X4778707Y4818098D01*
Y4836994D01*
X4774760Y4846524D01*
X4780657Y4855671D01*
X4785381Y4860080D01*
X4868500D01*
X4896788Y4865707D01*
X4920769Y4881730D01*
X4936793Y4905712D01*
X4942420Y4934000D01*
Y5059000D01*
X4936793Y5087288D01*
X4920769Y5111270D01*
X4896788Y5127294D01*
X4868500Y5132920D01*
D02*
G37*
G36*
X5122500D02*
X5037500D01*
X5009212Y5127294D01*
X4985231Y5111270D01*
X4969207Y5087288D01*
X4963580Y5059000D01*
Y4934000D01*
X4969207Y4905712D01*
X4985231Y4881730D01*
X5009212Y4865707D01*
X5037500Y4860080D01*
X5038043D01*
X5047680Y4845079D01*
X5044012Y4836222D01*
Y4817326D01*
X5051243Y4799868D01*
X5064605Y4786506D01*
X5082063Y4779274D01*
X5100960D01*
X5118418Y4786506D01*
X5131780Y4799868D01*
X5139011Y4817326D01*
Y4836222D01*
X5134477Y4847168D01*
X5141250Y4863809D01*
X5150788Y4865707D01*
X5174769Y4881730D01*
X5190793Y4905712D01*
X5196420Y4934000D01*
Y5059000D01*
X5190793Y5087288D01*
X5174769Y5111270D01*
X5150788Y5127294D01*
X5122500Y5132920D01*
D02*
G37*
G36*
X3148924Y4671519D02*
X3130027D01*
X3117450Y4666309D01*
X3117261Y4666272D01*
X3117101Y4666165D01*
X3113813Y4664803D01*
X3094019D01*
X3078412Y4661698D01*
X3065181Y4652858D01*
X3065180Y4652857D01*
X3031162Y4618838D01*
X3026711Y4612178D01*
X3009802Y4609023D01*
X3008224Y4609453D01*
X2981889Y4635788D01*
X2974901Y4640457D01*
X2965270Y4650087D01*
X2947812Y4657319D01*
X2928916D01*
X2911457Y4650087D01*
X2898096Y4636726D01*
X2890864Y4619267D01*
Y4600371D01*
X2898096Y4582913D01*
X2911457Y4569551D01*
X2928916Y4562319D01*
X2940004D01*
X2969217Y4533107D01*
Y4230001D01*
X2969216Y4230000D01*
X2972321Y4214393D01*
X2981162Y4201162D01*
X3519216Y3663107D01*
Y3053001D01*
X3519216Y3053000D01*
X3522321Y3037392D01*
X3531162Y3024161D01*
X3559524Y2995799D01*
X3561734Y2993406D01*
X3563273Y2991482D01*
X3564544Y2989691D01*
X3564932Y2989058D01*
X3563727Y2983000D01*
Y2913000D01*
X3568772Y2887638D01*
X3583138Y2866138D01*
X3597042Y2856847D01*
Y2839153D01*
X3583138Y2829862D01*
X3568772Y2808361D01*
X3563727Y2783000D01*
Y2713000D01*
X3568772Y2687638D01*
X3583138Y2666137D01*
X3597042Y2656847D01*
Y2639152D01*
X3583138Y2629862D01*
X3568772Y2608361D01*
X3563727Y2583000D01*
Y2513000D01*
X3568772Y2487638D01*
X3583138Y2466138D01*
X3604638Y2451771D01*
X3630000Y2446727D01*
X3730000D01*
X3755362Y2451771D01*
X3776862Y2466138D01*
X3791228Y2487638D01*
X3792353Y2493292D01*
X3807647D01*
X3808772Y2487638D01*
X3823138Y2466138D01*
X3844638Y2451771D01*
X3870000Y2446727D01*
X3970000D01*
X3995362Y2451771D01*
X4016862Y2466138D01*
X4031228Y2487638D01*
X4036273Y2513000D01*
Y2583000D01*
X4031228Y2608361D01*
X4016862Y2629862D01*
X4002958Y2639152D01*
Y2656847D01*
X4016862Y2666137D01*
X4031228Y2687638D01*
X4036273Y2713000D01*
Y2783000D01*
X4032026Y2804350D01*
X4163837Y2936161D01*
X4163838Y2936162D01*
X4172679Y2949393D01*
X4175784Y2965000D01*
X4175783Y2965001D01*
Y3473608D01*
X4175784Y3473609D01*
X4172679Y3489217D01*
X4163838Y3502448D01*
X4163837Y3502448D01*
X3817448Y3848838D01*
X3804216Y3857679D01*
X3788609Y3860784D01*
X3788608Y3860783D01*
X3556893D01*
X3140783Y4276893D01*
Y4523609D01*
X3150268Y4533094D01*
X3157500Y4550552D01*
Y4569448D01*
X3153744Y4578516D01*
X3166382Y4583751D01*
X3179744Y4597113D01*
X3186975Y4614571D01*
Y4633467D01*
X3179744Y4650926D01*
X3166382Y4664288D01*
X3148924Y4671519D01*
D02*
G37*
G36*
X4129448Y4617500D02*
X4110552D01*
X4093093Y4610268D01*
X4079731Y4596906D01*
X4072500Y4579448D01*
Y4560552D01*
X4079731Y4543094D01*
X4093093Y4529732D01*
X4110552Y4522500D01*
X4129448D01*
X4146906Y4529732D01*
X4160268Y4543094D01*
X4167500Y4560552D01*
Y4579448D01*
X4160268Y4596906D01*
X4146906Y4610268D01*
X4129448Y4617500D01*
D02*
G37*
G36*
X3629448Y4597500D02*
X3610552D01*
X3593094Y4590268D01*
X3579732Y4576907D01*
X3572500Y4559448D01*
Y4540552D01*
X3579732Y4523094D01*
X3593094Y4509732D01*
X3610552Y4502500D01*
X3629448D01*
X3646907Y4509732D01*
X3660269Y4523094D01*
X3667500Y4540552D01*
Y4559448D01*
X3660269Y4576907D01*
X3646907Y4590268D01*
X3629448Y4597500D01*
D02*
G37*
G36*
X4019448Y4577500D02*
X4000552D01*
X3983094Y4570268D01*
X3969732Y4556907D01*
X3962500Y4539448D01*
Y4520552D01*
X3969732Y4503094D01*
X3983094Y4489732D01*
X4000552Y4482500D01*
X4019448D01*
X4036907Y4489732D01*
X4050269Y4503094D01*
X4057500Y4520552D01*
Y4539448D01*
X4050269Y4556907D01*
X4036907Y4570268D01*
X4019448Y4577500D01*
D02*
G37*
G36*
X5977530Y4387641D02*
X5958634D01*
X5941176Y4380410D01*
X5927814Y4367048D01*
X5920582Y4349589D01*
Y4330693D01*
X5927814Y4313235D01*
X5941176Y4299873D01*
X5958634Y4292641D01*
X5977530D01*
X5994989Y4299873D01*
X6008350Y4313235D01*
X6015582Y4330693D01*
Y4349589D01*
X6008350Y4367048D01*
X5994989Y4380410D01*
X5977530Y4387641D01*
D02*
G37*
G36*
X4619448Y4227500D02*
X4600552D01*
X4583093Y4220268D01*
X4569732Y4206906D01*
X4562500Y4189448D01*
Y4170552D01*
X4569732Y4153094D01*
X4583093Y4139732D01*
X4600552Y4132500D01*
X4619448D01*
X4636906Y4139732D01*
X4650268Y4153094D01*
X4657500Y4170552D01*
Y4189448D01*
X4650268Y4206906D01*
X4636906Y4220268D01*
X4619448Y4227500D01*
D02*
G37*
G36*
X3499448Y4147500D02*
X3480552D01*
X3463093Y4140268D01*
X3449731Y4126906D01*
X3442500Y4109448D01*
Y4090552D01*
X3449731Y4073093D01*
X3463093Y4059732D01*
X3480552Y4052500D01*
X3499448D01*
X3516906Y4059732D01*
X3530268Y4073093D01*
X3537500Y4090552D01*
Y4109448D01*
X3530268Y4126906D01*
X3516906Y4140268D01*
X3499448Y4147500D01*
D02*
G37*
G36*
X4909448Y4037500D02*
X4890552D01*
X4873094Y4030268D01*
X4859732Y4016906D01*
X4852500Y3999448D01*
Y3980552D01*
X4859732Y3963093D01*
X4873094Y3949731D01*
X4890552Y3942500D01*
X4909448D01*
X4926907Y3949731D01*
X4940269Y3963093D01*
X4947500Y3980552D01*
Y3999448D01*
X4940269Y4016906D01*
X4926907Y4030268D01*
X4909448Y4037500D01*
D02*
G37*
G36*
X5089448Y4007500D02*
X5070552D01*
X5053094Y4000268D01*
X5039732Y3986906D01*
X5032500Y3969448D01*
Y3950552D01*
X5039732Y3933093D01*
X5053094Y3919732D01*
X5070552Y3912500D01*
X5089448D01*
X5106906Y3919732D01*
X5120268Y3933093D01*
X5127500Y3950552D01*
Y3969448D01*
X5120268Y3986906D01*
X5106906Y4000268D01*
X5089448Y4007500D01*
D02*
G37*
G36*
X3178339Y3951103D02*
X3159442D01*
X3141984Y3943871D01*
X3128622Y3930509D01*
X3121391Y3913051D01*
Y3894155D01*
X3128622Y3876696D01*
X3141984Y3863334D01*
X3159442Y3856103D01*
X3178339D01*
X3195797Y3863334D01*
X3209159Y3876696D01*
X3216390Y3894155D01*
Y3913051D01*
X3209159Y3930509D01*
X3195797Y3943871D01*
X3178339Y3951103D01*
D02*
G37*
G36*
X5009020Y3887968D02*
X4990123D01*
X4972665Y3880737D01*
X4959303Y3867375D01*
X4952072Y3849917D01*
Y3831020D01*
X4959303Y3813562D01*
X4972665Y3800200D01*
X4990123Y3792969D01*
X5009020D01*
X5026478Y3800200D01*
X5039840Y3813562D01*
X5047071Y3831020D01*
Y3849917D01*
X5039840Y3867375D01*
X5026478Y3880737D01*
X5009020Y3887968D01*
D02*
G37*
G36*
X4089322Y4236150D02*
X3986823D01*
X3962924Y4231396D01*
X3942664Y4217859D01*
X3929126Y4197599D01*
X3924373Y4173700D01*
Y4111200D01*
X3929126Y4087302D01*
X3942664Y4067041D01*
X3962924Y4053504D01*
X3979564Y4050194D01*
Y4035263D01*
X3988698Y4013211D01*
X3997512Y4004396D01*
X3988587Y3995472D01*
X3979453Y3973419D01*
Y3954684D01*
X3962924Y3951396D01*
X3942664Y3937859D01*
X3929126Y3917599D01*
X3924373Y3893700D01*
Y3831200D01*
X3929126Y3807302D01*
X3942664Y3787041D01*
X3962924Y3773504D01*
X3986823Y3768750D01*
X4089322D01*
X4113221Y3773504D01*
X4133481Y3787041D01*
X4147019Y3807302D01*
X4151772Y3831200D01*
Y3893700D01*
X4147019Y3917599D01*
X4133481Y3937859D01*
X4113221Y3951396D01*
X4099453Y3954135D01*
Y3973419D01*
X4090318Y3995472D01*
X4081504Y4004286D01*
X4090429Y4013211D01*
X4099563Y4035263D01*
Y4050787D01*
X4113221Y4053504D01*
X4133481Y4067041D01*
X4147019Y4087302D01*
X4151772Y4111200D01*
Y4173700D01*
X4147019Y4197599D01*
X4133481Y4217859D01*
X4113221Y4231396D01*
X4089322Y4236150D01*
D02*
G37*
G36*
X4520087Y3813270D02*
X4501190D01*
X4483732Y3806039D01*
X4470370Y3792677D01*
X4463139Y3775219D01*
Y3756322D01*
X4470370Y3738864D01*
X4475522Y3733712D01*
X4475221Y3733167D01*
X4456906Y3730268D01*
X4439448Y3737500D01*
X4420552D01*
X4403094Y3730268D01*
X4389732Y3716906D01*
X4382500Y3699448D01*
Y3680552D01*
X4389732Y3663094D01*
X4403094Y3649732D01*
X4420552Y3642500D01*
X4439448D01*
X4456907Y3649732D01*
X4470268Y3663093D01*
X4473548Y3663746D01*
X4483894Y3653399D01*
X4501352Y3646168D01*
X4520249D01*
X4537707Y3653399D01*
X4551069Y3666761D01*
X4558301Y3684219D01*
Y3703116D01*
X4551069Y3720574D01*
X4541843Y3729800D01*
X4550907Y3738864D01*
X4558138Y3756322D01*
Y3775219D01*
X4550907Y3792677D01*
X4537545Y3806039D01*
X4520087Y3813270D01*
D02*
G37*
G36*
X5981674Y3785684D02*
X5962777D01*
X5945319Y3778452D01*
X5931957Y3765091D01*
X5924726Y3747632D01*
Y3728736D01*
X5931957Y3711278D01*
X5945319Y3697916D01*
X5962777Y3690684D01*
X5981674D01*
X5999132Y3697916D01*
X6012494Y3711278D01*
X6019725Y3728736D01*
Y3747632D01*
X6012494Y3765091D01*
X5999132Y3778452D01*
X5981674Y3785684D01*
D02*
G37*
G36*
X5179448Y3647500D02*
X5160552D01*
X5143094Y3640268D01*
X5129732Y3626906D01*
X5122500Y3609448D01*
Y3590552D01*
X5129732Y3573093D01*
X5143094Y3559732D01*
X5160552Y3552500D01*
X5179448D01*
X5196907Y3559732D01*
X5210268Y3573093D01*
X5217500Y3590552D01*
Y3609448D01*
X5210268Y3626906D01*
X5196907Y3640268D01*
X5179448Y3647500D01*
D02*
G37*
G36*
X4649500Y3445826D02*
X4630603D01*
X4613145Y3438595D01*
X4599783Y3425233D01*
X4592552Y3407774D01*
Y3388878D01*
X4599783Y3371420D01*
X4613145Y3358058D01*
X4630603Y3350826D01*
X4649500D01*
X4666958Y3358058D01*
X4680320Y3371420D01*
X4687551Y3388878D01*
Y3407774D01*
X4680320Y3425233D01*
X4666958Y3438595D01*
X4649500Y3445826D01*
D02*
G37*
G36*
X4453545Y3374317D02*
X4434648D01*
X4417190Y3367085D01*
X4403828Y3353723D01*
X4396597Y3336265D01*
Y3317369D01*
X4403828Y3299910D01*
X4417190Y3286548D01*
X4434648Y3279317D01*
X4453545D01*
X4471003Y3286548D01*
X4484365Y3299910D01*
X4491597Y3317369D01*
Y3336265D01*
X4484365Y3353723D01*
X4471003Y3367085D01*
X4453545Y3374317D01*
D02*
G37*
G36*
X4571710Y3149413D02*
X4552813D01*
X4535355Y3142182D01*
X4521993Y3128820D01*
X4514762Y3111362D01*
Y3092465D01*
X4521993Y3075007D01*
X4525583Y3071417D01*
X4518493Y3064327D01*
X4511261Y3046869D01*
Y3027973D01*
X4518493Y3010514D01*
X4531855Y2997153D01*
X4549313Y2989921D01*
X4568210D01*
X4585668Y2997153D01*
X4599030Y3010514D01*
X4606261Y3027973D01*
Y3046869D01*
X4599030Y3064327D01*
X4595440Y3067917D01*
X4602530Y3075007D01*
X4609761Y3092465D01*
Y3111362D01*
X4602530Y3128820D01*
X4589168Y3142182D01*
X4571710Y3149413D01*
D02*
G37*
G36*
X4723046Y3020546D02*
X4704150D01*
X4686691Y3013315D01*
X4673329Y2999953D01*
X4666098Y2982494D01*
Y2963598D01*
X4673329Y2946140D01*
X4677279Y2942190D01*
X4669268Y2934179D01*
X4662036Y2916721D01*
Y2897825D01*
X4669268Y2880366D01*
X4682629Y2867004D01*
X4700088Y2859773D01*
X4718984D01*
X4736442Y2867004D01*
X4749804Y2880366D01*
X4757036Y2897825D01*
Y2916721D01*
X4749804Y2934179D01*
X4745855Y2938128D01*
X4753866Y2946140D01*
X4761098Y2963598D01*
Y2982494D01*
X4753866Y2999953D01*
X4740504Y3013315D01*
X4723046Y3020546D01*
D02*
G37*
G36*
X5536920Y2857500D02*
X5518024D01*
X5500565Y2850268D01*
X5487203Y2836906D01*
X5479972Y2819448D01*
Y2800552D01*
X5487203Y2783093D01*
X5500565Y2769732D01*
X5518024Y2762500D01*
X5536920D01*
X5554378Y2769732D01*
X5567740Y2783093D01*
X5574972Y2800552D01*
Y2819448D01*
X5567740Y2836906D01*
X5554378Y2850268D01*
X5536920Y2857500D01*
D02*
G37*
G36*
X4519448Y2717500D02*
X4500552D01*
X4483094Y2710268D01*
X4469732Y2696906D01*
X4462500Y2679448D01*
Y2660552D01*
X4469732Y2643094D01*
X4483094Y2629732D01*
X4500552Y2622500D01*
X4519448D01*
X4536907Y2629732D01*
X4550269Y2643094D01*
X4557500Y2660552D01*
Y2679448D01*
X4550269Y2696906D01*
X4536907Y2710268D01*
X4519448Y2717500D01*
D02*
G37*
G36*
X3401948Y2597500D02*
X3383052D01*
X3365593Y2590268D01*
X3352232Y2576906D01*
X3345000Y2559448D01*
Y2540552D01*
X3352232Y2523094D01*
X3365593Y2509732D01*
X3383052Y2502500D01*
X3401948D01*
X3419406Y2509732D01*
X3432768Y2523094D01*
X3440000Y2540552D01*
Y2559448D01*
X3432768Y2576906D01*
X3419406Y2590268D01*
X3401948Y2597500D01*
D02*
G37*
G36*
X5491250Y2498798D02*
X5470000D01*
Y2390000D01*
X5558798D01*
Y2431250D01*
X5553656Y2457099D01*
X5539014Y2479014D01*
X5517099Y2493656D01*
X5491250Y2498798D01*
D02*
G37*
G36*
X3461250Y2468798D02*
X3420000D01*
Y2380000D01*
X3528798D01*
Y2401250D01*
X3523656Y2427100D01*
X3509014Y2449014D01*
X3487099Y2463656D01*
X3461250Y2468798D01*
D02*
G37*
G36*
X3400000D02*
X3358750D01*
X3332901Y2463656D01*
X3310987Y2449014D01*
X3296344Y2427100D01*
X3291202Y2401250D01*
Y2380000D01*
X3400000D01*
Y2468798D01*
D02*
G37*
G36*
X3528798Y2360000D02*
X3420000D01*
Y2271202D01*
X3461250D01*
X3487099Y2276344D01*
X3509014Y2290987D01*
X3523656Y2312901D01*
X3528798Y2338750D01*
Y2360000D01*
D02*
G37*
G36*
X3400000D02*
X3291202D01*
Y2338750D01*
X3296344Y2312901D01*
X3310987Y2290987D01*
X3332901Y2276344D01*
X3358750Y2271202D01*
X3400000D01*
Y2360000D01*
D02*
G37*
G36*
X5558798Y2370000D02*
X5470000D01*
Y2261202D01*
X5491250D01*
X5517099Y2266344D01*
X5539014Y2280987D01*
X5553656Y2302901D01*
X5558798Y2328750D01*
Y2370000D01*
D02*
G37*
G36*
X6160669Y2324414D02*
X6141773D01*
X6124314Y2317182D01*
X6110952Y2303820D01*
X6103721Y2286362D01*
Y2267466D01*
X6110952Y2250007D01*
X6124314Y2236646D01*
X6141773Y2229414D01*
X6160669D01*
X6178127Y2236646D01*
X6191489Y2250007D01*
X6198721Y2267466D01*
Y2286362D01*
X6191489Y2303820D01*
X6178127Y2317182D01*
X6160669Y2324414D01*
D02*
G37*
G36*
X3959448Y2297500D02*
X3940552D01*
X3923093Y2290268D01*
X3909732Y2276907D01*
X3902500Y2259448D01*
Y2240552D01*
X3909732Y2223094D01*
X3923093Y2209732D01*
X3940552Y2202500D01*
X3959448D01*
X3976906Y2209732D01*
X3990268Y2223094D01*
X3997500Y2240552D01*
Y2259448D01*
X3990268Y2276907D01*
X3976906Y2290268D01*
X3959448Y2297500D01*
D02*
G37*
G36*
X4339448Y2267500D02*
X4320552D01*
X4303094Y2260268D01*
X4289732Y2246906D01*
X4282500Y2229448D01*
Y2210552D01*
X4289732Y2193093D01*
X4303094Y2179731D01*
X4320552Y2172500D01*
X4339448D01*
X4356906Y2179731D01*
X4370268Y2193093D01*
X4377500Y2210552D01*
Y2229448D01*
X4370268Y2246906D01*
X4356906Y2260268D01*
X4339448Y2267500D01*
D02*
G37*
G36*
X6155791Y2172415D02*
X6136894D01*
X6119436Y2165184D01*
X6106074Y2151822D01*
X6098843Y2134364D01*
Y2115467D01*
X6106074Y2098009D01*
X6119436Y2084647D01*
X6136894Y2077416D01*
X6155791D01*
X6173249Y2084647D01*
X6186611Y2098009D01*
X6193842Y2115467D01*
Y2134364D01*
X6186611Y2151822D01*
X6173249Y2165184D01*
X6155791Y2172415D01*
D02*
G37*
G36*
X5607381Y2239287D02*
X5588484D01*
X5571026Y2232056D01*
X5557664Y2218694D01*
X5550433Y2201236D01*
Y2182339D01*
X5557664Y2164881D01*
X5568376Y2154169D01*
X5567920Y2151874D01*
X5554558Y2138512D01*
X5547327Y2121054D01*
Y2102157D01*
X5554558Y2084699D01*
X5567920Y2071337D01*
X5585378Y2064106D01*
X5604275D01*
X5621733Y2071337D01*
X5635095Y2084699D01*
X5642326Y2102157D01*
Y2121054D01*
X5635095Y2138512D01*
X5624383Y2149224D01*
X5624839Y2151519D01*
X5638201Y2164881D01*
X5645432Y2182339D01*
Y2201236D01*
X5638201Y2218694D01*
X5624839Y2232056D01*
X5607381Y2239287D01*
D02*
G37*
G36*
X3453859Y2220350D02*
X3434351Y2216470D01*
X3417812Y2205418D01*
X3406761Y2188880D01*
X3405730Y2183700D01*
X3358750D01*
X3334852Y2178946D01*
X3314591Y2165409D01*
X3301054Y2145149D01*
X3296300Y2121250D01*
Y2058750D01*
X3301054Y2034852D01*
X3314591Y2014591D01*
X3334852Y2001054D01*
X3358750Y1996300D01*
X3461250D01*
X3485148Y2001054D01*
X3505409Y2014591D01*
X3518946Y2034852D01*
X3523700Y2058750D01*
Y2121250D01*
X3518946Y2145149D01*
X3505409Y2165409D01*
X3504839Y2165790D01*
Y2169371D01*
X3500958Y2188880D01*
X3489907Y2205418D01*
X3473368Y2216470D01*
X3453859Y2220350D01*
D02*
G37*
G36*
X5629448Y2047500D02*
X5610552D01*
X5593093Y2040268D01*
X5579732Y2026907D01*
X5572500Y2009448D01*
Y1990552D01*
X5579732Y1973094D01*
X5593093Y1959732D01*
X5610552Y1952500D01*
X5629448D01*
X5646906Y1959732D01*
X5660268Y1973094D01*
X5667500Y1990552D01*
Y2009448D01*
X5660268Y2026907D01*
X5646906Y2040268D01*
X5629448Y2047500D01*
D02*
G37*
G36*
X6157174Y1913323D02*
X6138278D01*
X6120819Y1906091D01*
X6107457Y1892730D01*
X6100226Y1875271D01*
Y1856375D01*
X6107457Y1838917D01*
X6120819Y1825555D01*
X6138278Y1818323D01*
X6157174D01*
X6174632Y1825555D01*
X6187994Y1838917D01*
X6195226Y1856375D01*
Y1875271D01*
X6187994Y1892730D01*
X6174632Y1906091D01*
X6157174Y1913323D01*
D02*
G37*
G36*
X6160259Y1761506D02*
X6141363D01*
X6123905Y1754275D01*
X6110543Y1740913D01*
X6103311Y1723455D01*
Y1704558D01*
X6110543Y1687100D01*
X6123905Y1673738D01*
X6141363Y1666506D01*
X6160259D01*
X6177718Y1673738D01*
X6191080Y1687100D01*
X6198311Y1704558D01*
Y1723455D01*
X6191080Y1740913D01*
X6177718Y1754275D01*
X6160259Y1761506D01*
D02*
G37*
G36*
X4608943Y1667480D02*
X4590046D01*
X4572588Y1660249D01*
X4559226Y1646887D01*
X4551995Y1629429D01*
Y1610532D01*
X4559226Y1593074D01*
X4572588Y1579712D01*
X4590046Y1572481D01*
X4608943D01*
X4626401Y1579712D01*
X4639763Y1593074D01*
X4646994Y1610532D01*
Y1629429D01*
X4639763Y1646887D01*
X4626401Y1660249D01*
X4608943Y1667480D01*
D02*
G37*
G36*
X4239448Y1587500D02*
X4220552D01*
X4203093Y1580268D01*
X4189732Y1566906D01*
X4182500Y1549448D01*
Y1530552D01*
X4188615Y1515790D01*
X4179732Y1506907D01*
X4172500Y1489448D01*
Y1470552D01*
X4179732Y1453094D01*
X4193093Y1439732D01*
X4210552Y1432500D01*
X4229448D01*
X4246906Y1439732D01*
X4260268Y1453094D01*
X4267500Y1470552D01*
Y1489448D01*
X4261385Y1504210D01*
X4270268Y1513093D01*
X4277500Y1530552D01*
Y1549448D01*
X4270268Y1566906D01*
X4256906Y1580268D01*
X4239448Y1587500D01*
D02*
G37*
G36*
X6098721Y1449802D02*
X6079824D01*
X6062366Y1442571D01*
X6049004Y1429209D01*
X6041773Y1411751D01*
Y1392854D01*
X6049004Y1375396D01*
X6062366Y1362034D01*
X6079824Y1354802D01*
X6098721D01*
X6116179Y1362034D01*
X6129541Y1375396D01*
X6136772Y1392854D01*
Y1411751D01*
X6129541Y1429209D01*
X6116179Y1442571D01*
X6098721Y1449802D01*
D02*
G37*
G36*
X6269448Y1337500D02*
X6250551D01*
X6233093Y1330269D01*
X6219731Y1316907D01*
X6212500Y1299449D01*
Y1280552D01*
X6219731Y1263094D01*
X6233093Y1249732D01*
X6250551Y1242500D01*
X6269448D01*
X6286906Y1249732D01*
X6300268Y1263094D01*
X6307499Y1280552D01*
Y1299449D01*
X6300268Y1316907D01*
X6286906Y1330269D01*
X6269448Y1337500D01*
D02*
G37*
G36*
X6383578Y1272424D02*
X6364681D01*
X6347223Y1265193D01*
X6333861Y1251831D01*
X6326630Y1234372D01*
Y1215476D01*
X6333861Y1198018D01*
X6347223Y1184656D01*
X6364681Y1177424D01*
X6383578D01*
X6401036Y1184656D01*
X6414398Y1198018D01*
X6421629Y1215476D01*
Y1234372D01*
X6414398Y1251831D01*
X6401036Y1265193D01*
X6383578Y1272424D01*
D02*
G37*
G36*
X5329448Y1177500D02*
X5310552D01*
X5293094Y1170268D01*
X5279732Y1156907D01*
X5272500Y1139448D01*
Y1120552D01*
X5279732Y1103094D01*
X5293094Y1089732D01*
X5310552Y1082500D01*
X5329448D01*
X5346907Y1089732D01*
X5360268Y1103094D01*
X5367500Y1120552D01*
Y1139448D01*
X5360268Y1156907D01*
X5346907Y1170268D01*
X5329448Y1177500D01*
D02*
G37*
G36*
X6099448Y1037499D02*
X6080552D01*
X6063094Y1030268D01*
X6049732Y1016906D01*
X6042500Y999448D01*
Y980551D01*
X6049732Y963093D01*
X6063094Y949731D01*
X6080552Y942500D01*
X6099448D01*
X6116906Y949731D01*
X6130268Y963093D01*
X6137500Y980551D01*
Y999448D01*
X6130268Y1016906D01*
X6116906Y1030268D01*
X6099448Y1037499D01*
D02*
G37*
G36*
X5303835Y1013575D02*
X5284939D01*
X5267481Y1006344D01*
X5254119Y992982D01*
X5246887Y975524D01*
Y956627D01*
X5254119Y939169D01*
X5267481Y925807D01*
X5284939Y918576D01*
X5303835D01*
X5321294Y925807D01*
X5334656Y939169D01*
X5341887Y956627D01*
Y975524D01*
X5334656Y992982D01*
X5321294Y1006344D01*
X5303835Y1013575D01*
D02*
G37*
G36*
X6372901Y957164D02*
X6354004D01*
X6336546Y949933D01*
X6323184Y936571D01*
X6315953Y919112D01*
Y915617D01*
X6300953Y912633D01*
X6300268Y914286D01*
X6286906Y927648D01*
X6269448Y934879D01*
X6250551D01*
X6233093Y927648D01*
X6219731Y914286D01*
X6212500Y896828D01*
Y877931D01*
X6219731Y860473D01*
X6233093Y847111D01*
X6250551Y839879D01*
X6269448D01*
X6286906Y847111D01*
X6300268Y860473D01*
X6307499Y877931D01*
Y881426D01*
X6322499Y884410D01*
X6323184Y882758D01*
X6336546Y869396D01*
X6354004Y862164D01*
X6372901D01*
X6390359Y869396D01*
X6403721Y882758D01*
X6410952Y900216D01*
Y919112D01*
X6403721Y936571D01*
X6390359Y949933D01*
X6372901Y957164D01*
D02*
G37*
G36*
X4926279Y1006041D02*
X4907382D01*
X4889924Y998809D01*
X4876562Y985447D01*
X4869331Y967989D01*
Y949093D01*
X4876562Y931634D01*
X4889924Y918272D01*
X4907382Y911041D01*
X4926279D01*
X4939537Y916533D01*
X4939881Y916189D01*
X4957339Y908958D01*
X4976235D01*
X4993694Y916189D01*
X5007056Y929551D01*
X5014287Y947010D01*
Y965906D01*
X5007056Y983364D01*
X4993694Y996726D01*
X4976235Y1003958D01*
X4957339D01*
X4944080Y998466D01*
X4943737Y998809D01*
X4926279Y1006041D01*
D02*
G37*
G36*
X5109448Y877500D02*
X5090552D01*
X5073093Y870269D01*
X5059732Y856907D01*
X5052500Y839448D01*
Y820552D01*
X5059732Y803094D01*
X5073093Y789732D01*
X5090552Y782500D01*
X5109448D01*
X5126906Y789732D01*
X5146050Y787662D01*
X5152030Y781681D01*
X5169488Y774450D01*
X5188385D01*
X5205843Y781681D01*
X5219205Y795043D01*
X5226436Y812502D01*
Y831398D01*
X5219205Y848856D01*
X5205843Y862218D01*
X5188385Y869450D01*
X5169488D01*
X5152030Y862218D01*
X5132887Y864288D01*
X5126906Y870269D01*
X5109448Y877500D01*
D02*
G37*
G36*
X6352567Y791502D02*
X6333670D01*
X6316212Y784271D01*
X6302850Y770909D01*
X6295619Y753451D01*
Y734554D01*
X6302850Y717096D01*
X6316212Y703734D01*
X6333670Y696503D01*
X6352567D01*
X6370025Y703734D01*
X6383387Y717096D01*
X6390618Y734554D01*
Y753451D01*
X6383387Y770909D01*
X6370025Y784271D01*
X6352567Y791502D01*
D02*
G37*
G36*
X4092950Y827288D02*
X4074053D01*
X4056595Y820056D01*
X4043233Y806694D01*
X4036002Y789236D01*
Y770340D01*
X4043233Y752881D01*
X4056595Y739519D01*
X4074053Y732288D01*
X4092950D01*
X4110408Y739519D01*
X4123770Y752881D01*
X4135591Y745104D01*
X4128370Y727671D01*
Y708775D01*
X4135602Y691316D01*
X4148964Y677954D01*
X4166422Y670723D01*
X4185318D01*
X4202776Y677954D01*
X4216138Y691316D01*
X4219434Y699272D01*
X4235669D01*
X4239657Y689645D01*
X4253019Y676283D01*
X4270477Y669051D01*
X4289374D01*
X4306832Y676283D01*
X4320194Y689645D01*
X4327425Y707103D01*
Y726000D01*
X4320194Y743458D01*
X4306832Y756820D01*
X4289374Y764051D01*
X4270477D01*
X4253019Y756820D01*
X4239657Y743458D01*
X4236362Y735502D01*
X4220126D01*
X4216138Y745129D01*
X4202776Y758491D01*
X4185318Y765723D01*
X4166422D01*
X4148964Y758491D01*
X4135602Y745130D01*
X4123781Y752907D01*
X4131001Y770340D01*
Y789236D01*
X4123770Y806694D01*
X4110408Y820056D01*
X4092950Y827288D01*
D02*
G37*
G36*
X6138500Y606018D02*
X6106000D01*
Y474500D01*
X6217518D01*
Y527000D01*
X6211503Y557239D01*
X6194374Y582874D01*
X6168739Y600003D01*
X6138500Y606018D01*
D02*
G37*
G36*
X6086000D02*
X6053500D01*
X6023261Y600003D01*
X5997626Y582874D01*
X5980497Y557239D01*
X5974482Y527000D01*
Y474500D01*
X6086000D01*
Y606018D01*
D02*
G37*
%LPD*%
G36*
X3128967Y4610026D02*
X3127866Y4610785D01*
X3126691Y4611463D01*
X3125442Y4612062D01*
X3124118Y4612582D01*
X3122720Y4613021D01*
X3121248Y4613380D01*
X3119701Y4613660D01*
X3118080Y4613859D01*
X3114614Y4614019D01*
Y4634019D01*
X3116384Y4634059D01*
X3119701Y4634379D01*
X3121248Y4634658D01*
X3122720Y4635018D01*
X3124118Y4635457D01*
X3125442Y4635976D01*
X3126691Y4636575D01*
X3127866Y4637254D01*
X3128967Y4638013D01*
Y4610026D01*
D02*
G37*
G36*
X2969641Y4604502D02*
X2956946Y4588912D01*
X2955621Y4590157D01*
X2954313Y4591226D01*
X2953022Y4592117D01*
X2951748Y4592833D01*
X2950491Y4593371D01*
X2949252Y4593733D01*
X2948029Y4593919D01*
X2946823Y4593928D01*
X2945633Y4593760D01*
X2944461Y4593416D01*
X2954104Y4617469D01*
X2969641Y4604502D01*
D02*
G37*
G36*
X3115489Y4543383D02*
X3114446Y4542943D01*
X3113513Y4542348D01*
X3112689Y4541597D01*
X3111976Y4540691D01*
X3111372Y4539631D01*
X3110878Y4538415D01*
X3110494Y4537044D01*
X3110219Y4535518D01*
X3110055Y4533836D01*
X3110000Y4532000D01*
X3090000Y4535139D01*
X3093105Y4555437D01*
X3115489Y4543383D01*
D02*
G37*
G36*
X3958051Y3464273D02*
X3951837Y3449273D01*
X3870000D01*
X3844638Y3444228D01*
X3823138Y3429862D01*
X3808772Y3408361D01*
X3807778Y3403364D01*
X3792011Y3400988D01*
X3745000Y3447999D01*
X3615000D01*
X3614641Y3447641D01*
X3600784Y3453381D01*
Y3679999D01*
X3600784Y3680000D01*
X3597679Y3695607D01*
X3588838Y3708838D01*
X3582318Y3715359D01*
X3588058Y3729217D01*
X3693107D01*
X3958051Y3464273D01*
D02*
G37*
G36*
X3596061Y3031219D02*
X3603100Y3025290D01*
X3606444Y3022917D01*
X3609670Y3020939D01*
X3612779Y3019356D01*
X3615771Y3018167D01*
X3618645Y3017373D01*
X3621401Y3016974D01*
X3624041Y3016970D01*
X3596030Y2988959D01*
X3596026Y2991598D01*
X3595627Y2994355D01*
X3594833Y2997229D01*
X3593644Y3000221D01*
X3592061Y3003330D01*
X3590083Y3006556D01*
X3587710Y3009899D01*
X3584943Y3013360D01*
X3578224Y3020634D01*
X3592366Y3034776D01*
X3596061Y3031219D01*
D02*
G37*
G36*
X4004916Y2966100D02*
X4005868Y2964400D01*
X4007414Y2962900D01*
X4009553Y2961600D01*
X4012287Y2960500D01*
X4015614Y2959600D01*
X4019536Y2958900D01*
X4024051Y2958400D01*
X4034863Y2958000D01*
Y2938000D01*
X4029160Y2937900D01*
X4019536Y2937100D01*
X4015614Y2936400D01*
X4012287Y2935500D01*
X4009553Y2934400D01*
X4007414Y2933100D01*
X4005868Y2931600D01*
X4004916Y2929900D01*
X4004558Y2928000D01*
Y2968000D01*
X4004916Y2966100D01*
D02*
G37*
%LPC*%
G36*
X1606500Y5360244D02*
X1470500D01*
Y5153500D01*
X1697243D01*
Y5269500D01*
X1690336Y5304226D01*
X1670665Y5333665D01*
X1641226Y5353336D01*
X1606500Y5360244D01*
D02*
G37*
G36*
X1450500D02*
X1314500D01*
X1279774Y5353336D01*
X1250335Y5333665D01*
X1230664Y5304226D01*
X1223757Y5269500D01*
Y5153500D01*
X1450500D01*
Y5360244D01*
D02*
G37*
G36*
X2153518Y5280500D02*
X1910482D01*
Y5228000D01*
X1916497Y5197761D01*
X1933626Y5172126D01*
X1959261Y5154997D01*
X1976839Y5151500D01*
X1975362Y5136500D01*
X1972000D01*
X1912000Y5076500D01*
Y5006500D01*
X2152000D01*
Y5076500D01*
X2092000Y5136500D01*
X2088638D01*
X2087161Y5151500D01*
X2104739Y5154997D01*
X2130374Y5172126D01*
X2147503Y5197761D01*
X2153518Y5228000D01*
Y5280500D01*
D02*
G37*
G36*
X1697243Y5133500D02*
X1470500D01*
Y4926756D01*
X1606500D01*
X1641226Y4933664D01*
X1670665Y4953335D01*
X1690336Y4982774D01*
X1697243Y5017500D01*
Y5133500D01*
D02*
G37*
G36*
X1450500D02*
X1223757D01*
Y5017500D01*
X1230664Y4982774D01*
X1250335Y4953335D01*
X1279774Y4933664D01*
X1314500Y4926756D01*
X1450500D01*
Y5133500D01*
D02*
G37*
G36*
X2582500Y5132920D02*
X2497500D01*
X2469212Y5127294D01*
X2445231Y5111270D01*
X2429207Y5087288D01*
X2423580Y5059000D01*
Y4934000D01*
X2429207Y4905712D01*
X2445231Y4881730D01*
X2469212Y4865707D01*
X2497500Y4860080D01*
X2582500D01*
X2610788Y4865707D01*
X2634769Y4881730D01*
X2650793Y4905712D01*
X2656420Y4934000D01*
Y5059000D01*
X2650793Y5087288D01*
X2634769Y5111270D01*
X2610788Y5127294D01*
X2582500Y5132920D01*
D02*
G37*
G36*
X2328500D02*
X2243500D01*
X2215212Y5127294D01*
X2191231Y5111270D01*
X2175207Y5087288D01*
X2169580Y5059000D01*
Y4934000D01*
X2175207Y4905712D01*
X2191231Y4881730D01*
X2215212Y4865707D01*
X2243500Y4860080D01*
X2328500D01*
X2356788Y4865707D01*
X2380769Y4881730D01*
X2396793Y4905712D01*
X2402420Y4934000D01*
Y5059000D01*
X2396793Y5087288D01*
X2380769Y5111270D01*
X2356788Y5127294D01*
X2328500Y5132920D01*
D02*
G37*
G36*
X2152000Y4986500D02*
X2042000D01*
Y4856500D01*
X2092000D01*
X2152000Y4916500D01*
Y4986500D01*
D02*
G37*
G36*
X2022000D02*
X1912000D01*
Y4916500D01*
X1972000Y4856500D01*
X2022000D01*
Y4986500D01*
D02*
G37*
G36*
X2381250Y4258798D02*
X2340000D01*
Y4170000D01*
X2448798D01*
Y4191250D01*
X2443656Y4217100D01*
X2429013Y4239014D01*
X2407099Y4253656D01*
X2381250Y4258798D01*
D02*
G37*
G36*
X2320000D02*
X2278750D01*
X2252900Y4253656D01*
X2230986Y4239014D01*
X2216344Y4217100D01*
X2211202Y4191250D01*
Y4170000D01*
X2320000D01*
Y4258798D01*
D02*
G37*
G36*
X2448798Y4150000D02*
X2340000D01*
Y4061202D01*
X2381250D01*
X2407099Y4066344D01*
X2429013Y4080987D01*
X2443656Y4102901D01*
X2448798Y4128750D01*
Y4150000D01*
D02*
G37*
G36*
X2320000D02*
X2211202D01*
Y4128750D01*
X2216344Y4102901D01*
X2230986Y4080987D01*
X2252900Y4066344D01*
X2278750Y4061202D01*
X2320000D01*
Y4150000D01*
D02*
G37*
G36*
X2381250Y3973700D02*
X2278750D01*
X2254851Y3968946D01*
X2234591Y3955409D01*
X2221054Y3935149D01*
X2216300Y3911250D01*
Y3868988D01*
X2209222Y3861910D01*
X2202170Y3857198D01*
X2190014Y3839005D01*
X2185745Y3817545D01*
X2190014Y3796085D01*
X2202170Y3777893D01*
X2220363Y3765737D01*
X2241823Y3761468D01*
X2244163D01*
X2265623Y3765737D01*
X2283815Y3777893D01*
X2292223Y3786300D01*
X2381250D01*
X2405148Y3791054D01*
X2425409Y3804591D01*
X2438946Y3824852D01*
X2443700Y3848750D01*
Y3911250D01*
X2438946Y3935149D01*
X2425409Y3955409D01*
X2405148Y3968946D01*
X2381250Y3973700D01*
D02*
G37*
G36*
X2511250Y3318798D02*
X2470000D01*
Y3230000D01*
X2578798D01*
Y3251250D01*
X2573656Y3277099D01*
X2559013Y3299013D01*
X2537099Y3313656D01*
X2511250Y3318798D01*
D02*
G37*
G36*
X2450000D02*
X2408750D01*
X2382900Y3313656D01*
X2360986Y3299013D01*
X2346344Y3277099D01*
X2341202Y3251250D01*
Y3230000D01*
X2450000D01*
Y3318798D01*
D02*
G37*
G36*
X2578798Y3210000D02*
X2470000D01*
Y3121202D01*
X2511250D01*
X2537099Y3126344D01*
X2559013Y3140986D01*
X2573656Y3162900D01*
X2578798Y3188750D01*
Y3210000D01*
D02*
G37*
G36*
X2450000D02*
X2341202D01*
Y3188750D01*
X2346344Y3162900D01*
X2360986Y3140986D01*
X2382900Y3126344D01*
X2408750Y3121202D01*
X2450000D01*
Y3210000D01*
D02*
G37*
G36*
X2511250Y3033700D02*
X2408750D01*
X2384851Y3028946D01*
X2364591Y3015409D01*
X2351054Y2995148D01*
X2346300Y2971250D01*
Y2908750D01*
X2351054Y2884851D01*
X2364591Y2864591D01*
X2384851Y2851054D01*
X2408750Y2846300D01*
X2511250D01*
X2535148Y2851054D01*
X2555409Y2864591D01*
X2556670Y2866479D01*
X2565028Y2868141D01*
X2583221Y2880297D01*
X2595377Y2898490D01*
X2599646Y2919950D01*
X2595377Y2941410D01*
X2583221Y2959603D01*
X2573700Y2969124D01*
Y2971250D01*
X2568946Y2995148D01*
X2555409Y3015409D01*
X2535148Y3028946D01*
X2511250Y3033700D01*
D02*
G37*
G36*
X2619727Y2085434D02*
X2600830D01*
X2583372Y2078203D01*
X2570010Y2064841D01*
X2562779Y2047382D01*
Y2028486D01*
X2570010Y2011028D01*
X2583372Y1997666D01*
X2600830Y1990434D01*
X2619727D01*
X2637185Y1997666D01*
X2650547Y2011028D01*
X2657778Y2028486D01*
Y2047382D01*
X2650547Y2064841D01*
X2637185Y2078203D01*
X2619727Y2085434D01*
D02*
G37*
G36*
X1881548Y1522274D02*
X1862652D01*
X1845194Y1515043D01*
X1831832Y1501681D01*
X1824600Y1484223D01*
Y1465326D01*
X1831832Y1447868D01*
X1845194Y1434506D01*
X1862652Y1427275D01*
X1881548D01*
X1899007Y1434506D01*
X1912369Y1447868D01*
X1919600Y1465326D01*
Y1484223D01*
X1912369Y1501681D01*
X1899007Y1515043D01*
X1881548Y1522274D01*
D02*
G37*
G36*
X1966231Y1068969D02*
X1947334D01*
X1929876Y1061738D01*
X1916514Y1048376D01*
X1909283Y1030917D01*
Y1012021D01*
X1916514Y994563D01*
X1929876Y981201D01*
X1947334Y973969D01*
X1966231D01*
X1983689Y981201D01*
X1997051Y994563D01*
X2004282Y1012021D01*
Y1030917D01*
X1997051Y1048376D01*
X1983689Y1061738D01*
X1966231Y1068969D01*
D02*
G37*
G36*
X2559880Y958443D02*
X2540983D01*
X2523525Y951212D01*
X2510163Y937850D01*
X2502932Y920392D01*
Y901495D01*
X2510163Y884037D01*
X2523525Y870675D01*
X2540983Y863444D01*
X2559880D01*
X2577338Y870675D01*
X2590700Y884037D01*
X2597931Y901495D01*
Y920392D01*
X2590700Y937850D01*
X2577338Y951212D01*
X2559880Y958443D01*
D02*
G37*
G36*
X1550000Y835000D02*
X1410000D01*
X1340000Y765000D01*
Y625000D01*
X1410000Y555000D01*
X1550000D01*
X1620000Y625000D01*
Y765000D01*
X1550000Y835000D01*
D02*
G37*
G36*
X2074500Y606018D02*
X2042000D01*
Y474500D01*
X2153518D01*
Y527000D01*
X2147503Y557239D01*
X2130374Y582874D01*
X2104739Y600003D01*
X2074500Y606018D01*
D02*
G37*
G36*
X2022000D02*
X1989500D01*
X1959261Y600003D01*
X1933626Y582874D01*
X1916497Y557239D01*
X1910482Y527000D01*
Y474500D01*
X2022000D01*
Y606018D01*
D02*
G37*
G36*
X1535000Y491763D02*
X1490000D01*
Y355000D01*
X1626763D01*
Y400000D01*
X1619778Y435116D01*
X1599887Y464887D01*
X1570116Y484778D01*
X1535000Y491763D01*
D02*
G37*
G36*
X1470000D02*
X1425000D01*
X1389884Y484778D01*
X1360114Y464887D01*
X1340222Y435116D01*
X1333237Y400000D01*
Y355000D01*
X1470000D01*
Y491763D01*
D02*
G37*
G36*
X3344500Y600920D02*
X3259500D01*
X3231212Y595293D01*
X3207231Y579270D01*
X3191207Y555288D01*
X3185580Y527000D01*
Y402000D01*
X3191207Y373712D01*
X3207231Y349730D01*
X3231212Y333706D01*
X3259500Y328080D01*
X3344500D01*
X3372788Y333706D01*
X3396769Y349730D01*
X3412793Y373712D01*
X3418420Y402000D01*
Y527000D01*
X3412793Y555288D01*
X3396769Y579270D01*
X3372788Y595293D01*
X3344500Y600920D01*
D02*
G37*
G36*
X3090500D02*
X3005500D01*
X2977212Y595293D01*
X2953231Y579270D01*
X2937207Y555288D01*
X2931580Y527000D01*
Y402000D01*
X2937207Y373712D01*
X2953231Y349730D01*
X2977212Y333706D01*
X3005500Y328080D01*
X3090500D01*
X3118788Y333706D01*
X3142769Y349730D01*
X3158793Y373712D01*
X3164420Y402000D01*
Y527000D01*
X3158793Y555288D01*
X3142769Y579270D01*
X3118788Y595293D01*
X3090500Y600920D01*
D02*
G37*
G36*
X2836500D02*
X2751500D01*
X2723212Y595293D01*
X2699231Y579270D01*
X2683207Y555288D01*
X2677580Y527000D01*
Y402000D01*
X2683207Y373712D01*
X2699231Y349730D01*
X2723212Y333706D01*
X2751500Y328080D01*
X2836500D01*
X2864788Y333706D01*
X2888769Y349730D01*
X2904793Y373712D01*
X2910420Y402000D01*
Y527000D01*
X2904793Y555288D01*
X2888769Y579270D01*
X2864788Y595293D01*
X2836500Y600920D01*
D02*
G37*
G36*
X2582500D02*
X2497500D01*
X2469212Y595293D01*
X2445231Y579270D01*
X2429207Y555288D01*
X2423580Y527000D01*
Y402000D01*
X2429207Y373712D01*
X2445231Y349730D01*
X2469212Y333706D01*
X2497500Y328080D01*
X2582500D01*
X2610788Y333706D01*
X2634769Y349730D01*
X2650793Y373712D01*
X2656420Y402000D01*
Y527000D01*
X2650793Y555288D01*
X2634769Y579270D01*
X2610788Y595293D01*
X2582500Y600920D01*
D02*
G37*
G36*
X2328500D02*
X2243500D01*
X2215212Y595293D01*
X2191231Y579270D01*
X2175207Y555288D01*
X2169580Y527000D01*
Y402000D01*
X2175207Y373712D01*
X2191231Y349730D01*
X2215212Y333706D01*
X2243500Y328080D01*
X2328500D01*
X2356788Y333706D01*
X2380769Y349730D01*
X2396793Y373712D01*
X2402420Y402000D01*
Y527000D01*
X2396793Y555288D01*
X2380769Y579270D01*
X2356788Y595293D01*
X2328500Y600920D01*
D02*
G37*
G36*
X1626763Y335000D02*
X1490000D01*
Y198237D01*
X1535000D01*
X1570116Y205222D01*
X1599887Y225114D01*
X1619778Y254884D01*
X1626763Y290000D01*
Y335000D01*
D02*
G37*
G36*
X1470000D02*
X1333237D01*
Y290000D01*
X1340222Y254884D01*
X1360114Y225114D01*
X1389884Y205222D01*
X1425000Y198237D01*
X1470000D01*
Y335000D01*
D02*
G37*
G36*
X2153518Y454500D02*
X1910482D01*
Y402000D01*
X1916497Y371761D01*
X1933626Y346126D01*
X1959261Y328997D01*
X1976839Y325500D01*
X1975362Y310500D01*
X1972000D01*
X1912000Y250500D01*
Y180500D01*
X2152000D01*
Y250500D01*
X2092000Y310500D01*
X2088638D01*
X2087161Y325500D01*
X2104739Y328997D01*
X2130374Y346126D01*
X2147503Y371761D01*
X2153518Y402000D01*
Y454500D01*
D02*
G37*
G36*
X6677541Y875879D02*
X6658645D01*
X6641186Y868648D01*
X6627824Y855286D01*
X6620593Y837828D01*
Y818931D01*
X6627824Y801473D01*
X6641186Y788111D01*
X6658645Y780880D01*
X6677541D01*
X6694999Y788111D01*
X6708361Y801473D01*
X6715593Y818931D01*
Y837828D01*
X6708361Y855286D01*
X6694999Y868648D01*
X6677541Y875879D01*
D02*
G37*
%LPD*%
D43*
X5460000Y2380000D02*
D03*
X5180000D02*
D03*
X7020000Y3330000D02*
D03*
X7300000D02*
D03*
X6100000Y2820000D02*
D03*
X5820000D02*
D03*
D54*
X2460000Y3220000D02*
D03*
Y2940000D02*
D03*
X4038072Y4142450D02*
D03*
Y3862450D02*
D03*
X2330000Y3880000D02*
D03*
Y4160000D02*
D03*
X3410000Y2090000D02*
D03*
Y2370000D02*
D03*
D70*
X6615000Y1340370D02*
X6625565Y1350935D01*
X6391872Y1668127D02*
X6625565Y1434435D01*
Y1350935D02*
Y1434435D01*
X6391872Y1668127D02*
Y1995771D01*
X2450000Y3210000D02*
X2460000Y3220000D01*
X2350000Y3210000D02*
X2450000D01*
X3410000Y2090000D02*
X3412216D01*
X3453859Y2131644D01*
Y2169371D01*
X5401488Y1770850D02*
X5806169Y1366169D01*
X5460000Y2371456D02*
Y2380000D01*
X5403661Y2315116D02*
X5460000Y2371456D01*
X3430000Y2350000D02*
X3520000D01*
X3410000Y2370000D02*
X3430000Y2350000D01*
X3970000Y959500D02*
Y1242696D01*
X3904042Y1308653D02*
X3970000Y1242696D01*
X5806169Y983831D02*
Y1366169D01*
Y983831D02*
X5854327Y935673D01*
X5806169Y1366169D02*
X5847338Y1325000D01*
X5854999D01*
X7295000Y3325000D02*
X7300000Y3330000D01*
X7210000Y3325000D02*
X7295000D01*
X7020000Y3330000D02*
X7024976Y3325024D01*
X7110000D01*
X7140000Y2130000D02*
X7152358Y2117643D01*
Y1507069D02*
Y2117643D01*
D71*
X5670000Y4230000D02*
X5689965Y4249965D01*
X5670000Y2680000D02*
Y4230000D01*
Y2680000D02*
X5924349Y2425651D01*
X5689965Y4249965D02*
Y4420035D01*
X5720000Y2690000D02*
Y3560035D01*
X5724965Y3565000D02*
Y4435036D01*
X5720000Y3560035D02*
X5724965Y3565000D01*
X5502391Y4607609D02*
X5689965Y4420035D01*
X5552870Y4607130D02*
X5724965Y4435036D01*
X5499863Y4632256D02*
X5502391Y4629728D01*
Y4607609D02*
Y4629728D01*
X5552870Y4607130D02*
Y4627130D01*
X5550000Y4630000D02*
X5552870Y4627130D01*
X6436872Y1726491D02*
X6920999Y1242365D01*
X6436857Y2014427D02*
Y2282433D01*
X6436872Y1726491D02*
Y2014411D01*
X6436857Y2014427D02*
X6436872Y2014411D01*
X6507867Y1763719D02*
Y2331629D01*
X6472867Y1747132D02*
X6960000Y1260000D01*
X6472867Y1747132D02*
Y2297428D01*
X6507867Y1763719D02*
X6863166Y1408420D01*
X6874438D01*
X6909461Y1373397D01*
X6920999Y759001D02*
Y1242365D01*
X7500000Y383435D02*
Y560000D01*
X7436565Y320000D02*
X7500000Y383435D01*
X6470000Y320000D02*
X7436565D01*
X3480314D02*
X5460000D01*
X3351358Y239858D02*
X3400172D01*
X3480314Y320000D01*
X3302000Y190500D02*
X3351358Y239858D01*
X3500000Y571216D02*
Y773271D01*
X3636230Y909500D02*
X4399500D01*
X3500000Y773271D02*
X3636230Y909500D01*
X3501063Y499437D02*
X3556000Y444500D01*
X3501063Y499437D02*
Y570153D01*
X3500000Y571216D02*
X3501063Y570153D01*
X5693131Y946869D02*
X5809130Y830870D01*
X5693131Y946869D02*
Y1190478D01*
X5312067Y1571542D02*
X5693131Y1190478D01*
X5734435Y955565D02*
X5810000Y880000D01*
X5734435Y955565D02*
Y1198672D01*
X5348999Y1584108D02*
X5734435Y1198672D01*
X6997919Y795281D02*
X7190000Y987361D01*
X6963499Y795281D02*
X6997919D01*
X7190000Y987361D02*
Y1370000D01*
X6280000Y3170000D02*
Y4247250D01*
X6604000Y4571250D02*
Y5016500D01*
X6280000Y4247250D02*
X6604000Y4571250D01*
X6480000Y4500148D02*
Y5146500D01*
X6245000Y3155000D02*
Y4265148D01*
X6480000Y4500148D01*
X6351000Y4591000D02*
Y4624083D01*
X6175000Y4415000D02*
X6351000Y4591000D01*
X6175000Y3126006D02*
Y4415000D01*
X5969054Y4625903D02*
X6105000Y4489957D01*
Y3097011D02*
Y4489957D01*
X6140000Y3111508D02*
Y4515061D01*
X5950862Y4668403D02*
X5986658D01*
X5908991Y4626532D02*
X5950862Y4668403D01*
X5986658D02*
X6140000Y4515061D01*
X6300000Y1579005D02*
Y1614059D01*
X3560000Y3053000D02*
X3665000Y2948000D01*
X3560000Y3053000D02*
Y3680000D01*
X3010000Y4230000D02*
X3560000Y3680000D01*
X5141408Y4549718D02*
X5312067Y4379058D01*
Y1571542D02*
Y4379058D01*
X5209939Y4555019D02*
X5348999Y4415959D01*
Y1584108D02*
Y4415959D01*
X3788609Y3820000D02*
X4135000Y3473609D01*
X3100000Y4260000D02*
X3540000Y3820000D01*
X3788609D01*
X3710000Y3770000D02*
X4100000Y3380000D01*
X3060000Y4240000D02*
X3530000Y3770000D01*
X3710000D01*
X3010000Y4230000D02*
Y4550000D01*
X3900000Y2748000D02*
X3921470D01*
X4135000Y2965000D02*
Y3473609D01*
X3987462Y2817462D02*
X4135000Y2965000D01*
X3921470Y2748000D02*
X3987462Y2813991D01*
Y2817462D01*
X4038000Y2948000D02*
X4100000Y3010000D01*
X3935000Y2948000D02*
X4038000D01*
X4100000Y3010000D02*
Y3380000D01*
X3900000Y2948000D02*
X3935000D01*
X3060000Y4240000D02*
Y4590000D01*
X3100000Y4260000D02*
Y4545941D01*
X2953051Y4606949D02*
X3010000Y4550000D01*
X2938364Y4609819D02*
X2941234Y4606949D01*
X2953051D01*
X3060000Y4590000D02*
X3094019Y4624019D01*
X3100000Y4545941D02*
X3110000Y4555941D01*
Y4560000D01*
X3094019Y4624019D02*
X3139476D01*
X3665000Y2948000D02*
X3700000D01*
X7610000Y3350000D02*
X7651751Y3391751D01*
Y3740325D01*
X7610000Y2760000D02*
Y3350000D01*
X7372298Y963263D02*
X7403845Y931716D01*
X7388651Y1232349D02*
Y1235212D01*
X7372298Y1215997D02*
X7388651Y1232349D01*
X7372298Y963263D02*
Y1215997D01*
X7403845Y931716D02*
X7403846D01*
X7454341Y881220D01*
X7550000Y1180000D02*
X7649333D01*
X7650000Y1179333D01*
X7550000Y1180000D02*
Y1770000D01*
X7630000Y830000D02*
X7634247Y834248D01*
X7709582D01*
X7630000Y830000D02*
Y970000D01*
X7590000Y1010000D02*
X7605342Y1025342D01*
X7635879D01*
X7638749Y1028212D01*
X7590000Y1010000D02*
X7630000Y970000D01*
X7981234Y2760000D02*
X8131039Y2610196D01*
X7610000Y2760000D02*
X7981234D01*
X7474619Y2624619D02*
X7610000Y2760000D01*
X7446349Y2624619D02*
X7474619D01*
X7443479Y2621749D02*
X7446349Y2624619D01*
X7350000Y2580000D02*
X7400000Y2630000D01*
X7425373Y2629249D02*
X7431920D01*
X7439420Y2621749D02*
X7443479D01*
X7424621Y2630000D02*
X7425373Y2629249D01*
X7350000Y2480000D02*
Y2580000D01*
X7431920Y2629249D02*
X7439420Y2621749D01*
X7400000Y2630000D02*
X7424621D01*
X7395248Y2005211D02*
X7439767D01*
X7350000Y2010000D02*
X7390459D01*
X7395248Y2005211D01*
X7350000Y2010000D02*
Y2160000D01*
X7354835Y2155165D01*
X7463088D01*
X7350000Y2160000D02*
Y2480000D01*
X7355477Y2474524D01*
X7451513D01*
X7350000Y1970000D02*
Y2010000D01*
Y1970000D02*
X7550000Y1770000D01*
Y1050000D02*
Y1180000D01*
Y1050000D02*
X7590000Y1010000D01*
X7630000Y620000D02*
Y830000D01*
X6300000Y1579005D02*
X6550780Y1328225D01*
X6290000Y1624059D02*
X6300000Y1614059D01*
X6290000Y1624059D02*
Y1828927D01*
Y2060000D02*
X6294996Y2064996D01*
X6335369D01*
X6290000Y2060000D02*
Y2180000D01*
X6330000Y2220000D01*
X6290000Y1828927D02*
Y2060000D01*
Y1828927D02*
X6301716Y1817212D01*
X6328959D01*
X6331219Y1814952D01*
X6209290Y2510000D02*
X6436857Y2282433D01*
X6250296Y2520000D02*
X6472867Y2297428D01*
X6312648Y2526848D02*
X6507867Y2331629D01*
X6577867Y2031630D02*
Y2360623D01*
X6542867Y2017133D02*
X7190000Y1370000D01*
X6390000Y2548491D02*
X6577867Y2360623D01*
Y2031630D02*
X6699498Y1910000D01*
X6542867Y2017133D02*
Y2346126D01*
X6350000Y2538993D02*
X6542867Y2346126D01*
X6209290Y2510000D02*
Y2992721D01*
X6250296Y2520000D02*
Y3001213D01*
X6699498Y1910000D02*
X6860000D01*
X6312648Y2526848D02*
Y2988358D01*
X6350000Y2538993D02*
Y3000503D01*
X6390000Y2548491D02*
Y3010000D01*
X5410000Y880000D02*
Y982597D01*
X5503002Y1075600D01*
X6490986Y1111819D02*
Y1268431D01*
X6550780Y1328225D01*
X6490986Y919014D02*
X6550000Y860000D01*
X6490986Y919014D02*
Y1111819D01*
X6550000Y691523D02*
Y860000D01*
X6469871Y611393D02*
X6550000Y691523D01*
X5410000Y880000D02*
X5460000Y830000D01*
Y320000D02*
Y830000D01*
Y320000D02*
X6470000D01*
Y611264D01*
X6469871Y611393D02*
X6470000Y611264D01*
X7560000Y620000D02*
X7630000D01*
X7500000Y560000D02*
X7560000Y620000D01*
X6920999Y759001D02*
X7053827Y626174D01*
X7157111D01*
X7159078Y624207D01*
X7880000Y2340000D02*
X7992625Y2452625D01*
X7880000Y1920000D02*
Y2340000D01*
X7992625Y2452625D02*
X8067375D01*
X8070000Y2450000D01*
X5924349Y1319318D02*
Y2425651D01*
X5880474Y1275444D02*
X5924349Y1319318D01*
X5960246Y1274947D02*
Y2449754D01*
X5914765Y1229467D02*
X5960246Y1274947D01*
X5910706Y1229467D02*
X5914765D01*
X4860000Y1370000D02*
Y1460000D01*
X4399500Y909500D02*
X4860000Y1370000D01*
X7064341Y1005659D02*
X7141946D01*
X6960000Y1110000D02*
X7064341Y1005659D01*
X5810000Y880000D02*
X5870000D01*
X5905687Y844313D01*
Y817822D02*
Y844313D01*
Y817822D02*
X5908557Y814952D01*
X5809130Y830870D02*
X5847336D01*
X5720000Y2690000D02*
X5960246Y2449754D01*
X6610000Y2640000D02*
X6670000D01*
X6440000Y2810000D02*
X6610000Y2640000D01*
X6960000Y1110000D02*
Y1260000D01*
X6440000Y2810000D02*
Y3010000D01*
X6280000Y3170000D02*
X6440000Y3010000D01*
X6245000Y3155000D02*
X6390000Y3010000D01*
X6105000Y3097011D02*
X6209290Y2992721D01*
X6140000Y3111508D02*
X6250296Y3001213D01*
X6210000Y3140503D02*
Y4390000D01*
Y3140503D02*
X6350000Y3000503D01*
X6175000Y3126006D02*
X6312648Y2988358D01*
X6210000Y4390000D02*
X6410000Y4590000D01*
X6928753Y1978753D02*
X6965772D01*
X6860000Y1910000D02*
X6928753Y1978753D01*
X6480000Y5146500D02*
X6604000Y5270500D01*
X6849131Y4582950D02*
Y4627216D01*
X6623751Y4357570D02*
X6849131Y4582950D01*
D72*
X8420000Y2740000D02*
X8422625Y2737375D01*
X8569185D01*
X2820000Y3170000D02*
X3170000Y2820000D01*
Y2020000D02*
Y2820000D01*
X2820000Y3170000D02*
Y4740000D01*
X2920000Y4840000D01*
Y5142500D01*
X3048000Y5270500D01*
X3170000Y2020000D02*
X3390000Y1800000D01*
Y1030000D02*
Y1800000D01*
X7804298Y1845702D02*
Y1887032D01*
X7830469Y1913203D02*
Y2564325D01*
X7804298Y1887032D02*
X7830469Y1913203D01*
Y2564325D02*
X7849778Y2583633D01*
Y2631825D01*
D73*
X8420000Y2740000D02*
Y2816579D01*
X5639290Y4382866D02*
X5639965D01*
X5610000Y3655761D02*
Y4353576D01*
X5495072Y3540833D02*
X5610000Y3655761D01*
Y4353576D02*
X5639290Y4382866D01*
X8420000Y667664D02*
Y2740000D01*
X8342336Y590000D02*
X8420000Y667664D01*
X7910000Y590000D02*
X8342336D01*
X3306442Y681860D02*
X3452291Y827709D01*
X2507710Y681860D02*
X3306442D01*
X2339569Y850000D02*
X2507710Y681860D01*
X5180000Y2398915D02*
X5246126Y2465041D01*
X5180000Y2363383D02*
Y2398915D01*
X5260000Y1516838D02*
X5603529Y1173309D01*
X5226852Y2326359D02*
X5260000Y2293211D01*
X5217024Y2326359D02*
X5226852D01*
X5260000Y1516838D02*
Y2293211D01*
X5180000Y2363383D02*
X5217024Y2326359D01*
X5401082Y1771256D02*
Y2210489D01*
X3260000Y1540000D02*
X3330000Y1470000D01*
X3226163Y1529716D02*
X3260000D01*
X3123929Y1427481D02*
X3226163Y1529716D01*
X3123929Y1107554D02*
Y1427481D01*
X3017681Y1001305D02*
X3123929Y1107554D01*
X3260000Y1540000D02*
Y1685217D01*
X2445217Y2500000D02*
X3260000Y1685217D01*
X2387393Y2500000D02*
X2445217D01*
X2384554Y2502839D02*
X2387393Y2500000D01*
X2381848Y2502839D02*
X2384554D01*
X3584082Y959500D02*
X3970000D01*
X4319500D01*
X8229907Y3006671D02*
X8420000Y2816579D01*
X8117549Y3006671D02*
X8229907D01*
X8117549D02*
Y3192451D01*
X8050000Y3260000D02*
X8117549Y3192451D01*
X7850000Y530000D02*
X7910000Y590000D01*
X6797500Y2566485D02*
X6860000D01*
X6860000Y2566485D02*
Y2740000D01*
X6860000Y2566485D02*
X6860000Y2566485D01*
X6851993Y2566485D02*
X7005508Y2720000D01*
X6750000Y2850000D02*
X6860000Y2740000D01*
X6851993Y2566485D02*
X6870000Y2548478D01*
Y2320000D02*
Y2548478D01*
X6750000Y2200000D02*
X6870000Y2320000D01*
X7005508Y2720000D02*
X7114042D01*
X7410000Y3015958D02*
Y4700000D01*
X7114042Y2720000D02*
X7410000Y3015958D01*
X7707500Y1050495D02*
Y2387500D01*
X7650000Y2445000D02*
X7707500Y2387500D01*
X5603529Y1110515D02*
Y1173309D01*
X4319500Y959500D02*
X4359500D01*
X4780000Y1380000D01*
X3452291Y827709D02*
X3584082Y959500D01*
X2127080Y1183054D02*
X2339569Y970564D01*
Y850000D02*
Y970564D01*
X7313016Y4603016D02*
X7410000Y4700000D01*
X6913016Y4603016D02*
X7313016D01*
X2523518Y2940000D02*
X2543568Y2919950D01*
X2460000Y2940000D02*
X2523518D01*
X2306617Y3880000D02*
X2330000D01*
X2244163Y3817545D02*
X2306617Y3880000D01*
X2241823Y3817545D02*
X2244163D01*
X4038072Y3862450D02*
X4038763Y3863141D01*
Y3960794D01*
X4039453Y3961484D01*
X4038072Y4142450D02*
X4038818Y4141705D01*
Y4047943D02*
Y4141705D01*
Y4047943D02*
X4039563Y4047198D01*
X5791735Y2848265D02*
X5820000Y2820000D01*
X5791735Y2848265D02*
Y2912054D01*
X5789822Y2913968D02*
X5791735Y2912054D01*
X6066358Y2853641D02*
X6100000Y2820000D01*
X6066358Y2853641D02*
Y2920935D01*
X6060000Y2927294D02*
X6066358Y2920935D01*
X6060000Y2927294D02*
Y2930000D01*
D74*
X3259697Y1020304D02*
Y1115924D01*
Y1020304D02*
X3452291Y827709D01*
X2127080Y1183054D02*
X2130000Y1185974D01*
Y1647391D01*
X1960000Y1817392D02*
X2130000Y1647391D01*
D84*
X3920000Y2548000D02*
D03*
Y2748000D02*
D03*
Y2948000D02*
D03*
Y3148000D02*
D03*
Y3348000D02*
D03*
X3680000Y2548000D02*
D03*
Y2748000D02*
D03*
Y2948000D02*
D03*
Y3148000D02*
D03*
D85*
Y3348000D02*
D03*
D86*
X8263000Y455000D02*
D03*
X8113000Y2275000D02*
D03*
Y5005000D02*
D03*
X8263000Y3185000D02*
D03*
D87*
X2032000Y170500D02*
D03*
Y4996500D02*
D03*
D88*
X2286000Y170500D02*
D03*
X2540000D02*
D03*
X2794000D02*
D03*
X3048000D02*
D03*
X3302000D02*
D03*
X3556000D02*
D03*
X3810000D02*
D03*
X4064000D02*
D03*
X4318000D02*
D03*
X4572000D02*
D03*
X4826000D02*
D03*
X5080000D02*
D03*
X5334000D02*
D03*
X5588000D02*
D03*
X5842000D02*
D03*
X6096000D02*
D03*
X6350000D02*
D03*
X6604000D02*
D03*
X6858000D02*
D03*
X7112000D02*
D03*
X7366000D02*
D03*
X7620000D02*
D03*
X2032000Y464500D02*
D03*
X2286000D02*
D03*
X2540000D02*
D03*
X2794000D02*
D03*
X3048000D02*
D03*
X3302000D02*
D03*
X3556000D02*
D03*
X3810000D02*
D03*
X4064000D02*
D03*
X4318000D02*
D03*
X4572000D02*
D03*
X4826000D02*
D03*
X5080000D02*
D03*
X5334000D02*
D03*
X5588000D02*
D03*
X5842000D02*
D03*
X6096000D02*
D03*
X6350000D02*
D03*
X6604000D02*
D03*
X6858000D02*
D03*
X7112000D02*
D03*
X7366000D02*
D03*
X7620000D02*
D03*
X2286000Y4996500D02*
D03*
X2540000D02*
D03*
X2794000D02*
D03*
X3048000D02*
D03*
X3302000D02*
D03*
X3556000D02*
D03*
X3810000D02*
D03*
X4064000D02*
D03*
X4318000D02*
D03*
X4572000D02*
D03*
X4826000D02*
D03*
X5080000D02*
D03*
X5334000D02*
D03*
X5588000D02*
D03*
X5842000D02*
D03*
X6096000D02*
D03*
X6350000D02*
D03*
X6604000D02*
D03*
X6858000D02*
D03*
X7112000D02*
D03*
X7366000D02*
D03*
X7620000D02*
D03*
X2032000Y5290500D02*
D03*
X2286000D02*
D03*
X2540000D02*
D03*
X2794000D02*
D03*
X3048000D02*
D03*
X3302000D02*
D03*
X3556000D02*
D03*
X3810000D02*
D03*
X4064000D02*
D03*
X4318000D02*
D03*
X4572000D02*
D03*
X4826000D02*
D03*
X5080000D02*
D03*
X5334000D02*
D03*
X5588000D02*
D03*
X5842000D02*
D03*
X6096000D02*
D03*
X6350000D02*
D03*
X6604000D02*
D03*
X6858000D02*
D03*
X7112000D02*
D03*
X7366000D02*
D03*
X7620000D02*
D03*
D89*
X1460500Y5143500D02*
D03*
D90*
X1480000Y345000D02*
D03*
D91*
Y695000D02*
D03*
D92*
X2380667Y1287523D02*
D03*
X8569185Y2737375D02*
D03*
X8552500Y2559739D02*
D03*
X5639965Y4382866D02*
D03*
X5439190Y3644282D02*
D03*
X5543187Y3694652D02*
D03*
X6570000Y1380000D02*
D03*
X6909461Y1373397D02*
D03*
X4599494Y1619981D02*
D03*
X4510000Y2670000D02*
D03*
X2350000Y3210000D02*
D03*
X8336372Y684779D02*
D03*
X3950000Y2250000D02*
D03*
X3795090Y2117655D02*
D03*
X4008448Y1334383D02*
D03*
X4109413Y1779007D02*
D03*
X5091511Y4826774D02*
D03*
X4731207Y4827546D02*
D03*
X5969054Y4625903D02*
D03*
X6583957Y1223066D02*
D03*
X3440000Y3630000D02*
D03*
X3000000Y2200000D02*
D03*
Y2430000D02*
D03*
X2410000Y1930000D02*
D03*
Y1700000D02*
D03*
X3554238Y1637718D02*
D03*
X6981659Y2564787D02*
D03*
X6574714Y923815D02*
D03*
X5584281Y2736198D02*
D03*
X5246126Y2465041D02*
D03*
X4306654Y1298722D02*
D03*
X4220000Y1480000D02*
D03*
X4230000Y1540000D02*
D03*
X4330000Y2220000D02*
D03*
X5391499Y3954002D02*
D03*
X5401082Y2210489D02*
D03*
X5401488Y1770850D02*
D03*
X5395308Y2711469D02*
D03*
X4364802Y2633201D02*
D03*
X5160000Y1700000D02*
D03*
X5463722Y1916669D02*
D03*
X5632761Y1943620D02*
D03*
X4750000Y3410000D02*
D03*
X4850000Y3450000D02*
D03*
X4960000Y3240000D02*
D03*
X4966787Y956458D02*
D03*
X4444097Y3326817D02*
D03*
X3139476Y4624019D02*
D03*
X2927766Y4177072D02*
D03*
X3110000Y4560000D02*
D03*
X3259993Y3139994D02*
D03*
X2980000Y3170001D02*
D03*
X2938364Y4609819D02*
D03*
X3392500Y2550000D02*
D03*
X4089577Y3458928D02*
D03*
X3499875Y3182500D02*
D03*
X4089999Y2717500D02*
D03*
X3520000Y2350000D02*
D03*
X2610278Y2037934D02*
D03*
X3453859Y2169371D02*
D03*
X4048113Y1964887D02*
D03*
X3239578Y1866066D02*
D03*
X3900347Y1212274D02*
D03*
X3390000Y1030000D02*
D03*
X2722076Y3263632D02*
D03*
X7007572Y3764473D02*
D03*
X6945811Y3768675D02*
D03*
X7651751Y3740325D02*
D03*
X6705711Y3634924D02*
D03*
X7208707Y3634883D02*
D03*
X7417279Y1163852D02*
D03*
X7454341Y881220D02*
D03*
X7528805Y834542D02*
D03*
X7532020Y733311D02*
D03*
X7527955Y676064D02*
D03*
X7367773Y881230D02*
D03*
X7388651Y1235212D02*
D03*
X8213919Y4389499D02*
D03*
X8225547Y4147272D02*
D03*
X8196010Y3966066D02*
D03*
X8205223Y4024776D02*
D03*
X8210000Y4090000D02*
D03*
X7650000Y1179333D02*
D03*
X6962354Y1377731D02*
D03*
X7780000Y1400000D02*
D03*
X6925887Y1458315D02*
D03*
X7709582Y834248D02*
D03*
X7638749Y1028212D02*
D03*
X7439767Y2005211D02*
D03*
X7804298Y1845702D02*
D03*
X7445615Y2055562D02*
D03*
X7463088Y2155165D02*
D03*
X7440746Y2202500D02*
D03*
X7451513Y2474524D02*
D03*
X7443479Y2621749D02*
D03*
X6335369Y2064996D02*
D03*
X6330000Y2220000D02*
D03*
X6342677Y2268366D02*
D03*
X6792748Y2418006D02*
D03*
X6338042Y1867057D02*
D03*
X6331219Y1814952D02*
D03*
X6550367Y1920716D02*
D03*
X6391872Y1995771D02*
D03*
X6490000Y2550000D02*
D03*
X5503002Y1075600D02*
D03*
X6300000Y1610000D02*
D03*
X6550780Y1328225D02*
D03*
X6366643Y1175064D02*
D03*
X6490986Y1111819D02*
D03*
X6550000Y860000D02*
D03*
X6668093Y828380D02*
D03*
X5410000Y880000D02*
D03*
X6469871Y611393D02*
D03*
X7630000Y620000D02*
D03*
X6981610Y601044D02*
D03*
X7159078Y624207D02*
D03*
X6594271Y3653251D02*
D03*
X6831596Y3870000D02*
D03*
X6780000Y3400000D02*
D03*
X8182143Y2814823D02*
D03*
X8223537Y2606359D02*
D03*
X8117549Y3006671D02*
D03*
X7210000Y3800000D02*
D03*
X7717762Y736535D02*
D03*
X3259697Y1115924D02*
D03*
X6940000Y2947500D02*
D03*
X7852918Y2962686D02*
D03*
X8181422Y2878977D02*
D03*
X8181230Y2945002D02*
D03*
X7849778Y2631825D02*
D03*
X7880000Y1920000D02*
D03*
X7650000Y2280000D02*
D03*
Y2445000D02*
D03*
X7529112Y2444793D02*
D03*
X8131039Y2610196D02*
D03*
X8070000Y2450000D02*
D03*
X8130000Y2510000D02*
D03*
X8340407Y2047135D02*
D03*
X8274077Y1960350D02*
D03*
X8250991Y1910622D02*
D03*
X8343944Y1938175D02*
D03*
X8340906Y1869523D02*
D03*
X4500000Y4500000D02*
D03*
X5101347Y4503003D02*
D03*
X4751347D02*
D03*
X4921347Y2563003D02*
D03*
X6332200Y864003D02*
D03*
X6731497Y875833D02*
D03*
X6343119Y744003D02*
D03*
X6339046Y619481D02*
D03*
X5628845Y1664897D02*
D03*
X5592089Y1702985D02*
D03*
X5641227Y2324889D02*
D03*
X5825260Y2235833D02*
D03*
X5620000Y2000000D02*
D03*
X5619286Y2054045D02*
D03*
X5982366Y4273059D02*
D03*
X7520656Y4099404D02*
D03*
X8182685Y4642287D02*
D03*
X5600865Y3493579D02*
D03*
X5990551Y3539929D02*
D03*
X5960045Y2706612D02*
D03*
X6573796Y2813468D02*
D03*
X7185789Y2899534D02*
D03*
X6794371Y2714635D02*
D03*
X6380000Y3180000D02*
D03*
X7265540Y4278122D02*
D03*
X6949095Y4828738D02*
D03*
X7329264Y4827195D02*
D03*
X7850000Y4630000D02*
D03*
X7183075Y2593718D02*
D03*
X7262744Y2474203D02*
D03*
X7251723Y2624881D02*
D03*
X7250633Y2154582D02*
D03*
X7257710Y1991396D02*
D03*
X6787656Y1992762D02*
D03*
X6150000Y1660000D02*
D03*
X6130251Y1814943D02*
D03*
X6147726Y1865823D02*
D03*
X6680000Y2280001D02*
D03*
X5986360Y1060716D02*
D03*
X6374129Y1224924D02*
D03*
X6353138Y1325106D02*
D03*
X5908597Y763530D02*
D03*
X7471172Y1554359D02*
D03*
X6778295Y1595643D02*
D03*
X7442489Y1223123D02*
D03*
X7458943Y1079929D02*
D03*
X7364207Y1548600D02*
D03*
X6970983Y993664D02*
D03*
X6843436Y1057733D02*
D03*
X7470000Y830000D02*
D03*
X7456884Y1027268D02*
D03*
X7820000Y1050000D02*
D03*
X5894331Y1178451D02*
D03*
X5910706Y1229467D02*
D03*
X5880474Y1275444D02*
D03*
X5862353Y1446317D02*
D03*
X5720000Y1290000D02*
D03*
X5275076Y1241599D02*
D03*
X4823740Y1240134D02*
D03*
X4822417Y1140418D02*
D03*
X4870496Y1065889D02*
D03*
X4916830Y958541D02*
D03*
X5287568Y1086075D02*
D03*
X5320000Y1130000D02*
D03*
X5294387Y966075D02*
D03*
X5321854Y923496D02*
D03*
X5307534Y757266D02*
D03*
X3515675Y1155029D02*
D03*
X2680532Y600491D02*
D03*
X6142965Y2074473D02*
D03*
X6139320Y2225882D02*
D03*
X6151221Y2276914D02*
D03*
X6344372Y2125552D02*
D03*
X6670672Y2714062D02*
D03*
X7290000Y4220000D02*
D03*
X4860000Y1460000D02*
D03*
X5468170Y1578802D02*
D03*
X5972225Y3738184D02*
D03*
X8050000Y3260000D02*
D03*
X7850000Y530000D02*
D03*
X7141946Y1005659D02*
D03*
X4780000Y1380000D02*
D03*
X3343313Y718731D02*
D03*
X4319500Y959500D02*
D03*
X3901347Y1308653D02*
D03*
X3260339Y800579D02*
D03*
X3470000Y1050000D02*
D03*
X3198847Y941388D02*
D03*
X2127080Y1183054D02*
D03*
X1960000Y1817392D02*
D03*
X5599722Y1768096D02*
D03*
X5597932Y2191787D02*
D03*
X5847336Y830870D02*
D03*
X5854327Y935673D02*
D03*
X5854999Y1325000D02*
D03*
X6002746Y1790909D02*
D03*
Y2210001D02*
D03*
X6963499Y795281D02*
D03*
X6750000Y2200000D02*
D03*
X6797500Y2566485D02*
D03*
X6750000Y2850000D02*
D03*
X6670000Y2640000D02*
D03*
X6682471Y2585249D02*
D03*
X7410000Y4700000D02*
D03*
X6913016Y4603016D02*
D03*
X5403661Y2315116D02*
D03*
X5122333Y2713076D02*
D03*
X2543568Y2919950D02*
D03*
X5814897Y2701733D02*
D03*
X5859988Y2959994D02*
D03*
X5245030Y1398108D02*
D03*
X6260000Y1290000D02*
D03*
Y887379D02*
D03*
X6150811Y1714006D02*
D03*
X5831296Y1867204D02*
D03*
X6089273Y1402302D02*
D03*
X6090000Y990000D02*
D03*
X6363452Y909664D02*
D03*
X5594827Y2111606D02*
D03*
X7147500Y1156486D02*
D03*
X7152358Y1507069D02*
D03*
X7154477Y845000D02*
D03*
X6615000Y1340370D02*
D03*
X7140000Y2130000D02*
D03*
X7000924Y2869064D02*
D03*
X6970000Y2213213D02*
D03*
X8190000Y1660000D02*
D03*
X5603879Y1110165D02*
D03*
X7210000Y3325000D02*
D03*
X7707500Y1050495D02*
D03*
X8350383Y3520454D02*
D03*
X7718011Y884968D02*
D03*
X4560639Y4052602D02*
D03*
X5580000Y2950000D02*
D03*
X5490000Y3100000D02*
D03*
X4640052Y3398326D02*
D03*
X5527472Y2810000D02*
D03*
X4900000Y3990000D02*
D03*
X4800000Y3989014D02*
D03*
X5495072Y3540833D02*
D03*
X6697740Y3864157D02*
D03*
X6441988Y3962577D02*
D03*
X6492088Y4081153D02*
D03*
X6359182Y3751310D02*
D03*
X7110000Y3325024D02*
D03*
X6358297Y3646994D02*
D03*
X6357981Y3949526D02*
D03*
X5531224Y1129757D02*
D03*
X5542259Y972754D02*
D03*
X4558761Y3037421D02*
D03*
X4399547Y3283233D02*
D03*
X4175870Y718223D02*
D03*
X2550432Y910944D02*
D03*
X3330000Y1470000D02*
D03*
X3340380Y1746653D02*
D03*
X2241823Y3817545D02*
D03*
X3168890Y3903603D02*
D03*
X3490000Y4100000D02*
D03*
X3640000Y1930000D02*
D03*
X3017681Y1001305D02*
D03*
X5810000Y3060000D02*
D03*
X5170000Y3600000D02*
D03*
X4610000Y4180000D02*
D03*
X4999571Y3840468D02*
D03*
X7550000Y4480000D02*
D03*
X6358173Y3451494D02*
D03*
X6965772Y1978753D02*
D03*
X1810833Y1870415D02*
D03*
X6849131Y4627216D02*
D03*
X6530000Y4670000D02*
D03*
X6410000Y4590000D02*
D03*
X6398170Y4489057D02*
D03*
X6801229Y3169430D02*
D03*
X6609365Y3434038D02*
D03*
X3931452Y832573D02*
D03*
X6692653Y4336911D02*
D03*
X7179667Y4373121D02*
D03*
X7047500Y4490000D02*
D03*
X7200000Y4480000D02*
D03*
X5968082Y4340141D02*
D03*
X5750000Y4510000D02*
D03*
X5424918Y4327451D02*
D03*
X6545530Y3772500D02*
D03*
X5080000Y3960000D02*
D03*
X6921096Y3976761D02*
D03*
X6771333Y3973312D02*
D03*
X6545000Y4012500D02*
D03*
X7210000Y4130000D02*
D03*
X6610000Y3730000D02*
D03*
X6443518Y3653792D02*
D03*
X6695952Y3549687D02*
D03*
X6844695Y4195084D02*
D03*
X7096269Y3870175D02*
D03*
X4360000Y4721722D02*
D03*
X6740000Y4140000D02*
D03*
X7272500Y2525455D02*
D03*
Y2674747D02*
D03*
Y2054765D02*
D03*
Y2204391D02*
D03*
X5908991Y4626532D02*
D03*
X6623751Y4357570D02*
D03*
X6160000Y4590000D02*
D03*
X7210790Y4721611D02*
D03*
X7540000Y4580000D02*
D03*
X5550000Y4630000D02*
D03*
X5499863Y4632256D02*
D03*
X5141408Y4549718D02*
D03*
X5209939Y4555019D02*
D03*
X5908557Y814952D02*
D03*
X4120000Y4570000D02*
D03*
X6680000Y4840000D02*
D03*
X5240000Y4850000D02*
D03*
X4390000D02*
D03*
X3620000Y4550000D02*
D03*
X4022208Y4695489D02*
D03*
X4010000Y4530000D02*
D03*
X5713689Y4890134D02*
D03*
X7035770Y4389633D02*
D03*
X6351000Y4624083D02*
D03*
X4083501Y779788D02*
D03*
X2721526Y4827756D02*
D03*
X2821915Y4830749D02*
D03*
X1956782Y1021469D02*
D03*
X1872100Y1474775D02*
D03*
X3148932Y742512D02*
D03*
X3835270Y1182957D02*
D03*
X3885916Y1140456D02*
D03*
X4279925Y716551D02*
D03*
X6753371Y2114523D02*
D03*
X6759394Y2034384D02*
D03*
X4510801Y3693668D02*
D03*
X4510639Y3765770D02*
D03*
X4713598Y2973046D02*
D03*
X4709536Y2907273D02*
D03*
X4562262Y3101914D02*
D03*
X5100000Y830000D02*
D03*
X5522500Y780000D02*
D03*
X5412500D02*
D03*
X5178937Y821950D02*
D03*
X4430000Y3690000D02*
D03*
X5273930Y624879D02*
D03*
X8180000Y4710000D02*
D03*
X7446979Y2675922D02*
D03*
X7440046Y2524425D02*
D03*
X8263173Y3560225D02*
D03*
X8262746Y3497006D02*
D03*
X8342706Y3417398D02*
D03*
X8338790Y3573566D02*
D03*
X6146343Y2124915D02*
D03*
X6335978Y1715116D02*
D03*
X6369784Y1375467D02*
D03*
X8237078Y837239D02*
D03*
X8279247Y752676D02*
D03*
X7638831Y1080000D02*
D03*
X8244326Y924809D02*
D03*
X8254941Y1004912D02*
D03*
X8340000Y750000D02*
D03*
X7638017Y1230000D02*
D03*
X8186743Y839696D02*
D03*
X8339120Y4628445D02*
D03*
X8190097Y1000173D02*
D03*
X8336335Y1164376D02*
D03*
X8339832Y1564061D02*
D03*
X8335876Y1646753D02*
D03*
X8339173Y1805640D02*
D03*
X8339531Y3655497D02*
D03*
Y3895251D02*
D03*
X8340000Y4775000D02*
D03*
X8336858Y4295000D02*
D03*
X8338650Y4535000D02*
D03*
X8188231Y1717282D02*
D03*
X8338507Y1721834D02*
D03*
X8190960Y1472841D02*
D03*
X8190000Y1420000D02*
D03*
X8191135Y1312606D02*
D03*
X8185072Y1261180D02*
D03*
X8335341Y4680295D02*
D03*
X8194955Y4439638D02*
D03*
X8333828Y4389101D02*
D03*
X8333073Y4441828D02*
D03*
X8190000Y3720000D02*
D03*
X8330000D02*
D03*
X4660000Y3540000D02*
D03*
X5452481Y3430081D02*
D03*
X5211075Y3725690D02*
D03*
X4617952Y4340233D02*
D03*
X5122086Y2843916D02*
D03*
X5122718Y3168584D02*
D03*
X5120000Y2970000D02*
D03*
X4399284Y2814947D02*
D03*
X2007255Y4699313D02*
D03*
X2356010Y4700798D02*
D03*
X3480000Y4680000D02*
D03*
X3455458Y4401433D02*
D03*
X3679868Y4307891D02*
D03*
X3995327Y3694868D02*
D03*
X3679400Y3694491D02*
D03*
X3910010Y4305052D02*
D03*
X2872337Y4410493D02*
D03*
X2199302Y4269783D02*
D03*
X2639250Y4282943D02*
D03*
X3329814Y3813335D02*
D03*
X3437287Y3448980D02*
D03*
X4280000Y1860000D02*
D03*
X3259728Y1310946D02*
D03*
X2720000Y960000D02*
D03*
X3000433Y801168D02*
D03*
X2409956Y630605D02*
D03*
X1499738Y1226361D02*
D03*
X2064939Y1368211D02*
D03*
X2008492Y1298202D02*
D03*
X2250000Y1580000D02*
D03*
X2415559Y1525693D02*
D03*
X2510000Y2630000D02*
D03*
X2299407Y2977139D02*
D03*
X2365367Y3034777D02*
D03*
D93*
X2339569Y850000D02*
D03*
X6060000Y2930000D02*
D03*
X2381848Y2502839D02*
D03*
X5789822Y2913968D02*
D03*
X4039453Y3961484D02*
D03*
X4039563Y4047198D02*
D03*
X1300500Y5283500D02*
D03*
Y5003500D02*
D03*
X1620500D02*
D03*
Y5283500D02*
D03*
%TF.MD5,2be8896fd94fbfe75bee89fbf5bb13e8*%
M02*
