%TF.GenerationSoftware,Altium Limited,Altium Designer,25.3.3 (18)*%
G04 Layer_Color=8388736*
%FSLAX45Y45*%
%MOMM*%
%TF.SameCoordinates,5572F933-5C96-4131-A983-9EF7CB378A5A*%
%TF.FilePolarity,Negative*%
%TF.FileFunction,Soldermask,Top*%
%TF.Part,Single*%
G01*
G75*
%TA.AperFunction,SMDPad,CuDef*%
G04:AMPARAMS|DCode=99|XSize=1.73mm|YSize=1.33mm|CornerRadius=0.3525mm|HoleSize=0mm|Usage=FLASHONLY|Rotation=90.000|XOffset=0mm|YOffset=0mm|HoleType=Round|Shape=RoundedRectangle|*
%AMROUNDEDRECTD99*
21,1,1.73000,0.62500,0,0,90.0*
21,1,1.02500,1.33000,0,0,90.0*
1,1,0.70500,0.31250,0.51250*
1,1,0.70500,0.31250,-0.51250*
1,1,0.70500,-0.31250,-0.51250*
1,1,0.70500,-0.31250,0.51250*
%
%ADD99ROUNDEDRECTD99*%
G04:AMPARAMS|DCode=100|XSize=1.73mm|YSize=1.33mm|CornerRadius=0.3525mm|HoleSize=0mm|Usage=FLASHONLY|Rotation=180.000|XOffset=0mm|YOffset=0mm|HoleType=Round|Shape=RoundedRectangle|*
%AMROUNDEDRECTD100*
21,1,1.73000,0.62500,0,0,180.0*
21,1,1.02500,1.33000,0,0,180.0*
1,1,0.70500,-0.51250,0.31250*
1,1,0.70500,0.51250,0.31250*
1,1,0.70500,0.51250,-0.31250*
1,1,0.70500,-0.51250,-0.31250*
%
%ADD100ROUNDEDRECTD100*%
%TA.AperFunction,ComponentPad*%
G04:AMPARAMS|DCode=101|XSize=1.48mm|YSize=1.78mm|CornerRadius=0.39mm|HoleSize=0mm|Usage=FLASHONLY|Rotation=270.000|XOffset=0mm|YOffset=0mm|HoleType=Round|Shape=RoundedRectangle|*
%AMROUNDEDRECTD101*
21,1,1.48000,1.00000,0,0,270.0*
21,1,0.70000,1.78000,0,0,270.0*
1,1,0.78000,-0.50000,-0.35000*
1,1,0.78000,-0.50000,0.35000*
1,1,0.78000,0.50000,0.35000*
1,1,0.78000,0.50000,-0.35000*
%
%ADD101ROUNDEDRECTD101*%
G04:AMPARAMS|DCode=102|XSize=1.48mm|YSize=1.78mm|CornerRadius=0mm|HoleSize=0mm|Usage=FLASHONLY|Rotation=270.000|XOffset=0mm|YOffset=0mm|HoleType=Round|Shape=Octagon|*
%AMOCTAGOND102*
4,1,8,0.89000,0.37000,0.89000,-0.37000,0.52000,-0.74000,-0.52000,-0.74000,-0.89000,-0.37000,-0.89000,0.37000,-0.52000,0.74000,0.52000,0.74000,0.89000,0.37000,0.0*
%
%ADD102OCTAGOND102*%

G04:AMPARAMS|DCode=103|XSize=1.63mm|YSize=1.68mm|CornerRadius=0.4275mm|HoleSize=0mm|Usage=FLASHONLY|Rotation=270.000|XOffset=0mm|YOffset=0mm|HoleType=Round|Shape=RoundedRectangle|*
%AMROUNDEDRECTD103*
21,1,1.63000,0.82500,0,0,270.0*
21,1,0.77500,1.68000,0,0,270.0*
1,1,0.85500,-0.41250,-0.38750*
1,1,0.85500,-0.41250,0.38750*
1,1,0.85500,0.41250,0.38750*
1,1,0.85500,0.41250,-0.38750*
%
%ADD103ROUNDEDRECTD103*%
G04:AMPARAMS|DCode=104|XSize=1.78mm|YSize=2.18mm|CornerRadius=0mm|HoleSize=0mm|Usage=FLASHONLY|Rotation=0.000|XOffset=0mm|YOffset=0mm|HoleType=Round|Shape=Octagon|*
%AMOCTAGOND104*
4,1,8,-0.44500,1.09000,0.44500,1.09000,0.89000,0.64500,0.89000,-0.64500,0.44500,-1.09000,-0.44500,-1.09000,-0.89000,-0.64500,-0.89000,0.64500,-0.44500,1.09000,0.0*
%
%ADD104OCTAGOND104*%

G04:AMPARAMS|DCode=105|XSize=1.78mm|YSize=2.18mm|CornerRadius=0.465mm|HoleSize=0mm|Usage=FLASHONLY|Rotation=0.000|XOffset=0mm|YOffset=0mm|HoleType=Round|Shape=RoundedRectangle|*
%AMROUNDEDRECTD105*
21,1,1.78000,1.25001,0,0,0.0*
21,1,0.85000,2.18000,0,0,0.0*
1,1,0.93000,0.42500,-0.62500*
1,1,0.93000,-0.42500,-0.62500*
1,1,0.93000,-0.42500,0.62500*
1,1,0.93000,0.42500,0.62500*
%
%ADD105ROUNDEDRECTD105*%
G04:AMPARAMS|DCode=106|XSize=4.08mm|YSize=3.68mm|CornerRadius=0.58mm|HoleSize=0mm|Usage=FLASHONLY|Rotation=0.000|XOffset=0mm|YOffset=0mm|HoleType=Round|Shape=RoundedRectangle|*
%AMROUNDEDRECTD106*
21,1,4.08000,2.52000,0,0,0.0*
21,1,2.92000,3.68000,0,0,0.0*
1,1,1.16000,1.46000,-1.26000*
1,1,1.16000,-1.46000,-1.26000*
1,1,1.16000,-1.46000,1.26000*
1,1,1.16000,1.46000,1.26000*
%
%ADD106ROUNDEDRECTD106*%
G04:AMPARAMS|DCode=107|XSize=2.28mm|YSize=2.28mm|CornerRadius=0.59mm|HoleSize=0mm|Usage=FLASHONLY|Rotation=270.000|XOffset=0mm|YOffset=0mm|HoleType=Round|Shape=RoundedRectangle|*
%AMROUNDEDRECTD107*
21,1,2.28000,1.10000,0,0,270.0*
21,1,1.10000,2.28000,0,0,270.0*
1,1,1.18000,-0.55000,-0.55000*
1,1,1.18000,-0.55000,0.55000*
1,1,1.18000,0.55000,0.55000*
1,1,1.18000,0.55000,-0.55000*
%
%ADD107ROUNDEDRECTD107*%
G04:AMPARAMS|DCode=108|XSize=2.28mm|YSize=2.28mm|CornerRadius=0mm|HoleSize=0mm|Usage=FLASHONLY|Rotation=270.000|XOffset=0mm|YOffset=0mm|HoleType=Round|Shape=Octagon|*
%AMOCTAGOND108*
4,1,8,-0.57000,-1.14000,0.57000,-1.14000,1.14000,-0.57000,1.14000,0.57000,0.57000,1.14000,-0.57000,1.14000,-1.14000,0.57000,-1.14000,-0.57000,-0.57000,-1.14000,0.0*
%
%ADD108OCTAGOND108*%

%TA.AperFunction,OtherPad,Pad P2-5 (12.8mm,10.3mm)*%
G04:AMPARAMS|DCode=559|XSize=2mm|YSize=1.1mm|CornerRadius=0.275mm|HoleSize=0mm|Usage=FLASHONLY|Rotation=180.000|XOffset=0mm|YOffset=0mm|HoleType=Round|Shape=RoundedRectangle|*
%AMROUNDEDRECTD559*
21,1,2.00000,0.55000,0,0,180.0*
21,1,1.45000,1.10000,0,0,180.0*
1,1,0.55000,-0.72500,0.27500*
1,1,0.55000,0.72500,0.27500*
1,1,0.55000,0.72500,-0.27500*
1,1,0.55000,-0.72500,-0.27500*
%
%ADD559ROUNDEDRECTD559*%
%TA.AperFunction,OtherPad,Pad P2-5 (12.8mm,18.7mm)*%
G04:AMPARAMS|DCode=560|XSize=2mm|YSize=1.1mm|CornerRadius=0.275mm|HoleSize=0mm|Usage=FLASHONLY|Rotation=180.000|XOffset=0mm|YOffset=0mm|HoleType=Round|Shape=RoundedRectangle|*
%AMROUNDEDRECTD560*
21,1,2.00000,0.55000,0,0,180.0*
21,1,1.45000,1.10000,0,0,180.0*
1,1,0.55000,-0.72500,0.27500*
1,1,0.55000,0.72500,0.27500*
1,1,0.55000,0.72500,-0.27500*
1,1,0.55000,-0.72500,-0.27500*
%
%ADD560ROUNDEDRECTD560*%
%TA.AperFunction,SMDPad,CuDef*%
G04:AMPARAMS|DCode=561|XSize=0.41mm|YSize=1.21mm|CornerRadius=0.1175mm|HoleSize=0mm|Usage=FLASHONLY|Rotation=90.000|XOffset=0mm|YOffset=0mm|HoleType=Round|Shape=RoundedRectangle|*
%AMROUNDEDRECTD561*
21,1,0.41000,0.97500,0,0,90.0*
21,1,0.17500,1.21000,0,0,90.0*
1,1,0.23500,0.48750,0.08750*
1,1,0.23500,0.48750,-0.08750*
1,1,0.23500,-0.48750,-0.08750*
1,1,0.23500,-0.48750,0.08750*
%
%ADD561ROUNDEDRECTD561*%
%ADD562R,1.21000X0.41000*%
%ADD563R,0.66000X0.30000*%
G04:AMPARAMS|DCode=564|XSize=0.3mm|YSize=0.66mm|CornerRadius=0.095mm|HoleSize=0mm|Usage=FLASHONLY|Rotation=90.000|XOffset=0mm|YOffset=0mm|HoleType=Round|Shape=RoundedRectangle|*
%AMROUNDEDRECTD564*
21,1,0.30000,0.47000,0,0,90.0*
21,1,0.11000,0.66000,0,0,90.0*
1,1,0.19000,0.23500,0.05500*
1,1,0.19000,0.23500,-0.05500*
1,1,0.19000,-0.23500,-0.05500*
1,1,0.19000,-0.23500,0.05500*
%
%ADD564ROUNDEDRECTD564*%
%ADD565R,1.26000X0.41000*%
G04:AMPARAMS|DCode=566|XSize=0.41mm|YSize=1.26mm|CornerRadius=0.1175mm|HoleSize=0mm|Usage=FLASHONLY|Rotation=270.000|XOffset=0mm|YOffset=0mm|HoleType=Round|Shape=RoundedRectangle|*
%AMROUNDEDRECTD566*
21,1,0.41000,1.02500,0,0,270.0*
21,1,0.17500,1.26000,0,0,270.0*
1,1,0.23500,-0.51250,-0.08750*
1,1,0.23500,-0.51250,0.08750*
1,1,0.23500,0.51250,0.08750*
1,1,0.23500,0.51250,-0.08750*
%
%ADD566ROUNDEDRECTD566*%
G04:AMPARAMS|DCode=567|XSize=0.41mm|YSize=0.78mm|CornerRadius=0.1225mm|HoleSize=0mm|Usage=FLASHONLY|Rotation=270.000|XOffset=0mm|YOffset=0mm|HoleType=Round|Shape=RoundedRectangle|*
%AMROUNDEDRECTD567*
21,1,0.41000,0.53500,0,0,270.0*
21,1,0.16500,0.78000,0,0,270.0*
1,1,0.24500,-0.26750,-0.08250*
1,1,0.24500,-0.26750,0.08250*
1,1,0.24500,0.26750,0.08250*
1,1,0.24500,0.26750,-0.08250*
%
%ADD567ROUNDEDRECTD567*%
%ADD568R,0.78000X0.41000*%
G04:AMPARAMS|DCode=569|XSize=0.68mm|YSize=0.68mm|CornerRadius=0.19mm|HoleSize=0mm|Usage=FLASHONLY|Rotation=90.000|XOffset=0mm|YOffset=0mm|HoleType=Round|Shape=RoundedRectangle|*
%AMROUNDEDRECTD569*
21,1,0.68000,0.30000,0,0,90.0*
21,1,0.30000,0.68000,0,0,90.0*
1,1,0.38000,0.15000,0.15000*
1,1,0.38000,0.15000,-0.15000*
1,1,0.38000,-0.15000,-0.15000*
1,1,0.38000,-0.15000,0.15000*
%
%ADD569ROUNDEDRECTD569*%
G04:AMPARAMS|DCode=570|XSize=0.6mm|YSize=0.28mm|CornerRadius=0mm|HoleSize=0mm|Usage=FLASHONLY|Rotation=135.000|XOffset=0mm|YOffset=0mm|HoleType=Round|Shape=Round|*
%AMOVALD570*
21,1,0.32000,0.28000,0.00000,0.00000,135.0*
1,1,0.28000,0.11314,-0.11314*
1,1,0.28000,-0.11314,0.11314*
%
%ADD570OVALD570*%

%ADD571O,0.28000X0.51000*%
G04:AMPARAMS|DCode=572|XSize=0.6mm|YSize=0.28mm|CornerRadius=0mm|HoleSize=0mm|Usage=FLASHONLY|Rotation=45.000|XOffset=0mm|YOffset=0mm|HoleType=Round|Shape=Round|*
%AMOVALD572*
21,1,0.32000,0.28000,0.00000,0.00000,45.0*
1,1,0.28000,-0.11314,-0.11314*
1,1,0.28000,0.11314,0.11314*
%
%ADD572OVALD572*%

%ADD573O,0.51000X0.28000*%
%ADD574R,0.88000X0.88000*%
G04:AMPARAMS|DCode=575|XSize=0.88mm|YSize=0.88mm|CornerRadius=0.24mm|HoleSize=0mm|Usage=FLASHONLY|Rotation=90.000|XOffset=0mm|YOffset=0mm|HoleType=Round|Shape=RoundedRectangle|*
%AMROUNDEDRECTD575*
21,1,0.88000,0.40000,0,0,90.0*
21,1,0.40000,0.88000,0,0,90.0*
1,1,0.48000,0.20000,0.20000*
1,1,0.48000,0.20000,-0.20000*
1,1,0.48000,-0.20000,-0.20000*
1,1,0.48000,-0.20000,0.20000*
%
%ADD575ROUNDEDRECTD575*%
G04:AMPARAMS|DCode=576|XSize=0.68mm|YSize=0.68mm|CornerRadius=0.19mm|HoleSize=0mm|Usage=FLASHONLY|Rotation=0.000|XOffset=0mm|YOffset=0mm|HoleType=Round|Shape=RoundedRectangle|*
%AMROUNDEDRECTD576*
21,1,0.68000,0.30000,0,0,0.0*
21,1,0.30000,0.68000,0,0,0.0*
1,1,0.38000,0.15000,-0.15000*
1,1,0.38000,-0.15000,-0.15000*
1,1,0.38000,-0.15000,0.15000*
1,1,0.38000,0.15000,0.15000*
%
%ADD576ROUNDEDRECTD576*%
G04:AMPARAMS|DCode=577|XSize=1.68mm|YSize=1.08mm|CornerRadius=0.29mm|HoleSize=0mm|Usage=FLASHONLY|Rotation=270.000|XOffset=0mm|YOffset=0mm|HoleType=Round|Shape=RoundedRectangle|*
%AMROUNDEDRECTD577*
21,1,1.68000,0.50000,0,0,270.0*
21,1,1.10000,1.08000,0,0,270.0*
1,1,0.58000,-0.25000,-0.55000*
1,1,0.58000,-0.25000,0.55000*
1,1,0.58000,0.25000,0.55000*
1,1,0.58000,0.25000,-0.55000*
%
%ADD577ROUNDEDRECTD577*%
%TA.AperFunction,SMDPad,SMDef*%
G04:AMPARAMS|DCode=578|XSize=3.6mm|YSize=0.8mm|CornerRadius=0.15mm|HoleSize=0mm|Usage=FLASHONLY|Rotation=180.000|XOffset=0mm|YOffset=0mm|HoleType=Round|Shape=RoundedRectangle|*
%AMROUNDEDRECTD578*
21,1,3.60000,0.50000,0,0,180.0*
21,1,3.30000,0.80000,0,0,180.0*
1,1,0.30000,-1.65000,0.25000*
1,1,0.30000,1.65000,0.25000*
1,1,0.30000,1.65000,-0.25000*
1,1,0.30000,-1.65000,-0.25000*
%
%ADD578ROUNDEDRECTD578*%
%TA.AperFunction,SMDPad,CuDef*%
G04:AMPARAMS|DCode=579|XSize=3.08mm|YSize=1.08mm|CornerRadius=0.29mm|HoleSize=0mm|Usage=FLASHONLY|Rotation=180.000|XOffset=0mm|YOffset=0mm|HoleType=Round|Shape=RoundedRectangle|*
%AMROUNDEDRECTD579*
21,1,3.08000,0.50000,0,0,180.0*
21,1,2.50000,1.08000,0,0,180.0*
1,1,0.58000,-1.25000,0.25000*
1,1,0.58000,1.25000,0.25000*
1,1,0.58000,1.25000,-0.25000*
1,1,0.58000,-1.25000,-0.25000*
%
%ADD579ROUNDEDRECTD579*%
G04:AMPARAMS|DCode=580|XSize=1.68mm|YSize=1.08mm|CornerRadius=0.29mm|HoleSize=0mm|Usage=FLASHONLY|Rotation=0.000|XOffset=0mm|YOffset=0mm|HoleType=Round|Shape=RoundedRectangle|*
%AMROUNDEDRECTD580*
21,1,1.68000,0.50000,0,0,0.0*
21,1,1.10000,1.08000,0,0,0.0*
1,1,0.58000,0.55000,-0.25000*
1,1,0.58000,-0.55000,-0.25000*
1,1,0.58000,-0.55000,0.25000*
1,1,0.58000,0.55000,0.25000*
%
%ADD580ROUNDEDRECTD580*%
%TA.AperFunction,SMDPad,SMDef*%
G04:AMPARAMS|DCode=581|XSize=3.6mm|YSize=0.8mm|CornerRadius=0.15mm|HoleSize=0mm|Usage=FLASHONLY|Rotation=270.000|XOffset=0mm|YOffset=0mm|HoleType=Round|Shape=RoundedRectangle|*
%AMROUNDEDRECTD581*
21,1,3.60000,0.50000,0,0,270.0*
21,1,3.30000,0.80000,0,0,270.0*
1,1,0.30000,-0.25000,-1.65000*
1,1,0.30000,-0.25000,1.65000*
1,1,0.30000,0.25000,1.65000*
1,1,0.30000,0.25000,-1.65000*
%
%ADD581ROUNDEDRECTD581*%
%TA.AperFunction,SMDPad,CuDef*%
G04:AMPARAMS|DCode=582|XSize=3.08mm|YSize=1.08mm|CornerRadius=0.29mm|HoleSize=0mm|Usage=FLASHONLY|Rotation=270.000|XOffset=0mm|YOffset=0mm|HoleType=Round|Shape=RoundedRectangle|*
%AMROUNDEDRECTD582*
21,1,3.08000,0.50000,0,0,270.0*
21,1,2.50000,1.08000,0,0,270.0*
1,1,0.58000,-0.25000,-1.25000*
1,1,0.58000,-0.25000,1.25000*
1,1,0.58000,0.25000,1.25000*
1,1,0.58000,0.25000,-1.25000*
%
%ADD582ROUNDEDRECTD582*%
%TA.AperFunction,SMDPad,SMDef*%
G04:AMPARAMS|DCode=583|XSize=3.596mm|YSize=0.796mm|CornerRadius=0.148mm|HoleSize=0mm|Usage=FLASHONLY|Rotation=0.000|XOffset=0mm|YOffset=0mm|HoleType=Round|Shape=RoundedRectangle|*
%AMROUNDEDRECTD583*
21,1,3.59600,0.50000,0,0,0.0*
21,1,3.30000,0.79600,0,0,0.0*
1,1,0.29600,1.65000,-0.25000*
1,1,0.29600,-1.65000,-0.25000*
1,1,0.29600,-1.65000,0.25000*
1,1,0.29600,1.65000,0.25000*
%
%ADD583ROUNDEDRECTD583*%
%TA.AperFunction,SMDPad,CuDef*%
G04:AMPARAMS|DCode=584|XSize=0.88mm|YSize=0.88mm|CornerRadius=0.24mm|HoleSize=0mm|Usage=FLASHONLY|Rotation=180.000|XOffset=0mm|YOffset=0mm|HoleType=Round|Shape=RoundedRectangle|*
%AMROUNDEDRECTD584*
21,1,0.88000,0.40000,0,0,180.0*
21,1,0.40000,0.88000,0,0,180.0*
1,1,0.48000,-0.20000,0.20000*
1,1,0.48000,0.20000,0.20000*
1,1,0.48000,0.20000,-0.20000*
1,1,0.48000,-0.20000,-0.20000*
%
%ADD584ROUNDEDRECTD584*%
%ADD585O,0.68000X0.88000*%
%ADD586R,1.00000X0.54000*%
%ADD587O,0.38000X1.78000*%
G04:AMPARAMS|DCode=588|XSize=0.41mm|YSize=1.21mm|CornerRadius=0.1175mm|HoleSize=0mm|Usage=FLASHONLY|Rotation=0.000|XOffset=0mm|YOffset=0mm|HoleType=Round|Shape=RoundedRectangle|*
%AMROUNDEDRECTD588*
21,1,0.41000,0.97500,0,0,0.0*
21,1,0.17500,1.21000,0,0,0.0*
1,1,0.23500,0.08750,-0.48750*
1,1,0.23500,-0.08750,-0.48750*
1,1,0.23500,-0.08750,0.48750*
1,1,0.23500,0.08750,0.48750*
%
%ADD588ROUNDEDRECTD588*%
%ADD589R,0.41000X1.21000*%
G04:AMPARAMS|DCode=590|XSize=0.63mm|YSize=0.88mm|CornerRadius=0.1775mm|HoleSize=0mm|Usage=FLASHONLY|Rotation=0.000|XOffset=0mm|YOffset=0mm|HoleType=Round|Shape=RoundedRectangle|*
%AMROUNDEDRECTD590*
21,1,0.63000,0.52500,0,0,0.0*
21,1,0.27500,0.88000,0,0,0.0*
1,1,0.35500,0.13750,-0.26250*
1,1,0.35500,-0.13750,-0.26250*
1,1,0.35500,-0.13750,0.26250*
1,1,0.35500,0.13750,0.26250*
%
%ADD590ROUNDEDRECTD590*%
%ADD591R,0.29000X0.91000*%
G04:AMPARAMS|DCode=592|XSize=0.29mm|YSize=0.91mm|CornerRadius=0.0875mm|HoleSize=0mm|Usage=FLASHONLY|Rotation=0.000|XOffset=0mm|YOffset=0mm|HoleType=Round|Shape=RoundedRectangle|*
%AMROUNDEDRECTD592*
21,1,0.29000,0.73500,0,0,0.0*
21,1,0.11500,0.91000,0,0,0.0*
1,1,0.17500,0.05750,-0.36750*
1,1,0.17500,-0.05750,-0.36750*
1,1,0.17500,-0.05750,0.36750*
1,1,0.17500,0.05750,0.36750*
%
%ADD592ROUNDEDRECTD592*%
G04:AMPARAMS|DCode=593|XSize=2.61mm|YSize=1.16mm|CornerRadius=0.305mm|HoleSize=0mm|Usage=FLASHONLY|Rotation=0.000|XOffset=0mm|YOffset=0mm|HoleType=Round|Shape=RoundedRectangle|*
%AMROUNDEDRECTD593*
21,1,2.61000,0.55000,0,0,0.0*
21,1,2.00000,1.16000,0,0,0.0*
1,1,0.61000,1.00000,-0.27500*
1,1,0.61000,-1.00000,-0.27500*
1,1,0.61000,-1.00000,0.27500*
1,1,0.61000,1.00000,0.27500*
%
%ADD593ROUNDEDRECTD593*%
G04:AMPARAMS|DCode=594|XSize=2.88mm|YSize=1.38mm|CornerRadius=0.365mm|HoleSize=0mm|Usage=FLASHONLY|Rotation=180.000|XOffset=0mm|YOffset=0mm|HoleType=Round|Shape=RoundedRectangle|*
%AMROUNDEDRECTD594*
21,1,2.88000,0.65000,0,0,180.0*
21,1,2.15000,1.38000,0,0,180.0*
1,1,0.73000,-1.07500,0.32500*
1,1,0.73000,1.07500,0.32500*
1,1,0.73000,1.07500,-0.32500*
1,1,0.73000,-1.07500,-0.32500*
%
%ADD594ROUNDEDRECTD594*%
G04:AMPARAMS|DCode=595|XSize=0.63mm|YSize=0.88mm|CornerRadius=0.1775mm|HoleSize=0mm|Usage=FLASHONLY|Rotation=90.000|XOffset=0mm|YOffset=0mm|HoleType=Round|Shape=RoundedRectangle|*
%AMROUNDEDRECTD595*
21,1,0.63000,0.52500,0,0,90.0*
21,1,0.27500,0.88000,0,0,90.0*
1,1,0.35500,0.26250,0.13750*
1,1,0.35500,0.26250,-0.13750*
1,1,0.35500,-0.26250,-0.13750*
1,1,0.35500,-0.26250,0.13750*
%
%ADD595ROUNDEDRECTD595*%
G04:AMPARAMS|DCode=596|XSize=2.28mm|YSize=0.58mm|CornerRadius=0.165mm|HoleSize=0mm|Usage=FLASHONLY|Rotation=0.000|XOffset=0mm|YOffset=0mm|HoleType=Round|Shape=RoundedRectangle|*
%AMROUNDEDRECTD596*
21,1,2.28000,0.25000,0,0,0.0*
21,1,1.95000,0.58000,0,0,0.0*
1,1,0.33000,0.97500,-0.12500*
1,1,0.33000,-0.97500,-0.12500*
1,1,0.33000,-0.97500,0.12500*
1,1,0.33000,0.97500,0.12500*
%
%ADD596ROUNDEDRECTD596*%
G04:AMPARAMS|DCode=597|XSize=0.28mm|YSize=0.73mm|CornerRadius=0.09mm|HoleSize=0mm|Usage=FLASHONLY|Rotation=270.000|XOffset=0mm|YOffset=0mm|HoleType=Round|Shape=RoundedRectangle|*
%AMROUNDEDRECTD597*
21,1,0.28000,0.55000,0,0,270.0*
21,1,0.10000,0.73000,0,0,270.0*
1,1,0.18000,-0.27500,-0.05000*
1,1,0.18000,-0.27500,0.05000*
1,1,0.18000,0.27500,0.05000*
1,1,0.18000,0.27500,-0.05000*
%
%ADD597ROUNDEDRECTD597*%
G04:AMPARAMS|DCode=598|XSize=0.28mm|YSize=1.08mm|CornerRadius=0.09mm|HoleSize=0mm|Usage=FLASHONLY|Rotation=270.000|XOffset=0mm|YOffset=0mm|HoleType=Round|Shape=RoundedRectangle|*
%AMROUNDEDRECTD598*
21,1,0.28000,0.90000,0,0,270.0*
21,1,0.10000,1.08000,0,0,270.0*
1,1,0.18000,-0.45000,-0.05000*
1,1,0.18000,-0.45000,0.05000*
1,1,0.18000,0.45000,0.05000*
1,1,0.18000,0.45000,-0.05000*
%
%ADD598ROUNDEDRECTD598*%
G04:AMPARAMS|DCode=599|XSize=0.3mm|YSize=0.63mm|CornerRadius=0.095mm|HoleSize=0mm|Usage=FLASHONLY|Rotation=180.000|XOffset=0mm|YOffset=0mm|HoleType=Round|Shape=RoundedRectangle|*
%AMROUNDEDRECTD599*
21,1,0.30000,0.44000,0,0,180.0*
21,1,0.11000,0.63000,0,0,180.0*
1,1,0.19000,-0.05500,0.22000*
1,1,0.19000,0.05500,0.22000*
1,1,0.19000,0.05500,-0.22000*
1,1,0.19000,-0.05500,-0.22000*
%
%ADD599ROUNDEDRECTD599*%
G04:AMPARAMS|DCode=600|XSize=2.28mm|YSize=0.78mm|CornerRadius=0.215mm|HoleSize=0mm|Usage=FLASHONLY|Rotation=180.000|XOffset=0mm|YOffset=0mm|HoleType=Round|Shape=RoundedRectangle|*
%AMROUNDEDRECTD600*
21,1,2.28000,0.35000,0,0,180.0*
21,1,1.85000,0.78000,0,0,180.0*
1,1,0.43000,-0.92500,0.17500*
1,1,0.43000,0.92500,0.17500*
1,1,0.43000,0.92500,-0.17500*
1,1,0.43000,-0.92500,-0.17500*
%
%ADD600ROUNDEDRECTD600*%
G04:AMPARAMS|DCode=601|XSize=0.98mm|YSize=0.88mm|CornerRadius=0.24mm|HoleSize=0mm|Usage=FLASHONLY|Rotation=180.000|XOffset=0mm|YOffset=0mm|HoleType=Round|Shape=RoundedRectangle|*
%AMROUNDEDRECTD601*
21,1,0.98000,0.40000,0,0,180.0*
21,1,0.50000,0.88000,0,0,180.0*
1,1,0.48000,-0.25000,0.20000*
1,1,0.48000,0.25000,0.20000*
1,1,0.48000,0.25000,-0.20000*
1,1,0.48000,-0.25000,-0.20000*
%
%ADD601ROUNDEDRECTD601*%
G04:AMPARAMS|DCode=602|XSize=3.68mm|YSize=2.08mm|CornerRadius=0.54mm|HoleSize=0mm|Usage=FLASHONLY|Rotation=180.000|XOffset=0mm|YOffset=0mm|HoleType=Round|Shape=RoundedRectangle|*
%AMROUNDEDRECTD602*
21,1,3.68000,1.00000,0,0,180.0*
21,1,2.60000,2.08000,0,0,180.0*
1,1,1.08000,-1.30000,0.50000*
1,1,1.08000,1.30000,0.50000*
1,1,1.08000,1.30000,-0.50000*
1,1,1.08000,-1.30000,-0.50000*
%
%ADD602ROUNDEDRECTD602*%
G04:AMPARAMS|DCode=603|XSize=2.88mm|YSize=1.38mm|CornerRadius=0.365mm|HoleSize=0mm|Usage=FLASHONLY|Rotation=90.000|XOffset=0mm|YOffset=0mm|HoleType=Round|Shape=RoundedRectangle|*
%AMROUNDEDRECTD603*
21,1,2.88000,0.65000,0,0,90.0*
21,1,2.15000,1.38000,0,0,90.0*
1,1,0.73000,0.32500,1.07500*
1,1,0.73000,0.32500,-1.07500*
1,1,0.73000,-0.32500,-1.07500*
1,1,0.73000,-0.32500,1.07500*
%
%ADD603ROUNDEDRECTD603*%
G04:AMPARAMS|DCode=604|XSize=0.29mm|YSize=0.73mm|CornerRadius=0.0875mm|HoleSize=0mm|Usage=FLASHONLY|Rotation=90.000|XOffset=0mm|YOffset=0mm|HoleType=Round|Shape=RoundedRectangle|*
%AMROUNDEDRECTD604*
21,1,0.29000,0.55500,0,0,90.0*
21,1,0.11500,0.73000,0,0,90.0*
1,1,0.17500,0.27750,0.05750*
1,1,0.17500,0.27750,-0.05750*
1,1,0.17500,-0.27750,-0.05750*
1,1,0.17500,-0.27750,0.05750*
%
%ADD604ROUNDEDRECTD604*%
G04:AMPARAMS|DCode=605|XSize=0.29mm|YSize=0.73mm|CornerRadius=0.0875mm|HoleSize=0mm|Usage=FLASHONLY|Rotation=0.000|XOffset=0mm|YOffset=0mm|HoleType=Round|Shape=RoundedRectangle|*
%AMROUNDEDRECTD605*
21,1,0.29000,0.55500,0,0,0.0*
21,1,0.11500,0.73000,0,0,0.0*
1,1,0.17500,0.05750,-0.27750*
1,1,0.17500,-0.05750,-0.27750*
1,1,0.17500,-0.05750,0.27750*
1,1,0.17500,0.05750,0.27750*
%
%ADD605ROUNDEDRECTD605*%
G04:AMPARAMS|DCode=606|XSize=1.06mm|YSize=1.56mm|CornerRadius=0.28mm|HoleSize=0mm|Usage=FLASHONLY|Rotation=0.000|XOffset=0mm|YOffset=0mm|HoleType=Round|Shape=RoundedRectangle|*
%AMROUNDEDRECTD606*
21,1,1.06000,1.00000,0,0,0.0*
21,1,0.50000,1.56000,0,0,0.0*
1,1,0.56000,0.25000,-0.50000*
1,1,0.56000,-0.25000,-0.50000*
1,1,0.56000,-0.25000,0.50000*
1,1,0.56000,0.25000,0.50000*
%
%ADD606ROUNDEDRECTD606*%
G04:AMPARAMS|DCode=607|XSize=0.29mm|YSize=0.76mm|CornerRadius=0.0875mm|HoleSize=0mm|Usage=FLASHONLY|Rotation=90.000|XOffset=0mm|YOffset=0mm|HoleType=Round|Shape=RoundedRectangle|*
%AMROUNDEDRECTD607*
21,1,0.29000,0.58500,0,0,90.0*
21,1,0.11500,0.76000,0,0,90.0*
1,1,0.17500,0.29250,0.05750*
1,1,0.17500,0.29250,-0.05750*
1,1,0.17500,-0.29250,-0.05750*
1,1,0.17500,-0.29250,0.05750*
%
%ADD607ROUNDEDRECTD607*%
G04:AMPARAMS|DCode=608|XSize=2.56mm|YSize=1.71mm|CornerRadius=0.195mm|HoleSize=0mm|Usage=FLASHONLY|Rotation=90.000|XOffset=0mm|YOffset=0mm|HoleType=Round|Shape=RoundedRectangle|*
%AMROUNDEDRECTD608*
21,1,2.56000,1.32000,0,0,90.0*
21,1,2.17000,1.71000,0,0,90.0*
1,1,0.39000,0.66000,1.08500*
1,1,0.39000,0.66000,-1.08500*
1,1,0.39000,-0.66000,-1.08500*
1,1,0.39000,-0.66000,1.08500*
%
%ADD608ROUNDEDRECTD608*%
%ADD609R,0.76000X0.29000*%
G04:AMPARAMS|DCode=610|XSize=0.63mm|YSize=0.98mm|CornerRadius=0.1775mm|HoleSize=0mm|Usage=FLASHONLY|Rotation=270.000|XOffset=0mm|YOffset=0mm|HoleType=Round|Shape=RoundedRectangle|*
%AMROUNDEDRECTD610*
21,1,0.63000,0.62500,0,0,270.0*
21,1,0.27500,0.98000,0,0,270.0*
1,1,0.35500,-0.31250,-0.13750*
1,1,0.35500,-0.31250,0.13750*
1,1,0.35500,0.31250,0.13750*
1,1,0.35500,0.31250,-0.13750*
%
%ADD610ROUNDEDRECTD610*%
%ADD611R,0.98000X0.63000*%
G04:AMPARAMS|DCode=612|XSize=1.46mm|YSize=1.36mm|CornerRadius=0.355mm|HoleSize=0mm|Usage=FLASHONLY|Rotation=90.000|XOffset=0mm|YOffset=0mm|HoleType=Round|Shape=RoundedRectangle|*
%AMROUNDEDRECTD612*
21,1,1.46000,0.65000,0,0,90.0*
21,1,0.75000,1.36000,0,0,90.0*
1,1,0.71000,0.32500,0.37500*
1,1,0.71000,0.32500,-0.37500*
1,1,0.71000,-0.32500,-0.37500*
1,1,0.71000,-0.32500,0.37500*
%
%ADD612ROUNDEDRECTD612*%
%ADD613R,0.75000X0.30000*%
G04:AMPARAMS|DCode=614|XSize=0.3mm|YSize=0.75mm|CornerRadius=0.0875mm|HoleSize=0mm|Usage=FLASHONLY|Rotation=90.000|XOffset=0mm|YOffset=0mm|HoleType=Round|Shape=RoundedRectangle|*
%AMROUNDEDRECTD614*
21,1,0.30000,0.57500,0,0,90.0*
21,1,0.12500,0.75000,0,0,90.0*
1,1,0.17500,0.28750,0.06250*
1,1,0.17500,0.28750,-0.06250*
1,1,0.17500,-0.28750,-0.06250*
1,1,0.17500,-0.28750,0.06250*
%
%ADD614ROUNDEDRECTD614*%
G04:AMPARAMS|DCode=615|XSize=0.68mm|YSize=0.78mm|CornerRadius=0.19mm|HoleSize=0mm|Usage=FLASHONLY|Rotation=180.000|XOffset=0mm|YOffset=0mm|HoleType=Round|Shape=RoundedRectangle|*
%AMROUNDEDRECTD615*
21,1,0.68000,0.40000,0,0,180.0*
21,1,0.30000,0.78000,0,0,180.0*
1,1,0.38000,-0.15000,0.20000*
1,1,0.38000,0.15000,0.20000*
1,1,0.38000,0.15000,-0.20000*
1,1,0.38000,-0.15000,-0.20000*
%
%ADD615ROUNDEDRECTD615*%
G04:AMPARAMS|DCode=616|XSize=0.68mm|YSize=0.78mm|CornerRadius=0.19mm|HoleSize=0mm|Usage=FLASHONLY|Rotation=90.000|XOffset=0mm|YOffset=0mm|HoleType=Round|Shape=RoundedRectangle|*
%AMROUNDEDRECTD616*
21,1,0.68000,0.40000,0,0,90.0*
21,1,0.30000,0.78000,0,0,90.0*
1,1,0.38000,0.20000,0.15000*
1,1,0.38000,0.20000,-0.15000*
1,1,0.38000,-0.20000,-0.15000*
1,1,0.38000,-0.20000,0.15000*
%
%ADD616ROUNDEDRECTD616*%
%ADD617R,0.78000X0.58000*%
G04:AMPARAMS|DCode=618|XSize=0.58mm|YSize=0.78mm|CornerRadius=0.165mm|HoleSize=0mm|Usage=FLASHONLY|Rotation=90.000|XOffset=0mm|YOffset=0mm|HoleType=Round|Shape=RoundedRectangle|*
%AMROUNDEDRECTD618*
21,1,0.58000,0.45000,0,0,90.0*
21,1,0.25000,0.78000,0,0,90.0*
1,1,0.33000,0.22500,0.12500*
1,1,0.33000,0.22500,-0.12500*
1,1,0.33000,-0.22500,-0.12500*
1,1,0.33000,-0.22500,0.12500*
%
%ADD618ROUNDEDRECTD618*%
G36*
X5995784Y4098942D02*
X5996538Y4098713D01*
X5997233Y4098342D01*
X5997842Y4097842D01*
X5998342Y4097233D01*
X5998713Y4096538D01*
X5998942Y4095784D01*
X5999019Y4095000D01*
Y3925000D01*
X5998942Y3924216D01*
X5998713Y3923462D01*
X5998342Y3922767D01*
X5997842Y3922158D01*
X5997233Y3921658D01*
X5996538Y3921287D01*
X5995784Y3921058D01*
X5995000Y3920981D01*
X5920000D01*
X5919216Y3921058D01*
X5918462Y3921287D01*
X5917767Y3921658D01*
X5917158Y3922158D01*
X5916658Y3922767D01*
X5916287Y3923462D01*
X5916058Y3924216D01*
X5915981Y3925000D01*
Y3982511D01*
X5916058Y3983295D01*
X5916287Y3984049D01*
X5916658Y3984744D01*
X5917158Y3985353D01*
X5917767Y3985853D01*
X5918462Y3986224D01*
X5919216Y3986453D01*
X5920000Y3986531D01*
X5975994D01*
Y4033527D01*
X5920000D01*
X5919216Y4033604D01*
X5918462Y4033833D01*
X5917767Y4034204D01*
X5917158Y4034704D01*
X5916658Y4035313D01*
X5916287Y4036008D01*
X5916058Y4036762D01*
X5915981Y4037546D01*
Y4095000D01*
X5916058Y4095784D01*
X5916287Y4096538D01*
X5916658Y4097233D01*
X5917158Y4097842D01*
X5917767Y4098342D01*
X5918462Y4098713D01*
X5919216Y4098942D01*
X5920000Y4099019D01*
X5995000D01*
X5995784Y4098942D01*
D02*
G37*
G36*
X5700784D02*
X5701539Y4098713D01*
X5702233Y4098342D01*
X5702842Y4097842D01*
X5703342Y4097233D01*
X5703714Y4096538D01*
X5703942Y4095784D01*
X5704020Y4095000D01*
X5704019Y4037505D01*
X5703942Y4036721D01*
X5703713Y4035967D01*
X5703342Y4035272D01*
X5702842Y4034663D01*
X5702233Y4034163D01*
X5701538Y4033792D01*
X5700784Y4033563D01*
X5700000Y4033486D01*
X5644014Y4033485D01*
X5644014Y3986522D01*
X5700000Y3986522D01*
X5700784Y3986445D01*
X5701538Y3986216D01*
X5702233Y3985845D01*
X5702842Y3985345D01*
X5703342Y3984736D01*
X5703713Y3984041D01*
X5703942Y3983287D01*
X5704019Y3982503D01*
X5704020Y3925000D01*
X5703942Y3924216D01*
X5703714Y3923462D01*
X5703342Y3922767D01*
X5702842Y3922158D01*
X5702233Y3921658D01*
X5701539Y3921287D01*
X5700784Y3921058D01*
X5700000Y3920981D01*
X5625000D01*
X5624216Y3921058D01*
X5623462Y3921287D01*
X5622768Y3921658D01*
X5622158Y3922158D01*
X5621659Y3922767D01*
X5621287Y3923462D01*
X5621058Y3924216D01*
X5620981Y3925000D01*
Y4095000D01*
X5621058Y4095784D01*
X5621287Y4096538D01*
X5621659Y4097233D01*
X5622158Y4097842D01*
X5622768Y4098342D01*
X5623462Y4098713D01*
X5624216Y4098942D01*
X5625000Y4099019D01*
X5700000D01*
X5700784Y4098942D01*
D02*
G37*
G36*
X5280000Y1920000D02*
X4480000D01*
X4480000Y2420000D01*
X5280000Y2420000D01*
X5280000Y1920000D01*
D02*
G37*
D99*
X3080000Y2430000D02*
D03*
X2800000D02*
D03*
X3080000Y2200000D02*
D03*
X2800000D02*
D03*
X2330000Y1700000D02*
D03*
X2610000D02*
D03*
X2330000Y1930000D02*
D03*
X2610000D02*
D03*
X3240000Y3630000D02*
D03*
X3520000D02*
D03*
X3260000Y4360000D02*
D03*
X3540000D02*
D03*
D100*
X4330000Y2140000D02*
D03*
Y2420000D02*
D03*
X3730000Y4110000D02*
D03*
Y4390000D02*
D03*
X3950000Y3890000D02*
D03*
Y3610000D02*
D03*
X3730000Y3890000D02*
D03*
Y3610000D02*
D03*
X3950000Y4110000D02*
D03*
Y4390000D02*
D03*
X3410000Y2090000D02*
D03*
Y2370000D02*
D03*
X3310000Y2950000D02*
D03*
Y3230000D02*
D03*
D101*
X3920000Y2548000D02*
D03*
Y2748000D02*
D03*
Y2948000D02*
D03*
Y3148000D02*
D03*
Y3348000D02*
D03*
X3680000Y2548000D02*
D03*
Y2748000D02*
D03*
Y2948000D02*
D03*
Y3148000D02*
D03*
D102*
Y3348000D02*
D03*
D103*
X8263000Y455000D02*
D03*
X8113000Y2275000D02*
D03*
Y5005000D02*
D03*
X8263000Y3185000D02*
D03*
D104*
X2032000Y170500D02*
D03*
Y4996500D02*
D03*
D105*
X2286000Y170500D02*
D03*
X2540000D02*
D03*
X2794000D02*
D03*
X3048000D02*
D03*
X3302000D02*
D03*
X3556000D02*
D03*
X3810000D02*
D03*
X4064000D02*
D03*
X4318000D02*
D03*
X4572000D02*
D03*
X4826000D02*
D03*
X5080000D02*
D03*
X5334000D02*
D03*
X5588000D02*
D03*
X5842000D02*
D03*
X6096000D02*
D03*
X6350000D02*
D03*
X6604000D02*
D03*
X6858000D02*
D03*
X7112000D02*
D03*
X7366000D02*
D03*
X7620000D02*
D03*
X2032000Y464500D02*
D03*
X2286000D02*
D03*
X2540000D02*
D03*
X2794000D02*
D03*
X3048000D02*
D03*
X3302000D02*
D03*
X3556000D02*
D03*
X3810000D02*
D03*
X4064000D02*
D03*
X4318000D02*
D03*
X4572000D02*
D03*
X4826000D02*
D03*
X5080000D02*
D03*
X5334000D02*
D03*
X5588000D02*
D03*
X5842000D02*
D03*
X6096000D02*
D03*
X6350000D02*
D03*
X6604000D02*
D03*
X6858000D02*
D03*
X7112000D02*
D03*
X7366000D02*
D03*
X7620000D02*
D03*
X2286000Y4996500D02*
D03*
X2540000D02*
D03*
X2794000D02*
D03*
X3048000D02*
D03*
X3302000D02*
D03*
X3556000D02*
D03*
X3810000D02*
D03*
X4064000D02*
D03*
X4318000D02*
D03*
X4572000D02*
D03*
X4826000D02*
D03*
X5080000D02*
D03*
X5334000D02*
D03*
X5588000D02*
D03*
X5842000D02*
D03*
X6096000D02*
D03*
X6350000D02*
D03*
X6604000D02*
D03*
X6858000D02*
D03*
X7112000D02*
D03*
X7366000D02*
D03*
X7620000D02*
D03*
X2032000Y5290500D02*
D03*
X2286000D02*
D03*
X2540000D02*
D03*
X2794000D02*
D03*
X3048000D02*
D03*
X3302000D02*
D03*
X3556000D02*
D03*
X3810000D02*
D03*
X4064000D02*
D03*
X4318000D02*
D03*
X4572000D02*
D03*
X4826000D02*
D03*
X5080000D02*
D03*
X5334000D02*
D03*
X5588000D02*
D03*
X5842000D02*
D03*
X6096000D02*
D03*
X6350000D02*
D03*
X6604000D02*
D03*
X6858000D02*
D03*
X7112000D02*
D03*
X7366000D02*
D03*
X7620000D02*
D03*
D106*
X1460500Y5143500D02*
D03*
D107*
X1480000Y345000D02*
D03*
D108*
Y695000D02*
D03*
D559*
X1280000Y1030000D02*
D03*
D560*
Y1870000D02*
D03*
D561*
X3902500Y1572500D02*
D03*
Y1637500D02*
D03*
Y1702500D02*
D03*
Y1767500D02*
D03*
X3477500Y1572500D02*
D03*
Y1637500D02*
D03*
Y1702500D02*
D03*
X4142501Y2052501D02*
D03*
Y2117501D02*
D03*
Y2182501D02*
D03*
Y2247501D02*
D03*
X3717501Y2052501D02*
D03*
Y2117501D02*
D03*
Y2182501D02*
D03*
X4917500Y4327500D02*
D03*
Y4262500D02*
D03*
Y4197500D02*
D03*
Y4132500D02*
D03*
X5342500Y4327500D02*
D03*
Y4262500D02*
D03*
Y4197500D02*
D03*
D562*
X3477500Y1767500D02*
D03*
X3717501Y2247501D02*
D03*
X5342500Y4132500D02*
D03*
D563*
X5687001Y1815000D02*
D03*
X7577000Y935000D02*
D03*
X6196978Y1914994D02*
D03*
X4917001Y1215000D02*
D03*
X7307000Y2725000D02*
D03*
X6847001Y2865000D02*
D03*
Y2565000D02*
D03*
X6837001Y2165000D02*
D03*
X7307000Y2255000D02*
D03*
X5957000Y915000D02*
D03*
X5687001Y2235000D02*
D03*
X7017000Y845000D02*
D03*
Y1505000D02*
D03*
X5957000Y1325000D02*
D03*
X7017000Y1155000D02*
D03*
X7504000Y1280000D02*
D03*
X6197001Y2325000D02*
D03*
X5367000Y1175000D02*
D03*
X6410000Y960000D02*
D03*
X6416999Y1425000D02*
D03*
D564*
X5687001Y1765001D02*
D03*
Y1715000D02*
D03*
Y1665000D02*
D03*
X5773000Y1815000D02*
D03*
Y1765001D02*
D03*
Y1715000D02*
D03*
Y1665000D02*
D03*
X7663000Y685000D02*
D03*
Y735000D02*
D03*
Y785000D02*
D03*
Y835000D02*
D03*
Y885000D02*
D03*
Y935000D02*
D03*
X7577000Y685000D02*
D03*
Y735000D02*
D03*
Y785000D02*
D03*
Y835000D02*
D03*
Y885000D02*
D03*
X6282978Y1664994D02*
D03*
Y1714994D02*
D03*
Y1764994D02*
D03*
Y1814994D02*
D03*
Y1864994D02*
D03*
Y1914994D02*
D03*
X6196978Y1664994D02*
D03*
Y1714994D02*
D03*
Y1764994D02*
D03*
Y1814994D02*
D03*
Y1864994D02*
D03*
X4917001Y1165000D02*
D03*
Y1115000D02*
D03*
Y1065000D02*
D03*
X5003000Y1215000D02*
D03*
Y1165000D02*
D03*
Y1115000D02*
D03*
Y1065000D02*
D03*
X7393000Y2475000D02*
D03*
Y2525000D02*
D03*
Y2575000D02*
D03*
Y2625000D02*
D03*
Y2675000D02*
D03*
Y2725000D02*
D03*
X7307000Y2475000D02*
D03*
Y2525000D02*
D03*
Y2575000D02*
D03*
Y2625000D02*
D03*
Y2675000D02*
D03*
X6847001Y2815000D02*
D03*
Y2765000D02*
D03*
Y2715000D02*
D03*
X6933000Y2865000D02*
D03*
Y2815000D02*
D03*
Y2765000D02*
D03*
Y2715000D02*
D03*
X6847001Y2515000D02*
D03*
Y2465000D02*
D03*
Y2415000D02*
D03*
X6933000Y2565000D02*
D03*
Y2515000D02*
D03*
Y2465000D02*
D03*
Y2415000D02*
D03*
X6837001Y2115001D02*
D03*
Y2065000D02*
D03*
Y2015001D02*
D03*
X6923000Y2165000D02*
D03*
Y2115001D02*
D03*
Y2065000D02*
D03*
Y2015001D02*
D03*
X7393000Y2005000D02*
D03*
Y2055000D02*
D03*
Y2105000D02*
D03*
Y2155000D02*
D03*
Y2205000D02*
D03*
Y2255000D02*
D03*
X7307000Y2005000D02*
D03*
Y2055000D02*
D03*
Y2105000D02*
D03*
Y2155000D02*
D03*
Y2205000D02*
D03*
X6043000Y765000D02*
D03*
Y815000D02*
D03*
Y865000D02*
D03*
Y915000D02*
D03*
X5957000Y765000D02*
D03*
Y815000D02*
D03*
Y865000D02*
D03*
X5773000Y2085000D02*
D03*
Y2135000D02*
D03*
Y2185000D02*
D03*
Y2235000D02*
D03*
X5687001Y2085000D02*
D03*
Y2135000D02*
D03*
Y2185000D02*
D03*
X7103000Y695000D02*
D03*
Y745000D02*
D03*
Y795000D02*
D03*
Y845000D02*
D03*
X7017000Y695000D02*
D03*
Y745000D02*
D03*
Y795000D02*
D03*
X7103000Y1355000D02*
D03*
Y1405000D02*
D03*
Y1455000D02*
D03*
Y1505000D02*
D03*
X7017000Y1355000D02*
D03*
Y1405000D02*
D03*
Y1455000D02*
D03*
X5957000Y1275000D02*
D03*
Y1225000D02*
D03*
Y1175000D02*
D03*
X6043000Y1325000D02*
D03*
Y1275000D02*
D03*
Y1225000D02*
D03*
Y1175000D02*
D03*
X7103000Y1005000D02*
D03*
Y1055000D02*
D03*
Y1105000D02*
D03*
Y1155000D02*
D03*
X7017000Y1005000D02*
D03*
Y1055000D02*
D03*
Y1105000D02*
D03*
X7504000Y1230000D02*
D03*
Y1180000D02*
D03*
Y1130000D02*
D03*
Y1080000D02*
D03*
Y1030000D02*
D03*
X7590000Y1280000D02*
D03*
Y1230000D02*
D03*
Y1180000D02*
D03*
Y1130000D02*
D03*
Y1080000D02*
D03*
Y1030000D02*
D03*
X6197001Y2275000D02*
D03*
Y2225000D02*
D03*
Y2175000D02*
D03*
Y2125000D02*
D03*
Y2075000D02*
D03*
X6283000Y2325000D02*
D03*
Y2275000D02*
D03*
Y2225000D02*
D03*
Y2175000D02*
D03*
Y2125000D02*
D03*
Y2075000D02*
D03*
X5367000Y1125001D02*
D03*
Y1075000D02*
D03*
Y1025000D02*
D03*
Y975000D02*
D03*
Y925000D02*
D03*
X5453000Y1175000D02*
D03*
Y1125001D02*
D03*
Y1075000D02*
D03*
Y1025000D02*
D03*
Y975000D02*
D03*
Y925000D02*
D03*
X6410000Y910000D02*
D03*
Y860000D02*
D03*
Y810000D02*
D03*
Y760000D02*
D03*
Y710000D02*
D03*
X6495999Y960000D02*
D03*
Y910000D02*
D03*
Y860000D02*
D03*
Y810000D02*
D03*
Y760000D02*
D03*
Y710000D02*
D03*
X6416999Y1375000D02*
D03*
Y1325000D02*
D03*
Y1275000D02*
D03*
Y1225000D02*
D03*
Y1175000D02*
D03*
X6502999Y1425000D02*
D03*
Y1375000D02*
D03*
Y1325000D02*
D03*
Y1275000D02*
D03*
Y1225000D02*
D03*
Y1175000D02*
D03*
D565*
X5205000Y2712500D02*
D03*
D566*
Y2777500D02*
D03*
Y2842500D02*
D03*
Y2907500D02*
D03*
Y2972500D02*
D03*
Y3037500D02*
D03*
Y3102500D02*
D03*
Y3167500D02*
D03*
X4635000Y2712500D02*
D03*
Y2777500D02*
D03*
Y2842500D02*
D03*
Y2907500D02*
D03*
Y2972500D02*
D03*
Y3037500D02*
D03*
Y3102500D02*
D03*
Y3167500D02*
D03*
D567*
X8030000Y2815000D02*
D03*
Y2880000D02*
D03*
Y2945000D02*
D03*
X8230000D02*
D03*
Y2880000D02*
D03*
D568*
Y2815000D02*
D03*
D569*
X7800000Y2690000D02*
D03*
X7900000D02*
D03*
X7800000Y2800000D02*
D03*
X7900000D02*
D03*
X7800000Y2910000D02*
D03*
X7900000D02*
D03*
X6610001Y2850000D02*
D03*
X6710001D02*
D03*
X6610001Y2750000D02*
D03*
X6710001D02*
D03*
X6630001Y2390000D02*
D03*
X6730001D02*
D03*
X6830001Y2280001D02*
D03*
X6930000D02*
D03*
X6600001Y2130001D02*
D03*
X6700000D02*
D03*
X6600001Y2030001D02*
D03*
X6700000D02*
D03*
X7140000Y2590000D02*
D03*
X7040001D02*
D03*
X7140000Y2900000D02*
D03*
X7040001D02*
D03*
X5810000Y4340000D02*
D03*
X5910000D02*
D03*
X5560000Y3740000D02*
D03*
X5660000D02*
D03*
X5590000Y3290000D02*
D03*
X5490000D02*
D03*
X4770000Y4340000D02*
D03*
X4670000D02*
D03*
X5180000Y4010000D02*
D03*
X5080001D02*
D03*
X4500000Y2870000D02*
D03*
X4400000D02*
D03*
X4500000Y2760000D02*
D03*
X4400000D02*
D03*
X5670000Y3850000D02*
D03*
X5770000D02*
D03*
X5770000Y3740000D02*
D03*
X5870000D02*
D03*
X5970000Y3850000D02*
D03*
X5870000D02*
D03*
X4590000Y3480000D02*
D03*
X4690000D02*
D03*
X5280000Y3910000D02*
D03*
X5180000D02*
D03*
X5280000Y4010000D02*
D03*
X5380000D02*
D03*
X5810000Y4240000D02*
D03*
X5910000D02*
D03*
X4900000Y4040000D02*
D03*
X4800000D02*
D03*
X4900000Y3940000D02*
D03*
X4800000D02*
D03*
X5300000Y3430000D02*
D03*
X5400000D02*
D03*
X5050000Y3290000D02*
D03*
X4950001D02*
D03*
X4670000Y4240000D02*
D03*
X4770000D02*
D03*
X4500000Y3230000D02*
D03*
X4400000D02*
D03*
Y3130000D02*
D03*
X4500000D02*
D03*
X4400000Y3000000D02*
D03*
X4500000D02*
D03*
X5100000Y3430000D02*
D03*
X5200000D02*
D03*
X5340000Y3050000D02*
D03*
X5440000D02*
D03*
X4510000Y4230000D02*
D03*
X4410000D02*
D03*
X2820000Y910000D02*
D03*
X2720000D02*
D03*
X6880000Y1550000D02*
D03*
X6780000D02*
D03*
X5550000Y1870000D02*
D03*
X5450001D02*
D03*
X5820000Y1360000D02*
D03*
X5720000D02*
D03*
X5820000Y970000D02*
D03*
X5720000D02*
D03*
X5130000Y1240000D02*
D03*
X5230000D02*
D03*
X6050000Y1030000D02*
D03*
X5950000D02*
D03*
X7210000Y3270000D02*
D03*
X7110000D02*
D03*
X7210000Y3380000D02*
D03*
X7110000D02*
D03*
X7220000Y3160000D02*
D03*
X7320000D02*
D03*
X7220000Y3050000D02*
D03*
X7320000D02*
D03*
X5550000Y1670000D02*
D03*
X5450001D02*
D03*
X5550000Y1770000D02*
D03*
X5450001D02*
D03*
X5550000Y2110000D02*
D03*
X5450000D02*
D03*
X4780000Y1040000D02*
D03*
X4680001D02*
D03*
X5820000Y1160000D02*
D03*
X5720000D02*
D03*
X6880000Y1250000D02*
D03*
X6780000D02*
D03*
X5780000Y2360000D02*
D03*
X5680001D02*
D03*
X5780000Y1940000D02*
D03*
X5680001D02*
D03*
X7220000Y1550000D02*
D03*
X7320000D02*
D03*
X5130000Y1040000D02*
D03*
X5230000D02*
D03*
X7220000Y1450000D02*
D03*
X7320000D02*
D03*
X5820000Y770000D02*
D03*
X5720000D02*
D03*
X6880000Y890000D02*
D03*
X6780000D02*
D03*
X7220000D02*
D03*
X7320000D02*
D03*
X7220000Y1190000D02*
D03*
X7320000D02*
D03*
X6880000Y790000D02*
D03*
X6780000D02*
D03*
X6880000Y1350000D02*
D03*
X6780000D02*
D03*
X6880000Y1110000D02*
D03*
X6780000D02*
D03*
X4780000Y1140000D02*
D03*
X4680001D02*
D03*
X4780000Y1240000D02*
D03*
X4680001D02*
D03*
X5550000Y2210000D02*
D03*
X5450000D02*
D03*
X7220000Y1350000D02*
D03*
X7320000D02*
D03*
X6880000Y1450000D02*
D03*
X6780000D02*
D03*
X5130000Y1140000D02*
D03*
X5230000D02*
D03*
X5550000Y2310000D02*
D03*
X5450000D02*
D03*
X6050000Y1440000D02*
D03*
X5950000D02*
D03*
X6390001Y2330000D02*
D03*
X6490000D02*
D03*
X6390001Y1920000D02*
D03*
X6490000D02*
D03*
X1960000Y1080000D02*
D03*
X1860000D02*
D03*
X3210000Y4190000D02*
D03*
X3310000D02*
D03*
Y4090000D02*
D03*
X3210000D02*
D03*
X4290000Y1470000D02*
D03*
X4390000D02*
D03*
X1860000Y1300000D02*
D03*
X1960000D02*
D03*
X1960000Y1760000D02*
D03*
X1860000D02*
D03*
X1960000Y1190000D02*
D03*
X1860000D02*
D03*
X3360000Y1360000D02*
D03*
X3260000D02*
D03*
X3360000Y1260000D02*
D03*
X3260000D02*
D03*
Y1160000D02*
D03*
X3360000D02*
D03*
X3960000Y1250000D02*
D03*
X3860000D02*
D03*
X7330000Y4780000D02*
D03*
X7430000D02*
D03*
X7750000Y3330000D02*
D03*
X7850000D02*
D03*
X7690000Y2210000D02*
D03*
X7790000D02*
D03*
X2980000Y4280000D02*
D03*
X3080000D02*
D03*
X3330000Y3860000D02*
D03*
X3230000D02*
D03*
X3240000Y1820000D02*
D03*
X3340000D02*
D03*
X2410000Y3190000D02*
D03*
X2510000D02*
D03*
X3040000Y3040000D02*
D03*
X3140000D02*
D03*
X1860000Y1870000D02*
D03*
X1960000D02*
D03*
X3960000Y1350000D02*
D03*
X3860000D02*
D03*
D570*
X6484747Y3610253D02*
D03*
X6655253Y3489747D02*
D03*
Y3809747D02*
D03*
X6484747Y3930254D02*
D03*
X7055253Y3809747D02*
D03*
X6884747Y3930253D02*
D03*
D571*
X6545000Y3610000D02*
D03*
X6595000D02*
D03*
X6545000Y3490000D02*
D03*
X6595000D02*
D03*
Y3810001D02*
D03*
X6545000D02*
D03*
X6595000Y3930001D02*
D03*
X6545000D02*
D03*
X6995000Y3810000D02*
D03*
X6945000D02*
D03*
X6995000Y3930000D02*
D03*
X6945000D02*
D03*
D572*
X6655253Y3610253D02*
D03*
X6484747Y3489747D02*
D03*
Y3809747D02*
D03*
X6655253Y3930254D02*
D03*
X6884747Y3809747D02*
D03*
X7055253Y3930253D02*
D03*
D573*
X6485000Y3550000D02*
D03*
X6655000D02*
D03*
Y3870000D02*
D03*
X6485000D02*
D03*
X7055000Y3870000D02*
D03*
X6885000D02*
D03*
D574*
X4430000Y4700000D02*
D03*
X7620000Y1700000D02*
D03*
Y3600000D02*
D03*
X4250000Y1350000D02*
D03*
X2420000Y4700000D02*
D03*
X4080000D02*
D03*
X2070000D02*
D03*
X7620000Y2100000D02*
D03*
Y4000000D02*
D03*
D575*
X4590000Y4700000D02*
D03*
X4760000Y3350000D02*
D03*
X4600000D02*
D03*
X5510000Y2930000D02*
D03*
X5350000D02*
D03*
X5510000Y3170000D02*
D03*
X5350000D02*
D03*
X2990000Y1380000D02*
D03*
X2830000D02*
D03*
X2540000Y1230000D02*
D03*
X2380000D02*
D03*
X7780000Y1700000D02*
D03*
Y3600000D02*
D03*
X4410000Y1350000D02*
D03*
X2580000Y4700000D02*
D03*
X4240000D02*
D03*
X2230000D02*
D03*
X7780000Y2100000D02*
D03*
Y4000000D02*
D03*
X2800000Y4350000D02*
D03*
X2640000D02*
D03*
X3220000Y3450000D02*
D03*
X3380000D02*
D03*
X3090000Y4390000D02*
D03*
X2930000D02*
D03*
X2650000Y2570000D02*
D03*
X2490000D02*
D03*
X2460000Y2920000D02*
D03*
X2300000D02*
D03*
X3420000Y1930000D02*
D03*
X3580000D02*
D03*
X4160000Y1920000D02*
D03*
X4000000D02*
D03*
D576*
X7040000Y2390000D02*
D03*
Y2490000D02*
D03*
X7140000Y2180000D02*
D03*
Y2280000D02*
D03*
X7530000Y2290000D02*
D03*
Y2390000D02*
D03*
X7040000Y2280000D02*
D03*
Y2180000D02*
D03*
X7530000Y2600000D02*
D03*
Y2500000D02*
D03*
X7140000Y2080000D02*
D03*
Y1980000D02*
D03*
X7140000Y2490000D02*
D03*
Y2390000D02*
D03*
X7040001Y2700000D02*
D03*
Y2800000D02*
D03*
X7040000Y1980000D02*
D03*
Y2080000D02*
D03*
X7140000Y2800000D02*
D03*
Y2700000D02*
D03*
X4900000Y3530000D02*
D03*
Y3430000D02*
D03*
X5450000Y2810000D02*
D03*
Y2710000D02*
D03*
X4680000Y3700000D02*
D03*
Y3600000D02*
D03*
X5600000Y3640000D02*
D03*
Y3540000D02*
D03*
X4580000Y3680000D02*
D03*
Y3580000D02*
D03*
X6040000Y3640000D02*
D03*
Y3540000D02*
D03*
X5480000Y4140000D02*
D03*
Y4040000D02*
D03*
X5480000Y4240000D02*
D03*
Y4340000D02*
D03*
X5580001D02*
D03*
Y4240000D02*
D03*
X5680001D02*
D03*
Y4340000D02*
D03*
X6020000D02*
D03*
Y4240000D02*
D03*
X5000000Y3430000D02*
D03*
Y3530000D02*
D03*
X4780000Y3700000D02*
D03*
Y3600000D02*
D03*
X5000000Y3790000D02*
D03*
Y3690000D02*
D03*
X5340000Y2810000D02*
D03*
Y2710000D02*
D03*
X4430000Y3580000D02*
D03*
Y3480000D02*
D03*
X5760000Y3060000D02*
D03*
Y2960000D02*
D03*
X5650000Y3060000D02*
D03*
Y2960000D02*
D03*
X5970000Y3060000D02*
D03*
Y2960000D02*
D03*
X5860000Y3060000D02*
D03*
Y2960000D02*
D03*
X5890000Y2750000D02*
D03*
Y2850000D02*
D03*
X7110000Y3160000D02*
D03*
Y3060000D02*
D03*
X6260000Y1340000D02*
D03*
Y1440000D02*
D03*
Y730000D02*
D03*
Y830000D02*
D03*
X6160000D02*
D03*
Y730000D02*
D03*
X6260000Y1030000D02*
D03*
Y930000D02*
D03*
X6160000Y930000D02*
D03*
Y1030000D02*
D03*
X5900000Y1740000D02*
D03*
Y1640000D02*
D03*
X7220000Y1090000D02*
D03*
Y990000D02*
D03*
X6160000Y1340000D02*
D03*
Y1440000D02*
D03*
Y1240000D02*
D03*
Y1140000D02*
D03*
X5900000Y2260001D02*
D03*
Y2360001D02*
D03*
X7320000Y690000D02*
D03*
Y790000D02*
D03*
X7220000D02*
D03*
Y690000D02*
D03*
X6000000Y1640000D02*
D03*
Y1740000D02*
D03*
Y1940000D02*
D03*
Y1840000D02*
D03*
X5900000D02*
D03*
Y1940000D02*
D03*
X6000000Y2060001D02*
D03*
Y2160001D02*
D03*
Y2360001D02*
D03*
Y2260001D02*
D03*
X7320000Y990000D02*
D03*
Y1090000D02*
D03*
X6260000Y1140000D02*
D03*
Y1240000D02*
D03*
X5900000Y2160001D02*
D03*
Y2060001D02*
D03*
X6360000Y3600000D02*
D03*
Y3500000D02*
D03*
X7770000Y950000D02*
D03*
Y1050000D02*
D03*
X5590000Y1190000D02*
D03*
Y1290000D02*
D03*
X3010000Y1260000D02*
D03*
Y1160000D02*
D03*
X2910000Y1260000D02*
D03*
Y1160000D02*
D03*
X2360000Y1430000D02*
D03*
Y1530000D02*
D03*
X2810000Y1160000D02*
D03*
Y1260000D02*
D03*
X3140000Y4680000D02*
D03*
Y4780000D02*
D03*
X3040000Y4680000D02*
D03*
Y4780000D02*
D03*
X4980000D02*
D03*
Y4680000D02*
D03*
X5090000Y4780000D02*
D03*
Y4680000D02*
D03*
X6470000D02*
D03*
Y4780000D02*
D03*
X6350000D02*
D03*
Y4680000D02*
D03*
X6250000D02*
D03*
Y4780000D02*
D03*
X6150000D02*
D03*
Y4680000D02*
D03*
X3440000Y4000000D02*
D03*
Y4100000D02*
D03*
Y3800000D02*
D03*
Y3900000D02*
D03*
X2940000Y4780000D02*
D03*
Y4680000D02*
D03*
X3040000Y3260000D02*
D03*
Y3160000D02*
D03*
X3140000D02*
D03*
Y3260000D02*
D03*
X3430000Y4780000D02*
D03*
Y4680000D02*
D03*
X2710000Y790000D02*
D03*
Y690000D02*
D03*
X2820000Y790000D02*
D03*
Y690000D02*
D03*
X3460000Y890000D02*
D03*
Y790000D02*
D03*
X4730000Y4780000D02*
D03*
Y4680000D02*
D03*
X2720000Y4780000D02*
D03*
Y4680000D02*
D03*
X4840000Y4780000D02*
D03*
Y4680000D02*
D03*
X2820000Y4780000D02*
D03*
Y4680000D02*
D03*
X4320000Y781000D02*
D03*
Y681000D02*
D03*
X4210000Y780000D02*
D03*
Y680000D02*
D03*
X5970000Y4680000D02*
D03*
Y4780000D02*
D03*
X5870000Y4680000D02*
D03*
Y4780000D02*
D03*
X4580000Y780000D02*
D03*
Y680000D02*
D03*
X4690000D02*
D03*
Y780000D02*
D03*
X5220000D02*
D03*
Y680000D02*
D03*
X6750000Y4780000D02*
D03*
Y4680000D02*
D03*
X6850000Y4780000D02*
D03*
Y4680000D02*
D03*
X5570000Y780000D02*
D03*
Y680000D02*
D03*
X5350000Y780000D02*
D03*
Y680000D02*
D03*
X5460000D02*
D03*
Y780000D02*
D03*
X5640000Y4780000D02*
D03*
Y4680000D02*
D03*
X5110000Y780000D02*
D03*
Y680000D02*
D03*
X5360000Y4780000D02*
D03*
Y4680000D02*
D03*
X4970000Y780000D02*
D03*
Y680000D02*
D03*
X5750000Y4680000D02*
D03*
Y4780000D02*
D03*
X4860000Y780000D02*
D03*
Y680000D02*
D03*
X4040000Y780000D02*
D03*
Y680000D02*
D03*
X3930000Y681000D02*
D03*
Y781000D02*
D03*
X3900000Y4780000D02*
D03*
Y4680000D02*
D03*
X3650000D02*
D03*
Y4780000D02*
D03*
X3760000D02*
D03*
Y4680000D02*
D03*
X3310000D02*
D03*
Y4780000D02*
D03*
X7970000Y2480000D02*
D03*
Y2580000D02*
D03*
X8340000Y2870000D02*
D03*
Y2770000D02*
D03*
X6950000Y4780000D02*
D03*
Y4680000D02*
D03*
X3350000Y790000D02*
D03*
Y890000D02*
D03*
X6770000Y3810000D02*
D03*
Y3910000D02*
D03*
X6360000Y3800000D02*
D03*
Y3900000D02*
D03*
X6620000Y1100000D02*
D03*
Y1000000D02*
D03*
X6610000Y1560000D02*
D03*
Y1460000D02*
D03*
X7730000Y1380000D02*
D03*
Y1280000D02*
D03*
X7850000Y710000D02*
D03*
Y610000D02*
D03*
Y4680000D02*
D03*
Y4780000D02*
D03*
X3550000Y3900000D02*
D03*
Y3800000D02*
D03*
X3561188Y4100000D02*
D03*
Y4000000D02*
D03*
X3590000Y2350000D02*
D03*
Y2250000D02*
D03*
X4280000Y1910000D02*
D03*
Y2010000D02*
D03*
X3590000Y2150000D02*
D03*
Y2050000D02*
D03*
X3530000Y4680000D02*
D03*
Y4780000D02*
D03*
X8490000Y2560000D02*
D03*
Y2660000D02*
D03*
D577*
X4265000Y2735000D02*
D03*
X6170000Y4300000D02*
D03*
D578*
X5515000Y2565000D02*
D03*
X4920000D02*
D03*
Y4470000D02*
D03*
D579*
X4365000Y2565000D02*
D03*
X6070000Y4470000D02*
D03*
D580*
X6000000Y2565000D02*
D03*
X4435000Y4470000D02*
D03*
D581*
X6170000Y3815000D02*
D03*
Y3220000D02*
D03*
X4265000D02*
D03*
Y3815000D02*
D03*
D582*
X6170000Y2665000D02*
D03*
X4265000Y4370000D02*
D03*
D583*
X5515000Y4470000D02*
D03*
D584*
X6020000Y2690000D02*
D03*
Y2850000D02*
D03*
X5630000Y2690000D02*
D03*
Y2850000D02*
D03*
X5760000Y2690000D02*
D03*
Y2850000D02*
D03*
X5440000Y3700000D02*
D03*
Y3540000D02*
D03*
X2060000Y850000D02*
D03*
Y690000D02*
D03*
X2250000Y1360000D02*
D03*
Y1520000D02*
D03*
X2640000Y3900000D02*
D03*
Y3740000D02*
D03*
X2640000Y4060000D02*
D03*
Y4220000D02*
D03*
X4040000Y1620000D02*
D03*
Y1780000D02*
D03*
X4180000Y1620000D02*
D03*
Y1780000D02*
D03*
X3340000Y1529999D02*
D03*
Y1690000D02*
D03*
X2410000Y850000D02*
D03*
Y690000D02*
D03*
X2140000Y4110000D02*
D03*
Y4270000D02*
D03*
X6310000Y2950000D02*
D03*
Y3110000D02*
D03*
D585*
X4780000Y4140000D02*
D03*
X4900000Y3690000D02*
D03*
X5080000Y3910000D02*
D03*
X5140000Y3320000D02*
D03*
D586*
X5930000Y4010000D02*
D03*
X5690000D02*
D03*
D587*
X5995000D02*
D03*
X5625000D02*
D03*
D588*
X5722500Y3187500D02*
D03*
X5787500D02*
D03*
X5852500D02*
D03*
X5917500D02*
D03*
X5722500Y3612500D02*
D03*
X5787500D02*
D03*
X5852500D02*
D03*
D589*
X5917500D02*
D03*
D590*
X5305000Y3787500D02*
D03*
X5210000D02*
D03*
X5115000D02*
D03*
Y3532500D02*
D03*
X5305000D02*
D03*
D591*
X4660000Y4115000D02*
D03*
D592*
X4610000D02*
D03*
X4560000D02*
D03*
X4510000D02*
D03*
X4460000D02*
D03*
X4660000Y3825000D02*
D03*
X4610000D02*
D03*
X4560000D02*
D03*
X4510000D02*
D03*
X4460000D02*
D03*
D593*
X4560000Y3970000D02*
D03*
D594*
X2540000Y2415000D02*
D03*
Y2185000D02*
D03*
X2390000Y3895000D02*
D03*
Y3665000D02*
D03*
X2390000Y4085000D02*
D03*
Y4315000D02*
D03*
D595*
X6997500Y3265000D02*
D03*
Y3075000D02*
D03*
X6742500D02*
D03*
Y3170000D02*
D03*
Y3265000D02*
D03*
D596*
X8060000Y2125000D02*
D03*
X8466000D02*
D03*
X8060000Y2045000D02*
D03*
Y1965000D02*
D03*
Y1885000D02*
D03*
Y1805000D02*
D03*
Y1725000D02*
D03*
Y1645000D02*
D03*
Y1565000D02*
D03*
Y1485000D02*
D03*
Y1405000D02*
D03*
Y1325000D02*
D03*
Y1245000D02*
D03*
Y1165000D02*
D03*
Y1085000D02*
D03*
Y1005000D02*
D03*
Y925000D02*
D03*
Y845000D02*
D03*
Y765000D02*
D03*
Y685000D02*
D03*
Y605000D02*
D03*
X8466000Y2045000D02*
D03*
Y1965000D02*
D03*
Y1885000D02*
D03*
Y1805000D02*
D03*
Y1725000D02*
D03*
Y1645000D02*
D03*
Y1565000D02*
D03*
Y1485000D02*
D03*
Y1405000D02*
D03*
Y1325000D02*
D03*
Y1245000D02*
D03*
Y1165000D02*
D03*
Y1085000D02*
D03*
Y1005000D02*
D03*
Y925000D02*
D03*
Y845000D02*
D03*
Y765000D02*
D03*
Y685000D02*
D03*
Y605000D02*
D03*
Y3335000D02*
D03*
Y3415000D02*
D03*
Y3495000D02*
D03*
Y3575000D02*
D03*
Y3655000D02*
D03*
Y3735000D02*
D03*
Y3815000D02*
D03*
Y3895000D02*
D03*
Y3975000D02*
D03*
Y4055000D02*
D03*
Y4135000D02*
D03*
Y4215000D02*
D03*
Y4295000D02*
D03*
Y4375000D02*
D03*
Y4455000D02*
D03*
Y4535000D02*
D03*
Y4615000D02*
D03*
Y4695000D02*
D03*
Y4775000D02*
D03*
X8060000Y3335000D02*
D03*
Y3415000D02*
D03*
Y3495000D02*
D03*
Y3575000D02*
D03*
Y3655000D02*
D03*
Y3735000D02*
D03*
Y3815000D02*
D03*
Y3895000D02*
D03*
Y3975000D02*
D03*
Y4055000D02*
D03*
Y4135000D02*
D03*
Y4215000D02*
D03*
Y4295000D02*
D03*
Y4375000D02*
D03*
Y4455000D02*
D03*
Y4535000D02*
D03*
Y4615000D02*
D03*
Y4695000D02*
D03*
Y4775000D02*
D03*
X8466000Y4855000D02*
D03*
X8060000D02*
D03*
D597*
X2647500Y1425000D02*
D03*
Y1525000D02*
D03*
X2472500Y1475000D02*
D03*
D598*
X2630000D02*
D03*
X2490000Y1525000D02*
D03*
Y1425000D02*
D03*
D599*
X2535000Y1357500D02*
D03*
X2635000D02*
D03*
X2485000D02*
D03*
X2585000D02*
D03*
D600*
X1630000Y1675000D02*
D03*
Y1525000D02*
D03*
Y1375000D02*
D03*
Y1225000D02*
D03*
D601*
X2300000Y2210000D02*
D03*
Y2370000D02*
D03*
X2550000Y850000D02*
D03*
Y690000D02*
D03*
X2270000D02*
D03*
Y850000D02*
D03*
D602*
X2910000Y1580000D02*
D03*
Y1920000D02*
D03*
D603*
X2815000Y3680000D02*
D03*
X3045000D02*
D03*
X2625000Y2830000D02*
D03*
X2855000D02*
D03*
D604*
X6752000Y4490000D02*
D03*
Y4290000D02*
D03*
Y4440000D02*
D03*
Y4390000D02*
D03*
Y4340000D02*
D03*
X6988000Y4290000D02*
D03*
Y4340000D02*
D03*
Y4390000D02*
D03*
Y4440000D02*
D03*
Y4490000D02*
D03*
X7246998Y4580001D02*
D03*
Y4380001D02*
D03*
Y4530001D02*
D03*
Y4480001D02*
D03*
Y4430001D02*
D03*
X7482998Y4380001D02*
D03*
Y4430001D02*
D03*
Y4480001D02*
D03*
Y4530001D02*
D03*
Y4580001D02*
D03*
D605*
X6845000Y4247000D02*
D03*
X6895000D02*
D03*
Y4533000D02*
D03*
X6845000D02*
D03*
X7339998Y4337001D02*
D03*
X7389998D02*
D03*
Y4623001D02*
D03*
X7339998D02*
D03*
D606*
X6870000Y4390000D02*
D03*
X7364998Y4480001D02*
D03*
D607*
X3085000Y3940000D02*
D03*
Y3990000D02*
D03*
Y4040000D02*
D03*
Y4090000D02*
D03*
Y4140000D02*
D03*
X2775000Y3940000D02*
D03*
Y3990000D02*
D03*
Y4040000D02*
D03*
Y4090000D02*
D03*
X3755000Y1155000D02*
D03*
Y1205000D02*
D03*
Y1255000D02*
D03*
Y1305000D02*
D03*
X3465000Y1155000D02*
D03*
Y1205000D02*
D03*
Y1255000D02*
D03*
D608*
X2930000Y4040000D02*
D03*
D609*
X2775000Y4140000D02*
D03*
X3465000Y1305000D02*
D03*
D610*
X2650001Y3075000D02*
D03*
Y3170001D02*
D03*
Y3265000D02*
D03*
X2910001D02*
D03*
Y3170001D02*
D03*
X3200000Y895000D02*
D03*
Y800000D02*
D03*
Y705000D02*
D03*
X2940000D02*
D03*
Y800000D02*
D03*
D611*
X2910001Y3075000D02*
D03*
X2940000Y895000D02*
D03*
D612*
X3610000Y1230000D02*
D03*
D613*
X8080000Y2659999D02*
D03*
D614*
Y2609999D02*
D03*
Y2559999D02*
D03*
Y2509999D02*
D03*
X8379999Y2659999D02*
D03*
Y2609999D02*
D03*
Y2559999D02*
D03*
Y2509999D02*
D03*
D615*
X1875000Y1420000D02*
D03*
X2065000D02*
D03*
X1970000Y1640000D02*
D03*
D616*
X3570000Y900000D02*
D03*
Y710000D02*
D03*
X3790000Y805000D02*
D03*
D617*
X3315000Y1000000D02*
D03*
X2515000Y3080000D02*
D03*
X3145000Y2930000D02*
D03*
X3315000Y680000D02*
D03*
D618*
X3465000Y1000000D02*
D03*
X2365000Y3080000D02*
D03*
X2995000Y2930000D02*
D03*
X3465000Y680000D02*
D03*
%TF.MD5,f385c365ab6ab31ab7149b2b1094948f*%
M02*
