%TF.GenerationSoftware,Altium Limited,Altium Designer,25.3.3 (18)*%
G04 Layer_Color=8388736*
%FSLAX45Y45*%
%MOMM*%
%TF.SameCoordinates,95E4F6BA-DA47-4B25-BB43-2529A7C35442*%
%TF.FilePolarity,Positive*%
%TF.FileFunction,Other,Mechanical_2*%
%TF.Part,CustomerPanel*%
G01*
G75*
%TA.AperFunction,NonConductor*%
%ADD96C,0.15000*%
D96*
X5112400Y4926703D02*
X5104070Y4935033D01*
X5087409D01*
X5079078Y4926703D01*
Y4893380D01*
X5087409Y4885049D01*
X5104070D01*
X5112400Y4893380D01*
X5129062Y4885049D02*
X5145723D01*
X5137392D01*
Y4935033D01*
X5129062Y4926703D01*
X4493243Y4496620D02*
X4484913Y4504950D01*
X4468251D01*
X4459921Y4496620D01*
Y4463297D01*
X4468251Y4454967D01*
X4484913D01*
X4493243Y4463297D01*
X4509904Y4454967D02*
X4526565D01*
X4518235D01*
Y4504950D01*
X4509904Y4496620D01*
X4551558D02*
X4559888Y4504950D01*
X4576549D01*
X4584880Y4496620D01*
Y4463297D01*
X4576549Y4454967D01*
X4559888D01*
X4551558Y4463297D01*
Y4496620D01*
X4445697Y4609173D02*
X4437367Y4600843D01*
Y4584182D01*
X4445697Y4575851D01*
X4479020D01*
X4487350Y4584182D01*
Y4600843D01*
X4479020Y4609173D01*
X4487350Y4625835D02*
Y4642496D01*
Y4634165D01*
X4437367D01*
X4445697Y4625835D01*
X4487350Y4667488D02*
Y4684149D01*
Y4675818D01*
X4437367D01*
X4445697Y4667488D01*
X4545697Y4641669D02*
X4537367Y4633339D01*
Y4616678D01*
X4545697Y4608347D01*
X4579020D01*
X4587350Y4616678D01*
Y4633339D01*
X4579020Y4641669D01*
X4587350Y4683322D02*
X4537367D01*
X4562359Y4658331D01*
Y4691653D01*
X4645697Y4641669D02*
X4637367Y4633339D01*
Y4616678D01*
X4645697Y4608347D01*
X4679020D01*
X4687351Y4616678D01*
Y4633339D01*
X4679020Y4641669D01*
X4637367Y4691653D02*
Y4658331D01*
X4662359D01*
X4654028Y4674992D01*
Y4683322D01*
X4662359Y4691653D01*
X4679020D01*
X4687351Y4683322D01*
Y4666661D01*
X4679020Y4658331D01*
X4703243Y5056703D02*
X4694912Y5065033D01*
X4678251D01*
X4669921Y5056703D01*
Y5023380D01*
X4678251Y5015049D01*
X4694912D01*
X4703243Y5023380D01*
X4719904Y5015049D02*
X4736565D01*
X4728235D01*
Y5065033D01*
X4719904Y5056703D01*
X4794880Y5015049D02*
X4761557D01*
X4794880Y5048372D01*
Y5056703D01*
X4786549Y5065033D01*
X4769888D01*
X4761557Y5056703D01*
X4703243Y4956703D02*
X4694912Y4965033D01*
X4678251D01*
X4669921Y4956703D01*
Y4923380D01*
X4678251Y4915049D01*
X4694912D01*
X4703243Y4923380D01*
X4719904Y4915049D02*
X4736565D01*
X4728235D01*
Y4965033D01*
X4719904Y4956703D01*
X4761557D02*
X4769888Y4965033D01*
X4786549D01*
X4794880Y4956703D01*
Y4948372D01*
X4786549Y4940041D01*
X4778219D01*
X4786549D01*
X4794880Y4931710D01*
Y4923380D01*
X4786549Y4915049D01*
X4769888D01*
X4761557Y4923380D01*
X5024070Y4446620D02*
X5015739Y4454950D01*
X4999078D01*
X4990747Y4446620D01*
Y4413297D01*
X4999078Y4404967D01*
X5015739D01*
X5024070Y4413297D01*
X5040731Y4446620D02*
X5049062Y4454950D01*
X5065723D01*
X5074053Y4446620D01*
Y4438289D01*
X5065723Y4429959D01*
X5057392D01*
X5065723D01*
X5074053Y4421628D01*
Y4413297D01*
X5065723Y4404967D01*
X5049062D01*
X5040731Y4413297D01*
X5264070Y4066620D02*
X5255739Y4074950D01*
X5239078D01*
X5230747Y4066620D01*
Y4033297D01*
X5239078Y4024967D01*
X5255739D01*
X5264070Y4033297D01*
X5280731Y4074950D02*
X5314054D01*
Y4066620D01*
X5280731Y4033297D01*
Y4024967D01*
X5304070Y4186661D02*
X5295739Y4194992D01*
X5279078D01*
X5270747Y4186661D01*
Y4153339D01*
X5279078Y4145008D01*
X5295739D01*
X5304070Y4153339D01*
X5320731Y4186661D02*
X5329062Y4194992D01*
X5345723D01*
X5354054Y4186661D01*
Y4178331D01*
X5345723Y4170000D01*
X5354054Y4161669D01*
Y4153339D01*
X5345723Y4145008D01*
X5329062D01*
X5320731Y4153339D01*
Y4161669D01*
X5329062Y4170000D01*
X5320731Y4178331D01*
Y4186661D01*
X5329062Y4170000D02*
X5345723D01*
X5304070Y3946661D02*
X5295739Y3954992D01*
X5279078D01*
X5270747Y3946661D01*
Y3913339D01*
X5279078Y3905008D01*
X5295739D01*
X5304070Y3913339D01*
X5320731D02*
X5329062Y3905008D01*
X5345723D01*
X5354054Y3913339D01*
Y3946661D01*
X5345723Y3954992D01*
X5329062D01*
X5320731Y3946661D01*
Y3938331D01*
X5329062Y3930000D01*
X5354054D01*
X4299078Y3776703D02*
X4290747Y3785033D01*
X4274086D01*
X4265755Y3776703D01*
Y3743380D01*
X4274086Y3735049D01*
X4290747D01*
X4299078Y3743380D01*
X4349061Y3735049D02*
X4315739D01*
X4349061Y3768372D01*
Y3776703D01*
X4340731Y3785033D01*
X4324070D01*
X4315739Y3776703D01*
X4365723D02*
X4374053Y3785033D01*
X4390714D01*
X4399045Y3776703D01*
Y3743380D01*
X4390714Y3735049D01*
X4374053D01*
X4365723Y3743380D01*
Y3776703D01*
X4307409Y3886703D02*
X4299078Y3895033D01*
X4282417D01*
X4274086Y3886703D01*
Y3853380D01*
X4282417Y3845049D01*
X4299078D01*
X4307409Y3853380D01*
X4357392Y3845049D02*
X4324070D01*
X4357392Y3878372D01*
Y3886703D01*
X4349062Y3895033D01*
X4332401D01*
X4324070Y3886703D01*
X4374053Y3845049D02*
X4390715D01*
X4382384D01*
Y3895033D01*
X4374053Y3886703D01*
X5205698Y3726678D02*
X5197367Y3718347D01*
Y3701686D01*
X5205698Y3693355D01*
X5239020D01*
X5247351Y3701686D01*
Y3718347D01*
X5239020Y3726678D01*
X5247351Y3776661D02*
Y3743339D01*
X5214028Y3776661D01*
X5205698D01*
X5197367Y3768331D01*
Y3751669D01*
X5205698Y3743339D01*
X5247351Y3826645D02*
Y3793322D01*
X5214028Y3826645D01*
X5205698D01*
X5197367Y3818314D01*
Y3801653D01*
X5205698Y3793322D01*
X5315697Y3726678D02*
X5307367Y3718347D01*
Y3701686D01*
X5315697Y3693355D01*
X5349020D01*
X5357350Y3701686D01*
Y3718347D01*
X5349020Y3726678D01*
X5357350Y3776661D02*
Y3743339D01*
X5324028Y3776661D01*
X5315697D01*
X5307367Y3768331D01*
Y3751669D01*
X5315697Y3743339D01*
Y3793322D02*
X5307367Y3801653D01*
Y3818314D01*
X5315697Y3826645D01*
X5324028D01*
X5332359Y3818314D01*
Y3809983D01*
Y3818314D01*
X5340689Y3826645D01*
X5349020D01*
X5357350Y3818314D01*
Y3801653D01*
X5349020Y3793322D01*
X3905738Y2666677D02*
X3897408Y2658346D01*
Y2641685D01*
X3905738Y2633355D01*
X3939061D01*
X3947391Y2641685D01*
Y2658346D01*
X3939061Y2666677D01*
Y2683338D02*
X3947391Y2691669D01*
Y2708330D01*
X3939061Y2716661D01*
X3905738D01*
X3897408Y2708330D01*
Y2691669D01*
X3905738Y2683338D01*
X3914069D01*
X3922400Y2691669D01*
Y2716661D01*
X3897408Y2733322D02*
Y2766644D01*
X3905738D01*
X3939061Y2733322D01*
X3947391D01*
X4045738Y2666677D02*
X4037408Y2658346D01*
Y2641685D01*
X4045738Y2633355D01*
X4079061D01*
X4087392Y2641685D01*
Y2658346D01*
X4079061Y2666677D01*
Y2683338D02*
X4087392Y2691669D01*
Y2708330D01*
X4079061Y2716661D01*
X4045738D01*
X4037408Y2708330D01*
Y2691669D01*
X4045738Y2683338D01*
X4054069D01*
X4062400Y2691669D01*
Y2716661D01*
X4037408Y2766644D02*
Y2733322D01*
X4062400D01*
X4054069Y2749983D01*
Y2758314D01*
X4062400Y2766644D01*
X4079061D01*
X4087392Y2758314D01*
Y2741653D01*
X4079061Y2733322D01*
X2005739Y5156678D02*
X1997408Y5148347D01*
Y5131686D01*
X2005739Y5123355D01*
X2039061D01*
X2047392Y5131686D01*
Y5148347D01*
X2039061Y5156678D01*
X1997408Y5173339D02*
Y5206661D01*
X2005739D01*
X2039061Y5173339D01*
X2047392D01*
X1997408Y5256645D02*
X2005739Y5239984D01*
X2022400Y5223323D01*
X2039061D01*
X2047392Y5231653D01*
Y5248314D01*
X2039061Y5256645D01*
X2030731D01*
X2022400Y5248314D01*
Y5223323D01*
X2398251Y3586661D02*
X2389920Y3594992D01*
X2373259D01*
X2364928Y3586661D01*
Y3553339D01*
X2373259Y3545008D01*
X2389920D01*
X2398251Y3553339D01*
X2414912Y3545008D02*
X2431573D01*
X2423243D01*
Y3594992D01*
X2414912Y3586661D01*
X2456565D02*
X2464896Y3594992D01*
X2481557D01*
X2489888Y3586661D01*
Y3553339D01*
X2481557Y3545008D01*
X2464896D01*
X2456565Y3553339D01*
Y3586661D01*
X2506549D02*
X2514880Y3594992D01*
X2531541D01*
X2539871Y3586661D01*
Y3578331D01*
X2531541Y3570000D01*
X2523210D01*
X2531541D01*
X2539871Y3561669D01*
Y3553339D01*
X2531541Y3545008D01*
X2514880D01*
X2506549Y3553339D01*
X2275738Y1736678D02*
X2267408Y1728347D01*
Y1711686D01*
X2275738Y1703355D01*
X2309061D01*
X2317392Y1711686D01*
Y1728347D01*
X2309061Y1736678D01*
X2267408Y1753339D02*
Y1786661D01*
X2275738D01*
X2309061Y1753339D01*
X2317392D01*
X2267408Y1803322D02*
Y1836645D01*
X2275738D01*
X2309061Y1803322D01*
X2317392D01*
X3205738Y2576677D02*
X3197408Y2568347D01*
Y2551686D01*
X3205738Y2543355D01*
X3239061D01*
X3247392Y2551686D01*
Y2568347D01*
X3239061Y2576677D01*
Y2593338D02*
X3247392Y2601669D01*
Y2618330D01*
X3239061Y2626661D01*
X3205738D01*
X3197408Y2618330D01*
Y2601669D01*
X3205738Y2593338D01*
X3214069D01*
X3222400Y2601669D01*
Y2626661D01*
X3247392Y2668314D02*
X3197408D01*
X3222400Y2643322D01*
Y2676645D01*
X4849078Y4306703D02*
X4840747Y4315033D01*
X4824086D01*
X4815756Y4306703D01*
Y4273380D01*
X4824086Y4265049D01*
X4840747D01*
X4849078Y4273380D01*
X4899062Y4315033D02*
X4882400Y4306703D01*
X4865739Y4290041D01*
Y4273380D01*
X4874070Y4265049D01*
X4890731D01*
X4899062Y4273380D01*
Y4281711D01*
X4890731Y4290041D01*
X4865739D01*
X4949045Y4265049D02*
X4915723D01*
X4949045Y4298372D01*
Y4306703D01*
X4940715Y4315033D01*
X4924054D01*
X4915723Y4306703D01*
X5849077Y2456703D02*
X5840747Y2465033D01*
X5824086D01*
X5815755Y2456703D01*
Y2423380D01*
X5824086Y2415050D01*
X5840747D01*
X5849077Y2423380D01*
X5899061Y2465033D02*
X5882400Y2456703D01*
X5865739Y2440041D01*
Y2423380D01*
X5874069Y2415050D01*
X5890730D01*
X5899061Y2423380D01*
Y2431711D01*
X5890730Y2440041D01*
X5865739D01*
X5949045Y2465033D02*
X5915722D01*
Y2440041D01*
X5932383Y2448372D01*
X5940714D01*
X5949045Y2440041D01*
Y2423380D01*
X5940714Y2415050D01*
X5924053D01*
X5915722Y2423380D01*
X5349078Y3326703D02*
X5340747Y3335033D01*
X5324086D01*
X5315755Y3326703D01*
Y3293381D01*
X5324086Y3285050D01*
X5340747D01*
X5349078Y3293381D01*
X5399062Y3335033D02*
X5382400Y3326703D01*
X5365739Y3310042D01*
Y3293381D01*
X5374070Y3285050D01*
X5390731D01*
X5399062Y3293381D01*
Y3301711D01*
X5390731Y3310042D01*
X5365739D01*
X5415723Y3326703D02*
X5424053Y3335033D01*
X5440715D01*
X5449045Y3326703D01*
Y3318372D01*
X5440715Y3310042D01*
X5449045Y3301711D01*
Y3293381D01*
X5440715Y3285050D01*
X5424053D01*
X5415723Y3293381D01*
Y3301711D01*
X5424053Y3310042D01*
X5415723Y3318372D01*
Y3326703D01*
X5424053Y3310042D02*
X5440715D01*
X6509078Y3866703D02*
X6500748Y3875033D01*
X6484087D01*
X6475756Y3866703D01*
Y3833380D01*
X6484087Y3825050D01*
X6500748D01*
X6509078Y3833380D01*
X6559062Y3875033D02*
X6542401Y3866703D01*
X6525740Y3850041D01*
Y3833380D01*
X6534070Y3825050D01*
X6550731D01*
X6559062Y3833380D01*
Y3841711D01*
X6550731Y3850041D01*
X6525740D01*
X6575723Y3833380D02*
X6584054Y3825050D01*
X6600715D01*
X6609046Y3833380D01*
Y3866703D01*
X6600715Y3875033D01*
X6584054D01*
X6575723Y3866703D01*
Y3858372D01*
X6584054Y3850041D01*
X6609046D01*
X6729078Y3296703D02*
X6720748Y3305034D01*
X6704086D01*
X6695756Y3296703D01*
Y3263381D01*
X6704086Y3255050D01*
X6720748D01*
X6729078Y3263381D01*
X6779062Y3305034D02*
X6762400Y3296703D01*
X6745739Y3280042D01*
Y3263381D01*
X6754070Y3255050D01*
X6770731D01*
X6779062Y3263381D01*
Y3271711D01*
X6770731Y3280042D01*
X6745739D01*
X6820715Y3255050D02*
Y3305034D01*
X6795723Y3280042D01*
X6829046D01*
X7395697Y3495851D02*
X7387366Y3487520D01*
Y3470859D01*
X7395697Y3462528D01*
X7429019D01*
X7437350Y3470859D01*
Y3487520D01*
X7429019Y3495851D01*
X7437350Y3512512D02*
Y3529173D01*
Y3520843D01*
X7387366D01*
X7395697Y3512512D01*
X7437350Y3587488D02*
Y3554165D01*
X7404028Y3587488D01*
X7395697D01*
X7387366Y3579157D01*
Y3562496D01*
X7395697Y3554165D01*
Y3604149D02*
X7387366Y3612479D01*
Y3629141D01*
X7395697Y3637471D01*
X7404028D01*
X7412358Y3629141D01*
Y3620810D01*
Y3629141D01*
X7420689Y3637471D01*
X7429019D01*
X7437350Y3629141D01*
Y3612479D01*
X7429019Y3604149D01*
X6475780Y2455851D02*
X6467449Y2447520D01*
Y2430859D01*
X6475780Y2422528D01*
X6509102D01*
X6517433Y2430859D01*
Y2447520D01*
X6509102Y2455851D01*
X6517433Y2472512D02*
Y2489173D01*
Y2480843D01*
X6467449D01*
X6475780Y2472512D01*
X6517433Y2547488D02*
Y2514165D01*
X6484110Y2547488D01*
X6475780D01*
X6467449Y2539157D01*
Y2522496D01*
X6475780Y2514165D01*
X6517433Y2589141D02*
X6467449D01*
X6492441Y2564149D01*
Y2597471D01*
X6485780Y1995851D02*
X6477449Y1987520D01*
Y1970859D01*
X6485780Y1962528D01*
X6519102D01*
X6527433Y1970859D01*
Y1987520D01*
X6519102Y1995851D01*
X6527433Y2012512D02*
Y2029173D01*
Y2020843D01*
X6477449D01*
X6485780Y2012512D01*
X6527433Y2087488D02*
Y2054165D01*
X6494110Y2087488D01*
X6485780D01*
X6477449Y2079157D01*
Y2062496D01*
X6485780Y2054165D01*
X6477449Y2137471D02*
Y2104149D01*
X6502441D01*
X6494110Y2120810D01*
Y2129141D01*
X6502441Y2137471D01*
X6519102D01*
X6527433Y2129141D01*
Y2112479D01*
X6519102Y2104149D01*
X7395780Y3285851D02*
X7387449Y3277520D01*
Y3260859D01*
X7395780Y3252528D01*
X7429102D01*
X7437433Y3260859D01*
Y3277520D01*
X7429102Y3285851D01*
X7437433Y3302512D02*
Y3319173D01*
Y3310843D01*
X7387449D01*
X7395780Y3302512D01*
X7437433Y3377488D02*
Y3344165D01*
X7404110Y3377488D01*
X7395780D01*
X7387449Y3369157D01*
Y3352496D01*
X7395780Y3344165D01*
X7387449Y3427471D02*
X7395780Y3410810D01*
X7412441Y3394149D01*
X7429102D01*
X7437433Y3402480D01*
Y3419141D01*
X7429102Y3427471D01*
X7420772D01*
X7412441Y3419141D01*
Y3394149D01*
X6888251Y5136620D02*
X6879920Y5144950D01*
X6863259D01*
X6854929Y5136620D01*
Y5103297D01*
X6863259Y5094967D01*
X6879920D01*
X6888251Y5103297D01*
X6904912Y5094967D02*
X6921573D01*
X6913243D01*
Y5144950D01*
X6904912Y5136620D01*
X6979888Y5094967D02*
X6946565D01*
X6979888Y5128289D01*
Y5136620D01*
X6971557Y5144950D01*
X6954896D01*
X6946565Y5136620D01*
X6996549Y5144950D02*
X7029872D01*
Y5136620D01*
X6996549Y5103297D01*
Y5094967D01*
X6318251Y5166620D02*
X6309920Y5174950D01*
X6293259D01*
X6284929Y5166620D01*
Y5133297D01*
X6293259Y5124967D01*
X6309920D01*
X6318251Y5133297D01*
X6334912Y5124967D02*
X6351573D01*
X6343243D01*
Y5174950D01*
X6334912Y5166620D01*
X6409888Y5124967D02*
X6376565D01*
X6409888Y5158289D01*
Y5166620D01*
X6401557Y5174950D01*
X6384896D01*
X6376565Y5166620D01*
X6426549D02*
X6434880Y5174950D01*
X6451541D01*
X6459872Y5166620D01*
Y5158289D01*
X6451541Y5149958D01*
X6459872Y5141628D01*
Y5133297D01*
X6451541Y5124967D01*
X6434880D01*
X6426549Y5133297D01*
Y5141628D01*
X6434880Y5149958D01*
X6426549Y5158289D01*
Y5166620D01*
X6434880Y5149958D02*
X6451541D01*
X4324070Y4246703D02*
X4315739Y4255033D01*
X4299078D01*
X4290747Y4246703D01*
Y4213380D01*
X4299078Y4205050D01*
X4315739D01*
X4324070Y4213380D01*
X4374053Y4205050D02*
X4340731D01*
X4374053Y4238372D01*
Y4246703D01*
X4365723Y4255033D01*
X4349062D01*
X4340731Y4246703D01*
X3395697Y5696678D02*
X3387367Y5688347D01*
Y5671686D01*
X3395697Y5663355D01*
X3429020D01*
X3437351Y5671686D01*
Y5688347D01*
X3429020Y5696678D01*
X3395697Y5713339D02*
X3387367Y5721670D01*
Y5738331D01*
X3395697Y5746661D01*
X3404028D01*
X3412359Y5738331D01*
X3420689Y5746661D01*
X3429020D01*
X3437351Y5738331D01*
Y5721670D01*
X3429020Y5713339D01*
X3420689D01*
X3412359Y5721670D01*
X3404028Y5713339D01*
X3395697D01*
X3412359Y5721670D02*
Y5738331D01*
X3437351Y5788314D02*
X3387367D01*
X3412359Y5763322D01*
Y5796645D01*
X3415780Y4795851D02*
X3407449Y4787520D01*
Y4770859D01*
X3415780Y4762528D01*
X3449102D01*
X3457433Y4770859D01*
Y4787520D01*
X3449102Y4795851D01*
X3457433Y4812512D02*
Y4829173D01*
Y4820843D01*
X3407449D01*
X3415780Y4812512D01*
Y4854165D02*
X3407449Y4862496D01*
Y4879157D01*
X3415780Y4887488D01*
X3449102D01*
X3457433Y4879157D01*
Y4862496D01*
X3449102Y4854165D01*
X3415780D01*
X3457433Y4929141D02*
X3407449D01*
X3432441Y4904149D01*
Y4937471D01*
X5178251Y4446620D02*
X5169921Y4454950D01*
X5153259D01*
X5144929Y4446620D01*
Y4413297D01*
X5153259Y4404967D01*
X5169921D01*
X5178251Y4413297D01*
X5194912Y4404967D02*
X5211574D01*
X5203243D01*
Y4454950D01*
X5194912Y4446620D01*
X5236566D02*
X5244896Y4454950D01*
X5261557D01*
X5269888Y4446620D01*
Y4413297D01*
X5261557Y4404967D01*
X5244896D01*
X5236566Y4413297D01*
Y4446620D01*
X5319872Y4454950D02*
X5286549D01*
Y4429959D01*
X5303210Y4438289D01*
X5311541D01*
X5319872Y4429959D01*
Y4413297D01*
X5311541Y4404967D01*
X5294880D01*
X5286549Y4413297D01*
X3108251Y4876620D02*
X3099920Y4884950D01*
X3083259D01*
X3074929Y4876620D01*
Y4843297D01*
X3083259Y4834967D01*
X3099920D01*
X3108251Y4843297D01*
X3124912Y4834967D02*
X3141573D01*
X3133243D01*
Y4884950D01*
X3124912Y4876620D01*
X3166565D02*
X3174896Y4884950D01*
X3191557D01*
X3199888Y4876620D01*
Y4843297D01*
X3191557Y4834967D01*
X3174896D01*
X3166565Y4843297D01*
Y4876620D01*
X3249872Y4884950D02*
X3233210Y4876620D01*
X3216549Y4859959D01*
Y4843297D01*
X3224880Y4834967D01*
X3241541D01*
X3249872Y4843297D01*
Y4851628D01*
X3241541Y4859959D01*
X3216549D01*
X2505738Y5085851D02*
X2497408Y5077520D01*
Y5060859D01*
X2505738Y5052529D01*
X2539060D01*
X2547391Y5060859D01*
Y5077520D01*
X2539060Y5085851D01*
X2547391Y5102512D02*
Y5119173D01*
Y5110843D01*
X2497408D01*
X2505738Y5102512D01*
Y5144165D02*
X2497408Y5152496D01*
Y5169157D01*
X2505738Y5177488D01*
X2539060D01*
X2547391Y5169157D01*
Y5152496D01*
X2539060Y5144165D01*
X2505738D01*
X2497408Y5194149D02*
Y5227472D01*
X2505738D01*
X2539060Y5194149D01*
X2547391D01*
X2858251Y5296703D02*
X2849920Y5305033D01*
X2833259D01*
X2824928Y5296703D01*
Y5263380D01*
X2833259Y5255049D01*
X2849920D01*
X2858251Y5263380D01*
X2874912Y5255049D02*
X2891573D01*
X2883243D01*
Y5305033D01*
X2874912Y5296703D01*
X2916565D02*
X2924896Y5305033D01*
X2941557D01*
X2949888Y5296703D01*
Y5263380D01*
X2941557Y5255049D01*
X2924896D01*
X2916565Y5263380D01*
Y5296703D01*
X2966549D02*
X2974879Y5305033D01*
X2991541D01*
X2999871Y5296703D01*
Y5288372D01*
X2991541Y5280041D01*
X2999871Y5271711D01*
Y5263380D01*
X2991541Y5255049D01*
X2974879D01*
X2966549Y5263380D01*
Y5271711D01*
X2974879Y5280041D01*
X2966549Y5288372D01*
Y5296703D01*
X2974879Y5280041D02*
X2991541D01*
X2552416Y5366661D02*
X2544086Y5374992D01*
X2527424D01*
X2519094Y5366661D01*
Y5333339D01*
X2527424Y5325008D01*
X2544086D01*
X2552416Y5333339D01*
X2569077Y5325008D02*
X2585739D01*
X2577408D01*
Y5374992D01*
X2569077Y5366661D01*
X2610731Y5325008D02*
X2627392D01*
X2619061D01*
Y5374992D01*
X2610731Y5366661D01*
X2652384Y5374992D02*
X2685706D01*
Y5366661D01*
X2652384Y5333339D01*
Y5325008D01*
X5305739Y4565851D02*
X5297408Y4557520D01*
Y4540859D01*
X5305739Y4532529D01*
X5339061D01*
X5347392Y4540859D01*
Y4557520D01*
X5339061Y4565851D01*
X5347392Y4582512D02*
Y4599173D01*
Y4590843D01*
X5297408D01*
X5305739Y4582512D01*
Y4624166D02*
X5297408Y4632496D01*
Y4649157D01*
X5305739Y4657488D01*
X5339061D01*
X5347392Y4649157D01*
Y4632496D01*
X5339061Y4624166D01*
X5305739D01*
X5339061Y4674149D02*
X5347392Y4682480D01*
Y4699141D01*
X5339061Y4707472D01*
X5305739D01*
X5297408Y4699141D01*
Y4682480D01*
X5305739Y4674149D01*
X5314069D01*
X5322400Y4682480D01*
Y4707472D01*
X3232416Y5376662D02*
X3224085Y5384992D01*
X3207424D01*
X3199094Y5376662D01*
Y5343339D01*
X3207424Y5335008D01*
X3224085D01*
X3232416Y5343339D01*
X3249077Y5335008D02*
X3265738D01*
X3257408D01*
Y5384992D01*
X3249077Y5376662D01*
X3290731Y5335008D02*
X3307392D01*
X3299061D01*
Y5384992D01*
X3290731Y5376662D01*
X3332384D02*
X3340714Y5384992D01*
X3357376D01*
X3365706Y5376662D01*
Y5343339D01*
X3357376Y5335008D01*
X3340714D01*
X3332384Y5343339D01*
Y5376662D01*
X3212416Y4646662D02*
X3204086Y4654992D01*
X3187425D01*
X3179094Y4646662D01*
Y4613339D01*
X3187425Y4605008D01*
X3204086D01*
X3212416Y4613339D01*
X3229078Y4605008D02*
X3245739D01*
X3237408D01*
Y4654992D01*
X3229078Y4646662D01*
X3270731Y4605008D02*
X3287392D01*
X3279062D01*
Y4654992D01*
X3270731Y4646662D01*
X3337376Y4605008D02*
Y4654992D01*
X3312384Y4630000D01*
X3345707D01*
X3595738Y4700016D02*
X3587408Y4691686D01*
Y4675024D01*
X3595738Y4666694D01*
X3629061D01*
X3637392Y4675024D01*
Y4691686D01*
X3629061Y4700016D01*
X3637392Y4716677D02*
Y4733339D01*
Y4725008D01*
X3587408D01*
X3595738Y4716677D01*
X3637392Y4758331D02*
Y4774992D01*
Y4766661D01*
X3587408D01*
X3595738Y4758331D01*
X3587408Y4833306D02*
X3595738Y4816645D01*
X3612400Y4799984D01*
X3629061D01*
X3637392Y4808314D01*
Y4824976D01*
X3629061Y4833306D01*
X3620730D01*
X3612400Y4824976D01*
Y4799984D01*
X3132416Y4466661D02*
X3124086Y4474992D01*
X3107425D01*
X3099094Y4466661D01*
Y4433339D01*
X3107425Y4425008D01*
X3124086D01*
X3132416Y4433339D01*
X3149078Y4425008D02*
X3165739D01*
X3157408D01*
Y4474992D01*
X3149078Y4466661D01*
X3190731Y4425008D02*
X3207392D01*
X3199061D01*
Y4474992D01*
X3190731Y4466661D01*
X3265706Y4474992D02*
X3232384D01*
Y4450000D01*
X3249045Y4458331D01*
X3257376D01*
X3265706Y4450000D01*
Y4433339D01*
X3257376Y4425008D01*
X3240715D01*
X3232384Y4433339D01*
X1759078Y2886703D02*
X1750747Y2895033D01*
X1734086D01*
X1725755Y2886703D01*
Y2853380D01*
X1734086Y2845049D01*
X1750747D01*
X1759078Y2853380D01*
X1775739Y2886703D02*
X1784069Y2895033D01*
X1800730D01*
X1809061Y2886703D01*
Y2878372D01*
X1800730Y2870041D01*
X1809061Y2861711D01*
Y2853380D01*
X1800730Y2845049D01*
X1784069D01*
X1775739Y2853380D01*
Y2861711D01*
X1784069Y2870041D01*
X1775739Y2878372D01*
Y2886703D01*
X1784069Y2870041D02*
X1800730D01*
X1825722Y2886703D02*
X1834053Y2895033D01*
X1850714D01*
X1859045Y2886703D01*
Y2853380D01*
X1850714Y2845049D01*
X1834053D01*
X1825722Y2853380D01*
Y2886703D01*
X6175738Y4000843D02*
X6167408Y3992512D01*
Y3975851D01*
X6175738Y3967520D01*
X6209061D01*
X6217391Y3975851D01*
Y3992512D01*
X6209061Y4000843D01*
X6217391Y4017504D02*
Y4034165D01*
Y4025835D01*
X6167408D01*
X6175738Y4017504D01*
X6167408Y4092480D02*
X6175738Y4075818D01*
X6192400Y4059157D01*
X6209061D01*
X6217391Y4067488D01*
Y4084149D01*
X6209061Y4092480D01*
X6200730D01*
X6192400Y4084149D01*
Y4059157D01*
X5835697Y3980843D02*
X5827367Y3972513D01*
Y3955851D01*
X5835697Y3947521D01*
X5869020D01*
X5877350Y3955851D01*
Y3972513D01*
X5869020Y3980843D01*
X5877350Y3997504D02*
Y4014165D01*
Y4005835D01*
X5827367D01*
X5835697Y3997504D01*
X5827367Y4039158D02*
Y4072480D01*
X5835697D01*
X5869020Y4039158D01*
X5877350D01*
X5515697Y3980843D02*
X5507367Y3972513D01*
Y3955851D01*
X5515697Y3947521D01*
X5549020D01*
X5557351Y3955851D01*
Y3972513D01*
X5549020Y3980843D01*
X5557351Y3997504D02*
Y4014165D01*
Y4005835D01*
X5507367D01*
X5515697Y3997504D01*
Y4039158D02*
X5507367Y4047488D01*
Y4064149D01*
X5515697Y4072480D01*
X5524028D01*
X5532359Y4064149D01*
X5540689Y4072480D01*
X5549020D01*
X5557351Y4064149D01*
Y4047488D01*
X5549020Y4039158D01*
X5540689D01*
X5532359Y4047488D01*
X5524028Y4039158D01*
X5515697D01*
X5532359Y4047488D02*
Y4064149D01*
X7715697Y5680016D02*
X7707367Y5671686D01*
Y5655025D01*
X7715697Y5646694D01*
X7749020D01*
X7757350Y5655025D01*
Y5671686D01*
X7749020Y5680016D01*
X7757350Y5696677D02*
Y5713339D01*
Y5705008D01*
X7707367D01*
X7715697Y5696677D01*
X7757350Y5738331D02*
Y5754992D01*
Y5746661D01*
X7707367D01*
X7715697Y5738331D01*
Y5779984D02*
X7707367Y5788315D01*
Y5804976D01*
X7715697Y5813306D01*
X7724028D01*
X7732359Y5804976D01*
X7740689Y5813306D01*
X7749020D01*
X7757350Y5804976D01*
Y5788315D01*
X7749020Y5779984D01*
X7740689D01*
X7732359Y5788315D01*
X7724028Y5779984D01*
X7715697D01*
X7732359Y5788315D02*
Y5804976D01*
X7715780Y1610016D02*
X7707449Y1601686D01*
Y1585025D01*
X7715780Y1576694D01*
X7749102D01*
X7757433Y1585025D01*
Y1601686D01*
X7749102Y1610016D01*
X7757433Y1626677D02*
Y1643339D01*
Y1635008D01*
X7707449D01*
X7715780Y1626677D01*
X7757433Y1668331D02*
Y1684992D01*
Y1676661D01*
X7707449D01*
X7715780Y1668331D01*
X7749102Y1709984D02*
X7757433Y1718315D01*
Y1734976D01*
X7749102Y1743306D01*
X7715780D01*
X7707449Y1734976D01*
Y1718315D01*
X7715780Y1709984D01*
X7724110D01*
X7732441Y1718315D01*
Y1743306D01*
X6918252Y3916620D02*
X6909921Y3924950D01*
X6893260D01*
X6884929Y3916620D01*
Y3883298D01*
X6893260Y3874967D01*
X6909921D01*
X6918252Y3883298D01*
X6934913Y3874967D02*
X6951574D01*
X6943243D01*
Y3924950D01*
X6934913Y3916620D01*
X6976566D02*
X6984897Y3924950D01*
X7001558D01*
X7009888Y3916620D01*
Y3883298D01*
X7001558Y3874967D01*
X6984897D01*
X6976566Y3883298D01*
Y3916620D01*
X7026550D02*
X7034880Y3924950D01*
X7051541D01*
X7059872Y3916620D01*
Y3883298D01*
X7051541Y3874967D01*
X7034880D01*
X7026550Y3883298D01*
Y3916620D01*
X7519136Y4639639D02*
Y4589655D01*
X7544128D01*
X7552459Y4597986D01*
Y4631308D01*
X7544128Y4639639D01*
X7519136D01*
X7569120Y4589655D02*
X7585781D01*
X7577450D01*
Y4639639D01*
X7569120Y4631308D01*
X7644095Y4639639D02*
X7627434Y4631308D01*
X7610773Y4614647D01*
Y4597986D01*
X7619104Y4589655D01*
X7635765D01*
X7644095Y4597986D01*
Y4606316D01*
X7635765Y4614647D01*
X7610773D01*
X7519136Y2739639D02*
Y2689655D01*
X7544128D01*
X7552459Y2697986D01*
Y2731308D01*
X7544128Y2739639D01*
X7519136D01*
X7569120Y2689655D02*
X7585781D01*
X7577450D01*
Y2739639D01*
X7569120Y2731308D01*
X7610773Y2739639D02*
X7644095D01*
Y2731308D01*
X7610773Y2697986D01*
Y2689655D01*
X7540747Y5039639D02*
Y4989655D01*
X7565739D01*
X7574070Y4997986D01*
Y5031308D01*
X7565739Y5039639D01*
X7540747D01*
X7590731Y5031308D02*
X7599062Y5039639D01*
X7615723D01*
X7624053Y5031308D01*
Y5022978D01*
X7615723Y5014647D01*
X7607392D01*
X7615723D01*
X7624053Y5006316D01*
Y4997986D01*
X7615723Y4989655D01*
X7599062D01*
X7590731Y4997986D01*
X7540747Y3139639D02*
Y3089655D01*
X7565739D01*
X7574070Y3097986D01*
Y3131309D01*
X7565739Y3139639D01*
X7540747D01*
X7615723Y3089655D02*
Y3139639D01*
X7590731Y3114647D01*
X7624053D01*
X2127408Y1736678D02*
X2177392D01*
Y1770000D01*
Y1786661D02*
Y1803323D01*
Y1794992D01*
X2127408D01*
X2135739Y1786661D01*
X2407408Y1728347D02*
X2457392D01*
Y1761670D01*
Y1811653D02*
Y1778331D01*
X2424069Y1811653D01*
X2415739D01*
X2407408Y1803323D01*
Y1786661D01*
X2415739Y1778331D01*
X1301247Y6118508D02*
Y6168492D01*
X1317908Y6151831D01*
X1334570Y6168492D01*
Y6118508D01*
X1384553Y6168492D02*
X1367892Y6160161D01*
X1351231Y6143500D01*
Y6126839D01*
X1359561Y6118508D01*
X1376223D01*
X1384553Y6126839D01*
Y6135169D01*
X1376223Y6143500D01*
X1351231D01*
X5179078Y4985008D02*
Y5034992D01*
X5204070D01*
X5212401Y5026662D01*
Y5010000D01*
X5204070Y5001669D01*
X5179078D01*
X5195739D02*
X5212401Y4985008D01*
X5229062D02*
X5245723D01*
X5237392D01*
Y5034992D01*
X5229062Y5026662D01*
X4970747Y4985008D02*
Y5034992D01*
X4995739D01*
X5004070Y5026662D01*
Y5010000D01*
X4995739Y5001669D01*
X4970747D01*
X4987409D02*
X5004070Y4985008D01*
X5054054D02*
X5020731D01*
X5054054Y5018331D01*
Y5026662D01*
X5045723Y5034992D01*
X5029062D01*
X5020731Y5026662D01*
X4300747Y5205008D02*
Y5254992D01*
X4325739D01*
X4334070Y5246661D01*
Y5230000D01*
X4325739Y5221669D01*
X4300747D01*
X4317408D02*
X4334070Y5205008D01*
X4350731Y5254992D02*
X4384053D01*
Y5246661D01*
X4350731Y5213339D01*
Y5205008D01*
X4907392Y4438347D02*
X4857408D01*
Y4463339D01*
X4865739Y4471670D01*
X4882400D01*
X4890731Y4463339D01*
Y4438347D01*
Y4455008D02*
X4907392Y4471670D01*
X4865739Y4488331D02*
X4857408Y4496662D01*
Y4513323D01*
X4865739Y4521653D01*
X4874069D01*
X4882400Y4513323D01*
X4890731Y4521653D01*
X4899061D01*
X4907392Y4513323D01*
Y4496662D01*
X4899061Y4488331D01*
X4890731D01*
X4882400Y4496662D01*
X4874069Y4488331D01*
X4865739D01*
X4882400Y4496662D02*
Y4513323D01*
X5651101Y4985008D02*
Y5034992D01*
X5676093D01*
X5684423Y5026662D01*
Y5010000D01*
X5676093Y5001669D01*
X5651101D01*
X5667762D02*
X5684423Y4985008D01*
X5701085Y4993339D02*
X5709415Y4985008D01*
X5726076D01*
X5734407Y4993339D01*
Y5026662D01*
X5726076Y5034992D01*
X5709415D01*
X5701085Y5026662D01*
Y5018331D01*
X5709415Y5010000D01*
X5734407D01*
X4290747Y4105008D02*
Y4154992D01*
X4315739D01*
X4324070Y4146662D01*
Y4130000D01*
X4315739Y4121669D01*
X4290747D01*
X4307408D02*
X4324070Y4105008D01*
X4374053Y4154992D02*
X4357392Y4146662D01*
X4340731Y4130000D01*
Y4113339D01*
X4349062Y4105008D01*
X4365723D01*
X4374053Y4113339D01*
Y4121669D01*
X4365723Y4130000D01*
X4340731D01*
X7047392Y3163356D02*
X6997408D01*
Y3188347D01*
X7005739Y3196678D01*
X7022400D01*
X7030731Y3188347D01*
Y3163356D01*
Y3180017D02*
X7047392Y3196678D01*
X7005739Y3213339D02*
X6997408Y3221670D01*
Y3238331D01*
X7005739Y3246662D01*
X7014070D01*
X7022400Y3238331D01*
Y3230000D01*
Y3238331D01*
X7030731Y3246662D01*
X7039061D01*
X7047392Y3238331D01*
Y3221670D01*
X7039061Y3213339D01*
X6997408Y3296645D02*
Y3263323D01*
X7022400D01*
X7014070Y3279984D01*
Y3288315D01*
X7022400Y3296645D01*
X7039061D01*
X7047392Y3288315D01*
Y3271654D01*
X7039061Y3263323D01*
X7649094Y3775008D02*
Y3824992D01*
X7674086D01*
X7682416Y3816661D01*
Y3800000D01*
X7674086Y3791669D01*
X7649094D01*
X7665755D02*
X7682416Y3775008D01*
X7699078D02*
X7715739D01*
X7707408D01*
Y3824992D01*
X7699078Y3816661D01*
X7740731Y3775008D02*
X7757392D01*
X7749061D01*
Y3824992D01*
X7740731Y3816661D01*
X7815706Y3775008D02*
X7782384D01*
X7815706Y3808331D01*
Y3816661D01*
X7807376Y3824992D01*
X7790715D01*
X7782384Y3816661D01*
X4995756Y2115008D02*
Y2164992D01*
X5020747D01*
X5029078Y2156662D01*
Y2140000D01*
X5020747Y2131670D01*
X4995756D01*
X5012417D02*
X5029078Y2115008D01*
X5079062Y2164992D02*
X5045739D01*
Y2140000D01*
X5062400Y2148331D01*
X5070731D01*
X5079062Y2140000D01*
Y2123339D01*
X5070731Y2115008D01*
X5054070D01*
X5045739Y2123339D01*
X5129045Y2164992D02*
X5095723D01*
Y2140000D01*
X5112384Y2148331D01*
X5120715D01*
X5129045Y2140000D01*
Y2123339D01*
X5120715Y2115008D01*
X5104054D01*
X5095723Y2123339D01*
X7649094Y3665008D02*
Y3714992D01*
X7674086D01*
X7682416Y3706661D01*
Y3690000D01*
X7674086Y3681669D01*
X7649094D01*
X7665755D02*
X7682416Y3665008D01*
X7699078D02*
X7715739D01*
X7707408D01*
Y3714992D01*
X7699078Y3706661D01*
X7740731Y3665008D02*
X7757392D01*
X7749061D01*
Y3714992D01*
X7740731Y3706661D01*
X7782384D02*
X7790715Y3714992D01*
X7807376D01*
X7815706Y3706661D01*
Y3698331D01*
X7807376Y3690000D01*
X7799045D01*
X7807376D01*
X7815706Y3681669D01*
Y3673339D01*
X7807376Y3665008D01*
X7790715D01*
X7782384Y3673339D01*
X4337392Y4488347D02*
X4287408D01*
Y4513339D01*
X4295739Y4521670D01*
X4312400D01*
X4320731Y4513339D01*
Y4488347D01*
Y4505008D02*
X4337392Y4521670D01*
Y4563323D02*
X4287408D01*
X4312400Y4538331D01*
Y4571653D01*
X4278251Y3975008D02*
Y4024992D01*
X4303243D01*
X4311574Y4016662D01*
Y4000000D01*
X4303243Y3991669D01*
X4278251D01*
X4294912D02*
X4311574Y3975008D01*
X4328235D02*
X4344896D01*
X4336566D01*
Y4024992D01*
X4328235Y4016662D01*
X4369888Y3975008D02*
X4386549D01*
X4378219D01*
Y4024992D01*
X4369888Y4016662D01*
X3125755Y2135009D02*
Y2184992D01*
X3150747D01*
X3159078Y2176662D01*
Y2160001D01*
X3150747Y2151670D01*
X3125755D01*
X3142417D02*
X3159078Y2135009D01*
X3175739Y2143339D02*
X3184070Y2135009D01*
X3200731D01*
X3209062Y2143339D01*
Y2176662D01*
X3200731Y2184992D01*
X3184070D01*
X3175739Y2176662D01*
Y2168331D01*
X3184070Y2160001D01*
X3209062D01*
X3225723Y2176662D02*
X3234053Y2184992D01*
X3250715D01*
X3259045Y2176662D01*
Y2143339D01*
X3250715Y2135009D01*
X3234053D01*
X3225723Y2143339D01*
Y2176662D01*
X3125755Y2235008D02*
Y2284992D01*
X3150747D01*
X3159078Y2276662D01*
Y2260000D01*
X3150747Y2251670D01*
X3125755D01*
X3142417D02*
X3159078Y2235008D01*
X3175739Y2243339D02*
X3184070Y2235008D01*
X3200731D01*
X3209062Y2243339D01*
Y2276662D01*
X3200731Y2284992D01*
X3184070D01*
X3175739Y2276662D01*
Y2268331D01*
X3184070Y2260000D01*
X3209062D01*
X3259045Y2284992D02*
X3225723D01*
Y2260000D01*
X3242384Y2268331D01*
X3250715D01*
X3259045Y2260000D01*
Y2243339D01*
X3250715Y2235008D01*
X3234053D01*
X3225723Y2243339D01*
X6465756Y3105009D02*
Y3154992D01*
X6490747D01*
X6499078Y3146662D01*
Y3130001D01*
X6490747Y3121670D01*
X6465756D01*
X6482417D02*
X6499078Y3105009D01*
X6515739Y3146662D02*
X6524070Y3154992D01*
X6540731D01*
X6549062Y3146662D01*
Y3138331D01*
X6540731Y3130001D01*
X6532400D01*
X6540731D01*
X6549062Y3121670D01*
Y3113339D01*
X6540731Y3105009D01*
X6524070D01*
X6515739Y3113339D01*
X6599045Y3105009D02*
X6565723D01*
X6599045Y3138331D01*
Y3146662D01*
X6590715Y3154992D01*
X6574054D01*
X6565723Y3146662D01*
X4595756Y5164992D02*
X4629078D01*
X4612417D01*
Y5115008D01*
X4645739D02*
Y5164992D01*
X4670731D01*
X4679062Y5156662D01*
Y5140000D01*
X4670731Y5131669D01*
X4645739D01*
X4729045Y5115008D02*
X4695723D01*
X4729045Y5148331D01*
Y5156662D01*
X4720715Y5164992D01*
X4704054D01*
X4695723Y5156662D01*
X4904086Y4934992D02*
X4937409D01*
X4920747D01*
Y4885008D01*
X4954070D02*
Y4934992D01*
X4979062D01*
X4987392Y4926661D01*
Y4910000D01*
X4979062Y4901669D01*
X4954070D01*
X5004053Y4885008D02*
X5020715D01*
X5012384D01*
Y4934992D01*
X5004053Y4926661D01*
X4715756Y4714992D02*
X4749078D01*
X4732417D01*
Y4665008D01*
X4765739D02*
Y4714992D01*
X4790731D01*
X4799062Y4706661D01*
Y4690000D01*
X4790731Y4681669D01*
X4765739D01*
X4815723Y4706661D02*
X4824054Y4714992D01*
X4840715D01*
X4849045Y4706661D01*
Y4698331D01*
X4840715Y4690000D01*
X4832384D01*
X4840715D01*
X4849045Y4681669D01*
Y4673339D01*
X4840715Y4665008D01*
X4824054D01*
X4815723Y4673339D01*
X4955756Y4344992D02*
X4989078D01*
X4972417D01*
Y4295008D01*
X5005739D02*
Y4344992D01*
X5030731D01*
X5039062Y4336661D01*
Y4320000D01*
X5030731Y4311669D01*
X5005739D01*
X5080715Y4295008D02*
Y4344992D01*
X5055723Y4320000D01*
X5089045D01*
X4417408Y4938347D02*
X4459061D01*
X4467392Y4946677D01*
Y4963339D01*
X4459061Y4971669D01*
X4417408D01*
X4467392Y5021653D02*
Y4988330D01*
X4434069Y5021653D01*
X4425739D01*
X4417408Y5013322D01*
Y4996661D01*
X4425739Y4988330D01*
X4979078Y5254992D02*
Y5213339D01*
X4987409Y5205008D01*
X5004070D01*
X5012401Y5213339D01*
Y5254992D01*
X5029062Y5205008D02*
X5045723D01*
X5037393D01*
Y5254992D01*
X5029062Y5246661D01*
X6708604Y3820470D02*
Y3778817D01*
X6716935Y3770487D01*
X6733596D01*
X6741927Y3778817D01*
Y3820470D01*
X6758588Y3770487D02*
X6775249D01*
X6766919D01*
Y3820470D01*
X6758588Y3812140D01*
X6800241Y3770487D02*
X6816902D01*
X6808572D01*
Y3820470D01*
X6800241Y3812140D01*
X6866108Y2110470D02*
Y2068817D01*
X6874439Y2060486D01*
X6891100D01*
X6899431Y2068817D01*
Y2110470D01*
X6949414Y2060486D02*
X6916092D01*
X6949414Y2093809D01*
Y2102140D01*
X6941084Y2110470D01*
X6924423D01*
X6916092Y2102140D01*
X6999398Y2110470D02*
X6982737Y2102140D01*
X6966075Y2085478D01*
Y2068817D01*
X6974406Y2060486D01*
X6991067D01*
X6999398Y2068817D01*
Y2077147D01*
X6991067Y2085478D01*
X6966075D01*
X6686109Y3120471D02*
Y3078818D01*
X6694439Y3070487D01*
X6711100D01*
X6719431Y3078818D01*
Y3120471D01*
X6769415Y3070487D02*
X6736092D01*
X6769415Y3103810D01*
Y3112140D01*
X6761084Y3120471D01*
X6744423D01*
X6736092Y3112140D01*
X6786076D02*
X6794407Y3120471D01*
X6811068D01*
X6819398Y3112140D01*
Y3103810D01*
X6811068Y3095479D01*
X6802737D01*
X6811068D01*
X6819398Y3087148D01*
Y3078818D01*
X6811068Y3070487D01*
X6794407D01*
X6786076Y3078818D01*
X5806108Y2280471D02*
Y2238818D01*
X5814438Y2230487D01*
X5831100D01*
X5839430Y2238818D01*
Y2280471D01*
X5889414Y2230487D02*
X5856091D01*
X5889414Y2263810D01*
Y2272140D01*
X5881083Y2280471D01*
X5864422D01*
X5856091Y2272140D01*
X5906075D02*
X5914406Y2280471D01*
X5931067D01*
X5939398Y2272140D01*
Y2263810D01*
X5931067Y2255479D01*
X5939398Y2247148D01*
Y2238818D01*
X5931067Y2230487D01*
X5914406D01*
X5906075Y2238818D01*
Y2247148D01*
X5914406Y2255479D01*
X5906075Y2263810D01*
Y2272140D01*
X5914406Y2255479D02*
X5931067D01*
X6700274Y3520470D02*
Y3478818D01*
X6708604Y3470487D01*
X6725265D01*
X6733596Y3478818D01*
Y3520470D01*
X6750257Y3470487D02*
X6766918D01*
X6758588D01*
Y3520470D01*
X6750257Y3512140D01*
X6825233Y3470487D02*
X6791910D01*
X6825233Y3503809D01*
Y3512140D01*
X6816902Y3520470D01*
X6800241D01*
X6791910Y3512140D01*
X7949920Y3902492D02*
Y3860839D01*
X7958251Y3852508D01*
X7974912D01*
X7983243Y3860839D01*
Y3902492D01*
X7999904Y3852508D02*
X8016565D01*
X8008235D01*
Y3902492D01*
X7999904Y3894161D01*
X8074880Y3902492D02*
X8041557D01*
Y3877500D01*
X8058218Y3885831D01*
X8066549D01*
X8074880Y3877500D01*
Y3860839D01*
X8066549Y3852508D01*
X8049888D01*
X8041557Y3860839D01*
X6866108Y2460471D02*
Y2418818D01*
X6874439Y2410487D01*
X6891100D01*
X6899431Y2418818D01*
Y2460471D01*
X6949414Y2410487D02*
X6916092D01*
X6949414Y2443809D01*
Y2452140D01*
X6941084Y2460471D01*
X6924423D01*
X6916092Y2452140D01*
X6991067Y2410487D02*
Y2460471D01*
X6966075Y2435479D01*
X6999398D01*
X6866108Y1800470D02*
Y1758817D01*
X6874439Y1750487D01*
X6891100D01*
X6899431Y1758817D01*
Y1800470D01*
X6949414Y1750487D02*
X6916092D01*
X6949414Y1783809D01*
Y1792140D01*
X6941084Y1800470D01*
X6924423D01*
X6916092Y1792140D01*
X6966075Y1758817D02*
X6974406Y1750487D01*
X6991067D01*
X6999398Y1758817D01*
Y1792140D01*
X6991067Y1800470D01*
X6974406D01*
X6966075Y1792140D01*
Y1783809D01*
X6974406Y1775479D01*
X6999398D01*
X5536109Y2770471D02*
Y2728818D01*
X5544439Y2720487D01*
X5561100D01*
X5569431Y2728818D01*
Y2770471D01*
X5619415Y2720487D02*
X5586092D01*
X5619415Y2753810D01*
Y2762140D01*
X5611084Y2770471D01*
X5594423D01*
X5586092Y2762140D01*
X5636076Y2770471D02*
X5669398D01*
Y2762140D01*
X5636076Y2728818D01*
Y2720487D01*
X6409920Y4554992D02*
Y4513339D01*
X6418251Y4505008D01*
X6434912D01*
X6443243Y4513339D01*
Y4554992D01*
X6459904Y4505008D02*
X6476565D01*
X6468235D01*
Y4554992D01*
X6459904Y4546661D01*
X6501557D02*
X6509888Y4554992D01*
X6526549D01*
X6534880Y4546661D01*
Y4538331D01*
X6526549Y4530000D01*
X6518218D01*
X6526549D01*
X6534880Y4521669D01*
Y4513339D01*
X6526549Y4505008D01*
X6509888D01*
X6501557Y4513339D01*
X8049709Y3617180D02*
Y3575528D01*
X8058040Y3567197D01*
X8074701D01*
X8083032Y3575528D01*
Y3617180D01*
X8099693Y3567197D02*
X8116354D01*
X8108023D01*
Y3617180D01*
X8099693Y3608850D01*
X8166338Y3567197D02*
Y3617180D01*
X8141346Y3592189D01*
X8174668D01*
X2735755Y5064992D02*
Y5023339D01*
X2744086Y5015008D01*
X2760747D01*
X2769078Y5023339D01*
Y5064992D01*
X2819061Y5015008D02*
X2785739D01*
X2819061Y5048331D01*
Y5056661D01*
X2810730Y5064992D01*
X2794069D01*
X2785739Y5056661D01*
X2869045Y5015008D02*
X2835722D01*
X2869045Y5048331D01*
Y5056661D01*
X2860714Y5064992D01*
X2844053D01*
X2835722Y5056661D01*
X5677408Y4358347D02*
X5719061D01*
X5727392Y4366678D01*
Y4383339D01*
X5719061Y4391669D01*
X5677408D01*
X5685739Y4408331D02*
X5677408Y4416661D01*
Y4433322D01*
X5685739Y4441653D01*
X5694069D01*
X5702400Y4433322D01*
Y4424992D01*
Y4433322D01*
X5710731Y4441653D01*
X5719061D01*
X5727392Y4433322D01*
Y4416661D01*
X5719061Y4408331D01*
X4669247Y6116508D02*
Y6166492D01*
X4694239D01*
X4702569Y6158161D01*
Y6141500D01*
X4694239Y6133169D01*
X4669247D01*
X4719231Y6158161D02*
X4727561Y6166492D01*
X4744222D01*
X4752553Y6158161D01*
Y6149831D01*
X4744222Y6141500D01*
X4752553Y6133169D01*
Y6124839D01*
X4744222Y6116508D01*
X4727561D01*
X4719231Y6124839D01*
Y6133169D01*
X4727561Y6141500D01*
X4719231Y6149831D01*
Y6158161D01*
X4727561Y6141500D02*
X4744222D01*
X4669247Y1290508D02*
Y1340492D01*
X4694239D01*
X4702569Y1332161D01*
Y1315500D01*
X4694239Y1307169D01*
X4669247D01*
X4719231Y1298839D02*
X4727561Y1290508D01*
X4744222D01*
X4752553Y1298839D01*
Y1332161D01*
X4744222Y1340492D01*
X4727561D01*
X4719231Y1332161D01*
Y1323831D01*
X4727561Y1315500D01*
X4752553D01*
X3759078Y2366620D02*
X3750747Y2374951D01*
X3734086D01*
X3725755Y2366620D01*
Y2333298D01*
X3734086Y2324967D01*
X3750747D01*
X3759078Y2333298D01*
X3775739Y2374951D02*
X3809061D01*
Y2366620D01*
X3775739Y2333298D01*
Y2324967D01*
X3825723Y2366620D02*
X3834053Y2374951D01*
X3850714D01*
X3859045Y2366620D01*
Y2358289D01*
X3850714Y2349959D01*
X3859045Y2341628D01*
Y2333298D01*
X3850714Y2324967D01*
X3834053D01*
X3825723Y2333298D01*
Y2341628D01*
X3834053Y2349959D01*
X3825723Y2358289D01*
Y2366620D01*
X3834053Y2349959D02*
X3850714D01*
X1990747Y5739639D02*
Y5689655D01*
X2015739D01*
X2024070Y5697986D01*
Y5731309D01*
X2015739Y5739639D01*
X1990747D01*
X2074053D02*
X2040731D01*
Y5714647D01*
X2057392Y5722978D01*
X2065723D01*
X2074053Y5714647D01*
Y5697986D01*
X2065723Y5689655D01*
X2049061D01*
X2040731Y5697986D01*
X4000747Y5739639D02*
Y5689655D01*
X4025739D01*
X4034070Y5697986D01*
Y5731309D01*
X4025739Y5739639D01*
X4000747D01*
X4084053D02*
X4067392Y5731309D01*
X4050731Y5714647D01*
Y5697986D01*
X4059061Y5689655D01*
X4075723D01*
X4084053Y5697986D01*
Y5706317D01*
X4075723Y5714647D01*
X4050731D01*
X4117392Y1663355D02*
X4067408D01*
Y1688347D01*
X4075738Y1696678D01*
X4092400D01*
X4100730Y1688347D01*
Y1663355D01*
Y1680016D02*
X4117392Y1696678D01*
X4075738Y1713339D02*
X4067408Y1721669D01*
Y1738331D01*
X4075738Y1746661D01*
X4084069D01*
X4092400Y1738331D01*
X4100730Y1746661D01*
X4109061D01*
X4117392Y1738331D01*
Y1721669D01*
X4109061Y1713339D01*
X4100730D01*
X4092400Y1721669D01*
X4084069Y1713339D01*
X4075738D01*
X4092400Y1721669D02*
Y1738331D01*
X4067408Y1763322D02*
Y1796645D01*
X4075738D01*
X4109061Y1763322D01*
X4117392D01*
X4227392Y1664355D02*
X4177408D01*
Y1689347D01*
X4185739Y1697678D01*
X4202400D01*
X4210731Y1689347D01*
Y1664355D01*
Y1681016D02*
X4227392Y1697678D01*
X4185739Y1714339D02*
X4177408Y1722670D01*
Y1739331D01*
X4185739Y1747661D01*
X4194069D01*
X4202400Y1739331D01*
X4210731Y1747661D01*
X4219061D01*
X4227392Y1739331D01*
Y1722670D01*
X4219061Y1714339D01*
X4210731D01*
X4202400Y1722670D01*
X4194069Y1714339D01*
X4185739D01*
X4202400Y1722670D02*
Y1739331D01*
X4185739Y1764323D02*
X4177408Y1772653D01*
Y1789314D01*
X4185739Y1797645D01*
X4194069D01*
X4202400Y1789314D01*
X4210731Y1797645D01*
X4219061D01*
X4227392Y1789314D01*
Y1772653D01*
X4219061Y1764323D01*
X4210731D01*
X4202400Y1772653D01*
X4194069Y1764323D01*
X4185739D01*
X4202400Y1772653D02*
Y1789314D01*
X3725755Y2225008D02*
Y2274992D01*
X3750747D01*
X3759078Y2266661D01*
Y2250000D01*
X3750747Y2241669D01*
X3725755D01*
X3742416D02*
X3759078Y2225008D01*
X3775739Y2266661D02*
X3784070Y2274992D01*
X3800731D01*
X3809061Y2266661D01*
Y2258331D01*
X3800731Y2250000D01*
X3809061Y2241669D01*
Y2233339D01*
X3800731Y2225008D01*
X3784070D01*
X3775739Y2233339D01*
Y2241669D01*
X3784070Y2250000D01*
X3775739Y2258331D01*
Y2266661D01*
X3784070Y2250000D02*
X3800731D01*
X3825723Y2233339D02*
X3834053Y2225008D01*
X3850714D01*
X3859045Y2233339D01*
Y2266661D01*
X3850714Y2274992D01*
X3834053D01*
X3825723Y2266661D01*
Y2258331D01*
X3834053Y2250000D01*
X3859045D01*
X3125755Y2335009D02*
Y2384992D01*
X3150747D01*
X3159078Y2376662D01*
Y2360000D01*
X3150747Y2351670D01*
X3125755D01*
X3142417D02*
X3159078Y2335009D01*
X3175739Y2343339D02*
X3184070Y2335009D01*
X3200731D01*
X3209062Y2343339D01*
Y2376662D01*
X3200731Y2384992D01*
X3184070D01*
X3175739Y2376662D01*
Y2368331D01*
X3184070Y2360000D01*
X3209062D01*
X3259045Y2384992D02*
X3242384Y2376662D01*
X3225723Y2360000D01*
Y2343339D01*
X3234053Y2335009D01*
X3250715D01*
X3259045Y2343339D01*
Y2351670D01*
X3250715Y2360000D01*
X3225723D01*
X2727392Y5671686D02*
X2677408D01*
Y5696678D01*
X2685739Y5705008D01*
X2702400D01*
X2710731Y5696678D01*
Y5671686D01*
Y5688347D02*
X2727392Y5705008D01*
X2719061Y5721670D02*
X2727392Y5730000D01*
Y5746661D01*
X2719061Y5754992D01*
X2685739D01*
X2677408Y5746661D01*
Y5730000D01*
X2685739Y5721670D01*
X2694069D01*
X2702400Y5730000D01*
Y5754992D01*
X2727392Y5771653D02*
Y5788314D01*
Y5779984D01*
X2677408D01*
X2685739Y5771653D01*
X4747392Y5663355D02*
X4697408D01*
Y5688347D01*
X4705739Y5696678D01*
X4722400D01*
X4730731Y5688347D01*
Y5663355D01*
Y5680016D02*
X4747392Y5696678D01*
X4739061Y5713339D02*
X4747392Y5721670D01*
Y5738331D01*
X4739061Y5746661D01*
X4705739D01*
X4697408Y5738331D01*
Y5721670D01*
X4705739Y5713339D01*
X4714070D01*
X4722400Y5721670D01*
Y5746661D01*
X4747392Y5796645D02*
Y5763322D01*
X4714070Y5796645D01*
X4705739D01*
X4697408Y5788314D01*
Y5771653D01*
X4705739Y5763322D01*
X3429920Y2264992D02*
Y2223339D01*
X3438251Y2215008D01*
X3454912D01*
X3463243Y2223339D01*
Y2264992D01*
X3479904Y2215008D02*
X3496565D01*
X3488235D01*
Y2264992D01*
X3479904Y2256661D01*
X3521557Y2264992D02*
X3554880D01*
Y2256661D01*
X3521557Y2223339D01*
Y2215008D01*
X5755779Y3770843D02*
X5747449Y3762512D01*
Y3745851D01*
X5755779Y3737520D01*
X5789102D01*
X5797432Y3745851D01*
Y3762512D01*
X5789102Y3770843D01*
X5797432Y3787504D02*
Y3804165D01*
Y3795835D01*
X5747449D01*
X5755779Y3787504D01*
X5797432Y3854149D02*
X5747449D01*
X5772441Y3829157D01*
Y3862480D01*
X2247408Y5158347D02*
X2297392D01*
Y5191670D01*
X2255739Y5208331D02*
X2247408Y5216662D01*
Y5233323D01*
X2255739Y5241653D01*
X2264069D01*
X2272400Y5233323D01*
X2280731Y5241653D01*
X2289061D01*
X2297392Y5233323D01*
Y5216662D01*
X2289061Y5208331D01*
X2280731D01*
X2272400Y5216662D01*
X2264069Y5208331D01*
X2255739D01*
X2272400Y5216662D02*
Y5233323D01*
X3455780Y3066678D02*
X3447449Y3058347D01*
Y3041686D01*
X3455780Y3033355D01*
X3489102D01*
X3497433Y3041686D01*
Y3058347D01*
X3489102Y3066678D01*
X3455780Y3083339D02*
X3447449Y3091670D01*
Y3108331D01*
X3455780Y3116662D01*
X3464110D01*
X3472441Y3108331D01*
X3480772Y3116662D01*
X3489102D01*
X3497433Y3108331D01*
Y3091670D01*
X3489102Y3083339D01*
X3480772D01*
X3472441Y3091670D01*
X3464110Y3083339D01*
X3455780D01*
X3472441Y3091670D02*
Y3108331D01*
X3447449Y3166645D02*
Y3133323D01*
X3472441D01*
X3464110Y3149984D01*
Y3158314D01*
X3472441Y3166645D01*
X3489102D01*
X3497433Y3158314D01*
Y3141653D01*
X3489102Y3133323D01*
X4145697Y2926678D02*
X4137367Y2918347D01*
Y2901686D01*
X4145697Y2893355D01*
X4179020D01*
X4187351Y2901686D01*
Y2918347D01*
X4179020Y2926678D01*
X4145697Y2943339D02*
X4137367Y2951669D01*
Y2968331D01*
X4145697Y2976661D01*
X4154028D01*
X4162359Y2968331D01*
X4170689Y2976661D01*
X4179020D01*
X4187351Y2968331D01*
Y2951669D01*
X4179020Y2943339D01*
X4170689D01*
X4162359Y2951669D01*
X4154028Y2943339D01*
X4145697D01*
X4162359Y2951669D02*
Y2968331D01*
X4137367Y3026645D02*
X4145697Y3009984D01*
X4162359Y2993322D01*
X4179020D01*
X4187351Y3001653D01*
Y3018314D01*
X4179020Y3026645D01*
X4170689D01*
X4162359Y3018314D01*
Y2993322D01*
X3349078Y2946661D02*
X3340747Y2954992D01*
X3324086D01*
X3315755Y2946661D01*
Y2913339D01*
X3324086Y2905008D01*
X3340747D01*
X3349078Y2913339D01*
X3365739D02*
X3374070Y2905008D01*
X3390731D01*
X3399062Y2913339D01*
Y2946661D01*
X3390731Y2954992D01*
X3374070D01*
X3365739Y2946661D01*
Y2938331D01*
X3374070Y2930000D01*
X3399062D01*
X3415723Y2946661D02*
X3424053Y2954992D01*
X3440714D01*
X3449045Y2946661D01*
Y2913339D01*
X3440714Y2905008D01*
X3424053D01*
X3415723Y2913339D01*
Y2946661D01*
X3929078Y2936661D02*
X3920747Y2944992D01*
X3904086D01*
X3895755Y2936661D01*
Y2903339D01*
X3904086Y2895008D01*
X3920747D01*
X3929078Y2903339D01*
X3945739Y2936661D02*
X3954070Y2944992D01*
X3970731D01*
X3979062Y2936661D01*
Y2928331D01*
X3970731Y2920000D01*
X3979062Y2911669D01*
Y2903339D01*
X3970731Y2895008D01*
X3954070D01*
X3945739Y2903339D01*
Y2911669D01*
X3954070Y2920000D01*
X3945739Y2928331D01*
Y2936661D01*
X3954070Y2920000D02*
X3970731D01*
X3995723Y2944992D02*
X4029045D01*
Y2936661D01*
X3995723Y2903339D01*
Y2895008D01*
X2317409Y4206703D02*
X2309078Y4215033D01*
X2292417D01*
X2284086Y4206703D01*
Y4173380D01*
X2292417Y4165050D01*
X2309078D01*
X2317409Y4173380D01*
X2334070D02*
X2342400Y4165050D01*
X2359062D01*
X2367392Y4173380D01*
Y4206703D01*
X2359062Y4215033D01*
X2342400D01*
X2334070Y4206703D01*
Y4198372D01*
X2342400Y4190041D01*
X2367392D01*
X2384053Y4165050D02*
X2400715D01*
X2392384D01*
Y4215033D01*
X2384053Y4206703D01*
X2229078Y3936661D02*
X2220747Y3944992D01*
X2204086D01*
X2195755Y3936661D01*
Y3903339D01*
X2204086Y3895008D01*
X2220747D01*
X2229078Y3903339D01*
X2245739D02*
X2254070Y3895008D01*
X2270731D01*
X2279061Y3903339D01*
Y3936661D01*
X2270731Y3944992D01*
X2254070D01*
X2245739Y3936661D01*
Y3928331D01*
X2254070Y3920000D01*
X2279061D01*
X2329045Y3895008D02*
X2295723D01*
X2329045Y3928331D01*
Y3936661D01*
X2320714Y3944992D01*
X2304053D01*
X2295723Y3936661D01*
X3455779Y3266677D02*
X3447449Y3258347D01*
Y3241686D01*
X3455779Y3233355D01*
X3489102D01*
X3497433Y3241686D01*
Y3258347D01*
X3489102Y3266677D01*
Y3283339D02*
X3497433Y3291669D01*
Y3308330D01*
X3489102Y3316661D01*
X3455779D01*
X3447449Y3308330D01*
Y3291669D01*
X3455779Y3283339D01*
X3464110D01*
X3472441Y3291669D01*
Y3316661D01*
X3455779Y3333322D02*
X3447449Y3341653D01*
Y3358314D01*
X3455779Y3366645D01*
X3464110D01*
X3472441Y3358314D01*
Y3349983D01*
Y3358314D01*
X3480772Y3366645D01*
X3489102D01*
X3497433Y3358314D01*
Y3341653D01*
X3489102Y3333322D01*
X2850747Y5406662D02*
X2842416Y5414992D01*
X2825755D01*
X2817425Y5406662D01*
Y5373339D01*
X2825755Y5365008D01*
X2842416D01*
X2850747Y5373339D01*
X2867408Y5365008D02*
X2884069D01*
X2875739D01*
Y5414992D01*
X2867408Y5406662D01*
X2909061Y5365008D02*
X2925723D01*
X2917392D01*
Y5414992D01*
X2909061Y5406662D01*
X2950715Y5365008D02*
X2967376D01*
X2959045D01*
Y5414992D01*
X2950715Y5406662D01*
X3275738Y3196678D02*
X3267408Y3188347D01*
Y3171686D01*
X3275738Y3163355D01*
X3309061D01*
X3317392Y3171686D01*
Y3188347D01*
X3309061Y3196678D01*
X3275738Y3213339D02*
X3267408Y3221669D01*
Y3238331D01*
X3275738Y3246661D01*
X3284069D01*
X3292400Y3238331D01*
X3300731Y3246661D01*
X3309061D01*
X3317392Y3238331D01*
Y3221669D01*
X3309061Y3213339D01*
X3300731D01*
X3292400Y3221669D01*
X3284069Y3213339D01*
X3275738D01*
X3292400Y3221669D02*
Y3238331D01*
X3275738Y3263322D02*
X3267408Y3271653D01*
Y3288314D01*
X3275738Y3296645D01*
X3284069D01*
X3292400Y3288314D01*
Y3279984D01*
Y3288314D01*
X3300731Y3296645D01*
X3309061D01*
X3317392Y3288314D01*
Y3271653D01*
X3309061Y3263322D01*
X2947409Y4056703D02*
X2939078Y4065033D01*
X2922417D01*
X2914086Y4056703D01*
Y4023380D01*
X2922417Y4015050D01*
X2939078D01*
X2947409Y4023380D01*
X2964070Y4056703D02*
X2972400Y4065033D01*
X2989062D01*
X2997392Y4056703D01*
Y4048372D01*
X2989062Y4040041D01*
X2997392Y4031711D01*
Y4023380D01*
X2989062Y4015050D01*
X2972400D01*
X2964070Y4023380D01*
Y4031711D01*
X2972400Y4040041D01*
X2964070Y4048372D01*
Y4056703D01*
X2972400Y4040041D02*
X2989062D01*
X3014053Y4015050D02*
X3030715D01*
X3022384D01*
Y4065033D01*
X3014053Y4056703D01*
X2899501Y3942845D02*
Y3892861D01*
X2924493D01*
X2932824Y3901192D01*
Y3934514D01*
X2924493Y3942845D01*
X2899501D01*
X2949485Y3892861D02*
X2966146D01*
X2957816D01*
Y3942845D01*
X2949485Y3934514D01*
X2991138Y3892861D02*
X3007799D01*
X2999469D01*
Y3942845D01*
X2991138Y3934514D01*
X2261170Y4092845D02*
Y4042861D01*
X2286162D01*
X2294493Y4051192D01*
Y4084514D01*
X2286162Y4092845D01*
X2261170D01*
X2311154Y4042861D02*
X2327815D01*
X2319485D01*
Y4092845D01*
X2311154Y4084514D01*
X2386130Y4042861D02*
X2352807D01*
X2386130Y4076184D01*
Y4084514D01*
X2377799Y4092845D01*
X2361138D01*
X2352807Y4084514D01*
X2580747Y3854992D02*
Y3805008D01*
X2614070D01*
X2664053Y3854992D02*
X2630731D01*
Y3830000D01*
X2647392Y3838331D01*
X2655723D01*
X2664053Y3830000D01*
Y3813339D01*
X2655723Y3805008D01*
X2639062D01*
X2630731Y3813339D01*
X5477392Y1663355D02*
X5427408D01*
Y1688347D01*
X5435738Y1696678D01*
X5452400D01*
X5460731Y1688347D01*
Y1663355D01*
Y1680016D02*
X5477392Y1696678D01*
X5427408Y1713339D02*
Y1746661D01*
X5435738D01*
X5469061Y1713339D01*
X5477392D01*
X5427408Y1796645D02*
X5435738Y1779983D01*
X5452400Y1763322D01*
X5469061D01*
X5477392Y1771653D01*
Y1788314D01*
X5469061Y1796645D01*
X5460731D01*
X5452400Y1788314D01*
Y1763322D01*
X3367392Y1783355D02*
X3317408D01*
Y1808347D01*
X3325738Y1816677D01*
X3342400D01*
X3350730Y1808347D01*
Y1783355D01*
Y1800016D02*
X3367392Y1816677D01*
X3359061Y1833338D02*
X3367392Y1841669D01*
Y1858330D01*
X3359061Y1866661D01*
X3325738D01*
X3317408Y1858330D01*
Y1841669D01*
X3325738Y1833338D01*
X3334069D01*
X3342400Y1841669D01*
Y1866661D01*
X3325738Y1883322D02*
X3317408Y1891653D01*
Y1908314D01*
X3325738Y1916645D01*
X3334069D01*
X3342400Y1908314D01*
X3350730Y1916645D01*
X3359061D01*
X3367392Y1908314D01*
Y1891653D01*
X3359061Y1883322D01*
X3350730D01*
X3342400Y1891653D01*
X3334069Y1883322D01*
X3325738D01*
X3342400Y1891653D02*
Y1908314D01*
X2947392Y4122529D02*
X2897408D01*
Y4147521D01*
X2905739Y4155851D01*
X2922400D01*
X2930731Y4147521D01*
Y4122529D01*
Y4139190D02*
X2947392Y4155851D01*
Y4172512D02*
Y4189173D01*
Y4180843D01*
X2897408D01*
X2905739Y4172512D01*
Y4214166D02*
X2897408Y4222496D01*
Y4239157D01*
X2905739Y4247488D01*
X2939061D01*
X2947392Y4239157D01*
Y4222496D01*
X2939061Y4214166D01*
X2905739D01*
X2897408Y4297472D02*
Y4264149D01*
X2922400D01*
X2914070Y4280810D01*
Y4289141D01*
X2922400Y4297472D01*
X2939061D01*
X2947392Y4289141D01*
Y4272480D01*
X2939061Y4264149D01*
X2727392Y1673355D02*
X2677408D01*
Y1698347D01*
X2685739Y1706678D01*
X2702400D01*
X2710731Y1698347D01*
Y1673355D01*
Y1690016D02*
X2727392Y1706678D01*
X2719061Y1723339D02*
X2727392Y1731669D01*
Y1748331D01*
X2719061Y1756661D01*
X2685739D01*
X2677408Y1748331D01*
Y1731669D01*
X2685739Y1723339D01*
X2694069D01*
X2702400Y1731669D01*
Y1756661D01*
X2719061Y1773322D02*
X2727392Y1781653D01*
Y1798314D01*
X2719061Y1806645D01*
X2685739D01*
X2677408Y1798314D01*
Y1781653D01*
X2685739Y1773322D01*
X2694069D01*
X2702400Y1781653D01*
Y1806645D01*
X3047392Y4122529D02*
X2997408D01*
Y4147521D01*
X3005739Y4155851D01*
X3022400D01*
X3030731Y4147521D01*
Y4122529D01*
Y4139190D02*
X3047392Y4155851D01*
Y4172512D02*
Y4189173D01*
Y4180843D01*
X2997408D01*
X3005739Y4172512D01*
Y4214166D02*
X2997408Y4222496D01*
Y4239157D01*
X3005739Y4247488D01*
X3039061D01*
X3047392Y4239157D01*
Y4222496D01*
X3039061Y4214166D01*
X3005739D01*
X3047392Y4289141D02*
X2997408D01*
X3022400Y4264149D01*
Y4297472D01*
X1827408Y2488347D02*
Y2521670D01*
Y2505008D01*
X1877392D01*
Y2571653D02*
Y2538331D01*
X1844069Y2571653D01*
X1835739D01*
X1827408Y2563323D01*
Y2546661D01*
X1835739Y2538331D01*
X3749921Y3174993D02*
Y3133340D01*
X3758252Y3125009D01*
X3774913D01*
X3783244Y3133340D01*
Y3174993D01*
X3799905Y3125009D02*
X3816566D01*
X3808235D01*
Y3174993D01*
X3799905Y3166662D01*
X3841558Y3133340D02*
X3849889Y3125009D01*
X3866550D01*
X3874880Y3133340D01*
Y3166662D01*
X3866550Y3174993D01*
X3849889D01*
X3841558Y3166662D01*
Y3158332D01*
X3849889Y3150001D01*
X3874880D01*
X2595756Y4187492D02*
Y4145839D01*
X2604086Y4137509D01*
X2620748D01*
X2629078Y4145839D01*
Y4187492D01*
X2679062Y4137509D02*
X2645739D01*
X2679062Y4170831D01*
Y4179162D01*
X2670731Y4187492D01*
X2654070D01*
X2645739Y4179162D01*
X2695723D02*
X2704054Y4187492D01*
X2720715D01*
X2729046Y4179162D01*
Y4145839D01*
X2720715Y4137509D01*
X2704054D01*
X2695723Y4145839D01*
Y4179162D01*
X3208670Y2037139D02*
Y1987155D01*
X3233662D01*
X3241993Y1995486D01*
Y2028808D01*
X3233662Y2037139D01*
X3208670D01*
X3258654Y1987155D02*
X3275315D01*
X3266985D01*
Y2037139D01*
X3258654Y2028808D01*
X3325299Y1987155D02*
Y2037139D01*
X3300307Y2012147D01*
X3333630D01*
X2617392Y1660859D02*
X2567408D01*
Y1685851D01*
X2575739Y1694182D01*
X2592400D01*
X2600731Y1685851D01*
Y1660859D01*
Y1677520D02*
X2617392Y1694182D01*
Y1710843D02*
Y1727504D01*
Y1719173D01*
X2567408D01*
X2575739Y1710843D01*
Y1752496D02*
X2567408Y1760827D01*
Y1777488D01*
X2575739Y1785818D01*
X2609061D01*
X2617392Y1777488D01*
Y1760827D01*
X2609061Y1752496D01*
X2575739D01*
X2617392Y1802480D02*
Y1819141D01*
Y1810810D01*
X2567408D01*
X2575739Y1802480D01*
X3337392Y5642529D02*
X3287408D01*
Y5667521D01*
X3295738Y5675851D01*
X3312400D01*
X3320730Y5667521D01*
Y5642529D01*
Y5659190D02*
X3337392Y5675851D01*
Y5692512D02*
Y5709173D01*
Y5700843D01*
X3287408D01*
X3295738Y5692512D01*
Y5734166D02*
X3287408Y5742496D01*
Y5759157D01*
X3295738Y5767488D01*
X3329061D01*
X3337392Y5759157D01*
Y5742496D01*
X3329061Y5734166D01*
X3295738D01*
Y5784149D02*
X3287408Y5792480D01*
Y5809141D01*
X3295738Y5817472D01*
X3304069D01*
X3312400Y5809141D01*
Y5800810D01*
Y5809141D01*
X3320730Y5817472D01*
X3329061D01*
X3337392Y5809141D01*
Y5792480D01*
X3329061Y5784149D01*
X5639921Y4715008D02*
Y4764992D01*
X5664912D01*
X5673243Y4756661D01*
Y4740000D01*
X5664912Y4731669D01*
X5639921D01*
X5656582D02*
X5673243Y4715008D01*
X5689904D02*
X5706565D01*
X5698235D01*
Y4764992D01*
X5689904Y4756661D01*
X5764880Y4715008D02*
X5731557D01*
X5764880Y4748331D01*
Y4756661D01*
X5756549Y4764992D01*
X5739888D01*
X5731557Y4756661D01*
X3529078Y1829992D02*
X3562400D01*
X3545739D01*
Y1780008D01*
X3579061D02*
X3595723D01*
X3587392D01*
Y1829992D01*
X3579061Y1821661D01*
X2889920Y1832492D02*
Y1790839D01*
X2898251Y1782508D01*
X2914912D01*
X2923243Y1790839D01*
Y1832492D01*
X2939904Y1782508D02*
X2956565D01*
X2948235D01*
Y1832492D01*
X2939904Y1824161D01*
X2981557D02*
X2989888Y1832492D01*
X3006549D01*
X3014880Y1824161D01*
Y1815831D01*
X3006549Y1807500D01*
X3014880Y1799169D01*
Y1790839D01*
X3006549Y1782508D01*
X2989888D01*
X2981557Y1790839D01*
Y1799169D01*
X2989888Y1807500D01*
X2981557Y1815831D01*
Y1824161D01*
X2989888Y1807500D02*
X3006549D01*
X1287055Y1519648D02*
Y1502986D01*
Y1511317D01*
X1328708D01*
X1337039Y1502986D01*
Y1494656D01*
X1328708Y1486325D01*
X1337039Y1536309D02*
Y1552970D01*
Y1544640D01*
X1287055D01*
X1295386Y1536309D01*
X2247408Y4738347D02*
X2297392D01*
Y4771670D01*
X2289061Y4788331D02*
X2297392Y4796661D01*
Y4813323D01*
X2289061Y4821653D01*
X2255738D01*
X2247408Y4813323D01*
Y4796661D01*
X2255738Y4788331D01*
X2264069D01*
X2272400Y4796661D01*
Y4821653D01*
X2749920Y4704992D02*
Y4655008D01*
X2783243D01*
X2799904D02*
X2816565D01*
X2808235D01*
Y4704992D01*
X2799904Y4696661D01*
X2874880Y4655008D02*
X2841557D01*
X2874880Y4688331D01*
Y4696661D01*
X2866549Y4704992D01*
X2849888D01*
X2841557Y4696661D01*
X1254497Y2425008D02*
Y2474992D01*
X1279489D01*
X1287820Y2466661D01*
Y2450000D01*
X1279489Y2441669D01*
X1254497D01*
X1337803Y2425008D02*
X1304481D01*
X1337803Y2458331D01*
Y2466661D01*
X1329473Y2474992D01*
X1312811D01*
X1304481Y2466661D01*
X8164142Y5032520D02*
X8114158D01*
Y5057512D01*
X8122488Y5065843D01*
X8139150D01*
X8147481Y5057512D01*
Y5032520D01*
X8164142Y5082504D02*
Y5099165D01*
Y5090835D01*
X8114158D01*
X8122488Y5082504D01*
Y5124157D02*
X8114158Y5132488D01*
Y5149149D01*
X8122488Y5157480D01*
X8155811D01*
X8164142Y5149149D01*
Y5132488D01*
X8155811Y5124157D01*
X8122488D01*
X8164141Y2310851D02*
X8114158D01*
Y2335843D01*
X8122488Y2344174D01*
X8139150D01*
X8147480Y2335843D01*
Y2310851D01*
X8164141Y2360835D02*
Y2377496D01*
Y2369166D01*
X8114158D01*
X8122488Y2360835D01*
X8164141Y2402488D02*
Y2419149D01*
Y2410819D01*
X8114158D01*
X8122488Y2402488D01*
X3217392Y5663355D02*
X3167408D01*
Y5688347D01*
X3175739Y5696678D01*
X3192400D01*
X3200731Y5688347D01*
Y5663355D01*
Y5680016D02*
X3217392Y5696678D01*
X3167408Y5746661D02*
Y5713339D01*
X3192400D01*
X3184069Y5730000D01*
Y5738331D01*
X3192400Y5746661D01*
X3209061D01*
X3217392Y5738331D01*
Y5721670D01*
X3209061Y5713339D01*
Y5763322D02*
X3217392Y5771653D01*
Y5788314D01*
X3209061Y5796645D01*
X3175739D01*
X3167408Y5788314D01*
Y5771653D01*
X3175739Y5763322D01*
X3184069D01*
X3192400Y5771653D01*
Y5796645D01*
X1725755Y2165008D02*
Y2214992D01*
X1750747D01*
X1759078Y2206662D01*
Y2190000D01*
X1750747Y2181669D01*
X1725755D01*
X1742416D02*
X1759078Y2165008D01*
X1775739Y2173339D02*
X1784070Y2165008D01*
X1800731D01*
X1809061Y2173339D01*
Y2206662D01*
X1800731Y2214992D01*
X1784070D01*
X1775739Y2206662D01*
Y2198331D01*
X1784070Y2190000D01*
X1809061D01*
X1825723Y2214992D02*
X1859045D01*
Y2206662D01*
X1825723Y2173339D01*
Y2165008D01*
X1704928Y2735008D02*
Y2784992D01*
X1729920D01*
X1738251Y2776661D01*
Y2760000D01*
X1729920Y2751669D01*
X1704928D01*
X1721589D02*
X1738251Y2735008D01*
X1754912D02*
X1771573D01*
X1763243D01*
Y2784992D01*
X1754912Y2776661D01*
X1796565D02*
X1804896Y2784992D01*
X1821557D01*
X1829888Y2776661D01*
Y2743339D01*
X1821557Y2735008D01*
X1804896D01*
X1796565Y2743339D01*
Y2776661D01*
X1846549D02*
X1854879Y2784992D01*
X1871541D01*
X1879871Y2776661D01*
Y2743339D01*
X1871541Y2735008D01*
X1854879D01*
X1846549Y2743339D01*
Y2776661D01*
X1704929Y2275008D02*
Y2324992D01*
X1729920D01*
X1738251Y2316661D01*
Y2300000D01*
X1729920Y2291669D01*
X1704929D01*
X1721590D02*
X1738251Y2275008D01*
X1754912D02*
X1771573D01*
X1763243D01*
Y2324992D01*
X1754912Y2316661D01*
X1796565D02*
X1804896Y2324992D01*
X1821557D01*
X1829888Y2316661D01*
Y2283339D01*
X1821557Y2275008D01*
X1804896D01*
X1796565Y2283339D01*
Y2316661D01*
X1879872Y2275008D02*
X1846549D01*
X1879872Y2308331D01*
Y2316661D01*
X1871541Y2324992D01*
X1854880D01*
X1846549Y2316661D01*
X6465756Y3005009D02*
Y3054992D01*
X6490747D01*
X6499078Y3046662D01*
Y3030001D01*
X6490747Y3021670D01*
X6465756D01*
X6482417D02*
X6499078Y3005009D01*
X6515739Y3046662D02*
X6524070Y3054992D01*
X6540731D01*
X6549062Y3046662D01*
Y3038331D01*
X6540731Y3030001D01*
X6532400D01*
X6540731D01*
X6549062Y3021670D01*
Y3013339D01*
X6540731Y3005009D01*
X6524070D01*
X6515739Y3013339D01*
X6590715Y3005009D02*
Y3054992D01*
X6565723Y3030001D01*
X6599045D01*
X7047392Y2963356D02*
X6997408D01*
Y2988347D01*
X7005739Y2996678D01*
X7022400D01*
X7030731Y2988347D01*
Y2963356D01*
Y2980017D02*
X7047392Y2996678D01*
X7005739Y3013339D02*
X6997408Y3021670D01*
Y3038331D01*
X7005739Y3046662D01*
X7014070D01*
X7022400Y3038331D01*
Y3030000D01*
Y3038331D01*
X7030731Y3046662D01*
X7039061D01*
X7047392Y3038331D01*
Y3021670D01*
X7039061Y3013339D01*
X6997408Y3063323D02*
Y3096645D01*
X7005739D01*
X7039061Y3063323D01*
X7047392D01*
X5807391Y3043356D02*
X5757408D01*
Y3068348D01*
X5765738Y3076678D01*
X5782400D01*
X5790730Y3068348D01*
Y3043356D01*
Y3060017D02*
X5807391Y3076678D01*
X5765738Y3093340D02*
X5757408Y3101670D01*
Y3118331D01*
X5765738Y3126662D01*
X5774069D01*
X5782400Y3118331D01*
Y3110001D01*
Y3118331D01*
X5790730Y3126662D01*
X5799061D01*
X5807391Y3118331D01*
Y3101670D01*
X5799061Y3093340D01*
Y3143323D02*
X5807391Y3151654D01*
Y3168315D01*
X5799061Y3176646D01*
X5765738D01*
X5757408Y3168315D01*
Y3151654D01*
X5765738Y3143323D01*
X5774069D01*
X5782400Y3151654D01*
Y3176646D01*
X6167391Y2123355D02*
X6117408D01*
Y2148347D01*
X6125738Y2156678D01*
X6142399D01*
X6150730Y2148347D01*
Y2123355D01*
Y2140016D02*
X6167391Y2156678D01*
Y2198331D02*
X6117408D01*
X6142399Y2173339D01*
Y2206661D01*
X6117408Y2256645D02*
Y2223322D01*
X6142399D01*
X6134069Y2239984D01*
Y2248314D01*
X6142399Y2256645D01*
X6159061D01*
X6167391Y2248314D01*
Y2231653D01*
X6159061Y2223322D01*
X6645755Y2425008D02*
Y2474992D01*
X6670747D01*
X6679078Y2466662D01*
Y2450000D01*
X6670747Y2441669D01*
X6645755D01*
X6662416D02*
X6679078Y2425008D01*
X6720731D02*
Y2474992D01*
X6695739Y2450000D01*
X6729061D01*
X6745723Y2474992D02*
X6779045D01*
Y2466662D01*
X6745723Y2433339D01*
Y2425008D01*
X7227392Y1973355D02*
X7177408D01*
Y1998347D01*
X7185739Y2006677D01*
X7202400D01*
X7210731Y1998347D01*
Y1973355D01*
Y1990016D02*
X7227392Y2006677D01*
Y2048330D02*
X7177408D01*
X7202400Y2023339D01*
Y2056661D01*
X7219061Y2073322D02*
X7227392Y2081653D01*
Y2098314D01*
X7219061Y2106645D01*
X7185739D01*
X7177408Y2098314D01*
Y2081653D01*
X7185739Y2073322D01*
X7194069D01*
X7202400Y2081653D01*
Y2106645D01*
X7094086Y2325008D02*
Y2374992D01*
X7119078D01*
X7127409Y2366662D01*
Y2350000D01*
X7119078Y2341669D01*
X7094086D01*
X7110747D02*
X7127409Y2325008D01*
X7177392Y2374992D02*
X7144070D01*
Y2350000D01*
X7160731Y2358331D01*
X7169062D01*
X7177392Y2350000D01*
Y2333339D01*
X7169062Y2325008D01*
X7152400D01*
X7144070Y2333339D01*
X7194053Y2325008D02*
X7210715D01*
X7202384D01*
Y2374992D01*
X7194053Y2366662D01*
X7085755Y4025008D02*
Y4074992D01*
X7110747D01*
X7119078Y4066661D01*
Y4050000D01*
X7110747Y4041669D01*
X7085755D01*
X7102416D02*
X7119078Y4025008D01*
X7169061Y4074992D02*
X7135739D01*
Y4050000D01*
X7152400Y4058330D01*
X7160731D01*
X7169061Y4050000D01*
Y4033339D01*
X7160731Y4025008D01*
X7144070D01*
X7135739Y4033339D01*
X7185722Y4066661D02*
X7194053Y4074992D01*
X7210714D01*
X7219045Y4066661D01*
Y4058330D01*
X7210714Y4050000D01*
X7219045Y4041669D01*
Y4033339D01*
X7210714Y4025008D01*
X7194053D01*
X7185722Y4033339D01*
Y4041669D01*
X7194053Y4050000D01*
X7185722Y4058330D01*
Y4066661D01*
X7194053Y4050000D02*
X7210714D01*
X7047392Y3373355D02*
X6997408D01*
Y3398347D01*
X7005738Y3406677D01*
X7022400D01*
X7030730Y3398347D01*
Y3373355D01*
Y3390016D02*
X7047392Y3406677D01*
X7005738Y3423338D02*
X6997408Y3431669D01*
Y3448330D01*
X7005738Y3456661D01*
X7014069D01*
X7022400Y3448330D01*
Y3439999D01*
Y3448330D01*
X7030730Y3456661D01*
X7039061D01*
X7047392Y3448330D01*
Y3431669D01*
X7039061Y3423338D01*
X7005738Y3473322D02*
X6997408Y3481653D01*
Y3498314D01*
X7005738Y3506644D01*
X7014069D01*
X7022400Y3498314D01*
Y3489983D01*
Y3498314D01*
X7030730Y3506644D01*
X7039061D01*
X7047392Y3498314D01*
Y3481653D01*
X7039061Y3473322D01*
X5315755Y3185009D02*
Y3234992D01*
X5340747D01*
X5349078Y3226662D01*
Y3210000D01*
X5340747Y3201670D01*
X5315755D01*
X5332417D02*
X5349078Y3185009D01*
X5365739Y3226662D02*
X5374070Y3234992D01*
X5390731D01*
X5399062Y3226662D01*
Y3218331D01*
X5390731Y3210000D01*
X5382400D01*
X5390731D01*
X5399062Y3201670D01*
Y3193339D01*
X5390731Y3185009D01*
X5374070D01*
X5365739Y3193339D01*
X5449045Y3234992D02*
X5432384Y3226662D01*
X5415723Y3210000D01*
Y3193339D01*
X5424053Y3185009D01*
X5440715D01*
X5449045Y3193339D01*
Y3201670D01*
X5440715Y3210000D01*
X5415723D01*
X5907392Y3243356D02*
X5857408D01*
Y3268348D01*
X5865738Y3276678D01*
X5882400D01*
X5890730Y3268348D01*
Y3243356D01*
Y3260017D02*
X5907392Y3276678D01*
X5865738Y3293340D02*
X5857408Y3301670D01*
Y3318331D01*
X5865738Y3326662D01*
X5874069D01*
X5882400Y3318331D01*
Y3310001D01*
Y3318331D01*
X5890730Y3326662D01*
X5899061D01*
X5907392Y3318331D01*
Y3301670D01*
X5899061Y3293340D01*
X5865738Y3343323D02*
X5857408Y3351654D01*
Y3368315D01*
X5865738Y3376646D01*
X5874069D01*
X5882400Y3368315D01*
X5890730Y3376646D01*
X5899061D01*
X5907392Y3368315D01*
Y3351654D01*
X5899061Y3343323D01*
X5890730D01*
X5882400Y3351654D01*
X5874069Y3343323D01*
X5865738D01*
X5882400Y3351654D02*
Y3368315D01*
X5907392Y3043356D02*
X5857408D01*
Y3068348D01*
X5865738Y3076678D01*
X5882400D01*
X5890730Y3068348D01*
Y3043356D01*
Y3060017D02*
X5907392Y3076678D01*
Y3118331D02*
X5857408D01*
X5882400Y3093340D01*
Y3126662D01*
X5865738Y3143323D02*
X5857408Y3151654D01*
Y3168315D01*
X5865738Y3176646D01*
X5899061D01*
X5907392Y3168315D01*
Y3151654D01*
X5899061Y3143323D01*
X5865738D01*
X4545756Y2215008D02*
Y2264992D01*
X4570748D01*
X4579078Y2256661D01*
Y2240000D01*
X4570748Y2231669D01*
X4545756D01*
X4562417D02*
X4579078Y2215008D01*
X4620731D02*
Y2264992D01*
X4595739Y2240000D01*
X4629062D01*
X4670715Y2215008D02*
Y2264992D01*
X4645723Y2240000D01*
X4679046D01*
X4545756Y2115008D02*
Y2164992D01*
X4570748D01*
X4579078Y2156661D01*
Y2140000D01*
X4570748Y2131669D01*
X4545756D01*
X4562417D02*
X4579078Y2115008D01*
X4620731D02*
Y2164992D01*
X4595739Y2140000D01*
X4629062D01*
X4679046Y2164992D02*
X4662384Y2156661D01*
X4645723Y2140000D01*
Y2123339D01*
X4654054Y2115008D01*
X4670715D01*
X4679046Y2123339D01*
Y2131669D01*
X4670715Y2140000D01*
X4645723D01*
X6645755Y2085008D02*
Y2134992D01*
X6670747D01*
X6679078Y2126661D01*
Y2110000D01*
X6670747Y2101669D01*
X6645755D01*
X6662416D02*
X6679078Y2085008D01*
X6720731D02*
Y2134992D01*
X6695739Y2110000D01*
X6729061D01*
X6745723Y2126661D02*
X6754053Y2134992D01*
X6770714D01*
X6779045Y2126661D01*
Y2118331D01*
X6770714Y2110000D01*
X6779045Y2101669D01*
Y2093339D01*
X6770714Y2085008D01*
X6754053D01*
X6745723Y2093339D01*
Y2101669D01*
X6754053Y2110000D01*
X6745723Y2118331D01*
Y2126661D01*
X6754053Y2110000D02*
X6770714D01*
X6645755Y2325008D02*
Y2374992D01*
X6670747D01*
X6679078Y2366662D01*
Y2350000D01*
X6670747Y2341669D01*
X6645755D01*
X6662416D02*
X6679078Y2325008D01*
X6729061Y2374992D02*
X6695739D01*
Y2350000D01*
X6712400Y2358331D01*
X6720731D01*
X6729061Y2350000D01*
Y2333339D01*
X6720731Y2325008D01*
X6704070D01*
X6695739Y2333339D01*
X6745723Y2366662D02*
X6754053Y2374992D01*
X6770714D01*
X6779045Y2366662D01*
Y2333339D01*
X6770714Y2325008D01*
X6754053D01*
X6745723Y2333339D01*
Y2366662D01*
X6645755Y1765008D02*
Y1814992D01*
X6670747D01*
X6679078Y1806661D01*
Y1790000D01*
X6670747Y1781669D01*
X6645755D01*
X6662416D02*
X6679078Y1765008D01*
X6729061Y1814992D02*
X6695739D01*
Y1790000D01*
X6712400Y1798331D01*
X6720731D01*
X6729061Y1790000D01*
Y1773339D01*
X6720731Y1765008D01*
X6704070D01*
X6695739Y1773339D01*
X6779045Y1765008D02*
X6745723D01*
X6779045Y1798331D01*
Y1806661D01*
X6770714Y1814992D01*
X6754053D01*
X6745723Y1806661D01*
X8247392Y3753355D02*
X8197408D01*
Y3778347D01*
X8205738Y3786677D01*
X8222400D01*
X8230731Y3778347D01*
Y3753355D01*
Y3770016D02*
X8247392Y3786677D01*
X8197408Y3836661D02*
Y3803339D01*
X8222400D01*
X8214069Y3820000D01*
Y3828330D01*
X8222400Y3836661D01*
X8239061D01*
X8247392Y3828330D01*
Y3811669D01*
X8239061Y3803339D01*
X8197408Y3886645D02*
X8205738Y3869983D01*
X8222400Y3853322D01*
X8239061D01*
X8247392Y3861653D01*
Y3878314D01*
X8239061Y3886645D01*
X8230731D01*
X8222400Y3878314D01*
Y3853322D01*
X7877392Y3463355D02*
X7827408D01*
Y3488347D01*
X7835739Y3496678D01*
X7852400D01*
X7860731Y3488347D01*
Y3463355D01*
Y3480016D02*
X7877392Y3496678D01*
X7827408Y3546661D02*
Y3513339D01*
X7852400D01*
X7844069Y3530000D01*
Y3538330D01*
X7852400Y3546661D01*
X7869061D01*
X7877392Y3538330D01*
Y3521669D01*
X7869061Y3513339D01*
X7827408Y3563322D02*
Y3596645D01*
X7835739D01*
X7869061Y3563322D01*
X7877392D01*
X3347392Y4762528D02*
X3297408D01*
Y4787520D01*
X3305739Y4795851D01*
X3322400D01*
X3330731Y4787520D01*
Y4762528D01*
Y4779190D02*
X3347392Y4795851D01*
Y4812512D02*
Y4829173D01*
Y4820843D01*
X3297408D01*
X3305739Y4812512D01*
Y4854165D02*
X3297408Y4862496D01*
Y4879157D01*
X3305739Y4887488D01*
X3339061D01*
X3347392Y4879157D01*
Y4862496D01*
X3339061Y4854165D01*
X3305739D01*
Y4904149D02*
X3297408Y4912480D01*
Y4929141D01*
X3305739Y4937471D01*
X3314069D01*
X3322400Y4929141D01*
X3330731Y4937471D01*
X3339061D01*
X3347392Y4929141D01*
Y4912480D01*
X3339061Y4904149D01*
X3330731D01*
X3322400Y4912480D01*
X3314069Y4904149D01*
X3305739D01*
X3322400Y4912480D02*
Y4929141D01*
X3059094Y5065008D02*
Y5114992D01*
X3084086D01*
X3092416Y5106661D01*
Y5090000D01*
X3084086Y5081669D01*
X3059094D01*
X3075755D02*
X3092416Y5065008D01*
X3109078D02*
X3125739D01*
X3117408D01*
Y5114992D01*
X3109078Y5106661D01*
X3150731Y5065008D02*
X3167392D01*
X3159061D01*
Y5114992D01*
X3150731Y5106661D01*
X3192384D02*
X3200715Y5114992D01*
X3217376D01*
X3225707Y5106661D01*
Y5073339D01*
X3217376Y5065008D01*
X3200715D01*
X3192384Y5073339D01*
Y5106661D01*
X3067425Y5165008D02*
Y5214992D01*
X3092416D01*
X3100747Y5206661D01*
Y5190000D01*
X3092416Y5181669D01*
X3067425D01*
X3084086D02*
X3100747Y5165008D01*
X3117408D02*
X3134069D01*
X3125739D01*
Y5214992D01*
X3117408Y5206661D01*
X3159061Y5165008D02*
X3175723D01*
X3167392D01*
Y5214992D01*
X3159061Y5206661D01*
X3200715Y5165008D02*
X3217376D01*
X3209045D01*
Y5214992D01*
X3200715Y5206661D01*
X4560747Y5215008D02*
Y5264992D01*
X4585739D01*
X4594070Y5256661D01*
Y5240000D01*
X4585739Y5231669D01*
X4560747D01*
X4577408D02*
X4594070Y5215008D01*
X4610731Y5256661D02*
X4619062Y5264992D01*
X4635723D01*
X4644053Y5256661D01*
Y5248331D01*
X4635723Y5240000D01*
X4627392D01*
X4635723D01*
X4644053Y5231669D01*
Y5223339D01*
X4635723Y5215008D01*
X4619062D01*
X4610731Y5223339D01*
X4907392Y4698347D02*
X4857408D01*
Y4723339D01*
X4865739Y4731669D01*
X4882400D01*
X4890731Y4723339D01*
Y4698347D01*
Y4715008D02*
X4907392Y4731669D01*
X4857408Y4781653D02*
Y4748330D01*
X4882400D01*
X4874069Y4764991D01*
Y4773322D01*
X4882400Y4781653D01*
X4899061D01*
X4907392Y4773322D01*
Y4756661D01*
X4899061Y4748330D01*
X3347392Y4962529D02*
X3297408D01*
Y4987520D01*
X3305739Y4995851D01*
X3322400D01*
X3330731Y4987520D01*
Y4962529D01*
Y4979190D02*
X3347392Y4995851D01*
Y5012512D02*
Y5029173D01*
Y5020843D01*
X3297408D01*
X3305739Y5012512D01*
Y5054165D02*
X3297408Y5062496D01*
Y5079157D01*
X3305739Y5087488D01*
X3339061D01*
X3347392Y5079157D01*
Y5062496D01*
X3339061Y5054165D01*
X3305739D01*
X3339061Y5104149D02*
X3347392Y5112480D01*
Y5129141D01*
X3339061Y5137472D01*
X3305739D01*
X3297408Y5129141D01*
Y5112480D01*
X3305739Y5104149D01*
X3314069D01*
X3322400Y5112480D01*
Y5137472D01*
X5257392Y1663355D02*
X5207408D01*
Y1688347D01*
X5215738Y1696678D01*
X5232400D01*
X5240730Y1688347D01*
Y1663355D01*
Y1680016D02*
X5257392Y1696678D01*
X5207408Y1713339D02*
Y1746661D01*
X5215738D01*
X5249061Y1713339D01*
X5257392D01*
X5207408Y1796645D02*
Y1763322D01*
X5232400D01*
X5224069Y1779983D01*
Y1788314D01*
X5232400Y1796645D01*
X5249061D01*
X5257392Y1788314D01*
Y1771653D01*
X5249061Y1763322D01*
X5367392Y1663355D02*
X5317408D01*
Y1688347D01*
X5325738Y1696678D01*
X5342400D01*
X5350730Y1688347D01*
Y1663355D01*
Y1680016D02*
X5367392Y1696678D01*
X5317408Y1713339D02*
Y1746661D01*
X5325738D01*
X5359061Y1713339D01*
X5367392D01*
Y1788314D02*
X5317408D01*
X5342400Y1763322D01*
Y1796645D01*
X5807392Y2831686D02*
X5757408D01*
Y2856678D01*
X5765739Y2865008D01*
X5782400D01*
X5790731Y2856678D01*
Y2831686D01*
Y2848347D02*
X5807392Y2865008D01*
Y2906661D02*
X5757408D01*
X5782400Y2881670D01*
Y2914992D01*
X5807392Y2931653D02*
Y2948314D01*
Y2939984D01*
X5757408D01*
X5765739Y2931653D01*
X5907392Y2823355D02*
X5857408D01*
Y2848347D01*
X5865739Y2856678D01*
X5882400D01*
X5890731Y2848347D01*
Y2823355D01*
Y2840016D02*
X5907392Y2856678D01*
Y2898331D02*
X5857408D01*
X5882400Y2873339D01*
Y2906661D01*
X5907392Y2956645D02*
Y2923323D01*
X5874070Y2956645D01*
X5865739D01*
X5857408Y2948314D01*
Y2931653D01*
X5865739Y2923323D01*
X5547392Y5663355D02*
X5497408D01*
Y5688347D01*
X5505739Y5696678D01*
X5522400D01*
X5530731Y5688347D01*
Y5663355D01*
Y5680016D02*
X5547392Y5696678D01*
X5497408Y5713339D02*
Y5746661D01*
X5505739D01*
X5539061Y5713339D01*
X5547392D01*
Y5796645D02*
Y5763322D01*
X5514069Y5796645D01*
X5505739D01*
X5497408Y5788314D01*
Y5771653D01*
X5505739Y5763322D01*
X5267392Y5663355D02*
X5217408D01*
Y5688347D01*
X5225739Y5696678D01*
X5242400D01*
X5250731Y5688347D01*
Y5663355D01*
Y5680016D02*
X5267392Y5696678D01*
X5217408Y5746661D02*
X5225739Y5730000D01*
X5242400Y5713339D01*
X5259061D01*
X5267392Y5721670D01*
Y5738331D01*
X5259061Y5746661D01*
X5250731D01*
X5242400Y5738331D01*
Y5713339D01*
X5259061Y5763322D02*
X5267392Y5771653D01*
Y5788314D01*
X5259061Y5796645D01*
X5225739D01*
X5217408Y5788314D01*
Y5771653D01*
X5225739Y5763322D01*
X5234069D01*
X5242400Y5771653D01*
Y5796645D01*
X6757392Y5663355D02*
X6707408D01*
Y5688347D01*
X6715739Y5696678D01*
X6732400D01*
X6740731Y5688347D01*
Y5663355D01*
Y5680016D02*
X6757392Y5696678D01*
X6707408Y5713339D02*
Y5746661D01*
X6715739D01*
X6749061Y5713339D01*
X6757392D01*
X6707408Y5763322D02*
Y5796645D01*
X6715739D01*
X6749061Y5763322D01*
X6757392D01*
X6657392Y5663355D02*
X6607408D01*
Y5688347D01*
X6615739Y5696678D01*
X6632400D01*
X6640731Y5688347D01*
Y5663355D01*
Y5680016D02*
X6657392Y5696678D01*
X6607408Y5713339D02*
Y5746661D01*
X6615739D01*
X6649061Y5713339D01*
X6657392D01*
X6615739Y5763322D02*
X6607408Y5771653D01*
Y5788314D01*
X6615739Y5796645D01*
X6624069D01*
X6632400Y5788314D01*
X6640731Y5796645D01*
X6649061D01*
X6657392Y5788314D01*
Y5771653D01*
X6649061Y5763322D01*
X6640731D01*
X6632400Y5771653D01*
X6624069Y5763322D01*
X6615739D01*
X6632400Y5771653D02*
Y5788314D01*
X5777392Y5663355D02*
X5727408D01*
Y5688347D01*
X5735739Y5696678D01*
X5752400D01*
X5760731Y5688347D01*
Y5663355D01*
Y5680016D02*
X5777392Y5696678D01*
X5735739Y5713339D02*
X5727408Y5721670D01*
Y5738331D01*
X5735739Y5746661D01*
X5744069D01*
X5752400Y5738331D01*
X5760731Y5746661D01*
X5769061D01*
X5777392Y5738331D01*
Y5721670D01*
X5769061Y5713339D01*
X5760731D01*
X5752400Y5721670D01*
X5744069Y5713339D01*
X5735739D01*
X5752400Y5721670D02*
Y5738331D01*
X5727408Y5796645D02*
Y5763322D01*
X5752400D01*
X5744069Y5779984D01*
Y5788314D01*
X5752400Y5796645D01*
X5769061D01*
X5777392Y5788314D01*
Y5771653D01*
X5769061Y5763322D01*
X5877392Y5663355D02*
X5827408D01*
Y5688347D01*
X5835739Y5696678D01*
X5852400D01*
X5860731Y5688347D01*
Y5663355D01*
Y5680016D02*
X5877392Y5696678D01*
X5835739Y5713339D02*
X5827408Y5721670D01*
Y5738331D01*
X5835739Y5746661D01*
X5844069D01*
X5852400Y5738331D01*
X5860731Y5746661D01*
X5869061D01*
X5877392Y5738331D01*
Y5721670D01*
X5869061Y5713339D01*
X5860731D01*
X5852400Y5721670D01*
X5844069Y5713339D01*
X5835739D01*
X5852400Y5721670D02*
Y5738331D01*
X5827408Y5796645D02*
X5835739Y5779984D01*
X5852400Y5763322D01*
X5869061D01*
X5877392Y5771653D01*
Y5788314D01*
X5869061Y5796645D01*
X5860731D01*
X5852400Y5788314D01*
Y5763322D01*
X3667392Y5663355D02*
X3617408D01*
Y5688347D01*
X3625739Y5696678D01*
X3642400D01*
X3650731Y5688347D01*
Y5663355D01*
Y5680016D02*
X3667392Y5696678D01*
X3617408Y5746661D02*
X3625739Y5730000D01*
X3642400Y5713339D01*
X3659061D01*
X3667392Y5721670D01*
Y5738331D01*
X3659061Y5746661D01*
X3650731D01*
X3642400Y5738331D01*
Y5713339D01*
X3625739Y5763322D02*
X3617408Y5771653D01*
Y5788314D01*
X3625739Y5796645D01*
X3659061D01*
X3667392Y5788314D01*
Y5771653D01*
X3659061Y5763322D01*
X3625739D01*
X3557392Y5671686D02*
X3507408D01*
Y5696678D01*
X3515739Y5705008D01*
X3532400D01*
X3540731Y5696678D01*
Y5671686D01*
Y5688347D02*
X3557392Y5705008D01*
X3507408Y5754992D02*
X3515739Y5738331D01*
X3532400Y5721670D01*
X3549061D01*
X3557392Y5730000D01*
Y5746661D01*
X3549061Y5754992D01*
X3540731D01*
X3532400Y5746661D01*
Y5721670D01*
X3557392Y5771653D02*
Y5788314D01*
Y5779984D01*
X3507408D01*
X3515739Y5771653D01*
X3807392Y5663355D02*
X3757408D01*
Y5688347D01*
X3765739Y5696678D01*
X3782400D01*
X3790731Y5688347D01*
Y5663355D01*
Y5680016D02*
X3807392Y5696678D01*
X3757408Y5746661D02*
X3765739Y5730000D01*
X3782400Y5713339D01*
X3799061D01*
X3807392Y5721670D01*
Y5738331D01*
X3799061Y5746661D01*
X3790731D01*
X3782400Y5738331D01*
Y5713339D01*
X3807392Y5796645D02*
Y5763322D01*
X3774069Y5796645D01*
X3765739D01*
X3757408Y5788314D01*
Y5771653D01*
X3765739Y5763322D01*
X6495756Y3365008D02*
Y3414992D01*
X6520748D01*
X6529078Y3406661D01*
Y3390000D01*
X6520748Y3381669D01*
X6495756D01*
X6512417D02*
X6529078Y3365008D01*
X6579062Y3414992D02*
X6562401Y3406661D01*
X6545740Y3390000D01*
Y3373339D01*
X6554070Y3365008D01*
X6570731D01*
X6579062Y3373339D01*
Y3381669D01*
X6570731Y3390000D01*
X6545740D01*
X6595723Y3406661D02*
X6604054Y3414992D01*
X6620715D01*
X6629046Y3406661D01*
Y3398331D01*
X6620715Y3390000D01*
X6612384D01*
X6620715D01*
X6629046Y3381669D01*
Y3373339D01*
X6620715Y3365008D01*
X6604054D01*
X6595723Y3373339D01*
X3837392Y1664355D02*
X3787408D01*
Y1689347D01*
X3795739Y1697678D01*
X3812400D01*
X3820731Y1689347D01*
Y1664355D01*
Y1681016D02*
X3837392Y1697678D01*
X3787408Y1747661D02*
X3795739Y1731000D01*
X3812400Y1714339D01*
X3829061D01*
X3837392Y1722670D01*
Y1739331D01*
X3829061Y1747661D01*
X3820731D01*
X3812400Y1739331D01*
Y1714339D01*
X3837392Y1789314D02*
X3787408D01*
X3812400Y1764323D01*
Y1797645D01*
X3947392Y1663355D02*
X3897408D01*
Y1688347D01*
X3905738Y1696678D01*
X3922400D01*
X3930731Y1688347D01*
Y1663355D01*
Y1680016D02*
X3947392Y1696678D01*
X3897408Y1746661D02*
X3905738Y1730000D01*
X3922400Y1713339D01*
X3939061D01*
X3947392Y1721669D01*
Y1738331D01*
X3939061Y1746661D01*
X3930731D01*
X3922400Y1738331D01*
Y1713339D01*
X3897408Y1796645D02*
Y1763322D01*
X3922400D01*
X3914069Y1779983D01*
Y1788314D01*
X3922400Y1796645D01*
X3939061D01*
X3947392Y1788314D01*
Y1771653D01*
X3939061Y1763322D01*
X4767392Y1663355D02*
X4717408D01*
Y1688347D01*
X4725738Y1696678D01*
X4742400D01*
X4750730Y1688347D01*
Y1663355D01*
Y1680016D02*
X4767392Y1696678D01*
X4717408Y1746661D02*
X4725738Y1730000D01*
X4742400Y1713339D01*
X4759061D01*
X4767392Y1721669D01*
Y1738331D01*
X4759061Y1746661D01*
X4750730D01*
X4742400Y1738331D01*
Y1713339D01*
X4717408Y1796645D02*
X4725738Y1779983D01*
X4742400Y1763322D01*
X4759061D01*
X4767392Y1771653D01*
Y1788314D01*
X4759061Y1796645D01*
X4750730D01*
X4742400Y1788314D01*
Y1763322D01*
X5657392Y5663355D02*
X5607408D01*
Y5688347D01*
X5615739Y5696678D01*
X5632400D01*
X5640731Y5688347D01*
Y5663355D01*
Y5680016D02*
X5657392Y5696678D01*
X5607408Y5746661D02*
X5615739Y5730000D01*
X5632400Y5713339D01*
X5649061D01*
X5657392Y5721670D01*
Y5738331D01*
X5649061Y5746661D01*
X5640731D01*
X5632400Y5738331D01*
Y5713339D01*
X5607408Y5763322D02*
Y5796645D01*
X5615739D01*
X5649061Y5763322D01*
X5657392D01*
X4877392Y1663355D02*
X4827408D01*
Y1688347D01*
X4835738Y1696678D01*
X4852400D01*
X4860730Y1688347D01*
Y1663355D01*
Y1680016D02*
X4877392Y1696678D01*
X4827408Y1746661D02*
X4835738Y1730000D01*
X4852400Y1713339D01*
X4869061D01*
X4877392Y1721669D01*
Y1738331D01*
X4869061Y1746661D01*
X4860730D01*
X4852400Y1738331D01*
Y1713339D01*
X4835738Y1763322D02*
X4827408Y1771653D01*
Y1788314D01*
X4835738Y1796645D01*
X4844069D01*
X4852400Y1788314D01*
X4860730Y1796645D01*
X4869061D01*
X4877392Y1788314D01*
Y1771653D01*
X4869061Y1763322D01*
X4860730D01*
X4852400Y1771653D01*
X4844069Y1763322D01*
X4835738D01*
X4852400Y1771653D02*
Y1788314D01*
X3815739Y5200016D02*
X3807408Y5191686D01*
Y5175024D01*
X3815739Y5166694D01*
X3849061D01*
X3857392Y5175024D01*
Y5191686D01*
X3849061Y5200016D01*
X3857392Y5216677D02*
Y5233339D01*
Y5225008D01*
X3807408D01*
X3815739Y5216677D01*
X3857392Y5258331D02*
Y5274992D01*
Y5266661D01*
X3807408D01*
X3815739Y5258331D01*
X3857392Y5333306D02*
Y5299984D01*
X3824069Y5333306D01*
X3815739D01*
X3807408Y5324976D01*
Y5308315D01*
X3815739Y5299984D01*
X4149136Y2389639D02*
Y2339656D01*
X4174128D01*
X4182459Y2347986D01*
Y2381309D01*
X4174128Y2389639D01*
X4149136D01*
X4199120Y2339656D02*
X4215781D01*
X4207451D01*
Y2389639D01*
X4199120Y2381309D01*
X4240773D02*
X4249104Y2389639D01*
X4265765D01*
X4274096Y2381309D01*
Y2372978D01*
X4265765Y2364648D01*
X4257434D01*
X4265765D01*
X4274096Y2356317D01*
Y2347986D01*
X4265765Y2339656D01*
X4249104D01*
X4240773Y2347986D01*
X5585755Y1745008D02*
Y1794992D01*
X5610747D01*
X5619078Y1786662D01*
Y1770000D01*
X5610747Y1761670D01*
X5585755D01*
X5602416D02*
X5619078Y1745008D01*
X5635739Y1794992D02*
X5669061D01*
Y1786662D01*
X5635739Y1753339D01*
Y1745008D01*
X5685722Y1786662D02*
X5694053Y1794992D01*
X5710714D01*
X5719045Y1786662D01*
Y1753339D01*
X5710714Y1745008D01*
X5694053D01*
X5685722Y1753339D01*
Y1786662D01*
X5017392Y1671686D02*
X4967408D01*
Y1696678D01*
X4975738Y1705008D01*
X4992400D01*
X5000730Y1696678D01*
Y1671686D01*
Y1688347D02*
X5017392Y1705008D01*
X4967408Y1721669D02*
Y1754992D01*
X4975738D01*
X5009061Y1721669D01*
X5017392D01*
Y1771653D02*
Y1788314D01*
Y1779984D01*
X4967408D01*
X4975738Y1771653D01*
X7085755Y4135008D02*
Y4184992D01*
X7110747D01*
X7119078Y4176661D01*
Y4160000D01*
X7110747Y4151669D01*
X7085755D01*
X7102416D02*
X7119078Y4135008D01*
X7135739Y4184992D02*
X7169061D01*
Y4176661D01*
X7135739Y4143339D01*
Y4135008D01*
X7185722Y4176661D02*
X7194053Y4184992D01*
X7210714D01*
X7219045Y4176661D01*
Y4168330D01*
X7210714Y4160000D01*
X7202384D01*
X7210714D01*
X7219045Y4151669D01*
Y4143339D01*
X7210714Y4135008D01*
X7194053D01*
X7185722Y4143339D01*
X5127392Y1671686D02*
X5077408D01*
Y1696678D01*
X5085738Y1705008D01*
X5102400D01*
X5110730Y1696678D01*
Y1671686D01*
Y1688347D02*
X5127392Y1705008D01*
X5085738Y1721669D02*
X5077408Y1730000D01*
Y1746661D01*
X5085738Y1754992D01*
X5094069D01*
X5102400Y1746661D01*
X5110730Y1754992D01*
X5119061D01*
X5127392Y1746661D01*
Y1730000D01*
X5119061Y1721669D01*
X5110730D01*
X5102400Y1730000D01*
X5094069Y1721669D01*
X5085738D01*
X5102400Y1730000D02*
Y1746661D01*
X5127392Y1771653D02*
Y1788314D01*
Y1779984D01*
X5077408D01*
X5085738Y1771653D01*
X4487392Y1663355D02*
X4437408D01*
Y1688347D01*
X4445738Y1696678D01*
X4462400D01*
X4470730Y1688347D01*
Y1663355D01*
Y1680016D02*
X4487392Y1696678D01*
X4445738Y1713339D02*
X4437408Y1721669D01*
Y1738331D01*
X4445738Y1746661D01*
X4454069D01*
X4462400Y1738331D01*
X4470730Y1746661D01*
X4479061D01*
X4487392Y1738331D01*
Y1721669D01*
X4479061Y1713339D01*
X4470730D01*
X4462400Y1721669D01*
X4454069Y1713339D01*
X4445738D01*
X4462400Y1721669D02*
Y1738331D01*
X4487392Y1788314D02*
X4437408D01*
X4462400Y1763322D01*
Y1796645D01*
X4134929Y2445009D02*
Y2494992D01*
X4159921D01*
X4168251Y2486662D01*
Y2470000D01*
X4159921Y2461670D01*
X4134929D01*
X4151590D02*
X4168251Y2445009D01*
X4184912D02*
X4201574D01*
X4193243D01*
Y2494992D01*
X4184912Y2486662D01*
X4226566D02*
X4234896Y2494992D01*
X4251557D01*
X4259888Y2486662D01*
Y2453339D01*
X4251557Y2445009D01*
X4234896D01*
X4226566Y2453339D01*
Y2486662D01*
X4309872Y2494992D02*
X4293210Y2486662D01*
X4276549Y2470000D01*
Y2453339D01*
X4284880Y2445009D01*
X4301541D01*
X4309872Y2453339D01*
Y2461670D01*
X4301541Y2470000D01*
X4276549D01*
X2768251Y3446661D02*
X2759920Y3454992D01*
X2743259D01*
X2734928Y3446661D01*
Y3413339D01*
X2743259Y3405008D01*
X2759920D01*
X2768251Y3413339D01*
X2784912Y3405008D02*
X2801573D01*
X2793243D01*
Y3454992D01*
X2784912Y3446661D01*
X2826565D02*
X2834896Y3454992D01*
X2851557D01*
X2859888Y3446661D01*
Y3413339D01*
X2851557Y3405008D01*
X2834896D01*
X2826565Y3413339D01*
Y3446661D01*
X2909871Y3405008D02*
X2876549D01*
X2909871Y3438331D01*
Y3446661D01*
X2901541Y3454992D01*
X2884879D01*
X2876549Y3446661D01*
X2776581Y3216662D02*
X2768251Y3224992D01*
X2751590D01*
X2743259Y3216662D01*
Y3183339D01*
X2751590Y3175008D01*
X2768251D01*
X2776581Y3183339D01*
X2793243Y3175008D02*
X2809904D01*
X2801573D01*
Y3224992D01*
X2793243Y3216662D01*
X2834896D02*
X2843226Y3224992D01*
X2859888D01*
X2868218Y3216662D01*
Y3183339D01*
X2859888Y3175008D01*
X2843226D01*
X2834896Y3183339D01*
Y3216662D01*
X2884879Y3175008D02*
X2901541D01*
X2893210D01*
Y3224992D01*
X2884879Y3216662D01*
X4529078Y4366661D02*
X4520747Y4374992D01*
X4504086D01*
X4495755Y4366661D01*
Y4333339D01*
X4504086Y4325008D01*
X4520747D01*
X4529078Y4333339D01*
X4579061Y4325008D02*
X4545739D01*
X4579061Y4358331D01*
Y4366661D01*
X4570731Y4374992D01*
X4554070D01*
X4545739Y4366661D01*
X4629045Y4374992D02*
X4595723D01*
Y4350000D01*
X4612384Y4358331D01*
X4620714D01*
X4629045Y4350000D01*
Y4333339D01*
X4620714Y4325008D01*
X4604053D01*
X4595723Y4333339D01*
X5495739Y3736678D02*
X5487408Y3728347D01*
Y3711686D01*
X5495739Y3703355D01*
X5529061D01*
X5537392Y3711686D01*
Y3728347D01*
X5529061Y3736678D01*
X5537392Y3786661D02*
Y3753339D01*
X5504070Y3786661D01*
X5495739D01*
X5487408Y3778331D01*
Y3761669D01*
X5495739Y3753339D01*
X5487408Y3836645D02*
X5495739Y3819983D01*
X5512400Y3803322D01*
X5529061D01*
X5537392Y3811653D01*
Y3828314D01*
X5529061Y3836645D01*
X5520731D01*
X5512400Y3828314D01*
Y3803322D01*
X3208670Y1717139D02*
Y1667155D01*
X3233662D01*
X3241993Y1675486D01*
Y1708808D01*
X3233662Y1717139D01*
X3208670D01*
X3258654Y1667155D02*
X3275315D01*
X3266985D01*
Y1717139D01*
X3258654Y1708808D01*
X3300307D02*
X3308638Y1717139D01*
X3325299D01*
X3333630Y1708808D01*
Y1675486D01*
X3325299Y1667155D01*
X3308638D01*
X3300307Y1675486D01*
Y1708808D01*
X2619078Y1926703D02*
X2610747Y1935033D01*
X2594086D01*
X2585755Y1926703D01*
Y1893380D01*
X2594086Y1885049D01*
X2610747D01*
X2619078Y1893380D01*
X2635739Y1935033D02*
X2669061D01*
Y1926703D01*
X2635739Y1893380D01*
Y1885049D01*
X2685723Y1893380D02*
X2694053Y1885049D01*
X2710714D01*
X2719045Y1893380D01*
Y1926703D01*
X2710714Y1935033D01*
X2694053D01*
X2685723Y1926703D01*
Y1918372D01*
X2694053Y1910041D01*
X2719045D01*
X2339963Y5739639D02*
Y5689655D01*
X2364954D01*
X2373285Y5697986D01*
Y5731309D01*
X2364954Y5739639D01*
X2339963D01*
X2389946D02*
X2423269D01*
Y5731309D01*
X2389946Y5697986D01*
Y5689655D01*
X4349963Y5739639D02*
Y5689655D01*
X4374955D01*
X4383285Y5697986D01*
Y5731309D01*
X4374955Y5739639D01*
X4349963D01*
X4399946Y5731309D02*
X4408277Y5739639D01*
X4424938D01*
X4433269Y5731309D01*
Y5722978D01*
X4424938Y5714647D01*
X4433269Y5706317D01*
Y5697986D01*
X4424938Y5689655D01*
X4408277D01*
X4399946Y5697986D01*
Y5706317D01*
X4408277Y5714647D01*
X4399946Y5722978D01*
Y5731309D01*
X4408277Y5714647D02*
X4424938D01*
X4637392Y5663355D02*
X4587408D01*
Y5688347D01*
X4595739Y5696678D01*
X4612400D01*
X4620731Y5688347D01*
Y5663355D01*
Y5680016D02*
X4637392Y5696678D01*
X4629061Y5713339D02*
X4637392Y5721670D01*
Y5738331D01*
X4629061Y5746661D01*
X4595739D01*
X4587408Y5738331D01*
Y5721670D01*
X4595739Y5713339D01*
X4604070D01*
X4612400Y5721670D01*
Y5746661D01*
X4637392Y5788314D02*
X4587408D01*
X4612400Y5763322D01*
Y5796645D01*
X5679921Y5315008D02*
Y5364992D01*
X5704912D01*
X5713243Y5356661D01*
Y5340000D01*
X5704912Y5331669D01*
X5679921D01*
X5696582D02*
X5713243Y5315008D01*
X5729904D02*
X5746565D01*
X5738235D01*
Y5364992D01*
X5729904Y5356661D01*
X5771557D02*
X5779888Y5364992D01*
X5796549D01*
X5804880Y5356661D01*
Y5348331D01*
X5796549Y5340000D01*
X5804880Y5331669D01*
Y5323339D01*
X5796549Y5315008D01*
X5779888D01*
X5771557Y5323339D01*
Y5331669D01*
X5779888Y5340000D01*
X5771557Y5348331D01*
Y5356661D01*
X5779888Y5340000D02*
X5796549D01*
X6475756Y3725008D02*
Y3774992D01*
X6500748D01*
X6509078Y3766662D01*
Y3750000D01*
X6500748Y3741669D01*
X6475756D01*
X6492417D02*
X6509078Y3725008D01*
X6525740Y3766662D02*
X6534070Y3774992D01*
X6550731D01*
X6559062Y3766662D01*
Y3758331D01*
X6550731Y3750000D01*
X6542401D01*
X6550731D01*
X6559062Y3741669D01*
Y3733339D01*
X6550731Y3725008D01*
X6534070D01*
X6525740Y3733339D01*
X6575723Y3766662D02*
X6584054Y3774992D01*
X6600715D01*
X6609046Y3766662D01*
Y3733339D01*
X6600715Y3725008D01*
X6584054D01*
X6575723Y3733339D01*
Y3766662D01*
X7047392Y3691686D02*
X6997408D01*
Y3716678D01*
X7005739Y3725008D01*
X7022400D01*
X7030731Y3716678D01*
Y3691686D01*
Y3708347D02*
X7047392Y3725008D01*
X7005739Y3741669D02*
X6997408Y3750000D01*
Y3766661D01*
X7005739Y3774992D01*
X7014070D01*
X7022400Y3766661D01*
Y3758331D01*
Y3766661D01*
X7030731Y3774992D01*
X7039061D01*
X7047392Y3766661D01*
Y3750000D01*
X7039061Y3741669D01*
X7047392Y3791653D02*
Y3808314D01*
Y3799984D01*
X6997408D01*
X7005739Y3791653D01*
X7127392Y1673355D02*
X7077408D01*
Y1698347D01*
X7085739Y1706678D01*
X7102400D01*
X7110731Y1698347D01*
Y1673355D01*
Y1690016D02*
X7127392Y1706678D01*
X7077408Y1756661D02*
Y1723339D01*
X7102400D01*
X7094069Y1740000D01*
Y1748331D01*
X7102400Y1756661D01*
X7119061D01*
X7127392Y1748331D01*
Y1731669D01*
X7119061Y1723339D01*
X7085739Y1773322D02*
X7077408Y1781653D01*
Y1798314D01*
X7085739Y1806645D01*
X7094069D01*
X7102400Y1798314D01*
Y1789983D01*
Y1798314D01*
X7110731Y1806645D01*
X7119061D01*
X7127392Y1798314D01*
Y1781653D01*
X7119061Y1773322D01*
X7227392Y1673355D02*
X7177408D01*
Y1698347D01*
X7185738Y1706678D01*
X7202400D01*
X7210731Y1698347D01*
Y1673355D01*
Y1690016D02*
X7227392Y1706678D01*
X7177408Y1756661D02*
Y1723339D01*
X7202400D01*
X7194069Y1740000D01*
Y1748331D01*
X7202400Y1756661D01*
X7219061D01*
X7227392Y1748331D01*
Y1731669D01*
X7219061Y1723339D01*
X7227392Y1798314D02*
X7177408D01*
X7202400Y1773322D01*
Y1806645D01*
X5484070Y4756620D02*
X5475739Y4764950D01*
X5459078D01*
X5450747Y4756620D01*
Y4723297D01*
X5459078Y4714967D01*
X5475739D01*
X5484070Y4723297D01*
X5534053Y4764950D02*
X5517392Y4756620D01*
X5500731Y4739959D01*
Y4723297D01*
X5509062Y4714967D01*
X5525723D01*
X5534053Y4723297D01*
Y4731628D01*
X5525723Y4739959D01*
X5500731D01*
X3175739Y4056677D02*
X3167408Y4048347D01*
Y4031686D01*
X3175739Y4023355D01*
X3209061D01*
X3217392Y4031686D01*
Y4048347D01*
X3209061Y4056677D01*
X3175739Y4073339D02*
X3167408Y4081669D01*
Y4098330D01*
X3175739Y4106661D01*
X3184069D01*
X3192400Y4098330D01*
X3200731Y4106661D01*
X3209061D01*
X3217392Y4098330D01*
Y4081669D01*
X3209061Y4073339D01*
X3200731D01*
X3192400Y4081669D01*
X3184069Y4073339D01*
X3175739D01*
X3192400Y4081669D02*
Y4098330D01*
X3217392Y4156645D02*
Y4123322D01*
X3184069Y4156645D01*
X3175739D01*
X3167408Y4148314D01*
Y4131653D01*
X3175739Y4123322D01*
X3139078Y2836702D02*
X3130747Y2845033D01*
X3114086D01*
X3105755Y2836702D01*
Y2803380D01*
X3114086Y2795049D01*
X3130747D01*
X3139078Y2803380D01*
X3155739D02*
X3164070Y2795049D01*
X3180731D01*
X3189061Y2803380D01*
Y2836702D01*
X3180731Y2845033D01*
X3164070D01*
X3155739Y2836702D01*
Y2828372D01*
X3164070Y2820041D01*
X3189061D01*
X3239045Y2845033D02*
X3222384Y2836702D01*
X3205723Y2820041D01*
Y2803380D01*
X3214053Y2795049D01*
X3230714D01*
X3239045Y2803380D01*
Y2811710D01*
X3230714Y2820041D01*
X3205723D01*
X7595780Y2275851D02*
X7587449Y2267520D01*
Y2250859D01*
X7595780Y2242528D01*
X7629102D01*
X7637433Y2250859D01*
Y2267520D01*
X7629102Y2275851D01*
X7637433Y2292512D02*
Y2309173D01*
Y2300843D01*
X7587449D01*
X7595780Y2292512D01*
X7637433Y2367488D02*
Y2334165D01*
X7604111Y2367488D01*
X7595780D01*
X7587449Y2359157D01*
Y2342496D01*
X7595780Y2334165D01*
X7637433Y2417471D02*
Y2384149D01*
X7604111Y2417471D01*
X7595780D01*
X7587449Y2409141D01*
Y2392480D01*
X7595780Y2384149D01*
X3514086Y2694992D02*
Y2653339D01*
X3522416Y2645008D01*
X3539078D01*
X3547408Y2653339D01*
Y2694992D01*
X3597392Y2645008D02*
X3564069D01*
X3597392Y2678330D01*
Y2686661D01*
X3589061Y2694992D01*
X3572400D01*
X3564069Y2686661D01*
X3614053Y2645008D02*
X3630714D01*
X3622384D01*
Y2694992D01*
X3614053Y2686661D01*
X5536109Y3190470D02*
Y3148817D01*
X5544439Y3140487D01*
X5561100D01*
X5569431Y3148817D01*
Y3190470D01*
X5619415Y3140487D02*
X5586092D01*
X5619415Y3173809D01*
Y3182140D01*
X5611084Y3190470D01*
X5594423D01*
X5586092Y3182140D01*
X5669398Y3190470D02*
X5636076D01*
Y3165479D01*
X5652737Y3173809D01*
X5661068D01*
X5669398Y3165479D01*
Y3148817D01*
X5661068Y3140487D01*
X5644407D01*
X5636076Y3148817D01*
X2397408Y3258347D02*
X2447392D01*
Y3291670D01*
X2405739Y3308331D02*
X2397408Y3316661D01*
Y3333323D01*
X2405739Y3341653D01*
X2414069D01*
X2422400Y3333323D01*
Y3324992D01*
Y3333323D01*
X2430731Y3341653D01*
X2439061D01*
X2447392Y3333323D01*
Y3316661D01*
X2439061Y3308331D01*
X5359920Y4265008D02*
Y4314992D01*
X5384912D01*
X5393243Y4306661D01*
Y4290000D01*
X5384912Y4281669D01*
X5359920D01*
X5376582D02*
X5393243Y4265008D01*
X5409904D02*
X5426565D01*
X5418235D01*
Y4314992D01*
X5409904Y4306661D01*
X5451557D02*
X5459888Y4314992D01*
X5476549D01*
X5484880Y4306661D01*
Y4273339D01*
X5476549Y4265008D01*
X5459888D01*
X5451557Y4273339D01*
Y4306661D01*
X5625738Y3740843D02*
X5617408Y3732512D01*
Y3715851D01*
X5625738Y3707521D01*
X5659061D01*
X5667392Y3715851D01*
Y3732512D01*
X5659061Y3740843D01*
X5667392Y3757504D02*
Y3774165D01*
Y3765835D01*
X5617408D01*
X5625738Y3757504D01*
X5659061Y3799158D02*
X5667392Y3807488D01*
Y3824149D01*
X5659061Y3832480D01*
X5625738D01*
X5617408Y3824149D01*
Y3807488D01*
X5625738Y3799158D01*
X5634069D01*
X5642400Y3807488D01*
Y3832480D01*
X5885738Y3736678D02*
X5877408Y3728347D01*
Y3711686D01*
X5885738Y3703355D01*
X5919061D01*
X5927391Y3711686D01*
Y3728347D01*
X5919061Y3736678D01*
X5927391Y3778331D02*
X5877408D01*
X5902400Y3753339D01*
Y3786661D01*
X5885738Y3803322D02*
X5877408Y3811653D01*
Y3828314D01*
X5885738Y3836645D01*
X5894069D01*
X5902400Y3828314D01*
X5910730Y3836645D01*
X5919061D01*
X5927391Y3828314D01*
Y3811653D01*
X5919061Y3803322D01*
X5910730D01*
X5902400Y3811653D01*
X5894069Y3803322D01*
X5885738D01*
X5902400Y3811653D02*
Y3828314D01*
X8355697Y3585008D02*
X8347367Y3576677D01*
Y3560016D01*
X8355697Y3551686D01*
X8389020D01*
X8397350Y3560016D01*
Y3576677D01*
X8389020Y3585008D01*
X8347367Y3601669D02*
Y3634992D01*
X8355697D01*
X8389020Y3601669D01*
X8397350D01*
Y3651653D02*
Y3668314D01*
Y3659984D01*
X8347367D01*
X8355697Y3651653D01*
X6947392Y3666694D02*
X6897409D01*
Y3691686D01*
X6905739Y3700016D01*
X6922400D01*
X6930731Y3691686D01*
Y3666694D01*
Y3683355D02*
X6947392Y3700016D01*
Y3716677D02*
Y3733338D01*
Y3725008D01*
X6897409D01*
X6905739Y3716677D01*
X6947392Y3758331D02*
Y3774992D01*
Y3766661D01*
X6897409D01*
X6905739Y3758331D01*
X6947392Y3824976D02*
X6897409D01*
X6922400Y3799984D01*
Y3833306D01*
X6947391Y3356693D02*
X6897408D01*
Y3381685D01*
X6905738Y3390016D01*
X6922400D01*
X6930730Y3381685D01*
Y3356693D01*
Y3373354D02*
X6947391Y3390016D01*
Y3406677D02*
Y3423338D01*
Y3415008D01*
X6897408D01*
X6905738Y3406677D01*
X6947391Y3448330D02*
Y3464991D01*
Y3456661D01*
X6897408D01*
X6905738Y3448330D01*
X6897408Y3523306D02*
Y3489983D01*
X6922400D01*
X6914069Y3506644D01*
Y3514975D01*
X6922400Y3523306D01*
X6939061D01*
X6947391Y3514975D01*
Y3498314D01*
X6939061Y3489983D01*
X6947392Y3146694D02*
X6897408D01*
Y3171686D01*
X6905739Y3180017D01*
X6922400D01*
X6930731Y3171686D01*
Y3146694D01*
Y3163355D02*
X6947392Y3180017D01*
Y3196678D02*
Y3213339D01*
Y3205009D01*
X6897408D01*
X6905739Y3196678D01*
X6947392Y3238331D02*
Y3254992D01*
Y3246662D01*
X6897408D01*
X6905739Y3238331D01*
X6897408Y3313307D02*
X6905739Y3296645D01*
X6922400Y3279984D01*
X6939061D01*
X6947392Y3288315D01*
Y3304976D01*
X6939061Y3313307D01*
X6930731D01*
X6922400Y3304976D01*
Y3279984D01*
X6947392Y2946694D02*
X6897408D01*
Y2971686D01*
X6905739Y2980017D01*
X6922400D01*
X6930731Y2971686D01*
Y2946694D01*
Y2963355D02*
X6947392Y2980017D01*
Y2996678D02*
Y3013339D01*
Y3005008D01*
X6897408D01*
X6905739Y2996678D01*
X6947392Y3038331D02*
Y3054992D01*
Y3046662D01*
X6897408D01*
X6905739Y3038331D01*
X6897408Y3079984D02*
Y3113307D01*
X6905739D01*
X6939061Y3079984D01*
X6947392D01*
X5807391Y3226695D02*
X5757408D01*
Y3251686D01*
X5765738Y3260017D01*
X5782400D01*
X5790730Y3251686D01*
Y3226695D01*
Y3243356D02*
X5807391Y3260017D01*
Y3276678D02*
Y3293339D01*
Y3285009D01*
X5757408D01*
X5765738Y3276678D01*
X5807391Y3318331D02*
Y3334993D01*
Y3326662D01*
X5757408D01*
X5765738Y3318331D01*
Y3359985D02*
X5757408Y3368315D01*
Y3384976D01*
X5765738Y3393307D01*
X5774069D01*
X5782400Y3384976D01*
X5790730Y3393307D01*
X5799061D01*
X5807391Y3384976D01*
Y3368315D01*
X5799061Y3359985D01*
X5790730D01*
X5782400Y3368315D01*
X5774069Y3359985D01*
X5765738D01*
X5782400Y3368315D02*
Y3384976D01*
X6067391Y2106694D02*
X6017408D01*
Y2131686D01*
X6025738Y2140016D01*
X6042399D01*
X6050730Y2131686D01*
Y2106694D01*
Y2123355D02*
X6067391Y2140016D01*
Y2156677D02*
Y2173339D01*
Y2165008D01*
X6017408D01*
X6025738Y2156677D01*
X6067391Y2198331D02*
Y2214992D01*
Y2206661D01*
X6017408D01*
X6025738Y2198331D01*
X6059061Y2239984D02*
X6067391Y2248315D01*
Y2264976D01*
X6059061Y2273306D01*
X6025738D01*
X6017408Y2264976D01*
Y2248315D01*
X6025738Y2239984D01*
X6034069D01*
X6042399Y2248315D01*
Y2273306D01*
X6067391Y2302529D02*
X6017408D01*
Y2327521D01*
X6025738Y2335851D01*
X6042400D01*
X6050730Y2327521D01*
Y2302529D01*
Y2319190D02*
X6067391Y2335851D01*
Y2352512D02*
Y2369174D01*
Y2360843D01*
X6017408D01*
X6025738Y2352512D01*
X6067391Y2427488D02*
Y2394166D01*
X6034069Y2427488D01*
X6025738D01*
X6017408Y2419157D01*
Y2402496D01*
X6025738Y2394166D01*
Y2444149D02*
X6017408Y2452480D01*
Y2469141D01*
X6025738Y2477472D01*
X6059061D01*
X6067391Y2469141D01*
Y2452480D01*
X6059061Y2444149D01*
X6025738D01*
X7073259Y2425008D02*
Y2474992D01*
X7098251D01*
X7106582Y2466662D01*
Y2450000D01*
X7098251Y2441669D01*
X7073259D01*
X7089921D02*
X7106582Y2425008D01*
X7123243D02*
X7139904D01*
X7131574D01*
Y2474992D01*
X7123243Y2466662D01*
X7198219Y2425008D02*
X7164896D01*
X7198219Y2458331D01*
Y2466662D01*
X7189888Y2474992D01*
X7173227D01*
X7164896Y2466662D01*
X7214880Y2425008D02*
X7231541D01*
X7223211D01*
Y2474992D01*
X7214880Y2466662D01*
X7127392Y1952528D02*
X7077408D01*
Y1977520D01*
X7085738Y1985851D01*
X7102400D01*
X7110731Y1977520D01*
Y1952528D01*
Y1969189D02*
X7127392Y1985851D01*
Y2002512D02*
Y2019173D01*
Y2010843D01*
X7077408D01*
X7085738Y2002512D01*
X7127392Y2077488D02*
Y2044165D01*
X7094069Y2077488D01*
X7085738D01*
X7077408Y2069157D01*
Y2052496D01*
X7085738Y2044165D01*
X7127392Y2127471D02*
Y2094149D01*
X7094069Y2127471D01*
X7085738D01*
X7077408Y2119141D01*
Y2102479D01*
X7085738Y2094149D01*
X4974929Y2015008D02*
Y2064992D01*
X4999921D01*
X5008251Y2056662D01*
Y2040000D01*
X4999921Y2031670D01*
X4974929D01*
X4991590D02*
X5008251Y2015008D01*
X5024912D02*
X5041574D01*
X5033243D01*
Y2064992D01*
X5024912Y2056662D01*
X5099888Y2015008D02*
X5066566D01*
X5099888Y2048331D01*
Y2056662D01*
X5091558Y2064992D01*
X5074896D01*
X5066566Y2056662D01*
X5116549D02*
X5124880Y2064992D01*
X5141541D01*
X5149872Y2056662D01*
Y2048331D01*
X5141541Y2040000D01*
X5133210D01*
X5141541D01*
X5149872Y2031670D01*
Y2023339D01*
X5141541Y2015008D01*
X5124880D01*
X5116549Y2023339D01*
X7208251Y5796703D02*
X7199920Y5805033D01*
X7183259D01*
X7174929Y5796703D01*
Y5763380D01*
X7183259Y5755049D01*
X7199920D01*
X7208251Y5763380D01*
X7224912Y5755049D02*
X7241573D01*
X7233243D01*
Y5805033D01*
X7224912Y5796703D01*
X7299888Y5755049D02*
X7266565D01*
X7299888Y5788372D01*
Y5796703D01*
X7291557Y5805033D01*
X7274896D01*
X7266565Y5796703D01*
X7316549Y5763380D02*
X7324880Y5755049D01*
X7341541D01*
X7349872Y5763380D01*
Y5796703D01*
X7341541Y5805033D01*
X7324880D01*
X7316549Y5796703D01*
Y5788372D01*
X7324880Y5780041D01*
X7349872D01*
X7180753Y5522140D02*
Y5480487D01*
X7189084Y5472156D01*
X7205745D01*
X7214076Y5480487D01*
Y5522140D01*
X7230737Y5513809D02*
X7239068Y5522140D01*
X7255729D01*
X7264059Y5513809D01*
Y5505479D01*
X7255729Y5497148D01*
X7247398D01*
X7255729D01*
X7264059Y5488817D01*
Y5480487D01*
X7255729Y5472156D01*
X7239068D01*
X7230737Y5480487D01*
X7280721Y5513809D02*
X7289051Y5522140D01*
X7305712D01*
X7314043Y5513809D01*
Y5480487D01*
X7305712Y5472156D01*
X7289051D01*
X7280721Y5480487D01*
Y5513809D01*
X7098251Y2566620D02*
X7089921Y2574951D01*
X7073259D01*
X7064929Y2566620D01*
Y2533298D01*
X7073259Y2524967D01*
X7089921D01*
X7098251Y2533298D01*
X7114912Y2524967D02*
X7131573D01*
X7123243D01*
Y2574951D01*
X7114912Y2566620D01*
X7156566D02*
X7164896Y2574951D01*
X7181557D01*
X7189888Y2566620D01*
Y2558290D01*
X7181557Y2549959D01*
X7173227D01*
X7181557D01*
X7189888Y2541628D01*
Y2533298D01*
X7181557Y2524967D01*
X7164896D01*
X7156566Y2533298D01*
X7206549Y2566620D02*
X7214880Y2574951D01*
X7231541D01*
X7239872Y2566620D01*
Y2533298D01*
X7231541Y2524967D01*
X7214880D01*
X7206549Y2533298D01*
Y2566620D01*
X6926582Y3606620D02*
X6918252Y3614950D01*
X6901590D01*
X6893260Y3606620D01*
Y3573297D01*
X6901590Y3564967D01*
X6918252D01*
X6926582Y3573297D01*
X6943243Y3564967D02*
X6959905D01*
X6951574D01*
Y3614950D01*
X6943243Y3606620D01*
X6984897D02*
X6993227Y3614950D01*
X7009888D01*
X7018219Y3606620D01*
Y3598289D01*
X7009888Y3589959D01*
X7001558D01*
X7009888D01*
X7018219Y3581628D01*
Y3573297D01*
X7009888Y3564967D01*
X6993227D01*
X6984897Y3573297D01*
X7034880Y3564967D02*
X7051541D01*
X7043211D01*
Y3614950D01*
X7034880Y3606620D01*
X3215697Y1795851D02*
X3207367Y1787520D01*
Y1770859D01*
X3215697Y1762528D01*
X3249020D01*
X3257350Y1770859D01*
Y1787520D01*
X3249020Y1795851D01*
X3257350Y1812512D02*
Y1829173D01*
Y1820843D01*
X3207367D01*
X3215697Y1812512D01*
Y1854165D02*
X3207367Y1862496D01*
Y1879157D01*
X3215697Y1887488D01*
X3224028D01*
X3232359Y1879157D01*
Y1870826D01*
Y1879157D01*
X3240689Y1887488D01*
X3249020D01*
X3257350Y1879157D01*
Y1862496D01*
X3249020Y1854165D01*
X3257350Y1937471D02*
Y1904149D01*
X3224028Y1937471D01*
X3215697D01*
X3207367Y1929141D01*
Y1912480D01*
X3215697Y1904149D01*
X5558252Y2956703D02*
X5549921Y2965033D01*
X5533260D01*
X5524929Y2956703D01*
Y2923380D01*
X5533260Y2915050D01*
X5549921D01*
X5558252Y2923380D01*
X5574913Y2915050D02*
X5591574D01*
X5583243D01*
Y2965033D01*
X5574913Y2956703D01*
X5616566D02*
X5624897Y2965033D01*
X5641558D01*
X5649888Y2956703D01*
Y2948372D01*
X5641558Y2940041D01*
X5633227D01*
X5641558D01*
X5649888Y2931711D01*
Y2923380D01*
X5641558Y2915050D01*
X5624897D01*
X5616566Y2923380D01*
X5691541Y2915050D02*
Y2965033D01*
X5666549Y2940041D01*
X5699872D01*
X5558252Y3376703D02*
X5549921Y3385033D01*
X5533260D01*
X5524929Y3376703D01*
Y3343380D01*
X5533260Y3335049D01*
X5549921D01*
X5558252Y3343380D01*
X5574913Y3335049D02*
X5591574D01*
X5583243D01*
Y3385033D01*
X5574913Y3376703D01*
X5616566D02*
X5624897Y3385033D01*
X5641558D01*
X5649888Y3376703D01*
Y3368372D01*
X5641558Y3360041D01*
X5633227D01*
X5641558D01*
X5649888Y3351711D01*
Y3343380D01*
X5641558Y3335049D01*
X5624897D01*
X5616566Y3343380D01*
X5699872Y3385033D02*
X5666549D01*
Y3360041D01*
X5683211Y3368372D01*
X5691541D01*
X5699872Y3360041D01*
Y3343380D01*
X5691541Y3335049D01*
X5674880D01*
X5666549Y3343380D01*
X6815780Y5675851D02*
X6807449Y5667521D01*
Y5650859D01*
X6815780Y5642529D01*
X6849102D01*
X6857433Y5650859D01*
Y5667521D01*
X6849102Y5675851D01*
X6857433Y5692512D02*
Y5709173D01*
Y5700843D01*
X6807449D01*
X6815780Y5692512D01*
Y5734166D02*
X6807449Y5742496D01*
Y5759157D01*
X6815780Y5767488D01*
X6824110D01*
X6832441Y5759157D01*
Y5750827D01*
Y5759157D01*
X6840772Y5767488D01*
X6849102D01*
X6857433Y5759157D01*
Y5742496D01*
X6849102Y5734166D01*
X6807449Y5817472D02*
X6815780Y5800810D01*
X6832441Y5784149D01*
X6849102D01*
X6857433Y5792480D01*
Y5809141D01*
X6849102Y5817472D01*
X6840772D01*
X6832441Y5809141D01*
Y5784149D01*
X6645755Y2225009D02*
Y2274992D01*
X6670747D01*
X6679078Y2266662D01*
Y2250000D01*
X6670747Y2241670D01*
X6645755D01*
X6662416D02*
X6679078Y2225009D01*
X6695739Y2274992D02*
X6729061D01*
Y2266662D01*
X6695739Y2233339D01*
Y2225009D01*
X6745723Y2233339D02*
X6754053Y2225009D01*
X6770714D01*
X6779045Y2233339D01*
Y2266662D01*
X6770714Y2274992D01*
X6754053D01*
X6745723Y2266662D01*
Y2258331D01*
X6754053Y2250000D01*
X6779045D01*
X5585755Y2135008D02*
Y2184992D01*
X5610747D01*
X5619077Y2176662D01*
Y2160000D01*
X5610747Y2151670D01*
X5585755D01*
X5602416D02*
X5619077Y2135008D01*
X5635739Y2176662D02*
X5644069Y2184992D01*
X5660730D01*
X5669061Y2176662D01*
Y2168331D01*
X5660730Y2160000D01*
X5669061Y2151670D01*
Y2143339D01*
X5660730Y2135008D01*
X5644069D01*
X5635739Y2143339D01*
Y2151670D01*
X5644069Y2160000D01*
X5635739Y2168331D01*
Y2176662D01*
X5644069Y2160000D02*
X5660730D01*
X5685722Y2176662D02*
X5694053Y2184992D01*
X5710714D01*
X5719045Y2176662D01*
Y2143339D01*
X5710714Y2135008D01*
X5694053D01*
X5685722Y2143339D01*
Y2176662D01*
X4545756Y2015008D02*
Y2064992D01*
X4570748D01*
X4579078Y2056662D01*
Y2040000D01*
X4570748Y2031670D01*
X4545756D01*
X4562417D02*
X4579078Y2015008D01*
X4595739Y2056662D02*
X4604070Y2064992D01*
X4620731D01*
X4629062Y2056662D01*
Y2048331D01*
X4620731Y2040000D01*
X4629062Y2031670D01*
Y2023339D01*
X4620731Y2015008D01*
X4604070D01*
X4595739Y2023339D01*
Y2031670D01*
X4604070Y2040000D01*
X4595739Y2048331D01*
Y2056662D01*
X4604070Y2040000D02*
X4620731D01*
X4679046Y2015008D02*
X4645723D01*
X4679046Y2048331D01*
Y2056662D01*
X4670715Y2064992D01*
X4654054D01*
X4645723Y2056662D01*
X4597392Y1663355D02*
X4547408D01*
Y1688347D01*
X4555738Y1696678D01*
X4572400D01*
X4580730Y1688347D01*
Y1663355D01*
Y1680016D02*
X4597392Y1696678D01*
X4555738Y1713339D02*
X4547408Y1721669D01*
Y1738331D01*
X4555738Y1746661D01*
X4564069D01*
X4572400Y1738331D01*
X4580730Y1746661D01*
X4589061D01*
X4597392Y1738331D01*
Y1721669D01*
X4589061Y1713339D01*
X4580730D01*
X4572400Y1721669D01*
X4564069Y1713339D01*
X4555738D01*
X4572400Y1721669D02*
Y1738331D01*
X4555738Y1763322D02*
X4547408Y1771653D01*
Y1788314D01*
X4555738Y1796645D01*
X4564069D01*
X4572400Y1788314D01*
Y1779983D01*
Y1788314D01*
X4580730Y1796645D01*
X4589061D01*
X4597392Y1788314D01*
Y1771653D01*
X4589061Y1763322D01*
X6057391Y5642528D02*
X6007408D01*
Y5667520D01*
X6015738Y5675851D01*
X6032399D01*
X6040730Y5667520D01*
Y5642528D01*
Y5659190D02*
X6057391Y5675851D01*
Y5692512D02*
Y5709173D01*
Y5700843D01*
X6007408D01*
X6015738Y5692512D01*
X6057391Y5767488D02*
Y5734165D01*
X6024069Y5767488D01*
X6015738D01*
X6007408Y5759157D01*
Y5742496D01*
X6015738Y5734165D01*
X6057391Y5809141D02*
X6007408D01*
X6032399Y5784149D01*
Y5817471D01*
X6157392Y5642529D02*
X6107408D01*
Y5667521D01*
X6115738Y5675851D01*
X6132400D01*
X6140730Y5667521D01*
Y5642529D01*
Y5659190D02*
X6157392Y5675851D01*
Y5692512D02*
Y5709173D01*
Y5700843D01*
X6107408D01*
X6115738Y5692512D01*
X6157392Y5767488D02*
Y5734166D01*
X6124069Y5767488D01*
X6115738D01*
X6107408Y5759157D01*
Y5742496D01*
X6115738Y5734166D01*
X6107408Y5817472D02*
Y5784149D01*
X6132400D01*
X6124069Y5800810D01*
Y5809141D01*
X6132400Y5817472D01*
X6149061D01*
X6157392Y5809141D01*
Y5792480D01*
X6149061Y5784149D01*
X6257391Y5642528D02*
X6207408D01*
Y5667520D01*
X6215738Y5675851D01*
X6232400D01*
X6240730Y5667520D01*
Y5642528D01*
Y5659190D02*
X6257391Y5675851D01*
Y5692512D02*
Y5709173D01*
Y5700843D01*
X6207408D01*
X6215738Y5692512D01*
X6257391Y5767488D02*
Y5734165D01*
X6224069Y5767488D01*
X6215738D01*
X6207408Y5759157D01*
Y5742496D01*
X6215738Y5734165D01*
X6207408Y5817471D02*
X6215738Y5800810D01*
X6232400Y5784149D01*
X6249061D01*
X6257391Y5792480D01*
Y5809141D01*
X6249061Y5817471D01*
X6240730D01*
X6232400Y5809141D01*
Y5784149D01*
X6377392Y5642529D02*
X6327408D01*
Y5667521D01*
X6335738Y5675851D01*
X6352400D01*
X6360730Y5667521D01*
Y5642529D01*
Y5659190D02*
X6377392Y5675851D01*
Y5692512D02*
Y5709173D01*
Y5700843D01*
X6327408D01*
X6335738Y5692512D01*
X6377392Y5767488D02*
Y5734166D01*
X6344069Y5767488D01*
X6335738D01*
X6327408Y5759157D01*
Y5742496D01*
X6335738Y5734166D01*
X6327408Y5784149D02*
Y5817472D01*
X6335738D01*
X6369061Y5784149D01*
X6377392D01*
X6694086Y5432139D02*
Y5390486D01*
X6702417Y5382156D01*
X6719078D01*
X6727408Y5390486D01*
Y5432139D01*
X6744070Y5423809D02*
X6752400Y5432139D01*
X6769061D01*
X6777392Y5423809D01*
Y5415478D01*
X6769061Y5407147D01*
X6760731D01*
X6769061D01*
X6777392Y5398817D01*
Y5390486D01*
X6769061Y5382156D01*
X6752400D01*
X6744070Y5390486D01*
X6794053Y5382156D02*
X6810714D01*
X6802384D01*
Y5432139D01*
X6794053Y5423809D01*
X6943755Y4924992D02*
Y4883339D01*
X6952086Y4875008D01*
X6968747D01*
X6977078Y4883339D01*
Y4924992D01*
X6993739Y4916661D02*
X7002070Y4924992D01*
X7018731D01*
X7027061Y4916661D01*
Y4908331D01*
X7018731Y4900000D01*
X7010400D01*
X7018731D01*
X7027061Y4891669D01*
Y4883339D01*
X7018731Y4875008D01*
X7002070D01*
X6993739Y4883339D01*
X7043723Y4916661D02*
X7052053Y4924992D01*
X7068714D01*
X7077045Y4916661D01*
Y4908331D01*
X7068714Y4900000D01*
X7060384D01*
X7068714D01*
X7077045Y4891669D01*
Y4883339D01*
X7068714Y4875008D01*
X7052053D01*
X7043723Y4883339D01*
X6403755Y4954992D02*
Y4913339D01*
X6412086Y4905008D01*
X6428747D01*
X6437078Y4913339D01*
Y4954992D01*
X6453739Y4946661D02*
X6462070Y4954992D01*
X6478731D01*
X6487061Y4946661D01*
Y4938331D01*
X6478731Y4930000D01*
X6470400D01*
X6478731D01*
X6487061Y4921669D01*
Y4913339D01*
X6478731Y4905008D01*
X6462070D01*
X6453739Y4913339D01*
X6537045Y4954992D02*
X6503723D01*
Y4930000D01*
X6520384Y4938331D01*
X6528714D01*
X6537045Y4930000D01*
Y4913339D01*
X6528714Y4905008D01*
X6512053D01*
X6503723Y4913339D01*
X5033247Y4467508D02*
Y4517492D01*
X5049908Y4500831D01*
X5066570Y4517492D01*
Y4467508D01*
X5116553D02*
X5083231D01*
X5116553Y4500831D01*
Y4509161D01*
X5108223Y4517492D01*
X5091562D01*
X5083231Y4509161D01*
X7568251Y3226702D02*
X7559920Y3235033D01*
X7543259D01*
X7534929Y3226702D01*
Y3193380D01*
X7543259Y3185049D01*
X7559920D01*
X7568251Y3193380D01*
X7584912Y3185049D02*
X7601573D01*
X7593243D01*
Y3235033D01*
X7584912Y3226702D01*
X7659888Y3185049D02*
X7626565D01*
X7659888Y3218372D01*
Y3226702D01*
X7651557Y3235033D01*
X7634896D01*
X7626565Y3226702D01*
X7676549D02*
X7684880Y3235033D01*
X7701541D01*
X7709872Y3226702D01*
Y3193380D01*
X7701541Y3185049D01*
X7684880D01*
X7676549Y3193380D01*
Y3226702D01*
X7636582Y4346703D02*
X7628251Y4355033D01*
X7611590D01*
X7603259Y4346703D01*
Y4313380D01*
X7611590Y4305049D01*
X7628251D01*
X7636582Y4313380D01*
X7653243Y4305049D02*
X7669904D01*
X7661573D01*
Y4355033D01*
X7653243Y4346703D01*
X7728218Y4305049D02*
X7694896D01*
X7728218Y4338372D01*
Y4346703D01*
X7719888Y4355033D01*
X7703227D01*
X7694896Y4346703D01*
X7744880Y4305049D02*
X7761541D01*
X7753210D01*
Y4355033D01*
X7744880Y4346703D01*
X2627392Y5663355D02*
X2577408D01*
Y5688347D01*
X2585739Y5696678D01*
X2602400D01*
X2610731Y5688347D01*
Y5663355D01*
Y5680016D02*
X2627392Y5696678D01*
X2619061Y5713339D02*
X2627392Y5721670D01*
Y5738331D01*
X2619061Y5746661D01*
X2585739D01*
X2577408Y5738331D01*
Y5721670D01*
X2585739Y5713339D01*
X2594069D01*
X2602400Y5721670D01*
Y5746661D01*
X2585739Y5763322D02*
X2577408Y5771653D01*
Y5788314D01*
X2585739Y5796645D01*
X2594069D01*
X2602400Y5788314D01*
Y5779984D01*
Y5788314D01*
X2610731Y5796645D01*
X2619061D01*
X2627392Y5788314D01*
Y5771653D01*
X2619061Y5763322D01*
X7098251Y2206620D02*
X7089921Y2214950D01*
X7073259D01*
X7064929Y2206620D01*
Y2173297D01*
X7073259Y2164966D01*
X7089921D01*
X7098251Y2173297D01*
X7114912Y2164966D02*
X7131573D01*
X7123243D01*
Y2214950D01*
X7114912Y2206620D01*
X7156566D02*
X7164896Y2214950D01*
X7181557D01*
X7189888Y2206620D01*
Y2198289D01*
X7181557Y2189958D01*
X7173227D01*
X7181557D01*
X7189888Y2181628D01*
Y2173297D01*
X7181557Y2164966D01*
X7164896D01*
X7156566Y2173297D01*
X7206549Y2214950D02*
X7239872D01*
Y2206620D01*
X7206549Y2173297D01*
Y2164966D01*
X7098251Y1906620D02*
X7089921Y1914950D01*
X7073259D01*
X7064929Y1906620D01*
Y1873297D01*
X7073259Y1864967D01*
X7089921D01*
X7098251Y1873297D01*
X7114912Y1864967D02*
X7131573D01*
X7123243D01*
Y1914950D01*
X7114912Y1906620D01*
X7156566D02*
X7164896Y1914950D01*
X7181557D01*
X7189888Y1906620D01*
Y1898289D01*
X7181557Y1889959D01*
X7173227D01*
X7181557D01*
X7189888Y1881628D01*
Y1873297D01*
X7181557Y1864967D01*
X7164896D01*
X7156566Y1873297D01*
X7206549Y1906620D02*
X7214880Y1914950D01*
X7231541D01*
X7239872Y1906620D01*
Y1898289D01*
X7231541Y1889959D01*
X7239872Y1881628D01*
Y1873297D01*
X7231541Y1864967D01*
X7214880D01*
X7206549Y1873297D01*
Y1881628D01*
X7214880Y1889959D01*
X7206549Y1898289D01*
Y1906620D01*
X7214880Y1889959D02*
X7231541D01*
X6658251Y1906703D02*
X6649920Y1915033D01*
X6633259D01*
X6624929Y1906703D01*
Y1873380D01*
X6633259Y1865049D01*
X6649920D01*
X6658251Y1873380D01*
X6674912Y1865049D02*
X6691573D01*
X6683243D01*
Y1915033D01*
X6674912Y1906703D01*
X6716565D02*
X6724896Y1915033D01*
X6741557D01*
X6749888Y1906703D01*
Y1898372D01*
X6741557Y1890041D01*
X6733227D01*
X6741557D01*
X6749888Y1881710D01*
Y1873380D01*
X6741557Y1865049D01*
X6724896D01*
X6716565Y1873380D01*
X6766549D02*
X6774880Y1865049D01*
X6791541D01*
X6799872Y1873380D01*
Y1906703D01*
X6791541Y1915033D01*
X6774880D01*
X6766549Y1906703D01*
Y1898372D01*
X6774880Y1890041D01*
X6799872D01*
X3702392Y3906346D02*
X3652408D01*
Y3931338D01*
X3660738Y3939669D01*
X3677400D01*
X3685730Y3931338D01*
Y3906346D01*
X3660738Y3956330D02*
X3652408Y3964661D01*
Y3981322D01*
X3660738Y3989652D01*
X3669069D01*
X3677400Y3981322D01*
Y3972991D01*
Y3981322D01*
X3685730Y3989652D01*
X3694061D01*
X3702392Y3981322D01*
Y3964661D01*
X3694061Y3956330D01*
X2847392Y5642529D02*
X2797408D01*
Y5667521D01*
X2805738Y5675851D01*
X2822400D01*
X2830730Y5667521D01*
Y5642529D01*
Y5659190D02*
X2847392Y5675851D01*
Y5692512D02*
Y5709173D01*
Y5700843D01*
X2797408D01*
X2805738Y5692512D01*
Y5734166D02*
X2797408Y5742496D01*
Y5759157D01*
X2805738Y5767488D01*
X2839061D01*
X2847392Y5759157D01*
Y5742496D01*
X2839061Y5734166D01*
X2805738D01*
X2797408Y5784149D02*
Y5817472D01*
X2805738D01*
X2839061Y5784149D01*
X2847392D01*
X5907392Y2623355D02*
X5857408D01*
Y2648347D01*
X5865739Y2656678D01*
X5882400D01*
X5890731Y2648347D01*
Y2623355D01*
Y2640016D02*
X5907392Y2656678D01*
Y2706661D02*
Y2673339D01*
X5874070Y2706661D01*
X5865739D01*
X5857408Y2698331D01*
Y2681670D01*
X5865739Y2673339D01*
X5857408Y2756645D02*
Y2723322D01*
X5882400D01*
X5874070Y2739984D01*
Y2748314D01*
X5882400Y2756645D01*
X5899061D01*
X5907392Y2748314D01*
Y2731653D01*
X5899061Y2723322D01*
X4548251Y5356703D02*
X4539921Y5365033D01*
X4523259D01*
X4514929Y5356703D01*
Y5323380D01*
X4523259Y5315049D01*
X4539921D01*
X4548251Y5323380D01*
X4564912Y5315049D02*
X4581574D01*
X4573243D01*
Y5365033D01*
X4564912Y5356703D01*
X4606566D02*
X4614896Y5365033D01*
X4631557D01*
X4639888Y5356703D01*
Y5348372D01*
X4631557Y5340041D01*
X4623227D01*
X4631557D01*
X4639888Y5331710D01*
Y5323380D01*
X4631557Y5315049D01*
X4614896D01*
X4606566Y5323380D01*
X4656549Y5356703D02*
X4664880Y5365033D01*
X4681541D01*
X4689872Y5356703D01*
Y5348372D01*
X4681541Y5340041D01*
X4673210D01*
X4681541D01*
X4689872Y5331710D01*
Y5323380D01*
X4681541Y5315049D01*
X4664880D01*
X4656549Y5323380D01*
X4765698Y4434182D02*
X4757367Y4425851D01*
Y4409190D01*
X4765698Y4400859D01*
X4799020D01*
X4807351Y4409190D01*
Y4425851D01*
X4799020Y4434182D01*
X4807351Y4450843D02*
Y4467504D01*
Y4459174D01*
X4757367D01*
X4765698Y4450843D01*
X4807351Y4517488D02*
X4757367D01*
X4782359Y4492496D01*
Y4525819D01*
X4807351Y4542480D02*
Y4559141D01*
Y4550811D01*
X4757367D01*
X4765698Y4542480D01*
X3815739Y4695851D02*
X3807408Y4687520D01*
Y4670859D01*
X3815739Y4662529D01*
X3849061D01*
X3857392Y4670859D01*
Y4687520D01*
X3849061Y4695851D01*
X3857392Y4712512D02*
Y4729173D01*
Y4720843D01*
X3807408D01*
X3815739Y4712512D01*
X3857392Y4779157D02*
X3807408D01*
X3832400Y4754165D01*
Y4787488D01*
X3807408Y4837472D02*
Y4804149D01*
X3832400D01*
X3824069Y4820810D01*
Y4829141D01*
X3832400Y4837472D01*
X3849061D01*
X3857392Y4829141D01*
Y4812480D01*
X3849061Y4804149D01*
X3595738Y5195851D02*
X3587408Y5187520D01*
Y5170859D01*
X3595738Y5162529D01*
X3629061D01*
X3637392Y5170859D01*
Y5187520D01*
X3629061Y5195851D01*
X3637392Y5212512D02*
Y5229173D01*
Y5220843D01*
X3587408D01*
X3595738Y5212512D01*
X3637392Y5279157D02*
X3587408D01*
X3612400Y5254166D01*
Y5287488D01*
X3587408Y5337472D02*
X3595738Y5320810D01*
X3612400Y5304149D01*
X3629061D01*
X3637392Y5312480D01*
Y5329141D01*
X3629061Y5337472D01*
X3620730D01*
X3612400Y5329141D01*
Y5304149D01*
X5345697Y5035851D02*
X5337367Y5027520D01*
Y5010859D01*
X5345697Y5002528D01*
X5379020D01*
X5387351Y5010859D01*
Y5027520D01*
X5379020Y5035851D01*
X5387351Y5052512D02*
Y5069173D01*
Y5060843D01*
X5337367D01*
X5345697Y5052512D01*
X5387351Y5119157D02*
X5337367D01*
X5362359Y5094165D01*
Y5127488D01*
X5337367Y5144149D02*
Y5177471D01*
X5345697D01*
X5379020Y5144149D01*
X5387351D01*
X5885697Y5235851D02*
X5877367Y5227520D01*
Y5210859D01*
X5885697Y5202528D01*
X5919020D01*
X5927351Y5210859D01*
Y5227520D01*
X5919020Y5235851D01*
X5927351Y5252512D02*
Y5269173D01*
Y5260843D01*
X5877367D01*
X5885697Y5252512D01*
X5927351Y5319157D02*
X5877367D01*
X5902359Y5294165D01*
Y5327488D01*
X5885697Y5344149D02*
X5877367Y5352480D01*
Y5369141D01*
X5885697Y5377471D01*
X5894028D01*
X5902359Y5369141D01*
X5910689Y5377471D01*
X5919020D01*
X5927351Y5369141D01*
Y5352480D01*
X5919020Y5344149D01*
X5910689D01*
X5902359Y5352480D01*
X5894028Y5344149D01*
X5885697D01*
X5902359Y5352480D02*
Y5369141D01*
X5345780Y5235851D02*
X5337450Y5227520D01*
Y5210859D01*
X5345780Y5202529D01*
X5379103D01*
X5387433Y5210859D01*
Y5227520D01*
X5379103Y5235851D01*
X5387433Y5252512D02*
Y5269173D01*
Y5260843D01*
X5337450D01*
X5345780Y5252512D01*
X5387433Y5319157D02*
X5337450D01*
X5362442Y5294165D01*
Y5327488D01*
X5379103Y5344149D02*
X5387433Y5352480D01*
Y5369141D01*
X5379103Y5377472D01*
X5345780D01*
X5337450Y5369141D01*
Y5352480D01*
X5345780Y5344149D01*
X5354111D01*
X5362442Y5352480D01*
Y5377472D01*
X7675755Y5915008D02*
Y5964992D01*
X7709078Y5915008D01*
Y5964992D01*
X7725739D02*
X7759061D01*
X7742400D01*
Y5915008D01*
X7809045D02*
X7775723D01*
X7809045Y5948331D01*
Y5956661D01*
X7800714Y5964992D01*
X7784053D01*
X7775723Y5956661D01*
X5587392Y5202529D02*
X5537409D01*
Y5227520D01*
X5545739Y5235851D01*
X5562401D01*
X5570731Y5227520D01*
Y5202529D01*
Y5219190D02*
X5587392Y5235851D01*
Y5252512D02*
Y5269173D01*
Y5260843D01*
X5537409D01*
X5545739Y5252512D01*
X5587392Y5327488D02*
Y5294165D01*
X5554070Y5327488D01*
X5545739D01*
X5537409Y5319157D01*
Y5302496D01*
X5545739Y5294165D01*
Y5344149D02*
X5537409Y5352480D01*
Y5369141D01*
X5545739Y5377472D01*
X5554070D01*
X5562401Y5369141D01*
X5570731Y5377472D01*
X5579062D01*
X5587392Y5369141D01*
Y5352480D01*
X5579062Y5344149D01*
X5570731D01*
X5562401Y5352480D01*
X5554070Y5344149D01*
X5545739D01*
X5562401Y5352480D02*
Y5369141D01*
X5654929Y5215008D02*
Y5264992D01*
X5679921D01*
X5688251Y5256661D01*
Y5240000D01*
X5679921Y5231669D01*
X5654929D01*
X5671590D02*
X5688251Y5215008D01*
X5704912D02*
X5721574D01*
X5713243D01*
Y5264992D01*
X5704912Y5256661D01*
X5779888Y5215008D02*
X5746566D01*
X5779888Y5248331D01*
Y5256661D01*
X5771557Y5264992D01*
X5754896D01*
X5746566Y5256661D01*
X5796549Y5223339D02*
X5804880Y5215008D01*
X5821541D01*
X5829872Y5223339D01*
Y5256661D01*
X5821541Y5264992D01*
X5804880D01*
X5796549Y5256661D01*
Y5248331D01*
X5804880Y5240000D01*
X5829872D01*
X5487392Y5202528D02*
X5437408D01*
Y5227520D01*
X5445739Y5235851D01*
X5462400D01*
X5470731Y5227520D01*
Y5202528D01*
Y5219189D02*
X5487392Y5235851D01*
Y5252512D02*
Y5269173D01*
Y5260843D01*
X5437408D01*
X5445739Y5252512D01*
Y5294165D02*
X5437408Y5302496D01*
Y5319157D01*
X5445739Y5327488D01*
X5454070D01*
X5462400Y5319157D01*
Y5310826D01*
Y5319157D01*
X5470731Y5327488D01*
X5479061D01*
X5487392Y5319157D01*
Y5302496D01*
X5479061Y5294165D01*
X5445739Y5344149D02*
X5437408Y5352480D01*
Y5369141D01*
X5445739Y5377471D01*
X5479061D01*
X5487392Y5369141D01*
Y5352480D01*
X5479061Y5344149D01*
X5445739D01*
X5077056Y4593355D02*
X5118709D01*
X5127039Y4601686D01*
Y4618347D01*
X5118709Y4626678D01*
X5077056D01*
X5085386Y4643339D02*
X5077056Y4651670D01*
Y4668331D01*
X5085386Y4676661D01*
X5093717D01*
X5102047Y4668331D01*
Y4660000D01*
Y4668331D01*
X5110378Y4676661D01*
X5118709D01*
X5127039Y4668331D01*
Y4651670D01*
X5118709Y4643339D01*
X5127039Y4726645D02*
Y4693323D01*
X5093717Y4726645D01*
X5085386D01*
X5077056Y4718314D01*
Y4701653D01*
X5085386Y4693323D01*
X2505739Y4765851D02*
X2497408Y4757520D01*
Y4740859D01*
X2505739Y4732529D01*
X2539061D01*
X2547392Y4740859D01*
Y4757520D01*
X2539061Y4765851D01*
X2547392Y4782512D02*
Y4799173D01*
Y4790843D01*
X2497408D01*
X2505739Y4782512D01*
X2497408Y4857488D02*
Y4824165D01*
X2522400D01*
X2514069Y4840826D01*
Y4849157D01*
X2522400Y4857488D01*
X2539061D01*
X2547392Y4849157D01*
Y4832496D01*
X2539061Y4824165D01*
X2547392Y4899141D02*
X2497408D01*
X2522400Y4874149D01*
Y4907472D01*
X3426967Y5016678D02*
X3418637Y5008347D01*
Y4991686D01*
X3426967Y4983355D01*
X3460290D01*
X3468620Y4991686D01*
Y5008347D01*
X3460290Y5016678D01*
Y5033339D02*
X3468620Y5041669D01*
Y5058330D01*
X3460290Y5066661D01*
X3426967D01*
X3418637Y5058330D01*
Y5041669D01*
X3426967Y5033339D01*
X3435298D01*
X3443629Y5041669D01*
Y5066661D01*
X3426967Y5083322D02*
X3418637Y5091653D01*
Y5108314D01*
X3426967Y5116645D01*
X3435298D01*
X3443629Y5108314D01*
X3451959Y5116645D01*
X3460290D01*
X3468620Y5108314D01*
Y5091653D01*
X3460290Y5083322D01*
X3451959D01*
X3443629Y5091653D01*
X3435298Y5083322D01*
X3426967D01*
X3443629Y5091653D02*
Y5108314D01*
X4760747Y3949992D02*
Y3908339D01*
X4769078Y3900008D01*
X4785739D01*
X4794070Y3908339D01*
Y3949992D01*
X4835723Y3900008D02*
Y3949992D01*
X4810731Y3925000D01*
X4844054D01*
X6003286Y2697320D02*
Y2655668D01*
X6011617Y2647337D01*
X6028278D01*
X6036609Y2655668D01*
Y2697320D01*
X6053270Y2688990D02*
X6061601Y2697320D01*
X6078262D01*
X6086592Y2688990D01*
Y2680659D01*
X6078262Y2672329D01*
X6069931D01*
X6078262D01*
X6086592Y2663998D01*
Y2655668D01*
X6078262Y2647337D01*
X6061601D01*
X6053270Y2655668D01*
X6136576Y2697320D02*
X6119915Y2688990D01*
X6103253Y2672329D01*
Y2655668D01*
X6111584Y2647337D01*
X6128245D01*
X6136576Y2655668D01*
Y2663998D01*
X6128245Y2672329D01*
X6103253D01*
X7151617Y3087320D02*
Y3045668D01*
X7159948Y3037337D01*
X7176609D01*
X7184939Y3045668D01*
Y3087320D01*
X7226592Y3037337D02*
Y3087320D01*
X7201601Y3062329D01*
X7234923D01*
X7251584Y3037337D02*
X7268245D01*
X7259915D01*
Y3087320D01*
X7251584Y3078990D01*
X7143286Y3557321D02*
Y3515668D01*
X7151617Y3507337D01*
X7168278D01*
X7176609Y3515668D01*
Y3557321D01*
X7193270Y3548990D02*
X7201601Y3557321D01*
X7218262D01*
X7226592Y3548990D01*
Y3540659D01*
X7218262Y3532329D01*
X7209931D01*
X7218262D01*
X7226592Y3523998D01*
Y3515668D01*
X7218262Y3507337D01*
X7201601D01*
X7193270Y3515668D01*
X7268245Y3507337D02*
Y3557321D01*
X7243253Y3532329D01*
X7276576D01*
X7143286Y3277321D02*
Y3235668D01*
X7151617Y3227337D01*
X7168278D01*
X7176609Y3235668D01*
Y3277321D01*
X7193270Y3268990D02*
X7201601Y3277321D01*
X7218262D01*
X7226592Y3268990D01*
Y3260659D01*
X7218262Y3252329D01*
X7209931D01*
X7218262D01*
X7226592Y3243998D01*
Y3235668D01*
X7218262Y3227337D01*
X7201601D01*
X7193270Y3235668D01*
X7243253Y3268990D02*
X7251584Y3277321D01*
X7268245D01*
X7276576Y3268990D01*
Y3260659D01*
X7268245Y3252329D01*
X7276576Y3243998D01*
Y3235668D01*
X7268245Y3227337D01*
X7251584D01*
X7243253Y3235668D01*
Y3243998D01*
X7251584Y3252329D01*
X7243253Y3260659D01*
Y3268990D01*
X7251584Y3252329D02*
X7268245D01*
X7353286Y1907321D02*
Y1865668D01*
X7361617Y1857337D01*
X7378278D01*
X7386609Y1865668D01*
Y1907321D01*
X7428261Y1857337D02*
Y1907321D01*
X7403270Y1882329D01*
X7436592D01*
X7453253Y1898990D02*
X7461584Y1907321D01*
X7478245D01*
X7486576Y1898990D01*
Y1865668D01*
X7478245Y1857337D01*
X7461584D01*
X7453253Y1865668D01*
Y1898990D01*
X7353286Y2117321D02*
Y2075668D01*
X7361617Y2067337D01*
X7378278D01*
X7386609Y2075668D01*
Y2117321D01*
X7403270Y2108990D02*
X7411600Y2117321D01*
X7428261D01*
X7436592Y2108990D01*
Y2100660D01*
X7428261Y2092329D01*
X7419931D01*
X7428261D01*
X7436592Y2083998D01*
Y2075668D01*
X7428261Y2067337D01*
X7411600D01*
X7403270Y2075668D01*
X7453253Y2117321D02*
X7486576D01*
Y2108990D01*
X7453253Y2075668D01*
Y2067337D01*
X6253286Y2487320D02*
Y2445667D01*
X6261617Y2437337D01*
X6278278D01*
X6286609Y2445667D01*
Y2487320D01*
X6303270Y2478990D02*
X6311601Y2487320D01*
X6328262D01*
X6336592Y2478990D01*
Y2470659D01*
X6328262Y2462329D01*
X6319931D01*
X6328262D01*
X6336592Y2453998D01*
Y2445667D01*
X6328262Y2437337D01*
X6311601D01*
X6303270Y2445667D01*
X6353253D02*
X6361584Y2437337D01*
X6378245D01*
X6386576Y2445667D01*
Y2478990D01*
X6378245Y2487320D01*
X6361584D01*
X6353253Y2478990D01*
Y2470659D01*
X6361584Y2462329D01*
X6386576D01*
X5725780Y3955851D02*
X5717449Y3947520D01*
Y3930859D01*
X5725780Y3922528D01*
X5759102D01*
X5767433Y3930859D01*
Y3947520D01*
X5759102Y3955851D01*
X5767433Y3972512D02*
Y3989173D01*
Y3980843D01*
X5717449D01*
X5725780Y3972512D01*
X5767433Y4039157D02*
X5717449D01*
X5742441Y4014165D01*
Y4047488D01*
X5767433Y4089141D02*
X5717449D01*
X5742441Y4064149D01*
Y4097471D01*
X5523259Y4825008D02*
Y4874992D01*
X5548251D01*
X5556582Y4866661D01*
Y4850000D01*
X5548251Y4841669D01*
X5523259D01*
X5539921D02*
X5556582Y4825008D01*
X5573243D02*
X5589904D01*
X5581574D01*
Y4874992D01*
X5573243Y4866661D01*
X5614896D02*
X5623227Y4874992D01*
X5639888D01*
X5648219Y4866661D01*
Y4858331D01*
X5639888Y4850000D01*
X5631557D01*
X5639888D01*
X5648219Y4841669D01*
Y4833339D01*
X5639888Y4825008D01*
X5623227D01*
X5614896Y4833339D01*
X5664880Y4825008D02*
X5681541D01*
X5673211D01*
Y4874992D01*
X5664880Y4866661D01*
X5714929Y4825008D02*
Y4874992D01*
X5739921D01*
X5748251Y4866661D01*
Y4850000D01*
X5739921Y4841669D01*
X5714929D01*
X5731590D02*
X5748251Y4825008D01*
X5764913D02*
X5781574D01*
X5773243D01*
Y4874992D01*
X5764913Y4866661D01*
X5806566D02*
X5814896Y4874992D01*
X5831558D01*
X5839888Y4866661D01*
Y4858331D01*
X5831558Y4850000D01*
X5823227D01*
X5831558D01*
X5839888Y4841669D01*
Y4833339D01*
X5831558Y4825008D01*
X5814896D01*
X5806566Y4833339D01*
X5889872Y4825008D02*
X5856549D01*
X5889872Y4858331D01*
Y4866661D01*
X5881541Y4874992D01*
X5864880D01*
X5856549Y4866661D01*
X5465697Y4535851D02*
X5457367Y4527520D01*
Y4510859D01*
X5465697Y4502528D01*
X5499020D01*
X5507350Y4510859D01*
Y4527520D01*
X5499020Y4535851D01*
X5507350Y4552512D02*
Y4569173D01*
Y4560843D01*
X5457367D01*
X5465697Y4552512D01*
X5457367Y4627488D02*
Y4594165D01*
X5482359D01*
X5474028Y4610826D01*
Y4619157D01*
X5482359Y4627488D01*
X5499020D01*
X5507350Y4619157D01*
Y4602496D01*
X5499020Y4594165D01*
X5457367Y4677471D02*
Y4644149D01*
X5482359D01*
X5474028Y4660810D01*
Y4669141D01*
X5482359Y4677471D01*
X5499020D01*
X5507350Y4669141D01*
Y4652479D01*
X5499020Y4644149D01*
X5625697Y3955851D02*
X5617366Y3947520D01*
Y3930859D01*
X5625697Y3922528D01*
X5659019D01*
X5667350Y3930859D01*
Y3947520D01*
X5659019Y3955851D01*
X5667350Y3972512D02*
Y3989173D01*
Y3980843D01*
X5617366D01*
X5625697Y3972512D01*
X5617366Y4047488D02*
Y4014165D01*
X5642358D01*
X5634028Y4030826D01*
Y4039157D01*
X5642358Y4047488D01*
X5659019D01*
X5667350Y4039157D01*
Y4022496D01*
X5659019Y4014165D01*
X5617366Y4097471D02*
X5625697Y4080810D01*
X5642358Y4064149D01*
X5659019D01*
X5667350Y4072480D01*
Y4089141D01*
X5659019Y4097471D01*
X5650689D01*
X5642358Y4089141D01*
Y4064149D01*
X5905697Y4535851D02*
X5897367Y4527520D01*
Y4510859D01*
X5905697Y4502528D01*
X5939020D01*
X5947351Y4510859D01*
Y4527520D01*
X5939020Y4535851D01*
X5947351Y4552512D02*
Y4569173D01*
Y4560843D01*
X5897367D01*
X5905697Y4552512D01*
X5897367Y4627488D02*
Y4594165D01*
X5922359D01*
X5914028Y4610826D01*
Y4619157D01*
X5922359Y4627488D01*
X5939020D01*
X5947351Y4619157D01*
Y4602496D01*
X5939020Y4594165D01*
X5897367Y4644149D02*
Y4677471D01*
X5905697D01*
X5939020Y4644149D01*
X5947351D01*
X4195738Y3246678D02*
X4187408Y3238347D01*
Y3221686D01*
X4195738Y3213355D01*
X4229061D01*
X4237392Y3221686D01*
Y3238347D01*
X4229061Y3246678D01*
X4195738Y3263339D02*
X4187408Y3271669D01*
Y3288330D01*
X4195738Y3296661D01*
X4204069D01*
X4212400Y3288330D01*
X4220730Y3296661D01*
X4229061D01*
X4237392Y3288330D01*
Y3271669D01*
X4229061Y3263339D01*
X4220730D01*
X4212400Y3271669D01*
X4204069Y3263339D01*
X4195738D01*
X4212400Y3271669D02*
Y3288330D01*
X4195738Y3313322D02*
X4187408Y3321653D01*
Y3338314D01*
X4195738Y3346645D01*
X4204069D01*
X4212400Y3338314D01*
X4220730Y3346645D01*
X4229061D01*
X4237392Y3338314D01*
Y3321653D01*
X4229061Y3313322D01*
X4220730D01*
X4212400Y3321653D01*
X4204069Y3313322D01*
X4195738D01*
X4212400Y3321653D02*
Y3338314D01*
X2323243Y2716661D02*
X2314912Y2724992D01*
X2298251D01*
X2289920Y2716661D01*
Y2683339D01*
X2298251Y2675008D01*
X2314912D01*
X2323243Y2683339D01*
X2339904Y2675008D02*
X2356565D01*
X2348235D01*
Y2724992D01*
X2339904Y2716661D01*
X2414880Y2724992D02*
X2381557D01*
Y2700000D01*
X2398218Y2708331D01*
X2406549D01*
X2414880Y2700000D01*
Y2683339D01*
X2406549Y2675008D01*
X2389888D01*
X2381557Y2683339D01*
X2759078Y2396661D02*
X2750747Y2404992D01*
X2734086D01*
X2725755Y2396661D01*
Y2363339D01*
X2734086Y2355008D01*
X2750747D01*
X2759078Y2363339D01*
X2809061Y2355008D02*
X2775739D01*
X2809061Y2388331D01*
Y2396661D01*
X2800731Y2404992D01*
X2784070D01*
X2775739Y2396661D01*
X2850714Y2355008D02*
Y2404992D01*
X2825723Y2380000D01*
X2859045D01*
X2319078Y2946661D02*
X2310747Y2954992D01*
X2294086D01*
X2285755Y2946661D01*
Y2913339D01*
X2294086Y2905008D01*
X2310747D01*
X2319078Y2913339D01*
X2369061Y2905008D02*
X2335739D01*
X2369061Y2938331D01*
Y2946661D01*
X2360731Y2954992D01*
X2344069D01*
X2335739Y2946661D01*
X2385722Y2954992D02*
X2419045D01*
Y2946661D01*
X2385722Y2913339D01*
Y2905008D01*
X2115738Y2406678D02*
X2107408Y2398347D01*
Y2381686D01*
X2115738Y2373355D01*
X2149061D01*
X2157392Y2381686D01*
Y2398347D01*
X2149061Y2406678D01*
X2157392Y2456661D02*
Y2423339D01*
X2124069Y2456661D01*
X2115738D01*
X2107408Y2448331D01*
Y2431670D01*
X2115738Y2423339D01*
Y2473322D02*
X2107408Y2481653D01*
Y2498314D01*
X2115738Y2506645D01*
X2124069D01*
X2132400Y2498314D01*
X2140731Y2506645D01*
X2149061D01*
X2157392Y2498314D01*
Y2481653D01*
X2149061Y2473322D01*
X2140731D01*
X2132400Y2481653D01*
X2124069Y2473322D01*
X2115738D01*
X2132400Y2481653D02*
Y2498314D01*
X1925738Y1736678D02*
X1917408Y1728347D01*
Y1711686D01*
X1925738Y1703355D01*
X1959061D01*
X1967392Y1711686D01*
Y1728347D01*
X1959061Y1736678D01*
X1967392Y1786661D02*
Y1753339D01*
X1934069Y1786661D01*
X1925738D01*
X1917408Y1778330D01*
Y1761669D01*
X1925738Y1753339D01*
X1959061Y1803322D02*
X1967392Y1811653D01*
Y1828314D01*
X1959061Y1836645D01*
X1925738D01*
X1917408Y1828314D01*
Y1811653D01*
X1925738Y1803322D01*
X1934069D01*
X1942400Y1811653D01*
Y1836645D01*
X2225779Y2446678D02*
X2217449Y2438347D01*
Y2421686D01*
X2225779Y2413355D01*
X2259102D01*
X2267433Y2421686D01*
Y2438347D01*
X2259102Y2446678D01*
X2225779Y2463339D02*
X2217449Y2471669D01*
Y2488331D01*
X2225779Y2496661D01*
X2234110D01*
X2242441Y2488331D01*
Y2480000D01*
Y2488331D01*
X2250771Y2496661D01*
X2259102D01*
X2267433Y2488331D01*
Y2471669D01*
X2259102Y2463339D01*
X2225779Y2513322D02*
X2217449Y2521653D01*
Y2538314D01*
X2225779Y2546645D01*
X2259102D01*
X2267433Y2538314D01*
Y2521653D01*
X2259102Y2513322D01*
X2225779D01*
X2317408Y2246661D02*
X2309078Y2254992D01*
X2292417D01*
X2284086Y2246661D01*
Y2213339D01*
X2292417Y2205008D01*
X2309078D01*
X2317408Y2213339D01*
X2334069Y2246661D02*
X2342400Y2254992D01*
X2359061D01*
X2367392Y2246661D01*
Y2238331D01*
X2359061Y2230000D01*
X2350731D01*
X2359061D01*
X2367392Y2221669D01*
Y2213339D01*
X2359061Y2205008D01*
X2342400D01*
X2334069Y2213339D01*
X2384053Y2205008D02*
X2400714D01*
X2392384D01*
Y2254992D01*
X2384053Y2246661D01*
X6975780Y4076677D02*
X6967449Y4068347D01*
Y4051686D01*
X6975780Y4043355D01*
X7009102D01*
X7017433Y4051686D01*
Y4068347D01*
X7009102Y4076677D01*
X6975780Y4093339D02*
X6967449Y4101669D01*
Y4118330D01*
X6975780Y4126661D01*
X6984110D01*
X6992441Y4118330D01*
Y4110000D01*
Y4118330D01*
X7000772Y4126661D01*
X7009102D01*
X7017433Y4118330D01*
Y4101669D01*
X7009102Y4093339D01*
X7017433Y4176645D02*
Y4143322D01*
X6984110Y4176645D01*
X6975780D01*
X6967449Y4168314D01*
Y4151653D01*
X6975780Y4143322D01*
X7009078Y4396620D02*
X7000747Y4404950D01*
X6984086D01*
X6975755Y4396620D01*
Y4363297D01*
X6984086Y4354967D01*
X7000747D01*
X7009078Y4363297D01*
X7025739Y4396620D02*
X7034069Y4404950D01*
X7050731D01*
X7059061Y4396620D01*
Y4388289D01*
X7050731Y4379958D01*
X7042400D01*
X7050731D01*
X7059061Y4371628D01*
Y4363297D01*
X7050731Y4354967D01*
X7034069D01*
X7025739Y4363297D01*
X7075722Y4396620D02*
X7084053Y4404950D01*
X7100714D01*
X7109045Y4396620D01*
Y4388289D01*
X7100714Y4379958D01*
X7092384D01*
X7100714D01*
X7109045Y4371628D01*
Y4363297D01*
X7100714Y4354967D01*
X7084053D01*
X7075722Y4363297D01*
X7009078Y4286620D02*
X7000747Y4294950D01*
X6984086D01*
X6975755Y4286620D01*
Y4253297D01*
X6984086Y4244967D01*
X7000747D01*
X7009078Y4253297D01*
X7025739Y4286620D02*
X7034069Y4294950D01*
X7050731D01*
X7059061Y4286620D01*
Y4278289D01*
X7050731Y4269958D01*
X7042400D01*
X7050731D01*
X7059061Y4261628D01*
Y4253297D01*
X7050731Y4244967D01*
X7034069D01*
X7025739Y4253297D01*
X7100714Y4244967D02*
Y4294950D01*
X7075722Y4269958D01*
X7109045D01*
X6185780Y4656678D02*
X6177449Y4648347D01*
Y4631686D01*
X6185780Y4623355D01*
X6219102D01*
X6227433Y4631686D01*
Y4648347D01*
X6219102Y4656678D01*
X6185780Y4673339D02*
X6177449Y4681670D01*
Y4698331D01*
X6185780Y4706661D01*
X6194111D01*
X6202441Y4698331D01*
Y4690000D01*
Y4698331D01*
X6210772Y4706661D01*
X6219102D01*
X6227433Y4698331D01*
Y4681670D01*
X6219102Y4673339D01*
X6177449Y4756645D02*
Y4723323D01*
X6202441D01*
X6194111Y4739984D01*
Y4748314D01*
X6202441Y4756645D01*
X6219102D01*
X6227433Y4748314D01*
Y4731653D01*
X6219102Y4723323D01*
X7699078Y3926703D02*
X7690747Y3935033D01*
X7674086D01*
X7665755Y3926703D01*
Y3893380D01*
X7674086Y3885049D01*
X7690747D01*
X7699078Y3893380D01*
X7715739Y3926703D02*
X7724070Y3935033D01*
X7740731D01*
X7749061Y3926703D01*
Y3918372D01*
X7740731Y3910041D01*
X7732400D01*
X7740731D01*
X7749061Y3901711D01*
Y3893380D01*
X7740731Y3885049D01*
X7724070D01*
X7715739Y3893380D01*
X7799045Y3935033D02*
X7782384Y3926703D01*
X7765723Y3910041D01*
Y3893380D01*
X7774053Y3885049D01*
X7790714D01*
X7799045Y3893380D01*
Y3901711D01*
X7790714Y3910041D01*
X7765723D01*
X5455780Y2206678D02*
X5447449Y2198347D01*
Y2181686D01*
X5455780Y2173355D01*
X5489102D01*
X5497433Y2181686D01*
Y2198347D01*
X5489102Y2206678D01*
X5455780Y2223339D02*
X5447449Y2231669D01*
Y2248331D01*
X5455780Y2256661D01*
X5464110D01*
X5472441Y2248331D01*
Y2240000D01*
Y2248331D01*
X5480772Y2256661D01*
X5489102D01*
X5497433Y2248331D01*
Y2231669D01*
X5489102Y2223339D01*
X5455780Y2273322D02*
X5447449Y2281653D01*
Y2298314D01*
X5455780Y2306645D01*
X5464110D01*
X5472441Y2298314D01*
X5480772Y2306645D01*
X5489102D01*
X5497433Y2298314D01*
Y2281653D01*
X5489102Y2273322D01*
X5480772D01*
X5472441Y2281653D01*
X5464110Y2273322D01*
X5455780D01*
X5472441Y2281653D02*
Y2298314D01*
X7635779Y1966678D02*
X7627449Y1958347D01*
Y1941686D01*
X7635779Y1933355D01*
X7669102D01*
X7677433Y1941686D01*
Y1958347D01*
X7669102Y1966678D01*
X7635779Y1983339D02*
X7627449Y1991669D01*
Y2008331D01*
X7635779Y2016661D01*
X7644110D01*
X7652441Y2008331D01*
Y2000000D01*
Y2008331D01*
X7660772Y2016661D01*
X7669102D01*
X7677433Y2008331D01*
Y1991669D01*
X7669102Y1983339D01*
Y2033322D02*
X7677433Y2041653D01*
Y2058314D01*
X7669102Y2066645D01*
X7635779D01*
X7627449Y2058314D01*
Y2041653D01*
X7635779Y2033322D01*
X7644110D01*
X7652441Y2041653D01*
Y2066645D01*
X6289078Y2936620D02*
X6280748Y2944951D01*
X6264087D01*
X6255756Y2936620D01*
Y2903298D01*
X6264087Y2894967D01*
X6280748D01*
X6289078Y2903298D01*
X6330731Y2894967D02*
Y2944951D01*
X6305739Y2919959D01*
X6339062D01*
X6355723Y2936620D02*
X6364054Y2944951D01*
X6380715D01*
X6389046Y2936620D01*
Y2903298D01*
X6380715Y2894967D01*
X6364054D01*
X6355723Y2903298D01*
Y2936620D01*
X6297409Y3346620D02*
X6289078Y3354951D01*
X6272417D01*
X6264087Y3346620D01*
Y3313298D01*
X6272417Y3304967D01*
X6289078D01*
X6297409Y3313298D01*
X6339062Y3304967D02*
Y3354951D01*
X6314070Y3329959D01*
X6347393D01*
X6364054Y3304967D02*
X6380715D01*
X6372385D01*
Y3354951D01*
X6364054Y3346620D01*
X2767408Y2708347D02*
X2817391D01*
Y2741670D01*
Y2783323D02*
X2767408D01*
X2792400Y2758331D01*
Y2791653D01*
X3407392Y4201686D02*
X3357408D01*
X3407392Y4235008D01*
X3357408D01*
Y4251669D02*
Y4284992D01*
Y4268331D01*
X3407392D01*
Y4301653D02*
Y4318314D01*
Y4309984D01*
X3357408D01*
X3365739Y4301653D01*
X3997392Y4313355D02*
X3947408D01*
X3997392Y4346677D01*
X3947408D01*
Y4363338D02*
Y4396661D01*
Y4380000D01*
X3997392D01*
Y4438314D02*
X3947408D01*
X3972400Y4413322D01*
Y4446645D01*
X3285755Y3525008D02*
Y3574992D01*
X3319078Y3525008D01*
Y3574992D01*
X3335739D02*
X3369061D01*
X3352400D01*
Y3525008D01*
X3419045Y3574992D02*
X3385722D01*
Y3550000D01*
X3402384Y3558331D01*
X3410714D01*
X3419045Y3550000D01*
Y3533339D01*
X3410714Y3525008D01*
X3394053D01*
X3385722Y3533339D01*
X3997392Y3573355D02*
X3947408D01*
X3997392Y3606678D01*
X3947408D01*
Y3623339D02*
Y3656661D01*
Y3640000D01*
X3997392D01*
X3947408Y3706645D02*
X3955739Y3689984D01*
X3972400Y3673323D01*
X3989061D01*
X3997392Y3681653D01*
Y3698314D01*
X3989061Y3706645D01*
X3980731D01*
X3972400Y3698314D01*
Y3673323D01*
X2207391Y3227520D02*
X2157408D01*
Y3252512D01*
X2165738Y3260843D01*
X2182399D01*
X2190730Y3252512D01*
Y3227520D01*
Y3244181D02*
X2207391Y3260843D01*
Y3277504D02*
Y3294165D01*
Y3285835D01*
X2157408D01*
X2165738Y3277504D01*
Y3319157D02*
X2157408Y3327488D01*
Y3344149D01*
X2165738Y3352480D01*
X2174069D01*
X2182399Y3344149D01*
Y3335818D01*
Y3344149D01*
X2190730Y3352480D01*
X2199061D01*
X2207391Y3344149D01*
Y3327488D01*
X2199061Y3319157D01*
X2917392Y2147520D02*
X2867408D01*
Y2172512D01*
X2875738Y2180843D01*
X2892400D01*
X2900731Y2172512D01*
Y2147520D01*
Y2164181D02*
X2917392Y2180843D01*
Y2197504D02*
Y2214165D01*
Y2205835D01*
X2867408D01*
X2875738Y2197504D01*
X2917392Y2264149D02*
X2867408D01*
X2892400Y2239157D01*
Y2272480D01*
X2817392Y2147520D02*
X2767408D01*
Y2172512D01*
X2775739Y2180843D01*
X2792400D01*
X2800731Y2172512D01*
Y2147520D01*
Y2164181D02*
X2817392Y2180843D01*
Y2197504D02*
Y2214165D01*
Y2205835D01*
X2767408D01*
X2775739Y2197504D01*
X2767408Y2272480D02*
Y2239157D01*
X2792400D01*
X2784069Y2255818D01*
Y2264149D01*
X2792400Y2272480D01*
X2809061D01*
X2817392Y2264149D01*
Y2247488D01*
X2809061Y2239157D01*
X2717392Y2147520D02*
X2667408D01*
Y2172512D01*
X2675738Y2180842D01*
X2692400D01*
X2700730Y2172512D01*
Y2147520D01*
Y2164181D02*
X2717392Y2180842D01*
Y2197504D02*
Y2214165D01*
Y2205834D01*
X2667408D01*
X2675738Y2197504D01*
X2667408Y2272479D02*
X2675738Y2255818D01*
X2692400Y2239157D01*
X2709061D01*
X2717392Y2247488D01*
Y2264149D01*
X2709061Y2272479D01*
X2700730D01*
X2692400Y2264149D01*
Y2239157D01*
X5319921Y3085009D02*
Y3134992D01*
X5344912D01*
X5353243Y3126662D01*
Y3110000D01*
X5344912Y3101670D01*
X5319921D01*
X5336582D02*
X5353243Y3085009D01*
X5369904D02*
X5386565D01*
X5378235D01*
Y3134992D01*
X5369904Y3126662D01*
X5411557Y3134992D02*
X5444880D01*
Y3126662D01*
X5411557Y3093339D01*
Y3085009D01*
X5319921Y2745008D02*
Y2794992D01*
X5344913D01*
X5353243Y2786662D01*
Y2770000D01*
X5344913Y2761670D01*
X5319921D01*
X5336582D02*
X5353243Y2745008D01*
X5369904D02*
X5386566D01*
X5378235D01*
Y2794992D01*
X5369904Y2786662D01*
X5411558Y2753339D02*
X5419888Y2745008D01*
X5436549D01*
X5444880Y2753339D01*
Y2786662D01*
X5436549Y2794992D01*
X5419888D01*
X5411558Y2786662D01*
Y2778331D01*
X5419888Y2770000D01*
X5444880D01*
X5315756Y2645008D02*
Y2694992D01*
X5340748D01*
X5349078Y2686662D01*
Y2670000D01*
X5340748Y2661670D01*
X5315756D01*
X5332417D02*
X5349078Y2645008D01*
X5399062D02*
X5365739D01*
X5399062Y2678331D01*
Y2686662D01*
X5390731Y2694992D01*
X5374070D01*
X5365739Y2686662D01*
X5415723D02*
X5424054Y2694992D01*
X5440715D01*
X5449045Y2686662D01*
Y2653339D01*
X5440715Y2645008D01*
X5424054D01*
X5415723Y2653339D01*
Y2686662D01*
X1734086Y2055008D02*
Y2104992D01*
X1759078D01*
X1767408Y2096662D01*
Y2080000D01*
X1759078Y2071669D01*
X1734086D01*
X1750747D02*
X1767408Y2055008D01*
X1817392D02*
X1784070D01*
X1817392Y2088331D01*
Y2096662D01*
X1809061Y2104992D01*
X1792400D01*
X1784070Y2096662D01*
X1834053Y2055008D02*
X1850714D01*
X1842384D01*
Y2104992D01*
X1834053Y2096662D01*
X4887392Y5663355D02*
X4837408D01*
Y5688347D01*
X4845739Y5696678D01*
X4862400D01*
X4870731Y5688347D01*
Y5663355D01*
Y5680016D02*
X4887392Y5696678D01*
Y5746661D02*
Y5713339D01*
X4854069Y5746661D01*
X4845739D01*
X4837408Y5738331D01*
Y5721670D01*
X4845739Y5713339D01*
X4887392Y5796645D02*
Y5763322D01*
X4854069Y5796645D01*
X4845739D01*
X4837408Y5788314D01*
Y5771653D01*
X4845739Y5763322D01*
X4997392Y5663355D02*
X4947408D01*
Y5688347D01*
X4955739Y5696678D01*
X4972400D01*
X4980731Y5688347D01*
Y5663355D01*
Y5680016D02*
X4997392Y5696678D01*
Y5746661D02*
Y5713339D01*
X4964069Y5746661D01*
X4955739D01*
X4947408Y5738331D01*
Y5721670D01*
X4955739Y5713339D01*
Y5763322D02*
X4947408Y5771653D01*
Y5788314D01*
X4955739Y5796645D01*
X4964069D01*
X4972400Y5788314D01*
Y5779984D01*
Y5788314D01*
X4980731Y5796645D01*
X4989061D01*
X4997392Y5788314D01*
Y5771653D01*
X4989061Y5763322D01*
X5807392Y2623355D02*
X5757408D01*
Y2648347D01*
X5765739Y2656678D01*
X5782400D01*
X5790731Y2648347D01*
Y2623355D01*
Y2640016D02*
X5807392Y2656678D01*
Y2706661D02*
Y2673339D01*
X5774069Y2706661D01*
X5765739D01*
X5757408Y2698331D01*
Y2681670D01*
X5765739Y2673339D01*
X5807392Y2748314D02*
X5757408D01*
X5782400Y2723322D01*
Y2756645D01*
X6067391Y1913356D02*
X6017408D01*
Y1938347D01*
X6025738Y1946678D01*
X6042400D01*
X6050730Y1938347D01*
Y1913356D01*
Y1930017D02*
X6067391Y1946678D01*
Y1996662D02*
Y1963339D01*
X6034069Y1996662D01*
X6025738D01*
X6017408Y1988331D01*
Y1971670D01*
X6025738Y1963339D01*
X6017408Y2046645D02*
X6025738Y2029984D01*
X6042400Y2013323D01*
X6059061D01*
X6067391Y2021654D01*
Y2038315D01*
X6059061Y2046645D01*
X6050730D01*
X6042400Y2038315D01*
Y2013323D01*
X6167391Y1913355D02*
X6117408D01*
Y1938347D01*
X6125738Y1946678D01*
X6142399D01*
X6150730Y1938347D01*
Y1913355D01*
Y1930016D02*
X6167391Y1946678D01*
Y1996661D02*
Y1963339D01*
X6134069Y1996661D01*
X6125738D01*
X6117408Y1988331D01*
Y1971669D01*
X6125738Y1963339D01*
X6117408Y2013322D02*
Y2046645D01*
X6125738D01*
X6159061Y2013322D01*
X6167391D01*
X6067391Y1713355D02*
X6017408D01*
Y1738347D01*
X6025738Y1746678D01*
X6042400D01*
X6050730Y1738347D01*
Y1713355D01*
Y1730017D02*
X6067391Y1746678D01*
Y1796662D02*
Y1763339D01*
X6034069Y1796662D01*
X6025738D01*
X6017408Y1788331D01*
Y1771670D01*
X6025738Y1763339D01*
Y1813323D02*
X6017408Y1821653D01*
Y1838315D01*
X6025738Y1846645D01*
X6034069D01*
X6042400Y1838315D01*
X6050730Y1846645D01*
X6059061D01*
X6067391Y1838315D01*
Y1821653D01*
X6059061Y1813323D01*
X6050730D01*
X6042400Y1821653D01*
X6034069Y1813323D01*
X6025738D01*
X6042400Y1821653D02*
Y1838315D01*
X6167392Y1713355D02*
X6117408D01*
Y1738347D01*
X6125738Y1746678D01*
X6142400D01*
X6150730Y1738347D01*
Y1713355D01*
Y1730017D02*
X6167392Y1746678D01*
Y1796662D02*
Y1763339D01*
X6134069Y1796662D01*
X6125738D01*
X6117408Y1788331D01*
Y1771670D01*
X6125738Y1763339D01*
X6159061Y1813323D02*
X6167392Y1821653D01*
Y1838315D01*
X6159061Y1846645D01*
X6125738D01*
X6117408Y1838315D01*
Y1821653D01*
X6125738Y1813323D01*
X6134069D01*
X6142400Y1821653D01*
Y1846645D01*
X3047392Y5642529D02*
X2997408D01*
Y5667521D01*
X3005738Y5675851D01*
X3022400D01*
X3030731Y5667521D01*
Y5642529D01*
Y5659190D02*
X3047392Y5675851D01*
Y5692512D02*
Y5709173D01*
Y5700843D01*
X2997408D01*
X3005738Y5692512D01*
Y5734166D02*
X2997408Y5742496D01*
Y5759157D01*
X3005738Y5767488D01*
X3014069D01*
X3022400Y5759157D01*
Y5750827D01*
Y5759157D01*
X3030731Y5767488D01*
X3039061D01*
X3047392Y5759157D01*
Y5742496D01*
X3039061Y5734166D01*
X3005738Y5784149D02*
X2997408Y5792480D01*
Y5809141D01*
X3005738Y5817472D01*
X3014069D01*
X3022400Y5809141D01*
Y5800810D01*
Y5809141D01*
X3030731Y5817472D01*
X3039061D01*
X3047392Y5809141D01*
Y5792480D01*
X3039061Y5784149D01*
X2947391Y5642528D02*
X2897408D01*
Y5667520D01*
X2905738Y5675851D01*
X2922400D01*
X2930730Y5667520D01*
Y5642528D01*
Y5659190D02*
X2947391Y5675851D01*
Y5692512D02*
Y5709173D01*
Y5700843D01*
X2897408D01*
X2905738Y5692512D01*
Y5734165D02*
X2897408Y5742496D01*
Y5759157D01*
X2905738Y5767488D01*
X2914069D01*
X2922400Y5759157D01*
Y5750826D01*
Y5759157D01*
X2930730Y5767488D01*
X2939061D01*
X2947391Y5759157D01*
Y5742496D01*
X2939061Y5734165D01*
X2947391Y5809141D02*
X2897408D01*
X2922400Y5784149D01*
Y5817471D01*
X2417894Y2474992D02*
Y2433339D01*
X2426225Y2425008D01*
X2442886D01*
X2451216Y2433339D01*
Y2474992D01*
X2501200D02*
X2467877D01*
Y2450000D01*
X2484539Y2458331D01*
X2492869D01*
X2501200Y2450000D01*
Y2433339D01*
X2492869Y2425008D01*
X2476208D01*
X2467877Y2433339D01*
X4791100Y2170471D02*
Y2128818D01*
X4799431Y2120487D01*
X4816092D01*
X4824423Y2128818D01*
Y2170471D01*
X4874407D02*
X4857745Y2162140D01*
X4841084Y2145479D01*
Y2128818D01*
X4849415Y2120487D01*
X4866076D01*
X4874407Y2128818D01*
Y2137148D01*
X4866076Y2145479D01*
X4841084D01*
X5831100Y1870470D02*
Y1828818D01*
X5839430Y1820487D01*
X5856091D01*
X5864422Y1828818D01*
Y1870470D01*
X5881083D02*
X5914406D01*
Y1862140D01*
X5881083Y1828818D01*
Y1820487D01*
X7168278Y3757320D02*
Y3715667D01*
X7176609Y3707337D01*
X7193270D01*
X7201601Y3715667D01*
Y3757320D01*
X7218262Y3748990D02*
X7226592Y3757320D01*
X7243253D01*
X7251584Y3748990D01*
Y3740659D01*
X7243253Y3732329D01*
X7251584Y3723998D01*
Y3715667D01*
X7243253Y3707337D01*
X7226592D01*
X7218262Y3715667D01*
Y3723998D01*
X7226592Y3732329D01*
X7218262Y3740659D01*
Y3748990D01*
X7226592Y3732329D02*
X7243253D01*
X6028278Y2927321D02*
Y2885668D01*
X6036609Y2877337D01*
X6053270D01*
X6061601Y2885668D01*
Y2927321D01*
X6078262Y2885668D02*
X6086592Y2877337D01*
X6103253D01*
X6111584Y2885668D01*
Y2918990D01*
X6103253Y2927321D01*
X6086592D01*
X6078262Y2918990D01*
Y2910659D01*
X6086592Y2902329D01*
X6111584D01*
X6689920Y4204639D02*
Y4162986D01*
X6698251Y4154655D01*
X6714912D01*
X6723243Y4162986D01*
Y4204639D01*
X6739904Y4154655D02*
X6756565D01*
X6748235D01*
Y4204639D01*
X6739904Y4196308D01*
X6781557D02*
X6789888Y4204639D01*
X6806549D01*
X6814880Y4196308D01*
Y4162986D01*
X6806549Y4154655D01*
X6789888D01*
X6781557Y4162986D01*
Y4196308D01*
X6167391Y2323355D02*
X6117408D01*
Y2348347D01*
X6125738Y2356678D01*
X6142399D01*
X6150730Y2348347D01*
Y2323355D01*
Y2340016D02*
X6167391Y2356678D01*
Y2398331D02*
X6117408D01*
X6142399Y2373339D01*
Y2406661D01*
X6125738Y2423323D02*
X6117408Y2431653D01*
Y2448314D01*
X6125738Y2456645D01*
X6134069D01*
X6142399Y2448314D01*
Y2439984D01*
Y2448314D01*
X6150730Y2456645D01*
X6159061D01*
X6167391Y2448314D01*
Y2431653D01*
X6159061Y2423323D01*
X7767392Y3243355D02*
X7717408D01*
X7767392Y3276677D01*
X7717408D01*
Y3293339D02*
Y3326661D01*
Y3310000D01*
X7767392D01*
X7725738Y3343322D02*
X7717408Y3351653D01*
Y3368314D01*
X7725738Y3376645D01*
X7734069D01*
X7742400Y3368314D01*
Y3359983D01*
Y3368314D01*
X7750730Y3376645D01*
X7759061D01*
X7767392Y3368314D01*
Y3351653D01*
X7759061Y3343322D01*
X5849077Y2046703D02*
X5840747Y2055033D01*
X5824086D01*
X5815755Y2046703D01*
Y2013380D01*
X5824086Y2005050D01*
X5840747D01*
X5849077Y2013380D01*
X5890730Y2005050D02*
Y2055033D01*
X5865739Y2030041D01*
X5899061D01*
X5949045Y2005050D02*
X5915722D01*
X5949045Y2038372D01*
Y2046703D01*
X5940714Y2055033D01*
X5924053D01*
X5915722Y2046703D01*
X5029078Y2256620D02*
X5020747Y2264951D01*
X5004086D01*
X4995756Y2256620D01*
Y2223298D01*
X5004086Y2214967D01*
X5020747D01*
X5029078Y2223298D01*
X5070731Y2214967D02*
Y2264951D01*
X5045739Y2239959D01*
X5079062D01*
X5095723Y2256620D02*
X5104054Y2264951D01*
X5120715D01*
X5129045Y2256620D01*
Y2248290D01*
X5120715Y2239959D01*
X5112384D01*
X5120715D01*
X5129045Y2231628D01*
Y2223298D01*
X5120715Y2214967D01*
X5104054D01*
X5095723Y2223298D01*
X5619078Y1986703D02*
X5610747Y1995033D01*
X5594086D01*
X5585755Y1986703D01*
Y1953380D01*
X5594086Y1945049D01*
X5610747D01*
X5619078Y1953380D01*
X5660731Y1945049D02*
Y1995033D01*
X5635739Y1970041D01*
X5669061D01*
X5710714Y1945049D02*
Y1995033D01*
X5685722Y1970041D01*
X5719045D01*
X5619077Y2376703D02*
X5610747Y2385033D01*
X5594086D01*
X5585755Y2376703D01*
Y2343380D01*
X5594086Y2335049D01*
X5610747D01*
X5619077Y2343380D01*
X5660730Y2335049D02*
Y2385033D01*
X5635739Y2360041D01*
X5669061D01*
X5719045Y2385033D02*
X5685722D01*
Y2360041D01*
X5702383Y2368372D01*
X5710714D01*
X5719045Y2360041D01*
Y2343380D01*
X5710714Y2335049D01*
X5694053D01*
X5685722Y2343380D01*
X5349078Y2886703D02*
X5340748Y2895033D01*
X5324086D01*
X5315756Y2886703D01*
Y2853380D01*
X5324086Y2845050D01*
X5340748D01*
X5349078Y2853380D01*
X5390731Y2845050D02*
Y2895033D01*
X5365739Y2870042D01*
X5399062D01*
X5449045Y2895033D02*
X5432384Y2886703D01*
X5415723Y2870042D01*
Y2853380D01*
X5424054Y2845050D01*
X5440715D01*
X5449045Y2853380D01*
Y2861711D01*
X5440715Y2870042D01*
X5415723D01*
X6679078Y2566703D02*
X6670747Y2575033D01*
X6654086D01*
X6645755Y2566703D01*
Y2533380D01*
X6654086Y2525050D01*
X6670747D01*
X6679078Y2533380D01*
X6720731Y2525050D02*
Y2575033D01*
X6695739Y2550041D01*
X6729061D01*
X6745723Y2533380D02*
X6754053Y2525050D01*
X6770714D01*
X6779045Y2533380D01*
Y2566703D01*
X6770714Y2575033D01*
X6754053D01*
X6745723Y2566703D01*
Y2558372D01*
X6754053Y2550041D01*
X6779045D01*
X7357451Y2297321D02*
Y2255668D01*
X7365782Y2247337D01*
X7382443D01*
X7390774Y2255668D01*
Y2297321D01*
X7407435Y2247337D02*
X7424096D01*
X7415765D01*
Y2297321D01*
X7407435Y2288990D01*
X7482410Y2297321D02*
X7465749Y2288990D01*
X7449088Y2272329D01*
Y2255668D01*
X7457419Y2247337D01*
X7474080D01*
X7482410Y2255668D01*
Y2263998D01*
X7474080Y2272329D01*
X7449088D01*
X6253286Y2237320D02*
Y2195667D01*
X6261617Y2187337D01*
X6278278D01*
X6286609Y2195667D01*
Y2237320D01*
X6328262Y2187337D02*
Y2237320D01*
X6303270Y2212329D01*
X6336592D01*
X6386576Y2187337D02*
X6353253D01*
X6386576Y2220659D01*
Y2228990D01*
X6378245Y2237320D01*
X6361584D01*
X6353253Y2228990D01*
X7353286Y1747321D02*
Y1705668D01*
X7361617Y1697337D01*
X7378278D01*
X7386609Y1705668D01*
Y1747321D01*
X7428261Y1697337D02*
Y1747321D01*
X7403270Y1722329D01*
X7436592D01*
X7453253Y1738990D02*
X7461584Y1747321D01*
X7478245D01*
X7486576Y1738990D01*
Y1730659D01*
X7478245Y1722329D01*
X7469914D01*
X7478245D01*
X7486576Y1713998D01*
Y1705668D01*
X7478245Y1697337D01*
X7461584D01*
X7453253Y1705668D01*
X6003286Y3327320D02*
Y3285668D01*
X6011617Y3277337D01*
X6028278D01*
X6036609Y3285668D01*
Y3327320D01*
X6078262Y3277337D02*
Y3327320D01*
X6053270Y3302329D01*
X6086592D01*
X6128245Y3277337D02*
Y3327320D01*
X6103253Y3302329D01*
X6136576D01*
X6253286Y1977320D02*
Y1935667D01*
X6261617Y1927337D01*
X6278278D01*
X6286609Y1935667D01*
Y1977320D01*
X6328262Y1927337D02*
Y1977320D01*
X6303270Y1952329D01*
X6336592D01*
X6386576Y1977320D02*
X6353253D01*
Y1952329D01*
X6369915Y1960659D01*
X6378245D01*
X6386576Y1952329D01*
Y1935667D01*
X6378245Y1927337D01*
X6361584D01*
X6353253Y1935667D01*
X5213286Y2217320D02*
Y2175667D01*
X5221617Y2167337D01*
X5238278D01*
X5246609Y2175667D01*
Y2217320D01*
X5288262Y2167337D02*
Y2217320D01*
X5263270Y2192329D01*
X5296592D01*
X5346576Y2217320D02*
X5329915Y2208990D01*
X5313254Y2192329D01*
Y2175667D01*
X5321584Y2167337D01*
X5338245D01*
X5346576Y2175667D01*
Y2183998D01*
X5338245Y2192329D01*
X5313254D01*
X6003286Y3127320D02*
Y3085667D01*
X6011617Y3077337D01*
X6028278D01*
X6036609Y3085667D01*
Y3127320D01*
X6078262Y3077337D02*
Y3127320D01*
X6053270Y3102329D01*
X6086592D01*
X6103253Y3127320D02*
X6136576D01*
Y3118990D01*
X6103253Y3085667D01*
Y3077337D01*
X6253286Y1807320D02*
Y1765668D01*
X6261617Y1757337D01*
X6278278D01*
X6286609Y1765668D01*
Y1807320D01*
X6328262Y1757337D02*
Y1807320D01*
X6303270Y1782329D01*
X6336592D01*
X6353253Y1798990D02*
X6361584Y1807320D01*
X6378245D01*
X6386576Y1798990D01*
Y1790659D01*
X6378245Y1782329D01*
X6386576Y1773998D01*
Y1765668D01*
X6378245Y1757337D01*
X6361584D01*
X6353253Y1765668D01*
Y1773998D01*
X6361584Y1782329D01*
X6353253Y1790659D01*
Y1798990D01*
X6361584Y1782329D02*
X6378245D01*
X5233286Y2017321D02*
Y1975668D01*
X5241617Y1967337D01*
X5258278D01*
X5266609Y1975668D01*
Y2017321D01*
X5308262Y1967337D02*
Y2017321D01*
X5283270Y1992329D01*
X5316592D01*
X5333253Y1975668D02*
X5341584Y1967337D01*
X5358245D01*
X5366576Y1975668D01*
Y2008990D01*
X5358245Y2017321D01*
X5341584D01*
X5333253Y2008990D01*
Y2000659D01*
X5341584Y1992329D01*
X5366576D01*
%TF.MD5,e20a565cba57814237813b47b8bb4eb4*%
M02*
