%TF.GenerationSoftware,Altium Limited,Altium Designer,25.3.3 (18)*%
G04 Layer_Color=16711935*
%FSLAX45Y45*%
%MOMM*%
%TF.SameCoordinates,95E4F6BA-DA47-4B25-BB43-2529A7C35442*%
%TF.FilePolarity,Negative*%
%TF.FileFunction,Soldermask,Bot*%
%TF.Part,CustomerPanel*%
G01*
G75*
%TA.AperFunction,SMDPad,CuDef*%
G04:AMPARAMS|DCode=97|XSize=1.73mm|YSize=1.33mm|CornerRadius=0.3525mm|HoleSize=0mm|Usage=FLASHONLY|Rotation=0.000|XOffset=0mm|YOffset=0mm|HoleType=Round|Shape=RoundedRectangle|*
%AMROUNDEDRECTD97*
21,1,1.73000,0.62500,0,0,0.0*
21,1,1.02500,1.33000,0,0,0.0*
1,1,0.70500,0.51250,-0.31250*
1,1,0.70500,-0.51250,-0.31250*
1,1,0.70500,-0.51250,0.31250*
1,1,0.70500,0.51250,0.31250*
%
%ADD97ROUNDEDRECTD97*%
G04:AMPARAMS|DCode=98|XSize=1.73mm|YSize=1.33mm|CornerRadius=0.3525mm|HoleSize=0mm|Usage=FLASHONLY|Rotation=90.000|XOffset=0mm|YOffset=0mm|HoleType=Round|Shape=RoundedRectangle|*
%AMROUNDEDRECTD98*
21,1,1.73000,0.62500,0,0,90.0*
21,1,1.02500,1.33000,0,0,90.0*
1,1,0.70500,0.31250,0.51250*
1,1,0.70500,0.31250,-0.51250*
1,1,0.70500,-0.31250,-0.51250*
1,1,0.70500,-0.31250,0.51250*
%
%ADD98ROUNDEDRECTD98*%
%TA.AperFunction,WasherPad*%
G04:AMPARAMS|DCode=99|XSize=0.2032mm|YSize=0.2032mm|CornerRadius=0mm|HoleSize=0mm|Usage=FLASHONLY|Rotation=270.000|XOffset=0mm|YOffset=0mm|HoleType=Round|Shape=RoundedRectangle|*
%AMROUNDEDRECTD99*
21,1,0.20320,0.20320,0,0,270.0*
21,1,0.20320,0.20320,0,0,270.0*
1,1,0.00000,-0.10160,-0.10160*
1,1,0.00000,-0.10160,0.10160*
1,1,0.00000,0.10160,0.10160*
1,1,0.00000,0.10160,-0.10160*
%
%ADD99ROUNDEDRECTD99*%
G04:AMPARAMS|DCode=100|XSize=0.2032mm|YSize=0.2032mm|CornerRadius=0mm|HoleSize=0mm|Usage=FLASHONLY|Rotation=0.000|XOffset=0mm|YOffset=0mm|HoleType=Round|Shape=RoundedRectangle|*
%AMROUNDEDRECTD100*
21,1,0.20320,0.20320,0,0,0.0*
21,1,0.20320,0.20320,0,0,0.0*
1,1,0.00000,0.10160,-0.10160*
1,1,0.00000,-0.10160,-0.10160*
1,1,0.00000,-0.10160,0.10160*
1,1,0.00000,0.10160,0.10160*
%
%ADD100ROUNDEDRECTD100*%
%TA.AperFunction,ComponentPad*%
G04:AMPARAMS|DCode=101|XSize=1.63mm|YSize=1.68mm|CornerRadius=0.4275mm|HoleSize=0mm|Usage=FLASHONLY|Rotation=270.000|XOffset=0mm|YOffset=0mm|HoleType=Round|Shape=RoundedRectangle|*
%AMROUNDEDRECTD101*
21,1,1.63000,0.82500,0,0,270.0*
21,1,0.77500,1.68000,0,0,270.0*
1,1,0.85500,-0.41250,-0.38750*
1,1,0.85500,-0.41250,0.38750*
1,1,0.85500,0.41250,0.38750*
1,1,0.85500,0.41250,-0.38750*
%
%ADD101ROUNDEDRECTD101*%
G04:AMPARAMS|DCode=102|XSize=1.78mm|YSize=2.18mm|CornerRadius=0mm|HoleSize=0mm|Usage=FLASHONLY|Rotation=0.000|XOffset=0mm|YOffset=0mm|HoleType=Round|Shape=Octagon|*
%AMOCTAGOND102*
4,1,8,-0.44500,1.09000,0.44500,1.09000,0.89000,0.64500,0.89000,-0.64500,0.44500,-1.09000,-0.44500,-1.09000,-0.89000,-0.64500,-0.89000,0.64500,-0.44500,1.09000,0.0*
%
%ADD102OCTAGOND102*%

G04:AMPARAMS|DCode=103|XSize=1.78mm|YSize=2.18mm|CornerRadius=0.465mm|HoleSize=0mm|Usage=FLASHONLY|Rotation=0.000|XOffset=0mm|YOffset=0mm|HoleType=Round|Shape=RoundedRectangle|*
%AMROUNDEDRECTD103*
21,1,1.78000,1.25001,0,0,0.0*
21,1,0.85000,2.18000,0,0,0.0*
1,1,0.93000,0.42500,-0.62500*
1,1,0.93000,-0.42500,-0.62500*
1,1,0.93000,-0.42500,0.62500*
1,1,0.93000,0.42500,0.62500*
%
%ADD103ROUNDEDRECTD103*%
G04:AMPARAMS|DCode=104|XSize=1.48mm|YSize=1.78mm|CornerRadius=0.39mm|HoleSize=0mm|Usage=FLASHONLY|Rotation=270.000|XOffset=0mm|YOffset=0mm|HoleType=Round|Shape=RoundedRectangle|*
%AMROUNDEDRECTD104*
21,1,1.48000,1.00000,0,0,270.0*
21,1,0.70000,1.78000,0,0,270.0*
1,1,0.78000,-0.50000,-0.35000*
1,1,0.78000,-0.50000,0.35000*
1,1,0.78000,0.50000,0.35000*
1,1,0.78000,0.50000,-0.35000*
%
%ADD104ROUNDEDRECTD104*%
G04:AMPARAMS|DCode=105|XSize=1.48mm|YSize=1.78mm|CornerRadius=0mm|HoleSize=0mm|Usage=FLASHONLY|Rotation=270.000|XOffset=0mm|YOffset=0mm|HoleType=Round|Shape=Octagon|*
%AMOCTAGOND105*
4,1,8,0.89000,0.37000,0.89000,-0.37000,0.52000,-0.74000,-0.52000,-0.74000,-0.89000,-0.37000,-0.89000,0.37000,-0.52000,0.74000,0.52000,0.74000,0.89000,0.37000,0.0*
%
%ADD105OCTAGOND105*%

G04:AMPARAMS|DCode=106|XSize=4.08mm|YSize=3.68mm|CornerRadius=0.58mm|HoleSize=0mm|Usage=FLASHONLY|Rotation=0.000|XOffset=0mm|YOffset=0mm|HoleType=Round|Shape=RoundedRectangle|*
%AMROUNDEDRECTD106*
21,1,4.08000,2.52000,0,0,0.0*
21,1,2.92000,3.68000,0,0,0.0*
1,1,1.16000,1.46000,-1.26000*
1,1,1.16000,-1.46000,-1.26000*
1,1,1.16000,-1.46000,1.26000*
1,1,1.16000,1.46000,1.26000*
%
%ADD106ROUNDEDRECTD106*%
G04:AMPARAMS|DCode=107|XSize=2.28mm|YSize=2.28mm|CornerRadius=0.59mm|HoleSize=0mm|Usage=FLASHONLY|Rotation=270.000|XOffset=0mm|YOffset=0mm|HoleType=Round|Shape=RoundedRectangle|*
%AMROUNDEDRECTD107*
21,1,2.28000,1.10000,0,0,270.0*
21,1,1.10000,2.28000,0,0,270.0*
1,1,1.18000,-0.55000,-0.55000*
1,1,1.18000,-0.55000,0.55000*
1,1,1.18000,0.55000,0.55000*
1,1,1.18000,0.55000,-0.55000*
%
%ADD107ROUNDEDRECTD107*%
G04:AMPARAMS|DCode=108|XSize=2.28mm|YSize=2.28mm|CornerRadius=0mm|HoleSize=0mm|Usage=FLASHONLY|Rotation=270.000|XOffset=0mm|YOffset=0mm|HoleType=Round|Shape=Octagon|*
%AMOCTAGOND108*
4,1,8,-0.57000,-1.14000,0.57000,-1.14000,1.14000,-0.57000,1.14000,0.57000,0.57000,1.14000,-0.57000,1.14000,-1.14000,0.57000,-1.14000,-0.57000,-0.57000,-1.14000,0.0*
%
%ADD108OCTAGOND108*%

D97*
X3920472Y4862450D02*
D03*
Y5142450D02*
D03*
X2342400Y4220000D02*
D03*
Y3940000D02*
D03*
X2212400Y5160000D02*
D03*
Y4880000D02*
D03*
X3292400Y3370000D02*
D03*
Y3090000D02*
D03*
D98*
X5342400Y3380000D02*
D03*
X5062400D02*
D03*
X7182400Y4330000D02*
D03*
X6902400D02*
D03*
X5702400Y3820000D02*
D03*
X5982400D02*
D03*
D99*
X981389Y5159417D02*
D03*
Y5209417D02*
D03*
Y5259417D02*
D03*
Y5109417D02*
D03*
Y2759417D02*
D03*
Y2809417D02*
D03*
Y2859417D02*
D03*
Y2709416D02*
D03*
X8538611Y2490583D02*
D03*
Y2440583D02*
D03*
Y2390583D02*
D03*
Y2540583D02*
D03*
Y5170583D02*
D03*
Y5120583D02*
D03*
Y5070583D02*
D03*
Y5220583D02*
D03*
D100*
X2440583Y981389D02*
D03*
X2390583D02*
D03*
X2340583D02*
D03*
X2490583D02*
D03*
X6750583D02*
D03*
X6700583D02*
D03*
X6650583D02*
D03*
X6800583D02*
D03*
X6699417Y6478611D02*
D03*
X6749417D02*
D03*
X6799417D02*
D03*
X6649416D02*
D03*
X2349417D02*
D03*
X2499417D02*
D03*
X2449417D02*
D03*
X2399417D02*
D03*
X9000000Y7000000D02*
D03*
X500000Y500000D02*
D03*
Y7000000D02*
D03*
X9000000Y500000D02*
D03*
D101*
X7995400Y3275000D02*
D03*
X8145400Y1455000D02*
D03*
X7995400Y6005000D02*
D03*
X8145400Y4185000D02*
D03*
D102*
X1914400Y1170500D02*
D03*
Y5996500D02*
D03*
D103*
X2168400Y1170500D02*
D03*
X2422400D02*
D03*
X2676400D02*
D03*
X2930400D02*
D03*
X3184400D02*
D03*
X3438400D02*
D03*
X3692400D02*
D03*
X3946400D02*
D03*
X4200400D02*
D03*
X4454400D02*
D03*
X4708400D02*
D03*
X4962400D02*
D03*
X5216400D02*
D03*
X5470400D02*
D03*
X5724400D02*
D03*
X5978400D02*
D03*
X6232400D02*
D03*
X6486400D02*
D03*
X6740400D02*
D03*
X6994400D02*
D03*
X7248400D02*
D03*
X7502400D02*
D03*
X1914400Y1464500D02*
D03*
X2168400D02*
D03*
X2422400D02*
D03*
X2676400D02*
D03*
X2930400D02*
D03*
X3184400D02*
D03*
X3438400D02*
D03*
X3692400D02*
D03*
X3946400D02*
D03*
X4200400D02*
D03*
X4454400D02*
D03*
X4708400D02*
D03*
X4962400D02*
D03*
X5216400D02*
D03*
X5470400D02*
D03*
X5724400D02*
D03*
X5978400D02*
D03*
X6232400D02*
D03*
X6486400D02*
D03*
X6740400D02*
D03*
X6994400D02*
D03*
X7248400D02*
D03*
X7502400D02*
D03*
X2168400Y5996500D02*
D03*
X2422400D02*
D03*
X2676400D02*
D03*
X2930400D02*
D03*
X3184400D02*
D03*
X3438400D02*
D03*
X3692400D02*
D03*
X3946400D02*
D03*
X4200400D02*
D03*
X4454400D02*
D03*
X4708400D02*
D03*
X4962400D02*
D03*
X5216400D02*
D03*
X5470400D02*
D03*
X5724400D02*
D03*
X5978400D02*
D03*
X6232400D02*
D03*
X6486400D02*
D03*
X6740400D02*
D03*
X6994400D02*
D03*
X7248400D02*
D03*
X7502400D02*
D03*
X1914400Y6290500D02*
D03*
X2168400D02*
D03*
X2422400D02*
D03*
X2676400D02*
D03*
X2930400D02*
D03*
X3184400D02*
D03*
X3438400D02*
D03*
X3692400D02*
D03*
X3946400D02*
D03*
X4200400D02*
D03*
X4454400D02*
D03*
X4708400D02*
D03*
X4962400D02*
D03*
X5216400D02*
D03*
X5470400D02*
D03*
X5724400D02*
D03*
X5978400D02*
D03*
X6232400D02*
D03*
X6486400D02*
D03*
X6740400D02*
D03*
X6994400D02*
D03*
X7248400D02*
D03*
X7502400D02*
D03*
D104*
X3802400Y3548000D02*
D03*
Y3748000D02*
D03*
Y3948000D02*
D03*
Y4148000D02*
D03*
Y4348000D02*
D03*
X3562400Y3548000D02*
D03*
Y3748000D02*
D03*
Y3948000D02*
D03*
Y4148000D02*
D03*
D105*
Y4348000D02*
D03*
D106*
X1342900Y6143500D02*
D03*
D107*
X1362400Y1345000D02*
D03*
D108*
Y1695000D02*
D03*
%TF.MD5,01f5498f9e24f196a2f8e81e05f3fc12*%
M02*
