%TF.GenerationSoftware,Altium Limited,Altium Designer,25.3.3 (18)*%
G04 Layer_Color=32768*
%FSLAX45Y45*%
%MOMM*%
%TF.SameCoordinates,95E4F6BA-DA47-4B25-BB43-2529A7C35442*%
%TF.FilePolarity,Positive*%
%TF.FileFunction,Other,Mechanical_3*%
%TF.Part,CustomerPanel*%
G01*
G75*
%TA.AperFunction,NonConductor*%
%ADD111C,0.25400*%
D111*
X3343184Y3064954D02*
X3368575Y3039562D01*
Y2988778D01*
X3343184Y2963387D01*
X3241617D01*
X3216225Y2988778D01*
Y3039562D01*
X3241617Y3064954D01*
X3216225Y3115737D02*
Y3166521D01*
Y3141129D01*
X3368575D01*
X3343184Y3115737D01*
X3368575Y3344263D02*
Y3242696D01*
X3292400D01*
X3317792Y3293480D01*
Y3318871D01*
X3292400Y3344263D01*
X3241617D01*
X3216225Y3318871D01*
Y3268088D01*
X3241617Y3242696D01*
X3343184Y3395047D02*
X3368575Y3420439D01*
Y3471222D01*
X3343184Y3496614D01*
X3241617D01*
X3216225Y3471222D01*
Y3420439D01*
X3241617Y3395047D01*
X3343184D01*
X7182054Y4380783D02*
X7207446Y4406175D01*
X7258230D01*
X7283622Y4380783D01*
Y4279216D01*
X7258230Y4253825D01*
X7207446D01*
X7182054Y4279216D01*
X7131271Y4253825D02*
X7080487D01*
X7105879D01*
Y4406175D01*
X7131271Y4380783D01*
X6902745Y4406175D02*
X7004312D01*
Y4330000D01*
X6953529Y4355392D01*
X6928137D01*
X6902745Y4330000D01*
Y4279216D01*
X6928137Y4253825D01*
X6978920D01*
X7004312Y4279216D01*
X6851961Y4253825D02*
X6801178D01*
X6826570D01*
Y4406175D01*
X6851961Y4380783D01*
X2263183Y4854954D02*
X2288575Y4829562D01*
Y4778778D01*
X2263183Y4753386D01*
X2161616D01*
X2136225Y4778778D01*
Y4829562D01*
X2161616Y4854954D01*
X2136225Y4905737D02*
Y4956521D01*
Y4931129D01*
X2288575D01*
X2263183Y4905737D01*
X2288575Y5134263D02*
Y5032696D01*
X2212400D01*
X2237792Y5083480D01*
Y5108871D01*
X2212400Y5134263D01*
X2161616D01*
X2136225Y5108871D01*
Y5058088D01*
X2161616Y5032696D01*
X2136225Y5286614D02*
Y5185047D01*
X2237792Y5286614D01*
X2263183D01*
X2288575Y5261222D01*
Y5210439D01*
X2263183Y5185047D01*
X5943967Y3870783D02*
X5969359Y3896175D01*
X6020142D01*
X6045534Y3870783D01*
Y3769216D01*
X6020142Y3743825D01*
X5969359D01*
X5943967Y3769216D01*
X5817008Y3743825D02*
Y3896175D01*
X5893184Y3820000D01*
X5791616D01*
X5740833Y3896175D02*
X5639266D01*
Y3870783D01*
X5740833Y3769216D01*
Y3743825D01*
X2393183Y3914954D02*
X2418575Y3889562D01*
Y3838778D01*
X2393183Y3813386D01*
X2291616D01*
X2266225Y3838778D01*
Y3889562D01*
X2291616Y3914954D01*
X2266225Y3965737D02*
Y4016521D01*
Y3991129D01*
X2418575D01*
X2393183Y3965737D01*
X2418575Y4194263D02*
X2393183Y4143479D01*
X2342400Y4092696D01*
X2291616D01*
X2266225Y4118088D01*
Y4168871D01*
X2291616Y4194263D01*
X2317008D01*
X2342400Y4168871D01*
Y4092696D01*
X2393183Y4245047D02*
X2418575Y4270438D01*
Y4321222D01*
X2393183Y4346614D01*
X2291616D01*
X2266225Y4321222D01*
Y4270438D01*
X2291616Y4245047D01*
X2393183D01*
X5342055Y3430784D02*
X5367446Y3456175D01*
X5418230D01*
X5443622Y3430784D01*
Y3329217D01*
X5418230Y3303825D01*
X5367446D01*
X5342055Y3329217D01*
X5291271Y3303825D02*
X5240488D01*
X5265879D01*
Y3456175D01*
X5291271Y3430784D01*
X5062745Y3456175D02*
X5113529Y3430784D01*
X5164312Y3380000D01*
Y3329217D01*
X5138920Y3303825D01*
X5088137D01*
X5062745Y3329217D01*
Y3354608D01*
X5088137Y3380000D01*
X5164312D01*
X5011962Y3303825D02*
X4961178D01*
X4986570D01*
Y3456175D01*
X5011962Y3430784D01*
X3971256Y4837404D02*
X3996648Y4812012D01*
Y4761228D01*
X3971256Y4735837D01*
X3869689D01*
X3844297Y4761228D01*
Y4812012D01*
X3869689Y4837404D01*
X3844297Y4888187D02*
Y4938971D01*
Y4913579D01*
X3996648D01*
X3971256Y4888187D01*
X3996648Y5116713D02*
X3971256Y5065930D01*
X3920472Y5015146D01*
X3869689D01*
X3844297Y5040538D01*
Y5091322D01*
X3869689Y5116713D01*
X3895081D01*
X3920472Y5091322D01*
Y5015146D01*
X3844297Y5269064D02*
Y5167497D01*
X3945864Y5269064D01*
X3971256D01*
X3996648Y5243672D01*
Y5192889D01*
X3971256Y5167497D01*
%TF.MD5,4288c612586b3d40466829e8ab2f3ac8*%
M02*
