%TF.GenerationSoftware,Altium Limited,Altium Designer,25.3.3 (18)*%
G04 Layer_Color=255*
%FSLAX45Y45*%
%MOMM*%
%TF.SameCoordinates,95E4F6BA-DA47-4B25-BB43-2529A7C35442*%
%TF.FilePolarity,Positive*%
%TF.FileFunction,Pads,Top*%
%TF.Part,CustomerPanel*%
G01*
G75*
%TA.AperFunction,SMDPad,CuDef*%
%ADD11R,0.52000X0.15000*%
G04:AMPARAMS|DCode=12|XSize=0.15mm|YSize=0.52mm|CornerRadius=0.0375mm|HoleSize=0mm|Usage=FLASHONLY|Rotation=90.000|XOffset=0mm|YOffset=0mm|HoleType=Round|Shape=RoundedRectangle|*
%AMROUNDEDRECTD12*
21,1,0.15000,0.44500,0,0,90.0*
21,1,0.07500,0.52000,0,0,90.0*
1,1,0.07500,0.22250,0.03750*
1,1,0.07500,0.22250,-0.03750*
1,1,0.07500,-0.22250,-0.03750*
1,1,0.07500,-0.22250,0.03750*
%
%ADD12ROUNDEDRECTD12*%
G04:AMPARAMS|DCode=13|XSize=0.23mm|YSize=0.7mm|CornerRadius=0.0575mm|HoleSize=0mm|Usage=FLASHONLY|Rotation=90.000|XOffset=0mm|YOffset=0mm|HoleType=Round|Shape=RoundedRectangle|*
%AMROUNDEDRECTD13*
21,1,0.23000,0.58500,0,0,90.0*
21,1,0.11500,0.70000,0,0,90.0*
1,1,0.11500,0.29250,0.05750*
1,1,0.11500,0.29250,-0.05750*
1,1,0.11500,-0.29250,-0.05750*
1,1,0.11500,-0.29250,0.05750*
%
%ADD13ROUNDEDRECTD13*%
G04:AMPARAMS|DCode=14|XSize=2.5mm|YSize=1.65mm|CornerRadius=0.165mm|HoleSize=0mm|Usage=FLASHONLY|Rotation=90.000|XOffset=0mm|YOffset=0mm|HoleType=Round|Shape=RoundedRectangle|*
%AMROUNDEDRECTD14*
21,1,2.50000,1.32000,0,0,90.0*
21,1,2.17000,1.65000,0,0,90.0*
1,1,0.33000,0.66000,1.08500*
1,1,0.33000,0.66000,-1.08500*
1,1,0.33000,-0.66000,-1.08500*
1,1,0.33000,-0.66000,1.08500*
%
%ADD14ROUNDEDRECTD14*%
%ADD15R,0.70000X0.23000*%
G04:AMPARAMS|DCode=16|XSize=0.55mm|YSize=0.8mm|CornerRadius=0.1375mm|HoleSize=0mm|Usage=FLASHONLY|Rotation=0.000|XOffset=0mm|YOffset=0mm|HoleType=Round|Shape=RoundedRectangle|*
%AMROUNDEDRECTD16*
21,1,0.55000,0.52500,0,0,0.0*
21,1,0.27500,0.80000,0,0,0.0*
1,1,0.27500,0.13750,-0.26250*
1,1,0.27500,-0.13750,-0.26250*
1,1,0.27500,-0.13750,0.26250*
1,1,0.27500,0.13750,0.26250*
%
%ADD16ROUNDEDRECTD16*%
G04:AMPARAMS|DCode=17|XSize=0.23mm|YSize=0.67mm|CornerRadius=0.0575mm|HoleSize=0mm|Usage=FLASHONLY|Rotation=90.000|XOffset=0mm|YOffset=0mm|HoleType=Round|Shape=RoundedRectangle|*
%AMROUNDEDRECTD17*
21,1,0.23000,0.55500,0,0,90.0*
21,1,0.11500,0.67000,0,0,90.0*
1,1,0.11500,0.27750,0.05750*
1,1,0.11500,0.27750,-0.05750*
1,1,0.11500,-0.27750,-0.05750*
1,1,0.11500,-0.27750,0.05750*
%
%ADD17ROUNDEDRECTD17*%
G04:AMPARAMS|DCode=18|XSize=0.23mm|YSize=0.67mm|CornerRadius=0.0575mm|HoleSize=0mm|Usage=FLASHONLY|Rotation=0.000|XOffset=0mm|YOffset=0mm|HoleType=Round|Shape=RoundedRectangle|*
%AMROUNDEDRECTD18*
21,1,0.23000,0.55500,0,0,0.0*
21,1,0.11500,0.67000,0,0,0.0*
1,1,0.11500,0.05750,-0.27750*
1,1,0.11500,-0.05750,-0.27750*
1,1,0.11500,-0.05750,0.27750*
1,1,0.11500,0.05750,0.27750*
%
%ADD18ROUNDEDRECTD18*%
G04:AMPARAMS|DCode=19|XSize=1mm|YSize=1.5mm|CornerRadius=0.25mm|HoleSize=0mm|Usage=FLASHONLY|Rotation=0.000|XOffset=0mm|YOffset=0mm|HoleType=Round|Shape=RoundedRectangle|*
%AMROUNDEDRECTD19*
21,1,1.00000,1.00000,0,0,0.0*
21,1,0.50000,1.50000,0,0,0.0*
1,1,0.50000,0.25000,-0.50000*
1,1,0.50000,-0.25000,-0.50000*
1,1,0.50000,-0.25000,0.50000*
1,1,0.50000,0.25000,0.50000*
%
%ADD19ROUNDEDRECTD19*%
G04:AMPARAMS|DCode=20|XSize=0.22mm|YSize=0.58mm|CornerRadius=0.055mm|HoleSize=0mm|Usage=FLASHONLY|Rotation=90.000|XOffset=0mm|YOffset=0mm|HoleType=Round|Shape=RoundedRectangle|*
%AMROUNDEDRECTD20*
21,1,0.22000,0.47000,0,0,90.0*
21,1,0.11000,0.58000,0,0,90.0*
1,1,0.11000,0.23500,0.05500*
1,1,0.11000,0.23500,-0.05500*
1,1,0.11000,-0.23500,-0.05500*
1,1,0.11000,-0.23500,0.05500*
%
%ADD20ROUNDEDRECTD20*%
%ADD21R,0.58000X0.22000*%
G04:AMPARAMS|DCode=22|XSize=0.35mm|YSize=1.15mm|CornerRadius=0.0875mm|HoleSize=0mm|Usage=FLASHONLY|Rotation=90.000|XOffset=0mm|YOffset=0mm|HoleType=Round|Shape=RoundedRectangle|*
%AMROUNDEDRECTD22*
21,1,0.35000,0.97500,0,0,90.0*
21,1,0.17500,1.15000,0,0,90.0*
1,1,0.17500,0.48750,0.08750*
1,1,0.17500,0.48750,-0.08750*
1,1,0.17500,-0.48750,-0.08750*
1,1,0.17500,-0.48750,0.08750*
%
%ADD22ROUNDEDRECTD22*%
%ADD23R,1.15000X0.35000*%
G04:AMPARAMS|DCode=24|XSize=0.55mm|YSize=0.9mm|CornerRadius=0.1375mm|HoleSize=0mm|Usage=FLASHONLY|Rotation=270.000|XOffset=0mm|YOffset=0mm|HoleType=Round|Shape=RoundedRectangle|*
%AMROUNDEDRECTD24*
21,1,0.55000,0.62500,0,0,270.0*
21,1,0.27500,0.90000,0,0,270.0*
1,1,0.27500,-0.31250,-0.13750*
1,1,0.27500,-0.31250,0.13750*
1,1,0.27500,0.31250,0.13750*
1,1,0.27500,0.31250,-0.13750*
%
%ADD24ROUNDEDRECTD24*%
%ADD25R,0.90000X0.55000*%
G04:AMPARAMS|DCode=26|XSize=1.4mm|YSize=1.3mm|CornerRadius=0.325mm|HoleSize=0mm|Usage=FLASHONLY|Rotation=90.000|XOffset=0mm|YOffset=0mm|HoleType=Round|Shape=RoundedRectangle|*
%AMROUNDEDRECTD26*
21,1,1.40000,0.65000,0,0,90.0*
21,1,0.75000,1.30000,0,0,90.0*
1,1,0.65000,0.32500,0.37500*
1,1,0.65000,0.32500,-0.37500*
1,1,0.65000,-0.32500,-0.37500*
1,1,0.65000,-0.32500,0.37500*
%
%ADD26ROUNDEDRECTD26*%
%ADD27R,0.70000X0.33000*%
G04:AMPARAMS|DCode=28|XSize=0.33mm|YSize=0.7mm|CornerRadius=0.0825mm|HoleSize=0mm|Usage=FLASHONLY|Rotation=270.000|XOffset=0mm|YOffset=0mm|HoleType=Round|Shape=RoundedRectangle|*
%AMROUNDEDRECTD28*
21,1,0.33000,0.53500,0,0,270.0*
21,1,0.16500,0.70000,0,0,270.0*
1,1,0.16500,-0.26750,-0.08250*
1,1,0.16500,-0.26750,0.08250*
1,1,0.16500,0.26750,0.08250*
1,1,0.16500,0.26750,-0.08250*
%
%ADD28ROUNDEDRECTD28*%
G04:AMPARAMS|DCode=29|XSize=0.25mm|YSize=0.7mm|CornerRadius=0.0625mm|HoleSize=0mm|Usage=FLASHONLY|Rotation=90.000|XOffset=0mm|YOffset=0mm|HoleType=Round|Shape=RoundedRectangle|*
%AMROUNDEDRECTD29*
21,1,0.25000,0.57500,0,0,90.0*
21,1,0.12500,0.70000,0,0,90.0*
1,1,0.12500,0.28750,0.06250*
1,1,0.12500,0.28750,-0.06250*
1,1,0.12500,-0.28750,-0.06250*
1,1,0.12500,-0.28750,0.06250*
%
%ADD29ROUNDEDRECTD29*%
%ADD30R,0.70000X0.25000*%
G04:AMPARAMS|DCode=31|XSize=0.55mm|YSize=0.8mm|CornerRadius=0.1375mm|HoleSize=0mm|Usage=FLASHONLY|Rotation=90.000|XOffset=0mm|YOffset=0mm|HoleType=Round|Shape=RoundedRectangle|*
%AMROUNDEDRECTD31*
21,1,0.55000,0.52500,0,0,90.0*
21,1,0.27500,0.80000,0,0,90.0*
1,1,0.27500,0.26250,0.13750*
1,1,0.27500,0.26250,-0.13750*
1,1,0.27500,-0.26250,-0.13750*
1,1,0.27500,-0.26250,0.13750*
%
%ADD31ROUNDEDRECTD31*%
G04:AMPARAMS|DCode=32|XSize=0.22mm|YSize=0.55mm|CornerRadius=0.055mm|HoleSize=0mm|Usage=FLASHONLY|Rotation=180.000|XOffset=0mm|YOffset=0mm|HoleType=Round|Shape=RoundedRectangle|*
%AMROUNDEDRECTD32*
21,1,0.22000,0.44000,0,0,180.0*
21,1,0.11000,0.55000,0,0,180.0*
1,1,0.11000,-0.05500,0.22000*
1,1,0.11000,0.05500,0.22000*
1,1,0.11000,0.05500,-0.22000*
1,1,0.11000,-0.05500,-0.22000*
%
%ADD32ROUNDEDRECTD32*%
G04:AMPARAMS|DCode=33|XSize=0.2mm|YSize=1mm|CornerRadius=0.05mm|HoleSize=0mm|Usage=FLASHONLY|Rotation=270.000|XOffset=0mm|YOffset=0mm|HoleType=Round|Shape=RoundedRectangle|*
%AMROUNDEDRECTD33*
21,1,0.20000,0.90000,0,0,270.0*
21,1,0.10000,1.00000,0,0,270.0*
1,1,0.10000,-0.45000,-0.05000*
1,1,0.10000,-0.45000,0.05000*
1,1,0.10000,0.45000,0.05000*
1,1,0.10000,0.45000,-0.05000*
%
%ADD33ROUNDEDRECTD33*%
G04:AMPARAMS|DCode=34|XSize=0.2mm|YSize=0.65mm|CornerRadius=0.05mm|HoleSize=0mm|Usage=FLASHONLY|Rotation=270.000|XOffset=0mm|YOffset=0mm|HoleType=Round|Shape=RoundedRectangle|*
%AMROUNDEDRECTD34*
21,1,0.20000,0.55000,0,0,270.0*
21,1,0.10000,0.65000,0,0,270.0*
1,1,0.10000,-0.27500,-0.05000*
1,1,0.10000,-0.27500,0.05000*
1,1,0.10000,0.27500,0.05000*
1,1,0.10000,0.27500,-0.05000*
%
%ADD34ROUNDEDRECTD34*%
%ADD35R,1.20000X0.35000*%
G04:AMPARAMS|DCode=36|XSize=0.35mm|YSize=1.2mm|CornerRadius=0.0875mm|HoleSize=0mm|Usage=FLASHONLY|Rotation=270.000|XOffset=0mm|YOffset=0mm|HoleType=Round|Shape=RoundedRectangle|*
%AMROUNDEDRECTD36*
21,1,0.35000,1.02500,0,0,270.0*
21,1,0.17500,1.20000,0,0,270.0*
1,1,0.17500,-0.51250,-0.08750*
1,1,0.17500,-0.51250,0.08750*
1,1,0.17500,0.51250,0.08750*
1,1,0.17500,0.51250,-0.08750*
%
%ADD36ROUNDEDRECTD36*%
G04:AMPARAMS|DCode=37|XSize=0.35mm|YSize=1.15mm|CornerRadius=0.0875mm|HoleSize=0mm|Usage=FLASHONLY|Rotation=0.000|XOffset=0mm|YOffset=0mm|HoleType=Round|Shape=RoundedRectangle|*
%AMROUNDEDRECTD37*
21,1,0.35000,0.97500,0,0,0.0*
21,1,0.17500,1.15000,0,0,0.0*
1,1,0.17500,0.08750,-0.48750*
1,1,0.17500,-0.08750,-0.48750*
1,1,0.17500,-0.08750,0.48750*
1,1,0.17500,0.08750,0.48750*
%
%ADD37ROUNDEDRECTD37*%
%ADD38R,0.35000X1.15000*%
G04:AMPARAMS|DCode=39|XSize=2.55mm|YSize=1.1mm|CornerRadius=0.275mm|HoleSize=0mm|Usage=FLASHONLY|Rotation=0.000|XOffset=0mm|YOffset=0mm|HoleType=Round|Shape=RoundedRectangle|*
%AMROUNDEDRECTD39*
21,1,2.55000,0.55000,0,0,0.0*
21,1,2.00000,1.10000,0,0,0.0*
1,1,0.55000,1.00000,-0.27500*
1,1,0.55000,-1.00000,-0.27500*
1,1,0.55000,-1.00000,0.27500*
1,1,0.55000,1.00000,0.27500*
%
%ADD39ROUNDEDRECTD39*%
G04:AMPARAMS|DCode=40|XSize=0.23mm|YSize=0.85mm|CornerRadius=0.0575mm|HoleSize=0mm|Usage=FLASHONLY|Rotation=0.000|XOffset=0mm|YOffset=0mm|HoleType=Round|Shape=RoundedRectangle|*
%AMROUNDEDRECTD40*
21,1,0.23000,0.73500,0,0,0.0*
21,1,0.11500,0.85000,0,0,0.0*
1,1,0.11500,0.05750,-0.36750*
1,1,0.11500,-0.05750,-0.36750*
1,1,0.11500,-0.05750,0.36750*
1,1,0.11500,0.05750,0.36750*
%
%ADD40ROUNDEDRECTD40*%
%ADD41R,0.23000X0.85000*%
%ADD42O,0.60000X0.80000*%
G04:AMPARAMS|DCode=43|XSize=0.6mm|YSize=0.7mm|CornerRadius=0.15mm|HoleSize=0mm|Usage=FLASHONLY|Rotation=180.000|XOffset=0mm|YOffset=0mm|HoleType=Round|Shape=RoundedRectangle|*
%AMROUNDEDRECTD43*
21,1,0.60000,0.40000,0,0,180.0*
21,1,0.30000,0.70000,0,0,180.0*
1,1,0.30000,-0.15000,0.20000*
1,1,0.30000,0.15000,0.20000*
1,1,0.30000,0.15000,-0.20000*
1,1,0.30000,-0.15000,-0.20000*
%
%ADD43ROUNDEDRECTD43*%
G04:AMPARAMS|DCode=44|XSize=0.6mm|YSize=0.7mm|CornerRadius=0.15mm|HoleSize=0mm|Usage=FLASHONLY|Rotation=90.000|XOffset=0mm|YOffset=0mm|HoleType=Round|Shape=RoundedRectangle|*
%AMROUNDEDRECTD44*
21,1,0.60000,0.40000,0,0,90.0*
21,1,0.30000,0.70000,0,0,90.0*
1,1,0.30000,0.20000,0.15000*
1,1,0.30000,0.20000,-0.15000*
1,1,0.30000,-0.20000,-0.15000*
1,1,0.30000,-0.20000,0.15000*
%
%ADD44ROUNDEDRECTD44*%
G04:AMPARAMS|DCode=45|XSize=0.6mm|YSize=0.6mm|CornerRadius=0.15mm|HoleSize=0mm|Usage=FLASHONLY|Rotation=0.000|XOffset=0mm|YOffset=0mm|HoleType=Round|Shape=RoundedRectangle|*
%AMROUNDEDRECTD45*
21,1,0.60000,0.30000,0,0,0.0*
21,1,0.30000,0.60000,0,0,0.0*
1,1,0.30000,0.15000,-0.15000*
1,1,0.30000,-0.15000,-0.15000*
1,1,0.30000,-0.15000,0.15000*
1,1,0.30000,0.15000,0.15000*
%
%ADD45ROUNDEDRECTD45*%
G04:AMPARAMS|DCode=46|XSize=0.6mm|YSize=0.6mm|CornerRadius=0.15mm|HoleSize=0mm|Usage=FLASHONLY|Rotation=270.000|XOffset=0mm|YOffset=0mm|HoleType=Round|Shape=RoundedRectangle|*
%AMROUNDEDRECTD46*
21,1,0.60000,0.30000,0,0,270.0*
21,1,0.30000,0.60000,0,0,270.0*
1,1,0.30000,-0.15000,-0.15000*
1,1,0.30000,-0.15000,0.15000*
1,1,0.30000,0.15000,0.15000*
1,1,0.30000,0.15000,-0.15000*
%
%ADD46ROUNDEDRECTD46*%
G04:AMPARAMS|DCode=47|XSize=0.9mm|YSize=0.8mm|CornerRadius=0.2mm|HoleSize=0mm|Usage=FLASHONLY|Rotation=180.000|XOffset=0mm|YOffset=0mm|HoleType=Round|Shape=RoundedRectangle|*
%AMROUNDEDRECTD47*
21,1,0.90000,0.40000,0,0,180.0*
21,1,0.50000,0.80000,0,0,180.0*
1,1,0.40000,-0.25000,0.20000*
1,1,0.40000,0.25000,0.20000*
1,1,0.40000,0.25000,-0.20000*
1,1,0.40000,-0.25000,-0.20000*
%
%ADD47ROUNDEDRECTD47*%
%ADD48R,0.70000X0.24000*%
%ADD49O,0.30000X1.70000*%
G04:AMPARAMS|DCode=50|XSize=2.2mm|YSize=0.5mm|CornerRadius=0.125mm|HoleSize=0mm|Usage=FLASHONLY|Rotation=180.000|XOffset=0mm|YOffset=0mm|HoleType=Round|Shape=RoundedRectangle|*
%AMROUNDEDRECTD50*
21,1,2.20000,0.25000,0,0,180.0*
21,1,1.95000,0.50000,0,0,180.0*
1,1,0.25000,-0.97500,0.12500*
1,1,0.25000,0.97500,0.12500*
1,1,0.25000,0.97500,-0.12500*
1,1,0.25000,-0.97500,-0.12500*
%
%ADD50ROUNDEDRECTD50*%
G04:AMPARAMS|DCode=51|XSize=2.2mm|YSize=0.7mm|CornerRadius=0.175mm|HoleSize=0mm|Usage=FLASHONLY|Rotation=180.000|XOffset=0mm|YOffset=0mm|HoleType=Round|Shape=RoundedRectangle|*
%AMROUNDEDRECTD51*
21,1,2.20000,0.35000,0,0,180.0*
21,1,1.85000,0.70000,0,0,180.0*
1,1,0.35000,-0.92500,0.17500*
1,1,0.35000,0.92500,0.17500*
1,1,0.35000,0.92500,-0.17500*
1,1,0.35000,-0.92500,-0.17500*
%
%ADD51ROUNDEDRECTD51*%
%TA.AperFunction,SMDPad,SMDef*%
%ADD52C,0.30000*%
%TA.AperFunction,SMDPad,CuDef*%
G04:AMPARAMS|DCode=53|XSize=3mm|YSize=1mm|CornerRadius=0.25mm|HoleSize=0mm|Usage=FLASHONLY|Rotation=90.000|XOffset=0mm|YOffset=0mm|HoleType=Round|Shape=RoundedRectangle|*
%AMROUNDEDRECTD53*
21,1,3.00000,0.50000,0,0,90.0*
21,1,2.50000,1.00000,0,0,90.0*
1,1,0.50000,0.25000,1.25000*
1,1,0.50000,0.25000,-1.25000*
1,1,0.50000,-0.25000,-1.25000*
1,1,0.50000,-0.25000,1.25000*
%
%ADD53ROUNDEDRECTD53*%
%TA.AperFunction,SMDPad,SMDef*%
G04:AMPARAMS|DCode=54|XSize=3.8mm|YSize=1mm|CornerRadius=0.25mm|HoleSize=0mm|Usage=FLASHONLY|Rotation=90.000|XOffset=0mm|YOffset=0mm|HoleType=Round|Shape=RoundedRectangle|*
%AMROUNDEDRECTD54*
21,1,3.80000,0.50000,0,0,90.0*
21,1,3.30000,1.00000,0,0,90.0*
1,1,0.50000,0.25000,1.65000*
1,1,0.50000,0.25000,-1.65000*
1,1,0.50000,-0.25000,-1.65000*
1,1,0.50000,-0.25000,1.65000*
%
%ADD54ROUNDEDRECTD54*%
%TA.AperFunction,SMDPad,CuDef*%
G04:AMPARAMS|DCode=55|XSize=1.6mm|YSize=1mm|CornerRadius=0.25mm|HoleSize=0mm|Usage=FLASHONLY|Rotation=180.000|XOffset=0mm|YOffset=0mm|HoleType=Round|Shape=RoundedRectangle|*
%AMROUNDEDRECTD55*
21,1,1.60000,0.50000,0,0,180.0*
21,1,1.10000,1.00000,0,0,180.0*
1,1,0.50000,-0.55000,0.25000*
1,1,0.50000,0.55000,0.25000*
1,1,0.50000,0.55000,-0.25000*
1,1,0.50000,-0.55000,-0.25000*
%
%ADD55ROUNDEDRECTD55*%
G04:AMPARAMS|DCode=56|XSize=3mm|YSize=1mm|CornerRadius=0.25mm|HoleSize=0mm|Usage=FLASHONLY|Rotation=0.000|XOffset=0mm|YOffset=0mm|HoleType=Round|Shape=RoundedRectangle|*
%AMROUNDEDRECTD56*
21,1,3.00000,0.50000,0,0,0.0*
21,1,2.50000,1.00000,0,0,0.0*
1,1,0.50000,1.25000,-0.25000*
1,1,0.50000,-1.25000,-0.25000*
1,1,0.50000,-1.25000,0.25000*
1,1,0.50000,1.25000,0.25000*
%
%ADD56ROUNDEDRECTD56*%
%TA.AperFunction,SMDPad,SMDef*%
G04:AMPARAMS|DCode=57|XSize=3.8mm|YSize=1mm|CornerRadius=0.25mm|HoleSize=0mm|Usage=FLASHONLY|Rotation=0.000|XOffset=0mm|YOffset=0mm|HoleType=Round|Shape=RoundedRectangle|*
%AMROUNDEDRECTD57*
21,1,3.80000,0.50000,0,0,0.0*
21,1,3.30000,1.00000,0,0,0.0*
1,1,0.50000,1.65000,-0.25000*
1,1,0.50000,-1.65000,-0.25000*
1,1,0.50000,-1.65000,0.25000*
1,1,0.50000,1.65000,0.25000*
%
%ADD57ROUNDEDRECTD57*%
%TA.AperFunction,SMDPad,CuDef*%
G04:AMPARAMS|DCode=58|XSize=1.6mm|YSize=1mm|CornerRadius=0.25mm|HoleSize=0mm|Usage=FLASHONLY|Rotation=90.000|XOffset=0mm|YOffset=0mm|HoleType=Round|Shape=RoundedRectangle|*
%AMROUNDEDRECTD58*
21,1,1.60000,0.50000,0,0,90.0*
21,1,1.10000,1.00000,0,0,90.0*
1,1,0.50000,0.25000,0.55000*
1,1,0.50000,0.25000,-0.55000*
1,1,0.50000,-0.25000,-0.55000*
1,1,0.50000,-0.25000,0.55000*
%
%ADD58ROUNDEDRECTD58*%
G04:AMPARAMS|DCode=59|XSize=2.8mm|YSize=1.3mm|CornerRadius=0.325mm|HoleSize=0mm|Usage=FLASHONLY|Rotation=90.000|XOffset=0mm|YOffset=0mm|HoleType=Round|Shape=RoundedRectangle|*
%AMROUNDEDRECTD59*
21,1,2.80000,0.65000,0,0,90.0*
21,1,2.15000,1.30000,0,0,90.0*
1,1,0.65000,0.32500,1.07500*
1,1,0.65000,0.32500,-1.07500*
1,1,0.65000,-0.32500,-1.07500*
1,1,0.65000,-0.32500,1.07500*
%
%ADD59ROUNDEDRECTD59*%
G04:AMPARAMS|DCode=60|XSize=2.8mm|YSize=1.3mm|CornerRadius=0.325mm|HoleSize=0mm|Usage=FLASHONLY|Rotation=0.000|XOffset=0mm|YOffset=0mm|HoleType=Round|Shape=RoundedRectangle|*
%AMROUNDEDRECTD60*
21,1,2.80000,0.65000,0,0,0.0*
21,1,2.15000,1.30000,0,0,0.0*
1,1,0.65000,1.07500,-0.32500*
1,1,0.65000,-1.07500,-0.32500*
1,1,0.65000,-1.07500,0.32500*
1,1,0.65000,1.07500,0.32500*
%
%ADD60ROUNDEDRECTD60*%
G04:AMPARAMS|DCode=61|XSize=3.6mm|YSize=2mm|CornerRadius=0.5mm|HoleSize=0mm|Usage=FLASHONLY|Rotation=180.000|XOffset=0mm|YOffset=0mm|HoleType=Round|Shape=RoundedRectangle|*
%AMROUNDEDRECTD61*
21,1,3.60000,1.00000,0,0,180.0*
21,1,2.60000,2.00000,0,0,180.0*
1,1,1.00000,-1.30000,0.50000*
1,1,1.00000,1.30000,0.50000*
1,1,1.00000,1.30000,-0.50000*
1,1,1.00000,-1.30000,-0.50000*
%
%ADD61ROUNDEDRECTD61*%
%ADD62R,0.80000X0.80000*%
G04:AMPARAMS|DCode=63|XSize=0.8mm|YSize=0.8mm|CornerRadius=0.2mm|HoleSize=0mm|Usage=FLASHONLY|Rotation=90.000|XOffset=0mm|YOffset=0mm|HoleType=Round|Shape=RoundedRectangle|*
%AMROUNDEDRECTD63*
21,1,0.80000,0.40000,0,0,90.0*
21,1,0.40000,0.80000,0,0,90.0*
1,1,0.40000,0.20000,0.20000*
1,1,0.40000,0.20000,-0.20000*
1,1,0.40000,-0.20000,-0.20000*
1,1,0.40000,-0.20000,0.20000*
%
%ADD63ROUNDEDRECTD63*%
%ADD64R,0.70000X0.50000*%
G04:AMPARAMS|DCode=65|XSize=0.5mm|YSize=0.7mm|CornerRadius=0.125mm|HoleSize=0mm|Usage=FLASHONLY|Rotation=90.000|XOffset=0mm|YOffset=0mm|HoleType=Round|Shape=RoundedRectangle|*
%AMROUNDEDRECTD65*
21,1,0.50000,0.45000,0,0,90.0*
21,1,0.25000,0.70000,0,0,90.0*
1,1,0.25000,0.22500,0.12500*
1,1,0.25000,0.22500,-0.12500*
1,1,0.25000,-0.22500,-0.12500*
1,1,0.25000,-0.22500,0.12500*
%
%ADD65ROUNDEDRECTD65*%
G04:AMPARAMS|DCode=66|XSize=0.8mm|YSize=0.8mm|CornerRadius=0.2mm|HoleSize=0mm|Usage=FLASHONLY|Rotation=180.000|XOffset=0mm|YOffset=0mm|HoleType=Round|Shape=RoundedRectangle|*
%AMROUNDEDRECTD66*
21,1,0.80000,0.40000,0,0,180.0*
21,1,0.40000,0.80000,0,0,180.0*
1,1,0.40000,-0.20000,0.20000*
1,1,0.40000,0.20000,0.20000*
1,1,0.40000,0.20000,-0.20000*
1,1,0.40000,-0.20000,-0.20000*
%
%ADD66ROUNDEDRECTD66*%
G04:AMPARAMS|DCode=67|XSize=1.65mm|YSize=1.25mm|CornerRadius=0.3125mm|HoleSize=0mm|Usage=FLASHONLY|Rotation=0.000|XOffset=0mm|YOffset=0mm|HoleType=Round|Shape=RoundedRectangle|*
%AMROUNDEDRECTD67*
21,1,1.65000,0.62500,0,0,0.0*
21,1,1.02500,1.25000,0,0,0.0*
1,1,0.62500,0.51250,-0.31250*
1,1,0.62500,-0.51250,-0.31250*
1,1,0.62500,-0.51250,0.31250*
1,1,0.62500,0.51250,0.31250*
%
%ADD67ROUNDEDRECTD67*%
G04:AMPARAMS|DCode=68|XSize=1.65mm|YSize=1.25mm|CornerRadius=0.3125mm|HoleSize=0mm|Usage=FLASHONLY|Rotation=270.000|XOffset=0mm|YOffset=0mm|HoleType=Round|Shape=RoundedRectangle|*
%AMROUNDEDRECTD68*
21,1,1.65000,0.62500,0,0,270.0*
21,1,1.02500,1.25000,0,0,270.0*
1,1,0.62500,-0.31250,-0.51250*
1,1,0.62500,-0.31250,0.51250*
1,1,0.62500,0.31250,0.51250*
1,1,0.62500,0.31250,-0.51250*
%
%ADD68ROUNDEDRECTD68*%
%TA.AperFunction,ComponentPad*%
G04:AMPARAMS|DCode=82|XSize=1.55mm|YSize=1.6mm|CornerRadius=0.3875mm|HoleSize=0mm|Usage=FLASHONLY|Rotation=270.000|XOffset=0mm|YOffset=0mm|HoleType=Round|Shape=RoundedRectangle|*
%AMROUNDEDRECTD82*
21,1,1.55000,0.82500,0,0,270.0*
21,1,0.77500,1.60000,0,0,270.0*
1,1,0.77500,-0.41250,-0.38750*
1,1,0.77500,-0.41250,0.38750*
1,1,0.77500,0.41250,0.38750*
1,1,0.77500,0.41250,-0.38750*
%
%ADD82ROUNDEDRECTD82*%
G04:AMPARAMS|DCode=83|XSize=1.7mm|YSize=2.1mm|CornerRadius=0mm|HoleSize=0mm|Usage=FLASHONLY|Rotation=0.000|XOffset=0mm|YOffset=0mm|HoleType=Round|Shape=Octagon|*
%AMOCTAGOND83*
4,1,8,-0.42500,1.05000,0.42500,1.05000,0.85000,0.62500,0.85000,-0.62500,0.42500,-1.05000,-0.42500,-1.05000,-0.85000,-0.62500,-0.85000,0.62500,-0.42500,1.05000,0.0*
%
%ADD83OCTAGOND83*%

G04:AMPARAMS|DCode=84|XSize=1.7mm|YSize=2.1mm|CornerRadius=0.425mm|HoleSize=0mm|Usage=FLASHONLY|Rotation=0.000|XOffset=0mm|YOffset=0mm|HoleType=Round|Shape=RoundedRectangle|*
%AMROUNDEDRECTD84*
21,1,1.70000,1.25001,0,0,0.0*
21,1,0.85000,2.10000,0,0,0.0*
1,1,0.85000,0.42500,-0.62500*
1,1,0.85000,-0.42500,-0.62500*
1,1,0.85000,-0.42500,0.62500*
1,1,0.85000,0.42500,0.62500*
%
%ADD84ROUNDEDRECTD84*%
G04:AMPARAMS|DCode=85|XSize=1.4mm|YSize=1.7mm|CornerRadius=0.35mm|HoleSize=0mm|Usage=FLASHONLY|Rotation=270.000|XOffset=0mm|YOffset=0mm|HoleType=Round|Shape=RoundedRectangle|*
%AMROUNDEDRECTD85*
21,1,1.40000,1.00000,0,0,270.0*
21,1,0.70000,1.70000,0,0,270.0*
1,1,0.70000,-0.50000,-0.35000*
1,1,0.70000,-0.50000,0.35000*
1,1,0.70000,0.50000,0.35000*
1,1,0.70000,0.50000,-0.35000*
%
%ADD85ROUNDEDRECTD85*%
G04:AMPARAMS|DCode=86|XSize=1.4mm|YSize=1.7mm|CornerRadius=0mm|HoleSize=0mm|Usage=FLASHONLY|Rotation=270.000|XOffset=0mm|YOffset=0mm|HoleType=Round|Shape=Octagon|*
%AMOCTAGOND86*
4,1,8,0.85000,0.35000,0.85000,-0.35000,0.50000,-0.70000,-0.50000,-0.70000,-0.85000,-0.35000,-0.85000,0.35000,-0.50000,0.70000,0.50000,0.70000,0.85000,0.35000,0.0*
%
%ADD86OCTAGOND86*%

G04:AMPARAMS|DCode=87|XSize=4mm|YSize=3.6mm|CornerRadius=0.54mm|HoleSize=0mm|Usage=FLASHONLY|Rotation=0.000|XOffset=0mm|YOffset=0mm|HoleType=Round|Shape=RoundedRectangle|*
%AMROUNDEDRECTD87*
21,1,4.00000,2.52000,0,0,0.0*
21,1,2.92000,3.60000,0,0,0.0*
1,1,1.08000,1.46000,-1.26000*
1,1,1.08000,-1.46000,-1.26000*
1,1,1.08000,-1.46000,1.26000*
1,1,1.08000,1.46000,1.26000*
%
%ADD87ROUNDEDRECTD87*%
G04:AMPARAMS|DCode=88|XSize=2.2mm|YSize=2.2mm|CornerRadius=0.55mm|HoleSize=0mm|Usage=FLASHONLY|Rotation=270.000|XOffset=0mm|YOffset=0mm|HoleType=Round|Shape=RoundedRectangle|*
%AMROUNDEDRECTD88*
21,1,2.20000,1.10000,0,0,270.0*
21,1,1.10000,2.20000,0,0,270.0*
1,1,1.10000,-0.55000,-0.55000*
1,1,1.10000,-0.55000,0.55000*
1,1,1.10000,0.55000,0.55000*
1,1,1.10000,0.55000,-0.55000*
%
%ADD88ROUNDEDRECTD88*%
G04:AMPARAMS|DCode=89|XSize=2.2mm|YSize=2.2mm|CornerRadius=0mm|HoleSize=0mm|Usage=FLASHONLY|Rotation=270.000|XOffset=0mm|YOffset=0mm|HoleType=Round|Shape=Octagon|*
%AMOCTAGOND89*
4,1,8,-0.55000,-1.10000,0.55000,-1.10000,1.10000,-0.55000,1.10000,0.55000,0.55000,1.10000,-0.55000,1.10000,-1.10000,0.55000,-1.10000,-0.55000,-0.55000,-1.10000,0.0*
%
%ADD89OCTAGOND89*%

D11*
X7388400Y1748000D02*
D03*
X5268400Y2018000D02*
D03*
X6288400Y1808000D02*
D03*
X6038400Y3128000D02*
D03*
X5248400Y2218000D02*
D03*
X6288400Y1978000D02*
D03*
X6038400Y3328000D02*
D03*
X6288400Y2238000D02*
D03*
X7178400Y3088000D02*
D03*
X7388400Y1908000D02*
D03*
X6288400Y2488000D02*
D03*
X7178400Y3278000D02*
D03*
X7388400Y2118000D02*
D03*
X6038400Y2698000D02*
D03*
X7178400Y3558000D02*
D03*
X7388400Y2298000D02*
D03*
X6038400Y2928000D02*
D03*
X7178400Y3758000D02*
D03*
D12*
X7388400Y1710000D02*
D03*
Y1672000D02*
D03*
X7476400Y1748000D02*
D03*
Y1710000D02*
D03*
Y1672000D02*
D03*
X5268400Y1980000D02*
D03*
Y1942000D02*
D03*
X5356400Y2018000D02*
D03*
Y1980000D02*
D03*
Y1942000D02*
D03*
X6288400Y1770000D02*
D03*
Y1732000D02*
D03*
X6376400Y1808000D02*
D03*
Y1770000D02*
D03*
Y1732000D02*
D03*
X6038400Y3090000D02*
D03*
Y3052000D02*
D03*
X6126400Y3128000D02*
D03*
Y3090000D02*
D03*
Y3052000D02*
D03*
X5248400Y2180000D02*
D03*
Y2142000D02*
D03*
X5336400Y2218000D02*
D03*
Y2180000D02*
D03*
Y2142000D02*
D03*
X6288400Y1940000D02*
D03*
Y1902000D02*
D03*
X6376400Y1978000D02*
D03*
Y1940000D02*
D03*
Y1902000D02*
D03*
X6038400Y3290000D02*
D03*
Y3252000D02*
D03*
X6126400Y3328000D02*
D03*
Y3290000D02*
D03*
Y3252000D02*
D03*
X6288400Y2200000D02*
D03*
Y2162000D02*
D03*
X6376400Y2238000D02*
D03*
Y2200000D02*
D03*
Y2162000D02*
D03*
X7178400Y3050000D02*
D03*
Y3012000D02*
D03*
X7266400Y3088000D02*
D03*
Y3050000D02*
D03*
Y3012000D02*
D03*
X7388400Y1870000D02*
D03*
Y1832000D02*
D03*
X7476400Y1908000D02*
D03*
Y1870000D02*
D03*
Y1832000D02*
D03*
X6288400Y2450000D02*
D03*
Y2412000D02*
D03*
X6376400Y2488000D02*
D03*
Y2450000D02*
D03*
Y2412000D02*
D03*
X7178400Y3240000D02*
D03*
Y3202000D02*
D03*
X7266400Y3278000D02*
D03*
Y3240000D02*
D03*
Y3202000D02*
D03*
X7388400Y2080000D02*
D03*
Y2042000D02*
D03*
X7476400Y2118000D02*
D03*
Y2080000D02*
D03*
Y2042000D02*
D03*
X6038400Y2660000D02*
D03*
Y2622000D02*
D03*
X6126400Y2698000D02*
D03*
Y2660000D02*
D03*
Y2622000D02*
D03*
X7178400Y3520000D02*
D03*
Y3482000D02*
D03*
X7266400Y3558000D02*
D03*
Y3520000D02*
D03*
Y3482000D02*
D03*
X7388400Y2260000D02*
D03*
Y2222000D02*
D03*
X7476400Y2298000D02*
D03*
Y2260000D02*
D03*
Y2222000D02*
D03*
X6038400Y2890000D02*
D03*
Y2852000D02*
D03*
X6126400Y2928000D02*
D03*
Y2890000D02*
D03*
Y2852000D02*
D03*
X7178400Y3720000D02*
D03*
Y3682000D02*
D03*
X7266400Y3758000D02*
D03*
Y3720000D02*
D03*
Y3682000D02*
D03*
D13*
X6635400Y4830000D02*
D03*
Y4880000D02*
D03*
Y4930000D02*
D03*
Y4980000D02*
D03*
Y5030000D02*
D03*
X6325400Y4830000D02*
D03*
Y4880000D02*
D03*
Y4930000D02*
D03*
Y4980000D02*
D03*
X7175400Y4800000D02*
D03*
Y4850000D02*
D03*
Y4900000D02*
D03*
Y4950000D02*
D03*
Y5000000D02*
D03*
X6865400Y4800000D02*
D03*
Y4850000D02*
D03*
Y4900000D02*
D03*
Y4950000D02*
D03*
X2967400Y4940000D02*
D03*
Y4990000D02*
D03*
Y5040000D02*
D03*
Y5090000D02*
D03*
Y5140000D02*
D03*
X2657400Y4940000D02*
D03*
Y4990000D02*
D03*
Y5040000D02*
D03*
Y5090000D02*
D03*
X3347400Y2255000D02*
D03*
Y2205000D02*
D03*
Y2155000D02*
D03*
X3637400Y2305000D02*
D03*
Y2255000D02*
D03*
Y2205000D02*
D03*
Y2155000D02*
D03*
X6637400Y4430000D02*
D03*
Y4480000D02*
D03*
Y4530000D02*
D03*
Y4580000D02*
D03*
Y4630000D02*
D03*
X6327400Y4430000D02*
D03*
Y4480000D02*
D03*
Y4530000D02*
D03*
Y4580000D02*
D03*
D14*
X6480400Y4930000D02*
D03*
X7020400Y4900000D02*
D03*
X2812400Y5040000D02*
D03*
X6482400Y4530000D02*
D03*
D15*
X6325400Y5030000D02*
D03*
X6865400Y5000000D02*
D03*
X2657400Y5140000D02*
D03*
X3347400Y2305000D02*
D03*
X6327400Y4630000D02*
D03*
D16*
X5187400Y4532500D02*
D03*
X4997400D02*
D03*
Y4787500D02*
D03*
X5092400D02*
D03*
X5187400D02*
D03*
D17*
X6634400Y5490000D02*
D03*
Y5290000D02*
D03*
Y5440000D02*
D03*
Y5390000D02*
D03*
Y5340000D02*
D03*
X6870400Y5290000D02*
D03*
Y5340000D02*
D03*
Y5390000D02*
D03*
Y5440000D02*
D03*
Y5490000D02*
D03*
X7129398Y5580001D02*
D03*
Y5380001D02*
D03*
Y5530001D02*
D03*
Y5480001D02*
D03*
Y5430001D02*
D03*
X7365398Y5380001D02*
D03*
Y5430001D02*
D03*
Y5480001D02*
D03*
Y5530001D02*
D03*
Y5580001D02*
D03*
D18*
X6727400Y5247000D02*
D03*
X6777400D02*
D03*
Y5533000D02*
D03*
X6727400D02*
D03*
X7222398Y5337001D02*
D03*
X7272398D02*
D03*
Y5623001D02*
D03*
X7222398D02*
D03*
D19*
X6752400Y5390000D02*
D03*
X7247398Y5480001D02*
D03*
D20*
X6985400Y1695000D02*
D03*
Y1745000D02*
D03*
Y1795000D02*
D03*
Y1845000D02*
D03*
X6899400Y1695000D02*
D03*
Y1745000D02*
D03*
Y1795000D02*
D03*
X5925400Y2175000D02*
D03*
Y2225000D02*
D03*
Y2275001D02*
D03*
Y2325000D02*
D03*
X5839400Y2175000D02*
D03*
Y2225000D02*
D03*
Y2275001D02*
D03*
X5655400Y2665001D02*
D03*
Y2715000D02*
D03*
Y2765001D02*
D03*
Y2815000D02*
D03*
X5569401Y2665001D02*
D03*
Y2715000D02*
D03*
Y2765001D02*
D03*
X6985400Y2005000D02*
D03*
Y2055000D02*
D03*
Y2105000D02*
D03*
Y2155000D02*
D03*
X6899400Y2005000D02*
D03*
Y2055000D02*
D03*
Y2105000D02*
D03*
X5655400Y3085000D02*
D03*
Y3135000D02*
D03*
Y3185000D02*
D03*
Y3235000D02*
D03*
X5569401Y3085000D02*
D03*
Y3135000D02*
D03*
Y3185000D02*
D03*
X6985400Y2355000D02*
D03*
Y2405000D02*
D03*
Y2455000D02*
D03*
Y2505000D02*
D03*
X6899400Y2355000D02*
D03*
Y2405000D02*
D03*
Y2455000D02*
D03*
X6805400Y3015001D02*
D03*
Y3065000D02*
D03*
Y3115001D02*
D03*
Y3165001D02*
D03*
X6719401Y3015001D02*
D03*
Y3065000D02*
D03*
Y3115001D02*
D03*
X6815400Y3415000D02*
D03*
Y3465000D02*
D03*
Y3515000D02*
D03*
Y3565000D02*
D03*
X6729401Y3415000D02*
D03*
Y3465000D02*
D03*
Y3515000D02*
D03*
X6815400Y3715000D02*
D03*
Y3765000D02*
D03*
Y3815000D02*
D03*
Y3865000D02*
D03*
X6729401Y3715000D02*
D03*
Y3765000D02*
D03*
Y3815000D02*
D03*
X5925400Y1765000D02*
D03*
Y1815000D02*
D03*
Y1865000D02*
D03*
Y1915000D02*
D03*
X5839400Y1765000D02*
D03*
Y1815000D02*
D03*
Y1865000D02*
D03*
X4885400Y2065000D02*
D03*
Y2115000D02*
D03*
Y2165000D02*
D03*
Y2215000D02*
D03*
X4799401Y2065000D02*
D03*
Y2115000D02*
D03*
Y2165000D02*
D03*
D21*
X6899400Y1845000D02*
D03*
X5839400Y2325000D02*
D03*
X5569401Y2815000D02*
D03*
X6899400Y2155000D02*
D03*
X5569401Y3235000D02*
D03*
X6899400Y2505000D02*
D03*
X6719401Y3165001D02*
D03*
X6729401Y3565000D02*
D03*
Y3865000D02*
D03*
X5839400Y1915000D02*
D03*
X4799401Y2215000D02*
D03*
D22*
X3784900Y2572500D02*
D03*
Y2637500D02*
D03*
Y2702500D02*
D03*
Y2767500D02*
D03*
X3359900Y2572500D02*
D03*
Y2637500D02*
D03*
Y2702500D02*
D03*
X4024901Y3052501D02*
D03*
Y3117501D02*
D03*
Y3182501D02*
D03*
Y3247501D02*
D03*
X3599901Y3052501D02*
D03*
Y3117501D02*
D03*
Y3182501D02*
D03*
X4799900Y5327500D02*
D03*
Y5262500D02*
D03*
Y5197500D02*
D03*
Y5132500D02*
D03*
X5224900Y5327500D02*
D03*
Y5262500D02*
D03*
Y5197500D02*
D03*
D23*
X3359900Y2767500D02*
D03*
X3599901Y3247501D02*
D03*
X5224900Y5132500D02*
D03*
D24*
X2532401Y4075000D02*
D03*
Y4170001D02*
D03*
Y4265000D02*
D03*
X2792401D02*
D03*
Y4170001D02*
D03*
X3082400Y1895000D02*
D03*
Y1800000D02*
D03*
Y1705000D02*
D03*
X2822400D02*
D03*
Y1800000D02*
D03*
D25*
X2792401Y4075000D02*
D03*
X2822400Y1895000D02*
D03*
D26*
X3492400Y2230000D02*
D03*
D27*
X8112400Y3815000D02*
D03*
D28*
Y3880000D02*
D03*
Y3945000D02*
D03*
X7912400D02*
D03*
Y3880000D02*
D03*
Y3815000D02*
D03*
D29*
X8262400Y3509999D02*
D03*
Y3559999D02*
D03*
Y3609999D02*
D03*
Y3659999D02*
D03*
X7962400Y3509999D02*
D03*
Y3559999D02*
D03*
Y3609999D02*
D03*
D30*
Y3659999D02*
D03*
D31*
X6879900Y4265000D02*
D03*
Y4075000D02*
D03*
X6624900D02*
D03*
Y4170000D02*
D03*
Y4265000D02*
D03*
D32*
X2467400Y2357500D02*
D03*
X2367400D02*
D03*
X2517400D02*
D03*
X2417400D02*
D03*
D33*
X2372400Y2425000D02*
D03*
Y2525000D02*
D03*
X2512400Y2475000D02*
D03*
D34*
X2354900D02*
D03*
X2529900Y2525000D02*
D03*
Y2425000D02*
D03*
D35*
X5087400Y3712500D02*
D03*
D36*
Y3777500D02*
D03*
Y3842500D02*
D03*
Y3907500D02*
D03*
Y3972500D02*
D03*
Y4037500D02*
D03*
Y4102500D02*
D03*
Y4167500D02*
D03*
X4517400Y3712500D02*
D03*
Y3777500D02*
D03*
Y3842500D02*
D03*
Y3907500D02*
D03*
Y3972500D02*
D03*
Y4037500D02*
D03*
Y4102500D02*
D03*
Y4167500D02*
D03*
D37*
X5604900Y4187500D02*
D03*
X5669900D02*
D03*
X5734900D02*
D03*
X5799900D02*
D03*
X5604900Y4612500D02*
D03*
X5669900D02*
D03*
X5734900D02*
D03*
D38*
X5799900D02*
D03*
D39*
X4442400Y4970000D02*
D03*
D40*
X4342400Y4825000D02*
D03*
X4392400D02*
D03*
X4442400D02*
D03*
X4492400D02*
D03*
X4542400D02*
D03*
X4342400Y5115000D02*
D03*
X4392400D02*
D03*
X4442400D02*
D03*
X4492400D02*
D03*
D41*
X4542400D02*
D03*
D42*
X5022400Y4320000D02*
D03*
X4782400Y4690000D02*
D03*
X4662400Y5140000D02*
D03*
X4962400Y4910000D02*
D03*
D43*
X1757400Y2420000D02*
D03*
X1947400D02*
D03*
X1852400Y2640000D02*
D03*
D44*
X3452400Y1900000D02*
D03*
Y1710000D02*
D03*
X3672400Y1805000D02*
D03*
D45*
X2922400Y5680000D02*
D03*
Y5780000D02*
D03*
X3022400Y5680000D02*
D03*
Y5780000D02*
D03*
X5462401Y5240000D02*
D03*
Y5340000D02*
D03*
X5562401D02*
D03*
Y5240000D02*
D03*
X6352400Y5680000D02*
D03*
Y5780000D02*
D03*
X6232400D02*
D03*
Y5680000D02*
D03*
X6132400D02*
D03*
Y5780000D02*
D03*
X6032400D02*
D03*
Y5680000D02*
D03*
X7102400Y1990000D02*
D03*
Y2090000D02*
D03*
X6042400Y2440000D02*
D03*
Y2340000D02*
D03*
Y2140000D02*
D03*
Y2240000D02*
D03*
X5782400Y3360001D02*
D03*
Y3260001D02*
D03*
X6922400Y2980000D02*
D03*
Y3080000D02*
D03*
Y3280000D02*
D03*
Y3180000D02*
D03*
X6922400Y3390000D02*
D03*
Y3490000D02*
D03*
X6922401Y3700000D02*
D03*
Y3800000D02*
D03*
X3322400Y5000000D02*
D03*
Y5100000D02*
D03*
Y4800000D02*
D03*
Y4900000D02*
D03*
X2822400Y5780000D02*
D03*
Y5680000D02*
D03*
X2922400Y4260000D02*
D03*
Y4160000D02*
D03*
X3022400D02*
D03*
Y4260000D02*
D03*
X3312400Y5780000D02*
D03*
Y5680000D02*
D03*
X2592400Y1790000D02*
D03*
Y1690000D02*
D03*
X2702400Y1790000D02*
D03*
Y1690000D02*
D03*
X3342400Y1900000D02*
D03*
Y1800000D02*
D03*
X4612400Y5780000D02*
D03*
Y5680000D02*
D03*
X2602400Y5780000D02*
D03*
Y5680000D02*
D03*
X4722400Y5780000D02*
D03*
Y5680000D02*
D03*
X2702400Y5780000D02*
D03*
Y5680000D02*
D03*
X4202400Y1781000D02*
D03*
Y1681000D02*
D03*
X4092400Y1780000D02*
D03*
Y1680000D02*
D03*
X5852400Y5680000D02*
D03*
Y5780000D02*
D03*
X5752400Y5680000D02*
D03*
Y5780000D02*
D03*
X4462400Y1780000D02*
D03*
Y1680000D02*
D03*
X4572400D02*
D03*
Y1780000D02*
D03*
X5102400D02*
D03*
Y1680000D02*
D03*
X6632400Y5780000D02*
D03*
Y5680000D02*
D03*
X6732400Y5780000D02*
D03*
Y5680000D02*
D03*
X5452400Y1780000D02*
D03*
Y1680000D02*
D03*
X5232400Y1780000D02*
D03*
Y1680000D02*
D03*
X5342400D02*
D03*
Y1780000D02*
D03*
X5522400Y5780000D02*
D03*
Y5680000D02*
D03*
X4992400Y1780000D02*
D03*
Y1680000D02*
D03*
X5242400Y5780000D02*
D03*
Y5680000D02*
D03*
X4852400Y1780000D02*
D03*
Y1680000D02*
D03*
X5632400Y5680000D02*
D03*
Y5780000D02*
D03*
X4742400Y1780000D02*
D03*
Y1680000D02*
D03*
X3922400Y1780000D02*
D03*
Y1680000D02*
D03*
X3812400Y1681000D02*
D03*
Y1781000D02*
D03*
X3782400Y5780000D02*
D03*
Y5680000D02*
D03*
X3532400D02*
D03*
Y5780000D02*
D03*
X3642400D02*
D03*
Y5680000D02*
D03*
X3192400D02*
D03*
Y5780000D02*
D03*
X7852400Y3480000D02*
D03*
Y3580000D02*
D03*
X8222400Y3870000D02*
D03*
Y3770000D02*
D03*
X7202400Y1790000D02*
D03*
Y1690000D02*
D03*
X7102400D02*
D03*
Y1790000D02*
D03*
X7202400Y2090000D02*
D03*
Y1990000D02*
D03*
X6142400Y2240000D02*
D03*
Y2140000D02*
D03*
Y2340000D02*
D03*
Y2440000D02*
D03*
X5882400Y2840000D02*
D03*
Y2940000D02*
D03*
X5782400D02*
D03*
Y2840000D02*
D03*
X5882400Y3160001D02*
D03*
Y3060001D02*
D03*
X5782400D02*
D03*
Y3160001D02*
D03*
X5882400Y3260001D02*
D03*
Y3360001D02*
D03*
X7022400Y3080000D02*
D03*
Y2980000D02*
D03*
Y3180000D02*
D03*
Y3280000D02*
D03*
X7022400Y3490000D02*
D03*
Y3390000D02*
D03*
X7022400Y3800000D02*
D03*
Y3700000D02*
D03*
X6142400Y1830000D02*
D03*
Y1730000D02*
D03*
X6042400D02*
D03*
Y1830000D02*
D03*
X6142400Y1930000D02*
D03*
Y2030000D02*
D03*
X6042400Y2030000D02*
D03*
Y1930000D02*
D03*
X5882400Y2740000D02*
D03*
Y2640000D02*
D03*
X5782400D02*
D03*
Y2740000D02*
D03*
X4972400Y5780000D02*
D03*
Y5680000D02*
D03*
X4862400Y5780000D02*
D03*
Y5680000D02*
D03*
X2692400Y2160000D02*
D03*
Y2260000D02*
D03*
X2792400D02*
D03*
Y2160000D02*
D03*
X2892400Y2260000D02*
D03*
Y2160000D02*
D03*
X4882400Y4530000D02*
D03*
Y4430000D02*
D03*
Y4690000D02*
D03*
Y4790000D02*
D03*
X4312400Y4480000D02*
D03*
Y4580000D02*
D03*
X5922400Y4640000D02*
D03*
Y4540000D02*
D03*
X5642400Y4060000D02*
D03*
Y3960000D02*
D03*
X5482400Y4640000D02*
D03*
Y4540000D02*
D03*
X5362401Y5240000D02*
D03*
Y5340000D02*
D03*
X5902400D02*
D03*
Y5240000D02*
D03*
X5362400Y5140000D02*
D03*
Y5040000D02*
D03*
X5742400Y3960000D02*
D03*
Y4060000D02*
D03*
X4782400Y4530000D02*
D03*
Y4430000D02*
D03*
X6832400Y5680000D02*
D03*
Y5780000D02*
D03*
X3232400Y1900000D02*
D03*
Y1800000D02*
D03*
X7412400Y3290000D02*
D03*
Y3390000D02*
D03*
X6502400Y2000000D02*
D03*
Y2100000D02*
D03*
X6492400Y2460000D02*
D03*
Y2560000D02*
D03*
X7412400Y3600000D02*
D03*
Y3500000D02*
D03*
X7612400Y2280000D02*
D03*
Y2380000D02*
D03*
X7732400Y1610000D02*
D03*
Y1710000D02*
D03*
Y5780000D02*
D03*
Y5680000D02*
D03*
X3432400Y4800000D02*
D03*
Y4900000D02*
D03*
X3443588Y5000000D02*
D03*
Y5100000D02*
D03*
X3472400Y3250000D02*
D03*
Y3350000D02*
D03*
X4162400Y3010000D02*
D03*
Y2910000D02*
D03*
X3472400Y3050000D02*
D03*
Y3150000D02*
D03*
X3412400Y5780000D02*
D03*
Y5680000D02*
D03*
X8372400Y3660000D02*
D03*
Y3560000D02*
D03*
X7652400Y1950000D02*
D03*
Y2050000D02*
D03*
X5472400Y2190000D02*
D03*
Y2290000D02*
D03*
X6202400Y4640000D02*
D03*
Y4740000D02*
D03*
X6992400Y4060000D02*
D03*
Y4160000D02*
D03*
X2242400Y2430000D02*
D03*
Y2530000D02*
D03*
X5332400Y3810000D02*
D03*
Y3710000D02*
D03*
X5222401Y3810000D02*
D03*
Y3710000D02*
D03*
X5532400Y4060000D02*
D03*
Y3960000D02*
D03*
X5852400Y4060000D02*
D03*
Y3960000D02*
D03*
X5772400Y3750000D02*
D03*
Y3850000D02*
D03*
X4462400Y4680000D02*
D03*
Y4580000D02*
D03*
X4662400Y4700000D02*
D03*
Y4600000D02*
D03*
X4562400Y4700000D02*
D03*
Y4600000D02*
D03*
D46*
X5752400Y4850000D02*
D03*
X5852400D02*
D03*
X5652400D02*
D03*
X5552400D02*
D03*
X5792400Y5240000D02*
D03*
X5692400D02*
D03*
X5112400Y2040000D02*
D03*
X5012400D02*
D03*
X7202400Y2450000D02*
D03*
X7102400D02*
D03*
X7782400Y3690000D02*
D03*
X7682400D02*
D03*
X7782400Y3800000D02*
D03*
X7682400D02*
D03*
X3092400Y5190000D02*
D03*
X3192400D02*
D03*
Y5090000D02*
D03*
X3092400D02*
D03*
X4172400Y2470000D02*
D03*
X4272400D02*
D03*
X1742400Y2300000D02*
D03*
X1842400D02*
D03*
X1842400Y2760000D02*
D03*
X1742400D02*
D03*
X1842400Y2190000D02*
D03*
X1742400D02*
D03*
X3242400Y2360000D02*
D03*
X3142400D02*
D03*
X3242400Y2260000D02*
D03*
X3142400D02*
D03*
Y2160001D02*
D03*
X3242400D02*
D03*
X3842400Y2250000D02*
D03*
X3742400D02*
D03*
X4562401Y2040000D02*
D03*
X4662400D02*
D03*
X5602400Y2160000D02*
D03*
X5702400D02*
D03*
X6662400Y2250000D02*
D03*
X6762400D02*
D03*
X7202400Y4160000D02*
D03*
X7102400D02*
D03*
X5602400Y1770000D02*
D03*
X5702400D02*
D03*
X6512401Y3390000D02*
D03*
X6612401D02*
D03*
X7202400Y4050000D02*
D03*
X7102400D02*
D03*
X5112400Y2140000D02*
D03*
X5012400D02*
D03*
X6662400Y1790000D02*
D03*
X6762400D02*
D03*
X7202400Y2350000D02*
D03*
X7102400D02*
D03*
X6662400D02*
D03*
X6762400D02*
D03*
X6662400Y2110000D02*
D03*
X6762400D02*
D03*
X6662400Y2450000D02*
D03*
X6762400D02*
D03*
X4562401Y2140000D02*
D03*
X4662400D02*
D03*
X4562401Y2240000D02*
D03*
X4662400D02*
D03*
X5332400Y3210000D02*
D03*
X5432400D02*
D03*
X6482401Y3030001D02*
D03*
X6582400D02*
D03*
X6482401Y3130001D02*
D03*
X6582400D02*
D03*
X6492401Y3750000D02*
D03*
X6592401D02*
D03*
X1842400Y2080000D02*
D03*
X1742400D02*
D03*
X5332401Y2670000D02*
D03*
X5432400D02*
D03*
X5332401Y2770000D02*
D03*
X5432400D02*
D03*
X5792400Y5340000D02*
D03*
X5692400D02*
D03*
X5332400Y3110000D02*
D03*
X5432400D02*
D03*
X5752400Y4740000D02*
D03*
X5652400D02*
D03*
X4382400Y4000000D02*
D03*
X4282400D02*
D03*
X5372400Y4290000D02*
D03*
X5472400D02*
D03*
X4292400Y5230000D02*
D03*
X4392400D02*
D03*
X4382400Y4130000D02*
D03*
X4282400D02*
D03*
X4652400Y5240000D02*
D03*
X4552400D02*
D03*
X4962401Y5010000D02*
D03*
X5062400D02*
D03*
X5262400D02*
D03*
X5162400D02*
D03*
X6762400Y1890000D02*
D03*
X6662400D02*
D03*
X7102400D02*
D03*
X7202400D02*
D03*
X7102400Y2190000D02*
D03*
X7202400D02*
D03*
X5662400Y3360000D02*
D03*
X5562401D02*
D03*
X5662400Y2940000D02*
D03*
X5562401D02*
D03*
X4652400Y5340000D02*
D03*
X4552400D02*
D03*
X6922401Y3590000D02*
D03*
X7022400D02*
D03*
X7102400Y2550000D02*
D03*
X7202400D02*
D03*
X7312400Y5780000D02*
D03*
X7212400D02*
D03*
X6322400Y5150000D02*
D03*
X6422400D02*
D03*
X6892400Y5120000D02*
D03*
X6992400D02*
D03*
X7732400Y4330000D02*
D03*
X7632400D02*
D03*
X7672400Y3210000D02*
D03*
X7572400D02*
D03*
X2962400Y5280000D02*
D03*
X2862400D02*
D03*
X3112400Y4860000D02*
D03*
X3212400D02*
D03*
X5182400Y4430000D02*
D03*
X5282400D02*
D03*
X6922401Y3900000D02*
D03*
X7022400D02*
D03*
X3222400Y2820000D02*
D03*
X3122400D02*
D03*
X2392400Y4190000D02*
D03*
X2292400D02*
D03*
X3022400Y4040000D02*
D03*
X2922400D02*
D03*
X1842400Y2870000D02*
D03*
X1742400D02*
D03*
X2702400Y1910000D02*
D03*
X2602400D02*
D03*
X3742400Y2350000D02*
D03*
X3842400D02*
D03*
X6592401Y3850000D02*
D03*
X6492401D02*
D03*
X5432400Y3310000D02*
D03*
X5332400D02*
D03*
X5932400Y2440000D02*
D03*
X5832400D02*
D03*
X6812400Y3280001D02*
D03*
X6712401D02*
D03*
X4932400Y4290000D02*
D03*
X4832401D02*
D03*
X6762400Y2550000D02*
D03*
X6662400D02*
D03*
X5432400Y2870000D02*
D03*
X5332401D02*
D03*
X5702400Y2360000D02*
D03*
X5602400D02*
D03*
X5702400Y1970000D02*
D03*
X5602400D02*
D03*
X5012400Y2240000D02*
D03*
X5112400D02*
D03*
X5932400Y2030000D02*
D03*
X5832400D02*
D03*
X6272401Y3330000D02*
D03*
X6372401D02*
D03*
X6272401Y2920000D02*
D03*
X6372401D02*
D03*
X7782400Y3910000D02*
D03*
X7682400D02*
D03*
X6992400Y4270000D02*
D03*
X7092400D02*
D03*
X6992400Y4380000D02*
D03*
X7092400D02*
D03*
X4382400Y3870000D02*
D03*
X4282400D02*
D03*
X4382400Y3760000D02*
D03*
X4282400D02*
D03*
X4782400Y4940000D02*
D03*
X4682400D02*
D03*
X4782400Y5040000D02*
D03*
X4682400D02*
D03*
X4472401Y4480000D02*
D03*
X4572400D02*
D03*
X5222401Y4050000D02*
D03*
X5322400D02*
D03*
X5442400Y4740000D02*
D03*
X5542400D02*
D03*
X4982400Y4430000D02*
D03*
X5082400D02*
D03*
X4382400Y4230000D02*
D03*
X4282400D02*
D03*
X5162400Y4910000D02*
D03*
X5062400D02*
D03*
D47*
X2182400Y3210000D02*
D03*
Y3370000D02*
D03*
X2432400Y1690000D02*
D03*
Y1850000D02*
D03*
X2152400D02*
D03*
Y1690000D02*
D03*
D48*
X5812400Y5010000D02*
D03*
X5572400D02*
D03*
D49*
X5877400D02*
D03*
X5507400D02*
D03*
D50*
X8348400Y1605000D02*
D03*
Y1685000D02*
D03*
Y1765000D02*
D03*
Y1845000D02*
D03*
Y1925000D02*
D03*
Y2005000D02*
D03*
Y2085000D02*
D03*
Y2165000D02*
D03*
Y2245000D02*
D03*
Y2325000D02*
D03*
Y2405000D02*
D03*
Y2485000D02*
D03*
Y2565000D02*
D03*
Y2645000D02*
D03*
Y2725000D02*
D03*
Y2805000D02*
D03*
Y2885000D02*
D03*
Y2965000D02*
D03*
Y3045000D02*
D03*
X7942400Y1605000D02*
D03*
Y1685000D02*
D03*
Y1765000D02*
D03*
Y1845000D02*
D03*
Y1925000D02*
D03*
Y2005000D02*
D03*
Y2085000D02*
D03*
Y2165000D02*
D03*
Y2245000D02*
D03*
Y2325000D02*
D03*
Y2405000D02*
D03*
Y2485000D02*
D03*
Y2565000D02*
D03*
Y2645000D02*
D03*
Y2725000D02*
D03*
Y2805000D02*
D03*
Y2885000D02*
D03*
Y2965000D02*
D03*
Y3045000D02*
D03*
X8348400Y3125000D02*
D03*
X7942400D02*
D03*
X8348400Y4335000D02*
D03*
Y4415000D02*
D03*
Y4495000D02*
D03*
Y4575000D02*
D03*
Y4655000D02*
D03*
Y4735000D02*
D03*
Y4815000D02*
D03*
Y4895000D02*
D03*
Y4975000D02*
D03*
Y5055000D02*
D03*
Y5135000D02*
D03*
Y5215000D02*
D03*
Y5295000D02*
D03*
Y5375000D02*
D03*
Y5455000D02*
D03*
Y5535000D02*
D03*
Y5615000D02*
D03*
Y5695000D02*
D03*
Y5775000D02*
D03*
X7942400Y4335000D02*
D03*
Y4415000D02*
D03*
Y4495000D02*
D03*
Y4575000D02*
D03*
Y4655000D02*
D03*
Y4735000D02*
D03*
Y4815000D02*
D03*
Y4895000D02*
D03*
Y4975000D02*
D03*
Y5055000D02*
D03*
Y5135000D02*
D03*
Y5215000D02*
D03*
Y5295000D02*
D03*
Y5375000D02*
D03*
Y5455000D02*
D03*
Y5535000D02*
D03*
Y5615000D02*
D03*
Y5695000D02*
D03*
Y5775000D02*
D03*
X8348400Y5855000D02*
D03*
X7942400D02*
D03*
D51*
X1512400Y2225000D02*
D03*
Y2375000D02*
D03*
Y2525000D02*
D03*
Y2675000D02*
D03*
D52*
X3972400Y3670000D02*
D03*
Y3610000D02*
D03*
X3382400Y3550000D02*
D03*
X3322400D02*
D03*
X3972400Y4410000D02*
D03*
Y4350000D02*
D03*
X7742400Y3340000D02*
D03*
Y3280000D02*
D03*
X7712400Y5940000D02*
D03*
X7772400D02*
D03*
X3382400Y4290000D02*
D03*
Y4230000D02*
D03*
D53*
X4147400Y5370000D02*
D03*
X6052400Y3665000D02*
D03*
D54*
X4147400Y4815000D02*
D03*
Y4220000D02*
D03*
X6052400D02*
D03*
Y4815000D02*
D03*
D55*
X4317400Y5470000D02*
D03*
X5882400Y3565000D02*
D03*
D56*
X5952400Y5470000D02*
D03*
X4247400Y3565000D02*
D03*
D57*
X5397400Y5470000D02*
D03*
X4802400D02*
D03*
Y3565000D02*
D03*
X5397400D02*
D03*
D58*
X6052400Y5300000D02*
D03*
X4147400Y3735000D02*
D03*
D59*
X2927400Y4680000D02*
D03*
X2697400D02*
D03*
X2737400Y3830000D02*
D03*
X2507400D02*
D03*
D60*
X2272400Y4665000D02*
D03*
Y4895000D02*
D03*
X2272400Y5315000D02*
D03*
Y5085000D02*
D03*
X2422400Y3415000D02*
D03*
Y3185000D02*
D03*
D61*
X2792400Y2580000D02*
D03*
Y2920000D02*
D03*
D62*
X7502400Y2700000D02*
D03*
Y4600000D02*
D03*
X4132400Y2350000D02*
D03*
X4312400Y5700000D02*
D03*
X2302400D02*
D03*
X3962400D02*
D03*
X1952400D02*
D03*
X7502400Y3100000D02*
D03*
Y5000000D02*
D03*
D63*
X7662400Y2700000D02*
D03*
Y4600000D02*
D03*
X4292400Y2350000D02*
D03*
X4472400Y5700000D02*
D03*
X2462400D02*
D03*
X4122400D02*
D03*
X2112400D02*
D03*
X7662400Y3100000D02*
D03*
Y5000000D02*
D03*
X2682400Y5350000D02*
D03*
X2522400D02*
D03*
X3102400Y4450000D02*
D03*
X3262400D02*
D03*
X2972400Y5390000D02*
D03*
X2812400D02*
D03*
X2532400Y3570000D02*
D03*
X2372400D02*
D03*
X2342400Y3920000D02*
D03*
X2182400D02*
D03*
X3302400Y2930000D02*
D03*
X3462400D02*
D03*
X4042400Y2920000D02*
D03*
X3882400D02*
D03*
X2422400Y2230000D02*
D03*
X2262400D02*
D03*
X4482400Y4350000D02*
D03*
X4642400D02*
D03*
X2872400Y2380000D02*
D03*
X2712400D02*
D03*
X5232400Y3930000D02*
D03*
X5392400D02*
D03*
X5232400Y4170000D02*
D03*
X5392400D02*
D03*
D64*
X3197400Y2000000D02*
D03*
X2397400Y4080000D02*
D03*
X3027400Y3930000D02*
D03*
X3197400Y1680000D02*
D03*
D65*
X3347400Y2000000D02*
D03*
X2247400Y4080000D02*
D03*
X2877400Y3930000D02*
D03*
X3347400Y1680000D02*
D03*
D66*
X2522400Y4900000D02*
D03*
Y4740000D02*
D03*
X5322400Y4540000D02*
D03*
Y4700001D02*
D03*
X2522400Y5060000D02*
D03*
Y5220000D02*
D03*
X3922400Y2620000D02*
D03*
Y2780000D02*
D03*
X4062400Y2620000D02*
D03*
Y2780000D02*
D03*
X3222400Y2530000D02*
D03*
Y2690000D02*
D03*
X2292400Y1850000D02*
D03*
Y1690000D02*
D03*
X2022400Y5110000D02*
D03*
Y5270000D02*
D03*
X5902400Y3850000D02*
D03*
Y3690000D02*
D03*
X1942400Y1850000D02*
D03*
Y1690000D02*
D03*
X2132400Y2360000D02*
D03*
Y2520000D02*
D03*
X5512400Y3850000D02*
D03*
Y3690000D02*
D03*
X5642400Y3850000D02*
D03*
Y3690000D02*
D03*
X6192400Y3950000D02*
D03*
Y4110000D02*
D03*
D67*
X3612400Y5390000D02*
D03*
Y5110000D02*
D03*
X3832400Y4610000D02*
D03*
Y4890000D02*
D03*
X3612400Y4610000D02*
D03*
Y4890000D02*
D03*
X3832400Y5390000D02*
D03*
Y5110000D02*
D03*
X4212400Y3420000D02*
D03*
Y3140000D02*
D03*
X3292400Y3370000D02*
D03*
Y3090000D02*
D03*
X3192400Y4230000D02*
D03*
Y3950000D02*
D03*
D68*
X3402400Y4630000D02*
D03*
X3122400D02*
D03*
X3422400Y5360000D02*
D03*
X3142400D02*
D03*
X2962400Y3430000D02*
D03*
X2682400D02*
D03*
X2962400Y3200000D02*
D03*
X2682400D02*
D03*
X2212400Y2930000D02*
D03*
X2492400D02*
D03*
X2212400Y2700000D02*
D03*
X2492400D02*
D03*
D82*
X7995400Y3275000D02*
D03*
X8145400Y1455000D02*
D03*
X7995400Y6005000D02*
D03*
X8145400Y4185000D02*
D03*
D83*
X1914400Y1170500D02*
D03*
Y5996500D02*
D03*
D84*
X2168400Y1170500D02*
D03*
X2422400D02*
D03*
X2676400D02*
D03*
X2930400D02*
D03*
X3184400D02*
D03*
X3438400D02*
D03*
X3692400D02*
D03*
X3946400D02*
D03*
X4200400D02*
D03*
X4454400D02*
D03*
X4708400D02*
D03*
X4962400D02*
D03*
X5216400D02*
D03*
X5470400D02*
D03*
X5724400D02*
D03*
X5978400D02*
D03*
X6232400D02*
D03*
X6486400D02*
D03*
X6740400D02*
D03*
X6994400D02*
D03*
X7248400D02*
D03*
X7502400D02*
D03*
X1914400Y1464500D02*
D03*
X2168400D02*
D03*
X2422400D02*
D03*
X2676400D02*
D03*
X2930400D02*
D03*
X3184400D02*
D03*
X3438400D02*
D03*
X3692400D02*
D03*
X3946400D02*
D03*
X4200400D02*
D03*
X4454400D02*
D03*
X4708400D02*
D03*
X4962400D02*
D03*
X5216400D02*
D03*
X5470400D02*
D03*
X5724400D02*
D03*
X5978400D02*
D03*
X6232400D02*
D03*
X6486400D02*
D03*
X6740400D02*
D03*
X6994400D02*
D03*
X7248400D02*
D03*
X7502400D02*
D03*
X2168400Y5996500D02*
D03*
X2422400D02*
D03*
X2676400D02*
D03*
X2930400D02*
D03*
X3184400D02*
D03*
X3438400D02*
D03*
X3692400D02*
D03*
X3946400D02*
D03*
X4200400D02*
D03*
X4454400D02*
D03*
X4708400D02*
D03*
X4962400D02*
D03*
X5216400D02*
D03*
X5470400D02*
D03*
X5724400D02*
D03*
X5978400D02*
D03*
X6232400D02*
D03*
X6486400D02*
D03*
X6740400D02*
D03*
X6994400D02*
D03*
X7248400D02*
D03*
X7502400D02*
D03*
X1914400Y6290500D02*
D03*
X2168400D02*
D03*
X2422400D02*
D03*
X2676400D02*
D03*
X2930400D02*
D03*
X3184400D02*
D03*
X3438400D02*
D03*
X3692400D02*
D03*
X3946400D02*
D03*
X4200400D02*
D03*
X4454400D02*
D03*
X4708400D02*
D03*
X4962400D02*
D03*
X5216400D02*
D03*
X5470400D02*
D03*
X5724400D02*
D03*
X5978400D02*
D03*
X6232400D02*
D03*
X6486400D02*
D03*
X6740400D02*
D03*
X6994400D02*
D03*
X7248400D02*
D03*
X7502400D02*
D03*
D85*
X3802400Y3548000D02*
D03*
Y3748000D02*
D03*
Y3948000D02*
D03*
Y4148000D02*
D03*
Y4348000D02*
D03*
X3562400Y3548000D02*
D03*
Y3748000D02*
D03*
Y3948000D02*
D03*
Y4148000D02*
D03*
D86*
Y4348000D02*
D03*
D87*
X1342900Y6143500D02*
D03*
D88*
X1362400Y1345000D02*
D03*
D89*
Y1695000D02*
D03*
%TF.MD5,02b763cd3db6998149a95ad541d36c91*%
M02*
