%TF.GenerationSoftware,Altium Limited,Altium Designer,25.3.3 (18)*%
G04 Layer_Color=16711935*
%FSLAX45Y45*%
%MOMM*%
%TF.SameCoordinates,95E4F6BA-DA47-4B25-BB43-2529A7C35442*%
%TF.FilePolarity,Positive*%
%TF.FileFunction,Keep-out,Top*%
%TF.Part,CustomerPanel*%
G01*
G75*
%TA.AperFunction,NonConductor*%
%ADD637C,0.10000*%
G36*
X-117600Y4873500D02*
Y3095500D01*
X1850900D01*
Y4873500D01*
X-117600D01*
D02*
G37*
D637*
X1050000Y6610000D02*
G03*
X850000Y6410000I0J-200000D01*
G01*
X850000Y1050000D02*
G03*
X1050000Y850000I200000J0D01*
G01*
X8470000Y850000D02*
G03*
X8670000Y1050000I0J200000D01*
G01*
X8670000Y6410000D02*
G03*
X8470000Y6610000I-200000J0D01*
G01*
X850000Y2970000D02*
G03*
X1000001Y2970000I75000J0D01*
G01*
X1000000Y2600000D02*
G03*
X850000Y2600000I-75000J0D01*
G01*
X849863Y5370269D02*
G03*
X999863Y5370269I75000J0D01*
G01*
X999862Y5000269D02*
G03*
X849862Y5000269I-75000J0D01*
G01*
X8520000Y5330000D02*
G03*
X8670000Y5330000I75000J0D01*
G01*
X8670000Y4960000D02*
G03*
X8520000Y4960000I-75000J0D01*
G01*
X8520000Y2650000D02*
G03*
X8670000Y2650000I75000J0D01*
G01*
X8670000Y2280000D02*
G03*
X8520000Y2280000I-75000J0D01*
G01*
X2600000Y1000000D02*
G03*
X2600000Y850000I0J-75000D01*
G01*
X2230000Y850000D02*
G03*
X2230000Y1000000I0J75000D01*
G01*
X6910000Y1000000D02*
G03*
X6910000Y850000I0J-75000D01*
G01*
X6540000Y850000D02*
G03*
X6540000Y1000000I0J75000D01*
G01*
X2610000Y6610000D02*
G03*
X2610000Y6460000I0J-75000D01*
G01*
X2240000Y6460000D02*
G03*
X2240000Y6610000I0J75000D01*
G01*
X6910000Y6610000D02*
G03*
X6910000Y6460000I0J-75000D01*
G01*
X6540000Y6460000D02*
G03*
X6540000Y6610000I0J75000D01*
G01*
X8262199Y999769D02*
G03*
X8517454Y1255025I0J255256D01*
G01*
X999862Y1253769D02*
G03*
X1253862Y999769I254000J0D01*
G01*
X1253862Y6460769D02*
G03*
X999862Y6206769I0J-254000D01*
G01*
X1977762Y4746269D02*
G03*
X1723762Y5000269I-254000J0D01*
G01*
Y2968269D02*
G03*
X1977762Y3222269I0J254000D01*
G01*
X8517320Y6205240D02*
G03*
X8261791Y6460769I-255529J0D01*
G01*
X1253862Y999933D02*
X2229986Y1000000D01*
X2600002Y1000000D02*
X6540000Y1000105D01*
X6910002Y1000000D02*
X8262199Y1000059D01*
X8520000Y2279988D02*
X8520054Y1255025D01*
X8520000Y4960000D02*
X8520062Y2650002D01*
X8519956Y6205240D02*
X8520000Y5330002D01*
X6910011Y6460000D02*
X8261791Y6460067D01*
X2610002Y6460000D02*
X6540002Y6460104D01*
X1000000Y2599998D02*
X1000073Y1253769D01*
X1253862Y6459947D02*
X2239998Y6460000D01*
X999862Y5000269D02*
X1723762D01*
X999862Y5370269D02*
Y6206769D01*
X849862Y5000269D02*
X849956Y2970000D01*
X1050000Y849919D02*
X2229998Y850000D01*
X850000Y2599998D02*
X850071Y1050000D01*
X849806Y6410000D02*
X849863Y5370271D01*
X1050000Y6609936D02*
X2239998Y6610000D01*
X6910002Y6610000D02*
X8470000Y6610078D01*
X8669946Y6410000D02*
X8670000Y5330002D01*
X8669938Y4960000D02*
X8670000Y2650002D01*
X8670000Y2279998D02*
X8670065Y1050000D01*
X6910002Y850000D02*
X8470000Y850068D01*
X2600002Y850000D02*
X6540000Y850105D01*
X2610000Y6610000D02*
X6540000Y6610105D01*
X999862Y2968269D02*
X1723762D01*
X1977762Y3222269D02*
Y4746269D01*
X-2Y-5D02*
X9500000D01*
X-2Y7500000D02*
X-2Y-5D01*
X9500000D02*
Y7500000D01*
X-2D02*
X9500000D01*
X8517458Y6205471D02*
G03*
X8261929Y6461000I-255529J0D01*
G01*
X1723900Y2968500D02*
G03*
X1977900Y3222500I0J254000D01*
G01*
Y4746500D02*
G03*
X1723900Y5000500I-254000J0D01*
G01*
X1254000Y6461000D02*
G03*
X1000000Y6207000I0J-254000D01*
G01*
X1000000Y1254000D02*
G03*
X1254000Y1000000I254000J0D01*
G01*
X8262336D02*
G03*
X8517592Y1255256I0J255256D01*
G01*
X1000000Y5000500D02*
Y6207000D01*
Y1254000D02*
Y2968500D01*
X1254000Y6461000D02*
X8261931D01*
X1977900Y3222500D02*
Y4746500D01*
X1000000Y5000500D02*
X1723900D01*
X1000000Y2968500D02*
X1723900D01*
X1254000Y1000000D02*
X8262338D01*
X8517460Y6205471D02*
X8517592Y1255255D01*
%TF.MD5,4218564255511aef3b6eed4a33c99649*%
M02*
