%TF.GenerationSoftware,Altium Limited,Altium Designer,25.3.3 (18)*%
G04 Layer_Color=128*
%FSLAX45Y45*%
%MOMM*%
%TF.SameCoordinates,95E4F6BA-DA47-4B25-BB43-2529A7C35442*%
%TF.FilePolarity,Positive*%
%TF.FileFunction,Drillmap*%
%TF.Part,CustomerPanel*%
G01*
G75*
%TA.AperFunction,NonConductor*%
%ADD686C,0.12700*%
D686*
X966389Y5159417D02*
X996389D01*
X981389Y5144417D02*
Y5174417D01*
X966389Y5209417D02*
X996389D01*
X981389Y5194417D02*
Y5224417D01*
X966389Y5259417D02*
X996389D01*
X981389Y5244417D02*
Y5274417D01*
X966389Y5109417D02*
X996389D01*
X981389Y5094417D02*
Y5124416D01*
X966389Y2759417D02*
X996389D01*
X981389Y2744417D02*
Y2774417D01*
X966389Y2809417D02*
X996389D01*
X981389Y2794417D02*
Y2824416D01*
X966389Y2859417D02*
X996389D01*
X981389Y2844417D02*
Y2874417D01*
X966389Y2709416D02*
X996389D01*
X981389Y2694417D02*
Y2724416D01*
X2425583Y981389D02*
X2455583D01*
X2440583Y966389D02*
Y996389D01*
X2375583Y981389D02*
X2405583D01*
X2390583Y966389D02*
Y996389D01*
X2325583Y981389D02*
X2355583D01*
X2340583Y966389D02*
Y996389D01*
X2475583Y981389D02*
X2505583D01*
X2490583Y966389D02*
Y996389D01*
X6735583Y981389D02*
X6765583D01*
X6750583Y966389D02*
Y996389D01*
X6685583Y981389D02*
X6715583D01*
X6700583Y966389D02*
Y996389D01*
X6635583Y981389D02*
X6665583D01*
X6650583Y966389D02*
Y996389D01*
X6785583Y981389D02*
X6815583D01*
X6800583Y966389D02*
Y996389D01*
X8523611Y2490583D02*
X8553611D01*
X8538611Y2475583D02*
Y2505583D01*
X8523611Y2440583D02*
X8553611D01*
X8538611Y2425583D02*
Y2455583D01*
X8523611Y2390583D02*
X8553611D01*
X8538611Y2375583D02*
Y2405583D01*
X8523611Y2540583D02*
X8553611D01*
X8538611Y2525583D02*
Y2555583D01*
X8523611Y5170583D02*
X8553611D01*
X8538611Y5155583D02*
Y5185583D01*
X8523611Y5120583D02*
X8553611D01*
X8538611Y5105583D02*
Y5135583D01*
X8523611Y5070583D02*
X8553611D01*
X8538611Y5055583D02*
Y5085583D01*
X8523611Y5220583D02*
X8553611D01*
X8538611Y5205583D02*
Y5235583D01*
X6684417Y6478611D02*
X6714417D01*
X6699417Y6463611D02*
Y6493611D01*
X6734417Y6478611D02*
X6764416D01*
X6749417Y6463611D02*
Y6493611D01*
X6784417Y6478611D02*
X6814417D01*
X6799417Y6463611D02*
Y6493611D01*
X6634417Y6478611D02*
X6664416D01*
X6649416Y6463611D02*
Y6493611D01*
X2334417Y6478611D02*
X2364417D01*
X2349417Y6463611D02*
Y6493611D01*
X2484417Y6478611D02*
X2514417D01*
X2499417Y6463611D02*
Y6493611D01*
X2434417Y6478611D02*
X2464417D01*
X2449417Y6463611D02*
Y6493611D01*
X2384417Y6478611D02*
X2414417D01*
X2399417Y6463611D02*
Y6493611D01*
X8900000Y7000000D02*
X9100000D01*
X9000000Y6900000D02*
Y7100000D01*
X400000Y500000D02*
X600000D01*
X500000Y400000D02*
Y600000D01*
X400000Y7000000D02*
X600000D01*
X500000Y6900000D02*
Y7100000D01*
X8900000Y500000D02*
X9100000D01*
X9000000Y400000D02*
Y600000D01*
X7935400Y3275000D02*
X8055400D01*
X7995400Y3215000D02*
Y3335000D01*
X8085400Y1455000D02*
X8205400D01*
X8145400Y1395000D02*
Y1515000D01*
X7935400Y6005000D02*
X8055400D01*
X7995400Y5945000D02*
Y6065000D01*
X8085400Y4185000D02*
X8205400D01*
X8145400Y4125000D02*
Y4245000D01*
X1859400Y1190500D02*
X1969400D01*
X1914400Y1135500D02*
Y1245500D01*
X2113400Y1190500D02*
X2223400D01*
X2168400Y1135500D02*
Y1245500D01*
X2367400Y1190500D02*
X2477400D01*
X2422400Y1135500D02*
Y1245500D01*
X2621400Y1190500D02*
X2731400D01*
X2676400Y1135500D02*
Y1245500D01*
X2875400Y1190500D02*
X2985400D01*
X2930400Y1135500D02*
Y1245500D01*
X3129400Y1190500D02*
X3239400D01*
X3184400Y1135500D02*
Y1245500D01*
X3383400Y1190500D02*
X3493400D01*
X3438400Y1135500D02*
Y1245500D01*
X3637400Y1190500D02*
X3747400D01*
X3692400Y1135500D02*
Y1245500D01*
X3891400Y1190500D02*
X4001400D01*
X3946400Y1135500D02*
Y1245500D01*
X4145400Y1190500D02*
X4255400D01*
X4200400Y1135500D02*
Y1245500D01*
X4399400Y1190500D02*
X4509400D01*
X4454400Y1135500D02*
Y1245500D01*
X4653400Y1190500D02*
X4763400D01*
X4708400Y1135500D02*
Y1245500D01*
X4907400Y1190500D02*
X5017400D01*
X4962400Y1135500D02*
Y1245500D01*
X5161400Y1190500D02*
X5271400D01*
X5216400Y1135500D02*
Y1245500D01*
X5415400Y1190500D02*
X5525400D01*
X5470400Y1135500D02*
Y1245500D01*
X5669400Y1190500D02*
X5779400D01*
X5724400Y1135500D02*
Y1245500D01*
X5923400Y1190500D02*
X6033400D01*
X5978400Y1135500D02*
Y1245500D01*
X6177400Y1190500D02*
X6287400D01*
X6232400Y1135500D02*
Y1245500D01*
X6431400Y1190500D02*
X6541400D01*
X6486400Y1135500D02*
Y1245500D01*
X6685400Y1190500D02*
X6795400D01*
X6740400Y1135500D02*
Y1245500D01*
X6939400Y1190500D02*
X7049400D01*
X6994400Y1135500D02*
Y1245500D01*
X7193400Y1190500D02*
X7303400D01*
X7248400Y1135500D02*
Y1245500D01*
X7447400Y1190500D02*
X7557400D01*
X7502400Y1135500D02*
Y1245500D01*
X1859400Y1444500D02*
X1969400D01*
X1914400Y1389500D02*
Y1499500D01*
X2113400Y1444500D02*
X2223400D01*
X2168400Y1389500D02*
Y1499500D01*
X2367400Y1444500D02*
X2477400D01*
X2422400Y1389500D02*
Y1499500D01*
X2621400Y1444500D02*
X2731400D01*
X2676400Y1389500D02*
Y1499500D01*
X2875400Y1444500D02*
X2985400D01*
X2930400Y1389500D02*
Y1499500D01*
X3129400Y1444500D02*
X3239400D01*
X3184400Y1389500D02*
Y1499500D01*
X3383400Y1444500D02*
X3493400D01*
X3438400Y1389500D02*
Y1499500D01*
X3637400Y1444500D02*
X3747400D01*
X3692400Y1389500D02*
Y1499500D01*
X3891400Y1444500D02*
X4001400D01*
X3946400Y1389500D02*
Y1499500D01*
X4145400Y1444500D02*
X4255400D01*
X4200400Y1389500D02*
Y1499500D01*
X4399400Y1444500D02*
X4509400D01*
X4454400Y1389500D02*
Y1499500D01*
X4653400Y1444500D02*
X4763400D01*
X4708400Y1389500D02*
Y1499500D01*
X4907400Y1444500D02*
X5017400D01*
X4962400Y1389500D02*
Y1499500D01*
X5161400Y1444500D02*
X5271400D01*
X5216400Y1389500D02*
Y1499500D01*
X5415400Y1444500D02*
X5525400D01*
X5470400Y1389500D02*
Y1499500D01*
X5669400Y1444500D02*
X5779400D01*
X5724400Y1389500D02*
Y1499500D01*
X5923400Y1444500D02*
X6033400D01*
X5978400Y1389500D02*
Y1499500D01*
X6177400Y1444500D02*
X6287400D01*
X6232400Y1389500D02*
Y1499500D01*
X6431400Y1444500D02*
X6541400D01*
X6486400Y1389500D02*
Y1499500D01*
X6685400Y1444500D02*
X6795400D01*
X6740400Y1389500D02*
Y1499500D01*
X6939400Y1444500D02*
X7049400D01*
X6994400Y1389500D02*
Y1499500D01*
X7193400Y1444500D02*
X7303400D01*
X7248400Y1389500D02*
Y1499500D01*
X7447400Y1444500D02*
X7557400D01*
X7502400Y1389500D02*
Y1499500D01*
X1859400Y6016500D02*
X1969400D01*
X1914400Y5961500D02*
Y6071500D01*
X2113400Y6016500D02*
X2223400D01*
X2168400Y5961500D02*
Y6071500D01*
X2367400Y6016500D02*
X2477400D01*
X2422400Y5961500D02*
Y6071500D01*
X2621400Y6016500D02*
X2731400D01*
X2676400Y5961500D02*
Y6071500D01*
X2875400Y6016500D02*
X2985400D01*
X2930400Y5961500D02*
Y6071500D01*
X3129400Y6016500D02*
X3239400D01*
X3184400Y5961500D02*
Y6071500D01*
X3383400Y6016500D02*
X3493400D01*
X3438400Y5961500D02*
Y6071500D01*
X3637400Y6016500D02*
X3747400D01*
X3692400Y5961500D02*
Y6071500D01*
X3891400Y6016500D02*
X4001400D01*
X3946400Y5961500D02*
Y6071500D01*
X4145400Y6016500D02*
X4255400D01*
X4200400Y5961500D02*
Y6071500D01*
X4399400Y6016500D02*
X4509400D01*
X4454400Y5961500D02*
Y6071500D01*
X4653400Y6016500D02*
X4763400D01*
X4708400Y5961500D02*
Y6071500D01*
X4907400Y6016500D02*
X5017400D01*
X4962400Y5961500D02*
Y6071500D01*
X5161400Y6016500D02*
X5271400D01*
X5216400Y5961500D02*
Y6071500D01*
X5415400Y6016500D02*
X5525400D01*
X5470400Y5961500D02*
Y6071500D01*
X5669400Y6016500D02*
X5779400D01*
X5724400Y5961500D02*
Y6071500D01*
X5923400Y6016500D02*
X6033400D01*
X5978400Y5961500D02*
Y6071500D01*
X6177400Y6016500D02*
X6287400D01*
X6232400Y5961500D02*
Y6071500D01*
X6431400Y6016500D02*
X6541400D01*
X6486400Y5961500D02*
Y6071500D01*
X6685400Y6016500D02*
X6795400D01*
X6740400Y5961500D02*
Y6071500D01*
X6939400Y6016500D02*
X7049400D01*
X6994400Y5961500D02*
Y6071500D01*
X7193400Y6016500D02*
X7303400D01*
X7248400Y5961500D02*
Y6071500D01*
X7447400Y6016500D02*
X7557400D01*
X7502400Y5961500D02*
Y6071500D01*
X1859400Y6270500D02*
X1969400D01*
X1914400Y6215500D02*
Y6325500D01*
X2113400Y6270500D02*
X2223400D01*
X2168400Y6215500D02*
Y6325500D01*
X2367400Y6270500D02*
X2477400D01*
X2422400Y6215500D02*
Y6325500D01*
X2621400Y6270500D02*
X2731400D01*
X2676400Y6215500D02*
Y6325500D01*
X2875400Y6270500D02*
X2985400D01*
X2930400Y6215500D02*
Y6325500D01*
X3129400Y6270500D02*
X3239400D01*
X3184400Y6215500D02*
Y6325500D01*
X3383400Y6270500D02*
X3493400D01*
X3438400Y6215500D02*
Y6325500D01*
X3637400Y6270500D02*
X3747400D01*
X3692400Y6215500D02*
Y6325500D01*
X3891400Y6270500D02*
X4001400D01*
X3946400Y6215500D02*
Y6325500D01*
X4145400Y6270500D02*
X4255400D01*
X4200400Y6215500D02*
Y6325500D01*
X4399400Y6270500D02*
X4509400D01*
X4454400Y6215500D02*
Y6325500D01*
X4653400Y6270500D02*
X4763400D01*
X4708400Y6215500D02*
Y6325500D01*
X4907400Y6270500D02*
X5017400D01*
X4962400Y6215500D02*
Y6325500D01*
X5161400Y6270500D02*
X5271400D01*
X5216400Y6215500D02*
Y6325500D01*
X5415400Y6270500D02*
X5525400D01*
X5470400Y6215500D02*
Y6325500D01*
X5669400Y6270500D02*
X5779400D01*
X5724400Y6215500D02*
Y6325500D01*
X5923400Y6270500D02*
X6033400D01*
X5978400Y6215500D02*
Y6325500D01*
X6177400Y6270500D02*
X6287400D01*
X6232400Y6215500D02*
Y6325500D01*
X6431400Y6270500D02*
X6541400D01*
X6486400Y6215500D02*
Y6325500D01*
X6685400Y6270500D02*
X6795400D01*
X6740400Y6215500D02*
Y6325500D01*
X6939400Y6270500D02*
X7049400D01*
X6994400Y6215500D02*
Y6325500D01*
X7193400Y6270500D02*
X7303400D01*
X7248400Y6215500D02*
Y6325500D01*
X7447400Y6270500D02*
X7557400D01*
X7502400Y6215500D02*
Y6325500D01*
X3742400Y3548000D02*
X3822400D01*
X3782400Y3508000D02*
Y3588000D01*
X3742400Y3748000D02*
X3822400D01*
X3782400Y3708000D02*
Y3788000D01*
X3742400Y3948000D02*
X3822400D01*
X3782400Y3908000D02*
Y3988000D01*
X3742400Y4148000D02*
X3822400D01*
X3782400Y4108000D02*
Y4187999D01*
X3742400Y4348000D02*
X3822400D01*
X3782400Y4308000D02*
Y4388000D01*
X3542400Y3548000D02*
X3622400D01*
X3582400Y3508000D02*
Y3588000D01*
X3542400Y3748000D02*
X3622400D01*
X3582400Y3708000D02*
Y3788000D01*
X3542400Y3948000D02*
X3622400D01*
X3582400Y3908000D02*
Y3988000D01*
X3542400Y4148000D02*
X3622400D01*
X3582400Y4108000D02*
Y4187999D01*
X3542400Y4348000D02*
X3622400D01*
X3582400Y4308000D02*
Y4388000D01*
X1182900Y6143500D02*
X1502900D01*
X1342900Y5983500D02*
Y6303500D01*
X1302400Y1345000D02*
X1422400D01*
X1362400Y1285000D02*
Y1405000D01*
X1302400Y1695000D02*
X1422400D01*
X1362400Y1635000D02*
Y1755000D01*
X8352400Y6340000D02*
X8372400D01*
X8362400Y6330000D02*
Y6350000D01*
X8377834Y1138008D02*
X8397834D01*
X8387834Y1128008D02*
Y1148008D01*
X1122400Y1120000D02*
X1142400D01*
X1132400Y1110000D02*
Y1130000D01*
X1082400Y2880000D02*
X1102400D01*
X1092400Y2870000D02*
Y2890000D01*
X1072400Y5080000D02*
X1092400D01*
X1082400Y5070000D02*
Y5090000D01*
X1490400Y6283500D02*
X1515400D01*
X1502900Y6271000D02*
Y6296000D01*
X1490400Y6003500D02*
X1515400D01*
X1502900Y5991000D02*
Y6016000D01*
X1170400Y6003500D02*
X1195400D01*
X1182900Y5991000D02*
Y6016000D01*
X1170400Y6283500D02*
X1195400D01*
X1182900Y6271000D02*
Y6296000D01*
X7113329Y3241556D02*
X7133329D01*
X7123329Y3231556D02*
Y3251556D01*
X7094560Y3303605D02*
X7114560D01*
X7104560Y3293605D02*
Y3313605D01*
X7022400Y5130000D02*
X7042400D01*
X7032400Y5120000D02*
Y5140000D01*
X7133504Y5282825D02*
X7153504D01*
X7143504Y5272825D02*
Y5292825D01*
X5117430Y2398108D02*
X5137430D01*
X5127430Y2388108D02*
Y2408108D01*
X8066493Y5442446D02*
X8086493D01*
X8076493Y5432446D02*
Y5452446D01*
X8081169Y5394648D02*
X8101169D01*
X8091169Y5384648D02*
Y5404648D01*
X8083555Y5088846D02*
X8103555D01*
X8093555Y5078846D02*
Y5098846D01*
X7207400Y4525000D02*
X7227400D01*
X7217400Y4515000D02*
Y4535000D01*
X6786322Y4746037D02*
X6806322D01*
X6796322Y4736037D02*
Y4756037D01*
X6991688Y4325269D02*
X7011688D01*
X7001688Y4315269D02*
Y4335269D01*
X6719627Y4410935D02*
X6739627D01*
X6729627Y4400935D02*
Y4420935D01*
X7250539Y5058678D02*
X7270539D01*
X7260539Y5048678D02*
Y5068678D01*
X7393056Y5099404D02*
X7413056D01*
X7403056Y5089404D02*
Y5109404D01*
X7162400Y5224024D02*
X7182400D01*
X7172400Y5214024D02*
Y5234024D01*
X7216631Y4790014D02*
X7236631D01*
X7226631Y4780014D02*
Y4800014D01*
X6804071Y4949987D02*
X6824071D01*
X6814071Y4939987D02*
Y4959987D01*
X7234827Y4638596D02*
X7254827D01*
X7244827Y4628596D02*
Y4648596D01*
X6660710Y5147500D02*
X6680710D01*
X6670710Y5137500D02*
Y5157500D01*
X6681150Y4972500D02*
X6701150D01*
X6691150Y4962500D02*
Y4982500D01*
X5917303Y5135789D02*
X5937303D01*
X5927303Y5125789D02*
Y5145789D01*
X6288125Y5094467D02*
X6308125D01*
X6298125Y5084467D02*
Y5104467D01*
X6191019Y4585892D02*
X6211019D01*
X6201019Y4575892D02*
Y4595892D01*
X6496625Y5358044D02*
X6516625D01*
X6506625Y5348044D02*
Y5368044D01*
X6760889Y5034141D02*
X6780889D01*
X6770889Y5024141D02*
Y5044141D01*
X6810826Y5082159D02*
X6830826D01*
X6820826Y5072159D02*
Y5092159D01*
X6746915Y4941800D02*
X6766915D01*
X6756915Y4931800D02*
Y4951800D01*
X6263201Y4979282D02*
X6283201D01*
X6273201Y4969282D02*
Y4989282D01*
X6261832Y4928233D02*
X6281832D01*
X6271832Y4918233D02*
Y4938233D01*
X6261552Y4878234D02*
X6281552D01*
X6271552Y4868234D02*
Y4888234D01*
X6265051Y4820726D02*
X6285051D01*
X6275051Y4810726D02*
Y4830726D01*
X6262768Y4579410D02*
X6282768D01*
X6272768Y4569410D02*
Y4589410D01*
X6676582Y4826477D02*
X6696581D01*
X6686581Y4816477D02*
Y4836477D01*
X7220145Y4949908D02*
X7240145D01*
X7230145Y4939908D02*
Y4959908D01*
X7217509Y4847507D02*
X7237509D01*
X7227509Y4837507D02*
Y4857507D01*
X7261144Y4682242D02*
X7281144D01*
X7271144Y4672242D02*
Y4692242D01*
X6675313Y4878659D02*
X6695313D01*
X6685313Y4868659D02*
Y4888659D01*
X6778829Y4655646D02*
X6798829D01*
X6788829Y4645646D02*
Y4665645D01*
X6733931Y4804879D02*
X6753931D01*
X6743931Y4794879D02*
Y4814879D01*
X6729900Y4632472D02*
X6749900D01*
X6739900Y4622472D02*
Y4642472D01*
X6249472Y4510077D02*
X6269472D01*
X6259472Y4500077D02*
Y4520077D01*
X6252312Y4458244D02*
X6272312D01*
X6262312Y4448244D02*
Y4468244D01*
X6297515Y4380763D02*
X6317515D01*
X6307515Y4370763D02*
Y4390763D01*
X6722792Y4479013D02*
X6742792D01*
X6732792Y4469013D02*
Y4489013D01*
X5182984Y2184630D02*
X5202984D01*
X5192984Y2174630D02*
Y2194630D01*
X5206395Y2030168D02*
X5226395D01*
X5216395Y2020168D02*
Y2040168D01*
X5206407Y1980169D02*
X5226407D01*
X5216407Y1970169D02*
Y1990168D01*
X5414659Y1972754D02*
X5434659D01*
X5424659Y1962754D02*
Y1982754D01*
X5408709Y2139368D02*
X5428709D01*
X5418709Y2129368D02*
Y2149368D01*
X5365539Y2097360D02*
X5385539D01*
X5375539Y2087360D02*
Y2107360D01*
X5147476Y2241599D02*
X5167476D01*
X5157476Y2231599D02*
Y2251599D01*
X6363386Y2111819D02*
X6383386D01*
X6373386Y2101819D02*
Y2121819D01*
X6230748Y2443955D02*
X6250747D01*
X6240747Y2433956D02*
Y2453955D01*
X6215077Y3267500D02*
X6235077D01*
X6225077Y3257500D02*
Y3277500D01*
X6201718Y3219318D02*
X6221718D01*
X6211718Y3209318D02*
Y3229318D01*
X6211716Y1830684D02*
X6231716D01*
X6221716Y1820684D02*
Y1840684D01*
X6199498Y2500277D02*
X6219498D01*
X6209498Y2490277D02*
Y2510277D01*
X6417240Y2440914D02*
X6437240D01*
X6427240Y2430914D02*
Y2450914D01*
X6391412Y2363380D02*
X6411412D01*
X6401412Y2353380D02*
Y2373380D01*
X6212400Y2200000D02*
X6232400D01*
X6222400Y2190000D02*
Y2210000D01*
X6230475Y1772333D02*
X6250475D01*
X6240475Y1762333D02*
Y1782333D01*
X6232626Y1938720D02*
X6252626D01*
X6242626Y1928720D02*
Y1948720D01*
X6300369Y2060192D02*
X6320369D01*
X6310369Y2050192D02*
Y2070192D01*
X6212400Y2270000D02*
X6232400D01*
X6222400Y2260000D02*
Y2280000D01*
X6212400Y2660000D02*
X6232400D01*
X6222400Y2650000D02*
Y2670000D01*
X5958916Y2719997D02*
X5978916D01*
X5968916Y2709997D02*
Y2729997D01*
X5964232Y2666353D02*
X5984232D01*
X5974232Y2656353D02*
Y2676353D01*
X5974129Y2889729D02*
X5994129D01*
X5984129Y2879729D02*
Y2899729D01*
X5954717Y2936769D02*
X5974717D01*
X5964717Y2926769D02*
Y2946769D01*
X6162400Y2820000D02*
X6182400D01*
X6172400Y2810000D02*
Y2830000D01*
X5952041Y3160608D02*
X5972041D01*
X5962041Y3150608D02*
Y3170608D01*
X5972388Y3289995D02*
X5992388D01*
X5982388Y3279995D02*
Y3299995D01*
X5962400Y3100000D02*
X5982400D01*
X5972400Y3090000D02*
Y3110000D01*
X6212400Y3090000D02*
X6232400D01*
X6222400Y3080000D02*
Y3100000D01*
X6184012Y3039769D02*
X6204011D01*
X6194011Y3029769D02*
Y3049769D01*
X7296761Y1770318D02*
X7316761D01*
X7306761Y1760318D02*
Y1780318D01*
X7505586Y1627402D02*
X7525586D01*
X7515586Y1617402D02*
Y1637402D01*
X7315610Y1715847D02*
X7335610D01*
X7325610Y1705847D02*
Y1725847D01*
X7582439Y1884245D02*
X7602439D01*
X7592439Y1874245D02*
Y1894245D01*
X7327170Y1873355D02*
X7347170D01*
X7337170Y1863355D02*
Y1883355D01*
X7309573Y1823379D02*
X7329573D01*
X7319573Y1813379D02*
Y1833379D01*
X7240173Y1881230D02*
X7260173D01*
X7250173Y1871230D02*
Y1891230D01*
X7552400Y1830000D02*
X7572400D01*
X7562400Y1820000D02*
Y1840000D01*
X7522400Y2030000D02*
X7542400D01*
X7532400Y2020000D02*
Y2040000D01*
X7522400Y2080000D02*
X7542400D01*
X7532400Y2070000D02*
Y2090000D01*
X7283021Y2435631D02*
X7303021D01*
X7293021Y2425631D02*
Y2445631D01*
X7331173Y2264965D02*
X7351173D01*
X7341173Y2254965D02*
Y2274965D01*
X7257418Y2213176D02*
X7277417D01*
X7267418Y2203176D02*
Y2223176D01*
X7521961Y2200332D02*
X7541961D01*
X7531961Y2190332D02*
Y2210332D01*
X7522961Y2250322D02*
X7542961D01*
X7532961Y2240322D02*
Y2260322D01*
X7312400Y2080000D02*
X7332400D01*
X7322400Y2070000D02*
Y2090000D01*
X7311512Y3191143D02*
X7331512D01*
X7321512Y3181143D02*
Y3201143D01*
X7331339Y3238790D02*
X7351339D01*
X7341339Y3228790D02*
Y3248790D01*
X7304763Y3054452D02*
X7324763D01*
X7314763Y3044452D02*
Y3064452D01*
X7302695Y3003702D02*
X7322695D01*
X7312695Y2993702D02*
Y3013702D01*
X7112400Y3110000D02*
X7132400D01*
X7122400Y3100000D02*
Y3120000D01*
X7112400Y3050000D02*
X7132400D01*
X7122400Y3040000D02*
Y3060000D01*
X7122386Y3519995D02*
X7142386D01*
X7132386Y3509995D02*
Y3529995D01*
X7117499Y3582718D02*
X7137499D01*
X7127499Y3572718D02*
Y3592718D01*
X7327407Y3518799D02*
X7347407D01*
X7337407Y3508799D02*
Y3528799D01*
X7328322Y3466946D02*
X7348322D01*
X7338322Y3456946D02*
Y3476946D01*
X7055475Y3593718D02*
X7075475D01*
X7065475Y3583718D02*
Y3603718D01*
X7318331Y3654781D02*
X7338331D01*
X7328331Y3644781D02*
Y3664781D01*
X7325004Y3712784D02*
X7345004D01*
X7335004Y3702784D02*
Y3722784D01*
X7118654Y3770894D02*
X7138653D01*
X7128654Y3760894D02*
Y3780894D01*
X7112400Y3720000D02*
X7132400D01*
X7122400Y3710000D02*
Y3730000D01*
X7524151Y4676000D02*
X7544151D01*
X7534151Y4666000D02*
Y4686000D01*
X7082400Y4325000D02*
X7102400D01*
X7092400Y4315000D02*
Y4335000D01*
X8141195Y3781968D02*
X8161195D01*
X8151195Y3771968D02*
Y3791968D01*
X6673630Y4169430D02*
X6693629D01*
X6683630Y4159430D02*
Y4179430D01*
X5473265Y4493580D02*
X5493265D01*
X5483265Y4483580D02*
Y4503580D01*
X5785335Y3959168D02*
X5805335D01*
X5795335Y3949168D02*
Y3969168D01*
X2253067Y2287523D02*
X2273067D01*
X2263067Y2277524D02*
Y2297523D01*
X8441585Y3737375D02*
X8461585D01*
X8451585Y3727375D02*
Y3747375D01*
X8424900Y3559739D02*
X8444900D01*
X8434900Y3549739D02*
Y3569739D01*
X5512365Y5382866D02*
X5532365D01*
X5522365Y5372866D02*
Y5392866D01*
X5311590Y4644282D02*
X5331590D01*
X5321590Y4634282D02*
Y4654282D01*
X5415587Y4694652D02*
X5435587D01*
X5425587Y4684652D02*
Y4704652D01*
X6781861Y2373397D02*
X6801861D01*
X6791861Y2363397D02*
Y2383397D01*
X4471895Y2619981D02*
X4491894D01*
X4481895Y2609981D02*
Y2629981D01*
X4382400Y3670000D02*
X4402400D01*
X4392400Y3660000D02*
Y3680000D01*
X2222400Y4210000D02*
X2242400D01*
X2232400Y4200000D02*
Y4220000D01*
X8208772Y1684779D02*
X8228772D01*
X8218772Y1674779D02*
Y1694779D01*
X3822400Y3250000D02*
X3842400D01*
X3832400Y3240000D02*
Y3260000D01*
X3667491Y3117655D02*
X3687490D01*
X3677490Y3107655D02*
Y3127655D01*
X3880848Y2334383D02*
X3900848D01*
X3890848Y2324383D02*
Y2344383D01*
X3981813Y2779007D02*
X4001813D01*
X3991813Y2769007D02*
Y2789007D01*
X4963911Y5826774D02*
X4983911D01*
X4973911Y5816774D02*
Y5836774D01*
X4603607Y5827546D02*
X4623607D01*
X4613607Y5817546D02*
Y5837546D01*
X5841454Y5625903D02*
X5861454D01*
X5851454Y5615903D02*
Y5635903D01*
X6456357Y2223066D02*
X6476357D01*
X6466357Y2213066D02*
Y2233066D01*
X3312400Y4630000D02*
X3332400D01*
X3322400Y4620000D02*
Y4640000D01*
X2872400Y3200000D02*
X2892400D01*
X2882400Y3190000D02*
Y3210000D01*
X2872400Y3430000D02*
X2892400D01*
X2882400Y3420000D02*
Y3440000D01*
X2282400Y2930000D02*
X2302400D01*
X2292400Y2920000D02*
Y2940000D01*
X2282400Y2700000D02*
X2302400D01*
X2292400Y2690000D02*
Y2710000D01*
X3426638Y2637718D02*
X3446638D01*
X3436638Y2627718D02*
Y2647718D01*
X6854059Y3564787D02*
X6874059D01*
X6864059Y3554787D02*
Y3574787D01*
X6447114Y1923815D02*
X6467114D01*
X6457114Y1913815D02*
Y1933815D01*
X5456681Y3736198D02*
X5476681D01*
X5466681Y3726198D02*
Y3746198D01*
X5118526Y3465041D02*
X5138526D01*
X5128526Y3455041D02*
Y3475041D01*
X4179054Y2298722D02*
X4199054D01*
X4189054Y2288722D02*
Y2308722D01*
X4092400Y2480000D02*
X4112400D01*
X4102400Y2470000D02*
Y2490000D01*
Y2540000D02*
X4122400D01*
X4112400Y2530000D02*
Y2550000D01*
X4202400Y3220000D02*
X4222400D01*
X4212400Y3210000D02*
Y3230000D01*
X5263899Y4954002D02*
X5283899D01*
X5273899Y4944002D02*
Y4964002D01*
X5273482Y3210489D02*
X5293482D01*
X5283482Y3200489D02*
Y3220489D01*
X5273888Y2770850D02*
X5293888D01*
X5283888Y2760850D02*
Y2780850D01*
X5267709Y3711469D02*
X5287709D01*
X5277709Y3701469D02*
Y3721469D01*
X4237202Y3633202D02*
X4257202D01*
X4247202Y3623202D02*
Y3643202D01*
X5032400Y2700000D02*
X5052400D01*
X5042400Y2690000D02*
Y2710000D01*
X5336122Y2916669D02*
X5356122D01*
X5346122Y2906669D02*
Y2926669D01*
X5505161Y2943620D02*
X5525161D01*
X5515161Y2933620D02*
Y2953620D01*
X4622400Y4410000D02*
X4642400D01*
X4632400Y4400000D02*
Y4420000D01*
X4722400Y4450000D02*
X4742400D01*
X4732400Y4440000D02*
Y4460000D01*
X4832400Y4240000D02*
X4852400D01*
X4842400Y4230000D02*
Y4250000D01*
X4839187Y1956458D02*
X4859187D01*
X4849187Y1946458D02*
Y1966458D01*
X4316497Y4326817D02*
X4336497D01*
X4326497Y4316817D02*
Y4336817D01*
X3011876Y5624019D02*
X3031876D01*
X3021876Y5614019D02*
Y5634019D01*
X2800166Y5177072D02*
X2820166D01*
X2810166Y5167072D02*
Y5187072D01*
X2982400Y5560000D02*
X3002400D01*
X2992400Y5550000D02*
Y5570000D01*
X3132394Y4139994D02*
X3152393D01*
X3142394Y4129994D02*
Y4149994D01*
X2852400Y4170001D02*
X2872400D01*
X2862400Y4160001D02*
Y4180001D01*
X2810764Y5609819D02*
X2830764D01*
X2820764Y5599819D02*
Y5619819D01*
X3264900Y3550000D02*
X3284900D01*
X3274900Y3540000D02*
Y3560000D01*
X3961977Y4458928D02*
X3981977D01*
X3971977Y4448928D02*
Y4468928D01*
X3372275Y4182500D02*
X3392275D01*
X3382275Y4172500D02*
Y4192500D01*
X3962399Y3717500D02*
X3982399D01*
X3972399Y3707500D02*
Y3727500D01*
X3392400Y3350000D02*
X3412400D01*
X3402400Y3340000D02*
Y3360000D01*
X2482679Y3037934D02*
X2502679D01*
X2492679Y3027934D02*
Y3047934D01*
X3326260Y3169371D02*
X3346260D01*
X3336260Y3159371D02*
Y3179371D01*
X3920513Y2964887D02*
X3940513D01*
X3930513Y2954887D02*
Y2974887D01*
X3111978Y2866066D02*
X3131978D01*
X3121978Y2856066D02*
Y2876066D01*
X3772747Y2212274D02*
X3792747D01*
X3782747Y2202274D02*
Y2222274D01*
X3262400Y2030000D02*
X3282400D01*
X3272400Y2020000D02*
Y2040000D01*
X2594476Y4263632D02*
X2614476D01*
X2604476Y4253632D02*
Y4273632D01*
X7289679Y2163852D02*
X7309679D01*
X7299679Y2153852D02*
Y2173852D01*
X8097947Y5147272D02*
X8117947D01*
X8107947Y5137272D02*
Y5157272D01*
X8068410Y4966066D02*
X8088410D01*
X8078410Y4956066D02*
Y4976066D01*
X8077623Y5024776D02*
X8097623D01*
X8087623Y5014776D02*
Y5034776D01*
X6834754Y2377731D02*
X6854754D01*
X6844754Y2367731D02*
Y2387731D01*
X7652400Y2400000D02*
X7672400D01*
X7662400Y2390000D02*
Y2410000D01*
X6798287Y2458315D02*
X6818287D01*
X6808287Y2448315D02*
Y2468315D01*
X7676698Y2845702D02*
X7696698D01*
X7686698Y2835702D02*
Y2855702D01*
X6665148Y3418006D02*
X6685148D01*
X6675148Y3408006D02*
Y3428006D01*
X6210442Y2867057D02*
X6230442D01*
X6220442Y2857057D02*
Y2877057D01*
X6422767Y2920716D02*
X6442767D01*
X6432767Y2910716D02*
Y2930716D01*
X6264272Y2995772D02*
X6284272D01*
X6274272Y2985772D02*
Y3005771D01*
X6362400Y3550000D02*
X6382400D01*
X6372400Y3540000D02*
Y3560000D01*
X6172400Y2610000D02*
X6192400D01*
X6182400Y2600000D02*
Y2620000D01*
X6422400Y1860000D02*
X6442400D01*
X6432400Y1850000D02*
Y1870000D01*
X6540493Y1828380D02*
X6560493D01*
X6550493Y1818380D02*
Y1838380D01*
X5282400Y1880000D02*
X5302400D01*
X5292400Y1870000D02*
Y1890000D01*
X6342271Y1611394D02*
X6362271D01*
X6352271Y1601394D02*
Y1621394D01*
X6854010Y1601044D02*
X6874010D01*
X6864010Y1591044D02*
Y1611044D01*
X7031478Y1624207D02*
X7051478D01*
X7041478Y1614207D02*
Y1634207D01*
X8095937Y3606359D02*
X8115937D01*
X8105937Y3596359D02*
Y3616359D01*
X7989949Y4006671D02*
X8009949D01*
X7999949Y3996671D02*
Y4016671D01*
X7590162Y1736535D02*
X7610162D01*
X7600162Y1726535D02*
Y1746535D01*
X3132097Y2115924D02*
X3152097D01*
X3142097Y2105924D02*
Y2125924D01*
X6812400Y3947500D02*
X6832400D01*
X6822400Y3937500D02*
Y3957500D01*
X7725318Y3962686D02*
X7745318D01*
X7735318Y3952686D02*
Y3972686D01*
X8053822Y3878978D02*
X8073822D01*
X8063822Y3868978D02*
Y3888977D01*
X8053630Y3945003D02*
X8073630D01*
X8063630Y3935003D02*
Y3955003D01*
X7722178Y3631825D02*
X7742178D01*
X7732178Y3621825D02*
Y3641825D01*
X7752400Y2920000D02*
X7772400D01*
X7762400Y2910000D02*
Y2930000D01*
X7522400Y3280000D02*
X7542400D01*
X7532400Y3270000D02*
Y3290000D01*
X7522400Y3445000D02*
X7542400D01*
X7532400Y3435000D02*
Y3455000D01*
X7401513Y3444793D02*
X7421512D01*
X7411512Y3434793D02*
Y3454793D01*
X8003439Y3610196D02*
X8023439D01*
X8013439Y3600196D02*
Y3620196D01*
X7942400Y3450000D02*
X7962400D01*
X7952400Y3440000D02*
Y3460000D01*
X8002400Y3510000D02*
X8022400D01*
X8012400Y3500000D02*
Y3520000D01*
X8212807Y3047135D02*
X8232807D01*
X8222807Y3037135D02*
Y3057135D01*
X8146477Y2960350D02*
X8166477D01*
X8156477Y2950350D02*
Y2970350D01*
X8123391Y2910622D02*
X8143391D01*
X8133391Y2900622D02*
Y2920622D01*
X8216344Y2938175D02*
X8236344D01*
X8226344Y2928175D02*
Y2948175D01*
X8213306Y2869523D02*
X8233306D01*
X8223306Y2859523D02*
Y2879523D01*
X4372400Y5500000D02*
X4392400D01*
X4382400Y5490000D02*
Y5510000D01*
X4973747Y5503003D02*
X4993747D01*
X4983747Y5493003D02*
Y5513003D01*
X4623747Y5503003D02*
X4643747D01*
X4633747Y5493003D02*
Y5513003D01*
X4793747Y3563003D02*
X4813747D01*
X4803747Y3553003D02*
Y3573003D01*
X6603897Y1875833D02*
X6623897D01*
X6613897Y1865833D02*
Y1885833D01*
X5501245Y2664897D02*
X5521245D01*
X5511245Y2654897D02*
Y2674897D01*
X5464489Y2702985D02*
X5484489D01*
X5474489Y2692985D02*
Y2712985D01*
X5513628Y3324889D02*
X5533627D01*
X5523628Y3314889D02*
Y3334889D01*
X5697660Y3235833D02*
X5717660D01*
X5707660Y3225833D02*
Y3245833D01*
X5492400Y3000000D02*
X5512400D01*
X5502400Y2990000D02*
Y3010000D01*
X5491686Y3054045D02*
X5511686D01*
X5501686Y3044045D02*
Y3064045D01*
X5854766Y5273059D02*
X5874766D01*
X5864766Y5263059D02*
Y5283059D01*
X8055085Y5642287D02*
X8075085D01*
X8065085Y5632287D02*
Y5652287D01*
X5862951Y4539929D02*
X5882951D01*
X5872951Y4529929D02*
Y4549929D01*
X5832445Y3706612D02*
X5852445D01*
X5842445Y3696612D02*
Y3716612D01*
X6446196Y3813468D02*
X6466196D01*
X6456196Y3803468D02*
Y3823468D01*
X7058189Y3899534D02*
X7078189D01*
X7068189Y3889535D02*
Y3909534D01*
X6666772Y3714635D02*
X6686771D01*
X6676772Y3704635D02*
Y3724635D01*
X6252400Y4180000D02*
X6272400D01*
X6262400Y4170000D02*
Y4190000D01*
X6821495Y5828738D02*
X6841495D01*
X6831495Y5818738D02*
Y5838738D01*
X7201664Y5827195D02*
X7221664D01*
X7211664Y5817195D02*
Y5837195D01*
X7722400Y5630000D02*
X7742400D01*
X7732400Y5620000D02*
Y5640000D01*
X6660056Y2992762D02*
X6680056D01*
X6670056Y2982762D02*
Y3002762D01*
X6552400Y3280001D02*
X6572400D01*
X6562400Y3270001D02*
Y3290001D01*
X5858760Y2060716D02*
X5878760D01*
X5868760Y2050716D02*
Y2070716D01*
X5780997Y1763530D02*
X5800997D01*
X5790997Y1753530D02*
Y1773530D01*
X7343572Y2554359D02*
X7363572D01*
X7353572Y2544359D02*
Y2564359D01*
X6650695Y2595644D02*
X6670695D01*
X6660695Y2585644D02*
Y2605644D01*
X7236607Y2548600D02*
X7256607D01*
X7246607Y2538600D02*
Y2558600D01*
X6843383Y1993664D02*
X6863383D01*
X6853383Y1983664D02*
Y2003664D01*
X6715836Y2057734D02*
X6735836D01*
X6725836Y2047734D02*
Y2067733D01*
X7692400Y2050000D02*
X7712400D01*
X7702400Y2040000D02*
Y2060000D01*
X5766731Y2178451D02*
X5786731D01*
X5776731Y2168451D02*
Y2188451D01*
X5783106Y2229467D02*
X5803106D01*
X5793106Y2219467D02*
Y2239467D01*
X5752874Y2275444D02*
X5772874D01*
X5762874Y2265444D02*
Y2285444D01*
X5734753Y2446317D02*
X5754753D01*
X5744753Y2436317D02*
Y2456317D01*
X5592400Y2290000D02*
X5612400D01*
X5602400Y2280000D02*
Y2300000D01*
X4696140Y2240134D02*
X4716140D01*
X4706140Y2230134D02*
Y2250134D01*
X4694817Y2140418D02*
X4714817D01*
X4704817Y2130418D02*
Y2150418D01*
X4742896Y2065889D02*
X4762896D01*
X4752896Y2055889D02*
Y2075889D01*
X4789230Y1958541D02*
X4809230D01*
X4799230Y1948541D02*
Y1968541D01*
X5179934Y1757266D02*
X5199934D01*
X5189934Y1747266D02*
Y1767266D01*
X3388075Y2155029D02*
X3408075D01*
X3398075Y2145029D02*
Y2165029D01*
X2552932Y1600491D02*
X2572932D01*
X2562932Y1590491D02*
Y1610491D01*
X6543072Y3714062D02*
X6563072D01*
X6553072Y3704062D02*
Y3724062D01*
X4732400Y2460000D02*
X4752400D01*
X4742400Y2450000D02*
Y2470000D01*
X5340570Y2578802D02*
X5360570D01*
X5350570Y2568802D02*
Y2588802D01*
X5844625Y4738184D02*
X5864625D01*
X5854625Y4728184D02*
Y4748184D01*
X7922400Y4260000D02*
X7942400D01*
X7932400Y4250000D02*
Y4270000D01*
X7722400Y1530000D02*
X7742400D01*
X7732400Y1520000D02*
Y1540000D01*
X7014346Y2005659D02*
X7034346D01*
X7024346Y1995659D02*
Y2015659D01*
X4652400Y2380000D02*
X4672400D01*
X4662400Y2370000D02*
Y2390000D01*
X3215713Y1718731D02*
X3235713D01*
X3225713Y1708731D02*
Y1728731D01*
X4191900Y1959500D02*
X4211900D01*
X4201900Y1949500D02*
Y1969500D01*
X3773747Y2308653D02*
X3793747D01*
X3783747Y2298653D02*
Y2318653D01*
X3132739Y1800579D02*
X3152739D01*
X3142739Y1790579D02*
Y1810579D01*
X3342400Y2050000D02*
X3362400D01*
X3352400Y2040000D02*
Y2060000D01*
X3071247Y1941388D02*
X3091247D01*
X3081247Y1931388D02*
Y1951388D01*
X2206969Y1850000D02*
X2236969D01*
X2221969Y1835000D02*
Y1865000D01*
X1999480Y2183054D02*
X2019480D01*
X2009480Y2173054D02*
Y2193054D01*
X1832400Y2817392D02*
X1852400D01*
X1842400Y2807392D02*
Y2827392D01*
X5472122Y2768096D02*
X5492122D01*
X5482122Y2758096D02*
Y2778096D01*
X5470332Y3191787D02*
X5490332D01*
X5480332Y3181787D02*
Y3201787D01*
X5719736Y1830870D02*
X5739736D01*
X5729736Y1820870D02*
Y1840870D01*
X5726727Y1935673D02*
X5746727D01*
X5736727Y1925673D02*
Y1945673D01*
X5727400Y2325000D02*
X5747399D01*
X5737399Y2315000D02*
Y2335000D01*
X5875146Y2790909D02*
X5895146D01*
X5885146Y2780909D02*
Y2800909D01*
X5875146Y3210001D02*
X5895146D01*
X5885146Y3200001D02*
Y3220001D01*
X6835899Y1795281D02*
X6855899D01*
X6845899Y1785281D02*
Y1805281D01*
X6622400Y3200000D02*
X6642400D01*
X6632400Y3190000D02*
Y3210000D01*
X6669900Y3566485D02*
X6689900D01*
X6679900Y3556485D02*
Y3576485D01*
X6622400Y3850000D02*
X6642400D01*
X6632400Y3840000D02*
Y3860000D01*
X6542400Y3640000D02*
X6562400D01*
X6552400Y3630000D02*
Y3650000D01*
X6554871Y3585249D02*
X6574871D01*
X6564871Y3575249D02*
Y3595249D01*
X7282400Y5700000D02*
X7302400D01*
X7292400Y5690000D02*
Y5710000D01*
X6785416Y5603016D02*
X6805416D01*
X6795416Y5593016D02*
Y5613016D01*
X5276061Y3315116D02*
X5296061D01*
X5286061Y3305116D02*
Y3325116D01*
X4994733Y3713076D02*
X5014733D01*
X5004733Y3703076D02*
Y3723076D01*
X2415968Y3919950D02*
X2435968D01*
X2425968Y3909950D02*
Y3929950D01*
X5687297Y3701733D02*
X5707297D01*
X5697297Y3691733D02*
Y3711733D01*
X6132400Y2290000D02*
X6152400D01*
X6142400Y2280000D02*
Y2300000D01*
X6132400Y1887379D02*
X6152400D01*
X6142400Y1877379D02*
Y1897379D01*
X5703696Y2867204D02*
X5723696D01*
X5713696Y2857204D02*
Y2877204D01*
X5961673Y2402302D02*
X5981673D01*
X5971673Y2392302D02*
Y2412302D01*
X5962400Y1990000D02*
X5982400D01*
X5972400Y1980000D02*
Y2000000D01*
X5467227Y3111606D02*
X5487227D01*
X5477227Y3101606D02*
Y3121606D01*
X5927400Y3930000D02*
X5957400D01*
X5942400Y3915000D02*
Y3945000D01*
X7019900Y2156486D02*
X7039900D01*
X7029900Y2146486D02*
Y2166486D01*
X7024758Y2507069D02*
X7044758D01*
X7034758Y2497069D02*
Y2517069D01*
X7026877Y1845000D02*
X7046877D01*
X7036877Y1835000D02*
Y1855000D01*
X6487400Y2340370D02*
X6507400D01*
X6497400Y2330370D02*
Y2350370D01*
X7012400Y3130000D02*
X7032400D01*
X7022400Y3120000D02*
Y3140000D01*
X6873324Y3869064D02*
X6893324D01*
X6883324Y3859064D02*
Y3879064D01*
X6842400Y3213213D02*
X6862400D01*
X6852400Y3203213D02*
Y3223213D01*
X8062400Y2660000D02*
X8082400D01*
X8072400Y2650000D02*
Y2670000D01*
X5476279Y2110165D02*
X5496279D01*
X5486279Y2100165D02*
Y2120165D01*
X7579900Y2050496D02*
X7599900D01*
X7589900Y2040496D02*
Y2060495D01*
X8222783Y4520454D02*
X8242783D01*
X8232783Y4510454D02*
Y4530454D01*
X4433039Y5052602D02*
X4453039D01*
X4443039Y5042602D02*
Y5062602D01*
X5452400Y3950000D02*
X5472400D01*
X5462400Y3940000D02*
Y3960000D01*
X5362400Y4100000D02*
X5382400D01*
X5372400Y4090000D02*
Y4110000D01*
X4512452Y4398326D02*
X4532452D01*
X4522452Y4388326D02*
Y4408326D01*
X5399872Y3810000D02*
X5419872D01*
X5409872Y3800000D02*
Y3820000D01*
X4772400Y4990000D02*
X4792400D01*
X4782400Y4980000D02*
Y5000000D01*
X4672400Y4989014D02*
X4692400D01*
X4682400Y4979014D02*
Y4999014D01*
X5367472Y4540833D02*
X5387472D01*
X5377472Y4530833D02*
Y4550833D01*
X4431161Y4037421D02*
X4451161D01*
X4441161Y4027421D02*
Y4047421D01*
X4271947Y4283233D02*
X4291947D01*
X4281947Y4273233D02*
Y4293233D01*
X4048270Y1718223D02*
X4068270D01*
X4058270Y1708223D02*
Y1728223D01*
X2422832Y1910944D02*
X2442832D01*
X2432832Y1900944D02*
Y1920944D01*
X3202400Y2470000D02*
X3222400D01*
X3212400Y2460000D02*
Y2480000D01*
X3212780Y2746653D02*
X3232780D01*
X3222780Y2736653D02*
Y2756653D01*
X2114223Y4817545D02*
X2134223D01*
X2124223Y4807545D02*
Y4827545D01*
X3041290Y4903603D02*
X3061290D01*
X3051290Y4893603D02*
Y4913603D01*
X3362400Y5100000D02*
X3382400D01*
X3372400Y5090000D02*
Y5110000D01*
X2249248Y3502839D02*
X2279248D01*
X2264248Y3487839D02*
Y3517839D01*
X3512400Y2930000D02*
X3532400D01*
X3522400Y2920000D02*
Y2940000D01*
X2890081Y2001305D02*
X2910081D01*
X2900081Y1991305D02*
Y2011305D01*
X5657222Y3913968D02*
X5687222D01*
X5672222Y3898968D02*
Y3928968D01*
X3906853Y4961484D02*
X3936853D01*
X3921853Y4946484D02*
Y4976484D01*
X5682400Y4060000D02*
X5702400D01*
X5692400Y4050000D02*
Y4070000D01*
X5042400Y4600000D02*
X5062400D01*
X5052400Y4590000D02*
Y4610000D01*
X3906963Y5047198D02*
X3936963D01*
X3921963Y5032198D02*
Y5062198D01*
X4482400Y5180000D02*
X4502400D01*
X4492400Y5170000D02*
Y5190000D01*
X4871971Y4840468D02*
X4891971D01*
X4881971Y4830468D02*
Y4850468D01*
X7422400Y5480000D02*
X7442400D01*
X7432400Y5470000D02*
Y5490000D01*
X6838172Y2978753D02*
X6858172D01*
X6848172Y2968753D02*
Y2988753D01*
X1683233Y2870415D02*
X1703233D01*
X1693233Y2860415D02*
Y2880415D01*
X6721531Y5627216D02*
X6741531D01*
X6731531Y5617216D02*
Y5637216D01*
X6402400Y5670000D02*
X6422400D01*
X6412400Y5660000D02*
Y5680000D01*
X6282400Y5590000D02*
X6302400D01*
X6292400Y5580000D02*
Y5600000D01*
X6270570Y5489057D02*
X6290570D01*
X6280570Y5479057D02*
Y5499057D01*
X3803852Y1832573D02*
X3823852D01*
X3813852Y1822573D02*
Y1842573D01*
X6565053Y5336911D02*
X6585053D01*
X6575053Y5326911D02*
Y5346911D01*
X7052067Y5373121D02*
X7072067D01*
X7062067Y5363121D02*
Y5383121D01*
X6919900Y5490000D02*
X6939900D01*
X6929900Y5480000D02*
Y5500000D01*
X7072400Y5480000D02*
X7092400D01*
X7082400Y5470000D02*
Y5490000D01*
X5840482Y5340141D02*
X5860482D01*
X5850482Y5330141D02*
Y5350141D01*
X5622400Y5510000D02*
X5642400D01*
X5632400Y5500000D02*
Y5520000D01*
X5297318Y5327451D02*
X5317318D01*
X5307318Y5317451D02*
Y5337451D01*
X4952400Y4960000D02*
X4972400D01*
X4962400Y4950000D02*
Y4970000D01*
X6717095Y5195084D02*
X6737095D01*
X6727095Y5185084D02*
Y5205084D01*
X4232400Y5721722D02*
X4252400D01*
X4242400Y5711722D02*
Y5731722D01*
X5781391Y5626532D02*
X5801391D01*
X5791391Y5616532D02*
Y5636532D01*
X6032400Y5590000D02*
X6052400D01*
X6042400Y5580000D02*
Y5600000D01*
X7083190Y5721611D02*
X7103190D01*
X7093190Y5711611D02*
Y5731611D01*
X7412400Y5580000D02*
X7432400D01*
X7422400Y5570000D02*
Y5590000D01*
X5422400Y5630000D02*
X5442400D01*
X5432400Y5620000D02*
Y5640000D01*
X5372263Y5632256D02*
X5392263D01*
X5382263Y5622256D02*
Y5642256D01*
X5013808Y5549718D02*
X5033808D01*
X5023808Y5539718D02*
Y5559718D01*
X5082339Y5555019D02*
X5102339D01*
X5092339Y5545019D02*
Y5565019D01*
X5780957Y1814952D02*
X5800957D01*
X5790957Y1804952D02*
Y1824952D01*
X3992400Y5570000D02*
X4012400D01*
X4002400Y5560000D02*
Y5580000D01*
X6552400Y5840000D02*
X6572400D01*
X6562400Y5830000D02*
Y5850000D01*
X5112400D02*
X5132400D01*
X5122400Y5840000D02*
Y5860000D01*
X4262400Y5850000D02*
X4282400D01*
X4272400Y5840000D02*
Y5860000D01*
X3492400Y5550000D02*
X3512400D01*
X3502400Y5540000D02*
Y5560000D01*
X3894608Y5695489D02*
X3914608D01*
X3904608Y5685489D02*
Y5705489D01*
X3882400Y5530000D02*
X3902400D01*
X3892400Y5520000D02*
Y5540000D01*
X5586089Y5890135D02*
X5606089D01*
X5596089Y5880135D02*
Y5900135D01*
X6908170Y5389633D02*
X6928170D01*
X6918170Y5379633D02*
Y5399633D01*
X6223400Y5624083D02*
X6243400D01*
X6233400Y5614083D02*
Y5634083D01*
X3955901Y1779788D02*
X3975901D01*
X3965901Y1769788D02*
Y1789788D01*
X2593926Y5827756D02*
X2613926D01*
X2603926Y5817756D02*
Y5837756D01*
X2694315Y5830749D02*
X2714315D01*
X2704315Y5820749D02*
Y5840749D01*
X1829183Y2021469D02*
X1849182D01*
X1839183Y2011469D02*
Y2031469D01*
X1744500Y2474775D02*
X1764500D01*
X1754500Y2464775D02*
Y2484775D01*
X3021332Y1742512D02*
X3041332D01*
X3031332Y1732512D02*
Y1752512D01*
X3707670Y2182957D02*
X3727670D01*
X3717670Y2172957D02*
Y2192957D01*
X3758316Y2140456D02*
X3778316D01*
X3768316Y2130456D02*
Y2150456D01*
X4152325Y1716551D02*
X4172325D01*
X4162325Y1706551D02*
Y1726551D01*
X6625771Y3114523D02*
X6645771D01*
X6635771Y3104523D02*
Y3124523D01*
X6631794Y3034384D02*
X6651794D01*
X6641794Y3024384D02*
Y3044384D01*
X4383201Y4693668D02*
X4403201D01*
X4393201Y4683668D02*
Y4703668D01*
X4383039Y4765770D02*
X4403039D01*
X4393039Y4755770D02*
Y4775770D01*
X4585998Y3973046D02*
X4605998D01*
X4595998Y3963046D02*
Y3983046D01*
X4581936Y3907273D02*
X4601936D01*
X4591936Y3897273D02*
Y3917273D01*
X4434662Y4101914D02*
X4454662D01*
X4444662Y4091914D02*
Y4111914D01*
X4972400Y1830000D02*
X4992400D01*
X4982400Y1820000D02*
Y1840000D01*
X5394900Y1780000D02*
X5414900D01*
X5404900Y1770000D02*
Y1790000D01*
X5284900Y1780000D02*
X5304900D01*
X5294900Y1770000D02*
Y1790000D01*
X5051337Y1821950D02*
X5071337D01*
X5061337Y1811950D02*
Y1831950D01*
X4302400Y4690000D02*
X4322400D01*
X4312400Y4680000D02*
Y4700000D01*
X5146330Y1624879D02*
X5166330D01*
X5156330Y1614879D02*
Y1634879D01*
X8052400Y5710000D02*
X8072400D01*
X8062400Y5700000D02*
Y5720000D01*
X8135573Y4560225D02*
X8155573D01*
X8145573Y4550225D02*
Y4570225D01*
X8135146Y4497006D02*
X8155146D01*
X8145146Y4487006D02*
Y4507006D01*
X8215106Y4417398D02*
X8235106D01*
X8225106Y4407398D02*
Y4427398D01*
X8211190Y4573566D02*
X8231190D01*
X8221190Y4563566D02*
Y4583566D01*
X8109478Y1837239D02*
X8129478D01*
X8119478Y1827239D02*
Y1847239D01*
X8151647Y1752676D02*
X8171647D01*
X8161647Y1742676D02*
Y1762676D01*
X8116726Y1924809D02*
X8136726D01*
X8126726Y1914809D02*
Y1934809D01*
X8127341Y2004912D02*
X8147341D01*
X8137341Y1994912D02*
Y2014912D01*
X8212400Y1750000D02*
X8232400D01*
X8222400Y1740000D02*
Y1760000D01*
X8059143Y1839696D02*
X8079143D01*
X8069143Y1829696D02*
Y1849696D01*
X8211521Y5628445D02*
X8231520D01*
X8221521Y5618445D02*
Y5638445D01*
X8062497Y2000173D02*
X8082497D01*
X8072497Y1990173D02*
Y2010173D01*
X8208735Y2164376D02*
X8228735D01*
X8218735Y2154376D02*
Y2174376D01*
X8212232Y2564061D02*
X8232232D01*
X8222232Y2554061D02*
Y2574061D01*
X8208276Y2646753D02*
X8228276D01*
X8218276Y2636753D02*
Y2656753D01*
X8211573Y2805640D02*
X8231573D01*
X8221573Y2795640D02*
Y2815640D01*
X8211931Y4655497D02*
X8231931D01*
X8221931Y4645497D02*
Y4665497D01*
X8211931Y4895251D02*
X8231931D01*
X8221931Y4885251D02*
Y4905251D01*
X8212400Y5775000D02*
X8232400D01*
X8222400Y5765000D02*
Y5785000D01*
X8209258Y5295000D02*
X8229258D01*
X8219258Y5285000D02*
Y5305000D01*
X8211050Y5535000D02*
X8231050D01*
X8221050Y5525000D02*
Y5545000D01*
X8060631Y2717282D02*
X8080631D01*
X8070631Y2707282D02*
Y2727282D01*
X8210907Y2721834D02*
X8230907D01*
X8220907Y2711834D02*
Y2731834D01*
X8063360Y2472841D02*
X8083360D01*
X8073360Y2462841D02*
Y2482841D01*
X8062400Y2420000D02*
X8082400D01*
X8072400Y2410000D02*
Y2430000D01*
X8063535Y2312606D02*
X8083535D01*
X8073535Y2302606D02*
Y2322606D01*
X8057472Y2261180D02*
X8077472D01*
X8067472Y2251180D02*
Y2271180D01*
X8207741Y5680295D02*
X8227741D01*
X8217741Y5670295D02*
Y5690295D01*
X8206228Y5389101D02*
X8226228D01*
X8216228Y5379101D02*
Y5399101D01*
X8205473Y5441828D02*
X8225473D01*
X8215473Y5431828D02*
Y5451828D01*
X8062400Y4720000D02*
X8082400D01*
X8072400Y4710000D02*
Y4730000D01*
X8202400Y4720000D02*
X8222400D01*
X8212400Y4710000D02*
Y4730000D01*
X4532400Y4540000D02*
X4552400D01*
X4542400Y4530000D02*
Y4550000D01*
X5324881Y4430081D02*
X5344881D01*
X5334881Y4420081D02*
Y4440081D01*
X5083475Y4725690D02*
X5103475D01*
X5093475Y4715690D02*
Y4735690D01*
X4490352Y5340233D02*
X4510352D01*
X4500352Y5330233D02*
Y5350233D01*
X4994486Y3843916D02*
X5014486D01*
X5004486Y3833916D02*
Y3853916D01*
X4995118Y4168584D02*
X5015118D01*
X5005118Y4158584D02*
Y4178584D01*
X4992400Y3970000D02*
X5012400D01*
X5002400Y3960000D02*
Y3980000D01*
X4271684Y3814947D02*
X4291684D01*
X4281684Y3804947D02*
Y3824947D01*
X1879655Y5699313D02*
X1899655D01*
X1889655Y5689313D02*
Y5709313D01*
X2228410Y5700798D02*
X2248410D01*
X2238410Y5690798D02*
Y5710798D01*
X3352400Y5680000D02*
X3372400D01*
X3362400Y5670000D02*
Y5690000D01*
X3327858Y5401433D02*
X3347858D01*
X3337858Y5391433D02*
Y5411433D01*
X3552268Y5307891D02*
X3572268D01*
X3562268Y5297891D02*
Y5317891D01*
X3867727Y4694868D02*
X3887727D01*
X3877727Y4684868D02*
Y4704868D01*
X3551800Y4694491D02*
X3571800D01*
X3561800Y4684492D02*
Y4704491D01*
X3782411Y5305052D02*
X3802410D01*
X3792410Y5295052D02*
Y5315052D01*
X2744737Y5410493D02*
X2764737D01*
X2754737Y5400493D02*
Y5420493D01*
X2071702Y5269783D02*
X2091702D01*
X2081702Y5259783D02*
Y5279783D01*
X2511651Y5282943D02*
X2531651D01*
X2521651Y5272943D02*
Y5292943D01*
X3202214Y4813335D02*
X3222214D01*
X3212214Y4803335D02*
Y4823335D01*
X3309687Y4448980D02*
X3329687D01*
X3319687Y4438980D02*
Y4458980D01*
X4152400Y2860000D02*
X4172400D01*
X4162400Y2850000D02*
Y2870000D01*
X3132128Y2310946D02*
X3152128D01*
X3142128Y2300946D02*
Y2320946D01*
X2592400Y1960000D02*
X2612400D01*
X2602400Y1950000D02*
Y1970000D01*
X2872833Y1801168D02*
X2892833D01*
X2882833Y1791168D02*
Y1811168D01*
X2282356Y1630605D02*
X2302356D01*
X2292356Y1620605D02*
Y1640605D01*
X1372138Y2226361D02*
X1392138D01*
X1382138Y2216361D02*
Y2236361D01*
X1937339Y2368211D02*
X1957339D01*
X1947339Y2358211D02*
Y2378211D01*
X1880892Y2298202D02*
X1900892D01*
X1890892Y2288202D02*
Y2308202D01*
X2122400Y2580000D02*
X2142400D01*
X2132400Y2570000D02*
Y2590000D01*
X2287959Y2525693D02*
X2307959D01*
X2297959Y2515693D02*
Y2535693D01*
X2382400Y3630000D02*
X2402400D01*
X2392400Y3620000D02*
Y3640000D01*
X2171807Y3977139D02*
X2191807D01*
X2181807Y3967139D02*
Y3987139D01*
X2237767Y4034777D02*
X2257767D01*
X2247767Y4024777D02*
Y4044777D01*
%TF.MD5,e27351c62e5a27df1a83fd5a633da4e9*%
M02*
