%TF.GenerationSoftware,Altium Limited,Altium Designer,25.3.3 (18)*%
G04 Layer_Physical_Order=6*
G04 Layer_Color=16711680*
%FSLAX45Y45*%
%MOMM*%
%TF.SameCoordinates,95E4F6BA-DA47-4B25-BB43-2529A7C35442*%
%TF.FilePolarity,Positive*%
%TF.FileFunction,Copper,L6,Bot,Signal*%
%TF.Part,CustomerPanel*%
G01*
G75*
%TA.AperFunction,SMDPad,CuDef*%
G04:AMPARAMS|DCode=67|XSize=1.65mm|YSize=1.25mm|CornerRadius=0.3125mm|HoleSize=0mm|Usage=FLASHONLY|Rotation=0.000|XOffset=0mm|YOffset=0mm|HoleType=Round|Shape=RoundedRectangle|*
%AMROUNDEDRECTD67*
21,1,1.65000,0.62500,0,0,0.0*
21,1,1.02500,1.25000,0,0,0.0*
1,1,0.62500,0.51250,-0.31250*
1,1,0.62500,-0.51250,-0.31250*
1,1,0.62500,-0.51250,0.31250*
1,1,0.62500,0.51250,0.31250*
%
%ADD67ROUNDEDRECTD67*%
G04:AMPARAMS|DCode=68|XSize=1.65mm|YSize=1.25mm|CornerRadius=0.3125mm|HoleSize=0mm|Usage=FLASHONLY|Rotation=270.000|XOffset=0mm|YOffset=0mm|HoleType=Round|Shape=RoundedRectangle|*
%AMROUNDEDRECTD68*
21,1,1.65000,0.62500,0,0,270.0*
21,1,1.02500,1.25000,0,0,270.0*
1,1,0.62500,-0.31250,-0.51250*
1,1,0.62500,-0.31250,0.51250*
1,1,0.62500,0.31250,0.51250*
1,1,0.62500,0.31250,-0.51250*
%
%ADD68ROUNDEDRECTD68*%
%TA.AperFunction,Conductor*%
%ADD69C,0.40000*%
%ADD70C,0.30000*%
%ADD71C,0.25000*%
%ADD74C,0.20000*%
%ADD75C,0.50000*%
%TA.AperFunction,ComponentPad*%
G04:AMPARAMS|DCode=82|XSize=1.55mm|YSize=1.6mm|CornerRadius=0.3875mm|HoleSize=0mm|Usage=FLASHONLY|Rotation=270.000|XOffset=0mm|YOffset=0mm|HoleType=Round|Shape=RoundedRectangle|*
%AMROUNDEDRECTD82*
21,1,1.55000,0.82500,0,0,270.0*
21,1,0.77500,1.60000,0,0,270.0*
1,1,0.77500,-0.41250,-0.38750*
1,1,0.77500,-0.41250,0.38750*
1,1,0.77500,0.41250,0.38750*
1,1,0.77500,0.41250,-0.38750*
%
%ADD82ROUNDEDRECTD82*%
G04:AMPARAMS|DCode=83|XSize=1.7mm|YSize=2.1mm|CornerRadius=0mm|HoleSize=0mm|Usage=FLASHONLY|Rotation=0.000|XOffset=0mm|YOffset=0mm|HoleType=Round|Shape=Octagon|*
%AMOCTAGOND83*
4,1,8,-0.42500,1.05000,0.42500,1.05000,0.85000,0.62500,0.85000,-0.62500,0.42500,-1.05000,-0.42500,-1.05000,-0.85000,-0.62500,-0.85000,0.62500,-0.42500,1.05000,0.0*
%
%ADD83OCTAGOND83*%

G04:AMPARAMS|DCode=84|XSize=1.7mm|YSize=2.1mm|CornerRadius=0.425mm|HoleSize=0mm|Usage=FLASHONLY|Rotation=0.000|XOffset=0mm|YOffset=0mm|HoleType=Round|Shape=RoundedRectangle|*
%AMROUNDEDRECTD84*
21,1,1.70000,1.25001,0,0,0.0*
21,1,0.85000,2.10000,0,0,0.0*
1,1,0.85000,0.42500,-0.62500*
1,1,0.85000,-0.42500,-0.62500*
1,1,0.85000,-0.42500,0.62500*
1,1,0.85000,0.42500,0.62500*
%
%ADD84ROUNDEDRECTD84*%
G04:AMPARAMS|DCode=85|XSize=1.4mm|YSize=1.7mm|CornerRadius=0.35mm|HoleSize=0mm|Usage=FLASHONLY|Rotation=270.000|XOffset=0mm|YOffset=0mm|HoleType=Round|Shape=RoundedRectangle|*
%AMROUNDEDRECTD85*
21,1,1.40000,1.00000,0,0,270.0*
21,1,0.70000,1.70000,0,0,270.0*
1,1,0.70000,-0.50000,-0.35000*
1,1,0.70000,-0.50000,0.35000*
1,1,0.70000,0.50000,0.35000*
1,1,0.70000,0.50000,-0.35000*
%
%ADD85ROUNDEDRECTD85*%
G04:AMPARAMS|DCode=86|XSize=1.4mm|YSize=1.7mm|CornerRadius=0mm|HoleSize=0mm|Usage=FLASHONLY|Rotation=270.000|XOffset=0mm|YOffset=0mm|HoleType=Round|Shape=Octagon|*
%AMOCTAGOND86*
4,1,8,0.85000,0.35000,0.85000,-0.35000,0.50000,-0.70000,-0.50000,-0.70000,-0.85000,-0.35000,-0.85000,0.35000,-0.50000,0.70000,0.50000,0.70000,0.85000,0.35000,0.0*
%
%ADD86OCTAGOND86*%

G04:AMPARAMS|DCode=87|XSize=4mm|YSize=3.6mm|CornerRadius=0.54mm|HoleSize=0mm|Usage=FLASHONLY|Rotation=0.000|XOffset=0mm|YOffset=0mm|HoleType=Round|Shape=RoundedRectangle|*
%AMROUNDEDRECTD87*
21,1,4.00000,2.52000,0,0,0.0*
21,1,2.92000,3.60000,0,0,0.0*
1,1,1.08000,1.46000,-1.26000*
1,1,1.08000,-1.46000,-1.26000*
1,1,1.08000,-1.46000,1.26000*
1,1,1.08000,1.46000,1.26000*
%
%ADD87ROUNDEDRECTD87*%
G04:AMPARAMS|DCode=88|XSize=2.2mm|YSize=2.2mm|CornerRadius=0.55mm|HoleSize=0mm|Usage=FLASHONLY|Rotation=270.000|XOffset=0mm|YOffset=0mm|HoleType=Round|Shape=RoundedRectangle|*
%AMROUNDEDRECTD88*
21,1,2.20000,1.10000,0,0,270.0*
21,1,1.10000,2.20000,0,0,270.0*
1,1,1.10000,-0.55000,-0.55000*
1,1,1.10000,-0.55000,0.55000*
1,1,1.10000,0.55000,0.55000*
1,1,1.10000,0.55000,-0.55000*
%
%ADD88ROUNDEDRECTD88*%
G04:AMPARAMS|DCode=89|XSize=2.2mm|YSize=2.2mm|CornerRadius=0mm|HoleSize=0mm|Usage=FLASHONLY|Rotation=270.000|XOffset=0mm|YOffset=0mm|HoleType=Round|Shape=Octagon|*
%AMOCTAGOND89*
4,1,8,-0.55000,-1.10000,0.55000,-1.10000,1.10000,-0.55000,1.10000,0.55000,0.55000,1.10000,-0.55000,1.10000,-1.10000,0.55000,-1.10000,-0.55000,-0.55000,-1.10000,0.0*
%
%ADD89OCTAGOND89*%

%TA.AperFunction,ViaPad*%
%ADD90C,0.35000*%
%ADD91C,0.60000*%
G36*
X6431858Y6187877D02*
X6429578Y6188245D01*
X6427113Y6188149D01*
X6424462Y6187590D01*
X6421626Y6186566D01*
X6418605Y6185078D01*
X6415399Y6183127D01*
X6412008Y6180711D01*
X6408432Y6177832D01*
X6400724Y6170682D01*
X6386582Y6184824D01*
X6390389Y6188770D01*
X6396612Y6196108D01*
X6399027Y6199499D01*
X6400978Y6202705D01*
X6402466Y6205726D01*
X6403490Y6208562D01*
X6404049Y6211212D01*
X6404145Y6213678D01*
X6403777Y6215958D01*
X6431858Y6187877D01*
D02*
G37*
G36*
X2881517Y6186535D02*
X2878218Y6186542D01*
X2874766Y6186050D01*
X2871164Y6185058D01*
X2867412Y6183568D01*
X2863508Y6181579D01*
X2859453Y6179091D01*
X2855247Y6176103D01*
X2850891Y6172617D01*
X2841725Y6164147D01*
X2824047Y6181824D01*
X2828532Y6186483D01*
X2836003Y6195347D01*
X2838991Y6199553D01*
X2841479Y6203608D01*
X2843469Y6207511D01*
X2844959Y6211264D01*
X2845950Y6214866D01*
X2846442Y6218317D01*
X2846436Y6221617D01*
X2881517Y6186535D01*
D02*
G37*
G36*
X8295106Y6414943D02*
X8327466Y6407174D01*
X8358213Y6394438D01*
X8386588Y6377050D01*
X8411894Y6355436D01*
X8433508Y6330130D01*
X8450896Y6301755D01*
X8463632Y6271008D01*
X8471401Y6238648D01*
X8472853Y6220198D01*
X8473513Y6205471D01*
X8473516Y6205460D01*
X8473516Y6190471D01*
X8473580Y3793177D01*
X8464873Y3787358D01*
X8458580Y3784875D01*
X8442137D01*
X8432076Y3780707D01*
X8357874D01*
Y3816579D01*
X8355984Y3830936D01*
X8353689Y3836478D01*
X8350442Y3844316D01*
X8341626Y3855805D01*
X8151533Y4045898D01*
X8140044Y4054714D01*
X8134853Y4056864D01*
X8137837Y4071864D01*
X8186650D01*
X8205902Y4074399D01*
X8223843Y4081830D01*
X8239249Y4093651D01*
X8251070Y4109057D01*
X8258501Y4126998D01*
X8261036Y4146250D01*
Y4175000D01*
X8145400D01*
Y4185000D01*
X8135400D01*
Y4298136D01*
X8104150D01*
X8084898Y4295602D01*
X8066957Y4288170D01*
X8051551Y4276349D01*
X8039730Y4260943D01*
X8037209Y4254857D01*
X8019515Y4251337D01*
X7971626Y4299226D01*
X7960137Y4308042D01*
X7946758Y4313584D01*
X7932400Y4315474D01*
X7918042Y4313584D01*
X7904663Y4308042D01*
X7893174Y4299226D01*
X7884358Y4287737D01*
X7878816Y4274358D01*
X7876926Y4260000D01*
X7878816Y4245642D01*
X7884358Y4232263D01*
X7893174Y4220774D01*
X7944475Y4169473D01*
Y4006671D01*
X7946365Y3992314D01*
X7951907Y3978934D01*
X7960723Y3967445D01*
X7972212Y3958629D01*
X7985591Y3953087D01*
X7999949Y3951197D01*
X8016130D01*
Y3935554D01*
X8023361Y3918096D01*
X8036723Y3904734D01*
X8054182Y3897503D01*
X8073078D01*
X8090536Y3904734D01*
X8103898Y3918096D01*
X8104160Y3918728D01*
X8118872Y3921654D01*
X8246926Y3793600D01*
Y3740000D01*
Y2993114D01*
X8235792Y2985674D01*
X8216895D01*
X8200255Y2978782D01*
X8196745Y2987256D01*
X8183383Y3000618D01*
X8165925Y3007849D01*
X8147029D01*
X8129570Y3000618D01*
X8116209Y2987256D01*
X8108977Y2969798D01*
Y2951923D01*
X8106484Y2950891D01*
X8093122Y2937529D01*
X8085891Y2920071D01*
Y2901174D01*
X8093122Y2883716D01*
X8106484Y2870354D01*
X8123943Y2863123D01*
X8142839D01*
X8160297Y2870354D01*
X8160806Y2870863D01*
X8175806Y2864649D01*
Y2860075D01*
X8183037Y2842617D01*
X8196399Y2829255D01*
X8213858Y2822023D01*
X8232754D01*
X8234454Y2822727D01*
X8246926Y2814394D01*
Y2775969D01*
X8234454Y2767636D01*
X8230355Y2769334D01*
X8211458D01*
X8194000Y2762102D01*
X8180638Y2748740D01*
X8173407Y2731282D01*
Y2712385D01*
X8180638Y2694927D01*
X8189957Y2685609D01*
X8178007Y2673660D01*
X8170776Y2656201D01*
Y2637305D01*
X8178007Y2619847D01*
X8191369Y2606485D01*
X8208827Y2599253D01*
X8227724D01*
X8231925Y2600994D01*
X8246926Y2590971D01*
Y1804754D01*
X8234454Y1796421D01*
X8231848Y1797500D01*
X8212952D01*
X8195494Y1790268D01*
X8193362Y1788137D01*
X8188554Y1792945D01*
X8171096Y1800176D01*
X8170540D01*
X8168008Y1802559D01*
X8161753Y1815176D01*
X8166978Y1827791D01*
Y1846687D01*
X8159747Y1864145D01*
X8146385Y1877507D01*
X8128927Y1884739D01*
X8110030D01*
X8096768Y1879245D01*
X8096049Y1879965D01*
X8078591Y1887196D01*
X8059694D01*
X8042236Y1879965D01*
X8028874Y1866603D01*
X8021643Y1849145D01*
Y1830248D01*
X8028874Y1812790D01*
X8042236Y1799428D01*
X8059694Y1792197D01*
X8078591D01*
X8091852Y1797690D01*
X8092572Y1796970D01*
X8110030Y1789739D01*
X8110586D01*
X8113118Y1787356D01*
X8119373Y1774739D01*
X8114148Y1762124D01*
Y1743228D01*
X8121379Y1725770D01*
X8134741Y1712408D01*
X8152199Y1705176D01*
X8171096D01*
X8188554Y1712408D01*
X8190686Y1714540D01*
X8195494Y1709732D01*
X8212952Y1702500D01*
X8231848D01*
X8238430Y1688990D01*
X8238980Y1682697D01*
X8201758Y1645474D01*
X7792400D01*
X7778042Y1643584D01*
X7764663Y1638042D01*
X7753174Y1629226D01*
X7693174Y1569226D01*
X7684358Y1557737D01*
X7678816Y1544358D01*
X7676926Y1530000D01*
X7678816Y1515642D01*
X7684358Y1502263D01*
X7693174Y1490774D01*
X7704663Y1481958D01*
X7718042Y1476416D01*
X7732400Y1474526D01*
X7746758Y1476416D01*
X7760137Y1481958D01*
X7771626Y1490774D01*
X7815378Y1534526D01*
X8024978D01*
X8035001Y1519526D01*
X8032299Y1513003D01*
X8029764Y1493750D01*
Y1465000D01*
X8261036D01*
Y1493750D01*
X8258501Y1513003D01*
X8253122Y1525990D01*
X8252473Y1541958D01*
X8263962Y1550774D01*
X8341626Y1628438D01*
X8350442Y1639927D01*
X8355984Y1653306D01*
X8357874Y1667664D01*
Y3694042D01*
X8432076D01*
X8442137Y3689875D01*
X8461033D01*
X8461111Y3689907D01*
X8473583Y3681574D01*
X8473648Y1270170D01*
X8473647Y1270037D01*
Y1255256D01*
X8472986Y1240530D01*
X8471537Y1222122D01*
X8463778Y1189803D01*
X8451059Y1159097D01*
X8433693Y1130758D01*
X8412108Y1105484D01*
X8386834Y1083899D01*
X8358495Y1066533D01*
X8327789Y1053814D01*
X8295471Y1046055D01*
X8264129Y1043588D01*
X8262338Y1043944D01*
X7612342D01*
X7604945Y1058944D01*
X7612596Y1068916D01*
X7620405Y1087768D01*
X7623069Y1108000D01*
Y1160500D01*
X7502400D01*
Y1180500D01*
X7623069D01*
Y1233000D01*
X7620405Y1253232D01*
X7612596Y1272085D01*
X7600174Y1288274D01*
X7583984Y1300696D01*
X7565132Y1308505D01*
X7554270Y1309935D01*
Y1325065D01*
X7565132Y1326495D01*
X7583984Y1334304D01*
X7600174Y1346726D01*
X7612596Y1362915D01*
X7620405Y1381768D01*
X7623069Y1402000D01*
Y1454500D01*
X7502400D01*
Y1474500D01*
X7623069D01*
Y1527000D01*
X7620405Y1547232D01*
X7612596Y1566084D01*
X7600174Y1582274D01*
X7583984Y1594696D01*
X7565132Y1602505D01*
X7560215Y1611022D01*
X7563086Y1617953D01*
Y1636850D01*
X7555855Y1654308D01*
X7550881Y1659282D01*
Y1697428D01*
X7565881Y1703641D01*
X7573255Y1696267D01*
X7590713Y1689035D01*
X7609610D01*
X7627068Y1696267D01*
X7640430Y1709629D01*
X7647661Y1727087D01*
Y1745983D01*
X7640430Y1763441D01*
X7627068Y1776803D01*
X7609610Y1784035D01*
X7604823D01*
X7598609Y1799035D01*
X7602668Y1803094D01*
X7609900Y1820552D01*
Y1839448D01*
X7609682Y1839974D01*
X7619345Y1843977D01*
X7632707Y1857339D01*
X7639938Y1874797D01*
Y1893693D01*
X7632707Y1911152D01*
X7619345Y1924514D01*
X7601887Y1931745D01*
X7582990D01*
X7565532Y1924514D01*
X7550881Y1931075D01*
Y1972302D01*
X7550881Y1972303D01*
X7548319Y1985181D01*
X7559306Y1989732D01*
X7569139Y1999564D01*
X7575542Y1996911D01*
X7589900Y1995021D01*
X7604258Y1996911D01*
X7617637Y2002453D01*
X7629126Y2011269D01*
X7639111Y2021254D01*
X7647927Y2032743D01*
X7653469Y2046122D01*
X7655359Y2060480D01*
Y2791034D01*
X7670359Y2801057D01*
X7677250Y2798202D01*
X7696146D01*
X7713604Y2805434D01*
X7726966Y2818796D01*
X7734198Y2836254D01*
Y2855150D01*
X7730030Y2865211D01*
Y2867744D01*
X7741681Y2877169D01*
X7752952Y2872500D01*
X7771848D01*
X7789306Y2879732D01*
X7802668Y2893094D01*
X7809900Y2910552D01*
Y2929448D01*
X7804690Y2942025D01*
X7804653Y2942214D01*
X7804546Y2942374D01*
X7803184Y2945663D01*
Y3323107D01*
X7891918Y3411842D01*
X7923383D01*
X7925494Y3409731D01*
X7942952Y3402500D01*
X7947403D01*
X7948333Y3402499D01*
X7949317Y3387500D01*
X7948381Y3387377D01*
X7934898Y3385602D01*
X7916957Y3378170D01*
X7901551Y3366349D01*
X7889730Y3350943D01*
X7882298Y3333002D01*
X7879764Y3313750D01*
Y3285000D01*
X7985400D01*
Y3388136D01*
X7964168D01*
X7963385Y3388137D01*
X7961849Y3402500D01*
X7963326Y3403112D01*
X7979307Y3409731D01*
X7992669Y3423093D01*
X7999900Y3440551D01*
Y3459448D01*
X7992669Y3476906D01*
X7979307Y3490268D01*
X7961848Y3497499D01*
X7942952D01*
X7935533Y3494427D01*
X7935074Y3494392D01*
X7933340Y3493518D01*
X7933231Y3493473D01*
X7932945Y3493409D01*
X7875025D01*
X7859418Y3490304D01*
X7846187Y3481464D01*
X7846186Y3481463D01*
X7770059Y3405336D01*
X7756201Y3411076D01*
Y3546376D01*
X7762818Y3552993D01*
X7772212Y3567051D01*
X7775510Y3583633D01*
Y3612316D01*
X7779677Y3622377D01*
Y3641273D01*
X7772446Y3658732D01*
X7759084Y3672093D01*
X7741626Y3679325D01*
X7722729D01*
X7705271Y3672093D01*
X7691909Y3658732D01*
X7684678Y3641273D01*
Y3622377D01*
X7688845Y3612316D01*
Y3601582D01*
X7682228Y3594965D01*
X7672835Y3580907D01*
X7669537Y3564325D01*
Y3384746D01*
X7654537Y3383763D01*
X7653469Y3391873D01*
X7647927Y3405252D01*
X7639111Y3416741D01*
X7571626Y3484226D01*
X7560137Y3493042D01*
X7546758Y3498584D01*
X7532400Y3500474D01*
X7518042Y3498584D01*
X7504663Y3493042D01*
X7493174Y3484226D01*
X7484358Y3472737D01*
X7478816Y3459358D01*
X7476926Y3445000D01*
X7478816Y3430642D01*
X7484358Y3417263D01*
X7493174Y3405774D01*
X7544410Y3354537D01*
Y2299159D01*
X7542409Y2297822D01*
X7523513D01*
X7506054Y2290590D01*
X7492692Y2277228D01*
X7488183Y2266343D01*
X7473183Y2269326D01*
Y2770000D01*
X7470079Y2785607D01*
X7461238Y2798838D01*
X7461238Y2798839D01*
X7317733Y2942344D01*
X7324225Y2957065D01*
X7339601Y2963433D01*
X7352963Y2976795D01*
X7360194Y2994254D01*
Y3013150D01*
X7354466Y3026980D01*
X7355031Y3027546D01*
X7362262Y3045004D01*
Y3063900D01*
X7355031Y3081359D01*
X7341669Y3094721D01*
X7324211Y3101952D01*
X7305314D01*
X7287856Y3094721D01*
X7273184Y3101261D01*
Y3119217D01*
X7290368D01*
X7290369Y3119216D01*
X7305976Y3122321D01*
X7319207Y3131162D01*
X7332204Y3144158D01*
X7335491Y3145520D01*
X7335682Y3145558D01*
X7335843Y3145666D01*
X7348418Y3150875D01*
X7361780Y3164236D01*
X7369012Y3181695D01*
Y3199288D01*
X7381607Y3211884D01*
X7388838Y3229342D01*
Y3248238D01*
X7381607Y3265697D01*
X7368245Y3279058D01*
X7350787Y3286290D01*
X7331890D01*
X7314432Y3279058D01*
X7301070Y3265697D01*
X7293839Y3248238D01*
Y3238883D01*
X7288184Y3234717D01*
X7273184Y3242298D01*
Y3426162D01*
X7312659D01*
X7315948Y3424800D01*
X7316108Y3424693D01*
X7316297Y3424656D01*
X7328874Y3419446D01*
X7347770D01*
X7365229Y3426677D01*
X7378591Y3440039D01*
X7385822Y3457498D01*
Y3476394D01*
X7378591Y3493852D01*
X7378518Y3493925D01*
X7384907Y3509351D01*
Y3528247D01*
X7377676Y3545705D01*
X7364314Y3559067D01*
X7346856Y3566299D01*
X7327959D01*
X7310501Y3559067D01*
X7297139Y3545705D01*
X7289907Y3528247D01*
Y3509351D01*
X7288824Y3507729D01*
X7273184D01*
Y3563107D01*
X7296087Y3586010D01*
X7297743Y3587117D01*
X7318193Y3607567D01*
X7318882Y3607281D01*
X7337779D01*
X7355237Y3614512D01*
X7363427Y3622702D01*
X7395884D01*
X7395885Y3622701D01*
X7411492Y3625806D01*
X7424724Y3634647D01*
X7506106Y3716029D01*
X7506472Y3716323D01*
X7507584Y3717078D01*
X7508659Y3717688D01*
X7509722Y3718181D01*
X7510825Y3718585D01*
X7512013Y3718913D01*
X7513334Y3719165D01*
X7513802Y3719217D01*
X7846741D01*
X7966454Y3599504D01*
X7967816Y3596217D01*
X7967854Y3596026D01*
X7967962Y3595865D01*
X7973170Y3583289D01*
X7986532Y3569927D01*
X8003991Y3562696D01*
X8022887D01*
X8040345Y3569927D01*
X8049561Y3579143D01*
X8063098Y3579403D01*
X8067568Y3577553D01*
X8079030Y3566091D01*
X8096489Y3558859D01*
X8115385D01*
X8132843Y3566091D01*
X8146205Y3579453D01*
X8153437Y3596911D01*
Y3615807D01*
X8146205Y3633266D01*
X8132843Y3646627D01*
X8115385Y3653859D01*
X8096489D01*
X8079030Y3646627D01*
X8069815Y3637412D01*
X8056278Y3637152D01*
X8051808Y3639001D01*
X8040345Y3650464D01*
X8027770Y3655673D01*
X8027609Y3655781D01*
X8027418Y3655819D01*
X8024131Y3657180D01*
X7892473Y3788838D01*
X7879242Y3797679D01*
X7863635Y3800784D01*
X7863633Y3800784D01*
X7533184D01*
Y4333107D01*
X7562989Y4362912D01*
X7562990Y4362913D01*
X7571830Y4376144D01*
X7574935Y4391751D01*
Y4650337D01*
X7576297Y4653626D01*
X7576404Y4653786D01*
X7576442Y4653975D01*
X7581651Y4666552D01*
Y4685448D01*
X7574420Y4702907D01*
X7561058Y4716268D01*
X7543600Y4723500D01*
X7524703D01*
X7507245Y4716268D01*
X7493883Y4702907D01*
X7486652Y4685448D01*
Y4666552D01*
X7491861Y4653975D01*
X7491899Y4653786D01*
X7492006Y4653626D01*
X7493368Y4650337D01*
Y4408644D01*
X7463562Y4378838D01*
X7454721Y4365607D01*
X7451616Y4350000D01*
X7451617Y4349999D01*
Y3781402D01*
X7451565Y3780934D01*
X7451313Y3779613D01*
X7450984Y3778422D01*
X7450581Y3777322D01*
X7450088Y3776258D01*
X7449479Y3775186D01*
X7448722Y3774072D01*
X7448429Y3773706D01*
X7396362Y3721639D01*
X7380524Y3727014D01*
X7375273Y3739691D01*
X7361911Y3753052D01*
X7344453Y3760284D01*
X7325556D01*
X7308098Y3753052D01*
X7294736Y3739691D01*
X7287505Y3722232D01*
Y3703336D01*
X7289253Y3689590D01*
X7276022Y3680749D01*
X7276021Y3680748D01*
X7241173Y3645900D01*
X7239517Y3644794D01*
X7239516Y3644793D01*
X7203562Y3608838D01*
X7194721Y3595607D01*
X7191616Y3580000D01*
X7191617Y3579999D01*
Y3540319D01*
X7176617Y3537335D01*
X7172654Y3546901D01*
X7159292Y3560263D01*
X7141834Y3567495D01*
X7122937D01*
X7105479Y3560263D01*
X7092117Y3546901D01*
X7084886Y3529443D01*
Y3510547D01*
X7092117Y3493089D01*
X7105479Y3479727D01*
X7122937Y3472495D01*
X7141834D01*
X7159292Y3479727D01*
X7172654Y3493089D01*
X7176617Y3502655D01*
X7191617Y3499671D01*
Y3480001D01*
X7191616Y3480000D01*
X7191617Y3479999D01*
Y3160000D01*
Y3010000D01*
Y2970001D01*
X7191616Y2970000D01*
X7194721Y2954393D01*
X7203562Y2941162D01*
X7391616Y2753107D01*
Y2302910D01*
X7376616Y2296696D01*
X7368080Y2305233D01*
X7350622Y2312465D01*
X7331725D01*
X7314267Y2305233D01*
X7300905Y2291871D01*
X7293673Y2274413D01*
Y2269950D01*
X7278673Y2259927D01*
X7276866Y2260676D01*
X7257969D01*
X7240511Y2253445D01*
X7227149Y2240083D01*
X7219918Y2222625D01*
Y2203728D01*
X7221147Y2200761D01*
X7217019Y2194583D01*
X7213914Y2178976D01*
X7213915Y2178974D01*
Y1963265D01*
X7213914Y1963263D01*
X7217019Y1947656D01*
X7225860Y1934425D01*
X7253215Y1907070D01*
Y1848955D01*
X7253214Y1848953D01*
X7256319Y1833346D01*
X7265160Y1820115D01*
X7272588Y1812686D01*
X7273950Y1809398D01*
X7273988Y1809209D01*
X7274095Y1809049D01*
X7279304Y1796472D01*
X7292666Y1783110D01*
X7308672Y1776481D01*
X7310147Y1771505D01*
X7310204Y1760879D01*
X7298703Y1756115D01*
X7285342Y1742753D01*
X7278110Y1725295D01*
Y1706399D01*
X7285342Y1688940D01*
X7298703Y1675579D01*
X7316162Y1668347D01*
X7335058D01*
X7352516Y1675579D01*
X7365878Y1688940D01*
X7373110Y1706399D01*
Y1725295D01*
X7365878Y1742753D01*
X7352516Y1756115D01*
X7336511Y1762745D01*
X7335035Y1767720D01*
X7334979Y1778347D01*
X7346479Y1783110D01*
X7359841Y1796472D01*
X7367073Y1813930D01*
Y1832827D01*
X7366119Y1835129D01*
X7377438Y1846449D01*
X7384670Y1863907D01*
Y1882803D01*
X7377438Y1900262D01*
X7364076Y1913624D01*
X7346618Y1920855D01*
X7334782Y1923964D01*
X7331677Y1939571D01*
X7322837Y1952802D01*
X7322836Y1952802D01*
X7295482Y1980157D01*
Y2023501D01*
X7310482Y2033523D01*
X7312952Y2032500D01*
X7331848D01*
X7349307Y2039732D01*
X7362669Y2053094D01*
X7369900Y2070552D01*
Y2089448D01*
X7362669Y2106907D01*
X7349307Y2120269D01*
X7331848Y2127500D01*
X7312952D01*
X7310482Y2126477D01*
X7295482Y2136500D01*
Y2163123D01*
X7302227Y2173218D01*
X7304112Y2182696D01*
X7307686Y2186270D01*
X7314917Y2203728D01*
Y2208191D01*
X7329918Y2218214D01*
X7331725Y2217465D01*
X7350622D01*
X7368080Y2224696D01*
X7376616Y2233233D01*
X7391616Y2227020D01*
Y2200001D01*
X7391616Y2200000D01*
X7391616Y2199999D01*
Y2050001D01*
X7391616Y2050000D01*
X7394721Y2034393D01*
X7403562Y2021162D01*
X7443561Y1981162D01*
X7443562Y1981162D01*
X7469314Y1955410D01*
Y1668185D01*
X7449803D01*
X7449801Y1668185D01*
X7434194Y1665081D01*
X7420963Y1656240D01*
X7420963Y1656239D01*
X7356841Y1592117D01*
X7353305Y1588855D01*
X7336232Y1589902D01*
X7329984Y1594696D01*
X7311132Y1602505D01*
X7290900Y1605169D01*
X7258400D01*
Y1464500D01*
X7248400D01*
Y1454500D01*
X7127731D01*
Y1402000D01*
X7130395Y1381768D01*
X7130668Y1381109D01*
X7121568Y1367491D01*
X7115820D01*
X7106720Y1381109D01*
X7107534Y1383073D01*
X7110025Y1402000D01*
Y1527000D01*
X7107534Y1545927D01*
X7100228Y1563563D01*
X7088608Y1578708D01*
X7082666Y1583267D01*
X7081746Y1597301D01*
X7088978Y1614759D01*
Y1633655D01*
X7081746Y1651113D01*
X7068384Y1664475D01*
X7050926Y1671707D01*
X7032030D01*
X7023508Y1668177D01*
X7022896Y1668112D01*
X7021434Y1667318D01*
X7020564Y1666957D01*
X6953120D01*
X6880503Y1739574D01*
X6880464Y1742731D01*
X6885720Y1755571D01*
X6895927Y1757602D01*
X6909158Y1766442D01*
X6975519Y1832804D01*
X6992337Y1828408D01*
X6996609Y1818094D01*
X7009971Y1804732D01*
X7027429Y1797500D01*
X7046326D01*
X7063784Y1804732D01*
X7077146Y1818094D01*
X7084377Y1835552D01*
Y1854448D01*
X7077146Y1871907D01*
X7063784Y1885269D01*
X7053470Y1889541D01*
X7049074Y1906358D01*
X7101238Y1958522D01*
X7101239Y1958523D01*
X7110079Y1971754D01*
X7113184Y1987361D01*
X7113184Y1987363D01*
Y2369999D01*
X7113184Y2370000D01*
X7110079Y2385608D01*
X7101239Y2398839D01*
X7101238Y2398839D01*
X7054242Y2445835D01*
X7058495Y2462795D01*
X7070806Y2471021D01*
X7081857Y2487560D01*
X7085737Y2507069D01*
Y2999889D01*
X7100737Y3007560D01*
X7112952Y3002500D01*
X7131848D01*
X7149307Y3009732D01*
X7162668Y3023094D01*
X7169900Y3040552D01*
Y3059448D01*
X7162668Y3076906D01*
X7149307Y3090268D01*
X7131848Y3097500D01*
X7112952D01*
X7100737Y3092440D01*
X7085737Y3100111D01*
Y3117643D01*
X7081857Y3137152D01*
X7070806Y3153691D01*
X7058448Y3166048D01*
X7041909Y3177099D01*
X7022400Y3180980D01*
X7002891Y3177099D01*
X6986352Y3166048D01*
X6975301Y3149509D01*
X6971421Y3130000D01*
X6975301Y3110491D01*
X6983778Y3097805D01*
Y2535897D01*
X6969920Y2530157D01*
X6644719Y2855359D01*
X6650459Y2869217D01*
X6742399D01*
X6742400Y2869216D01*
X6758007Y2872321D01*
X6771238Y2881162D01*
X6826424Y2936348D01*
X6838724Y2931253D01*
X6857621D01*
X6875079Y2938485D01*
X6888441Y2951847D01*
X6895672Y2969305D01*
Y2988202D01*
X6888441Y3005660D01*
X6875079Y3019022D01*
X6857621Y3026253D01*
X6838724D01*
X6826147Y3021043D01*
X6825958Y3021006D01*
X6825798Y3020899D01*
X6822509Y3019537D01*
X6811153D01*
X6795546Y3016432D01*
X6782315Y3007592D01*
X6782314Y3007591D01*
X6725506Y2950784D01*
X6598791D01*
X6501051Y3048524D01*
Y3360622D01*
X6501051Y3360623D01*
X6497946Y3376231D01*
X6489106Y3389462D01*
X6489105Y3389462D01*
X6389241Y3489326D01*
X6392761Y3507020D01*
X6399306Y3509732D01*
X6412668Y3523094D01*
X6419900Y3540552D01*
Y3559448D01*
X6412668Y3576906D01*
X6399306Y3590268D01*
X6381848Y3597500D01*
X6362952D01*
X6345494Y3590268D01*
X6332132Y3576907D01*
X6315834Y3576758D01*
X6313183Y3578246D01*
Y3741942D01*
X6327041Y3747682D01*
X6463561Y3611162D01*
X6463562Y3611162D01*
X6476793Y3602321D01*
X6492400Y3599217D01*
X6514351D01*
X6517371Y3594697D01*
Y3575801D01*
X6524602Y3558343D01*
X6537964Y3544981D01*
X6555423Y3537749D01*
X6574319D01*
X6591777Y3544981D01*
X6605057Y3558260D01*
X6605139Y3558342D01*
X6614921Y3568272D01*
X6624165Y3566533D01*
X6626232Y3552767D01*
X6626316Y3552127D01*
X6631858Y3538748D01*
X6640674Y3527259D01*
X6652163Y3518443D01*
X6665542Y3512901D01*
X6679900Y3511011D01*
X6696926D01*
Y3342978D01*
X6593174Y3239226D01*
X6584358Y3227737D01*
X6578816Y3214358D01*
X6576926Y3200000D01*
X6578816Y3185642D01*
X6584358Y3172263D01*
X6593174Y3160774D01*
X6593434Y3160574D01*
X6595502Y3141429D01*
X6588271Y3123971D01*
Y3105075D01*
X6595502Y3087617D01*
X6608864Y3074255D01*
X6609798Y3069562D01*
X6601526Y3061290D01*
X6594294Y3043832D01*
Y3024936D01*
X6601526Y3007477D01*
X6614888Y2994115D01*
X6632346Y2986884D01*
X6651242D01*
X6668701Y2994115D01*
X6682063Y3007477D01*
X6689294Y3024936D01*
Y3043832D01*
X6682063Y3061290D01*
X6668701Y3074652D01*
X6667767Y3079345D01*
X6676039Y3087617D01*
X6683271Y3105075D01*
Y3123971D01*
X6676039Y3141430D01*
X6671675Y3145794D01*
X6674767Y3163915D01*
X6791626Y3280773D01*
X6800442Y3292263D01*
X6805984Y3305642D01*
X6807874Y3320000D01*
Y3537110D01*
X6822874Y3540094D01*
X6823791Y3537881D01*
X6837153Y3524519D01*
X6854611Y3517288D01*
X6873508D01*
X6890966Y3524519D01*
X6904328Y3537881D01*
X6911559Y3555339D01*
Y3574236D01*
X6904328Y3591694D01*
X6890966Y3605056D01*
X6878000Y3610426D01*
X6872506Y3626145D01*
X6910886Y3664526D01*
X6996442D01*
X7010800Y3666416D01*
X7024179Y3671958D01*
X7035668Y3680774D01*
X7061042Y3706147D01*
X7078344Y3702236D01*
X7082132Y3693093D01*
X7095494Y3679732D01*
X7112952Y3672500D01*
X7131848D01*
X7149307Y3679732D01*
X7162668Y3693093D01*
X7169900Y3710552D01*
Y3729448D01*
X7162668Y3746906D01*
X7149307Y3760268D01*
X7140164Y3764055D01*
X7136253Y3781358D01*
X7384231Y4029336D01*
X7393047Y4040825D01*
X7398589Y4054205D01*
X7400479Y4068563D01*
Y5425573D01*
X7415479Y5435595D01*
X7422952Y5432500D01*
X7441848D01*
X7459306Y5439732D01*
X7472668Y5453093D01*
X7479900Y5470552D01*
Y5489448D01*
X7472668Y5506906D01*
X7459306Y5520268D01*
X7450411Y5523953D01*
X7449307Y5539732D01*
X7462668Y5553094D01*
X7469900Y5570552D01*
Y5589448D01*
X7462668Y5606906D01*
X7449306Y5620268D01*
X7431848Y5627500D01*
X7412952D01*
X7412951Y5627500D01*
X7400479Y5635833D01*
Y5647395D01*
X7398589Y5661753D01*
X7396294Y5667295D01*
X7393047Y5675132D01*
X7384231Y5686621D01*
X7331628Y5739224D01*
X7331626Y5739227D01*
X7320137Y5748042D01*
X7306758Y5753584D01*
X7292400Y5755474D01*
X7278042Y5753584D01*
X7264663Y5748042D01*
X7253174Y5739227D01*
X7172438Y5658491D01*
X6795416D01*
X6781058Y5656600D01*
X6772279Y5652964D01*
X6771799Y5654122D01*
X6758437Y5667484D01*
X6740979Y5674715D01*
X6722083D01*
X6704624Y5667484D01*
X6691262Y5654122D01*
X6684031Y5636664D01*
Y5617767D01*
X6689241Y5605190D01*
X6689278Y5605001D01*
X6689385Y5604841D01*
X6690747Y5601553D01*
Y5599843D01*
X6495932Y5405028D01*
X6492644Y5403666D01*
X6492455Y5403629D01*
X6492295Y5403522D01*
X6479718Y5398312D01*
X6466356Y5384950D01*
X6459125Y5367492D01*
Y5348596D01*
X6466356Y5331137D01*
X6479718Y5317775D01*
X6497176Y5310544D01*
X6516073D01*
X6531854Y5317081D01*
X6534785Y5310004D01*
X6548147Y5296642D01*
X6565605Y5289411D01*
X6584501D01*
X6601960Y5296642D01*
X6615322Y5310004D01*
X6622553Y5327463D01*
Y5346359D01*
X6615322Y5363817D01*
X6601960Y5377179D01*
X6601334Y5377438D01*
X6598408Y5392150D01*
X6760368Y5554111D01*
X6760369Y5554111D01*
X6767310Y5555257D01*
X6767679Y5554974D01*
X6781058Y5549432D01*
X6795416Y5547542D01*
X6905498D01*
X6908482Y5532542D01*
X6902994Y5530269D01*
X6889632Y5516907D01*
X6882400Y5499448D01*
Y5480552D01*
X6889632Y5463094D01*
X6902100Y5450626D01*
X6902449Y5444168D01*
X6901468Y5434128D01*
X6891263Y5429901D01*
X6877901Y5416539D01*
X6870670Y5399081D01*
Y5380184D01*
X6877901Y5362726D01*
X6891263Y5349364D01*
X6908721Y5342133D01*
X6927618D01*
X6945076Y5349364D01*
X6958438Y5362726D01*
X6965669Y5380184D01*
Y5399081D01*
X6958438Y5416539D01*
X6945970Y5429007D01*
X6945620Y5435465D01*
X6946602Y5445505D01*
X6956807Y5449732D01*
X6970168Y5463094D01*
X6977400Y5480552D01*
Y5499448D01*
X6970168Y5516907D01*
X6956807Y5530269D01*
X6951318Y5532542D01*
X6954302Y5547542D01*
X7195416D01*
X7209774Y5549432D01*
X7223153Y5554974D01*
X7234642Y5563790D01*
X7275673Y5604820D01*
X7289531Y5599080D01*
Y5114319D01*
X7274530Y5104296D01*
X7269987Y5106178D01*
X7251090D01*
X7233632Y5098946D01*
X7220270Y5085584D01*
X7213039Y5068126D01*
Y5049230D01*
X7220270Y5031771D01*
X7233632Y5018410D01*
X7251090Y5011178D01*
X7269987D01*
X7274530Y5013060D01*
X7289531Y5003037D01*
Y4969857D01*
X7274531Y4966873D01*
X7270413Y4976814D01*
X7257051Y4990176D01*
X7239593Y4997407D01*
X7220696D01*
X7203238Y4990176D01*
X7189876Y4976814D01*
X7182645Y4959356D01*
Y4940459D01*
X7189876Y4923001D01*
X7203238Y4909639D01*
X7208713Y4907371D01*
Y4891135D01*
X7200602Y4887776D01*
X7187240Y4874414D01*
X7180009Y4856955D01*
Y4838059D01*
X7187240Y4820601D01*
X7200602Y4807239D01*
X7218060Y4800007D01*
X7236957D01*
X7254415Y4807239D01*
X7267777Y4820601D01*
X7275009Y4838059D01*
X7289531Y4836905D01*
Y4735714D01*
X7280592Y4729742D01*
X7261695D01*
X7244237Y4722510D01*
X7233215Y4711488D01*
X7035404Y4909300D01*
X7021346Y4918693D01*
X7004763Y4921992D01*
X6870124D01*
X6860101Y4936992D01*
X6861570Y4940539D01*
Y4959435D01*
X6854339Y4976894D01*
X6840977Y4990255D01*
X6823519Y4997487D01*
X6822120D01*
X6820081Y4999300D01*
X6813334Y5012487D01*
X6818389Y5024692D01*
Y5029564D01*
X6820357Y5031179D01*
X6820826D01*
X6840335Y5035060D01*
X6856874Y5046111D01*
X6867925Y5062650D01*
X6871806Y5082159D01*
X6867925Y5101668D01*
X6856874Y5118207D01*
X6855461Y5119152D01*
X6849307Y5125305D01*
X6832768Y5136356D01*
X6813259Y5140236D01*
X6718210D01*
Y5156948D01*
X6710978Y5174406D01*
X6697617Y5187768D01*
X6680158Y5195000D01*
X6661262D01*
X6643804Y5187768D01*
X6630442Y5174406D01*
X6623210Y5156948D01*
Y5140236D01*
X6319623D01*
X6317634Y5141566D01*
X6298125Y5145446D01*
X6278616Y5141566D01*
X6262077Y5130515D01*
X6251026Y5113976D01*
X6247145Y5094467D01*
X6251026Y5074958D01*
X6262077Y5058419D01*
X6267286Y5053209D01*
X6283825Y5042158D01*
X6303334Y5038277D01*
X6609949D01*
X6615690Y5024419D01*
X6452780Y4861510D01*
X6323914D01*
X6319052Y4868786D01*
Y4887682D01*
X6312751Y4902895D01*
X6319332Y4918784D01*
Y4937681D01*
X6313311Y4952218D01*
X6313469Y4952376D01*
X6320700Y4969834D01*
Y4988731D01*
X6313469Y5006189D01*
X6300107Y5019551D01*
X6282649Y5026782D01*
X6263752D01*
X6246294Y5019551D01*
X6232932Y5006189D01*
X6225701Y4988731D01*
Y4969834D01*
X6231722Y4955297D01*
X6231564Y4955139D01*
X6224332Y4937681D01*
Y4918784D01*
X6230634Y4903571D01*
X6224053Y4887682D01*
Y4868785D01*
X6231284Y4851327D01*
X6234881Y4847730D01*
X6234783Y4847633D01*
X6227551Y4830174D01*
Y4811278D01*
X6234783Y4793820D01*
X6248145Y4780458D01*
X6265603Y4773226D01*
X6284499D01*
X6297077Y4778436D01*
X6297265Y4778474D01*
X6297425Y4778580D01*
X6300714Y4779943D01*
X6469672D01*
X6469673Y4779942D01*
X6485281Y4783047D01*
X6498512Y4791888D01*
X6647297Y4940673D01*
X6658023Y4933769D01*
X6658136Y4918657D01*
X6645045Y4905566D01*
X6637813Y4888108D01*
Y4869211D01*
X6645045Y4851753D01*
X6658407Y4838391D01*
X6675865Y4831160D01*
X6687167D01*
X6697631Y4817456D01*
X6697663Y4817301D01*
X6696431Y4814327D01*
Y4795431D01*
X6703663Y4777973D01*
X6717025Y4764611D01*
X6734483Y4757379D01*
X6747557D01*
X6748822Y4755485D01*
Y4736589D01*
X6756054Y4719131D01*
X6762709Y4712475D01*
X6761938Y4696242D01*
X6760798Y4694788D01*
X6748561Y4682552D01*
X6747492Y4679971D01*
X6730452D01*
X6712993Y4672740D01*
X6699632Y4659378D01*
X6692400Y4641920D01*
Y4623023D01*
X6699632Y4605565D01*
X6712993Y4592203D01*
X6730452Y4584972D01*
X6749348D01*
X6766806Y4592203D01*
X6780168Y4605565D01*
X6781237Y4608146D01*
X6798278D01*
X6815736Y4615377D01*
X6829098Y4628739D01*
X6836329Y4646197D01*
Y4665094D01*
X6829098Y4682552D01*
X6822443Y4689207D01*
X6823213Y4705441D01*
X6824354Y4706894D01*
X6836591Y4719131D01*
X6843822Y4736589D01*
Y4755486D01*
X6836591Y4772944D01*
X6823229Y4786306D01*
X6805770Y4793537D01*
X6792697D01*
X6791431Y4795431D01*
Y4814327D01*
X6788946Y4820327D01*
X6798969Y4835327D01*
X6986815D01*
X7200391Y4621750D01*
X7204558Y4611689D01*
X7217920Y4598327D01*
X7235378Y4591096D01*
X7254275D01*
X7271733Y4598327D01*
X7274531Y4601125D01*
X7289531Y4594911D01*
Y4410374D01*
X7274531Y4407391D01*
X7271519Y4414661D01*
X7260900Y4428500D01*
X7247061Y4439119D01*
X7230945Y4445795D01*
X7213650Y4448072D01*
X7192400D01*
Y4330000D01*
Y4211928D01*
X7213650D01*
X7230945Y4214205D01*
X7247061Y4220881D01*
X7260900Y4231500D01*
X7271519Y4245339D01*
X7274531Y4252609D01*
X7289531Y4249625D01*
Y4091541D01*
X6973464Y3775474D01*
X6887908D01*
X6873550Y3773584D01*
X6860171Y3768042D01*
X6848681Y3759226D01*
X6811732Y3722277D01*
X6797874Y3728017D01*
Y3740000D01*
X6795984Y3754359D01*
X6790442Y3767737D01*
X6781626Y3779227D01*
X6671626Y3889226D01*
X6660137Y3898042D01*
X6646758Y3903585D01*
X6632400Y3905475D01*
X6618042Y3903584D01*
X6604663Y3898042D01*
X6593174Y3889226D01*
X6584358Y3877737D01*
X6578816Y3864358D01*
X6576926Y3850000D01*
X6578816Y3835642D01*
X6584358Y3822263D01*
X6593174Y3810774D01*
X6686926Y3717022D01*
Y3621959D01*
X6679900D01*
X6665542Y3620069D01*
X6652163Y3614527D01*
X6640674Y3605711D01*
X6631858Y3594222D01*
X6626527Y3581353D01*
X6626316Y3580843D01*
X6618172Y3582923D01*
X6618172Y3582923D01*
X6618167Y3582925D01*
X6611878Y3595887D01*
X6605139Y3612156D01*
X6596046Y3621249D01*
X6599900Y3630552D01*
Y3649448D01*
X6592669Y3666907D01*
X6582880Y3676695D01*
X6593340Y3687155D01*
X6600572Y3704613D01*
Y3723510D01*
X6593340Y3740968D01*
X6579978Y3754330D01*
X6562520Y3761561D01*
X6543624D01*
X6526166Y3754330D01*
X6512804Y3740968D01*
X6505572Y3723510D01*
Y3705718D01*
X6502612Y3703163D01*
X6492075Y3698002D01*
X6363184Y3826893D01*
Y4009999D01*
X6363184Y4010000D01*
X6360079Y4025607D01*
X6351239Y4038838D01*
X6351238Y4038839D01*
X6196811Y4193266D01*
Y4522753D01*
X6198114Y4523207D01*
X6199044Y4522960D01*
X6211972Y4512151D01*
Y4500628D01*
X6219203Y4483170D01*
X6220632Y4481742D01*
X6214813Y4467692D01*
Y4448795D01*
X6222044Y4431337D01*
X6235406Y4417975D01*
X6252864Y4410744D01*
X6262307Y4395744D01*
X6260015Y4390211D01*
Y4371314D01*
X6267247Y4353856D01*
X6280608Y4340494D01*
X6298067Y4333263D01*
X6316963D01*
X6334421Y4340494D01*
X6347783Y4353856D01*
X6355015Y4371314D01*
Y4390211D01*
X6347783Y4407669D01*
X6334421Y4421031D01*
X6316963Y4428262D01*
X6307520Y4443263D01*
X6309812Y4448795D01*
Y4467692D01*
X6302581Y4485150D01*
X6301152Y4486579D01*
X6306972Y4500628D01*
Y4519525D01*
X6304708Y4524990D01*
X6299675Y4539142D01*
X6313037Y4552503D01*
X6320268Y4569962D01*
Y4588858D01*
X6313037Y4606316D01*
X6299675Y4619678D01*
X6282217Y4626910D01*
X6263320D01*
X6245862Y4619678D01*
X6240135Y4613951D01*
X6227926Y4626160D01*
X6210468Y4633392D01*
X6196811D01*
Y5223984D01*
X6488354Y5515527D01*
X6497194Y5528758D01*
X6500299Y5544365D01*
X6500299Y5544367D01*
Y5829590D01*
X6514900Y5830551D01*
X6522132Y5813094D01*
X6535494Y5799732D01*
X6552952Y5792500D01*
X6571848D01*
X6589307Y5799732D01*
X6602669Y5813094D01*
X6609900Y5830552D01*
Y5849448D01*
X6602669Y5866906D01*
X6589307Y5880268D01*
X6586653Y5890171D01*
X6592228Y5897437D01*
X6599534Y5915074D01*
X6602025Y5934000D01*
Y6059000D01*
X6599534Y6077927D01*
X6592228Y6095563D01*
X6580608Y6110708D01*
X6565463Y6122329D01*
X6547826Y6129634D01*
X6528900Y6132126D01*
X6443900D01*
X6424974Y6129634D01*
X6424035Y6129245D01*
X6415538Y6141962D01*
X6425774Y6152197D01*
X6428448Y6154678D01*
X6430488Y6156320D01*
X6430867Y6156590D01*
X6443900Y6154874D01*
X6528900D01*
X6547826Y6157366D01*
X6565463Y6164671D01*
X6580608Y6176292D01*
X6592228Y6191437D01*
X6599534Y6209073D01*
X6602025Y6228000D01*
Y6353000D01*
X6599534Y6371927D01*
X6592228Y6389563D01*
X6582643Y6402056D01*
X6585372Y6411590D01*
X6589156Y6417056D01*
X6637644D01*
X6641428Y6411590D01*
X6644157Y6402056D01*
X6634572Y6389563D01*
X6627266Y6371927D01*
X6624775Y6353000D01*
Y6228000D01*
X6627266Y6209073D01*
X6634572Y6191437D01*
X6646192Y6176292D01*
X6661337Y6164671D01*
X6678974Y6157366D01*
X6697900Y6154874D01*
X6782900D01*
X6801826Y6157366D01*
X6819463Y6164671D01*
X6834608Y6176292D01*
X6846228Y6191437D01*
X6853534Y6209073D01*
X6856025Y6228000D01*
Y6353000D01*
X6853534Y6371927D01*
X6846228Y6389563D01*
X6836643Y6402056D01*
X6839372Y6411590D01*
X6843156Y6417056D01*
X6891644D01*
X6895428Y6411590D01*
X6898157Y6402056D01*
X6888572Y6389563D01*
X6881266Y6371927D01*
X6878775Y6353000D01*
Y6228000D01*
X6881266Y6209073D01*
X6888572Y6191437D01*
X6900192Y6176292D01*
X6915337Y6164671D01*
X6932974Y6157366D01*
X6951900Y6154874D01*
X7036900D01*
X7055826Y6157366D01*
X7073463Y6164671D01*
X7088608Y6176292D01*
X7100228Y6191437D01*
X7107534Y6209073D01*
X7110025Y6228000D01*
Y6353000D01*
X7107534Y6371927D01*
X7100228Y6389563D01*
X7090643Y6402056D01*
X7093372Y6411590D01*
X7097156Y6417056D01*
X7145644D01*
X7149428Y6411590D01*
X7152157Y6402056D01*
X7142572Y6389563D01*
X7135266Y6371927D01*
X7132775Y6353000D01*
Y6228000D01*
X7135266Y6209073D01*
X7142572Y6191437D01*
X7154192Y6176292D01*
X7169337Y6164671D01*
X7186974Y6157366D01*
X7205900Y6154874D01*
X7290900D01*
X7309826Y6157366D01*
X7327463Y6164671D01*
X7342608Y6176292D01*
X7354228Y6191437D01*
X7361534Y6209073D01*
X7364025Y6228000D01*
Y6353000D01*
X7361534Y6371927D01*
X7354228Y6389563D01*
X7344643Y6402056D01*
X7347372Y6411590D01*
X7351156Y6417056D01*
X7399644D01*
X7403428Y6411590D01*
X7406157Y6402056D01*
X7396572Y6389563D01*
X7389266Y6371927D01*
X7386775Y6353000D01*
Y6228000D01*
X7389266Y6209073D01*
X7396572Y6191437D01*
X7408192Y6176292D01*
X7423337Y6164671D01*
X7440974Y6157366D01*
X7459900Y6154874D01*
X7544900D01*
X7563826Y6157366D01*
X7581463Y6164671D01*
X7596608Y6176292D01*
X7608228Y6191437D01*
X7615534Y6209073D01*
X7618025Y6228000D01*
Y6353000D01*
X7615534Y6371927D01*
X7608228Y6389563D01*
X7598643Y6402056D01*
X7601372Y6411590D01*
X7605156Y6417056D01*
X8261931D01*
X8263725Y6417413D01*
X8295106Y6414943D01*
D02*
G37*
G36*
X6133428Y6411590D02*
X6136157Y6402056D01*
X6126572Y6389563D01*
X6119266Y6371927D01*
X6116775Y6353000D01*
Y6228000D01*
X6119266Y6209073D01*
X6126572Y6191437D01*
X6138192Y6176292D01*
X6153337Y6164671D01*
X6170974Y6157366D01*
X6189900Y6154874D01*
X6274900D01*
X6293826Y6157366D01*
X6309800Y6163983D01*
X6313762Y6162755D01*
X6323273Y6154826D01*
X6321616Y6146500D01*
X6321617Y6146499D01*
Y6131773D01*
X6306616Y6124336D01*
X6293826Y6129634D01*
X6274900Y6132126D01*
X6189900D01*
X6170974Y6129634D01*
X6153337Y6122329D01*
X6138192Y6110708D01*
X6126572Y6095563D01*
X6119266Y6077927D01*
X6116775Y6059000D01*
Y5934000D01*
X6119266Y5915074D01*
X6126572Y5897437D01*
X6138192Y5882292D01*
X6153337Y5870672D01*
X6170974Y5863366D01*
X6189900Y5860874D01*
X6274900D01*
X6293826Y5863366D01*
X6306616Y5868664D01*
X6321617Y5861227D01*
Y5645548D01*
X6306616Y5635525D01*
X6301848Y5637500D01*
X6282952D01*
X6279797Y5636193D01*
X6273669Y5650989D01*
X6260307Y5664351D01*
X6242849Y5671583D01*
X6223952D01*
X6206494Y5664351D01*
X6193132Y5650989D01*
X6185901Y5633531D01*
Y5614634D01*
X6189842Y5605119D01*
X6070669Y5485946D01*
X6056811Y5491686D01*
Y5521434D01*
X6053706Y5537041D01*
X6064577Y5547772D01*
X6069307Y5549732D01*
X6082669Y5563094D01*
X6089900Y5580552D01*
Y5599448D01*
X6082669Y5616906D01*
X6069307Y5630268D01*
X6051848Y5637500D01*
X6032952D01*
X6015494Y5630268D01*
X6002132Y5616906D01*
X6000298Y5612478D01*
X5985586Y5609552D01*
X5897896Y5697242D01*
X5884665Y5706083D01*
X5869058Y5709187D01*
X5869057Y5709187D01*
X5833263D01*
X5833262Y5709187D01*
X5817655Y5706083D01*
X5804424Y5697242D01*
X5780699Y5673517D01*
X5777410Y5672155D01*
X5777222Y5672117D01*
X5777062Y5672010D01*
X5764485Y5666801D01*
X5751123Y5653439D01*
X5743891Y5635981D01*
Y5617084D01*
X5751123Y5599626D01*
X5764485Y5586264D01*
X5781943Y5579033D01*
X5800839D01*
X5818297Y5586264D01*
X5821108Y5589074D01*
X5824547Y5585635D01*
X5837124Y5580425D01*
X5837284Y5580319D01*
X5837473Y5580281D01*
X5840762Y5578919D01*
X5940244Y5479437D01*
Y5185622D01*
X5936751Y5183289D01*
X5917855D01*
X5900397Y5176057D01*
X5887035Y5162696D01*
X5879804Y5145237D01*
Y5126341D01*
X5887035Y5108883D01*
X5900397Y5095521D01*
X5917855Y5088289D01*
X5936751D01*
X5940244Y5085956D01*
Y4103385D01*
X5940244Y4103384D01*
X5943348Y4087777D01*
X5952189Y4074546D01*
X6050907Y3975828D01*
Y3937983D01*
X6035906Y3928327D01*
X6029639Y3930923D01*
X6013650Y3933028D01*
X6002641D01*
X6002399Y3934861D01*
Y3937899D01*
X5998311Y3953159D01*
X5990411Y3966841D01*
X5979240Y3978012D01*
X5965559Y3985911D01*
X5950299Y3990000D01*
X5934500D01*
X5919241Y3985911D01*
X5905559Y3978012D01*
X5894388Y3966841D01*
X5886489Y3953159D01*
X5882400Y3937899D01*
Y3922101D01*
X5886489Y3906841D01*
X5893284Y3895071D01*
Y3891603D01*
X5891477Y3887239D01*
X5889372Y3871250D01*
Y3768750D01*
X5891477Y3752761D01*
X5897648Y3737861D01*
X5907466Y3725066D01*
X5920261Y3715248D01*
X5935161Y3709077D01*
X5951150Y3706972D01*
X6013650D01*
X6029639Y3709077D01*
X6035906Y3711673D01*
X6050907Y3702017D01*
Y3510001D01*
X6050906Y3510000D01*
X6054011Y3494393D01*
X6062852Y3481162D01*
X6215155Y3328858D01*
X6210093Y3312707D01*
X6198170Y3307769D01*
X6184808Y3294407D01*
X6177577Y3276948D01*
Y3258052D01*
X6179246Y3254021D01*
X6171449Y3246224D01*
X6166241Y3233649D01*
X6166133Y3233487D01*
X6166095Y3233297D01*
X6164733Y3230010D01*
X6143562Y3208838D01*
X6134721Y3195607D01*
X6131616Y3180000D01*
X6131617Y3179999D01*
Y3060000D01*
Y2845663D01*
X6130254Y2842374D01*
X6130148Y2842214D01*
X6130110Y2842025D01*
X6124900Y2829448D01*
Y2810552D01*
X6130110Y2797975D01*
X6130148Y2797786D01*
X6130254Y2797626D01*
X6131617Y2794337D01*
Y2624061D01*
X6131616Y2624059D01*
X6134721Y2608452D01*
X6134900Y2608184D01*
Y2600552D01*
X6142132Y2583094D01*
X6155494Y2569732D01*
X6172952Y2562500D01*
X6178077D01*
X6235264Y2505314D01*
X6228902Y2490462D01*
X6213841Y2484224D01*
X6200479Y2470862D01*
X6193248Y2453404D01*
Y2434507D01*
X6200479Y2417049D01*
X6213841Y2403687D01*
X6231299Y2396456D01*
X6250196D01*
X6267654Y2403687D01*
X6281016Y2417049D01*
X6287254Y2432110D01*
X6302106Y2438472D01*
X6352361Y2388217D01*
X6350981Y2370626D01*
X6344548Y2364193D01*
X6335707Y2350962D01*
X6332603Y2335355D01*
X6332603Y2335354D01*
Y2137482D01*
X6331241Y2134193D01*
X6331134Y2134033D01*
X6331096Y2133844D01*
X6325887Y2121267D01*
Y2102370D01*
X6331096Y2089793D01*
X6331134Y2089605D01*
X6331241Y2089445D01*
X6332603Y2086156D01*
Y1919015D01*
X6332603Y1919014D01*
X6335707Y1903407D01*
X6344548Y1890176D01*
X6385415Y1849308D01*
X6386778Y1846019D01*
X6386815Y1845831D01*
X6386922Y1845671D01*
X6390110Y1837975D01*
X6390147Y1837786D01*
X6390254Y1837626D01*
X6391617Y1834337D01*
Y1708416D01*
X6341578Y1658378D01*
X6338290Y1657016D01*
X6338101Y1656978D01*
X6337941Y1656871D01*
X6325364Y1651662D01*
X6312002Y1638300D01*
X6304771Y1620842D01*
Y1609336D01*
X6299274Y1603458D01*
X6291935Y1598307D01*
X6290913Y1598017D01*
X6274900Y1600126D01*
X6189900D01*
X6170974Y1597634D01*
X6153337Y1590329D01*
X6138192Y1578708D01*
X6126572Y1563563D01*
X6119266Y1545927D01*
X6116775Y1527000D01*
Y1402000D01*
X6119266Y1383073D01*
X6120080Y1381109D01*
X6110980Y1367491D01*
X6105232D01*
X6096132Y1381109D01*
X6096405Y1381768D01*
X6099069Y1402000D01*
Y1454500D01*
X5857731D01*
Y1402000D01*
X5860395Y1381768D01*
X5860668Y1381109D01*
X5851568Y1367491D01*
X5845820D01*
X5836720Y1381109D01*
X5837534Y1383073D01*
X5840025Y1402000D01*
Y1527000D01*
X5837534Y1545927D01*
X5830228Y1563563D01*
X5818608Y1578708D01*
X5803463Y1590329D01*
X5785826Y1597634D01*
X5766900Y1600126D01*
X5681900D01*
X5662974Y1597634D01*
X5645337Y1590329D01*
X5630192Y1578708D01*
X5618572Y1563563D01*
X5611266Y1545927D01*
X5608775Y1527000D01*
Y1402000D01*
X5611266Y1383073D01*
X5614286Y1375784D01*
X5604574Y1361249D01*
X5590226D01*
X5580514Y1375784D01*
X5583534Y1383073D01*
X5586025Y1402000D01*
Y1527000D01*
X5583534Y1545927D01*
X5576228Y1563563D01*
X5564608Y1578708D01*
X5549463Y1590329D01*
X5531826Y1597634D01*
X5512900Y1600126D01*
X5427900D01*
X5408974Y1597634D01*
X5398184Y1593164D01*
X5383184Y1601773D01*
Y1724303D01*
X5395452Y1732500D01*
X5414348D01*
X5431807Y1739732D01*
X5445168Y1753094D01*
X5452400Y1770552D01*
Y1789448D01*
X5445168Y1806906D01*
X5431807Y1820268D01*
X5414348Y1827500D01*
X5397811D01*
X5394764Y1828021D01*
X5381593Y1837996D01*
X5380079Y1845607D01*
X5371238Y1858839D01*
X5339385Y1890692D01*
X5338023Y1893981D01*
X5337985Y1894169D01*
X5337878Y1894329D01*
X5334690Y1902025D01*
X5334653Y1902214D01*
X5334546Y1902374D01*
X5333184Y1905663D01*
Y1997327D01*
X5386231Y2050375D01*
X5389520Y2051737D01*
X5389709Y2051775D01*
X5389869Y2051882D01*
X5402446Y2057091D01*
X5415808Y2070453D01*
X5421282Y2083669D01*
X5436880Y2085164D01*
X5436900Y2085160D01*
X5437887Y2082777D01*
X5446703Y2071288D01*
X5458192Y2062472D01*
X5471571Y2056931D01*
X5485929Y2055040D01*
X5500287Y2056931D01*
X5513666Y2062472D01*
X5519748Y2067139D01*
X5534748Y2060186D01*
Y1946870D01*
X5534747Y1946869D01*
X5537852Y1931262D01*
X5546693Y1918031D01*
X5662691Y1802033D01*
X5662691Y1802032D01*
X5675923Y1793191D01*
X5691530Y1790087D01*
X5704073D01*
X5707361Y1788725D01*
X5707521Y1788618D01*
X5707710Y1788580D01*
X5720287Y1783371D01*
X5739184D01*
X5750657Y1788123D01*
X5750689Y1788045D01*
X5764051Y1774683D01*
X5781509Y1767452D01*
X5800405D01*
X5817864Y1774683D01*
X5831226Y1788045D01*
X5838457Y1805503D01*
Y1824400D01*
X5831226Y1841858D01*
X5828871Y1844213D01*
Y1844313D01*
X5825766Y1859920D01*
X5816926Y1873151D01*
X5816925Y1873152D01*
X5781238Y1908838D01*
X5779643Y1909904D01*
X5783826Y1916164D01*
X5787706Y1935673D01*
X5783826Y1955182D01*
X5772775Y1971721D01*
X5739549Y2004947D01*
Y2196251D01*
X5746499Y2199551D01*
X5754549Y2200849D01*
X5766200Y2189198D01*
X5783658Y2181967D01*
X5802554D01*
X5820012Y2189198D01*
X5833374Y2202560D01*
X5836285Y2209587D01*
X5836536Y2209872D01*
X5837154Y2211678D01*
X5837345Y2211970D01*
X5871483Y2246108D01*
X5871484Y2246109D01*
X5880325Y2259340D01*
X5883429Y2274947D01*
X5883429Y2274948D01*
Y2743409D01*
X5894594D01*
X5912052Y2750641D01*
X5925414Y2764003D01*
X5932645Y2781461D01*
Y2800357D01*
X5925414Y2817816D01*
X5912052Y2831177D01*
X5894594Y2838409D01*
X5883429D01*
Y3162501D01*
X5894594D01*
X5912052Y3169732D01*
X5925414Y3183094D01*
X5932645Y3200552D01*
Y3219449D01*
X5925414Y3236907D01*
X5912052Y3250269D01*
X5894594Y3257500D01*
X5883429D01*
Y3449754D01*
X5880325Y3465362D01*
X5871484Y3478593D01*
X5871483Y3478593D01*
X5656276Y3693800D01*
X5663283Y3708007D01*
X5671150Y3706972D01*
X5733650D01*
X5749640Y3709077D01*
X5764539Y3715248D01*
X5777334Y3725066D01*
X5787152Y3737861D01*
X5793323Y3752761D01*
X5795429Y3768750D01*
Y3871250D01*
X5793323Y3887239D01*
X5787152Y3902139D01*
X5777334Y3914934D01*
X5764539Y3924752D01*
X5749640Y3930923D01*
X5733650Y3933028D01*
X5729231D01*
X5728133Y3937126D01*
X5720234Y3950808D01*
X5709062Y3961979D01*
X5695381Y3969879D01*
X5680121Y3973967D01*
X5664323D01*
X5658184Y3972323D01*
X5643184Y3982835D01*
Y4020828D01*
X5658184Y4027042D01*
X5665494Y4019732D01*
X5682952Y4012500D01*
X5701848D01*
X5719307Y4019732D01*
X5732668Y4033094D01*
X5739900Y4050552D01*
Y4069448D01*
X5732668Y4086906D01*
X5719307Y4100268D01*
X5701848Y4107500D01*
X5682952D01*
X5665494Y4100268D01*
X5658184Y4092958D01*
X5643184Y4099172D01*
Y4546609D01*
X5645044Y4549393D01*
X5648148Y4565000D01*
Y5435036D01*
X5645044Y5450643D01*
X5652275Y5466819D01*
X5659306Y5469732D01*
X5672668Y5483094D01*
X5679900Y5500552D01*
Y5519448D01*
X5672668Y5536907D01*
X5659306Y5550269D01*
X5641848Y5557500D01*
X5622952D01*
X5605493Y5550269D01*
X5592132Y5536907D01*
X5589862Y5531428D01*
X5572168Y5527908D01*
X5479790Y5620287D01*
X5479900Y5620552D01*
Y5639448D01*
X5472669Y5656906D01*
X5459307Y5670268D01*
X5441848Y5677500D01*
X5422952D01*
X5409688Y5672006D01*
X5409169Y5672524D01*
X5391711Y5679756D01*
X5372814D01*
X5355356Y5672524D01*
X5341994Y5659162D01*
X5334763Y5641704D01*
Y5622808D01*
X5341994Y5605349D01*
X5345068Y5602276D01*
X5347112Y5592002D01*
X5355952Y5578771D01*
X5490416Y5444308D01*
X5489101Y5428699D01*
X5487530Y5425980D01*
X5482464Y5422093D01*
X5453174Y5392803D01*
X5444358Y5381314D01*
X5438816Y5367934D01*
X5436926Y5353576D01*
Y4743415D01*
X5435035Y4742152D01*
X5416139D01*
X5398680Y4734921D01*
X5385318Y4721559D01*
X5378087Y4704101D01*
Y4685204D01*
X5385318Y4667746D01*
X5396941Y4656123D01*
X5397895Y4639709D01*
X5338246Y4580059D01*
X5329430Y4568570D01*
X5323888Y4555191D01*
X5321998Y4540833D01*
X5323888Y4526475D01*
X5329430Y4513096D01*
X5338246Y4501607D01*
X5349735Y4492791D01*
X5363114Y4487249D01*
X5377472Y4485359D01*
X5391830Y4487249D01*
X5405209Y4492791D01*
X5416698Y4501607D01*
X5497759Y4582667D01*
X5511617Y4576927D01*
Y3680001D01*
X5511616Y3680000D01*
X5514721Y3664393D01*
X5523562Y3651162D01*
X5765965Y3408758D01*
Y3258393D01*
X5750965Y3255409D01*
X5747929Y3262740D01*
X5734567Y3276102D01*
X5717109Y3283333D01*
X5698212D01*
X5680754Y3276102D01*
X5667392Y3262740D01*
X5660161Y3245282D01*
Y3226385D01*
X5667392Y3208927D01*
X5680754Y3195565D01*
X5698212Y3188333D01*
X5717109D01*
X5734567Y3195565D01*
X5747929Y3208927D01*
X5750965Y3216257D01*
X5765965Y3213274D01*
Y2901708D01*
X5764946Y2901062D01*
X5750965Y2897109D01*
X5740602Y2907472D01*
X5723144Y2914704D01*
X5704248D01*
X5686789Y2907472D01*
X5673428Y2894110D01*
X5666196Y2876652D01*
Y2857756D01*
X5673428Y2840297D01*
X5686789Y2826935D01*
X5704248Y2819704D01*
X5723144D01*
X5740602Y2826935D01*
X5750965Y2837298D01*
X5764946Y2833345D01*
X5765965Y2832700D01*
Y2382715D01*
X5761833Y2379177D01*
X5750965Y2375869D01*
X5724617Y2402217D01*
X5485207Y2641627D01*
X5490036Y2658011D01*
X5501396Y2662716D01*
X5514758Y2676078D01*
X5521989Y2693536D01*
Y2712433D01*
X5514758Y2729891D01*
X5512925Y2731724D01*
X5522391Y2741189D01*
X5529622Y2758647D01*
Y2777544D01*
X5522391Y2795002D01*
X5509029Y2808364D01*
X5491570Y2815595D01*
X5472674D01*
X5455216Y2808364D01*
X5441854Y2795002D01*
X5434622Y2777544D01*
Y2758647D01*
X5441854Y2741189D01*
X5443686Y2739356D01*
X5434221Y2729891D01*
X5429516Y2718532D01*
X5413131Y2713702D01*
X5338957Y2787877D01*
Y3210489D01*
X5337067Y3224847D01*
X5331525Y3238226D01*
X5324847Y3246928D01*
X5327752Y3256775D01*
X5331433Y3261928D01*
X5332400D01*
Y3380000D01*
Y3498072D01*
X5311150D01*
X5293855Y3495795D01*
X5287182Y3493031D01*
X5272182Y3503053D01*
Y4906503D01*
X5283347D01*
X5300805Y4913734D01*
X5314167Y4927096D01*
X5321399Y4944554D01*
Y4963451D01*
X5314167Y4980909D01*
X5300805Y4994271D01*
X5283347Y5001502D01*
X5272182D01*
Y5415958D01*
X5272182Y5415959D01*
X5269078Y5431566D01*
X5260237Y5444798D01*
X5260236Y5444798D01*
X5139324Y5565711D01*
X5137962Y5568999D01*
X5137924Y5569188D01*
X5137817Y5569348D01*
X5132608Y5581925D01*
X5119246Y5595287D01*
X5101788Y5602518D01*
X5082891D01*
X5065433Y5595287D01*
X5055423Y5585277D01*
X5050714Y5589986D01*
X5033256Y5597217D01*
X5014359D01*
X4996901Y5589986D01*
X4983539Y5576624D01*
X4976308Y5559166D01*
Y5540269D01*
X4983539Y5522811D01*
X4996901Y5509449D01*
X5009478Y5504240D01*
X5009638Y5504133D01*
X5009827Y5504095D01*
X5013115Y5502733D01*
X5153684Y5362165D01*
Y3528392D01*
X5138683Y3519178D01*
X5128526Y3520515D01*
X5114168Y3518625D01*
X5100789Y3513083D01*
X5089299Y3504267D01*
X5078061Y3493029D01*
X5031150D01*
X5015161Y3490923D01*
X5000261Y3484752D01*
X4987466Y3474934D01*
X4977648Y3462139D01*
X4971477Y3447239D01*
X4969372Y3431250D01*
Y3328750D01*
X4971477Y3312761D01*
X4977648Y3297861D01*
X4987466Y3285066D01*
X5000261Y3275248D01*
X5015161Y3269077D01*
X5031150Y3266972D01*
X5086926D01*
Y2743863D01*
X5071926Y2737649D01*
X5069307Y2740268D01*
X5051848Y2747500D01*
X5032952D01*
X5015494Y2740268D01*
X5002132Y2726906D01*
X4994900Y2709448D01*
Y2690552D01*
X5002132Y2673093D01*
X5015494Y2659732D01*
X5032952Y2652500D01*
X5051848D01*
X5069307Y2659732D01*
X5071926Y2662351D01*
X5086926Y2656137D01*
Y2516838D01*
X5088816Y2502480D01*
X5094358Y2489101D01*
X5103174Y2477612D01*
X5121319Y2459466D01*
X5115141Y2444431D01*
X5100523Y2438376D01*
X5087162Y2425014D01*
X5079930Y2407556D01*
Y2388659D01*
X5087162Y2371201D01*
X5100523Y2357839D01*
X5117982Y2350608D01*
X5136878D01*
X5154336Y2357839D01*
X5167698Y2371201D01*
X5173753Y2385819D01*
X5188788Y2391997D01*
X5393353Y2187432D01*
X5391802Y2179636D01*
X5378441Y2166274D01*
X5371209Y2148816D01*
Y2144860D01*
X5366091D01*
X5348633Y2137628D01*
X5335271Y2124266D01*
X5330061Y2111689D01*
X5329955Y2111529D01*
X5329917Y2111340D01*
X5328555Y2108052D01*
X5263562Y2043059D01*
X5254887Y2030076D01*
X5254720Y2029827D01*
X5251234Y2026958D01*
X5249258Y2025834D01*
X5237997Y2022639D01*
X5225855Y2027668D01*
X5206958D01*
X5189500Y2020437D01*
X5176138Y2007075D01*
X5168907Y1989617D01*
Y1970720D01*
X5176138Y1953262D01*
X5189500Y1939900D01*
X5206958Y1932669D01*
X5225855D01*
X5236616Y1937126D01*
X5251617Y1928605D01*
Y1905663D01*
X5250254Y1902374D01*
X5250147Y1902214D01*
X5250110Y1902025D01*
X5244900Y1889448D01*
Y1870552D01*
X5252132Y1853094D01*
X5265494Y1839732D01*
X5270639Y1837600D01*
Y1821364D01*
X5267994Y1820268D01*
X5254632Y1806906D01*
X5247400Y1789448D01*
Y1781850D01*
X5232400Y1778866D01*
X5230202Y1784173D01*
X5216840Y1797535D01*
X5199382Y1804766D01*
X5180485D01*
X5163027Y1797535D01*
X5149665Y1784173D01*
X5142434Y1766715D01*
Y1747818D01*
X5149665Y1730360D01*
X5163027Y1716998D01*
X5180485Y1709766D01*
X5199382D01*
X5216840Y1716998D01*
X5230202Y1730360D01*
X5237434Y1747818D01*
Y1755416D01*
X5252433Y1758400D01*
X5254632Y1753094D01*
X5267994Y1739732D01*
X5285452Y1732500D01*
X5301617D01*
Y1603773D01*
X5286616Y1593993D01*
X5277826Y1597634D01*
X5258900Y1600126D01*
X5210989D01*
X5202656Y1612597D01*
X5203829Y1615430D01*
Y1634327D01*
X5196598Y1651785D01*
X5183236Y1665147D01*
X5165778Y1672378D01*
X5146881D01*
X5129423Y1665147D01*
X5116061Y1651785D01*
X5108830Y1634327D01*
Y1615430D01*
X5116061Y1597972D01*
X5118925Y1595108D01*
X5122192Y1578708D01*
X5119385Y1575049D01*
X5110572Y1563563D01*
X5103266Y1545927D01*
X5100775Y1527000D01*
Y1402000D01*
X5103266Y1383073D01*
X5106286Y1375784D01*
X5096574Y1361249D01*
X5082226D01*
X5072514Y1375784D01*
X5075534Y1383073D01*
X5078025Y1402000D01*
Y1527000D01*
X5075534Y1545927D01*
X5068228Y1563563D01*
X5056608Y1578708D01*
X5041463Y1590329D01*
X5023826Y1597634D01*
X5004900Y1600126D01*
X4919900D01*
X4900974Y1597634D01*
X4883337Y1590329D01*
X4868192Y1578708D01*
X4856572Y1563563D01*
X4849266Y1545927D01*
X4846775Y1527000D01*
Y1402000D01*
X4849266Y1383073D01*
X4852286Y1375784D01*
X4842574Y1361249D01*
X4828226D01*
X4818514Y1375784D01*
X4821534Y1383073D01*
X4824025Y1402000D01*
Y1527000D01*
X4821534Y1545927D01*
X4814228Y1563563D01*
X4802608Y1578708D01*
X4787463Y1590329D01*
X4769826Y1597634D01*
X4750900Y1600126D01*
X4665900D01*
X4646974Y1597634D01*
X4629337Y1590329D01*
X4614192Y1578708D01*
X4602572Y1563563D01*
X4595266Y1545927D01*
X4592775Y1527000D01*
Y1402000D01*
X4595266Y1383073D01*
X4598286Y1375784D01*
X4588574Y1361249D01*
X4574226D01*
X4564514Y1375784D01*
X4567534Y1383073D01*
X4570025Y1402000D01*
Y1527000D01*
X4567534Y1545927D01*
X4560228Y1563563D01*
X4548608Y1578708D01*
X4533463Y1590329D01*
X4515826Y1597634D01*
X4496900Y1600126D01*
X4411900D01*
X4392974Y1597634D01*
X4375337Y1590329D01*
X4360192Y1578708D01*
X4348572Y1563563D01*
X4341266Y1545927D01*
X4338775Y1527000D01*
Y1402000D01*
X4341266Y1383073D01*
X4344286Y1375784D01*
X4334574Y1361249D01*
X4320226D01*
X4310514Y1375784D01*
X4313534Y1383073D01*
X4316025Y1402000D01*
Y1527000D01*
X4313534Y1545927D01*
X4306228Y1563563D01*
X4294608Y1578708D01*
X4279463Y1590329D01*
X4261826Y1597634D01*
X4242900Y1600126D01*
X4157900D01*
X4138974Y1597634D01*
X4121337Y1590329D01*
X4106192Y1578708D01*
X4094572Y1563563D01*
X4087266Y1545927D01*
X4084775Y1527000D01*
Y1402000D01*
X4087266Y1383073D01*
X4090286Y1375784D01*
X4080574Y1361249D01*
X4066226D01*
X4056514Y1375784D01*
X4059534Y1383073D01*
X4062025Y1402000D01*
Y1527000D01*
X4059534Y1545927D01*
X4052228Y1563563D01*
X4040608Y1578708D01*
X4025463Y1590329D01*
X4007826Y1597634D01*
X3988900Y1600126D01*
X3903900D01*
X3884974Y1597634D01*
X3867337Y1590329D01*
X3852192Y1578708D01*
X3840572Y1563563D01*
X3833266Y1545927D01*
X3830775Y1527000D01*
Y1402000D01*
X3833266Y1383073D01*
X3836286Y1375784D01*
X3826574Y1361249D01*
X3812226D01*
X3802514Y1375784D01*
X3805534Y1383073D01*
X3808025Y1402000D01*
Y1527000D01*
X3805534Y1545927D01*
X3798228Y1563563D01*
X3786608Y1578708D01*
X3771463Y1590329D01*
X3753826Y1597634D01*
X3734900Y1600126D01*
X3649900D01*
X3630974Y1597634D01*
X3613337Y1590329D01*
X3598192Y1578708D01*
X3586572Y1563563D01*
X3579266Y1545927D01*
X3576775Y1527000D01*
Y1402000D01*
X3579266Y1383073D01*
X3582286Y1375784D01*
X3572574Y1361249D01*
X3558226D01*
X3548514Y1375784D01*
X3551534Y1383073D01*
X3554025Y1402000D01*
Y1527000D01*
X3551534Y1545927D01*
X3544228Y1563563D01*
X3532608Y1578708D01*
X3517463Y1590329D01*
X3499826Y1597634D01*
X3480900Y1600126D01*
X3423184D01*
Y1756377D01*
X3535523Y1868717D01*
X3763222D01*
X3771197Y1853717D01*
X3766352Y1842021D01*
Y1823125D01*
X3773584Y1805667D01*
X3786946Y1792305D01*
X3804404Y1785073D01*
X3823300D01*
X3840759Y1792305D01*
X3854121Y1805667D01*
X3861352Y1823125D01*
Y1842021D01*
X3856508Y1853717D01*
X3864482Y1868717D01*
X4281899D01*
X4281900Y1868717D01*
X4297508Y1871821D01*
X4310739Y1880662D01*
X4649716Y2219640D01*
X4664428Y2216714D01*
X4665872Y2213228D01*
X4679234Y2199866D01*
X4682126Y2198668D01*
Y2182432D01*
X4677911Y2180686D01*
X4664549Y2167324D01*
X4657317Y2149866D01*
Y2130970D01*
X4664549Y2113511D01*
X4677911Y2100149D01*
X4695369Y2092918D01*
X4714265D01*
X4731724Y2100149D01*
X4745086Y2113511D01*
X4752317Y2130970D01*
Y2149866D01*
X4745086Y2167324D01*
X4731724Y2180686D01*
X4728832Y2181884D01*
Y2198120D01*
X4733047Y2199866D01*
X4746409Y2213228D01*
X4753640Y2230686D01*
Y2249582D01*
X4746409Y2267041D01*
X4733047Y2280403D01*
X4729561Y2281847D01*
X4726635Y2296558D01*
X4771238Y2341161D01*
X4771238Y2341162D01*
X4780079Y2354393D01*
X4783183Y2370000D01*
Y2434337D01*
X4784546Y2437626D01*
X4784653Y2437786D01*
X4784690Y2437975D01*
X4789900Y2450552D01*
Y2469448D01*
X4782668Y2486906D01*
X4769306Y2500268D01*
X4751848Y2507500D01*
X4732952D01*
X4715493Y2500268D01*
X4702132Y2486906D01*
X4694900Y2469448D01*
Y2450552D01*
X4698865Y2440980D01*
X4689266Y2430355D01*
X4686616Y2429501D01*
X4676758Y2433584D01*
X4662400Y2435474D01*
X4648042Y2433584D01*
X4634663Y2428042D01*
X4623174Y2419226D01*
X4218922Y2014975D01*
X3924041D01*
X3923687Y2015061D01*
X3915689Y2015398D01*
X3910500Y2016130D01*
X3906945Y2017078D01*
X3904935Y2017944D01*
X3904149Y2018458D01*
X3904025Y2018580D01*
X3903969Y2018664D01*
X3903683Y2019350D01*
X3903380Y2020724D01*
Y2242696D01*
X3899499Y2262205D01*
X3888448Y2278743D01*
X3822490Y2344701D01*
X3805951Y2355752D01*
X3786443Y2359633D01*
X3766934Y2355752D01*
X3750395Y2344701D01*
X3745912Y2337993D01*
X3743479Y2335559D01*
X3742162Y2332380D01*
X3739344Y2328162D01*
X3738354Y2323186D01*
X3736248Y2318101D01*
Y2312597D01*
X3735463Y2308653D01*
X3736248Y2304709D01*
Y2299205D01*
X3738354Y2294120D01*
X3739344Y2289144D01*
X3742162Y2284926D01*
X3743479Y2281747D01*
X3745912Y2279313D01*
X3750395Y2272605D01*
X3755569Y2267430D01*
X3752542Y2249244D01*
X3742478Y2239181D01*
X3737145Y2226304D01*
X3727118Y2230457D01*
X3708221D01*
X3690763Y2223225D01*
X3677401Y2209863D01*
X3670170Y2192405D01*
Y2173509D01*
X3677401Y2156051D01*
X3690763Y2142689D01*
X3708221Y2135457D01*
X3720816D01*
Y2131007D01*
X3728047Y2113549D01*
X3741409Y2100187D01*
X3758868Y2092956D01*
X3777764D01*
X3786420Y2096541D01*
X3801420Y2086787D01*
Y2020723D01*
X3801117Y2019350D01*
X3800831Y2018664D01*
X3800775Y2018580D01*
X3800650Y2018458D01*
X3799865Y2017944D01*
X3797855Y2017078D01*
X3794299Y2016130D01*
X3789111Y2015398D01*
X3781113Y2015061D01*
X3780759Y2014975D01*
X3466482D01*
X3452124Y2013085D01*
X3438745Y2007543D01*
X3427256Y1998727D01*
X3342408Y1913879D01*
X3342040Y1913649D01*
X3335937Y1907919D01*
X3331260Y1904138D01*
X3327536Y1901656D01*
X3326276Y1901011D01*
X3258644Y1968642D01*
X3260257Y1973829D01*
X3266000Y1982500D01*
X3281848D01*
X3299307Y1989732D01*
X3311793Y2002218D01*
X3322005Y2009037D01*
X3325494Y2009732D01*
X3342952Y2002500D01*
X3361848D01*
X3379306Y2009732D01*
X3392668Y2023093D01*
X3399900Y2040552D01*
Y2059448D01*
X3392668Y2076906D01*
X3379306Y2090268D01*
X3361848Y2097500D01*
X3342952D01*
X3330733Y2092439D01*
X3315733Y2100106D01*
Y2800000D01*
X3312434Y2816583D01*
X3303041Y2830641D01*
X3095732Y3037949D01*
Y3820000D01*
X3092434Y3836583D01*
X3083041Y3850641D01*
X2745732Y4187949D01*
Y5722051D01*
X2833041Y5809359D01*
X2842434Y5823417D01*
X2845732Y5840000D01*
Y5856757D01*
X2860733Y5866780D01*
X2868974Y5863366D01*
X2887900Y5860874D01*
X2972900D01*
X2991826Y5863366D01*
X3009463Y5870672D01*
X3024608Y5882292D01*
X3036228Y5897437D01*
X3043534Y5915074D01*
X3046025Y5934000D01*
Y6059000D01*
X3043534Y6077927D01*
X3036228Y6095563D01*
X3024608Y6110708D01*
X3009463Y6122329D01*
X2991826Y6129634D01*
X2972900Y6132126D01*
X2887900D01*
X2872491Y6130097D01*
X2865794Y6139881D01*
X2864673Y6143492D01*
X2867480Y6146299D01*
X2870850Y6149413D01*
X2873675Y6151674D01*
X2876328Y6153558D01*
X2878475Y6154876D01*
X2880026Y6155666D01*
X2880489Y6155850D01*
X2887900Y6154874D01*
X2972900D01*
X2991826Y6157366D01*
X3009463Y6164671D01*
X3024608Y6176292D01*
X3036228Y6191437D01*
X3043534Y6209073D01*
X3046025Y6228000D01*
Y6353000D01*
X3043534Y6371927D01*
X3036228Y6389563D01*
X3026643Y6402056D01*
X3029372Y6411590D01*
X3033156Y6417056D01*
X3081644D01*
X3085428Y6411590D01*
X3088157Y6402056D01*
X3078572Y6389563D01*
X3071266Y6371927D01*
X3068775Y6353000D01*
Y6228000D01*
X3071266Y6209073D01*
X3078572Y6191437D01*
X3090192Y6176292D01*
X3105337Y6164671D01*
X3122974Y6157366D01*
X3141900Y6154874D01*
X3226900D01*
X3245826Y6157366D01*
X3263463Y6164671D01*
X3278608Y6176292D01*
X3290228Y6191437D01*
X3297534Y6209073D01*
X3300025Y6228000D01*
Y6353000D01*
X3297534Y6371927D01*
X3290228Y6389563D01*
X3280643Y6402056D01*
X3283372Y6411590D01*
X3287156Y6417056D01*
X3335644D01*
X3339428Y6411590D01*
X3342157Y6402056D01*
X3332572Y6389563D01*
X3325266Y6371927D01*
X3322775Y6353000D01*
Y6228000D01*
X3325266Y6209073D01*
X3332572Y6191437D01*
X3344192Y6176292D01*
X3359337Y6164671D01*
X3376974Y6157366D01*
X3395900Y6154874D01*
X3480900D01*
X3499826Y6157366D01*
X3517463Y6164671D01*
X3532608Y6176292D01*
X3544228Y6191437D01*
X3551534Y6209073D01*
X3554025Y6228000D01*
Y6353000D01*
X3551534Y6371927D01*
X3544228Y6389563D01*
X3534643Y6402056D01*
X3537372Y6411590D01*
X3541156Y6417056D01*
X3589644D01*
X3593428Y6411590D01*
X3596157Y6402056D01*
X3586572Y6389563D01*
X3579266Y6371927D01*
X3576775Y6353000D01*
Y6228000D01*
X3579266Y6209073D01*
X3586572Y6191437D01*
X3598192Y6176292D01*
X3613337Y6164671D01*
X3630974Y6157366D01*
X3649900Y6154874D01*
X3734900D01*
X3753826Y6157366D01*
X3771463Y6164671D01*
X3786608Y6176292D01*
X3798228Y6191437D01*
X3805534Y6209073D01*
X3808025Y6228000D01*
Y6353000D01*
X3805534Y6371927D01*
X3798228Y6389563D01*
X3788643Y6402056D01*
X3791372Y6411590D01*
X3795156Y6417056D01*
X3843644D01*
X3847428Y6411590D01*
X3850157Y6402056D01*
X3840572Y6389563D01*
X3833266Y6371927D01*
X3830775Y6353000D01*
Y6228000D01*
X3833266Y6209073D01*
X3840572Y6191437D01*
X3852192Y6176292D01*
X3867337Y6164671D01*
X3884974Y6157366D01*
X3903900Y6154874D01*
X3988900D01*
X4007826Y6157366D01*
X4025463Y6164671D01*
X4040608Y6176292D01*
X4052228Y6191437D01*
X4059534Y6209073D01*
X4062025Y6228000D01*
Y6353000D01*
X4059534Y6371927D01*
X4052228Y6389563D01*
X4042643Y6402056D01*
X4045372Y6411590D01*
X4049156Y6417056D01*
X4097644D01*
X4101428Y6411590D01*
X4104157Y6402056D01*
X4094572Y6389563D01*
X4087266Y6371927D01*
X4084775Y6353000D01*
Y6228000D01*
X4087266Y6209073D01*
X4094572Y6191437D01*
X4106192Y6176292D01*
X4121337Y6164671D01*
X4138974Y6157366D01*
X4157900Y6154874D01*
X4242900D01*
X4261826Y6157366D01*
X4279463Y6164671D01*
X4294608Y6176292D01*
X4306228Y6191437D01*
X4313534Y6209073D01*
X4316025Y6228000D01*
Y6353000D01*
X4313534Y6371927D01*
X4306228Y6389563D01*
X4296643Y6402056D01*
X4299372Y6411590D01*
X4303156Y6417056D01*
X4351644D01*
X4355428Y6411590D01*
X4358157Y6402056D01*
X4348572Y6389563D01*
X4341266Y6371927D01*
X4338775Y6353000D01*
Y6228000D01*
X4341266Y6209073D01*
X4348572Y6191437D01*
X4360192Y6176292D01*
X4375337Y6164671D01*
X4392974Y6157366D01*
X4411900Y6154874D01*
X4496900D01*
X4515826Y6157366D01*
X4533463Y6164671D01*
X4548608Y6176292D01*
X4560228Y6191437D01*
X4567534Y6209073D01*
X4570025Y6228000D01*
Y6353000D01*
X4567534Y6371927D01*
X4560228Y6389563D01*
X4550643Y6402056D01*
X4553372Y6411590D01*
X4557156Y6417056D01*
X4605644D01*
X4609428Y6411590D01*
X4612157Y6402056D01*
X4602572Y6389563D01*
X4595266Y6371927D01*
X4592775Y6353000D01*
Y6228000D01*
X4595266Y6209073D01*
X4602572Y6191437D01*
X4614192Y6176292D01*
X4629337Y6164671D01*
X4646974Y6157366D01*
X4665900Y6154874D01*
X4750900D01*
X4769826Y6157366D01*
X4787463Y6164671D01*
X4802608Y6176292D01*
X4814228Y6191437D01*
X4821534Y6209073D01*
X4824025Y6228000D01*
Y6353000D01*
X4821534Y6371927D01*
X4814228Y6389563D01*
X4804643Y6402056D01*
X4807372Y6411590D01*
X4811156Y6417056D01*
X4859644D01*
X4863428Y6411590D01*
X4866157Y6402056D01*
X4856572Y6389563D01*
X4849266Y6371927D01*
X4846775Y6353000D01*
Y6228000D01*
X4849266Y6209073D01*
X4856572Y6191437D01*
X4868192Y6176292D01*
X4883337Y6164671D01*
X4900974Y6157366D01*
X4919900Y6154874D01*
X5004900D01*
X5023826Y6157366D01*
X5041463Y6164671D01*
X5056608Y6176292D01*
X5068228Y6191437D01*
X5075534Y6209073D01*
X5078025Y6228000D01*
Y6353000D01*
X5075534Y6371927D01*
X5068228Y6389563D01*
X5058643Y6402056D01*
X5061372Y6411590D01*
X5065156Y6417056D01*
X5113644D01*
X5117428Y6411590D01*
X5120157Y6402056D01*
X5110572Y6389563D01*
X5103266Y6371927D01*
X5100775Y6353000D01*
Y6228000D01*
X5103266Y6209073D01*
X5110572Y6191437D01*
X5122192Y6176292D01*
X5137337Y6164671D01*
X5154974Y6157366D01*
X5173900Y6154874D01*
X5258900D01*
X5277826Y6157366D01*
X5295463Y6164671D01*
X5310608Y6176292D01*
X5322228Y6191437D01*
X5329534Y6209073D01*
X5332025Y6228000D01*
Y6353000D01*
X5329534Y6371927D01*
X5322228Y6389563D01*
X5312643Y6402056D01*
X5315372Y6411590D01*
X5319156Y6417056D01*
X5367644D01*
X5371428Y6411590D01*
X5374157Y6402056D01*
X5364572Y6389563D01*
X5357266Y6371927D01*
X5354775Y6353000D01*
Y6228000D01*
X5357266Y6209073D01*
X5364572Y6191437D01*
X5376192Y6176292D01*
X5391337Y6164671D01*
X5408974Y6157366D01*
X5427900Y6154874D01*
X5512900D01*
X5531826Y6157366D01*
X5549463Y6164671D01*
X5564608Y6176292D01*
X5576228Y6191437D01*
X5583534Y6209073D01*
X5586025Y6228000D01*
Y6353000D01*
X5583534Y6371927D01*
X5576228Y6389563D01*
X5566643Y6402056D01*
X5569372Y6411590D01*
X5573156Y6417056D01*
X5621644D01*
X5625428Y6411590D01*
X5628157Y6402056D01*
X5618572Y6389563D01*
X5611266Y6371927D01*
X5608775Y6353000D01*
Y6228000D01*
X5611266Y6209073D01*
X5618572Y6191437D01*
X5630192Y6176292D01*
X5645337Y6164671D01*
X5662974Y6157366D01*
X5681900Y6154874D01*
X5766900D01*
X5785826Y6157366D01*
X5803463Y6164671D01*
X5818608Y6176292D01*
X5830228Y6191437D01*
X5837534Y6209073D01*
X5840025Y6228000D01*
Y6353000D01*
X5837534Y6371927D01*
X5830228Y6389563D01*
X5820643Y6402056D01*
X5823372Y6411590D01*
X5827156Y6417056D01*
X5875644D01*
X5879428Y6411590D01*
X5882157Y6402056D01*
X5872572Y6389563D01*
X5865266Y6371927D01*
X5862775Y6353000D01*
Y6228000D01*
X5865266Y6209073D01*
X5872572Y6191437D01*
X5884192Y6176292D01*
X5899337Y6164671D01*
X5916974Y6157366D01*
X5935900Y6154874D01*
X6020900D01*
X6039826Y6157366D01*
X6057463Y6164671D01*
X6072608Y6176292D01*
X6084228Y6191437D01*
X6091534Y6209073D01*
X6094025Y6228000D01*
Y6353000D01*
X6091534Y6371927D01*
X6084228Y6389563D01*
X6074643Y6402056D01*
X6077372Y6411590D01*
X6081156Y6417056D01*
X6129644D01*
X6133428Y6411590D01*
D02*
G37*
G36*
X2577428D02*
X2580157Y6402056D01*
X2570572Y6389563D01*
X2563266Y6371927D01*
X2560775Y6353000D01*
Y6228000D01*
X2563266Y6209073D01*
X2570572Y6191437D01*
X2582192Y6176292D01*
X2597337Y6164671D01*
X2614974Y6157366D01*
X2633900Y6154874D01*
X2718900D01*
X2737826Y6157366D01*
X2747530Y6161386D01*
X2759770Y6151341D01*
X2758585Y6136749D01*
X2744067Y6127049D01*
X2737826Y6129634D01*
X2718900Y6132126D01*
X2633900D01*
X2614974Y6129634D01*
X2597337Y6122329D01*
X2582192Y6110708D01*
X2570572Y6095563D01*
X2563266Y6077927D01*
X2560775Y6059000D01*
Y5934000D01*
X2563266Y5915074D01*
X2570572Y5897437D01*
X2579799Y5885411D01*
X2578393Y5869770D01*
X2576641Y5867645D01*
X2563657Y5854662D01*
X2556426Y5837204D01*
Y5818307D01*
X2563657Y5800849D01*
X2577019Y5787487D01*
X2594477Y5780256D01*
X2613374D01*
X2630832Y5787487D01*
X2644194Y5800849D01*
X2646622Y5806712D01*
X2662858D01*
X2664047Y5803843D01*
X2677408Y5790481D01*
X2679763Y5778644D01*
X2671759Y5770640D01*
X2662366Y5756583D01*
X2659068Y5740000D01*
Y4295155D01*
X2647527Y4291436D01*
X2644068Y4291215D01*
X2631382Y4303900D01*
X2613924Y4311132D01*
X2595027D01*
X2577569Y4303900D01*
X2564207Y4290539D01*
X2556976Y4273080D01*
Y4254184D01*
X2564207Y4236726D01*
X2577569Y4223364D01*
X2595027Y4216132D01*
X2613924D01*
X2631382Y4223364D01*
X2644068Y4236049D01*
X2647527Y4235828D01*
X2659068Y4232109D01*
Y4170000D01*
X2662366Y4153418D01*
X2671759Y4139360D01*
X3009068Y3802051D01*
Y3020000D01*
X3012366Y3003418D01*
X3021760Y2989360D01*
X3229068Y2782051D01*
Y2551383D01*
X3215210Y2545643D01*
X3197874Y2562978D01*
Y2685217D01*
X3195984Y2699575D01*
X3190442Y2712954D01*
X3181627Y2724443D01*
X2366843Y3539226D01*
X2355354Y3548042D01*
X2341975Y3553584D01*
X2327617Y3555474D01*
X2293080D01*
X2287407Y3558750D01*
X2272147Y3562839D01*
X2256349D01*
X2241089Y3558750D01*
X2227407Y3550851D01*
X2216236Y3539680D01*
X2208337Y3525998D01*
X2204248Y3510738D01*
Y3494940D01*
X2208337Y3479680D01*
X2216236Y3465998D01*
X2227407Y3454827D01*
X2241089Y3446928D01*
X2256349Y3442839D01*
X2272147D01*
X2278441Y3444526D01*
X2304639D01*
X3086926Y2662239D01*
Y2580284D01*
X3080826Y2577758D01*
X3069337Y2568942D01*
X2967103Y2466708D01*
X2958287Y2455218D01*
X2952745Y2441839D01*
X2950855Y2427481D01*
Y2130532D01*
X2860855Y2040532D01*
X2852038Y2029042D01*
X2846497Y2015663D01*
X2844606Y2001305D01*
X2846497Y1986947D01*
X2852038Y1973568D01*
X2860855Y1962079D01*
X2872344Y1953263D01*
X2885723Y1947721D01*
X2900081Y1945831D01*
X2914439Y1947721D01*
X2927818Y1953263D01*
X2939307Y1962079D01*
X3045556Y2068328D01*
X3054372Y2079817D01*
X3059914Y2093196D01*
X3061804Y2107554D01*
Y2404503D01*
X3130624Y2473324D01*
X3173174Y2430774D01*
X3184663Y2421958D01*
X3198042Y2416416D01*
X3212400Y2414526D01*
X3214067Y2414745D01*
X3229068Y2401747D01*
Y2049509D01*
X3224900Y2039448D01*
Y2023599D01*
X3216229Y2017857D01*
X3211042Y2016244D01*
X3187978Y2039308D01*
Y2102569D01*
X3189596Y2106475D01*
Y2125372D01*
X3182365Y2142830D01*
X3169003Y2156192D01*
X3151545Y2163423D01*
X3132648D01*
X3115190Y2156192D01*
X3101828Y2142830D01*
X3094597Y2125372D01*
Y2106475D01*
X3096215Y2102569D01*
Y2020304D01*
X3099708Y2002745D01*
X3100959Y2000872D01*
X3091015Y1988755D01*
X3090695Y1988888D01*
X3071799D01*
X3054340Y1981656D01*
X3040978Y1968294D01*
X3033747Y1950836D01*
Y1931939D01*
X3040978Y1914481D01*
X3054340Y1901119D01*
X3071799Y1893888D01*
X3090695D01*
X3108153Y1901119D01*
X3121515Y1914481D01*
X3128747Y1931939D01*
Y1947554D01*
X3138204Y1953615D01*
X3142605Y1954909D01*
X3261389Y1836124D01*
X3260746Y1834866D01*
X3258261Y1831139D01*
X3254482Y1826465D01*
X3248751Y1820360D01*
X3248522Y1819993D01*
X3197152Y1768623D01*
X3184436Y1777120D01*
X3190239Y1791131D01*
Y1810027D01*
X3183008Y1827485D01*
X3169646Y1840847D01*
X3152188Y1848079D01*
X3133291D01*
X3115833Y1840847D01*
X3102471Y1827485D01*
X3095240Y1810027D01*
Y1791131D01*
X3102471Y1773672D01*
X3115833Y1760310D01*
X3133291Y1753079D01*
X3152188D01*
X3157953Y1755467D01*
X3167418Y1743152D01*
X3162970Y1737334D01*
X3078832D01*
Y1751960D01*
X3071600Y1769419D01*
X3058238Y1782781D01*
X3040780Y1790012D01*
X3021883D01*
X3004425Y1782781D01*
X2991063Y1769419D01*
X2983832Y1751960D01*
Y1737334D01*
X2413088D01*
X2278106Y1872316D01*
X2277880Y1873159D01*
X2277444Y1873915D01*
Y1970564D01*
X2275553Y1984922D01*
X2270012Y1998301D01*
X2261196Y2009790D01*
X2058282Y2212704D01*
Y2647391D01*
X2054789Y2664949D01*
X2044843Y2679834D01*
X1884286Y2840391D01*
X1882668Y2844298D01*
X1869306Y2857660D01*
X1851848Y2864891D01*
X1832951D01*
X1815493Y2857660D01*
X1802131Y2844298D01*
X1794900Y2826840D01*
Y2807943D01*
X1802131Y2790485D01*
X1815493Y2777123D01*
X1819400Y2775505D01*
X1966519Y2628386D01*
Y2217412D01*
X1961438Y2210791D01*
X1955896Y2197412D01*
X1954005Y2183054D01*
X1955896Y2168696D01*
X1961438Y2155317D01*
X1970254Y2143828D01*
X2166495Y1947586D01*
Y1873915D01*
X2166058Y1873159D01*
X2161970Y1857899D01*
Y1842101D01*
X2166058Y1826841D01*
X2173958Y1813159D01*
X2185129Y1801988D01*
X2198810Y1794089D01*
X2199654Y1793863D01*
X2350884Y1642633D01*
X2362373Y1633817D01*
X2375752Y1628275D01*
X2390110Y1626385D01*
X3188842D01*
X3203200Y1628276D01*
X3216579Y1633817D01*
X3228068Y1642633D01*
X3326617Y1741182D01*
X3341617Y1734969D01*
Y1575351D01*
X3332572Y1563563D01*
X3325266Y1545927D01*
X3322775Y1527000D01*
Y1402000D01*
X3325266Y1383073D01*
X3332572Y1365437D01*
X3335900Y1361099D01*
X3333875Y1348838D01*
X3333875Y1348838D01*
X3273593Y1288556D01*
X3263463Y1296329D01*
X3245826Y1303634D01*
X3226900Y1306126D01*
X3141900D01*
X3122974Y1303634D01*
X3105337Y1296329D01*
X3090192Y1284708D01*
X3078572Y1269563D01*
X3071266Y1251927D01*
X3068775Y1233000D01*
Y1108000D01*
X3071266Y1089074D01*
X3078572Y1071437D01*
X3088157Y1058944D01*
X3085428Y1049410D01*
X3081644Y1043944D01*
X3033156D01*
X3029372Y1049410D01*
X3026643Y1058944D01*
X3036228Y1071437D01*
X3043534Y1089074D01*
X3046025Y1108000D01*
Y1233000D01*
X3043534Y1251927D01*
X3036228Y1269563D01*
X3024608Y1284708D01*
X3009463Y1296329D01*
X2991826Y1303634D01*
X2972900Y1306126D01*
X2887900D01*
X2868974Y1303634D01*
X2851337Y1296329D01*
X2836192Y1284708D01*
X2824572Y1269563D01*
X2817266Y1251927D01*
X2814775Y1233000D01*
Y1108000D01*
X2817266Y1089074D01*
X2824572Y1071437D01*
X2834157Y1058944D01*
X2831428Y1049410D01*
X2827644Y1043944D01*
X2779156D01*
X2775372Y1049410D01*
X2772643Y1058944D01*
X2782228Y1071437D01*
X2789534Y1089074D01*
X2792025Y1108000D01*
Y1233000D01*
X2789534Y1251927D01*
X2782228Y1269563D01*
X2770608Y1284708D01*
X2755463Y1296329D01*
X2737826Y1303634D01*
X2718900Y1306126D01*
X2633900D01*
X2614974Y1303634D01*
X2597337Y1296329D01*
X2582192Y1284708D01*
X2570572Y1269563D01*
X2563266Y1251927D01*
X2560775Y1233000D01*
Y1108000D01*
X2563266Y1089074D01*
X2570572Y1071437D01*
X2580157Y1058944D01*
X2577428Y1049410D01*
X2573644Y1043944D01*
X2525156D01*
X2521372Y1049410D01*
X2518643Y1058944D01*
X2528228Y1071437D01*
X2535534Y1089074D01*
X2538025Y1108000D01*
Y1233000D01*
X2535534Y1251927D01*
X2528228Y1269563D01*
X2516608Y1284708D01*
X2501463Y1296329D01*
X2483826Y1303634D01*
X2464900Y1306126D01*
X2379900D01*
X2360974Y1303634D01*
X2343337Y1296329D01*
X2328192Y1284708D01*
X2316572Y1269563D01*
X2309266Y1251927D01*
X2306775Y1233000D01*
Y1108000D01*
X2309266Y1089074D01*
X2316572Y1071437D01*
X2326157Y1058944D01*
X2323428Y1049410D01*
X2319644Y1043944D01*
X2271156D01*
X2267372Y1049410D01*
X2264643Y1058944D01*
X2274228Y1071437D01*
X2281534Y1089074D01*
X2284025Y1108000D01*
Y1233000D01*
X2281534Y1251927D01*
X2274228Y1269563D01*
X2262608Y1284708D01*
X2247463Y1296329D01*
X2229826Y1303634D01*
X2210900Y1306126D01*
X2125900D01*
X2106974Y1303634D01*
X2089337Y1296329D01*
X2074192Y1284708D01*
X2062572Y1269563D01*
X2055266Y1251927D01*
X2052775Y1233000D01*
Y1108000D01*
X2055266Y1089074D01*
X2062572Y1071437D01*
X2072157Y1058944D01*
X2069428Y1049410D01*
X2065644Y1043944D01*
X2007442D01*
X2001702Y1057802D01*
X2034400Y1090500D01*
Y1160500D01*
X1794400D01*
Y1090500D01*
X1827098Y1057802D01*
X1821358Y1043944D01*
X1254000D01*
X1252223Y1043591D01*
X1221063Y1046043D01*
X1188937Y1053756D01*
X1158413Y1066399D01*
X1130242Y1083662D01*
X1105119Y1105119D01*
X1083662Y1130242D01*
X1066399Y1158413D01*
X1053756Y1188937D01*
X1046043Y1221063D01*
X1043591Y1252223D01*
X1043944Y1254000D01*
Y2924556D01*
X1723900D01*
Y2924481D01*
X1770520Y2928150D01*
X1815993Y2939067D01*
X1859198Y2956963D01*
X1899071Y2981398D01*
X1934631Y3011769D01*
X1965002Y3047329D01*
X1989437Y3087202D01*
X2007333Y3130407D01*
X2018250Y3175880D01*
X2021919Y3222500D01*
X2021844D01*
Y4746500D01*
X2021919D01*
X2018250Y4793120D01*
X2007333Y4838593D01*
X1989437Y4881798D01*
X1965002Y4921671D01*
X1934631Y4957231D01*
X1899071Y4987602D01*
X1859198Y5012037D01*
X1815993Y5029933D01*
X1770520Y5040850D01*
X1723900Y5044519D01*
Y5044444D01*
X1043944D01*
Y6207000D01*
X1043591Y6208778D01*
X1046043Y6239937D01*
X1053756Y6272063D01*
X1066399Y6302587D01*
X1083662Y6330758D01*
X1105119Y6355881D01*
X1130242Y6377338D01*
X1158412Y6394601D01*
X1188937Y6407244D01*
X1221063Y6414957D01*
X1239275Y6416390D01*
X1254000Y6417055D01*
X1254000Y6417056D01*
X1804458D01*
X1811855Y6402056D01*
X1804204Y6392084D01*
X1796395Y6373232D01*
X1793731Y6353000D01*
Y6300500D01*
X2035069D01*
Y6353000D01*
X2032405Y6373232D01*
X2024596Y6392084D01*
X2016945Y6402056D01*
X2024342Y6417056D01*
X2065644D01*
X2069428Y6411590D01*
X2072157Y6402056D01*
X2062572Y6389563D01*
X2055266Y6371927D01*
X2052775Y6353000D01*
Y6228000D01*
X2055266Y6209073D01*
X2062572Y6191437D01*
X2074192Y6176292D01*
X2089337Y6164671D01*
X2106974Y6157366D01*
X2125900Y6154874D01*
X2210900D01*
X2229826Y6157366D01*
X2247463Y6164671D01*
X2262608Y6176292D01*
X2274228Y6191437D01*
X2281534Y6209073D01*
X2284025Y6228000D01*
Y6353000D01*
X2281534Y6371927D01*
X2274228Y6389563D01*
X2264643Y6402056D01*
X2267372Y6411590D01*
X2271156Y6417056D01*
X2319644D01*
X2323428Y6411590D01*
X2326157Y6402056D01*
X2316572Y6389563D01*
X2309266Y6371927D01*
X2306775Y6353000D01*
Y6228000D01*
X2309266Y6209073D01*
X2316572Y6191437D01*
X2328192Y6176292D01*
X2343337Y6164671D01*
X2360974Y6157366D01*
X2379900Y6154874D01*
X2464900D01*
X2483826Y6157366D01*
X2501463Y6164671D01*
X2516608Y6176292D01*
X2528228Y6191437D01*
X2535534Y6209073D01*
X2538025Y6228000D01*
Y6353000D01*
X2535534Y6371927D01*
X2528228Y6389563D01*
X2518643Y6402056D01*
X2521372Y6411590D01*
X2525156Y6417056D01*
X2573644D01*
X2577428Y6411590D01*
D02*
G37*
G36*
X6479515Y5891905D02*
X6477615Y5891548D01*
X6475915Y5890596D01*
X6474415Y5889050D01*
X6473115Y5886910D01*
X6472015Y5884177D01*
X6471115Y5880849D01*
X6470415Y5876928D01*
X6469915Y5872413D01*
X6469515Y5861601D01*
X6449515D01*
X6449415Y5867208D01*
X6448618Y5876734D01*
X6447920Y5880653D01*
X6447023Y5884008D01*
X6445926Y5886800D01*
X6444630Y5889029D01*
X6443134Y5890694D01*
X6441439Y5891796D01*
X6439545Y5892336D01*
X6479515Y5891905D01*
D02*
G37*
G36*
X5816042Y5637041D02*
X5814818Y5635761D01*
X5812699Y5633190D01*
X5811803Y5631899D01*
X5811016Y5630603D01*
X5810338Y5629304D01*
X5809769Y5628001D01*
X5809309Y5626694D01*
X5808958Y5625383D01*
X5808717Y5624068D01*
X5788927Y5643858D01*
X5790242Y5644100D01*
X5791553Y5644450D01*
X5792860Y5644910D01*
X5794163Y5645479D01*
X5795462Y5646157D01*
X5796757Y5646945D01*
X5798049Y5647840D01*
X5799336Y5648846D01*
X5801899Y5651183D01*
X5816042Y5637041D01*
D02*
G37*
G36*
X6744766Y5615606D02*
X6744087Y5614431D01*
X6743488Y5613182D01*
X6742968Y5611858D01*
X6742529Y5610460D01*
X6742170Y5608988D01*
X6741890Y5607441D01*
X6741691Y5605820D01*
X6741531Y5602354D01*
X6721531D01*
X6721491Y5604124D01*
X6721171Y5607441D01*
X6720892Y5608988D01*
X6720532Y5610460D01*
X6720093Y5611858D01*
X6719574Y5613182D01*
X6718975Y5614431D01*
X6718296Y5615606D01*
X6717537Y5616707D01*
X6745524D01*
X6744766Y5615606D01*
D02*
G37*
G36*
X5869021Y5627052D02*
X5869372Y5625742D01*
X5869832Y5624435D01*
X5870401Y5623132D01*
X5871079Y5621832D01*
X5871866Y5620537D01*
X5872762Y5619246D01*
X5873767Y5617958D01*
X5876105Y5615395D01*
X5861962Y5601253D01*
X5860683Y5602476D01*
X5858112Y5604595D01*
X5856820Y5605491D01*
X5855525Y5606278D01*
X5854226Y5606956D01*
X5852923Y5607525D01*
X5851616Y5607985D01*
X5850305Y5608336D01*
X5848990Y5608578D01*
X5868779Y5628367D01*
X5869021Y5627052D01*
D02*
G37*
G36*
X6246635Y5612473D02*
X6245956Y5611298D01*
X6245357Y5610049D01*
X6244838Y5608725D01*
X6244399Y5607327D01*
X6244039Y5605855D01*
X6243760Y5604308D01*
X6243560Y5602687D01*
X6243400Y5599221D01*
X6223400D01*
X6223360Y5600991D01*
X6223041Y5604308D01*
X6222761Y5605855D01*
X6222402Y5607327D01*
X6221963Y5608725D01*
X6221443Y5610049D01*
X6220845Y5611298D01*
X6220166Y5612473D01*
X6219407Y5613574D01*
X6247394D01*
X6246635Y5612473D01*
D02*
G37*
G36*
X6294864Y5572674D02*
X6293549Y5572433D01*
X6292238Y5572082D01*
X6290931Y5571622D01*
X6289628Y5571053D01*
X6288329Y5570375D01*
X6287034Y5569588D01*
X6285742Y5568692D01*
X6284455Y5567687D01*
X6281891Y5565349D01*
X6267749Y5579492D01*
X6268972Y5580771D01*
X6271092Y5583342D01*
X6271988Y5584634D01*
X6272775Y5585929D01*
X6273453Y5587228D01*
X6274022Y5588531D01*
X6274482Y5589838D01*
X6274833Y5591149D01*
X6275074Y5592464D01*
X6294864Y5572674D01*
D02*
G37*
G36*
X5109907Y5556168D02*
X5110257Y5554857D01*
X5110717Y5553550D01*
X5111286Y5552247D01*
X5111964Y5550947D01*
X5112752Y5549652D01*
X5113647Y5548361D01*
X5114653Y5547073D01*
X5116990Y5544510D01*
X5102848Y5530368D01*
X5101568Y5531591D01*
X5098997Y5533711D01*
X5097706Y5534606D01*
X5096410Y5535394D01*
X5095111Y5536071D01*
X5093808Y5536640D01*
X5092501Y5537100D01*
X5091190Y5537451D01*
X5089875Y5537693D01*
X5109665Y5557483D01*
X5109907Y5556168D01*
D02*
G37*
G36*
X5041375Y5550867D02*
X5041726Y5549556D01*
X5042186Y5548249D01*
X5042755Y5546946D01*
X5043433Y5545647D01*
X5044220Y5544351D01*
X5045116Y5543060D01*
X5046121Y5541772D01*
X5048458Y5539209D01*
X5034316Y5525067D01*
X5033036Y5526290D01*
X5030465Y5528410D01*
X5029174Y5529305D01*
X5027879Y5530093D01*
X5026579Y5530770D01*
X5025276Y5531339D01*
X5023969Y5531799D01*
X5022658Y5532150D01*
X5021344Y5532392D01*
X5041133Y5552182D01*
X5041375Y5550867D01*
D02*
G37*
G36*
X6531275Y5368552D02*
X6530052Y5367273D01*
X6527933Y5364702D01*
X6527037Y5363410D01*
X6526250Y5362115D01*
X6525572Y5360816D01*
X6525003Y5359513D01*
X6524543Y5358206D01*
X6524192Y5356895D01*
X6523950Y5355580D01*
X6504161Y5375369D01*
X6505476Y5375611D01*
X6506787Y5375962D01*
X6508093Y5376422D01*
X6509397Y5376991D01*
X6510696Y5377669D01*
X6511991Y5378456D01*
X6513283Y5379352D01*
X6514570Y5380357D01*
X6517133Y5382695D01*
X6531275Y5368552D01*
D02*
G37*
G36*
X6760558Y5020016D02*
X6759487Y5020732D01*
X6758336Y5021374D01*
X6757107Y5021939D01*
X6755798Y5022430D01*
X6754410Y5022845D01*
X6752943Y5023184D01*
X6751396Y5023448D01*
X6749770Y5023637D01*
X6746280Y5023788D01*
X6745789Y5043788D01*
X6747557Y5043829D01*
X6750870Y5044160D01*
X6752414Y5044450D01*
X6753883Y5044822D01*
X6755278Y5045277D01*
X6756598Y5045815D01*
X6757843Y5046436D01*
X6759014Y5047140D01*
X6760109Y5047926D01*
X6760558Y5020016D01*
D02*
G37*
G36*
X6696302Y4892369D02*
X6696948Y4892115D01*
X6697759Y4891891D01*
X6698734Y4891697D01*
X6699876Y4891533D01*
X6702654Y4891294D01*
X6708060Y4891159D01*
Y4866159D01*
X6706093Y4866144D01*
X6698734Y4865622D01*
X6697759Y4865427D01*
X6696948Y4865204D01*
X6696302Y4864950D01*
X6695822Y4864666D01*
Y4892653D01*
X6696302Y4892369D01*
D02*
G37*
G36*
X6286661Y4833961D02*
X6287836Y4833282D01*
X6289085Y4832683D01*
X6290409Y4832164D01*
X6291807Y4831725D01*
X6293279Y4831365D01*
X6294826Y4831086D01*
X6296447Y4830886D01*
X6299912Y4830726D01*
Y4810726D01*
X6298143Y4810686D01*
X6294826Y4810367D01*
X6293279Y4810087D01*
X6291807Y4809728D01*
X6290409Y4809289D01*
X6289085Y4808769D01*
X6287836Y4808170D01*
X6286661Y4807492D01*
X6285560Y4806733D01*
Y4834720D01*
X6286661Y4833961D01*
D02*
G37*
G36*
X7547386Y4664391D02*
X7546707Y4663215D01*
X7546108Y4661966D01*
X7545589Y4660642D01*
X7545150Y4659244D01*
X7544790Y4657772D01*
X7544511Y4656225D01*
X7544311Y4654604D01*
X7544151Y4651139D01*
X7524151D01*
X7524111Y4652908D01*
X7523792Y4656225D01*
X7523512Y4657772D01*
X7523153Y4659244D01*
X7522714Y4660642D01*
X7522195Y4661966D01*
X7521596Y4663215D01*
X7520917Y4664391D01*
X7520158Y4665491D01*
X7548145D01*
X7547386Y4664391D01*
D02*
G37*
G36*
X7238982Y4662139D02*
X7244555Y4657305D01*
X7245383Y4656752D01*
X7246115Y4656337D01*
X7246751Y4656060D01*
X7247291Y4655921D01*
X7227501Y4636132D01*
X7227362Y4636672D01*
X7227085Y4637308D01*
X7226670Y4638040D01*
X7226117Y4638867D01*
X7225426Y4639790D01*
X7223631Y4641924D01*
X7219903Y4645842D01*
X7237581Y4663520D01*
X7238982Y4662139D01*
D02*
G37*
G36*
X7502600Y3786200D02*
X7503200Y3782800D01*
X7504200Y3779800D01*
X7505600Y3777200D01*
X7507400Y3775000D01*
X7509600Y3773200D01*
X7512200Y3771800D01*
X7515200Y3770800D01*
X7518600Y3770200D01*
X7522400Y3770000D01*
X7516542Y3750000D01*
X7512601Y3749859D01*
X7508776Y3749434D01*
X7505069Y3748727D01*
X7501480Y3747737D01*
X7498007Y3746465D01*
X7494651Y3744909D01*
X7491412Y3743070D01*
X7488291Y3740949D01*
X7485287Y3738545D01*
X7482400Y3735858D01*
X7468258Y3750000D01*
X7470945Y3752887D01*
X7473349Y3755891D01*
X7475470Y3759013D01*
X7477309Y3762251D01*
X7478865Y3765607D01*
X7480137Y3769080D01*
X7481127Y3772669D01*
X7481834Y3776376D01*
X7482259Y3780201D01*
X7482400Y3784142D01*
X7502400Y3790000D01*
X7502600Y3786200D01*
D02*
G37*
G36*
X8441076Y3723381D02*
X8440596Y3723665D01*
X8439950Y3723919D01*
X8439139Y3724143D01*
X8438163Y3724337D01*
X8437022Y3724502D01*
X8434244Y3724740D01*
X8428837Y3724875D01*
Y3749875D01*
X8430805Y3749890D01*
X8438163Y3750412D01*
X8439139Y3750607D01*
X8439950Y3750830D01*
X8440596Y3751084D01*
X8441076Y3751368D01*
Y3723381D01*
D02*
G37*
G36*
X7356283Y3653485D02*
X7354462Y3653429D01*
X7352782Y3653260D01*
X7351242Y3652979D01*
X7349843Y3652585D01*
X7348585Y3652079D01*
X7347467Y3651460D01*
X7346491Y3650728D01*
X7345654Y3649884D01*
X7344958Y3648927D01*
X7344403Y3647858D01*
X7333814Y3671399D01*
X7354012Y3673485D01*
X7356283Y3653485D01*
D02*
G37*
G36*
X6541891Y3626007D02*
X6540791Y3626765D01*
X6539616Y3627444D01*
X6538366Y3628043D01*
X6537043Y3628562D01*
X6535645Y3629002D01*
X6534172Y3629361D01*
X6532625Y3629641D01*
X6531004Y3629840D01*
X6527539Y3630000D01*
Y3650000D01*
X6529309Y3650040D01*
X6532625Y3650359D01*
X6534172Y3650639D01*
X6535645Y3650999D01*
X6537043Y3651438D01*
X6538366Y3651957D01*
X6539616Y3652556D01*
X6540791Y3653235D01*
X6541891Y3653993D01*
Y3626007D01*
D02*
G37*
G36*
X7745887Y3620836D02*
X7745633Y3620190D01*
X7745409Y3619380D01*
X7745215Y3618404D01*
X7745051Y3617262D01*
X7744812Y3614484D01*
X7744677Y3609078D01*
X7719678D01*
X7719663Y3611045D01*
X7719140Y3618404D01*
X7718946Y3619380D01*
X7718722Y3620190D01*
X7718468Y3620836D01*
X7718184Y3621316D01*
X7746171D01*
X7745887Y3620836D01*
D02*
G37*
G36*
X8004210Y3633623D02*
X8006781Y3631504D01*
X8008072Y3630608D01*
X8009368Y3629821D01*
X8010667Y3629143D01*
X8011970Y3628574D01*
X8013277Y3628114D01*
X8014588Y3627763D01*
X8015903Y3627522D01*
X7996113Y3607731D01*
X7995871Y3609046D01*
X7995520Y3610357D01*
X7995060Y3611664D01*
X7994492Y3612968D01*
X7993814Y3614267D01*
X7993027Y3615562D01*
X7992131Y3616854D01*
X7991125Y3618141D01*
X7988788Y3620704D01*
X8002930Y3634846D01*
X8004210Y3633623D01*
D02*
G37*
G36*
X7327813Y3452952D02*
X7326713Y3453711D01*
X7325538Y3454390D01*
X7324288Y3454989D01*
X7322965Y3455508D01*
X7321567Y3455947D01*
X7320094Y3456307D01*
X7318547Y3456586D01*
X7316926Y3456786D01*
X7313461Y3456946D01*
Y3476946D01*
X7315230Y3476986D01*
X7318547Y3477305D01*
X7320094Y3477585D01*
X7321567Y3477944D01*
X7322965Y3478383D01*
X7324288Y3478903D01*
X7325538Y3479502D01*
X7326713Y3480180D01*
X7327813Y3480939D01*
Y3452952D01*
D02*
G37*
G36*
X7939919Y3437734D02*
X7938914Y3438663D01*
X7937825Y3439495D01*
X7936650Y3440228D01*
X7935389Y3440864D01*
X7934043Y3441402D01*
X7932611Y3441843D01*
X7931094Y3442185D01*
X7929491Y3442430D01*
X7927803Y3442576D01*
X7926030Y3442625D01*
X7929782Y3462625D01*
X7931668Y3462648D01*
X7936608Y3462992D01*
X7938015Y3463199D01*
X7940469Y3463749D01*
X7941517Y3464093D01*
X7942445Y3464483D01*
X7943252Y3464918D01*
X7939919Y3437734D01*
D02*
G37*
G36*
X6214182Y3201992D02*
X6212867Y3201750D01*
X6211556Y3201399D01*
X6210249Y3200939D01*
X6208946Y3200370D01*
X6207647Y3199692D01*
X6206351Y3198905D01*
X6205060Y3198009D01*
X6203772Y3197004D01*
X6201209Y3194667D01*
X6187067Y3208809D01*
X6188290Y3210089D01*
X6190410Y3212660D01*
X6191306Y3213951D01*
X6192093Y3215247D01*
X6192770Y3216546D01*
X6193339Y3217849D01*
X6193799Y3219156D01*
X6194150Y3220467D01*
X6194392Y3221782D01*
X6214182Y3201992D01*
D02*
G37*
G36*
X7323976Y3173817D02*
X7322661Y3173575D01*
X7321350Y3173225D01*
X7320043Y3172765D01*
X7318740Y3172196D01*
X7317441Y3171518D01*
X7316145Y3170731D01*
X7314854Y3169835D01*
X7313567Y3168830D01*
X7311003Y3166492D01*
X7296861Y3180634D01*
X7298084Y3181914D01*
X7300204Y3184485D01*
X7301100Y3185776D01*
X7301887Y3187072D01*
X7302565Y3188371D01*
X7303133Y3189674D01*
X7303593Y3190981D01*
X7303944Y3192292D01*
X7304186Y3193607D01*
X7323976Y3173817D01*
D02*
G37*
G36*
X7242600Y3186200D02*
X7243200Y3182800D01*
X7244200Y3179800D01*
X7245600Y3177200D01*
X7247400Y3175000D01*
X7249600Y3173200D01*
X7252200Y3171800D01*
X7255200Y3170800D01*
X7258600Y3170200D01*
X7262400Y3170000D01*
Y3150000D01*
X7258600Y3149800D01*
X7255200Y3149200D01*
X7252200Y3148200D01*
X7249600Y3146800D01*
X7247400Y3145000D01*
X7245600Y3142800D01*
X7244200Y3140200D01*
X7243200Y3137200D01*
X7242600Y3133800D01*
X7242400Y3130000D01*
X7222400Y3160000D01*
X7242400Y3190000D01*
X7242600Y3186200D01*
D02*
G37*
G36*
X6184782Y3063196D02*
X6187353Y3061077D01*
X6188645Y3060181D01*
X6189940Y3059394D01*
X6191239Y3058716D01*
X6192543Y3058147D01*
X6193850Y3057687D01*
X6195161Y3057337D01*
X6196476Y3057095D01*
X6176686Y3037305D01*
X6176444Y3038620D01*
X6176093Y3039930D01*
X6175633Y3041238D01*
X6175064Y3042541D01*
X6174386Y3043840D01*
X6173599Y3045135D01*
X6172703Y3046426D01*
X6171698Y3047714D01*
X6169361Y3050277D01*
X6183503Y3064420D01*
X6184782Y3063196D01*
D02*
G37*
G36*
X7302186Y2989709D02*
X7301085Y2990467D01*
X7299910Y2991146D01*
X7298661Y2991745D01*
X7297337Y2992264D01*
X7295939Y2992703D01*
X7294466Y2993063D01*
X7292920Y2993343D01*
X7291299Y2993542D01*
X7287833Y2993702D01*
Y3013702D01*
X7289603Y3013742D01*
X7292920Y3014061D01*
X7294466Y3014341D01*
X7295939Y3014700D01*
X7297337Y3015140D01*
X7298661Y3015659D01*
X7299910Y3016258D01*
X7301085Y3016937D01*
X7302186Y3017695D01*
Y2989709D01*
D02*
G37*
G36*
X7242599Y3036200D02*
X7243198Y3032800D01*
X7244194Y3029800D01*
X7245590Y3027200D01*
X7247384Y3025000D01*
X7249577Y3023200D01*
X7252169Y3021800D01*
X7255160Y3020800D01*
X7258549Y3020200D01*
X7262337Y3020000D01*
Y3000000D01*
X7258549Y2999800D01*
X7255160Y2999200D01*
X7252169Y2998200D01*
X7249577Y2996800D01*
X7247384Y2995000D01*
X7245590Y2992800D01*
X7244194Y2990200D01*
X7243198Y2987200D01*
X7242599Y2983800D01*
X7242400Y2980000D01*
X7222400Y3010000D01*
X7242400Y3040000D01*
X7242599Y3036200D01*
D02*
G37*
G36*
X6837663Y2964760D02*
X6836563Y2965519D01*
X6835388Y2966198D01*
X6834138Y2966796D01*
X6832815Y2967316D01*
X6831417Y2967755D01*
X6829944Y2968114D01*
X6828397Y2968394D01*
X6826776Y2968594D01*
X6823311Y2968753D01*
Y2988753D01*
X6825081Y2988793D01*
X6828397Y2989113D01*
X6829944Y2989392D01*
X6831417Y2989752D01*
X6832815Y2990191D01*
X6834138Y2990710D01*
X6835388Y2991309D01*
X6836563Y2991988D01*
X6837663Y2992747D01*
Y2964760D01*
D02*
G37*
G36*
X7772440Y2943092D02*
X7772759Y2939775D01*
X7773039Y2938228D01*
X7773398Y2936756D01*
X7773838Y2935358D01*
X7774357Y2934034D01*
X7774956Y2932785D01*
X7775635Y2931609D01*
X7776393Y2930509D01*
X7748407D01*
X7749165Y2931609D01*
X7749844Y2932785D01*
X7750443Y2934034D01*
X7750962Y2935358D01*
X7751402Y2936756D01*
X7751761Y2938228D01*
X7752041Y2939775D01*
X7752240Y2941396D01*
X7752400Y2944861D01*
X7772400D01*
X7772440Y2943092D01*
D02*
G37*
G36*
X7699213Y2866482D02*
X7699735Y2859124D01*
X7699930Y2858148D01*
X7700154Y2857337D01*
X7700408Y2856691D01*
X7700691Y2856211D01*
X7672704D01*
X7672988Y2856691D01*
X7673242Y2857337D01*
X7673466Y2858148D01*
X7673660Y2859124D01*
X7673825Y2860265D01*
X7674063Y2863043D01*
X7674198Y2868450D01*
X7699198D01*
X7699213Y2866482D01*
D02*
G37*
G36*
X6182440Y2843092D02*
X6182760Y2839775D01*
X6183039Y2838228D01*
X6183399Y2836756D01*
X6183838Y2835358D01*
X6184357Y2834034D01*
X6184956Y2832785D01*
X6185635Y2831609D01*
X6186394Y2830509D01*
X6158407D01*
X6159165Y2831609D01*
X6159844Y2832785D01*
X6160443Y2834034D01*
X6160963Y2835358D01*
X6161402Y2836756D01*
X6161761Y2838228D01*
X6162041Y2839775D01*
X6162240Y2841396D01*
X6162400Y2844861D01*
X6182400D01*
X6182440Y2843092D01*
D02*
G37*
G36*
X6185635Y2808391D02*
X6184956Y2807215D01*
X6184357Y2805966D01*
X6183838Y2804642D01*
X6183399Y2803244D01*
X6183039Y2801772D01*
X6182760Y2800225D01*
X6182560Y2798604D01*
X6182400Y2795139D01*
X6162400D01*
X6162360Y2796908D01*
X6162041Y2800225D01*
X6161761Y2801772D01*
X6161402Y2803244D01*
X6160963Y2804642D01*
X6160443Y2805966D01*
X6159844Y2807215D01*
X6159165Y2808391D01*
X6158407Y2809491D01*
X6186394D01*
X6185635Y2808391D01*
D02*
G37*
G36*
X6182455Y2636164D02*
X6182620Y2634482D01*
X6182894Y2632956D01*
X6183278Y2631585D01*
X6183772Y2630369D01*
X6184376Y2629309D01*
X6185090Y2628403D01*
X6185913Y2627653D01*
X6186846Y2627057D01*
X6187889Y2626617D01*
X6165505Y2614563D01*
X6162400Y2634861D01*
X6182400Y2638000D01*
X6182455Y2636164D01*
D02*
G37*
G36*
X6199431Y2614409D02*
X6199917Y2613619D01*
X6200627Y2612642D01*
X6202717Y2610125D01*
X6207525Y2604942D01*
X6211846Y2600550D01*
X6197340Y2586772D01*
X6196043Y2587994D01*
X6194740Y2589074D01*
X6193431Y2590012D01*
X6192115Y2590807D01*
X6190794Y2591459D01*
X6189466Y2591969D01*
X6188132Y2592336D01*
X6186792Y2592561D01*
X6185446Y2592643D01*
X6184093Y2592582D01*
X6199167Y2615012D01*
X6199431Y2614409D01*
D02*
G37*
G36*
X4755635Y2448391D02*
X4754956Y2447215D01*
X4754357Y2445966D01*
X4753838Y2444642D01*
X4753398Y2443244D01*
X4753039Y2441772D01*
X4752759Y2440225D01*
X4752560Y2438604D01*
X4752400Y2435139D01*
X4732400D01*
X4732360Y2436908D01*
X4732041Y2440225D01*
X4731761Y2441772D01*
X4731402Y2443244D01*
X4730962Y2444642D01*
X4730443Y2445966D01*
X4729844Y2447215D01*
X4729165Y2448391D01*
X4728407Y2449491D01*
X4756393D01*
X4755635Y2448391D01*
D02*
G37*
G36*
X6408591Y2388087D02*
X6408740Y2386400D01*
X6408988Y2384799D01*
X6409335Y2383286D01*
X6409781Y2381860D01*
X6410327Y2380520D01*
X6410971Y2379268D01*
X6411715Y2378103D01*
X6412558Y2377025D01*
X6413500Y2376034D01*
X6386413Y2372396D01*
X6386817Y2373167D01*
X6387179Y2374063D01*
X6387499Y2375084D01*
X6387775Y2376231D01*
X6388009Y2377503D01*
X6388350Y2380421D01*
X6388520Y2383841D01*
X6388542Y2385738D01*
X6408542Y2389862D01*
X6408591Y2388087D01*
D02*
G37*
G36*
X6782632Y2396825D02*
X6785203Y2394705D01*
X6786495Y2393810D01*
X6787790Y2393022D01*
X6789089Y2392344D01*
X6790393Y2391776D01*
X6791699Y2391316D01*
X6793010Y2390965D01*
X6794325Y2390723D01*
X6774536Y2370933D01*
X6774294Y2372248D01*
X6773943Y2373559D01*
X6773483Y2374866D01*
X6772914Y2376169D01*
X6772236Y2377468D01*
X6771449Y2378764D01*
X6770553Y2380055D01*
X6769548Y2381343D01*
X6767210Y2383906D01*
X6781353Y2398048D01*
X6782632Y2396825D01*
D02*
G37*
G36*
X6403876Y2346055D02*
X6402561Y2345813D01*
X6401250Y2345462D01*
X6399943Y2345002D01*
X6398640Y2344433D01*
X6397341Y2343755D01*
X6396045Y2342968D01*
X6394754Y2342072D01*
X6393466Y2341067D01*
X6390903Y2338730D01*
X6376761Y2352872D01*
X6377984Y2354152D01*
X6380104Y2356722D01*
X6380999Y2358014D01*
X6381787Y2359309D01*
X6382465Y2360608D01*
X6383033Y2361912D01*
X6383493Y2363219D01*
X6383844Y2364529D01*
X6384086Y2365844D01*
X6403876Y2346055D01*
D02*
G37*
G36*
X5688569Y2366169D02*
X5715595Y2310858D01*
X5714260Y2311793D01*
X5713066Y2311788D01*
X5712012Y2310842D01*
X5711099Y2308955D01*
X5710326Y2306128D01*
X5709693Y2302361D01*
X5708639Y2285415D01*
X5708569Y2277885D01*
X5668569Y2317885D01*
X5668286Y2325768D01*
X5667438Y2333416D01*
X5666023Y2340830D01*
X5664044Y2348010D01*
X5661498Y2354956D01*
X5658387Y2361667D01*
X5654710Y2368144D01*
X5650467Y2374387D01*
X5645659Y2380395D01*
X5640285Y2386169D01*
X5688569Y2366169D01*
D02*
G37*
G36*
X6762616Y2225472D02*
Y2107728D01*
X6747615Y2100126D01*
X6735284Y2105233D01*
X6716388D01*
X6698930Y2098002D01*
X6685568Y2084640D01*
X6678336Y2067182D01*
Y2048285D01*
X6685568Y2030827D01*
X6698930Y2017465D01*
X6716388Y2010234D01*
X6735284D01*
X6747615Y2015341D01*
X6762616Y2007739D01*
Y1759003D01*
X6762615Y1759001D01*
X6765720Y1743394D01*
X6774561Y1730163D01*
X6904106Y1600618D01*
X6905321Y1587868D01*
X6903951Y1581592D01*
X6900192Y1578708D01*
X6888572Y1563563D01*
X6881266Y1545927D01*
X6878775Y1527000D01*
Y1402000D01*
X6881266Y1383073D01*
X6884286Y1375784D01*
X6874574Y1361249D01*
X6860226D01*
X6850514Y1375784D01*
X6853534Y1383073D01*
X6856025Y1402000D01*
Y1527000D01*
X6853534Y1545927D01*
X6846228Y1563563D01*
X6834608Y1578708D01*
X6819463Y1590329D01*
X6801826Y1597634D01*
X6782900Y1600126D01*
X6697900D01*
X6678974Y1597634D01*
X6661337Y1590329D01*
X6646192Y1578708D01*
X6634572Y1563563D01*
X6627266Y1545927D01*
X6624775Y1527000D01*
Y1402000D01*
X6627266Y1383073D01*
X6630286Y1375784D01*
X6620574Y1361249D01*
X6606226D01*
X6596514Y1375784D01*
X6599534Y1383073D01*
X6602025Y1402000D01*
Y1527000D01*
X6599534Y1545927D01*
X6592228Y1563563D01*
X6580608Y1578708D01*
X6565463Y1590329D01*
X6547826Y1597634D01*
X6528900Y1600126D01*
X6443900D01*
X6424974Y1597634D01*
X6412046Y1592279D01*
X6403550Y1604996D01*
X6461239Y1662685D01*
X6470079Y1675916D01*
X6473184Y1691523D01*
X6473184Y1691524D01*
Y1834337D01*
X6474546Y1837626D01*
X6474653Y1837786D01*
X6474690Y1837975D01*
X6479900Y1850552D01*
Y1869448D01*
X6475519Y1880025D01*
X6484020Y1883547D01*
X6497382Y1896909D01*
X6504614Y1914367D01*
Y1933264D01*
X6497382Y1950722D01*
X6484020Y1964084D01*
X6466562Y1971315D01*
X6447666D01*
X6430207Y1964084D01*
X6429170Y1963046D01*
X6414170Y1969259D01*
Y2086156D01*
X6415532Y2089445D01*
X6415639Y2089605D01*
X6415677Y2089793D01*
X6420886Y2102370D01*
Y2121267D01*
X6415677Y2133844D01*
X6415639Y2134033D01*
X6415532Y2134193D01*
X6414170Y2137482D01*
Y2188480D01*
X6414853Y2188920D01*
X6429170Y2193079D01*
X6439451Y2182798D01*
X6456909Y2175566D01*
X6475806D01*
X6493264Y2182798D01*
X6506626Y2196159D01*
X6513857Y2213618D01*
Y2232514D01*
X6506626Y2249972D01*
X6493264Y2263334D01*
X6475806Y2270566D01*
X6456909D01*
X6439451Y2263334D01*
X6429170Y2253053D01*
X6414853Y2257212D01*
X6414170Y2257652D01*
Y2317252D01*
X6415392Y2317758D01*
X6415581Y2317795D01*
X6415741Y2317902D01*
X6428318Y2323112D01*
X6433524Y2328318D01*
X6449800Y2323380D01*
X6450301Y2320861D01*
X6461352Y2304322D01*
X6477891Y2293271D01*
X6497400Y2289390D01*
X6516909Y2293271D01*
X6533448Y2304322D01*
X6544013Y2314886D01*
X6555064Y2331425D01*
X6558944Y2350935D01*
Y2409545D01*
X6572802Y2415285D01*
X6762616Y2225472D01*
D02*
G37*
G36*
X5787525Y2285953D02*
X5786302Y2284673D01*
X5784182Y2282102D01*
X5783287Y2280810D01*
X5782499Y2279515D01*
X5781822Y2278216D01*
X5781253Y2276913D01*
X5780793Y2275606D01*
X5780442Y2274295D01*
X5780200Y2272980D01*
X5760410Y2292770D01*
X5761725Y2293011D01*
X5763036Y2293362D01*
X5764343Y2293822D01*
X5765646Y2294391D01*
X5766946Y2295069D01*
X5768241Y2295856D01*
X5769532Y2296752D01*
X5770820Y2297757D01*
X5773383Y2300095D01*
X5787525Y2285953D01*
D02*
G37*
G36*
X5623452Y2359191D02*
X5625840Y2356206D01*
X5628717Y2351973D01*
X5631165Y2347662D01*
X5633215Y2343239D01*
X5634890Y2338668D01*
X5636209Y2333886D01*
X5637168Y2328858D01*
X5637589Y2325059D01*
Y2255192D01*
X5623731Y2249452D01*
X5355740Y2517444D01*
X5362194Y2532203D01*
X5377477Y2538533D01*
X5390839Y2551895D01*
X5396314Y2565114D01*
X5411928Y2570714D01*
X5623452Y2359191D01*
D02*
G37*
G36*
X5818016Y2236175D02*
X5816689Y2234818D01*
X5813421Y2231099D01*
X5812569Y2229975D01*
X5811220Y2227904D01*
X5810724Y2226956D01*
X5810346Y2226067D01*
X5810087Y2225236D01*
X5793506Y2246962D01*
X5794873Y2246997D01*
X5796231Y2247163D01*
X5797581Y2247461D01*
X5798922Y2247890D01*
X5800255Y2248452D01*
X5801579Y2249145D01*
X5802894Y2249969D01*
X5804201Y2250926D01*
X5805500Y2252014D01*
X5806790Y2253233D01*
X5818016Y2236175D01*
D02*
G37*
G36*
X7521452Y2186339D02*
X7520351Y2187097D01*
X7519176Y2187776D01*
X7517927Y2188375D01*
X7516603Y2188894D01*
X7515205Y2189333D01*
X7513733Y2189693D01*
X7512186Y2189973D01*
X7510565Y2190172D01*
X7507100Y2190332D01*
Y2210332D01*
X7508869Y2210372D01*
X7512186Y2210691D01*
X7513733Y2210971D01*
X7515205Y2211330D01*
X7516603Y2211770D01*
X7517927Y2212289D01*
X7519176Y2212888D01*
X7520351Y2213567D01*
X7521452Y2214325D01*
Y2186339D01*
D02*
G37*
G36*
X6383426Y2134910D02*
X6383746Y2131594D01*
X6384025Y2130047D01*
X6384385Y2128574D01*
X6384824Y2127176D01*
X6385343Y2125852D01*
X6385942Y2124603D01*
X6386621Y2123428D01*
X6387380Y2122327D01*
X6359393D01*
X6360152Y2123428D01*
X6360831Y2124603D01*
X6361429Y2125852D01*
X6361949Y2127176D01*
X6362388Y2128574D01*
X6362747Y2130047D01*
X6363027Y2131594D01*
X6363227Y2133215D01*
X6363386Y2136680D01*
X6383386D01*
X6383426Y2134910D01*
D02*
G37*
G36*
X6386621Y2100209D02*
X6385942Y2099034D01*
X6385343Y2097785D01*
X6384824Y2096461D01*
X6384385Y2095063D01*
X6384025Y2093591D01*
X6383746Y2092044D01*
X6383546Y2090423D01*
X6383386Y2086957D01*
X6363386D01*
X6363346Y2088727D01*
X6363027Y2092044D01*
X6362747Y2093591D01*
X6362388Y2095063D01*
X6361949Y2096461D01*
X6361429Y2097785D01*
X6360831Y2099034D01*
X6360152Y2100209D01*
X6359393Y2101310D01*
X6387380D01*
X6386621Y2100209D01*
D02*
G37*
G36*
X5378003Y2080034D02*
X5376689Y2079792D01*
X5375378Y2079442D01*
X5374071Y2078982D01*
X5372768Y2078413D01*
X5371468Y2077735D01*
X5370173Y2076948D01*
X5368882Y2076052D01*
X5367594Y2075046D01*
X5365031Y2072709D01*
X5350889Y2086851D01*
X5352112Y2088131D01*
X5354231Y2090702D01*
X5355127Y2091994D01*
X5355914Y2093289D01*
X5356592Y2094588D01*
X5357161Y2095891D01*
X5357621Y2097198D01*
X5357972Y2098509D01*
X5358214Y2099824D01*
X5378003Y2080034D01*
D02*
G37*
G36*
X7031617Y2353107D02*
Y2203986D01*
X7020452D01*
X7002994Y2196754D01*
X6989632Y2183392D01*
X6982400Y2165934D01*
Y2147038D01*
X6989632Y2129579D01*
X7002994Y2116218D01*
X7020452Y2108986D01*
X7031617D01*
Y2053158D01*
X7014898D01*
X7002321Y2047949D01*
X7002132Y2047911D01*
X7001972Y2047804D01*
X6998683Y2046442D01*
X6963635D01*
X6883183Y2126894D01*
Y2259999D01*
X6883184Y2260000D01*
X6880079Y2275607D01*
X6871238Y2288838D01*
X6822858Y2337219D01*
X6832130Y2346491D01*
X6839361Y2363949D01*
Y2382846D01*
X6832130Y2400304D01*
X6830026Y2402407D01*
X6832953Y2417119D01*
X6835194Y2418047D01*
X6848556Y2431409D01*
X6855787Y2448867D01*
Y2467764D01*
X6848556Y2485222D01*
X6835194Y2498584D01*
X6817736Y2505815D01*
X6798839D01*
X6781381Y2498584D01*
X6768019Y2485222D01*
X6762054Y2470822D01*
X6746929Y2464733D01*
X6431051Y2780612D01*
Y2934075D01*
X6444909Y2939815D01*
X7031617Y2353107D01*
D02*
G37*
G36*
X3284915Y2050780D02*
X3285438Y2043421D01*
X3285632Y2042445D01*
X3285856Y2041635D01*
X3286110Y2040989D01*
X3286393Y2040509D01*
X3258407D01*
X3258690Y2040989D01*
X3258944Y2041635D01*
X3259168Y2042445D01*
X3259363Y2043421D01*
X3259527Y2044563D01*
X3259766Y2047341D01*
X3259900Y2052747D01*
X3284900D01*
X3284915Y2050780D01*
D02*
G37*
G36*
X7521891Y2016007D02*
X7520791Y2016765D01*
X7519615Y2017444D01*
X7518366Y2018043D01*
X7517042Y2018562D01*
X7515644Y2019002D01*
X7514172Y2019361D01*
X7512625Y2019641D01*
X7511004Y2019840D01*
X7507539Y2020000D01*
Y2040000D01*
X7509308Y2040040D01*
X7512625Y2040359D01*
X7514172Y2040639D01*
X7515644Y2040998D01*
X7517042Y2041438D01*
X7518366Y2041957D01*
X7519615Y2042556D01*
X7520791Y2043235D01*
X7521891Y2043993D01*
Y2016007D01*
D02*
G37*
G36*
X7013837Y1991665D02*
X7012737Y1992424D01*
X7011562Y1993103D01*
X7010312Y1993702D01*
X7008989Y1994221D01*
X7007591Y1994660D01*
X7006118Y1995020D01*
X7004571Y1995299D01*
X7002950Y1995499D01*
X6999485Y1995659D01*
Y2015659D01*
X7001254Y2015699D01*
X7004571Y2016018D01*
X7006118Y2016298D01*
X7007591Y2016657D01*
X7008989Y2017096D01*
X7010312Y2017615D01*
X7011562Y2018214D01*
X7012737Y2018893D01*
X7013837Y2019652D01*
Y1991665D01*
D02*
G37*
G36*
X7461074Y2035726D02*
X7463866Y2033710D01*
X7466634Y2032235D01*
X7469377Y2031302D01*
X7472097Y2030910D01*
X7474792Y2031059D01*
X7477463Y2031750D01*
X7480109Y2032982D01*
X7482731Y2034756D01*
X7485329Y2037071D01*
X7499471Y2022929D01*
X7497156Y2020331D01*
X7495382Y2017709D01*
X7494150Y2015063D01*
X7493459Y2012392D01*
X7493310Y2009697D01*
X7493702Y2006977D01*
X7494636Y2004234D01*
X7496110Y2001466D01*
X7498126Y1998674D01*
X7500684Y1995858D01*
X7479471Y1988787D01*
X7465329Y2002929D01*
X7458258Y2038284D01*
X7461074Y2035726D01*
D02*
G37*
G36*
X3872900Y2016900D02*
X3874400Y2010100D01*
X3876900Y2004100D01*
X3880400Y1998900D01*
X3884900Y1994500D01*
X3890400Y1990900D01*
X3896900Y1988100D01*
X3904400Y1986100D01*
X3912900Y1984900D01*
X3922400Y1984500D01*
X3852400Y1934500D01*
X3782400Y1984500D01*
X3791900Y1984900D01*
X3800400Y1986100D01*
X3807900Y1988100D01*
X3814400Y1990900D01*
X3819900Y1994500D01*
X3824400Y1998900D01*
X3827900Y2004100D01*
X3830400Y2010100D01*
X3831900Y2016900D01*
X3832400Y2024500D01*
X3872400D01*
X3872900Y2016900D01*
D02*
G37*
G36*
X5302440Y1903092D02*
X5302760Y1899775D01*
X5303039Y1898228D01*
X5303399Y1896756D01*
X5303838Y1895358D01*
X5304357Y1894034D01*
X5304956Y1892785D01*
X5305635Y1891609D01*
X5306394Y1890509D01*
X5278407D01*
X5279165Y1891609D01*
X5279844Y1892785D01*
X5280443Y1894034D01*
X5280963Y1895358D01*
X5281402Y1896756D01*
X5281761Y1898228D01*
X5282041Y1899775D01*
X5282240Y1901396D01*
X5282400Y1904861D01*
X5302400D01*
X5302440Y1903092D01*
D02*
G37*
G36*
X3352369Y1810031D02*
X3317013Y1774676D01*
X3271052Y1799425D01*
X3277557Y1806355D01*
X3282931Y1813001D01*
X3287174Y1819365D01*
X3290285Y1825446D01*
X3292265Y1831244D01*
X3293113Y1836760D01*
X3292830Y1841993D01*
X3291416Y1846942D01*
X3288871Y1851609D01*
X3285194Y1855993D01*
X3306407Y1877207D01*
X3310791Y1873529D01*
X3315458Y1870984D01*
X3320408Y1869570D01*
X3325640Y1869287D01*
X3331156Y1870135D01*
X3336954Y1872115D01*
X3343035Y1875227D01*
X3349399Y1879469D01*
X3356046Y1884843D01*
X3362975Y1891349D01*
X3352369Y1810031D01*
D02*
G37*
G36*
X6423171Y1883428D02*
X6425742Y1881308D01*
X6427034Y1880412D01*
X6428329Y1879625D01*
X6429628Y1878947D01*
X6430932Y1878378D01*
X6432238Y1877918D01*
X6433549Y1877567D01*
X6434864Y1877326D01*
X6415075Y1857536D01*
X6414833Y1858851D01*
X6414482Y1860162D01*
X6414022Y1861469D01*
X6413453Y1862772D01*
X6412775Y1864071D01*
X6411988Y1865366D01*
X6411092Y1866658D01*
X6410087Y1867945D01*
X6407749Y1870509D01*
X6421892Y1884651D01*
X6423171Y1883428D01*
D02*
G37*
G36*
X5309968Y1881149D02*
X5310318Y1879838D01*
X5310778Y1878531D01*
X5311347Y1877228D01*
X5312025Y1875929D01*
X5312812Y1874634D01*
X5313708Y1873342D01*
X5314714Y1872055D01*
X5317051Y1869492D01*
X5302909Y1855349D01*
X5301629Y1856573D01*
X5299058Y1858692D01*
X5297766Y1859588D01*
X5296471Y1860375D01*
X5295172Y1861053D01*
X5293869Y1861622D01*
X5292562Y1862082D01*
X5291251Y1862433D01*
X5289936Y1862674D01*
X5309726Y1882464D01*
X5309968Y1881149D01*
D02*
G37*
G36*
X6445635Y1848391D02*
X6444956Y1847216D01*
X6444357Y1845966D01*
X6443838Y1844642D01*
X6443399Y1843244D01*
X6443039Y1841772D01*
X6442760Y1840225D01*
X6442560Y1838604D01*
X6442400Y1835139D01*
X6422400D01*
X6422360Y1836908D01*
X6422041Y1840225D01*
X6421761Y1841772D01*
X6421402Y1843244D01*
X6420963Y1844642D01*
X6420443Y1845966D01*
X6419844Y1847216D01*
X6419165Y1848391D01*
X6418407Y1849491D01*
X6446394D01*
X6445635Y1848391D01*
D02*
G37*
G36*
X5798137Y1839659D02*
X5798286Y1837971D01*
X5798533Y1836370D01*
X5798880Y1834857D01*
X5799327Y1833431D01*
X5799872Y1832092D01*
X5800517Y1830839D01*
X5801261Y1829674D01*
X5802103Y1828596D01*
X5803046Y1827605D01*
X5775958Y1823967D01*
X5776363Y1824738D01*
X5776725Y1825634D01*
X5777044Y1826656D01*
X5777321Y1827802D01*
X5777555Y1829074D01*
X5777896Y1831993D01*
X5778066Y1835412D01*
X5778087Y1837310D01*
X5798087Y1841433D01*
X5798137Y1839659D01*
D02*
G37*
G36*
X7310344Y1846806D02*
X7312915Y1844687D01*
X7314207Y1843791D01*
X7315502Y1843004D01*
X7316801Y1842326D01*
X7318104Y1841757D01*
X7319411Y1841297D01*
X7320722Y1840946D01*
X7322037Y1840704D01*
X7302247Y1820915D01*
X7302005Y1822230D01*
X7301655Y1823540D01*
X7301195Y1824847D01*
X7300626Y1826151D01*
X7299948Y1827450D01*
X7299161Y1828745D01*
X7298265Y1830036D01*
X7297259Y1831324D01*
X7294922Y1833887D01*
X7309064Y1848029D01*
X7310344Y1846806D01*
D02*
G37*
G36*
X5719227Y1816877D02*
X5718126Y1817636D01*
X5716951Y1818315D01*
X5715702Y1818914D01*
X5714378Y1819433D01*
X5712980Y1819872D01*
X5711507Y1820231D01*
X5709961Y1820511D01*
X5708340Y1820711D01*
X5704874Y1820870D01*
Y1840870D01*
X5706644Y1840910D01*
X5709961Y1841230D01*
X5711507Y1841509D01*
X5712980Y1841869D01*
X5714378Y1842308D01*
X5715702Y1842827D01*
X5716951Y1843426D01*
X5718126Y1844105D01*
X5719227Y1844864D01*
Y1816877D01*
D02*
G37*
G36*
X7551891Y1816007D02*
X7550791Y1816765D01*
X7549615Y1817444D01*
X7548366Y1818043D01*
X7547042Y1818563D01*
X7545644Y1819002D01*
X7544172Y1819361D01*
X7542625Y1819641D01*
X7541004Y1819840D01*
X7537539Y1820000D01*
Y1840000D01*
X7539308Y1840040D01*
X7542625Y1840360D01*
X7544172Y1840639D01*
X7545644Y1840999D01*
X7547042Y1841438D01*
X7548366Y1841957D01*
X7549615Y1842556D01*
X7550791Y1843235D01*
X7551891Y1843994D01*
Y1816007D01*
D02*
G37*
G36*
X6857509Y1808515D02*
X6858684Y1807836D01*
X6859933Y1807237D01*
X6861257Y1806718D01*
X6862655Y1806279D01*
X6864127Y1805920D01*
X6865674Y1805640D01*
X6867295Y1805440D01*
X6870760Y1805281D01*
Y1785281D01*
X6868991Y1785241D01*
X6865674Y1784921D01*
X6864127Y1784642D01*
X6862655Y1784282D01*
X6861257Y1783843D01*
X6859933Y1783324D01*
X6858684Y1782725D01*
X6857509Y1782046D01*
X6856408Y1781287D01*
Y1809274D01*
X6857509Y1808515D01*
D02*
G37*
G36*
X7520152Y1653019D02*
X7520317Y1651336D01*
X7520591Y1649761D01*
X7520976Y1648295D01*
X7521470Y1646936D01*
X7522073Y1645685D01*
X7522787Y1644543D01*
X7523610Y1643508D01*
X7524543Y1642581D01*
X7525586Y1641763D01*
X7505077Y1636332D01*
Y1613408D01*
X7503977Y1614167D01*
X7502802Y1614846D01*
X7501552Y1615445D01*
X7500229Y1615964D01*
X7498831Y1616403D01*
X7497358Y1616763D01*
X7495811Y1617042D01*
X7494190Y1617242D01*
X7490725Y1617402D01*
Y1637402D01*
X7492495Y1637441D01*
X7495811Y1637761D01*
X7497358Y1638041D01*
X7498831Y1638400D01*
X7499966Y1638757D01*
X7500048Y1642293D01*
X7500097Y1654518D01*
X7520097Y1654810D01*
X7520152Y1653019D01*
D02*
G37*
G36*
X7029471Y1611476D02*
X7028434Y1612368D01*
X7027315Y1613167D01*
X7026115Y1613872D01*
X7024833Y1614482D01*
X7023470Y1614999D01*
X7022025Y1615422D01*
X7020499Y1615751D01*
X7018891Y1615986D01*
X7017202Y1616127D01*
X7015431Y1616174D01*
X7018209Y1636174D01*
X7020065Y1636201D01*
X7024994Y1636611D01*
X7026424Y1636857D01*
X7027748Y1637157D01*
X7028965Y1637512D01*
X7030076Y1637922D01*
X7031081Y1638386D01*
X7031979Y1638905D01*
X7029471Y1611476D01*
D02*
G37*
G36*
X6376921Y1621902D02*
X6375698Y1620622D01*
X6373579Y1618051D01*
X6372683Y1616760D01*
X6371896Y1615465D01*
X6371218Y1614165D01*
X6370649Y1612862D01*
X6370189Y1611555D01*
X6369838Y1610244D01*
X6369596Y1608929D01*
X6349807Y1628719D01*
X6351122Y1628961D01*
X6352433Y1629312D01*
X6353739Y1629772D01*
X6355043Y1630341D01*
X6356342Y1631019D01*
X6357637Y1631806D01*
X6358929Y1632702D01*
X6360216Y1633707D01*
X6362779Y1636044D01*
X6376921Y1621902D01*
D02*
G37*
G36*
X6365569Y1599859D02*
X6364904Y1598693D01*
X6364317Y1597451D01*
X6363808Y1596132D01*
X6363378Y1594738D01*
X6363026Y1593267D01*
X6362752Y1591720D01*
X6362556Y1590097D01*
X6362400Y1586623D01*
X6342400Y1586443D01*
X6342359Y1588211D01*
X6342035Y1591526D01*
X6341752Y1593072D01*
X6341387Y1594544D01*
X6340942Y1595941D01*
X6340415Y1597265D01*
X6339807Y1598514D01*
X6339118Y1599689D01*
X6338349Y1600790D01*
X6366313Y1600950D01*
X6365569Y1599859D01*
D02*
G37*
G36*
X6362600Y1346200D02*
X6363200Y1342800D01*
X6364200Y1339800D01*
X6365600Y1337200D01*
X6367400Y1335000D01*
X6369600Y1333200D01*
X6372200Y1331800D01*
X6375200Y1330800D01*
X6378600Y1330200D01*
X6382400Y1330000D01*
X6352400Y1310000D01*
X6322400Y1330000D01*
X6326200Y1330200D01*
X6329600Y1330800D01*
X6332600Y1331800D01*
X6335200Y1333200D01*
X6337400Y1335000D01*
X6339200Y1337200D01*
X6340600Y1339800D01*
X6341600Y1342800D01*
X6342200Y1346200D01*
X6342400Y1350000D01*
X6362400D01*
X6362600Y1346200D01*
D02*
G37*
G36*
X5352600D02*
X5353200Y1342800D01*
X5354200Y1339800D01*
X5355600Y1337200D01*
X5357400Y1335000D01*
X5359600Y1333200D01*
X5362200Y1331800D01*
X5365200Y1330800D01*
X5368600Y1330200D01*
X5372400Y1330000D01*
X5342400Y1310000D01*
X5312400Y1330000D01*
X5316200Y1330200D01*
X5319600Y1330800D01*
X5322600Y1331800D01*
X5325200Y1333200D01*
X5327400Y1335000D01*
X5329200Y1337200D01*
X5330600Y1339800D01*
X5331600Y1342800D01*
X5332200Y1346200D01*
X5332400Y1350000D01*
X5352400D01*
X5352600Y1346200D01*
D02*
G37*
%LPC*%
G36*
X8036650Y6118136D02*
X8005400D01*
Y6015000D01*
X8111036D01*
Y6043750D01*
X8108501Y6063002D01*
X8101070Y6080943D01*
X8089249Y6096349D01*
X8073843Y6108170D01*
X8055902Y6115601D01*
X8036650Y6118136D01*
D02*
G37*
G36*
X7985400D02*
X7954150D01*
X7934898Y6115601D01*
X7916957Y6108170D01*
X7901551Y6096349D01*
X7889730Y6080943D01*
X7882298Y6063002D01*
X7879764Y6043750D01*
Y6015000D01*
X7985400D01*
Y6118136D01*
D02*
G37*
G36*
X8111036Y5995000D02*
X8005400D01*
Y5891864D01*
X8036650D01*
X8055902Y5894398D01*
X8073843Y5901830D01*
X8089249Y5913651D01*
X8101070Y5929057D01*
X8108501Y5946998D01*
X8111036Y5966250D01*
Y5995000D01*
D02*
G37*
G36*
X7985400D02*
X7879764D01*
Y5966250D01*
X7882298Y5946998D01*
X7889730Y5929057D01*
X7901551Y5913651D01*
X7916957Y5901830D01*
X7934898Y5894398D01*
X7954150Y5891864D01*
X7985400D01*
Y5995000D01*
D02*
G37*
G36*
X7544900Y6132126D02*
X7459900D01*
X7440974Y6129634D01*
X7423337Y6122329D01*
X7408192Y6110708D01*
X7396572Y6095563D01*
X7389266Y6077927D01*
X7386775Y6059000D01*
Y5934000D01*
X7389266Y5915074D01*
X7396572Y5897437D01*
X7408192Y5882292D01*
X7423337Y5870672D01*
X7440974Y5863366D01*
X7459900Y5860874D01*
X7544900D01*
X7563826Y5863366D01*
X7581463Y5870672D01*
X7596608Y5882292D01*
X7608228Y5897437D01*
X7615534Y5915074D01*
X7618025Y5934000D01*
Y6059000D01*
X7615534Y6077927D01*
X7608228Y6095563D01*
X7596608Y6110708D01*
X7581463Y6122329D01*
X7563826Y6129634D01*
X7544900Y6132126D01*
D02*
G37*
G36*
X7290900D02*
X7205900D01*
X7186974Y6129634D01*
X7169337Y6122329D01*
X7154192Y6110708D01*
X7142572Y6095563D01*
X7135266Y6077927D01*
X7132775Y6059000D01*
Y5934000D01*
X7135266Y5915074D01*
X7142572Y5897437D01*
X7154192Y5882292D01*
X7169337Y5870672D01*
X7186974Y5863366D01*
X7205900Y5860874D01*
X7290900D01*
X7309826Y5863366D01*
X7327463Y5870672D01*
X7342608Y5882292D01*
X7354228Y5897437D01*
X7361534Y5915074D01*
X7364025Y5934000D01*
Y6059000D01*
X7361534Y6077927D01*
X7354228Y6095563D01*
X7342608Y6110708D01*
X7327463Y6122329D01*
X7309826Y6129634D01*
X7290900Y6132126D01*
D02*
G37*
G36*
X7036900D02*
X6951900D01*
X6932974Y6129634D01*
X6915337Y6122329D01*
X6900192Y6110708D01*
X6888572Y6095563D01*
X6881266Y6077927D01*
X6878775Y6059000D01*
Y5934000D01*
X6881266Y5915074D01*
X6888572Y5897437D01*
X6900192Y5882292D01*
X6915337Y5870672D01*
X6932974Y5863366D01*
X6951900Y5860874D01*
X7036900D01*
X7055826Y5863366D01*
X7073463Y5870672D01*
X7088608Y5882292D01*
X7100228Y5897437D01*
X7107534Y5915074D01*
X7110025Y5934000D01*
Y6059000D01*
X7107534Y6077927D01*
X7100228Y6095563D01*
X7088608Y6110708D01*
X7073463Y6122329D01*
X7055826Y6129634D01*
X7036900Y6132126D01*
D02*
G37*
G36*
X6782900D02*
X6697900D01*
X6678974Y6129634D01*
X6661337Y6122329D01*
X6646192Y6110708D01*
X6634572Y6095563D01*
X6627266Y6077927D01*
X6624775Y6059000D01*
Y5934000D01*
X6627266Y5915074D01*
X6634572Y5897437D01*
X6646192Y5882292D01*
X6661337Y5870672D01*
X6678974Y5863366D01*
X6697900Y5860874D01*
X6782900D01*
X6801826Y5863366D01*
X6819463Y5870672D01*
X6834608Y5882292D01*
X6846228Y5897437D01*
X6853534Y5915074D01*
X6856025Y5934000D01*
Y6059000D01*
X6853534Y6077927D01*
X6846228Y6095563D01*
X6834608Y6110708D01*
X6819463Y6122329D01*
X6801826Y6129634D01*
X6782900Y6132126D01*
D02*
G37*
G36*
X7102638Y5769110D02*
X7083742D01*
X7066284Y5761879D01*
X7052922Y5748517D01*
X7045690Y5731059D01*
Y5712162D01*
X7052922Y5694704D01*
X7066284Y5681342D01*
X7083742Y5674111D01*
X7102638D01*
X7120097Y5681342D01*
X7133458Y5694704D01*
X7140690Y5712162D01*
Y5731059D01*
X7133458Y5748517D01*
X7120097Y5761879D01*
X7102638Y5769110D01*
D02*
G37*
G36*
X8071848Y5757500D02*
X8052952D01*
X8035493Y5750268D01*
X8022132Y5736906D01*
X8014900Y5719448D01*
Y5700552D01*
X8022132Y5683094D01*
X8030424Y5674800D01*
X8024817Y5669193D01*
X8017586Y5651735D01*
Y5632838D01*
X8024817Y5615380D01*
X8038179Y5602018D01*
X8055637Y5594787D01*
X8074534D01*
X8091992Y5602018D01*
X8105354Y5615380D01*
X8112585Y5632838D01*
Y5651735D01*
X8105354Y5669193D01*
X8097061Y5677486D01*
X8102668Y5683094D01*
X8109900Y5700552D01*
Y5719448D01*
X8102668Y5736906D01*
X8089306Y5750268D01*
X8071848Y5757500D01*
D02*
G37*
G36*
X8227189Y5727795D02*
X8208292D01*
X8190834Y5720563D01*
X8177472Y5707201D01*
X8170241Y5689743D01*
Y5670847D01*
X8177472Y5653388D01*
X8179570Y5651291D01*
X8174021Y5637893D01*
Y5618997D01*
X8181252Y5601539D01*
X8194614Y5588177D01*
X8212072Y5580945D01*
X8230969D01*
X8248427Y5588177D01*
X8261789Y5601539D01*
X8269020Y5618997D01*
Y5637893D01*
X8261789Y5655352D01*
X8259691Y5657449D01*
X8265241Y5670847D01*
Y5689743D01*
X8258009Y5707201D01*
X8244647Y5720563D01*
X8227189Y5727795D01*
D02*
G37*
G36*
X8085941Y5489946D02*
X8067045D01*
X8049587Y5482714D01*
X8036225Y5469352D01*
X8028993Y5451894D01*
Y5432998D01*
X8036225Y5415539D01*
X8044840Y5406924D01*
X8043669Y5404097D01*
Y5385200D01*
X8050901Y5367742D01*
X8064263Y5354380D01*
X8081721Y5347149D01*
X8100618D01*
X8118076Y5354380D01*
X8131438Y5367742D01*
X8138669Y5385200D01*
Y5404097D01*
X8131438Y5421555D01*
X8122822Y5430170D01*
X8123993Y5432998D01*
Y5451894D01*
X8116762Y5469352D01*
X8103400Y5482714D01*
X8085941Y5489946D01*
D02*
G37*
G36*
X8224921Y5489327D02*
X8206025D01*
X8188567Y5482096D01*
X8175205Y5468734D01*
X8167973Y5451276D01*
Y5432379D01*
X8175205Y5414921D01*
X8175420Y5414705D01*
X8168728Y5398550D01*
Y5379653D01*
X8175960Y5362195D01*
X8189321Y5348833D01*
X8206780Y5341601D01*
X8225676D01*
X8243134Y5348833D01*
X8256496Y5362195D01*
X8263728Y5379653D01*
Y5398550D01*
X8256496Y5416008D01*
X8256281Y5416223D01*
X8262973Y5432379D01*
Y5451276D01*
X8255741Y5468734D01*
X8242380Y5482096D01*
X8224921Y5489327D01*
D02*
G37*
G36*
X7091848Y5527500D02*
X7072952D01*
X7055494Y5520268D01*
X7042132Y5506906D01*
X7034900Y5489448D01*
Y5470552D01*
X7042132Y5453093D01*
X7055494Y5439732D01*
X7065418Y5435621D01*
X7062434Y5420621D01*
X7052619D01*
X7035161Y5413389D01*
X7021799Y5400028D01*
X7014567Y5382569D01*
Y5363673D01*
X7021799Y5346215D01*
X7035161Y5332853D01*
X7052619Y5325621D01*
X7071515D01*
X7088974Y5332853D01*
X7102336Y5346215D01*
X7109567Y5363673D01*
Y5382569D01*
X7102336Y5400028D01*
X7088974Y5413389D01*
X7079050Y5417500D01*
X7082033Y5432500D01*
X7091848D01*
X7109307Y5439732D01*
X7122669Y5453093D01*
X7129900Y5470552D01*
Y5489448D01*
X7122669Y5506906D01*
X7109307Y5520268D01*
X7091848Y5527500D01*
D02*
G37*
G36*
X7181848Y5271524D02*
X7162952D01*
X7145493Y5264292D01*
X7132132Y5250931D01*
X7124900Y5233472D01*
Y5214576D01*
X7132132Y5197118D01*
X7145493Y5183756D01*
X7162952Y5176524D01*
X7181848D01*
X7199306Y5183756D01*
X7212668Y5197118D01*
X7219900Y5214576D01*
Y5233472D01*
X7212668Y5250931D01*
X7199306Y5264292D01*
X7181848Y5271524D01*
D02*
G37*
G36*
X8117395Y5194771D02*
X8098498D01*
X8081040Y5187540D01*
X8067678Y5174178D01*
X8060447Y5156720D01*
Y5137823D01*
X8064814Y5127280D01*
X8053286Y5115752D01*
X8046055Y5098294D01*
Y5079397D01*
X8053286Y5061939D01*
X8055448Y5059777D01*
X8047355Y5051683D01*
X8040123Y5034225D01*
Y5015328D01*
X8046091Y5000921D01*
X8038141Y4992972D01*
X8030910Y4975514D01*
Y4956617D01*
X8038141Y4939159D01*
X8051503Y4925797D01*
X8068962Y4918566D01*
X8087858D01*
X8105316Y4925797D01*
X8118678Y4939159D01*
X8125910Y4956617D01*
Y4975514D01*
X8119942Y4989921D01*
X8127892Y4997870D01*
X8135123Y5015328D01*
Y5034225D01*
X8127892Y5051683D01*
X8125729Y5053845D01*
X8133823Y5061939D01*
X8141054Y5079397D01*
Y5098294D01*
X8136687Y5108837D01*
X8148215Y5120365D01*
X8155446Y5137823D01*
Y5156720D01*
X8148215Y5174178D01*
X8134853Y5187540D01*
X8117395Y5194771D01*
D02*
G37*
G36*
X8221848Y4767500D02*
X8202952D01*
X8185494Y4760268D01*
X8172132Y4746906D01*
X8164900Y4729448D01*
Y4710552D01*
X8172132Y4693093D01*
X8185494Y4679732D01*
X8202952Y4672500D01*
X8221848D01*
X8239307Y4679732D01*
X8252669Y4693093D01*
X8259900Y4710552D01*
Y4729448D01*
X8252669Y4746906D01*
X8239307Y4760268D01*
X8221848Y4767500D01*
D02*
G37*
G36*
X8081848D02*
X8062952D01*
X8045493Y4760268D01*
X8032132Y4746906D01*
X8024900Y4729448D01*
Y4710552D01*
X8032132Y4693093D01*
X8045493Y4679732D01*
X8062952Y4672500D01*
X8081848D01*
X8099306Y4679732D01*
X8112668Y4693093D01*
X8119900Y4710552D01*
Y4729448D01*
X8112668Y4746906D01*
X8099306Y4760268D01*
X8081848Y4767500D01*
D02*
G37*
G36*
X8230638Y4621066D02*
X8211742D01*
X8194284Y4613835D01*
X8187318Y4606869D01*
X8172479Y4600493D01*
X8155022Y4607724D01*
X8136125D01*
X8118667Y4600493D01*
X8105305Y4587131D01*
X8098073Y4569673D01*
Y4550776D01*
X8105305Y4533318D01*
X8109794Y4528829D01*
X8104878Y4523912D01*
X8097646Y4506454D01*
Y4487557D01*
X8104878Y4470099D01*
X8118240Y4456737D01*
X8135698Y4449506D01*
X8154594D01*
X8172052Y4456737D01*
X8185414Y4470099D01*
X8188148Y4476700D01*
X8205842Y4480219D01*
X8205876Y4480185D01*
X8223334Y4472954D01*
X8242231D01*
X8259689Y4480185D01*
X8273051Y4493547D01*
X8280282Y4511005D01*
Y4529902D01*
X8273051Y4547360D01*
X8265059Y4555352D01*
X8268690Y4564118D01*
Y4583014D01*
X8261458Y4600473D01*
X8248097Y4613835D01*
X8230638Y4621066D01*
D02*
G37*
G36*
X7226848Y4572500D02*
X7207952D01*
X7190494Y4565268D01*
X7177132Y4551907D01*
X7169900Y4534448D01*
Y4515552D01*
X7177132Y4498094D01*
X7190494Y4484732D01*
X7207952Y4477500D01*
X7226848D01*
X7244307Y4484732D01*
X7257668Y4498094D01*
X7264900Y4515552D01*
Y4534448D01*
X7257668Y4551907D01*
X7244307Y4565268D01*
X7226848Y4572500D01*
D02*
G37*
G36*
X6742240Y4526513D02*
X6723343D01*
X6705885Y4519282D01*
X6692523Y4505920D01*
X6685292Y4488462D01*
Y4469565D01*
X6692523Y4452107D01*
X6705885Y4438745D01*
X6723343Y4431514D01*
X6742240D01*
X6759698Y4438745D01*
X6773060Y4452107D01*
X6780291Y4469565D01*
Y4488462D01*
X6773060Y4505920D01*
X6759698Y4519282D01*
X6742240Y4526513D01*
D02*
G37*
G36*
X7172400Y4448072D02*
X7151150D01*
X7133855Y4445795D01*
X7117739Y4439119D01*
X7103900Y4428500D01*
X7093281Y4414661D01*
X7086605Y4398545D01*
X7084328Y4381250D01*
Y4340000D01*
X7172400D01*
Y4448072D01*
D02*
G37*
G36*
X6933650Y4443028D02*
X6871150D01*
X6855161Y4440923D01*
X6840261Y4434752D01*
X6827466Y4424934D01*
X6817648Y4412139D01*
X6811477Y4397239D01*
X6809371Y4381250D01*
Y4278750D01*
X6811477Y4262761D01*
X6817648Y4247861D01*
X6827466Y4235066D01*
X6840261Y4225248D01*
X6855161Y4219077D01*
X6871150Y4216971D01*
X6933650D01*
X6949639Y4219077D01*
X6964539Y4225248D01*
X6977334Y4235066D01*
X6987152Y4247861D01*
X6993323Y4262761D01*
X6994841Y4274290D01*
X7001688D01*
X7021197Y4278170D01*
X7037736Y4289221D01*
X7048787Y4305760D01*
X7052667Y4325269D01*
X7048787Y4344778D01*
X7037736Y4361317D01*
X7021197Y4372368D01*
X7001688Y4376249D01*
X6995428D01*
Y4381250D01*
X6993323Y4397239D01*
X6987152Y4412139D01*
X6977334Y4424934D01*
X6964539Y4434752D01*
X6949639Y4440923D01*
X6933650Y4443028D01*
D02*
G37*
G36*
X7172400Y4320000D02*
X7084328D01*
Y4278750D01*
X7086605Y4261455D01*
X7093281Y4245339D01*
X7103900Y4231500D01*
X7117739Y4220881D01*
X7133855Y4214205D01*
X7151150Y4211928D01*
X7172400D01*
Y4320000D01*
D02*
G37*
G36*
X8186650Y4298136D02*
X8155400D01*
Y4195000D01*
X8261036D01*
Y4223750D01*
X8258501Y4243002D01*
X8251070Y4260943D01*
X8239249Y4276349D01*
X8223843Y4288170D01*
X8205902Y4295602D01*
X8186650Y4298136D01*
D02*
G37*
G36*
X6831848Y3995000D02*
X6812952D01*
X6795494Y3987769D01*
X6782132Y3974407D01*
X6774900Y3956948D01*
Y3938052D01*
X6782132Y3920594D01*
X6795494Y3907232D01*
X6812952Y3900000D01*
X6828489D01*
X6836438Y3891866D01*
X6839273Y3886840D01*
X6835824Y3878512D01*
Y3859616D01*
X6843055Y3842158D01*
X6856417Y3828796D01*
X6873876Y3821564D01*
X6892772D01*
X6910230Y3828796D01*
X6923592Y3842158D01*
X6930824Y3859616D01*
Y3878512D01*
X6923592Y3895971D01*
X6910230Y3909333D01*
X6892772Y3916564D01*
X6877235D01*
X6869286Y3924699D01*
X6866451Y3929724D01*
X6869900Y3938052D01*
Y3956948D01*
X6862669Y3974407D01*
X6849307Y3987769D01*
X6831848Y3995000D01*
D02*
G37*
G36*
X8160644Y3829467D02*
X8141747D01*
X8124289Y3822236D01*
X8110927Y3808874D01*
X8103696Y3791416D01*
Y3772519D01*
X8110927Y3755061D01*
X8124289Y3741699D01*
X8141747Y3734468D01*
X8160644D01*
X8178102Y3741699D01*
X8191464Y3755061D01*
X8198695Y3772519D01*
Y3791416D01*
X8191464Y3808874D01*
X8178102Y3822236D01*
X8160644Y3829467D01*
D02*
G37*
G36*
X8005400Y3388136D02*
Y3285000D01*
X8111036D01*
Y3313750D01*
X8108501Y3333002D01*
X8101070Y3350943D01*
X8089249Y3366349D01*
X8073843Y3378170D01*
X8055902Y3385602D01*
X8036650Y3388136D01*
X8005400D01*
D02*
G37*
G36*
X7132778Y3289056D02*
X7113881D01*
X7096423Y3281825D01*
X7083061Y3268463D01*
X7075830Y3251004D01*
Y3232108D01*
X7083061Y3214650D01*
X7096423Y3201288D01*
X7113881Y3194056D01*
X7132778D01*
X7150236Y3201288D01*
X7163598Y3214650D01*
X7170829Y3232108D01*
Y3251004D01*
X7163598Y3268463D01*
X7150236Y3281825D01*
X7132778Y3289056D01*
D02*
G37*
G36*
X6861849Y3260713D02*
X6842952D01*
X6825494Y3253481D01*
X6812132Y3240119D01*
X6804901Y3222661D01*
Y3203764D01*
X6812132Y3186306D01*
X6825494Y3172944D01*
X6842952Y3165713D01*
X6861849D01*
X6879307Y3172944D01*
X6892669Y3186306D01*
X6899900Y3203764D01*
Y3222661D01*
X6892669Y3240119D01*
X6879307Y3253481D01*
X6861849Y3260713D01*
D02*
G37*
G36*
X8111036Y3265000D02*
X8005400D01*
Y3161864D01*
X8036650D01*
X8055902Y3164399D01*
X8073843Y3171830D01*
X8089249Y3183651D01*
X8101070Y3199057D01*
X8108501Y3216998D01*
X8111036Y3236250D01*
Y3265000D01*
D02*
G37*
G36*
X7985400D02*
X7879764D01*
Y3236250D01*
X7882298Y3216998D01*
X7889730Y3199057D01*
X7901551Y3183651D01*
X7916957Y3171830D01*
X7934898Y3164399D01*
X7954150Y3161864D01*
X7985400D01*
Y3265000D01*
D02*
G37*
G36*
X8080079Y2764781D02*
X8061182D01*
X8043724Y2757550D01*
X8030362Y2744188D01*
X8023131Y2726730D01*
Y2707833D01*
X8030362Y2690375D01*
X8032981Y2687756D01*
X8032132Y2686906D01*
X8024900Y2669448D01*
Y2650552D01*
X8032132Y2633094D01*
X8045493Y2619732D01*
X8062952Y2612500D01*
X8081848D01*
X8099306Y2619732D01*
X8112668Y2633094D01*
X8119900Y2650552D01*
Y2669448D01*
X8112668Y2686906D01*
X8110049Y2689525D01*
X8110899Y2690375D01*
X8118130Y2707833D01*
Y2726730D01*
X8110899Y2744188D01*
X8097537Y2757550D01*
X8080079Y2764781D01*
D02*
G37*
G36*
X8082808Y2520340D02*
X8063912D01*
X8046454Y2513109D01*
X8033092Y2499747D01*
X8025860Y2482289D01*
Y2463392D01*
X8032526Y2447301D01*
X8032132Y2446906D01*
X8024900Y2429448D01*
Y2410552D01*
X8032132Y2393094D01*
X8045493Y2379732D01*
X8059418Y2373964D01*
X8060506Y2359280D01*
X8060374Y2358568D01*
X8046629Y2352874D01*
X8033267Y2339512D01*
X8026036Y2322054D01*
Y2303158D01*
X8030792Y2291675D01*
X8027204Y2288087D01*
X8019973Y2270629D01*
Y2251732D01*
X8027204Y2234274D01*
X8040566Y2220912D01*
X8058024Y2213681D01*
X8076921D01*
X8094379Y2220912D01*
X8107741Y2234274D01*
X8114972Y2251732D01*
Y2270629D01*
X8110216Y2282112D01*
X8113804Y2285700D01*
X8121035Y2303158D01*
Y2322054D01*
X8113804Y2339512D01*
X8100442Y2352874D01*
X8086517Y2358642D01*
X8085429Y2373326D01*
X8085561Y2374038D01*
X8099306Y2379732D01*
X8112668Y2393094D01*
X8119900Y2410552D01*
Y2429448D01*
X8113234Y2445540D01*
X8113628Y2445934D01*
X8120860Y2463392D01*
Y2482289D01*
X8113628Y2499747D01*
X8100267Y2513109D01*
X8082808Y2520340D01*
D02*
G37*
G36*
X8146789Y2052412D02*
X8127892D01*
X8110434Y2045181D01*
X8102549Y2037296D01*
X8099404Y2040442D01*
X8081946Y2047673D01*
X8063049D01*
X8045591Y2040442D01*
X8032229Y2027080D01*
X8024998Y2009622D01*
Y1990725D01*
X8032229Y1973267D01*
X8045591Y1959905D01*
X8063049Y1952674D01*
X8081946D01*
X8099404Y1959905D01*
X8107289Y1967790D01*
X8110434Y1964644D01*
X8127892Y1957413D01*
X8146789D01*
X8164247Y1964644D01*
X8177609Y1978006D01*
X8184840Y1995464D01*
Y2014361D01*
X8177609Y2031819D01*
X8164247Y2045181D01*
X8146789Y2052412D01*
D02*
G37*
G36*
X7238400Y1605169D02*
X7205900D01*
X7185668Y1602505D01*
X7166816Y1594696D01*
X7150627Y1582274D01*
X7138204Y1566084D01*
X7130395Y1547232D01*
X7127731Y1527000D01*
Y1474500D01*
X7238400D01*
Y1605169D01*
D02*
G37*
G36*
X8261036Y1445000D02*
X8155400D01*
Y1341864D01*
X8186650D01*
X8205902Y1344399D01*
X8223843Y1351830D01*
X8239249Y1363651D01*
X8251070Y1379057D01*
X8258501Y1396998D01*
X8261036Y1416250D01*
Y1445000D01*
D02*
G37*
G36*
X8135400D02*
X8029764D01*
Y1416250D01*
X8032299Y1396998D01*
X8039730Y1379057D01*
X8051551Y1363651D01*
X8066957Y1351830D01*
X8084898Y1344399D01*
X8104150Y1341864D01*
X8135400D01*
Y1445000D01*
D02*
G37*
%LPD*%
G36*
X6964867Y4349018D02*
X6966027Y4348232D01*
X6967920Y4347537D01*
X6970546Y4346935D01*
X6973904Y4346426D01*
X6982819Y4345686D01*
X7001688Y4345269D01*
Y4305269D01*
X6994665Y4305223D01*
X6970546Y4303603D01*
X6967920Y4303001D01*
X6966027Y4302307D01*
X6964867Y4301520D01*
X6964440Y4300641D01*
Y4349898D01*
X6964867Y4349018D01*
D02*
G37*
%LPC*%
G36*
X5766900Y6132126D02*
X5681900D01*
X5662974Y6129634D01*
X5645337Y6122329D01*
X5630192Y6110708D01*
X5618572Y6095563D01*
X5611266Y6077927D01*
X5608775Y6059000D01*
Y5939798D01*
X5605537Y5937634D01*
X5586641D01*
X5586025Y5938046D01*
Y6059000D01*
X5583534Y6077927D01*
X5576228Y6095563D01*
X5564608Y6110708D01*
X5549463Y6122329D01*
X5531826Y6129634D01*
X5512900Y6132126D01*
X5427900D01*
X5408974Y6129634D01*
X5391337Y6122329D01*
X5376192Y6110708D01*
X5364572Y6095563D01*
X5357266Y6077927D01*
X5354775Y6059000D01*
Y5934000D01*
X5357266Y5915074D01*
X5364572Y5897437D01*
X5376192Y5882292D01*
X5391337Y5870672D01*
X5408974Y5863366D01*
X5427900Y5860874D01*
X5512900D01*
X5531826Y5863366D01*
X5538399Y5866089D01*
X5555821Y5863228D01*
X5569182Y5849866D01*
X5586641Y5842635D01*
X5605537D01*
X5622995Y5849866D01*
X5636357Y5863228D01*
X5654162Y5867016D01*
X5662974Y5863366D01*
X5681900Y5860874D01*
X5766900D01*
X5785826Y5863366D01*
X5803463Y5870672D01*
X5818608Y5882292D01*
X5830228Y5897437D01*
X5837534Y5915074D01*
X5840025Y5934000D01*
Y6059000D01*
X5837534Y6077927D01*
X5830228Y6095563D01*
X5818608Y6110708D01*
X5803463Y6122329D01*
X5785826Y6129634D01*
X5766900Y6132126D01*
D02*
G37*
G36*
X6020900D02*
X5935900D01*
X5916974Y6129634D01*
X5899337Y6122329D01*
X5884192Y6110708D01*
X5872572Y6095563D01*
X5865266Y6077927D01*
X5862775Y6059000D01*
Y5934000D01*
X5865266Y5915074D01*
X5872572Y5897437D01*
X5884192Y5882292D01*
X5899337Y5870672D01*
X5916974Y5863366D01*
X5935900Y5860874D01*
X6020900D01*
X6039826Y5863366D01*
X6057463Y5870672D01*
X6072608Y5882292D01*
X6084228Y5897437D01*
X6091534Y5915074D01*
X6094025Y5934000D01*
Y6059000D01*
X6091534Y6077927D01*
X6084228Y6095563D01*
X6072608Y6110708D01*
X6057463Y6122329D01*
X6039826Y6129634D01*
X6020900Y6132126D01*
D02*
G37*
G36*
X4496900D02*
X4411900D01*
X4392974Y6129634D01*
X4375337Y6122329D01*
X4360192Y6110708D01*
X4348572Y6095563D01*
X4341266Y6077927D01*
X4338775Y6059000D01*
Y5934000D01*
X4341266Y5915074D01*
X4348572Y5897437D01*
X4360192Y5882292D01*
X4375337Y5870672D01*
X4392974Y5863366D01*
X4411900Y5860874D01*
X4496900D01*
X4515826Y5863366D01*
X4533463Y5870672D01*
X4548608Y5882292D01*
X4560228Y5897437D01*
X4567534Y5915074D01*
X4570025Y5934000D01*
Y6059000D01*
X4567534Y6077927D01*
X4560228Y6095563D01*
X4548608Y6110708D01*
X4533463Y6122329D01*
X4515826Y6129634D01*
X4496900Y6132126D01*
D02*
G37*
G36*
X3988900D02*
X3903900D01*
X3884974Y6129634D01*
X3867337Y6122329D01*
X3852192Y6110708D01*
X3840572Y6095563D01*
X3833266Y6077927D01*
X3830775Y6059000D01*
Y5934000D01*
X3833266Y5915074D01*
X3840572Y5897437D01*
X3852192Y5882292D01*
X3867337Y5870672D01*
X3884974Y5863366D01*
X3903900Y5860874D01*
X3988900D01*
X4007826Y5863366D01*
X4025463Y5870672D01*
X4040608Y5882292D01*
X4052228Y5897437D01*
X4059534Y5915074D01*
X4062025Y5934000D01*
Y6059000D01*
X4059534Y6077927D01*
X4052228Y6095563D01*
X4040608Y6110708D01*
X4025463Y6122329D01*
X4007826Y6129634D01*
X3988900Y6132126D01*
D02*
G37*
G36*
X3734900D02*
X3649900D01*
X3630974Y6129634D01*
X3613337Y6122329D01*
X3598192Y6110708D01*
X3586572Y6095563D01*
X3579266Y6077927D01*
X3576775Y6059000D01*
Y5934000D01*
X3579266Y5915074D01*
X3586572Y5897437D01*
X3598192Y5882292D01*
X3613337Y5870672D01*
X3630974Y5863366D01*
X3649900Y5860874D01*
X3734900D01*
X3753826Y5863366D01*
X3771463Y5870672D01*
X3786608Y5882292D01*
X3798228Y5897437D01*
X3805534Y5915074D01*
X3808025Y5934000D01*
Y6059000D01*
X3805534Y6077927D01*
X3798228Y6095563D01*
X3786608Y6110708D01*
X3771463Y6122329D01*
X3753826Y6129634D01*
X3734900Y6132126D01*
D02*
G37*
G36*
X3480900D02*
X3395900D01*
X3376974Y6129634D01*
X3359337Y6122329D01*
X3344192Y6110708D01*
X3332572Y6095563D01*
X3325266Y6077927D01*
X3322775Y6059000D01*
Y5934000D01*
X3325266Y5915074D01*
X3332572Y5897437D01*
X3344192Y5882292D01*
X3359337Y5870672D01*
X3376974Y5863366D01*
X3395900Y5860874D01*
X3480900D01*
X3499826Y5863366D01*
X3517463Y5870672D01*
X3532608Y5882292D01*
X3544228Y5897437D01*
X3551534Y5915074D01*
X3554025Y5934000D01*
Y6059000D01*
X3551534Y6077927D01*
X3544228Y6095563D01*
X3532608Y6110708D01*
X3517463Y6122329D01*
X3499826Y6129634D01*
X3480900Y6132126D01*
D02*
G37*
G36*
X3226900D02*
X3141900D01*
X3122974Y6129634D01*
X3105337Y6122329D01*
X3090192Y6110708D01*
X3078572Y6095563D01*
X3071266Y6077927D01*
X3068775Y6059000D01*
Y5934000D01*
X3071266Y5915074D01*
X3078572Y5897437D01*
X3090192Y5882292D01*
X3105337Y5870672D01*
X3122974Y5863366D01*
X3141900Y5860874D01*
X3226900D01*
X3245826Y5863366D01*
X3263463Y5870672D01*
X3278608Y5882292D01*
X3290228Y5897437D01*
X3297534Y5915074D01*
X3300025Y5934000D01*
Y6059000D01*
X3297534Y6077927D01*
X3290228Y6095563D01*
X3278608Y6110708D01*
X3263463Y6122329D01*
X3245826Y6129634D01*
X3226900Y6132126D01*
D02*
G37*
G36*
X5258900D02*
X5173900D01*
X5154974Y6129634D01*
X5137337Y6122329D01*
X5122192Y6110708D01*
X5110572Y6095563D01*
X5103266Y6077927D01*
X5100775Y6059000D01*
Y5934000D01*
X5103266Y5915074D01*
X5105158Y5910507D01*
X5097366Y5891044D01*
X5095493Y5890268D01*
X5082132Y5876906D01*
X5074900Y5859448D01*
Y5840552D01*
X5082132Y5823094D01*
X5095493Y5809732D01*
X5112952Y5802500D01*
X5131848D01*
X5149306Y5809732D01*
X5162668Y5823094D01*
X5169900Y5840552D01*
Y5846272D01*
X5173614Y5859830D01*
X5183758Y5860874D01*
X5258900D01*
X5277826Y5863366D01*
X5295463Y5870672D01*
X5310608Y5882292D01*
X5322228Y5897437D01*
X5329534Y5915074D01*
X5332025Y5934000D01*
Y6059000D01*
X5329534Y6077927D01*
X5322228Y6095563D01*
X5310608Y6110708D01*
X5295463Y6122329D01*
X5277826Y6129634D01*
X5258900Y6132126D01*
D02*
G37*
G36*
X4242900D02*
X4157900D01*
X4138974Y6129634D01*
X4121337Y6122329D01*
X4106192Y6110708D01*
X4094572Y6095563D01*
X4087266Y6077927D01*
X4084775Y6059000D01*
Y5934000D01*
X4087266Y5915074D01*
X4094572Y5897437D01*
X4106192Y5882292D01*
X4121337Y5870672D01*
X4138974Y5863366D01*
X4157900Y5860874D01*
X4223947D01*
X4224900Y5859448D01*
Y5840552D01*
X4232132Y5823094D01*
X4245494Y5809732D01*
X4262952Y5802500D01*
X4281848D01*
X4299307Y5809732D01*
X4312669Y5823094D01*
X4319900Y5840552D01*
Y5859448D01*
X4312669Y5876906D01*
X4300111Y5889464D01*
X4306228Y5897437D01*
X4313534Y5915074D01*
X4316025Y5934000D01*
Y6059000D01*
X4313534Y6077927D01*
X4306228Y6095563D01*
X4294608Y6110708D01*
X4279463Y6122329D01*
X4261826Y6129634D01*
X4242900Y6132126D01*
D02*
G37*
G36*
X4750900D02*
X4665900D01*
X4646974Y6129634D01*
X4629337Y6122329D01*
X4614192Y6110708D01*
X4602572Y6095563D01*
X4595266Y6077927D01*
X4592775Y6059000D01*
Y5934000D01*
X4595266Y5915074D01*
X4602572Y5897437D01*
X4608243Y5890046D01*
X4606523Y5883729D01*
X4601645Y5874004D01*
X4586701Y5867814D01*
X4573339Y5854452D01*
X4566107Y5836994D01*
Y5818098D01*
X4573339Y5800639D01*
X4586701Y5787277D01*
X4604159Y5780046D01*
X4623056D01*
X4640514Y5787277D01*
X4653876Y5800639D01*
X4661107Y5818098D01*
Y5836994D01*
X4656997Y5846917D01*
X4664147Y5858126D01*
X4667052Y5860874D01*
X4750900D01*
X4769826Y5863366D01*
X4787463Y5870672D01*
X4802608Y5882292D01*
X4814228Y5897437D01*
X4821534Y5915074D01*
X4824025Y5934000D01*
Y6059000D01*
X4821534Y6077927D01*
X4814228Y6095563D01*
X4802608Y6110708D01*
X4787463Y6122329D01*
X4769826Y6129634D01*
X4750900Y6132126D01*
D02*
G37*
G36*
X5004900D02*
X4919900D01*
X4900974Y6129634D01*
X4883337Y6122329D01*
X4868192Y6110708D01*
X4856572Y6095563D01*
X4849266Y6077927D01*
X4846775Y6059000D01*
Y5934000D01*
X4849266Y5915074D01*
X4856572Y5897437D01*
X4868192Y5882292D01*
X4883337Y5870672D01*
X4900974Y5863366D01*
X4919900Y5860874D01*
X4921238D01*
X4930409Y5845874D01*
X4926412Y5836223D01*
Y5817326D01*
X4933643Y5799868D01*
X4947005Y5786506D01*
X4964463Y5779274D01*
X4983360D01*
X5000818Y5786506D01*
X5014180Y5799868D01*
X5021411Y5817326D01*
Y5836223D01*
X5016817Y5847314D01*
X5023379Y5862341D01*
X5024971Y5863840D01*
X5041463Y5870672D01*
X5056608Y5882292D01*
X5068228Y5897437D01*
X5075534Y5915074D01*
X5078025Y5934000D01*
Y6059000D01*
X5075534Y6077927D01*
X5068228Y6095563D01*
X5056608Y6110708D01*
X5041463Y6122329D01*
X5023826Y6129634D01*
X5004900Y6132126D01*
D02*
G37*
G36*
X3031324Y5671519D02*
X3012427D01*
X2999850Y5666309D01*
X2999662Y5666272D01*
X2999501Y5666165D01*
X2996213Y5664803D01*
X2976419D01*
X2960812Y5661698D01*
X2947581Y5652858D01*
X2947580Y5652857D01*
X2913562Y5618838D01*
X2909112Y5612179D01*
X2892202Y5609023D01*
X2890624Y5609453D01*
X2864289Y5635788D01*
X2857301Y5640457D01*
X2847670Y5650088D01*
X2830212Y5657319D01*
X2811316D01*
X2793858Y5650088D01*
X2780496Y5636726D01*
X2773264Y5619267D01*
Y5600371D01*
X2780496Y5582913D01*
X2793858Y5569551D01*
X2811316Y5562319D01*
X2822404D01*
X2851617Y5533107D01*
Y5230001D01*
X2851616Y5230000D01*
X2854721Y5214393D01*
X2863562Y5201162D01*
X3401617Y4663107D01*
Y4053001D01*
X3401616Y4053000D01*
X3404721Y4037392D01*
X3413562Y4024161D01*
X3441924Y3995799D01*
X3444134Y3993406D01*
X3445673Y3991482D01*
X3446944Y3989691D01*
X3447583Y3988648D01*
X3446839Y3983000D01*
Y3913000D01*
X3449073Y3896031D01*
X3455623Y3880220D01*
X3466042Y3866641D01*
X3479620Y3856223D01*
X3479873Y3856118D01*
Y3839882D01*
X3479620Y3839777D01*
X3466042Y3829358D01*
X3455623Y3815780D01*
X3449073Y3799968D01*
X3446839Y3783000D01*
Y3713000D01*
X3449073Y3696031D01*
X3455623Y3680219D01*
X3466042Y3666641D01*
X3479620Y3656223D01*
X3479873Y3656118D01*
Y3639882D01*
X3479620Y3639777D01*
X3466042Y3629358D01*
X3455623Y3615780D01*
X3449073Y3599968D01*
X3446839Y3583000D01*
Y3513000D01*
X3449073Y3496031D01*
X3455623Y3480220D01*
X3466042Y3466642D01*
X3479620Y3456223D01*
X3495432Y3449673D01*
X3512400Y3447439D01*
X3612400D01*
X3629368Y3449673D01*
X3645180Y3456223D01*
X3658758Y3466642D01*
X3669177Y3480220D01*
X3674617Y3493353D01*
X3682400Y3494795D01*
X3690183Y3493353D01*
X3695623Y3480220D01*
X3706042Y3466642D01*
X3719620Y3456223D01*
X3735432Y3449673D01*
X3752400Y3447439D01*
X3852400D01*
X3869368Y3449673D01*
X3885180Y3456223D01*
X3898758Y3466642D01*
X3909177Y3480220D01*
X3915727Y3496031D01*
X3917961Y3513000D01*
Y3583000D01*
X3915727Y3599968D01*
X3909177Y3615780D01*
X3898758Y3629358D01*
X3885180Y3639777D01*
X3884927Y3639882D01*
Y3656118D01*
X3885180Y3656223D01*
X3898758Y3666641D01*
X3909177Y3680219D01*
X3915727Y3696031D01*
X3917961Y3713000D01*
Y3783000D01*
X3915727Y3799968D01*
X3914063Y3803986D01*
X4046238Y3936161D01*
X4046238Y3936162D01*
X4055079Y3949393D01*
X4058184Y3965000D01*
X4058183Y3965001D01*
Y4473608D01*
X4058184Y4473609D01*
X4055079Y4489217D01*
X4046238Y4502448D01*
X4046238Y4502448D01*
X3699848Y4848838D01*
X3686616Y4857679D01*
X3671009Y4860784D01*
X3671008Y4860784D01*
X3439293D01*
X3023183Y5276893D01*
Y5523609D01*
X3032668Y5533094D01*
X3039900Y5550552D01*
Y5569448D01*
X3036144Y5578516D01*
X3048782Y5583751D01*
X3062144Y5597113D01*
X3069375Y5614571D01*
Y5633468D01*
X3062144Y5650926D01*
X3048782Y5664288D01*
X3031324Y5671519D01*
D02*
G37*
G36*
X4011848Y5617500D02*
X3992952D01*
X3975493Y5610268D01*
X3962132Y5596907D01*
X3954900Y5579448D01*
Y5560552D01*
X3962132Y5543094D01*
X3975493Y5529732D01*
X3992952Y5522500D01*
X4011848D01*
X4029306Y5529732D01*
X4042668Y5543094D01*
X4049900Y5560552D01*
Y5579448D01*
X4042668Y5596907D01*
X4029306Y5610268D01*
X4011848Y5617500D01*
D02*
G37*
G36*
X3511848Y5597500D02*
X3492952D01*
X3475494Y5590268D01*
X3462132Y5576907D01*
X3454900Y5559448D01*
Y5540552D01*
X3462132Y5523094D01*
X3475494Y5509732D01*
X3492952Y5502500D01*
X3511848D01*
X3529307Y5509732D01*
X3542669Y5523094D01*
X3549900Y5540552D01*
Y5559448D01*
X3542669Y5576907D01*
X3529307Y5590268D01*
X3511848Y5597500D01*
D02*
G37*
G36*
X3901848Y5577500D02*
X3882952D01*
X3865494Y5570269D01*
X3852132Y5556907D01*
X3844900Y5539448D01*
Y5520552D01*
X3852132Y5503094D01*
X3865494Y5489732D01*
X3882952Y5482500D01*
X3901848D01*
X3919307Y5489732D01*
X3932669Y5503094D01*
X3939900Y5520552D01*
Y5539448D01*
X3932669Y5556907D01*
X3919307Y5570269D01*
X3901848Y5577500D01*
D02*
G37*
G36*
X5859930Y5387641D02*
X5841034D01*
X5823576Y5380410D01*
X5810214Y5367048D01*
X5802982Y5349590D01*
Y5330693D01*
X5810214Y5313235D01*
X5823576Y5299873D01*
X5841034Y5292641D01*
X5859930D01*
X5877389Y5299873D01*
X5890750Y5313235D01*
X5897982Y5330693D01*
Y5349590D01*
X5890750Y5367048D01*
X5877389Y5380410D01*
X5859930Y5387641D01*
D02*
G37*
G36*
X4501848Y5227500D02*
X4482952D01*
X4465493Y5220268D01*
X4452132Y5206907D01*
X4444900Y5189448D01*
Y5170552D01*
X4452132Y5153094D01*
X4465493Y5139732D01*
X4482952Y5132500D01*
X4501848D01*
X4519306Y5139732D01*
X4532668Y5153094D01*
X4539900Y5170552D01*
Y5189448D01*
X4532668Y5206907D01*
X4519306Y5220268D01*
X4501848Y5227500D01*
D02*
G37*
G36*
X3381848Y5147500D02*
X3362952D01*
X3345493Y5140268D01*
X3332132Y5126906D01*
X3324900Y5109448D01*
Y5090552D01*
X3332132Y5073093D01*
X3345493Y5059732D01*
X3362952Y5052500D01*
X3381848D01*
X3399306Y5059732D01*
X3412668Y5073093D01*
X3419900Y5090552D01*
Y5109448D01*
X3412668Y5126906D01*
X3399306Y5140268D01*
X3381848Y5147500D01*
D02*
G37*
G36*
X4791848Y5037500D02*
X4772952D01*
X4755494Y5030268D01*
X4742132Y5016906D01*
X4734900Y4999448D01*
Y4980552D01*
X4742132Y4963093D01*
X4755494Y4949732D01*
X4772952Y4942500D01*
X4791848D01*
X4809307Y4949732D01*
X4822669Y4963093D01*
X4829900Y4980552D01*
Y4999448D01*
X4822669Y5016906D01*
X4809307Y5030268D01*
X4791848Y5037500D01*
D02*
G37*
G36*
X4971848Y5007500D02*
X4952952D01*
X4935494Y5000268D01*
X4922132Y4986906D01*
X4914900Y4969448D01*
Y4950552D01*
X4922132Y4933094D01*
X4935494Y4919732D01*
X4952952Y4912500D01*
X4971848D01*
X4989307Y4919732D01*
X5002668Y4933094D01*
X5009900Y4950552D01*
Y4969448D01*
X5002668Y4986906D01*
X4989307Y5000268D01*
X4971848Y5007500D01*
D02*
G37*
G36*
X3060739Y4951103D02*
X3041842D01*
X3024384Y4943871D01*
X3011022Y4930509D01*
X3003791Y4913051D01*
Y4894155D01*
X3011022Y4876696D01*
X3024384Y4863334D01*
X3041842Y4856103D01*
X3060739D01*
X3078197Y4863334D01*
X3091559Y4876696D01*
X3098790Y4894155D01*
Y4913051D01*
X3091559Y4930509D01*
X3078197Y4943871D01*
X3060739Y4951103D01*
D02*
G37*
G36*
X4891420Y4887968D02*
X4872523D01*
X4855065Y4880737D01*
X4841703Y4867375D01*
X4834472Y4849917D01*
Y4831020D01*
X4841703Y4813562D01*
X4855065Y4800200D01*
X4872523Y4792969D01*
X4891420D01*
X4908878Y4800200D01*
X4922240Y4813562D01*
X4929471Y4831020D01*
Y4849917D01*
X4922240Y4867375D01*
X4908878Y4880737D01*
X4891420Y4887968D01*
D02*
G37*
G36*
X3971722Y5235479D02*
X3869223D01*
X3853233Y5233374D01*
X3838333Y5227202D01*
X3825538Y5217384D01*
X3815721Y5204590D01*
X3809549Y5189690D01*
X3807444Y5173700D01*
Y5111200D01*
X3809549Y5095211D01*
X3815721Y5080311D01*
X3825538Y5067516D01*
X3838333Y5057699D01*
X3853233Y5051527D01*
X3861964Y5050378D01*
Y5039299D01*
X3866052Y5024039D01*
X3873952Y5010357D01*
X3879912Y5004396D01*
X3873841Y4998325D01*
X3865942Y4984643D01*
X3861853Y4969384D01*
Y4954509D01*
X3853233Y4953374D01*
X3838333Y4947202D01*
X3825538Y4937384D01*
X3815721Y4924590D01*
X3809549Y4909690D01*
X3807444Y4893700D01*
Y4831200D01*
X3809549Y4815211D01*
X3815721Y4800311D01*
X3825538Y4787516D01*
X3838333Y4777699D01*
X3853233Y4771527D01*
X3869223Y4769422D01*
X3971722D01*
X3987712Y4771527D01*
X4002612Y4777699D01*
X4015406Y4787516D01*
X4025224Y4800311D01*
X4031396Y4815211D01*
X4033501Y4831200D01*
Y4893700D01*
X4031396Y4909690D01*
X4025224Y4924590D01*
X4015406Y4937384D01*
X4002612Y4947202D01*
X3987712Y4953374D01*
X3981853Y4954145D01*
Y4969384D01*
X3977764Y4984643D01*
X3969865Y4998325D01*
X3963904Y5004286D01*
X3969975Y5010357D01*
X3977874Y5024039D01*
X3981963Y5039299D01*
Y5050770D01*
X3987712Y5051527D01*
X4002612Y5057699D01*
X4015406Y5067516D01*
X4025224Y5080311D01*
X4031396Y5095211D01*
X4033501Y5111200D01*
Y5173700D01*
X4031396Y5189690D01*
X4025224Y5204590D01*
X4015406Y5217384D01*
X4002612Y5227202D01*
X3987712Y5233374D01*
X3971722Y5235479D01*
D02*
G37*
G36*
X4402487Y4813270D02*
X4383590D01*
X4366132Y4806039D01*
X4352770Y4792677D01*
X4345539Y4775219D01*
Y4756322D01*
X4352770Y4738864D01*
X4357922Y4733712D01*
X4357621Y4733167D01*
X4339306Y4730268D01*
X4321848Y4737500D01*
X4302952D01*
X4285494Y4730268D01*
X4272132Y4716906D01*
X4264900Y4699448D01*
Y4680552D01*
X4272132Y4663094D01*
X4285494Y4649732D01*
X4302952Y4642500D01*
X4321848D01*
X4339307Y4649732D01*
X4352668Y4663093D01*
X4355948Y4663746D01*
X4366294Y4653399D01*
X4383752Y4646168D01*
X4402649D01*
X4420107Y4653399D01*
X4433469Y4666761D01*
X4440701Y4684219D01*
Y4703116D01*
X4433469Y4720574D01*
X4424243Y4729800D01*
X4433307Y4738864D01*
X4440538Y4756322D01*
Y4775219D01*
X4433307Y4792677D01*
X4419945Y4806039D01*
X4402487Y4813270D01*
D02*
G37*
G36*
X5864074Y4785684D02*
X5845177D01*
X5827719Y4778452D01*
X5814357Y4765091D01*
X5807126Y4747632D01*
Y4728736D01*
X5814357Y4711278D01*
X5827719Y4697916D01*
X5845177Y4690684D01*
X5864074D01*
X5881532Y4697916D01*
X5894894Y4711278D01*
X5902125Y4728736D01*
Y4747632D01*
X5894894Y4765091D01*
X5881532Y4778452D01*
X5864074Y4785684D01*
D02*
G37*
G36*
X5061848Y4647500D02*
X5042952D01*
X5025494Y4640268D01*
X5012132Y4626906D01*
X5004900Y4609448D01*
Y4590552D01*
X5012132Y4573093D01*
X5025494Y4559732D01*
X5042952Y4552500D01*
X5061848D01*
X5079307Y4559732D01*
X5092669Y4573093D01*
X5099900Y4590552D01*
Y4609448D01*
X5092669Y4626906D01*
X5079307Y4640268D01*
X5061848Y4647500D01*
D02*
G37*
G36*
X4531900Y4445826D02*
X4513003D01*
X4495545Y4438595D01*
X4482183Y4425233D01*
X4474952Y4407775D01*
Y4388878D01*
X4482183Y4371420D01*
X4495545Y4358058D01*
X4513003Y4350826D01*
X4531900D01*
X4549358Y4358058D01*
X4562720Y4371420D01*
X4569951Y4388878D01*
Y4407775D01*
X4562720Y4425233D01*
X4549358Y4438595D01*
X4531900Y4445826D01*
D02*
G37*
G36*
X4335945Y4374317D02*
X4317049D01*
X4299590Y4367085D01*
X4286228Y4353723D01*
X4278997Y4336265D01*
Y4317369D01*
X4286228Y4299910D01*
X4299590Y4286548D01*
X4317049Y4279317D01*
X4335945D01*
X4353403Y4286548D01*
X4366765Y4299910D01*
X4373997Y4317369D01*
Y4336265D01*
X4366765Y4353723D01*
X4353403Y4367085D01*
X4335945Y4374317D01*
D02*
G37*
G36*
X4454110Y4149413D02*
X4435213D01*
X4417755Y4142182D01*
X4404393Y4128820D01*
X4397162Y4111362D01*
Y4092465D01*
X4404393Y4075007D01*
X4407983Y4071417D01*
X4400893Y4064327D01*
X4393662Y4046869D01*
Y4027973D01*
X4400893Y4010514D01*
X4414255Y3997153D01*
X4431713Y3989921D01*
X4450610D01*
X4468068Y3997153D01*
X4481430Y4010514D01*
X4488661Y4027973D01*
Y4046869D01*
X4481430Y4064327D01*
X4477840Y4067917D01*
X4484930Y4075007D01*
X4492161Y4092465D01*
Y4111362D01*
X4484930Y4128820D01*
X4471568Y4142182D01*
X4454110Y4149413D01*
D02*
G37*
G36*
X4605446Y4020546D02*
X4586550D01*
X4569091Y4013315D01*
X4555730Y3999953D01*
X4548498Y3982494D01*
Y3963598D01*
X4555730Y3946140D01*
X4559679Y3942190D01*
X4551668Y3934179D01*
X4544436Y3916721D01*
Y3897825D01*
X4551668Y3880366D01*
X4565029Y3867004D01*
X4582488Y3859773D01*
X4601384D01*
X4618842Y3867004D01*
X4632204Y3880366D01*
X4639436Y3897825D01*
Y3916721D01*
X4632204Y3934179D01*
X4628255Y3938129D01*
X4636266Y3946140D01*
X4643498Y3963598D01*
Y3982494D01*
X4636266Y3999953D01*
X4622904Y4013315D01*
X4605446Y4020546D01*
D02*
G37*
G36*
X5419320Y3857500D02*
X5400424D01*
X5382965Y3850268D01*
X5369603Y3836906D01*
X5362372Y3819448D01*
Y3800552D01*
X5369603Y3783094D01*
X5382965Y3769732D01*
X5400424Y3762500D01*
X5419320D01*
X5436778Y3769732D01*
X5450140Y3783094D01*
X5457372Y3800552D01*
Y3819448D01*
X5450140Y3836906D01*
X5436778Y3850268D01*
X5419320Y3857500D01*
D02*
G37*
G36*
X4401848Y3717500D02*
X4382952D01*
X4365494Y3710268D01*
X4352132Y3696906D01*
X4344900Y3679448D01*
Y3660552D01*
X4352132Y3643094D01*
X4365494Y3629732D01*
X4382952Y3622500D01*
X4401848D01*
X4419307Y3629732D01*
X4432669Y3643094D01*
X4439900Y3660552D01*
Y3679448D01*
X4432669Y3696906D01*
X4419307Y3710268D01*
X4401848Y3717500D01*
D02*
G37*
G36*
X3284348Y3597500D02*
X3265452D01*
X3247994Y3590268D01*
X3234632Y3576906D01*
X3227400Y3559448D01*
Y3540552D01*
X3234632Y3523094D01*
X3247994Y3509732D01*
X3265452Y3502500D01*
X3284348D01*
X3301806Y3509732D01*
X3315168Y3523094D01*
X3322400Y3540552D01*
Y3559448D01*
X3315168Y3576906D01*
X3301806Y3590268D01*
X3284348Y3597500D01*
D02*
G37*
G36*
X5373650Y3498072D02*
X5352400D01*
Y3390000D01*
X5440472D01*
Y3431250D01*
X5438195Y3448545D01*
X5431519Y3464661D01*
X5420900Y3478500D01*
X5407061Y3489119D01*
X5390945Y3495795D01*
X5373650Y3498072D01*
D02*
G37*
G36*
X3343650Y3468072D02*
X3302400D01*
Y3380000D01*
X3410472D01*
Y3401250D01*
X3408195Y3418545D01*
X3401519Y3434661D01*
X3390900Y3448500D01*
X3377061Y3459119D01*
X3360945Y3465795D01*
X3343650Y3468072D01*
D02*
G37*
G36*
X3282400D02*
X3241150D01*
X3223855Y3465795D01*
X3207739Y3459119D01*
X3193900Y3448500D01*
X3183281Y3434661D01*
X3176605Y3418545D01*
X3174328Y3401250D01*
Y3380000D01*
X3282400D01*
Y3468072D01*
D02*
G37*
G36*
X3410472Y3360000D02*
X3302400D01*
Y3271928D01*
X3343650D01*
X3360945Y3274205D01*
X3377061Y3280881D01*
X3390900Y3291500D01*
X3401519Y3305339D01*
X3408195Y3321455D01*
X3410472Y3338750D01*
Y3360000D01*
D02*
G37*
G36*
X3282400D02*
X3174328D01*
Y3338750D01*
X3176605Y3321455D01*
X3183281Y3305339D01*
X3193900Y3291500D01*
X3207739Y3280881D01*
X3223855Y3274205D01*
X3241150Y3271928D01*
X3282400D01*
Y3360000D01*
D02*
G37*
G36*
X5440472Y3370000D02*
X5352400D01*
Y3261928D01*
X5373650D01*
X5390945Y3264205D01*
X5407061Y3270881D01*
X5420900Y3281500D01*
X5431519Y3295339D01*
X5438195Y3311455D01*
X5440472Y3328750D01*
Y3370000D01*
D02*
G37*
G36*
X5991836Y3337495D02*
X5972940D01*
X5955481Y3330264D01*
X5942119Y3316902D01*
X5934888Y3299444D01*
Y3280547D01*
X5942119Y3263089D01*
X5955481Y3249727D01*
X5972940Y3242496D01*
X5991836D01*
X6009294Y3249727D01*
X6022656Y3263089D01*
X6029888Y3280547D01*
Y3299444D01*
X6022656Y3316902D01*
X6009294Y3330264D01*
X5991836Y3337495D01*
D02*
G37*
G36*
X3841848Y3297500D02*
X3822952D01*
X3805494Y3290269D01*
X3792132Y3276907D01*
X3784900Y3259448D01*
Y3240552D01*
X3792132Y3223094D01*
X3805494Y3209732D01*
X3822952Y3202500D01*
X3841848D01*
X3859306Y3209732D01*
X3872668Y3223094D01*
X3879900Y3240552D01*
Y3259448D01*
X3872668Y3276907D01*
X3859306Y3290269D01*
X3841848Y3297500D01*
D02*
G37*
G36*
X4221848Y3267500D02*
X4202952D01*
X4185494Y3260268D01*
X4172132Y3246906D01*
X4164900Y3229448D01*
Y3210552D01*
X4172132Y3193093D01*
X4185494Y3179732D01*
X4202952Y3172500D01*
X4221848D01*
X4239306Y3179732D01*
X4252668Y3193093D01*
X4259900Y3210552D01*
Y3229448D01*
X4252668Y3246906D01*
X4239306Y3260268D01*
X4221848Y3267500D01*
D02*
G37*
G36*
X5489781Y3239287D02*
X5470884D01*
X5453426Y3232056D01*
X5440064Y3218694D01*
X5432833Y3201236D01*
Y3182339D01*
X5440064Y3164881D01*
X5450776Y3154169D01*
X5450320Y3151874D01*
X5436958Y3138512D01*
X5429727Y3121054D01*
Y3102157D01*
X5436958Y3084699D01*
X5450320Y3071337D01*
X5467778Y3064106D01*
X5486675D01*
X5504133Y3071337D01*
X5517495Y3084699D01*
X5524726Y3102157D01*
Y3121054D01*
X5517495Y3138512D01*
X5506783Y3149224D01*
X5507239Y3151519D01*
X5520601Y3164881D01*
X5527832Y3182339D01*
Y3201236D01*
X5520601Y3218694D01*
X5507239Y3232056D01*
X5489781Y3239287D01*
D02*
G37*
G36*
X5981848Y3147500D02*
X5962952D01*
X5945494Y3140269D01*
X5932132Y3126907D01*
X5924900Y3109448D01*
Y3090552D01*
X5932132Y3073094D01*
X5945494Y3059732D01*
X5962952Y3052500D01*
X5981848D01*
X5999307Y3059732D01*
X6012668Y3073094D01*
X6019900Y3090552D01*
Y3109448D01*
X6012668Y3126907D01*
X5999307Y3140269D01*
X5981848Y3147500D01*
D02*
G37*
G36*
X3336260Y3220350D02*
X3316751Y3216470D01*
X3300212Y3205419D01*
X3289161Y3188880D01*
X3287997Y3183029D01*
X3241150D01*
X3225161Y3180924D01*
X3210261Y3174752D01*
X3197466Y3164934D01*
X3187648Y3152139D01*
X3181477Y3137240D01*
X3179372Y3121250D01*
Y3058750D01*
X3181477Y3042761D01*
X3187648Y3027861D01*
X3197466Y3015066D01*
X3210261Y3005248D01*
X3225161Y2999077D01*
X3241150Y2996972D01*
X3343650D01*
X3359639Y2999077D01*
X3374539Y3005248D01*
X3387334Y3015066D01*
X3397152Y3027861D01*
X3403323Y3042761D01*
X3405429Y3058750D01*
Y3121250D01*
X3403323Y3137240D01*
X3397152Y3152139D01*
X3387334Y3164934D01*
X3387239Y3165007D01*
Y3169371D01*
X3383358Y3188880D01*
X3372307Y3205419D01*
X3355768Y3216470D01*
X3336260Y3220350D01*
D02*
G37*
G36*
X5511848Y3047500D02*
X5492952D01*
X5475493Y3040268D01*
X5462132Y3026907D01*
X5454900Y3009448D01*
Y2990552D01*
X5462132Y2973094D01*
X5475493Y2959732D01*
X5492952Y2952500D01*
X5511848D01*
X5529306Y2959732D01*
X5542668Y2973094D01*
X5549900Y2990552D01*
Y3009448D01*
X5542668Y3026907D01*
X5529306Y3040268D01*
X5511848Y3047500D01*
D02*
G37*
G36*
X5993577Y2937229D02*
X5974680D01*
X5957222Y2929997D01*
X5943860Y2916635D01*
X5936629Y2899177D01*
Y2880280D01*
X5943860Y2862822D01*
X5957222Y2849460D01*
X5974680Y2842229D01*
X5993577D01*
X6011035Y2849460D01*
X6024397Y2862822D01*
X6031629Y2880280D01*
Y2899177D01*
X6024397Y2916635D01*
X6011035Y2929997D01*
X5993577Y2937229D01*
D02*
G37*
G36*
X5983680Y2713853D02*
X5964784D01*
X5947325Y2706621D01*
X5933963Y2693260D01*
X5926732Y2675801D01*
Y2656905D01*
X5933963Y2639447D01*
X5947325Y2626085D01*
X5964784Y2618853D01*
X5983680D01*
X6001138Y2626085D01*
X6014500Y2639447D01*
X6021732Y2656905D01*
Y2675801D01*
X6014500Y2693260D01*
X6001138Y2706621D01*
X5983680Y2713853D01*
D02*
G37*
G36*
X4491343Y2667480D02*
X4472446D01*
X4454988Y2660249D01*
X4441626Y2646887D01*
X4434395Y2629429D01*
Y2610532D01*
X4441626Y2593074D01*
X4454988Y2579712D01*
X4472446Y2572481D01*
X4491343D01*
X4508801Y2579712D01*
X4522163Y2593074D01*
X4529394Y2610532D01*
Y2629429D01*
X4522163Y2646887D01*
X4508801Y2660249D01*
X4491343Y2667480D01*
D02*
G37*
G36*
X4121848Y2587500D02*
X4102952D01*
X4085493Y2580268D01*
X4072132Y2566906D01*
X4064900Y2549448D01*
Y2530552D01*
X4071015Y2515790D01*
X4062132Y2506907D01*
X4054900Y2489448D01*
Y2470552D01*
X4062132Y2453094D01*
X4075493Y2439732D01*
X4092952Y2432500D01*
X4111848D01*
X4129306Y2439732D01*
X4142668Y2453094D01*
X4149900Y2470552D01*
Y2489448D01*
X4143785Y2504210D01*
X4152668Y2513094D01*
X4159900Y2530552D01*
Y2549448D01*
X4152668Y2566906D01*
X4139306Y2580268D01*
X4121848Y2587500D01*
D02*
G37*
G36*
X5981121Y2449802D02*
X5962224D01*
X5944766Y2442571D01*
X5931404Y2429209D01*
X5924173Y2411751D01*
Y2392854D01*
X5931404Y2375396D01*
X5944766Y2362034D01*
X5962224Y2354803D01*
X5981121D01*
X5998579Y2362034D01*
X6011941Y2375396D01*
X6019172Y2392854D01*
Y2411751D01*
X6011941Y2429209D01*
X5998579Y2442571D01*
X5981121Y2449802D01*
D02*
G37*
G36*
X6151848Y2337500D02*
X6132951D01*
X6115493Y2330269D01*
X6102131Y2316907D01*
X6094900Y2299449D01*
Y2280552D01*
X6102131Y2263094D01*
X6115493Y2249732D01*
X6132951Y2242500D01*
X6151848D01*
X6169306Y2249732D01*
X6182668Y2263094D01*
X6189899Y2280552D01*
Y2299449D01*
X6182668Y2316907D01*
X6169306Y2330269D01*
X6151848Y2337500D01*
D02*
G37*
G36*
X6231848Y2247500D02*
X6212952D01*
X6195494Y2240268D01*
X6182132Y2226906D01*
X6174900Y2209448D01*
Y2190552D01*
X6182132Y2173093D01*
X6195494Y2159732D01*
X6212952Y2152500D01*
X6231848D01*
X6249307Y2159732D01*
X6262668Y2173093D01*
X6269900Y2190552D01*
Y2209448D01*
X6262668Y2226906D01*
X6249307Y2240268D01*
X6231848Y2247500D01*
D02*
G37*
G36*
X5202433Y2232129D02*
X5183536D01*
X5166078Y2224898D01*
X5152716Y2211536D01*
X5145485Y2194078D01*
Y2175181D01*
X5152716Y2157723D01*
X5166078Y2144361D01*
X5183536Y2137130D01*
X5202433D01*
X5219891Y2144361D01*
X5233253Y2157723D01*
X5240484Y2175181D01*
Y2194078D01*
X5233253Y2211536D01*
X5219891Y2224898D01*
X5202433Y2232129D01*
D02*
G37*
G36*
X5981848Y2037499D02*
X5962952D01*
X5945494Y2030268D01*
X5932132Y2016906D01*
X5924900Y1999448D01*
Y1980551D01*
X5932132Y1963093D01*
X5945494Y1949731D01*
X5962952Y1942500D01*
X5981848D01*
X5999307Y1949731D01*
X6012668Y1963093D01*
X6019900Y1980551D01*
Y1999448D01*
X6012668Y2016906D01*
X5999307Y2030268D01*
X5981848Y2037499D01*
D02*
G37*
G36*
X5434107Y2020254D02*
X5415210D01*
X5397752Y2013023D01*
X5384390Y1999661D01*
X5377159Y1982203D01*
Y1963306D01*
X5384390Y1945848D01*
X5397752Y1932486D01*
X5415210Y1925254D01*
X5434107D01*
X5451565Y1932486D01*
X5464927Y1945848D01*
X5472158Y1963306D01*
Y1982203D01*
X5464927Y1999661D01*
X5451565Y2013023D01*
X5434107Y2020254D01*
D02*
G37*
G36*
X4808679Y2006041D02*
X4789782D01*
X4772324Y1998809D01*
X4758962Y1985447D01*
X4751731Y1967989D01*
Y1949093D01*
X4758962Y1931634D01*
X4772324Y1918273D01*
X4789782Y1911041D01*
X4808679D01*
X4821937Y1916533D01*
X4822281Y1916189D01*
X4839739Y1908958D01*
X4858635D01*
X4876094Y1916189D01*
X4889456Y1929551D01*
X4896687Y1947010D01*
Y1965906D01*
X4889456Y1983364D01*
X4876094Y1996726D01*
X4858635Y2003958D01*
X4839739D01*
X4826480Y1998466D01*
X4826137Y1998809D01*
X4808679Y2006041D01*
D02*
G37*
G36*
X6252074Y1986220D02*
X6233177D01*
X6215719Y1978988D01*
X6202357Y1965626D01*
X6195126Y1948168D01*
Y1929272D01*
X6202357Y1911814D01*
X6215719Y1898452D01*
X6233177Y1891220D01*
X6252074D01*
X6269532Y1898452D01*
X6282894Y1911814D01*
X6290125Y1929272D01*
Y1948168D01*
X6282894Y1965626D01*
X6269532Y1978988D01*
X6252074Y1986220D01*
D02*
G37*
G36*
X6151848Y1934879D02*
X6132951D01*
X6115493Y1927648D01*
X6102131Y1914286D01*
X6094900Y1896828D01*
Y1877931D01*
X6102131Y1860473D01*
X6115493Y1847111D01*
X6132951Y1839879D01*
X6151848D01*
X6169306Y1847111D01*
X6182668Y1860473D01*
X6189899Y1877931D01*
Y1896828D01*
X6182668Y1914286D01*
X6169306Y1927648D01*
X6151848Y1934879D01*
D02*
G37*
G36*
X4991848Y1877500D02*
X4972952D01*
X4955494Y1870269D01*
X4942132Y1856907D01*
X4934900Y1839448D01*
Y1820552D01*
X4942132Y1803094D01*
X4955494Y1789732D01*
X4972952Y1782500D01*
X4991848D01*
X5009306Y1789732D01*
X5028450Y1787662D01*
X5034430Y1781681D01*
X5051888Y1774450D01*
X5070785D01*
X5088243Y1781681D01*
X5101605Y1795043D01*
X5108836Y1812502D01*
Y1831398D01*
X5101605Y1848856D01*
X5088243Y1862218D01*
X5070785Y1869450D01*
X5051888D01*
X5034430Y1862218D01*
X5015287Y1864288D01*
X5009306Y1870269D01*
X4991848Y1877500D01*
D02*
G37*
G36*
X6249924Y1819833D02*
X6231027D01*
X6213569Y1812601D01*
X6200207Y1799239D01*
X6192976Y1781781D01*
Y1762885D01*
X6200207Y1745427D01*
X6213569Y1732065D01*
X6231027Y1724833D01*
X6249924D01*
X6267382Y1732065D01*
X6280744Y1745427D01*
X6287975Y1762885D01*
Y1781781D01*
X6280744Y1799239D01*
X6267382Y1812601D01*
X6249924Y1819833D01*
D02*
G37*
G36*
X3975350Y1827288D02*
X3956453D01*
X3938995Y1820056D01*
X3925633Y1806694D01*
X3918402Y1789236D01*
Y1770340D01*
X3925633Y1752881D01*
X3938995Y1739520D01*
X3956453Y1732288D01*
X3975350D01*
X3992808Y1739520D01*
X4006170Y1752881D01*
X4017991Y1745104D01*
X4010770Y1727671D01*
Y1708775D01*
X4018002Y1691316D01*
X4031364Y1677954D01*
X4048822Y1670723D01*
X4067718D01*
X4085176Y1677954D01*
X4098538Y1691316D01*
X4101834Y1699272D01*
X4118069D01*
X4122057Y1689645D01*
X4135419Y1676283D01*
X4152877Y1669052D01*
X4171774D01*
X4189232Y1676283D01*
X4202594Y1689645D01*
X4209825Y1707103D01*
Y1726000D01*
X4202594Y1743458D01*
X4189232Y1756820D01*
X4171774Y1764051D01*
X4152877D01*
X4135419Y1756820D01*
X4122057Y1743458D01*
X4118762Y1735502D01*
X4102526D01*
X4098538Y1745129D01*
X4085176Y1758491D01*
X4067718Y1765723D01*
X4048822D01*
X4031364Y1758491D01*
X4018002Y1745130D01*
X4006181Y1752907D01*
X4013401Y1770340D01*
Y1789236D01*
X4006170Y1806694D01*
X3992808Y1820056D01*
X3975350Y1827288D01*
D02*
G37*
G36*
X6020900Y1605169D02*
X5988400D01*
Y1474500D01*
X6099069D01*
Y1527000D01*
X6096405Y1547232D01*
X6088596Y1566084D01*
X6076174Y1582274D01*
X6059984Y1594696D01*
X6041132Y1602505D01*
X6020900Y1605169D01*
D02*
G37*
G36*
X5968400D02*
X5935900D01*
X5915668Y1602505D01*
X5896816Y1594696D01*
X5880627Y1582274D01*
X5868204Y1566084D01*
X5860395Y1547232D01*
X5857731Y1527000D01*
Y1474500D01*
X5968400D01*
Y1605169D01*
D02*
G37*
%LPD*%
G36*
X3011367Y5610026D02*
X3010266Y5610785D01*
X3009091Y5611464D01*
X3007842Y5612062D01*
X3006518Y5612582D01*
X3005120Y5613021D01*
X3003648Y5613380D01*
X3002101Y5613660D01*
X3000480Y5613859D01*
X2997014Y5614019D01*
Y5634019D01*
X2998784Y5634059D01*
X3002101Y5634379D01*
X3003648Y5634658D01*
X3005120Y5635018D01*
X3006518Y5635457D01*
X3007842Y5635976D01*
X3009091Y5636575D01*
X3010266Y5637254D01*
X3011367Y5638013D01*
Y5610026D01*
D02*
G37*
G36*
X2852041Y5604502D02*
X2839346Y5588912D01*
X2838021Y5590157D01*
X2836713Y5591226D01*
X2835422Y5592117D01*
X2834149Y5592833D01*
X2832891Y5593371D01*
X2831652Y5593733D01*
X2830429Y5593919D01*
X2829223Y5593928D01*
X2828033Y5593760D01*
X2826862Y5593416D01*
X2836504Y5617469D01*
X2852041Y5604502D01*
D02*
G37*
G36*
X2997889Y5543383D02*
X2996846Y5542943D01*
X2995913Y5542348D01*
X2995090Y5541597D01*
X2994376Y5540691D01*
X2993772Y5539631D01*
X2993278Y5538415D01*
X2992894Y5537044D01*
X2992619Y5535518D01*
X2992455Y5533837D01*
X2992400Y5532000D01*
X2972400Y5535139D01*
X2975505Y5555437D01*
X2997889Y5543383D01*
D02*
G37*
G36*
X3841163Y4463560D02*
X3834950Y4448560D01*
X3752400D01*
X3735432Y4446326D01*
X3719620Y4439777D01*
X3706042Y4429358D01*
X3695623Y4415780D01*
X3690329Y4402999D01*
X3678869Y4400865D01*
X3674117Y4401283D01*
X3627400Y4447999D01*
X3497400D01*
X3497042Y4447641D01*
X3483184Y4453381D01*
Y4679999D01*
X3483184Y4680000D01*
X3480079Y4695607D01*
X3471238Y4708838D01*
X3464718Y4715359D01*
X3470458Y4729217D01*
X3575507D01*
X3841163Y4463560D01*
D02*
G37*
G36*
X3478461Y4031219D02*
X3485501Y4025290D01*
X3488844Y4022917D01*
X3492070Y4020939D01*
X3495179Y4019356D01*
X3498171Y4018167D01*
X3501045Y4017373D01*
X3503801Y4016974D01*
X3506441Y4016970D01*
X3478430Y3988959D01*
X3478426Y3991598D01*
X3478027Y3994355D01*
X3477233Y3997229D01*
X3476044Y4000221D01*
X3474461Y4003330D01*
X3472483Y4006556D01*
X3470110Y4009899D01*
X3467343Y4013360D01*
X3460624Y4020634D01*
X3474766Y4034776D01*
X3478461Y4031219D01*
D02*
G37*
G36*
X3887316Y3966100D02*
X3888268Y3964400D01*
X3889814Y3962900D01*
X3891953Y3961600D01*
X3894687Y3960500D01*
X3898014Y3959600D01*
X3901936Y3958900D01*
X3906451Y3958400D01*
X3917263Y3958000D01*
Y3938000D01*
X3911560Y3937900D01*
X3901936Y3937100D01*
X3898014Y3936400D01*
X3894687Y3935500D01*
X3891953Y3934400D01*
X3889814Y3933100D01*
X3888268Y3931600D01*
X3887316Y3929900D01*
X3886958Y3928000D01*
Y3968000D01*
X3887316Y3966100D01*
D02*
G37*
%LPC*%
G36*
X1488900Y6359268D02*
X1352900D01*
Y6153500D01*
X1578668D01*
Y6269500D01*
X1575609Y6292734D01*
X1566641Y6314384D01*
X1552376Y6332976D01*
X1533784Y6347241D01*
X1512134Y6356209D01*
X1488900Y6359268D01*
D02*
G37*
G36*
X1332900D02*
X1196900D01*
X1173666Y6356209D01*
X1152016Y6347241D01*
X1133424Y6332976D01*
X1119159Y6314384D01*
X1110191Y6292734D01*
X1107132Y6269500D01*
Y6153500D01*
X1332900D01*
Y6359268D01*
D02*
G37*
G36*
X2035069Y6280500D02*
X1793731D01*
Y6228000D01*
X1796395Y6207768D01*
X1804204Y6188915D01*
X1816627Y6172726D01*
X1832816Y6160304D01*
X1851668Y6152495D01*
X1859224Y6151500D01*
X1858241Y6136500D01*
X1854400D01*
X1794400Y6076500D01*
Y6006500D01*
X2034400D01*
Y6076500D01*
X1974400Y6136500D01*
X1970559D01*
X1969576Y6151500D01*
X1977132Y6152495D01*
X1995984Y6160304D01*
X2012174Y6172726D01*
X2024596Y6188915D01*
X2032405Y6207768D01*
X2035069Y6228000D01*
Y6280500D01*
D02*
G37*
G36*
X1578668Y6133500D02*
X1352900D01*
Y5927732D01*
X1488900D01*
X1512134Y5930791D01*
X1533784Y5939759D01*
X1552376Y5954024D01*
X1566641Y5972616D01*
X1575609Y5994266D01*
X1578668Y6017500D01*
Y6133500D01*
D02*
G37*
G36*
X1332900D02*
X1107132D01*
Y6017500D01*
X1110191Y5994266D01*
X1119159Y5972616D01*
X1133424Y5954024D01*
X1152016Y5939759D01*
X1173666Y5930791D01*
X1196900Y5927732D01*
X1332900D01*
Y6133500D01*
D02*
G37*
G36*
X2464900Y6132126D02*
X2379900D01*
X2360974Y6129634D01*
X2343337Y6122329D01*
X2328192Y6110708D01*
X2316572Y6095563D01*
X2309266Y6077927D01*
X2306775Y6059000D01*
Y5934000D01*
X2309266Y5915074D01*
X2316572Y5897437D01*
X2328192Y5882292D01*
X2343337Y5870672D01*
X2360974Y5863366D01*
X2379900Y5860874D01*
X2464900D01*
X2483826Y5863366D01*
X2501463Y5870672D01*
X2516608Y5882292D01*
X2528228Y5897437D01*
X2535534Y5915074D01*
X2538025Y5934000D01*
Y6059000D01*
X2535534Y6077927D01*
X2528228Y6095563D01*
X2516608Y6110708D01*
X2501463Y6122329D01*
X2483826Y6129634D01*
X2464900Y6132126D01*
D02*
G37*
G36*
X2210900D02*
X2125900D01*
X2106974Y6129634D01*
X2089337Y6122329D01*
X2074192Y6110708D01*
X2062572Y6095563D01*
X2055266Y6077927D01*
X2052775Y6059000D01*
Y5934000D01*
X2055266Y5915074D01*
X2062572Y5897437D01*
X2074192Y5882292D01*
X2089337Y5870672D01*
X2106974Y5863366D01*
X2125900Y5860874D01*
X2210900D01*
X2229826Y5863366D01*
X2247463Y5870672D01*
X2262608Y5882292D01*
X2274228Y5897437D01*
X2281534Y5915074D01*
X2284025Y5934000D01*
Y6059000D01*
X2281534Y6077927D01*
X2274228Y6095563D01*
X2262608Y6110708D01*
X2247463Y6122329D01*
X2229826Y6129634D01*
X2210900Y6132126D01*
D02*
G37*
G36*
X2034400Y5986500D02*
X1924400D01*
Y5856500D01*
X1974400D01*
X2034400Y5916500D01*
Y5986500D01*
D02*
G37*
G36*
X1904400D02*
X1794400D01*
Y5916500D01*
X1854400Y5856500D01*
X1904400D01*
Y5986500D01*
D02*
G37*
G36*
X2263650Y5258072D02*
X2222400D01*
Y5170000D01*
X2330472D01*
Y5191250D01*
X2328195Y5208545D01*
X2321519Y5224661D01*
X2310900Y5238500D01*
X2297061Y5249119D01*
X2280945Y5255795D01*
X2263650Y5258072D01*
D02*
G37*
G36*
X2202400D02*
X2161150D01*
X2143855Y5255795D01*
X2127739Y5249119D01*
X2113900Y5238500D01*
X2103281Y5224661D01*
X2096605Y5208545D01*
X2094328Y5191250D01*
Y5170000D01*
X2202400D01*
Y5258072D01*
D02*
G37*
G36*
X2330472Y5150000D02*
X2222400D01*
Y5061928D01*
X2263650D01*
X2280945Y5064205D01*
X2297061Y5070881D01*
X2310900Y5081500D01*
X2321519Y5095339D01*
X2328195Y5111455D01*
X2330472Y5128750D01*
Y5150000D01*
D02*
G37*
G36*
X2202400D02*
X2094328D01*
Y5128750D01*
X2096605Y5111455D01*
X2103281Y5095339D01*
X2113900Y5081500D01*
X2127739Y5070881D01*
X2143855Y5064205D01*
X2161150Y5061928D01*
X2202400D01*
Y5150000D01*
D02*
G37*
G36*
X2263650Y4973029D02*
X2161150D01*
X2145161Y4970924D01*
X2130261Y4964752D01*
X2117466Y4954934D01*
X2107648Y4942139D01*
X2101477Y4927240D01*
X2099371Y4911250D01*
Y4868807D01*
X2095054Y4864489D01*
X2084996Y4856772D01*
X2076180Y4845283D01*
X2070638Y4831903D01*
X2068748Y4817545D01*
X2070638Y4803187D01*
X2076180Y4789808D01*
X2084996Y4778319D01*
X2096486Y4769503D01*
X2109865Y4763961D01*
X2124223Y4762071D01*
X2126563D01*
X2140921Y4763961D01*
X2154300Y4769503D01*
X2165789Y4778319D01*
X2174441Y4786972D01*
X2263650D01*
X2279639Y4789077D01*
X2294539Y4795248D01*
X2307334Y4805066D01*
X2317152Y4817861D01*
X2323323Y4832761D01*
X2325428Y4848750D01*
Y4911250D01*
X2323323Y4927240D01*
X2317152Y4942139D01*
X2307334Y4954934D01*
X2294539Y4964752D01*
X2279639Y4970924D01*
X2263650Y4973029D01*
D02*
G37*
G36*
X2393650Y4318072D02*
X2352400D01*
Y4230000D01*
X2460472D01*
Y4251250D01*
X2458195Y4268545D01*
X2451519Y4284661D01*
X2440900Y4298500D01*
X2427061Y4309119D01*
X2410945Y4315795D01*
X2393650Y4318072D01*
D02*
G37*
G36*
X2332400D02*
X2291150D01*
X2273855Y4315795D01*
X2257739Y4309119D01*
X2243900Y4298500D01*
X2233281Y4284661D01*
X2226605Y4268545D01*
X2224328Y4251250D01*
Y4230000D01*
X2332400D01*
Y4318072D01*
D02*
G37*
G36*
X2460472Y4210000D02*
X2352400D01*
Y4121928D01*
X2393650D01*
X2410945Y4124205D01*
X2427061Y4130881D01*
X2440900Y4141500D01*
X2451519Y4155339D01*
X2458195Y4171455D01*
X2460472Y4188750D01*
Y4210000D01*
D02*
G37*
G36*
X2332400D02*
X2224328D01*
Y4188750D01*
X2226605Y4171455D01*
X2233281Y4155339D01*
X2243900Y4141500D01*
X2257739Y4130881D01*
X2273855Y4124205D01*
X2291150Y4121928D01*
X2332400D01*
Y4210000D01*
D02*
G37*
G36*
X2393650Y4033029D02*
X2291150D01*
X2275161Y4030923D01*
X2260261Y4024752D01*
X2247466Y4014934D01*
X2237648Y4002139D01*
X2231477Y3987239D01*
X2229371Y3971250D01*
Y3908750D01*
X2231477Y3892761D01*
X2237648Y3877861D01*
X2247466Y3865066D01*
X2260261Y3855248D01*
X2275161Y3849077D01*
X2291150Y3846971D01*
X2393650D01*
X2409639Y3849077D01*
X2424539Y3855248D01*
X2437334Y3865066D01*
X2438107Y3866074D01*
X2440326Y3866366D01*
X2453705Y3871908D01*
X2465194Y3880724D01*
X2474011Y3892213D01*
X2479552Y3905592D01*
X2481443Y3919950D01*
X2479552Y3934308D01*
X2474011Y3947687D01*
X2465194Y3959176D01*
X2455428Y3968942D01*
Y3971250D01*
X2453323Y3987239D01*
X2447152Y4002139D01*
X2437334Y4014934D01*
X2424539Y4024752D01*
X2409639Y4030923D01*
X2393650Y4033029D01*
D02*
G37*
G36*
X2502127Y3085434D02*
X2483230D01*
X2465772Y3078203D01*
X2452410Y3064841D01*
X2445179Y3047383D01*
Y3028486D01*
X2452410Y3011028D01*
X2465772Y2997666D01*
X2483230Y2990434D01*
X2502127D01*
X2519585Y2997666D01*
X2532947Y3011028D01*
X2540178Y3028486D01*
Y3047383D01*
X2532947Y3064841D01*
X2519585Y3078203D01*
X2502127Y3085434D01*
D02*
G37*
G36*
X1763948Y2522274D02*
X1745052D01*
X1727594Y2515043D01*
X1714232Y2501681D01*
X1707000Y2484223D01*
Y2465326D01*
X1714232Y2447868D01*
X1727594Y2434506D01*
X1745052Y2427275D01*
X1763948D01*
X1781407Y2434506D01*
X1794769Y2447868D01*
X1802000Y2465326D01*
Y2484223D01*
X1794769Y2501681D01*
X1781407Y2515043D01*
X1763948Y2522274D01*
D02*
G37*
G36*
X1848631Y2068969D02*
X1829734D01*
X1812276Y2061738D01*
X1798914Y2048376D01*
X1791683Y2030917D01*
Y2012021D01*
X1798914Y1994563D01*
X1812276Y1981201D01*
X1829734Y1973969D01*
X1848631D01*
X1866089Y1981201D01*
X1879451Y1994563D01*
X1886682Y2012021D01*
Y2030917D01*
X1879451Y2048376D01*
X1866089Y2061738D01*
X1848631Y2068969D01*
D02*
G37*
G36*
X2442280Y1958443D02*
X2423383D01*
X2405925Y1951212D01*
X2392563Y1937850D01*
X2385332Y1920392D01*
Y1901495D01*
X2392563Y1884037D01*
X2405925Y1870675D01*
X2423383Y1863444D01*
X2442280D01*
X2459738Y1870675D01*
X2473100Y1884037D01*
X2480331Y1901495D01*
Y1920392D01*
X2473100Y1937850D01*
X2459738Y1951212D01*
X2442280Y1958443D01*
D02*
G37*
G36*
X1432400Y1835000D02*
X1292400D01*
X1222400Y1765000D01*
Y1625000D01*
X1292400Y1555000D01*
X1432400D01*
X1502400Y1625000D01*
Y1765000D01*
X1432400Y1835000D01*
D02*
G37*
G36*
X1956900Y1605169D02*
X1924400D01*
Y1474500D01*
X2035069D01*
Y1527000D01*
X2032405Y1547232D01*
X2024596Y1566084D01*
X2012174Y1582274D01*
X1995984Y1594696D01*
X1977132Y1602505D01*
X1956900Y1605169D01*
D02*
G37*
G36*
X1904400D02*
X1871900D01*
X1851668Y1602505D01*
X1832816Y1594696D01*
X1816627Y1582274D01*
X1804204Y1566084D01*
X1796395Y1547232D01*
X1793731Y1527000D01*
Y1474500D01*
X1904400D01*
Y1605169D01*
D02*
G37*
G36*
X1417400Y1490777D02*
X1372400D01*
Y1355000D01*
X1508177D01*
Y1400000D01*
X1505084Y1423495D01*
X1496015Y1445389D01*
X1481589Y1464189D01*
X1462789Y1478615D01*
X1440895Y1487684D01*
X1417400Y1490777D01*
D02*
G37*
G36*
X1352400D02*
X1307400D01*
X1283905Y1487684D01*
X1262012Y1478615D01*
X1243211Y1464189D01*
X1228785Y1445389D01*
X1219717Y1423495D01*
X1216623Y1400000D01*
Y1355000D01*
X1352400D01*
Y1490777D01*
D02*
G37*
G36*
X3226900Y1600126D02*
X3141900D01*
X3122974Y1597634D01*
X3105337Y1590329D01*
X3090192Y1578708D01*
X3078572Y1563563D01*
X3071266Y1545927D01*
X3068775Y1527000D01*
Y1402000D01*
X3071266Y1383073D01*
X3078572Y1365437D01*
X3090192Y1350292D01*
X3105337Y1338671D01*
X3122974Y1331366D01*
X3141900Y1328874D01*
X3226900D01*
X3245826Y1331366D01*
X3263463Y1338671D01*
X3278608Y1350292D01*
X3290228Y1365437D01*
X3297534Y1383073D01*
X3300025Y1402000D01*
Y1527000D01*
X3297534Y1545927D01*
X3290228Y1563563D01*
X3278608Y1578708D01*
X3263463Y1590329D01*
X3245826Y1597634D01*
X3226900Y1600126D01*
D02*
G37*
G36*
X2972900D02*
X2887900D01*
X2868974Y1597634D01*
X2851337Y1590329D01*
X2836192Y1578708D01*
X2824572Y1563563D01*
X2817266Y1545927D01*
X2814775Y1527000D01*
Y1402000D01*
X2817266Y1383073D01*
X2824572Y1365437D01*
X2836192Y1350292D01*
X2851337Y1338671D01*
X2868974Y1331366D01*
X2887900Y1328874D01*
X2972900D01*
X2991826Y1331366D01*
X3009463Y1338671D01*
X3024608Y1350292D01*
X3036228Y1365437D01*
X3043534Y1383073D01*
X3046025Y1402000D01*
Y1527000D01*
X3043534Y1545927D01*
X3036228Y1563563D01*
X3024608Y1578708D01*
X3009463Y1590329D01*
X2991826Y1597634D01*
X2972900Y1600126D01*
D02*
G37*
G36*
X2718900D02*
X2633900D01*
X2614974Y1597634D01*
X2597337Y1590329D01*
X2582192Y1578708D01*
X2570572Y1563563D01*
X2563266Y1545927D01*
X2560775Y1527000D01*
Y1402000D01*
X2563266Y1383073D01*
X2570572Y1365437D01*
X2582192Y1350292D01*
X2597337Y1338671D01*
X2614974Y1331366D01*
X2633900Y1328874D01*
X2718900D01*
X2737826Y1331366D01*
X2755463Y1338671D01*
X2770608Y1350292D01*
X2782228Y1365437D01*
X2789534Y1383073D01*
X2792025Y1402000D01*
Y1527000D01*
X2789534Y1545927D01*
X2782228Y1563563D01*
X2770608Y1578708D01*
X2755463Y1590329D01*
X2737826Y1597634D01*
X2718900Y1600126D01*
D02*
G37*
G36*
X2464900D02*
X2379900D01*
X2360974Y1597634D01*
X2343337Y1590329D01*
X2328192Y1578708D01*
X2316572Y1563563D01*
X2309266Y1545927D01*
X2306775Y1527000D01*
Y1402000D01*
X2309266Y1383073D01*
X2316572Y1365437D01*
X2328192Y1350292D01*
X2343337Y1338671D01*
X2360974Y1331366D01*
X2379900Y1328874D01*
X2464900D01*
X2483826Y1331366D01*
X2501463Y1338671D01*
X2516608Y1350292D01*
X2528228Y1365437D01*
X2535534Y1383073D01*
X2538025Y1402000D01*
Y1527000D01*
X2535534Y1545927D01*
X2528228Y1563563D01*
X2516608Y1578708D01*
X2501463Y1590329D01*
X2483826Y1597634D01*
X2464900Y1600126D01*
D02*
G37*
G36*
X2210900D02*
X2125900D01*
X2106974Y1597634D01*
X2089337Y1590329D01*
X2074192Y1578708D01*
X2062572Y1563563D01*
X2055266Y1545927D01*
X2052775Y1527000D01*
Y1402000D01*
X2055266Y1383073D01*
X2062572Y1365437D01*
X2074192Y1350292D01*
X2089337Y1338671D01*
X2106974Y1331366D01*
X2125900Y1328874D01*
X2210900D01*
X2229826Y1331366D01*
X2247463Y1338671D01*
X2262608Y1350292D01*
X2274228Y1365437D01*
X2281534Y1383073D01*
X2284025Y1402000D01*
Y1527000D01*
X2281534Y1545927D01*
X2274228Y1563563D01*
X2262608Y1578708D01*
X2247463Y1590329D01*
X2229826Y1597634D01*
X2210900Y1600126D01*
D02*
G37*
G36*
X1508177Y1335000D02*
X1372400D01*
Y1199223D01*
X1417400D01*
X1440895Y1202317D01*
X1462789Y1211385D01*
X1481589Y1225811D01*
X1496015Y1244612D01*
X1505084Y1266505D01*
X1508177Y1290000D01*
Y1335000D01*
D02*
G37*
G36*
X1352400D02*
X1216623D01*
Y1290000D01*
X1219717Y1266505D01*
X1228785Y1244612D01*
X1243211Y1225811D01*
X1262012Y1211385D01*
X1283905Y1202317D01*
X1307400Y1199223D01*
X1352400D01*
Y1335000D01*
D02*
G37*
G36*
X2035069Y1454500D02*
X1793731D01*
Y1402000D01*
X1796395Y1381768D01*
X1804204Y1362915D01*
X1816627Y1346726D01*
X1832816Y1334304D01*
X1851668Y1326495D01*
X1859224Y1325500D01*
X1858241Y1310500D01*
X1854400D01*
X1794400Y1250500D01*
Y1180500D01*
X2034400D01*
Y1250500D01*
X1974400Y1310500D01*
X1970559D01*
X1969576Y1325500D01*
X1977132Y1326495D01*
X1995984Y1334304D01*
X2012174Y1346726D01*
X2024596Y1362915D01*
X2032405Y1381768D01*
X2035069Y1402000D01*
Y1454500D01*
D02*
G37*
G36*
X6559941Y1875879D02*
X6541045D01*
X6523586Y1868648D01*
X6510224Y1855286D01*
X6502993Y1837828D01*
Y1818931D01*
X6510224Y1801473D01*
X6523586Y1788111D01*
X6541045Y1780880D01*
X6559941D01*
X6577399Y1788111D01*
X6590761Y1801473D01*
X6597993Y1818931D01*
Y1837828D01*
X6590761Y1855286D01*
X6577399Y1868648D01*
X6559941Y1875879D01*
D02*
G37*
%LPD*%
D67*
X3920472Y4862450D02*
D03*
Y5142450D02*
D03*
X2342400Y4220000D02*
D03*
Y3940000D02*
D03*
X2212400Y5160000D02*
D03*
Y4880000D02*
D03*
X3292400Y3370000D02*
D03*
Y3090000D02*
D03*
D68*
X5342400Y3380000D02*
D03*
X5062400D02*
D03*
X7182400Y4330000D02*
D03*
X6902400D02*
D03*
X5702400Y3820000D02*
D03*
X5982400D02*
D03*
D69*
X6907131Y4325269D02*
X7001688D01*
X6902400Y4330000D02*
X6907131Y4325269D01*
X6298125Y5094467D02*
X6303334Y5089257D01*
X6820357Y5082159D02*
X6820826D01*
X6303334Y5089257D02*
X6813259D01*
X6820357Y5082159D01*
X6507965Y2350935D02*
Y2434435D01*
X6274272Y2668128D02*
X6507965Y2434435D01*
X6274272Y2668128D02*
Y2995772D01*
X7092400Y4325000D02*
X7177400D01*
X6497400Y2340370D02*
X6507965Y2350935D01*
X2332400Y4210000D02*
X2342400Y4220000D01*
X2232400Y4210000D02*
X2332400D01*
X3292400Y3090000D02*
X3294616D01*
X3336260Y3131644D01*
Y3169371D01*
X5283888Y2770850D02*
X5688569Y2366169D01*
X5342400Y3371456D02*
Y3380000D01*
X5286061Y3315116D02*
X5342400Y3371456D01*
X3312400Y3350000D02*
X3402400D01*
X3292400Y3370000D02*
X3312400Y3350000D01*
X3852400Y1959500D02*
Y2242696D01*
X3786443Y2308653D02*
X3852400Y2242696D01*
X5688569Y1983831D02*
Y2366169D01*
Y1983831D02*
X5736727Y1935673D01*
X5688569Y2366169D02*
X5729738Y2325000D01*
X5737399D01*
X7177400Y4325000D02*
X7182400Y4330000D01*
X7022400Y3130000D02*
X7034758Y3117643D01*
Y2507069D02*
Y3117643D01*
D70*
X3142097Y2020304D02*
Y2115924D01*
Y2020304D02*
X3334691Y1827709D01*
X2009480Y2183054D02*
X2012400Y2185974D01*
Y2647391D01*
X1842400Y2817392D02*
X2012400Y2647391D01*
D71*
X6685313Y4878659D02*
X7004763D01*
X7244827Y4638596D01*
X8302400Y3740000D02*
X8305025Y3737375D01*
X8451585D01*
X2702400Y4170000D02*
X3052400Y3820000D01*
Y3020000D02*
Y3820000D01*
X2702400Y4170000D02*
Y5740000D01*
X2802400Y5840000D01*
Y6142500D01*
X2930400Y6270500D01*
X3052400Y3020000D02*
X3272400Y2800000D01*
Y2030000D02*
Y2800000D01*
X7686698Y2845702D02*
Y2887032D01*
X7712869Y2913203D02*
Y3564325D01*
X7686698Y2887032D02*
X7712869Y2913203D01*
Y3564325D02*
X7732178Y3583633D01*
Y3631825D01*
D74*
X5292400Y2014221D02*
X5375539Y2097360D01*
X5292400Y1880000D02*
Y2014221D01*
X6459515Y5989615D02*
X6486400Y6016500D01*
X6459515Y5544365D02*
Y5989615D01*
X6156027Y5240877D02*
X6459515Y5544365D01*
X6469673Y4820726D02*
X6682735Y5033788D01*
X6770537D01*
X6275051Y4820726D02*
X6469673D01*
X6016027Y4117881D02*
X6132696Y4001213D01*
X6121027Y4161373D02*
Y5258775D01*
X6086027Y4146876D02*
X6232400Y4000503D01*
X6086027Y5383627D02*
X6292400Y5590000D01*
X6051027Y4132379D02*
Y5408627D01*
X6086027Y4146876D02*
Y5383627D01*
X6051027Y5408627D02*
X6233400Y5591000D01*
X6156027Y4176373D02*
Y5240877D01*
X5981027Y4103384D02*
Y5496330D01*
X5869058Y5668403D02*
X6016027Y5521434D01*
X6051027Y4132379D02*
X6195048Y3988358D01*
X6016027Y4117881D02*
Y5521434D01*
X5981027Y4103384D02*
X6091690Y3992721D01*
X6121027Y5258775D02*
X6362400Y5500148D01*
X6156027Y4176373D02*
X6322400Y4010000D01*
X5851454Y5625903D02*
X5981027Y5496330D01*
X6121027Y4161373D02*
X6272400Y4010000D01*
X6506625Y5358044D02*
X6731531Y5582950D01*
X6770537Y5033788D02*
X6770889Y5034141D01*
X7512716Y1630272D02*
X7515586Y1627402D01*
X7472400Y2010000D02*
X7510097Y1972303D01*
X7512716Y1630272D02*
Y1640878D01*
X7510097Y1643497D02*
X7512716Y1640878D01*
X7510097Y1643497D02*
Y1972303D01*
X7512400Y1830000D02*
X7562400D01*
X7449801Y1627402D02*
X7515586D01*
X6373386Y1919014D02*
Y2111819D01*
X6182400Y2610000D02*
X6186459D01*
X6373386Y2111819D02*
Y2335355D01*
X6172400Y3060000D02*
Y3180000D01*
X6211718Y3219318D01*
X6186459Y2610000D02*
X6193959Y2602500D01*
X6195754D01*
X6398542Y2399712D01*
Y2366250D02*
Y2399712D01*
X6172400Y2624059D02*
X6184430Y2612030D01*
X6398542Y2366250D02*
X6401412Y2363380D01*
X6373386Y2335355D02*
X6401412Y2363380D01*
X6172400Y2624059D02*
Y2820000D01*
Y3060000D02*
X6173780D01*
X6194011Y3039769D01*
X6194011D01*
X7382400Y1560000D02*
X7449801Y1627402D01*
X7293998Y1848953D02*
X7319573Y1823379D01*
X7293998Y1848953D02*
Y1923963D01*
X7254698Y1963263D02*
X7293998Y1923963D01*
X7492400Y2030000D02*
X7532400D01*
X7264548Y2188825D02*
Y2210306D01*
X7267418Y2213176D01*
X7254698Y1963263D02*
Y2178976D01*
X7264548Y2188825D01*
X7432400Y2200000D02*
Y2770000D01*
Y2050000D02*
Y2200000D01*
X7432732Y2200332D02*
X7531961D01*
X7432400Y2200000D02*
X7432732Y2200332D01*
X7472400Y2010000D02*
X7492400Y2030000D01*
X7232400Y3160000D02*
X7290369D01*
X7321512Y3191143D01*
X7262337Y3010000D02*
X7268635Y3003702D01*
X7232400Y3010000D02*
X7262337D01*
X7268635Y3003702D02*
X7312695D01*
X7245454Y3466946D02*
X7338322D01*
X7232400Y3480000D02*
X7245454Y3466946D01*
X7395885Y3663485D02*
X7492400Y3760000D01*
X7328331Y3654781D02*
X7332390D01*
X7341095Y3663485D01*
X7395885D01*
X7325461Y3651911D02*
X7328331Y3654781D01*
X7304860Y3651911D02*
X7325461D01*
X7268355Y3615955D02*
X7268905D01*
X7304860Y3651911D01*
X7232400Y3580000D02*
X7268355Y3615955D01*
X7534151Y4391751D02*
Y4676000D01*
X5552400Y5230000D02*
X5572365Y5249965D01*
X5552400Y3680000D02*
Y5230000D01*
Y3680000D02*
X5806749Y3425651D01*
X5572365Y5249965D02*
Y5420035D01*
X5602400Y3690000D02*
Y4560035D01*
X5607365Y4565000D02*
Y5435036D01*
X5602400Y4560035D02*
X5607365Y4565000D01*
X5384791Y5607609D02*
X5572365Y5420035D01*
X5435270Y5607130D02*
X5607365Y5435036D01*
X5382263Y5632256D02*
X5384791Y5629728D01*
Y5607609D02*
Y5629728D01*
X5435270Y5607130D02*
Y5627130D01*
X5432400Y5630000D02*
X5435270Y5627130D01*
X6319272Y2726491D02*
X6803399Y2242365D01*
X6319257Y3014427D02*
Y3282433D01*
X6319272Y2726491D02*
Y3014411D01*
X6319257Y3014427D02*
X6319272Y3014411D01*
X6390267Y2763719D02*
Y3331629D01*
X6355267Y2747132D02*
X6842400Y2260000D01*
X6355267Y2747132D02*
Y3297429D01*
X6390267Y2763719D02*
X6745566Y2408420D01*
X6756838D01*
X6791861Y2373397D01*
X6803399Y1759001D02*
Y2242365D01*
X7382400Y1383435D02*
Y1560000D01*
X7318965Y1320000D02*
X7382400Y1383435D01*
X6352400Y1320000D02*
X7318965D01*
X3362714D02*
X5342400D01*
X3233758Y1239858D02*
X3282572D01*
X3362714Y1320000D01*
X3184400Y1190500D02*
X3233758Y1239858D01*
X3382400Y1571216D02*
Y1773271D01*
X3518630Y1909500D02*
X4281900D01*
X3382400Y1773271D02*
X3518630Y1909500D01*
X3383463Y1499437D02*
X3438400Y1444500D01*
X3383463Y1499437D02*
Y1570153D01*
X3382400Y1571216D02*
X3383463Y1570153D01*
X5575531Y1946869D02*
X5691530Y1830870D01*
X5575531Y1946869D02*
Y2190478D01*
X5194467Y2571542D02*
X5575531Y2190478D01*
X5616835Y1955565D02*
X5692400Y1880000D01*
X5616835Y1955565D02*
Y2198672D01*
X5231399Y2584108D02*
X5616835Y2198672D01*
X6880319Y1795281D02*
X7072400Y1987361D01*
X6845899Y1795281D02*
X6880319D01*
X7072400Y1987361D02*
Y2370000D01*
X6362400Y5500148D02*
Y6146500D01*
X6233400Y5591000D02*
Y5624083D01*
X5833262Y5668403D02*
X5869058D01*
X5791391Y5626532D02*
X5833262Y5668403D01*
X3442400Y4053000D02*
X3547400Y3948000D01*
X3442400Y4053000D02*
Y4680000D01*
X2892400Y5230000D02*
X3442400Y4680000D01*
X5023808Y5549718D02*
X5194467Y5379058D01*
Y2571542D02*
Y5379058D01*
X5092339Y5555019D02*
X5231399Y5415959D01*
Y2584108D02*
Y5415959D01*
X3671009Y4820000D02*
X4017400Y4473609D01*
X2982400Y5260000D02*
X3422400Y4820000D01*
X3671009D01*
X3592400Y4770000D02*
X3982400Y4380000D01*
X2942400Y5240000D02*
X3412400Y4770000D01*
X3592400D01*
X2892400Y5230000D02*
Y5550000D01*
X3782400Y3748000D02*
X3803870D01*
X4017400Y3965000D02*
Y4473609D01*
X3869862Y3817462D02*
X4017400Y3965000D01*
X3803870Y3748000D02*
X3869862Y3813991D01*
Y3817462D01*
X3920400Y3948000D02*
X3982400Y4010000D01*
X3817400Y3948000D02*
X3920400D01*
X3982400Y4010000D02*
Y4380000D01*
X3782400Y3948000D02*
X3817400D01*
X2942400Y5240000D02*
Y5590000D01*
X2982400Y5260000D02*
Y5545941D01*
X2835451Y5606949D02*
X2892400Y5550000D01*
X2820764Y5609819D02*
X2823634Y5606949D01*
X2835451D01*
X2942400Y5590000D02*
X2976419Y5624019D01*
X2982400Y5545941D02*
X2992400Y5555941D01*
Y5560000D01*
X2976419Y5624019D02*
X3021876D01*
X3547400Y3948000D02*
X3582400D01*
X7492400Y4350000D02*
X7534151Y4391751D01*
X7492400Y3760000D02*
Y4350000D01*
X7863635Y3760000D02*
X8013439Y3610196D01*
X7492400Y3760000D02*
X7863635D01*
X7232400Y3480000D02*
Y3580000D01*
Y3010000D02*
Y3160000D01*
Y3480000D01*
Y2970000D02*
Y3010000D01*
Y2970000D02*
X7432400Y2770000D01*
Y2050000D02*
X7472400Y2010000D01*
X6172400Y2828927D02*
Y3060000D01*
X6091690Y3510000D02*
X6319257Y3282433D01*
X6132696Y3520000D02*
X6355267Y3297429D01*
X6195048Y3526848D02*
X6390267Y3331629D01*
X6460267Y3031630D02*
Y3360623D01*
X6425267Y3017133D02*
X7072400Y2370000D01*
X6272400Y3548491D02*
X6460267Y3360623D01*
Y3031630D02*
X6581898Y2910000D01*
X6425267Y3017133D02*
Y3346126D01*
X6232400Y3538993D02*
X6425267Y3346126D01*
X6091690Y3510000D02*
Y3992721D01*
X6132696Y3520000D02*
Y4001213D01*
X6581898Y2910000D02*
X6742400D01*
X6195048Y3526848D02*
Y3988358D01*
X6232400Y3538993D02*
Y4000503D01*
X6272400Y3548491D02*
Y4010000D01*
X6373386Y1919014D02*
X6432400Y1860000D01*
Y1691523D02*
Y1860000D01*
X6352271Y1611394D02*
X6432400Y1691523D01*
X5292400Y1880000D02*
X5342400Y1830000D01*
Y1320000D02*
Y1830000D01*
Y1320000D02*
X6352400D01*
Y1611264D01*
X6352271Y1611394D02*
X6352400Y1611264D01*
X6803399Y1759001D02*
X6936227Y1626174D01*
X7039511D01*
X7041478Y1624207D01*
X7762400Y3340000D02*
X7875025Y3452625D01*
X7762400Y2920000D02*
Y3340000D01*
X7875025Y3452625D02*
X7949775D01*
X7952400Y3450000D01*
X5806749Y2319318D02*
Y3425651D01*
X5762874Y2275444D02*
X5806749Y2319318D01*
X5842646Y2274947D02*
Y3449754D01*
X5797165Y2229467D02*
X5842646Y2274947D01*
X5793106Y2229467D02*
X5797165D01*
X4742400Y2370000D02*
Y2460000D01*
X4281900Y1909500D02*
X4742400Y2370000D01*
X6946742Y2005659D02*
X7024346D01*
X6842400Y2110000D02*
X6946742Y2005659D01*
X5692400Y1880000D02*
X5752400D01*
X5788087Y1844313D01*
Y1817822D02*
Y1844313D01*
Y1817822D02*
X5790957Y1814952D01*
X5691530Y1830870D02*
X5729736D01*
X5602400Y3690000D02*
X5842646Y3449754D01*
X6492400Y3640000D02*
X6552400D01*
X6322400Y3810000D02*
X6492400Y3640000D01*
X6842400Y2110000D02*
Y2260000D01*
X6322400Y3810000D02*
Y4010000D01*
X6811153Y2978753D02*
X6848172D01*
X6742400Y2910000D02*
X6811153Y2978753D01*
X6362400Y6146500D02*
X6486400Y6270500D01*
X6731531Y5582950D02*
Y5627216D01*
D75*
X7292400Y5700000D02*
X7345005Y5647395D01*
Y4068563D02*
Y5647395D01*
X6996442Y3720000D02*
X7345005Y4068563D01*
X7599885Y2060480D02*
Y3377515D01*
X7589900Y2050496D02*
X7599885Y2060480D01*
X7532400Y3445000D02*
X7599885Y3377515D01*
X6742400Y3574492D02*
X6887908Y3720000D01*
X6734393Y3566485D02*
X6742400Y3574492D01*
X6679900Y3566485D02*
X6734393D01*
X6742400Y3574492D02*
Y3740000D01*
X8302400Y3740000D02*
Y3816579D01*
X5521690Y5382866D02*
X5522365D01*
X5492400Y4655761D02*
Y5353576D01*
X5377472Y4540833D02*
X5492400Y4655761D01*
Y5353576D02*
X5521690Y5382866D01*
X8302400Y1667664D02*
Y3740000D01*
X8224736Y1590000D02*
X8302400Y1667664D01*
X7792400Y1590000D02*
X8224736D01*
X3188842Y1681860D02*
X3334691Y1827709D01*
X2390110Y1681860D02*
X3188842D01*
X2221969Y1850000D02*
X2390110Y1681860D01*
X5062400Y3398915D02*
X5128526Y3465041D01*
X5062400Y3363383D02*
Y3398915D01*
X5142400Y2516838D02*
X5485929Y2173309D01*
X5109252Y3326359D02*
X5142400Y3293211D01*
X5099424Y3326359D02*
X5109252D01*
X5142400Y2516838D02*
Y3293211D01*
X5062400Y3363383D02*
X5099424Y3326359D01*
X5283482Y2771256D02*
Y3210489D01*
X3142400Y2540000D02*
X3212400Y2470000D01*
X3108564Y2529716D02*
X3142400D01*
X3006329Y2427481D02*
X3108564Y2529716D01*
X3006329Y2107554D02*
Y2427481D01*
X2900081Y2001305D02*
X3006329Y2107554D01*
X3142400Y2540000D02*
Y2685217D01*
X2327617Y3500000D02*
X3142400Y2685217D01*
X2269793Y3500000D02*
X2327617D01*
X2266954Y3502839D02*
X2269793Y3500000D01*
X2264248Y3502839D02*
X2266954D01*
X3466482Y1959500D02*
X3852400D01*
X4201900D01*
X8112307Y4006671D02*
X8302400Y3816579D01*
X7999949Y4006671D02*
X8112307D01*
X7999949D02*
Y4192451D01*
X7932400Y4260000D02*
X7999949Y4192451D01*
X7732400Y1530000D02*
X7792400Y1590000D01*
X6632400Y3850000D02*
X6742400Y3740000D01*
X6734393Y3566485D02*
X6752400Y3548478D01*
Y3320000D02*
Y3548478D01*
X6632400Y3200000D02*
X6752400Y3320000D01*
X6887908Y3720000D02*
X6996442D01*
X5485929Y2110515D02*
Y2173309D01*
X4201900Y1959500D02*
X4241900D01*
X4662400Y2380000D01*
X3334691Y1827709D02*
X3466482Y1959500D01*
X2009480Y2183054D02*
X2221969Y1970564D01*
Y1850000D02*
Y1970564D01*
X7195416Y5603016D02*
X7292400Y5700000D01*
X6795416Y5603016D02*
X7195416D01*
X2405918Y3940000D02*
X2425968Y3919950D01*
X2342400Y3940000D02*
X2405918D01*
X2189017Y4880000D02*
X2212400D01*
X2126563Y4817545D02*
X2189017Y4880000D01*
X2124223Y4817545D02*
X2126563D01*
X3920472Y4862450D02*
X3921163Y4863141D01*
Y4960794D01*
X3921853Y4961484D01*
X3920472Y5142450D02*
X3921218Y5141705D01*
Y5047943D02*
Y5141705D01*
Y5047943D02*
X3921963Y5047198D01*
X5674135Y3848265D02*
X5702400Y3820000D01*
X5674135Y3848265D02*
Y3912054D01*
X5672222Y3913968D02*
X5674135Y3912054D01*
X5948758Y3853642D02*
X5982400Y3820000D01*
X5948758Y3853642D02*
Y3920935D01*
X5942400Y3927294D02*
X5948758Y3920935D01*
X5942400Y3927294D02*
Y3930000D01*
D82*
X7995400Y3275000D02*
D03*
X8145400Y1455000D02*
D03*
X7995400Y6005000D02*
D03*
X8145400Y4185000D02*
D03*
D83*
X1914400Y1170500D02*
D03*
Y5996500D02*
D03*
D84*
X2168400Y1170500D02*
D03*
X2422400D02*
D03*
X2676400D02*
D03*
X2930400D02*
D03*
X3184400D02*
D03*
X3438400D02*
D03*
X3692400D02*
D03*
X3946400D02*
D03*
X4200400D02*
D03*
X4454400D02*
D03*
X4708400D02*
D03*
X4962400D02*
D03*
X5216400D02*
D03*
X5470400D02*
D03*
X5724400D02*
D03*
X5978400D02*
D03*
X6232400D02*
D03*
X6486400D02*
D03*
X6740400D02*
D03*
X6994400D02*
D03*
X7248400D02*
D03*
X7502400D02*
D03*
X1914400Y1464500D02*
D03*
X2168400D02*
D03*
X2422400D02*
D03*
X2676400D02*
D03*
X2930400D02*
D03*
X3184400D02*
D03*
X3438400D02*
D03*
X3692400D02*
D03*
X3946400D02*
D03*
X4200400D02*
D03*
X4454400D02*
D03*
X4708400D02*
D03*
X4962400D02*
D03*
X5216400D02*
D03*
X5470400D02*
D03*
X5724400D02*
D03*
X5978400D02*
D03*
X6232400D02*
D03*
X6486400D02*
D03*
X6740400D02*
D03*
X6994400D02*
D03*
X7248400D02*
D03*
X7502400D02*
D03*
X2168400Y5996500D02*
D03*
X2422400D02*
D03*
X2676400D02*
D03*
X2930400D02*
D03*
X3184400D02*
D03*
X3438400D02*
D03*
X3692400D02*
D03*
X3946400D02*
D03*
X4200400D02*
D03*
X4454400D02*
D03*
X4708400D02*
D03*
X4962400D02*
D03*
X5216400D02*
D03*
X5470400D02*
D03*
X5724400D02*
D03*
X5978400D02*
D03*
X6232400D02*
D03*
X6486400D02*
D03*
X6740400D02*
D03*
X6994400D02*
D03*
X7248400D02*
D03*
X7502400D02*
D03*
X1914400Y6290500D02*
D03*
X2168400D02*
D03*
X2422400D02*
D03*
X2676400D02*
D03*
X2930400D02*
D03*
X3184400D02*
D03*
X3438400D02*
D03*
X3692400D02*
D03*
X3946400D02*
D03*
X4200400D02*
D03*
X4454400D02*
D03*
X4708400D02*
D03*
X4962400D02*
D03*
X5216400D02*
D03*
X5470400D02*
D03*
X5724400D02*
D03*
X5978400D02*
D03*
X6232400D02*
D03*
X6486400D02*
D03*
X6740400D02*
D03*
X6994400D02*
D03*
X7248400D02*
D03*
X7502400D02*
D03*
D85*
X3802400Y3548000D02*
D03*
Y3748000D02*
D03*
Y3948000D02*
D03*
Y4148000D02*
D03*
Y4348000D02*
D03*
X3562400Y3548000D02*
D03*
Y3748000D02*
D03*
Y3948000D02*
D03*
Y4148000D02*
D03*
D86*
Y4348000D02*
D03*
D87*
X1342900Y6143500D02*
D03*
D88*
X1362400Y1345000D02*
D03*
D89*
Y1695000D02*
D03*
D90*
X8362400Y6340000D02*
D03*
X8387834Y1138008D02*
D03*
X1132400Y1120000D02*
D03*
X1092400Y2880000D02*
D03*
X1082400Y5080000D02*
D03*
X7123329Y3241556D02*
D03*
X7104560Y3303605D02*
D03*
X7032400Y5130000D02*
D03*
X7143504Y5282825D02*
D03*
X5127430Y2398108D02*
D03*
X8076493Y5442446D02*
D03*
X8091169Y5394648D02*
D03*
X8093555Y5088846D02*
D03*
X7217400Y4525000D02*
D03*
X6796322Y4746037D02*
D03*
X7001688Y4325269D02*
D03*
X6729627Y4410935D02*
D03*
X7260539Y5058678D02*
D03*
X7403056Y5099404D02*
D03*
X7172400Y5224024D02*
D03*
X7226631Y4790014D02*
D03*
X6814071Y4949987D02*
D03*
X7244827Y4638596D02*
D03*
X6670710Y5147500D02*
D03*
X6691150Y4972500D02*
D03*
X5927303Y5135789D02*
D03*
X6298125Y5094467D02*
D03*
X6201019Y4585892D02*
D03*
X6506625Y5358044D02*
D03*
X6770889Y5034141D02*
D03*
X6820826Y5082159D02*
D03*
X6756915Y4941800D02*
D03*
X6273201Y4979282D02*
D03*
X6271832Y4928233D02*
D03*
X6271552Y4878234D02*
D03*
X6275051Y4820726D02*
D03*
X6272768Y4579410D02*
D03*
X6686581Y4826477D02*
D03*
X7230145Y4949908D02*
D03*
X7227509Y4847507D02*
D03*
X7271144Y4682242D02*
D03*
X6685313Y4878659D02*
D03*
X6788829Y4655646D02*
D03*
X6743931Y4804879D02*
D03*
X6739900Y4632472D02*
D03*
X6259472Y4510077D02*
D03*
X6262312Y4458244D02*
D03*
X6307515Y4380763D02*
D03*
X6732792Y4479013D02*
D03*
X5192984Y2184630D02*
D03*
X5216395Y2030168D02*
D03*
X5216407Y1980169D02*
D03*
X5424659Y1972754D02*
D03*
X5418709Y2139368D02*
D03*
X5375539Y2097360D02*
D03*
X5157476Y2241599D02*
D03*
X6373386Y2111819D02*
D03*
X6240747Y2443955D02*
D03*
X6225077Y3267500D02*
D03*
X6211718Y3219318D02*
D03*
X6221716Y1830684D02*
D03*
X6209498Y2500277D02*
D03*
X6427240Y2440914D02*
D03*
X6401412Y2363380D02*
D03*
X6222400Y2200000D02*
D03*
X6240475Y1772333D02*
D03*
X6242626Y1938720D02*
D03*
X6310369Y2060192D02*
D03*
X6222400Y2270000D02*
D03*
Y2660000D02*
D03*
X5968916Y2719997D02*
D03*
X5974232Y2666353D02*
D03*
X5984129Y2889729D02*
D03*
X5964717Y2936769D02*
D03*
X6172400Y2820000D02*
D03*
X5962041Y3160608D02*
D03*
X5982388Y3289995D02*
D03*
X5972400Y3100000D02*
D03*
X6222400Y3090000D02*
D03*
X6194011Y3039769D02*
D03*
X7306761Y1770318D02*
D03*
X7515586Y1627402D02*
D03*
X7325610Y1715847D02*
D03*
X7592439Y1884245D02*
D03*
X7337170Y1873355D02*
D03*
X7319573Y1823379D02*
D03*
X7250173Y1881230D02*
D03*
X7562400Y1830000D02*
D03*
X7532400Y2030000D02*
D03*
Y2080000D02*
D03*
X7293021Y2435631D02*
D03*
X7341173Y2264965D02*
D03*
X7267418Y2213176D02*
D03*
X7531961Y2200332D02*
D03*
X7532961Y2250322D02*
D03*
X7322400Y2080000D02*
D03*
X7321512Y3191143D02*
D03*
X7341339Y3238790D02*
D03*
X7314763Y3054452D02*
D03*
X7312695Y3003702D02*
D03*
X7122400Y3110000D02*
D03*
Y3050000D02*
D03*
X7132386Y3519995D02*
D03*
X7127499Y3582718D02*
D03*
X7337407Y3518799D02*
D03*
X7338322Y3466946D02*
D03*
X7065475Y3593718D02*
D03*
X7328331Y3654781D02*
D03*
X7335004Y3712784D02*
D03*
X7128654Y3770894D02*
D03*
X7122400Y3720000D02*
D03*
X7534151Y4676000D02*
D03*
X7092400Y4325000D02*
D03*
X8151195Y3781968D02*
D03*
X6683630Y4169430D02*
D03*
X5483265Y4493580D02*
D03*
X5795335Y3959168D02*
D03*
X2263067Y2287523D02*
D03*
X8451585Y3737375D02*
D03*
X8434900Y3559739D02*
D03*
X5522365Y5382866D02*
D03*
X5321590Y4644282D02*
D03*
X5425587Y4694652D02*
D03*
X6791861Y2373397D02*
D03*
X4481895Y2619981D02*
D03*
X4392400Y3670000D02*
D03*
X2232400Y4210000D02*
D03*
X8218772Y1684779D02*
D03*
X3832400Y3250000D02*
D03*
X3677490Y3117655D02*
D03*
X3890848Y2334383D02*
D03*
X3991813Y2779007D02*
D03*
X4973911Y5826774D02*
D03*
X4613607Y5827546D02*
D03*
X5851454Y5625903D02*
D03*
X6466357Y2223066D02*
D03*
X3322400Y4630000D02*
D03*
X2882400Y3200000D02*
D03*
Y3430000D02*
D03*
X2292400Y2930000D02*
D03*
Y2700000D02*
D03*
X3436638Y2637718D02*
D03*
X6864059Y3564787D02*
D03*
X6457114Y1923815D02*
D03*
X5466681Y3736198D02*
D03*
X5128526Y3465041D02*
D03*
X4189054Y2298722D02*
D03*
X4102400Y2480000D02*
D03*
X4112400Y2540000D02*
D03*
X4212400Y3220000D02*
D03*
X5273899Y4954002D02*
D03*
X5283482Y3210489D02*
D03*
X5283888Y2770850D02*
D03*
X5277709Y3711469D02*
D03*
X4247202Y3633202D02*
D03*
X5042400Y2700000D02*
D03*
X5346122Y2916669D02*
D03*
X5515161Y2943620D02*
D03*
X4632400Y4410000D02*
D03*
X4732400Y4450000D02*
D03*
X4842400Y4240000D02*
D03*
X4849187Y1956458D02*
D03*
X4326497Y4326817D02*
D03*
X3021876Y5624019D02*
D03*
X2810166Y5177072D02*
D03*
X2992400Y5560000D02*
D03*
X3142394Y4139994D02*
D03*
X2862400Y4170001D02*
D03*
X2820764Y5609819D02*
D03*
X3274900Y3550000D02*
D03*
X3971977Y4458928D02*
D03*
X3382275Y4182500D02*
D03*
X3972399Y3717500D02*
D03*
X3402400Y3350000D02*
D03*
X2492679Y3037934D02*
D03*
X3336260Y3169371D02*
D03*
X3930513Y2964887D02*
D03*
X3121978Y2866066D02*
D03*
X3782747Y2212274D02*
D03*
X3272400Y2030000D02*
D03*
X2604476Y4263632D02*
D03*
X7299679Y2163852D02*
D03*
X8107947Y5147272D02*
D03*
X8078410Y4966066D02*
D03*
X8087623Y5024776D02*
D03*
X6844754Y2377731D02*
D03*
X7662400Y2400000D02*
D03*
X6808287Y2458315D02*
D03*
X7686698Y2845702D02*
D03*
X6675148Y3418006D02*
D03*
X6220442Y2867057D02*
D03*
X6432767Y2920716D02*
D03*
X6274272Y2995772D02*
D03*
X6372400Y3550000D02*
D03*
X6182400Y2610000D02*
D03*
X6432400Y1860000D02*
D03*
X6550493Y1828380D02*
D03*
X5292400Y1880000D02*
D03*
X6352271Y1611394D02*
D03*
X6864010Y1601044D02*
D03*
X7041478Y1624207D02*
D03*
X8105937Y3606359D02*
D03*
X7999949Y4006671D02*
D03*
X7600162Y1736535D02*
D03*
X3142097Y2115924D02*
D03*
X6822400Y3947500D02*
D03*
X7735318Y3962686D02*
D03*
X8063822Y3878978D02*
D03*
X8063630Y3945003D02*
D03*
X7732178Y3631825D02*
D03*
X7762400Y2920000D02*
D03*
X7532400Y3280000D02*
D03*
Y3445000D02*
D03*
X7411512Y3444793D02*
D03*
X8013439Y3610196D02*
D03*
X7952400Y3450000D02*
D03*
X8012400Y3510000D02*
D03*
X8222807Y3047135D02*
D03*
X8156477Y2960350D02*
D03*
X8133391Y2910622D02*
D03*
X8226344Y2938175D02*
D03*
X8223306Y2869523D02*
D03*
X4382400Y5500000D02*
D03*
X4983747Y5503003D02*
D03*
X4633747D02*
D03*
X4803747Y3563003D02*
D03*
X6613897Y1875833D02*
D03*
X5511245Y2664897D02*
D03*
X5474489Y2702985D02*
D03*
X5523628Y3324889D02*
D03*
X5707660Y3235833D02*
D03*
X5502400Y3000000D02*
D03*
X5501686Y3054045D02*
D03*
X5864766Y5273059D02*
D03*
X8065085Y5642287D02*
D03*
X5872951Y4539929D02*
D03*
X5842445Y3706612D02*
D03*
X6456196Y3813468D02*
D03*
X7068189Y3899534D02*
D03*
X6676772Y3714635D02*
D03*
X6262400Y4180000D02*
D03*
X6831495Y5828738D02*
D03*
X7211664Y5827195D02*
D03*
X7732400Y5630000D02*
D03*
X6670056Y2992762D02*
D03*
X6562400Y3280001D02*
D03*
X5868760Y2060716D02*
D03*
X5790997Y1763530D02*
D03*
X7353572Y2554359D02*
D03*
X6660695Y2595644D02*
D03*
X7246607Y2548600D02*
D03*
X6853383Y1993664D02*
D03*
X6725836Y2057734D02*
D03*
X7702400Y2050000D02*
D03*
X5776731Y2178451D02*
D03*
X5793106Y2229467D02*
D03*
X5762874Y2275444D02*
D03*
X5744753Y2446317D02*
D03*
X5602400Y2290000D02*
D03*
X4706140Y2240134D02*
D03*
X4704817Y2140418D02*
D03*
X4752896Y2065889D02*
D03*
X4799230Y1958541D02*
D03*
X5189934Y1757266D02*
D03*
X3398075Y2155029D02*
D03*
X2562932Y1600491D02*
D03*
X6553072Y3714062D02*
D03*
X4742400Y2460000D02*
D03*
X5350570Y2578802D02*
D03*
X5854625Y4738184D02*
D03*
X7932400Y4260000D02*
D03*
X7732400Y1530000D02*
D03*
X7024346Y2005659D02*
D03*
X4662400Y2380000D02*
D03*
X3225713Y1718731D02*
D03*
X4201900Y1959500D02*
D03*
X3783747Y2308653D02*
D03*
X3142739Y1800579D02*
D03*
X3352400Y2050000D02*
D03*
X3081247Y1941388D02*
D03*
X2009480Y2183054D02*
D03*
X1842400Y2817392D02*
D03*
X5482122Y2768096D02*
D03*
X5480332Y3191787D02*
D03*
X5729736Y1830870D02*
D03*
X5736727Y1935673D02*
D03*
X5737399Y2325000D02*
D03*
X5885146Y2790909D02*
D03*
Y3210001D02*
D03*
X6845899Y1795281D02*
D03*
X6632400Y3200000D02*
D03*
X6679900Y3566485D02*
D03*
X6632400Y3850000D02*
D03*
X6552400Y3640000D02*
D03*
X6564871Y3585249D02*
D03*
X7292400Y5700000D02*
D03*
X6795416Y5603016D02*
D03*
X5286061Y3315116D02*
D03*
X5004733Y3713076D02*
D03*
X2425968Y3919950D02*
D03*
X5697297Y3701733D02*
D03*
X6142400Y2290000D02*
D03*
Y1887379D02*
D03*
X5713696Y2867204D02*
D03*
X5971673Y2402302D02*
D03*
X5972400Y1990000D02*
D03*
X5477227Y3111606D02*
D03*
X7029900Y2156486D02*
D03*
X7034758Y2507069D02*
D03*
X7036877Y1845000D02*
D03*
X6497400Y2340370D02*
D03*
X7022400Y3130000D02*
D03*
X6883324Y3869064D02*
D03*
X6852400Y3213213D02*
D03*
X8072400Y2660000D02*
D03*
X5486279Y2110165D02*
D03*
X7589900Y2050496D02*
D03*
X8232783Y4520454D02*
D03*
X4443039Y5052602D02*
D03*
X5462400Y3950000D02*
D03*
X5372400Y4100000D02*
D03*
X4522452Y4398326D02*
D03*
X5409872Y3810000D02*
D03*
X4782400Y4990000D02*
D03*
X4682400Y4989014D02*
D03*
X5377472Y4540833D02*
D03*
X4441161Y4037421D02*
D03*
X4281947Y4283233D02*
D03*
X4058270Y1718223D02*
D03*
X2432832Y1910944D02*
D03*
X3212400Y2470000D02*
D03*
X3222780Y2746653D02*
D03*
X2124223Y4817545D02*
D03*
X3051290Y4903603D02*
D03*
X3372400Y5100000D02*
D03*
X3522400Y2930000D02*
D03*
X2900081Y2001305D02*
D03*
X5692400Y4060000D02*
D03*
X5052400Y4600000D02*
D03*
X4492400Y5180000D02*
D03*
X4881971Y4840468D02*
D03*
X7432400Y5480000D02*
D03*
X6848172Y2978753D02*
D03*
X1693233Y2870415D02*
D03*
X6731531Y5627216D02*
D03*
X6412400Y5670000D02*
D03*
X6292400Y5590000D02*
D03*
X6280570Y5489057D02*
D03*
X3813852Y1832573D02*
D03*
X6575053Y5336911D02*
D03*
X7062067Y5373121D02*
D03*
X6929900Y5490000D02*
D03*
X7082400Y5480000D02*
D03*
X5850482Y5340141D02*
D03*
X5632400Y5510000D02*
D03*
X5307318Y5327451D02*
D03*
X4962400Y4960000D02*
D03*
X6727095Y5195084D02*
D03*
X4242400Y5721722D02*
D03*
X5791391Y5626532D02*
D03*
X6042400Y5590000D02*
D03*
X7093190Y5721611D02*
D03*
X7422400Y5580000D02*
D03*
X5432400Y5630000D02*
D03*
X5382263Y5632256D02*
D03*
X5023808Y5549718D02*
D03*
X5092339Y5555019D02*
D03*
X5790957Y1814952D02*
D03*
X4002400Y5570000D02*
D03*
X6562400Y5840000D02*
D03*
X5122400Y5850000D02*
D03*
X4272400D02*
D03*
X3502400Y5550000D02*
D03*
X3904608Y5695489D02*
D03*
X3892400Y5530000D02*
D03*
X5596089Y5890135D02*
D03*
X6918170Y5389633D02*
D03*
X6233400Y5624083D02*
D03*
X3965901Y1779788D02*
D03*
X2603926Y5827756D02*
D03*
X2704315Y5830749D02*
D03*
X1839183Y2021469D02*
D03*
X1754500Y2474775D02*
D03*
X3031332Y1742512D02*
D03*
X3717670Y2182957D02*
D03*
X3768316Y2140456D02*
D03*
X4162325Y1716551D02*
D03*
X6635771Y3114523D02*
D03*
X6641794Y3034384D02*
D03*
X4393201Y4693668D02*
D03*
X4393039Y4765770D02*
D03*
X4595998Y3973046D02*
D03*
X4591936Y3907273D02*
D03*
X4444662Y4101914D02*
D03*
X4982400Y1830000D02*
D03*
X5404900Y1780000D02*
D03*
X5294900D02*
D03*
X5061337Y1821950D02*
D03*
X4312400Y4690000D02*
D03*
X5156330Y1624879D02*
D03*
X8062400Y5710000D02*
D03*
X8145573Y4560225D02*
D03*
X8145146Y4497006D02*
D03*
X8225106Y4417398D02*
D03*
X8221190Y4573566D02*
D03*
X8119478Y1837239D02*
D03*
X8161647Y1752676D02*
D03*
X8126726Y1924809D02*
D03*
X8137341Y2004912D02*
D03*
X8222400Y1750000D02*
D03*
X8069143Y1839696D02*
D03*
X8221521Y5628445D02*
D03*
X8072497Y2000173D02*
D03*
X8218735Y2164376D02*
D03*
X8222232Y2564061D02*
D03*
X8218276Y2646753D02*
D03*
X8221573Y2805640D02*
D03*
X8221931Y4655497D02*
D03*
Y4895251D02*
D03*
X8222400Y5775000D02*
D03*
X8219258Y5295000D02*
D03*
X8221050Y5535000D02*
D03*
X8070631Y2717282D02*
D03*
X8220907Y2721834D02*
D03*
X8073360Y2472841D02*
D03*
X8072400Y2420000D02*
D03*
X8073535Y2312606D02*
D03*
X8067472Y2261180D02*
D03*
X8217741Y5680295D02*
D03*
X8216228Y5389101D02*
D03*
X8215473Y5441828D02*
D03*
X8072400Y4720000D02*
D03*
X8212400D02*
D03*
X4542400Y4540000D02*
D03*
X5334881Y4430081D02*
D03*
X5093475Y4725690D02*
D03*
X4500352Y5340233D02*
D03*
X5004486Y3843916D02*
D03*
X5005118Y4168584D02*
D03*
X5002400Y3970000D02*
D03*
X4281684Y3814947D02*
D03*
X1889655Y5699313D02*
D03*
X2238410Y5700798D02*
D03*
X3362400Y5680000D02*
D03*
X3337858Y5401433D02*
D03*
X3562268Y5307891D02*
D03*
X3877727Y4694868D02*
D03*
X3561800Y4694491D02*
D03*
X3792410Y5305052D02*
D03*
X2754737Y5410493D02*
D03*
X2081702Y5269783D02*
D03*
X2521651Y5282943D02*
D03*
X3212214Y4813335D02*
D03*
X3319687Y4448980D02*
D03*
X4162400Y2860000D02*
D03*
X3142128Y2310946D02*
D03*
X2602400Y1960000D02*
D03*
X2882833Y1801168D02*
D03*
X2292356Y1630605D02*
D03*
X1382138Y2226361D02*
D03*
X1947339Y2368211D02*
D03*
X1890892Y2298202D02*
D03*
X2132400Y2580000D02*
D03*
X2297959Y2525693D02*
D03*
X2392400Y3630000D02*
D03*
X2181807Y3977139D02*
D03*
X2247767Y4034777D02*
D03*
D91*
X1502900Y6283500D02*
D03*
Y6003500D02*
D03*
X1182900D02*
D03*
Y6283500D02*
D03*
X2221969Y1850000D02*
D03*
X5942400Y3930000D02*
D03*
X2264248Y3502839D02*
D03*
X5672222Y3913968D02*
D03*
X3921853Y4961484D02*
D03*
X3921963Y5047198D02*
D03*
%TF.MD5,3b6acdd4797dd51804dd0726206b78fa*%
M02*
