%TF.GenerationSoftware,Altium Limited,Altium Designer,25.4.2 (15)*%
G04 Layer_Physical_Order=2*
G04 Layer_Color=36540*
%FSLAX45Y45*%
%MOMM*%
%TF.SameCoordinates,EE14137D-E0DD-4410-96C1-A075B8BE80D9*%
%TF.FilePolarity,Positive*%
%TF.FileFunction,Copper,L2,Inr,Signal*%
%TF.Part,Single*%
G01*
G75*
%TA.AperFunction,ComponentPad*%
G04:AMPARAMS|DCode=83|XSize=1.55mm|YSize=1.6mm|CornerRadius=0.3875mm|HoleSize=0mm|Usage=FLASHONLY|Rotation=270.000|XOffset=0mm|YOffset=0mm|HoleType=Round|Shape=RoundedRectangle|*
%AMROUNDEDRECTD83*
21,1,1.55000,0.82500,0,0,270.0*
21,1,0.77500,1.60000,0,0,270.0*
1,1,0.77500,-0.41250,-0.38750*
1,1,0.77500,-0.41250,0.38750*
1,1,0.77500,0.41250,0.38750*
1,1,0.77500,0.41250,-0.38750*
%
%ADD83ROUNDEDRECTD83*%
G04:AMPARAMS|DCode=89|XSize=2.2mm|YSize=2.2mm|CornerRadius=0mm|HoleSize=0mm|Usage=FLASHONLY|Rotation=270.000|XOffset=0mm|YOffset=0mm|HoleType=Round|Shape=Octagon|*
%AMOCTAGOND89*
4,1,8,-0.55000,-1.10000,0.55000,-1.10000,1.10000,-0.55000,1.10000,0.55000,0.55000,1.10000,-0.55000,1.10000,-1.10000,0.55000,-1.10000,-0.55000,-0.55000,-1.10000,0.0*
%
%ADD89OCTAGOND89*%

G04:AMPARAMS|DCode=90|XSize=2.2mm|YSize=2.2mm|CornerRadius=0.55mm|HoleSize=0mm|Usage=FLASHONLY|Rotation=270.000|XOffset=0mm|YOffset=0mm|HoleType=Round|Shape=RoundedRectangle|*
%AMROUNDEDRECTD90*
21,1,2.20000,1.10000,0,0,270.0*
21,1,1.10000,2.20000,0,0,270.0*
1,1,1.10000,-0.55000,-0.55000*
1,1,1.10000,-0.55000,0.55000*
1,1,1.10000,0.55000,0.55000*
1,1,1.10000,0.55000,-0.55000*
%
%ADD90ROUNDEDRECTD90*%
%TA.AperFunction,ViaPad*%
%ADD91C,0.60000*%
%ADD92C,0.35000*%
%TA.AperFunction,ComponentPad*%
G04:AMPARAMS|DCode=93|XSize=1.5mm|YSize=1.9mm|CornerRadius=0.375mm|HoleSize=0mm|Usage=FLASHONLY|Rotation=0.000|XOffset=0mm|YOffset=0mm|HoleType=Round|Shape=RoundedRectangle|*
%AMROUNDEDRECTD93*
21,1,1.50000,1.15000,0,0,0.0*
21,1,0.75000,1.90000,0,0,0.0*
1,1,0.75000,0.37500,-0.57500*
1,1,0.75000,-0.37500,-0.57500*
1,1,0.75000,-0.37500,0.57500*
1,1,0.75000,0.37500,0.57500*
%
%ADD93ROUNDEDRECTD93*%
G04:AMPARAMS|DCode=94|XSize=1.3mm|YSize=1.7mm|CornerRadius=0.325mm|HoleSize=0mm|Usage=FLASHONLY|Rotation=270.000|XOffset=0mm|YOffset=0mm|HoleType=Round|Shape=RoundedRectangle|*
%AMROUNDEDRECTD94*
21,1,1.30000,1.05000,0,0,270.0*
21,1,0.65000,1.70000,0,0,270.0*
1,1,0.65000,-0.52500,-0.32500*
1,1,0.65000,-0.52500,0.32500*
1,1,0.65000,0.52500,0.32500*
1,1,0.65000,0.52500,-0.32500*
%
%ADD94ROUNDEDRECTD94*%
G04:AMPARAMS|DCode=95|XSize=3.6mm|YSize=3.6mm|CornerRadius=0.54mm|HoleSize=0mm|Usage=FLASHONLY|Rotation=0.000|XOffset=0mm|YOffset=0mm|HoleType=Round|Shape=RoundedRectangle|*
%AMROUNDEDRECTD95*
21,1,3.60000,2.52000,0,0,0.0*
21,1,2.52000,3.60000,0,0,0.0*
1,1,1.08000,1.26000,-1.26000*
1,1,1.08000,-1.26000,-1.26000*
1,1,1.08000,-1.26000,1.26000*
1,1,1.08000,1.26000,1.26000*
%
%ADD95ROUNDEDRECTD95*%
G36*
X8412706Y5414943D02*
X8445066Y5407174D01*
X8475813Y5394438D01*
X8504188Y5377050D01*
X8529494Y5355436D01*
X8551108Y5330130D01*
X8568496Y5301755D01*
X8581232Y5271008D01*
X8589001Y5238648D01*
X8590681Y5217292D01*
X8591113Y5205471D01*
X8591116Y5205460D01*
X8591116Y5193471D01*
X8591180Y2790477D01*
X8581203Y2783810D01*
X8578633Y2784875D01*
X8559736D01*
X8542278Y2777643D01*
X8528916Y2764281D01*
X8521685Y2746823D01*
Y2727926D01*
X8528916Y2710468D01*
X8542278Y2697106D01*
X8559736Y2689875D01*
X8578633D01*
X8581205Y2690941D01*
X8591183Y2684274D01*
X8591248Y267184D01*
X8591247Y267087D01*
X8591247Y255256D01*
X8590815Y243435D01*
X8589137Y222121D01*
X8581378Y189803D01*
X8568659Y159097D01*
X8551293Y130758D01*
X8529708Y105484D01*
X8504434Y83899D01*
X8476095Y66533D01*
X8445389Y53814D01*
X8413071Y46055D01*
X8381728Y43588D01*
X8379938Y43944D01*
X7706311D01*
X7702237Y55944D01*
X7709207Y61293D01*
X7720828Y76437D01*
X7728134Y94074D01*
X7730625Y113000D01*
Y160500D01*
X7509375D01*
Y113000D01*
X7511866Y94074D01*
X7519172Y76437D01*
X7530793Y61293D01*
X7537763Y55944D01*
X7533689Y43944D01*
X7452311D01*
X7448237Y55944D01*
X7455207Y61293D01*
X7466828Y76437D01*
X7474134Y94074D01*
X7476625Y113000D01*
Y160500D01*
X7255375D01*
Y113000D01*
X7257866Y94074D01*
X7265172Y76437D01*
X7276793Y61293D01*
X7283763Y55944D01*
X7279689Y43944D01*
X7189125D01*
X7188415Y45228D01*
X7186024Y55944D01*
X7197641Y64859D01*
X7208461Y78959D01*
X7215262Y95379D01*
X7217582Y113000D01*
Y228000D01*
X7215262Y245621D01*
X7208461Y262041D01*
X7197641Y276141D01*
X7183541Y286961D01*
X7167121Y293762D01*
X7149500Y296082D01*
X7074500D01*
X7056879Y293762D01*
X7040459Y286961D01*
X7026359Y276141D01*
X7015539Y262041D01*
X7008738Y245621D01*
X7006418Y228000D01*
Y113000D01*
X7008738Y95379D01*
X7015539Y78959D01*
X7026359Y64859D01*
X7037976Y55944D01*
X7035585Y45228D01*
X7034875Y43944D01*
X6935125D01*
X6934415Y45228D01*
X6932024Y55944D01*
X6943641Y64859D01*
X6954461Y78959D01*
X6961262Y95379D01*
X6963582Y113000D01*
Y228000D01*
X6961262Y245621D01*
X6954461Y262041D01*
X6943641Y276141D01*
X6929541Y286961D01*
X6913121Y293762D01*
X6895500Y296082D01*
X6820500D01*
X6802879Y293762D01*
X6786459Y286961D01*
X6772359Y276141D01*
X6761539Y262041D01*
X6754738Y245621D01*
X6752418Y228000D01*
Y113000D01*
X6754738Y95379D01*
X6761539Y78959D01*
X6772359Y64859D01*
X6783976Y55944D01*
X6781585Y45228D01*
X6780875Y43944D01*
X6681125D01*
X6680415Y45228D01*
X6678024Y55944D01*
X6689641Y64859D01*
X6700461Y78959D01*
X6707262Y95379D01*
X6709582Y113000D01*
Y228000D01*
X6707262Y245621D01*
X6700461Y262041D01*
X6689641Y276141D01*
X6675541Y286961D01*
X6659121Y293762D01*
X6641500Y296082D01*
X6566500D01*
X6548879Y293762D01*
X6532459Y286961D01*
X6518359Y276141D01*
X6507539Y262041D01*
X6500738Y245621D01*
X6498418Y228000D01*
Y113000D01*
X6500738Y95379D01*
X6507539Y78959D01*
X6518359Y64859D01*
X6529976Y55944D01*
X6527585Y45228D01*
X6526875Y43944D01*
X6427125D01*
X6426415Y45228D01*
X6424024Y55944D01*
X6435641Y64859D01*
X6446461Y78959D01*
X6453262Y95379D01*
X6455582Y113000D01*
Y228000D01*
X6453262Y245621D01*
X6446461Y262041D01*
X6435641Y276141D01*
X6421541Y286961D01*
X6405121Y293762D01*
X6387500Y296082D01*
X6312500D01*
X6294879Y293762D01*
X6278459Y286961D01*
X6264359Y276141D01*
X6253539Y262041D01*
X6246738Y245621D01*
X6244418Y228000D01*
Y113000D01*
X6246738Y95379D01*
X6253539Y78959D01*
X6264359Y64859D01*
X6275976Y55944D01*
X6273585Y45228D01*
X6272875Y43944D01*
X6173125D01*
X6172415Y45228D01*
X6170024Y55944D01*
X6181641Y64859D01*
X6192461Y78959D01*
X6199262Y95379D01*
X6201582Y113000D01*
Y228000D01*
X6199262Y245621D01*
X6192461Y262041D01*
X6181641Y276141D01*
X6167541Y286961D01*
X6151121Y293762D01*
X6133500Y296082D01*
X6058500D01*
X6040879Y293762D01*
X6024459Y286961D01*
X6010359Y276141D01*
X5999539Y262041D01*
X5992738Y245621D01*
X5990418Y228000D01*
Y113000D01*
X5992738Y95379D01*
X5999539Y78959D01*
X6010359Y64859D01*
X6021976Y55944D01*
X6019585Y45228D01*
X6018875Y43944D01*
X5919125D01*
X5918415Y45228D01*
X5916024Y55944D01*
X5927641Y64859D01*
X5938461Y78959D01*
X5945262Y95379D01*
X5947582Y113000D01*
Y228000D01*
X5945262Y245621D01*
X5938461Y262041D01*
X5927641Y276141D01*
X5913541Y286961D01*
X5897121Y293762D01*
X5879500Y296082D01*
X5804500D01*
X5786879Y293762D01*
X5770459Y286961D01*
X5756359Y276141D01*
X5745539Y262041D01*
X5738738Y245621D01*
X5736418Y228000D01*
Y113000D01*
X5738738Y95379D01*
X5745539Y78959D01*
X5756359Y64859D01*
X5767976Y55944D01*
X5765585Y45228D01*
X5764875Y43944D01*
X5665125D01*
X5664415Y45228D01*
X5662024Y55944D01*
X5673641Y64859D01*
X5684461Y78959D01*
X5691262Y95379D01*
X5693582Y113000D01*
Y228000D01*
X5691262Y245621D01*
X5684461Y262041D01*
X5673641Y276141D01*
X5659541Y286961D01*
X5643121Y293762D01*
X5625500Y296082D01*
X5550500D01*
X5532879Y293762D01*
X5516459Y286961D01*
X5502359Y276141D01*
X5491539Y262041D01*
X5484738Y245621D01*
X5482418Y228000D01*
Y113000D01*
X5484738Y95379D01*
X5491539Y78959D01*
X5502359Y64859D01*
X5513976Y55944D01*
X5511585Y45228D01*
X5510875Y43944D01*
X5411125D01*
X5410415Y45228D01*
X5408024Y55944D01*
X5419641Y64859D01*
X5430461Y78959D01*
X5437262Y95379D01*
X5439582Y113000D01*
Y228000D01*
X5437262Y245621D01*
X5430461Y262041D01*
X5419641Y276141D01*
X5405541Y286961D01*
X5389121Y293762D01*
X5371500Y296082D01*
X5296500D01*
X5278879Y293762D01*
X5262459Y286961D01*
X5248359Y276141D01*
X5237539Y262041D01*
X5230738Y245621D01*
X5228418Y228000D01*
Y113000D01*
X5230738Y95379D01*
X5237539Y78959D01*
X5248359Y64859D01*
X5259976Y55944D01*
X5257585Y45228D01*
X5256875Y43944D01*
X5157125D01*
X5156415Y45228D01*
X5154024Y55944D01*
X5165641Y64859D01*
X5176461Y78959D01*
X5183262Y95379D01*
X5185582Y113000D01*
Y228000D01*
X5183262Y245621D01*
X5176461Y262041D01*
X5165641Y276141D01*
X5151541Y286961D01*
X5135121Y293762D01*
X5117500Y296082D01*
X5042500D01*
X5024879Y293762D01*
X5008459Y286961D01*
X4994359Y276141D01*
X4983539Y262041D01*
X4976738Y245621D01*
X4974418Y228000D01*
Y113000D01*
X4976738Y95379D01*
X4983539Y78959D01*
X4994359Y64859D01*
X5005976Y55944D01*
X5003585Y45228D01*
X5002875Y43944D01*
X4903125D01*
X4902415Y45228D01*
X4900024Y55944D01*
X4911641Y64859D01*
X4922461Y78959D01*
X4929262Y95379D01*
X4931582Y113000D01*
Y228000D01*
X4929262Y245621D01*
X4922461Y262041D01*
X4911641Y276141D01*
X4897541Y286961D01*
X4881121Y293762D01*
X4863500Y296082D01*
X4788500D01*
X4770879Y293762D01*
X4754459Y286961D01*
X4740359Y276141D01*
X4729539Y262041D01*
X4722738Y245621D01*
X4720418Y228000D01*
Y113000D01*
X4722738Y95379D01*
X4729539Y78959D01*
X4740359Y64859D01*
X4751976Y55944D01*
X4749585Y45228D01*
X4748875Y43944D01*
X4649125D01*
X4648415Y45228D01*
X4646024Y55944D01*
X4657641Y64859D01*
X4668461Y78959D01*
X4675262Y95379D01*
X4677582Y113000D01*
Y228000D01*
X4675262Y245621D01*
X4668461Y262041D01*
X4657641Y276141D01*
X4643541Y286961D01*
X4627121Y293762D01*
X4609500Y296082D01*
X4534500D01*
X4516879Y293762D01*
X4500459Y286961D01*
X4486359Y276141D01*
X4475539Y262041D01*
X4468738Y245621D01*
X4466418Y228000D01*
Y113000D01*
X4468738Y95379D01*
X4475539Y78959D01*
X4486359Y64859D01*
X4497976Y55944D01*
X4495585Y45228D01*
X4494875Y43944D01*
X4395125D01*
X4394415Y45228D01*
X4392024Y55944D01*
X4403641Y64859D01*
X4414461Y78959D01*
X4421262Y95379D01*
X4423582Y113000D01*
Y228000D01*
X4421262Y245621D01*
X4414461Y262041D01*
X4403641Y276141D01*
X4389541Y286961D01*
X4373121Y293762D01*
X4355500Y296082D01*
X4280500D01*
X4262879Y293762D01*
X4246459Y286961D01*
X4232359Y276141D01*
X4221539Y262041D01*
X4214738Y245621D01*
X4212418Y228000D01*
Y113000D01*
X4214738Y95379D01*
X4221539Y78959D01*
X4232359Y64859D01*
X4243976Y55944D01*
X4241585Y45228D01*
X4240875Y43944D01*
X4141125D01*
X4140415Y45228D01*
X4138024Y55944D01*
X4149641Y64859D01*
X4160461Y78959D01*
X4167262Y95379D01*
X4169582Y113000D01*
Y228000D01*
X4167262Y245621D01*
X4160461Y262041D01*
X4149641Y276141D01*
X4135541Y286961D01*
X4119121Y293762D01*
X4101500Y296082D01*
X4026500D01*
X4008879Y293762D01*
X3992459Y286961D01*
X3978359Y276141D01*
X3967539Y262041D01*
X3960738Y245621D01*
X3958418Y228000D01*
Y113000D01*
X3960738Y95379D01*
X3967539Y78959D01*
X3978359Y64859D01*
X3989976Y55944D01*
X3987585Y45228D01*
X3986875Y43944D01*
X3887125D01*
X3886415Y45228D01*
X3884024Y55944D01*
X3895641Y64859D01*
X3906461Y78959D01*
X3913262Y95379D01*
X3915582Y113000D01*
Y228000D01*
X3913262Y245621D01*
X3906461Y262041D01*
X3895641Y276141D01*
X3881541Y286961D01*
X3865121Y293762D01*
X3847500Y296082D01*
X3772500D01*
X3754879Y293762D01*
X3738459Y286961D01*
X3724359Y276141D01*
X3713539Y262041D01*
X3706738Y245621D01*
X3704418Y228000D01*
Y113000D01*
X3706738Y95379D01*
X3713539Y78959D01*
X3724359Y64859D01*
X3735976Y55944D01*
X3733585Y45228D01*
X3732875Y43944D01*
X3633125D01*
X3632415Y45228D01*
X3630024Y55944D01*
X3641641Y64859D01*
X3652461Y78959D01*
X3659262Y95379D01*
X3661582Y113000D01*
Y228000D01*
X3659262Y245621D01*
X3652461Y262041D01*
X3641641Y276141D01*
X3627541Y286961D01*
X3611121Y293762D01*
X3593500Y296082D01*
X3518500D01*
X3500879Y293762D01*
X3484459Y286961D01*
X3470359Y276141D01*
X3459539Y262041D01*
X3452738Y245621D01*
X3450418Y228000D01*
Y113000D01*
X3452738Y95379D01*
X3459539Y78959D01*
X3470359Y64859D01*
X3481976Y55944D01*
X3479585Y45228D01*
X3478875Y43944D01*
X3379125D01*
X3378415Y45228D01*
X3376024Y55944D01*
X3387641Y64859D01*
X3398461Y78959D01*
X3405262Y95379D01*
X3407582Y113000D01*
Y228000D01*
X3405262Y245621D01*
X3398461Y262041D01*
X3387641Y276141D01*
X3373541Y286961D01*
X3357121Y293762D01*
X3339500Y296082D01*
X3264500D01*
X3246879Y293762D01*
X3230459Y286961D01*
X3216359Y276141D01*
X3205539Y262041D01*
X3198738Y245621D01*
X3196418Y228000D01*
Y113000D01*
X3198738Y95379D01*
X3205539Y78959D01*
X3216359Y64859D01*
X3227976Y55944D01*
X3225585Y45228D01*
X3224875Y43944D01*
X3125125D01*
X3124415Y45228D01*
X3122024Y55944D01*
X3133641Y64859D01*
X3144461Y78959D01*
X3151262Y95379D01*
X3153582Y113000D01*
Y228000D01*
X3151262Y245621D01*
X3144461Y262041D01*
X3133641Y276141D01*
X3119541Y286961D01*
X3103121Y293762D01*
X3085500Y296082D01*
X3010500D01*
X2992879Y293762D01*
X2976459Y286961D01*
X2962359Y276141D01*
X2951539Y262041D01*
X2944738Y245621D01*
X2942418Y228000D01*
Y113000D01*
X2944738Y95379D01*
X2951539Y78959D01*
X2962359Y64859D01*
X2973976Y55944D01*
X2971585Y45228D01*
X2970875Y43944D01*
X2871125D01*
X2870415Y45228D01*
X2868024Y55944D01*
X2879641Y64859D01*
X2890461Y78959D01*
X2897262Y95379D01*
X2899582Y113000D01*
Y228000D01*
X2897262Y245621D01*
X2890461Y262041D01*
X2879641Y276141D01*
X2865541Y286961D01*
X2849121Y293762D01*
X2831500Y296082D01*
X2756500D01*
X2738879Y293762D01*
X2722459Y286961D01*
X2708359Y276141D01*
X2697539Y262041D01*
X2690738Y245621D01*
X2688418Y228000D01*
Y113000D01*
X2690738Y95379D01*
X2697539Y78959D01*
X2708359Y64859D01*
X2719976Y55944D01*
X2717585Y45228D01*
X2716875Y43944D01*
X2617125D01*
X2616415Y45228D01*
X2614024Y55944D01*
X2625641Y64859D01*
X2636461Y78959D01*
X2643262Y95379D01*
X2645582Y113000D01*
Y228000D01*
X2643262Y245621D01*
X2636461Y262041D01*
X2625641Y276141D01*
X2611541Y286961D01*
X2595121Y293762D01*
X2577500Y296082D01*
X2502500D01*
X2484879Y293762D01*
X2468459Y286961D01*
X2454359Y276141D01*
X2443539Y262041D01*
X2436738Y245621D01*
X2434418Y228000D01*
Y113000D01*
X2436738Y95379D01*
X2443539Y78959D01*
X2454359Y64859D01*
X2465976Y55944D01*
X2463585Y45228D01*
X2462875Y43944D01*
X2363125D01*
X2362415Y45228D01*
X2360024Y55944D01*
X2371641Y64859D01*
X2382461Y78959D01*
X2389262Y95379D01*
X2391582Y113000D01*
Y228000D01*
X2389262Y245621D01*
X2382461Y262041D01*
X2371641Y276141D01*
X2357541Y286961D01*
X2341121Y293762D01*
X2323500Y296082D01*
X2248500D01*
X2230879Y293762D01*
X2214459Y286961D01*
X2200359Y276141D01*
X2189539Y262041D01*
X2182738Y245621D01*
X2180418Y228000D01*
Y113000D01*
X2182738Y95379D01*
X2189539Y78959D01*
X2200359Y64859D01*
X2211976Y55944D01*
X2209585Y45228D01*
X2208875Y43944D01*
X2118311D01*
X2114237Y55944D01*
X2121207Y61293D01*
X2132828Y76437D01*
X2140134Y94074D01*
X2142625Y113000D01*
Y160500D01*
X1921375D01*
Y113000D01*
X1923866Y94074D01*
X1931172Y76437D01*
X1942793Y61293D01*
X1949763Y55944D01*
X1945689Y43944D01*
X1371600D01*
X1369823Y43591D01*
X1338663Y46043D01*
X1306537Y53756D01*
X1276013Y66399D01*
X1247842Y83662D01*
X1222719Y105119D01*
X1201262Y130242D01*
X1183999Y158413D01*
X1171356Y188937D01*
X1163643Y221063D01*
X1161191Y252223D01*
X1161544Y254000D01*
Y1924556D01*
X1841500D01*
Y1924481D01*
X1888120Y1928150D01*
X1933593Y1939067D01*
X1976798Y1956963D01*
X2016671Y1981398D01*
X2052231Y2011769D01*
X2082602Y2047329D01*
X2107037Y2087202D01*
X2124933Y2130407D01*
X2135850Y2175880D01*
X2139519Y2222500D01*
X2139444D01*
Y3746500D01*
X2139519D01*
X2135850Y3793120D01*
X2124933Y3838593D01*
X2107037Y3881798D01*
X2082602Y3921671D01*
X2052231Y3957231D01*
X2016671Y3987602D01*
X1976798Y4012037D01*
X1933593Y4029933D01*
X1888120Y4040850D01*
X1841500Y4044519D01*
Y4044444D01*
X1161544D01*
Y5207000D01*
X1161191Y5208778D01*
X1163643Y5239937D01*
X1171356Y5272063D01*
X1183999Y5302587D01*
X1201262Y5330758D01*
X1222719Y5355881D01*
X1247842Y5377338D01*
X1276012Y5394601D01*
X1306537Y5407244D01*
X1338663Y5414957D01*
X1359781Y5416619D01*
X1371600Y5417055D01*
Y5417056D01*
X1945689D01*
X1949763Y5405056D01*
X1942793Y5399707D01*
X1931172Y5384563D01*
X1923866Y5366926D01*
X1921375Y5348000D01*
Y5300500D01*
X2142625D01*
Y5348000D01*
X2140134Y5366926D01*
X2132828Y5384563D01*
X2121207Y5399707D01*
X2114237Y5405056D01*
X2118311Y5417056D01*
X2208875D01*
X2209585Y5415772D01*
X2211976Y5405056D01*
X2200359Y5396141D01*
X2189539Y5382041D01*
X2182738Y5365621D01*
X2180418Y5348000D01*
Y5233000D01*
X2182738Y5215379D01*
X2189539Y5198959D01*
X2200359Y5184859D01*
X2214459Y5174039D01*
X2230879Y5167238D01*
X2248500Y5164918D01*
X2323500D01*
X2341121Y5167238D01*
X2357541Y5174039D01*
X2371641Y5184859D01*
X2382461Y5198959D01*
X2389262Y5215379D01*
X2391582Y5233000D01*
Y5348000D01*
X2389262Y5365621D01*
X2382461Y5382041D01*
X2371641Y5396141D01*
X2360024Y5405056D01*
X2362415Y5415772D01*
X2363125Y5417056D01*
X2462875D01*
X2463585Y5415772D01*
X2465976Y5405056D01*
X2454359Y5396141D01*
X2443539Y5382041D01*
X2436738Y5365621D01*
X2434418Y5348000D01*
Y5233000D01*
X2436738Y5215379D01*
X2443539Y5198959D01*
X2454359Y5184859D01*
X2468459Y5174039D01*
X2484879Y5167238D01*
X2502500Y5164918D01*
X2577500D01*
X2595121Y5167238D01*
X2611541Y5174039D01*
X2625641Y5184859D01*
X2636461Y5198959D01*
X2643262Y5215379D01*
X2645582Y5233000D01*
Y5348000D01*
X2643262Y5365621D01*
X2636461Y5382041D01*
X2625641Y5396141D01*
X2614024Y5405056D01*
X2616415Y5415772D01*
X2617125Y5417056D01*
X2716875D01*
X2717585Y5415772D01*
X2719976Y5405056D01*
X2708359Y5396141D01*
X2697539Y5382041D01*
X2690738Y5365621D01*
X2688418Y5348000D01*
Y5233000D01*
X2690738Y5215379D01*
X2697539Y5198959D01*
X2708359Y5184859D01*
X2722459Y5174039D01*
X2738879Y5167238D01*
X2756500Y5164918D01*
X2831500D01*
X2849121Y5167238D01*
X2865541Y5174039D01*
X2879641Y5184859D01*
X2890461Y5198959D01*
X2897262Y5215379D01*
X2899582Y5233000D01*
Y5348000D01*
X2897262Y5365621D01*
X2890461Y5382041D01*
X2879641Y5396141D01*
X2868024Y5405056D01*
X2870415Y5415772D01*
X2871125Y5417056D01*
X2970875D01*
X2971585Y5415772D01*
X2973976Y5405056D01*
X2962359Y5396141D01*
X2951539Y5382041D01*
X2944738Y5365621D01*
X2942418Y5348000D01*
Y5233000D01*
X2944738Y5215379D01*
X2951539Y5198959D01*
X2962359Y5184859D01*
X2976459Y5174039D01*
X2992879Y5167238D01*
X3010500Y5164918D01*
X3085500D01*
X3103121Y5167238D01*
X3119541Y5174039D01*
X3133641Y5184859D01*
X3144461Y5198959D01*
X3151262Y5215379D01*
X3153582Y5233000D01*
Y5348000D01*
X3151262Y5365621D01*
X3144461Y5382041D01*
X3133641Y5396141D01*
X3122024Y5405056D01*
X3124415Y5415772D01*
X3125125Y5417056D01*
X3224875D01*
X3225585Y5415772D01*
X3227976Y5405056D01*
X3216359Y5396141D01*
X3205539Y5382041D01*
X3198738Y5365621D01*
X3196418Y5348000D01*
Y5233000D01*
X3198738Y5215379D01*
X3205539Y5198959D01*
X3216359Y5184859D01*
X3230459Y5174039D01*
X3246879Y5167238D01*
X3264500Y5164918D01*
X3339500D01*
X3357121Y5167238D01*
X3373541Y5174039D01*
X3387641Y5184859D01*
X3398461Y5198959D01*
X3405262Y5215379D01*
X3407582Y5233000D01*
Y5348000D01*
X3405262Y5365621D01*
X3398461Y5382041D01*
X3387641Y5396141D01*
X3376024Y5405056D01*
X3378415Y5415772D01*
X3379125Y5417056D01*
X3478875D01*
X3479585Y5415772D01*
X3481976Y5405056D01*
X3470359Y5396141D01*
X3459539Y5382041D01*
X3452738Y5365621D01*
X3450418Y5348000D01*
Y5233000D01*
X3452738Y5215379D01*
X3459539Y5198959D01*
X3470359Y5184859D01*
X3484459Y5174039D01*
X3500879Y5167238D01*
X3518500Y5164918D01*
X3593500D01*
X3611121Y5167238D01*
X3627541Y5174039D01*
X3641641Y5184859D01*
X3652461Y5198959D01*
X3659262Y5215379D01*
X3661582Y5233000D01*
Y5348000D01*
X3659262Y5365621D01*
X3652461Y5382041D01*
X3641641Y5396141D01*
X3630024Y5405056D01*
X3632415Y5415772D01*
X3633125Y5417056D01*
X3732875D01*
X3733585Y5415772D01*
X3735976Y5405056D01*
X3724359Y5396141D01*
X3713539Y5382041D01*
X3706738Y5365621D01*
X3704418Y5348000D01*
Y5233000D01*
X3706738Y5215379D01*
X3713539Y5198959D01*
X3724359Y5184859D01*
X3738459Y5174039D01*
X3754879Y5167238D01*
X3772500Y5164918D01*
X3847500D01*
X3865121Y5167238D01*
X3881541Y5174039D01*
X3895641Y5184859D01*
X3906461Y5198959D01*
X3913262Y5215379D01*
X3915582Y5233000D01*
Y5348000D01*
X3913262Y5365621D01*
X3906461Y5382041D01*
X3895641Y5396141D01*
X3884024Y5405056D01*
X3886415Y5415772D01*
X3887125Y5417056D01*
X3986875D01*
X3987585Y5415772D01*
X3989976Y5405056D01*
X3978359Y5396141D01*
X3967539Y5382041D01*
X3960738Y5365621D01*
X3958418Y5348000D01*
Y5233000D01*
X3960738Y5215379D01*
X3967539Y5198959D01*
X3978359Y5184859D01*
X3992459Y5174039D01*
X4008879Y5167238D01*
X4026500Y5164918D01*
X4101500D01*
X4119121Y5167238D01*
X4135541Y5174039D01*
X4149641Y5184859D01*
X4160461Y5198959D01*
X4167262Y5215379D01*
X4169582Y5233000D01*
Y5348000D01*
X4167262Y5365621D01*
X4160461Y5382041D01*
X4149641Y5396141D01*
X4138024Y5405056D01*
X4140415Y5415772D01*
X4141125Y5417056D01*
X4240875D01*
X4241585Y5415772D01*
X4243976Y5405056D01*
X4232359Y5396141D01*
X4221539Y5382041D01*
X4214738Y5365621D01*
X4212418Y5348000D01*
Y5233000D01*
X4214738Y5215379D01*
X4221539Y5198959D01*
X4232359Y5184859D01*
X4246459Y5174039D01*
X4262879Y5167238D01*
X4280500Y5164918D01*
X4355500D01*
X4373121Y5167238D01*
X4389541Y5174039D01*
X4403641Y5184859D01*
X4414461Y5198959D01*
X4421262Y5215379D01*
X4423582Y5233000D01*
Y5348000D01*
X4421262Y5365621D01*
X4414461Y5382041D01*
X4403641Y5396141D01*
X4392024Y5405056D01*
X4394415Y5415772D01*
X4395125Y5417056D01*
X4494875D01*
X4495585Y5415772D01*
X4497976Y5405056D01*
X4486359Y5396141D01*
X4475539Y5382041D01*
X4468738Y5365621D01*
X4466418Y5348000D01*
Y5233000D01*
X4468738Y5215379D01*
X4475539Y5198959D01*
X4486359Y5184859D01*
X4500459Y5174039D01*
X4516879Y5167238D01*
X4534500Y5164918D01*
X4609500D01*
X4627121Y5167238D01*
X4643541Y5174039D01*
X4657641Y5184859D01*
X4668461Y5198959D01*
X4675262Y5215379D01*
X4677582Y5233000D01*
Y5348000D01*
X4675262Y5365621D01*
X4668461Y5382041D01*
X4657641Y5396141D01*
X4646024Y5405056D01*
X4648415Y5415772D01*
X4649125Y5417056D01*
X4748875D01*
X4749585Y5415772D01*
X4751976Y5405056D01*
X4740359Y5396141D01*
X4729539Y5382041D01*
X4722738Y5365621D01*
X4720418Y5348000D01*
Y5233000D01*
X4722738Y5215379D01*
X4729539Y5198959D01*
X4740359Y5184859D01*
X4754459Y5174039D01*
X4770879Y5167238D01*
X4788500Y5164918D01*
X4863500D01*
X4881121Y5167238D01*
X4897541Y5174039D01*
X4911641Y5184859D01*
X4922461Y5198959D01*
X4929262Y5215379D01*
X4931582Y5233000D01*
Y5348000D01*
X4929262Y5365621D01*
X4922461Y5382041D01*
X4911641Y5396141D01*
X4900024Y5405056D01*
X4902415Y5415772D01*
X4903125Y5417056D01*
X5002875D01*
X5003585Y5415772D01*
X5005976Y5405056D01*
X4994359Y5396141D01*
X4983539Y5382041D01*
X4976738Y5365621D01*
X4974418Y5348000D01*
Y5233000D01*
X4976738Y5215379D01*
X4983539Y5198959D01*
X4994359Y5184859D01*
X5008459Y5174039D01*
X5024879Y5167238D01*
X5042500Y5164918D01*
X5117500D01*
X5135121Y5167238D01*
X5151541Y5174039D01*
X5165641Y5184859D01*
X5176461Y5198959D01*
X5183262Y5215379D01*
X5185582Y5233000D01*
Y5348000D01*
X5183262Y5365621D01*
X5176461Y5382041D01*
X5165641Y5396141D01*
X5154024Y5405056D01*
X5156415Y5415772D01*
X5157125Y5417056D01*
X5256875D01*
X5257585Y5415772D01*
X5259976Y5405056D01*
X5248359Y5396141D01*
X5237539Y5382041D01*
X5230738Y5365621D01*
X5228418Y5348000D01*
Y5233000D01*
X5230738Y5215379D01*
X5237539Y5198959D01*
X5248359Y5184859D01*
X5262459Y5174039D01*
X5278879Y5167238D01*
X5296500Y5164918D01*
X5371500D01*
X5389121Y5167238D01*
X5405541Y5174039D01*
X5419641Y5184859D01*
X5430461Y5198959D01*
X5437262Y5215379D01*
X5439582Y5233000D01*
Y5348000D01*
X5437262Y5365621D01*
X5430461Y5382041D01*
X5419641Y5396141D01*
X5408024Y5405056D01*
X5410415Y5415772D01*
X5411125Y5417056D01*
X5510875D01*
X5511585Y5415772D01*
X5513976Y5405056D01*
X5502359Y5396141D01*
X5491539Y5382041D01*
X5484738Y5365621D01*
X5482418Y5348000D01*
Y5233000D01*
X5484738Y5215379D01*
X5491539Y5198959D01*
X5502359Y5184859D01*
X5516459Y5174039D01*
X5532879Y5167238D01*
X5550500Y5164918D01*
X5625500D01*
X5643121Y5167238D01*
X5659541Y5174039D01*
X5673641Y5184859D01*
X5684461Y5198959D01*
X5691262Y5215379D01*
X5693582Y5233000D01*
Y5348000D01*
X5691262Y5365621D01*
X5684461Y5382041D01*
X5673641Y5396141D01*
X5662024Y5405056D01*
X5664415Y5415772D01*
X5665125Y5417056D01*
X5764875D01*
X5765585Y5415772D01*
X5767976Y5405056D01*
X5756359Y5396141D01*
X5745539Y5382041D01*
X5738738Y5365621D01*
X5736418Y5348000D01*
Y5233000D01*
X5738738Y5215379D01*
X5745539Y5198959D01*
X5756359Y5184859D01*
X5770459Y5174039D01*
X5786879Y5167238D01*
X5804500Y5164918D01*
X5879500D01*
X5897121Y5167238D01*
X5913541Y5174039D01*
X5927641Y5184859D01*
X5938461Y5198959D01*
X5945262Y5215379D01*
X5947582Y5233000D01*
Y5348000D01*
X5945262Y5365621D01*
X5938461Y5382041D01*
X5927641Y5396141D01*
X5916024Y5405056D01*
X5918415Y5415772D01*
X5919125Y5417056D01*
X6018875D01*
X6019585Y5415772D01*
X6021976Y5405056D01*
X6010359Y5396141D01*
X5999539Y5382041D01*
X5992738Y5365621D01*
X5990418Y5348000D01*
Y5233000D01*
X5992738Y5215379D01*
X5999539Y5198959D01*
X6010359Y5184859D01*
X6024459Y5174039D01*
X6040879Y5167238D01*
X6058500Y5164918D01*
X6133500D01*
X6151121Y5167238D01*
X6167541Y5174039D01*
X6181641Y5184859D01*
X6192461Y5198959D01*
X6199262Y5215379D01*
X6201582Y5233000D01*
Y5348000D01*
X6199262Y5365621D01*
X6192461Y5382041D01*
X6181641Y5396141D01*
X6170024Y5405056D01*
X6172415Y5415772D01*
X6173125Y5417056D01*
X6272875D01*
X6273585Y5415772D01*
X6275976Y5405056D01*
X6264359Y5396141D01*
X6253539Y5382041D01*
X6246738Y5365621D01*
X6244418Y5348000D01*
Y5233000D01*
X6246738Y5215379D01*
X6253539Y5198959D01*
X6264359Y5184859D01*
X6278459Y5174039D01*
X6294879Y5167238D01*
X6312500Y5164918D01*
X6387500D01*
X6405121Y5167238D01*
X6421541Y5174039D01*
X6435641Y5184859D01*
X6446461Y5198959D01*
X6453262Y5215379D01*
X6455582Y5233000D01*
Y5348000D01*
X6453262Y5365621D01*
X6446461Y5382041D01*
X6435641Y5396141D01*
X6424024Y5405056D01*
X6426415Y5415772D01*
X6427125Y5417056D01*
X6526875D01*
X6527585Y5415772D01*
X6529976Y5405056D01*
X6518359Y5396141D01*
X6507539Y5382041D01*
X6500738Y5365621D01*
X6498418Y5348000D01*
Y5233000D01*
X6500738Y5215379D01*
X6507539Y5198959D01*
X6518359Y5184859D01*
X6532459Y5174039D01*
X6548879Y5167238D01*
X6566500Y5164918D01*
X6641500D01*
X6659121Y5167238D01*
X6675541Y5174039D01*
X6689641Y5184859D01*
X6700461Y5198959D01*
X6707262Y5215379D01*
X6709582Y5233000D01*
Y5348000D01*
X6707262Y5365621D01*
X6700461Y5382041D01*
X6689641Y5396141D01*
X6678024Y5405056D01*
X6680415Y5415772D01*
X6681125Y5417056D01*
X6780875D01*
X6781585Y5415772D01*
X6783976Y5405056D01*
X6772359Y5396141D01*
X6761539Y5382041D01*
X6754738Y5365621D01*
X6752418Y5348000D01*
Y5233000D01*
X6754738Y5215379D01*
X6761539Y5198959D01*
X6772359Y5184859D01*
X6786459Y5174039D01*
X6802879Y5167238D01*
X6820500Y5164918D01*
X6895500D01*
X6913121Y5167238D01*
X6929541Y5174039D01*
X6943641Y5184859D01*
X6954461Y5198959D01*
X6961262Y5215379D01*
X6963582Y5233000D01*
Y5348000D01*
X6961262Y5365621D01*
X6954461Y5382041D01*
X6943641Y5396141D01*
X6932024Y5405056D01*
X6934415Y5415772D01*
X6935125Y5417056D01*
X7034875D01*
X7035585Y5415772D01*
X7037976Y5405056D01*
X7026359Y5396141D01*
X7015539Y5382041D01*
X7008738Y5365621D01*
X7006418Y5348000D01*
Y5233000D01*
X7008738Y5215379D01*
X7015539Y5198959D01*
X7026359Y5184859D01*
X7040459Y5174039D01*
X7056879Y5167238D01*
X7074500Y5164918D01*
X7149500D01*
X7167121Y5167238D01*
X7183541Y5174039D01*
X7197641Y5184859D01*
X7208461Y5198959D01*
X7215262Y5215379D01*
X7217582Y5233000D01*
Y5348000D01*
X7215262Y5365621D01*
X7208461Y5382041D01*
X7197641Y5396141D01*
X7186024Y5405056D01*
X7188415Y5415772D01*
X7189125Y5417056D01*
X7288875D01*
X7289585Y5415772D01*
X7291976Y5405056D01*
X7280359Y5396141D01*
X7269539Y5382041D01*
X7262738Y5365621D01*
X7260418Y5348000D01*
Y5233000D01*
X7262738Y5215379D01*
X7269539Y5198959D01*
X7280359Y5184859D01*
X7294459Y5174039D01*
X7310879Y5167238D01*
X7328500Y5164918D01*
X7403500D01*
X7421121Y5167238D01*
X7437541Y5174039D01*
X7451641Y5184859D01*
X7462461Y5198959D01*
X7469262Y5215379D01*
X7471582Y5233000D01*
Y5348000D01*
X7469262Y5365621D01*
X7462461Y5382041D01*
X7451641Y5396141D01*
X7440024Y5405056D01*
X7442415Y5415772D01*
X7443125Y5417056D01*
X7542875D01*
X7543585Y5415772D01*
X7545976Y5405056D01*
X7534359Y5396141D01*
X7523539Y5382041D01*
X7516738Y5365621D01*
X7514418Y5348000D01*
Y5233000D01*
X7516738Y5215379D01*
X7523539Y5198959D01*
X7534359Y5184859D01*
X7548459Y5174039D01*
X7564879Y5167238D01*
X7582500Y5164918D01*
X7657500D01*
X7675121Y5167238D01*
X7691541Y5174039D01*
X7705641Y5184859D01*
X7716461Y5198959D01*
X7723262Y5215379D01*
X7725582Y5233000D01*
Y5348000D01*
X7723262Y5365621D01*
X7716461Y5382041D01*
X7705641Y5396141D01*
X7694024Y5405056D01*
X7696415Y5415772D01*
X7697125Y5417056D01*
X8379531D01*
X8381325Y5417413D01*
X8412706Y5414943D01*
D02*
G37*
%LPC*%
G36*
X2142625Y5280500D02*
X2042000D01*
Y5159875D01*
X2069500D01*
X2088426Y5162366D01*
X2106063Y5169672D01*
X2121207Y5181293D01*
X2132828Y5196437D01*
X2140134Y5214074D01*
X2142625Y5233000D01*
Y5280500D01*
D02*
G37*
G36*
X2022000D02*
X1921375D01*
Y5233000D01*
X1923866Y5214074D01*
X1931172Y5196437D01*
X1942793Y5181293D01*
X1957937Y5169672D01*
X1975574Y5162366D01*
X1994500Y5159875D01*
X2022000D01*
Y5280500D01*
D02*
G37*
G36*
X1586500Y5359268D02*
X1470500D01*
Y5153500D01*
X1676268D01*
Y5269500D01*
X1673209Y5292734D01*
X1664241Y5314384D01*
X1649976Y5332976D01*
X1631384Y5347241D01*
X1609734Y5356209D01*
X1586500Y5359268D01*
D02*
G37*
G36*
X1450500D02*
X1334500D01*
X1311266Y5356209D01*
X1289616Y5347241D01*
X1271024Y5332976D01*
X1256759Y5314384D01*
X1247791Y5292734D01*
X1244732Y5269500D01*
Y5153500D01*
X1450500D01*
Y5359268D01*
D02*
G37*
G36*
X8154250Y5118136D02*
X8123000D01*
Y5015000D01*
X8228636D01*
Y5043750D01*
X8226101Y5063002D01*
X8218670Y5080943D01*
X8206849Y5096349D01*
X8191443Y5108170D01*
X8173502Y5115601D01*
X8154250Y5118136D01*
D02*
G37*
G36*
X8103000D02*
X8071750D01*
X8052497Y5115601D01*
X8034557Y5108170D01*
X8019151Y5096349D01*
X8007330Y5080943D01*
X7999898Y5063002D01*
X7997364Y5043750D01*
Y5015000D01*
X8103000D01*
Y5118136D01*
D02*
G37*
G36*
X2069500Y5127125D02*
X2042000D01*
Y5006500D01*
X2142625D01*
Y5054000D01*
X2140134Y5072926D01*
X2132828Y5090563D01*
X2121207Y5105707D01*
X2106063Y5117328D01*
X2088426Y5124634D01*
X2069500Y5127125D01*
D02*
G37*
G36*
X2022000D02*
X1994500D01*
X1975574Y5124634D01*
X1957937Y5117328D01*
X1942793Y5105707D01*
X1931172Y5090563D01*
X1923866Y5072926D01*
X1921375Y5054000D01*
Y5006500D01*
X2022000D01*
Y5127125D01*
D02*
G37*
G36*
X5879500Y5122082D02*
X5804500D01*
X5786879Y5119762D01*
X5770459Y5112961D01*
X5756359Y5102141D01*
X5745539Y5088041D01*
X5738738Y5071621D01*
X5736418Y5054000D01*
Y4945122D01*
X5725366Y4936711D01*
X5723137Y4937634D01*
X5705426D01*
X5704042Y4937794D01*
X5693582Y4946208D01*
Y5054000D01*
X5691262Y5071621D01*
X5684461Y5088041D01*
X5673641Y5102141D01*
X5659541Y5112961D01*
X5643121Y5119762D01*
X5625500Y5122082D01*
X5550500D01*
X5532879Y5119762D01*
X5516459Y5112961D01*
X5502359Y5102141D01*
X5491539Y5088041D01*
X5484738Y5071621D01*
X5482418Y5054000D01*
Y4939000D01*
X5484738Y4921379D01*
X5491539Y4904959D01*
X5502359Y4890859D01*
X5516459Y4880039D01*
X5532879Y4873238D01*
X5550500Y4870918D01*
X5625500D01*
X5643121Y4873238D01*
X5655102Y4878201D01*
X5667015Y4874472D01*
X5669543Y4872588D01*
X5673420Y4863228D01*
X5686782Y4849866D01*
X5704241Y4842635D01*
X5723137D01*
X5740595Y4849866D01*
X5753957Y4863228D01*
X5758467Y4874115D01*
X5765993Y4877833D01*
X5772056Y4879236D01*
X5772560Y4879169D01*
X5786879Y4873238D01*
X5804500Y4870918D01*
X5879500D01*
X5897121Y4873238D01*
X5913541Y4880039D01*
X5927641Y4890859D01*
X5938461Y4904959D01*
X5945262Y4921379D01*
X5947582Y4939000D01*
Y5054000D01*
X5945262Y5071621D01*
X5938461Y5088041D01*
X5927641Y5102141D01*
X5913541Y5112961D01*
X5897121Y5119762D01*
X5879500Y5122082D01*
D02*
G37*
G36*
X1676268Y5133500D02*
X1470500D01*
Y4927732D01*
X1586500D01*
X1609734Y4930791D01*
X1631384Y4939759D01*
X1649976Y4954024D01*
X1664241Y4972616D01*
X1673209Y4994266D01*
X1676268Y5017500D01*
Y5133500D01*
D02*
G37*
G36*
X1450500D02*
X1244732D01*
Y5017500D01*
X1247791Y4994266D01*
X1256759Y4972616D01*
X1271024Y4954024D01*
X1289616Y4939759D01*
X1311266Y4930791D01*
X1334500Y4927732D01*
X1450500D01*
Y5133500D01*
D02*
G37*
G36*
X8228636Y4995000D02*
X8123000D01*
Y4891864D01*
X8154250D01*
X8173502Y4894398D01*
X8191443Y4901830D01*
X8206849Y4913651D01*
X8218670Y4929057D01*
X8226101Y4946997D01*
X8228636Y4966250D01*
Y4995000D01*
D02*
G37*
G36*
X8103000D02*
X7997364D01*
Y4966250D01*
X7999898Y4946997D01*
X8007330Y4929057D01*
X8019151Y4913651D01*
X8034557Y4901830D01*
X8052497Y4894398D01*
X8071750Y4891864D01*
X8103000D01*
Y4995000D01*
D02*
G37*
G36*
X4863500Y5122082D02*
X4788500D01*
X4770879Y5119762D01*
X4754459Y5112961D01*
X4740359Y5102141D01*
X4729539Y5088041D01*
X4722738Y5071621D01*
X4720418Y5054000D01*
Y4939000D01*
X4722738Y4921379D01*
X4729539Y4904959D01*
X4740359Y4890859D01*
X4748009Y4884988D01*
X4741957Y4874507D01*
X4740655Y4875046D01*
X4721759D01*
X4704301Y4867814D01*
X4690939Y4854452D01*
X4683707Y4836994D01*
Y4818098D01*
X4690939Y4800639D01*
X4704301Y4787277D01*
X4721759Y4780046D01*
X4740655D01*
X4758114Y4787277D01*
X4771476Y4800639D01*
X4778707Y4818098D01*
Y4836994D01*
X4771476Y4854452D01*
X4762002Y4863926D01*
X4768799Y4874099D01*
X4770879Y4873238D01*
X4788500Y4870918D01*
X4863500D01*
X4881121Y4873238D01*
X4897541Y4880039D01*
X4911641Y4890859D01*
X4922461Y4904959D01*
X4929262Y4921379D01*
X4931582Y4939000D01*
Y5054000D01*
X4929262Y5071621D01*
X4922461Y5088041D01*
X4911641Y5102141D01*
X4897541Y5112961D01*
X4881121Y5119762D01*
X4863500Y5122082D01*
D02*
G37*
G36*
X7657500D02*
X7582500D01*
X7564879Y5119762D01*
X7548459Y5112961D01*
X7534359Y5102141D01*
X7523539Y5088041D01*
X7516738Y5071621D01*
X7514418Y5054000D01*
Y4939000D01*
X7516738Y4921379D01*
X7523539Y4904959D01*
X7534359Y4890859D01*
X7548459Y4880039D01*
X7564879Y4873238D01*
X7582500Y4870918D01*
X7657500D01*
X7675121Y4873238D01*
X7691541Y4880039D01*
X7705641Y4890859D01*
X7716461Y4904959D01*
X7723262Y4921379D01*
X7725582Y4939000D01*
Y5054000D01*
X7723262Y5071621D01*
X7716461Y5088041D01*
X7705641Y5102141D01*
X7691541Y5112961D01*
X7675121Y5119762D01*
X7657500Y5122082D01*
D02*
G37*
G36*
X7403500D02*
X7328500D01*
X7310879Y5119762D01*
X7294459Y5112961D01*
X7280359Y5102141D01*
X7269539Y5088041D01*
X7262738Y5071621D01*
X7260418Y5054000D01*
Y4939000D01*
X7262738Y4921379D01*
X7269539Y4904959D01*
X7280359Y4890859D01*
X7294459Y4880039D01*
X7310879Y4873238D01*
X7328500Y4870918D01*
X7403500D01*
X7421121Y4873238D01*
X7437541Y4880039D01*
X7451641Y4890859D01*
X7462461Y4904959D01*
X7469262Y4921379D01*
X7471582Y4939000D01*
Y5054000D01*
X7469262Y5071621D01*
X7462461Y5088041D01*
X7451641Y5102141D01*
X7437541Y5112961D01*
X7421121Y5119762D01*
X7403500Y5122082D01*
D02*
G37*
G36*
X7149500D02*
X7074500D01*
X7056879Y5119762D01*
X7040459Y5112961D01*
X7026359Y5102141D01*
X7015539Y5088041D01*
X7008738Y5071621D01*
X7006418Y5054000D01*
Y4939000D01*
X7008738Y4921379D01*
X7015539Y4904959D01*
X7026359Y4890859D01*
X7040459Y4880039D01*
X7056879Y4873238D01*
X7074500Y4870918D01*
X7149500D01*
X7167121Y4873238D01*
X7183541Y4880039D01*
X7197641Y4890859D01*
X7208461Y4904959D01*
X7215262Y4921379D01*
X7217582Y4939000D01*
Y5054000D01*
X7215262Y5071621D01*
X7208461Y5088041D01*
X7197641Y5102141D01*
X7183541Y5112961D01*
X7167121Y5119762D01*
X7149500Y5122082D01*
D02*
G37*
G36*
X6895500D02*
X6820500D01*
X6802879Y5119762D01*
X6786459Y5112961D01*
X6772359Y5102141D01*
X6761539Y5088041D01*
X6754738Y5071621D01*
X6752418Y5054000D01*
Y4939000D01*
X6754738Y4921379D01*
X6761539Y4904959D01*
X6772359Y4890859D01*
X6786459Y4880039D01*
X6802879Y4873238D01*
X6820500Y4870918D01*
X6895500D01*
X6913121Y4873238D01*
X6929541Y4880039D01*
X6943641Y4890859D01*
X6954461Y4904959D01*
X6961262Y4921379D01*
X6963582Y4939000D01*
Y5054000D01*
X6961262Y5071621D01*
X6954461Y5088041D01*
X6943641Y5102141D01*
X6929541Y5112961D01*
X6913121Y5119762D01*
X6895500Y5122082D01*
D02*
G37*
G36*
X6387500D02*
X6312500D01*
X6294879Y5119762D01*
X6278459Y5112961D01*
X6264359Y5102141D01*
X6253539Y5088041D01*
X6246738Y5071621D01*
X6244418Y5054000D01*
Y4939000D01*
X6246738Y4921379D01*
X6253539Y4904959D01*
X6264359Y4890859D01*
X6278459Y4880039D01*
X6294879Y4873238D01*
X6312500Y4870918D01*
X6387500D01*
X6405121Y4873238D01*
X6421541Y4880039D01*
X6435641Y4890859D01*
X6446461Y4904959D01*
X6453262Y4921379D01*
X6455582Y4939000D01*
Y5054000D01*
X6453262Y5071621D01*
X6446461Y5088041D01*
X6435641Y5102141D01*
X6421541Y5112961D01*
X6405121Y5119762D01*
X6387500Y5122082D01*
D02*
G37*
G36*
X6133500D02*
X6058500D01*
X6040879Y5119762D01*
X6024459Y5112961D01*
X6010359Y5102141D01*
X5999539Y5088041D01*
X5992738Y5071621D01*
X5990418Y5054000D01*
Y4939000D01*
X5992738Y4921379D01*
X5999539Y4904959D01*
X6010359Y4890859D01*
X6024459Y4880039D01*
X6040879Y4873238D01*
X6058500Y4870918D01*
X6133500D01*
X6151121Y4873238D01*
X6167541Y4880039D01*
X6181641Y4890859D01*
X6192461Y4904959D01*
X6199262Y4921379D01*
X6201582Y4939000D01*
Y5054000D01*
X6199262Y5071621D01*
X6192461Y5088041D01*
X6181641Y5102141D01*
X6167541Y5112961D01*
X6151121Y5119762D01*
X6133500Y5122082D01*
D02*
G37*
G36*
X5371500D02*
X5296500D01*
X5278879Y5119762D01*
X5262459Y5112961D01*
X5248359Y5102141D01*
X5237539Y5088041D01*
X5230738Y5071621D01*
X5228418Y5054000D01*
Y4939000D01*
X5230738Y4921379D01*
X5235658Y4909500D01*
X5231494Y4899714D01*
X5230699Y4898585D01*
X5228719Y4896741D01*
X5213093Y4890268D01*
X5199732Y4876906D01*
X5192500Y4859448D01*
Y4840552D01*
X5199732Y4823093D01*
X5213093Y4809732D01*
X5230552Y4802500D01*
X5249448D01*
X5266906Y4809732D01*
X5280268Y4823093D01*
X5287500Y4840552D01*
Y4859448D01*
X5286548Y4861746D01*
X5293853Y4871266D01*
X5296500Y4870918D01*
X5371500D01*
X5389121Y4873238D01*
X5405541Y4880039D01*
X5419641Y4890859D01*
X5430461Y4904959D01*
X5437262Y4921379D01*
X5439582Y4939000D01*
Y5054000D01*
X5437262Y5071621D01*
X5430461Y5088041D01*
X5419641Y5102141D01*
X5405541Y5112961D01*
X5389121Y5119762D01*
X5371500Y5122082D01*
D02*
G37*
G36*
X4609500D02*
X4534500D01*
X4516879Y5119762D01*
X4500459Y5112961D01*
X4486359Y5102141D01*
X4475539Y5088041D01*
X4468738Y5071621D01*
X4466418Y5054000D01*
Y4939000D01*
X4468738Y4921379D01*
X4475539Y4904959D01*
X4486359Y4890859D01*
X4500459Y4880039D01*
X4516879Y4873238D01*
X4534500Y4870918D01*
X4609500D01*
X4627121Y4873238D01*
X4643541Y4880039D01*
X4657641Y4890859D01*
X4668461Y4904959D01*
X4675262Y4921379D01*
X4677582Y4939000D01*
Y5054000D01*
X4675262Y5071621D01*
X4668461Y5088041D01*
X4657641Y5102141D01*
X4643541Y5112961D01*
X4627121Y5119762D01*
X4609500Y5122082D01*
D02*
G37*
G36*
X4101500D02*
X4026500D01*
X4008879Y5119762D01*
X3992459Y5112961D01*
X3978359Y5102141D01*
X3967539Y5088041D01*
X3960738Y5071621D01*
X3958418Y5054000D01*
Y4939000D01*
X3960738Y4921379D01*
X3967539Y4904959D01*
X3978359Y4890859D01*
X3992459Y4880039D01*
X4008879Y4873238D01*
X4026500Y4870918D01*
X4101500D01*
X4119121Y4873238D01*
X4135541Y4880039D01*
X4149641Y4890859D01*
X4160461Y4904959D01*
X4167262Y4921379D01*
X4169582Y4939000D01*
Y5054000D01*
X4167262Y5071621D01*
X4160461Y5088041D01*
X4149641Y5102141D01*
X4135541Y5112961D01*
X4119121Y5119762D01*
X4101500Y5122082D01*
D02*
G37*
G36*
X3847500D02*
X3772500D01*
X3754879Y5119762D01*
X3738459Y5112961D01*
X3724359Y5102141D01*
X3713539Y5088041D01*
X3706738Y5071621D01*
X3704418Y5054000D01*
Y4939000D01*
X3706738Y4921379D01*
X3713539Y4904959D01*
X3724359Y4890859D01*
X3738459Y4880039D01*
X3754879Y4873238D01*
X3772500Y4870918D01*
X3847500D01*
X3865121Y4873238D01*
X3881541Y4880039D01*
X3895641Y4890859D01*
X3906461Y4904959D01*
X3913262Y4921379D01*
X3915582Y4939000D01*
Y5054000D01*
X3913262Y5071621D01*
X3906461Y5088041D01*
X3895641Y5102141D01*
X3881541Y5112961D01*
X3865121Y5119762D01*
X3847500Y5122082D01*
D02*
G37*
G36*
X3593500D02*
X3518500D01*
X3500879Y5119762D01*
X3484459Y5112961D01*
X3470359Y5102141D01*
X3459539Y5088041D01*
X3452738Y5071621D01*
X3450418Y5054000D01*
Y4939000D01*
X3452738Y4921379D01*
X3459539Y4904959D01*
X3470359Y4890859D01*
X3484459Y4880039D01*
X3500879Y4873238D01*
X3518500Y4870918D01*
X3593500D01*
X3611121Y4873238D01*
X3627541Y4880039D01*
X3641641Y4890859D01*
X3652461Y4904959D01*
X3659262Y4921379D01*
X3661582Y4939000D01*
Y5054000D01*
X3659262Y5071621D01*
X3652461Y5088041D01*
X3641641Y5102141D01*
X3627541Y5112961D01*
X3611121Y5119762D01*
X3593500Y5122082D01*
D02*
G37*
G36*
X3339500D02*
X3264500D01*
X3246879Y5119762D01*
X3230459Y5112961D01*
X3216359Y5102141D01*
X3205539Y5088041D01*
X3198738Y5071621D01*
X3196418Y5054000D01*
Y4939000D01*
X3198738Y4921379D01*
X3205539Y4904959D01*
X3216359Y4890859D01*
X3230459Y4880039D01*
X3246879Y4873238D01*
X3264500Y4870918D01*
X3339500D01*
X3357121Y4873238D01*
X3373541Y4880039D01*
X3387641Y4890859D01*
X3398461Y4904959D01*
X3405262Y4921379D01*
X3407582Y4939000D01*
Y5054000D01*
X3405262Y5071621D01*
X3398461Y5088041D01*
X3387641Y5102141D01*
X3373541Y5112961D01*
X3357121Y5119762D01*
X3339500Y5122082D01*
D02*
G37*
G36*
X3085500D02*
X3010500D01*
X2992879Y5119762D01*
X2976459Y5112961D01*
X2962359Y5102141D01*
X2951539Y5088041D01*
X2944738Y5071621D01*
X2942418Y5054000D01*
Y4939000D01*
X2944738Y4921379D01*
X2951539Y4904959D01*
X2962359Y4890859D01*
X2976459Y4880039D01*
X2992879Y4873238D01*
X3010500Y4870918D01*
X3085500D01*
X3103121Y4873238D01*
X3119541Y4880039D01*
X3133641Y4890859D01*
X3144461Y4904959D01*
X3151262Y4921379D01*
X3153582Y4939000D01*
Y5054000D01*
X3151262Y5071621D01*
X3144461Y5088041D01*
X3133641Y5102141D01*
X3119541Y5112961D01*
X3103121Y5119762D01*
X3085500Y5122082D01*
D02*
G37*
G36*
X2577500D02*
X2502500D01*
X2484879Y5119762D01*
X2468459Y5112961D01*
X2454359Y5102141D01*
X2443539Y5088041D01*
X2436738Y5071621D01*
X2434418Y5054000D01*
Y4939000D01*
X2436738Y4921379D01*
X2443539Y4904959D01*
X2454359Y4890859D01*
X2468459Y4880039D01*
X2484879Y4873238D01*
X2502500Y4870918D01*
X2577500D01*
X2595121Y4873238D01*
X2611541Y4880039D01*
X2625641Y4890859D01*
X2636461Y4904959D01*
X2643262Y4921379D01*
X2645582Y4939000D01*
Y5054000D01*
X2643262Y5071621D01*
X2636461Y5088041D01*
X2625641Y5102141D01*
X2611541Y5112961D01*
X2595121Y5119762D01*
X2577500Y5122082D01*
D02*
G37*
G36*
X2323500D02*
X2248500D01*
X2230879Y5119762D01*
X2214459Y5112961D01*
X2200359Y5102141D01*
X2189539Y5088041D01*
X2182738Y5071621D01*
X2180418Y5054000D01*
Y4939000D01*
X2182738Y4921379D01*
X2189539Y4904959D01*
X2200359Y4890859D01*
X2214459Y4880039D01*
X2230879Y4873238D01*
X2248500Y4870918D01*
X2323500D01*
X2341121Y4873238D01*
X2357541Y4880039D01*
X2371641Y4890859D01*
X2382461Y4904959D01*
X2389262Y4921379D01*
X2391582Y4939000D01*
Y5054000D01*
X2389262Y5071621D01*
X2382461Y5088041D01*
X2371641Y5102141D01*
X2357541Y5112961D01*
X2341121Y5119762D01*
X2323500Y5122082D01*
D02*
G37*
G36*
X2142625Y4986500D02*
X2042000D01*
Y4865875D01*
X2069500D01*
X2088426Y4868366D01*
X2106063Y4875672D01*
X2121207Y4887293D01*
X2132828Y4902437D01*
X2140134Y4920074D01*
X2142625Y4939000D01*
Y4986500D01*
D02*
G37*
G36*
X2022000D02*
X1921375D01*
Y4939000D01*
X1923866Y4920074D01*
X1931172Y4902437D01*
X1942793Y4887293D01*
X1957937Y4875672D01*
X1975574Y4868366D01*
X1994500Y4865875D01*
X2022000D01*
Y4986500D01*
D02*
G37*
G36*
X4355500Y5122082D02*
X4280500D01*
X4262879Y5119762D01*
X4246459Y5112961D01*
X4232359Y5102141D01*
X4221539Y5088041D01*
X4214738Y5071621D01*
X4212418Y5054000D01*
Y4939000D01*
X4214738Y4921379D01*
X4221539Y4904959D01*
X4232359Y4890859D01*
X4246459Y4880039D01*
X4262879Y4873238D01*
X4280500Y4870918D01*
X4336451D01*
X4343118Y4860940D01*
X4342500Y4859448D01*
Y4840552D01*
X4349732Y4823093D01*
X4363094Y4809732D01*
X4380552Y4802500D01*
X4399448D01*
X4416907Y4809732D01*
X4430269Y4823093D01*
X4437500Y4840552D01*
Y4859448D01*
X4430269Y4876906D01*
X4416907Y4890268D01*
X4415603Y4890808D01*
X4412497Y4902400D01*
X4414461Y4904959D01*
X4421262Y4921379D01*
X4423582Y4939000D01*
Y5054000D01*
X4421262Y5071621D01*
X4414461Y5088041D01*
X4403641Y5102141D01*
X4389541Y5112961D01*
X4373121Y5119762D01*
X4355500Y5122082D01*
D02*
G37*
G36*
X6641500D02*
X6566500D01*
X6548879Y5119762D01*
X6532459Y5112961D01*
X6518359Y5102141D01*
X6507539Y5088041D01*
X6500738Y5071621D01*
X6498418Y5054000D01*
Y4939000D01*
X6500738Y4921379D01*
X6507539Y4904959D01*
X6518359Y4890859D01*
X6532459Y4880039D01*
X6548879Y4873238D01*
X6566500Y4870918D01*
X6628405D01*
X6636423Y4858918D01*
X6632500Y4849448D01*
Y4830552D01*
X6639732Y4813093D01*
X6653094Y4799732D01*
X6670552Y4792500D01*
X6689448D01*
X6706907Y4799732D01*
X6720269Y4813093D01*
X6727500Y4830552D01*
Y4849448D01*
X6720269Y4866906D01*
X6706907Y4880268D01*
X6699084Y4883509D01*
X6695202Y4898105D01*
X6700461Y4904959D01*
X6707262Y4921379D01*
X6709582Y4939000D01*
Y5054000D01*
X6707262Y5071621D01*
X6700461Y5088041D01*
X6689641Y5102141D01*
X6675541Y5112961D01*
X6659121Y5119762D01*
X6641500Y5122082D01*
D02*
G37*
G36*
X2831500D02*
X2756500D01*
X2738879Y5119762D01*
X2722459Y5112961D01*
X2708359Y5102141D01*
X2697539Y5088041D01*
X2690738Y5071621D01*
X2688418Y5054000D01*
Y4939000D01*
X2690738Y4921379D01*
X2697539Y4904959D01*
X2708359Y4890859D01*
X2713054Y4887255D01*
X2712597Y4881642D01*
X2710066Y4874423D01*
X2694619Y4868024D01*
X2681257Y4854662D01*
X2674026Y4837204D01*
Y4818307D01*
X2681257Y4800849D01*
X2694619Y4787487D01*
X2712077Y4780256D01*
X2730974D01*
X2748432Y4787487D01*
X2761794Y4800849D01*
X2765846Y4810631D01*
X2778835D01*
X2781647Y4803843D01*
X2795009Y4790481D01*
X2812467Y4783250D01*
X2831363D01*
X2848822Y4790481D01*
X2862184Y4803843D01*
X2869415Y4821301D01*
Y4840198D01*
X2862184Y4857656D01*
X2856524Y4863315D01*
X2859339Y4877471D01*
X2865541Y4880039D01*
X2879641Y4890859D01*
X2890461Y4904959D01*
X2897262Y4921379D01*
X2899582Y4939000D01*
Y5054000D01*
X2897262Y5071621D01*
X2890461Y5088041D01*
X2879641Y5102141D01*
X2865541Y5112961D01*
X2849121Y5119762D01*
X2831500Y5122082D01*
D02*
G37*
G36*
X5117500D02*
X5042500D01*
X5024879Y5119762D01*
X5008459Y5112961D01*
X4994359Y5102141D01*
X4983539Y5088041D01*
X4976738Y5071621D01*
X4974418Y5054000D01*
Y4939000D01*
X4976738Y4921379D01*
X4983539Y4904959D01*
X4994359Y4890859D01*
X5008459Y4880039D01*
X5024879Y4873238D01*
X5042500Y4870918D01*
X5051509D01*
X5056480Y4858918D01*
X5051243Y4853681D01*
X5044012Y4836222D01*
Y4817326D01*
X5051243Y4799868D01*
X5064605Y4786506D01*
X5082063Y4779274D01*
X5100960D01*
X5118418Y4786506D01*
X5131780Y4799868D01*
X5139011Y4817326D01*
Y4836222D01*
X5131780Y4853681D01*
X5125582Y4859878D01*
X5129883Y4872548D01*
X5135121Y4873238D01*
X5151541Y4880039D01*
X5165641Y4890859D01*
X5176461Y4904959D01*
X5183262Y4921379D01*
X5185582Y4939000D01*
Y5054000D01*
X5183262Y5071621D01*
X5176461Y5088041D01*
X5165641Y5102141D01*
X5151541Y5112961D01*
X5135121Y5119762D01*
X5117500Y5122082D01*
D02*
G37*
G36*
X7220238Y4769110D02*
X7201342D01*
X7183884Y4761879D01*
X7170522Y4748517D01*
X7163290Y4731059D01*
Y4712162D01*
X7170522Y4694704D01*
X7183884Y4681342D01*
X7201342Y4674111D01*
X7220238D01*
X7237696Y4681342D01*
X7251058Y4694704D01*
X7258290Y4712162D01*
Y4731059D01*
X7251058Y4748517D01*
X7237696Y4761879D01*
X7220238Y4769110D01*
D02*
G37*
G36*
X7419448Y4747500D02*
X7400552D01*
X7383093Y4740268D01*
X7369732Y4726906D01*
X7362500Y4709448D01*
Y4690552D01*
X7369732Y4673094D01*
X7383093Y4659732D01*
X7400552Y4652500D01*
X7419448D01*
X7436906Y4659732D01*
X7450268Y4673094D01*
X7457500Y4690552D01*
Y4709448D01*
X7450268Y4726906D01*
X7436906Y4740268D01*
X7419448Y4747500D01*
D02*
G37*
G36*
X6539448Y4717500D02*
X6520552D01*
X6503093Y4710268D01*
X6489731Y4696907D01*
X6482500Y4679448D01*
Y4660552D01*
X6489731Y4643094D01*
X6503093Y4629732D01*
X6520552Y4622500D01*
X6539448D01*
X6556906Y4629732D01*
X6570268Y4643094D01*
X6577500Y4660552D01*
Y4679448D01*
X6570268Y4696907D01*
X6556906Y4710268D01*
X6539448Y4717500D01*
D02*
G37*
G36*
X8189448Y4757500D02*
X8170552D01*
X8153093Y4750268D01*
X8139731Y4736906D01*
X8132500Y4719448D01*
Y4700552D01*
X8139731Y4683094D01*
X8148024Y4674800D01*
X8142417Y4669193D01*
X8135186Y4651735D01*
Y4632838D01*
X8142417Y4615380D01*
X8155779Y4602018D01*
X8173237Y4594787D01*
X8192134D01*
X8209592Y4602018D01*
X8222954Y4615380D01*
X8230185Y4632838D01*
Y4651735D01*
X8222954Y4669193D01*
X8214661Y4677486D01*
X8220268Y4683094D01*
X8227500Y4700552D01*
Y4719448D01*
X8220268Y4736906D01*
X8206906Y4750268D01*
X8189448Y4757500D01*
D02*
G37*
G36*
X5219388Y4602518D02*
X5200491D01*
X5183033Y4595287D01*
X5173023Y4585277D01*
X5168314Y4589986D01*
X5150856Y4597217D01*
X5131959D01*
X5114501Y4589986D01*
X5101139Y4576624D01*
X5093908Y4559166D01*
Y4540269D01*
X5101139Y4522811D01*
X5114501Y4509449D01*
X5131959Y4502218D01*
X5150856D01*
X5168314Y4509449D01*
X5178324Y4519459D01*
X5183033Y4514750D01*
X5200491Y4507519D01*
X5219388D01*
X5236846Y4514750D01*
X5250208Y4528112D01*
X5257439Y4545570D01*
Y4564467D01*
X5250208Y4581925D01*
X5236846Y4595287D01*
X5219388Y4602518D01*
D02*
G37*
G36*
X5509311Y4679756D02*
X5490414D01*
X5472956Y4672524D01*
X5459594Y4659162D01*
X5452363Y4641704D01*
Y4622808D01*
X5459594Y4605349D01*
X5472956Y4591988D01*
X5490414Y4584756D01*
X5509311D01*
X5522575Y4590250D01*
X5523094Y4589731D01*
X5540552Y4582500D01*
X5559448D01*
X5576907Y4589731D01*
X5590268Y4603093D01*
X5597500Y4620552D01*
Y4639448D01*
X5590268Y4656906D01*
X5576907Y4670268D01*
X5559448Y4677500D01*
X5540552D01*
X5527288Y4672006D01*
X5526769Y4672524D01*
X5509311Y4679756D01*
D02*
G37*
G36*
X8344789Y4727795D02*
X8325892D01*
X8308434Y4720563D01*
X8295072Y4707201D01*
X8287841Y4689743D01*
Y4670847D01*
X8295072Y4653388D01*
X8297170Y4651291D01*
X8291621Y4637893D01*
Y4618997D01*
X8298852Y4601539D01*
X8312214Y4588177D01*
X8329672Y4580945D01*
X8348569D01*
X8366027Y4588177D01*
X8379389Y4601539D01*
X8386620Y4618997D01*
Y4637893D01*
X8379389Y4655352D01*
X8377291Y4657449D01*
X8382840Y4670847D01*
Y4689743D01*
X8375609Y4707201D01*
X8362247Y4720563D01*
X8344789Y4727795D01*
D02*
G37*
G36*
X5918439Y4674032D02*
X5899543D01*
X5882085Y4666801D01*
X5868723Y4653439D01*
X5861491Y4635981D01*
Y4617084D01*
X5868723Y4599626D01*
X5882085Y4586264D01*
X5899543Y4579032D01*
X5918439D01*
X5935897Y4586264D01*
X5938708Y4589074D01*
X5942147Y4585635D01*
X5959606Y4578404D01*
X5978502D01*
X5995960Y4585635D01*
X6009322Y4598997D01*
X6016554Y4616455D01*
Y4635352D01*
X6009322Y4652810D01*
X5995960Y4666172D01*
X5978502Y4673403D01*
X5959606D01*
X5942147Y4666172D01*
X5939337Y4663361D01*
X5935897Y4666801D01*
X5918439Y4674032D01*
D02*
G37*
G36*
X2947812Y4657319D02*
X2928916D01*
X2911457Y4650087D01*
X2898096Y4636726D01*
X2890864Y4619267D01*
Y4600371D01*
X2898096Y4582913D01*
X2911457Y4569551D01*
X2928916Y4562319D01*
X2947812D01*
X2965270Y4569551D01*
X2978632Y4582913D01*
X2985864Y4600371D01*
Y4619267D01*
X2978632Y4636726D01*
X2965270Y4650087D01*
X2947812Y4657319D01*
D02*
G37*
G36*
X6858579Y4674715D02*
X6839683D01*
X6822224Y4667484D01*
X6808862Y4654122D01*
X6801631Y4636664D01*
Y4617767D01*
X6808862Y4600309D01*
X6822224Y4586947D01*
X6839683Y4579716D01*
X6858579D01*
X6869398Y4584197D01*
X6872748Y4576110D01*
X6886110Y4562748D01*
X6903568Y4555516D01*
X6922464D01*
X6939923Y4562748D01*
X6953285Y4576110D01*
X6960516Y4593568D01*
Y4612464D01*
X6953285Y4629923D01*
X6939923Y4643285D01*
X6922464Y4650516D01*
X6903568D01*
X6892749Y4646035D01*
X6889399Y4654122D01*
X6876037Y4667484D01*
X6858579Y4674715D01*
D02*
G37*
G36*
X6169448Y4637500D02*
X6150552D01*
X6133094Y4630268D01*
X6119732Y4616906D01*
X6112500Y4599448D01*
Y4580552D01*
X6119732Y4563093D01*
X6133094Y4549732D01*
X6150552Y4542500D01*
X6169448D01*
X6186907Y4549732D01*
X6200269Y4563093D01*
X6207500Y4580552D01*
Y4599448D01*
X6200269Y4616906D01*
X6186907Y4630268D01*
X6169448Y4637500D01*
D02*
G37*
G36*
X3149554Y4679964D02*
X3130657D01*
X3113199Y4672733D01*
X3099837Y4659371D01*
X3092606Y4641912D01*
Y4636243D01*
X3075979Y4629355D01*
X3062617Y4615994D01*
X3055386Y4598535D01*
Y4579639D01*
X3062617Y4562181D01*
X3075979Y4548819D01*
X3093437Y4541587D01*
X3112334D01*
X3129792Y4548819D01*
X3143154Y4562181D01*
X3150385Y4579639D01*
Y4585309D01*
X3167012Y4592196D01*
X3180374Y4605558D01*
X3187606Y4623016D01*
Y4641912D01*
X3180374Y4659371D01*
X3167012Y4672733D01*
X3149554Y4679964D01*
D02*
G37*
G36*
X4129448Y4617500D02*
X4110552D01*
X4093093Y4610268D01*
X4079731Y4596906D01*
X4072500Y4579448D01*
Y4560552D01*
X4079731Y4543094D01*
X4093093Y4529732D01*
X4110552Y4522500D01*
X4129448D01*
X4146906Y4529732D01*
X4160268Y4543094D01*
X4167500Y4560552D01*
Y4579448D01*
X4160268Y4596906D01*
X4146906Y4610268D01*
X4129448Y4617500D01*
D02*
G37*
G36*
X3629448Y4597500D02*
X3610552D01*
X3593094Y4590268D01*
X3579732Y4576907D01*
X3572500Y4559448D01*
Y4540552D01*
X3579732Y4523094D01*
X3593094Y4509732D01*
X3610552Y4502500D01*
X3629448D01*
X3646907Y4509732D01*
X3660269Y4523094D01*
X3667500Y4540552D01*
Y4559448D01*
X3660269Y4576907D01*
X3646907Y4590268D01*
X3629448Y4597500D01*
D02*
G37*
G36*
X4019448Y4577500D02*
X4000552D01*
X3983094Y4570268D01*
X3969732Y4556907D01*
X3962500Y4539448D01*
Y4520552D01*
X3969732Y4503094D01*
X3983094Y4489732D01*
X4000552Y4482500D01*
X4019448D01*
X4036907Y4489732D01*
X4050269Y4503094D01*
X4057500Y4520552D01*
Y4539448D01*
X4050269Y4556907D01*
X4036907Y4570268D01*
X4019448Y4577500D01*
D02*
G37*
G36*
X5759448Y4557500D02*
X5740552D01*
X5723093Y4550269D01*
X5709732Y4536907D01*
X5702500Y4519448D01*
Y4500552D01*
X5709732Y4483094D01*
X5723093Y4469732D01*
X5740552Y4462500D01*
X5759448D01*
X5776906Y4469732D01*
X5790268Y4483094D01*
X5797500Y4500552D01*
Y4519448D01*
X5790268Y4536907D01*
X5776906Y4550269D01*
X5759448Y4557500D01*
D02*
G37*
G36*
X6360449Y4671582D02*
X6341552D01*
X6324094Y4664351D01*
X6310732Y4650989D01*
X6303500Y4633531D01*
Y4614634D01*
X6310732Y4597176D01*
X6324094Y4583814D01*
X6341552Y4576583D01*
X6360449D01*
X6363603Y4577889D01*
X6369731Y4563093D01*
X6383093Y4549732D01*
X6387326Y4547978D01*
X6387694Y4544964D01*
X6386132Y4535484D01*
X6371263Y4529325D01*
X6357901Y4515963D01*
X6350670Y4498505D01*
Y4479609D01*
X6357901Y4462150D01*
X6371263Y4448788D01*
X6388721Y4441557D01*
X6407618D01*
X6425076Y4448788D01*
X6438438Y4462150D01*
X6445669Y4479609D01*
Y4498505D01*
X6438438Y4515963D01*
X6425076Y4529325D01*
X6420844Y4531078D01*
X6420476Y4534093D01*
X6422037Y4543573D01*
X6436906Y4549732D01*
X6450268Y4563093D01*
X6457500Y4580552D01*
Y4599448D01*
X6450268Y4616906D01*
X6436906Y4630268D01*
X6419448Y4637500D01*
X6400552D01*
X6397397Y4636193D01*
X6391269Y4650989D01*
X6377907Y4664351D01*
X6360449Y4671582D01*
D02*
G37*
G36*
X7549448Y4627500D02*
X7530552D01*
X7513093Y4620268D01*
X7499732Y4606906D01*
X7492500Y4589448D01*
Y4570552D01*
X7499732Y4553094D01*
X7513093Y4539732D01*
X7525909Y4534423D01*
Y4521434D01*
X7523093Y4520268D01*
X7509731Y4506906D01*
X7502500Y4489448D01*
Y4470552D01*
X7509731Y4453093D01*
X7523093Y4439732D01*
X7540552Y4432500D01*
X7559448D01*
X7576906Y4439732D01*
X7590268Y4453093D01*
X7597500Y4470552D01*
Y4489448D01*
X7590268Y4506906D01*
X7576906Y4520268D01*
X7564091Y4525577D01*
Y4538565D01*
X7566906Y4539732D01*
X7580268Y4553094D01*
X7587500Y4570552D01*
Y4589448D01*
X7580268Y4606906D01*
X7566906Y4620268D01*
X7549448Y4627500D01*
D02*
G37*
G36*
X7209448Y4527500D02*
X7190552D01*
X7173094Y4520268D01*
X7159732Y4506906D01*
X7152500Y4489448D01*
Y4470552D01*
X7159732Y4453093D01*
X7173094Y4439732D01*
X7190552Y4432500D01*
X7209448D01*
X7226907Y4439732D01*
X7240268Y4453093D01*
X7247500Y4470552D01*
Y4489448D01*
X7240268Y4506906D01*
X7226907Y4520268D01*
X7209448Y4527500D01*
D02*
G37*
G36*
X8203541Y4489946D02*
X8184645D01*
X8167187Y4482714D01*
X8153825Y4469352D01*
X8146593Y4451894D01*
Y4432997D01*
X8153825Y4415539D01*
X8162440Y4406924D01*
X8161269Y4404097D01*
Y4385200D01*
X8168501Y4367742D01*
X8181863Y4354380D01*
X8199321Y4347149D01*
X8218217D01*
X8235676Y4354380D01*
X8249038Y4367742D01*
X8256269Y4385200D01*
Y4404097D01*
X8249038Y4421555D01*
X8240422Y4430170D01*
X8241593Y4432997D01*
Y4451894D01*
X8234361Y4469352D01*
X8221000Y4482714D01*
X8203541Y4489946D01*
D02*
G37*
G36*
X7056948Y4537500D02*
X7038052D01*
X7020594Y4530269D01*
X7007232Y4516907D01*
X7000000Y4499448D01*
Y4480552D01*
X7007232Y4463094D01*
X7020594Y4449732D01*
X7024181Y4448246D01*
X7024225Y4448015D01*
X7022987Y4435751D01*
X7008863Y4429901D01*
X6995501Y4416539D01*
X6988270Y4399081D01*
Y4380184D01*
X6995501Y4362726D01*
X7008863Y4349364D01*
X7026321Y4342133D01*
X7045218D01*
X7062676Y4349364D01*
X7076038Y4362726D01*
X7083269Y4380184D01*
Y4399081D01*
X7076038Y4416539D01*
X7062676Y4429901D01*
X7059089Y4431387D01*
X7059044Y4431618D01*
X7060282Y4443881D01*
X7074406Y4449732D01*
X7087768Y4463094D01*
X7095000Y4480552D01*
Y4499448D01*
X7087768Y4516907D01*
X7074406Y4530269D01*
X7056948Y4537500D01*
D02*
G37*
G36*
X8342521Y4489327D02*
X8323625D01*
X8306167Y4482096D01*
X8292805Y4468734D01*
X8285573Y4451276D01*
Y4432379D01*
X8292805Y4414921D01*
X8293020Y4414705D01*
X8286328Y4398549D01*
Y4379653D01*
X8293559Y4362195D01*
X8306921Y4348833D01*
X8324380Y4341601D01*
X8343276D01*
X8360734Y4348833D01*
X8374096Y4362195D01*
X8381328Y4379653D01*
Y4398549D01*
X8374096Y4416008D01*
X8373881Y4416223D01*
X8380573Y4432379D01*
Y4451276D01*
X8373341Y4468734D01*
X8359979Y4482096D01*
X8342521Y4489327D01*
D02*
G37*
G36*
X5649413Y4430366D02*
X5630517D01*
X5613058Y4423134D01*
X5599696Y4409772D01*
X5592465Y4392314D01*
Y4373418D01*
X5599696Y4355960D01*
X5613058Y4342598D01*
X5630517Y4335366D01*
X5649413D01*
X5666871Y4342598D01*
X5680233Y4355960D01*
X5687465Y4373418D01*
Y4392314D01*
X5680233Y4409772D01*
X5666871Y4423134D01*
X5649413Y4430366D01*
D02*
G37*
G36*
X7189115Y4420621D02*
X7170219D01*
X7152761Y4413389D01*
X7139399Y4400028D01*
X7132167Y4382569D01*
Y4363673D01*
X7139399Y4346215D01*
X7152761Y4332853D01*
X7170219Y4325621D01*
X7189115D01*
X7206574Y4332853D01*
X7219936Y4346215D01*
X7227167Y4363673D01*
Y4382569D01*
X7219936Y4400028D01*
X7206574Y4413389D01*
X7189115Y4420621D01*
D02*
G37*
G36*
X5977530Y4387641D02*
X5958634D01*
X5941176Y4380410D01*
X5927814Y4367048D01*
X5920582Y4349589D01*
Y4330693D01*
X5927814Y4313235D01*
X5941176Y4299873D01*
X5958634Y4292641D01*
X5977530D01*
X5994989Y4299873D01*
X6008350Y4313235D01*
X6015582Y4330693D01*
Y4349589D01*
X6008350Y4367048D01*
X5994989Y4380410D01*
X5977530Y4387641D01*
D02*
G37*
G36*
X6633673Y4405544D02*
X6614776D01*
X6597318Y4398312D01*
X6583956Y4384950D01*
X6576725Y4367492D01*
Y4348596D01*
X6583956Y4331137D01*
X6597318Y4317775D01*
X6614776Y4310544D01*
X6633673D01*
X6649454Y4317081D01*
X6652385Y4310004D01*
X6665747Y4296642D01*
X6683205Y4289411D01*
X6702101D01*
X6719560Y4296642D01*
X6732922Y4310004D01*
X6740153Y4327463D01*
Y4346359D01*
X6732922Y4363817D01*
X6719560Y4377179D01*
X6702101Y4384411D01*
X6683205D01*
X6667424Y4377874D01*
X6664493Y4384950D01*
X6651131Y4398312D01*
X6633673Y4405544D01*
D02*
G37*
G36*
X7299448Y4271524D02*
X7280552D01*
X7263093Y4264292D01*
X7249732Y4250931D01*
X7242500Y4233472D01*
Y4214576D01*
X7249732Y4197118D01*
X7263093Y4183756D01*
X7280552Y4176524D01*
X7299448D01*
X7316906Y4183756D01*
X7330268Y4197118D01*
X7337500Y4214576D01*
Y4233472D01*
X7330268Y4250931D01*
X7316906Y4264292D01*
X7299448Y4271524D01*
D02*
G37*
G36*
X4619448Y4227500D02*
X4600552D01*
X4583093Y4220268D01*
X4569732Y4206906D01*
X4562500Y4189448D01*
Y4170552D01*
X4569732Y4153094D01*
X4583093Y4139732D01*
X4600552Y4132500D01*
X4619448D01*
X4636906Y4139732D01*
X4650268Y4153094D01*
X4657500Y4170552D01*
Y4189448D01*
X4650268Y4206906D01*
X4636906Y4220268D01*
X4619448Y4227500D01*
D02*
G37*
G36*
X6797758Y4195000D02*
X6778862D01*
X6761404Y4187768D01*
X6748042Y4174406D01*
X6740810Y4156948D01*
Y4138052D01*
X6748042Y4120593D01*
X6761404Y4107232D01*
X6778862Y4100000D01*
X6797758D01*
X6815216Y4107232D01*
X6828578Y4120593D01*
X6835810Y4138052D01*
Y4156948D01*
X6828578Y4174406D01*
X6815216Y4187768D01*
X6797758Y4195000D01*
D02*
G37*
G36*
X6054352Y4183289D02*
X6035455D01*
X6017997Y4176057D01*
X6004635Y4162696D01*
X5997404Y4145237D01*
Y4126341D01*
X6004635Y4108883D01*
X6017997Y4095521D01*
X6035455Y4088289D01*
X6054352D01*
X6071810Y4095521D01*
X6085172Y4108883D01*
X6092403Y4126341D01*
Y4145237D01*
X6085172Y4162696D01*
X6071810Y4176057D01*
X6054352Y4183289D01*
D02*
G37*
G36*
X3499448Y4147500D02*
X3480552D01*
X3463093Y4140268D01*
X3449731Y4126906D01*
X3442500Y4109448D01*
Y4090552D01*
X3449731Y4073093D01*
X3463093Y4059732D01*
X3480552Y4052500D01*
X3499448D01*
X3516906Y4059732D01*
X3530268Y4073093D01*
X3537500Y4090552D01*
Y4109448D01*
X3530268Y4126906D01*
X3516906Y4140268D01*
X3499448Y4147500D01*
D02*
G37*
G36*
X6425173Y4141966D02*
X6406276D01*
X6388818Y4134735D01*
X6375456Y4121373D01*
X6368225Y4103915D01*
Y4085018D01*
X6375456Y4067560D01*
X6388818Y4054198D01*
X6406276Y4046967D01*
X6425173D01*
X6442631Y4054198D01*
X6455993Y4067560D01*
X6463224Y4085018D01*
Y4103915D01*
X6455993Y4121373D01*
X6442631Y4134735D01*
X6425173Y4141966D01*
D02*
G37*
G36*
X6947875Y4129659D02*
X6928978D01*
X6911520Y4122427D01*
X6898158Y4109065D01*
X6890927Y4091607D01*
Y4081640D01*
X6879041D01*
X6861583Y4074409D01*
X6848221Y4061047D01*
X6840990Y4043589D01*
Y4024692D01*
X6842056Y4022118D01*
X6841812Y4021762D01*
X6832377Y4014127D01*
X6818199Y4020000D01*
X6799302D01*
X6781844Y4012768D01*
X6768482Y3999407D01*
X6761251Y3981948D01*
Y3963052D01*
X6768482Y3945594D01*
X6780357Y3933719D01*
X6780446Y3925656D01*
X6779306Y3920294D01*
X6776007Y3918928D01*
X6762645Y3905566D01*
X6755413Y3888108D01*
Y3869211D01*
X6762645Y3851753D01*
X6776007Y3838391D01*
X6793465Y3831159D01*
X6808015D01*
X6815547Y3822438D01*
X6816411Y3820073D01*
X6814031Y3814327D01*
Y3795431D01*
X6821263Y3777973D01*
X6834625Y3764611D01*
X6852083Y3757379D01*
X6865157D01*
X6866422Y3755485D01*
Y3736589D01*
X6873654Y3719131D01*
X6882605Y3710179D01*
X6880680Y3696393D01*
X6879523Y3695914D01*
X6866161Y3682552D01*
X6865092Y3679971D01*
X6848052D01*
X6830593Y3672740D01*
X6817231Y3659378D01*
X6810000Y3641920D01*
Y3623023D01*
X6817231Y3605565D01*
X6830593Y3592203D01*
X6848052Y3584972D01*
X6866948D01*
X6884406Y3592203D01*
X6897768Y3605565D01*
X6898837Y3608146D01*
X6915878D01*
X6933336Y3615377D01*
X6946698Y3628739D01*
X6953929Y3646197D01*
Y3665094D01*
X6946698Y3682552D01*
X6937746Y3691503D01*
X6939672Y3705290D01*
X6940829Y3705769D01*
X6954191Y3719131D01*
X6961422Y3736589D01*
Y3755486D01*
X6954191Y3772944D01*
X6940829Y3786306D01*
X6923370Y3793537D01*
X6910297D01*
X6909031Y3795431D01*
Y3814327D01*
X6901800Y3831786D01*
X6888438Y3845148D01*
X6870979Y3852379D01*
X6856430D01*
X6848897Y3861100D01*
X6848033Y3863465D01*
X6850413Y3869211D01*
Y3888107D01*
X6859960Y3896415D01*
X6865067Y3894300D01*
X6883963D01*
X6901422Y3901531D01*
X6908190Y3908300D01*
X6922222Y3902487D01*
X6941119D01*
X6958577Y3909719D01*
X6971939Y3923081D01*
X6979170Y3940539D01*
Y3959435D01*
X6971939Y3976893D01*
X6958577Y3990255D01*
X6941119Y3997487D01*
X6935981D01*
X6933031Y4001467D01*
X6929691Y4009487D01*
X6935989Y4024692D01*
Y4034659D01*
X6947875D01*
X6965333Y4041891D01*
X6978695Y4055252D01*
X6985926Y4072711D01*
Y4091607D01*
X6978695Y4109065D01*
X6965333Y4122427D01*
X6947875Y4129659D01*
D02*
G37*
G36*
X7387587Y4106178D02*
X7368690D01*
X7351232Y4098946D01*
X7337870Y4085584D01*
X7330639Y4068126D01*
Y4049230D01*
X7337870Y4031771D01*
X7351232Y4018410D01*
X7368690Y4011178D01*
X7387587D01*
X7405045Y4018410D01*
X7418407Y4031771D01*
X7425638Y4049230D01*
Y4068126D01*
X7418407Y4085584D01*
X7405045Y4098946D01*
X7387587Y4106178D01*
D02*
G37*
G36*
X4909448Y4037500D02*
X4890552D01*
X4873094Y4030268D01*
X4859732Y4016906D01*
X4852500Y3999448D01*
Y3980552D01*
X4859732Y3963093D01*
X4873094Y3949731D01*
X4890552Y3942500D01*
X4909448D01*
X4926907Y3949731D01*
X4940269Y3963093D01*
X4947500Y3980552D01*
Y3999448D01*
X4940269Y4016906D01*
X4926907Y4030268D01*
X4909448Y4037500D01*
D02*
G37*
G36*
X8234995Y4194771D02*
X8216098D01*
X8198640Y4187540D01*
X8185278Y4174178D01*
X8178047Y4156720D01*
Y4137823D01*
X8182414Y4127280D01*
X8170886Y4115752D01*
X8163655Y4098294D01*
Y4079397D01*
X8170886Y4061939D01*
X8173048Y4059776D01*
X8164955Y4051683D01*
X8157723Y4034225D01*
Y4015328D01*
X8163691Y4000921D01*
X8155741Y3992972D01*
X8148510Y3975514D01*
Y3956617D01*
X8155741Y3939159D01*
X8169103Y3925797D01*
X8186561Y3918566D01*
X8205458D01*
X8222916Y3925797D01*
X8236278Y3939159D01*
X8243510Y3956617D01*
Y3975514D01*
X8237542Y3989921D01*
X8245492Y3997870D01*
X8252723Y4015328D01*
Y4034225D01*
X8245492Y4051683D01*
X8243329Y4053845D01*
X8251423Y4061939D01*
X8258654Y4079397D01*
Y4098294D01*
X8254287Y4108837D01*
X8265815Y4120365D01*
X8273046Y4137823D01*
Y4156720D01*
X8265815Y4174178D01*
X8252453Y4187540D01*
X8234995Y4194771D01*
D02*
G37*
G36*
X5089448Y4007500D02*
X5070552D01*
X5053094Y4000268D01*
X5039732Y3986906D01*
X5032500Y3969448D01*
Y3950552D01*
X5039732Y3933093D01*
X5053094Y3919732D01*
X5070552Y3912500D01*
X5089448D01*
X5106906Y3919732D01*
X5120268Y3933093D01*
X5127500Y3950552D01*
Y3969448D01*
X5120268Y3986906D01*
X5106906Y4000268D01*
X5089448Y4007500D01*
D02*
G37*
G36*
X5400947Y4001502D02*
X5382050D01*
X5364592Y3994271D01*
X5351230Y3980909D01*
X5343999Y3963451D01*
Y3944554D01*
X5351230Y3927096D01*
X5364592Y3913734D01*
X5382050Y3906502D01*
X5400947D01*
X5418405Y3913734D01*
X5431767Y3927096D01*
X5438999Y3944554D01*
Y3963451D01*
X5431767Y3980909D01*
X5418405Y3994271D01*
X5400947Y4001502D01*
D02*
G37*
G36*
X4047463Y4107198D02*
X4031664D01*
X4016404Y4103109D01*
X4002723Y4095210D01*
X3991552Y4084039D01*
X3983652Y4070357D01*
X3979564Y4055097D01*
Y4039299D01*
X3983652Y4024039D01*
X3991552Y4010357D01*
X3997512Y4004396D01*
X3991441Y3998325D01*
X3983542Y3984643D01*
X3979453Y3969383D01*
Y3953585D01*
X3983542Y3938325D01*
X3991441Y3924644D01*
X4002612Y3913472D01*
X4016294Y3905573D01*
X4031554Y3901484D01*
X4047352D01*
X4062612Y3905573D01*
X4076294Y3913472D01*
X4087465Y3924644D01*
X4095364Y3938325D01*
X4099453Y3953585D01*
Y3969383D01*
X4095364Y3984643D01*
X4087465Y3998325D01*
X4081504Y4004286D01*
X4087575Y4010357D01*
X4095474Y4024039D01*
X4099563Y4039299D01*
Y4055097D01*
X4095474Y4070357D01*
X4087575Y4084039D01*
X4076404Y4095210D01*
X4062722Y4103109D01*
X4047463Y4107198D01*
D02*
G37*
G36*
X3178339Y3951103D02*
X3159442D01*
X3141984Y3943871D01*
X3128622Y3930509D01*
X3121391Y3913051D01*
Y3894155D01*
X3128622Y3876696D01*
X3141984Y3863334D01*
X3159442Y3856103D01*
X3178339D01*
X3195797Y3863334D01*
X3209159Y3876696D01*
X3216390Y3894155D01*
Y3913051D01*
X3209159Y3930509D01*
X3195797Y3943871D01*
X3178339Y3951103D01*
D02*
G37*
G36*
X7357193Y3997407D02*
X7338296D01*
X7320838Y3990176D01*
X7307476Y3976814D01*
X7300245Y3959356D01*
Y3940459D01*
X7307476Y3923001D01*
X7320838Y3909639D01*
X7330233Y3905748D01*
Y3892759D01*
X7318202Y3887776D01*
X7304840Y3874414D01*
X7297609Y3856955D01*
Y3838059D01*
X7304840Y3820601D01*
X7318202Y3807239D01*
X7335660Y3800007D01*
X7354557D01*
X7372015Y3807239D01*
X7385377Y3820601D01*
X7392609Y3838059D01*
Y3856955D01*
X7385377Y3874414D01*
X7372015Y3887776D01*
X7362620Y3891667D01*
Y3904656D01*
X7374651Y3909639D01*
X7388013Y3923001D01*
X7395244Y3940459D01*
Y3959356D01*
X7388013Y3976814D01*
X7374651Y3990176D01*
X7357193Y3997407D01*
D02*
G37*
G36*
X5009020Y3887968D02*
X4990123D01*
X4972665Y3880737D01*
X4959303Y3867375D01*
X4952072Y3849917D01*
Y3831020D01*
X4959303Y3813562D01*
X4972665Y3800200D01*
X4990123Y3792969D01*
X5009020D01*
X5026478Y3800200D01*
X5039840Y3813562D01*
X5047071Y3831020D01*
Y3849917D01*
X5039840Y3867375D01*
X5026478Y3880737D01*
X5009020Y3887968D01*
D02*
G37*
G36*
X6400249Y4026782D02*
X6381352D01*
X6363894Y4019551D01*
X6350532Y4006189D01*
X6343301Y3988731D01*
Y3969834D01*
X6349322Y3955297D01*
X6349164Y3955139D01*
X6341932Y3937681D01*
Y3918784D01*
X6348234Y3903571D01*
X6341653Y3887682D01*
Y3868785D01*
X6348884Y3851327D01*
X6352481Y3847730D01*
X6352383Y3847633D01*
X6345151Y3830174D01*
Y3811278D01*
X6352383Y3793820D01*
X6365745Y3780458D01*
X6383203Y3773226D01*
X6402099D01*
X6419558Y3780458D01*
X6432920Y3793820D01*
X6440151Y3811278D01*
Y3830174D01*
X6432920Y3847633D01*
X6429323Y3851229D01*
X6429421Y3851327D01*
X6436652Y3868785D01*
Y3887682D01*
X6430351Y3902895D01*
X6436932Y3918784D01*
Y3937681D01*
X6430911Y3952218D01*
X6431069Y3952376D01*
X6438300Y3969834D01*
Y3988731D01*
X6431069Y4006189D01*
X6417707Y4019551D01*
X6400249Y4026782D01*
D02*
G37*
G36*
X2251271Y3865045D02*
X2232374D01*
X2214916Y3857814D01*
X2201554Y3844452D01*
X2194323Y3826994D01*
Y3808097D01*
X2201554Y3790639D01*
X2214916Y3777277D01*
X2232374Y3770046D01*
X2251271D01*
X2268729Y3777277D01*
X2282091Y3790639D01*
X2289322Y3808097D01*
Y3826994D01*
X2282091Y3844452D01*
X2268729Y3857814D01*
X2251271Y3865045D01*
D02*
G37*
G36*
X4520087Y3813270D02*
X4501190D01*
X4483732Y3806039D01*
X4470370Y3792677D01*
X4463139Y3775219D01*
Y3756322D01*
X4470370Y3738864D01*
X4479596Y3729638D01*
X4470533Y3720574D01*
X4467253Y3719922D01*
X4456907Y3730268D01*
X4439448Y3737500D01*
X4420552D01*
X4403094Y3730268D01*
X4389732Y3716906D01*
X4382500Y3699448D01*
Y3680552D01*
X4389732Y3663094D01*
X4403094Y3649732D01*
X4420552Y3642500D01*
X4439448D01*
X4456907Y3649732D01*
X4470268Y3663093D01*
X4473548Y3663746D01*
X4483894Y3653399D01*
X4501352Y3646168D01*
X4520249D01*
X4537707Y3653399D01*
X4551069Y3666761D01*
X4558301Y3684219D01*
Y3703116D01*
X4551069Y3720574D01*
X4541843Y3729800D01*
X4550907Y3738864D01*
X4558138Y3756322D01*
Y3775219D01*
X4550907Y3792677D01*
X4537545Y3806039D01*
X4520087Y3813270D01*
D02*
G37*
G36*
X5981674Y3785684D02*
X5962777D01*
X5945319Y3778452D01*
X5931957Y3765091D01*
X5924726Y3747632D01*
Y3728736D01*
X5931957Y3711278D01*
X5945319Y3697916D01*
X5962777Y3690684D01*
X5981674D01*
X5999132Y3697916D01*
X6012494Y3711278D01*
X6019725Y3728736D01*
Y3747632D01*
X6012494Y3765091D01*
X5999132Y3778452D01*
X5981674Y3785684D01*
D02*
G37*
G36*
X8339448Y3767500D02*
X8320552D01*
X8303094Y3760268D01*
X8289732Y3746906D01*
X8282500Y3729448D01*
Y3710552D01*
X8289732Y3693093D01*
X8303094Y3679732D01*
X8320552Y3672500D01*
X8339448D01*
X8356907Y3679732D01*
X8370269Y3693093D01*
X8377500Y3710552D01*
Y3729448D01*
X8370269Y3746906D01*
X8356907Y3760268D01*
X8339448Y3767500D01*
D02*
G37*
G36*
X8199448D02*
X8180552D01*
X8163093Y3760268D01*
X8149731Y3746906D01*
X8142500Y3729448D01*
Y3710552D01*
X8149731Y3693093D01*
X8163093Y3679732D01*
X8180552Y3672500D01*
X8199448D01*
X8216906Y3679732D01*
X8230268Y3693093D01*
X8237500Y3710552D01*
Y3729448D01*
X8230268Y3746906D01*
X8216906Y3760268D01*
X8199448Y3767500D01*
D02*
G37*
G36*
X5552635Y3742152D02*
X5533738D01*
X5516280Y3734921D01*
X5502918Y3721559D01*
X5495687Y3704101D01*
Y3685204D01*
X5502918Y3667746D01*
X5516280Y3654384D01*
X5533738Y3647152D01*
X5552635D01*
X5570093Y3654384D01*
X5583455Y3667746D01*
X5590687Y3685204D01*
Y3704101D01*
X5583455Y3721559D01*
X5570093Y3734921D01*
X5552635Y3742152D01*
D02*
G37*
G36*
X7661200Y3723500D02*
X7642303D01*
X7624845Y3716268D01*
X7611483Y3702906D01*
X7604251Y3685448D01*
Y3666552D01*
X7611483Y3649094D01*
X7624845Y3635732D01*
X7642303Y3628500D01*
X7661200D01*
X7678658Y3635732D01*
X7692020Y3649094D01*
X7699251Y3666552D01*
Y3685448D01*
X7692020Y3702906D01*
X7678658Y3716268D01*
X7661200Y3723500D01*
D02*
G37*
G36*
X8348238Y3621066D02*
X8329342D01*
X8311884Y3613835D01*
X8302796Y3604747D01*
X8290079Y3600493D01*
X8272622Y3607724D01*
X8253725D01*
X8236267Y3600493D01*
X8222905Y3587131D01*
X8215673Y3569673D01*
Y3550776D01*
X8222905Y3533318D01*
X8227394Y3528829D01*
X8222478Y3523912D01*
X8215246Y3506454D01*
Y3487557D01*
X8222478Y3470099D01*
X8235840Y3456737D01*
X8253298Y3449506D01*
X8272194D01*
X8289652Y3456737D01*
X8303014Y3470099D01*
X8306991Y3479700D01*
X8321146Y3482515D01*
X8323476Y3480185D01*
X8340934Y3472954D01*
X8359831D01*
X8377289Y3480185D01*
X8390651Y3493547D01*
X8397882Y3511005D01*
Y3529902D01*
X8390651Y3547360D01*
X8382659Y3555352D01*
X8386290Y3564118D01*
Y3583014D01*
X8379058Y3600473D01*
X8365697Y3613835D01*
X8348238Y3621066D01*
D02*
G37*
G36*
X7398192Y3729742D02*
X7379295D01*
X7361837Y3722510D01*
X7348475Y3709149D01*
X7341244Y3691690D01*
Y3681235D01*
X7335520Y3678864D01*
X7322158Y3665502D01*
X7314927Y3648044D01*
Y3629147D01*
X7322158Y3611689D01*
X7335520Y3598327D01*
X7352978Y3591096D01*
X7371875D01*
X7389333Y3598327D01*
X7402695Y3611689D01*
X7409927Y3629147D01*
Y3639603D01*
X7415650Y3641974D01*
X7429012Y3655336D01*
X7436243Y3672794D01*
Y3691690D01*
X7429012Y3709149D01*
X7415650Y3722510D01*
X7398192Y3729742D01*
D02*
G37*
G36*
X5179448Y3647500D02*
X5160552D01*
X5143094Y3640268D01*
X5129732Y3626906D01*
X5122500Y3609448D01*
Y3590552D01*
X5129732Y3573093D01*
X5143094Y3559732D01*
X5160552Y3552500D01*
X5179448D01*
X5196907Y3559732D01*
X5210268Y3573093D01*
X5217500Y3590552D01*
Y3609448D01*
X5210268Y3626906D01*
X5196907Y3640268D01*
X5179448Y3647500D01*
D02*
G37*
G36*
X5504520Y3588333D02*
X5485624D01*
X5468166Y3581102D01*
X5454804Y3567740D01*
X5447572Y3550281D01*
Y3531385D01*
X5454804Y3513927D01*
X5468166Y3500565D01*
X5485624Y3493333D01*
X5504520D01*
X5521979Y3500565D01*
X5535340Y3513927D01*
X5542572Y3531385D01*
Y3550281D01*
X5535340Y3567740D01*
X5521979Y3581102D01*
X5504520Y3588333D01*
D02*
G37*
G36*
X7344448Y3572500D02*
X7325552D01*
X7308094Y3565268D01*
X7294732Y3551907D01*
X7287500Y3534448D01*
Y3515552D01*
X7294732Y3498094D01*
X7308094Y3484732D01*
X7325552Y3477500D01*
X7344448D01*
X7361907Y3484732D01*
X7375268Y3498094D01*
X7382500Y3515552D01*
Y3534448D01*
X7375268Y3551907D01*
X7361907Y3565268D01*
X7344448Y3572500D01*
D02*
G37*
G36*
X6859840Y3526513D02*
X6840943D01*
X6823485Y3519282D01*
X6810123Y3505920D01*
X6802892Y3488462D01*
Y3469565D01*
X6810123Y3452107D01*
X6823485Y3438745D01*
X6840943Y3431514D01*
X6859840D01*
X6877298Y3438745D01*
X6890660Y3452107D01*
X6897891Y3469565D01*
Y3488462D01*
X6890660Y3505920D01*
X6877298Y3519282D01*
X6859840Y3526513D01*
D02*
G37*
G36*
X4099026Y3506428D02*
X4080129D01*
X4062671Y3499196D01*
X4049309Y3485834D01*
X4042078Y3468376D01*
Y3449480D01*
X4049309Y3432021D01*
X4062671Y3418659D01*
X4080129Y3411428D01*
X4099026D01*
X4116484Y3418659D01*
X4129846Y3432021D01*
X4137077Y3449480D01*
Y3468376D01*
X4129846Y3485834D01*
X4116484Y3499196D01*
X4099026Y3506428D01*
D02*
G37*
G36*
X3972500Y3443539D02*
X3867500D01*
X3851184Y3441391D01*
X3835981Y3435093D01*
X3822925Y3425075D01*
X3812907Y3412019D01*
X3806609Y3396815D01*
X3806052Y3392582D01*
X3793948D01*
X3793391Y3396815D01*
X3787094Y3412019D01*
X3777075Y3425075D01*
X3764019Y3435093D01*
X3748816Y3441391D01*
X3732500Y3443539D01*
X3627500D01*
X3611184Y3441391D01*
X3595981Y3435093D01*
X3582925Y3425075D01*
X3572906Y3412019D01*
X3566609Y3396815D01*
X3564461Y3380500D01*
Y3315500D01*
X3566609Y3299184D01*
X3572906Y3283980D01*
X3582925Y3270924D01*
X3595981Y3260906D01*
X3611184Y3254609D01*
X3615417Y3254051D01*
Y3241948D01*
X3611184Y3241391D01*
X3595981Y3235093D01*
X3582925Y3225075D01*
X3572906Y3212019D01*
X3566609Y3196815D01*
X3564461Y3180500D01*
Y3115499D01*
X3566609Y3099184D01*
X3572906Y3083980D01*
X3582925Y3070924D01*
X3595981Y3060906D01*
X3611184Y3054609D01*
X3615416Y3054051D01*
Y3041948D01*
X3611184Y3041391D01*
X3595980Y3035093D01*
X3582925Y3025075D01*
X3572906Y3012019D01*
X3566609Y2996815D01*
X3564461Y2980500D01*
Y2915500D01*
X3566609Y2899184D01*
X3572906Y2883980D01*
X3582925Y2870924D01*
X3595980Y2860906D01*
X3611184Y2854609D01*
X3615417Y2854051D01*
Y2841948D01*
X3611184Y2841391D01*
X3595980Y2835093D01*
X3582925Y2825075D01*
X3572906Y2812019D01*
X3566609Y2796815D01*
X3564461Y2780500D01*
Y2715500D01*
X3566609Y2699184D01*
X3572906Y2683980D01*
X3582925Y2670924D01*
X3595980Y2660906D01*
X3611184Y2654609D01*
X3615416Y2654051D01*
Y2641948D01*
X3611184Y2641391D01*
X3595981Y2635093D01*
X3582925Y2625075D01*
X3572906Y2612019D01*
X3566609Y2596815D01*
X3564461Y2580500D01*
Y2515500D01*
X3566609Y2499184D01*
X3572906Y2483980D01*
X3582925Y2470924D01*
X3595981Y2460906D01*
X3611184Y2454609D01*
X3627500Y2452461D01*
X3732500D01*
X3748816Y2454609D01*
X3764019Y2460906D01*
X3777075Y2470924D01*
X3787094Y2483980D01*
X3793391Y2499184D01*
X3793948Y2503417D01*
X3806052D01*
X3806609Y2499184D01*
X3812907Y2483980D01*
X3822925Y2470924D01*
X3835981Y2460906D01*
X3851184Y2454609D01*
X3867500Y2452461D01*
X3972500D01*
X3988816Y2454609D01*
X4004019Y2460906D01*
X4017075Y2470924D01*
X4027094Y2483980D01*
X4033391Y2499184D01*
X4035539Y2515500D01*
Y2580500D01*
X4033391Y2596815D01*
X4027094Y2612019D01*
X4017075Y2625075D01*
X4004019Y2635093D01*
X3988816Y2641391D01*
X3984584Y2641948D01*
Y2654051D01*
X3988816Y2654609D01*
X4004020Y2660906D01*
X4017075Y2670924D01*
X4027094Y2683980D01*
X4033391Y2699184D01*
X4035539Y2715500D01*
Y2780500D01*
X4033391Y2796815D01*
X4027094Y2812019D01*
X4017075Y2825075D01*
X4004020Y2835093D01*
X3988816Y2841391D01*
X3984583Y2841948D01*
Y2854051D01*
X3988816Y2854609D01*
X4004020Y2860906D01*
X4017075Y2870924D01*
X4027094Y2883980D01*
X4033391Y2899184D01*
X4035539Y2915500D01*
Y2980500D01*
X4033391Y2996815D01*
X4027094Y3012019D01*
X4017075Y3025075D01*
X4004020Y3035093D01*
X3988816Y3041391D01*
X3984584Y3041948D01*
Y3054051D01*
X3988816Y3054609D01*
X4004019Y3060906D01*
X4017075Y3070924D01*
X4027094Y3083980D01*
X4033391Y3099184D01*
X4035539Y3115499D01*
Y3180500D01*
X4033391Y3196815D01*
X4027094Y3212019D01*
X4017075Y3225075D01*
X4004019Y3235093D01*
X3988816Y3241391D01*
X3984583Y3241948D01*
Y3254051D01*
X3988816Y3254609D01*
X4004019Y3260906D01*
X4017075Y3270924D01*
X4027094Y3283980D01*
X4033391Y3299184D01*
X4035539Y3315500D01*
Y3380500D01*
X4033391Y3396815D01*
X4027094Y3412019D01*
X4017075Y3425075D01*
X4004019Y3435093D01*
X3988816Y3441391D01*
X3972500Y3443539D01*
D02*
G37*
G36*
X4649500Y3445826D02*
X4630603D01*
X4613145Y3438595D01*
X4599783Y3425233D01*
X4592552Y3407774D01*
Y3388878D01*
X4599783Y3371420D01*
X4613145Y3358058D01*
X4630603Y3350826D01*
X4649500D01*
X4666958Y3358058D01*
X4680320Y3371420D01*
X4687551Y3388878D01*
Y3407774D01*
X4680320Y3425233D01*
X4666958Y3438595D01*
X4649500Y3445826D01*
D02*
G37*
G36*
X6328068Y3633392D02*
X6309171D01*
X6291713Y3626160D01*
X6278351Y3612798D01*
X6271120Y3595340D01*
Y3576444D01*
X6278351Y3558986D01*
X6291713Y3545624D01*
X6309171Y3538392D01*
X6324398D01*
X6331393Y3530687D01*
X6332823Y3527373D01*
X6329572Y3519525D01*
Y3500628D01*
X6336803Y3483170D01*
X6338232Y3481742D01*
X6332413Y3467692D01*
Y3448795D01*
X6339644Y3431337D01*
X6353006Y3417975D01*
X6370464Y3410744D01*
X6373131D01*
X6381150Y3398744D01*
X6377615Y3390211D01*
Y3371314D01*
X6384847Y3353856D01*
X6398208Y3340494D01*
X6415667Y3333263D01*
X6434563D01*
X6452021Y3340494D01*
X6465383Y3353856D01*
X6472615Y3371314D01*
Y3390211D01*
X6465383Y3407669D01*
X6452021Y3421031D01*
X6434563Y3428262D01*
X6431896D01*
X6423878Y3440263D01*
X6427412Y3448795D01*
Y3467692D01*
X6420181Y3485150D01*
X6418752Y3486578D01*
X6424572Y3500628D01*
Y3519525D01*
X6421160Y3527762D01*
X6417275Y3539142D01*
X6430637Y3552503D01*
X6437868Y3569962D01*
Y3588858D01*
X6430637Y3606316D01*
X6417275Y3619678D01*
X6399817Y3626910D01*
X6380920D01*
X6363462Y3619678D01*
X6357735Y3613951D01*
X6345526Y3626160D01*
X6328068Y3633392D01*
D02*
G37*
G36*
X5949448Y3377500D02*
X5930552D01*
X5913094Y3370268D01*
X5899732Y3356906D01*
X5892500Y3339448D01*
Y3320552D01*
X5899732Y3303093D01*
X5913094Y3289732D01*
X5930552Y3282500D01*
X5949448D01*
X5966907Y3289732D01*
X5980268Y3303093D01*
X5987500Y3320552D01*
Y3339448D01*
X5980268Y3356906D01*
X5966907Y3370268D01*
X5949448Y3377500D01*
D02*
G37*
G36*
X4453545Y3374317D02*
X4434648D01*
X4417190Y3367085D01*
X4403828Y3353723D01*
X4396597Y3336265D01*
Y3317369D01*
X4403828Y3299910D01*
X4417190Y3286548D01*
X4434648Y3279317D01*
X4453545D01*
X4471003Y3286548D01*
X4484365Y3299910D01*
X4491597Y3317369D01*
Y3336265D01*
X4484365Y3353723D01*
X4471003Y3367085D01*
X4453545Y3374317D01*
D02*
G37*
G36*
X7128736Y3372769D02*
X7109839D01*
X7092381Y3365538D01*
X7079019Y3352176D01*
X7071788Y3334717D01*
Y3315821D01*
X7079019Y3298363D01*
X7092381Y3285001D01*
X7109839Y3277769D01*
X7128736D01*
X7146194Y3285001D01*
X7159556Y3298363D01*
X7166788Y3315821D01*
Y3334717D01*
X7159556Y3352176D01*
X7146194Y3365538D01*
X7128736Y3372769D01*
D02*
G37*
G36*
X2731524Y3311132D02*
X2712627D01*
X2695169Y3303900D01*
X2681807Y3290539D01*
X2674576Y3273080D01*
Y3254184D01*
X2681807Y3236726D01*
X2695169Y3223364D01*
X2712627Y3216132D01*
X2731524D01*
X2748982Y3223364D01*
X2762344Y3236726D01*
X2769575Y3254184D01*
Y3273080D01*
X2762344Y3290539D01*
X2748982Y3303900D01*
X2731524Y3311132D01*
D02*
G37*
G36*
X8059448Y3307500D02*
X8040552D01*
X8023093Y3300268D01*
X8009732Y3286907D01*
X8002500Y3269448D01*
Y3250552D01*
X8009732Y3233094D01*
X8023093Y3219732D01*
X8040552Y3212500D01*
X8059448D01*
X8076906Y3219732D01*
X8090268Y3233094D01*
X8097500Y3250552D01*
Y3269448D01*
X8090268Y3286907D01*
X8076906Y3300268D01*
X8059448Y3307500D01*
D02*
G37*
G36*
X8304250Y3298136D02*
X8273000D01*
Y3195000D01*
X8378636D01*
Y3223750D01*
X8376101Y3243002D01*
X8368670Y3260943D01*
X8356849Y3276349D01*
X8341443Y3288170D01*
X8323502Y3295601D01*
X8304250Y3298136D01*
D02*
G37*
G36*
X8253000D02*
X8221750D01*
X8202498Y3295601D01*
X8184557Y3288170D01*
X8169151Y3276349D01*
X8157330Y3260943D01*
X8149899Y3243002D01*
X8147364Y3223750D01*
Y3195000D01*
X8253000D01*
Y3298136D01*
D02*
G37*
G36*
X8378636Y3175000D02*
X8273000D01*
Y3071864D01*
X8304250D01*
X8323502Y3074398D01*
X8341443Y3081830D01*
X8356849Y3093651D01*
X8368670Y3109057D01*
X8376101Y3126998D01*
X8378636Y3146250D01*
Y3175000D01*
D02*
G37*
G36*
X8253000D02*
X8147364D01*
Y3146250D01*
X8149899Y3126998D01*
X8157330Y3109057D01*
X8169151Y3093651D01*
X8184557Y3081830D01*
X8202498Y3074398D01*
X8221750Y3071864D01*
X8253000D01*
Y3175000D01*
D02*
G37*
G36*
X5819448Y3107500D02*
X5800552D01*
X5783094Y3100268D01*
X5769732Y3086906D01*
X5762500Y3069448D01*
Y3050552D01*
X5769732Y3033094D01*
X5783094Y3019732D01*
X5800552Y3012500D01*
X5819448D01*
X5836907Y3019732D01*
X5850268Y3033094D01*
X5857500Y3050552D01*
Y3069448D01*
X5850268Y3086906D01*
X5836907Y3100268D01*
X5819448Y3107500D01*
D02*
G37*
G36*
X4571710Y3149413D02*
X4552813D01*
X4535355Y3142182D01*
X4521993Y3128820D01*
X4514762Y3111362D01*
Y3092465D01*
X4521993Y3075007D01*
X4525583Y3071417D01*
X4518493Y3064327D01*
X4511261Y3046869D01*
Y3027973D01*
X4518493Y3010514D01*
X4531855Y2997153D01*
X4549313Y2989921D01*
X4568210D01*
X4585668Y2997153D01*
X4599030Y3010514D01*
X4606261Y3027973D01*
Y3046869D01*
X4599030Y3064327D01*
X4595440Y3067917D01*
X4602530Y3075007D01*
X4609761Y3092465D01*
Y3111362D01*
X4602530Y3128820D01*
X4589168Y3142182D01*
X4571710Y3149413D01*
D02*
G37*
G36*
X8126997Y3054171D02*
X8108101D01*
X8090642Y3046940D01*
X8077281Y3033578D01*
X8070049Y3016120D01*
Y2997223D01*
X8077281Y2979765D01*
X8090642Y2966403D01*
X8108101Y2959172D01*
X8122697D01*
X8128690Y2956607D01*
X8133730Y2948971D01*
Y2935554D01*
X8140961Y2918096D01*
X8154323Y2904734D01*
X8171781Y2897503D01*
X8190678D01*
X8208136Y2904734D01*
X8221498Y2918096D01*
X8228730Y2935554D01*
Y2954451D01*
X8221498Y2971909D01*
X8208136Y2985271D01*
X8190678Y2992502D01*
X8176082D01*
X8170089Y2995067D01*
X8165049Y3002702D01*
Y3016120D01*
X8157817Y3033578D01*
X8144455Y3046940D01*
X8126997Y3054171D01*
D02*
G37*
G36*
X2553016Y2967450D02*
X2534120D01*
X2516662Y2960218D01*
X2503300Y2946856D01*
X2496068Y2929398D01*
Y2910502D01*
X2503300Y2893043D01*
X2516662Y2879682D01*
X2534120Y2872450D01*
X2553016D01*
X2570475Y2879682D01*
X2583837Y2893043D01*
X2591068Y2910502D01*
Y2929398D01*
X2583837Y2946856D01*
X2570475Y2960218D01*
X2553016Y2967450D01*
D02*
G37*
G36*
X6067899Y2990000D02*
X6052100D01*
X6036841Y2985911D01*
X6023159Y2978012D01*
X6011988Y2966841D01*
X6004089Y2953159D01*
X6000000Y2937899D01*
Y2922101D01*
X6004089Y2906841D01*
X6011988Y2893159D01*
X6023159Y2881988D01*
X6036841Y2874089D01*
X6052100Y2870000D01*
X6067899D01*
X6083159Y2874089D01*
X6096840Y2881988D01*
X6108011Y2893159D01*
X6115911Y2906841D01*
X6119999Y2922101D01*
Y2937899D01*
X6115911Y2953159D01*
X6108011Y2966841D01*
X6096840Y2978012D01*
X6083159Y2985911D01*
X6067899Y2990000D01*
D02*
G37*
G36*
X4723046Y3020546D02*
X4704150D01*
X4686691Y3013315D01*
X4673329Y2999953D01*
X4666098Y2982494D01*
Y2963598D01*
X4673329Y2946140D01*
X4677279Y2942190D01*
X4669268Y2934179D01*
X4662036Y2916721D01*
Y2897825D01*
X4669268Y2880366D01*
X4682629Y2867004D01*
X4700088Y2859773D01*
X4718984D01*
X4736442Y2867004D01*
X4749804Y2880366D01*
X4757036Y2897825D01*
Y2916721D01*
X4749804Y2934179D01*
X4745855Y2938128D01*
X4753866Y2946140D01*
X4761098Y2963598D01*
Y2982494D01*
X4753866Y2999953D01*
X4740504Y3013315D01*
X4723046Y3020546D01*
D02*
G37*
G36*
X5797721Y2973967D02*
X5781923D01*
X5766663Y2969878D01*
X5752981Y2961979D01*
X5741810Y2950808D01*
X5733911Y2937126D01*
X5729822Y2921867D01*
Y2906068D01*
X5733911Y2890809D01*
X5741810Y2877127D01*
X5752981Y2865956D01*
X5766663Y2858057D01*
X5781923Y2853968D01*
X5797721D01*
X5812981Y2858057D01*
X5826662Y2865956D01*
X5837834Y2877127D01*
X5845733Y2890809D01*
X5849822Y2906068D01*
Y2921867D01*
X5845733Y2937126D01*
X5837834Y2950808D01*
X5826662Y2961979D01*
X5812981Y2969878D01*
X5797721Y2973967D01*
D02*
G37*
G36*
X6949448Y2995000D02*
X6930552D01*
X6913094Y2987768D01*
X6899732Y2974407D01*
X6892500Y2956948D01*
Y2938052D01*
X6899732Y2920594D01*
X6913094Y2907232D01*
X6930552Y2900000D01*
X6949448D01*
X6958497Y2890760D01*
X6953424Y2878512D01*
Y2859616D01*
X6960655Y2842158D01*
X6974017Y2828796D01*
X6991475Y2821564D01*
X7010372D01*
X7027830Y2828796D01*
X7041192Y2842158D01*
X7048424Y2859616D01*
Y2878512D01*
X7041192Y2895971D01*
X7027830Y2909333D01*
X7010372Y2916564D01*
X6991476D01*
X6982427Y2925805D01*
X6987500Y2938052D01*
Y2956948D01*
X6980268Y2974407D01*
X6966907Y2987768D01*
X6949448Y2995000D01*
D02*
G37*
G36*
X6759449Y2897500D02*
X6740552D01*
X6723094Y2890269D01*
X6709732Y2876907D01*
X6702500Y2859448D01*
Y2840552D01*
X6709732Y2823094D01*
X6723094Y2809732D01*
X6740552Y2802500D01*
X6759449D01*
X6776907Y2809732D01*
X6790269Y2823094D01*
X6797500Y2840552D01*
Y2859448D01*
X6790269Y2876907D01*
X6776907Y2890269D01*
X6759449Y2897500D01*
D02*
G37*
G36*
X5536920Y2857500D02*
X5518024D01*
X5500565Y2850268D01*
X5487203Y2836906D01*
X5479972Y2819448D01*
Y2800552D01*
X5487203Y2783093D01*
X5500565Y2769732D01*
X5518024Y2762500D01*
X5536920D01*
X5554378Y2769732D01*
X5567740Y2783093D01*
X5574972Y2800552D01*
Y2819448D01*
X5567740Y2836906D01*
X5554378Y2850268D01*
X5536920Y2857500D01*
D02*
G37*
G36*
X8278244Y2829467D02*
X8259347D01*
X8241889Y2822236D01*
X8228527Y2808874D01*
X8221295Y2791416D01*
Y2772519D01*
X8228527Y2755061D01*
X8241889Y2741699D01*
X8259347Y2734468D01*
X8278244D01*
X8295702Y2741699D01*
X8309064Y2755061D01*
X8316295Y2772519D01*
Y2791416D01*
X8309064Y2808874D01*
X8295702Y2822236D01*
X8278244Y2829467D01*
D02*
G37*
G36*
X7249448Y2767500D02*
X7230552D01*
X7213094Y2760268D01*
X7199732Y2746906D01*
X7192500Y2729448D01*
Y2710552D01*
X7199732Y2693093D01*
X7213094Y2679731D01*
X7230552Y2672500D01*
X7249448D01*
X7266906Y2679731D01*
X7280268Y2693093D01*
X7287500Y2710552D01*
Y2729448D01*
X7280268Y2746906D01*
X7266906Y2760268D01*
X7249448Y2767500D01*
D02*
G37*
G36*
X4519448Y2717500D02*
X4500552D01*
X4483094Y2710268D01*
X4469732Y2696906D01*
X4462500Y2679448D01*
Y2660552D01*
X4469732Y2643094D01*
X4483094Y2629732D01*
X4500552Y2622500D01*
X4519448D01*
X4536907Y2629732D01*
X4550269Y2643094D01*
X4557500Y2660552D01*
Y2679448D01*
X4550269Y2696906D01*
X4536907Y2710268D01*
X4519448Y2717500D01*
D02*
G37*
G36*
X7462053Y2760284D02*
X7443156D01*
X7425698Y2753052D01*
X7412336Y2739690D01*
X7405105Y2722232D01*
Y2703336D01*
X7411609Y2687633D01*
X7405662Y2681687D01*
X7398431Y2664229D01*
Y2645332D01*
X7405662Y2627874D01*
X7419024Y2614512D01*
X7436482Y2607281D01*
X7455379D01*
X7472837Y2614512D01*
X7486199Y2627874D01*
X7493431Y2645332D01*
Y2664229D01*
X7486926Y2679931D01*
X7492873Y2685878D01*
X7500104Y2703336D01*
Y2722232D01*
X7492873Y2739690D01*
X7479511Y2753052D01*
X7462053Y2760284D01*
D02*
G37*
G36*
X7859226Y2679325D02*
X7840329D01*
X7822871Y2672093D01*
X7809509Y2658732D01*
X7802278Y2641273D01*
Y2622377D01*
X7809509Y2604919D01*
X7822871Y2591557D01*
X7840329Y2584325D01*
X7859226D01*
X7876684Y2591557D01*
X7890046Y2604919D01*
X7897277Y2622377D01*
Y2641273D01*
X7890046Y2658732D01*
X7876684Y2672093D01*
X7859226Y2679325D01*
D02*
G37*
G36*
X8140487Y2657695D02*
X8121591D01*
X8104132Y2650464D01*
X8090770Y2637102D01*
X8083539Y2619644D01*
Y2600747D01*
X8090770Y2583289D01*
X8104132Y2569927D01*
X8121591Y2562696D01*
X8140487D01*
X8157945Y2569927D01*
X8169457Y2581439D01*
X8182493Y2581324D01*
X8183268Y2579453D01*
X8196630Y2566091D01*
X8214088Y2558859D01*
X8232985D01*
X8250443Y2566091D01*
X8263805Y2579453D01*
X8271037Y2596911D01*
Y2615807D01*
X8263805Y2633265D01*
X8250443Y2646627D01*
X8232985Y2653859D01*
X8214088D01*
X8196630Y2646627D01*
X8185119Y2635116D01*
X8172082Y2635231D01*
X8171307Y2637102D01*
X8157945Y2650464D01*
X8140487Y2657695D01*
D02*
G37*
G36*
X6680120Y2761561D02*
X6661224D01*
X6643765Y2754330D01*
X6630404Y2740968D01*
X6623172Y2723510D01*
Y2704613D01*
X6630404Y2687155D01*
X6640192Y2677367D01*
X6629732Y2666907D01*
X6622500Y2649448D01*
Y2630552D01*
X6629732Y2613094D01*
X6638825Y2604001D01*
X6634971Y2594697D01*
Y2575801D01*
X6642202Y2558343D01*
X6655564Y2544981D01*
X6673022Y2537749D01*
X6691919D01*
X6709377Y2544981D01*
X6722739Y2558343D01*
X6729971Y2575801D01*
Y2594697D01*
X6722739Y2612156D01*
X6713646Y2621249D01*
X6717500Y2630552D01*
Y2649448D01*
X6710269Y2666907D01*
X6700480Y2676695D01*
X6710940Y2687155D01*
X6718172Y2704613D01*
Y2723510D01*
X6710940Y2740968D01*
X6697578Y2754330D01*
X6680120Y2761561D01*
D02*
G37*
G36*
X6806948Y2613985D02*
X6788052D01*
X6770594Y2606753D01*
X6757232Y2593391D01*
X6750000Y2575933D01*
Y2557037D01*
X6757232Y2539578D01*
X6770594Y2526216D01*
X6788052Y2518985D01*
X6806948D01*
X6824406Y2526216D01*
X6837768Y2539578D01*
X6845000Y2557037D01*
Y2575933D01*
X6837768Y2593391D01*
X6824406Y2606753D01*
X6806948Y2613985D01*
D02*
G37*
G36*
X6991108Y2612287D02*
X6972211D01*
X6954753Y2605056D01*
X6941391Y2591694D01*
X6934160Y2574236D01*
Y2555339D01*
X6941391Y2537881D01*
X6954753Y2524519D01*
X6972211Y2517288D01*
X6991108D01*
X7008566Y2524519D01*
X7021928Y2537881D01*
X7029159Y2555339D01*
Y2574236D01*
X7021928Y2591694D01*
X7008566Y2605056D01*
X6991108Y2612287D01*
D02*
G37*
G36*
X3401948Y2597500D02*
X3383052D01*
X3365593Y2590268D01*
X3352232Y2576906D01*
X3345000Y2559448D01*
Y2540552D01*
X3352232Y2523094D01*
X3365593Y2509732D01*
X3383052Y2502500D01*
X3401948D01*
X3419406Y2509732D01*
X3432768Y2523094D01*
X3440000Y2540552D01*
Y2559448D01*
X3432768Y2576906D01*
X3419406Y2590268D01*
X3401948Y2597500D01*
D02*
G37*
G36*
X7259434Y2567495D02*
X7240537D01*
X7223079Y2560263D01*
X7209717Y2546901D01*
X7202486Y2529443D01*
Y2510547D01*
X7209717Y2493088D01*
X7223079Y2479727D01*
X7240537Y2472495D01*
X7259434D01*
X7276892Y2479727D01*
X7290254Y2493088D01*
X7297485Y2510547D01*
Y2529443D01*
X7290254Y2546901D01*
X7276892Y2560263D01*
X7259434Y2567495D01*
D02*
G37*
G36*
X2389747Y2562839D02*
X2373949D01*
X2358689Y2558750D01*
X2345007Y2550851D01*
X2333836Y2539680D01*
X2325937Y2525998D01*
X2321848Y2510738D01*
Y2494940D01*
X2325937Y2479680D01*
X2333836Y2465998D01*
X2345007Y2454827D01*
X2358689Y2446928D01*
X2373949Y2442839D01*
X2389747D01*
X2405007Y2446928D01*
X2418688Y2454827D01*
X2429860Y2465998D01*
X2437759Y2479680D01*
X2441848Y2494940D01*
Y2510738D01*
X2437759Y2525998D01*
X2429860Y2539680D01*
X2418688Y2550851D01*
X2405007Y2558750D01*
X2389747Y2562839D01*
D02*
G37*
G36*
X7464455Y2566299D02*
X7445559D01*
X7428101Y2559067D01*
X7414739Y2545705D01*
X7407507Y2528247D01*
Y2509351D01*
X7414739Y2491892D01*
X7414812Y2491820D01*
X7408422Y2476394D01*
Y2457497D01*
X7415654Y2440039D01*
X7429016Y2426677D01*
X7446474Y2419446D01*
X7465370D01*
X7482829Y2426677D01*
X7496190Y2440039D01*
X7503422Y2457497D01*
Y2476394D01*
X7496190Y2493852D01*
X7496118Y2493925D01*
X7502507Y2509351D01*
Y2528247D01*
X7495276Y2545705D01*
X7481914Y2559067D01*
X7464455Y2566299D01*
D02*
G37*
G36*
X5255574Y2512541D02*
X5236677D01*
X5219219Y2505309D01*
X5205857Y2491948D01*
X5198626Y2474489D01*
Y2455593D01*
X5205857Y2438135D01*
X5219219Y2424773D01*
X5236677Y2417541D01*
X5255574D01*
X5273032Y2424773D01*
X5286394Y2438135D01*
X5293625Y2455593D01*
Y2474489D01*
X5286394Y2491948D01*
X5273032Y2505309D01*
X5255574Y2512541D01*
D02*
G37*
G36*
X8079448Y2497499D02*
X8060552D01*
X8043094Y2490268D01*
X8029732Y2476906D01*
X8022500Y2459448D01*
Y2440551D01*
X8029732Y2423093D01*
X8043094Y2409731D01*
X8060552Y2402500D01*
X8079448D01*
X8096907Y2409731D01*
X8110269Y2423093D01*
X8117500Y2440551D01*
Y2459448D01*
X8110269Y2476906D01*
X8096907Y2490268D01*
X8079448Y2497499D01*
D02*
G37*
G36*
X7659448Y2492500D02*
X7640552D01*
X7623093Y2485268D01*
X7609732Y2471906D01*
X7602500Y2454448D01*
Y2435552D01*
X7609732Y2418093D01*
X7623093Y2404732D01*
X7640552Y2397500D01*
X7659448D01*
X7676906Y2404732D01*
X7690268Y2418093D01*
X7697500Y2435552D01*
Y2454448D01*
X7690268Y2471906D01*
X7676906Y2485268D01*
X7659448Y2492500D01*
D02*
G37*
G36*
X8154250Y2388136D02*
X8123000D01*
Y2285000D01*
X8228636D01*
Y2313750D01*
X8226101Y2333002D01*
X8218670Y2350943D01*
X8206849Y2366349D01*
X8191443Y2378170D01*
X8173502Y2385602D01*
X8154250Y2388136D01*
D02*
G37*
G36*
X8103000D02*
X8071750D01*
X8052497Y2385602D01*
X8034557Y2378170D01*
X8019151Y2366349D01*
X8007330Y2350943D01*
X7999898Y2333002D01*
X7997364Y2313750D01*
Y2285000D01*
X8103000D01*
Y2388136D01*
D02*
G37*
G36*
X6109436Y2337495D02*
X6090540D01*
X6073081Y2330264D01*
X6059719Y2316902D01*
X6052488Y2299444D01*
Y2280547D01*
X6059719Y2263089D01*
X6073081Y2249727D01*
X6090540Y2242496D01*
X6109436D01*
X6126894Y2249727D01*
X6140256Y2263089D01*
X6147488Y2280547D01*
Y2299444D01*
X6140256Y2316902D01*
X6126894Y2330264D01*
X6109436Y2337495D01*
D02*
G37*
G36*
X3959448Y2297500D02*
X3940552D01*
X3923093Y2290268D01*
X3909732Y2276907D01*
X3902500Y2259448D01*
Y2240552D01*
X3909732Y2223094D01*
X3923093Y2209732D01*
X3940552Y2202500D01*
X3959448D01*
X3976906Y2209732D01*
X3990268Y2223094D01*
X3997500Y2240552D01*
Y2259448D01*
X3990268Y2276907D01*
X3976906Y2290268D01*
X3959448Y2297500D01*
D02*
G37*
G36*
X7250378Y2289056D02*
X7231481D01*
X7214023Y2281824D01*
X7200661Y2268463D01*
X7193430Y2251004D01*
Y2232108D01*
X7200661Y2214650D01*
X7214023Y2201288D01*
X7231481Y2194056D01*
X7250378D01*
X7267836Y2201288D01*
X7281198Y2214650D01*
X7288429Y2232108D01*
Y2251004D01*
X7281198Y2268463D01*
X7267836Y2281824D01*
X7250378Y2289056D01*
D02*
G37*
G36*
X5835094Y2282947D02*
X5816198D01*
X5798739Y2275716D01*
X5785378Y2262354D01*
X5778146Y2244896D01*
Y2225999D01*
X5785378Y2208541D01*
X5798739Y2195179D01*
X5816198Y2187948D01*
X5835094D01*
X5852552Y2195179D01*
X5865914Y2208541D01*
X5873146Y2225999D01*
Y2244896D01*
X5865914Y2262354D01*
X5852552Y2275716D01*
X5835094Y2282947D01*
D02*
G37*
G36*
X4339448Y2267500D02*
X4320552D01*
X4303094Y2260268D01*
X4289732Y2246906D01*
X4282500Y2229448D01*
Y2210552D01*
X4289732Y2193093D01*
X4303094Y2179731D01*
X4320552Y2172500D01*
X4339448D01*
X4356906Y2179731D01*
X4370268Y2193093D01*
X4377500Y2210552D01*
Y2229448D01*
X4370268Y2246906D01*
X4356906Y2260268D01*
X4339448Y2267500D01*
D02*
G37*
G36*
X6352125Y2315000D02*
X6333228D01*
X6315770Y2307769D01*
X6302408Y2294407D01*
X6295177Y2276948D01*
Y2258052D01*
X6296846Y2254021D01*
X6289049Y2246224D01*
X6281818Y2228766D01*
Y2209869D01*
X6289049Y2192411D01*
X6302411Y2179049D01*
X6319870Y2171818D01*
X6338766D01*
X6356224Y2179049D01*
X6369586Y2192411D01*
X6376818Y2209869D01*
Y2228766D01*
X6375148Y2232797D01*
X6382945Y2240594D01*
X6390176Y2258052D01*
Y2276948D01*
X6382945Y2294407D01*
X6369583Y2307769D01*
X6352125Y2315000D01*
D02*
G37*
G36*
X6979449Y2260713D02*
X6960552D01*
X6943094Y2253481D01*
X6929732Y2240119D01*
X6922501Y2222661D01*
Y2203764D01*
X6929732Y2186306D01*
X6943094Y2172944D01*
X6960552Y2165713D01*
X6979449D01*
X6996907Y2172944D01*
X7010269Y2186306D01*
X7017500Y2203764D01*
Y2222661D01*
X7010269Y2240119D01*
X6996907Y2253481D01*
X6979449Y2260713D01*
D02*
G37*
G36*
X5410531Y2257989D02*
X5391634D01*
X5374176Y2250757D01*
X5360814Y2237396D01*
X5353583Y2219937D01*
Y2201041D01*
X5360814Y2183583D01*
X5374176Y2170221D01*
X5391634Y2162989D01*
X5410531D01*
X5427989Y2170221D01*
X5441351Y2183583D01*
X5448582Y2201041D01*
Y2219937D01*
X5441351Y2237396D01*
X5427989Y2250757D01*
X5410531Y2257989D01*
D02*
G37*
G36*
X6012194Y2257500D02*
X5993297D01*
X5975839Y2250269D01*
X5962477Y2236907D01*
X5955246Y2219449D01*
Y2200552D01*
X5962477Y2183094D01*
X5975839Y2169732D01*
X5993297Y2162501D01*
X6012194D01*
X6029652Y2169732D01*
X6043014Y2183094D01*
X6050245Y2200552D01*
Y2219449D01*
X6043014Y2236907D01*
X6029652Y2250269D01*
X6012194Y2257500D01*
D02*
G37*
G36*
X8228636Y2265000D02*
X8123000D01*
Y2161864D01*
X8154250D01*
X8173502Y2164399D01*
X8191443Y2171830D01*
X8206849Y2183651D01*
X8218670Y2199057D01*
X8226101Y2216998D01*
X8228636Y2236250D01*
Y2265000D01*
D02*
G37*
G36*
X8103000D02*
X7997364D01*
Y2236250D01*
X7999898Y2216998D01*
X8007330Y2199057D01*
X8019151Y2183651D01*
X8034557Y2171830D01*
X8052497Y2164399D01*
X8071750Y2161864D01*
X8103000D01*
Y2265000D01*
D02*
G37*
G36*
X7468387Y2286290D02*
X7449490D01*
X7432032Y2279058D01*
X7418670Y2265697D01*
X7411439Y2248238D01*
Y2230645D01*
X7398843Y2218049D01*
X7391612Y2200591D01*
Y2181695D01*
X7398843Y2164236D01*
X7412205Y2150875D01*
X7429664Y2143643D01*
X7448560D01*
X7466018Y2150875D01*
X7479380Y2164236D01*
X7486612Y2181695D01*
Y2199288D01*
X7499207Y2211884D01*
X7506438Y2229342D01*
Y2248238D01*
X7499207Y2265697D01*
X7485845Y2279058D01*
X7468387Y2286290D01*
D02*
G37*
G36*
X3463308Y2216870D02*
X3444411D01*
X3426953Y2209639D01*
X3413591Y2196277D01*
X3406360Y2178819D01*
Y2159922D01*
X3413591Y2142464D01*
X3426953Y2129102D01*
X3444411Y2121871D01*
X3463308D01*
X3480766Y2129102D01*
X3494128Y2142464D01*
X3501359Y2159922D01*
Y2178819D01*
X3494128Y2196277D01*
X3480766Y2209639D01*
X3463308Y2216870D01*
D02*
G37*
G36*
X7149448Y2177500D02*
X7130552D01*
X7113094Y2170268D01*
X7099732Y2156907D01*
X7092500Y2139448D01*
Y2120552D01*
X7099732Y2103094D01*
X7113094Y2089732D01*
X7130552Y2082500D01*
X7149448D01*
X7166907Y2089732D01*
X7180269Y2103094D01*
X7187500Y2120552D01*
Y2139448D01*
X7180269Y2156907D01*
X7166907Y2170268D01*
X7149448Y2177500D01*
D02*
G37*
G36*
X5607381Y2239287D02*
X5588484D01*
X5571026Y2232056D01*
X5557664Y2218694D01*
X5550433Y2201236D01*
Y2182339D01*
X5557664Y2164881D01*
X5568376Y2154169D01*
X5567920Y2151874D01*
X5554558Y2138512D01*
X5547327Y2121054D01*
Y2102157D01*
X5554558Y2084699D01*
X5567920Y2071337D01*
X5585378Y2064106D01*
X5604275D01*
X5621733Y2071337D01*
X5635095Y2084699D01*
X5642326Y2102157D01*
Y2121054D01*
X5635095Y2138512D01*
X5624383Y2149224D01*
X5624839Y2151519D01*
X5638201Y2164881D01*
X5645432Y2182339D01*
Y2201236D01*
X5638201Y2218694D01*
X5624839Y2232056D01*
X5607381Y2239287D01*
D02*
G37*
G36*
X6099448Y2147500D02*
X6080552D01*
X6063094Y2140269D01*
X6049732Y2126907D01*
X6042500Y2109448D01*
Y2090552D01*
X6049732Y2073094D01*
X6063094Y2059732D01*
X6080552Y2052500D01*
X6099448D01*
X6116906Y2059732D01*
X6130268Y2073094D01*
X6137500Y2090552D01*
Y2109448D01*
X6130268Y2126907D01*
X6116906Y2140269D01*
X6099448Y2147500D01*
D02*
G37*
G36*
X7249448Y2097500D02*
X7230552D01*
X7213094Y2090268D01*
X7199732Y2076906D01*
X7192500Y2059448D01*
Y2040552D01*
X7199732Y2023093D01*
X7213094Y2009732D01*
X7230552Y2002500D01*
X7249448D01*
X7266906Y2009732D01*
X7280268Y2023093D01*
X7287500Y2040552D01*
Y2059448D01*
X7280268Y2076906D01*
X7266906Y2090268D01*
X7249448Y2097500D01*
D02*
G37*
G36*
X2619727Y2085434D02*
X2600830D01*
X2583372Y2078203D01*
X2570010Y2064841D01*
X2562779Y2047382D01*
Y2028486D01*
X2570010Y2011028D01*
X2583372Y1997666D01*
X2600830Y1990434D01*
X2619727D01*
X2637185Y1997666D01*
X2650547Y2011028D01*
X2657778Y2028486D01*
Y2047382D01*
X2650547Y2064841D01*
X2637185Y2078203D01*
X2619727Y2085434D01*
D02*
G37*
G36*
X6759448Y2247500D02*
X6740552D01*
X6723093Y2240268D01*
X6709732Y2226906D01*
X6702500Y2209448D01*
Y2190552D01*
X6709732Y2173093D01*
X6719409Y2163416D01*
X6722920Y2159124D01*
X6719786Y2148113D01*
X6713102Y2141430D01*
X6705871Y2123971D01*
Y2105075D01*
X6713102Y2087617D01*
X6720792Y2079927D01*
X6721957Y2064122D01*
X6719126Y2061290D01*
X6711894Y2043832D01*
Y2024935D01*
X6719126Y2007477D01*
X6732488Y1994115D01*
X6749946Y1986884D01*
X6768842D01*
X6786301Y1994115D01*
X6799663Y2007477D01*
X6806894Y2024935D01*
Y2043832D01*
X6799663Y2061290D01*
X6791973Y2068980D01*
X6790808Y2084785D01*
X6793639Y2087617D01*
X6800871Y2105075D01*
Y2123971D01*
X6793639Y2141430D01*
X6783961Y2151107D01*
X6780450Y2155399D01*
X6783585Y2166410D01*
X6790268Y2173093D01*
X6797500Y2190552D01*
Y2209448D01*
X6790268Y2226906D01*
X6776906Y2240268D01*
X6759448Y2247500D01*
D02*
G37*
G36*
X7441811Y2101952D02*
X7422914D01*
X7405456Y2094720D01*
X7392094Y2081359D01*
X7384863Y2063900D01*
Y2045004D01*
X7390592Y2031174D01*
X7390026Y2030608D01*
X7382795Y2013150D01*
Y1994254D01*
X7390026Y1976795D01*
X7403388Y1963433D01*
X7420846Y1956202D01*
X7439743D01*
X7457201Y1963433D01*
X7470563Y1976795D01*
X7477794Y1994254D01*
Y2013150D01*
X7472066Y2026980D01*
X7472631Y2027546D01*
X7479862Y2045004D01*
Y2063900D01*
X7472631Y2081359D01*
X7459269Y2094720D01*
X7441811Y2101952D01*
D02*
G37*
G36*
X5629448Y2047500D02*
X5610552D01*
X5593093Y2040268D01*
X5579732Y2026907D01*
X5572500Y2009448D01*
Y1990552D01*
X5579732Y1973094D01*
X5593093Y1959732D01*
X5610552Y1952500D01*
X5629448D01*
X5646906Y1959732D01*
X5660268Y1973094D01*
X5667500Y1990552D01*
Y2009448D01*
X5660268Y2026907D01*
X5646906Y2040268D01*
X5629448Y2047500D01*
D02*
G37*
G36*
X6349448Y2137500D02*
X6330552D01*
X6313094Y2130268D01*
X6299732Y2116906D01*
X6292500Y2099448D01*
Y2083266D01*
X6284705Y2080037D01*
X6271343Y2066675D01*
X6264112Y2049217D01*
Y2030321D01*
X6271343Y2012862D01*
X6284705Y1999500D01*
X6302163Y1992269D01*
X6321060D01*
X6332372Y1996955D01*
X6344373Y1989676D01*
Y1986323D01*
X6351604Y1968865D01*
X6364966Y1955503D01*
X6382424Y1948272D01*
X6401321D01*
X6418779Y1955503D01*
X6432141Y1968865D01*
X6439372Y1986323D01*
Y2005220D01*
X6432141Y2022678D01*
X6418779Y2036040D01*
X6401321Y2043271D01*
X6382424D01*
X6371671Y2038817D01*
X6366907Y2049732D01*
X6380268Y2063093D01*
X6387500Y2080552D01*
Y2099448D01*
X6380268Y2116906D01*
X6366906Y2130268D01*
X6349448Y2137500D01*
D02*
G37*
G36*
X6975220Y2026253D02*
X6956324D01*
X6938866Y2019022D01*
X6925504Y2005660D01*
X6918272Y1988202D01*
Y1969305D01*
X6925504Y1951847D01*
X6938866Y1938485D01*
X6956324Y1931253D01*
X6975220D01*
X6992679Y1938485D01*
X7006041Y1951847D01*
X7013272Y1969305D01*
Y1988202D01*
X7006041Y2005660D01*
X6992679Y2019022D01*
X6975220Y2026253D01*
D02*
G37*
G36*
X7889448Y1967500D02*
X7870552D01*
X7853094Y1960268D01*
X7839732Y1946906D01*
X7832500Y1929448D01*
Y1910552D01*
X7839059Y1894717D01*
X7833218Y1888213D01*
X7830574Y1886232D01*
X7813746Y1893202D01*
X7794850D01*
X7777391Y1885971D01*
X7764029Y1872609D01*
X7756798Y1855150D01*
Y1836254D01*
X7764029Y1818796D01*
X7777391Y1805434D01*
X7794850Y1798202D01*
X7813746D01*
X7831204Y1805434D01*
X7844566Y1818796D01*
X7851798Y1836254D01*
Y1855150D01*
X7845239Y1870985D01*
X7851080Y1877489D01*
X7853724Y1879470D01*
X7870552Y1872500D01*
X7889448D01*
X7906906Y1879732D01*
X7920268Y1893093D01*
X7927500Y1910552D01*
Y1929448D01*
X7920268Y1946906D01*
X7906906Y1960268D01*
X7889448Y1967500D01*
D02*
G37*
G36*
X6111177Y1937229D02*
X6092280D01*
X6074822Y1929997D01*
X6061460Y1916635D01*
X6054229Y1899177D01*
Y1880280D01*
X6061460Y1862822D01*
X6074822Y1849460D01*
X6092280Y1842229D01*
X6111177D01*
X6128635Y1849460D01*
X6141997Y1862822D01*
X6149228Y1880280D01*
Y1899177D01*
X6141997Y1916635D01*
X6128635Y1929997D01*
X6111177Y1937229D01*
D02*
G37*
G36*
X8283525Y2007849D02*
X8264629D01*
X8247170Y2000618D01*
X8233809Y1987256D01*
X8226577Y1969798D01*
Y1951923D01*
X8224084Y1950891D01*
X8210722Y1937529D01*
X8203491Y1920071D01*
Y1901174D01*
X8210722Y1883716D01*
X8224084Y1870354D01*
X8241543Y1863123D01*
X8260439D01*
X8277897Y1870354D01*
X8281406Y1873863D01*
X8293406Y1868892D01*
Y1860075D01*
X8300637Y1842617D01*
X8313999Y1829255D01*
X8331458Y1822023D01*
X8350354D01*
X8367812Y1829255D01*
X8381174Y1842617D01*
X8388406Y1860075D01*
Y1878971D01*
X8381174Y1896430D01*
X8375274Y1902330D01*
X8384212Y1911268D01*
X8391443Y1928726D01*
Y1947623D01*
X8384212Y1965081D01*
X8370850Y1978443D01*
X8353392Y1985674D01*
X8334495D01*
X8317855Y1978782D01*
X8314345Y1987256D01*
X8300983Y2000618D01*
X8283525Y2007849D01*
D02*
G37*
G36*
X5840744Y1914704D02*
X5821848D01*
X5804389Y1907472D01*
X5791028Y1894110D01*
X5783796Y1876652D01*
Y1857755D01*
X5791028Y1840297D01*
X5804389Y1826935D01*
X5821848Y1819704D01*
X5840744D01*
X5858202Y1826935D01*
X5871564Y1840297D01*
X5878796Y1857755D01*
Y1876652D01*
X5871564Y1894110D01*
X5858202Y1907472D01*
X5840744Y1914704D01*
D02*
G37*
G36*
X6347490Y1914557D02*
X6328594D01*
X6311136Y1907326D01*
X6297774Y1893964D01*
X6290542Y1876506D01*
Y1867500D01*
X6280552D01*
X6263094Y1860268D01*
X6249732Y1846906D01*
X6242500Y1829448D01*
Y1810552D01*
X6249732Y1793093D01*
X6263094Y1779732D01*
X6280552Y1772500D01*
X6299448D01*
X6316907Y1779732D01*
X6330269Y1793093D01*
X6337500Y1810552D01*
Y1819557D01*
X6347490D01*
X6364949Y1826789D01*
X6378311Y1840151D01*
X6385542Y1857609D01*
Y1876506D01*
X6378311Y1893964D01*
X6364949Y1907326D01*
X6347490Y1914557D01*
D02*
G37*
G36*
X1969448Y1864891D02*
X1950551D01*
X1933093Y1857660D01*
X1919731Y1844298D01*
X1912500Y1826840D01*
Y1807943D01*
X1919731Y1790485D01*
X1933093Y1777123D01*
X1950551Y1769892D01*
X1969448D01*
X1986906Y1777123D01*
X2000268Y1790485D01*
X2007499Y1807943D01*
Y1826840D01*
X2000268Y1844298D01*
X1986906Y1857660D01*
X1969448Y1864891D01*
D02*
G37*
G36*
X6012194Y1838409D02*
X5993297D01*
X5975839Y1831177D01*
X5962477Y1817816D01*
X5955246Y1800357D01*
Y1781461D01*
X5962477Y1764003D01*
X5975839Y1750641D01*
X5993297Y1743409D01*
X6012194D01*
X6029652Y1750641D01*
X6043014Y1764003D01*
X6050245Y1781461D01*
Y1800357D01*
X6043014Y1817816D01*
X6029652Y1831177D01*
X6012194Y1838409D01*
D02*
G37*
G36*
X5410936Y1818350D02*
X5392040D01*
X5374581Y1811119D01*
X5361219Y1797757D01*
X5353988Y1780298D01*
Y1761402D01*
X5361219Y1743944D01*
X5374581Y1730582D01*
X5392040Y1723350D01*
X5410936D01*
X5428394Y1730582D01*
X5441756Y1743944D01*
X5448988Y1761402D01*
Y1780298D01*
X5441756Y1797757D01*
X5428394Y1811119D01*
X5410936Y1818350D01*
D02*
G37*
G36*
X5609170Y1815595D02*
X5590274D01*
X5572816Y1808364D01*
X5559454Y1795002D01*
X5552222Y1777544D01*
Y1758647D01*
X5559454Y1741189D01*
X5561286Y1739356D01*
X5551821Y1729891D01*
X5544590Y1712433D01*
Y1693536D01*
X5551821Y1676078D01*
X5565183Y1662716D01*
X5582641Y1655485D01*
X5601538D01*
X5618996Y1662716D01*
X5632358Y1676078D01*
X5639589Y1693536D01*
Y1712433D01*
X5632358Y1729891D01*
X5630525Y1731724D01*
X5639990Y1741189D01*
X5647222Y1758647D01*
Y1777544D01*
X5639990Y1795002D01*
X5626629Y1808364D01*
X5609170Y1815595D01*
D02*
G37*
G36*
X5169448Y1747500D02*
X5150552D01*
X5133094Y1740268D01*
X5119732Y1726906D01*
X5112500Y1709448D01*
Y1690552D01*
X5119732Y1673093D01*
X5133094Y1659732D01*
X5150552Y1652500D01*
X5169448D01*
X5186907Y1659732D01*
X5200268Y1673093D01*
X5207500Y1690552D01*
Y1709448D01*
X5200268Y1726906D01*
X5186907Y1740268D01*
X5169448Y1747500D01*
D02*
G37*
G36*
X6101280Y1713853D02*
X6082384D01*
X6064925Y1706621D01*
X6051563Y1693260D01*
X6044332Y1675801D01*
Y1656905D01*
X6051563Y1639447D01*
X6064925Y1626085D01*
X6082384Y1618853D01*
X6101280D01*
X6118738Y1626085D01*
X6132100Y1639447D01*
X6139332Y1656905D01*
Y1675801D01*
X6132100Y1693260D01*
X6118738Y1706621D01*
X6101280Y1713853D01*
D02*
G37*
G36*
X8197679Y1764781D02*
X8178782D01*
X8161324Y1757550D01*
X8147962Y1744188D01*
X8140731Y1726730D01*
Y1707833D01*
X8147962Y1690375D01*
X8150581Y1687756D01*
X8149731Y1686906D01*
X8142500Y1669448D01*
Y1650552D01*
X8149731Y1633094D01*
X8163093Y1619732D01*
X8180552Y1612500D01*
X8199448D01*
X8216906Y1619732D01*
X8230268Y1633094D01*
X8237500Y1650552D01*
Y1669448D01*
X8230268Y1686906D01*
X8227649Y1689525D01*
X8228499Y1690375D01*
X8235730Y1707833D01*
Y1726730D01*
X8228499Y1744188D01*
X8215137Y1757550D01*
X8197679Y1764781D01*
D02*
G37*
G36*
X8347955Y1769334D02*
X8329058D01*
X8311600Y1762102D01*
X8298238Y1748740D01*
X8291007Y1731282D01*
Y1712385D01*
X8298238Y1694927D01*
X8307557Y1685609D01*
X8295607Y1673660D01*
X8288376Y1656201D01*
Y1637305D01*
X8295607Y1619847D01*
X8308969Y1606485D01*
X8326427Y1599253D01*
X8345324D01*
X8362782Y1606485D01*
X8376144Y1619847D01*
X8383375Y1637305D01*
Y1656201D01*
X8376144Y1673660D01*
X8366826Y1682978D01*
X8378775Y1694927D01*
X8386006Y1712385D01*
Y1731282D01*
X8378775Y1748740D01*
X8365413Y1762102D01*
X8347955Y1769334D01*
D02*
G37*
G36*
X4608943Y1667480D02*
X4590046D01*
X4572588Y1660249D01*
X4559226Y1646887D01*
X4551995Y1629429D01*
Y1610532D01*
X4559226Y1593074D01*
X4572588Y1579712D01*
X4590046Y1572481D01*
X4608943D01*
X4626401Y1579712D01*
X4639763Y1593074D01*
X4646994Y1610532D01*
Y1629429D01*
X4639763Y1646887D01*
X4626401Y1660249D01*
X4608943Y1667480D01*
D02*
G37*
G36*
X6349448Y1707500D02*
X6330552D01*
X6313094Y1700268D01*
X6299732Y1686906D01*
X6292500Y1669448D01*
Y1657500D01*
X6290552D01*
X6273094Y1650268D01*
X6259732Y1636907D01*
X6252500Y1619448D01*
Y1600552D01*
X6259732Y1583094D01*
X6273094Y1569732D01*
X6290552Y1562500D01*
X6309448D01*
X6326907Y1569732D01*
X6340268Y1583094D01*
X6347500Y1600552D01*
Y1612500D01*
X6349448D01*
X6366906Y1619732D01*
X6380268Y1633094D01*
X6387500Y1650552D01*
Y1669448D01*
X6380268Y1686906D01*
X6366906Y1700268D01*
X6349448Y1707500D01*
D02*
G37*
G36*
X5477619Y1626301D02*
X5458722D01*
X5441264Y1619070D01*
X5427902Y1605708D01*
X5420671Y1588250D01*
Y1569353D01*
X5427902Y1551895D01*
X5441264Y1538533D01*
X5458722Y1531302D01*
X5477619D01*
X5495077Y1538533D01*
X5508439Y1551895D01*
X5515670Y1569353D01*
Y1588250D01*
X5508439Y1605708D01*
X5495077Y1619070D01*
X5477619Y1626301D01*
D02*
G37*
G36*
X7161806Y1554568D02*
X7142909D01*
X7125451Y1547337D01*
X7112089Y1533975D01*
X7104858Y1516517D01*
Y1497620D01*
X7112089Y1480162D01*
X7125451Y1466800D01*
X7142909Y1459569D01*
X7161806D01*
X7179264Y1466800D01*
X7192626Y1480162D01*
X7199857Y1497620D01*
Y1516517D01*
X7192626Y1533975D01*
X7179264Y1547337D01*
X7161806Y1554568D01*
D02*
G37*
G36*
X4239448Y1587500D02*
X4220552D01*
X4203093Y1580268D01*
X4189732Y1566906D01*
X4182500Y1549448D01*
Y1530552D01*
X4188615Y1515790D01*
X4179732Y1506907D01*
X4172500Y1489448D01*
Y1470552D01*
X4179732Y1453094D01*
X4193093Y1439732D01*
X4210552Y1432500D01*
X4229448D01*
X4246906Y1439732D01*
X4260268Y1453094D01*
X4267500Y1470552D01*
Y1489448D01*
X4261385Y1504210D01*
X4270268Y1513093D01*
X4277500Y1530552D01*
Y1549448D01*
X4270268Y1566906D01*
X4256906Y1580268D01*
X4239448Y1587500D01*
D02*
G37*
G36*
X1881548Y1522274D02*
X1862652D01*
X1845194Y1515043D01*
X1831832Y1501681D01*
X1824600Y1484223D01*
Y1465326D01*
X1831832Y1447868D01*
X1845194Y1434506D01*
X1862652Y1427275D01*
X1881548D01*
X1899007Y1434506D01*
X1912369Y1447868D01*
X1919600Y1465326D01*
Y1484223D01*
X1912369Y1501681D01*
X1899007Y1515043D01*
X1881548Y1522274D01*
D02*
G37*
G36*
X3339448Y1517500D02*
X3320552D01*
X3303093Y1510269D01*
X3289732Y1496907D01*
X3282500Y1479448D01*
Y1460552D01*
X3289732Y1443094D01*
X3303093Y1429732D01*
X3320552Y1422500D01*
X3339448D01*
X3356906Y1429732D01*
X3370268Y1443094D01*
X3377500Y1460552D01*
Y1479448D01*
X3370268Y1496907D01*
X3356906Y1510269D01*
X3339448Y1517500D01*
D02*
G37*
G36*
X4869448Y1507500D02*
X4850552D01*
X4833093Y1500268D01*
X4819732Y1486906D01*
X4812500Y1469448D01*
Y1450552D01*
X4819732Y1433093D01*
X4833093Y1419731D01*
X4850552Y1412500D01*
X4869448D01*
X4886906Y1419731D01*
X4900268Y1433093D01*
X4907500Y1450552D01*
Y1469448D01*
X4900268Y1486906D01*
X4886906Y1500268D01*
X4869448Y1507500D01*
D02*
G37*
G36*
X6367796Y1491455D02*
X6348899D01*
X6331441Y1484224D01*
X6318079Y1470862D01*
X6310848Y1453404D01*
Y1434507D01*
X6318079Y1417049D01*
X6331441Y1403687D01*
X6348899Y1396456D01*
X6367796D01*
X6385254Y1403687D01*
X6398616Y1417049D01*
X6405847Y1434507D01*
Y1453404D01*
X6398616Y1470862D01*
X6385254Y1484224D01*
X6367796Y1491455D01*
D02*
G37*
G36*
X8200408Y1520340D02*
X8181512D01*
X8164054Y1513109D01*
X8150692Y1499747D01*
X8143460Y1482289D01*
Y1463392D01*
X8150126Y1447301D01*
X8149731Y1446906D01*
X8142500Y1429448D01*
Y1410552D01*
X8149731Y1393093D01*
X8163093Y1379732D01*
X8180552Y1372500D01*
X8199448D01*
X8216906Y1379732D01*
X8230268Y1393093D01*
X8237500Y1410552D01*
Y1429448D01*
X8230834Y1445540D01*
X8231228Y1445934D01*
X8238460Y1463392D01*
Y1482289D01*
X8231228Y1499747D01*
X8217866Y1513109D01*
X8200408Y1520340D01*
D02*
G37*
G36*
X6098721Y1449802D02*
X6079824D01*
X6062366Y1442571D01*
X6049004Y1429209D01*
X6041773Y1411751D01*
Y1392854D01*
X6049004Y1375396D01*
X6062366Y1362034D01*
X6079824Y1354802D01*
X6098721D01*
X6116179Y1362034D01*
X6129541Y1375396D01*
X6136772Y1392854D01*
Y1411751D01*
X6129541Y1429209D01*
X6116179Y1442571D01*
X6098721Y1449802D01*
D02*
G37*
G36*
X5254478Y1445607D02*
X5235582D01*
X5218123Y1438376D01*
X5204761Y1425014D01*
X5197530Y1407556D01*
Y1388659D01*
X5204761Y1371201D01*
X5218123Y1357839D01*
X5235582Y1350608D01*
X5254478D01*
X5271936Y1357839D01*
X5285298Y1371201D01*
X5292530Y1388659D01*
Y1407556D01*
X5285298Y1425014D01*
X5271936Y1438376D01*
X5254478Y1445607D01*
D02*
G37*
G36*
X4789448Y1427500D02*
X4770552D01*
X4753094Y1420268D01*
X4739732Y1406907D01*
X4732500Y1389448D01*
Y1370552D01*
X4739732Y1353094D01*
X4753094Y1339732D01*
X4770552Y1332500D01*
X4789448D01*
X4806907Y1339732D01*
X4820268Y1353094D01*
X4827500Y1370552D01*
Y1389448D01*
X4820268Y1406907D01*
X4806907Y1420268D01*
X4789448Y1427500D01*
D02*
G37*
G36*
X6935336Y1505815D02*
X6916439D01*
X6898981Y1498584D01*
X6885619Y1485222D01*
X6878388Y1467764D01*
Y1448867D01*
X6885619Y1431409D01*
X6889631Y1427397D01*
X6887290Y1415627D01*
X6882555Y1413666D01*
X6869193Y1400304D01*
X6861961Y1382846D01*
Y1363949D01*
X6869193Y1346491D01*
X6882555Y1333129D01*
X6900013Y1325898D01*
X6918909D01*
X6936368Y1333129D01*
X6949730Y1346491D01*
X6956961Y1363949D01*
Y1382846D01*
X6949730Y1400304D01*
X6945717Y1404316D01*
X6948058Y1416086D01*
X6952794Y1418047D01*
X6966156Y1431409D01*
X6973387Y1448867D01*
Y1467764D01*
X6966156Y1485222D01*
X6952794Y1498584D01*
X6935336Y1505815D01*
D02*
G37*
G36*
X6554288Y1488414D02*
X6535392D01*
X6517933Y1481182D01*
X6504571Y1467820D01*
X6497340Y1450362D01*
Y1431466D01*
X6501816Y1420660D01*
X6497158Y1405742D01*
X6492105Y1403649D01*
X6478743Y1390287D01*
X6471512Y1372829D01*
Y1353932D01*
X6478743Y1336474D01*
X6492105Y1323112D01*
X6509563Y1315881D01*
X6528460D01*
X6545918Y1323112D01*
X6555500Y1332694D01*
X6560963Y1331887D01*
X6568240Y1329135D01*
X6574732Y1313463D01*
X6588094Y1300102D01*
X6605552Y1292870D01*
X6624448D01*
X6641906Y1300102D01*
X6655268Y1313463D01*
X6662500Y1330922D01*
Y1349818D01*
X6655268Y1367276D01*
X6641906Y1380638D01*
X6624448Y1387870D01*
X6605552D01*
X6588094Y1380638D01*
X6578511Y1371056D01*
X6573049Y1371863D01*
X6565771Y1374615D01*
X6562036Y1383634D01*
X6566693Y1398552D01*
X6571746Y1400645D01*
X6585108Y1414007D01*
X6592340Y1431466D01*
Y1450362D01*
X6585108Y1467820D01*
X6571746Y1481182D01*
X6554288Y1488414D01*
D02*
G37*
G36*
X7468222Y1312464D02*
X7449325D01*
X7431867Y1305233D01*
X7418505Y1291871D01*
X7411273Y1274413D01*
Y1266703D01*
X7399273Y1258685D01*
X7394466Y1260676D01*
X7375569D01*
X7358111Y1253445D01*
X7344749Y1240083D01*
X7337518Y1222625D01*
Y1203728D01*
X7344749Y1186270D01*
X7358111Y1172908D01*
X7375569Y1165677D01*
X7394466D01*
X7411924Y1172908D01*
X7425286Y1186270D01*
X7432517Y1203728D01*
Y1211438D01*
X7444517Y1219456D01*
X7449325Y1217465D01*
X7468222D01*
X7485680Y1224696D01*
X7499042Y1238058D01*
X7506273Y1255516D01*
Y1274413D01*
X7499042Y1291871D01*
X7485680Y1305233D01*
X7468222Y1312464D01*
D02*
G37*
G36*
X6269448Y1337500D02*
X6250551D01*
X6233093Y1330269D01*
X6219731Y1316907D01*
X6212500Y1299449D01*
Y1280552D01*
X6219731Y1263094D01*
X6233093Y1249732D01*
X6250551Y1242500D01*
X6269448D01*
X6286906Y1249732D01*
X6300268Y1263094D01*
X6307499Y1280552D01*
Y1299449D01*
X6300268Y1316907D01*
X6286906Y1330269D01*
X6269448Y1337500D01*
D02*
G37*
G36*
X3910796Y1356153D02*
X3891899D01*
X3874441Y1348921D01*
X3861079Y1335559D01*
X3853848Y1318101D01*
Y1299205D01*
X3861079Y1281746D01*
X3874441Y1268385D01*
X3877385Y1267165D01*
Y1254176D01*
X3873440Y1252543D01*
X3860078Y1239181D01*
X3854745Y1226304D01*
X3844718Y1230457D01*
X3825821D01*
X3808363Y1223225D01*
X3795001Y1209863D01*
X3787770Y1192405D01*
Y1173509D01*
X3795001Y1156051D01*
X3808363Y1142689D01*
X3825821Y1135457D01*
X3838416D01*
Y1131007D01*
X3845647Y1113549D01*
X3859009Y1100187D01*
X3876467Y1092956D01*
X3895364D01*
X3912822Y1100187D01*
X3926184Y1113549D01*
X3933416Y1131007D01*
Y1149904D01*
X3929291Y1159861D01*
X3927254Y1172006D01*
X3940615Y1185368D01*
X3947847Y1202826D01*
Y1221722D01*
X3940615Y1239181D01*
X3927253Y1252543D01*
X3924309Y1253762D01*
Y1266751D01*
X3928254Y1268385D01*
X3941616Y1281746D01*
X3948847Y1299205D01*
Y1318101D01*
X3941616Y1335559D01*
X3928254Y1348921D01*
X3910796Y1356153D01*
D02*
G37*
G36*
X8200584Y1360106D02*
X8181687D01*
X8164229Y1352874D01*
X8150867Y1339512D01*
X8143635Y1322054D01*
Y1303158D01*
X8148392Y1291675D01*
X8144804Y1288087D01*
X8137572Y1270629D01*
Y1251732D01*
X8144804Y1234274D01*
X8158166Y1220912D01*
X8175624Y1213681D01*
X8194521D01*
X8211979Y1220912D01*
X8225341Y1234274D01*
X8232572Y1251732D01*
Y1270629D01*
X8227816Y1282111D01*
X8231404Y1285699D01*
X8238635Y1303158D01*
Y1322054D01*
X8231404Y1339512D01*
X8218042Y1352874D01*
X8200584Y1360106D01*
D02*
G37*
G36*
X5864448Y1372500D02*
X5845551D01*
X5828093Y1365269D01*
X5814731Y1351907D01*
X5807500Y1334449D01*
Y1315552D01*
X5814731Y1298094D01*
X5828093Y1284732D01*
X5832975Y1282710D01*
Y1265996D01*
X5840206Y1248538D01*
X5853568Y1235176D01*
X5863206Y1231183D01*
Y1220018D01*
X5870438Y1202560D01*
X5883800Y1189198D01*
X5901258Y1181967D01*
X5920154D01*
X5937612Y1189198D01*
X5950974Y1202560D01*
X5958206Y1220018D01*
Y1238915D01*
X5950974Y1256373D01*
X5937612Y1269735D01*
X5927974Y1273727D01*
Y1284892D01*
X5920743Y1302350D01*
X5907381Y1315712D01*
X5902499Y1317734D01*
Y1334449D01*
X5895268Y1351907D01*
X5881906Y1365269D01*
X5864448Y1372500D01*
D02*
G37*
G36*
X6593406Y1270566D02*
X6574509D01*
X6557051Y1263334D01*
X6543689Y1249972D01*
X6536458Y1232514D01*
Y1213618D01*
X6543689Y1196159D01*
X6557051Y1182797D01*
X6574509Y1175566D01*
X6593406D01*
X6610864Y1182797D01*
X6624226Y1196159D01*
X6631457Y1213618D01*
Y1232514D01*
X6624226Y1249972D01*
X6610864Y1263334D01*
X6593406Y1270566D01*
D02*
G37*
G36*
X7660009Y1297822D02*
X7641112D01*
X7623654Y1290590D01*
X7610292Y1277228D01*
X7603061Y1259770D01*
Y1240874D01*
X7609001Y1226534D01*
X7602061Y1209780D01*
Y1190884D01*
X7609292Y1173425D01*
X7622654Y1160063D01*
X7640112Y1152832D01*
X7659009D01*
X7676467Y1160063D01*
X7689829Y1173425D01*
X7697061Y1190884D01*
Y1209780D01*
X7691121Y1224120D01*
X7698061Y1240874D01*
Y1259770D01*
X7690829Y1277228D01*
X7677467Y1290590D01*
X7660009Y1297822D01*
D02*
G37*
G36*
X6349448Y1247500D02*
X6330552D01*
X6313094Y1240268D01*
X6299732Y1226906D01*
X6292500Y1209448D01*
Y1190552D01*
X6299732Y1173093D01*
X6313094Y1159731D01*
X6330552Y1152500D01*
X6349448D01*
X6366906Y1159731D01*
X6380268Y1173093D01*
X6387500Y1190552D01*
Y1209448D01*
X6380268Y1226906D01*
X6366906Y1240268D01*
X6349448Y1247500D01*
D02*
G37*
G36*
X5320033Y1232129D02*
X5301136D01*
X5283678Y1224898D01*
X5270316Y1211536D01*
X5263084Y1194078D01*
Y1175181D01*
X5270316Y1157723D01*
X5283678Y1144361D01*
X5301136Y1137130D01*
X5320033D01*
X5337491Y1144361D01*
X5350853Y1157723D01*
X5358084Y1175181D01*
Y1194078D01*
X5350853Y1211536D01*
X5337491Y1224898D01*
X5320033Y1232129D01*
D02*
G37*
G36*
X2136528Y1230554D02*
X2117632D01*
X2100173Y1223322D01*
X2086811Y1209960D01*
X2079580Y1192502D01*
Y1173605D01*
X2086811Y1156147D01*
X2100173Y1142785D01*
X2117632Y1135554D01*
X2136528D01*
X2153986Y1142785D01*
X2167348Y1156147D01*
X2174580Y1173605D01*
Y1192502D01*
X2167348Y1209960D01*
X2153986Y1223322D01*
X2136528Y1230554D01*
D02*
G37*
G36*
X7156948Y1203986D02*
X7138052D01*
X7120594Y1196754D01*
X7107232Y1183392D01*
X7100000Y1165934D01*
Y1147038D01*
X7107232Y1129579D01*
X7120594Y1116217D01*
X7138052Y1108986D01*
X7156948D01*
X7174407Y1116217D01*
X7187768Y1129579D01*
X7195000Y1147038D01*
Y1165934D01*
X7187768Y1183392D01*
X7174407Y1196754D01*
X7156948Y1203986D01*
D02*
G37*
G36*
X4833189Y1287634D02*
X4814292D01*
X4796834Y1280403D01*
X4783472Y1267041D01*
X4776241Y1249582D01*
Y1230686D01*
X4783472Y1213228D01*
X4796834Y1199866D01*
X4803645Y1197045D01*
Y1184056D01*
X4795511Y1180686D01*
X4782149Y1167324D01*
X4774917Y1149866D01*
Y1130970D01*
X4782149Y1113511D01*
X4795511Y1100149D01*
X4812969Y1092918D01*
X4831865D01*
X4849324Y1100149D01*
X4862685Y1113511D01*
X4869917Y1130970D01*
Y1149866D01*
X4862685Y1167324D01*
X4849324Y1180686D01*
X4842512Y1183507D01*
Y1196496D01*
X4850647Y1199866D01*
X4864009Y1213228D01*
X4871240Y1230686D01*
Y1249582D01*
X4864009Y1267041D01*
X4850647Y1280403D01*
X4833189Y1287634D01*
D02*
G37*
G36*
X3479448Y1097500D02*
X3460552D01*
X3443093Y1090268D01*
X3429732Y1076906D01*
X3427993Y1072709D01*
X3416800Y1070313D01*
X3399448Y1077500D01*
X3380552D01*
X3363094Y1070268D01*
X3349732Y1056906D01*
X3342500Y1039448D01*
Y1020552D01*
X3349732Y1003093D01*
X3363094Y989732D01*
X3380552Y982500D01*
X3399448D01*
X3416907Y989732D01*
X3430268Y1003093D01*
X3432007Y1007291D01*
X3443200Y1009687D01*
X3460552Y1002500D01*
X3479448D01*
X3496906Y1009732D01*
X3510268Y1023093D01*
X3517500Y1040552D01*
Y1059448D01*
X3510268Y1076906D01*
X3496906Y1090268D01*
X3479448Y1097500D01*
D02*
G37*
G36*
X3269145Y1163423D02*
X3250248D01*
X3232790Y1156192D01*
X3219428Y1142830D01*
X3212197Y1125372D01*
Y1106475D01*
X3219428Y1089017D01*
X3232790Y1075655D01*
X3250248Y1068424D01*
X3269145D01*
X3286603Y1075655D01*
X3299965Y1089017D01*
X3307196Y1106475D01*
Y1125372D01*
X3299965Y1142830D01*
X3286603Y1156192D01*
X3269145Y1163423D01*
D02*
G37*
G36*
X6500435Y1159318D02*
X6481538D01*
X6464080Y1152087D01*
X6450718Y1138725D01*
X6443486Y1121267D01*
Y1102370D01*
X6450718Y1084912D01*
X6464080Y1071550D01*
X6481538Y1064319D01*
X6500435D01*
X6517893Y1071550D01*
X6531255Y1084912D01*
X6538486Y1102370D01*
Y1121267D01*
X6531255Y1138725D01*
X6517893Y1152087D01*
X6500435Y1159318D01*
D02*
G37*
G36*
X5545757Y1186867D02*
X5526861D01*
X5509402Y1179636D01*
X5496041Y1166274D01*
X5488809Y1148816D01*
Y1144860D01*
X5483691D01*
X5466233Y1137628D01*
X5452871Y1124266D01*
X5445640Y1106808D01*
Y1087911D01*
X5452871Y1070453D01*
X5466233Y1057091D01*
X5483691Y1049860D01*
X5502588D01*
X5520046Y1057091D01*
X5533408Y1070453D01*
X5540639Y1087911D01*
Y1091868D01*
X5545757D01*
X5557952Y1096919D01*
X5563611Y1083258D01*
X5576973Y1069896D01*
X5594431Y1062665D01*
X5613327D01*
X5630786Y1069896D01*
X5644147Y1083258D01*
X5651379Y1100716D01*
Y1119613D01*
X5644147Y1137071D01*
X5630786Y1150433D01*
X5613327Y1157664D01*
X5594431D01*
X5582236Y1152613D01*
X5576577Y1166274D01*
X5563215Y1179636D01*
X5545757Y1186867D01*
D02*
G37*
G36*
X8264389Y1052412D02*
X8245492D01*
X8228034Y1045181D01*
X8220149Y1037296D01*
X8217004Y1040442D01*
X8199546Y1047673D01*
X8180649D01*
X8163191Y1040442D01*
X8149829Y1027080D01*
X8142598Y1009622D01*
Y990725D01*
X8149829Y973267D01*
X8163191Y959905D01*
X8180649Y952673D01*
X8199546D01*
X8217004Y959905D01*
X8224889Y967790D01*
X8228034Y964644D01*
X8245492Y957413D01*
X8264389D01*
X8281847Y964644D01*
X8295209Y978006D01*
X8302440Y995464D01*
Y1014361D01*
X8295209Y1031819D01*
X8281847Y1045181D01*
X8264389Y1052412D01*
D02*
G37*
G36*
X7449448Y1127500D02*
X7430552D01*
X7413094Y1120269D01*
X7399732Y1106907D01*
X7392500Y1089448D01*
Y1070552D01*
X7399732Y1053094D01*
X7413094Y1039732D01*
X7430552Y1032500D01*
X7449448D01*
X7466907Y1039732D01*
X7480269Y1053094D01*
X7487500Y1070552D01*
Y1089448D01*
X7480269Y1106907D01*
X7466907Y1120269D01*
X7449448Y1127500D01*
D02*
G37*
G36*
X6852884Y1105233D02*
X6833988D01*
X6816530Y1098002D01*
X6803168Y1084640D01*
X6795936Y1067182D01*
Y1048285D01*
X6803168Y1030827D01*
X6816530Y1017465D01*
X6833988Y1010234D01*
X6852884D01*
X6870343Y1017465D01*
X6883705Y1030827D01*
X6890936Y1048285D01*
Y1067182D01*
X6883705Y1084640D01*
X6870343Y1098002D01*
X6852884Y1105233D01*
D02*
G37*
G36*
X7659448Y1127500D02*
X7640552D01*
X7623093Y1120269D01*
X7609732Y1106907D01*
X7602500Y1089448D01*
Y1070552D01*
X7608942Y1055000D01*
X7602500Y1039448D01*
Y1020552D01*
X7609732Y1003093D01*
X7623093Y989732D01*
X7640552Y982500D01*
X7659448D01*
X7676906Y989732D01*
X7690268Y1003093D01*
X7691373Y1005762D01*
X7698052Y1002996D01*
X7716948D01*
X7734406Y1010227D01*
X7747768Y1023589D01*
X7755000Y1041047D01*
Y1059944D01*
X7747768Y1077402D01*
X7734406Y1090764D01*
X7716948Y1097995D01*
X7698052D01*
X7694559Y1096548D01*
X7690268Y1106907D01*
X7676906Y1120269D01*
X7659448Y1127500D01*
D02*
G37*
G36*
X1966231Y1068969D02*
X1947334D01*
X1929876Y1061738D01*
X1916514Y1048376D01*
X1909283Y1030917D01*
Y1012021D01*
X1916514Y994563D01*
X1929876Y981201D01*
X1947334Y973969D01*
X1966231D01*
X1983689Y981201D01*
X1997051Y994563D01*
X2004282Y1012021D01*
Y1030917D01*
X1997051Y1048376D01*
X1983689Y1061738D01*
X1966231Y1068969D01*
D02*
G37*
G36*
X7151394Y1053158D02*
X7132498D01*
X7115040Y1045927D01*
X7101678Y1032565D01*
X7094446Y1015107D01*
Y996210D01*
X7101678Y978752D01*
X7115040Y965390D01*
X7132498Y958159D01*
X7151394D01*
X7168853Y965390D01*
X7182214Y978752D01*
X7189446Y996210D01*
Y1015107D01*
X7182214Y1032565D01*
X7168853Y1045927D01*
X7151394Y1053158D01*
D02*
G37*
G36*
X3027129Y1048805D02*
X3008232D01*
X2990774Y1041574D01*
X2977412Y1028212D01*
X2970181Y1010754D01*
Y991857D01*
X2977412Y974399D01*
X2990774Y961037D01*
X3008232Y953806D01*
X3027129D01*
X3044587Y961037D01*
X3057949Y974399D01*
X3065181Y991857D01*
Y1010754D01*
X3057949Y1028212D01*
X3044587Y1041574D01*
X3027129Y1048805D01*
D02*
G37*
G36*
X6099448Y1037499D02*
X6080552D01*
X6063094Y1030268D01*
X6049732Y1016906D01*
X6042500Y999448D01*
Y980551D01*
X6049732Y963093D01*
X6063094Y949731D01*
X6080552Y942500D01*
X6099448D01*
X6116906Y949731D01*
X6130268Y963093D01*
X6137500Y980551D01*
Y999448D01*
X6130268Y1016906D01*
X6116906Y1030268D01*
X6099448Y1037499D01*
D02*
G37*
G36*
X5343455Y1027668D02*
X5324558D01*
X5307100Y1020437D01*
X5293738Y1007075D01*
X5286507Y989617D01*
Y970720D01*
X5293738Y953262D01*
X5307100Y939900D01*
X5324558Y932669D01*
X5343455D01*
X5360913Y939900D01*
X5374275Y953262D01*
X5381506Y970720D01*
Y989617D01*
X5374275Y1007075D01*
X5360913Y1020437D01*
X5343455Y1027668D01*
D02*
G37*
G36*
X5551707Y1020254D02*
X5532810D01*
X5515352Y1013023D01*
X5501990Y999661D01*
X5494759Y982203D01*
Y963306D01*
X5501990Y945848D01*
X5515352Y932486D01*
X5532810Y925254D01*
X5551707D01*
X5569165Y932486D01*
X5582527Y945848D01*
X5589758Y963306D01*
Y982203D01*
X5582527Y999661D01*
X5569165Y1013023D01*
X5551707Y1020254D01*
D02*
G37*
G36*
X4328948Y1007000D02*
X4310052D01*
X4292594Y999769D01*
X4279232Y986407D01*
X4272000Y968949D01*
Y950052D01*
X4279232Y932594D01*
X4292594Y919232D01*
X4310052Y912000D01*
X4328948D01*
X4346407Y919232D01*
X4359769Y932594D01*
X4367000Y950052D01*
Y968949D01*
X4359769Y986407D01*
X4346407Y999769D01*
X4328948Y1007000D01*
D02*
G37*
G36*
X4913475Y1006734D02*
X4894578D01*
X4877120Y999503D01*
X4863758Y986141D01*
X4856527Y968683D01*
Y949786D01*
X4863758Y932328D01*
X4877120Y918966D01*
X4894578Y911735D01*
X4913475D01*
X4930933Y918966D01*
X4936450Y924483D01*
X4943666Y917267D01*
X4961124Y910036D01*
X4980021D01*
X4997479Y917267D01*
X5010841Y930629D01*
X5018073Y948087D01*
Y966984D01*
X5010841Y984442D01*
X4997479Y997804D01*
X4980021Y1005035D01*
X4961124D01*
X4943666Y997804D01*
X4938149Y992287D01*
X4930933Y999503D01*
X4913475Y1006734D01*
D02*
G37*
G36*
X3208295Y988888D02*
X3189398D01*
X3171940Y981656D01*
X3158578Y968294D01*
X3151347Y950836D01*
Y931939D01*
X3158578Y914481D01*
X3171940Y901119D01*
X3189398Y893888D01*
X3208295D01*
X3225753Y901119D01*
X3239115Y914481D01*
X3246347Y931939D01*
Y950836D01*
X3239115Y968294D01*
X3225753Y981656D01*
X3208295Y988888D01*
D02*
G37*
G36*
X6369674Y986220D02*
X6350777D01*
X6333319Y978988D01*
X6319957Y965626D01*
X6312726Y948168D01*
Y929272D01*
X6319957Y911814D01*
X6333319Y898452D01*
X6350777Y891220D01*
X6369674D01*
X6387132Y898452D01*
X6400494Y911814D01*
X6407725Y929272D01*
Y948168D01*
X6400494Y965626D01*
X6387132Y978988D01*
X6369674Y986220D01*
D02*
G37*
G36*
X2559880Y958443D02*
X2540983D01*
X2523525Y951212D01*
X2510163Y937850D01*
X2502932Y920392D01*
Y901495D01*
X2510163Y884037D01*
X2523525Y870675D01*
X2540983Y863444D01*
X2559880D01*
X2577338Y870675D01*
X2590700Y884037D01*
X2597931Y901495D01*
Y920392D01*
X2590700Y937850D01*
X2577338Y951212D01*
X2559880Y958443D01*
D02*
G37*
G36*
X6269448Y934879D02*
X6250551D01*
X6233093Y927648D01*
X6219731Y914286D01*
X6212500Y896828D01*
Y877931D01*
X6219731Y860473D01*
X6233093Y847111D01*
X6250551Y839879D01*
X6269448D01*
X6286906Y847111D01*
X6300268Y860473D01*
X6307499Y877931D01*
Y896828D01*
X6300268Y914286D01*
X6286906Y927648D01*
X6269448Y934879D01*
D02*
G37*
G36*
X6584162Y971315D02*
X6565266D01*
X6547807Y964084D01*
X6534445Y950722D01*
X6527214Y933264D01*
Y914367D01*
X6531595Y903790D01*
X6523094Y900268D01*
X6509732Y886907D01*
X6502500Y869448D01*
Y850552D01*
X6509732Y833094D01*
X6523094Y819732D01*
X6540552Y812500D01*
X6559448D01*
X6576907Y819732D01*
X6590269Y833094D01*
X6597500Y850552D01*
Y869448D01*
X6593119Y880025D01*
X6601620Y883547D01*
X6614982Y896909D01*
X6622214Y914367D01*
Y933264D01*
X6614982Y950722D01*
X6601620Y964084D01*
X6584162Y971315D01*
D02*
G37*
G36*
X7163926Y892500D02*
X7145029D01*
X7127571Y885268D01*
X7114209Y871907D01*
X7106978Y854448D01*
Y835552D01*
X7114209Y818094D01*
X7127571Y804732D01*
X7145029Y797500D01*
X7163926D01*
X7181384Y804732D01*
X7194746Y818094D01*
X7201977Y835552D01*
Y854448D01*
X7194746Y871907D01*
X7181384Y885268D01*
X7163926Y892500D01*
D02*
G37*
G36*
X2347469Y910000D02*
X2331670D01*
X2316410Y905911D01*
X2302729Y898012D01*
X2291558Y886841D01*
X2283658Y873159D01*
X2279569Y857899D01*
Y842101D01*
X2283658Y826841D01*
X2291558Y813159D01*
X2302729Y801988D01*
X2316410Y794089D01*
X2331670Y790000D01*
X2347469D01*
X2362728Y794089D01*
X2376410Y801988D01*
X2387581Y813159D01*
X2395480Y826841D01*
X2399569Y842101D01*
Y857899D01*
X2395480Y873159D01*
X2387581Y886841D01*
X2376410Y898012D01*
X2362728Y905911D01*
X2347469Y910000D01*
D02*
G37*
G36*
X3940900Y880073D02*
X3922004D01*
X3904546Y872842D01*
X3891184Y859480D01*
X3883952Y842021D01*
Y823125D01*
X3891184Y805667D01*
X3904546Y792305D01*
X3922004Y785073D01*
X3940900D01*
X3958359Y792305D01*
X3971721Y805667D01*
X3978952Y823125D01*
Y842021D01*
X3971721Y859480D01*
X3958359Y872842D01*
X3940900Y880073D01*
D02*
G37*
G36*
X6677541Y875879D02*
X6658645D01*
X6641186Y868648D01*
X6627824Y855286D01*
X6620593Y837828D01*
Y818931D01*
X6627824Y801473D01*
X6641186Y788111D01*
X6658645Y780880D01*
X6677541D01*
X6694999Y788111D01*
X6708361Y801473D01*
X6715593Y818931D01*
Y837828D01*
X6708361Y855286D01*
X6694999Y868648D01*
X6677541Y875879D01*
D02*
G37*
G36*
X7464218Y920855D02*
X7445322D01*
X7427863Y913624D01*
X7414502Y900262D01*
X7407270Y882803D01*
Y863907D01*
X7408224Y861605D01*
X7396904Y850285D01*
X7389673Y832827D01*
Y813930D01*
X7396904Y796472D01*
X7410266Y783110D01*
X7427725Y775879D01*
X7446621D01*
X7464079Y783110D01*
X7477441Y796472D01*
X7484673Y813930D01*
Y832827D01*
X7483719Y835129D01*
X7495038Y846449D01*
X7502270Y863907D01*
Y882803D01*
X7495038Y900262D01*
X7481676Y913624D01*
X7464218Y920855D01*
D02*
G37*
G36*
X5109448Y877500D02*
X5090552D01*
X5073093Y870269D01*
X5059732Y856907D01*
X5052500Y839448D01*
Y820552D01*
X5059732Y803094D01*
X5073093Y789732D01*
X5090552Y782500D01*
X5109448D01*
X5126906Y789732D01*
X5128294Y791119D01*
X5143928Y789783D01*
X5152030Y781681D01*
X5169488Y774450D01*
X5188385D01*
X5205843Y781681D01*
X5219205Y795043D01*
X5226436Y812502D01*
Y831398D01*
X5219205Y848856D01*
X5205843Y862218D01*
X5188385Y869450D01*
X5169488D01*
X5152030Y862218D01*
X5150643Y860831D01*
X5135008Y862167D01*
X5126906Y870269D01*
X5109448Y877500D01*
D02*
G37*
G36*
X5419448Y927500D02*
X5400552D01*
X5383094Y920268D01*
X5369732Y906906D01*
X5362500Y889448D01*
Y870552D01*
X5369732Y853094D01*
X5383094Y839732D01*
X5392159Y835977D01*
Y822988D01*
X5385593Y820268D01*
X5372232Y806906D01*
X5365000Y789448D01*
Y777351D01*
X5365000Y774011D01*
X5353000Y771624D01*
X5351830Y774449D01*
X5347802Y784173D01*
X5334440Y797535D01*
X5316982Y804766D01*
X5298085D01*
X5280627Y797535D01*
X5267265Y784173D01*
X5260034Y766714D01*
Y747818D01*
X5267265Y730360D01*
X5280627Y716998D01*
X5298085Y709766D01*
X5316982D01*
X5334440Y716998D01*
X5347802Y730360D01*
X5355033Y747818D01*
Y759915D01*
X5355034Y763256D01*
X5367033Y765642D01*
X5368204Y762817D01*
X5372232Y753093D01*
X5385593Y739732D01*
X5403052Y732500D01*
X5421948D01*
X5439406Y739732D01*
X5452768Y753093D01*
X5460000Y770552D01*
Y789448D01*
X5452768Y806906D01*
X5439406Y820268D01*
X5430341Y824023D01*
Y837012D01*
X5436907Y839732D01*
X5450268Y853094D01*
X5457500Y870552D01*
Y889448D01*
X5450268Y906906D01*
X5436907Y920268D01*
X5419448Y927500D01*
D02*
G37*
G36*
X5863775Y983173D02*
X5844879D01*
X5827420Y975941D01*
X5814058Y962579D01*
X5806827Y945121D01*
Y926225D01*
X5814058Y908767D01*
X5827420Y895405D01*
X5839575Y890370D01*
X5838062Y879614D01*
X5837537Y878225D01*
X5820429Y871139D01*
X5807067Y857777D01*
X5799836Y840319D01*
Y821422D01*
X5807067Y803964D01*
X5820429Y790602D01*
X5837887Y783371D01*
X5856784D01*
X5868257Y788123D01*
X5868289Y788045D01*
X5881651Y774683D01*
X5899109Y767452D01*
X5918005D01*
X5935464Y774683D01*
X5948826Y788045D01*
X5956057Y805503D01*
Y824400D01*
X5948826Y841858D01*
X5935464Y855220D01*
X5918005Y862451D01*
X5899109D01*
X5887636Y857699D01*
X5887604Y857777D01*
X5874242Y871139D01*
X5862088Y876173D01*
X5863600Y886930D01*
X5864125Y888318D01*
X5881233Y895405D01*
X5894595Y908767D01*
X5901827Y926225D01*
Y945121D01*
X5894595Y962579D01*
X5881233Y975941D01*
X5863775Y983173D01*
D02*
G37*
G36*
X3269788Y848079D02*
X3250891D01*
X3233433Y840847D01*
X3220071Y827485D01*
X3212840Y810027D01*
Y791130D01*
X3220071Y773672D01*
X3233433Y760310D01*
X3250891Y753079D01*
X3269788D01*
X3287246Y760310D01*
X3300608Y773672D01*
X3307839Y791130D01*
Y810027D01*
X3300608Y827485D01*
X3287246Y840847D01*
X3269788Y848079D01*
D02*
G37*
G36*
X6972947Y842780D02*
X6954051D01*
X6936593Y835549D01*
X6923231Y822187D01*
X6915999Y804729D01*
Y785832D01*
X6923231Y768374D01*
X6936593Y755012D01*
X6954051Y747781D01*
X6972947D01*
X6990406Y755012D01*
X7003768Y768374D01*
X7010999Y785832D01*
Y804729D01*
X7003768Y822187D01*
X6990406Y835549D01*
X6972947Y842780D01*
D02*
G37*
G36*
X5531948Y827500D02*
X5513052D01*
X5495594Y820268D01*
X5482232Y806906D01*
X5475000Y789448D01*
Y770552D01*
X5482232Y753093D01*
X5495594Y739732D01*
X5513052Y732500D01*
X5531948D01*
X5549406Y739732D01*
X5562768Y753093D01*
X5570000Y770552D01*
Y789448D01*
X5562768Y806906D01*
X5549406Y820268D01*
X5531948Y827500D01*
D02*
G37*
G36*
X4092950Y827288D02*
X4074053D01*
X4056595Y820056D01*
X4043233Y806694D01*
X4036002Y789236D01*
Y770340D01*
X4043233Y752881D01*
X4056595Y739519D01*
X4074053Y732288D01*
X4092950D01*
X4110408Y739519D01*
X4123770Y752881D01*
X4131001Y770340D01*
Y789236D01*
X4123770Y806694D01*
X4110408Y820056D01*
X4092950Y827288D01*
D02*
G37*
G36*
X6367524Y819833D02*
X6348627D01*
X6331169Y812601D01*
X6317807Y799239D01*
X6310576Y781781D01*
Y762885D01*
X6317807Y745426D01*
X6331169Y732065D01*
X6348627Y724833D01*
X6367524D01*
X6384982Y732065D01*
X6398344Y745426D01*
X6405575Y762885D01*
Y781781D01*
X6398344Y799239D01*
X6384982Y812601D01*
X6367524Y819833D01*
D02*
G37*
G36*
X8196191Y887196D02*
X8177294D01*
X8159836Y879965D01*
X8146474Y866603D01*
X8139243Y849145D01*
Y830248D01*
X8146474Y812790D01*
X8159836Y799428D01*
X8177294Y792197D01*
X8196191D01*
X8209452Y797690D01*
X8210172Y796970D01*
X8227630Y789739D01*
X8232165D01*
X8235324Y785030D01*
X8238215Y777739D01*
X8231748Y762124D01*
Y743228D01*
X8238979Y725770D01*
X8252341Y712408D01*
X8269799Y705176D01*
X8288696D01*
X8306154Y712408D01*
X8308286Y714540D01*
X8313094Y709732D01*
X8330552Y702500D01*
X8349448D01*
X8366907Y709732D01*
X8380268Y723094D01*
X8387500Y740552D01*
Y759448D01*
X8380268Y776906D01*
X8366907Y790268D01*
X8349448Y797500D01*
X8330552D01*
X8313094Y790268D01*
X8310962Y788137D01*
X8306154Y792945D01*
X8288696Y800176D01*
X8284161D01*
X8281002Y804885D01*
X8278110Y812176D01*
X8284578Y827791D01*
Y846687D01*
X8277347Y864145D01*
X8263985Y877507D01*
X8246527Y884739D01*
X8227630D01*
X8214368Y879245D01*
X8213649Y879965D01*
X8196191Y887196D01*
D02*
G37*
G36*
X3158380Y790012D02*
X3139483D01*
X3122025Y782781D01*
X3108663Y769419D01*
X3101432Y751960D01*
Y733064D01*
X3108663Y715606D01*
X3122025Y702244D01*
X3139483Y695012D01*
X3158380D01*
X3175838Y702244D01*
X3189200Y715606D01*
X3196432Y733064D01*
Y751960D01*
X3189200Y769419D01*
X3175838Y782781D01*
X3158380Y790012D01*
D02*
G37*
G36*
X7719487Y931745D02*
X7700590D01*
X7683132Y924514D01*
X7669770Y911152D01*
X7662539Y893693D01*
Y874797D01*
X7662757Y874271D01*
X7653093Y870269D01*
X7639731Y856907D01*
X7632500Y839448D01*
Y820552D01*
X7639731Y803094D01*
X7653093Y789732D01*
X7670552Y782500D01*
X7679581D01*
X7684552Y770500D01*
X7677493Y763441D01*
X7670262Y745983D01*
Y727087D01*
X7677493Y709629D01*
X7690855Y696267D01*
X7708313Y689035D01*
X7727210D01*
X7744668Y696267D01*
X7758030Y709629D01*
X7765261Y727087D01*
Y745983D01*
X7758030Y763441D01*
X7744668Y776803D01*
X7727210Y784035D01*
X7718180D01*
X7713209Y796035D01*
X7720268Y803094D01*
X7727500Y820552D01*
Y839448D01*
X7727282Y839974D01*
X7736945Y843977D01*
X7750307Y857339D01*
X7757538Y874797D01*
Y893693D01*
X7750307Y911152D01*
X7736945Y924514D01*
X7719487Y931745D01*
D02*
G37*
G36*
X3352761Y766230D02*
X3333864D01*
X3316406Y758999D01*
X3303044Y745637D01*
X3295813Y728179D01*
Y709282D01*
X3303044Y691824D01*
X3316406Y678462D01*
X3333864Y671231D01*
X3352761D01*
X3370219Y678462D01*
X3383581Y691824D01*
X3390812Y709282D01*
Y728179D01*
X3383581Y745637D01*
X3370219Y758999D01*
X3352761Y766230D01*
D02*
G37*
G36*
X4185318Y765723D02*
X4166422D01*
X4148964Y758491D01*
X4135602Y745129D01*
X4128370Y727671D01*
Y708775D01*
X4135602Y691316D01*
X4148964Y677954D01*
X4166422Y670723D01*
X4185318D01*
X4202776Y677954D01*
X4216138Y691316D01*
X4221339Y703872D01*
X4234046Y703191D01*
X4239657Y689645D01*
X4253019Y676283D01*
X4270477Y669051D01*
X4289374D01*
X4306832Y676283D01*
X4320194Y689645D01*
X4327425Y707103D01*
Y726000D01*
X4320194Y743458D01*
X4306832Y756820D01*
X4289374Y764051D01*
X4270477D01*
X4253019Y756820D01*
X4239657Y743458D01*
X4234456Y730902D01*
X4221749Y731583D01*
X4216138Y745129D01*
X4202776Y758491D01*
X4185318Y765723D01*
D02*
G37*
G36*
X7452658Y763347D02*
X7433762D01*
X7416303Y756115D01*
X7402942Y742753D01*
X7395710Y725295D01*
Y706399D01*
X7402942Y688940D01*
X7416303Y675579D01*
X7433762Y668347D01*
X7452658D01*
X7470116Y675579D01*
X7483478Y688940D01*
X7490710Y706399D01*
Y725295D01*
X7483478Y742753D01*
X7470116Y756115D01*
X7452658Y763347D01*
D02*
G37*
G36*
X6479319Y658893D02*
X6460422D01*
X6442964Y651662D01*
X6429602Y638300D01*
X6422371Y620842D01*
Y601945D01*
X6426709Y591471D01*
X6417356Y582694D01*
X6405121Y587762D01*
X6387500Y590082D01*
X6312500D01*
X6294879Y587762D01*
X6278459Y580961D01*
X6264359Y570141D01*
X6253539Y556041D01*
X6246738Y539621D01*
X6244418Y522000D01*
Y407000D01*
X6246738Y389379D01*
X6253539Y372959D01*
X6264359Y358859D01*
X6278459Y348039D01*
X6294879Y341238D01*
X6312500Y338918D01*
X6387500D01*
X6405121Y341238D01*
X6421541Y348039D01*
X6435641Y358859D01*
X6446461Y372959D01*
X6453262Y389379D01*
X6455582Y407000D01*
Y522000D01*
X6453262Y539621D01*
X6446461Y556041D01*
X6445733Y556989D01*
X6453296Y566845D01*
X6460422Y563894D01*
X6479319D01*
X6496777Y571125D01*
X6510139Y584487D01*
X6517371Y601945D01*
Y620842D01*
X6510139Y638300D01*
X6496777Y651662D01*
X6479319Y658893D01*
D02*
G37*
G36*
X1550000Y835000D02*
X1410000D01*
X1340000Y765000D01*
Y625000D01*
X1410000Y555000D01*
X1550000D01*
X1620000Y625000D01*
Y765000D01*
X1550000Y835000D01*
D02*
G37*
G36*
X7859448Y577500D02*
X7840552D01*
X7823094Y570268D01*
X7809732Y556906D01*
X7802500Y539448D01*
Y520552D01*
X7809732Y503093D01*
X7823094Y489732D01*
X7840552Y482500D01*
X7859448D01*
X7876907Y489732D01*
X7890268Y503093D01*
X7897500Y520552D01*
Y539448D01*
X7890268Y556906D01*
X7876907Y570268D01*
X7859448Y577500D01*
D02*
G37*
G36*
X7642634Y674901D02*
X7623738D01*
X7606280Y667670D01*
X7592918Y654308D01*
X7585686Y636850D01*
Y617953D01*
X7590172Y607126D01*
X7582609Y595125D01*
X7582500D01*
X7563574Y592634D01*
X7545937Y585328D01*
X7530793Y573707D01*
X7519172Y558563D01*
X7511866Y540926D01*
X7509375Y522000D01*
Y474500D01*
X7730625D01*
Y522000D01*
X7728134Y540926D01*
X7720828Y558563D01*
X7709207Y573707D01*
X7694063Y585328D01*
X7680766Y590836D01*
X7676004Y597127D01*
X7675274Y604889D01*
X7680686Y617953D01*
Y636850D01*
X7673455Y654308D01*
X7660093Y667670D01*
X7642634Y674901D01*
D02*
G37*
G36*
X7403500Y595125D02*
X7376000D01*
Y474500D01*
X7476625D01*
Y522000D01*
X7474134Y540926D01*
X7466828Y558563D01*
X7455207Y573707D01*
X7440063Y585328D01*
X7422426Y592634D01*
X7403500Y595125D01*
D02*
G37*
G36*
X7356000D02*
X7328500D01*
X7309574Y592634D01*
X7291937Y585328D01*
X7276793Y573707D01*
X7265172Y558563D01*
X7257866Y540926D01*
X7255375Y522000D01*
Y474500D01*
X7356000D01*
Y595125D01*
D02*
G37*
G36*
X6133500D02*
X6106000D01*
Y474500D01*
X6206625D01*
Y522000D01*
X6204134Y540926D01*
X6196828Y558563D01*
X6185207Y573707D01*
X6170063Y585328D01*
X6152426Y592634D01*
X6133500Y595125D01*
D02*
G37*
G36*
X6086000D02*
X6058500D01*
X6039574Y592634D01*
X6021937Y585328D01*
X6006793Y573707D01*
X5995172Y558563D01*
X5987866Y540926D01*
X5985375Y522000D01*
Y474500D01*
X6086000D01*
Y595125D01*
D02*
G37*
G36*
X2069500D02*
X2042000D01*
Y474500D01*
X2142625D01*
Y522000D01*
X2140134Y540926D01*
X2132828Y558563D01*
X2121207Y573707D01*
X2106063Y585328D01*
X2088426Y592634D01*
X2069500Y595125D01*
D02*
G37*
G36*
X2022000D02*
X1994500D01*
X1975574Y592634D01*
X1957937Y585328D01*
X1942793Y573707D01*
X1931172Y558563D01*
X1923866Y540926D01*
X1921375Y522000D01*
Y474500D01*
X2022000D01*
Y595125D01*
D02*
G37*
G36*
X8304250Y568136D02*
X8273000D01*
Y465000D01*
X8378636D01*
Y493750D01*
X8376101Y513003D01*
X8368670Y530943D01*
X8356849Y546349D01*
X8341443Y558170D01*
X8323502Y565602D01*
X8304250Y568136D01*
D02*
G37*
G36*
X8253000D02*
X8221750D01*
X8202498Y565602D01*
X8184557Y558170D01*
X8169151Y546349D01*
X8157330Y530943D01*
X8149899Y513003D01*
X8147364Y493750D01*
Y465000D01*
X8253000D01*
Y568136D01*
D02*
G37*
G36*
X1535000Y490777D02*
X1490000D01*
Y355000D01*
X1625777D01*
Y400000D01*
X1622684Y423495D01*
X1613615Y445388D01*
X1599189Y464189D01*
X1580389Y478615D01*
X1558495Y487684D01*
X1535000Y490777D01*
D02*
G37*
G36*
X1470000D02*
X1425000D01*
X1401505Y487684D01*
X1379612Y478615D01*
X1360811Y464189D01*
X1346385Y445388D01*
X1337317Y423495D01*
X1334223Y400000D01*
Y355000D01*
X1470000D01*
Y490777D01*
D02*
G37*
G36*
X8378636Y445000D02*
X8273000D01*
Y341864D01*
X8304250D01*
X8323502Y344399D01*
X8341443Y351830D01*
X8356849Y363651D01*
X8368670Y379057D01*
X8376101Y396998D01*
X8378636Y416250D01*
Y445000D01*
D02*
G37*
G36*
X8253000D02*
X8147364D01*
Y416250D01*
X8149899Y396998D01*
X8157330Y379057D01*
X8169151Y363651D01*
X8184557Y351830D01*
X8202498Y344399D01*
X8221750Y341864D01*
X8253000D01*
Y445000D01*
D02*
G37*
G36*
X7168526Y671707D02*
X7149630D01*
X7132171Y664475D01*
X7118809Y651113D01*
X7111578Y633655D01*
Y614758D01*
X7116829Y602082D01*
X7110349Y590082D01*
X7074500D01*
X7056879Y587762D01*
X7040459Y580961D01*
X7026359Y570141D01*
X7015539Y556041D01*
X7008738Y539621D01*
X7006418Y522000D01*
Y407000D01*
X7008738Y389379D01*
X7015539Y372959D01*
X7026359Y358859D01*
X7040459Y348039D01*
X7056879Y341238D01*
X7074500Y338918D01*
X7149500D01*
X7167121Y341238D01*
X7183541Y348039D01*
X7197641Y358859D01*
X7208461Y372959D01*
X7215262Y389379D01*
X7217582Y407000D01*
Y522000D01*
X7215262Y539621D01*
X7208461Y556041D01*
X7197641Y570141D01*
X7192110Y574385D01*
X7192033Y574506D01*
X7191797Y589751D01*
X7199346Y597300D01*
X7206578Y614758D01*
Y633655D01*
X7199346Y651113D01*
X7185984Y664475D01*
X7168526Y671707D01*
D02*
G37*
G36*
X6895500Y590082D02*
X6820500D01*
X6802879Y587762D01*
X6786459Y580961D01*
X6772359Y570141D01*
X6761539Y556041D01*
X6754738Y539621D01*
X6752418Y522000D01*
Y407000D01*
X6754738Y389379D01*
X6761539Y372959D01*
X6772359Y358859D01*
X6786459Y348039D01*
X6802879Y341238D01*
X6820500Y338918D01*
X6895500D01*
X6913121Y341238D01*
X6929541Y348039D01*
X6943641Y358859D01*
X6954461Y372959D01*
X6961262Y389379D01*
X6963582Y407000D01*
Y522000D01*
X6961262Y539621D01*
X6954461Y556041D01*
X6943641Y570141D01*
X6929541Y580961D01*
X6913121Y587762D01*
X6895500Y590082D01*
D02*
G37*
G36*
X6641500D02*
X6566500D01*
X6548879Y587762D01*
X6532459Y580961D01*
X6518359Y570141D01*
X6507539Y556041D01*
X6500738Y539621D01*
X6498418Y522000D01*
Y407000D01*
X6500738Y389379D01*
X6507539Y372959D01*
X6518359Y358859D01*
X6532459Y348039D01*
X6548879Y341238D01*
X6566500Y338918D01*
X6641500D01*
X6659121Y341238D01*
X6675541Y348039D01*
X6689641Y358859D01*
X6700461Y372959D01*
X6707262Y389379D01*
X6709582Y407000D01*
Y522000D01*
X6707262Y539621D01*
X6700461Y556041D01*
X6689641Y570141D01*
X6675541Y580961D01*
X6659121Y587762D01*
X6641500Y590082D01*
D02*
G37*
G36*
X5879500D02*
X5804500D01*
X5786879Y587762D01*
X5770459Y580961D01*
X5756359Y570141D01*
X5745539Y556041D01*
X5738738Y539621D01*
X5736418Y522000D01*
Y407000D01*
X5738738Y389379D01*
X5745539Y372959D01*
X5756359Y358859D01*
X5770459Y348039D01*
X5786879Y341238D01*
X5804500Y338918D01*
X5879500D01*
X5897121Y341238D01*
X5913541Y348039D01*
X5927641Y358859D01*
X5938461Y372959D01*
X5945262Y389379D01*
X5947582Y407000D01*
Y522000D01*
X5945262Y539621D01*
X5938461Y556041D01*
X5927641Y570141D01*
X5913541Y580961D01*
X5897121Y587762D01*
X5879500Y590082D01*
D02*
G37*
G36*
X5625500D02*
X5550500D01*
X5532879Y587762D01*
X5516459Y580961D01*
X5502359Y570141D01*
X5491539Y556041D01*
X5484738Y539621D01*
X5482418Y522000D01*
Y407000D01*
X5484738Y389379D01*
X5491539Y372959D01*
X5502359Y358859D01*
X5516459Y348039D01*
X5532879Y341238D01*
X5550500Y338918D01*
X5625500D01*
X5643121Y341238D01*
X5659541Y348039D01*
X5673641Y358859D01*
X5684461Y372959D01*
X5691262Y389379D01*
X5693582Y407000D01*
Y522000D01*
X5691262Y539621D01*
X5684461Y556041D01*
X5673641Y570141D01*
X5659541Y580961D01*
X5643121Y587762D01*
X5625500Y590082D01*
D02*
G37*
G36*
X5283378Y672378D02*
X5264481D01*
X5247023Y665147D01*
X5233661Y651785D01*
X5226430Y634327D01*
Y615430D01*
X5233661Y597972D01*
X5247023Y584610D01*
X5249049Y583771D01*
X5250616Y571873D01*
X5248359Y570141D01*
X5237539Y556041D01*
X5230738Y539621D01*
X5228418Y522000D01*
Y407000D01*
X5230738Y389379D01*
X5237539Y372959D01*
X5248359Y358859D01*
X5262459Y348039D01*
X5278879Y341238D01*
X5296500Y338918D01*
X5371500D01*
X5389121Y341238D01*
X5405541Y348039D01*
X5419641Y358859D01*
X5430461Y372959D01*
X5437262Y389379D01*
X5439582Y407000D01*
Y522000D01*
X5437262Y539621D01*
X5430461Y556041D01*
X5419641Y570141D01*
X5405541Y580961D01*
X5389121Y587762D01*
X5371500Y590082D01*
X5321987D01*
X5315900Y602082D01*
X5321429Y615430D01*
Y634327D01*
X5314198Y651785D01*
X5300836Y665147D01*
X5283378Y672378D01*
D02*
G37*
G36*
X5117500Y590082D02*
X5042500D01*
X5024879Y587762D01*
X5008459Y580961D01*
X4994359Y570141D01*
X4983539Y556041D01*
X4976738Y539621D01*
X4974418Y522000D01*
Y407000D01*
X4976738Y389379D01*
X4983539Y372959D01*
X4994359Y358859D01*
X5008459Y348039D01*
X5024879Y341238D01*
X5042500Y338918D01*
X5117500D01*
X5135121Y341238D01*
X5151541Y348039D01*
X5165641Y358859D01*
X5176461Y372959D01*
X5183262Y389379D01*
X5185582Y407000D01*
Y522000D01*
X5183262Y539621D01*
X5176461Y556041D01*
X5165641Y570141D01*
X5151541Y580961D01*
X5135121Y587762D01*
X5117500Y590082D01*
D02*
G37*
G36*
X4863500D02*
X4788500D01*
X4770879Y587762D01*
X4754459Y580961D01*
X4740359Y570141D01*
X4729539Y556041D01*
X4722738Y539621D01*
X4720418Y522000D01*
Y407000D01*
X4722738Y389379D01*
X4729539Y372959D01*
X4740359Y358859D01*
X4754459Y348039D01*
X4770879Y341238D01*
X4788500Y338918D01*
X4863500D01*
X4881121Y341238D01*
X4897541Y348039D01*
X4911641Y358859D01*
X4922461Y372959D01*
X4929262Y389379D01*
X4931582Y407000D01*
Y522000D01*
X4929262Y539621D01*
X4922461Y556041D01*
X4911641Y570141D01*
X4897541Y580961D01*
X4881121Y587762D01*
X4863500Y590082D01*
D02*
G37*
G36*
X4609500D02*
X4534500D01*
X4516879Y587762D01*
X4500459Y580961D01*
X4486359Y570141D01*
X4475539Y556041D01*
X4468738Y539621D01*
X4466418Y522000D01*
Y407000D01*
X4468738Y389379D01*
X4475539Y372959D01*
X4486359Y358859D01*
X4500459Y348039D01*
X4516879Y341238D01*
X4534500Y338918D01*
X4609500D01*
X4627121Y341238D01*
X4643541Y348039D01*
X4657641Y358859D01*
X4668461Y372959D01*
X4675262Y389379D01*
X4677582Y407000D01*
Y522000D01*
X4675262Y539621D01*
X4668461Y556041D01*
X4657641Y570141D01*
X4643541Y580961D01*
X4627121Y587762D01*
X4609500Y590082D01*
D02*
G37*
G36*
X4355500D02*
X4280500D01*
X4262879Y587762D01*
X4246459Y580961D01*
X4232359Y570141D01*
X4221539Y556041D01*
X4214738Y539621D01*
X4212418Y522000D01*
Y407000D01*
X4214738Y389379D01*
X4221539Y372959D01*
X4232359Y358859D01*
X4246459Y348039D01*
X4262879Y341238D01*
X4280500Y338918D01*
X4355500D01*
X4373121Y341238D01*
X4389541Y348039D01*
X4403641Y358859D01*
X4414461Y372959D01*
X4421262Y389379D01*
X4423582Y407000D01*
Y522000D01*
X4421262Y539621D01*
X4414461Y556041D01*
X4403641Y570141D01*
X4389541Y580961D01*
X4373121Y587762D01*
X4355500Y590082D01*
D02*
G37*
G36*
X4101500D02*
X4026500D01*
X4008879Y587762D01*
X3992459Y580961D01*
X3978359Y570141D01*
X3967539Y556041D01*
X3960738Y539621D01*
X3958418Y522000D01*
Y407000D01*
X3960738Y389379D01*
X3967539Y372959D01*
X3978359Y358859D01*
X3992459Y348039D01*
X4008879Y341238D01*
X4026500Y338918D01*
X4101500D01*
X4119121Y341238D01*
X4135541Y348039D01*
X4149641Y358859D01*
X4160461Y372959D01*
X4167262Y389379D01*
X4169582Y407000D01*
Y522000D01*
X4167262Y539621D01*
X4160461Y556041D01*
X4149641Y570141D01*
X4135541Y580961D01*
X4119121Y587762D01*
X4101500Y590082D01*
D02*
G37*
G36*
X3847500D02*
X3772500D01*
X3754879Y587762D01*
X3738459Y580961D01*
X3724359Y570141D01*
X3713539Y556041D01*
X3706738Y539621D01*
X3704418Y522000D01*
Y407000D01*
X3706738Y389379D01*
X3713539Y372959D01*
X3724359Y358859D01*
X3738459Y348039D01*
X3754879Y341238D01*
X3772500Y338918D01*
X3847500D01*
X3865121Y341238D01*
X3881541Y348039D01*
X3895641Y358859D01*
X3906461Y372959D01*
X3913262Y389379D01*
X3915582Y407000D01*
Y522000D01*
X3913262Y539621D01*
X3906461Y556041D01*
X3895641Y570141D01*
X3881541Y580961D01*
X3865121Y587762D01*
X3847500Y590082D01*
D02*
G37*
G36*
X3593500D02*
X3518500D01*
X3500879Y587762D01*
X3484459Y580961D01*
X3470359Y570141D01*
X3459539Y556041D01*
X3452738Y539621D01*
X3450418Y522000D01*
Y407000D01*
X3452738Y389379D01*
X3459539Y372959D01*
X3470359Y358859D01*
X3484459Y348039D01*
X3500879Y341238D01*
X3518500Y338918D01*
X3593500D01*
X3611121Y341238D01*
X3627541Y348039D01*
X3641641Y358859D01*
X3652461Y372959D01*
X3659262Y389379D01*
X3661582Y407000D01*
Y522000D01*
X3659262Y539621D01*
X3652461Y556041D01*
X3641641Y570141D01*
X3627541Y580961D01*
X3611121Y587762D01*
X3593500Y590082D01*
D02*
G37*
G36*
X3339500D02*
X3264500D01*
X3246879Y587762D01*
X3230459Y580961D01*
X3216359Y570141D01*
X3205539Y556041D01*
X3198738Y539621D01*
X3196418Y522000D01*
Y407000D01*
X3198738Y389379D01*
X3205539Y372959D01*
X3216359Y358859D01*
X3230459Y348039D01*
X3246879Y341238D01*
X3264500Y338918D01*
X3339500D01*
X3357121Y341238D01*
X3373541Y348039D01*
X3387641Y358859D01*
X3398461Y372959D01*
X3405262Y389379D01*
X3407582Y407000D01*
Y522000D01*
X3405262Y539621D01*
X3398461Y556041D01*
X3387641Y570141D01*
X3373541Y580961D01*
X3357121Y587762D01*
X3339500Y590082D01*
D02*
G37*
G36*
X3085500D02*
X3010500D01*
X2992879Y587762D01*
X2976459Y580961D01*
X2962359Y570141D01*
X2951539Y556041D01*
X2944738Y539621D01*
X2942418Y522000D01*
Y407000D01*
X2944738Y389379D01*
X2951539Y372959D01*
X2962359Y358859D01*
X2976459Y348039D01*
X2992879Y341238D01*
X3010500Y338918D01*
X3085500D01*
X3103121Y341238D01*
X3119541Y348039D01*
X3133641Y358859D01*
X3144461Y372959D01*
X3151262Y389379D01*
X3153582Y407000D01*
Y522000D01*
X3151262Y539621D01*
X3144461Y556041D01*
X3133641Y570141D01*
X3119541Y580961D01*
X3103121Y587762D01*
X3085500Y590082D01*
D02*
G37*
G36*
X2831500D02*
X2756500D01*
X2738879Y587762D01*
X2722459Y580961D01*
X2708359Y570141D01*
X2697539Y556041D01*
X2690738Y539621D01*
X2688418Y522000D01*
Y407000D01*
X2690738Y389379D01*
X2697539Y372959D01*
X2708359Y358859D01*
X2722459Y348039D01*
X2738879Y341238D01*
X2756500Y338918D01*
X2831500D01*
X2849121Y341238D01*
X2865541Y348039D01*
X2879641Y358859D01*
X2890461Y372959D01*
X2897262Y389379D01*
X2899582Y407000D01*
Y522000D01*
X2897262Y539621D01*
X2890461Y556041D01*
X2879641Y570141D01*
X2865541Y580961D01*
X2849121Y587762D01*
X2831500Y590082D01*
D02*
G37*
G36*
X2577500D02*
X2502500D01*
X2484879Y587762D01*
X2468459Y580961D01*
X2454359Y570141D01*
X2443539Y556041D01*
X2436738Y539621D01*
X2434418Y522000D01*
Y407000D01*
X2436738Y389379D01*
X2443539Y372959D01*
X2454359Y358859D01*
X2468459Y348039D01*
X2484879Y341238D01*
X2502500Y338918D01*
X2577500D01*
X2595121Y341238D01*
X2611541Y348039D01*
X2625641Y358859D01*
X2636461Y372959D01*
X2643262Y389379D01*
X2645582Y407000D01*
Y522000D01*
X2643262Y539621D01*
X2636461Y556041D01*
X2625641Y570141D01*
X2611541Y580961D01*
X2595121Y587762D01*
X2577500Y590082D01*
D02*
G37*
G36*
X2323500D02*
X2248500D01*
X2230879Y587762D01*
X2214459Y580961D01*
X2200359Y570141D01*
X2189539Y556041D01*
X2182738Y539621D01*
X2180418Y522000D01*
Y407000D01*
X2182738Y389379D01*
X2189539Y372959D01*
X2200359Y358859D01*
X2214459Y348039D01*
X2230879Y341238D01*
X2248500Y338918D01*
X2323500D01*
X2341121Y341238D01*
X2357541Y348039D01*
X2371641Y358859D01*
X2382461Y372959D01*
X2389262Y389379D01*
X2391582Y407000D01*
Y522000D01*
X2389262Y539621D01*
X2382461Y556041D01*
X2371641Y570141D01*
X2357541Y580961D01*
X2341121Y587762D01*
X2323500Y590082D01*
D02*
G37*
G36*
X7730625Y454500D02*
X7630000D01*
Y333875D01*
X7657500D01*
X7676426Y336366D01*
X7694063Y343672D01*
X7709207Y355293D01*
X7720828Y370437D01*
X7728134Y388074D01*
X7730625Y407000D01*
Y454500D01*
D02*
G37*
G36*
X7610000D02*
X7509375D01*
Y407000D01*
X7511866Y388074D01*
X7519172Y370437D01*
X7530793Y355293D01*
X7545937Y343672D01*
X7563574Y336366D01*
X7582500Y333875D01*
X7610000D01*
Y454500D01*
D02*
G37*
G36*
X7476625D02*
X7376000D01*
Y333875D01*
X7403500D01*
X7422426Y336366D01*
X7440063Y343672D01*
X7455207Y355293D01*
X7466828Y370437D01*
X7474134Y388074D01*
X7476625Y407000D01*
Y454500D01*
D02*
G37*
G36*
X7356000D02*
X7255375D01*
Y407000D01*
X7257866Y388074D01*
X7265172Y370437D01*
X7276793Y355293D01*
X7291937Y343672D01*
X7309574Y336366D01*
X7328500Y333875D01*
X7356000D01*
Y454500D01*
D02*
G37*
G36*
X6206625D02*
X6106000D01*
Y333875D01*
X6133500D01*
X6152426Y336366D01*
X6170063Y343672D01*
X6185207Y355293D01*
X6196828Y370437D01*
X6204134Y388074D01*
X6206625Y407000D01*
Y454500D01*
D02*
G37*
G36*
X6086000D02*
X5985375D01*
Y407000D01*
X5987866Y388074D01*
X5995172Y370437D01*
X6006793Y355293D01*
X6021937Y343672D01*
X6039574Y336366D01*
X6058500Y333875D01*
X6086000D01*
Y454500D01*
D02*
G37*
G36*
X2142625D02*
X2042000D01*
Y333875D01*
X2069500D01*
X2088426Y336366D01*
X2106063Y343672D01*
X2121207Y355293D01*
X2132828Y370437D01*
X2140134Y388074D01*
X2142625Y407000D01*
Y454500D01*
D02*
G37*
G36*
X2022000D02*
X1921375D01*
Y407000D01*
X1923866Y388074D01*
X1931172Y370437D01*
X1942793Y355293D01*
X1957937Y343672D01*
X1975574Y336366D01*
X1994500Y333875D01*
X2022000D01*
Y454500D01*
D02*
G37*
G36*
X1625777Y335000D02*
X1490000D01*
Y199223D01*
X1535000D01*
X1558495Y202317D01*
X1580389Y211385D01*
X1599189Y225811D01*
X1613615Y244612D01*
X1622684Y266505D01*
X1625777Y290000D01*
Y335000D01*
D02*
G37*
G36*
X1470000D02*
X1334223D01*
Y290000D01*
X1337317Y266505D01*
X1346385Y244612D01*
X1360811Y225811D01*
X1379612Y211385D01*
X1401505Y202317D01*
X1425000Y199223D01*
X1470000D01*
Y335000D01*
D02*
G37*
G36*
X7657500Y301125D02*
X7630000D01*
Y180500D01*
X7730625D01*
Y228000D01*
X7728134Y246926D01*
X7720828Y264563D01*
X7709207Y279707D01*
X7694063Y291328D01*
X7676426Y298634D01*
X7657500Y301125D01*
D02*
G37*
G36*
X7610000D02*
X7582500D01*
X7563574Y298634D01*
X7545937Y291328D01*
X7530793Y279707D01*
X7519172Y264563D01*
X7511866Y246926D01*
X7509375Y228000D01*
Y180500D01*
X7610000D01*
Y301125D01*
D02*
G37*
G36*
X7403500D02*
X7376000D01*
Y180500D01*
X7476625D01*
Y228000D01*
X7474134Y246926D01*
X7466828Y264563D01*
X7455207Y279707D01*
X7440063Y291328D01*
X7422426Y298634D01*
X7403500Y301125D01*
D02*
G37*
G36*
X7356000D02*
X7328500D01*
X7309574Y298634D01*
X7291937Y291328D01*
X7276793Y279707D01*
X7265172Y264563D01*
X7257866Y246926D01*
X7255375Y228000D01*
Y180500D01*
X7356000D01*
Y301125D01*
D02*
G37*
G36*
X2069500D02*
X2042000D01*
Y180500D01*
X2142625D01*
Y228000D01*
X2140134Y246926D01*
X2132828Y264563D01*
X2121207Y279707D01*
X2106063Y291328D01*
X2088426Y298634D01*
X2069500Y301125D01*
D02*
G37*
G36*
X2022000D02*
X1994500D01*
X1975574Y298634D01*
X1957937Y291328D01*
X1942793Y279707D01*
X1931172Y264563D01*
X1923866Y246926D01*
X1921375Y228000D01*
Y180500D01*
X2022000D01*
Y301125D01*
D02*
G37*
%LPD*%
D83*
X8263000Y455000D02*
D03*
X8113000Y2275000D02*
D03*
X8263000Y3185000D02*
D03*
X8113000Y5005000D02*
D03*
D89*
X1480000Y695000D02*
D03*
D90*
Y345000D02*
D03*
D91*
X1300500Y5283500D02*
D03*
Y5003500D02*
D03*
X1620500D02*
D03*
Y5283500D02*
D03*
X2339569Y850000D02*
D03*
X6060000Y2930000D02*
D03*
X2381848Y2502839D02*
D03*
X5789822Y2913968D02*
D03*
X4039453Y3961484D02*
D03*
X4039563Y4047198D02*
D03*
D92*
X5632761Y1943620D02*
D03*
X5825646Y2235447D02*
D03*
X5641085Y2324994D02*
D03*
X5628845Y1664897D02*
D03*
X4904027Y959235D02*
D03*
X4970573Y957536D02*
D03*
X6670000Y2640000D02*
D03*
X5940000Y3330000D02*
D03*
X3102885Y4589087D02*
D03*
X3140106Y4632464D02*
D03*
X2410000Y1270000D02*
D03*
X8480000Y5340000D02*
D03*
X8505434Y138008D02*
D03*
X1250000Y120000D02*
D03*
X1200000Y4080000D02*
D03*
X7240929Y2241556D02*
D03*
X7222160Y2303605D02*
D03*
X7150000Y4130000D02*
D03*
X7261104Y4282825D02*
D03*
X5245030Y1398108D02*
D03*
X8194093Y4442446D02*
D03*
X8208769Y4394648D02*
D03*
X8211155Y4088846D02*
D03*
X7335000Y3525000D02*
D03*
X6913922Y3746037D02*
D03*
X7119288Y3325269D02*
D03*
X6847227Y3410935D02*
D03*
X7378139Y4058678D02*
D03*
X7520656Y4099404D02*
D03*
X7290000Y4224024D02*
D03*
X7344231Y3790014D02*
D03*
X6931671Y3949987D02*
D03*
X7362427Y3638596D02*
D03*
X6788310Y4147500D02*
D03*
X6808750Y3972500D02*
D03*
X6044903Y4135789D02*
D03*
X6415725Y4094467D02*
D03*
X6318619Y3585892D02*
D03*
X6624225Y4358044D02*
D03*
X6888489Y4034141D02*
D03*
X6938426Y4082159D02*
D03*
X6874515Y3941800D02*
D03*
X6390801Y3979282D02*
D03*
X6389432Y3928233D02*
D03*
X6389152Y3878234D02*
D03*
X6392651Y3820726D02*
D03*
X6390368Y3579410D02*
D03*
X6804181Y3826477D02*
D03*
X7347745Y3949908D02*
D03*
X7345109Y3847507D02*
D03*
X7388744Y3682242D02*
D03*
X6802913Y3878659D02*
D03*
X6906429Y3655645D02*
D03*
X6861531Y3804879D02*
D03*
X6857500Y3632472D02*
D03*
X6377072Y3510077D02*
D03*
X6379912Y3458244D02*
D03*
X6425115Y3380763D02*
D03*
X6850392Y3479013D02*
D03*
X5310584Y1184630D02*
D03*
X5333995Y1030168D02*
D03*
X5334007Y980168D02*
D03*
X5542259Y972754D02*
D03*
X5536309Y1139368D02*
D03*
X5493139Y1097360D02*
D03*
X5275076Y1241599D02*
D03*
X6490986Y1111819D02*
D03*
X6358347Y1443955D02*
D03*
X6342677Y2267500D02*
D03*
X6329318Y2219318D02*
D03*
X6339316Y830684D02*
D03*
X6327098Y1500277D02*
D03*
X6544840Y1440914D02*
D03*
X6519012Y1363380D02*
D03*
X6340000Y1200000D02*
D03*
X6358075Y772333D02*
D03*
X6360226Y938720D02*
D03*
X6427969Y1060192D02*
D03*
X6340000Y1270000D02*
D03*
Y1660000D02*
D03*
X6086516Y1719997D02*
D03*
X6091832Y1666353D02*
D03*
X6101729Y1889729D02*
D03*
X6082317Y1936769D02*
D03*
X6290000Y1820000D02*
D03*
X6079641Y2160608D02*
D03*
X6099988Y2289995D02*
D03*
X6090000Y2100000D02*
D03*
X6340000Y2090000D02*
D03*
X6311611Y2039769D02*
D03*
X7424361Y770318D02*
D03*
X7633186Y627402D02*
D03*
X7443210Y715847D02*
D03*
X7710039Y884245D02*
D03*
X7454770Y873355D02*
D03*
X7437173Y823379D02*
D03*
X7367773Y881230D02*
D03*
X7680000Y830000D02*
D03*
X7650000Y1030000D02*
D03*
Y1080000D02*
D03*
X7410621Y1435631D02*
D03*
X7458773Y1264965D02*
D03*
X7385017Y1213176D02*
D03*
X7649561Y1200332D02*
D03*
X7650561Y1250322D02*
D03*
X7440000Y1080000D02*
D03*
X7439112Y2191143D02*
D03*
X7458939Y2238790D02*
D03*
X7432363Y2054452D02*
D03*
X7430295Y2003702D02*
D03*
X7240000Y2110000D02*
D03*
Y2050000D02*
D03*
X7249985Y2519995D02*
D03*
X7245099Y2582718D02*
D03*
X7455007Y2518799D02*
D03*
X7455922Y2466946D02*
D03*
X7183075Y2593718D02*
D03*
X7445931Y2654781D02*
D03*
X7452604Y2712784D02*
D03*
X7246253Y2770894D02*
D03*
X7240000Y2720000D02*
D03*
X7651751Y3676000D02*
D03*
X7210000Y3325000D02*
D03*
X8268795Y2781968D02*
D03*
X6801229Y3169430D02*
D03*
X5600865Y3493579D02*
D03*
X5912935Y2959168D02*
D03*
X8569185Y2737375D02*
D03*
X8552500Y2559739D02*
D03*
X5639965Y4382866D02*
D03*
X5439190Y3644282D02*
D03*
X5543187Y3694652D02*
D03*
X6909461Y1373397D02*
D03*
X4599494Y1619981D02*
D03*
X4510000Y2670000D02*
D03*
X2350000Y3210000D02*
D03*
X8336372Y684779D02*
D03*
X3950000Y2250000D02*
D03*
X3795090Y2117655D02*
D03*
X4008448Y1334383D02*
D03*
X4109413Y1779007D02*
D03*
X5091511Y4826774D02*
D03*
X4731207Y4827546D02*
D03*
X5969054Y4625903D02*
D03*
X6583957Y1223066D02*
D03*
X3440000Y3630000D02*
D03*
X3000000Y2200000D02*
D03*
Y2430000D02*
D03*
X2410000Y1930000D02*
D03*
Y1700000D02*
D03*
X3554238Y1637718D02*
D03*
X6981659Y2564787D02*
D03*
X6574714Y923815D02*
D03*
X5584281Y2736198D02*
D03*
X5246126Y2465041D02*
D03*
X4306654Y1298722D02*
D03*
X4220000Y1480000D02*
D03*
X4230000Y1540000D02*
D03*
X4330000Y2220000D02*
D03*
X5391499Y3954002D02*
D03*
X5401082Y2210489D02*
D03*
X5401488Y1770850D02*
D03*
X5395308Y2711469D02*
D03*
X4364802Y2633201D02*
D03*
X5160000Y1700000D02*
D03*
X5463722Y1916669D02*
D03*
X4750000Y3410000D02*
D03*
X4850000Y3450000D02*
D03*
X4960000Y3240000D02*
D03*
X4444097Y3326817D02*
D03*
X2927766Y4177072D02*
D03*
X3259993Y3139994D02*
D03*
X2980000Y3170001D02*
D03*
X2938364Y4609819D02*
D03*
X3392500Y2550000D02*
D03*
X4089577Y3458928D02*
D03*
X3499875Y3182500D02*
D03*
X4089999Y2717500D02*
D03*
X3520000Y2350000D02*
D03*
X2610278Y2037934D02*
D03*
X3453859Y2169371D02*
D03*
X4048113Y1964887D02*
D03*
X3239578Y1866066D02*
D03*
X3900347Y1212274D02*
D03*
X3390000Y1030000D02*
D03*
X2722076Y3263632D02*
D03*
X7417279Y1163852D02*
D03*
X8225547Y4147272D02*
D03*
X8196010Y3966066D02*
D03*
X8205223Y4024776D02*
D03*
X6962354Y1377731D02*
D03*
X7780000Y1400000D02*
D03*
X6925887Y1458315D02*
D03*
X7804298Y1845702D02*
D03*
X6792748Y2418006D02*
D03*
X6338042Y1867057D02*
D03*
X6550367Y1920716D02*
D03*
X6391872Y1995771D02*
D03*
X6300000Y1610000D02*
D03*
X6550000Y860000D02*
D03*
X6668093Y828380D02*
D03*
X5410000Y880000D02*
D03*
X6469871Y611393D02*
D03*
X6981610Y601044D02*
D03*
X7159078Y624207D02*
D03*
X8223537Y2606359D02*
D03*
X8117549Y3006671D02*
D03*
X7717762Y736535D02*
D03*
X3259697Y1115924D02*
D03*
X6940000Y2947500D02*
D03*
X7852918Y2962686D02*
D03*
X8181422Y2878977D02*
D03*
X8181230Y2945002D02*
D03*
X7849778Y2631825D02*
D03*
X7880000Y1920000D02*
D03*
X7650000Y2280000D02*
D03*
Y2445000D02*
D03*
X7529112Y2444793D02*
D03*
X8131039Y2610196D02*
D03*
X8070000Y2450000D02*
D03*
X8130000Y2510000D02*
D03*
X8340407Y2047135D02*
D03*
X8274077Y1960350D02*
D03*
X8250991Y1910622D02*
D03*
X8343944Y1938175D02*
D03*
X8340906Y1869523D02*
D03*
X4500000Y4500000D02*
D03*
X5101347Y4503003D02*
D03*
X4751347D02*
D03*
X4921347Y2563003D02*
D03*
X6731497Y875833D02*
D03*
X5592089Y1702985D02*
D03*
X5620000Y2000000D02*
D03*
X5619286Y2054045D02*
D03*
X5982366Y4273059D02*
D03*
X8182685Y4642287D02*
D03*
X5990551Y3539929D02*
D03*
X5960045Y2706612D02*
D03*
X6573796Y2813468D02*
D03*
X7185789Y2899534D02*
D03*
X6794371Y2714635D02*
D03*
X6380000Y3180000D02*
D03*
X6949095Y4828738D02*
D03*
X7329264Y4827195D02*
D03*
X7850000Y4630000D02*
D03*
X6787656Y1992762D02*
D03*
X6680000Y2280001D02*
D03*
X5986360Y1060716D02*
D03*
X5908597Y763530D02*
D03*
X7471172Y1554359D02*
D03*
X6778295Y1595643D02*
D03*
X7364207Y1548600D02*
D03*
X6970983Y993664D02*
D03*
X6843436Y1057733D02*
D03*
X7820000Y1050000D02*
D03*
X5894331Y1178451D02*
D03*
X5910706Y1229467D02*
D03*
X5880474Y1275444D02*
D03*
X5862353Y1446317D02*
D03*
X5720000Y1290000D02*
D03*
X4823740Y1240134D02*
D03*
X4822417Y1140418D02*
D03*
X4870496Y1065889D02*
D03*
X5307534Y757266D02*
D03*
X3515675Y1155029D02*
D03*
X2680532Y600491D02*
D03*
X6670672Y2714062D02*
D03*
X4860000Y1460000D02*
D03*
X5468170Y1578802D02*
D03*
X5972225Y3738184D02*
D03*
X8050000Y3260000D02*
D03*
X7850000Y530000D02*
D03*
X7141946Y1005659D02*
D03*
X4780000Y1380000D02*
D03*
X3343313Y718731D02*
D03*
X4319500Y959500D02*
D03*
X3901347Y1308653D02*
D03*
X3260339Y800579D02*
D03*
X3470000Y1050000D02*
D03*
X3198847Y941388D02*
D03*
X2127080Y1183054D02*
D03*
X1960000Y1817392D02*
D03*
X5599722Y1768096D02*
D03*
X5597932Y2191787D02*
D03*
X5847336Y830870D02*
D03*
X5854327Y935673D02*
D03*
X5854999Y1325000D02*
D03*
X6002746Y1790909D02*
D03*
Y2210001D02*
D03*
X6963499Y795281D02*
D03*
X6750000Y2200000D02*
D03*
X6797500Y2566485D02*
D03*
X6750000Y2850000D02*
D03*
X6682471Y2585249D02*
D03*
X7410000Y4700000D02*
D03*
X6913016Y4603016D02*
D03*
X5403661Y2315116D02*
D03*
X5122333Y2713076D02*
D03*
X2543568Y2919950D02*
D03*
X5814897Y2701733D02*
D03*
X6260000Y1290000D02*
D03*
Y887379D02*
D03*
X5831296Y1867204D02*
D03*
X6089273Y1402302D02*
D03*
X6090000Y990000D02*
D03*
X5594827Y2111606D02*
D03*
X7147500Y1156486D02*
D03*
X7152358Y1507069D02*
D03*
X7154477Y845000D02*
D03*
X6615000Y1340370D02*
D03*
X7140000Y2130000D02*
D03*
X7000924Y2869064D02*
D03*
X6970000Y2213213D02*
D03*
X8190000Y1660000D02*
D03*
X5603879Y1110165D02*
D03*
X7707500Y1050495D02*
D03*
X8350383Y3520454D02*
D03*
X4560639Y4052602D02*
D03*
X5580000Y2950000D02*
D03*
X5490000Y3100000D02*
D03*
X4640052Y3398326D02*
D03*
X5527472Y2810000D02*
D03*
X4900000Y3990000D02*
D03*
X4800000Y3989014D02*
D03*
X5495072Y3540833D02*
D03*
X4558761Y3037421D02*
D03*
X4399547Y3283233D02*
D03*
X4175870Y718223D02*
D03*
X2550432Y910944D02*
D03*
X3330000Y1470000D02*
D03*
X3340380Y1746653D02*
D03*
X2241823Y3817545D02*
D03*
X3168890Y3903603D02*
D03*
X3490000Y4100000D02*
D03*
X3640000Y1930000D02*
D03*
X3017681Y1001305D02*
D03*
X5810000Y3060000D02*
D03*
X5170000Y3600000D02*
D03*
X4610000Y4180000D02*
D03*
X4999571Y3840468D02*
D03*
X7550000Y4480000D02*
D03*
X6965772Y1978753D02*
D03*
X1810833Y1870415D02*
D03*
X6849131Y4627216D02*
D03*
X6530000Y4670000D02*
D03*
X6410000Y4590000D02*
D03*
X6398170Y4489057D02*
D03*
X3931452Y832573D02*
D03*
X6692653Y4336911D02*
D03*
X7179667Y4373121D02*
D03*
X7047500Y4490000D02*
D03*
X7200000Y4480000D02*
D03*
X5968082Y4340141D02*
D03*
X5750000Y4510000D02*
D03*
X5424918Y4327451D02*
D03*
X5080000Y3960000D02*
D03*
X6844695Y4195084D02*
D03*
X4360000Y4721722D02*
D03*
X5908991Y4626532D02*
D03*
X6160000Y4590000D02*
D03*
X7210790Y4721611D02*
D03*
X7540000Y4580000D02*
D03*
X5550000Y4630000D02*
D03*
X5499863Y4632256D02*
D03*
X5141408Y4549718D02*
D03*
X5209939Y4555019D02*
D03*
X5908557Y814952D02*
D03*
X4120000Y4570000D02*
D03*
X6680000Y4840000D02*
D03*
X5240000Y4850000D02*
D03*
X4390000D02*
D03*
X3620000Y4550000D02*
D03*
X4022208Y4695489D02*
D03*
X4010000Y4530000D02*
D03*
X5713689Y4890134D02*
D03*
X7035770Y4389633D02*
D03*
X6351000Y4624083D02*
D03*
X4083501Y779788D02*
D03*
X2721526Y4827756D02*
D03*
X2821915Y4830749D02*
D03*
X1956782Y1021469D02*
D03*
X1872100Y1474775D02*
D03*
X3148932Y742512D02*
D03*
X3835270Y1182957D02*
D03*
X3885916Y1140456D02*
D03*
X4279925Y716551D02*
D03*
X6753371Y2114523D02*
D03*
X6759394Y2034384D02*
D03*
X4510801Y3693668D02*
D03*
X4510639Y3765770D02*
D03*
X4713598Y2973046D02*
D03*
X4709536Y2907273D02*
D03*
X4562262Y3101914D02*
D03*
X5100000Y830000D02*
D03*
X5522500Y780000D02*
D03*
X5412500D02*
D03*
X5178937Y821950D02*
D03*
X4430000Y3690000D02*
D03*
X5273930Y624879D02*
D03*
X8180000Y4710000D02*
D03*
X8263173Y3560225D02*
D03*
X8262746Y3497006D02*
D03*
X8342706Y3417398D02*
D03*
X8338790Y3573566D02*
D03*
X8237078Y837239D02*
D03*
X8279247Y752676D02*
D03*
X8244326Y924809D02*
D03*
X8254941Y1004912D02*
D03*
X8340000Y750000D02*
D03*
X8186743Y839696D02*
D03*
X8339120Y4628445D02*
D03*
X8190097Y1000173D02*
D03*
X8336335Y1164376D02*
D03*
X8339832Y1564061D02*
D03*
X8335876Y1646753D02*
D03*
X8339173Y1805640D02*
D03*
X8339531Y3655497D02*
D03*
Y3895251D02*
D03*
X8340000Y4775000D02*
D03*
X8336858Y4295000D02*
D03*
X8338650Y4535000D02*
D03*
X8188231Y1717282D02*
D03*
X8338507Y1721834D02*
D03*
X8190960Y1472841D02*
D03*
X8190000Y1420000D02*
D03*
X8191135Y1312606D02*
D03*
X8185072Y1261180D02*
D03*
X8335341Y4680295D02*
D03*
X8333828Y4389101D02*
D03*
X8333073Y4441828D02*
D03*
X8190000Y3720000D02*
D03*
X8330000D02*
D03*
X4660000Y3540000D02*
D03*
X5452481Y3430081D02*
D03*
X5211075Y3725690D02*
D03*
X4617952Y4340233D02*
D03*
X5122086Y2843916D02*
D03*
X5122718Y3168584D02*
D03*
X5120000Y2970000D02*
D03*
X4399284Y2814947D02*
D03*
X2007255Y4699313D02*
D03*
X2356010Y4700798D02*
D03*
X3480000Y4680000D02*
D03*
X3455458Y4401433D02*
D03*
X3679868Y4307891D02*
D03*
X3995327Y3694868D02*
D03*
X3679400Y3694491D02*
D03*
X3910010Y4305052D02*
D03*
X2872337Y4410493D02*
D03*
X2199302Y4269783D02*
D03*
X2639250Y4282943D02*
D03*
X3329814Y3813335D02*
D03*
X3437287Y3448980D02*
D03*
X4280000Y1860000D02*
D03*
X3259728Y1310946D02*
D03*
X2720000Y960000D02*
D03*
X3000433Y801168D02*
D03*
X2409956Y630605D02*
D03*
X1499738Y1226361D02*
D03*
X2064939Y1368211D02*
D03*
X2008492Y1298202D02*
D03*
X2250000Y1580000D02*
D03*
X2415559Y1525693D02*
D03*
X2510000Y2630000D02*
D03*
X2299407Y2977139D02*
D03*
X2365367Y3034777D02*
D03*
D93*
X7620000Y464500D02*
D03*
X7366000D02*
D03*
X7112000D02*
D03*
X6858000D02*
D03*
X6604000D02*
D03*
X6350000D02*
D03*
X6096000D02*
D03*
X5842000D02*
D03*
X5588000D02*
D03*
X5334000D02*
D03*
X5080000D02*
D03*
X4826000D02*
D03*
X4572000D02*
D03*
X4318000D02*
D03*
X4064000D02*
D03*
X3810000D02*
D03*
X3556000D02*
D03*
X3302000D02*
D03*
X3048000D02*
D03*
X2794000D02*
D03*
X2540000D02*
D03*
X2286000D02*
D03*
X2032000D02*
D03*
X7620000Y170500D02*
D03*
X7366000D02*
D03*
X7112000D02*
D03*
X6858000D02*
D03*
X6604000D02*
D03*
X6350000D02*
D03*
X6096000D02*
D03*
X5842000D02*
D03*
X5588000D02*
D03*
X5334000D02*
D03*
X5080000D02*
D03*
X4826000D02*
D03*
X4572000D02*
D03*
X4318000D02*
D03*
X4064000D02*
D03*
X3810000D02*
D03*
X3556000D02*
D03*
X3302000D02*
D03*
X3048000D02*
D03*
X2794000D02*
D03*
X2540000D02*
D03*
X2286000D02*
D03*
X2032000D02*
D03*
X7620000Y5290500D02*
D03*
X7366000D02*
D03*
X7112000D02*
D03*
X6858000D02*
D03*
X6604000D02*
D03*
X6350000D02*
D03*
X6096000D02*
D03*
X5842000D02*
D03*
X5588000D02*
D03*
X5334000D02*
D03*
X5080000D02*
D03*
X4826000D02*
D03*
X4572000D02*
D03*
X4318000D02*
D03*
X4064000D02*
D03*
X3810000D02*
D03*
X3556000D02*
D03*
X3302000D02*
D03*
X3048000D02*
D03*
X2794000D02*
D03*
X2540000D02*
D03*
X2286000D02*
D03*
X2032000D02*
D03*
X7620000Y4996500D02*
D03*
X7366000D02*
D03*
X7112000D02*
D03*
X6858000D02*
D03*
X6604000D02*
D03*
X6350000D02*
D03*
X6096000D02*
D03*
X5842000D02*
D03*
X5588000D02*
D03*
X5334000D02*
D03*
X5080000D02*
D03*
X4826000D02*
D03*
X4572000D02*
D03*
X4318000D02*
D03*
X4064000D02*
D03*
X3810000D02*
D03*
X3556000D02*
D03*
X3302000D02*
D03*
X3048000D02*
D03*
X2794000D02*
D03*
X2540000D02*
D03*
X2286000D02*
D03*
X2032000D02*
D03*
D94*
X3920000Y2548000D02*
D03*
Y2748000D02*
D03*
Y2948000D02*
D03*
Y3148000D02*
D03*
Y3348000D02*
D03*
X3680000Y2548000D02*
D03*
Y2748000D02*
D03*
Y2948000D02*
D03*
Y3148000D02*
D03*
Y3348000D02*
D03*
D95*
X1460500Y5143500D02*
D03*
%TF.MD5,4a66707580420f5da87fa4c00c023cc7*%
M02*
