%TF.GenerationSoftware,Altium Limited,Altium Designer,25.3.3 (18)*%
G04 Layer_Color=2752767*
%FSLAX45Y45*%
%MOMM*%
%TF.SameCoordinates,3F5801E6-D28E-45E5-A6F2-2741A7385EEC*%
%TF.FilePolarity,Positive*%
%TF.FileFunction,Drawing*%
%TF.Part,Single*%
G01*
G75*
%TA.AperFunction,NonConductor*%
%ADD642C,0.16933*%
%ADD644C,0.12700*%
D642*
X8163800Y2275000D02*
G03*
X8163800Y2275000I-50800J0D01*
G01*
X8313800Y455000D02*
G03*
X8313800Y455000I-50800J0D01*
G01*
X8163800Y5005000D02*
G03*
X8163800Y5005000I-50800J0D01*
G01*
X8313800Y3185000D02*
G03*
X8313800Y3185000I-50800J0D01*
G01*
X1530800Y345000D02*
G03*
X1530800Y345000I-50800J0D01*
G01*
Y695000D02*
G03*
X1530800Y695000I-50800J0D01*
G01*
D644*
X1981200Y139700D02*
Y241300D01*
X2082800D01*
Y139700D01*
X1981200D01*
X2235200D02*
Y241300D01*
X2336800D01*
Y139700D01*
X2235200D01*
X2489200D02*
Y241300D01*
X2590800D01*
Y139700D01*
X2489200D01*
X2743200D02*
Y241300D01*
X2844800D01*
Y139700D01*
X2743200D01*
X2997200D02*
Y241300D01*
X3098800D01*
Y139700D01*
X2997200D01*
X3251200D02*
Y241300D01*
X3352800D01*
Y139700D01*
X3251200D01*
X3505200D02*
Y241300D01*
X3606800D01*
Y139700D01*
X3505200D01*
X3759200D02*
Y241300D01*
X3860800D01*
Y139700D01*
X3759200D01*
X4013200D02*
Y241300D01*
X4114800D01*
Y139700D01*
X4013200D01*
X4267200D02*
Y241300D01*
X4368800D01*
Y139700D01*
X4267200D01*
X4521200D02*
Y241300D01*
X4622800D01*
Y139700D01*
X4521200D01*
X4775200D02*
Y241300D01*
X4876800D01*
Y139700D01*
X4775200D01*
X5029200D02*
Y241300D01*
X5130800D01*
Y139700D01*
X5029200D01*
X5283200D02*
Y241300D01*
X5384800D01*
Y139700D01*
X5283200D01*
X5537200D02*
Y241300D01*
X5638800D01*
Y139700D01*
X5537200D01*
X5791200D02*
Y241300D01*
X5892800D01*
Y139700D01*
X5791200D01*
X6045200D02*
Y241300D01*
X6146800D01*
Y139700D01*
X6045200D01*
X6299200D02*
Y241300D01*
X6400800D01*
Y139700D01*
X6299200D01*
X6553200D02*
Y241300D01*
X6654800D01*
Y139700D01*
X6553200D01*
X6807200D02*
Y241300D01*
X6908800D01*
Y139700D01*
X6807200D01*
X7061200D02*
Y241300D01*
X7162800D01*
Y139700D01*
X7061200D01*
X7315200D02*
Y241300D01*
X7416800D01*
Y139700D01*
X7315200D01*
X7569200D02*
Y241300D01*
X7670800D01*
Y139700D01*
X7569200D01*
X1981200Y393700D02*
Y495300D01*
X2082800D01*
Y393700D01*
X1981200D01*
X2235200D02*
Y495300D01*
X2336800D01*
Y393700D01*
X2235200D01*
X2489200D02*
Y495300D01*
X2590800D01*
Y393700D01*
X2489200D01*
X2743200D02*
Y495300D01*
X2844800D01*
Y393700D01*
X2743200D01*
X2997200D02*
Y495300D01*
X3098800D01*
Y393700D01*
X2997200D01*
X3251200D02*
Y495300D01*
X3352800D01*
Y393700D01*
X3251200D01*
X3505200D02*
Y495300D01*
X3606800D01*
Y393700D01*
X3505200D01*
X3759200D02*
Y495300D01*
X3860800D01*
Y393700D01*
X3759200D01*
X4013200D02*
Y495300D01*
X4114800D01*
Y393700D01*
X4013200D01*
X4267200D02*
Y495300D01*
X4368800D01*
Y393700D01*
X4267200D01*
X4521200D02*
Y495300D01*
X4622800D01*
Y393700D01*
X4521200D01*
X4775200D02*
Y495300D01*
X4876800D01*
Y393700D01*
X4775200D01*
X5029200D02*
Y495300D01*
X5130800D01*
Y393700D01*
X5029200D01*
X5283200D02*
Y495300D01*
X5384800D01*
Y393700D01*
X5283200D01*
X5537200D02*
Y495300D01*
X5638800D01*
Y393700D01*
X5537200D01*
X5791200D02*
Y495300D01*
X5892800D01*
Y393700D01*
X5791200D01*
X6045200D02*
Y495300D01*
X6146800D01*
Y393700D01*
X6045200D01*
X6299200D02*
Y495300D01*
X6400800D01*
Y393700D01*
X6299200D01*
X6553200D02*
Y495300D01*
X6654800D01*
Y393700D01*
X6553200D01*
X6807200D02*
Y495300D01*
X6908800D01*
Y393700D01*
X6807200D01*
X7061200D02*
Y495300D01*
X7162800D01*
Y393700D01*
X7061200D01*
X7315200D02*
Y495300D01*
X7416800D01*
Y393700D01*
X7315200D01*
X7569200D02*
Y495300D01*
X7670800D01*
Y393700D01*
X7569200D01*
X1981200Y4965700D02*
Y5067300D01*
X2082800D01*
Y4965700D01*
X1981200D01*
X2235200D02*
Y5067300D01*
X2336800D01*
Y4965700D01*
X2235200D01*
X2489200D02*
Y5067300D01*
X2590800D01*
Y4965700D01*
X2489200D01*
X2743200D02*
Y5067300D01*
X2844800D01*
Y4965700D01*
X2743200D01*
X2997200D02*
Y5067300D01*
X3098800D01*
Y4965700D01*
X2997200D01*
X3251200D02*
Y5067300D01*
X3352800D01*
Y4965700D01*
X3251200D01*
X3505200D02*
Y5067300D01*
X3606800D01*
Y4965700D01*
X3505200D01*
X3759200D02*
Y5067300D01*
X3860800D01*
Y4965700D01*
X3759200D01*
X4013200D02*
Y5067300D01*
X4114800D01*
Y4965700D01*
X4013200D01*
X4267200D02*
Y5067300D01*
X4368800D01*
Y4965700D01*
X4267200D01*
X4521200D02*
Y5067300D01*
X4622800D01*
Y4965700D01*
X4521200D01*
X4775200D02*
Y5067300D01*
X4876800D01*
Y4965700D01*
X4775200D01*
X5029200D02*
Y5067300D01*
X5130800D01*
Y4965700D01*
X5029200D01*
X5283200D02*
Y5067300D01*
X5384800D01*
Y4965700D01*
X5283200D01*
X5537200D02*
Y5067300D01*
X5638800D01*
Y4965700D01*
X5537200D01*
X5791200D02*
Y5067300D01*
X5892800D01*
Y4965700D01*
X5791200D01*
X6045200D02*
Y5067300D01*
X6146800D01*
Y4965700D01*
X6045200D01*
X6299200D02*
Y5067300D01*
X6400800D01*
Y4965700D01*
X6299200D01*
X6553200D02*
Y5067300D01*
X6654800D01*
Y4965700D01*
X6553200D01*
X6807200D02*
Y5067300D01*
X6908800D01*
Y4965700D01*
X6807200D01*
X7061200D02*
Y5067300D01*
X7162800D01*
Y4965700D01*
X7061200D01*
X7315200D02*
Y5067300D01*
X7416800D01*
Y4965700D01*
X7315200D01*
X7569200D02*
Y5067300D01*
X7670800D01*
Y4965700D01*
X7569200D01*
X1981200Y5219700D02*
Y5321300D01*
X2082800D01*
Y5219700D01*
X1981200D01*
X2235200D02*
Y5321300D01*
X2336800D01*
Y5219700D01*
X2235200D01*
X2489200D02*
Y5321300D01*
X2590800D01*
Y5219700D01*
X2489200D01*
X2743200D02*
Y5321300D01*
X2844800D01*
Y5219700D01*
X2743200D01*
X2997200D02*
Y5321300D01*
X3098800D01*
Y5219700D01*
X2997200D01*
X3251200D02*
Y5321300D01*
X3352800D01*
Y5219700D01*
X3251200D01*
X3505200D02*
Y5321300D01*
X3606800D01*
Y5219700D01*
X3505200D01*
X3759200D02*
Y5321300D01*
X3860800D01*
Y5219700D01*
X3759200D01*
X4013200D02*
Y5321300D01*
X4114800D01*
Y5219700D01*
X4013200D01*
X4267200D02*
Y5321300D01*
X4368800D01*
Y5219700D01*
X4267200D01*
X4521200D02*
Y5321300D01*
X4622800D01*
Y5219700D01*
X4521200D01*
X4775200D02*
Y5321300D01*
X4876800D01*
Y5219700D01*
X4775200D01*
X5029200D02*
Y5321300D01*
X5130800D01*
Y5219700D01*
X5029200D01*
X5283200D02*
Y5321300D01*
X5384800D01*
Y5219700D01*
X5283200D01*
X5537200D02*
Y5321300D01*
X5638800D01*
Y5219700D01*
X5537200D01*
X5791200D02*
Y5321300D01*
X5892800D01*
Y5219700D01*
X5791200D01*
X6045200D02*
Y5321300D01*
X6146800D01*
Y5219700D01*
X6045200D01*
X6299200D02*
Y5321300D01*
X6400800D01*
Y5219700D01*
X6299200D01*
X6553200D02*
Y5321300D01*
X6654800D01*
Y5219700D01*
X6553200D01*
X6807200D02*
Y5321300D01*
X6908800D01*
Y5219700D01*
X6807200D01*
X7061200D02*
Y5321300D01*
X7162800D01*
Y5219700D01*
X7061200D01*
X7315200D02*
Y5321300D01*
X7416800D01*
Y5219700D01*
X7315200D01*
X7569200D02*
Y5321300D01*
X7670800D01*
Y5219700D01*
X7569200D01*
X3849200Y2548000D02*
X3900000Y2598800D01*
X3950800Y2548000D01*
X3900000Y2497200D01*
X3849200Y2548000D01*
Y2748000D02*
X3900000Y2798800D01*
X3950800Y2748000D01*
X3900000Y2697200D01*
X3849200Y2748000D01*
Y2948000D02*
X3900000Y2998800D01*
X3950800Y2948000D01*
X3900000Y2897200D01*
X3849200Y2948000D01*
Y3148000D02*
X3900000Y3198800D01*
X3950800Y3148000D01*
X3900000Y3097200D01*
X3849200Y3148000D01*
Y3348000D02*
X3900000Y3398800D01*
X3950800Y3348000D01*
X3900000Y3297200D01*
X3849200Y3348000D01*
X3649200Y2548000D02*
X3700000Y2598800D01*
X3750800Y2548000D01*
X3700000Y2497200D01*
X3649200Y2548000D01*
Y2748000D02*
X3700000Y2798800D01*
X3750800Y2748000D01*
X3700000Y2697200D01*
X3649200Y2748000D01*
Y2948000D02*
X3700000Y2998800D01*
X3750800Y2948000D01*
X3700000Y2897200D01*
X3649200Y2948000D01*
Y3148000D02*
X3700000Y3198800D01*
X3750800Y3148000D01*
X3700000Y3097200D01*
X3649200Y3148000D01*
Y3348000D02*
X3700000Y3398800D01*
X3750800Y3348000D01*
X3700000Y3297200D01*
X3649200Y3348000D01*
X1460500Y5092700D02*
X1409700Y5194300D01*
X1511300D01*
X1460500Y5092700D01*
X8480000Y5289200D02*
X8505400Y5314600D01*
X8530800D01*
X8505400Y5340000D01*
X8530800Y5365400D01*
X8505400D01*
X8480000Y5390800D01*
X8454600Y5365400D01*
X8429200D01*
X8454600Y5340000D01*
X8429200Y5314600D01*
X8454600D01*
X8480000Y5289200D01*
X8505434Y87208D02*
X8530834Y112608D01*
X8556234D01*
X8530834Y138008D01*
X8556234Y163408D01*
X8530834D01*
X8505434Y188808D01*
X8480034Y163408D01*
X8454634D01*
X8480034Y138008D01*
X8454634Y112608D01*
X8480034D01*
X8505434Y87208D01*
X1250000Y69200D02*
X1275400Y94600D01*
X1300800D01*
X1275400Y120000D01*
X1300800Y145400D01*
X1275400D01*
X1250000Y170800D01*
X1224600Y145400D01*
X1199200D01*
X1224600Y120000D01*
X1199200Y94600D01*
X1224600D01*
X1250000Y69200D01*
X1210000Y1829200D02*
X1235400Y1854600D01*
X1260800D01*
X1235400Y1880000D01*
X1260800Y1905400D01*
X1235400D01*
X1210000Y1930800D01*
X1184600Y1905400D01*
X1159200D01*
X1184600Y1880000D01*
X1159200Y1854600D01*
X1184600D01*
X1210000Y1829200D01*
X1200000Y4029200D02*
X1225400Y4054600D01*
X1250800D01*
X1225400Y4080000D01*
X1250800Y4105400D01*
X1225400D01*
X1200000Y4130800D01*
X1174600Y4105400D01*
X1149200D01*
X1174600Y4080000D01*
X1149200Y4054600D01*
X1174600D01*
X1200000Y4029200D01*
X1569700Y5232700D02*
X1595100D01*
X1620500Y5258100D01*
X1645900Y5232700D01*
X1671300D01*
Y5258100D01*
X1645900Y5283500D01*
X1671300Y5308900D01*
Y5334300D01*
X1645900D01*
X1620500Y5308900D01*
X1595100Y5334300D01*
X1569700D01*
Y5308900D01*
X1595100Y5283500D01*
X1569700Y5258100D01*
Y5232700D01*
Y4952700D02*
X1595100D01*
X1620500Y4978100D01*
X1645900Y4952700D01*
X1671300D01*
Y4978100D01*
X1645900Y5003500D01*
X1671300Y5028900D01*
Y5054300D01*
X1645900D01*
X1620500Y5028900D01*
X1595100Y5054300D01*
X1569700D01*
Y5028900D01*
X1595100Y5003500D01*
X1569700Y4978100D01*
Y4952700D01*
X1249700D02*
X1275100D01*
X1300500Y4978100D01*
X1325900Y4952700D01*
X1351300D01*
Y4978100D01*
X1325900Y5003500D01*
X1351300Y5028900D01*
Y5054300D01*
X1325900D01*
X1300500Y5028900D01*
X1275100Y5054300D01*
X1249700D01*
Y5028900D01*
X1275100Y5003500D01*
X1249700Y4978100D01*
Y4952700D01*
Y5232700D02*
X1275100D01*
X1300500Y5258100D01*
X1325900Y5232700D01*
X1351300D01*
Y5258100D01*
X1325900Y5283500D01*
X1351300Y5308900D01*
Y5334300D01*
X1325900D01*
X1300500Y5308900D01*
X1275100Y5334300D01*
X1249700D01*
Y5308900D01*
X1275100Y5283500D01*
X1249700Y5258100D01*
Y5232700D01*
X7240929Y2190756D02*
X7266329Y2216156D01*
X7291729D01*
X7266329Y2241556D01*
X7291729Y2266956D01*
X7266329D01*
X7240929Y2292356D01*
X7215529Y2266956D01*
X7190129D01*
X7215529Y2241556D01*
X7190129Y2216156D01*
X7215529D01*
X7240929Y2190756D01*
X7222160Y2252805D02*
X7247560Y2278205D01*
X7272960D01*
X7247560Y2303605D01*
X7272960Y2329005D01*
X7247560D01*
X7222160Y2354405D01*
X7196760Y2329005D01*
X7171360D01*
X7196760Y2303605D01*
X7171360Y2278205D01*
X7196760D01*
X7222160Y2252805D01*
X7150000Y4079200D02*
X7175400Y4104600D01*
X7200800D01*
X7175400Y4130000D01*
X7200800Y4155400D01*
X7175400D01*
X7150000Y4180800D01*
X7124600Y4155400D01*
X7099200D01*
X7124600Y4130000D01*
X7099200Y4104600D01*
X7124600D01*
X7150000Y4079200D01*
X7261104Y4232025D02*
X7286504Y4257425D01*
X7311904D01*
X7286504Y4282825D01*
X7311904Y4308225D01*
X7286504D01*
X7261104Y4333625D01*
X7235704Y4308225D01*
X7210304D01*
X7235704Y4282825D01*
X7210304Y4257425D01*
X7235704D01*
X7261104Y4232025D01*
X5245030Y1347308D02*
X5270430Y1372708D01*
X5295830D01*
X5270430Y1398108D01*
X5295830Y1423508D01*
X5270430D01*
X5245030Y1448908D01*
X5219630Y1423508D01*
X5194230D01*
X5219630Y1398108D01*
X5194230Y1372708D01*
X5219630D01*
X5245030Y1347308D01*
X8194093Y4391646D02*
X8219493Y4417046D01*
X8244893D01*
X8219493Y4442446D01*
X8244893Y4467846D01*
X8219493D01*
X8194093Y4493246D01*
X8168693Y4467846D01*
X8143293D01*
X8168693Y4442446D01*
X8143293Y4417046D01*
X8168693D01*
X8194093Y4391646D01*
X8208769Y4343848D02*
X8234169Y4369248D01*
X8259569D01*
X8234169Y4394648D01*
X8259569Y4420048D01*
X8234169D01*
X8208769Y4445448D01*
X8183369Y4420048D01*
X8157969D01*
X8183369Y4394648D01*
X8157969Y4369248D01*
X8183369D01*
X8208769Y4343848D01*
X8211155Y4038046D02*
X8236555Y4063446D01*
X8261955D01*
X8236555Y4088846D01*
X8261955Y4114246D01*
X8236555D01*
X8211155Y4139646D01*
X8185755Y4114246D01*
X8160355D01*
X8185755Y4088846D01*
X8160355Y4063446D01*
X8185755D01*
X8211155Y4038046D01*
X7335000Y3474200D02*
X7360400Y3499600D01*
X7385800D01*
X7360400Y3525000D01*
X7385800Y3550400D01*
X7360400D01*
X7335000Y3575800D01*
X7309600Y3550400D01*
X7284200D01*
X7309600Y3525000D01*
X7284200Y3499600D01*
X7309600D01*
X7335000Y3474200D01*
X6913922Y3695237D02*
X6939322Y3720637D01*
X6964722D01*
X6939322Y3746037D01*
X6964722Y3771437D01*
X6939322D01*
X6913922Y3796837D01*
X6888522Y3771437D01*
X6863122D01*
X6888522Y3746037D01*
X6863122Y3720637D01*
X6888522D01*
X6913922Y3695237D01*
X7119288Y3274469D02*
X7144688Y3299869D01*
X7170088D01*
X7144688Y3325269D01*
X7170088Y3350669D01*
X7144688D01*
X7119288Y3376069D01*
X7093888Y3350669D01*
X7068488D01*
X7093888Y3325269D01*
X7068488Y3299869D01*
X7093888D01*
X7119288Y3274469D01*
X6847227Y3360135D02*
X6872627Y3385535D01*
X6898027D01*
X6872627Y3410935D01*
X6898027Y3436335D01*
X6872627D01*
X6847227Y3461735D01*
X6821827Y3436335D01*
X6796427D01*
X6821827Y3410935D01*
X6796427Y3385535D01*
X6821827D01*
X6847227Y3360135D01*
X7378139Y4007878D02*
X7403539Y4033278D01*
X7428939D01*
X7403539Y4058678D01*
X7428939Y4084078D01*
X7403539D01*
X7378139Y4109478D01*
X7352739Y4084078D01*
X7327339D01*
X7352739Y4058678D01*
X7327339Y4033278D01*
X7352739D01*
X7378139Y4007878D01*
X7520656Y4048604D02*
X7546056Y4074004D01*
X7571456D01*
X7546056Y4099404D01*
X7571456Y4124804D01*
X7546056D01*
X7520656Y4150204D01*
X7495256Y4124804D01*
X7469856D01*
X7495256Y4099404D01*
X7469856Y4074004D01*
X7495256D01*
X7520656Y4048604D01*
X7290000Y4173224D02*
X7315400Y4198624D01*
X7340800D01*
X7315400Y4224024D01*
X7340800Y4249424D01*
X7315400D01*
X7290000Y4274824D01*
X7264600Y4249424D01*
X7239200D01*
X7264600Y4224024D01*
X7239200Y4198624D01*
X7264600D01*
X7290000Y4173224D01*
X7344231Y3739214D02*
X7369631Y3764614D01*
X7395031D01*
X7369631Y3790014D01*
X7395031Y3815414D01*
X7369631D01*
X7344231Y3840814D01*
X7318831Y3815414D01*
X7293431D01*
X7318831Y3790014D01*
X7293431Y3764614D01*
X7318831D01*
X7344231Y3739214D01*
X6931671Y3899187D02*
X6957071Y3924587D01*
X6982471D01*
X6957071Y3949987D01*
X6982471Y3975387D01*
X6957071D01*
X6931671Y4000787D01*
X6906271Y3975387D01*
X6880871D01*
X6906271Y3949987D01*
X6880871Y3924587D01*
X6906271D01*
X6931671Y3899187D01*
X7362427Y3587796D02*
X7387827Y3613196D01*
X7413227D01*
X7387827Y3638596D01*
X7413227Y3663996D01*
X7387827D01*
X7362427Y3689396D01*
X7337027Y3663996D01*
X7311627D01*
X7337027Y3638596D01*
X7311627Y3613196D01*
X7337027D01*
X7362427Y3587796D01*
X6788310Y4096700D02*
X6813710Y4122100D01*
X6839110D01*
X6813710Y4147500D01*
X6839110Y4172900D01*
X6813710D01*
X6788310Y4198300D01*
X6762910Y4172900D01*
X6737510D01*
X6762910Y4147500D01*
X6737510Y4122100D01*
X6762910D01*
X6788310Y4096700D01*
X6808750Y3921700D02*
X6834150Y3947100D01*
X6859550D01*
X6834150Y3972500D01*
X6859550Y3997900D01*
X6834150D01*
X6808750Y4023300D01*
X6783350Y3997900D01*
X6757950D01*
X6783350Y3972500D01*
X6757950Y3947100D01*
X6783350D01*
X6808750Y3921700D01*
X6044903Y4084989D02*
X6070303Y4110389D01*
X6095703D01*
X6070303Y4135789D01*
X6095703Y4161189D01*
X6070303D01*
X6044903Y4186589D01*
X6019503Y4161189D01*
X5994103D01*
X6019503Y4135789D01*
X5994103Y4110389D01*
X6019503D01*
X6044903Y4084989D01*
X6415725Y4043667D02*
X6441125Y4069067D01*
X6466525D01*
X6441125Y4094467D01*
X6466525Y4119867D01*
X6441125D01*
X6415725Y4145267D01*
X6390325Y4119867D01*
X6364925D01*
X6390325Y4094467D01*
X6364925Y4069067D01*
X6390325D01*
X6415725Y4043667D01*
X6318619Y3535092D02*
X6344019Y3560492D01*
X6369419D01*
X6344019Y3585892D01*
X6369419Y3611292D01*
X6344019D01*
X6318619Y3636692D01*
X6293219Y3611292D01*
X6267819D01*
X6293219Y3585892D01*
X6267819Y3560492D01*
X6293219D01*
X6318619Y3535092D01*
X6624225Y4307244D02*
X6649625Y4332644D01*
X6675025D01*
X6649625Y4358044D01*
X6675025Y4383444D01*
X6649625D01*
X6624225Y4408844D01*
X6598825Y4383444D01*
X6573425D01*
X6598825Y4358044D01*
X6573425Y4332644D01*
X6598825D01*
X6624225Y4307244D01*
X6888489Y3983341D02*
X6913889Y4008741D01*
X6939289D01*
X6913889Y4034141D01*
X6939289Y4059541D01*
X6913889D01*
X6888489Y4084941D01*
X6863089Y4059541D01*
X6837689D01*
X6863089Y4034141D01*
X6837689Y4008741D01*
X6863089D01*
X6888489Y3983341D01*
X6938426Y4031359D02*
X6963826Y4056759D01*
X6989226D01*
X6963826Y4082159D01*
X6989226Y4107559D01*
X6963826D01*
X6938426Y4132959D01*
X6913026Y4107559D01*
X6887626D01*
X6913026Y4082159D01*
X6887626Y4056759D01*
X6913026D01*
X6938426Y4031359D01*
X6874515Y3891000D02*
X6899915Y3916400D01*
X6925315D01*
X6899915Y3941800D01*
X6925315Y3967200D01*
X6899915D01*
X6874515Y3992600D01*
X6849115Y3967200D01*
X6823715D01*
X6849115Y3941800D01*
X6823715Y3916400D01*
X6849115D01*
X6874515Y3891000D01*
X6390801Y3928482D02*
X6416201Y3953882D01*
X6441601D01*
X6416201Y3979282D01*
X6441601Y4004682D01*
X6416201D01*
X6390801Y4030082D01*
X6365401Y4004682D01*
X6340001D01*
X6365401Y3979282D01*
X6340001Y3953882D01*
X6365401D01*
X6390801Y3928482D01*
X6389432Y3877433D02*
X6414832Y3902833D01*
X6440232D01*
X6414832Y3928233D01*
X6440232Y3953633D01*
X6414832D01*
X6389432Y3979033D01*
X6364032Y3953633D01*
X6338632D01*
X6364032Y3928233D01*
X6338632Y3902833D01*
X6364032D01*
X6389432Y3877433D01*
X6389152Y3827434D02*
X6414552Y3852834D01*
X6439952D01*
X6414552Y3878234D01*
X6439952Y3903634D01*
X6414552D01*
X6389152Y3929034D01*
X6363752Y3903634D01*
X6338352D01*
X6363752Y3878234D01*
X6338352Y3852834D01*
X6363752D01*
X6389152Y3827434D01*
X6392651Y3769926D02*
X6418051Y3795326D01*
X6443451D01*
X6418051Y3820726D01*
X6443451Y3846126D01*
X6418051D01*
X6392651Y3871526D01*
X6367251Y3846126D01*
X6341851D01*
X6367251Y3820726D01*
X6341851Y3795326D01*
X6367251D01*
X6392651Y3769926D01*
X6390368Y3528610D02*
X6415768Y3554010D01*
X6441168D01*
X6415768Y3579410D01*
X6441168Y3604810D01*
X6415768D01*
X6390368Y3630210D01*
X6364968Y3604810D01*
X6339568D01*
X6364968Y3579410D01*
X6339568Y3554010D01*
X6364968D01*
X6390368Y3528610D01*
X6804181Y3775677D02*
X6829581Y3801077D01*
X6854981D01*
X6829581Y3826477D01*
X6854981Y3851877D01*
X6829581D01*
X6804181Y3877277D01*
X6778781Y3851877D01*
X6753381D01*
X6778781Y3826477D01*
X6753381Y3801077D01*
X6778781D01*
X6804181Y3775677D01*
X7347745Y3899108D02*
X7373145Y3924508D01*
X7398545D01*
X7373145Y3949908D01*
X7398545Y3975308D01*
X7373145D01*
X7347745Y4000708D01*
X7322345Y3975308D01*
X7296945D01*
X7322345Y3949908D01*
X7296945Y3924508D01*
X7322345D01*
X7347745Y3899108D01*
X7345109Y3796707D02*
X7370509Y3822107D01*
X7395909D01*
X7370509Y3847507D01*
X7395909Y3872907D01*
X7370509D01*
X7345109Y3898307D01*
X7319709Y3872907D01*
X7294309D01*
X7319709Y3847507D01*
X7294309Y3822107D01*
X7319709D01*
X7345109Y3796707D01*
X7388744Y3631442D02*
X7414144Y3656842D01*
X7439544D01*
X7414144Y3682242D01*
X7439544Y3707642D01*
X7414144D01*
X7388744Y3733042D01*
X7363344Y3707642D01*
X7337944D01*
X7363344Y3682242D01*
X7337944Y3656842D01*
X7363344D01*
X7388744Y3631442D01*
X6802913Y3827859D02*
X6828313Y3853259D01*
X6853713D01*
X6828313Y3878659D01*
X6853713Y3904059D01*
X6828313D01*
X6802913Y3929459D01*
X6777513Y3904059D01*
X6752113D01*
X6777513Y3878659D01*
X6752113Y3853259D01*
X6777513D01*
X6802913Y3827859D01*
X6906429Y3604845D02*
X6931829Y3630245D01*
X6957229D01*
X6931829Y3655645D01*
X6957229Y3681045D01*
X6931829D01*
X6906429Y3706445D01*
X6881029Y3681045D01*
X6855629D01*
X6881029Y3655645D01*
X6855629Y3630245D01*
X6881029D01*
X6906429Y3604845D01*
X6861531Y3754079D02*
X6886931Y3779479D01*
X6912331D01*
X6886931Y3804879D01*
X6912331Y3830279D01*
X6886931D01*
X6861531Y3855679D01*
X6836131Y3830279D01*
X6810731D01*
X6836131Y3804879D01*
X6810731Y3779479D01*
X6836131D01*
X6861531Y3754079D01*
X6857500Y3581672D02*
X6882900Y3607072D01*
X6908300D01*
X6882900Y3632472D01*
X6908300Y3657872D01*
X6882900D01*
X6857500Y3683272D01*
X6832100Y3657872D01*
X6806700D01*
X6832100Y3632472D01*
X6806700Y3607072D01*
X6832100D01*
X6857500Y3581672D01*
X6377072Y3459277D02*
X6402472Y3484677D01*
X6427872D01*
X6402472Y3510077D01*
X6427872Y3535477D01*
X6402472D01*
X6377072Y3560877D01*
X6351672Y3535477D01*
X6326272D01*
X6351672Y3510077D01*
X6326272Y3484677D01*
X6351672D01*
X6377072Y3459277D01*
X6379912Y3407444D02*
X6405312Y3432844D01*
X6430712D01*
X6405312Y3458244D01*
X6430712Y3483644D01*
X6405312D01*
X6379912Y3509044D01*
X6354512Y3483644D01*
X6329112D01*
X6354512Y3458244D01*
X6329112Y3432844D01*
X6354512D01*
X6379912Y3407444D01*
X6425115Y3329963D02*
X6450515Y3355363D01*
X6475915D01*
X6450515Y3380763D01*
X6475915Y3406163D01*
X6450515D01*
X6425115Y3431563D01*
X6399715Y3406163D01*
X6374315D01*
X6399715Y3380763D01*
X6374315Y3355363D01*
X6399715D01*
X6425115Y3329963D01*
X6850392Y3428213D02*
X6875792Y3453613D01*
X6901192D01*
X6875792Y3479013D01*
X6901192Y3504413D01*
X6875792D01*
X6850392Y3529813D01*
X6824992Y3504413D01*
X6799592D01*
X6824992Y3479013D01*
X6799592Y3453613D01*
X6824992D01*
X6850392Y3428213D01*
X5310584Y1133830D02*
X5335984Y1159230D01*
X5361384D01*
X5335984Y1184630D01*
X5361384Y1210030D01*
X5335984D01*
X5310584Y1235430D01*
X5285184Y1210030D01*
X5259784D01*
X5285184Y1184630D01*
X5259784Y1159230D01*
X5285184D01*
X5310584Y1133830D01*
X5333995Y979368D02*
X5359395Y1004768D01*
X5384795D01*
X5359395Y1030168D01*
X5384795Y1055568D01*
X5359395D01*
X5333995Y1080968D01*
X5308595Y1055568D01*
X5283195D01*
X5308595Y1030168D01*
X5283195Y1004768D01*
X5308595D01*
X5333995Y979368D01*
X5334007Y929368D02*
X5359407Y954768D01*
X5384807D01*
X5359407Y980168D01*
X5384807Y1005568D01*
X5359407D01*
X5334007Y1030968D01*
X5308607Y1005568D01*
X5283207D01*
X5308607Y980168D01*
X5283207Y954768D01*
X5308607D01*
X5334007Y929368D01*
X5542259Y921954D02*
X5567659Y947354D01*
X5593059D01*
X5567659Y972754D01*
X5593059Y998154D01*
X5567659D01*
X5542259Y1023554D01*
X5516859Y998154D01*
X5491459D01*
X5516859Y972754D01*
X5491459Y947354D01*
X5516859D01*
X5542259Y921954D01*
X5536309Y1088568D02*
X5561709Y1113968D01*
X5587109D01*
X5561709Y1139368D01*
X5587109Y1164768D01*
X5561709D01*
X5536309Y1190168D01*
X5510909Y1164768D01*
X5485509D01*
X5510909Y1139368D01*
X5485509Y1113968D01*
X5510909D01*
X5536309Y1088568D01*
X5493139Y1046560D02*
X5518539Y1071960D01*
X5543939D01*
X5518539Y1097360D01*
X5543939Y1122760D01*
X5518539D01*
X5493139Y1148160D01*
X5467739Y1122760D01*
X5442339D01*
X5467739Y1097360D01*
X5442339Y1071960D01*
X5467739D01*
X5493139Y1046560D01*
X5275076Y1190799D02*
X5300476Y1216199D01*
X5325876D01*
X5300476Y1241599D01*
X5325876Y1266999D01*
X5300476D01*
X5275076Y1292399D01*
X5249676Y1266999D01*
X5224276D01*
X5249676Y1241599D01*
X5224276Y1216199D01*
X5249676D01*
X5275076Y1190799D01*
X6490986Y1061019D02*
X6516386Y1086419D01*
X6541786D01*
X6516386Y1111819D01*
X6541786Y1137219D01*
X6516386D01*
X6490986Y1162619D01*
X6465586Y1137219D01*
X6440186D01*
X6465586Y1111819D01*
X6440186Y1086419D01*
X6465586D01*
X6490986Y1061019D01*
X6358347Y1393155D02*
X6383747Y1418555D01*
X6409147D01*
X6383747Y1443955D01*
X6409147Y1469355D01*
X6383747D01*
X6358347Y1494755D01*
X6332947Y1469355D01*
X6307547D01*
X6332947Y1443955D01*
X6307547Y1418555D01*
X6332947D01*
X6358347Y1393155D01*
X6342677Y2216700D02*
X6368077Y2242100D01*
X6393477D01*
X6368077Y2267500D01*
X6393477Y2292900D01*
X6368077D01*
X6342677Y2318300D01*
X6317277Y2292900D01*
X6291877D01*
X6317277Y2267500D01*
X6291877Y2242100D01*
X6317277D01*
X6342677Y2216700D01*
X6329318Y2168518D02*
X6354718Y2193918D01*
X6380118D01*
X6354718Y2219318D01*
X6380118Y2244718D01*
X6354718D01*
X6329318Y2270118D01*
X6303918Y2244718D01*
X6278518D01*
X6303918Y2219318D01*
X6278518Y2193918D01*
X6303918D01*
X6329318Y2168518D01*
X6339316Y779884D02*
X6364716Y805284D01*
X6390116D01*
X6364716Y830684D01*
X6390116Y856084D01*
X6364716D01*
X6339316Y881484D01*
X6313916Y856084D01*
X6288516D01*
X6313916Y830684D01*
X6288516Y805284D01*
X6313916D01*
X6339316Y779884D01*
X6327098Y1449477D02*
X6352498Y1474877D01*
X6377898D01*
X6352498Y1500277D01*
X6377898Y1525677D01*
X6352498D01*
X6327098Y1551077D01*
X6301698Y1525677D01*
X6276298D01*
X6301698Y1500277D01*
X6276298Y1474877D01*
X6301698D01*
X6327098Y1449477D01*
X6544840Y1390114D02*
X6570240Y1415514D01*
X6595640D01*
X6570240Y1440914D01*
X6595640Y1466314D01*
X6570240D01*
X6544840Y1491714D01*
X6519440Y1466314D01*
X6494040D01*
X6519440Y1440914D01*
X6494040Y1415514D01*
X6519440D01*
X6544840Y1390114D01*
X6519012Y1312580D02*
X6544412Y1337980D01*
X6569812D01*
X6544412Y1363380D01*
X6569812Y1388780D01*
X6544412D01*
X6519012Y1414180D01*
X6493612Y1388780D01*
X6468212D01*
X6493612Y1363380D01*
X6468212Y1337980D01*
X6493612D01*
X6519012Y1312580D01*
X6340000Y1149200D02*
X6365400Y1174600D01*
X6390800D01*
X6365400Y1200000D01*
X6390800Y1225400D01*
X6365400D01*
X6340000Y1250800D01*
X6314600Y1225400D01*
X6289200D01*
X6314600Y1200000D01*
X6289200Y1174600D01*
X6314600D01*
X6340000Y1149200D01*
X6358075Y721533D02*
X6383475Y746933D01*
X6408875D01*
X6383475Y772333D01*
X6408875Y797733D01*
X6383475D01*
X6358075Y823133D01*
X6332675Y797733D01*
X6307275D01*
X6332675Y772333D01*
X6307275Y746933D01*
X6332675D01*
X6358075Y721533D01*
X6360226Y887920D02*
X6385626Y913320D01*
X6411026D01*
X6385626Y938720D01*
X6411026Y964120D01*
X6385626D01*
X6360226Y989520D01*
X6334826Y964120D01*
X6309426D01*
X6334826Y938720D01*
X6309426Y913320D01*
X6334826D01*
X6360226Y887920D01*
X6427969Y1009392D02*
X6453369Y1034792D01*
X6478769D01*
X6453369Y1060192D01*
X6478769Y1085592D01*
X6453369D01*
X6427969Y1110992D01*
X6402569Y1085592D01*
X6377169D01*
X6402569Y1060192D01*
X6377169Y1034792D01*
X6402569D01*
X6427969Y1009392D01*
X6340000Y1219200D02*
X6365400Y1244600D01*
X6390800D01*
X6365400Y1270000D01*
X6390800Y1295400D01*
X6365400D01*
X6340000Y1320800D01*
X6314600Y1295400D01*
X6289200D01*
X6314600Y1270000D01*
X6289200Y1244600D01*
X6314600D01*
X6340000Y1219200D01*
Y1609200D02*
X6365400Y1634600D01*
X6390800D01*
X6365400Y1660000D01*
X6390800Y1685400D01*
X6365400D01*
X6340000Y1710800D01*
X6314600Y1685400D01*
X6289200D01*
X6314600Y1660000D01*
X6289200Y1634600D01*
X6314600D01*
X6340000Y1609200D01*
X6086516Y1669197D02*
X6111916Y1694597D01*
X6137316D01*
X6111916Y1719997D01*
X6137316Y1745397D01*
X6111916D01*
X6086516Y1770797D01*
X6061116Y1745397D01*
X6035716D01*
X6061116Y1719997D01*
X6035716Y1694597D01*
X6061116D01*
X6086516Y1669197D01*
X6091832Y1615553D02*
X6117232Y1640953D01*
X6142632D01*
X6117232Y1666353D01*
X6142632Y1691753D01*
X6117232D01*
X6091832Y1717153D01*
X6066432Y1691753D01*
X6041032D01*
X6066432Y1666353D01*
X6041032Y1640953D01*
X6066432D01*
X6091832Y1615553D01*
X6101729Y1838929D02*
X6127129Y1864329D01*
X6152529D01*
X6127129Y1889729D01*
X6152529Y1915129D01*
X6127129D01*
X6101729Y1940529D01*
X6076329Y1915129D01*
X6050929D01*
X6076329Y1889729D01*
X6050929Y1864329D01*
X6076329D01*
X6101729Y1838929D01*
X6082317Y1885969D02*
X6107717Y1911369D01*
X6133117D01*
X6107717Y1936769D01*
X6133117Y1962169D01*
X6107717D01*
X6082317Y1987569D01*
X6056917Y1962169D01*
X6031517D01*
X6056917Y1936769D01*
X6031517Y1911369D01*
X6056917D01*
X6082317Y1885969D01*
X6290000Y1769200D02*
X6315400Y1794600D01*
X6340800D01*
X6315400Y1820000D01*
X6340800Y1845400D01*
X6315400D01*
X6290000Y1870800D01*
X6264600Y1845400D01*
X6239200D01*
X6264600Y1820000D01*
X6239200Y1794600D01*
X6264600D01*
X6290000Y1769200D01*
X6079641Y2109808D02*
X6105041Y2135208D01*
X6130441D01*
X6105041Y2160608D01*
X6130441Y2186008D01*
X6105041D01*
X6079641Y2211408D01*
X6054241Y2186008D01*
X6028841D01*
X6054241Y2160608D01*
X6028841Y2135208D01*
X6054241D01*
X6079641Y2109808D01*
X6099988Y2239195D02*
X6125388Y2264595D01*
X6150788D01*
X6125388Y2289995D01*
X6150788Y2315395D01*
X6125388D01*
X6099988Y2340795D01*
X6074588Y2315395D01*
X6049188D01*
X6074588Y2289995D01*
X6049188Y2264595D01*
X6074588D01*
X6099988Y2239195D01*
X6090000Y2049200D02*
X6115400Y2074600D01*
X6140800D01*
X6115400Y2100000D01*
X6140800Y2125400D01*
X6115400D01*
X6090000Y2150800D01*
X6064600Y2125400D01*
X6039200D01*
X6064600Y2100000D01*
X6039200Y2074600D01*
X6064600D01*
X6090000Y2049200D01*
X6340000Y2039200D02*
X6365400Y2064600D01*
X6390800D01*
X6365400Y2090000D01*
X6390800Y2115400D01*
X6365400D01*
X6340000Y2140800D01*
X6314600Y2115400D01*
X6289200D01*
X6314600Y2090000D01*
X6289200Y2064600D01*
X6314600D01*
X6340000Y2039200D01*
X6311611Y1988969D02*
X6337011Y2014369D01*
X6362411D01*
X6337011Y2039769D01*
X6362411Y2065169D01*
X6337011D01*
X6311611Y2090569D01*
X6286211Y2065169D01*
X6260811D01*
X6286211Y2039769D01*
X6260811Y2014369D01*
X6286211D01*
X6311611Y1988969D01*
X7424361Y719518D02*
X7449761Y744918D01*
X7475161D01*
X7449761Y770318D01*
X7475161Y795718D01*
X7449761D01*
X7424361Y821118D01*
X7398961Y795718D01*
X7373561D01*
X7398961Y770318D01*
X7373561Y744918D01*
X7398961D01*
X7424361Y719518D01*
X7633186Y576602D02*
X7658586Y602002D01*
X7683986D01*
X7658586Y627402D01*
X7683986Y652802D01*
X7658586D01*
X7633186Y678202D01*
X7607786Y652802D01*
X7582386D01*
X7607786Y627402D01*
X7582386Y602002D01*
X7607786D01*
X7633186Y576602D01*
X7443210Y665047D02*
X7468610Y690447D01*
X7494010D01*
X7468610Y715847D01*
X7494010Y741247D01*
X7468610D01*
X7443210Y766647D01*
X7417810Y741247D01*
X7392410D01*
X7417810Y715847D01*
X7392410Y690447D01*
X7417810D01*
X7443210Y665047D01*
X7710039Y833445D02*
X7735439Y858845D01*
X7760839D01*
X7735439Y884245D01*
X7760839Y909645D01*
X7735439D01*
X7710039Y935045D01*
X7684639Y909645D01*
X7659239D01*
X7684639Y884245D01*
X7659239Y858845D01*
X7684639D01*
X7710039Y833445D01*
X7454770Y822555D02*
X7480170Y847955D01*
X7505570D01*
X7480170Y873355D01*
X7505570Y898755D01*
X7480170D01*
X7454770Y924155D01*
X7429370Y898755D01*
X7403970D01*
X7429370Y873355D01*
X7403970Y847955D01*
X7429370D01*
X7454770Y822555D01*
X7437173Y772579D02*
X7462573Y797979D01*
X7487973D01*
X7462573Y823379D01*
X7487973Y848779D01*
X7462573D01*
X7437173Y874179D01*
X7411773Y848779D01*
X7386373D01*
X7411773Y823379D01*
X7386373Y797979D01*
X7411773D01*
X7437173Y772579D01*
X7367773Y830430D02*
X7393173Y855830D01*
X7418573D01*
X7393173Y881230D01*
X7418573Y906630D01*
X7393173D01*
X7367773Y932030D01*
X7342373Y906630D01*
X7316973D01*
X7342373Y881230D01*
X7316973Y855830D01*
X7342373D01*
X7367773Y830430D01*
X7680000Y779200D02*
X7705400Y804600D01*
X7730800D01*
X7705400Y830000D01*
X7730800Y855400D01*
X7705400D01*
X7680000Y880800D01*
X7654600Y855400D01*
X7629200D01*
X7654600Y830000D01*
X7629200Y804600D01*
X7654600D01*
X7680000Y779200D01*
X7650000Y979200D02*
X7675400Y1004600D01*
X7700800D01*
X7675400Y1030000D01*
X7700800Y1055400D01*
X7675400D01*
X7650000Y1080800D01*
X7624600Y1055400D01*
X7599200D01*
X7624600Y1030000D01*
X7599200Y1004600D01*
X7624600D01*
X7650000Y979200D01*
Y1029200D02*
X7675400Y1054600D01*
X7700800D01*
X7675400Y1080000D01*
X7700800Y1105400D01*
X7675400D01*
X7650000Y1130800D01*
X7624600Y1105400D01*
X7599200D01*
X7624600Y1080000D01*
X7599200Y1054600D01*
X7624600D01*
X7650000Y1029200D01*
X7410621Y1384831D02*
X7436021Y1410231D01*
X7461421D01*
X7436021Y1435631D01*
X7461421Y1461031D01*
X7436021D01*
X7410621Y1486431D01*
X7385221Y1461031D01*
X7359821D01*
X7385221Y1435631D01*
X7359821Y1410231D01*
X7385221D01*
X7410621Y1384831D01*
X7458773Y1214165D02*
X7484173Y1239565D01*
X7509573D01*
X7484173Y1264965D01*
X7509573Y1290365D01*
X7484173D01*
X7458773Y1315765D01*
X7433373Y1290365D01*
X7407973D01*
X7433373Y1264965D01*
X7407973Y1239565D01*
X7433373D01*
X7458773Y1214165D01*
X7385017Y1162376D02*
X7410417Y1187776D01*
X7435817D01*
X7410417Y1213176D01*
X7435817Y1238576D01*
X7410417D01*
X7385017Y1263976D01*
X7359617Y1238576D01*
X7334217D01*
X7359617Y1213176D01*
X7334217Y1187776D01*
X7359617D01*
X7385017Y1162376D01*
X7649561Y1149532D02*
X7674961Y1174932D01*
X7700361D01*
X7674961Y1200332D01*
X7700361Y1225732D01*
X7674961D01*
X7649561Y1251132D01*
X7624161Y1225732D01*
X7598761D01*
X7624161Y1200332D01*
X7598761Y1174932D01*
X7624161D01*
X7649561Y1149532D01*
X7650561Y1199522D02*
X7675961Y1224922D01*
X7701361D01*
X7675961Y1250322D01*
X7701361Y1275722D01*
X7675961D01*
X7650561Y1301122D01*
X7625161Y1275722D01*
X7599761D01*
X7625161Y1250322D01*
X7599761Y1224922D01*
X7625161D01*
X7650561Y1199522D01*
X7440000Y1029200D02*
X7465400Y1054600D01*
X7490800D01*
X7465400Y1080000D01*
X7490800Y1105400D01*
X7465400D01*
X7440000Y1130800D01*
X7414600Y1105400D01*
X7389200D01*
X7414600Y1080000D01*
X7389200Y1054600D01*
X7414600D01*
X7440000Y1029200D01*
X7439112Y2140343D02*
X7464512Y2165743D01*
X7489912D01*
X7464512Y2191143D01*
X7489912Y2216543D01*
X7464512D01*
X7439112Y2241943D01*
X7413712Y2216543D01*
X7388312D01*
X7413712Y2191143D01*
X7388312Y2165743D01*
X7413712D01*
X7439112Y2140343D01*
X7458939Y2187990D02*
X7484339Y2213390D01*
X7509739D01*
X7484339Y2238790D01*
X7509739Y2264190D01*
X7484339D01*
X7458939Y2289590D01*
X7433539Y2264190D01*
X7408139D01*
X7433539Y2238790D01*
X7408139Y2213390D01*
X7433539D01*
X7458939Y2187990D01*
X7432363Y2003652D02*
X7457763Y2029052D01*
X7483163D01*
X7457763Y2054452D01*
X7483163Y2079852D01*
X7457763D01*
X7432363Y2105252D01*
X7406963Y2079852D01*
X7381563D01*
X7406963Y2054452D01*
X7381563Y2029052D01*
X7406963D01*
X7432363Y2003652D01*
X7430295Y1952902D02*
X7455695Y1978302D01*
X7481095D01*
X7455695Y2003702D01*
X7481095Y2029102D01*
X7455695D01*
X7430295Y2054502D01*
X7404895Y2029102D01*
X7379495D01*
X7404895Y2003702D01*
X7379495Y1978302D01*
X7404895D01*
X7430295Y1952902D01*
X7240000Y2059200D02*
X7265400Y2084600D01*
X7290800D01*
X7265400Y2110000D01*
X7290800Y2135400D01*
X7265400D01*
X7240000Y2160800D01*
X7214600Y2135400D01*
X7189200D01*
X7214600Y2110000D01*
X7189200Y2084600D01*
X7214600D01*
X7240000Y2059200D01*
Y1999200D02*
X7265400Y2024600D01*
X7290800D01*
X7265400Y2050000D01*
X7290800Y2075400D01*
X7265400D01*
X7240000Y2100800D01*
X7214600Y2075400D01*
X7189200D01*
X7214600Y2050000D01*
X7189200Y2024600D01*
X7214600D01*
X7240000Y1999200D01*
X7249985Y2469195D02*
X7275385Y2494595D01*
X7300785D01*
X7275385Y2519995D01*
X7300785Y2545395D01*
X7275385D01*
X7249985Y2570795D01*
X7224585Y2545395D01*
X7199185D01*
X7224585Y2519995D01*
X7199185Y2494595D01*
X7224585D01*
X7249985Y2469195D01*
X7245099Y2531918D02*
X7270499Y2557318D01*
X7295899D01*
X7270499Y2582718D01*
X7295899Y2608118D01*
X7270499D01*
X7245099Y2633518D01*
X7219699Y2608118D01*
X7194299D01*
X7219699Y2582718D01*
X7194299Y2557318D01*
X7219699D01*
X7245099Y2531918D01*
X7455007Y2467999D02*
X7480407Y2493399D01*
X7505807D01*
X7480407Y2518799D01*
X7505807Y2544199D01*
X7480407D01*
X7455007Y2569599D01*
X7429607Y2544199D01*
X7404207D01*
X7429607Y2518799D01*
X7404207Y2493399D01*
X7429607D01*
X7455007Y2467999D01*
X7455922Y2416146D02*
X7481322Y2441546D01*
X7506722D01*
X7481322Y2466946D01*
X7506722Y2492346D01*
X7481322D01*
X7455922Y2517746D01*
X7430522Y2492346D01*
X7405122D01*
X7430522Y2466946D01*
X7405122Y2441546D01*
X7430522D01*
X7455922Y2416146D01*
X7183075Y2542918D02*
X7208475Y2568318D01*
X7233875D01*
X7208475Y2593718D01*
X7233875Y2619118D01*
X7208475D01*
X7183075Y2644518D01*
X7157675Y2619118D01*
X7132275D01*
X7157675Y2593718D01*
X7132275Y2568318D01*
X7157675D01*
X7183075Y2542918D01*
X7445931Y2603981D02*
X7471331Y2629381D01*
X7496731D01*
X7471331Y2654781D01*
X7496731Y2680181D01*
X7471331D01*
X7445931Y2705581D01*
X7420531Y2680181D01*
X7395131D01*
X7420531Y2654781D01*
X7395131Y2629381D01*
X7420531D01*
X7445931Y2603981D01*
X7452604Y2661984D02*
X7478004Y2687384D01*
X7503404D01*
X7478004Y2712784D01*
X7503404Y2738184D01*
X7478004D01*
X7452604Y2763584D01*
X7427204Y2738184D01*
X7401804D01*
X7427204Y2712784D01*
X7401804Y2687384D01*
X7427204D01*
X7452604Y2661984D01*
X7246253Y2720094D02*
X7271653Y2745494D01*
X7297053D01*
X7271653Y2770894D01*
X7297053Y2796294D01*
X7271653D01*
X7246253Y2821694D01*
X7220853Y2796294D01*
X7195453D01*
X7220853Y2770894D01*
X7195453Y2745494D01*
X7220853D01*
X7246253Y2720094D01*
X7240000Y2669200D02*
X7265400Y2694600D01*
X7290800D01*
X7265400Y2720000D01*
X7290800Y2745400D01*
X7265400D01*
X7240000Y2770800D01*
X7214600Y2745400D01*
X7189200D01*
X7214600Y2720000D01*
X7189200Y2694600D01*
X7214600D01*
X7240000Y2669200D01*
X7651751Y3625200D02*
X7677151Y3650600D01*
X7702551D01*
X7677151Y3676000D01*
X7702551Y3701400D01*
X7677151D01*
X7651751Y3726800D01*
X7626351Y3701400D01*
X7600951D01*
X7626351Y3676000D01*
X7600951Y3650600D01*
X7626351D01*
X7651751Y3625200D01*
X7210000Y3274200D02*
X7235400Y3299600D01*
X7260800D01*
X7235400Y3325000D01*
X7260800Y3350400D01*
X7235400D01*
X7210000Y3375800D01*
X7184600Y3350400D01*
X7159200D01*
X7184600Y3325000D01*
X7159200Y3299600D01*
X7184600D01*
X7210000Y3274200D01*
X8268795Y2731168D02*
X8294195Y2756568D01*
X8319595D01*
X8294195Y2781968D01*
X8319595Y2807368D01*
X8294195D01*
X8268795Y2832768D01*
X8243395Y2807368D01*
X8217995D01*
X8243395Y2781968D01*
X8217995Y2756568D01*
X8243395D01*
X8268795Y2731168D01*
X6801229Y3118630D02*
X6826629Y3144030D01*
X6852029D01*
X6826629Y3169430D01*
X6852029Y3194830D01*
X6826629D01*
X6801229Y3220230D01*
X6775829Y3194830D01*
X6750429D01*
X6775829Y3169430D01*
X6750429Y3144030D01*
X6775829D01*
X6801229Y3118630D01*
X5600865Y3442780D02*
X5626265Y3468180D01*
X5651665D01*
X5626265Y3493579D01*
X5651665Y3518980D01*
X5626265D01*
X5600865Y3544380D01*
X5575465Y3518980D01*
X5550065D01*
X5575465Y3493579D01*
X5550065Y3468180D01*
X5575465D01*
X5600865Y3442780D01*
X5912935Y2908368D02*
X5938335Y2933768D01*
X5963735D01*
X5938335Y2959168D01*
X5963735Y2984568D01*
X5938335D01*
X5912935Y3009968D01*
X5887535Y2984568D01*
X5862135D01*
X5887535Y2959168D01*
X5862135Y2933768D01*
X5887535D01*
X5912935Y2908368D01*
X2380667Y1236723D02*
X2406067Y1262123D01*
X2431467D01*
X2406067Y1287523D01*
X2431467Y1312923D01*
X2406067D01*
X2380667Y1338323D01*
X2355267Y1312923D01*
X2329867D01*
X2355267Y1287523D01*
X2329867Y1262123D01*
X2355267D01*
X2380667Y1236723D01*
X8569185Y2686575D02*
X8594585Y2711975D01*
X8619985D01*
X8594585Y2737375D01*
X8619985Y2762775D01*
X8594585D01*
X8569185Y2788175D01*
X8543785Y2762775D01*
X8518385D01*
X8543785Y2737375D01*
X8518385Y2711975D01*
X8543785D01*
X8569185Y2686575D01*
X8552500Y2508939D02*
X8577900Y2534339D01*
X8603300D01*
X8577900Y2559739D01*
X8603300Y2585139D01*
X8577900D01*
X8552500Y2610539D01*
X8527100Y2585139D01*
X8501700D01*
X8527100Y2559739D01*
X8501700Y2534339D01*
X8527100D01*
X8552500Y2508939D01*
X5639965Y4332066D02*
X5665365Y4357466D01*
X5690765D01*
X5665365Y4382866D01*
X5690765Y4408266D01*
X5665365D01*
X5639965Y4433666D01*
X5614565Y4408266D01*
X5589165D01*
X5614565Y4382866D01*
X5589165Y4357466D01*
X5614565D01*
X5639965Y4332066D01*
X5439190Y3593482D02*
X5464590Y3618882D01*
X5489990D01*
X5464590Y3644282D01*
X5489990Y3669682D01*
X5464590D01*
X5439190Y3695082D01*
X5413790Y3669682D01*
X5388390D01*
X5413790Y3644282D01*
X5388390Y3618882D01*
X5413790D01*
X5439190Y3593482D01*
X5543187Y3643852D02*
X5568587Y3669252D01*
X5593987D01*
X5568587Y3694652D01*
X5593987Y3720052D01*
X5568587D01*
X5543187Y3745452D01*
X5517787Y3720052D01*
X5492387D01*
X5517787Y3694652D01*
X5492387Y3669252D01*
X5517787D01*
X5543187Y3643852D01*
X6909461Y1322597D02*
X6934861Y1347997D01*
X6960261D01*
X6934861Y1373397D01*
X6960261Y1398797D01*
X6934861D01*
X6909461Y1424197D01*
X6884061Y1398797D01*
X6858661D01*
X6884061Y1373397D01*
X6858661Y1347997D01*
X6884061D01*
X6909461Y1322597D01*
X4599494Y1569181D02*
X4624894Y1594581D01*
X4650294D01*
X4624894Y1619981D01*
X4650294Y1645381D01*
X4624894D01*
X4599494Y1670781D01*
X4574094Y1645381D01*
X4548694D01*
X4574094Y1619981D01*
X4548694Y1594581D01*
X4574094D01*
X4599494Y1569181D01*
X4510000Y2619200D02*
X4535400Y2644600D01*
X4560800D01*
X4535400Y2670000D01*
X4560800Y2695400D01*
X4535400D01*
X4510000Y2720800D01*
X4484600Y2695400D01*
X4459200D01*
X4484600Y2670000D01*
X4459200Y2644600D01*
X4484600D01*
X4510000Y2619200D01*
X2350000Y3159200D02*
X2375400Y3184600D01*
X2400800D01*
X2375400Y3210000D01*
X2400800Y3235400D01*
X2375400D01*
X2350000Y3260800D01*
X2324600Y3235400D01*
X2299200D01*
X2324600Y3210000D01*
X2299200Y3184600D01*
X2324600D01*
X2350000Y3159200D01*
X8336372Y633979D02*
X8361772Y659379D01*
X8387172D01*
X8361772Y684779D01*
X8387172Y710179D01*
X8361772D01*
X8336372Y735579D01*
X8310972Y710179D01*
X8285572D01*
X8310972Y684779D01*
X8285572Y659379D01*
X8310972D01*
X8336372Y633979D01*
X3950000Y2199200D02*
X3975400Y2224600D01*
X4000800D01*
X3975400Y2250000D01*
X4000800Y2275400D01*
X3975400D01*
X3950000Y2300800D01*
X3924600Y2275400D01*
X3899200D01*
X3924600Y2250000D01*
X3899200Y2224600D01*
X3924600D01*
X3950000Y2199200D01*
X3795090Y2066855D02*
X3820490Y2092255D01*
X3845890D01*
X3820490Y2117655D01*
X3845890Y2143055D01*
X3820490D01*
X3795090Y2168455D01*
X3769690Y2143055D01*
X3744290D01*
X3769690Y2117655D01*
X3744290Y2092255D01*
X3769690D01*
X3795090Y2066855D01*
X4008448Y1283583D02*
X4033848Y1308983D01*
X4059248D01*
X4033848Y1334383D01*
X4059248Y1359783D01*
X4033848D01*
X4008448Y1385183D01*
X3983048Y1359783D01*
X3957648D01*
X3983048Y1334383D01*
X3957648Y1308983D01*
X3983048D01*
X4008448Y1283583D01*
X4109413Y1728207D02*
X4134813Y1753607D01*
X4160213D01*
X4134813Y1779007D01*
X4160213Y1804407D01*
X4134813D01*
X4109413Y1829807D01*
X4084013Y1804407D01*
X4058613D01*
X4084013Y1779007D01*
X4058613Y1753607D01*
X4084013D01*
X4109413Y1728207D01*
X5091511Y4775974D02*
X5116911Y4801374D01*
X5142311D01*
X5116911Y4826774D01*
X5142311Y4852174D01*
X5116911D01*
X5091511Y4877574D01*
X5066111Y4852174D01*
X5040711D01*
X5066111Y4826774D01*
X5040711Y4801374D01*
X5066111D01*
X5091511Y4775974D01*
X4731207Y4776746D02*
X4756607Y4802146D01*
X4782007D01*
X4756607Y4827546D01*
X4782007Y4852946D01*
X4756607D01*
X4731207Y4878346D01*
X4705807Y4852946D01*
X4680407D01*
X4705807Y4827546D01*
X4680407Y4802146D01*
X4705807D01*
X4731207Y4776746D01*
X5969054Y4575103D02*
X5994454Y4600503D01*
X6019854D01*
X5994454Y4625903D01*
X6019854Y4651303D01*
X5994454D01*
X5969054Y4676703D01*
X5943654Y4651303D01*
X5918254D01*
X5943654Y4625903D01*
X5918254Y4600503D01*
X5943654D01*
X5969054Y4575103D01*
X6583957Y1172266D02*
X6609357Y1197666D01*
X6634757D01*
X6609357Y1223066D01*
X6634757Y1248466D01*
X6609357D01*
X6583957Y1273866D01*
X6558557Y1248466D01*
X6533157D01*
X6558557Y1223066D01*
X6533157Y1197666D01*
X6558557D01*
X6583957Y1172266D01*
X3440000Y3579200D02*
X3465400Y3604600D01*
X3490800D01*
X3465400Y3630000D01*
X3490800Y3655400D01*
X3465400D01*
X3440000Y3680800D01*
X3414600Y3655400D01*
X3389200D01*
X3414600Y3630000D01*
X3389200Y3604600D01*
X3414600D01*
X3440000Y3579200D01*
X3000000Y2149200D02*
X3025400Y2174600D01*
X3050800D01*
X3025400Y2200000D01*
X3050800Y2225400D01*
X3025400D01*
X3000000Y2250800D01*
X2974600Y2225400D01*
X2949200D01*
X2974600Y2200000D01*
X2949200Y2174600D01*
X2974600D01*
X3000000Y2149200D01*
Y2379200D02*
X3025400Y2404600D01*
X3050800D01*
X3025400Y2430000D01*
X3050800Y2455400D01*
X3025400D01*
X3000000Y2480800D01*
X2974600Y2455400D01*
X2949200D01*
X2974600Y2430000D01*
X2949200Y2404600D01*
X2974600D01*
X3000000Y2379200D01*
X2410000Y1879200D02*
X2435400Y1904600D01*
X2460800D01*
X2435400Y1930000D01*
X2460800Y1955400D01*
X2435400D01*
X2410000Y1980800D01*
X2384600Y1955400D01*
X2359200D01*
X2384600Y1930000D01*
X2359200Y1904600D01*
X2384600D01*
X2410000Y1879200D01*
Y1649200D02*
X2435400Y1674600D01*
X2460800D01*
X2435400Y1700000D01*
X2460800Y1725400D01*
X2435400D01*
X2410000Y1750800D01*
X2384600Y1725400D01*
X2359200D01*
X2384600Y1700000D01*
X2359200Y1674600D01*
X2384600D01*
X2410000Y1649200D01*
X3554238Y1586918D02*
X3579638Y1612318D01*
X3605038D01*
X3579638Y1637718D01*
X3605038Y1663118D01*
X3579638D01*
X3554238Y1688518D01*
X3528838Y1663118D01*
X3503438D01*
X3528838Y1637718D01*
X3503438Y1612318D01*
X3528838D01*
X3554238Y1586918D01*
X6981659Y2513987D02*
X7007059Y2539387D01*
X7032459D01*
X7007059Y2564787D01*
X7032459Y2590187D01*
X7007059D01*
X6981659Y2615587D01*
X6956259Y2590187D01*
X6930859D01*
X6956259Y2564787D01*
X6930859Y2539387D01*
X6956259D01*
X6981659Y2513987D01*
X6574714Y873015D02*
X6600114Y898415D01*
X6625514D01*
X6600114Y923815D01*
X6625514Y949215D01*
X6600114D01*
X6574714Y974615D01*
X6549314Y949215D01*
X6523914D01*
X6549314Y923815D01*
X6523914Y898415D01*
X6549314D01*
X6574714Y873015D01*
X5584281Y2685398D02*
X5609681Y2710798D01*
X5635081D01*
X5609681Y2736198D01*
X5635081Y2761598D01*
X5609681D01*
X5584281Y2786998D01*
X5558881Y2761598D01*
X5533481D01*
X5558881Y2736198D01*
X5533481Y2710798D01*
X5558881D01*
X5584281Y2685398D01*
X5246126Y2414241D02*
X5271526Y2439641D01*
X5296926D01*
X5271526Y2465041D01*
X5296926Y2490441D01*
X5271526D01*
X5246126Y2515841D01*
X5220726Y2490441D01*
X5195326D01*
X5220726Y2465041D01*
X5195326Y2439641D01*
X5220726D01*
X5246126Y2414241D01*
X4306654Y1247922D02*
X4332054Y1273322D01*
X4357454D01*
X4332054Y1298722D01*
X4357454Y1324122D01*
X4332054D01*
X4306654Y1349522D01*
X4281254Y1324122D01*
X4255854D01*
X4281254Y1298722D01*
X4255854Y1273322D01*
X4281254D01*
X4306654Y1247922D01*
X4220000Y1429200D02*
X4245400Y1454600D01*
X4270800D01*
X4245400Y1480000D01*
X4270800Y1505400D01*
X4245400D01*
X4220000Y1530800D01*
X4194600Y1505400D01*
X4169200D01*
X4194600Y1480000D01*
X4169200Y1454600D01*
X4194600D01*
X4220000Y1429200D01*
X4230000Y1489200D02*
X4255400Y1514600D01*
X4280800D01*
X4255400Y1540000D01*
X4280800Y1565400D01*
X4255400D01*
X4230000Y1590800D01*
X4204600Y1565400D01*
X4179200D01*
X4204600Y1540000D01*
X4179200Y1514600D01*
X4204600D01*
X4230000Y1489200D01*
X4330000Y2169200D02*
X4355400Y2194600D01*
X4380800D01*
X4355400Y2220000D01*
X4380800Y2245400D01*
X4355400D01*
X4330000Y2270800D01*
X4304600Y2245400D01*
X4279200D01*
X4304600Y2220000D01*
X4279200Y2194600D01*
X4304600D01*
X4330000Y2169200D01*
X5391499Y3903202D02*
X5416899Y3928602D01*
X5442299D01*
X5416899Y3954002D01*
X5442299Y3979402D01*
X5416899D01*
X5391499Y4004802D01*
X5366099Y3979402D01*
X5340699D01*
X5366099Y3954002D01*
X5340699Y3928602D01*
X5366099D01*
X5391499Y3903202D01*
X5401082Y2159689D02*
X5426482Y2185089D01*
X5451882D01*
X5426482Y2210489D01*
X5451882Y2235889D01*
X5426482D01*
X5401082Y2261289D01*
X5375682Y2235889D01*
X5350282D01*
X5375682Y2210489D01*
X5350282Y2185089D01*
X5375682D01*
X5401082Y2159689D01*
X5401488Y1720050D02*
X5426888Y1745450D01*
X5452288D01*
X5426888Y1770850D01*
X5452288Y1796250D01*
X5426888D01*
X5401488Y1821650D01*
X5376088Y1796250D01*
X5350688D01*
X5376088Y1770850D01*
X5350688Y1745450D01*
X5376088D01*
X5401488Y1720050D01*
X5395308Y2660669D02*
X5420708Y2686069D01*
X5446108D01*
X5420708Y2711469D01*
X5446108Y2736869D01*
X5420708D01*
X5395308Y2762269D01*
X5369908Y2736869D01*
X5344508D01*
X5369908Y2711469D01*
X5344508Y2686069D01*
X5369908D01*
X5395308Y2660669D01*
X4364802Y2582401D02*
X4390202Y2607801D01*
X4415602D01*
X4390202Y2633201D01*
X4415602Y2658601D01*
X4390202D01*
X4364802Y2684001D01*
X4339402Y2658601D01*
X4314002D01*
X4339402Y2633201D01*
X4314002Y2607801D01*
X4339402D01*
X4364802Y2582401D01*
X5160000Y1649200D02*
X5185400Y1674600D01*
X5210800D01*
X5185400Y1700000D01*
X5210800Y1725400D01*
X5185400D01*
X5160000Y1750800D01*
X5134600Y1725400D01*
X5109200D01*
X5134600Y1700000D01*
X5109200Y1674600D01*
X5134600D01*
X5160000Y1649200D01*
X5463722Y1865869D02*
X5489122Y1891269D01*
X5514522D01*
X5489122Y1916669D01*
X5514522Y1942069D01*
X5489122D01*
X5463722Y1967469D01*
X5438322Y1942069D01*
X5412922D01*
X5438322Y1916669D01*
X5412922Y1891269D01*
X5438322D01*
X5463722Y1865869D01*
X5632761Y1892820D02*
X5658161Y1918220D01*
X5683561D01*
X5658161Y1943620D01*
X5683561Y1969020D01*
X5658161D01*
X5632761Y1994420D01*
X5607361Y1969020D01*
X5581961D01*
X5607361Y1943620D01*
X5581961Y1918220D01*
X5607361D01*
X5632761Y1892820D01*
X4750000Y3359200D02*
X4775400Y3384600D01*
X4800800D01*
X4775400Y3410000D01*
X4800800Y3435400D01*
X4775400D01*
X4750000Y3460800D01*
X4724600Y3435400D01*
X4699200D01*
X4724600Y3410000D01*
X4699200Y3384600D01*
X4724600D01*
X4750000Y3359200D01*
X4850000Y3399200D02*
X4875400Y3424600D01*
X4900800D01*
X4875400Y3450000D01*
X4900800Y3475400D01*
X4875400D01*
X4850000Y3500800D01*
X4824600Y3475400D01*
X4799200D01*
X4824600Y3450000D01*
X4799200Y3424600D01*
X4824600D01*
X4850000Y3399200D01*
X4960000Y3189200D02*
X4985400Y3214600D01*
X5010800D01*
X4985400Y3240000D01*
X5010800Y3265400D01*
X4985400D01*
X4960000Y3290800D01*
X4934600Y3265400D01*
X4909200D01*
X4934600Y3240000D01*
X4909200Y3214600D01*
X4934600D01*
X4960000Y3189200D01*
X4966787Y905658D02*
X4992187Y931058D01*
X5017587D01*
X4992187Y956458D01*
X5017587Y981858D01*
X4992187D01*
X4966787Y1007258D01*
X4941387Y981858D01*
X4915987D01*
X4941387Y956458D01*
X4915987Y931058D01*
X4941387D01*
X4966787Y905658D01*
X4444097Y3276017D02*
X4469497Y3301417D01*
X4494897D01*
X4469497Y3326817D01*
X4494897Y3352217D01*
X4469497D01*
X4444097Y3377617D01*
X4418697Y3352217D01*
X4393297D01*
X4418697Y3326817D01*
X4393297Y3301417D01*
X4418697D01*
X4444097Y3276017D01*
X3139476Y4573219D02*
X3164876Y4598619D01*
X3190276D01*
X3164876Y4624019D01*
X3190276Y4649419D01*
X3164876D01*
X3139476Y4674819D01*
X3114076Y4649419D01*
X3088676D01*
X3114076Y4624019D01*
X3088676Y4598619D01*
X3114076D01*
X3139476Y4573219D01*
X2927766Y4126272D02*
X2953166Y4151672D01*
X2978566D01*
X2953166Y4177072D01*
X2978566Y4202472D01*
X2953166D01*
X2927766Y4227872D01*
X2902366Y4202472D01*
X2876966D01*
X2902366Y4177072D01*
X2876966Y4151672D01*
X2902366D01*
X2927766Y4126272D01*
X3110000Y4509200D02*
X3135400Y4534600D01*
X3160800D01*
X3135400Y4560000D01*
X3160800Y4585400D01*
X3135400D01*
X3110000Y4610800D01*
X3084600Y4585400D01*
X3059200D01*
X3084600Y4560000D01*
X3059200Y4534600D01*
X3084600D01*
X3110000Y4509200D01*
X3259993Y3089194D02*
X3285393Y3114594D01*
X3310793D01*
X3285393Y3139994D01*
X3310793Y3165394D01*
X3285393D01*
X3259993Y3190794D01*
X3234593Y3165394D01*
X3209193D01*
X3234593Y3139994D01*
X3209193Y3114594D01*
X3234593D01*
X3259993Y3089194D01*
X2980000Y3119201D02*
X3005400Y3144601D01*
X3030800D01*
X3005400Y3170001D01*
X3030800Y3195401D01*
X3005400D01*
X2980000Y3220801D01*
X2954600Y3195401D01*
X2929200D01*
X2954600Y3170001D01*
X2929200Y3144601D01*
X2954600D01*
X2980000Y3119201D01*
X2938364Y4559019D02*
X2963764Y4584419D01*
X2989164D01*
X2963764Y4609819D01*
X2989164Y4635219D01*
X2963764D01*
X2938364Y4660619D01*
X2912964Y4635219D01*
X2887564D01*
X2912964Y4609819D01*
X2887564Y4584419D01*
X2912964D01*
X2938364Y4559019D01*
X3392500Y2499200D02*
X3417900Y2524600D01*
X3443300D01*
X3417900Y2550000D01*
X3443300Y2575400D01*
X3417900D01*
X3392500Y2600800D01*
X3367100Y2575400D01*
X3341700D01*
X3367100Y2550000D01*
X3341700Y2524600D01*
X3367100D01*
X3392500Y2499200D01*
X4089577Y3408128D02*
X4114977Y3433528D01*
X4140377D01*
X4114977Y3458928D01*
X4140377Y3484328D01*
X4114977D01*
X4089577Y3509728D01*
X4064177Y3484328D01*
X4038777D01*
X4064177Y3458928D01*
X4038777Y3433528D01*
X4064177D01*
X4089577Y3408128D01*
X3499875Y3131700D02*
X3525275Y3157100D01*
X3550675D01*
X3525275Y3182500D01*
X3550675Y3207900D01*
X3525275D01*
X3499875Y3233300D01*
X3474475Y3207900D01*
X3449075D01*
X3474475Y3182500D01*
X3449075Y3157100D01*
X3474475D01*
X3499875Y3131700D01*
X4089999Y2666700D02*
X4115399Y2692100D01*
X4140799D01*
X4115399Y2717500D01*
X4140799Y2742900D01*
X4115399D01*
X4089999Y2768300D01*
X4064599Y2742900D01*
X4039199D01*
X4064599Y2717500D01*
X4039199Y2692100D01*
X4064599D01*
X4089999Y2666700D01*
X3520000Y2299200D02*
X3545400Y2324600D01*
X3570800D01*
X3545400Y2350000D01*
X3570800Y2375400D01*
X3545400D01*
X3520000Y2400800D01*
X3494600Y2375400D01*
X3469200D01*
X3494600Y2350000D01*
X3469200Y2324600D01*
X3494600D01*
X3520000Y2299200D01*
X2610278Y1987134D02*
X2635678Y2012534D01*
X2661078D01*
X2635678Y2037934D01*
X2661078Y2063334D01*
X2635678D01*
X2610278Y2088734D01*
X2584878Y2063334D01*
X2559478D01*
X2584878Y2037934D01*
X2559478Y2012534D01*
X2584878D01*
X2610278Y1987134D01*
X3453859Y2118571D02*
X3479259Y2143971D01*
X3504659D01*
X3479259Y2169371D01*
X3504659Y2194771D01*
X3479259D01*
X3453859Y2220171D01*
X3428459Y2194771D01*
X3403059D01*
X3428459Y2169371D01*
X3403059Y2143971D01*
X3428459D01*
X3453859Y2118571D01*
X4048113Y1914087D02*
X4073513Y1939487D01*
X4098913D01*
X4073513Y1964887D01*
X4098913Y1990287D01*
X4073513D01*
X4048113Y2015687D01*
X4022713Y1990287D01*
X3997313D01*
X4022713Y1964887D01*
X3997313Y1939487D01*
X4022713D01*
X4048113Y1914087D01*
X3239578Y1815266D02*
X3264978Y1840666D01*
X3290378D01*
X3264978Y1866066D01*
X3290378Y1891466D01*
X3264978D01*
X3239578Y1916866D01*
X3214178Y1891466D01*
X3188778D01*
X3214178Y1866066D01*
X3188778Y1840666D01*
X3214178D01*
X3239578Y1815266D01*
X3900347Y1161474D02*
X3925747Y1186874D01*
X3951147D01*
X3925747Y1212274D01*
X3951147Y1237674D01*
X3925747D01*
X3900347Y1263074D01*
X3874947Y1237674D01*
X3849547D01*
X3874947Y1212274D01*
X3849547Y1186874D01*
X3874947D01*
X3900347Y1161474D01*
X3390000Y979200D02*
X3415400Y1004600D01*
X3440800D01*
X3415400Y1030000D01*
X3440800Y1055400D01*
X3415400D01*
X3390000Y1080800D01*
X3364600Y1055400D01*
X3339200D01*
X3364600Y1030000D01*
X3339200Y1004600D01*
X3364600D01*
X3390000Y979200D01*
X2722076Y3212832D02*
X2747476Y3238232D01*
X2772876D01*
X2747476Y3263632D01*
X2772876Y3289032D01*
X2747476D01*
X2722076Y3314432D01*
X2696676Y3289032D01*
X2671276D01*
X2696676Y3263632D01*
X2671276Y3238232D01*
X2696676D01*
X2722076Y3212832D01*
X7417279Y1113052D02*
X7442679Y1138452D01*
X7468079D01*
X7442679Y1163852D01*
X7468079Y1189252D01*
X7442679D01*
X7417279Y1214652D01*
X7391879Y1189252D01*
X7366479D01*
X7391879Y1163852D01*
X7366479Y1138452D01*
X7391879D01*
X7417279Y1113052D01*
X8225547Y4096472D02*
X8250947Y4121872D01*
X8276347D01*
X8250947Y4147272D01*
X8276347Y4172672D01*
X8250947D01*
X8225547Y4198072D01*
X8200147Y4172672D01*
X8174747D01*
X8200147Y4147272D01*
X8174747Y4121872D01*
X8200147D01*
X8225547Y4096472D01*
X8196010Y3915266D02*
X8221410Y3940666D01*
X8246810D01*
X8221410Y3966066D01*
X8246810Y3991466D01*
X8221410D01*
X8196010Y4016866D01*
X8170610Y3991466D01*
X8145210D01*
X8170610Y3966066D01*
X8145210Y3940666D01*
X8170610D01*
X8196010Y3915266D01*
X8205223Y3973976D02*
X8230623Y3999376D01*
X8256023D01*
X8230623Y4024776D01*
X8256023Y4050176D01*
X8230623D01*
X8205223Y4075576D01*
X8179823Y4050176D01*
X8154423D01*
X8179823Y4024776D01*
X8154423Y3999376D01*
X8179823D01*
X8205223Y3973976D01*
X6962354Y1326931D02*
X6987754Y1352331D01*
X7013154D01*
X6987754Y1377731D01*
X7013154Y1403131D01*
X6987754D01*
X6962354Y1428531D01*
X6936954Y1403131D01*
X6911554D01*
X6936954Y1377731D01*
X6911554Y1352331D01*
X6936954D01*
X6962354Y1326931D01*
X7780000Y1349200D02*
X7805400Y1374600D01*
X7830800D01*
X7805400Y1400000D01*
X7830800Y1425400D01*
X7805400D01*
X7780000Y1450800D01*
X7754600Y1425400D01*
X7729200D01*
X7754600Y1400000D01*
X7729200Y1374600D01*
X7754600D01*
X7780000Y1349200D01*
X6925887Y1407515D02*
X6951287Y1432915D01*
X6976687D01*
X6951287Y1458315D01*
X6976687Y1483715D01*
X6951287D01*
X6925887Y1509115D01*
X6900487Y1483715D01*
X6875087D01*
X6900487Y1458315D01*
X6875087Y1432915D01*
X6900487D01*
X6925887Y1407515D01*
X7804298Y1794902D02*
X7829698Y1820302D01*
X7855098D01*
X7829698Y1845702D01*
X7855098Y1871102D01*
X7829698D01*
X7804298Y1896502D01*
X7778898Y1871102D01*
X7753498D01*
X7778898Y1845702D01*
X7753498Y1820302D01*
X7778898D01*
X7804298Y1794902D01*
X6792748Y2367206D02*
X6818148Y2392606D01*
X6843548D01*
X6818148Y2418006D01*
X6843548Y2443406D01*
X6818148D01*
X6792748Y2468806D01*
X6767348Y2443406D01*
X6741948D01*
X6767348Y2418006D01*
X6741948Y2392606D01*
X6767348D01*
X6792748Y2367206D01*
X6338042Y1816257D02*
X6363442Y1841657D01*
X6388842D01*
X6363442Y1867057D01*
X6388842Y1892457D01*
X6363442D01*
X6338042Y1917857D01*
X6312642Y1892457D01*
X6287242D01*
X6312642Y1867057D01*
X6287242Y1841657D01*
X6312642D01*
X6338042Y1816257D01*
X6550367Y1869916D02*
X6575767Y1895316D01*
X6601167D01*
X6575767Y1920716D01*
X6601167Y1946116D01*
X6575767D01*
X6550367Y1971516D01*
X6524967Y1946116D01*
X6499567D01*
X6524967Y1920716D01*
X6499567Y1895316D01*
X6524967D01*
X6550367Y1869916D01*
X6391872Y1944971D02*
X6417272Y1970371D01*
X6442672D01*
X6417272Y1995771D01*
X6442672Y2021171D01*
X6417272D01*
X6391872Y2046571D01*
X6366472Y2021171D01*
X6341072D01*
X6366472Y1995771D01*
X6341072Y1970371D01*
X6366472D01*
X6391872Y1944971D01*
X6490000Y2499200D02*
X6515400Y2524600D01*
X6540800D01*
X6515400Y2550000D01*
X6540800Y2575400D01*
X6515400D01*
X6490000Y2600800D01*
X6464600Y2575400D01*
X6439200D01*
X6464600Y2550000D01*
X6439200Y2524600D01*
X6464600D01*
X6490000Y2499200D01*
X6300000Y1559200D02*
X6325400Y1584600D01*
X6350800D01*
X6325400Y1610000D01*
X6350800Y1635400D01*
X6325400D01*
X6300000Y1660800D01*
X6274600Y1635400D01*
X6249200D01*
X6274600Y1610000D01*
X6249200Y1584600D01*
X6274600D01*
X6300000Y1559200D01*
X6550000Y809200D02*
X6575400Y834600D01*
X6600800D01*
X6575400Y860000D01*
X6600800Y885400D01*
X6575400D01*
X6550000Y910800D01*
X6524600Y885400D01*
X6499200D01*
X6524600Y860000D01*
X6499200Y834600D01*
X6524600D01*
X6550000Y809200D01*
X6668093Y777580D02*
X6693493Y802980D01*
X6718893D01*
X6693493Y828380D01*
X6718893Y853780D01*
X6693493D01*
X6668093Y879180D01*
X6642693Y853780D01*
X6617293D01*
X6642693Y828380D01*
X6617293Y802980D01*
X6642693D01*
X6668093Y777580D01*
X5410000Y829200D02*
X5435400Y854600D01*
X5460800D01*
X5435400Y880000D01*
X5460800Y905400D01*
X5435400D01*
X5410000Y930800D01*
X5384600Y905400D01*
X5359200D01*
X5384600Y880000D01*
X5359200Y854600D01*
X5384600D01*
X5410000Y829200D01*
X6469871Y560593D02*
X6495271Y585993D01*
X6520671D01*
X6495271Y611393D01*
X6520671Y636793D01*
X6495271D01*
X6469871Y662193D01*
X6444471Y636793D01*
X6419071D01*
X6444471Y611393D01*
X6419071Y585993D01*
X6444471D01*
X6469871Y560593D01*
X6981610Y550244D02*
X7007010Y575644D01*
X7032410D01*
X7007010Y601044D01*
X7032410Y626444D01*
X7007010D01*
X6981610Y651844D01*
X6956210Y626444D01*
X6930810D01*
X6956210Y601044D01*
X6930810Y575644D01*
X6956210D01*
X6981610Y550244D01*
X7159078Y573407D02*
X7184478Y598807D01*
X7209878D01*
X7184478Y624207D01*
X7209878Y649607D01*
X7184478D01*
X7159078Y675007D01*
X7133678Y649607D01*
X7108278D01*
X7133678Y624207D01*
X7108278Y598807D01*
X7133678D01*
X7159078Y573407D01*
X8223537Y2555559D02*
X8248937Y2580959D01*
X8274337D01*
X8248937Y2606359D01*
X8274337Y2631759D01*
X8248937D01*
X8223537Y2657159D01*
X8198137Y2631759D01*
X8172737D01*
X8198137Y2606359D01*
X8172737Y2580959D01*
X8198137D01*
X8223537Y2555559D01*
X8117549Y2955871D02*
X8142949Y2981271D01*
X8168349D01*
X8142949Y3006671D01*
X8168349Y3032071D01*
X8142949D01*
X8117549Y3057471D01*
X8092149Y3032071D01*
X8066749D01*
X8092149Y3006671D01*
X8066749Y2981271D01*
X8092149D01*
X8117549Y2955871D01*
X7717762Y685735D02*
X7743162Y711135D01*
X7768562D01*
X7743162Y736535D01*
X7768562Y761935D01*
X7743162D01*
X7717762Y787335D01*
X7692362Y761935D01*
X7666962D01*
X7692362Y736535D01*
X7666962Y711135D01*
X7692362D01*
X7717762Y685735D01*
X3259697Y1065124D02*
X3285097Y1090524D01*
X3310497D01*
X3285097Y1115924D01*
X3310497Y1141324D01*
X3285097D01*
X3259697Y1166724D01*
X3234297Y1141324D01*
X3208897D01*
X3234297Y1115924D01*
X3208897Y1090524D01*
X3234297D01*
X3259697Y1065124D01*
X6940000Y2896700D02*
X6965400Y2922100D01*
X6990800D01*
X6965400Y2947500D01*
X6990800Y2972900D01*
X6965400D01*
X6940000Y2998300D01*
X6914600Y2972900D01*
X6889200D01*
X6914600Y2947500D01*
X6889200Y2922100D01*
X6914600D01*
X6940000Y2896700D01*
X7852918Y2911886D02*
X7878318Y2937286D01*
X7903718D01*
X7878318Y2962686D01*
X7903718Y2988086D01*
X7878318D01*
X7852918Y3013486D01*
X7827518Y2988086D01*
X7802118D01*
X7827518Y2962686D01*
X7802118Y2937286D01*
X7827518D01*
X7852918Y2911886D01*
X8181422Y2828177D02*
X8206822Y2853577D01*
X8232222D01*
X8206822Y2878977D01*
X8232222Y2904377D01*
X8206822D01*
X8181422Y2929777D01*
X8156022Y2904377D01*
X8130622D01*
X8156022Y2878977D01*
X8130622Y2853577D01*
X8156022D01*
X8181422Y2828177D01*
X8181230Y2894202D02*
X8206630Y2919602D01*
X8232030D01*
X8206630Y2945002D01*
X8232030Y2970402D01*
X8206630D01*
X8181230Y2995802D01*
X8155830Y2970402D01*
X8130430D01*
X8155830Y2945002D01*
X8130430Y2919602D01*
X8155830D01*
X8181230Y2894202D01*
X7849778Y2581025D02*
X7875178Y2606425D01*
X7900578D01*
X7875178Y2631825D01*
X7900578Y2657225D01*
X7875178D01*
X7849778Y2682625D01*
X7824378Y2657225D01*
X7798978D01*
X7824378Y2631825D01*
X7798978Y2606425D01*
X7824378D01*
X7849778Y2581025D01*
X7880000Y1869200D02*
X7905400Y1894600D01*
X7930800D01*
X7905400Y1920000D01*
X7930800Y1945400D01*
X7905400D01*
X7880000Y1970800D01*
X7854600Y1945400D01*
X7829200D01*
X7854600Y1920000D01*
X7829200Y1894600D01*
X7854600D01*
X7880000Y1869200D01*
X7650000Y2229200D02*
X7675400Y2254600D01*
X7700800D01*
X7675400Y2280000D01*
X7700800Y2305400D01*
X7675400D01*
X7650000Y2330800D01*
X7624600Y2305400D01*
X7599200D01*
X7624600Y2280000D01*
X7599200Y2254600D01*
X7624600D01*
X7650000Y2229200D01*
Y2394200D02*
X7675400Y2419600D01*
X7700800D01*
X7675400Y2445000D01*
X7700800Y2470400D01*
X7675400D01*
X7650000Y2495800D01*
X7624600Y2470400D01*
X7599200D01*
X7624600Y2445000D01*
X7599200Y2419600D01*
X7624600D01*
X7650000Y2394200D01*
X7529112Y2393993D02*
X7554512Y2419393D01*
X7579912D01*
X7554512Y2444793D01*
X7579912Y2470193D01*
X7554512D01*
X7529112Y2495593D01*
X7503712Y2470193D01*
X7478312D01*
X7503712Y2444793D01*
X7478312Y2419393D01*
X7503712D01*
X7529112Y2393993D01*
X8131039Y2559396D02*
X8156439Y2584796D01*
X8181839D01*
X8156439Y2610196D01*
X8181839Y2635596D01*
X8156439D01*
X8131039Y2660996D01*
X8105639Y2635596D01*
X8080239D01*
X8105639Y2610196D01*
X8080239Y2584796D01*
X8105639D01*
X8131039Y2559396D01*
X8070000Y2399200D02*
X8095400Y2424600D01*
X8120800D01*
X8095400Y2450000D01*
X8120800Y2475400D01*
X8095400D01*
X8070000Y2500800D01*
X8044600Y2475400D01*
X8019200D01*
X8044600Y2450000D01*
X8019200Y2424600D01*
X8044600D01*
X8070000Y2399200D01*
X8130000Y2459200D02*
X8155400Y2484600D01*
X8180800D01*
X8155400Y2510000D01*
X8180800Y2535400D01*
X8155400D01*
X8130000Y2560800D01*
X8104600Y2535400D01*
X8079200D01*
X8104600Y2510000D01*
X8079200Y2484600D01*
X8104600D01*
X8130000Y2459200D01*
X8340407Y1996335D02*
X8365807Y2021735D01*
X8391207D01*
X8365807Y2047135D01*
X8391207Y2072535D01*
X8365807D01*
X8340407Y2097935D01*
X8315007Y2072535D01*
X8289607D01*
X8315007Y2047135D01*
X8289607Y2021735D01*
X8315007D01*
X8340407Y1996335D01*
X8274077Y1909550D02*
X8299477Y1934950D01*
X8324877D01*
X8299477Y1960350D01*
X8324877Y1985750D01*
X8299477D01*
X8274077Y2011150D01*
X8248677Y1985750D01*
X8223277D01*
X8248677Y1960350D01*
X8223277Y1934950D01*
X8248677D01*
X8274077Y1909550D01*
X8250991Y1859822D02*
X8276391Y1885222D01*
X8301791D01*
X8276391Y1910622D01*
X8301791Y1936022D01*
X8276391D01*
X8250991Y1961422D01*
X8225591Y1936022D01*
X8200191D01*
X8225591Y1910622D01*
X8200191Y1885222D01*
X8225591D01*
X8250991Y1859822D01*
X8343944Y1887375D02*
X8369344Y1912775D01*
X8394744D01*
X8369344Y1938175D01*
X8394744Y1963575D01*
X8369344D01*
X8343944Y1988975D01*
X8318544Y1963575D01*
X8293144D01*
X8318544Y1938175D01*
X8293144Y1912775D01*
X8318544D01*
X8343944Y1887375D01*
X8340906Y1818723D02*
X8366306Y1844123D01*
X8391706D01*
X8366306Y1869523D01*
X8391706Y1894923D01*
X8366306D01*
X8340906Y1920323D01*
X8315506Y1894923D01*
X8290106D01*
X8315506Y1869523D01*
X8290106Y1844123D01*
X8315506D01*
X8340906Y1818723D01*
X4500000Y4449200D02*
X4525400Y4474600D01*
X4550800D01*
X4525400Y4500000D01*
X4550800Y4525400D01*
X4525400D01*
X4500000Y4550800D01*
X4474600Y4525400D01*
X4449200D01*
X4474600Y4500000D01*
X4449200Y4474600D01*
X4474600D01*
X4500000Y4449200D01*
X5101347Y4452203D02*
X5126747Y4477603D01*
X5152147D01*
X5126747Y4503003D01*
X5152147Y4528403D01*
X5126747D01*
X5101347Y4553803D01*
X5075947Y4528403D01*
X5050547D01*
X5075947Y4503003D01*
X5050547Y4477603D01*
X5075947D01*
X5101347Y4452203D01*
X4751347D02*
X4776747Y4477603D01*
X4802147D01*
X4776747Y4503003D01*
X4802147Y4528403D01*
X4776747D01*
X4751347Y4553803D01*
X4725947Y4528403D01*
X4700547D01*
X4725947Y4503003D01*
X4700547Y4477603D01*
X4725947D01*
X4751347Y4452203D01*
X4921347Y2512203D02*
X4946747Y2537603D01*
X4972147D01*
X4946747Y2563003D01*
X4972147Y2588403D01*
X4946747D01*
X4921347Y2613803D01*
X4895947Y2588403D01*
X4870547D01*
X4895947Y2563003D01*
X4870547Y2537603D01*
X4895947D01*
X4921347Y2512203D01*
X6731497Y825033D02*
X6756897Y850433D01*
X6782297D01*
X6756897Y875833D01*
X6782297Y901233D01*
X6756897D01*
X6731497Y926633D01*
X6706097Y901233D01*
X6680697D01*
X6706097Y875833D01*
X6680697Y850433D01*
X6706097D01*
X6731497Y825033D01*
X5628845Y1614097D02*
X5654245Y1639497D01*
X5679645D01*
X5654245Y1664897D01*
X5679645Y1690297D01*
X5654245D01*
X5628845Y1715697D01*
X5603445Y1690297D01*
X5578045D01*
X5603445Y1664897D01*
X5578045Y1639497D01*
X5603445D01*
X5628845Y1614097D01*
X5592089Y1652185D02*
X5617489Y1677585D01*
X5642889D01*
X5617489Y1702985D01*
X5642889Y1728385D01*
X5617489D01*
X5592089Y1753785D01*
X5566689Y1728385D01*
X5541289D01*
X5566689Y1702985D01*
X5541289Y1677585D01*
X5566689D01*
X5592089Y1652185D01*
X5641227Y2274089D02*
X5666627Y2299489D01*
X5692027D01*
X5666627Y2324889D01*
X5692027Y2350289D01*
X5666627D01*
X5641227Y2375689D01*
X5615827Y2350289D01*
X5590427D01*
X5615827Y2324889D01*
X5590427Y2299489D01*
X5615827D01*
X5641227Y2274089D01*
X5825260Y2185033D02*
X5850660Y2210433D01*
X5876060D01*
X5850660Y2235833D01*
X5876060Y2261233D01*
X5850660D01*
X5825260Y2286633D01*
X5799860Y2261233D01*
X5774460D01*
X5799860Y2235833D01*
X5774460Y2210433D01*
X5799860D01*
X5825260Y2185033D01*
X5620000Y1949200D02*
X5645400Y1974600D01*
X5670800D01*
X5645400Y2000000D01*
X5670800Y2025400D01*
X5645400D01*
X5620000Y2050800D01*
X5594600Y2025400D01*
X5569200D01*
X5594600Y2000000D01*
X5569200Y1974600D01*
X5594600D01*
X5620000Y1949200D01*
X5619286Y2003245D02*
X5644686Y2028645D01*
X5670086D01*
X5644686Y2054045D01*
X5670086Y2079445D01*
X5644686D01*
X5619286Y2104845D01*
X5593886Y2079445D01*
X5568486D01*
X5593886Y2054045D01*
X5568486Y2028645D01*
X5593886D01*
X5619286Y2003245D01*
X5982366Y4222259D02*
X6007766Y4247659D01*
X6033166D01*
X6007766Y4273059D01*
X6033166Y4298459D01*
X6007766D01*
X5982366Y4323859D01*
X5956966Y4298459D01*
X5931566D01*
X5956966Y4273059D01*
X5931566Y4247659D01*
X5956966D01*
X5982366Y4222259D01*
X8182685Y4591487D02*
X8208085Y4616887D01*
X8233485D01*
X8208085Y4642287D01*
X8233485Y4667687D01*
X8208085D01*
X8182685Y4693087D01*
X8157285Y4667687D01*
X8131885D01*
X8157285Y4642287D01*
X8131885Y4616887D01*
X8157285D01*
X8182685Y4591487D01*
X5990551Y3489129D02*
X6015951Y3514529D01*
X6041351D01*
X6015951Y3539929D01*
X6041351Y3565329D01*
X6015951D01*
X5990551Y3590729D01*
X5965151Y3565329D01*
X5939751D01*
X5965151Y3539929D01*
X5939751Y3514529D01*
X5965151D01*
X5990551Y3489129D01*
X5960045Y2655812D02*
X5985445Y2681212D01*
X6010845D01*
X5985445Y2706612D01*
X6010845Y2732012D01*
X5985445D01*
X5960045Y2757412D01*
X5934645Y2732012D01*
X5909245D01*
X5934645Y2706612D01*
X5909245Y2681212D01*
X5934645D01*
X5960045Y2655812D01*
X6573796Y2762668D02*
X6599196Y2788068D01*
X6624596D01*
X6599196Y2813468D01*
X6624596Y2838868D01*
X6599196D01*
X6573796Y2864268D01*
X6548396Y2838868D01*
X6522996D01*
X6548396Y2813468D01*
X6522996Y2788068D01*
X6548396D01*
X6573796Y2762668D01*
X7185789Y2848734D02*
X7211189Y2874134D01*
X7236589D01*
X7211189Y2899534D01*
X7236589Y2924934D01*
X7211189D01*
X7185789Y2950334D01*
X7160389Y2924934D01*
X7134989D01*
X7160389Y2899534D01*
X7134989Y2874134D01*
X7160389D01*
X7185789Y2848734D01*
X6794371Y2663835D02*
X6819771Y2689235D01*
X6845171D01*
X6819771Y2714635D01*
X6845171Y2740035D01*
X6819771D01*
X6794371Y2765435D01*
X6768971Y2740035D01*
X6743571D01*
X6768971Y2714635D01*
X6743571Y2689235D01*
X6768971D01*
X6794371Y2663835D01*
X6380000Y3129200D02*
X6405400Y3154600D01*
X6430800D01*
X6405400Y3180000D01*
X6430800Y3205400D01*
X6405400D01*
X6380000Y3230800D01*
X6354600Y3205400D01*
X6329200D01*
X6354600Y3180000D01*
X6329200Y3154600D01*
X6354600D01*
X6380000Y3129200D01*
X6949095Y4777938D02*
X6974495Y4803338D01*
X6999895D01*
X6974495Y4828738D01*
X6999895Y4854138D01*
X6974495D01*
X6949095Y4879538D01*
X6923695Y4854138D01*
X6898295D01*
X6923695Y4828738D01*
X6898295Y4803338D01*
X6923695D01*
X6949095Y4777938D01*
X7329264Y4776395D02*
X7354664Y4801795D01*
X7380064D01*
X7354664Y4827195D01*
X7380064Y4852595D01*
X7354664D01*
X7329264Y4877995D01*
X7303864Y4852595D01*
X7278464D01*
X7303864Y4827195D01*
X7278464Y4801795D01*
X7303864D01*
X7329264Y4776395D01*
X7850000Y4579200D02*
X7875400Y4604600D01*
X7900800D01*
X7875400Y4630000D01*
X7900800Y4655400D01*
X7875400D01*
X7850000Y4680800D01*
X7824600Y4655400D01*
X7799200D01*
X7824600Y4630000D01*
X7799200Y4604600D01*
X7824600D01*
X7850000Y4579200D01*
X6787656Y1941962D02*
X6813056Y1967362D01*
X6838456D01*
X6813056Y1992762D01*
X6838456Y2018162D01*
X6813056D01*
X6787656Y2043562D01*
X6762256Y2018162D01*
X6736856D01*
X6762256Y1992762D01*
X6736856Y1967362D01*
X6762256D01*
X6787656Y1941962D01*
X6680000Y2229201D02*
X6705400Y2254601D01*
X6730800D01*
X6705400Y2280001D01*
X6730800Y2305401D01*
X6705400D01*
X6680000Y2330801D01*
X6654600Y2305401D01*
X6629200D01*
X6654600Y2280001D01*
X6629200Y2254601D01*
X6654600D01*
X6680000Y2229201D01*
X5986360Y1009916D02*
X6011760Y1035316D01*
X6037160D01*
X6011760Y1060716D01*
X6037160Y1086116D01*
X6011760D01*
X5986360Y1111516D01*
X5960960Y1086116D01*
X5935560D01*
X5960960Y1060716D01*
X5935560Y1035316D01*
X5960960D01*
X5986360Y1009916D01*
X5908597Y712730D02*
X5933997Y738130D01*
X5959397D01*
X5933997Y763530D01*
X5959397Y788930D01*
X5933997D01*
X5908597Y814330D01*
X5883197Y788930D01*
X5857797D01*
X5883197Y763530D01*
X5857797Y738130D01*
X5883197D01*
X5908597Y712730D01*
X7471172Y1503559D02*
X7496572Y1528959D01*
X7521972D01*
X7496572Y1554359D01*
X7521972Y1579759D01*
X7496572D01*
X7471172Y1605159D01*
X7445772Y1579759D01*
X7420372D01*
X7445772Y1554359D01*
X7420372Y1528959D01*
X7445772D01*
X7471172Y1503559D01*
X6778295Y1544843D02*
X6803695Y1570243D01*
X6829095D01*
X6803695Y1595643D01*
X6829095Y1621043D01*
X6803695D01*
X6778295Y1646443D01*
X6752895Y1621043D01*
X6727495D01*
X6752895Y1595643D01*
X6727495Y1570243D01*
X6752895D01*
X6778295Y1544843D01*
X7364207Y1497800D02*
X7389607Y1523200D01*
X7415007D01*
X7389607Y1548600D01*
X7415007Y1574000D01*
X7389607D01*
X7364207Y1599400D01*
X7338807Y1574000D01*
X7313407D01*
X7338807Y1548600D01*
X7313407Y1523200D01*
X7338807D01*
X7364207Y1497800D01*
X6970983Y942864D02*
X6996383Y968264D01*
X7021783D01*
X6996383Y993664D01*
X7021783Y1019064D01*
X6996383D01*
X6970983Y1044464D01*
X6945583Y1019064D01*
X6920183D01*
X6945583Y993664D01*
X6920183Y968264D01*
X6945583D01*
X6970983Y942864D01*
X6843436Y1006933D02*
X6868836Y1032333D01*
X6894236D01*
X6868836Y1057733D01*
X6894236Y1083133D01*
X6868836D01*
X6843436Y1108533D01*
X6818036Y1083133D01*
X6792636D01*
X6818036Y1057733D01*
X6792636Y1032333D01*
X6818036D01*
X6843436Y1006933D01*
X7820000Y999200D02*
X7845400Y1024600D01*
X7870800D01*
X7845400Y1050000D01*
X7870800Y1075400D01*
X7845400D01*
X7820000Y1100800D01*
X7794600Y1075400D01*
X7769200D01*
X7794600Y1050000D01*
X7769200Y1024600D01*
X7794600D01*
X7820000Y999200D01*
X5894331Y1127651D02*
X5919731Y1153051D01*
X5945131D01*
X5919731Y1178451D01*
X5945131Y1203851D01*
X5919731D01*
X5894331Y1229251D01*
X5868931Y1203851D01*
X5843531D01*
X5868931Y1178451D01*
X5843531Y1153051D01*
X5868931D01*
X5894331Y1127651D01*
X5910706Y1178667D02*
X5936106Y1204067D01*
X5961506D01*
X5936106Y1229467D01*
X5961506Y1254867D01*
X5936106D01*
X5910706Y1280267D01*
X5885306Y1254867D01*
X5859906D01*
X5885306Y1229467D01*
X5859906Y1204067D01*
X5885306D01*
X5910706Y1178667D01*
X5880474Y1224644D02*
X5905874Y1250044D01*
X5931274D01*
X5905874Y1275444D01*
X5931274Y1300844D01*
X5905874D01*
X5880474Y1326244D01*
X5855074Y1300844D01*
X5829674D01*
X5855074Y1275444D01*
X5829674Y1250044D01*
X5855074D01*
X5880474Y1224644D01*
X5862353Y1395517D02*
X5887753Y1420917D01*
X5913153D01*
X5887753Y1446317D01*
X5913153Y1471717D01*
X5887753D01*
X5862353Y1497117D01*
X5836953Y1471717D01*
X5811553D01*
X5836953Y1446317D01*
X5811553Y1420917D01*
X5836953D01*
X5862353Y1395517D01*
X5720000Y1239200D02*
X5745400Y1264600D01*
X5770800D01*
X5745400Y1290000D01*
X5770800Y1315400D01*
X5745400D01*
X5720000Y1340800D01*
X5694600Y1315400D01*
X5669200D01*
X5694600Y1290000D01*
X5669200Y1264600D01*
X5694600D01*
X5720000Y1239200D01*
X4823740Y1189334D02*
X4849140Y1214734D01*
X4874540D01*
X4849140Y1240134D01*
X4874540Y1265534D01*
X4849140D01*
X4823740Y1290934D01*
X4798340Y1265534D01*
X4772940D01*
X4798340Y1240134D01*
X4772940Y1214734D01*
X4798340D01*
X4823740Y1189334D01*
X4822417Y1089618D02*
X4847817Y1115018D01*
X4873217D01*
X4847817Y1140418D01*
X4873217Y1165818D01*
X4847817D01*
X4822417Y1191218D01*
X4797017Y1165818D01*
X4771617D01*
X4797017Y1140418D01*
X4771617Y1115018D01*
X4797017D01*
X4822417Y1089618D01*
X4870496Y1015089D02*
X4895896Y1040489D01*
X4921296D01*
X4895896Y1065889D01*
X4921296Y1091289D01*
X4895896D01*
X4870496Y1116689D01*
X4845096Y1091289D01*
X4819696D01*
X4845096Y1065889D01*
X4819696Y1040489D01*
X4845096D01*
X4870496Y1015089D01*
X4916830Y907741D02*
X4942230Y933141D01*
X4967630D01*
X4942230Y958541D01*
X4967630Y983941D01*
X4942230D01*
X4916830Y1009341D01*
X4891430Y983941D01*
X4866030D01*
X4891430Y958541D01*
X4866030Y933141D01*
X4891430D01*
X4916830Y907741D01*
X5307534Y706466D02*
X5332934Y731866D01*
X5358334D01*
X5332934Y757266D01*
X5358334Y782666D01*
X5332934D01*
X5307534Y808066D01*
X5282134Y782666D01*
X5256734D01*
X5282134Y757266D01*
X5256734Y731866D01*
X5282134D01*
X5307534Y706466D01*
X3515675Y1104229D02*
X3541075Y1129629D01*
X3566475D01*
X3541075Y1155029D01*
X3566475Y1180429D01*
X3541075D01*
X3515675Y1205829D01*
X3490275Y1180429D01*
X3464875D01*
X3490275Y1155029D01*
X3464875Y1129629D01*
X3490275D01*
X3515675Y1104229D01*
X2680532Y549691D02*
X2705932Y575091D01*
X2731332D01*
X2705932Y600491D01*
X2731332Y625891D01*
X2705932D01*
X2680532Y651291D01*
X2655132Y625891D01*
X2629732D01*
X2655132Y600491D01*
X2629732Y575091D01*
X2655132D01*
X2680532Y549691D01*
X6670672Y2663262D02*
X6696072Y2688662D01*
X6721472D01*
X6696072Y2714062D01*
X6721472Y2739462D01*
X6696072D01*
X6670672Y2764862D01*
X6645272Y2739462D01*
X6619872D01*
X6645272Y2714062D01*
X6619872Y2688662D01*
X6645272D01*
X6670672Y2663262D01*
X4860000Y1409200D02*
X4885400Y1434600D01*
X4910800D01*
X4885400Y1460000D01*
X4910800Y1485400D01*
X4885400D01*
X4860000Y1510800D01*
X4834600Y1485400D01*
X4809200D01*
X4834600Y1460000D01*
X4809200Y1434600D01*
X4834600D01*
X4860000Y1409200D01*
X5468170Y1528002D02*
X5493570Y1553402D01*
X5518970D01*
X5493570Y1578802D01*
X5518970Y1604202D01*
X5493570D01*
X5468170Y1629602D01*
X5442770Y1604202D01*
X5417370D01*
X5442770Y1578802D01*
X5417370Y1553402D01*
X5442770D01*
X5468170Y1528002D01*
X5972225Y3687384D02*
X5997625Y3712784D01*
X6023025D01*
X5997625Y3738184D01*
X6023025Y3763584D01*
X5997625D01*
X5972225Y3788984D01*
X5946825Y3763584D01*
X5921425D01*
X5946825Y3738184D01*
X5921425Y3712784D01*
X5946825D01*
X5972225Y3687384D01*
X8050000Y3209200D02*
X8075400Y3234600D01*
X8100800D01*
X8075400Y3260000D01*
X8100800Y3285400D01*
X8075400D01*
X8050000Y3310800D01*
X8024600Y3285400D01*
X7999200D01*
X8024600Y3260000D01*
X7999200Y3234600D01*
X8024600D01*
X8050000Y3209200D01*
X7850000Y479200D02*
X7875400Y504600D01*
X7900800D01*
X7875400Y530000D01*
X7900800Y555400D01*
X7875400D01*
X7850000Y580800D01*
X7824600Y555400D01*
X7799200D01*
X7824600Y530000D01*
X7799200Y504600D01*
X7824600D01*
X7850000Y479200D01*
X7141946Y954859D02*
X7167346Y980259D01*
X7192746D01*
X7167346Y1005659D01*
X7192746Y1031059D01*
X7167346D01*
X7141946Y1056459D01*
X7116546Y1031059D01*
X7091146D01*
X7116546Y1005659D01*
X7091146Y980259D01*
X7116546D01*
X7141946Y954859D01*
X4780000Y1329200D02*
X4805400Y1354600D01*
X4830800D01*
X4805400Y1380000D01*
X4830800Y1405400D01*
X4805400D01*
X4780000Y1430800D01*
X4754600Y1405400D01*
X4729200D01*
X4754600Y1380000D01*
X4729200Y1354600D01*
X4754600D01*
X4780000Y1329200D01*
X3343313Y667931D02*
X3368713Y693331D01*
X3394113D01*
X3368713Y718731D01*
X3394113Y744131D01*
X3368713D01*
X3343313Y769531D01*
X3317913Y744131D01*
X3292513D01*
X3317913Y718731D01*
X3292513Y693331D01*
X3317913D01*
X3343313Y667931D01*
X4319500Y908700D02*
X4344900Y934100D01*
X4370300D01*
X4344900Y959500D01*
X4370300Y984900D01*
X4344900D01*
X4319500Y1010300D01*
X4294100Y984900D01*
X4268700D01*
X4294100Y959500D01*
X4268700Y934100D01*
X4294100D01*
X4319500Y908700D01*
X3901347Y1257853D02*
X3926747Y1283253D01*
X3952147D01*
X3926747Y1308653D01*
X3952147Y1334053D01*
X3926747D01*
X3901347Y1359453D01*
X3875947Y1334053D01*
X3850547D01*
X3875947Y1308653D01*
X3850547Y1283253D01*
X3875947D01*
X3901347Y1257853D01*
X3260339Y749779D02*
X3285739Y775179D01*
X3311139D01*
X3285739Y800579D01*
X3311139Y825979D01*
X3285739D01*
X3260339Y851379D01*
X3234939Y825979D01*
X3209539D01*
X3234939Y800579D01*
X3209539Y775179D01*
X3234939D01*
X3260339Y749779D01*
X3470000Y999200D02*
X3495400Y1024600D01*
X3520800D01*
X3495400Y1050000D01*
X3520800Y1075400D01*
X3495400D01*
X3470000Y1100800D01*
X3444600Y1075400D01*
X3419200D01*
X3444600Y1050000D01*
X3419200Y1024600D01*
X3444600D01*
X3470000Y999200D01*
X3198847Y890588D02*
X3224247Y915988D01*
X3249647D01*
X3224247Y941388D01*
X3249647Y966788D01*
X3224247D01*
X3198847Y992188D01*
X3173447Y966788D01*
X3148047D01*
X3173447Y941388D01*
X3148047Y915988D01*
X3173447D01*
X3198847Y890588D01*
X2288769Y799200D02*
Y900800D01*
X2390369D01*
Y799200D01*
X2288769D01*
X2309089Y819520D02*
Y880480D01*
X2370049D01*
Y819520D01*
X2309089D01*
X2127080Y1132254D02*
X2152480Y1157654D01*
X2177880D01*
X2152480Y1183054D01*
X2177880Y1208454D01*
X2152480D01*
X2127080Y1233854D01*
X2101680Y1208454D01*
X2076280D01*
X2101680Y1183054D01*
X2076280Y1157654D01*
X2101680D01*
X2127080Y1132254D01*
X1960000Y1766592D02*
X1985400Y1791992D01*
X2010800D01*
X1985400Y1817392D01*
X2010800Y1842792D01*
X1985400D01*
X1960000Y1868192D01*
X1934600Y1842792D01*
X1909200D01*
X1934600Y1817392D01*
X1909200Y1791992D01*
X1934600D01*
X1960000Y1766592D01*
X5599722Y1717296D02*
X5625122Y1742696D01*
X5650522D01*
X5625122Y1768096D01*
X5650522Y1793496D01*
X5625122D01*
X5599722Y1818896D01*
X5574322Y1793496D01*
X5548922D01*
X5574322Y1768096D01*
X5548922Y1742696D01*
X5574322D01*
X5599722Y1717296D01*
X5597932Y2140987D02*
X5623332Y2166387D01*
X5648732D01*
X5623332Y2191787D01*
X5648732Y2217187D01*
X5623332D01*
X5597932Y2242587D01*
X5572532Y2217187D01*
X5547132D01*
X5572532Y2191787D01*
X5547132Y2166387D01*
X5572532D01*
X5597932Y2140987D01*
X5847336Y780070D02*
X5872736Y805470D01*
X5898136D01*
X5872736Y830870D01*
X5898136Y856270D01*
X5872736D01*
X5847336Y881670D01*
X5821936Y856270D01*
X5796536D01*
X5821936Y830870D01*
X5796536Y805470D01*
X5821936D01*
X5847336Y780070D01*
X5854327Y884873D02*
X5879727Y910273D01*
X5905127D01*
X5879727Y935673D01*
X5905127Y961073D01*
X5879727D01*
X5854327Y986473D01*
X5828927Y961073D01*
X5803527D01*
X5828927Y935673D01*
X5803527Y910273D01*
X5828927D01*
X5854327Y884873D01*
X5854999Y1274200D02*
X5880399Y1299600D01*
X5905799D01*
X5880399Y1325000D01*
X5905799Y1350400D01*
X5880399D01*
X5854999Y1375800D01*
X5829599Y1350400D01*
X5804199D01*
X5829599Y1325000D01*
X5804199Y1299600D01*
X5829599D01*
X5854999Y1274200D01*
X6002746Y1740109D02*
X6028146Y1765509D01*
X6053546D01*
X6028146Y1790909D01*
X6053546Y1816309D01*
X6028146D01*
X6002746Y1841709D01*
X5977346Y1816309D01*
X5951946D01*
X5977346Y1790909D01*
X5951946Y1765509D01*
X5977346D01*
X6002746Y1740109D01*
Y2159201D02*
X6028146Y2184601D01*
X6053546D01*
X6028146Y2210001D01*
X6053546Y2235401D01*
X6028146D01*
X6002746Y2260801D01*
X5977346Y2235401D01*
X5951946D01*
X5977346Y2210001D01*
X5951946Y2184601D01*
X5977346D01*
X6002746Y2159201D01*
X6963499Y744481D02*
X6988899Y769881D01*
X7014299D01*
X6988899Y795281D01*
X7014299Y820681D01*
X6988899D01*
X6963499Y846081D01*
X6938099Y820681D01*
X6912699D01*
X6938099Y795281D01*
X6912699Y769881D01*
X6938099D01*
X6963499Y744481D01*
X6750000Y2149200D02*
X6775400Y2174600D01*
X6800800D01*
X6775400Y2200000D01*
X6800800Y2225400D01*
X6775400D01*
X6750000Y2250800D01*
X6724600Y2225400D01*
X6699200D01*
X6724600Y2200000D01*
X6699200Y2174600D01*
X6724600D01*
X6750000Y2149200D01*
X6797500Y2515685D02*
X6822900Y2541085D01*
X6848300D01*
X6822900Y2566485D01*
X6848300Y2591885D01*
X6822900D01*
X6797500Y2617285D01*
X6772100Y2591885D01*
X6746700D01*
X6772100Y2566485D01*
X6746700Y2541085D01*
X6772100D01*
X6797500Y2515685D01*
X6750000Y2799200D02*
X6775400Y2824600D01*
X6800800D01*
X6775400Y2850000D01*
X6800800Y2875400D01*
X6775400D01*
X6750000Y2900800D01*
X6724600Y2875400D01*
X6699200D01*
X6724600Y2850000D01*
X6699200Y2824600D01*
X6724600D01*
X6750000Y2799200D01*
X6670000Y2589200D02*
X6695400Y2614600D01*
X6720800D01*
X6695400Y2640000D01*
X6720800Y2665400D01*
X6695400D01*
X6670000Y2690800D01*
X6644600Y2665400D01*
X6619200D01*
X6644600Y2640000D01*
X6619200Y2614600D01*
X6644600D01*
X6670000Y2589200D01*
X6682471Y2534449D02*
X6707871Y2559849D01*
X6733271D01*
X6707871Y2585249D01*
X6733271Y2610649D01*
X6707871D01*
X6682471Y2636049D01*
X6657071Y2610649D01*
X6631671D01*
X6657071Y2585249D01*
X6631671Y2559849D01*
X6657071D01*
X6682471Y2534449D01*
X7410000Y4649200D02*
X7435400Y4674600D01*
X7460800D01*
X7435400Y4700000D01*
X7460800Y4725400D01*
X7435400D01*
X7410000Y4750800D01*
X7384600Y4725400D01*
X7359200D01*
X7384600Y4700000D01*
X7359200Y4674600D01*
X7384600D01*
X7410000Y4649200D01*
X6913016Y4552216D02*
X6938416Y4577616D01*
X6963816D01*
X6938416Y4603016D01*
X6963816Y4628416D01*
X6938416D01*
X6913016Y4653816D01*
X6887616Y4628416D01*
X6862216D01*
X6887616Y4603016D01*
X6862216Y4577616D01*
X6887616D01*
X6913016Y4552216D01*
X5403661Y2264316D02*
X5429061Y2289716D01*
X5454461D01*
X5429061Y2315116D01*
X5454461Y2340516D01*
X5429061D01*
X5403661Y2365916D01*
X5378261Y2340516D01*
X5352861D01*
X5378261Y2315116D01*
X5352861Y2289716D01*
X5378261D01*
X5403661Y2264316D01*
X5122333Y2662276D02*
X5147733Y2687676D01*
X5173133D01*
X5147733Y2713076D01*
X5173133Y2738476D01*
X5147733D01*
X5122333Y2763876D01*
X5096933Y2738476D01*
X5071533D01*
X5096933Y2713076D01*
X5071533Y2687676D01*
X5096933D01*
X5122333Y2662276D01*
X2543568Y2869150D02*
X2568968Y2894550D01*
X2594368D01*
X2568968Y2919950D01*
X2594368Y2945350D01*
X2568968D01*
X2543568Y2970750D01*
X2518168Y2945350D01*
X2492768D01*
X2518168Y2919950D01*
X2492768Y2894550D01*
X2518168D01*
X2543568Y2869150D01*
X5814897Y2650933D02*
X5840297Y2676333D01*
X5865697D01*
X5840297Y2701733D01*
X5865697Y2727133D01*
X5840297D01*
X5814897Y2752533D01*
X5789497Y2727133D01*
X5764097D01*
X5789497Y2701733D01*
X5764097Y2676333D01*
X5789497D01*
X5814897Y2650933D01*
X6260000Y1239200D02*
X6285400Y1264600D01*
X6310800D01*
X6285400Y1290000D01*
X6310800Y1315400D01*
X6285400D01*
X6260000Y1340800D01*
X6234600Y1315400D01*
X6209200D01*
X6234600Y1290000D01*
X6209200Y1264600D01*
X6234600D01*
X6260000Y1239200D01*
Y836579D02*
X6285400Y861979D01*
X6310800D01*
X6285400Y887379D01*
X6310800Y912779D01*
X6285400D01*
X6260000Y938179D01*
X6234600Y912779D01*
X6209200D01*
X6234600Y887379D01*
X6209200Y861979D01*
X6234600D01*
X6260000Y836579D01*
X5831296Y1816404D02*
X5856696Y1841804D01*
X5882096D01*
X5856696Y1867204D01*
X5882096Y1892604D01*
X5856696D01*
X5831296Y1918004D01*
X5805896Y1892604D01*
X5780496D01*
X5805896Y1867204D01*
X5780496Y1841804D01*
X5805896D01*
X5831296Y1816404D01*
X6089273Y1351502D02*
X6114673Y1376902D01*
X6140073D01*
X6114673Y1402302D01*
X6140073Y1427702D01*
X6114673D01*
X6089273Y1453102D01*
X6063873Y1427702D01*
X6038473D01*
X6063873Y1402302D01*
X6038473Y1376902D01*
X6063873D01*
X6089273Y1351502D01*
X6090000Y939200D02*
X6115400Y964600D01*
X6140800D01*
X6115400Y990000D01*
X6140800Y1015400D01*
X6115400D01*
X6090000Y1040800D01*
X6064600Y1015400D01*
X6039200D01*
X6064600Y990000D01*
X6039200Y964600D01*
X6064600D01*
X6090000Y939200D01*
X5594827Y2060806D02*
X5620227Y2086206D01*
X5645627D01*
X5620227Y2111606D01*
X5645627Y2137006D01*
X5620227D01*
X5594827Y2162406D01*
X5569427Y2137006D01*
X5544027D01*
X5569427Y2111606D01*
X5544027Y2086206D01*
X5569427D01*
X5594827Y2060806D01*
X6009200Y2879200D02*
Y2980800D01*
X6110800D01*
Y2879200D01*
X6009200D01*
X6029520Y2899520D02*
Y2960480D01*
X6090480D01*
Y2899520D01*
X6029520D01*
X7147500Y1105686D02*
X7172900Y1131086D01*
X7198300D01*
X7172900Y1156486D01*
X7198300Y1181886D01*
X7172900D01*
X7147500Y1207286D01*
X7122100Y1181886D01*
X7096700D01*
X7122100Y1156486D01*
X7096700Y1131086D01*
X7122100D01*
X7147500Y1105686D01*
X7152358Y1456269D02*
X7177758Y1481669D01*
X7203158D01*
X7177758Y1507069D01*
X7203158Y1532469D01*
X7177758D01*
X7152358Y1557869D01*
X7126958Y1532469D01*
X7101558D01*
X7126958Y1507069D01*
X7101558Y1481669D01*
X7126958D01*
X7152358Y1456269D01*
X7154477Y794200D02*
X7179877Y819600D01*
X7205277D01*
X7179877Y845000D01*
X7205277Y870400D01*
X7179877D01*
X7154477Y895800D01*
X7129077Y870400D01*
X7103677D01*
X7129077Y845000D01*
X7103677Y819600D01*
X7129077D01*
X7154477Y794200D01*
X6615000Y1289570D02*
X6640400Y1314970D01*
X6665800D01*
X6640400Y1340370D01*
X6665800Y1365770D01*
X6640400D01*
X6615000Y1391170D01*
X6589600Y1365770D01*
X6564200D01*
X6589600Y1340370D01*
X6564200Y1314970D01*
X6589600D01*
X6615000Y1289570D01*
X7140000Y2079200D02*
X7165400Y2104600D01*
X7190800D01*
X7165400Y2130000D01*
X7190800Y2155400D01*
X7165400D01*
X7140000Y2180800D01*
X7114600Y2155400D01*
X7089200D01*
X7114600Y2130000D01*
X7089200Y2104600D01*
X7114600D01*
X7140000Y2079200D01*
X7000924Y2818264D02*
X7026324Y2843664D01*
X7051724D01*
X7026324Y2869064D01*
X7051724Y2894464D01*
X7026324D01*
X7000924Y2919864D01*
X6975524Y2894464D01*
X6950124D01*
X6975524Y2869064D01*
X6950124Y2843664D01*
X6975524D01*
X7000924Y2818264D01*
X6970000Y2162413D02*
X6995400Y2187813D01*
X7020800D01*
X6995400Y2213213D01*
X7020800Y2238613D01*
X6995400D01*
X6970000Y2264013D01*
X6944600Y2238613D01*
X6919200D01*
X6944600Y2213213D01*
X6919200Y2187813D01*
X6944600D01*
X6970000Y2162413D01*
X8190000Y1609200D02*
X8215400Y1634600D01*
X8240800D01*
X8215400Y1660000D01*
X8240800Y1685400D01*
X8215400D01*
X8190000Y1710800D01*
X8164600Y1685400D01*
X8139200D01*
X8164600Y1660000D01*
X8139200Y1634600D01*
X8164600D01*
X8190000Y1609200D01*
X5603879Y1059365D02*
X5629279Y1084765D01*
X5654679D01*
X5629279Y1110165D01*
X5654679Y1135565D01*
X5629279D01*
X5603879Y1160965D01*
X5578479Y1135565D01*
X5553079D01*
X5578479Y1110165D01*
X5553079Y1084765D01*
X5578479D01*
X5603879Y1059365D01*
X7707500Y999695D02*
X7732900Y1025095D01*
X7758300D01*
X7732900Y1050495D01*
X7758300Y1075895D01*
X7732900D01*
X7707500Y1101295D01*
X7682100Y1075895D01*
X7656700D01*
X7682100Y1050495D01*
X7656700Y1025095D01*
X7682100D01*
X7707500Y999695D01*
X8350383Y3469654D02*
X8375783Y3495054D01*
X8401183D01*
X8375783Y3520454D01*
X8401183Y3545854D01*
X8375783D01*
X8350383Y3571254D01*
X8324983Y3545854D01*
X8299583D01*
X8324983Y3520454D01*
X8299583Y3495054D01*
X8324983D01*
X8350383Y3469654D01*
X4560639Y4001802D02*
X4586039Y4027202D01*
X4611439D01*
X4586039Y4052602D01*
X4611439Y4078002D01*
X4586039D01*
X4560639Y4103402D01*
X4535239Y4078002D01*
X4509839D01*
X4535239Y4052602D01*
X4509839Y4027202D01*
X4535239D01*
X4560639Y4001802D01*
X5580000Y2899200D02*
X5605400Y2924600D01*
X5630800D01*
X5605400Y2950000D01*
X5630800Y2975400D01*
X5605400D01*
X5580000Y3000800D01*
X5554600Y2975400D01*
X5529200D01*
X5554600Y2950000D01*
X5529200Y2924600D01*
X5554600D01*
X5580000Y2899200D01*
X5490000Y3049200D02*
X5515400Y3074600D01*
X5540800D01*
X5515400Y3100000D01*
X5540800Y3125400D01*
X5515400D01*
X5490000Y3150800D01*
X5464600Y3125400D01*
X5439200D01*
X5464600Y3100000D01*
X5439200Y3074600D01*
X5464600D01*
X5490000Y3049200D01*
X4640052Y3347526D02*
X4665452Y3372926D01*
X4690852D01*
X4665452Y3398326D01*
X4690852Y3423726D01*
X4665452D01*
X4640052Y3449126D01*
X4614652Y3423726D01*
X4589252D01*
X4614652Y3398326D01*
X4589252Y3372926D01*
X4614652D01*
X4640052Y3347526D01*
X5527472Y2759200D02*
X5552872Y2784600D01*
X5578272D01*
X5552872Y2810000D01*
X5578272Y2835400D01*
X5552872D01*
X5527472Y2860800D01*
X5502072Y2835400D01*
X5476672D01*
X5502072Y2810000D01*
X5476672Y2784600D01*
X5502072D01*
X5527472Y2759200D01*
X4900000Y3939200D02*
X4925400Y3964600D01*
X4950800D01*
X4925400Y3990000D01*
X4950800Y4015400D01*
X4925400D01*
X4900000Y4040800D01*
X4874600Y4015400D01*
X4849200D01*
X4874600Y3990000D01*
X4849200Y3964600D01*
X4874600D01*
X4900000Y3939200D01*
X4800000Y3938214D02*
X4825400Y3963614D01*
X4850800D01*
X4825400Y3989014D01*
X4850800Y4014414D01*
X4825400D01*
X4800000Y4039814D01*
X4774600Y4014414D01*
X4749200D01*
X4774600Y3989014D01*
X4749200Y3963614D01*
X4774600D01*
X4800000Y3938214D01*
X5495072Y3490033D02*
X5520472Y3515433D01*
X5545872D01*
X5520472Y3540833D01*
X5545872Y3566233D01*
X5520472D01*
X5495072Y3591633D01*
X5469672Y3566233D01*
X5444272D01*
X5469672Y3540833D01*
X5444272Y3515433D01*
X5469672D01*
X5495072Y3490033D01*
X4558761Y2986621D02*
X4584161Y3012021D01*
X4609561D01*
X4584161Y3037421D01*
X4609561Y3062821D01*
X4584161D01*
X4558761Y3088221D01*
X4533361Y3062821D01*
X4507961D01*
X4533361Y3037421D01*
X4507961Y3012021D01*
X4533361D01*
X4558761Y2986621D01*
X4399547Y3232433D02*
X4424947Y3257833D01*
X4450347D01*
X4424947Y3283233D01*
X4450347Y3308633D01*
X4424947D01*
X4399547Y3334033D01*
X4374147Y3308633D01*
X4348747D01*
X4374147Y3283233D01*
X4348747Y3257833D01*
X4374147D01*
X4399547Y3232433D01*
X4175870Y667423D02*
X4201270Y692823D01*
X4226670D01*
X4201270Y718223D01*
X4226670Y743623D01*
X4201270D01*
X4175870Y769023D01*
X4150470Y743623D01*
X4125070D01*
X4150470Y718223D01*
X4125070Y692823D01*
X4150470D01*
X4175870Y667423D01*
X2550432Y860144D02*
X2575832Y885544D01*
X2601232D01*
X2575832Y910944D01*
X2601232Y936344D01*
X2575832D01*
X2550432Y961744D01*
X2525032Y936344D01*
X2499632D01*
X2525032Y910944D01*
X2499632Y885544D01*
X2525032D01*
X2550432Y860144D01*
X3330000Y1419200D02*
X3355400Y1444600D01*
X3380800D01*
X3355400Y1470000D01*
X3380800Y1495400D01*
X3355400D01*
X3330000Y1520800D01*
X3304600Y1495400D01*
X3279200D01*
X3304600Y1470000D01*
X3279200Y1444600D01*
X3304600D01*
X3330000Y1419200D01*
X3340380Y1695853D02*
X3365780Y1721253D01*
X3391180D01*
X3365780Y1746653D01*
X3391180Y1772053D01*
X3365780D01*
X3340380Y1797453D01*
X3314980Y1772053D01*
X3289580D01*
X3314980Y1746653D01*
X3289580Y1721253D01*
X3314980D01*
X3340380Y1695853D01*
X2241823Y3766745D02*
X2267223Y3792145D01*
X2292623D01*
X2267223Y3817545D01*
X2292623Y3842945D01*
X2267223D01*
X2241823Y3868345D01*
X2216423Y3842945D01*
X2191023D01*
X2216423Y3817545D01*
X2191023Y3792145D01*
X2216423D01*
X2241823Y3766745D01*
X3168890Y3852803D02*
X3194290Y3878203D01*
X3219690D01*
X3194290Y3903603D01*
X3219690Y3929003D01*
X3194290D01*
X3168890Y3954403D01*
X3143490Y3929003D01*
X3118090D01*
X3143490Y3903603D01*
X3118090Y3878203D01*
X3143490D01*
X3168890Y3852803D01*
X3490000Y4049200D02*
X3515400Y4074600D01*
X3540800D01*
X3515400Y4100000D01*
X3540800Y4125400D01*
X3515400D01*
X3490000Y4150800D01*
X3464600Y4125400D01*
X3439200D01*
X3464600Y4100000D01*
X3439200Y4074600D01*
X3464600D01*
X3490000Y4049200D01*
X2331048Y2452039D02*
Y2553639D01*
X2432648D01*
Y2452039D01*
X2331048D01*
X2351368Y2472359D02*
Y2533319D01*
X2412328D01*
Y2472359D01*
X2351368D01*
X3640000Y1879200D02*
X3665400Y1904600D01*
X3690800D01*
X3665400Y1930000D01*
X3690800Y1955400D01*
X3665400D01*
X3640000Y1980800D01*
X3614600Y1955400D01*
X3589200D01*
X3614600Y1930000D01*
X3589200Y1904600D01*
X3614600D01*
X3640000Y1879200D01*
X3017681Y950505D02*
X3043081Y975905D01*
X3068481D01*
X3043081Y1001305D01*
X3068481Y1026705D01*
X3043081D01*
X3017681Y1052105D01*
X2992281Y1026705D01*
X2966881D01*
X2992281Y1001305D01*
X2966881Y975905D01*
X2992281D01*
X3017681Y950505D01*
X5739022Y2863168D02*
Y2964768D01*
X5840622D01*
Y2863168D01*
X5739022D01*
X5759342Y2883488D02*
Y2944448D01*
X5820302D01*
Y2883488D01*
X5759342D01*
X3988653Y3910684D02*
Y4012284D01*
X4090253D01*
Y3910684D01*
X3988653D01*
X4008973Y3931004D02*
Y3991964D01*
X4069933D01*
Y3931004D01*
X4008973D01*
X5810000Y3009200D02*
X5835400Y3034600D01*
X5860800D01*
X5835400Y3060000D01*
X5860800Y3085400D01*
X5835400D01*
X5810000Y3110800D01*
X5784600Y3085400D01*
X5759200D01*
X5784600Y3060000D01*
X5759200Y3034600D01*
X5784600D01*
X5810000Y3009200D01*
X5170000Y3549200D02*
X5195400Y3574600D01*
X5220800D01*
X5195400Y3600000D01*
X5220800Y3625400D01*
X5195400D01*
X5170000Y3650800D01*
X5144600Y3625400D01*
X5119200D01*
X5144600Y3600000D01*
X5119200Y3574600D01*
X5144600D01*
X5170000Y3549200D01*
X3988763Y3996398D02*
Y4097998D01*
X4090363D01*
Y3996398D01*
X3988763D01*
X4009083Y4016718D02*
Y4077678D01*
X4070043D01*
Y4016718D01*
X4009083D01*
X4610000Y4129200D02*
X4635400Y4154600D01*
X4660800D01*
X4635400Y4180000D01*
X4660800Y4205400D01*
X4635400D01*
X4610000Y4230800D01*
X4584600Y4205400D01*
X4559200D01*
X4584600Y4180000D01*
X4559200Y4154600D01*
X4584600D01*
X4610000Y4129200D01*
X4999571Y3789668D02*
X5024971Y3815068D01*
X5050371D01*
X5024971Y3840468D01*
X5050371Y3865868D01*
X5024971D01*
X4999571Y3891268D01*
X4974171Y3865868D01*
X4948771D01*
X4974171Y3840468D01*
X4948771Y3815068D01*
X4974171D01*
X4999571Y3789668D01*
X7550000Y4429200D02*
X7575400Y4454600D01*
X7600800D01*
X7575400Y4480000D01*
X7600800Y4505400D01*
X7575400D01*
X7550000Y4530800D01*
X7524600Y4505400D01*
X7499200D01*
X7524600Y4480000D01*
X7499200Y4454600D01*
X7524600D01*
X7550000Y4429200D01*
X6965772Y1927953D02*
X6991172Y1953353D01*
X7016572D01*
X6991172Y1978753D01*
X7016572Y2004153D01*
X6991172D01*
X6965772Y2029553D01*
X6940372Y2004153D01*
X6914972D01*
X6940372Y1978753D01*
X6914972Y1953353D01*
X6940372D01*
X6965772Y1927953D01*
X1810833Y1819615D02*
X1836233Y1845015D01*
X1861633D01*
X1836233Y1870415D01*
X1861633Y1895815D01*
X1836233D01*
X1810833Y1921215D01*
X1785433Y1895815D01*
X1760033D01*
X1785433Y1870415D01*
X1760033Y1845015D01*
X1785433D01*
X1810833Y1819615D01*
X6849131Y4576416D02*
X6874531Y4601816D01*
X6899931D01*
X6874531Y4627216D01*
X6899931Y4652616D01*
X6874531D01*
X6849131Y4678016D01*
X6823731Y4652616D01*
X6798331D01*
X6823731Y4627216D01*
X6798331Y4601816D01*
X6823731D01*
X6849131Y4576416D01*
X6530000Y4619200D02*
X6555400Y4644600D01*
X6580800D01*
X6555400Y4670000D01*
X6580800Y4695400D01*
X6555400D01*
X6530000Y4720800D01*
X6504600Y4695400D01*
X6479200D01*
X6504600Y4670000D01*
X6479200Y4644600D01*
X6504600D01*
X6530000Y4619200D01*
X6410000Y4539200D02*
X6435400Y4564600D01*
X6460800D01*
X6435400Y4590000D01*
X6460800Y4615400D01*
X6435400D01*
X6410000Y4640800D01*
X6384600Y4615400D01*
X6359200D01*
X6384600Y4590000D01*
X6359200Y4564600D01*
X6384600D01*
X6410000Y4539200D01*
X6398170Y4438257D02*
X6423570Y4463657D01*
X6448970D01*
X6423570Y4489057D01*
X6448970Y4514457D01*
X6423570D01*
X6398170Y4539857D01*
X6372770Y4514457D01*
X6347370D01*
X6372770Y4489057D01*
X6347370Y4463657D01*
X6372770D01*
X6398170Y4438257D01*
X3931452Y781773D02*
X3956852Y807173D01*
X3982252D01*
X3956852Y832573D01*
X3982252Y857973D01*
X3956852D01*
X3931452Y883373D01*
X3906052Y857973D01*
X3880652D01*
X3906052Y832573D01*
X3880652Y807173D01*
X3906052D01*
X3931452Y781773D01*
X6692653Y4286111D02*
X6718053Y4311511D01*
X6743453D01*
X6718053Y4336911D01*
X6743453Y4362311D01*
X6718053D01*
X6692653Y4387711D01*
X6667253Y4362311D01*
X6641853D01*
X6667253Y4336911D01*
X6641853Y4311511D01*
X6667253D01*
X6692653Y4286111D01*
X7179667Y4322321D02*
X7205067Y4347721D01*
X7230467D01*
X7205067Y4373121D01*
X7230467Y4398521D01*
X7205067D01*
X7179667Y4423921D01*
X7154267Y4398521D01*
X7128867D01*
X7154267Y4373121D01*
X7128867Y4347721D01*
X7154267D01*
X7179667Y4322321D01*
X7047500Y4439200D02*
X7072900Y4464600D01*
X7098300D01*
X7072900Y4490000D01*
X7098300Y4515400D01*
X7072900D01*
X7047500Y4540800D01*
X7022100Y4515400D01*
X6996700D01*
X7022100Y4490000D01*
X6996700Y4464600D01*
X7022100D01*
X7047500Y4439200D01*
X7200000Y4429200D02*
X7225400Y4454600D01*
X7250800D01*
X7225400Y4480000D01*
X7250800Y4505400D01*
X7225400D01*
X7200000Y4530800D01*
X7174600Y4505400D01*
X7149200D01*
X7174600Y4480000D01*
X7149200Y4454600D01*
X7174600D01*
X7200000Y4429200D01*
X5968082Y4289341D02*
X5993482Y4314741D01*
X6018882D01*
X5993482Y4340141D01*
X6018882Y4365541D01*
X5993482D01*
X5968082Y4390941D01*
X5942682Y4365541D01*
X5917282D01*
X5942682Y4340141D01*
X5917282Y4314741D01*
X5942682D01*
X5968082Y4289341D01*
X5750000Y4459200D02*
X5775400Y4484600D01*
X5800800D01*
X5775400Y4510000D01*
X5800800Y4535400D01*
X5775400D01*
X5750000Y4560800D01*
X5724600Y4535400D01*
X5699200D01*
X5724600Y4510000D01*
X5699200Y4484600D01*
X5724600D01*
X5750000Y4459200D01*
X5424918Y4276651D02*
X5450318Y4302051D01*
X5475718D01*
X5450318Y4327451D01*
X5475718Y4352851D01*
X5450318D01*
X5424918Y4378251D01*
X5399518Y4352851D01*
X5374118D01*
X5399518Y4327451D01*
X5374118Y4302051D01*
X5399518D01*
X5424918Y4276651D01*
X5080000Y3909200D02*
X5105400Y3934600D01*
X5130800D01*
X5105400Y3960000D01*
X5130800Y3985400D01*
X5105400D01*
X5080000Y4010800D01*
X5054600Y3985400D01*
X5029200D01*
X5054600Y3960000D01*
X5029200Y3934600D01*
X5054600D01*
X5080000Y3909200D01*
X6844695Y4144284D02*
X6870095Y4169684D01*
X6895495D01*
X6870095Y4195084D01*
X6895495Y4220484D01*
X6870095D01*
X6844695Y4245884D01*
X6819295Y4220484D01*
X6793895D01*
X6819295Y4195084D01*
X6793895Y4169684D01*
X6819295D01*
X6844695Y4144284D01*
X4360000Y4670922D02*
X4385400Y4696322D01*
X4410800D01*
X4385400Y4721722D01*
X4410800Y4747122D01*
X4385400D01*
X4360000Y4772522D01*
X4334600Y4747122D01*
X4309200D01*
X4334600Y4721722D01*
X4309200Y4696322D01*
X4334600D01*
X4360000Y4670922D01*
X5908991Y4575732D02*
X5934391Y4601132D01*
X5959791D01*
X5934391Y4626532D01*
X5959791Y4651932D01*
X5934391D01*
X5908991Y4677332D01*
X5883591Y4651932D01*
X5858191D01*
X5883591Y4626532D01*
X5858191Y4601132D01*
X5883591D01*
X5908991Y4575732D01*
X6160000Y4539200D02*
X6185400Y4564600D01*
X6210800D01*
X6185400Y4590000D01*
X6210800Y4615400D01*
X6185400D01*
X6160000Y4640800D01*
X6134600Y4615400D01*
X6109200D01*
X6134600Y4590000D01*
X6109200Y4564600D01*
X6134600D01*
X6160000Y4539200D01*
X7210790Y4670811D02*
X7236190Y4696211D01*
X7261590D01*
X7236190Y4721611D01*
X7261590Y4747011D01*
X7236190D01*
X7210790Y4772411D01*
X7185390Y4747011D01*
X7159990D01*
X7185390Y4721611D01*
X7159990Y4696211D01*
X7185390D01*
X7210790Y4670811D01*
X7540000Y4529200D02*
X7565400Y4554600D01*
X7590800D01*
X7565400Y4580000D01*
X7590800Y4605400D01*
X7565400D01*
X7540000Y4630800D01*
X7514600Y4605400D01*
X7489200D01*
X7514600Y4580000D01*
X7489200Y4554600D01*
X7514600D01*
X7540000Y4529200D01*
X5550000Y4579200D02*
X5575400Y4604600D01*
X5600800D01*
X5575400Y4630000D01*
X5600800Y4655400D01*
X5575400D01*
X5550000Y4680800D01*
X5524600Y4655400D01*
X5499200D01*
X5524600Y4630000D01*
X5499200Y4604600D01*
X5524600D01*
X5550000Y4579200D01*
X5499863Y4581456D02*
X5525263Y4606856D01*
X5550663D01*
X5525263Y4632256D01*
X5550663Y4657656D01*
X5525263D01*
X5499863Y4683056D01*
X5474463Y4657656D01*
X5449063D01*
X5474463Y4632256D01*
X5449063Y4606856D01*
X5474463D01*
X5499863Y4581456D01*
X5141408Y4498918D02*
X5166808Y4524318D01*
X5192208D01*
X5166808Y4549718D01*
X5192208Y4575118D01*
X5166808D01*
X5141408Y4600518D01*
X5116008Y4575118D01*
X5090608D01*
X5116008Y4549718D01*
X5090608Y4524318D01*
X5116008D01*
X5141408Y4498918D01*
X5209939Y4504219D02*
X5235339Y4529619D01*
X5260739D01*
X5235339Y4555019D01*
X5260739Y4580419D01*
X5235339D01*
X5209939Y4605819D01*
X5184539Y4580419D01*
X5159139D01*
X5184539Y4555019D01*
X5159139Y4529619D01*
X5184539D01*
X5209939Y4504219D01*
X5908557Y764152D02*
X5933957Y789552D01*
X5959357D01*
X5933957Y814952D01*
X5959357Y840352D01*
X5933957D01*
X5908557Y865752D01*
X5883157Y840352D01*
X5857757D01*
X5883157Y814952D01*
X5857757Y789552D01*
X5883157D01*
X5908557Y764152D01*
X4120000Y4519200D02*
X4145400Y4544600D01*
X4170800D01*
X4145400Y4570000D01*
X4170800Y4595400D01*
X4145400D01*
X4120000Y4620800D01*
X4094600Y4595400D01*
X4069200D01*
X4094600Y4570000D01*
X4069200Y4544600D01*
X4094600D01*
X4120000Y4519200D01*
X6680000Y4789200D02*
X6705400Y4814600D01*
X6730800D01*
X6705400Y4840000D01*
X6730800Y4865400D01*
X6705400D01*
X6680000Y4890800D01*
X6654600Y4865400D01*
X6629200D01*
X6654600Y4840000D01*
X6629200Y4814600D01*
X6654600D01*
X6680000Y4789200D01*
X5240000Y4799200D02*
X5265400Y4824600D01*
X5290800D01*
X5265400Y4850000D01*
X5290800Y4875400D01*
X5265400D01*
X5240000Y4900800D01*
X5214600Y4875400D01*
X5189200D01*
X5214600Y4850000D01*
X5189200Y4824600D01*
X5214600D01*
X5240000Y4799200D01*
X4390000D02*
X4415400Y4824600D01*
X4440800D01*
X4415400Y4850000D01*
X4440800Y4875400D01*
X4415400D01*
X4390000Y4900800D01*
X4364600Y4875400D01*
X4339200D01*
X4364600Y4850000D01*
X4339200Y4824600D01*
X4364600D01*
X4390000Y4799200D01*
X3620000Y4499200D02*
X3645400Y4524600D01*
X3670800D01*
X3645400Y4550000D01*
X3670800Y4575400D01*
X3645400D01*
X3620000Y4600800D01*
X3594600Y4575400D01*
X3569200D01*
X3594600Y4550000D01*
X3569200Y4524600D01*
X3594600D01*
X3620000Y4499200D01*
X4022208Y4644689D02*
X4047608Y4670089D01*
X4073008D01*
X4047608Y4695489D01*
X4073008Y4720889D01*
X4047608D01*
X4022208Y4746289D01*
X3996808Y4720889D01*
X3971408D01*
X3996808Y4695489D01*
X3971408Y4670089D01*
X3996808D01*
X4022208Y4644689D01*
X4010000Y4479200D02*
X4035400Y4504600D01*
X4060800D01*
X4035400Y4530000D01*
X4060800Y4555400D01*
X4035400D01*
X4010000Y4580800D01*
X3984600Y4555400D01*
X3959200D01*
X3984600Y4530000D01*
X3959200Y4504600D01*
X3984600D01*
X4010000Y4479200D01*
X5713689Y4839334D02*
X5739089Y4864734D01*
X5764489D01*
X5739089Y4890134D01*
X5764489Y4915534D01*
X5739089D01*
X5713689Y4940934D01*
X5688289Y4915534D01*
X5662889D01*
X5688289Y4890134D01*
X5662889Y4864734D01*
X5688289D01*
X5713689Y4839334D01*
X7035770Y4338833D02*
X7061170Y4364233D01*
X7086570D01*
X7061170Y4389633D01*
X7086570Y4415033D01*
X7061170D01*
X7035770Y4440433D01*
X7010370Y4415033D01*
X6984970D01*
X7010370Y4389633D01*
X6984970Y4364233D01*
X7010370D01*
X7035770Y4338833D01*
X6351000Y4573283D02*
X6376400Y4598683D01*
X6401800D01*
X6376400Y4624083D01*
X6401800Y4649483D01*
X6376400D01*
X6351000Y4674883D01*
X6325600Y4649483D01*
X6300200D01*
X6325600Y4624083D01*
X6300200Y4598683D01*
X6325600D01*
X6351000Y4573283D01*
X4083501Y728988D02*
X4108901Y754388D01*
X4134301D01*
X4108901Y779788D01*
X4134301Y805188D01*
X4108901D01*
X4083501Y830588D01*
X4058101Y805188D01*
X4032701D01*
X4058101Y779788D01*
X4032701Y754388D01*
X4058101D01*
X4083501Y728988D01*
X2721526Y4776956D02*
X2746926Y4802356D01*
X2772326D01*
X2746926Y4827756D01*
X2772326Y4853156D01*
X2746926D01*
X2721526Y4878556D01*
X2696126Y4853156D01*
X2670726D01*
X2696126Y4827756D01*
X2670726Y4802356D01*
X2696126D01*
X2721526Y4776956D01*
X2821915Y4779949D02*
X2847315Y4805349D01*
X2872715D01*
X2847315Y4830749D01*
X2872715Y4856149D01*
X2847315D01*
X2821915Y4881549D01*
X2796515Y4856149D01*
X2771115D01*
X2796515Y4830749D01*
X2771115Y4805349D01*
X2796515D01*
X2821915Y4779949D01*
X1956782Y970669D02*
X1982182Y996069D01*
X2007582D01*
X1982182Y1021469D01*
X2007582Y1046869D01*
X1982182D01*
X1956782Y1072269D01*
X1931382Y1046869D01*
X1905982D01*
X1931382Y1021469D01*
X1905982Y996069D01*
X1931382D01*
X1956782Y970669D01*
X1872100Y1423975D02*
X1897500Y1449375D01*
X1922900D01*
X1897500Y1474775D01*
X1922900Y1500175D01*
X1897500D01*
X1872100Y1525575D01*
X1846700Y1500175D01*
X1821300D01*
X1846700Y1474775D01*
X1821300Y1449375D01*
X1846700D01*
X1872100Y1423975D01*
X3148932Y691712D02*
X3174332Y717112D01*
X3199732D01*
X3174332Y742512D01*
X3199732Y767912D01*
X3174332D01*
X3148932Y793312D01*
X3123532Y767912D01*
X3098132D01*
X3123532Y742512D01*
X3098132Y717112D01*
X3123532D01*
X3148932Y691712D01*
X3835270Y1132157D02*
X3860670Y1157557D01*
X3886070D01*
X3860670Y1182957D01*
X3886070Y1208357D01*
X3860670D01*
X3835270Y1233757D01*
X3809870Y1208357D01*
X3784470D01*
X3809870Y1182957D01*
X3784470Y1157557D01*
X3809870D01*
X3835270Y1132157D01*
X3885916Y1089656D02*
X3911316Y1115056D01*
X3936716D01*
X3911316Y1140456D01*
X3936716Y1165856D01*
X3911316D01*
X3885916Y1191256D01*
X3860516Y1165856D01*
X3835116D01*
X3860516Y1140456D01*
X3835116Y1115056D01*
X3860516D01*
X3885916Y1089656D01*
X4279925Y665751D02*
X4305325Y691151D01*
X4330725D01*
X4305325Y716551D01*
X4330725Y741951D01*
X4305325D01*
X4279925Y767351D01*
X4254525Y741951D01*
X4229125D01*
X4254525Y716551D01*
X4229125Y691151D01*
X4254525D01*
X4279925Y665751D01*
X6753371Y2063723D02*
X6778771Y2089123D01*
X6804171D01*
X6778771Y2114523D01*
X6804171Y2139923D01*
X6778771D01*
X6753371Y2165323D01*
X6727971Y2139923D01*
X6702571D01*
X6727971Y2114523D01*
X6702571Y2089123D01*
X6727971D01*
X6753371Y2063723D01*
X6759394Y1983584D02*
X6784794Y2008984D01*
X6810194D01*
X6784794Y2034384D01*
X6810194Y2059784D01*
X6784794D01*
X6759394Y2085184D01*
X6733994Y2059784D01*
X6708594D01*
X6733994Y2034384D01*
X6708594Y2008984D01*
X6733994D01*
X6759394Y1983584D01*
X4510801Y3642868D02*
X4536201Y3668268D01*
X4561601D01*
X4536201Y3693668D01*
X4561601Y3719068D01*
X4536201D01*
X4510801Y3744468D01*
X4485401Y3719068D01*
X4460001D01*
X4485401Y3693668D01*
X4460001Y3668268D01*
X4485401D01*
X4510801Y3642868D01*
X4510639Y3714970D02*
X4536039Y3740370D01*
X4561439D01*
X4536039Y3765770D01*
X4561439Y3791170D01*
X4536039D01*
X4510639Y3816570D01*
X4485239Y3791170D01*
X4459839D01*
X4485239Y3765770D01*
X4459839Y3740370D01*
X4485239D01*
X4510639Y3714970D01*
X4713598Y2922246D02*
X4738998Y2947646D01*
X4764398D01*
X4738998Y2973046D01*
X4764398Y2998446D01*
X4738998D01*
X4713598Y3023846D01*
X4688198Y2998446D01*
X4662798D01*
X4688198Y2973046D01*
X4662798Y2947646D01*
X4688198D01*
X4713598Y2922246D01*
X4709536Y2856473D02*
X4734936Y2881873D01*
X4760336D01*
X4734936Y2907273D01*
X4760336Y2932673D01*
X4734936D01*
X4709536Y2958073D01*
X4684136Y2932673D01*
X4658736D01*
X4684136Y2907273D01*
X4658736Y2881873D01*
X4684136D01*
X4709536Y2856473D01*
X4562262Y3051114D02*
X4587662Y3076514D01*
X4613062D01*
X4587662Y3101914D01*
X4613062Y3127314D01*
X4587662D01*
X4562262Y3152714D01*
X4536862Y3127314D01*
X4511462D01*
X4536862Y3101914D01*
X4511462Y3076514D01*
X4536862D01*
X4562262Y3051114D01*
X5100000Y779200D02*
X5125400Y804600D01*
X5150800D01*
X5125400Y830000D01*
X5150800Y855400D01*
X5125400D01*
X5100000Y880800D01*
X5074600Y855400D01*
X5049200D01*
X5074600Y830000D01*
X5049200Y804600D01*
X5074600D01*
X5100000Y779200D01*
X5522500Y729200D02*
X5547900Y754600D01*
X5573300D01*
X5547900Y780000D01*
X5573300Y805400D01*
X5547900D01*
X5522500Y830800D01*
X5497100Y805400D01*
X5471700D01*
X5497100Y780000D01*
X5471700Y754600D01*
X5497100D01*
X5522500Y729200D01*
X5412500D02*
X5437900Y754600D01*
X5463300D01*
X5437900Y780000D01*
X5463300Y805400D01*
X5437900D01*
X5412500Y830800D01*
X5387100Y805400D01*
X5361700D01*
X5387100Y780000D01*
X5361700Y754600D01*
X5387100D01*
X5412500Y729200D01*
X5178937Y771150D02*
X5204337Y796550D01*
X5229737D01*
X5204337Y821950D01*
X5229737Y847350D01*
X5204337D01*
X5178937Y872750D01*
X5153537Y847350D01*
X5128137D01*
X5153537Y821950D01*
X5128137Y796550D01*
X5153537D01*
X5178937Y771150D01*
X4430000Y3639200D02*
X4455400Y3664600D01*
X4480800D01*
X4455400Y3690000D01*
X4480800Y3715400D01*
X4455400D01*
X4430000Y3740800D01*
X4404600Y3715400D01*
X4379200D01*
X4404600Y3690000D01*
X4379200Y3664600D01*
X4404600D01*
X4430000Y3639200D01*
X5273930Y574079D02*
X5299330Y599479D01*
X5324730D01*
X5299330Y624879D01*
X5324730Y650279D01*
X5299330D01*
X5273930Y675679D01*
X5248530Y650279D01*
X5223130D01*
X5248530Y624879D01*
X5223130Y599479D01*
X5248530D01*
X5273930Y574079D01*
X8180000Y4659200D02*
X8205400Y4684600D01*
X8230800D01*
X8205400Y4710000D01*
X8230800Y4735400D01*
X8205400D01*
X8180000Y4760800D01*
X8154600Y4735400D01*
X8129200D01*
X8154600Y4710000D01*
X8129200Y4684600D01*
X8154600D01*
X8180000Y4659200D01*
X8263173Y3509425D02*
X8288573Y3534825D01*
X8313973D01*
X8288573Y3560225D01*
X8313973Y3585625D01*
X8288573D01*
X8263173Y3611025D01*
X8237773Y3585625D01*
X8212373D01*
X8237773Y3560225D01*
X8212373Y3534825D01*
X8237773D01*
X8263173Y3509425D01*
X8262746Y3446206D02*
X8288146Y3471606D01*
X8313546D01*
X8288146Y3497006D01*
X8313546Y3522406D01*
X8288146D01*
X8262746Y3547806D01*
X8237346Y3522406D01*
X8211946D01*
X8237346Y3497006D01*
X8211946Y3471606D01*
X8237346D01*
X8262746Y3446206D01*
X8342706Y3366598D02*
X8368106Y3391998D01*
X8393506D01*
X8368106Y3417398D01*
X8393506Y3442798D01*
X8368106D01*
X8342706Y3468198D01*
X8317306Y3442798D01*
X8291906D01*
X8317306Y3417398D01*
X8291906Y3391998D01*
X8317306D01*
X8342706Y3366598D01*
X8338790Y3522766D02*
X8364190Y3548166D01*
X8389590D01*
X8364190Y3573566D01*
X8389590Y3598966D01*
X8364190D01*
X8338790Y3624366D01*
X8313390Y3598966D01*
X8287990D01*
X8313390Y3573566D01*
X8287990Y3548166D01*
X8313390D01*
X8338790Y3522766D01*
X8237078Y786439D02*
X8262478Y811839D01*
X8287878D01*
X8262478Y837239D01*
X8287878Y862639D01*
X8262478D01*
X8237078Y888039D01*
X8211678Y862639D01*
X8186278D01*
X8211678Y837239D01*
X8186278Y811839D01*
X8211678D01*
X8237078Y786439D01*
X8279247Y701876D02*
X8304647Y727276D01*
X8330047D01*
X8304647Y752676D01*
X8330047Y778076D01*
X8304647D01*
X8279247Y803476D01*
X8253847Y778076D01*
X8228447D01*
X8253847Y752676D01*
X8228447Y727276D01*
X8253847D01*
X8279247Y701876D01*
X8244326Y874009D02*
X8269726Y899409D01*
X8295126D01*
X8269726Y924809D01*
X8295126Y950209D01*
X8269726D01*
X8244326Y975609D01*
X8218926Y950209D01*
X8193526D01*
X8218926Y924809D01*
X8193526Y899409D01*
X8218926D01*
X8244326Y874009D01*
X8254941Y954112D02*
X8280341Y979512D01*
X8305741D01*
X8280341Y1004912D01*
X8305741Y1030312D01*
X8280341D01*
X8254941Y1055712D01*
X8229541Y1030312D01*
X8204141D01*
X8229541Y1004912D01*
X8204141Y979512D01*
X8229541D01*
X8254941Y954112D01*
X8340000Y699200D02*
X8365400Y724600D01*
X8390800D01*
X8365400Y750000D01*
X8390800Y775400D01*
X8365400D01*
X8340000Y800800D01*
X8314600Y775400D01*
X8289200D01*
X8314600Y750000D01*
X8289200Y724600D01*
X8314600D01*
X8340000Y699200D01*
X8186743Y788896D02*
X8212143Y814296D01*
X8237543D01*
X8212143Y839696D01*
X8237543Y865096D01*
X8212143D01*
X8186743Y890496D01*
X8161343Y865096D01*
X8135943D01*
X8161343Y839696D01*
X8135943Y814296D01*
X8161343D01*
X8186743Y788896D01*
X8339120Y4577645D02*
X8364520Y4603045D01*
X8389920D01*
X8364520Y4628445D01*
X8389920Y4653845D01*
X8364520D01*
X8339120Y4679245D01*
X8313720Y4653845D01*
X8288320D01*
X8313720Y4628445D01*
X8288320Y4603045D01*
X8313720D01*
X8339120Y4577645D01*
X8190097Y949373D02*
X8215497Y974773D01*
X8240897D01*
X8215497Y1000173D01*
X8240897Y1025573D01*
X8215497D01*
X8190097Y1050973D01*
X8164697Y1025573D01*
X8139297D01*
X8164697Y1000173D01*
X8139297Y974773D01*
X8164697D01*
X8190097Y949373D01*
X8336335Y1113576D02*
X8361735Y1138976D01*
X8387135D01*
X8361735Y1164376D01*
X8387135Y1189776D01*
X8361735D01*
X8336335Y1215176D01*
X8310935Y1189776D01*
X8285535D01*
X8310935Y1164376D01*
X8285535Y1138976D01*
X8310935D01*
X8336335Y1113576D01*
X8339832Y1513261D02*
X8365232Y1538661D01*
X8390632D01*
X8365232Y1564061D01*
X8390632Y1589461D01*
X8365232D01*
X8339832Y1614861D01*
X8314432Y1589461D01*
X8289032D01*
X8314432Y1564061D01*
X8289032Y1538661D01*
X8314432D01*
X8339832Y1513261D01*
X8335876Y1595953D02*
X8361276Y1621353D01*
X8386676D01*
X8361276Y1646753D01*
X8386676Y1672153D01*
X8361276D01*
X8335876Y1697553D01*
X8310476Y1672153D01*
X8285076D01*
X8310476Y1646753D01*
X8285076Y1621353D01*
X8310476D01*
X8335876Y1595953D01*
X8339173Y1754840D02*
X8364573Y1780240D01*
X8389973D01*
X8364573Y1805640D01*
X8389973Y1831040D01*
X8364573D01*
X8339173Y1856440D01*
X8313773Y1831040D01*
X8288373D01*
X8313773Y1805640D01*
X8288373Y1780240D01*
X8313773D01*
X8339173Y1754840D01*
X8339531Y3604697D02*
X8364931Y3630097D01*
X8390331D01*
X8364931Y3655497D01*
X8390331Y3680897D01*
X8364931D01*
X8339531Y3706297D01*
X8314131Y3680897D01*
X8288731D01*
X8314131Y3655497D01*
X8288731Y3630097D01*
X8314131D01*
X8339531Y3604697D01*
Y3844451D02*
X8364931Y3869851D01*
X8390331D01*
X8364931Y3895251D01*
X8390331Y3920651D01*
X8364931D01*
X8339531Y3946051D01*
X8314131Y3920651D01*
X8288731D01*
X8314131Y3895251D01*
X8288731Y3869851D01*
X8314131D01*
X8339531Y3844451D01*
X8340000Y4724200D02*
X8365400Y4749600D01*
X8390800D01*
X8365400Y4775000D01*
X8390800Y4800400D01*
X8365400D01*
X8340000Y4825800D01*
X8314600Y4800400D01*
X8289200D01*
X8314600Y4775000D01*
X8289200Y4749600D01*
X8314600D01*
X8340000Y4724200D01*
X8336858Y4244200D02*
X8362258Y4269600D01*
X8387658D01*
X8362258Y4295000D01*
X8387658Y4320400D01*
X8362258D01*
X8336858Y4345800D01*
X8311458Y4320400D01*
X8286058D01*
X8311458Y4295000D01*
X8286058Y4269600D01*
X8311458D01*
X8336858Y4244200D01*
X8338650Y4484200D02*
X8364050Y4509600D01*
X8389450D01*
X8364050Y4535000D01*
X8389450Y4560400D01*
X8364050D01*
X8338650Y4585800D01*
X8313250Y4560400D01*
X8287850D01*
X8313250Y4535000D01*
X8287850Y4509600D01*
X8313250D01*
X8338650Y4484200D01*
X8188231Y1666482D02*
X8213631Y1691882D01*
X8239031D01*
X8213631Y1717282D01*
X8239031Y1742682D01*
X8213631D01*
X8188231Y1768082D01*
X8162831Y1742682D01*
X8137431D01*
X8162831Y1717282D01*
X8137431Y1691882D01*
X8162831D01*
X8188231Y1666482D01*
X8338507Y1671034D02*
X8363907Y1696434D01*
X8389307D01*
X8363907Y1721834D01*
X8389307Y1747234D01*
X8363907D01*
X8338507Y1772634D01*
X8313107Y1747234D01*
X8287707D01*
X8313107Y1721834D01*
X8287707Y1696434D01*
X8313107D01*
X8338507Y1671034D01*
X8190960Y1422041D02*
X8216360Y1447441D01*
X8241760D01*
X8216360Y1472841D01*
X8241760Y1498241D01*
X8216360D01*
X8190960Y1523641D01*
X8165560Y1498241D01*
X8140160D01*
X8165560Y1472841D01*
X8140160Y1447441D01*
X8165560D01*
X8190960Y1422041D01*
X8190000Y1369200D02*
X8215400Y1394600D01*
X8240800D01*
X8215400Y1420000D01*
X8240800Y1445400D01*
X8215400D01*
X8190000Y1470800D01*
X8164600Y1445400D01*
X8139200D01*
X8164600Y1420000D01*
X8139200Y1394600D01*
X8164600D01*
X8190000Y1369200D01*
X8191135Y1261806D02*
X8216535Y1287206D01*
X8241935D01*
X8216535Y1312606D01*
X8241935Y1338006D01*
X8216535D01*
X8191135Y1363406D01*
X8165735Y1338006D01*
X8140335D01*
X8165735Y1312606D01*
X8140335Y1287206D01*
X8165735D01*
X8191135Y1261806D01*
X8185072Y1210380D02*
X8210472Y1235780D01*
X8235872D01*
X8210472Y1261180D01*
X8235872Y1286580D01*
X8210472D01*
X8185072Y1311980D01*
X8159672Y1286580D01*
X8134272D01*
X8159672Y1261180D01*
X8134272Y1235780D01*
X8159672D01*
X8185072Y1210380D01*
X8335341Y4629495D02*
X8360741Y4654895D01*
X8386141D01*
X8360741Y4680295D01*
X8386141Y4705695D01*
X8360741D01*
X8335341Y4731095D01*
X8309941Y4705695D01*
X8284541D01*
X8309941Y4680295D01*
X8284541Y4654895D01*
X8309941D01*
X8335341Y4629495D01*
X8333828Y4338301D02*
X8359228Y4363701D01*
X8384628D01*
X8359228Y4389101D01*
X8384628Y4414501D01*
X8359228D01*
X8333828Y4439901D01*
X8308428Y4414501D01*
X8283028D01*
X8308428Y4389101D01*
X8283028Y4363701D01*
X8308428D01*
X8333828Y4338301D01*
X8333073Y4391028D02*
X8358473Y4416428D01*
X8383873D01*
X8358473Y4441828D01*
X8383873Y4467228D01*
X8358473D01*
X8333073Y4492628D01*
X8307673Y4467228D01*
X8282273D01*
X8307673Y4441828D01*
X8282273Y4416428D01*
X8307673D01*
X8333073Y4391028D01*
X8190000Y3669200D02*
X8215400Y3694600D01*
X8240800D01*
X8215400Y3720000D01*
X8240800Y3745400D01*
X8215400D01*
X8190000Y3770800D01*
X8164600Y3745400D01*
X8139200D01*
X8164600Y3720000D01*
X8139200Y3694600D01*
X8164600D01*
X8190000Y3669200D01*
X8330000D02*
X8355400Y3694600D01*
X8380800D01*
X8355400Y3720000D01*
X8380800Y3745400D01*
X8355400D01*
X8330000Y3770800D01*
X8304600Y3745400D01*
X8279200D01*
X8304600Y3720000D01*
X8279200Y3694600D01*
X8304600D01*
X8330000Y3669200D01*
X4660000Y3489200D02*
X4685400Y3514600D01*
X4710800D01*
X4685400Y3540000D01*
X4710800Y3565400D01*
X4685400D01*
X4660000Y3590800D01*
X4634600Y3565400D01*
X4609200D01*
X4634600Y3540000D01*
X4609200Y3514600D01*
X4634600D01*
X4660000Y3489200D01*
X5452481Y3379281D02*
X5477881Y3404681D01*
X5503281D01*
X5477881Y3430081D01*
X5503281Y3455481D01*
X5477881D01*
X5452481Y3480881D01*
X5427081Y3455481D01*
X5401681D01*
X5427081Y3430081D01*
X5401681Y3404681D01*
X5427081D01*
X5452481Y3379281D01*
X5211075Y3674890D02*
X5236475Y3700290D01*
X5261875D01*
X5236475Y3725690D01*
X5261875Y3751090D01*
X5236475D01*
X5211075Y3776490D01*
X5185675Y3751090D01*
X5160275D01*
X5185675Y3725690D01*
X5160275Y3700290D01*
X5185675D01*
X5211075Y3674890D01*
X4617952Y4289433D02*
X4643352Y4314833D01*
X4668752D01*
X4643352Y4340233D01*
X4668752Y4365633D01*
X4643352D01*
X4617952Y4391033D01*
X4592552Y4365633D01*
X4567152D01*
X4592552Y4340233D01*
X4567152Y4314833D01*
X4592552D01*
X4617952Y4289433D01*
X5122086Y2793116D02*
X5147486Y2818516D01*
X5172886D01*
X5147486Y2843916D01*
X5172886Y2869316D01*
X5147486D01*
X5122086Y2894716D01*
X5096686Y2869316D01*
X5071286D01*
X5096686Y2843916D01*
X5071286Y2818516D01*
X5096686D01*
X5122086Y2793116D01*
X5122718Y3117784D02*
X5148118Y3143184D01*
X5173518D01*
X5148118Y3168584D01*
X5173518Y3193984D01*
X5148118D01*
X5122718Y3219384D01*
X5097318Y3193984D01*
X5071918D01*
X5097318Y3168584D01*
X5071918Y3143184D01*
X5097318D01*
X5122718Y3117784D01*
X5120000Y2919200D02*
X5145400Y2944600D01*
X5170800D01*
X5145400Y2970000D01*
X5170800Y2995400D01*
X5145400D01*
X5120000Y3020800D01*
X5094600Y2995400D01*
X5069200D01*
X5094600Y2970000D01*
X5069200Y2944600D01*
X5094600D01*
X5120000Y2919200D01*
X4399284Y2764147D02*
X4424684Y2789547D01*
X4450084D01*
X4424684Y2814947D01*
X4450084Y2840347D01*
X4424684D01*
X4399284Y2865747D01*
X4373884Y2840347D01*
X4348484D01*
X4373884Y2814947D01*
X4348484Y2789547D01*
X4373884D01*
X4399284Y2764147D01*
X2007255Y4648513D02*
X2032655Y4673913D01*
X2058055D01*
X2032655Y4699313D01*
X2058055Y4724713D01*
X2032655D01*
X2007255Y4750113D01*
X1981855Y4724713D01*
X1956455D01*
X1981855Y4699313D01*
X1956455Y4673913D01*
X1981855D01*
X2007255Y4648513D01*
X2356010Y4649998D02*
X2381410Y4675398D01*
X2406810D01*
X2381410Y4700798D01*
X2406810Y4726198D01*
X2381410D01*
X2356010Y4751598D01*
X2330610Y4726198D01*
X2305210D01*
X2330610Y4700798D01*
X2305210Y4675398D01*
X2330610D01*
X2356010Y4649998D01*
X3480000Y4629200D02*
X3505400Y4654600D01*
X3530800D01*
X3505400Y4680000D01*
X3530800Y4705400D01*
X3505400D01*
X3480000Y4730800D01*
X3454600Y4705400D01*
X3429200D01*
X3454600Y4680000D01*
X3429200Y4654600D01*
X3454600D01*
X3480000Y4629200D01*
X3455458Y4350633D02*
X3480858Y4376033D01*
X3506258D01*
X3480858Y4401433D01*
X3506258Y4426833D01*
X3480858D01*
X3455458Y4452233D01*
X3430058Y4426833D01*
X3404658D01*
X3430058Y4401433D01*
X3404658Y4376033D01*
X3430058D01*
X3455458Y4350633D01*
X3679868Y4257091D02*
X3705268Y4282491D01*
X3730668D01*
X3705268Y4307891D01*
X3730668Y4333291D01*
X3705268D01*
X3679868Y4358691D01*
X3654468Y4333291D01*
X3629068D01*
X3654468Y4307891D01*
X3629068Y4282491D01*
X3654468D01*
X3679868Y4257091D01*
X3995327Y3644068D02*
X4020727Y3669468D01*
X4046127D01*
X4020727Y3694868D01*
X4046127Y3720268D01*
X4020727D01*
X3995327Y3745668D01*
X3969927Y3720268D01*
X3944527D01*
X3969927Y3694868D01*
X3944527Y3669468D01*
X3969927D01*
X3995327Y3644068D01*
X3679400Y3643691D02*
X3704800Y3669091D01*
X3730200D01*
X3704800Y3694491D01*
X3730200Y3719891D01*
X3704800D01*
X3679400Y3745291D01*
X3654000Y3719891D01*
X3628600D01*
X3654000Y3694491D01*
X3628600Y3669091D01*
X3654000D01*
X3679400Y3643691D01*
X3910010Y4254252D02*
X3935410Y4279652D01*
X3960810D01*
X3935410Y4305052D01*
X3960810Y4330452D01*
X3935410D01*
X3910010Y4355852D01*
X3884610Y4330452D01*
X3859210D01*
X3884610Y4305052D01*
X3859210Y4279652D01*
X3884610D01*
X3910010Y4254252D01*
X2872337Y4359693D02*
X2897737Y4385093D01*
X2923137D01*
X2897737Y4410493D01*
X2923137Y4435893D01*
X2897737D01*
X2872337Y4461293D01*
X2846937Y4435893D01*
X2821537D01*
X2846937Y4410493D01*
X2821537Y4385093D01*
X2846937D01*
X2872337Y4359693D01*
X2199302Y4218983D02*
X2224702Y4244383D01*
X2250102D01*
X2224702Y4269783D01*
X2250102Y4295183D01*
X2224702D01*
X2199302Y4320583D01*
X2173902Y4295183D01*
X2148502D01*
X2173902Y4269783D01*
X2148502Y4244383D01*
X2173902D01*
X2199302Y4218983D01*
X2639250Y4232143D02*
X2664650Y4257543D01*
X2690050D01*
X2664650Y4282943D01*
X2690050Y4308343D01*
X2664650D01*
X2639250Y4333743D01*
X2613850Y4308343D01*
X2588450D01*
X2613850Y4282943D01*
X2588450Y4257543D01*
X2613850D01*
X2639250Y4232143D01*
X3329814Y3762535D02*
X3355214Y3787935D01*
X3380614D01*
X3355214Y3813335D01*
X3380614Y3838735D01*
X3355214D01*
X3329814Y3864135D01*
X3304414Y3838735D01*
X3279014D01*
X3304414Y3813335D01*
X3279014Y3787935D01*
X3304414D01*
X3329814Y3762535D01*
X3437287Y3398180D02*
X3462687Y3423580D01*
X3488087D01*
X3462687Y3448980D01*
X3488087Y3474380D01*
X3462687D01*
X3437287Y3499780D01*
X3411887Y3474380D01*
X3386487D01*
X3411887Y3448980D01*
X3386487Y3423580D01*
X3411887D01*
X3437287Y3398180D01*
X4280000Y1809200D02*
X4305400Y1834600D01*
X4330800D01*
X4305400Y1860000D01*
X4330800Y1885400D01*
X4305400D01*
X4280000Y1910800D01*
X4254600Y1885400D01*
X4229200D01*
X4254600Y1860000D01*
X4229200Y1834600D01*
X4254600D01*
X4280000Y1809200D01*
X3259728Y1260146D02*
X3285128Y1285546D01*
X3310528D01*
X3285128Y1310946D01*
X3310528Y1336346D01*
X3285128D01*
X3259728Y1361746D01*
X3234328Y1336346D01*
X3208928D01*
X3234328Y1310946D01*
X3208928Y1285546D01*
X3234328D01*
X3259728Y1260146D01*
X2720000Y909200D02*
X2745400Y934600D01*
X2770800D01*
X2745400Y960000D01*
X2770800Y985400D01*
X2745400D01*
X2720000Y1010800D01*
X2694600Y985400D01*
X2669200D01*
X2694600Y960000D01*
X2669200Y934600D01*
X2694600D01*
X2720000Y909200D01*
X3000433Y750368D02*
X3025833Y775768D01*
X3051233D01*
X3025833Y801168D01*
X3051233Y826568D01*
X3025833D01*
X3000433Y851968D01*
X2975033Y826568D01*
X2949633D01*
X2975033Y801168D01*
X2949633Y775768D01*
X2975033D01*
X3000433Y750368D01*
X2409956Y579805D02*
X2435356Y605205D01*
X2460756D01*
X2435356Y630605D01*
X2460756Y656005D01*
X2435356D01*
X2409956Y681405D01*
X2384556Y656005D01*
X2359156D01*
X2384556Y630605D01*
X2359156Y605205D01*
X2384556D01*
X2409956Y579805D01*
X1499738Y1175561D02*
X1525138Y1200961D01*
X1550538D01*
X1525138Y1226361D01*
X1550538Y1251761D01*
X1525138D01*
X1499738Y1277161D01*
X1474338Y1251761D01*
X1448938D01*
X1474338Y1226361D01*
X1448938Y1200961D01*
X1474338D01*
X1499738Y1175561D01*
X2064939Y1317411D02*
X2090339Y1342811D01*
X2115739D01*
X2090339Y1368211D01*
X2115739Y1393611D01*
X2090339D01*
X2064939Y1419011D01*
X2039539Y1393611D01*
X2014139D01*
X2039539Y1368211D01*
X2014139Y1342811D01*
X2039539D01*
X2064939Y1317411D01*
X2008492Y1247402D02*
X2033892Y1272802D01*
X2059292D01*
X2033892Y1298202D01*
X2059292Y1323602D01*
X2033892D01*
X2008492Y1349002D01*
X1983092Y1323602D01*
X1957692D01*
X1983092Y1298202D01*
X1957692Y1272802D01*
X1983092D01*
X2008492Y1247402D01*
X2250000Y1529200D02*
X2275400Y1554600D01*
X2300800D01*
X2275400Y1580000D01*
X2300800Y1605400D01*
X2275400D01*
X2250000Y1630800D01*
X2224600Y1605400D01*
X2199200D01*
X2224600Y1580000D01*
X2199200Y1554600D01*
X2224600D01*
X2250000Y1529200D01*
X2415559Y1474893D02*
X2440959Y1500293D01*
X2466359D01*
X2440959Y1525693D01*
X2466359Y1551093D01*
X2440959D01*
X2415559Y1576493D01*
X2390159Y1551093D01*
X2364759D01*
X2390159Y1525693D01*
X2364759Y1500293D01*
X2390159D01*
X2415559Y1474893D01*
X2510000Y2579200D02*
X2535400Y2604600D01*
X2560800D01*
X2535400Y2630000D01*
X2560800Y2655400D01*
X2535400D01*
X2510000Y2680800D01*
X2484600Y2655400D01*
X2459200D01*
X2484600Y2630000D01*
X2459200Y2604600D01*
X2484600D01*
X2510000Y2579200D01*
X2299407Y2926339D02*
X2324807Y2951739D01*
X2350207D01*
X2324807Y2977139D01*
X2350207Y3002539D01*
X2324807D01*
X2299407Y3027939D01*
X2274007Y3002539D01*
X2248607D01*
X2274007Y2977139D01*
X2248607Y2951739D01*
X2274007D01*
X2299407Y2926339D01*
X2365367Y2983977D02*
X2390767Y3009377D01*
X2416167D01*
X2390767Y3034777D01*
X2416167Y3060177D01*
X2390767D01*
X2365367Y3085577D01*
X2339967Y3060177D01*
X2314567D01*
X2339967Y3034777D01*
X2314567Y3009377D01*
X2339967D01*
X2365367Y2983977D01*
%TF.MD5,4e81628373e98ee2e9bd762866610387*%
M02*
