%TF.GenerationSoftware,Altium Limited,Altium Designer,25.3.3 (18)*%
G04 Layer_Physical_Order=6*
G04 Layer_Color=16711680*
%FSLAX45Y45*%
%MOMM*%
%TF.SameCoordinates,3F5801E6-D28E-45E5-A6F2-2741A7385EEC*%
%TF.FilePolarity,Positive*%
%TF.FileFunction,Copper,L6,Bot,Signal*%
%TF.Part,Single*%
G01*
G75*
%TA.AperFunction,SMDPad,CuDef*%
G04:AMPARAMS|DCode=66|XSize=1.65mm|YSize=1.25mm|CornerRadius=0.3125mm|HoleSize=0mm|Usage=FLASHONLY|Rotation=0.000|XOffset=0mm|YOffset=0mm|HoleType=Round|Shape=RoundedRectangle|*
%AMROUNDEDRECTD66*
21,1,1.65000,0.62500,0,0,0.0*
21,1,1.02500,1.25000,0,0,0.0*
1,1,0.62500,0.51250,-0.31250*
1,1,0.62500,-0.51250,-0.31250*
1,1,0.62500,-0.51250,0.31250*
1,1,0.62500,0.51250,0.31250*
%
%ADD66ROUNDEDRECTD66*%
G04:AMPARAMS|DCode=67|XSize=1.65mm|YSize=1.25mm|CornerRadius=0.3125mm|HoleSize=0mm|Usage=FLASHONLY|Rotation=270.000|XOffset=0mm|YOffset=0mm|HoleType=Round|Shape=RoundedRectangle|*
%AMROUNDEDRECTD67*
21,1,1.65000,0.62500,0,0,270.0*
21,1,1.02500,1.25000,0,0,270.0*
1,1,0.62500,-0.31250,-0.51250*
1,1,0.62500,-0.31250,0.51250*
1,1,0.62500,0.31250,0.51250*
1,1,0.62500,0.31250,-0.51250*
%
%ADD67ROUNDEDRECTD67*%
%TA.AperFunction,Conductor*%
%ADD68C,0.40000*%
%ADD69C,0.30000*%
%ADD70C,0.25000*%
%ADD73C,0.20000*%
%ADD74C,0.50000*%
%TA.AperFunction,ComponentPad*%
G04:AMPARAMS|DCode=81|XSize=1.55mm|YSize=1.6mm|CornerRadius=0.3875mm|HoleSize=0mm|Usage=FLASHONLY|Rotation=270.000|XOffset=0mm|YOffset=0mm|HoleType=Round|Shape=RoundedRectangle|*
%AMROUNDEDRECTD81*
21,1,1.55000,0.82500,0,0,270.0*
21,1,0.77500,1.60000,0,0,270.0*
1,1,0.77500,-0.41250,-0.38750*
1,1,0.77500,-0.41250,0.38750*
1,1,0.77500,0.41250,0.38750*
1,1,0.77500,0.41250,-0.38750*
%
%ADD81ROUNDEDRECTD81*%
G04:AMPARAMS|DCode=82|XSize=1.7mm|YSize=2.1mm|CornerRadius=0mm|HoleSize=0mm|Usage=FLASHONLY|Rotation=0.000|XOffset=0mm|YOffset=0mm|HoleType=Round|Shape=Octagon|*
%AMOCTAGOND82*
4,1,8,-0.42500,1.05000,0.42500,1.05000,0.85000,0.62500,0.85000,-0.62500,0.42500,-1.05000,-0.42500,-1.05000,-0.85000,-0.62500,-0.85000,0.62500,-0.42500,1.05000,0.0*
%
%ADD82OCTAGOND82*%

G04:AMPARAMS|DCode=83|XSize=1.7mm|YSize=2.1mm|CornerRadius=0.425mm|HoleSize=0mm|Usage=FLASHONLY|Rotation=0.000|XOffset=0mm|YOffset=0mm|HoleType=Round|Shape=RoundedRectangle|*
%AMROUNDEDRECTD83*
21,1,1.70000,1.25001,0,0,0.0*
21,1,0.85000,2.10000,0,0,0.0*
1,1,0.85000,0.42500,-0.62500*
1,1,0.85000,-0.42500,-0.62500*
1,1,0.85000,-0.42500,0.62500*
1,1,0.85000,0.42500,0.62500*
%
%ADD83ROUNDEDRECTD83*%
G04:AMPARAMS|DCode=84|XSize=1.4mm|YSize=1.7mm|CornerRadius=0.35mm|HoleSize=0mm|Usage=FLASHONLY|Rotation=270.000|XOffset=0mm|YOffset=0mm|HoleType=Round|Shape=RoundedRectangle|*
%AMROUNDEDRECTD84*
21,1,1.40000,1.00000,0,0,270.0*
21,1,0.70000,1.70000,0,0,270.0*
1,1,0.70000,-0.50000,-0.35000*
1,1,0.70000,-0.50000,0.35000*
1,1,0.70000,0.50000,0.35000*
1,1,0.70000,0.50000,-0.35000*
%
%ADD84ROUNDEDRECTD84*%
G04:AMPARAMS|DCode=85|XSize=1.4mm|YSize=1.7mm|CornerRadius=0mm|HoleSize=0mm|Usage=FLASHONLY|Rotation=270.000|XOffset=0mm|YOffset=0mm|HoleType=Round|Shape=Octagon|*
%AMOCTAGOND85*
4,1,8,0.85000,0.35000,0.85000,-0.35000,0.50000,-0.70000,-0.50000,-0.70000,-0.85000,-0.35000,-0.85000,0.35000,-0.50000,0.70000,0.50000,0.70000,0.85000,0.35000,0.0*
%
%ADD85OCTAGOND85*%

G04:AMPARAMS|DCode=86|XSize=4mm|YSize=3.6mm|CornerRadius=0.54mm|HoleSize=0mm|Usage=FLASHONLY|Rotation=0.000|XOffset=0mm|YOffset=0mm|HoleType=Round|Shape=RoundedRectangle|*
%AMROUNDEDRECTD86*
21,1,4.00000,2.52000,0,0,0.0*
21,1,2.92000,3.60000,0,0,0.0*
1,1,1.08000,1.46000,-1.26000*
1,1,1.08000,-1.46000,-1.26000*
1,1,1.08000,-1.46000,1.26000*
1,1,1.08000,1.46000,1.26000*
%
%ADD86ROUNDEDRECTD86*%
G04:AMPARAMS|DCode=87|XSize=2.2mm|YSize=2.2mm|CornerRadius=0.55mm|HoleSize=0mm|Usage=FLASHONLY|Rotation=270.000|XOffset=0mm|YOffset=0mm|HoleType=Round|Shape=RoundedRectangle|*
%AMROUNDEDRECTD87*
21,1,2.20000,1.10000,0,0,270.0*
21,1,1.10000,2.20000,0,0,270.0*
1,1,1.10000,-0.55000,-0.55000*
1,1,1.10000,-0.55000,0.55000*
1,1,1.10000,0.55000,0.55000*
1,1,1.10000,0.55000,-0.55000*
%
%ADD87ROUNDEDRECTD87*%
G04:AMPARAMS|DCode=88|XSize=2.2mm|YSize=2.2mm|CornerRadius=0mm|HoleSize=0mm|Usage=FLASHONLY|Rotation=270.000|XOffset=0mm|YOffset=0mm|HoleType=Round|Shape=Octagon|*
%AMOCTAGOND88*
4,1,8,-0.55000,-1.10000,0.55000,-1.10000,1.10000,-0.55000,1.10000,0.55000,0.55000,1.10000,-0.55000,1.10000,-1.10000,0.55000,-1.10000,-0.55000,-0.55000,-1.10000,0.0*
%
%ADD88OCTAGOND88*%

%TA.AperFunction,ViaPad*%
%ADD89C,0.35000*%
%ADD90C,0.60000*%
G36*
X6549458Y5187877D02*
X6547178Y5188245D01*
X6544713Y5188149D01*
X6542062Y5187590D01*
X6539226Y5186566D01*
X6536205Y5185078D01*
X6532999Y5183127D01*
X6529608Y5180711D01*
X6526032Y5177832D01*
X6518324Y5170682D01*
X6504182Y5184824D01*
X6507989Y5188770D01*
X6514212Y5196108D01*
X6516627Y5199499D01*
X6518578Y5202705D01*
X6520066Y5205726D01*
X6521090Y5208562D01*
X6521649Y5211212D01*
X6521745Y5213678D01*
X6521377Y5215958D01*
X6549458Y5187877D01*
D02*
G37*
G36*
X2999117Y5186535D02*
X2995817Y5186542D01*
X2992366Y5186050D01*
X2988764Y5185058D01*
X2985012Y5183568D01*
X2981108Y5181579D01*
X2977053Y5179090D01*
X2972847Y5176103D01*
X2968491Y5172617D01*
X2959325Y5164147D01*
X2941647Y5181824D01*
X2946132Y5186483D01*
X2953603Y5195347D01*
X2956591Y5199553D01*
X2959079Y5203608D01*
X2961068Y5207511D01*
X2962559Y5211264D01*
X2963550Y5214866D01*
X2964042Y5218317D01*
X2964035Y5221617D01*
X2999117Y5186535D01*
D02*
G37*
G36*
X8412706Y5414943D02*
X8445066Y5407174D01*
X8475813Y5394438D01*
X8504188Y5377050D01*
X8529494Y5355436D01*
X8551108Y5330130D01*
X8568496Y5301755D01*
X8581232Y5271008D01*
X8589001Y5238648D01*
X8590453Y5220198D01*
X8591113Y5205471D01*
X8591116Y5205460D01*
X8591116Y5190471D01*
X8591180Y2793177D01*
X8582473Y2787358D01*
X8576180Y2784875D01*
X8559736D01*
X8549676Y2780707D01*
X8475474D01*
Y2816579D01*
X8473584Y2830936D01*
X8471289Y2836478D01*
X8468042Y2844316D01*
X8459226Y2855805D01*
X8269133Y3045898D01*
X8257644Y3054714D01*
X8252453Y3056864D01*
X8255437Y3071864D01*
X8304250D01*
X8323502Y3074398D01*
X8341443Y3081830D01*
X8356849Y3093651D01*
X8368670Y3109057D01*
X8376101Y3126998D01*
X8378636Y3146250D01*
Y3175000D01*
X8263000D01*
Y3185000D01*
X8253000D01*
Y3298136D01*
X8221750D01*
X8202498Y3295601D01*
X8184557Y3288170D01*
X8169151Y3276349D01*
X8157330Y3260943D01*
X8154809Y3254857D01*
X8137115Y3251337D01*
X8089226Y3299226D01*
X8077737Y3308042D01*
X8064358Y3313584D01*
X8050000Y3315474D01*
X8035642Y3313584D01*
X8022263Y3308042D01*
X8010774Y3299226D01*
X8001958Y3287737D01*
X7996416Y3274358D01*
X7994526Y3260000D01*
X7996416Y3245642D01*
X8001958Y3232263D01*
X8010774Y3220774D01*
X8062075Y3169473D01*
Y3006671D01*
X8063965Y2992314D01*
X8069507Y2978934D01*
X8078323Y2967445D01*
X8089812Y2958629D01*
X8103191Y2953087D01*
X8117549Y2951197D01*
X8133730D01*
Y2935554D01*
X8140961Y2918096D01*
X8154323Y2904734D01*
X8171781Y2897503D01*
X8190678D01*
X8208136Y2904734D01*
X8221498Y2918096D01*
X8221760Y2918728D01*
X8236472Y2921654D01*
X8364526Y2793600D01*
Y2740000D01*
Y1993114D01*
X8353392Y1985674D01*
X8334495D01*
X8317855Y1978782D01*
X8314345Y1987256D01*
X8300983Y2000618D01*
X8283525Y2007849D01*
X8264629D01*
X8247170Y2000618D01*
X8233809Y1987256D01*
X8226577Y1969798D01*
Y1951923D01*
X8224084Y1950891D01*
X8210722Y1937529D01*
X8203491Y1920071D01*
Y1901174D01*
X8210722Y1883716D01*
X8224084Y1870354D01*
X8241543Y1863123D01*
X8260439D01*
X8277897Y1870354D01*
X8278406Y1870863D01*
X8293406Y1864649D01*
Y1860075D01*
X8300637Y1842617D01*
X8313999Y1829255D01*
X8331458Y1822023D01*
X8350354D01*
X8352054Y1822727D01*
X8364526Y1814394D01*
Y1775969D01*
X8352054Y1767636D01*
X8347955Y1769334D01*
X8329058D01*
X8311600Y1762102D01*
X8298238Y1748740D01*
X8291007Y1731282D01*
Y1712385D01*
X8298238Y1694927D01*
X8307557Y1685609D01*
X8295607Y1673660D01*
X8288376Y1656201D01*
Y1637305D01*
X8295607Y1619847D01*
X8308969Y1606485D01*
X8326427Y1599253D01*
X8345324D01*
X8349525Y1600994D01*
X8364526Y1590971D01*
Y804754D01*
X8352054Y796421D01*
X8349448Y797500D01*
X8330552D01*
X8313094Y790268D01*
X8310962Y788137D01*
X8306154Y792945D01*
X8288696Y800176D01*
X8288140D01*
X8285608Y802559D01*
X8279353Y815176D01*
X8284578Y827791D01*
Y846687D01*
X8277347Y864145D01*
X8263985Y877507D01*
X8246527Y884739D01*
X8227630D01*
X8214368Y879245D01*
X8213649Y879965D01*
X8196191Y887196D01*
X8177294D01*
X8159836Y879965D01*
X8146474Y866603D01*
X8139243Y849145D01*
Y830248D01*
X8146474Y812790D01*
X8159836Y799428D01*
X8177294Y792197D01*
X8196191D01*
X8209452Y797690D01*
X8210172Y796970D01*
X8227630Y789739D01*
X8228186D01*
X8230718Y787356D01*
X8236973Y774739D01*
X8231748Y762124D01*
Y743228D01*
X8238979Y725770D01*
X8252341Y712408D01*
X8269799Y705176D01*
X8288696D01*
X8306154Y712408D01*
X8308286Y714540D01*
X8313094Y709732D01*
X8330552Y702500D01*
X8349448D01*
X8356030Y688990D01*
X8356580Y682697D01*
X8319358Y645474D01*
X7910000D01*
X7895642Y643584D01*
X7882263Y638042D01*
X7870774Y629226D01*
X7810774Y569226D01*
X7801958Y557737D01*
X7796416Y544358D01*
X7794526Y530000D01*
X7796416Y515642D01*
X7801958Y502263D01*
X7810774Y490774D01*
X7822263Y481958D01*
X7835642Y476416D01*
X7850000Y474526D01*
X7864358Y476416D01*
X7877737Y481958D01*
X7889226Y490774D01*
X7932978Y534526D01*
X8142578D01*
X8152601Y519526D01*
X8149899Y513003D01*
X8147364Y493750D01*
Y465000D01*
X8263000D01*
X8378636D01*
Y493750D01*
X8376101Y513003D01*
X8370722Y525990D01*
X8370073Y541958D01*
X8381562Y550774D01*
X8459226Y628438D01*
X8468042Y639927D01*
X8473584Y653306D01*
X8475474Y667664D01*
Y2694042D01*
X8549676D01*
X8559736Y2689875D01*
X8578633D01*
X8578711Y2689907D01*
X8591183Y2681574D01*
X8591247Y270170D01*
X8591247Y270037D01*
Y255256D01*
X8590586Y240530D01*
X8589137Y222121D01*
X8581378Y189803D01*
X8568659Y159097D01*
X8551293Y130758D01*
X8529708Y105484D01*
X8504434Y83899D01*
X8476095Y66533D01*
X8445389Y53814D01*
X8413071Y46055D01*
X8381728Y43588D01*
X8379938Y43944D01*
X7729942D01*
X7722545Y58944D01*
X7730196Y68916D01*
X7738005Y87768D01*
X7740669Y108000D01*
Y160500D01*
X7620000D01*
Y180500D01*
X7740669D01*
Y233000D01*
X7738005Y253232D01*
X7730196Y272085D01*
X7717773Y288274D01*
X7701584Y300696D01*
X7682732Y308505D01*
X7671870Y309935D01*
Y325065D01*
X7682732Y326495D01*
X7701584Y334304D01*
X7717773Y346726D01*
X7730196Y362915D01*
X7738005Y381768D01*
X7740669Y402000D01*
Y454500D01*
X7620000D01*
Y474500D01*
X7740669D01*
Y527000D01*
X7738005Y547232D01*
X7730196Y566084D01*
X7717773Y582274D01*
X7701584Y594696D01*
X7682732Y602505D01*
X7677815Y611022D01*
X7680686Y617953D01*
Y636850D01*
X7673455Y654308D01*
X7668481Y659282D01*
Y697428D01*
X7683481Y703641D01*
X7690855Y696267D01*
X7708313Y689035D01*
X7727210D01*
X7744668Y696267D01*
X7758030Y709629D01*
X7765261Y727087D01*
Y745983D01*
X7758030Y763441D01*
X7744668Y776803D01*
X7727210Y784035D01*
X7722423D01*
X7716209Y799035D01*
X7720268Y803094D01*
X7727500Y820552D01*
Y839448D01*
X7727282Y839974D01*
X7736945Y843977D01*
X7750307Y857339D01*
X7757538Y874797D01*
Y893693D01*
X7750307Y911152D01*
X7736945Y924514D01*
X7719487Y931745D01*
X7700590D01*
X7683132Y924514D01*
X7668481Y931075D01*
Y972302D01*
X7668481Y972303D01*
X7665919Y985181D01*
X7676906Y989732D01*
X7686738Y999564D01*
X7693142Y996911D01*
X7707500Y995021D01*
X7721858Y996911D01*
X7735237Y1002453D01*
X7746726Y1011269D01*
X7756711Y1021254D01*
X7765527Y1032743D01*
X7771069Y1046122D01*
X7772959Y1060480D01*
Y1791034D01*
X7787959Y1801057D01*
X7794850Y1798202D01*
X7813746D01*
X7831204Y1805434D01*
X7844566Y1818796D01*
X7851798Y1836254D01*
Y1855150D01*
X7847630Y1865211D01*
Y1867744D01*
X7859281Y1877169D01*
X7870552Y1872500D01*
X7889448D01*
X7906906Y1879732D01*
X7920268Y1893093D01*
X7927500Y1910552D01*
Y1929448D01*
X7922290Y1942025D01*
X7922253Y1942214D01*
X7922146Y1942374D01*
X7920783Y1945663D01*
Y2323107D01*
X8009518Y2411842D01*
X8040983D01*
X8043094Y2409731D01*
X8060552Y2402500D01*
X8065003D01*
X8065933Y2402499D01*
X8066917Y2387500D01*
X8065981Y2387377D01*
X8052497Y2385602D01*
X8034557Y2378170D01*
X8019151Y2366349D01*
X8007330Y2350943D01*
X7999898Y2333002D01*
X7997364Y2313750D01*
Y2285000D01*
X8103000D01*
Y2388136D01*
X8081768D01*
X8080985Y2388137D01*
X8079449Y2402500D01*
X8080926Y2403112D01*
X8096907Y2409731D01*
X8110269Y2423093D01*
X8117500Y2440551D01*
Y2459448D01*
X8110269Y2476906D01*
X8096907Y2490268D01*
X8079448Y2497499D01*
X8060552D01*
X8053133Y2494427D01*
X8052674Y2494392D01*
X8050940Y2493518D01*
X8050831Y2493473D01*
X8050545Y2493409D01*
X7992625D01*
X7977018Y2490304D01*
X7963787Y2481464D01*
X7963786Y2481463D01*
X7887659Y2405336D01*
X7873801Y2411076D01*
Y2546376D01*
X7880418Y2552993D01*
X7889812Y2567050D01*
X7893110Y2583633D01*
Y2612316D01*
X7897277Y2622377D01*
Y2641273D01*
X7890046Y2658732D01*
X7876684Y2672093D01*
X7859226Y2679325D01*
X7840329D01*
X7822871Y2672093D01*
X7809509Y2658732D01*
X7802278Y2641273D01*
Y2622377D01*
X7806445Y2612316D01*
Y2601582D01*
X7799828Y2594965D01*
X7790435Y2580907D01*
X7787137Y2564325D01*
Y2384746D01*
X7772137Y2383763D01*
X7771069Y2391873D01*
X7765527Y2405252D01*
X7756711Y2416741D01*
X7689226Y2484226D01*
X7677737Y2493042D01*
X7664358Y2498584D01*
X7650000Y2500474D01*
X7635642Y2498584D01*
X7622263Y2493042D01*
X7610774Y2484226D01*
X7601958Y2472737D01*
X7596416Y2459358D01*
X7594526Y2445000D01*
X7596416Y2430642D01*
X7601958Y2417263D01*
X7610774Y2405774D01*
X7662010Y2354537D01*
Y1299159D01*
X7660009Y1297822D01*
X7641112D01*
X7623654Y1290590D01*
X7610292Y1277228D01*
X7605783Y1266343D01*
X7590783Y1269326D01*
Y1770000D01*
X7587679Y1785607D01*
X7578838Y1798838D01*
X7578838Y1798839D01*
X7435333Y1942344D01*
X7441825Y1957065D01*
X7457201Y1963433D01*
X7470563Y1976795D01*
X7477794Y1994254D01*
Y2013150D01*
X7472066Y2026980D01*
X7472631Y2027546D01*
X7479862Y2045004D01*
Y2063900D01*
X7472631Y2081359D01*
X7459269Y2094720D01*
X7441811Y2101952D01*
X7422914D01*
X7405456Y2094720D01*
X7390784Y2101261D01*
Y2119216D01*
X7407968D01*
X7407969Y2119216D01*
X7423576Y2122321D01*
X7436807Y2131162D01*
X7449804Y2144158D01*
X7453091Y2145520D01*
X7453282Y2145558D01*
X7453443Y2145666D01*
X7466018Y2150875D01*
X7479380Y2164236D01*
X7486612Y2181695D01*
Y2199288D01*
X7499207Y2211884D01*
X7506438Y2229342D01*
Y2248238D01*
X7499207Y2265697D01*
X7485845Y2279058D01*
X7468387Y2286290D01*
X7449490D01*
X7432032Y2279058D01*
X7418670Y2265697D01*
X7411439Y2248238D01*
Y2238883D01*
X7405784Y2234717D01*
X7390784Y2242298D01*
Y2426162D01*
X7430259D01*
X7433548Y2424800D01*
X7433708Y2424693D01*
X7433897Y2424656D01*
X7446474Y2419446D01*
X7465370D01*
X7482829Y2426677D01*
X7496190Y2440039D01*
X7503422Y2457497D01*
Y2476394D01*
X7496190Y2493852D01*
X7496118Y2493925D01*
X7502507Y2509351D01*
Y2528247D01*
X7495276Y2545705D01*
X7481914Y2559067D01*
X7464455Y2566299D01*
X7445559D01*
X7428101Y2559067D01*
X7414739Y2545705D01*
X7407507Y2528247D01*
Y2509351D01*
X7406424Y2507729D01*
X7390784D01*
Y2563107D01*
X7413687Y2586010D01*
X7415343Y2587117D01*
X7435793Y2607567D01*
X7436482Y2607281D01*
X7455379D01*
X7472837Y2614512D01*
X7481027Y2622702D01*
X7513484D01*
X7513485Y2622701D01*
X7529092Y2625806D01*
X7542323Y2634647D01*
X7623706Y2716029D01*
X7624072Y2716322D01*
X7625184Y2717078D01*
X7626259Y2717688D01*
X7627322Y2718181D01*
X7628425Y2718585D01*
X7629613Y2718913D01*
X7630934Y2719165D01*
X7631402Y2719217D01*
X7964341D01*
X8084054Y2599504D01*
X8085416Y2596217D01*
X8085454Y2596026D01*
X8085562Y2595865D01*
X8090770Y2583289D01*
X8104132Y2569927D01*
X8121591Y2562696D01*
X8140487D01*
X8157945Y2569927D01*
X8167161Y2579143D01*
X8180698Y2579403D01*
X8185168Y2577553D01*
X8196630Y2566091D01*
X8214088Y2558859D01*
X8232985D01*
X8250443Y2566091D01*
X8263805Y2579453D01*
X8271037Y2596911D01*
Y2615807D01*
X8263805Y2633265D01*
X8250443Y2646627D01*
X8232985Y2653859D01*
X8214088D01*
X8196630Y2646627D01*
X8187415Y2637412D01*
X8173877Y2637152D01*
X8169408Y2639001D01*
X8157945Y2650464D01*
X8145370Y2655673D01*
X8145208Y2655781D01*
X8145018Y2655819D01*
X8141731Y2657180D01*
X8010073Y2788838D01*
X7996842Y2797679D01*
X7981234Y2800784D01*
X7981233Y2800784D01*
X7650784D01*
Y3333107D01*
X7680589Y3362912D01*
X7680590Y3362913D01*
X7689430Y3376144D01*
X7692535Y3391751D01*
Y3650337D01*
X7693897Y3653626D01*
X7694004Y3653786D01*
X7694042Y3653975D01*
X7699251Y3666552D01*
Y3685448D01*
X7692020Y3702906D01*
X7678658Y3716268D01*
X7661200Y3723500D01*
X7642303D01*
X7624845Y3716268D01*
X7611483Y3702906D01*
X7604251Y3685448D01*
Y3666552D01*
X7609461Y3653975D01*
X7609499Y3653786D01*
X7609606Y3653626D01*
X7610968Y3650337D01*
Y3408644D01*
X7581162Y3378838D01*
X7572321Y3365607D01*
X7569216Y3350000D01*
X7569217Y3349999D01*
Y2781402D01*
X7569165Y2780934D01*
X7568913Y2779613D01*
X7568584Y2778422D01*
X7568181Y2777322D01*
X7567688Y2776258D01*
X7567079Y2775186D01*
X7566322Y2774072D01*
X7566029Y2773706D01*
X7513962Y2721639D01*
X7498124Y2727014D01*
X7492873Y2739690D01*
X7479511Y2753052D01*
X7462053Y2760284D01*
X7443156D01*
X7425698Y2753052D01*
X7412336Y2739690D01*
X7405105Y2722232D01*
Y2703336D01*
X7406853Y2689590D01*
X7393622Y2680749D01*
X7393621Y2680748D01*
X7358773Y2645900D01*
X7357117Y2644794D01*
X7357116Y2644793D01*
X7321162Y2608838D01*
X7312321Y2595607D01*
X7309216Y2580000D01*
X7309217Y2579999D01*
Y2540319D01*
X7294217Y2537335D01*
X7290254Y2546901D01*
X7276892Y2560263D01*
X7259434Y2567495D01*
X7240537D01*
X7223079Y2560263D01*
X7209717Y2546901D01*
X7202486Y2529443D01*
Y2510547D01*
X7209717Y2493088D01*
X7223079Y2479727D01*
X7240537Y2472495D01*
X7259434D01*
X7276892Y2479727D01*
X7290254Y2493088D01*
X7294217Y2502655D01*
X7309217Y2499671D01*
Y2480001D01*
X7309216Y2480000D01*
X7309217Y2479999D01*
Y2160000D01*
Y2010000D01*
Y1970001D01*
X7309216Y1970000D01*
X7312321Y1954393D01*
X7321162Y1941161D01*
X7509216Y1753107D01*
Y1302910D01*
X7494216Y1296696D01*
X7485680Y1305233D01*
X7468222Y1312464D01*
X7449325D01*
X7431867Y1305233D01*
X7418505Y1291871D01*
X7411273Y1274413D01*
Y1269950D01*
X7396273Y1259927D01*
X7394466Y1260676D01*
X7375569D01*
X7358111Y1253445D01*
X7344749Y1240083D01*
X7337518Y1222625D01*
Y1203728D01*
X7338747Y1200761D01*
X7334619Y1194583D01*
X7331514Y1178976D01*
X7331515Y1178974D01*
Y963265D01*
X7331514Y963263D01*
X7334619Y947656D01*
X7343460Y934425D01*
X7370815Y907070D01*
Y848955D01*
X7370814Y848953D01*
X7373919Y833346D01*
X7382760Y820115D01*
X7390188Y812686D01*
X7391550Y809398D01*
X7391588Y809209D01*
X7391695Y809049D01*
X7396904Y796472D01*
X7410266Y783110D01*
X7426272Y776481D01*
X7427747Y771505D01*
X7427804Y760879D01*
X7416303Y756115D01*
X7402942Y742753D01*
X7395710Y725295D01*
Y706399D01*
X7402942Y688940D01*
X7416303Y675579D01*
X7433762Y668347D01*
X7452658D01*
X7470116Y675579D01*
X7483478Y688940D01*
X7490710Y706399D01*
Y725295D01*
X7483478Y742753D01*
X7470116Y756115D01*
X7454111Y762745D01*
X7452635Y767720D01*
X7452579Y778347D01*
X7464079Y783110D01*
X7477441Y796472D01*
X7484673Y813930D01*
Y832827D01*
X7483719Y835129D01*
X7495038Y846449D01*
X7502270Y863907D01*
Y882803D01*
X7495038Y900262D01*
X7481676Y913624D01*
X7464218Y920855D01*
X7452382Y923964D01*
X7449277Y939571D01*
X7440436Y952802D01*
X7440436Y952802D01*
X7413082Y980157D01*
Y1023501D01*
X7428082Y1033523D01*
X7430552Y1032500D01*
X7449448D01*
X7466907Y1039732D01*
X7480269Y1053094D01*
X7487500Y1070552D01*
Y1089448D01*
X7480269Y1106907D01*
X7466907Y1120269D01*
X7449448Y1127500D01*
X7430552D01*
X7428082Y1126477D01*
X7413082Y1136500D01*
Y1163123D01*
X7419827Y1173218D01*
X7421712Y1182696D01*
X7425286Y1186270D01*
X7432517Y1203728D01*
Y1208191D01*
X7447517Y1218214D01*
X7449325Y1217465D01*
X7468222D01*
X7485680Y1224696D01*
X7494216Y1233233D01*
X7509216Y1227020D01*
Y1200001D01*
X7509216Y1200000D01*
X7509216Y1199999D01*
Y1050001D01*
X7509216Y1050000D01*
X7512321Y1034393D01*
X7521161Y1021162D01*
X7561161Y981162D01*
X7561162Y981162D01*
X7586914Y955410D01*
Y668185D01*
X7567403D01*
X7567401Y668185D01*
X7551794Y665081D01*
X7538563Y656240D01*
X7538563Y656239D01*
X7474440Y592117D01*
X7470905Y588855D01*
X7453832Y589902D01*
X7447584Y594696D01*
X7428732Y602505D01*
X7408500Y605169D01*
X7376000D01*
Y464500D01*
X7366000D01*
Y454500D01*
X7245331D01*
Y402000D01*
X7247995Y381768D01*
X7248268Y381109D01*
X7239168Y367491D01*
X7233420D01*
X7224320Y381109D01*
X7225134Y383073D01*
X7227625Y402000D01*
Y527000D01*
X7225134Y545927D01*
X7217828Y563563D01*
X7206208Y578708D01*
X7200266Y583267D01*
X7199346Y597301D01*
X7206578Y614758D01*
Y633655D01*
X7199346Y651113D01*
X7185984Y664475D01*
X7168526Y671707D01*
X7149630D01*
X7141108Y668177D01*
X7140496Y668112D01*
X7139034Y667318D01*
X7138164Y666957D01*
X7070720D01*
X6998103Y739574D01*
X6998064Y742731D01*
X7003319Y755571D01*
X7013527Y757601D01*
X7026758Y766442D01*
X7093119Y832804D01*
X7109937Y828408D01*
X7114209Y818094D01*
X7127571Y804732D01*
X7145029Y797500D01*
X7163926D01*
X7181384Y804732D01*
X7194746Y818094D01*
X7201977Y835552D01*
Y854448D01*
X7194746Y871907D01*
X7181384Y885268D01*
X7171070Y889541D01*
X7166674Y906358D01*
X7218838Y958522D01*
X7218838Y958523D01*
X7227679Y971754D01*
X7230784Y987361D01*
X7230784Y987363D01*
Y1369999D01*
X7230784Y1370000D01*
X7227679Y1385608D01*
X7218838Y1398839D01*
X7218838Y1398839D01*
X7171842Y1445835D01*
X7176095Y1462795D01*
X7188405Y1471021D01*
X7199457Y1487560D01*
X7203337Y1507069D01*
Y1999889D01*
X7218337Y2007560D01*
X7230552Y2002500D01*
X7249448D01*
X7266906Y2009732D01*
X7280268Y2023093D01*
X7287500Y2040552D01*
Y2059448D01*
X7280268Y2076906D01*
X7266906Y2090268D01*
X7249448Y2097500D01*
X7230552D01*
X7218337Y2092440D01*
X7203337Y2100111D01*
Y2117643D01*
X7199457Y2137152D01*
X7188405Y2153691D01*
X7176048Y2166048D01*
X7159509Y2177099D01*
X7140000Y2180980D01*
X7120491Y2177099D01*
X7103952Y2166048D01*
X7092901Y2149509D01*
X7089021Y2130000D01*
X7092901Y2110491D01*
X7101378Y2097805D01*
Y1535897D01*
X7087520Y1530157D01*
X6762319Y1855358D01*
X6768059Y1869216D01*
X6859998D01*
X6860000Y1869216D01*
X6875607Y1872321D01*
X6888838Y1881162D01*
X6944024Y1936348D01*
X6956324Y1931253D01*
X6975220D01*
X6992679Y1938485D01*
X7006041Y1951847D01*
X7013272Y1969305D01*
Y1988202D01*
X7006041Y2005660D01*
X6992679Y2019022D01*
X6975220Y2026253D01*
X6956324D01*
X6943747Y2021043D01*
X6943558Y2021006D01*
X6943398Y2020899D01*
X6940109Y2019537D01*
X6928753D01*
X6913146Y2016432D01*
X6899915Y2007592D01*
X6899914Y2007591D01*
X6843106Y1950784D01*
X6716391D01*
X6618651Y2048524D01*
Y2360622D01*
X6618651Y2360623D01*
X6615546Y2376231D01*
X6606706Y2389462D01*
X6606705Y2389462D01*
X6506841Y2489326D01*
X6510361Y2507020D01*
X6516906Y2509732D01*
X6530268Y2523094D01*
X6537500Y2540552D01*
Y2559448D01*
X6530268Y2576906D01*
X6516906Y2590268D01*
X6499448Y2597500D01*
X6480552D01*
X6463093Y2590268D01*
X6449732Y2576907D01*
X6433434Y2576758D01*
X6430783Y2578246D01*
Y2741942D01*
X6444641Y2747682D01*
X6581161Y2611162D01*
X6581162Y2611162D01*
X6594393Y2602321D01*
X6610000Y2599217D01*
X6631951D01*
X6634971Y2594697D01*
Y2575801D01*
X6642202Y2558343D01*
X6655564Y2544981D01*
X6673022Y2537749D01*
X6691919D01*
X6709377Y2544981D01*
X6722657Y2558260D01*
X6722739Y2558342D01*
X6732521Y2568271D01*
X6741765Y2566533D01*
X6743832Y2552767D01*
X6743916Y2552127D01*
X6749458Y2538748D01*
X6758274Y2527259D01*
X6769763Y2518443D01*
X6783142Y2512901D01*
X6797500Y2511010D01*
X6814526D01*
Y2342978D01*
X6710774Y2239226D01*
X6701958Y2227737D01*
X6696416Y2214358D01*
X6694526Y2200000D01*
X6696416Y2185642D01*
X6701958Y2172263D01*
X6710774Y2160774D01*
X6711034Y2160574D01*
X6713102Y2141429D01*
X6705871Y2123971D01*
Y2105075D01*
X6713102Y2087617D01*
X6726464Y2074255D01*
X6727398Y2069562D01*
X6719126Y2061290D01*
X6711894Y2043832D01*
Y2024935D01*
X6719126Y2007477D01*
X6732488Y1994115D01*
X6749946Y1986884D01*
X6768842D01*
X6786301Y1994115D01*
X6799663Y2007477D01*
X6806894Y2024935D01*
Y2043832D01*
X6799663Y2061290D01*
X6786301Y2074652D01*
X6785367Y2079345D01*
X6793639Y2087617D01*
X6800871Y2105075D01*
Y2123971D01*
X6793639Y2141430D01*
X6789275Y2145794D01*
X6792367Y2163915D01*
X6909226Y2280773D01*
X6918042Y2292263D01*
X6923584Y2305642D01*
X6925474Y2320000D01*
Y2537110D01*
X6940474Y2540094D01*
X6941391Y2537881D01*
X6954753Y2524519D01*
X6972211Y2517288D01*
X6991108D01*
X7008566Y2524519D01*
X7021928Y2537881D01*
X7029159Y2555339D01*
Y2574236D01*
X7021928Y2591694D01*
X7008566Y2605056D01*
X6995600Y2610426D01*
X6990106Y2626145D01*
X7028486Y2664526D01*
X7114042D01*
X7128400Y2666416D01*
X7141779Y2671958D01*
X7153268Y2680774D01*
X7178642Y2706147D01*
X7195944Y2702236D01*
X7199732Y2693093D01*
X7213094Y2679731D01*
X7230552Y2672500D01*
X7249448D01*
X7266906Y2679731D01*
X7280268Y2693093D01*
X7287500Y2710552D01*
Y2729448D01*
X7280268Y2746906D01*
X7266906Y2760268D01*
X7257763Y2764055D01*
X7253853Y2781358D01*
X7501831Y3029336D01*
X7510647Y3040825D01*
X7516189Y3054205D01*
X7518079Y3068563D01*
Y4425573D01*
X7533079Y4435595D01*
X7540552Y4432500D01*
X7559448D01*
X7576906Y4439732D01*
X7590268Y4453093D01*
X7597500Y4470552D01*
Y4489448D01*
X7590268Y4506906D01*
X7576906Y4520268D01*
X7568011Y4523953D01*
X7566907Y4539732D01*
X7580268Y4553094D01*
X7587500Y4570552D01*
Y4589448D01*
X7580268Y4606906D01*
X7566906Y4620268D01*
X7549448Y4627500D01*
X7530552D01*
X7530551Y4627500D01*
X7518079Y4635833D01*
Y4647395D01*
X7516189Y4661753D01*
X7513894Y4667295D01*
X7510647Y4675132D01*
X7501831Y4686621D01*
X7449228Y4739224D01*
X7449226Y4739226D01*
X7437737Y4748042D01*
X7424358Y4753584D01*
X7410000Y4755474D01*
X7395642Y4753584D01*
X7382263Y4748042D01*
X7370774Y4739226D01*
X7290038Y4658491D01*
X6913016D01*
X6898658Y4656600D01*
X6889879Y4652964D01*
X6889399Y4654122D01*
X6876037Y4667484D01*
X6858579Y4674715D01*
X6839683D01*
X6822224Y4667484D01*
X6808862Y4654122D01*
X6801631Y4636664D01*
Y4617767D01*
X6806841Y4605190D01*
X6806878Y4605001D01*
X6806985Y4604841D01*
X6808347Y4601553D01*
Y4599843D01*
X6613532Y4405028D01*
X6610244Y4403666D01*
X6610055Y4403629D01*
X6609895Y4403522D01*
X6597318Y4398312D01*
X6583956Y4384950D01*
X6576725Y4367492D01*
Y4348596D01*
X6583956Y4331137D01*
X6597318Y4317775D01*
X6614776Y4310544D01*
X6633673D01*
X6649454Y4317081D01*
X6652385Y4310004D01*
X6665747Y4296642D01*
X6683205Y4289411D01*
X6702101D01*
X6719560Y4296642D01*
X6732922Y4310004D01*
X6740153Y4327463D01*
Y4346359D01*
X6732922Y4363817D01*
X6719560Y4377179D01*
X6718934Y4377438D01*
X6716008Y4392150D01*
X6877968Y4554111D01*
X6877969Y4554111D01*
X6884910Y4555257D01*
X6885279Y4554974D01*
X6898658Y4549432D01*
X6913016Y4547542D01*
X7023098D01*
X7026082Y4532542D01*
X7020594Y4530269D01*
X7007232Y4516907D01*
X7000000Y4499448D01*
Y4480552D01*
X7007232Y4463094D01*
X7019700Y4450626D01*
X7020049Y4444168D01*
X7019068Y4434128D01*
X7008863Y4429901D01*
X6995501Y4416539D01*
X6988270Y4399081D01*
Y4380184D01*
X6995501Y4362726D01*
X7008863Y4349364D01*
X7026321Y4342133D01*
X7045218D01*
X7062676Y4349364D01*
X7076038Y4362726D01*
X7083269Y4380184D01*
Y4399081D01*
X7076038Y4416539D01*
X7063570Y4429007D01*
X7063220Y4435465D01*
X7064202Y4445505D01*
X7074406Y4449732D01*
X7087768Y4463094D01*
X7095000Y4480552D01*
Y4499448D01*
X7087768Y4516907D01*
X7074406Y4530269D01*
X7068918Y4532542D01*
X7071902Y4547542D01*
X7313016D01*
X7327374Y4549432D01*
X7340753Y4554974D01*
X7352242Y4563790D01*
X7393272Y4604820D01*
X7407130Y4599080D01*
Y4114319D01*
X7392130Y4104296D01*
X7387587Y4106178D01*
X7368690D01*
X7351232Y4098946D01*
X7337870Y4085584D01*
X7330639Y4068126D01*
Y4049230D01*
X7337870Y4031771D01*
X7351232Y4018410D01*
X7368690Y4011178D01*
X7387587D01*
X7392130Y4013060D01*
X7407130Y4003037D01*
Y3969857D01*
X7392131Y3966873D01*
X7388013Y3976814D01*
X7374651Y3990176D01*
X7357193Y3997407D01*
X7338296D01*
X7320838Y3990176D01*
X7307476Y3976814D01*
X7300245Y3959356D01*
Y3940459D01*
X7307476Y3923001D01*
X7320838Y3909639D01*
X7326313Y3907371D01*
Y3891135D01*
X7318202Y3887776D01*
X7304840Y3874414D01*
X7297609Y3856955D01*
Y3838059D01*
X7304840Y3820601D01*
X7318202Y3807239D01*
X7335660Y3800007D01*
X7354557D01*
X7372015Y3807239D01*
X7385377Y3820601D01*
X7392609Y3838059D01*
X7407130Y3836905D01*
Y3735714D01*
X7398192Y3729742D01*
X7379295D01*
X7361837Y3722510D01*
X7350815Y3711488D01*
X7153004Y3909300D01*
X7138946Y3918693D01*
X7122363Y3921992D01*
X6987724D01*
X6977701Y3936992D01*
X6979170Y3940539D01*
Y3959435D01*
X6971939Y3976893D01*
X6958577Y3990255D01*
X6941119Y3997487D01*
X6939720D01*
X6937681Y3999300D01*
X6930934Y4012487D01*
X6935989Y4024692D01*
Y4029564D01*
X6937957Y4031179D01*
X6938426D01*
X6957935Y4035060D01*
X6974474Y4046111D01*
X6985525Y4062650D01*
X6989406Y4082159D01*
X6985525Y4101668D01*
X6974474Y4118207D01*
X6973060Y4119152D01*
X6966907Y4125305D01*
X6950368Y4136356D01*
X6930859Y4140236D01*
X6835810D01*
Y4156948D01*
X6828578Y4174406D01*
X6815216Y4187768D01*
X6797758Y4195000D01*
X6778862D01*
X6761404Y4187768D01*
X6748042Y4174406D01*
X6740810Y4156948D01*
Y4140236D01*
X6437223D01*
X6435234Y4141566D01*
X6415725Y4145446D01*
X6396216Y4141566D01*
X6379677Y4130514D01*
X6368626Y4113976D01*
X6364745Y4094467D01*
X6368626Y4074958D01*
X6379677Y4058419D01*
X6384886Y4053209D01*
X6401425Y4042158D01*
X6420934Y4038277D01*
X6727549D01*
X6733290Y4024419D01*
X6570380Y3861510D01*
X6441514D01*
X6436652Y3868786D01*
Y3887682D01*
X6430351Y3902895D01*
X6436932Y3918784D01*
Y3937681D01*
X6430911Y3952218D01*
X6431069Y3952376D01*
X6438300Y3969834D01*
Y3988731D01*
X6431069Y4006189D01*
X6417707Y4019551D01*
X6400249Y4026782D01*
X6381352D01*
X6363894Y4019551D01*
X6350532Y4006189D01*
X6343301Y3988731D01*
Y3969834D01*
X6349322Y3955297D01*
X6349164Y3955139D01*
X6341932Y3937681D01*
Y3918784D01*
X6348234Y3903571D01*
X6341653Y3887682D01*
Y3868785D01*
X6348884Y3851327D01*
X6352481Y3847730D01*
X6352383Y3847633D01*
X6345151Y3830174D01*
Y3811278D01*
X6352383Y3793820D01*
X6365745Y3780458D01*
X6383203Y3773226D01*
X6402099D01*
X6414677Y3778436D01*
X6414865Y3778474D01*
X6415025Y3778580D01*
X6418314Y3779943D01*
X6587272D01*
X6587273Y3779942D01*
X6602881Y3783047D01*
X6616112Y3791888D01*
X6764897Y3940673D01*
X6775623Y3933769D01*
X6775735Y3918657D01*
X6762645Y3905566D01*
X6755413Y3888108D01*
Y3869211D01*
X6762645Y3851753D01*
X6776007Y3838391D01*
X6793465Y3831159D01*
X6804767D01*
X6815231Y3817456D01*
X6815263Y3817301D01*
X6814031Y3814327D01*
Y3795431D01*
X6821263Y3777973D01*
X6834625Y3764611D01*
X6852083Y3757379D01*
X6865157D01*
X6866422Y3755485D01*
Y3736589D01*
X6873654Y3719131D01*
X6880309Y3712475D01*
X6879538Y3696242D01*
X6878397Y3694788D01*
X6866161Y3682552D01*
X6865092Y3679971D01*
X6848052D01*
X6830593Y3672740D01*
X6817231Y3659378D01*
X6810000Y3641920D01*
Y3623023D01*
X6817231Y3605565D01*
X6830593Y3592203D01*
X6848052Y3584972D01*
X6866948D01*
X6884406Y3592203D01*
X6897768Y3605565D01*
X6898837Y3608146D01*
X6915878D01*
X6933336Y3615377D01*
X6946698Y3628739D01*
X6953929Y3646197D01*
Y3665094D01*
X6946698Y3682552D01*
X6940043Y3689207D01*
X6940813Y3705441D01*
X6941954Y3706894D01*
X6954191Y3719131D01*
X6961422Y3736589D01*
Y3755486D01*
X6954191Y3772944D01*
X6940829Y3786306D01*
X6923370Y3793537D01*
X6910297D01*
X6909031Y3795431D01*
Y3814327D01*
X6906546Y3820327D01*
X6916569Y3835327D01*
X7104415D01*
X7317991Y3621750D01*
X7322158Y3611689D01*
X7335520Y3598327D01*
X7352978Y3591096D01*
X7371875D01*
X7389333Y3598327D01*
X7392131Y3601125D01*
X7407130Y3594911D01*
Y3410374D01*
X7392131Y3407391D01*
X7389119Y3414661D01*
X7378500Y3428500D01*
X7364661Y3439119D01*
X7348545Y3445795D01*
X7331250Y3448072D01*
X7310000D01*
Y3330000D01*
Y3211928D01*
X7331250D01*
X7348545Y3214205D01*
X7364661Y3220881D01*
X7378500Y3231500D01*
X7389119Y3245339D01*
X7392131Y3252609D01*
X7407130Y3249625D01*
Y3091541D01*
X7091064Y2775474D01*
X7005508D01*
X6991150Y2773584D01*
X6977771Y2768042D01*
X6966281Y2759226D01*
X6929332Y2722277D01*
X6915474Y2728017D01*
Y2740000D01*
X6913584Y2754358D01*
X6908042Y2767737D01*
X6899226Y2779227D01*
X6789226Y2889226D01*
X6777737Y2898042D01*
X6764358Y2903584D01*
X6750000Y2905475D01*
X6735642Y2903584D01*
X6722263Y2898042D01*
X6710774Y2889226D01*
X6701958Y2877737D01*
X6696416Y2864358D01*
X6694526Y2850000D01*
X6696416Y2835642D01*
X6701958Y2822263D01*
X6710774Y2810774D01*
X6804526Y2717022D01*
Y2621959D01*
X6797500D01*
X6783142Y2620069D01*
X6769763Y2614527D01*
X6758274Y2605711D01*
X6749458Y2594222D01*
X6744127Y2581353D01*
X6743916Y2580843D01*
X6735772Y2582923D01*
X6735772Y2582923D01*
X6735767Y2582925D01*
X6729478Y2595887D01*
X6722739Y2612156D01*
X6713646Y2621249D01*
X6717500Y2630552D01*
Y2649448D01*
X6710269Y2666907D01*
X6700480Y2676695D01*
X6710940Y2687155D01*
X6718172Y2704613D01*
Y2723510D01*
X6710940Y2740968D01*
X6697578Y2754330D01*
X6680120Y2761561D01*
X6661224D01*
X6643765Y2754330D01*
X6630404Y2740968D01*
X6623172Y2723510D01*
Y2705718D01*
X6620212Y2703163D01*
X6609675Y2698002D01*
X6480784Y2826893D01*
Y3009999D01*
X6480784Y3010000D01*
X6477679Y3025607D01*
X6468838Y3038838D01*
X6468838Y3038839D01*
X6314411Y3193266D01*
Y3522753D01*
X6315714Y3523207D01*
X6316644Y3522960D01*
X6329572Y3512151D01*
Y3500628D01*
X6336803Y3483170D01*
X6338232Y3481742D01*
X6332413Y3467692D01*
Y3448795D01*
X6339644Y3431337D01*
X6353006Y3417975D01*
X6370464Y3410744D01*
X6379907Y3395744D01*
X6377615Y3390211D01*
Y3371314D01*
X6384847Y3353856D01*
X6398208Y3340494D01*
X6415667Y3333263D01*
X6434563D01*
X6452021Y3340494D01*
X6465383Y3353856D01*
X6472615Y3371314D01*
Y3390211D01*
X6465383Y3407669D01*
X6452021Y3421031D01*
X6434563Y3428262D01*
X6425120Y3443263D01*
X6427412Y3448795D01*
Y3467692D01*
X6420181Y3485150D01*
X6418752Y3486578D01*
X6424572Y3500628D01*
Y3519525D01*
X6422308Y3524990D01*
X6417275Y3539142D01*
X6430637Y3552503D01*
X6437868Y3569962D01*
Y3588858D01*
X6430637Y3606316D01*
X6417275Y3619678D01*
X6399817Y3626910D01*
X6380920D01*
X6363462Y3619678D01*
X6357735Y3613951D01*
X6345526Y3626160D01*
X6328068Y3633392D01*
X6314411D01*
Y4223984D01*
X6605954Y4515527D01*
X6614794Y4528758D01*
X6617899Y4544365D01*
X6617899Y4544367D01*
Y4829590D01*
X6632500Y4830551D01*
X6639732Y4813093D01*
X6653094Y4799732D01*
X6670552Y4792500D01*
X6689448D01*
X6706907Y4799732D01*
X6720269Y4813093D01*
X6727500Y4830552D01*
Y4849448D01*
X6720269Y4866906D01*
X6706907Y4880268D01*
X6704253Y4890171D01*
X6709828Y4897437D01*
X6717134Y4915073D01*
X6719625Y4934000D01*
Y5059000D01*
X6717134Y5077927D01*
X6709828Y5095563D01*
X6698208Y5110708D01*
X6683063Y5122329D01*
X6665426Y5129634D01*
X6646500Y5132126D01*
X6561500D01*
X6542574Y5129634D01*
X6541635Y5129245D01*
X6533138Y5141962D01*
X6543374Y5152197D01*
X6546048Y5154678D01*
X6548088Y5156320D01*
X6548467Y5156590D01*
X6561500Y5154874D01*
X6646500D01*
X6665426Y5157366D01*
X6683063Y5164671D01*
X6698208Y5176292D01*
X6709828Y5191437D01*
X6717134Y5209073D01*
X6719625Y5228000D01*
Y5353000D01*
X6717134Y5371927D01*
X6709828Y5389563D01*
X6700243Y5402056D01*
X6702972Y5411590D01*
X6706756Y5417056D01*
X6755244D01*
X6759028Y5411590D01*
X6761757Y5402056D01*
X6752172Y5389563D01*
X6744866Y5371927D01*
X6742375Y5353000D01*
Y5228000D01*
X6744866Y5209073D01*
X6752172Y5191437D01*
X6763792Y5176292D01*
X6778937Y5164671D01*
X6796574Y5157366D01*
X6815500Y5154874D01*
X6900500D01*
X6919426Y5157366D01*
X6937063Y5164671D01*
X6952208Y5176292D01*
X6963828Y5191437D01*
X6971134Y5209073D01*
X6973625Y5228000D01*
Y5353000D01*
X6971134Y5371927D01*
X6963828Y5389563D01*
X6954243Y5402056D01*
X6956972Y5411590D01*
X6960756Y5417056D01*
X7009244D01*
X7013028Y5411590D01*
X7015757Y5402056D01*
X7006172Y5389563D01*
X6998866Y5371927D01*
X6996375Y5353000D01*
Y5228000D01*
X6998866Y5209073D01*
X7006172Y5191437D01*
X7017792Y5176292D01*
X7032937Y5164671D01*
X7050574Y5157366D01*
X7069500Y5154874D01*
X7154500D01*
X7173426Y5157366D01*
X7191063Y5164671D01*
X7206208Y5176292D01*
X7217828Y5191437D01*
X7225134Y5209073D01*
X7227625Y5228000D01*
Y5353000D01*
X7225134Y5371927D01*
X7217828Y5389563D01*
X7208243Y5402056D01*
X7210972Y5411590D01*
X7214756Y5417056D01*
X7263244D01*
X7267028Y5411590D01*
X7269757Y5402056D01*
X7260172Y5389563D01*
X7252866Y5371927D01*
X7250375Y5353000D01*
Y5228000D01*
X7252866Y5209073D01*
X7260172Y5191437D01*
X7271792Y5176292D01*
X7286937Y5164671D01*
X7304574Y5157366D01*
X7323500Y5154874D01*
X7408500D01*
X7427426Y5157366D01*
X7445063Y5164671D01*
X7460208Y5176292D01*
X7471828Y5191437D01*
X7479134Y5209073D01*
X7481625Y5228000D01*
Y5353000D01*
X7479134Y5371927D01*
X7471828Y5389563D01*
X7462243Y5402056D01*
X7464972Y5411590D01*
X7468756Y5417056D01*
X7517244D01*
X7521028Y5411590D01*
X7523757Y5402056D01*
X7514172Y5389563D01*
X7506866Y5371927D01*
X7504375Y5353000D01*
Y5228000D01*
X7506866Y5209073D01*
X7514172Y5191437D01*
X7525792Y5176292D01*
X7540937Y5164671D01*
X7558574Y5157366D01*
X7577500Y5154874D01*
X7662500D01*
X7681426Y5157366D01*
X7699063Y5164671D01*
X7714208Y5176292D01*
X7725828Y5191437D01*
X7733134Y5209073D01*
X7735625Y5228000D01*
Y5353000D01*
X7733134Y5371927D01*
X7725828Y5389563D01*
X7716243Y5402056D01*
X7718972Y5411590D01*
X7722756Y5417056D01*
X8379531D01*
X8381325Y5417413D01*
X8412706Y5414943D01*
D02*
G37*
G36*
X6251028Y5411590D02*
X6253757Y5402056D01*
X6244172Y5389563D01*
X6236866Y5371927D01*
X6234375Y5353000D01*
Y5228000D01*
X6236866Y5209073D01*
X6244172Y5191437D01*
X6255792Y5176292D01*
X6270937Y5164671D01*
X6288574Y5157366D01*
X6307500Y5154874D01*
X6392500D01*
X6411426Y5157366D01*
X6427400Y5163983D01*
X6431362Y5162755D01*
X6440873Y5154826D01*
X6439216Y5146500D01*
X6439216Y5146499D01*
Y5131773D01*
X6424216Y5124336D01*
X6411426Y5129634D01*
X6392500Y5132126D01*
X6307500D01*
X6288574Y5129634D01*
X6270937Y5122329D01*
X6255792Y5110708D01*
X6244172Y5095563D01*
X6236866Y5077927D01*
X6234375Y5059000D01*
Y4934000D01*
X6236866Y4915073D01*
X6244172Y4897437D01*
X6255792Y4882292D01*
X6270937Y4870671D01*
X6288574Y4863366D01*
X6307500Y4860874D01*
X6392500D01*
X6411426Y4863366D01*
X6424216Y4868664D01*
X6439216Y4861227D01*
Y4645547D01*
X6424216Y4635525D01*
X6419448Y4637500D01*
X6400552D01*
X6397397Y4636193D01*
X6391269Y4650989D01*
X6377907Y4664351D01*
X6360449Y4671582D01*
X6341552D01*
X6324094Y4664351D01*
X6310732Y4650989D01*
X6303500Y4633531D01*
Y4614634D01*
X6307442Y4605119D01*
X6188269Y4485946D01*
X6174411Y4491686D01*
Y4521434D01*
X6171306Y4537041D01*
X6182177Y4547772D01*
X6186907Y4549732D01*
X6200269Y4563093D01*
X6207500Y4580552D01*
Y4599448D01*
X6200269Y4616906D01*
X6186907Y4630268D01*
X6169448Y4637500D01*
X6150552D01*
X6133094Y4630268D01*
X6119732Y4616906D01*
X6117898Y4612478D01*
X6103186Y4609552D01*
X6015496Y4697242D01*
X6002265Y4706083D01*
X5986658Y4709187D01*
X5986657Y4709187D01*
X5950863D01*
X5950862Y4709187D01*
X5935255Y4706083D01*
X5922024Y4697242D01*
X5898299Y4673517D01*
X5895010Y4672155D01*
X5894822Y4672117D01*
X5894662Y4672010D01*
X5882085Y4666801D01*
X5868723Y4653439D01*
X5861491Y4635981D01*
Y4617084D01*
X5868723Y4599626D01*
X5882085Y4586264D01*
X5899543Y4579032D01*
X5918439D01*
X5935897Y4586264D01*
X5938708Y4589074D01*
X5942147Y4585635D01*
X5954724Y4580425D01*
X5954884Y4580318D01*
X5955073Y4580281D01*
X5958362Y4578919D01*
X6057844Y4479437D01*
Y4185622D01*
X6054351Y4183289D01*
X6035455D01*
X6017997Y4176057D01*
X6004635Y4162696D01*
X5997404Y4145237D01*
Y4126341D01*
X6004635Y4108883D01*
X6017997Y4095521D01*
X6035455Y4088289D01*
X6054351D01*
X6057844Y4085956D01*
Y3103385D01*
X6057844Y3103384D01*
X6060948Y3087777D01*
X6069789Y3074546D01*
X6168507Y2975828D01*
Y2937983D01*
X6153506Y2928327D01*
X6147239Y2930923D01*
X6131250Y2933028D01*
X6120241D01*
X6119999Y2934861D01*
Y2937899D01*
X6115911Y2953159D01*
X6108011Y2966841D01*
X6096840Y2978012D01*
X6083159Y2985911D01*
X6067899Y2990000D01*
X6052100D01*
X6036841Y2985911D01*
X6023159Y2978012D01*
X6011988Y2966841D01*
X6004089Y2953159D01*
X6000000Y2937899D01*
Y2922101D01*
X6004089Y2906841D01*
X6010884Y2895071D01*
Y2891603D01*
X6009077Y2887239D01*
X6006971Y2871250D01*
Y2768750D01*
X6009077Y2752761D01*
X6015248Y2737861D01*
X6025066Y2725066D01*
X6037861Y2715248D01*
X6052761Y2709077D01*
X6068750Y2706971D01*
X6131250D01*
X6147239Y2709077D01*
X6153506Y2711673D01*
X6168507Y2702017D01*
Y2510001D01*
X6168506Y2510000D01*
X6171611Y2494393D01*
X6180452Y2481162D01*
X6332755Y2328858D01*
X6327693Y2312707D01*
X6315770Y2307769D01*
X6302408Y2294407D01*
X6295177Y2276948D01*
Y2258052D01*
X6296846Y2254021D01*
X6289049Y2246224D01*
X6283841Y2233649D01*
X6283733Y2233487D01*
X6283695Y2233297D01*
X6282333Y2230010D01*
X6261162Y2208838D01*
X6252321Y2195607D01*
X6249216Y2180000D01*
X6249217Y2179999D01*
Y2060000D01*
Y1845663D01*
X6247854Y1842374D01*
X6247747Y1842214D01*
X6247710Y1842025D01*
X6242500Y1829448D01*
Y1810552D01*
X6247710Y1797975D01*
X6247747Y1797786D01*
X6247854Y1797626D01*
X6249217Y1794337D01*
Y1624061D01*
X6249216Y1624059D01*
X6252321Y1608452D01*
X6252500Y1608183D01*
Y1600552D01*
X6259732Y1583094D01*
X6273094Y1569732D01*
X6290552Y1562500D01*
X6295677D01*
X6352864Y1505313D01*
X6346502Y1490462D01*
X6331441Y1484224D01*
X6318079Y1470862D01*
X6310848Y1453404D01*
Y1434507D01*
X6318079Y1417049D01*
X6331441Y1403687D01*
X6348899Y1396456D01*
X6367796D01*
X6385254Y1403687D01*
X6398616Y1417049D01*
X6404854Y1432110D01*
X6419705Y1438472D01*
X6469961Y1388217D01*
X6468581Y1370626D01*
X6462148Y1364193D01*
X6453307Y1350962D01*
X6450202Y1335355D01*
X6450203Y1335354D01*
Y1137482D01*
X6448841Y1134193D01*
X6448734Y1134033D01*
X6448696Y1133844D01*
X6443486Y1121267D01*
Y1102370D01*
X6448696Y1089793D01*
X6448734Y1089605D01*
X6448841Y1089445D01*
X6450203Y1086156D01*
Y919015D01*
X6450202Y919014D01*
X6453307Y903407D01*
X6462148Y890176D01*
X6503015Y849308D01*
X6504378Y846019D01*
X6504415Y845831D01*
X6504522Y845671D01*
X6507710Y837975D01*
X6507747Y837786D01*
X6507854Y837626D01*
X6509217Y834337D01*
Y708416D01*
X6459178Y658378D01*
X6455890Y657016D01*
X6455701Y656978D01*
X6455541Y656871D01*
X6442964Y651662D01*
X6429602Y638300D01*
X6422371Y620842D01*
Y609336D01*
X6416874Y603458D01*
X6409535Y598307D01*
X6408513Y598017D01*
X6392500Y600126D01*
X6307500D01*
X6288574Y597634D01*
X6270937Y590329D01*
X6255792Y578708D01*
X6244172Y563563D01*
X6236866Y545927D01*
X6234375Y527000D01*
Y402000D01*
X6236866Y383073D01*
X6237680Y381109D01*
X6228580Y367491D01*
X6222832D01*
X6213732Y381109D01*
X6214005Y381768D01*
X6216669Y402000D01*
Y454500D01*
X5975331D01*
Y402000D01*
X5977995Y381768D01*
X5978268Y381109D01*
X5969168Y367491D01*
X5963420D01*
X5954320Y381109D01*
X5955134Y383073D01*
X5957625Y402000D01*
Y527000D01*
X5955134Y545927D01*
X5947828Y563563D01*
X5936208Y578708D01*
X5921063Y590329D01*
X5903426Y597634D01*
X5884500Y600126D01*
X5799500D01*
X5780574Y597634D01*
X5762937Y590329D01*
X5747792Y578708D01*
X5736172Y563563D01*
X5728866Y545927D01*
X5726375Y527000D01*
Y402000D01*
X5728866Y383073D01*
X5731886Y375784D01*
X5722174Y361249D01*
X5707826D01*
X5698114Y375784D01*
X5701134Y383073D01*
X5703625Y402000D01*
Y527000D01*
X5701134Y545927D01*
X5693828Y563563D01*
X5682208Y578708D01*
X5667063Y590329D01*
X5649426Y597634D01*
X5630500Y600126D01*
X5545500D01*
X5526574Y597634D01*
X5515784Y593164D01*
X5500784Y601773D01*
Y724303D01*
X5513052Y732500D01*
X5531948D01*
X5549406Y739732D01*
X5562768Y753093D01*
X5570000Y770552D01*
Y789448D01*
X5562768Y806906D01*
X5549406Y820268D01*
X5531948Y827500D01*
X5515411D01*
X5512364Y828021D01*
X5499193Y837996D01*
X5497679Y845607D01*
X5488838Y858839D01*
X5456985Y890692D01*
X5455623Y893981D01*
X5455585Y894169D01*
X5455478Y894329D01*
X5452290Y902025D01*
X5452253Y902214D01*
X5452146Y902374D01*
X5450784Y905663D01*
Y997327D01*
X5503831Y1050375D01*
X5507120Y1051737D01*
X5507309Y1051775D01*
X5507469Y1051882D01*
X5520046Y1057091D01*
X5533408Y1070453D01*
X5538882Y1083669D01*
X5554480Y1085164D01*
X5554500Y1085160D01*
X5555487Y1082777D01*
X5564303Y1071288D01*
X5575792Y1062472D01*
X5589171Y1056931D01*
X5603529Y1055040D01*
X5617887Y1056931D01*
X5631266Y1062472D01*
X5637348Y1067139D01*
X5652348Y1060186D01*
Y946870D01*
X5652347Y946869D01*
X5655452Y931262D01*
X5664293Y918031D01*
X5780291Y802033D01*
X5780291Y802032D01*
X5793523Y793191D01*
X5809130Y790087D01*
X5821673D01*
X5824961Y788725D01*
X5825121Y788618D01*
X5825310Y788580D01*
X5837887Y783371D01*
X5856784D01*
X5868257Y788123D01*
X5868289Y788045D01*
X5881651Y774683D01*
X5899109Y767452D01*
X5918005D01*
X5935464Y774683D01*
X5948826Y788045D01*
X5956057Y805503D01*
Y824400D01*
X5948826Y841858D01*
X5946471Y844213D01*
Y844313D01*
X5943366Y859920D01*
X5934526Y873151D01*
X5934525Y873152D01*
X5898838Y908838D01*
X5897243Y909904D01*
X5901426Y916164D01*
X5905306Y935673D01*
X5901426Y955182D01*
X5890375Y971721D01*
X5857149Y1004947D01*
Y1196251D01*
X5864099Y1199551D01*
X5872149Y1200849D01*
X5883800Y1189198D01*
X5901258Y1181967D01*
X5920154D01*
X5937612Y1189198D01*
X5950974Y1202560D01*
X5953885Y1209587D01*
X5954136Y1209872D01*
X5954754Y1211678D01*
X5954945Y1211970D01*
X5989083Y1246108D01*
X5989084Y1246109D01*
X5997925Y1259340D01*
X6001029Y1274947D01*
X6001029Y1274948D01*
Y1743409D01*
X6012194D01*
X6029652Y1750641D01*
X6043014Y1764003D01*
X6050245Y1781461D01*
Y1800357D01*
X6043014Y1817816D01*
X6029652Y1831177D01*
X6012194Y1838409D01*
X6001029D01*
Y2162501D01*
X6012194D01*
X6029652Y2169732D01*
X6043014Y2183094D01*
X6050245Y2200552D01*
Y2219449D01*
X6043014Y2236907D01*
X6029652Y2250269D01*
X6012194Y2257500D01*
X6001029D01*
Y2449754D01*
X5997925Y2465362D01*
X5989084Y2478593D01*
X5989083Y2478593D01*
X5773876Y2693800D01*
X5780883Y2708007D01*
X5788750Y2706971D01*
X5851250D01*
X5867239Y2709077D01*
X5882139Y2715248D01*
X5894934Y2725066D01*
X5904752Y2737861D01*
X5910923Y2752761D01*
X5913029Y2768750D01*
Y2871250D01*
X5910923Y2887239D01*
X5904752Y2902139D01*
X5894934Y2914934D01*
X5882139Y2924752D01*
X5867239Y2930923D01*
X5851250Y2933028D01*
X5846831D01*
X5845733Y2937126D01*
X5837834Y2950808D01*
X5826662Y2961979D01*
X5812981Y2969878D01*
X5797721Y2973967D01*
X5781923D01*
X5775784Y2972322D01*
X5760783Y2982835D01*
Y3020828D01*
X5775783Y3027042D01*
X5783094Y3019732D01*
X5800552Y3012500D01*
X5819448D01*
X5836907Y3019732D01*
X5850268Y3033094D01*
X5857500Y3050552D01*
Y3069448D01*
X5850268Y3086906D01*
X5836907Y3100268D01*
X5819448Y3107500D01*
X5800552D01*
X5783094Y3100268D01*
X5775783Y3092958D01*
X5760783Y3099172D01*
Y3546609D01*
X5762644Y3549393D01*
X5765748Y3565000D01*
Y4435036D01*
X5762644Y4450643D01*
X5769875Y4466819D01*
X5776906Y4469732D01*
X5790268Y4483094D01*
X5797500Y4500552D01*
Y4519448D01*
X5790268Y4536907D01*
X5776906Y4550269D01*
X5759448Y4557500D01*
X5740552D01*
X5723093Y4550269D01*
X5709732Y4536907D01*
X5707462Y4531428D01*
X5689768Y4527908D01*
X5597390Y4620287D01*
X5597500Y4620552D01*
Y4639448D01*
X5590268Y4656906D01*
X5576907Y4670268D01*
X5559448Y4677500D01*
X5540552D01*
X5527288Y4672006D01*
X5526769Y4672524D01*
X5509311Y4679756D01*
X5490414D01*
X5472956Y4672524D01*
X5459594Y4659162D01*
X5452363Y4641704D01*
Y4622808D01*
X5459594Y4605349D01*
X5462668Y4602276D01*
X5464712Y4592002D01*
X5473552Y4578771D01*
X5608016Y4444308D01*
X5606700Y4428699D01*
X5605130Y4425980D01*
X5600063Y4422093D01*
X5570774Y4392802D01*
X5561958Y4381314D01*
X5556416Y4367934D01*
X5554526Y4353576D01*
Y3743415D01*
X5552635Y3742152D01*
X5533738D01*
X5516280Y3734921D01*
X5502918Y3721559D01*
X5495687Y3704101D01*
Y3685204D01*
X5502918Y3667746D01*
X5514541Y3656123D01*
X5515495Y3639709D01*
X5455846Y3580059D01*
X5447030Y3568570D01*
X5441488Y3555191D01*
X5439598Y3540833D01*
X5441488Y3526475D01*
X5447030Y3513096D01*
X5455846Y3501607D01*
X5467335Y3492791D01*
X5480714Y3487249D01*
X5495072Y3485359D01*
X5509430Y3487249D01*
X5522809Y3492791D01*
X5534298Y3501607D01*
X5615359Y3582667D01*
X5629217Y3576927D01*
Y2680001D01*
X5629216Y2680000D01*
X5632321Y2664393D01*
X5641162Y2651162D01*
X5883565Y2408758D01*
Y2258392D01*
X5868565Y2255409D01*
X5865529Y2262740D01*
X5852167Y2276102D01*
X5834709Y2283333D01*
X5815812D01*
X5798354Y2276102D01*
X5784992Y2262740D01*
X5777761Y2245282D01*
Y2226385D01*
X5784992Y2208927D01*
X5798354Y2195565D01*
X5815812Y2188333D01*
X5834709D01*
X5852167Y2195565D01*
X5865529Y2208927D01*
X5868565Y2216257D01*
X5883565Y2213274D01*
Y1901708D01*
X5882546Y1901062D01*
X5868565Y1897109D01*
X5858202Y1907472D01*
X5840744Y1914704D01*
X5821848D01*
X5804389Y1907472D01*
X5791028Y1894110D01*
X5783796Y1876652D01*
Y1857755D01*
X5791028Y1840297D01*
X5804389Y1826935D01*
X5821848Y1819704D01*
X5840744D01*
X5858202Y1826935D01*
X5868565Y1837298D01*
X5882546Y1833345D01*
X5883565Y1832700D01*
Y1382715D01*
X5879432Y1379177D01*
X5868565Y1375868D01*
X5842217Y1402217D01*
X5602807Y1641627D01*
X5607636Y1658011D01*
X5618996Y1662716D01*
X5632358Y1676078D01*
X5639589Y1693536D01*
Y1712433D01*
X5632358Y1729891D01*
X5630525Y1731724D01*
X5639990Y1741189D01*
X5647222Y1758647D01*
Y1777544D01*
X5639990Y1795002D01*
X5626629Y1808364D01*
X5609170Y1815595D01*
X5590274D01*
X5572816Y1808364D01*
X5559454Y1795002D01*
X5552222Y1777544D01*
Y1758647D01*
X5559454Y1741189D01*
X5561286Y1739356D01*
X5551821Y1729891D01*
X5547116Y1718531D01*
X5530731Y1713702D01*
X5456557Y1787877D01*
Y2210489D01*
X5454667Y2224847D01*
X5449125Y2238226D01*
X5442447Y2246928D01*
X5445352Y2256775D01*
X5449033Y2261928D01*
X5450000D01*
Y2380000D01*
Y2498072D01*
X5428750D01*
X5411455Y2495795D01*
X5404782Y2493031D01*
X5389782Y2503053D01*
Y3906502D01*
X5400947D01*
X5418405Y3913734D01*
X5431767Y3927096D01*
X5438999Y3944554D01*
Y3963451D01*
X5431767Y3980909D01*
X5418405Y3994271D01*
X5400947Y4001502D01*
X5389782D01*
Y4415958D01*
X5389782Y4415959D01*
X5386678Y4431566D01*
X5377837Y4444798D01*
X5377836Y4444798D01*
X5256924Y4565711D01*
X5255562Y4568999D01*
X5255524Y4569188D01*
X5255417Y4569348D01*
X5250208Y4581925D01*
X5236846Y4595287D01*
X5219388Y4602518D01*
X5200491D01*
X5183033Y4595287D01*
X5173023Y4585277D01*
X5168314Y4589986D01*
X5150856Y4597217D01*
X5131959D01*
X5114501Y4589986D01*
X5101139Y4576624D01*
X5093908Y4559166D01*
Y4540269D01*
X5101139Y4522811D01*
X5114501Y4509449D01*
X5127078Y4504240D01*
X5127238Y4504133D01*
X5127427Y4504095D01*
X5130715Y4502733D01*
X5271284Y4362165D01*
Y2528392D01*
X5256283Y2519178D01*
X5246126Y2520515D01*
X5231768Y2518625D01*
X5218389Y2513083D01*
X5206899Y2504267D01*
X5195661Y2493029D01*
X5148750D01*
X5132761Y2490923D01*
X5117861Y2484752D01*
X5105066Y2474934D01*
X5095248Y2462139D01*
X5089077Y2447239D01*
X5086972Y2431250D01*
Y2328750D01*
X5089077Y2312761D01*
X5095248Y2297861D01*
X5105066Y2285066D01*
X5117861Y2275248D01*
X5132761Y2269077D01*
X5148750Y2266972D01*
X5204526D01*
Y1743863D01*
X5189526Y1737649D01*
X5186907Y1740268D01*
X5169448Y1747500D01*
X5150552D01*
X5133094Y1740268D01*
X5119732Y1726906D01*
X5112500Y1709448D01*
Y1690552D01*
X5119732Y1673093D01*
X5133094Y1659732D01*
X5150552Y1652500D01*
X5169448D01*
X5186907Y1659732D01*
X5189526Y1662350D01*
X5204526Y1656137D01*
Y1516838D01*
X5206416Y1502480D01*
X5211958Y1489101D01*
X5220774Y1477611D01*
X5238919Y1459466D01*
X5232741Y1444431D01*
X5218123Y1438376D01*
X5204761Y1425014D01*
X5197530Y1407556D01*
Y1388659D01*
X5204761Y1371201D01*
X5218123Y1357839D01*
X5235582Y1350608D01*
X5254478D01*
X5271936Y1357839D01*
X5285298Y1371201D01*
X5291353Y1385819D01*
X5306388Y1391997D01*
X5510953Y1187432D01*
X5509402Y1179636D01*
X5496041Y1166274D01*
X5488809Y1148816D01*
Y1144860D01*
X5483691D01*
X5466233Y1137628D01*
X5452871Y1124266D01*
X5447661Y1111689D01*
X5447555Y1111529D01*
X5447517Y1111340D01*
X5446155Y1108052D01*
X5381162Y1043059D01*
X5372487Y1030076D01*
X5372320Y1029827D01*
X5368834Y1026958D01*
X5366858Y1025834D01*
X5355597Y1022639D01*
X5343455Y1027668D01*
X5324558D01*
X5307100Y1020437D01*
X5293738Y1007075D01*
X5286507Y989617D01*
Y970720D01*
X5293738Y953262D01*
X5307100Y939900D01*
X5324558Y932669D01*
X5343455D01*
X5354216Y937126D01*
X5369217Y928605D01*
Y905663D01*
X5367854Y902374D01*
X5367747Y902214D01*
X5367710Y902025D01*
X5362500Y889448D01*
Y870552D01*
X5369732Y853094D01*
X5383094Y839732D01*
X5388239Y837600D01*
Y821364D01*
X5385593Y820268D01*
X5372232Y806906D01*
X5365000Y789448D01*
Y781850D01*
X5350000Y778866D01*
X5347802Y784173D01*
X5334440Y797535D01*
X5316982Y804766D01*
X5298085D01*
X5280627Y797535D01*
X5267265Y784173D01*
X5260034Y766714D01*
Y747818D01*
X5267265Y730360D01*
X5280627Y716998D01*
X5298085Y709766D01*
X5316982D01*
X5334440Y716998D01*
X5347802Y730360D01*
X5355033Y747818D01*
Y755416D01*
X5370033Y758400D01*
X5372232Y753093D01*
X5385593Y739732D01*
X5403052Y732500D01*
X5419216D01*
Y603773D01*
X5404216Y593993D01*
X5395426Y597634D01*
X5376500Y600126D01*
X5328589D01*
X5320256Y612597D01*
X5321429Y615430D01*
Y634327D01*
X5314198Y651785D01*
X5300836Y665147D01*
X5283378Y672378D01*
X5264481D01*
X5247023Y665147D01*
X5233661Y651785D01*
X5226430Y634327D01*
Y615430D01*
X5233661Y597972D01*
X5236525Y595108D01*
X5239792Y578708D01*
X5236985Y575049D01*
X5228172Y563563D01*
X5220866Y545927D01*
X5218375Y527000D01*
Y402000D01*
X5220866Y383073D01*
X5223886Y375784D01*
X5214174Y361249D01*
X5199826D01*
X5190114Y375784D01*
X5193134Y383073D01*
X5195625Y402000D01*
Y527000D01*
X5193134Y545927D01*
X5185828Y563563D01*
X5174208Y578708D01*
X5159063Y590329D01*
X5141426Y597634D01*
X5122500Y600126D01*
X5037500D01*
X5018574Y597634D01*
X5000937Y590329D01*
X4985792Y578708D01*
X4974172Y563563D01*
X4966866Y545927D01*
X4964375Y527000D01*
Y402000D01*
X4966866Y383073D01*
X4969886Y375784D01*
X4960174Y361249D01*
X4945826D01*
X4936114Y375784D01*
X4939134Y383073D01*
X4941625Y402000D01*
Y527000D01*
X4939134Y545927D01*
X4931828Y563563D01*
X4920208Y578708D01*
X4905063Y590329D01*
X4887426Y597634D01*
X4868500Y600126D01*
X4783500D01*
X4764574Y597634D01*
X4746937Y590329D01*
X4731792Y578708D01*
X4720172Y563563D01*
X4712866Y545927D01*
X4710375Y527000D01*
Y402000D01*
X4712866Y383073D01*
X4715886Y375784D01*
X4706174Y361249D01*
X4691826D01*
X4682114Y375784D01*
X4685134Y383073D01*
X4687625Y402000D01*
Y527000D01*
X4685134Y545927D01*
X4677828Y563563D01*
X4666208Y578708D01*
X4651063Y590329D01*
X4633426Y597634D01*
X4614500Y600126D01*
X4529500D01*
X4510574Y597634D01*
X4492937Y590329D01*
X4477792Y578708D01*
X4466172Y563563D01*
X4458866Y545927D01*
X4456375Y527000D01*
Y402000D01*
X4458866Y383073D01*
X4461886Y375784D01*
X4452174Y361249D01*
X4437826D01*
X4428114Y375784D01*
X4431134Y383073D01*
X4433625Y402000D01*
Y527000D01*
X4431134Y545927D01*
X4423828Y563563D01*
X4412208Y578708D01*
X4397063Y590329D01*
X4379426Y597634D01*
X4360500Y600126D01*
X4275500D01*
X4256574Y597634D01*
X4238937Y590329D01*
X4223792Y578708D01*
X4212172Y563563D01*
X4204866Y545927D01*
X4202375Y527000D01*
Y402000D01*
X4204866Y383073D01*
X4207886Y375784D01*
X4198174Y361249D01*
X4183826D01*
X4174114Y375784D01*
X4177134Y383073D01*
X4179625Y402000D01*
Y527000D01*
X4177134Y545927D01*
X4169828Y563563D01*
X4158208Y578708D01*
X4143063Y590329D01*
X4125426Y597634D01*
X4106500Y600126D01*
X4021500D01*
X4002574Y597634D01*
X3984937Y590329D01*
X3969792Y578708D01*
X3958172Y563563D01*
X3950866Y545927D01*
X3948375Y527000D01*
Y402000D01*
X3950866Y383073D01*
X3953886Y375784D01*
X3944174Y361249D01*
X3929826D01*
X3920114Y375784D01*
X3923134Y383073D01*
X3925625Y402000D01*
Y527000D01*
X3923134Y545927D01*
X3915828Y563563D01*
X3904208Y578708D01*
X3889063Y590329D01*
X3871426Y597634D01*
X3852500Y600126D01*
X3767500D01*
X3748574Y597634D01*
X3730937Y590329D01*
X3715792Y578708D01*
X3704172Y563563D01*
X3696866Y545927D01*
X3694375Y527000D01*
Y402000D01*
X3696866Y383073D01*
X3699886Y375784D01*
X3690174Y361249D01*
X3675826D01*
X3666114Y375784D01*
X3669134Y383073D01*
X3671625Y402000D01*
Y527000D01*
X3669134Y545927D01*
X3661828Y563563D01*
X3650208Y578708D01*
X3635063Y590329D01*
X3617426Y597634D01*
X3598500Y600126D01*
X3540784D01*
Y756377D01*
X3653123Y868717D01*
X3880822D01*
X3888797Y853717D01*
X3883952Y842021D01*
Y823125D01*
X3891184Y805667D01*
X3904546Y792305D01*
X3922004Y785073D01*
X3940900D01*
X3958359Y792305D01*
X3971721Y805667D01*
X3978952Y823125D01*
Y842021D01*
X3974108Y853717D01*
X3982082Y868717D01*
X4399499D01*
X4399500Y868717D01*
X4415108Y871821D01*
X4428339Y880662D01*
X4767316Y1219640D01*
X4782028Y1216714D01*
X4783472Y1213228D01*
X4796834Y1199866D01*
X4799725Y1198668D01*
Y1182432D01*
X4795511Y1180686D01*
X4782149Y1167324D01*
X4774917Y1149866D01*
Y1130970D01*
X4782149Y1113511D01*
X4795511Y1100149D01*
X4812969Y1092918D01*
X4831865D01*
X4849324Y1100149D01*
X4862685Y1113511D01*
X4869917Y1130970D01*
Y1149866D01*
X4862685Y1167324D01*
X4849324Y1180686D01*
X4846432Y1181884D01*
Y1198120D01*
X4850647Y1199866D01*
X4864009Y1213228D01*
X4871240Y1230686D01*
Y1249582D01*
X4864009Y1267041D01*
X4850647Y1280403D01*
X4847161Y1281847D01*
X4844235Y1296558D01*
X4888838Y1341161D01*
X4888838Y1341162D01*
X4897679Y1354393D01*
X4900783Y1370000D01*
Y1434337D01*
X4902146Y1437626D01*
X4902253Y1437786D01*
X4902290Y1437975D01*
X4907500Y1450552D01*
Y1469448D01*
X4900268Y1486906D01*
X4886906Y1500268D01*
X4869448Y1507500D01*
X4850552D01*
X4833093Y1500268D01*
X4819732Y1486906D01*
X4812500Y1469448D01*
Y1450552D01*
X4816465Y1440980D01*
X4806866Y1430355D01*
X4804216Y1429501D01*
X4794358Y1433584D01*
X4780000Y1435474D01*
X4765642Y1433584D01*
X4752263Y1428042D01*
X4740774Y1419226D01*
X4336522Y1014975D01*
X4041641D01*
X4041287Y1015061D01*
X4033289Y1015398D01*
X4028100Y1016130D01*
X4024545Y1017078D01*
X4022535Y1017944D01*
X4021749Y1018458D01*
X4021625Y1018580D01*
X4021569Y1018664D01*
X4021283Y1019350D01*
X4020980Y1020724D01*
Y1242696D01*
X4017099Y1262204D01*
X4006048Y1278743D01*
X3940090Y1344701D01*
X3923551Y1355752D01*
X3904042Y1359633D01*
X3884534Y1355752D01*
X3867995Y1344701D01*
X3863512Y1337993D01*
X3861079Y1335559D01*
X3859762Y1332380D01*
X3856944Y1328162D01*
X3855954Y1323186D01*
X3853848Y1318101D01*
Y1312597D01*
X3853063Y1308653D01*
X3853848Y1304709D01*
Y1299205D01*
X3855954Y1294120D01*
X3856944Y1289144D01*
X3859762Y1284926D01*
X3861079Y1281746D01*
X3863512Y1279313D01*
X3867995Y1272605D01*
X3873169Y1267430D01*
X3870142Y1249244D01*
X3860078Y1239181D01*
X3854745Y1226304D01*
X3844718Y1230457D01*
X3825821D01*
X3808363Y1223225D01*
X3795001Y1209863D01*
X3787770Y1192405D01*
Y1173509D01*
X3795001Y1156051D01*
X3808363Y1142689D01*
X3825821Y1135457D01*
X3838416D01*
Y1131007D01*
X3845647Y1113549D01*
X3859009Y1100187D01*
X3876467Y1092956D01*
X3895364D01*
X3904020Y1096541D01*
X3919020Y1086787D01*
Y1020723D01*
X3918717Y1019350D01*
X3918431Y1018664D01*
X3918375Y1018580D01*
X3918250Y1018458D01*
X3917465Y1017944D01*
X3915455Y1017078D01*
X3911899Y1016130D01*
X3906711Y1015398D01*
X3898713Y1015061D01*
X3898359Y1014975D01*
X3584082D01*
X3569724Y1013085D01*
X3556345Y1007543D01*
X3544856Y998726D01*
X3460008Y913879D01*
X3459640Y913649D01*
X3453537Y907919D01*
X3448860Y904138D01*
X3445136Y901656D01*
X3443876Y901011D01*
X3376244Y968642D01*
X3377857Y973829D01*
X3383600Y982500D01*
X3399448D01*
X3416907Y989732D01*
X3429393Y1002218D01*
X3439605Y1009037D01*
X3443094Y1009732D01*
X3460552Y1002500D01*
X3479448D01*
X3496906Y1009732D01*
X3510268Y1023093D01*
X3517500Y1040552D01*
Y1059448D01*
X3510268Y1076906D01*
X3496906Y1090268D01*
X3479448Y1097500D01*
X3460552D01*
X3448333Y1092439D01*
X3433332Y1100106D01*
Y1800000D01*
X3430034Y1816583D01*
X3420641Y1830641D01*
X3213332Y2037949D01*
Y2820000D01*
X3210034Y2836583D01*
X3200641Y2850641D01*
X2863332Y3187949D01*
Y4722051D01*
X2950641Y4809359D01*
X2960034Y4823417D01*
X2963332Y4840000D01*
Y4856757D01*
X2978333Y4866780D01*
X2986574Y4863366D01*
X3005500Y4860874D01*
X3090500D01*
X3109426Y4863366D01*
X3127063Y4870671D01*
X3142208Y4882292D01*
X3153828Y4897437D01*
X3161134Y4915073D01*
X3163625Y4934000D01*
Y5059000D01*
X3161134Y5077927D01*
X3153828Y5095563D01*
X3142208Y5110708D01*
X3127063Y5122329D01*
X3109426Y5129634D01*
X3090500Y5132126D01*
X3005500D01*
X2990091Y5130097D01*
X2983394Y5139881D01*
X2982273Y5143492D01*
X2985080Y5146299D01*
X2988450Y5149413D01*
X2991275Y5151674D01*
X2993928Y5153558D01*
X2996075Y5154876D01*
X2997626Y5155666D01*
X2998089Y5155850D01*
X3005500Y5154874D01*
X3090500D01*
X3109426Y5157366D01*
X3127063Y5164671D01*
X3142208Y5176292D01*
X3153828Y5191437D01*
X3161134Y5209073D01*
X3163625Y5228000D01*
Y5353000D01*
X3161134Y5371927D01*
X3153828Y5389563D01*
X3144243Y5402056D01*
X3146972Y5411590D01*
X3150756Y5417056D01*
X3199244D01*
X3203028Y5411590D01*
X3205757Y5402056D01*
X3196172Y5389563D01*
X3188866Y5371927D01*
X3186375Y5353000D01*
Y5228000D01*
X3188866Y5209073D01*
X3196172Y5191437D01*
X3207792Y5176292D01*
X3222937Y5164671D01*
X3240574Y5157366D01*
X3259500Y5154874D01*
X3344500D01*
X3363426Y5157366D01*
X3381063Y5164671D01*
X3396208Y5176292D01*
X3407828Y5191437D01*
X3415134Y5209073D01*
X3417625Y5228000D01*
Y5353000D01*
X3415134Y5371927D01*
X3407828Y5389563D01*
X3398243Y5402056D01*
X3400972Y5411590D01*
X3404756Y5417056D01*
X3453244D01*
X3457028Y5411590D01*
X3459757Y5402056D01*
X3450172Y5389563D01*
X3442866Y5371927D01*
X3440375Y5353000D01*
Y5228000D01*
X3442866Y5209073D01*
X3450172Y5191437D01*
X3461792Y5176292D01*
X3476937Y5164671D01*
X3494574Y5157366D01*
X3513500Y5154874D01*
X3598500D01*
X3617426Y5157366D01*
X3635063Y5164671D01*
X3650208Y5176292D01*
X3661828Y5191437D01*
X3669134Y5209073D01*
X3671625Y5228000D01*
Y5353000D01*
X3669134Y5371927D01*
X3661828Y5389563D01*
X3652243Y5402056D01*
X3654972Y5411590D01*
X3658756Y5417056D01*
X3707244D01*
X3711028Y5411590D01*
X3713757Y5402056D01*
X3704172Y5389563D01*
X3696866Y5371927D01*
X3694375Y5353000D01*
Y5228000D01*
X3696866Y5209073D01*
X3704172Y5191437D01*
X3715792Y5176292D01*
X3730937Y5164671D01*
X3748574Y5157366D01*
X3767500Y5154874D01*
X3852500D01*
X3871426Y5157366D01*
X3889063Y5164671D01*
X3904208Y5176292D01*
X3915828Y5191437D01*
X3923134Y5209073D01*
X3925625Y5228000D01*
Y5353000D01*
X3923134Y5371927D01*
X3915828Y5389563D01*
X3906243Y5402056D01*
X3908972Y5411590D01*
X3912756Y5417056D01*
X3961244D01*
X3965028Y5411590D01*
X3967757Y5402056D01*
X3958172Y5389563D01*
X3950866Y5371927D01*
X3948375Y5353000D01*
Y5228000D01*
X3950866Y5209073D01*
X3958172Y5191437D01*
X3969792Y5176292D01*
X3984937Y5164671D01*
X4002574Y5157366D01*
X4021500Y5154874D01*
X4106500D01*
X4125426Y5157366D01*
X4143063Y5164671D01*
X4158208Y5176292D01*
X4169828Y5191437D01*
X4177134Y5209073D01*
X4179625Y5228000D01*
Y5353000D01*
X4177134Y5371927D01*
X4169828Y5389563D01*
X4160243Y5402056D01*
X4162972Y5411590D01*
X4166756Y5417056D01*
X4215244D01*
X4219028Y5411590D01*
X4221757Y5402056D01*
X4212172Y5389563D01*
X4204866Y5371927D01*
X4202375Y5353000D01*
Y5228000D01*
X4204866Y5209073D01*
X4212172Y5191437D01*
X4223792Y5176292D01*
X4238937Y5164671D01*
X4256574Y5157366D01*
X4275500Y5154874D01*
X4360500D01*
X4379426Y5157366D01*
X4397063Y5164671D01*
X4412208Y5176292D01*
X4423828Y5191437D01*
X4431134Y5209073D01*
X4433625Y5228000D01*
Y5353000D01*
X4431134Y5371927D01*
X4423828Y5389563D01*
X4414243Y5402056D01*
X4416972Y5411590D01*
X4420756Y5417056D01*
X4469244D01*
X4473028Y5411590D01*
X4475757Y5402056D01*
X4466172Y5389563D01*
X4458866Y5371927D01*
X4456375Y5353000D01*
Y5228000D01*
X4458866Y5209073D01*
X4466172Y5191437D01*
X4477792Y5176292D01*
X4492937Y5164671D01*
X4510574Y5157366D01*
X4529500Y5154874D01*
X4614500D01*
X4633426Y5157366D01*
X4651063Y5164671D01*
X4666208Y5176292D01*
X4677828Y5191437D01*
X4685134Y5209073D01*
X4687625Y5228000D01*
Y5353000D01*
X4685134Y5371927D01*
X4677828Y5389563D01*
X4668243Y5402056D01*
X4670972Y5411590D01*
X4674756Y5417056D01*
X4723244D01*
X4727028Y5411590D01*
X4729757Y5402056D01*
X4720172Y5389563D01*
X4712866Y5371927D01*
X4710375Y5353000D01*
Y5228000D01*
X4712866Y5209073D01*
X4720172Y5191437D01*
X4731792Y5176292D01*
X4746937Y5164671D01*
X4764574Y5157366D01*
X4783500Y5154874D01*
X4868500D01*
X4887426Y5157366D01*
X4905063Y5164671D01*
X4920208Y5176292D01*
X4931828Y5191437D01*
X4939134Y5209073D01*
X4941625Y5228000D01*
Y5353000D01*
X4939134Y5371927D01*
X4931828Y5389563D01*
X4922243Y5402056D01*
X4924972Y5411590D01*
X4928756Y5417056D01*
X4977244D01*
X4981028Y5411590D01*
X4983757Y5402056D01*
X4974172Y5389563D01*
X4966866Y5371927D01*
X4964375Y5353000D01*
Y5228000D01*
X4966866Y5209073D01*
X4974172Y5191437D01*
X4985792Y5176292D01*
X5000937Y5164671D01*
X5018574Y5157366D01*
X5037500Y5154874D01*
X5122500D01*
X5141426Y5157366D01*
X5159063Y5164671D01*
X5174208Y5176292D01*
X5185828Y5191437D01*
X5193134Y5209073D01*
X5195625Y5228000D01*
Y5353000D01*
X5193134Y5371927D01*
X5185828Y5389563D01*
X5176243Y5402056D01*
X5178972Y5411590D01*
X5182756Y5417056D01*
X5231244D01*
X5235028Y5411590D01*
X5237757Y5402056D01*
X5228172Y5389563D01*
X5220866Y5371927D01*
X5218375Y5353000D01*
Y5228000D01*
X5220866Y5209073D01*
X5228172Y5191437D01*
X5239792Y5176292D01*
X5254937Y5164671D01*
X5272574Y5157366D01*
X5291500Y5154874D01*
X5376500D01*
X5395426Y5157366D01*
X5413063Y5164671D01*
X5428208Y5176292D01*
X5439828Y5191437D01*
X5447134Y5209073D01*
X5449625Y5228000D01*
Y5353000D01*
X5447134Y5371927D01*
X5439828Y5389563D01*
X5430243Y5402056D01*
X5432972Y5411590D01*
X5436756Y5417056D01*
X5485244D01*
X5489028Y5411590D01*
X5491757Y5402056D01*
X5482172Y5389563D01*
X5474866Y5371927D01*
X5472375Y5353000D01*
Y5228000D01*
X5474866Y5209073D01*
X5482172Y5191437D01*
X5493792Y5176292D01*
X5508937Y5164671D01*
X5526574Y5157366D01*
X5545500Y5154874D01*
X5630500D01*
X5649426Y5157366D01*
X5667063Y5164671D01*
X5682208Y5176292D01*
X5693828Y5191437D01*
X5701134Y5209073D01*
X5703625Y5228000D01*
Y5353000D01*
X5701134Y5371927D01*
X5693828Y5389563D01*
X5684243Y5402056D01*
X5686972Y5411590D01*
X5690756Y5417056D01*
X5739244D01*
X5743028Y5411590D01*
X5745757Y5402056D01*
X5736172Y5389563D01*
X5728866Y5371927D01*
X5726375Y5353000D01*
Y5228000D01*
X5728866Y5209073D01*
X5736172Y5191437D01*
X5747792Y5176292D01*
X5762937Y5164671D01*
X5780574Y5157366D01*
X5799500Y5154874D01*
X5884500D01*
X5903426Y5157366D01*
X5921063Y5164671D01*
X5936208Y5176292D01*
X5947828Y5191437D01*
X5955134Y5209073D01*
X5957625Y5228000D01*
Y5353000D01*
X5955134Y5371927D01*
X5947828Y5389563D01*
X5938243Y5402056D01*
X5940972Y5411590D01*
X5944756Y5417056D01*
X5993244D01*
X5997028Y5411590D01*
X5999757Y5402056D01*
X5990172Y5389563D01*
X5982866Y5371927D01*
X5980375Y5353000D01*
Y5228000D01*
X5982866Y5209073D01*
X5990172Y5191437D01*
X6001792Y5176292D01*
X6016937Y5164671D01*
X6034574Y5157366D01*
X6053500Y5154874D01*
X6138500D01*
X6157426Y5157366D01*
X6175063Y5164671D01*
X6190208Y5176292D01*
X6201828Y5191437D01*
X6209134Y5209073D01*
X6211625Y5228000D01*
Y5353000D01*
X6209134Y5371927D01*
X6201828Y5389563D01*
X6192243Y5402056D01*
X6194972Y5411590D01*
X6198756Y5417056D01*
X6247244D01*
X6251028Y5411590D01*
D02*
G37*
G36*
X2695028D02*
X2697757Y5402056D01*
X2688172Y5389563D01*
X2680866Y5371927D01*
X2678375Y5353000D01*
Y5228000D01*
X2680866Y5209073D01*
X2688172Y5191437D01*
X2699792Y5176292D01*
X2714937Y5164671D01*
X2732574Y5157366D01*
X2751500Y5154874D01*
X2836500D01*
X2855426Y5157366D01*
X2865130Y5161386D01*
X2877370Y5151341D01*
X2876185Y5136749D01*
X2861667Y5127049D01*
X2855426Y5129634D01*
X2836500Y5132126D01*
X2751500D01*
X2732574Y5129634D01*
X2714937Y5122329D01*
X2699792Y5110708D01*
X2688172Y5095563D01*
X2680866Y5077927D01*
X2678375Y5059000D01*
Y4934000D01*
X2680866Y4915073D01*
X2688172Y4897437D01*
X2697399Y4885411D01*
X2695993Y4869770D01*
X2694240Y4867645D01*
X2681257Y4854662D01*
X2674026Y4837204D01*
Y4818307D01*
X2681257Y4800849D01*
X2694619Y4787487D01*
X2712077Y4780256D01*
X2730974D01*
X2748432Y4787487D01*
X2761794Y4800849D01*
X2764222Y4806712D01*
X2780458D01*
X2781647Y4803843D01*
X2795008Y4790481D01*
X2797363Y4778644D01*
X2789359Y4770640D01*
X2779966Y4756583D01*
X2776668Y4740000D01*
Y3295155D01*
X2765127Y3291436D01*
X2761668Y3291215D01*
X2748982Y3303900D01*
X2731524Y3311132D01*
X2712627D01*
X2695169Y3303900D01*
X2681807Y3290539D01*
X2674576Y3273080D01*
Y3254184D01*
X2681807Y3236726D01*
X2695169Y3223364D01*
X2712627Y3216132D01*
X2731524D01*
X2748982Y3223364D01*
X2761668Y3236049D01*
X2765127Y3235828D01*
X2776668Y3232109D01*
Y3170000D01*
X2779966Y3153418D01*
X2789359Y3139360D01*
X3126668Y2802051D01*
Y2020000D01*
X3129966Y2003418D01*
X3139359Y1989360D01*
X3346668Y1782051D01*
Y1551383D01*
X3332810Y1545643D01*
X3315474Y1562978D01*
Y1685217D01*
X3313584Y1699575D01*
X3308042Y1712954D01*
X3299227Y1724443D01*
X2484443Y2539226D01*
X2472954Y2548042D01*
X2459575Y2553584D01*
X2445217Y2555474D01*
X2410680D01*
X2405007Y2558750D01*
X2389747Y2562839D01*
X2373949D01*
X2358689Y2558750D01*
X2345007Y2550851D01*
X2333836Y2539680D01*
X2325937Y2525998D01*
X2321848Y2510738D01*
Y2494940D01*
X2325937Y2479680D01*
X2333836Y2465998D01*
X2345007Y2454827D01*
X2358689Y2446928D01*
X2373949Y2442839D01*
X2389747D01*
X2396041Y2444526D01*
X2422239D01*
X3204526Y1662238D01*
Y1580284D01*
X3198426Y1577758D01*
X3186937Y1568942D01*
X3084703Y1466708D01*
X3075887Y1455218D01*
X3070345Y1441839D01*
X3068455Y1427481D01*
Y1130532D01*
X2978455Y1040532D01*
X2969638Y1029042D01*
X2964097Y1015663D01*
X2962206Y1001305D01*
X2964097Y986947D01*
X2969638Y973568D01*
X2978455Y962079D01*
X2989944Y953263D01*
X3003323Y947721D01*
X3017681Y945831D01*
X3032039Y947721D01*
X3045418Y953263D01*
X3056907Y962079D01*
X3163155Y1068328D01*
X3171972Y1079816D01*
X3177514Y1093196D01*
X3179404Y1107554D01*
Y1404503D01*
X3248224Y1473323D01*
X3290774Y1430774D01*
X3302263Y1421958D01*
X3315642Y1416416D01*
X3330000Y1414526D01*
X3331667Y1414745D01*
X3346668Y1401747D01*
Y1049509D01*
X3342500Y1039448D01*
Y1023599D01*
X3333829Y1017856D01*
X3328642Y1016244D01*
X3305578Y1039308D01*
Y1102569D01*
X3307196Y1106475D01*
Y1125372D01*
X3299965Y1142830D01*
X3286603Y1156192D01*
X3269145Y1163423D01*
X3250248D01*
X3232790Y1156192D01*
X3219428Y1142830D01*
X3212197Y1125372D01*
Y1106475D01*
X3213815Y1102569D01*
Y1020304D01*
X3217308Y1002745D01*
X3218559Y1000872D01*
X3208615Y988755D01*
X3208295Y988888D01*
X3189398D01*
X3171940Y981656D01*
X3158578Y968294D01*
X3151347Y950836D01*
Y931939D01*
X3158578Y914481D01*
X3171940Y901119D01*
X3189398Y893888D01*
X3208295D01*
X3225753Y901119D01*
X3239115Y914481D01*
X3246347Y931939D01*
Y947554D01*
X3255803Y953615D01*
X3260205Y954909D01*
X3378989Y836124D01*
X3378346Y834866D01*
X3375861Y831139D01*
X3372082Y826465D01*
X3366351Y820360D01*
X3366122Y819993D01*
X3314752Y768623D01*
X3302036Y777120D01*
X3307839Y791130D01*
Y810027D01*
X3300608Y827485D01*
X3287246Y840847D01*
X3269788Y848079D01*
X3250891D01*
X3233433Y840847D01*
X3220071Y827485D01*
X3212840Y810027D01*
Y791130D01*
X3220071Y773672D01*
X3233433Y760310D01*
X3250891Y753079D01*
X3269788D01*
X3275553Y755467D01*
X3285018Y743152D01*
X3280570Y737334D01*
X3196432D01*
Y751960D01*
X3189200Y769419D01*
X3175838Y782781D01*
X3158380Y790012D01*
X3139483D01*
X3122025Y782781D01*
X3108663Y769419D01*
X3101432Y751960D01*
Y737334D01*
X2530688D01*
X2395706Y872316D01*
X2395480Y873159D01*
X2395044Y873915D01*
Y970564D01*
X2393153Y984922D01*
X2387612Y998301D01*
X2378796Y1009790D01*
X2175882Y1212704D01*
Y1647391D01*
X2172389Y1664949D01*
X2162443Y1679834D01*
X2001886Y1840391D01*
X2000268Y1844298D01*
X1986906Y1857660D01*
X1969448Y1864891D01*
X1950551D01*
X1933093Y1857660D01*
X1919731Y1844298D01*
X1912500Y1826840D01*
Y1807943D01*
X1919731Y1790485D01*
X1933093Y1777123D01*
X1937000Y1775505D01*
X2084119Y1628386D01*
Y1217412D01*
X2079037Y1210791D01*
X2073495Y1197412D01*
X2071605Y1183054D01*
X2073495Y1168696D01*
X2079037Y1155317D01*
X2087854Y1143828D01*
X2284095Y947586D01*
Y873915D01*
X2283658Y873159D01*
X2279569Y857899D01*
Y842101D01*
X2283658Y826841D01*
X2291558Y813159D01*
X2302729Y801988D01*
X2316410Y794089D01*
X2317254Y793863D01*
X2468484Y642633D01*
X2479973Y633817D01*
X2493352Y628275D01*
X2507710Y626385D01*
X3306442D01*
X3320800Y628276D01*
X3334179Y633817D01*
X3345668Y642633D01*
X3444217Y741182D01*
X3459217Y734969D01*
Y575351D01*
X3450172Y563563D01*
X3442866Y545927D01*
X3440375Y527000D01*
Y402000D01*
X3442866Y383073D01*
X3450172Y365437D01*
X3453500Y361099D01*
X3451475Y348838D01*
X3451475Y348838D01*
X3391193Y288556D01*
X3381063Y296329D01*
X3363426Y303634D01*
X3344500Y306126D01*
X3259500D01*
X3240574Y303634D01*
X3222937Y296329D01*
X3207792Y284708D01*
X3196172Y269563D01*
X3188866Y251927D01*
X3186375Y233000D01*
Y108000D01*
X3188866Y89073D01*
X3196172Y71437D01*
X3205757Y58944D01*
X3203028Y49410D01*
X3199244Y43944D01*
X3150756D01*
X3146972Y49410D01*
X3144243Y58944D01*
X3153828Y71437D01*
X3161134Y89073D01*
X3163625Y108000D01*
Y233000D01*
X3161134Y251927D01*
X3153828Y269563D01*
X3142208Y284708D01*
X3127063Y296329D01*
X3109426Y303634D01*
X3090500Y306126D01*
X3005500D01*
X2986574Y303634D01*
X2968937Y296329D01*
X2953792Y284708D01*
X2942172Y269563D01*
X2934866Y251927D01*
X2932375Y233000D01*
Y108000D01*
X2934866Y89073D01*
X2942172Y71437D01*
X2951757Y58944D01*
X2949028Y49410D01*
X2945244Y43944D01*
X2896756D01*
X2892972Y49410D01*
X2890243Y58944D01*
X2899828Y71437D01*
X2907134Y89073D01*
X2909625Y108000D01*
Y233000D01*
X2907134Y251927D01*
X2899828Y269563D01*
X2888208Y284708D01*
X2873063Y296329D01*
X2855426Y303634D01*
X2836500Y306126D01*
X2751500D01*
X2732574Y303634D01*
X2714937Y296329D01*
X2699792Y284708D01*
X2688172Y269563D01*
X2680866Y251927D01*
X2678375Y233000D01*
Y108000D01*
X2680866Y89073D01*
X2688172Y71437D01*
X2697757Y58944D01*
X2695028Y49410D01*
X2691244Y43944D01*
X2642756D01*
X2638972Y49410D01*
X2636243Y58944D01*
X2645828Y71437D01*
X2653134Y89073D01*
X2655625Y108000D01*
Y233000D01*
X2653134Y251927D01*
X2645828Y269563D01*
X2634208Y284708D01*
X2619063Y296329D01*
X2601426Y303634D01*
X2582500Y306126D01*
X2497500D01*
X2478574Y303634D01*
X2460937Y296329D01*
X2445792Y284708D01*
X2434172Y269563D01*
X2426866Y251927D01*
X2424375Y233000D01*
Y108000D01*
X2426866Y89073D01*
X2434172Y71437D01*
X2443757Y58944D01*
X2441028Y49410D01*
X2437244Y43944D01*
X2388756D01*
X2384972Y49410D01*
X2382243Y58944D01*
X2391828Y71437D01*
X2399134Y89073D01*
X2401625Y108000D01*
Y233000D01*
X2399134Y251927D01*
X2391828Y269563D01*
X2380208Y284708D01*
X2365063Y296329D01*
X2347426Y303634D01*
X2328500Y306126D01*
X2243500D01*
X2224574Y303634D01*
X2206937Y296329D01*
X2191792Y284708D01*
X2180172Y269563D01*
X2172866Y251927D01*
X2170375Y233000D01*
Y108000D01*
X2172866Y89073D01*
X2180172Y71437D01*
X2189757Y58944D01*
X2187028Y49410D01*
X2183244Y43944D01*
X2125042D01*
X2119302Y57802D01*
X2152000Y90500D01*
Y160500D01*
X1912000D01*
Y90500D01*
X1944698Y57802D01*
X1938958Y43944D01*
X1371600D01*
X1369823Y43591D01*
X1338663Y46043D01*
X1306537Y53756D01*
X1276013Y66399D01*
X1247842Y83662D01*
X1222719Y105119D01*
X1201262Y130242D01*
X1183999Y158413D01*
X1171356Y188937D01*
X1163643Y221063D01*
X1161191Y252223D01*
X1161544Y254000D01*
Y1924556D01*
X1841500D01*
Y1924481D01*
X1888120Y1928150D01*
X1933593Y1939067D01*
X1976798Y1956963D01*
X2016671Y1981398D01*
X2052231Y2011769D01*
X2082602Y2047329D01*
X2107037Y2087202D01*
X2124933Y2130407D01*
X2135850Y2175880D01*
X2139519Y2222500D01*
X2139444D01*
Y3746500D01*
X2139519D01*
X2135850Y3793120D01*
X2124933Y3838593D01*
X2107037Y3881798D01*
X2082602Y3921671D01*
X2052231Y3957231D01*
X2016671Y3987602D01*
X1976798Y4012037D01*
X1933593Y4029933D01*
X1888120Y4040850D01*
X1841500Y4044519D01*
Y4044444D01*
X1161544D01*
Y5207000D01*
X1161191Y5208778D01*
X1163643Y5239937D01*
X1171356Y5272063D01*
X1183999Y5302587D01*
X1201262Y5330758D01*
X1222719Y5355881D01*
X1247842Y5377338D01*
X1276012Y5394601D01*
X1306537Y5407244D01*
X1338663Y5414957D01*
X1356875Y5416390D01*
X1371600Y5417055D01*
X1371600Y5417056D01*
X1922058D01*
X1929455Y5402056D01*
X1921804Y5392084D01*
X1913995Y5373232D01*
X1911331Y5353000D01*
Y5300500D01*
X2152669D01*
Y5353000D01*
X2150005Y5373232D01*
X2142196Y5392084D01*
X2134545Y5402056D01*
X2141942Y5417056D01*
X2183244D01*
X2187028Y5411590D01*
X2189757Y5402056D01*
X2180172Y5389563D01*
X2172866Y5371927D01*
X2170375Y5353000D01*
Y5228000D01*
X2172866Y5209073D01*
X2180172Y5191437D01*
X2191792Y5176292D01*
X2206937Y5164671D01*
X2224574Y5157366D01*
X2243500Y5154874D01*
X2328500D01*
X2347426Y5157366D01*
X2365063Y5164671D01*
X2380208Y5176292D01*
X2391828Y5191437D01*
X2399134Y5209073D01*
X2401625Y5228000D01*
Y5353000D01*
X2399134Y5371927D01*
X2391828Y5389563D01*
X2382243Y5402056D01*
X2384972Y5411590D01*
X2388756Y5417056D01*
X2437244D01*
X2441028Y5411590D01*
X2443757Y5402056D01*
X2434172Y5389563D01*
X2426866Y5371927D01*
X2424375Y5353000D01*
Y5228000D01*
X2426866Y5209073D01*
X2434172Y5191437D01*
X2445792Y5176292D01*
X2460937Y5164671D01*
X2478574Y5157366D01*
X2497500Y5154874D01*
X2582500D01*
X2601426Y5157366D01*
X2619063Y5164671D01*
X2634208Y5176292D01*
X2645828Y5191437D01*
X2653134Y5209073D01*
X2655625Y5228000D01*
Y5353000D01*
X2653134Y5371927D01*
X2645828Y5389563D01*
X2636243Y5402056D01*
X2638972Y5411590D01*
X2642756Y5417056D01*
X2691244D01*
X2695028Y5411590D01*
D02*
G37*
G36*
X6597115Y4891905D02*
X6595215Y4891547D01*
X6593515Y4890596D01*
X6592015Y4889050D01*
X6590715Y4886910D01*
X6589615Y4884177D01*
X6588715Y4880849D01*
X6588015Y4876928D01*
X6587515Y4872413D01*
X6587115Y4861601D01*
X6567115D01*
X6567015Y4867208D01*
X6566218Y4876734D01*
X6565520Y4880653D01*
X6564623Y4884008D01*
X6563526Y4886800D01*
X6562230Y4889029D01*
X6560734Y4890694D01*
X6559039Y4891796D01*
X6557145Y4892336D01*
X6597115Y4891905D01*
D02*
G37*
G36*
X5933642Y4637041D02*
X5932418Y4635761D01*
X5930299Y4633190D01*
X5929403Y4631899D01*
X5928616Y4630603D01*
X5927938Y4629304D01*
X5927369Y4628001D01*
X5926909Y4626694D01*
X5926558Y4625383D01*
X5926317Y4624068D01*
X5906527Y4643858D01*
X5907842Y4644100D01*
X5909153Y4644450D01*
X5910460Y4644910D01*
X5911763Y4645479D01*
X5913062Y4646157D01*
X5914357Y4646944D01*
X5915649Y4647840D01*
X5916936Y4648846D01*
X5919499Y4651183D01*
X5933642Y4637041D01*
D02*
G37*
G36*
X6862365Y4615606D02*
X6861687Y4614431D01*
X6861088Y4613182D01*
X6860568Y4611858D01*
X6860129Y4610460D01*
X6859770Y4608987D01*
X6859490Y4607441D01*
X6859291Y4605820D01*
X6859131Y4602354D01*
X6839131D01*
X6839091Y4604124D01*
X6838771Y4607441D01*
X6838492Y4608987D01*
X6838132Y4610460D01*
X6837693Y4611858D01*
X6837174Y4613182D01*
X6836575Y4614431D01*
X6835896Y4615606D01*
X6835137Y4616707D01*
X6863124D01*
X6862365Y4615606D01*
D02*
G37*
G36*
X5986621Y4627052D02*
X5986972Y4625742D01*
X5987432Y4624435D01*
X5988001Y4623131D01*
X5988679Y4621832D01*
X5989466Y4620537D01*
X5990362Y4619246D01*
X5991367Y4617958D01*
X5993705Y4615395D01*
X5979562Y4601253D01*
X5978283Y4602476D01*
X5975712Y4604595D01*
X5974420Y4605491D01*
X5973125Y4606278D01*
X5971826Y4606956D01*
X5970522Y4607525D01*
X5969216Y4607985D01*
X5967905Y4608336D01*
X5966590Y4608578D01*
X5986379Y4628367D01*
X5986621Y4627052D01*
D02*
G37*
G36*
X6364235Y4612473D02*
X6363556Y4611298D01*
X6362957Y4610049D01*
X6362438Y4608725D01*
X6361999Y4607327D01*
X6361639Y4605855D01*
X6361360Y4604308D01*
X6361160Y4602687D01*
X6361000Y4599221D01*
X6341000D01*
X6340960Y4600991D01*
X6340641Y4604308D01*
X6340361Y4605855D01*
X6340002Y4607327D01*
X6339563Y4608725D01*
X6339043Y4610049D01*
X6338445Y4611298D01*
X6337766Y4612473D01*
X6337007Y4613574D01*
X6364994D01*
X6364235Y4612473D01*
D02*
G37*
G36*
X6412464Y4572674D02*
X6411149Y4572433D01*
X6409838Y4572082D01*
X6408531Y4571622D01*
X6407228Y4571053D01*
X6405929Y4570375D01*
X6404634Y4569588D01*
X6403342Y4568692D01*
X6402055Y4567687D01*
X6399491Y4565349D01*
X6385349Y4579491D01*
X6386572Y4580771D01*
X6388692Y4583342D01*
X6389588Y4584634D01*
X6390375Y4585929D01*
X6391053Y4587228D01*
X6391622Y4588531D01*
X6392082Y4589838D01*
X6392432Y4591149D01*
X6392674Y4592464D01*
X6412464Y4572674D01*
D02*
G37*
G36*
X5227507Y4556168D02*
X5227857Y4554857D01*
X5228317Y4553550D01*
X5228886Y4552247D01*
X5229564Y4550947D01*
X5230351Y4549652D01*
X5231247Y4548361D01*
X5232253Y4547073D01*
X5234590Y4544510D01*
X5220448Y4530368D01*
X5219168Y4531591D01*
X5216597Y4533711D01*
X5215306Y4534606D01*
X5214010Y4535394D01*
X5212711Y4536071D01*
X5211408Y4536640D01*
X5210101Y4537100D01*
X5208790Y4537451D01*
X5207475Y4537693D01*
X5227265Y4557483D01*
X5227507Y4556168D01*
D02*
G37*
G36*
X5158975Y4550867D02*
X5159326Y4549556D01*
X5159786Y4548249D01*
X5160355Y4546946D01*
X5161033Y4545646D01*
X5161820Y4544351D01*
X5162716Y4543060D01*
X5163721Y4541772D01*
X5166058Y4539209D01*
X5151916Y4525067D01*
X5150636Y4526290D01*
X5148065Y4528410D01*
X5146774Y4529305D01*
X5145479Y4530093D01*
X5144179Y4530770D01*
X5142876Y4531339D01*
X5141569Y4531799D01*
X5140258Y4532150D01*
X5138943Y4532392D01*
X5158733Y4552182D01*
X5158975Y4550867D01*
D02*
G37*
G36*
X6648875Y4368552D02*
X6647652Y4367273D01*
X6645533Y4364702D01*
X6644637Y4363410D01*
X6643850Y4362115D01*
X6643172Y4360816D01*
X6642603Y4359512D01*
X6642143Y4358206D01*
X6641792Y4356895D01*
X6641550Y4355580D01*
X6621761Y4375369D01*
X6623076Y4375611D01*
X6624387Y4375962D01*
X6625693Y4376422D01*
X6626997Y4376991D01*
X6628296Y4377669D01*
X6629591Y4378456D01*
X6630883Y4379352D01*
X6632170Y4380357D01*
X6634733Y4382695D01*
X6648875Y4368552D01*
D02*
G37*
G36*
X6878158Y4020016D02*
X6877087Y4020732D01*
X6875936Y4021374D01*
X6874707Y4021939D01*
X6873398Y4022430D01*
X6872010Y4022845D01*
X6870543Y4023184D01*
X6868996Y4023448D01*
X6867370Y4023637D01*
X6863880Y4023788D01*
X6863389Y4043788D01*
X6865157Y4043829D01*
X6868470Y4044160D01*
X6870014Y4044450D01*
X6871483Y4044822D01*
X6872878Y4045277D01*
X6874198Y4045815D01*
X6875443Y4046436D01*
X6876614Y4047140D01*
X6877709Y4047926D01*
X6878158Y4020016D01*
D02*
G37*
G36*
X6813902Y3892369D02*
X6814548Y3892115D01*
X6815358Y3891891D01*
X6816334Y3891697D01*
X6817476Y3891532D01*
X6820254Y3891294D01*
X6825660Y3891159D01*
Y3866159D01*
X6823693Y3866144D01*
X6816334Y3865622D01*
X6815358Y3865427D01*
X6814548Y3865204D01*
X6813902Y3864950D01*
X6813422Y3864666D01*
Y3892653D01*
X6813902Y3892369D01*
D02*
G37*
G36*
X6404260Y3833961D02*
X6405436Y3833282D01*
X6406685Y3832683D01*
X6408009Y3832164D01*
X6409407Y3831725D01*
X6410879Y3831365D01*
X6412426Y3831086D01*
X6414047Y3830886D01*
X6417512Y3830726D01*
Y3810726D01*
X6415743Y3810686D01*
X6412426Y3810367D01*
X6410879Y3810087D01*
X6409407Y3809728D01*
X6408009Y3809289D01*
X6406685Y3808769D01*
X6405436Y3808170D01*
X6404260Y3807491D01*
X6403160Y3806733D01*
Y3834720D01*
X6404260Y3833961D01*
D02*
G37*
G36*
X7664986Y3664391D02*
X7664307Y3663215D01*
X7663708Y3661966D01*
X7663189Y3660642D01*
X7662750Y3659244D01*
X7662390Y3657772D01*
X7662111Y3656225D01*
X7661911Y3654604D01*
X7661751Y3651139D01*
X7641751D01*
X7641711Y3652908D01*
X7641392Y3656225D01*
X7641112Y3657772D01*
X7640753Y3659244D01*
X7640314Y3660642D01*
X7639794Y3661966D01*
X7639196Y3663215D01*
X7638517Y3664391D01*
X7637758Y3665491D01*
X7665745D01*
X7664986Y3664391D01*
D02*
G37*
G36*
X7356582Y3662139D02*
X7362155Y3657305D01*
X7362983Y3656752D01*
X7363715Y3656337D01*
X7364351Y3656060D01*
X7364891Y3655921D01*
X7345101Y3636132D01*
X7344962Y3636672D01*
X7344685Y3637308D01*
X7344270Y3638040D01*
X7343717Y3638867D01*
X7343026Y3639790D01*
X7341231Y3641924D01*
X7337503Y3645842D01*
X7355181Y3663519D01*
X7356582Y3662139D01*
D02*
G37*
G36*
X7620200Y2786200D02*
X7620800Y2782800D01*
X7621800Y2779800D01*
X7623200Y2777200D01*
X7625000Y2775000D01*
X7627200Y2773200D01*
X7629800Y2771800D01*
X7632800Y2770800D01*
X7636200Y2770200D01*
X7640000Y2770000D01*
X7634142Y2750000D01*
X7630201Y2749859D01*
X7626376Y2749434D01*
X7622669Y2748727D01*
X7619080Y2747737D01*
X7615607Y2746465D01*
X7612251Y2744909D01*
X7609012Y2743070D01*
X7605891Y2740949D01*
X7602887Y2738545D01*
X7600000Y2735858D01*
X7585858Y2750000D01*
X7588545Y2752887D01*
X7590949Y2755891D01*
X7593070Y2759013D01*
X7594909Y2762251D01*
X7596465Y2765607D01*
X7597737Y2769080D01*
X7598727Y2772669D01*
X7599434Y2776376D01*
X7599859Y2780201D01*
X7600000Y2784142D01*
X7620000Y2790000D01*
X7620200Y2786200D01*
D02*
G37*
G36*
X8558676Y2723381D02*
X8558196Y2723665D01*
X8557550Y2723919D01*
X8556739Y2724143D01*
X8555763Y2724337D01*
X8554622Y2724502D01*
X8551844Y2724740D01*
X8546437Y2724875D01*
Y2749875D01*
X8548405Y2749890D01*
X8555763Y2750412D01*
X8556739Y2750607D01*
X8557550Y2750830D01*
X8558196Y2751084D01*
X8558676Y2751368D01*
Y2723381D01*
D02*
G37*
G36*
X7473883Y2653485D02*
X7472062Y2653429D01*
X7470382Y2653260D01*
X7468842Y2652979D01*
X7467443Y2652585D01*
X7466185Y2652079D01*
X7465067Y2651460D01*
X7464090Y2650728D01*
X7463254Y2649884D01*
X7462558Y2648927D01*
X7462003Y2647858D01*
X7451414Y2671399D01*
X7471612Y2673485D01*
X7473883Y2653485D01*
D02*
G37*
G36*
X6659491Y2626007D02*
X6658391Y2626765D01*
X6657216Y2627444D01*
X6655966Y2628043D01*
X6654643Y2628562D01*
X6653245Y2629002D01*
X6651772Y2629361D01*
X6650225Y2629641D01*
X6648604Y2629840D01*
X6645139Y2630000D01*
Y2650000D01*
X6646908Y2650040D01*
X6650225Y2650359D01*
X6651772Y2650639D01*
X6653245Y2650999D01*
X6654643Y2651438D01*
X6655966Y2651957D01*
X6657216Y2652556D01*
X6658391Y2653235D01*
X6659491Y2653993D01*
Y2626007D01*
D02*
G37*
G36*
X7863487Y2620836D02*
X7863233Y2620190D01*
X7863009Y2619380D01*
X7862815Y2618404D01*
X7862651Y2617262D01*
X7862412Y2614484D01*
X7862277Y2609078D01*
X7837278D01*
X7837263Y2611045D01*
X7836740Y2618404D01*
X7836546Y2619380D01*
X7836322Y2620190D01*
X7836068Y2620836D01*
X7835784Y2621316D01*
X7863771D01*
X7863487Y2620836D01*
D02*
G37*
G36*
X8121810Y2633623D02*
X8124381Y2631504D01*
X8125672Y2630608D01*
X8126968Y2629821D01*
X8128267Y2629143D01*
X8129570Y2628574D01*
X8130877Y2628114D01*
X8132188Y2627763D01*
X8133503Y2627522D01*
X8113713Y2607731D01*
X8113471Y2609046D01*
X8113120Y2610357D01*
X8112660Y2611664D01*
X8112091Y2612968D01*
X8111414Y2614267D01*
X8110627Y2615562D01*
X8109731Y2616854D01*
X8108725Y2618141D01*
X8106388Y2620704D01*
X8120530Y2634846D01*
X8121810Y2633623D01*
D02*
G37*
G36*
X7445413Y2452952D02*
X7444313Y2453711D01*
X7443138Y2454390D01*
X7441888Y2454989D01*
X7440564Y2455508D01*
X7439166Y2455947D01*
X7437694Y2456307D01*
X7436147Y2456586D01*
X7434526Y2456786D01*
X7431061Y2456946D01*
Y2476946D01*
X7432830Y2476986D01*
X7436147Y2477305D01*
X7437694Y2477585D01*
X7439166Y2477944D01*
X7440564Y2478383D01*
X7441888Y2478903D01*
X7443138Y2479502D01*
X7444313Y2480180D01*
X7445413Y2480939D01*
Y2452952D01*
D02*
G37*
G36*
X8057519Y2437734D02*
X8056514Y2438663D01*
X8055425Y2439494D01*
X8054250Y2440228D01*
X8052989Y2440864D01*
X8051643Y2441402D01*
X8050211Y2441843D01*
X8048694Y2442185D01*
X8047091Y2442430D01*
X8045403Y2442576D01*
X8043630Y2442625D01*
X8047382Y2462625D01*
X8049268Y2462648D01*
X8054208Y2462992D01*
X8055615Y2463199D01*
X8058069Y2463749D01*
X8059117Y2464093D01*
X8060045Y2464483D01*
X8060852Y2464918D01*
X8057519Y2437734D01*
D02*
G37*
G36*
X6331782Y2201992D02*
X6330467Y2201750D01*
X6329156Y2201399D01*
X6327849Y2200939D01*
X6326546Y2200370D01*
X6325247Y2199692D01*
X6323951Y2198905D01*
X6322660Y2198009D01*
X6321372Y2197004D01*
X6318809Y2194667D01*
X6304667Y2208809D01*
X6305890Y2210089D01*
X6308009Y2212660D01*
X6308906Y2213951D01*
X6309692Y2215247D01*
X6310370Y2216546D01*
X6310939Y2217849D01*
X6311399Y2219156D01*
X6311750Y2220467D01*
X6311992Y2221782D01*
X6331782Y2201992D01*
D02*
G37*
G36*
X7441576Y2173817D02*
X7440261Y2173575D01*
X7438950Y2173225D01*
X7437643Y2172765D01*
X7436340Y2172196D01*
X7435041Y2171518D01*
X7433745Y2170731D01*
X7432454Y2169835D01*
X7431166Y2168830D01*
X7428603Y2166492D01*
X7414461Y2180634D01*
X7415684Y2181914D01*
X7417804Y2184485D01*
X7418700Y2185776D01*
X7419487Y2187072D01*
X7420164Y2188371D01*
X7420733Y2189674D01*
X7421193Y2190981D01*
X7421544Y2192292D01*
X7421786Y2193607D01*
X7441576Y2173817D01*
D02*
G37*
G36*
X7360200Y2186200D02*
X7360800Y2182800D01*
X7361800Y2179800D01*
X7363200Y2177200D01*
X7365000Y2175000D01*
X7367200Y2173200D01*
X7369800Y2171800D01*
X7372800Y2170800D01*
X7376200Y2170200D01*
X7380000Y2170000D01*
Y2150000D01*
X7376200Y2149800D01*
X7372800Y2149200D01*
X7369800Y2148200D01*
X7367200Y2146800D01*
X7365000Y2145000D01*
X7363200Y2142800D01*
X7361800Y2140200D01*
X7360800Y2137200D01*
X7360200Y2133800D01*
X7360000Y2130000D01*
X7340000Y2160000D01*
X7360000Y2190000D01*
X7360200Y2186200D01*
D02*
G37*
G36*
X6302382Y2063196D02*
X6304953Y2061077D01*
X6306245Y2060181D01*
X6307540Y2059394D01*
X6308839Y2058716D01*
X6310143Y2058147D01*
X6311450Y2057687D01*
X6312761Y2057336D01*
X6314076Y2057095D01*
X6294286Y2037305D01*
X6294044Y2038619D01*
X6293693Y2039930D01*
X6293233Y2041237D01*
X6292664Y2042540D01*
X6291986Y2043840D01*
X6291199Y2045135D01*
X6290303Y2046426D01*
X6289298Y2047714D01*
X6286961Y2050277D01*
X6301103Y2064420D01*
X6302382Y2063196D01*
D02*
G37*
G36*
X7419786Y1989708D02*
X7418685Y1990467D01*
X7417510Y1991146D01*
X7416261Y1991745D01*
X7414937Y1992264D01*
X7413539Y1992703D01*
X7412066Y1993063D01*
X7410520Y1993342D01*
X7408899Y1993542D01*
X7405433Y1993702D01*
Y2013702D01*
X7407203Y2013742D01*
X7410520Y2014061D01*
X7412066Y2014341D01*
X7413539Y2014700D01*
X7414937Y2015139D01*
X7416261Y2015659D01*
X7417510Y2016258D01*
X7418685Y2016937D01*
X7419786Y2017695D01*
Y1989708D01*
D02*
G37*
G36*
X7360199Y2036200D02*
X7360798Y2032800D01*
X7361794Y2029800D01*
X7363190Y2027200D01*
X7364984Y2025000D01*
X7367177Y2023200D01*
X7369769Y2021800D01*
X7372760Y2020800D01*
X7376149Y2020200D01*
X7379937Y2020000D01*
Y2000000D01*
X7376149Y1999800D01*
X7372760Y1999200D01*
X7369769Y1998200D01*
X7367177Y1996800D01*
X7364984Y1995000D01*
X7363190Y1992800D01*
X7361794Y1990200D01*
X7360798Y1987200D01*
X7360199Y1983800D01*
X7360000Y1980000D01*
X7340000Y2010000D01*
X7360000Y2040000D01*
X7360199Y2036200D01*
D02*
G37*
G36*
X6955263Y1964760D02*
X6954163Y1965519D01*
X6952988Y1966197D01*
X6951738Y1966796D01*
X6950415Y1967316D01*
X6949017Y1967755D01*
X6947544Y1968114D01*
X6945997Y1968394D01*
X6944376Y1968593D01*
X6940911Y1968753D01*
Y1988753D01*
X6942681Y1988793D01*
X6945997Y1989113D01*
X6947544Y1989392D01*
X6949017Y1989752D01*
X6950415Y1990191D01*
X6951738Y1990710D01*
X6952988Y1991309D01*
X6954163Y1991988D01*
X6955263Y1992747D01*
Y1964760D01*
D02*
G37*
G36*
X7890040Y1943092D02*
X7890359Y1939775D01*
X7890639Y1938228D01*
X7890998Y1936756D01*
X7891438Y1935358D01*
X7891957Y1934034D01*
X7892556Y1932785D01*
X7893235Y1931609D01*
X7893993Y1930509D01*
X7866007D01*
X7866765Y1931609D01*
X7867444Y1932785D01*
X7868043Y1934034D01*
X7868562Y1935358D01*
X7869002Y1936756D01*
X7869361Y1938228D01*
X7869641Y1939775D01*
X7869840Y1941396D01*
X7870000Y1944861D01*
X7890000D01*
X7890040Y1943092D01*
D02*
G37*
G36*
X7816813Y1866482D02*
X7817335Y1859124D01*
X7817530Y1858148D01*
X7817753Y1857337D01*
X7818007Y1856691D01*
X7818291Y1856211D01*
X7790304D01*
X7790588Y1856691D01*
X7790842Y1857337D01*
X7791066Y1858148D01*
X7791260Y1859124D01*
X7791425Y1860265D01*
X7791663Y1863043D01*
X7791798Y1868450D01*
X7816798D01*
X7816813Y1866482D01*
D02*
G37*
G36*
X6300040Y1843092D02*
X6300360Y1839775D01*
X6300639Y1838228D01*
X6300999Y1836756D01*
X6301438Y1835358D01*
X6301957Y1834034D01*
X6302556Y1832784D01*
X6303235Y1831609D01*
X6303993Y1830509D01*
X6276007D01*
X6276765Y1831609D01*
X6277444Y1832784D01*
X6278043Y1834034D01*
X6278563Y1835358D01*
X6279002Y1836756D01*
X6279361Y1838228D01*
X6279641Y1839775D01*
X6279840Y1841396D01*
X6280000Y1844861D01*
X6300000D01*
X6300040Y1843092D01*
D02*
G37*
G36*
X6303235Y1808391D02*
X6302556Y1807215D01*
X6301957Y1805966D01*
X6301438Y1804642D01*
X6300999Y1803244D01*
X6300639Y1801772D01*
X6300360Y1800225D01*
X6300160Y1798604D01*
X6300000Y1795139D01*
X6280000D01*
X6279960Y1796908D01*
X6279641Y1800225D01*
X6279361Y1801772D01*
X6279002Y1803244D01*
X6278563Y1804642D01*
X6278043Y1805966D01*
X6277444Y1807215D01*
X6276765Y1808391D01*
X6276007Y1809491D01*
X6303993D01*
X6303235Y1808391D01*
D02*
G37*
G36*
X6300055Y1636164D02*
X6300220Y1634482D01*
X6300494Y1632956D01*
X6300878Y1631585D01*
X6301372Y1630369D01*
X6301976Y1629309D01*
X6302690Y1628403D01*
X6303513Y1627653D01*
X6304446Y1627057D01*
X6305489Y1626617D01*
X6283105Y1614563D01*
X6280000Y1634861D01*
X6300000Y1638000D01*
X6300055Y1636164D01*
D02*
G37*
G36*
X6317031Y1614409D02*
X6317517Y1613619D01*
X6318227Y1612642D01*
X6320317Y1610125D01*
X6325125Y1604942D01*
X6329446Y1600550D01*
X6314940Y1586772D01*
X6313643Y1587994D01*
X6312340Y1589074D01*
X6311031Y1590012D01*
X6309715Y1590807D01*
X6308394Y1591459D01*
X6307066Y1591969D01*
X6305732Y1592336D01*
X6304392Y1592561D01*
X6303046Y1592643D01*
X6301693Y1592582D01*
X6316767Y1615012D01*
X6317031Y1614409D01*
D02*
G37*
G36*
X4873235Y1448391D02*
X4872556Y1447215D01*
X4871957Y1445966D01*
X4871438Y1444642D01*
X4870998Y1443244D01*
X4870639Y1441772D01*
X4870359Y1440225D01*
X4870160Y1438604D01*
X4870000Y1435139D01*
X4850000D01*
X4849960Y1436908D01*
X4849641Y1440225D01*
X4849361Y1441772D01*
X4849001Y1443244D01*
X4848562Y1444642D01*
X4848043Y1445966D01*
X4847444Y1447215D01*
X4846765Y1448391D01*
X4846007Y1449491D01*
X4873993D01*
X4873235Y1448391D01*
D02*
G37*
G36*
X6526191Y1388087D02*
X6526340Y1386400D01*
X6526588Y1384799D01*
X6526935Y1383286D01*
X6527381Y1381860D01*
X6527927Y1380520D01*
X6528571Y1379268D01*
X6529315Y1378103D01*
X6530158Y1377025D01*
X6531100Y1376034D01*
X6504013Y1372396D01*
X6504417Y1373167D01*
X6504779Y1374063D01*
X6505098Y1375084D01*
X6505375Y1376231D01*
X6505609Y1377503D01*
X6505950Y1380421D01*
X6506120Y1383841D01*
X6506142Y1385738D01*
X6526142Y1389862D01*
X6526191Y1388087D01*
D02*
G37*
G36*
X6900232Y1396825D02*
X6902803Y1394705D01*
X6904095Y1393810D01*
X6905390Y1393022D01*
X6906689Y1392344D01*
X6907993Y1391775D01*
X6909299Y1391315D01*
X6910610Y1390965D01*
X6911925Y1390723D01*
X6892136Y1370933D01*
X6891894Y1372248D01*
X6891543Y1373559D01*
X6891083Y1374866D01*
X6890514Y1376169D01*
X6889836Y1377468D01*
X6889049Y1378764D01*
X6888153Y1380055D01*
X6887148Y1381343D01*
X6884810Y1383906D01*
X6898953Y1398048D01*
X6900232Y1396825D01*
D02*
G37*
G36*
X6521476Y1346055D02*
X6520161Y1345813D01*
X6518850Y1345462D01*
X6517543Y1345002D01*
X6516240Y1344433D01*
X6514940Y1343755D01*
X6513645Y1342968D01*
X6512354Y1342072D01*
X6511066Y1341067D01*
X6508503Y1338730D01*
X6494361Y1352872D01*
X6495584Y1354151D01*
X6497704Y1356722D01*
X6498599Y1358014D01*
X6499387Y1359309D01*
X6500064Y1360608D01*
X6500633Y1361912D01*
X6501093Y1363219D01*
X6501444Y1364529D01*
X6501686Y1365844D01*
X6521476Y1346055D01*
D02*
G37*
G36*
X5806169Y1366169D02*
X5833195Y1310858D01*
X5831860Y1311793D01*
X5830666Y1311788D01*
X5829612Y1310842D01*
X5828699Y1308955D01*
X5827926Y1306128D01*
X5827293Y1302361D01*
X5826239Y1285414D01*
X5826169Y1277885D01*
X5786169Y1317885D01*
X5785886Y1325768D01*
X5785038Y1333416D01*
X5783623Y1340830D01*
X5781644Y1348010D01*
X5779098Y1354956D01*
X5775987Y1361667D01*
X5772310Y1368144D01*
X5768067Y1374387D01*
X5763259Y1380395D01*
X5757885Y1386169D01*
X5806169Y1366169D01*
D02*
G37*
G36*
X6880216Y1225472D02*
Y1107728D01*
X6865215Y1100126D01*
X6852884Y1105233D01*
X6833988D01*
X6816530Y1098002D01*
X6803168Y1084640D01*
X6795936Y1067182D01*
Y1048285D01*
X6803168Y1030827D01*
X6816530Y1017465D01*
X6833988Y1010234D01*
X6852884D01*
X6865215Y1015341D01*
X6880216Y1007739D01*
Y759003D01*
X6880215Y759001D01*
X6883320Y743394D01*
X6892161Y730163D01*
X7021706Y600618D01*
X7022921Y587868D01*
X7021551Y581592D01*
X7017792Y578708D01*
X7006172Y563563D01*
X6998866Y545927D01*
X6996375Y527000D01*
Y402000D01*
X6998866Y383073D01*
X7001886Y375784D01*
X6992174Y361249D01*
X6977826D01*
X6968114Y375784D01*
X6971134Y383073D01*
X6973625Y402000D01*
Y527000D01*
X6971134Y545927D01*
X6963828Y563563D01*
X6952208Y578708D01*
X6937063Y590329D01*
X6919426Y597634D01*
X6900500Y600126D01*
X6815500D01*
X6796574Y597634D01*
X6778937Y590329D01*
X6763792Y578708D01*
X6752172Y563563D01*
X6744866Y545927D01*
X6742375Y527000D01*
Y402000D01*
X6744866Y383073D01*
X6747886Y375784D01*
X6738174Y361249D01*
X6723826D01*
X6714114Y375784D01*
X6717134Y383073D01*
X6719625Y402000D01*
Y527000D01*
X6717134Y545927D01*
X6709828Y563563D01*
X6698208Y578708D01*
X6683063Y590329D01*
X6665426Y597634D01*
X6646500Y600126D01*
X6561500D01*
X6542574Y597634D01*
X6529646Y592279D01*
X6521150Y604995D01*
X6578839Y662684D01*
X6587679Y675916D01*
X6590784Y691523D01*
X6590784Y691524D01*
Y834337D01*
X6592146Y837626D01*
X6592253Y837786D01*
X6592290Y837975D01*
X6597500Y850552D01*
Y869448D01*
X6593119Y880025D01*
X6601620Y883547D01*
X6614982Y896909D01*
X6622214Y914367D01*
Y933264D01*
X6614982Y950722D01*
X6601620Y964084D01*
X6584162Y971315D01*
X6565266D01*
X6547807Y964084D01*
X6546770Y963046D01*
X6531770Y969259D01*
Y1086156D01*
X6533132Y1089445D01*
X6533239Y1089605D01*
X6533276Y1089793D01*
X6538486Y1102370D01*
Y1121267D01*
X6533276Y1133844D01*
X6533239Y1134033D01*
X6533132Y1134193D01*
X6531770Y1137482D01*
Y1188480D01*
X6532453Y1188920D01*
X6546770Y1193079D01*
X6557051Y1182797D01*
X6574509Y1175566D01*
X6593406D01*
X6610864Y1182797D01*
X6624226Y1196159D01*
X6631457Y1213618D01*
Y1232514D01*
X6624226Y1249972D01*
X6610864Y1263334D01*
X6593406Y1270566D01*
X6574509D01*
X6557051Y1263334D01*
X6546770Y1253053D01*
X6532453Y1257212D01*
X6531770Y1257652D01*
Y1317252D01*
X6532992Y1317758D01*
X6533181Y1317795D01*
X6533341Y1317902D01*
X6545918Y1323112D01*
X6551124Y1328318D01*
X6567400Y1323380D01*
X6567901Y1320861D01*
X6578952Y1304322D01*
X6595491Y1293271D01*
X6615000Y1289390D01*
X6634509Y1293271D01*
X6651048Y1304322D01*
X6661613Y1314886D01*
X6672664Y1331425D01*
X6676544Y1350935D01*
Y1409545D01*
X6690402Y1415285D01*
X6880216Y1225472D01*
D02*
G37*
G36*
X5905125Y1285952D02*
X5903902Y1284673D01*
X5901782Y1282102D01*
X5900887Y1280810D01*
X5900099Y1279515D01*
X5899422Y1278216D01*
X5898853Y1276913D01*
X5898393Y1275606D01*
X5898042Y1274295D01*
X5897800Y1272980D01*
X5878010Y1292770D01*
X5879325Y1293011D01*
X5880636Y1293362D01*
X5881943Y1293822D01*
X5883246Y1294391D01*
X5884546Y1295069D01*
X5885841Y1295856D01*
X5887132Y1296752D01*
X5888420Y1297757D01*
X5890983Y1300095D01*
X5905125Y1285952D01*
D02*
G37*
G36*
X5741052Y1359191D02*
X5743440Y1356206D01*
X5746317Y1351973D01*
X5748765Y1347662D01*
X5750815Y1343239D01*
X5752490Y1338668D01*
X5753809Y1333886D01*
X5754768Y1328858D01*
X5755189Y1325059D01*
Y1255192D01*
X5741331Y1249452D01*
X5473340Y1517443D01*
X5479794Y1532203D01*
X5495077Y1538533D01*
X5508439Y1551895D01*
X5513914Y1565114D01*
X5529528Y1570714D01*
X5741052Y1359191D01*
D02*
G37*
G36*
X5935616Y1236175D02*
X5934289Y1234818D01*
X5931021Y1231099D01*
X5930169Y1229975D01*
X5928820Y1227904D01*
X5928324Y1226956D01*
X5927946Y1226067D01*
X5927687Y1225236D01*
X5911106Y1246962D01*
X5912473Y1246996D01*
X5913831Y1247163D01*
X5915181Y1247461D01*
X5916522Y1247890D01*
X5917855Y1248452D01*
X5919179Y1249145D01*
X5920494Y1249969D01*
X5921801Y1250926D01*
X5923100Y1252014D01*
X5924390Y1253233D01*
X5935616Y1236175D01*
D02*
G37*
G36*
X7639052Y1186338D02*
X7637951Y1187097D01*
X7636776Y1187776D01*
X7635527Y1188375D01*
X7634203Y1188894D01*
X7632805Y1189333D01*
X7631333Y1189693D01*
X7629786Y1189972D01*
X7628165Y1190172D01*
X7624700Y1190332D01*
Y1210332D01*
X7626469Y1210372D01*
X7629786Y1210691D01*
X7631333Y1210971D01*
X7632805Y1211330D01*
X7634203Y1211769D01*
X7635527Y1212289D01*
X7636776Y1212888D01*
X7637951Y1213567D01*
X7639052Y1214325D01*
Y1186338D01*
D02*
G37*
G36*
X6501026Y1134910D02*
X6501346Y1131594D01*
X6501625Y1130047D01*
X6501985Y1128574D01*
X6502424Y1127176D01*
X6502943Y1125852D01*
X6503542Y1124603D01*
X6504221Y1123428D01*
X6504980Y1122327D01*
X6476993D01*
X6477752Y1123428D01*
X6478431Y1124603D01*
X6479029Y1125852D01*
X6479549Y1127176D01*
X6479988Y1128574D01*
X6480347Y1130047D01*
X6480627Y1131594D01*
X6480827Y1133215D01*
X6480986Y1136680D01*
X6500986D01*
X6501026Y1134910D01*
D02*
G37*
G36*
X6504221Y1100209D02*
X6503542Y1099034D01*
X6502943Y1097785D01*
X6502424Y1096461D01*
X6501985Y1095063D01*
X6501625Y1093591D01*
X6501346Y1092044D01*
X6501146Y1090423D01*
X6500986Y1086957D01*
X6480986D01*
X6480946Y1088727D01*
X6480627Y1092044D01*
X6480347Y1093591D01*
X6479988Y1095063D01*
X6479549Y1096461D01*
X6479029Y1097785D01*
X6478431Y1099034D01*
X6477752Y1100209D01*
X6476993Y1101310D01*
X6504980D01*
X6504221Y1100209D01*
D02*
G37*
G36*
X5495603Y1080034D02*
X5494288Y1079792D01*
X5492978Y1079442D01*
X5491671Y1078982D01*
X5490367Y1078413D01*
X5489068Y1077735D01*
X5487773Y1076948D01*
X5486482Y1076052D01*
X5485194Y1075046D01*
X5482631Y1072709D01*
X5468489Y1086851D01*
X5469712Y1088131D01*
X5471831Y1090702D01*
X5472727Y1091993D01*
X5473514Y1093289D01*
X5474192Y1094588D01*
X5474761Y1095891D01*
X5475221Y1097198D01*
X5475572Y1098509D01*
X5475814Y1099824D01*
X5495603Y1080034D01*
D02*
G37*
G36*
X7149217Y1353107D02*
Y1203986D01*
X7138052D01*
X7120594Y1196754D01*
X7107232Y1183392D01*
X7100000Y1165934D01*
Y1147038D01*
X7107232Y1129579D01*
X7120594Y1116217D01*
X7138052Y1108986D01*
X7149217D01*
Y1053158D01*
X7132498D01*
X7119921Y1047949D01*
X7119732Y1047911D01*
X7119572Y1047804D01*
X7116283Y1046442D01*
X7081235D01*
X7000783Y1126894D01*
Y1259999D01*
X7000784Y1260000D01*
X6997679Y1275607D01*
X6988838Y1288838D01*
X6940458Y1337219D01*
X6949730Y1346491D01*
X6956961Y1363949D01*
Y1382846D01*
X6949730Y1400304D01*
X6947626Y1402407D01*
X6950553Y1417119D01*
X6952794Y1418047D01*
X6966156Y1431409D01*
X6973387Y1448867D01*
Y1467764D01*
X6966156Y1485222D01*
X6952794Y1498584D01*
X6935336Y1505815D01*
X6916439D01*
X6898981Y1498584D01*
X6885619Y1485222D01*
X6879654Y1470822D01*
X6864529Y1464733D01*
X6548651Y1780612D01*
Y1934075D01*
X6562509Y1939815D01*
X7149217Y1353107D01*
D02*
G37*
G36*
X3402515Y1050780D02*
X3403038Y1043421D01*
X3403232Y1042445D01*
X3403456Y1041635D01*
X3403710Y1040989D01*
X3403993Y1040509D01*
X3376007D01*
X3376290Y1040989D01*
X3376544Y1041635D01*
X3376768Y1042445D01*
X3376963Y1043421D01*
X3377127Y1044563D01*
X3377366Y1047341D01*
X3377500Y1052747D01*
X3402500D01*
X3402515Y1050780D01*
D02*
G37*
G36*
X7639491Y1016007D02*
X7638391Y1016765D01*
X7637215Y1017444D01*
X7635966Y1018043D01*
X7634642Y1018562D01*
X7633244Y1019002D01*
X7631772Y1019361D01*
X7630225Y1019641D01*
X7628604Y1019840D01*
X7625139Y1020000D01*
Y1040000D01*
X7626908Y1040040D01*
X7630225Y1040359D01*
X7631772Y1040639D01*
X7633244Y1040998D01*
X7634642Y1041438D01*
X7635966Y1041957D01*
X7637215Y1042556D01*
X7638391Y1043235D01*
X7639491Y1043993D01*
Y1016007D01*
D02*
G37*
G36*
X7131437Y991665D02*
X7130337Y992424D01*
X7129162Y993103D01*
X7127912Y993702D01*
X7126588Y994221D01*
X7125190Y994660D01*
X7123718Y995020D01*
X7122171Y995299D01*
X7120550Y995499D01*
X7117085Y995659D01*
Y1015659D01*
X7118854Y1015699D01*
X7122171Y1016018D01*
X7123718Y1016298D01*
X7125190Y1016657D01*
X7126588Y1017096D01*
X7127912Y1017615D01*
X7129162Y1018214D01*
X7130337Y1018893D01*
X7131437Y1019652D01*
Y991665D01*
D02*
G37*
G36*
X7578674Y1035726D02*
X7581466Y1033710D01*
X7584234Y1032235D01*
X7586977Y1031302D01*
X7589697Y1030910D01*
X7592392Y1031059D01*
X7595063Y1031750D01*
X7597709Y1032982D01*
X7600331Y1034756D01*
X7602929Y1037071D01*
X7617071Y1022929D01*
X7614756Y1020331D01*
X7612982Y1017709D01*
X7611750Y1015062D01*
X7611059Y1012392D01*
X7610910Y1009697D01*
X7611302Y1006977D01*
X7612235Y1004234D01*
X7613710Y1001466D01*
X7615726Y998674D01*
X7618284Y995858D01*
X7597071Y988787D01*
X7582929Y1002929D01*
X7575858Y1038284D01*
X7578674Y1035726D01*
D02*
G37*
G36*
X3990500Y1016900D02*
X3992000Y1010100D01*
X3994500Y1004100D01*
X3998000Y998900D01*
X4002500Y994500D01*
X4008000Y990900D01*
X4014500Y988100D01*
X4022000Y986100D01*
X4030500Y984900D01*
X4040000Y984500D01*
X3970000Y934500D01*
X3900000Y984500D01*
X3909500Y984900D01*
X3918000Y986100D01*
X3925500Y988100D01*
X3932000Y990900D01*
X3937500Y994500D01*
X3942000Y998900D01*
X3945500Y1004100D01*
X3948000Y1010100D01*
X3949500Y1016900D01*
X3950000Y1024500D01*
X3990000D01*
X3990500Y1016900D01*
D02*
G37*
G36*
X5420040Y903092D02*
X5420359Y899775D01*
X5420639Y898228D01*
X5420999Y896756D01*
X5421438Y895358D01*
X5421957Y894034D01*
X5422556Y892785D01*
X5423235Y891609D01*
X5423993Y890509D01*
X5396007D01*
X5396765Y891609D01*
X5397444Y892785D01*
X5398043Y894034D01*
X5398562Y895358D01*
X5399002Y896756D01*
X5399361Y898228D01*
X5399641Y899775D01*
X5399840Y901396D01*
X5400000Y904861D01*
X5420000D01*
X5420040Y903092D01*
D02*
G37*
G36*
X3469969Y810031D02*
X3434613Y774676D01*
X3388652Y799425D01*
X3395157Y806354D01*
X3400531Y813001D01*
X3404773Y819365D01*
X3407885Y825446D01*
X3409865Y831244D01*
X3410713Y836760D01*
X3410430Y841992D01*
X3409016Y846942D01*
X3406471Y851609D01*
X3402794Y855993D01*
X3424007Y877207D01*
X3428391Y873529D01*
X3433058Y870984D01*
X3438008Y869570D01*
X3443240Y869287D01*
X3448756Y870135D01*
X3454554Y872115D01*
X3460635Y875227D01*
X3466999Y879469D01*
X3473646Y884843D01*
X3480575Y891348D01*
X3469969Y810031D01*
D02*
G37*
G36*
X6540771Y883427D02*
X6543342Y881308D01*
X6544634Y880412D01*
X6545929Y879625D01*
X6547228Y878947D01*
X6548531Y878378D01*
X6549838Y877918D01*
X6551149Y877567D01*
X6552464Y877326D01*
X6532675Y857536D01*
X6532433Y858851D01*
X6532082Y860162D01*
X6531622Y861469D01*
X6531053Y862772D01*
X6530375Y864071D01*
X6529588Y865366D01*
X6528692Y866658D01*
X6527687Y867945D01*
X6525349Y870509D01*
X6539492Y884651D01*
X6540771Y883427D01*
D02*
G37*
G36*
X5427568Y881149D02*
X5427918Y879838D01*
X5428378Y878531D01*
X5428947Y877228D01*
X5429625Y875929D01*
X5430412Y874634D01*
X5431308Y873342D01*
X5432313Y872055D01*
X5434651Y869492D01*
X5420509Y855349D01*
X5419229Y856573D01*
X5416658Y858692D01*
X5415366Y859588D01*
X5414071Y860375D01*
X5412772Y861053D01*
X5411469Y861622D01*
X5410162Y862082D01*
X5408851Y862433D01*
X5407536Y862674D01*
X5427326Y882464D01*
X5427568Y881149D01*
D02*
G37*
G36*
X6563235Y848391D02*
X6562556Y847215D01*
X6561957Y845966D01*
X6561438Y844642D01*
X6560999Y843244D01*
X6560639Y841772D01*
X6560359Y840225D01*
X6560160Y838604D01*
X6560000Y835139D01*
X6540000D01*
X6539960Y836908D01*
X6539641Y840225D01*
X6539361Y841772D01*
X6539002Y843244D01*
X6538562Y844642D01*
X6538043Y845966D01*
X6537444Y847215D01*
X6536765Y848391D01*
X6536007Y849491D01*
X6563993D01*
X6563235Y848391D01*
D02*
G37*
G36*
X5915737Y839658D02*
X5915886Y837971D01*
X5916133Y836370D01*
X5916480Y834857D01*
X5916927Y833431D01*
X5917472Y832092D01*
X5918117Y830839D01*
X5918861Y829674D01*
X5919703Y828596D01*
X5920646Y827605D01*
X5893558Y823967D01*
X5893963Y824738D01*
X5894325Y825634D01*
X5894644Y826656D01*
X5894921Y827802D01*
X5895155Y829074D01*
X5895496Y831993D01*
X5895666Y835412D01*
X5895687Y837310D01*
X5915687Y841433D01*
X5915737Y839658D01*
D02*
G37*
G36*
X7427944Y846806D02*
X7430515Y844687D01*
X7431807Y843791D01*
X7433102Y843004D01*
X7434401Y842326D01*
X7435704Y841757D01*
X7437011Y841297D01*
X7438322Y840946D01*
X7439637Y840704D01*
X7419847Y820915D01*
X7419605Y822229D01*
X7419255Y823540D01*
X7418795Y824847D01*
X7418226Y826150D01*
X7417548Y827450D01*
X7416761Y828745D01*
X7415865Y830036D01*
X7414859Y831324D01*
X7412522Y833887D01*
X7426664Y848029D01*
X7427944Y846806D01*
D02*
G37*
G36*
X5836827Y816877D02*
X5835726Y817636D01*
X5834551Y818315D01*
X5833302Y818914D01*
X5831978Y819433D01*
X5830580Y819872D01*
X5829107Y820231D01*
X5827561Y820511D01*
X5825940Y820711D01*
X5822474Y820870D01*
Y840870D01*
X5824244Y840910D01*
X5827561Y841230D01*
X5829107Y841509D01*
X5830580Y841869D01*
X5831978Y842308D01*
X5833302Y842827D01*
X5834551Y843426D01*
X5835726Y844105D01*
X5836827Y844864D01*
Y816877D01*
D02*
G37*
G36*
X7669491Y816007D02*
X7668391Y816765D01*
X7667215Y817444D01*
X7665966Y818043D01*
X7664642Y818562D01*
X7663244Y819002D01*
X7661772Y819361D01*
X7660225Y819641D01*
X7658604Y819840D01*
X7655139Y820000D01*
Y840000D01*
X7656908Y840040D01*
X7660225Y840360D01*
X7661772Y840639D01*
X7663244Y840999D01*
X7664642Y841438D01*
X7665966Y841957D01*
X7667215Y842556D01*
X7668391Y843235D01*
X7669491Y843993D01*
Y816007D01*
D02*
G37*
G36*
X6975108Y808515D02*
X6976284Y807836D01*
X6977533Y807237D01*
X6978857Y806718D01*
X6980255Y806279D01*
X6981727Y805920D01*
X6983274Y805640D01*
X6984895Y805440D01*
X6988360Y805281D01*
Y785281D01*
X6986591Y785241D01*
X6983274Y784921D01*
X6981727Y784642D01*
X6980255Y784282D01*
X6978857Y783843D01*
X6977533Y783324D01*
X6976284Y782725D01*
X6975108Y782046D01*
X6974008Y781287D01*
Y809274D01*
X6975108Y808515D01*
D02*
G37*
G36*
X7637752Y653019D02*
X7637917Y651336D01*
X7638191Y649761D01*
X7638576Y648295D01*
X7639070Y646936D01*
X7639673Y645685D01*
X7640387Y644543D01*
X7641210Y643508D01*
X7642143Y642581D01*
X7643186Y641763D01*
X7622677Y636332D01*
Y613408D01*
X7621577Y614167D01*
X7620402Y614846D01*
X7619152Y615445D01*
X7617829Y615964D01*
X7616431Y616403D01*
X7614958Y616763D01*
X7613411Y617042D01*
X7611790Y617242D01*
X7608325Y617402D01*
Y637402D01*
X7610095Y637441D01*
X7613411Y637761D01*
X7614958Y638041D01*
X7616431Y638400D01*
X7617566Y638757D01*
X7617648Y642293D01*
X7617697Y654518D01*
X7637697Y654810D01*
X7637752Y653019D01*
D02*
G37*
G36*
X7147071Y611476D02*
X7146034Y612368D01*
X7144915Y613167D01*
X7143715Y613872D01*
X7142433Y614482D01*
X7141070Y614999D01*
X7139625Y615422D01*
X7138099Y615751D01*
X7136491Y615986D01*
X7134802Y616127D01*
X7133031Y616174D01*
X7135809Y636174D01*
X7137665Y636201D01*
X7142594Y636611D01*
X7144024Y636856D01*
X7145348Y637157D01*
X7146565Y637512D01*
X7147676Y637922D01*
X7148681Y638386D01*
X7149579Y638904D01*
X7147071Y611476D01*
D02*
G37*
G36*
X6494521Y621902D02*
X6493298Y620622D01*
X6491179Y618051D01*
X6490283Y616760D01*
X6489496Y615465D01*
X6488818Y614165D01*
X6488249Y612862D01*
X6487789Y611555D01*
X6487438Y610244D01*
X6487196Y608929D01*
X6467407Y628719D01*
X6468722Y628961D01*
X6470033Y629312D01*
X6471339Y629772D01*
X6472643Y630341D01*
X6473942Y631019D01*
X6475237Y631806D01*
X6476529Y632702D01*
X6477816Y633707D01*
X6480379Y636044D01*
X6494521Y621902D01*
D02*
G37*
G36*
X6483169Y599859D02*
X6482504Y598693D01*
X6481917Y597451D01*
X6481408Y596132D01*
X6480978Y594738D01*
X6480626Y593267D01*
X6480352Y591720D01*
X6480156Y590097D01*
X6480000Y586623D01*
X6460000Y586443D01*
X6459959Y588211D01*
X6459635Y591526D01*
X6459352Y593072D01*
X6458987Y594544D01*
X6458542Y595941D01*
X6458015Y597265D01*
X6457407Y598514D01*
X6456718Y599689D01*
X6455949Y600790D01*
X6483913Y600950D01*
X6483169Y599859D01*
D02*
G37*
G36*
X6480200Y346200D02*
X6480800Y342800D01*
X6481800Y339800D01*
X6483200Y337200D01*
X6485000Y335000D01*
X6487200Y333200D01*
X6489800Y331800D01*
X6492800Y330800D01*
X6496200Y330200D01*
X6500000Y330000D01*
X6470000Y310000D01*
X6440000Y330000D01*
X6443800Y330200D01*
X6447200Y330800D01*
X6450200Y331800D01*
X6452800Y333200D01*
X6455000Y335000D01*
X6456800Y337200D01*
X6458200Y339800D01*
X6459200Y342800D01*
X6459800Y346200D01*
X6460000Y350000D01*
X6480000D01*
X6480200Y346200D01*
D02*
G37*
G36*
X5470200D02*
X5470800Y342800D01*
X5471800Y339800D01*
X5473200Y337200D01*
X5475000Y335000D01*
X5477200Y333200D01*
X5479800Y331800D01*
X5482800Y330800D01*
X5486200Y330200D01*
X5490000Y330000D01*
X5460000Y310000D01*
X5430000Y330000D01*
X5433800Y330200D01*
X5437200Y330800D01*
X5440200Y331800D01*
X5442800Y333200D01*
X5445000Y335000D01*
X5446800Y337200D01*
X5448200Y339800D01*
X5449200Y342800D01*
X5449800Y346200D01*
X5450000Y350000D01*
X5470000D01*
X5470200Y346200D01*
D02*
G37*
%LPC*%
G36*
X8154250Y5118136D02*
X8123000D01*
Y5015000D01*
X8228636D01*
Y5043750D01*
X8226101Y5063002D01*
X8218670Y5080943D01*
X8206849Y5096349D01*
X8191443Y5108170D01*
X8173502Y5115601D01*
X8154250Y5118136D01*
D02*
G37*
G36*
X8103000D02*
X8071750D01*
X8052497Y5115601D01*
X8034557Y5108170D01*
X8019151Y5096349D01*
X8007330Y5080943D01*
X7999898Y5063002D01*
X7997364Y5043750D01*
Y5015000D01*
X8103000D01*
Y5118136D01*
D02*
G37*
G36*
X8228636Y4995000D02*
X8123000D01*
Y4891864D01*
X8154250D01*
X8173502Y4894398D01*
X8191443Y4901830D01*
X8206849Y4913651D01*
X8218670Y4929057D01*
X8226101Y4946997D01*
X8228636Y4966250D01*
Y4995000D01*
D02*
G37*
G36*
X8103000D02*
X7997364D01*
Y4966250D01*
X7999898Y4946997D01*
X8007330Y4929057D01*
X8019151Y4913651D01*
X8034557Y4901830D01*
X8052497Y4894398D01*
X8071750Y4891864D01*
X8103000D01*
Y4995000D01*
D02*
G37*
G36*
X7662500Y5132126D02*
X7577500D01*
X7558574Y5129634D01*
X7540937Y5122329D01*
X7525792Y5110708D01*
X7514172Y5095563D01*
X7506866Y5077927D01*
X7504375Y5059000D01*
Y4934000D01*
X7506866Y4915073D01*
X7514172Y4897437D01*
X7525792Y4882292D01*
X7540937Y4870671D01*
X7558574Y4863366D01*
X7577500Y4860874D01*
X7662500D01*
X7681426Y4863366D01*
X7699063Y4870671D01*
X7714208Y4882292D01*
X7725828Y4897437D01*
X7733134Y4915073D01*
X7735625Y4934000D01*
Y5059000D01*
X7733134Y5077927D01*
X7725828Y5095563D01*
X7714208Y5110708D01*
X7699063Y5122329D01*
X7681426Y5129634D01*
X7662500Y5132126D01*
D02*
G37*
G36*
X7408500D02*
X7323500D01*
X7304574Y5129634D01*
X7286937Y5122329D01*
X7271792Y5110708D01*
X7260172Y5095563D01*
X7252866Y5077927D01*
X7250375Y5059000D01*
Y4934000D01*
X7252866Y4915073D01*
X7260172Y4897437D01*
X7271792Y4882292D01*
X7286937Y4870671D01*
X7304574Y4863366D01*
X7323500Y4860874D01*
X7408500D01*
X7427426Y4863366D01*
X7445063Y4870671D01*
X7460208Y4882292D01*
X7471828Y4897437D01*
X7479134Y4915073D01*
X7481625Y4934000D01*
Y5059000D01*
X7479134Y5077927D01*
X7471828Y5095563D01*
X7460208Y5110708D01*
X7445063Y5122329D01*
X7427426Y5129634D01*
X7408500Y5132126D01*
D02*
G37*
G36*
X7154500D02*
X7069500D01*
X7050574Y5129634D01*
X7032937Y5122329D01*
X7017792Y5110708D01*
X7006172Y5095563D01*
X6998866Y5077927D01*
X6996375Y5059000D01*
Y4934000D01*
X6998866Y4915073D01*
X7006172Y4897437D01*
X7017792Y4882292D01*
X7032937Y4870671D01*
X7050574Y4863366D01*
X7069500Y4860874D01*
X7154500D01*
X7173426Y4863366D01*
X7191063Y4870671D01*
X7206208Y4882292D01*
X7217828Y4897437D01*
X7225134Y4915073D01*
X7227625Y4934000D01*
Y5059000D01*
X7225134Y5077927D01*
X7217828Y5095563D01*
X7206208Y5110708D01*
X7191063Y5122329D01*
X7173426Y5129634D01*
X7154500Y5132126D01*
D02*
G37*
G36*
X6900500D02*
X6815500D01*
X6796574Y5129634D01*
X6778937Y5122329D01*
X6763792Y5110708D01*
X6752172Y5095563D01*
X6744866Y5077927D01*
X6742375Y5059000D01*
Y4934000D01*
X6744866Y4915073D01*
X6752172Y4897437D01*
X6763792Y4882292D01*
X6778937Y4870671D01*
X6796574Y4863366D01*
X6815500Y4860874D01*
X6900500D01*
X6919426Y4863366D01*
X6937063Y4870671D01*
X6952208Y4882292D01*
X6963828Y4897437D01*
X6971134Y4915073D01*
X6973625Y4934000D01*
Y5059000D01*
X6971134Y5077927D01*
X6963828Y5095563D01*
X6952208Y5110708D01*
X6937063Y5122329D01*
X6919426Y5129634D01*
X6900500Y5132126D01*
D02*
G37*
G36*
X7220238Y4769110D02*
X7201342D01*
X7183884Y4761879D01*
X7170522Y4748517D01*
X7163290Y4731059D01*
Y4712162D01*
X7170522Y4694704D01*
X7183884Y4681342D01*
X7201342Y4674111D01*
X7220238D01*
X7237696Y4681342D01*
X7251058Y4694704D01*
X7258290Y4712162D01*
Y4731059D01*
X7251058Y4748517D01*
X7237696Y4761879D01*
X7220238Y4769110D01*
D02*
G37*
G36*
X8189448Y4757500D02*
X8170552D01*
X8153093Y4750268D01*
X8139731Y4736906D01*
X8132500Y4719448D01*
Y4700552D01*
X8139731Y4683094D01*
X8148024Y4674800D01*
X8142417Y4669193D01*
X8135186Y4651735D01*
Y4632838D01*
X8142417Y4615380D01*
X8155779Y4602018D01*
X8173237Y4594787D01*
X8192134D01*
X8209592Y4602018D01*
X8222954Y4615380D01*
X8230185Y4632838D01*
Y4651735D01*
X8222954Y4669193D01*
X8214661Y4677486D01*
X8220268Y4683094D01*
X8227500Y4700552D01*
Y4719448D01*
X8220268Y4736906D01*
X8206906Y4750268D01*
X8189448Y4757500D01*
D02*
G37*
G36*
X8344789Y4727795D02*
X8325892D01*
X8308434Y4720563D01*
X8295072Y4707201D01*
X8287841Y4689743D01*
Y4670847D01*
X8295072Y4653388D01*
X8297170Y4651291D01*
X8291621Y4637893D01*
Y4618997D01*
X8298852Y4601539D01*
X8312214Y4588177D01*
X8329672Y4580945D01*
X8348569D01*
X8366027Y4588177D01*
X8379389Y4601539D01*
X8386620Y4618997D01*
Y4637893D01*
X8379389Y4655352D01*
X8377291Y4657449D01*
X8382840Y4670847D01*
Y4689743D01*
X8375609Y4707201D01*
X8362247Y4720563D01*
X8344789Y4727795D01*
D02*
G37*
G36*
X8203541Y4489946D02*
X8184645D01*
X8167187Y4482714D01*
X8153825Y4469352D01*
X8146593Y4451894D01*
Y4432997D01*
X8153825Y4415539D01*
X8162440Y4406924D01*
X8161269Y4404097D01*
Y4385200D01*
X8168501Y4367742D01*
X8181863Y4354380D01*
X8199321Y4347149D01*
X8218217D01*
X8235676Y4354380D01*
X8249038Y4367742D01*
X8256269Y4385200D01*
Y4404097D01*
X8249038Y4421555D01*
X8240422Y4430170D01*
X8241593Y4432997D01*
Y4451894D01*
X8234361Y4469352D01*
X8221000Y4482714D01*
X8203541Y4489946D01*
D02*
G37*
G36*
X8342521Y4489327D02*
X8323625D01*
X8306167Y4482096D01*
X8292805Y4468734D01*
X8285573Y4451276D01*
Y4432379D01*
X8292805Y4414921D01*
X8293020Y4414705D01*
X8286328Y4398549D01*
Y4379653D01*
X8293559Y4362195D01*
X8306921Y4348833D01*
X8324380Y4341601D01*
X8343276D01*
X8360734Y4348833D01*
X8374096Y4362195D01*
X8381328Y4379653D01*
Y4398549D01*
X8374096Y4416008D01*
X8373881Y4416223D01*
X8380573Y4432379D01*
Y4451276D01*
X8373341Y4468734D01*
X8359979Y4482096D01*
X8342521Y4489327D01*
D02*
G37*
G36*
X7209448Y4527500D02*
X7190552D01*
X7173094Y4520268D01*
X7159732Y4506906D01*
X7152500Y4489448D01*
Y4470552D01*
X7159732Y4453093D01*
X7173094Y4439732D01*
X7183018Y4435621D01*
X7180034Y4420621D01*
X7170219D01*
X7152761Y4413389D01*
X7139399Y4400028D01*
X7132167Y4382569D01*
Y4363673D01*
X7139399Y4346215D01*
X7152761Y4332853D01*
X7170219Y4325621D01*
X7189115D01*
X7206574Y4332853D01*
X7219936Y4346215D01*
X7227167Y4363673D01*
Y4382569D01*
X7219936Y4400028D01*
X7206574Y4413389D01*
X7196650Y4417500D01*
X7199633Y4432500D01*
X7209448D01*
X7226907Y4439732D01*
X7240268Y4453093D01*
X7247500Y4470552D01*
Y4489448D01*
X7240268Y4506906D01*
X7226907Y4520268D01*
X7209448Y4527500D01*
D02*
G37*
G36*
X7299448Y4271524D02*
X7280552D01*
X7263093Y4264292D01*
X7249732Y4250931D01*
X7242500Y4233472D01*
Y4214576D01*
X7249732Y4197118D01*
X7263093Y4183756D01*
X7280552Y4176524D01*
X7299448D01*
X7316906Y4183756D01*
X7330268Y4197118D01*
X7337500Y4214576D01*
Y4233472D01*
X7330268Y4250931D01*
X7316906Y4264292D01*
X7299448Y4271524D01*
D02*
G37*
G36*
X8234995Y4194771D02*
X8216098D01*
X8198640Y4187540D01*
X8185278Y4174178D01*
X8178047Y4156720D01*
Y4137823D01*
X8182414Y4127280D01*
X8170886Y4115752D01*
X8163655Y4098294D01*
Y4079397D01*
X8170886Y4061939D01*
X8173048Y4059776D01*
X8164955Y4051683D01*
X8157723Y4034225D01*
Y4015328D01*
X8163691Y4000921D01*
X8155741Y3992972D01*
X8148510Y3975514D01*
Y3956617D01*
X8155741Y3939159D01*
X8169103Y3925797D01*
X8186561Y3918566D01*
X8205458D01*
X8222916Y3925797D01*
X8236278Y3939159D01*
X8243510Y3956617D01*
Y3975514D01*
X8237542Y3989921D01*
X8245492Y3997870D01*
X8252723Y4015328D01*
Y4034225D01*
X8245492Y4051683D01*
X8243329Y4053845D01*
X8251423Y4061939D01*
X8258654Y4079397D01*
Y4098294D01*
X8254287Y4108837D01*
X8265815Y4120365D01*
X8273046Y4137823D01*
Y4156720D01*
X8265815Y4174178D01*
X8252453Y4187540D01*
X8234995Y4194771D01*
D02*
G37*
G36*
X8339448Y3767500D02*
X8320552D01*
X8303094Y3760268D01*
X8289732Y3746906D01*
X8282500Y3729448D01*
Y3710552D01*
X8289732Y3693093D01*
X8303094Y3679732D01*
X8320552Y3672500D01*
X8339448D01*
X8356907Y3679732D01*
X8370269Y3693093D01*
X8377500Y3710552D01*
Y3729448D01*
X8370269Y3746906D01*
X8356907Y3760268D01*
X8339448Y3767500D01*
D02*
G37*
G36*
X8199448D02*
X8180552D01*
X8163093Y3760268D01*
X8149731Y3746906D01*
X8142500Y3729448D01*
Y3710552D01*
X8149731Y3693093D01*
X8163093Y3679732D01*
X8180552Y3672500D01*
X8199448D01*
X8216906Y3679732D01*
X8230268Y3693093D01*
X8237500Y3710552D01*
Y3729448D01*
X8230268Y3746906D01*
X8216906Y3760268D01*
X8199448Y3767500D01*
D02*
G37*
G36*
X8348238Y3621066D02*
X8329342D01*
X8311884Y3613835D01*
X8304918Y3606869D01*
X8290079Y3600493D01*
X8272622Y3607724D01*
X8253725D01*
X8236267Y3600493D01*
X8222905Y3587131D01*
X8215673Y3569673D01*
Y3550776D01*
X8222905Y3533318D01*
X8227394Y3528829D01*
X8222478Y3523912D01*
X8215246Y3506454D01*
Y3487557D01*
X8222478Y3470099D01*
X8235840Y3456737D01*
X8253298Y3449506D01*
X8272194D01*
X8289652Y3456737D01*
X8303014Y3470099D01*
X8305748Y3476700D01*
X8323442Y3480219D01*
X8323476Y3480185D01*
X8340934Y3472954D01*
X8359831D01*
X8377289Y3480185D01*
X8390651Y3493547D01*
X8397882Y3511005D01*
Y3529902D01*
X8390651Y3547360D01*
X8382659Y3555352D01*
X8386290Y3564118D01*
Y3583014D01*
X8379058Y3600473D01*
X8365697Y3613835D01*
X8348238Y3621066D01*
D02*
G37*
G36*
X7344448Y3572500D02*
X7325552D01*
X7308094Y3565268D01*
X7294732Y3551907D01*
X7287500Y3534448D01*
Y3515552D01*
X7294732Y3498094D01*
X7308094Y3484732D01*
X7325552Y3477500D01*
X7344448D01*
X7361907Y3484732D01*
X7375268Y3498094D01*
X7382500Y3515552D01*
Y3534448D01*
X7375268Y3551907D01*
X7361907Y3565268D01*
X7344448Y3572500D01*
D02*
G37*
G36*
X6859840Y3526513D02*
X6840943D01*
X6823485Y3519282D01*
X6810123Y3505920D01*
X6802892Y3488462D01*
Y3469565D01*
X6810123Y3452107D01*
X6823485Y3438745D01*
X6840943Y3431514D01*
X6859840D01*
X6877298Y3438745D01*
X6890660Y3452107D01*
X6897891Y3469565D01*
Y3488462D01*
X6890660Y3505920D01*
X6877298Y3519282D01*
X6859840Y3526513D01*
D02*
G37*
G36*
X7290000Y3448072D02*
X7268750D01*
X7251455Y3445795D01*
X7235339Y3439119D01*
X7221500Y3428500D01*
X7210881Y3414661D01*
X7204205Y3398545D01*
X7201928Y3381250D01*
Y3340000D01*
X7290000D01*
Y3448072D01*
D02*
G37*
G36*
X7051250Y3443028D02*
X6988750D01*
X6972761Y3440923D01*
X6957861Y3434752D01*
X6945066Y3424934D01*
X6935248Y3412139D01*
X6929077Y3397239D01*
X6926971Y3381250D01*
Y3278750D01*
X6929077Y3262761D01*
X6935248Y3247861D01*
X6945066Y3235066D01*
X6957861Y3225248D01*
X6972761Y3219077D01*
X6988750Y3216971D01*
X7051250D01*
X7067239Y3219077D01*
X7082139Y3225248D01*
X7094934Y3235066D01*
X7104752Y3247861D01*
X7110923Y3262761D01*
X7112441Y3274290D01*
X7119288D01*
X7138797Y3278170D01*
X7155336Y3289221D01*
X7166387Y3305760D01*
X7170267Y3325269D01*
X7166387Y3344778D01*
X7155336Y3361317D01*
X7138797Y3372368D01*
X7119288Y3376249D01*
X7113028D01*
Y3381250D01*
X7110923Y3397239D01*
X7104752Y3412139D01*
X7094934Y3424934D01*
X7082139Y3434752D01*
X7067239Y3440923D01*
X7051250Y3443028D01*
D02*
G37*
G36*
X7290000Y3320000D02*
X7201928D01*
Y3278750D01*
X7204205Y3261455D01*
X7210881Y3245339D01*
X7221500Y3231500D01*
X7235339Y3220881D01*
X7251455Y3214205D01*
X7268750Y3211928D01*
X7290000D01*
Y3320000D01*
D02*
G37*
G36*
X8304250Y3298136D02*
X8273000D01*
Y3195000D01*
X8378636D01*
Y3223750D01*
X8376101Y3243002D01*
X8368670Y3260943D01*
X8356849Y3276349D01*
X8341443Y3288170D01*
X8323502Y3295601D01*
X8304250Y3298136D01*
D02*
G37*
G36*
X6949448Y2995000D02*
X6930552D01*
X6913094Y2987768D01*
X6899732Y2974407D01*
X6892500Y2956948D01*
Y2938052D01*
X6899732Y2920594D01*
X6913094Y2907232D01*
X6930552Y2900000D01*
X6946088D01*
X6954038Y2891866D01*
X6956873Y2886840D01*
X6953424Y2878512D01*
Y2859616D01*
X6960655Y2842158D01*
X6974017Y2828796D01*
X6991475Y2821564D01*
X7010372D01*
X7027830Y2828796D01*
X7041192Y2842158D01*
X7048424Y2859616D01*
Y2878512D01*
X7041192Y2895971D01*
X7027830Y2909333D01*
X7010372Y2916564D01*
X6994835D01*
X6986886Y2924698D01*
X6984051Y2929724D01*
X6987500Y2938052D01*
Y2956948D01*
X6980268Y2974407D01*
X6966907Y2987768D01*
X6949448Y2995000D01*
D02*
G37*
G36*
X8278244Y2829467D02*
X8259347D01*
X8241889Y2822236D01*
X8228527Y2808874D01*
X8221295Y2791416D01*
Y2772519D01*
X8228527Y2755061D01*
X8241889Y2741699D01*
X8259347Y2734468D01*
X8278244D01*
X8295702Y2741699D01*
X8309064Y2755061D01*
X8316295Y2772519D01*
Y2791416D01*
X8309064Y2808874D01*
X8295702Y2822236D01*
X8278244Y2829467D01*
D02*
G37*
G36*
X8123000Y2388136D02*
Y2285000D01*
X8228636D01*
Y2313750D01*
X8226101Y2333002D01*
X8218670Y2350943D01*
X8206849Y2366349D01*
X8191443Y2378170D01*
X8173502Y2385602D01*
X8154250Y2388136D01*
X8123000D01*
D02*
G37*
G36*
X7250378Y2289056D02*
X7231481D01*
X7214023Y2281824D01*
X7200661Y2268463D01*
X7193430Y2251004D01*
Y2232108D01*
X7200661Y2214650D01*
X7214023Y2201288D01*
X7231481Y2194056D01*
X7250378D01*
X7267836Y2201288D01*
X7281198Y2214650D01*
X7288429Y2232108D01*
Y2251004D01*
X7281198Y2268463D01*
X7267836Y2281824D01*
X7250378Y2289056D01*
D02*
G37*
G36*
X6979449Y2260713D02*
X6960552D01*
X6943094Y2253481D01*
X6929732Y2240119D01*
X6922501Y2222661D01*
Y2203764D01*
X6929732Y2186306D01*
X6943094Y2172944D01*
X6960552Y2165713D01*
X6979449D01*
X6996907Y2172944D01*
X7010269Y2186306D01*
X7017500Y2203764D01*
Y2222661D01*
X7010269Y2240119D01*
X6996907Y2253481D01*
X6979449Y2260713D01*
D02*
G37*
G36*
X8228636Y2265000D02*
X8123000D01*
Y2161864D01*
X8154250D01*
X8173502Y2164399D01*
X8191443Y2171830D01*
X8206849Y2183651D01*
X8218670Y2199057D01*
X8226101Y2216998D01*
X8228636Y2236250D01*
Y2265000D01*
D02*
G37*
G36*
X8103000D02*
X7997364D01*
Y2236250D01*
X7999898Y2216998D01*
X8007330Y2199057D01*
X8019151Y2183651D01*
X8034557Y2171830D01*
X8052497Y2164399D01*
X8071750Y2161864D01*
X8103000D01*
Y2265000D01*
D02*
G37*
G36*
X8197679Y1764781D02*
X8178782D01*
X8161324Y1757550D01*
X8147962Y1744188D01*
X8140731Y1726730D01*
Y1707833D01*
X8147962Y1690375D01*
X8150581Y1687756D01*
X8149731Y1686906D01*
X8142500Y1669448D01*
Y1650552D01*
X8149731Y1633094D01*
X8163093Y1619732D01*
X8180552Y1612500D01*
X8199448D01*
X8216906Y1619732D01*
X8230268Y1633094D01*
X8237500Y1650552D01*
Y1669448D01*
X8230268Y1686906D01*
X8227649Y1689525D01*
X8228499Y1690375D01*
X8235730Y1707833D01*
Y1726730D01*
X8228499Y1744188D01*
X8215137Y1757550D01*
X8197679Y1764781D01*
D02*
G37*
G36*
X8200408Y1520340D02*
X8181512D01*
X8164054Y1513109D01*
X8150692Y1499747D01*
X8143460Y1482289D01*
Y1463392D01*
X8150126Y1447301D01*
X8149731Y1446906D01*
X8142500Y1429448D01*
Y1410552D01*
X8149731Y1393093D01*
X8163093Y1379732D01*
X8177018Y1373964D01*
X8178106Y1359280D01*
X8177974Y1358568D01*
X8164229Y1352874D01*
X8150867Y1339512D01*
X8143635Y1322054D01*
Y1303158D01*
X8148392Y1291675D01*
X8144804Y1288087D01*
X8137572Y1270629D01*
Y1251732D01*
X8144804Y1234274D01*
X8158166Y1220912D01*
X8175624Y1213681D01*
X8194521D01*
X8211979Y1220912D01*
X8225341Y1234274D01*
X8232572Y1251732D01*
Y1270629D01*
X8227816Y1282111D01*
X8231404Y1285699D01*
X8238635Y1303158D01*
Y1322054D01*
X8231404Y1339512D01*
X8218042Y1352874D01*
X8204117Y1358642D01*
X8203029Y1373326D01*
X8203161Y1374038D01*
X8216906Y1379732D01*
X8230268Y1393093D01*
X8237500Y1410552D01*
Y1429448D01*
X8230834Y1445540D01*
X8231228Y1445934D01*
X8238460Y1463392D01*
Y1482289D01*
X8231228Y1499747D01*
X8217866Y1513109D01*
X8200408Y1520340D01*
D02*
G37*
G36*
X8264389Y1052412D02*
X8245492D01*
X8228034Y1045181D01*
X8220149Y1037296D01*
X8217004Y1040442D01*
X8199546Y1047673D01*
X8180649D01*
X8163191Y1040442D01*
X8149829Y1027080D01*
X8142598Y1009622D01*
Y990725D01*
X8149829Y973267D01*
X8163191Y959905D01*
X8180649Y952673D01*
X8199546D01*
X8217004Y959905D01*
X8224889Y967790D01*
X8228034Y964644D01*
X8245492Y957413D01*
X8264389D01*
X8281847Y964644D01*
X8295209Y978006D01*
X8302440Y995464D01*
Y1014361D01*
X8295209Y1031819D01*
X8281847Y1045181D01*
X8264389Y1052412D01*
D02*
G37*
G36*
X7356000Y605169D02*
X7323500D01*
X7303268Y602505D01*
X7284416Y594696D01*
X7268227Y582274D01*
X7255804Y566084D01*
X7247995Y547232D01*
X7245331Y527000D01*
Y474500D01*
X7356000D01*
Y605169D01*
D02*
G37*
G36*
X8378636Y445000D02*
X8273000D01*
Y341864D01*
X8304250D01*
X8323502Y344399D01*
X8341443Y351830D01*
X8356849Y363651D01*
X8368670Y379057D01*
X8376101Y396998D01*
X8378636Y416250D01*
Y445000D01*
D02*
G37*
G36*
X8253000D02*
X8147364D01*
Y416250D01*
X8149899Y396998D01*
X8157330Y379057D01*
X8169151Y363651D01*
X8184557Y351830D01*
X8202498Y344399D01*
X8221750Y341864D01*
X8253000D01*
Y445000D01*
D02*
G37*
%LPD*%
G36*
X7082467Y3349018D02*
X7083627Y3348232D01*
X7085520Y3347537D01*
X7088146Y3346935D01*
X7091504Y3346426D01*
X7100419Y3345686D01*
X7119288Y3345269D01*
Y3305269D01*
X7112265Y3305223D01*
X7088146Y3303603D01*
X7085520Y3303001D01*
X7083627Y3302307D01*
X7082467Y3301520D01*
X7082040Y3300641D01*
Y3349898D01*
X7082467Y3349018D01*
D02*
G37*
%LPC*%
G36*
X5884500Y5132126D02*
X5799500D01*
X5780574Y5129634D01*
X5762937Y5122329D01*
X5747792Y5110708D01*
X5736172Y5095563D01*
X5728866Y5077927D01*
X5726375Y5059000D01*
Y4939798D01*
X5723137Y4937634D01*
X5704241D01*
X5703625Y4938045D01*
Y5059000D01*
X5701134Y5077927D01*
X5693828Y5095563D01*
X5682208Y5110708D01*
X5667063Y5122329D01*
X5649426Y5129634D01*
X5630500Y5132126D01*
X5545500D01*
X5526574Y5129634D01*
X5508937Y5122329D01*
X5493792Y5110708D01*
X5482172Y5095563D01*
X5474866Y5077927D01*
X5472375Y5059000D01*
Y4934000D01*
X5474866Y4915073D01*
X5482172Y4897437D01*
X5493792Y4882292D01*
X5508937Y4870671D01*
X5526574Y4863366D01*
X5545500Y4860874D01*
X5630500D01*
X5649426Y4863366D01*
X5655999Y4866089D01*
X5673421Y4863228D01*
X5686782Y4849866D01*
X5704241Y4842635D01*
X5723137D01*
X5740595Y4849866D01*
X5753957Y4863228D01*
X5771762Y4867016D01*
X5780574Y4863366D01*
X5799500Y4860874D01*
X5884500D01*
X5903426Y4863366D01*
X5921063Y4870671D01*
X5936208Y4882292D01*
X5947828Y4897437D01*
X5955134Y4915073D01*
X5957625Y4934000D01*
Y5059000D01*
X5955134Y5077927D01*
X5947828Y5095563D01*
X5936208Y5110708D01*
X5921063Y5122329D01*
X5903426Y5129634D01*
X5884500Y5132126D01*
D02*
G37*
G36*
X6138500D02*
X6053500D01*
X6034574Y5129634D01*
X6016937Y5122329D01*
X6001792Y5110708D01*
X5990172Y5095563D01*
X5982866Y5077927D01*
X5980375Y5059000D01*
Y4934000D01*
X5982866Y4915073D01*
X5990172Y4897437D01*
X6001792Y4882292D01*
X6016937Y4870671D01*
X6034574Y4863366D01*
X6053500Y4860874D01*
X6138500D01*
X6157426Y4863366D01*
X6175063Y4870671D01*
X6190208Y4882292D01*
X6201828Y4897437D01*
X6209134Y4915073D01*
X6211625Y4934000D01*
Y5059000D01*
X6209134Y5077927D01*
X6201828Y5095563D01*
X6190208Y5110708D01*
X6175063Y5122329D01*
X6157426Y5129634D01*
X6138500Y5132126D01*
D02*
G37*
G36*
X4614500D02*
X4529500D01*
X4510574Y5129634D01*
X4492937Y5122329D01*
X4477792Y5110708D01*
X4466172Y5095563D01*
X4458866Y5077927D01*
X4456375Y5059000D01*
Y4934000D01*
X4458866Y4915073D01*
X4466172Y4897437D01*
X4477792Y4882292D01*
X4492937Y4870671D01*
X4510574Y4863366D01*
X4529500Y4860874D01*
X4614500D01*
X4633426Y4863366D01*
X4651063Y4870671D01*
X4666208Y4882292D01*
X4677828Y4897437D01*
X4685134Y4915073D01*
X4687625Y4934000D01*
Y5059000D01*
X4685134Y5077927D01*
X4677828Y5095563D01*
X4666208Y5110708D01*
X4651063Y5122329D01*
X4633426Y5129634D01*
X4614500Y5132126D01*
D02*
G37*
G36*
X4106500D02*
X4021500D01*
X4002574Y5129634D01*
X3984937Y5122329D01*
X3969792Y5110708D01*
X3958172Y5095563D01*
X3950866Y5077927D01*
X3948375Y5059000D01*
Y4934000D01*
X3950866Y4915073D01*
X3958172Y4897437D01*
X3969792Y4882292D01*
X3984937Y4870671D01*
X4002574Y4863366D01*
X4021500Y4860874D01*
X4106500D01*
X4125426Y4863366D01*
X4143063Y4870671D01*
X4158208Y4882292D01*
X4169828Y4897437D01*
X4177134Y4915073D01*
X4179625Y4934000D01*
Y5059000D01*
X4177134Y5077927D01*
X4169828Y5095563D01*
X4158208Y5110708D01*
X4143063Y5122329D01*
X4125426Y5129634D01*
X4106500Y5132126D01*
D02*
G37*
G36*
X3852500D02*
X3767500D01*
X3748574Y5129634D01*
X3730937Y5122329D01*
X3715792Y5110708D01*
X3704172Y5095563D01*
X3696866Y5077927D01*
X3694375Y5059000D01*
Y4934000D01*
X3696866Y4915073D01*
X3704172Y4897437D01*
X3715792Y4882292D01*
X3730937Y4870671D01*
X3748574Y4863366D01*
X3767500Y4860874D01*
X3852500D01*
X3871426Y4863366D01*
X3889063Y4870671D01*
X3904208Y4882292D01*
X3915828Y4897437D01*
X3923134Y4915073D01*
X3925625Y4934000D01*
Y5059000D01*
X3923134Y5077927D01*
X3915828Y5095563D01*
X3904208Y5110708D01*
X3889063Y5122329D01*
X3871426Y5129634D01*
X3852500Y5132126D01*
D02*
G37*
G36*
X3598500D02*
X3513500D01*
X3494574Y5129634D01*
X3476937Y5122329D01*
X3461792Y5110708D01*
X3450172Y5095563D01*
X3442866Y5077927D01*
X3440375Y5059000D01*
Y4934000D01*
X3442866Y4915073D01*
X3450172Y4897437D01*
X3461792Y4882292D01*
X3476937Y4870671D01*
X3494574Y4863366D01*
X3513500Y4860874D01*
X3598500D01*
X3617426Y4863366D01*
X3635063Y4870671D01*
X3650208Y4882292D01*
X3661828Y4897437D01*
X3669134Y4915073D01*
X3671625Y4934000D01*
Y5059000D01*
X3669134Y5077927D01*
X3661828Y5095563D01*
X3650208Y5110708D01*
X3635063Y5122329D01*
X3617426Y5129634D01*
X3598500Y5132126D01*
D02*
G37*
G36*
X3344500D02*
X3259500D01*
X3240574Y5129634D01*
X3222937Y5122329D01*
X3207792Y5110708D01*
X3196172Y5095563D01*
X3188866Y5077927D01*
X3186375Y5059000D01*
Y4934000D01*
X3188866Y4915073D01*
X3196172Y4897437D01*
X3207792Y4882292D01*
X3222937Y4870671D01*
X3240574Y4863366D01*
X3259500Y4860874D01*
X3344500D01*
X3363426Y4863366D01*
X3381063Y4870671D01*
X3396208Y4882292D01*
X3407828Y4897437D01*
X3415134Y4915073D01*
X3417625Y4934000D01*
Y5059000D01*
X3415134Y5077927D01*
X3407828Y5095563D01*
X3396208Y5110708D01*
X3381063Y5122329D01*
X3363426Y5129634D01*
X3344500Y5132126D01*
D02*
G37*
G36*
X5376500D02*
X5291500D01*
X5272574Y5129634D01*
X5254937Y5122329D01*
X5239792Y5110708D01*
X5228172Y5095563D01*
X5220866Y5077927D01*
X5218375Y5059000D01*
Y4934000D01*
X5220866Y4915073D01*
X5222758Y4910507D01*
X5214966Y4891044D01*
X5213093Y4890268D01*
X5199732Y4876906D01*
X5192500Y4859448D01*
Y4840552D01*
X5199732Y4823093D01*
X5213093Y4809732D01*
X5230552Y4802500D01*
X5249448D01*
X5266906Y4809732D01*
X5280268Y4823093D01*
X5287500Y4840552D01*
Y4846271D01*
X5291214Y4859830D01*
X5301358Y4860874D01*
X5376500D01*
X5395426Y4863366D01*
X5413063Y4870671D01*
X5428208Y4882292D01*
X5439828Y4897437D01*
X5447134Y4915073D01*
X5449625Y4934000D01*
Y5059000D01*
X5447134Y5077927D01*
X5439828Y5095563D01*
X5428208Y5110708D01*
X5413063Y5122329D01*
X5395426Y5129634D01*
X5376500Y5132126D01*
D02*
G37*
G36*
X4360500D02*
X4275500D01*
X4256574Y5129634D01*
X4238937Y5122329D01*
X4223792Y5110708D01*
X4212172Y5095563D01*
X4204866Y5077927D01*
X4202375Y5059000D01*
Y4934000D01*
X4204866Y4915073D01*
X4212172Y4897437D01*
X4223792Y4882292D01*
X4238937Y4870671D01*
X4256574Y4863366D01*
X4275500Y4860874D01*
X4341547D01*
X4342500Y4859448D01*
Y4840552D01*
X4349732Y4823093D01*
X4363094Y4809732D01*
X4380552Y4802500D01*
X4399448D01*
X4416907Y4809732D01*
X4430269Y4823093D01*
X4437500Y4840552D01*
Y4859448D01*
X4430269Y4876906D01*
X4417711Y4889464D01*
X4423828Y4897437D01*
X4431134Y4915073D01*
X4433625Y4934000D01*
Y5059000D01*
X4431134Y5077927D01*
X4423828Y5095563D01*
X4412208Y5110708D01*
X4397063Y5122329D01*
X4379426Y5129634D01*
X4360500Y5132126D01*
D02*
G37*
G36*
X4868500D02*
X4783500D01*
X4764574Y5129634D01*
X4746937Y5122329D01*
X4731792Y5110708D01*
X4720172Y5095563D01*
X4712866Y5077927D01*
X4710375Y5059000D01*
Y4934000D01*
X4712866Y4915073D01*
X4720172Y4897437D01*
X4725843Y4890046D01*
X4724123Y4883729D01*
X4719245Y4874004D01*
X4704301Y4867814D01*
X4690939Y4854452D01*
X4683707Y4836994D01*
Y4818098D01*
X4690939Y4800639D01*
X4704301Y4787277D01*
X4721759Y4780046D01*
X4740655D01*
X4758114Y4787277D01*
X4771476Y4800639D01*
X4778707Y4818098D01*
Y4836994D01*
X4774597Y4846917D01*
X4781747Y4858126D01*
X4784652Y4860874D01*
X4868500D01*
X4887426Y4863366D01*
X4905063Y4870671D01*
X4920208Y4882292D01*
X4931828Y4897437D01*
X4939134Y4915073D01*
X4941625Y4934000D01*
Y5059000D01*
X4939134Y5077927D01*
X4931828Y5095563D01*
X4920208Y5110708D01*
X4905063Y5122329D01*
X4887426Y5129634D01*
X4868500Y5132126D01*
D02*
G37*
G36*
X5122500D02*
X5037500D01*
X5018574Y5129634D01*
X5000937Y5122329D01*
X4985792Y5110708D01*
X4974172Y5095563D01*
X4966866Y5077927D01*
X4964375Y5059000D01*
Y4934000D01*
X4966866Y4915073D01*
X4974172Y4897437D01*
X4985792Y4882292D01*
X5000937Y4870671D01*
X5018574Y4863366D01*
X5037500Y4860874D01*
X5038838D01*
X5048009Y4845874D01*
X5044012Y4836222D01*
Y4817326D01*
X5051243Y4799868D01*
X5064605Y4786506D01*
X5082063Y4779274D01*
X5100960D01*
X5118418Y4786506D01*
X5131780Y4799868D01*
X5139011Y4817326D01*
Y4836222D01*
X5134417Y4847314D01*
X5140979Y4862341D01*
X5142571Y4863840D01*
X5159063Y4870671D01*
X5174208Y4882292D01*
X5185828Y4897437D01*
X5193134Y4915073D01*
X5195625Y4934000D01*
Y5059000D01*
X5193134Y5077927D01*
X5185828Y5095563D01*
X5174208Y5110708D01*
X5159063Y5122329D01*
X5141426Y5129634D01*
X5122500Y5132126D01*
D02*
G37*
G36*
X3148924Y4671519D02*
X3130027D01*
X3117450Y4666309D01*
X3117261Y4666272D01*
X3117101Y4666165D01*
X3113813Y4664803D01*
X3094019D01*
X3078412Y4661698D01*
X3065181Y4652858D01*
X3065180Y4652857D01*
X3031162Y4618838D01*
X3026711Y4612178D01*
X3009802Y4609023D01*
X3008224Y4609453D01*
X2981889Y4635788D01*
X2974901Y4640457D01*
X2965270Y4650087D01*
X2947812Y4657319D01*
X2928916D01*
X2911457Y4650087D01*
X2898096Y4636726D01*
X2890864Y4619267D01*
Y4600371D01*
X2898096Y4582913D01*
X2911457Y4569551D01*
X2928916Y4562319D01*
X2940004D01*
X2969217Y4533107D01*
Y4230001D01*
X2969216Y4230000D01*
X2972321Y4214393D01*
X2981162Y4201162D01*
X3519216Y3663107D01*
Y3053001D01*
X3519216Y3053000D01*
X3522321Y3037392D01*
X3531162Y3024161D01*
X3559524Y2995799D01*
X3561734Y2993406D01*
X3563273Y2991482D01*
X3564544Y2989691D01*
X3565183Y2988648D01*
X3564439Y2983000D01*
Y2913000D01*
X3566673Y2896031D01*
X3573223Y2880220D01*
X3583642Y2866641D01*
X3597220Y2856223D01*
X3597473Y2856118D01*
Y2839882D01*
X3597220Y2839777D01*
X3583642Y2829358D01*
X3573223Y2815780D01*
X3566673Y2799968D01*
X3564439Y2783000D01*
Y2713000D01*
X3566673Y2696031D01*
X3573223Y2680219D01*
X3583642Y2666641D01*
X3597220Y2656223D01*
X3597473Y2656118D01*
Y2639882D01*
X3597220Y2639777D01*
X3583642Y2629358D01*
X3573223Y2615780D01*
X3566673Y2599968D01*
X3564439Y2583000D01*
Y2513000D01*
X3566673Y2496031D01*
X3573223Y2480220D01*
X3583642Y2466641D01*
X3597220Y2456223D01*
X3613032Y2449673D01*
X3630000Y2447439D01*
X3730000D01*
X3746968Y2449673D01*
X3762780Y2456223D01*
X3776358Y2466641D01*
X3786777Y2480220D01*
X3792217Y2493353D01*
X3800000Y2494795D01*
X3807783Y2493353D01*
X3813223Y2480220D01*
X3823642Y2466641D01*
X3837220Y2456223D01*
X3853032Y2449673D01*
X3870000Y2447439D01*
X3970000D01*
X3986968Y2449673D01*
X4002780Y2456223D01*
X4016358Y2466641D01*
X4026777Y2480220D01*
X4033327Y2496031D01*
X4035561Y2513000D01*
Y2583000D01*
X4033327Y2599968D01*
X4026777Y2615780D01*
X4016358Y2629358D01*
X4002780Y2639777D01*
X4002527Y2639882D01*
Y2656118D01*
X4002780Y2656223D01*
X4016358Y2666641D01*
X4026777Y2680219D01*
X4033327Y2696031D01*
X4035561Y2713000D01*
Y2783000D01*
X4033327Y2799968D01*
X4031662Y2803986D01*
X4163837Y2936161D01*
X4163838Y2936162D01*
X4172679Y2949393D01*
X4175784Y2965000D01*
X4175783Y2965001D01*
Y3473608D01*
X4175784Y3473609D01*
X4172679Y3489217D01*
X4163838Y3502448D01*
X4163837Y3502448D01*
X3817448Y3848838D01*
X3804216Y3857679D01*
X3788609Y3860784D01*
X3788608Y3860783D01*
X3556893D01*
X3140783Y4276893D01*
Y4523609D01*
X3150268Y4533094D01*
X3157500Y4550552D01*
Y4569448D01*
X3153744Y4578516D01*
X3166382Y4583751D01*
X3179744Y4597113D01*
X3186975Y4614571D01*
Y4633467D01*
X3179744Y4650926D01*
X3166382Y4664288D01*
X3148924Y4671519D01*
D02*
G37*
G36*
X4129448Y4617500D02*
X4110552D01*
X4093093Y4610268D01*
X4079731Y4596906D01*
X4072500Y4579448D01*
Y4560552D01*
X4079731Y4543094D01*
X4093093Y4529732D01*
X4110552Y4522500D01*
X4129448D01*
X4146906Y4529732D01*
X4160268Y4543094D01*
X4167500Y4560552D01*
Y4579448D01*
X4160268Y4596906D01*
X4146906Y4610268D01*
X4129448Y4617500D01*
D02*
G37*
G36*
X3629448Y4597500D02*
X3610552D01*
X3593094Y4590268D01*
X3579732Y4576907D01*
X3572500Y4559448D01*
Y4540552D01*
X3579732Y4523094D01*
X3593094Y4509732D01*
X3610552Y4502500D01*
X3629448D01*
X3646907Y4509732D01*
X3660269Y4523094D01*
X3667500Y4540552D01*
Y4559448D01*
X3660269Y4576907D01*
X3646907Y4590268D01*
X3629448Y4597500D01*
D02*
G37*
G36*
X4019448Y4577500D02*
X4000552D01*
X3983094Y4570268D01*
X3969732Y4556907D01*
X3962500Y4539448D01*
Y4520552D01*
X3969732Y4503094D01*
X3983094Y4489732D01*
X4000552Y4482500D01*
X4019448D01*
X4036907Y4489732D01*
X4050269Y4503094D01*
X4057500Y4520552D01*
Y4539448D01*
X4050269Y4556907D01*
X4036907Y4570268D01*
X4019448Y4577500D01*
D02*
G37*
G36*
X5977530Y4387641D02*
X5958634D01*
X5941176Y4380410D01*
X5927814Y4367048D01*
X5920582Y4349589D01*
Y4330693D01*
X5927814Y4313235D01*
X5941176Y4299873D01*
X5958634Y4292641D01*
X5977530D01*
X5994989Y4299873D01*
X6008350Y4313235D01*
X6015582Y4330693D01*
Y4349589D01*
X6008350Y4367048D01*
X5994989Y4380410D01*
X5977530Y4387641D01*
D02*
G37*
G36*
X4619448Y4227500D02*
X4600552D01*
X4583093Y4220268D01*
X4569732Y4206906D01*
X4562500Y4189448D01*
Y4170552D01*
X4569732Y4153094D01*
X4583093Y4139732D01*
X4600552Y4132500D01*
X4619448D01*
X4636906Y4139732D01*
X4650268Y4153094D01*
X4657500Y4170552D01*
Y4189448D01*
X4650268Y4206906D01*
X4636906Y4220268D01*
X4619448Y4227500D01*
D02*
G37*
G36*
X3499448Y4147500D02*
X3480552D01*
X3463093Y4140268D01*
X3449731Y4126906D01*
X3442500Y4109448D01*
Y4090552D01*
X3449731Y4073093D01*
X3463093Y4059732D01*
X3480552Y4052500D01*
X3499448D01*
X3516906Y4059732D01*
X3530268Y4073093D01*
X3537500Y4090552D01*
Y4109448D01*
X3530268Y4126906D01*
X3516906Y4140268D01*
X3499448Y4147500D01*
D02*
G37*
G36*
X4909448Y4037500D02*
X4890552D01*
X4873094Y4030268D01*
X4859732Y4016906D01*
X4852500Y3999448D01*
Y3980552D01*
X4859732Y3963093D01*
X4873094Y3949731D01*
X4890552Y3942500D01*
X4909448D01*
X4926907Y3949731D01*
X4940269Y3963093D01*
X4947500Y3980552D01*
Y3999448D01*
X4940269Y4016906D01*
X4926907Y4030268D01*
X4909448Y4037500D01*
D02*
G37*
G36*
X5089448Y4007500D02*
X5070552D01*
X5053094Y4000268D01*
X5039732Y3986906D01*
X5032500Y3969448D01*
Y3950552D01*
X5039732Y3933093D01*
X5053094Y3919732D01*
X5070552Y3912500D01*
X5089448D01*
X5106906Y3919732D01*
X5120268Y3933093D01*
X5127500Y3950552D01*
Y3969448D01*
X5120268Y3986906D01*
X5106906Y4000268D01*
X5089448Y4007500D01*
D02*
G37*
G36*
X3178339Y3951103D02*
X3159442D01*
X3141984Y3943871D01*
X3128622Y3930509D01*
X3121391Y3913051D01*
Y3894155D01*
X3128622Y3876696D01*
X3141984Y3863334D01*
X3159442Y3856103D01*
X3178339D01*
X3195797Y3863334D01*
X3209159Y3876696D01*
X3216390Y3894155D01*
Y3913051D01*
X3209159Y3930509D01*
X3195797Y3943871D01*
X3178339Y3951103D01*
D02*
G37*
G36*
X5009020Y3887968D02*
X4990123D01*
X4972665Y3880737D01*
X4959303Y3867375D01*
X4952072Y3849917D01*
Y3831020D01*
X4959303Y3813562D01*
X4972665Y3800200D01*
X4990123Y3792969D01*
X5009020D01*
X5026478Y3800200D01*
X5039840Y3813562D01*
X5047071Y3831020D01*
Y3849917D01*
X5039840Y3867375D01*
X5026478Y3880737D01*
X5009020Y3887968D01*
D02*
G37*
G36*
X4089322Y4235479D02*
X3986823D01*
X3970833Y4233374D01*
X3955933Y4227202D01*
X3943138Y4217384D01*
X3933321Y4204590D01*
X3927149Y4189690D01*
X3925044Y4173700D01*
Y4111200D01*
X3927149Y4095211D01*
X3933321Y4080311D01*
X3943138Y4067516D01*
X3955933Y4057699D01*
X3970833Y4051527D01*
X3979564Y4050377D01*
Y4039299D01*
X3983652Y4024039D01*
X3991552Y4010357D01*
X3997512Y4004396D01*
X3991441Y3998325D01*
X3983542Y3984643D01*
X3979453Y3969383D01*
Y3954508D01*
X3970833Y3953374D01*
X3955933Y3947202D01*
X3943138Y3937384D01*
X3933321Y3924590D01*
X3927149Y3909690D01*
X3925044Y3893700D01*
Y3831200D01*
X3927149Y3815211D01*
X3933321Y3800311D01*
X3943138Y3787516D01*
X3955933Y3777699D01*
X3970833Y3771527D01*
X3986823Y3769422D01*
X4089322D01*
X4105312Y3771527D01*
X4120212Y3777699D01*
X4133006Y3787516D01*
X4142824Y3800311D01*
X4148996Y3815211D01*
X4151101Y3831200D01*
Y3893700D01*
X4148996Y3909690D01*
X4142824Y3924590D01*
X4133006Y3937384D01*
X4120212Y3947202D01*
X4105312Y3953374D01*
X4099453Y3954145D01*
Y3969383D01*
X4095364Y3984643D01*
X4087465Y3998325D01*
X4081504Y4004286D01*
X4087575Y4010357D01*
X4095474Y4024039D01*
X4099563Y4039299D01*
Y4050770D01*
X4105312Y4051527D01*
X4120212Y4057699D01*
X4133006Y4067516D01*
X4142824Y4080311D01*
X4148996Y4095211D01*
X4151101Y4111200D01*
Y4173700D01*
X4148996Y4189690D01*
X4142824Y4204590D01*
X4133006Y4217384D01*
X4120212Y4227202D01*
X4105312Y4233374D01*
X4089322Y4235479D01*
D02*
G37*
G36*
X4520087Y3813270D02*
X4501190D01*
X4483732Y3806039D01*
X4470370Y3792677D01*
X4463139Y3775219D01*
Y3756322D01*
X4470370Y3738864D01*
X4475522Y3733712D01*
X4475221Y3733167D01*
X4456906Y3730268D01*
X4439448Y3737500D01*
X4420552D01*
X4403094Y3730268D01*
X4389732Y3716906D01*
X4382500Y3699448D01*
Y3680552D01*
X4389732Y3663094D01*
X4403094Y3649732D01*
X4420552Y3642500D01*
X4439448D01*
X4456907Y3649732D01*
X4470268Y3663093D01*
X4473548Y3663746D01*
X4483894Y3653399D01*
X4501352Y3646168D01*
X4520249D01*
X4537707Y3653399D01*
X4551069Y3666761D01*
X4558301Y3684219D01*
Y3703116D01*
X4551069Y3720574D01*
X4541843Y3729800D01*
X4550907Y3738864D01*
X4558138Y3756322D01*
Y3775219D01*
X4550907Y3792677D01*
X4537545Y3806039D01*
X4520087Y3813270D01*
D02*
G37*
G36*
X5981674Y3785684D02*
X5962777D01*
X5945319Y3778452D01*
X5931957Y3765091D01*
X5924726Y3747632D01*
Y3728736D01*
X5931957Y3711278D01*
X5945319Y3697916D01*
X5962777Y3690684D01*
X5981674D01*
X5999132Y3697916D01*
X6012494Y3711278D01*
X6019725Y3728736D01*
Y3747632D01*
X6012494Y3765091D01*
X5999132Y3778452D01*
X5981674Y3785684D01*
D02*
G37*
G36*
X5179448Y3647500D02*
X5160552D01*
X5143094Y3640268D01*
X5129732Y3626906D01*
X5122500Y3609448D01*
Y3590552D01*
X5129732Y3573093D01*
X5143094Y3559732D01*
X5160552Y3552500D01*
X5179448D01*
X5196907Y3559732D01*
X5210268Y3573093D01*
X5217500Y3590552D01*
Y3609448D01*
X5210268Y3626906D01*
X5196907Y3640268D01*
X5179448Y3647500D01*
D02*
G37*
G36*
X4649500Y3445826D02*
X4630603D01*
X4613145Y3438595D01*
X4599783Y3425233D01*
X4592552Y3407774D01*
Y3388878D01*
X4599783Y3371420D01*
X4613145Y3358058D01*
X4630603Y3350826D01*
X4649500D01*
X4666958Y3358058D01*
X4680320Y3371420D01*
X4687551Y3388878D01*
Y3407774D01*
X4680320Y3425233D01*
X4666958Y3438595D01*
X4649500Y3445826D01*
D02*
G37*
G36*
X4453545Y3374317D02*
X4434648D01*
X4417190Y3367085D01*
X4403828Y3353723D01*
X4396597Y3336265D01*
Y3317369D01*
X4403828Y3299910D01*
X4417190Y3286548D01*
X4434648Y3279317D01*
X4453545D01*
X4471003Y3286548D01*
X4484365Y3299910D01*
X4491597Y3317369D01*
Y3336265D01*
X4484365Y3353723D01*
X4471003Y3367085D01*
X4453545Y3374317D01*
D02*
G37*
G36*
X4571710Y3149413D02*
X4552813D01*
X4535355Y3142182D01*
X4521993Y3128820D01*
X4514762Y3111362D01*
Y3092465D01*
X4521993Y3075007D01*
X4525583Y3071417D01*
X4518493Y3064327D01*
X4511261Y3046869D01*
Y3027973D01*
X4518493Y3010514D01*
X4531855Y2997153D01*
X4549313Y2989921D01*
X4568210D01*
X4585668Y2997153D01*
X4599030Y3010514D01*
X4606261Y3027973D01*
Y3046869D01*
X4599030Y3064327D01*
X4595440Y3067917D01*
X4602530Y3075007D01*
X4609761Y3092465D01*
Y3111362D01*
X4602530Y3128820D01*
X4589168Y3142182D01*
X4571710Y3149413D01*
D02*
G37*
G36*
X4723046Y3020546D02*
X4704150D01*
X4686691Y3013315D01*
X4673329Y2999953D01*
X4666098Y2982494D01*
Y2963598D01*
X4673329Y2946140D01*
X4677279Y2942190D01*
X4669268Y2934179D01*
X4662036Y2916721D01*
Y2897825D01*
X4669268Y2880366D01*
X4682629Y2867004D01*
X4700088Y2859773D01*
X4718984D01*
X4736442Y2867004D01*
X4749804Y2880366D01*
X4757036Y2897825D01*
Y2916721D01*
X4749804Y2934179D01*
X4745855Y2938128D01*
X4753866Y2946140D01*
X4761098Y2963598D01*
Y2982494D01*
X4753866Y2999953D01*
X4740504Y3013315D01*
X4723046Y3020546D01*
D02*
G37*
G36*
X5536920Y2857500D02*
X5518024D01*
X5500565Y2850268D01*
X5487203Y2836906D01*
X5479972Y2819448D01*
Y2800552D01*
X5487203Y2783093D01*
X5500565Y2769732D01*
X5518024Y2762500D01*
X5536920D01*
X5554378Y2769732D01*
X5567740Y2783093D01*
X5574972Y2800552D01*
Y2819448D01*
X5567740Y2836906D01*
X5554378Y2850268D01*
X5536920Y2857500D01*
D02*
G37*
G36*
X4519448Y2717500D02*
X4500552D01*
X4483094Y2710268D01*
X4469732Y2696906D01*
X4462500Y2679448D01*
Y2660552D01*
X4469732Y2643094D01*
X4483094Y2629732D01*
X4500552Y2622500D01*
X4519448D01*
X4536907Y2629732D01*
X4550269Y2643094D01*
X4557500Y2660552D01*
Y2679448D01*
X4550269Y2696906D01*
X4536907Y2710268D01*
X4519448Y2717500D01*
D02*
G37*
G36*
X3401948Y2597500D02*
X3383052D01*
X3365593Y2590268D01*
X3352232Y2576906D01*
X3345000Y2559448D01*
Y2540552D01*
X3352232Y2523094D01*
X3365593Y2509732D01*
X3383052Y2502500D01*
X3401948D01*
X3419406Y2509732D01*
X3432768Y2523094D01*
X3440000Y2540552D01*
Y2559448D01*
X3432768Y2576906D01*
X3419406Y2590268D01*
X3401948Y2597500D01*
D02*
G37*
G36*
X5491250Y2498072D02*
X5470000D01*
Y2390000D01*
X5558072D01*
Y2431250D01*
X5555795Y2448545D01*
X5549119Y2464661D01*
X5538500Y2478500D01*
X5524661Y2489119D01*
X5508545Y2495795D01*
X5491250Y2498072D01*
D02*
G37*
G36*
X3461250Y2468072D02*
X3420000D01*
Y2380000D01*
X3528072D01*
Y2401250D01*
X3525795Y2418545D01*
X3519119Y2434661D01*
X3508500Y2448500D01*
X3494661Y2459119D01*
X3478545Y2465795D01*
X3461250Y2468072D01*
D02*
G37*
G36*
X3400000D02*
X3358750D01*
X3341455Y2465795D01*
X3325339Y2459119D01*
X3311500Y2448500D01*
X3300881Y2434661D01*
X3294205Y2418545D01*
X3291928Y2401250D01*
Y2380000D01*
X3400000D01*
Y2468072D01*
D02*
G37*
G36*
X3528072Y2360000D02*
X3420000D01*
Y2271928D01*
X3461250D01*
X3478545Y2274205D01*
X3494661Y2280881D01*
X3508500Y2291500D01*
X3519119Y2305339D01*
X3525795Y2321455D01*
X3528072Y2338750D01*
Y2360000D01*
D02*
G37*
G36*
X3400000D02*
X3291928D01*
Y2338750D01*
X3294205Y2321455D01*
X3300881Y2305339D01*
X3311500Y2291500D01*
X3325339Y2280881D01*
X3341455Y2274205D01*
X3358750Y2271928D01*
X3400000D01*
Y2360000D01*
D02*
G37*
G36*
X5558072Y2370000D02*
X5470000D01*
Y2261928D01*
X5491250D01*
X5508545Y2264205D01*
X5524661Y2270881D01*
X5538500Y2281500D01*
X5549119Y2295339D01*
X5555795Y2311455D01*
X5558072Y2328750D01*
Y2370000D01*
D02*
G37*
G36*
X6109436Y2337495D02*
X6090540D01*
X6073081Y2330264D01*
X6059719Y2316902D01*
X6052488Y2299444D01*
Y2280547D01*
X6059719Y2263089D01*
X6073081Y2249727D01*
X6090540Y2242496D01*
X6109436D01*
X6126894Y2249727D01*
X6140256Y2263089D01*
X6147488Y2280547D01*
Y2299444D01*
X6140256Y2316902D01*
X6126894Y2330264D01*
X6109436Y2337495D01*
D02*
G37*
G36*
X3959448Y2297500D02*
X3940552D01*
X3923093Y2290268D01*
X3909732Y2276907D01*
X3902500Y2259448D01*
Y2240552D01*
X3909732Y2223094D01*
X3923093Y2209732D01*
X3940552Y2202500D01*
X3959448D01*
X3976906Y2209732D01*
X3990268Y2223094D01*
X3997500Y2240552D01*
Y2259448D01*
X3990268Y2276907D01*
X3976906Y2290268D01*
X3959448Y2297500D01*
D02*
G37*
G36*
X4339448Y2267500D02*
X4320552D01*
X4303094Y2260268D01*
X4289732Y2246906D01*
X4282500Y2229448D01*
Y2210552D01*
X4289732Y2193093D01*
X4303094Y2179731D01*
X4320552Y2172500D01*
X4339448D01*
X4356906Y2179731D01*
X4370268Y2193093D01*
X4377500Y2210552D01*
Y2229448D01*
X4370268Y2246906D01*
X4356906Y2260268D01*
X4339448Y2267500D01*
D02*
G37*
G36*
X5607381Y2239287D02*
X5588484D01*
X5571026Y2232056D01*
X5557664Y2218694D01*
X5550433Y2201236D01*
Y2182339D01*
X5557664Y2164881D01*
X5568376Y2154169D01*
X5567920Y2151874D01*
X5554558Y2138512D01*
X5547327Y2121054D01*
Y2102157D01*
X5554558Y2084699D01*
X5567920Y2071337D01*
X5585378Y2064106D01*
X5604275D01*
X5621733Y2071337D01*
X5635095Y2084699D01*
X5642326Y2102157D01*
Y2121054D01*
X5635095Y2138512D01*
X5624383Y2149224D01*
X5624839Y2151519D01*
X5638201Y2164881D01*
X5645432Y2182339D01*
Y2201236D01*
X5638201Y2218694D01*
X5624839Y2232056D01*
X5607381Y2239287D01*
D02*
G37*
G36*
X6099448Y2147500D02*
X6080552D01*
X6063094Y2140269D01*
X6049732Y2126907D01*
X6042500Y2109448D01*
Y2090552D01*
X6049732Y2073094D01*
X6063094Y2059732D01*
X6080552Y2052500D01*
X6099448D01*
X6116906Y2059732D01*
X6130268Y2073094D01*
X6137500Y2090552D01*
Y2109448D01*
X6130268Y2126907D01*
X6116906Y2140269D01*
X6099448Y2147500D01*
D02*
G37*
G36*
X3453859Y2220350D02*
X3434351Y2216470D01*
X3417812Y2205418D01*
X3406761Y2188880D01*
X3405597Y2183029D01*
X3358750D01*
X3342761Y2180924D01*
X3327861Y2174752D01*
X3315066Y2164934D01*
X3305248Y2152139D01*
X3299077Y2137240D01*
X3296972Y2121250D01*
Y2058750D01*
X3299077Y2042761D01*
X3305248Y2027861D01*
X3315066Y2015066D01*
X3327861Y2005248D01*
X3342761Y1999077D01*
X3358750Y1996972D01*
X3461250D01*
X3477239Y1999077D01*
X3492139Y2005248D01*
X3504934Y2015066D01*
X3514752Y2027861D01*
X3520923Y2042761D01*
X3523029Y2058750D01*
Y2121250D01*
X3520923Y2137240D01*
X3514752Y2152139D01*
X3504934Y2164934D01*
X3504839Y2165007D01*
Y2169371D01*
X3500958Y2188880D01*
X3489907Y2205418D01*
X3473368Y2216470D01*
X3453859Y2220350D01*
D02*
G37*
G36*
X5629448Y2047500D02*
X5610552D01*
X5593093Y2040268D01*
X5579732Y2026907D01*
X5572500Y2009448D01*
Y1990552D01*
X5579732Y1973094D01*
X5593093Y1959732D01*
X5610552Y1952500D01*
X5629448D01*
X5646906Y1959732D01*
X5660268Y1973094D01*
X5667500Y1990552D01*
Y2009448D01*
X5660268Y2026907D01*
X5646906Y2040268D01*
X5629448Y2047500D01*
D02*
G37*
G36*
X6111177Y1937229D02*
X6092280D01*
X6074822Y1929997D01*
X6061460Y1916635D01*
X6054229Y1899177D01*
Y1880280D01*
X6061460Y1862822D01*
X6074822Y1849460D01*
X6092280Y1842229D01*
X6111177D01*
X6128635Y1849460D01*
X6141997Y1862822D01*
X6149228Y1880280D01*
Y1899177D01*
X6141997Y1916635D01*
X6128635Y1929997D01*
X6111177Y1937229D01*
D02*
G37*
G36*
X6101280Y1713853D02*
X6082384D01*
X6064925Y1706621D01*
X6051563Y1693260D01*
X6044332Y1675801D01*
Y1656905D01*
X6051563Y1639447D01*
X6064925Y1626085D01*
X6082384Y1618853D01*
X6101280D01*
X6118738Y1626085D01*
X6132100Y1639447D01*
X6139332Y1656905D01*
Y1675801D01*
X6132100Y1693260D01*
X6118738Y1706621D01*
X6101280Y1713853D01*
D02*
G37*
G36*
X4608943Y1667480D02*
X4590046D01*
X4572588Y1660249D01*
X4559226Y1646887D01*
X4551995Y1629429D01*
Y1610532D01*
X4559226Y1593074D01*
X4572588Y1579712D01*
X4590046Y1572481D01*
X4608943D01*
X4626401Y1579712D01*
X4639763Y1593074D01*
X4646994Y1610532D01*
Y1629429D01*
X4639763Y1646887D01*
X4626401Y1660249D01*
X4608943Y1667480D01*
D02*
G37*
G36*
X4239448Y1587500D02*
X4220552D01*
X4203093Y1580268D01*
X4189732Y1566906D01*
X4182500Y1549448D01*
Y1530552D01*
X4188615Y1515790D01*
X4179732Y1506907D01*
X4172500Y1489448D01*
Y1470552D01*
X4179732Y1453094D01*
X4193093Y1439732D01*
X4210552Y1432500D01*
X4229448D01*
X4246906Y1439732D01*
X4260268Y1453094D01*
X4267500Y1470552D01*
Y1489448D01*
X4261385Y1504210D01*
X4270268Y1513093D01*
X4277500Y1530552D01*
Y1549448D01*
X4270268Y1566906D01*
X4256906Y1580268D01*
X4239448Y1587500D01*
D02*
G37*
G36*
X6098721Y1449802D02*
X6079824D01*
X6062366Y1442571D01*
X6049004Y1429209D01*
X6041773Y1411751D01*
Y1392854D01*
X6049004Y1375396D01*
X6062366Y1362034D01*
X6079824Y1354802D01*
X6098721D01*
X6116179Y1362034D01*
X6129541Y1375396D01*
X6136772Y1392854D01*
Y1411751D01*
X6129541Y1429209D01*
X6116179Y1442571D01*
X6098721Y1449802D01*
D02*
G37*
G36*
X6269448Y1337500D02*
X6250551D01*
X6233093Y1330269D01*
X6219731Y1316907D01*
X6212500Y1299449D01*
Y1280552D01*
X6219731Y1263094D01*
X6233093Y1249732D01*
X6250551Y1242500D01*
X6269448D01*
X6286906Y1249732D01*
X6300268Y1263094D01*
X6307499Y1280552D01*
Y1299449D01*
X6300268Y1316907D01*
X6286906Y1330269D01*
X6269448Y1337500D01*
D02*
G37*
G36*
X6349448Y1247500D02*
X6330552D01*
X6313094Y1240268D01*
X6299732Y1226906D01*
X6292500Y1209448D01*
Y1190552D01*
X6299732Y1173093D01*
X6313094Y1159731D01*
X6330552Y1152500D01*
X6349448D01*
X6366906Y1159731D01*
X6380268Y1173093D01*
X6387500Y1190552D01*
Y1209448D01*
X6380268Y1226906D01*
X6366906Y1240268D01*
X6349448Y1247500D01*
D02*
G37*
G36*
X5320033Y1232129D02*
X5301136D01*
X5283678Y1224898D01*
X5270316Y1211536D01*
X5263084Y1194078D01*
Y1175181D01*
X5270316Y1157723D01*
X5283678Y1144361D01*
X5301136Y1137130D01*
X5320033D01*
X5337491Y1144361D01*
X5350853Y1157723D01*
X5358084Y1175181D01*
Y1194078D01*
X5350853Y1211536D01*
X5337491Y1224898D01*
X5320033Y1232129D01*
D02*
G37*
G36*
X6099448Y1037499D02*
X6080552D01*
X6063094Y1030268D01*
X6049732Y1016906D01*
X6042500Y999448D01*
Y980551D01*
X6049732Y963093D01*
X6063094Y949731D01*
X6080552Y942500D01*
X6099448D01*
X6116906Y949731D01*
X6130268Y963093D01*
X6137500Y980551D01*
Y999448D01*
X6130268Y1016906D01*
X6116906Y1030268D01*
X6099448Y1037499D01*
D02*
G37*
G36*
X5551707Y1020254D02*
X5532810D01*
X5515352Y1013023D01*
X5501990Y999661D01*
X5494759Y982203D01*
Y963306D01*
X5501990Y945848D01*
X5515352Y932486D01*
X5532810Y925254D01*
X5551707D01*
X5569165Y932486D01*
X5582527Y945848D01*
X5589758Y963306D01*
Y982203D01*
X5582527Y999661D01*
X5569165Y1013023D01*
X5551707Y1020254D01*
D02*
G37*
G36*
X4926279Y1006041D02*
X4907382D01*
X4889924Y998809D01*
X4876562Y985447D01*
X4869331Y967989D01*
Y949093D01*
X4876562Y931634D01*
X4889924Y918272D01*
X4907382Y911041D01*
X4926279D01*
X4939537Y916533D01*
X4939881Y916189D01*
X4957339Y908958D01*
X4976235D01*
X4993694Y916189D01*
X5007056Y929551D01*
X5014287Y947010D01*
Y965906D01*
X5007056Y983364D01*
X4993694Y996726D01*
X4976235Y1003958D01*
X4957339D01*
X4944080Y998466D01*
X4943737Y998809D01*
X4926279Y1006041D01*
D02*
G37*
G36*
X6369674Y986220D02*
X6350777D01*
X6333319Y978988D01*
X6319957Y965626D01*
X6312726Y948168D01*
Y929272D01*
X6319957Y911814D01*
X6333319Y898452D01*
X6350777Y891220D01*
X6369674D01*
X6387132Y898452D01*
X6400494Y911814D01*
X6407725Y929272D01*
Y948168D01*
X6400494Y965626D01*
X6387132Y978988D01*
X6369674Y986220D01*
D02*
G37*
G36*
X6269448Y934879D02*
X6250551D01*
X6233093Y927648D01*
X6219731Y914286D01*
X6212500Y896828D01*
Y877931D01*
X6219731Y860473D01*
X6233093Y847111D01*
X6250551Y839879D01*
X6269448D01*
X6286906Y847111D01*
X6300268Y860473D01*
X6307499Y877931D01*
Y896828D01*
X6300268Y914286D01*
X6286906Y927648D01*
X6269448Y934879D01*
D02*
G37*
G36*
X5109448Y877500D02*
X5090552D01*
X5073093Y870269D01*
X5059732Y856907D01*
X5052500Y839448D01*
Y820552D01*
X5059732Y803094D01*
X5073093Y789732D01*
X5090552Y782500D01*
X5109448D01*
X5126906Y789732D01*
X5146050Y787662D01*
X5152030Y781681D01*
X5169488Y774450D01*
X5188385D01*
X5205843Y781681D01*
X5219205Y795043D01*
X5226436Y812502D01*
Y831398D01*
X5219205Y848856D01*
X5205843Y862218D01*
X5188385Y869450D01*
X5169488D01*
X5152030Y862218D01*
X5132887Y864288D01*
X5126906Y870269D01*
X5109448Y877500D01*
D02*
G37*
G36*
X6367524Y819833D02*
X6348627D01*
X6331169Y812601D01*
X6317807Y799239D01*
X6310576Y781781D01*
Y762885D01*
X6317807Y745426D01*
X6331169Y732065D01*
X6348627Y724833D01*
X6367524D01*
X6384982Y732065D01*
X6398344Y745426D01*
X6405575Y762885D01*
Y781781D01*
X6398344Y799239D01*
X6384982Y812601D01*
X6367524Y819833D01*
D02*
G37*
G36*
X4092950Y827288D02*
X4074053D01*
X4056595Y820056D01*
X4043233Y806694D01*
X4036002Y789236D01*
Y770340D01*
X4043233Y752881D01*
X4056595Y739519D01*
X4074053Y732288D01*
X4092950D01*
X4110408Y739519D01*
X4123770Y752881D01*
X4135591Y745104D01*
X4128370Y727671D01*
Y708775D01*
X4135602Y691316D01*
X4148964Y677954D01*
X4166422Y670723D01*
X4185318D01*
X4202776Y677954D01*
X4216138Y691316D01*
X4219434Y699272D01*
X4235669D01*
X4239657Y689645D01*
X4253019Y676283D01*
X4270477Y669051D01*
X4289374D01*
X4306832Y676283D01*
X4320194Y689645D01*
X4327425Y707103D01*
Y726000D01*
X4320194Y743458D01*
X4306832Y756820D01*
X4289374Y764051D01*
X4270477D01*
X4253019Y756820D01*
X4239657Y743458D01*
X4236362Y735502D01*
X4220126D01*
X4216138Y745129D01*
X4202776Y758491D01*
X4185318Y765723D01*
X4166422D01*
X4148964Y758491D01*
X4135602Y745130D01*
X4123781Y752907D01*
X4131001Y770340D01*
Y789236D01*
X4123770Y806694D01*
X4110408Y820056D01*
X4092950Y827288D01*
D02*
G37*
G36*
X6138500Y605169D02*
X6106000D01*
Y474500D01*
X6216669D01*
Y527000D01*
X6214005Y547232D01*
X6206196Y566084D01*
X6193773Y582274D01*
X6177584Y594696D01*
X6158732Y602505D01*
X6138500Y605169D01*
D02*
G37*
G36*
X6086000D02*
X6053500D01*
X6033268Y602505D01*
X6014416Y594696D01*
X5998227Y582274D01*
X5985804Y566084D01*
X5977995Y547232D01*
X5975331Y527000D01*
Y474500D01*
X6086000D01*
Y605169D01*
D02*
G37*
%LPD*%
G36*
X3128967Y4610026D02*
X3127866Y4610785D01*
X3126691Y4611463D01*
X3125442Y4612062D01*
X3124118Y4612582D01*
X3122720Y4613021D01*
X3121248Y4613380D01*
X3119701Y4613660D01*
X3118080Y4613859D01*
X3114614Y4614019D01*
Y4634019D01*
X3116384Y4634059D01*
X3119701Y4634379D01*
X3121248Y4634658D01*
X3122720Y4635018D01*
X3124118Y4635457D01*
X3125442Y4635976D01*
X3126691Y4636575D01*
X3127866Y4637254D01*
X3128967Y4638013D01*
Y4610026D01*
D02*
G37*
G36*
X2969641Y4604502D02*
X2956946Y4588912D01*
X2955621Y4590157D01*
X2954313Y4591226D01*
X2953022Y4592117D01*
X2951748Y4592833D01*
X2950491Y4593371D01*
X2949252Y4593733D01*
X2948029Y4593919D01*
X2946823Y4593928D01*
X2945633Y4593760D01*
X2944461Y4593416D01*
X2954104Y4617469D01*
X2969641Y4604502D01*
D02*
G37*
G36*
X3115489Y4543383D02*
X3114446Y4542943D01*
X3113513Y4542348D01*
X3112689Y4541597D01*
X3111976Y4540691D01*
X3111372Y4539631D01*
X3110878Y4538415D01*
X3110494Y4537044D01*
X3110219Y4535518D01*
X3110055Y4533836D01*
X3110000Y4532000D01*
X3090000Y4535139D01*
X3093105Y4555437D01*
X3115489Y4543383D01*
D02*
G37*
G36*
X3958763Y3463560D02*
X3952550Y3448560D01*
X3870000D01*
X3853032Y3446326D01*
X3837220Y3439777D01*
X3823642Y3429358D01*
X3813223Y3415780D01*
X3807929Y3402999D01*
X3796469Y3400865D01*
X3791717Y3401283D01*
X3745000Y3447999D01*
X3615000D01*
X3614641Y3447641D01*
X3600784Y3453381D01*
Y3679999D01*
X3600784Y3680000D01*
X3597679Y3695607D01*
X3588838Y3708838D01*
X3582318Y3715359D01*
X3588058Y3729217D01*
X3693107D01*
X3958763Y3463560D01*
D02*
G37*
G36*
X3596061Y3031219D02*
X3603100Y3025290D01*
X3606444Y3022917D01*
X3609670Y3020939D01*
X3612779Y3019356D01*
X3615771Y3018167D01*
X3618645Y3017373D01*
X3621401Y3016974D01*
X3624041Y3016970D01*
X3596030Y2988959D01*
X3596026Y2991598D01*
X3595627Y2994355D01*
X3594833Y2997229D01*
X3593644Y3000221D01*
X3592061Y3003330D01*
X3590083Y3006556D01*
X3587710Y3009899D01*
X3584943Y3013360D01*
X3578224Y3020634D01*
X3592366Y3034776D01*
X3596061Y3031219D01*
D02*
G37*
G36*
X4004916Y2966100D02*
X4005868Y2964400D01*
X4007414Y2962900D01*
X4009553Y2961600D01*
X4012287Y2960500D01*
X4015614Y2959600D01*
X4019536Y2958900D01*
X4024051Y2958400D01*
X4034863Y2958000D01*
Y2938000D01*
X4029160Y2937900D01*
X4019536Y2937100D01*
X4015614Y2936400D01*
X4012287Y2935500D01*
X4009553Y2934400D01*
X4007414Y2933100D01*
X4005868Y2931600D01*
X4004916Y2929900D01*
X4004558Y2928000D01*
Y2968000D01*
X4004916Y2966100D01*
D02*
G37*
%LPC*%
G36*
X1606500Y5359268D02*
X1470500D01*
Y5153500D01*
X1696268D01*
Y5269500D01*
X1693209Y5292734D01*
X1684241Y5314384D01*
X1669976Y5332976D01*
X1651384Y5347241D01*
X1629734Y5356209D01*
X1606500Y5359268D01*
D02*
G37*
G36*
X1450500D02*
X1314500D01*
X1291266Y5356209D01*
X1269616Y5347241D01*
X1251024Y5332976D01*
X1236759Y5314384D01*
X1227791Y5292734D01*
X1224732Y5269500D01*
Y5153500D01*
X1450500D01*
Y5359268D01*
D02*
G37*
G36*
X2152669Y5280500D02*
X1911331D01*
Y5228000D01*
X1913995Y5207768D01*
X1921804Y5188915D01*
X1934227Y5172726D01*
X1950416Y5160304D01*
X1969268Y5152495D01*
X1976824Y5151500D01*
X1975841Y5136500D01*
X1972000D01*
X1912000Y5076500D01*
Y5006500D01*
X2152000D01*
Y5076500D01*
X2092000Y5136500D01*
X2088159D01*
X2087176Y5151500D01*
X2094732Y5152495D01*
X2113584Y5160304D01*
X2129773Y5172726D01*
X2142196Y5188915D01*
X2150005Y5207768D01*
X2152669Y5228000D01*
Y5280500D01*
D02*
G37*
G36*
X1696268Y5133500D02*
X1470500D01*
Y4927732D01*
X1606500D01*
X1629734Y4930791D01*
X1651384Y4939759D01*
X1669976Y4954024D01*
X1684241Y4972616D01*
X1693209Y4994266D01*
X1696268Y5017500D01*
Y5133500D01*
D02*
G37*
G36*
X1450500D02*
X1224732D01*
Y5017500D01*
X1227791Y4994266D01*
X1236759Y4972616D01*
X1251024Y4954024D01*
X1269616Y4939759D01*
X1291266Y4930791D01*
X1314500Y4927732D01*
X1450500D01*
Y5133500D01*
D02*
G37*
G36*
X2582500Y5132126D02*
X2497500D01*
X2478574Y5129634D01*
X2460937Y5122329D01*
X2445792Y5110708D01*
X2434172Y5095563D01*
X2426866Y5077927D01*
X2424375Y5059000D01*
Y4934000D01*
X2426866Y4915073D01*
X2434172Y4897437D01*
X2445792Y4882292D01*
X2460937Y4870671D01*
X2478574Y4863366D01*
X2497500Y4860874D01*
X2582500D01*
X2601426Y4863366D01*
X2619063Y4870671D01*
X2634208Y4882292D01*
X2645828Y4897437D01*
X2653134Y4915073D01*
X2655625Y4934000D01*
Y5059000D01*
X2653134Y5077927D01*
X2645828Y5095563D01*
X2634208Y5110708D01*
X2619063Y5122329D01*
X2601426Y5129634D01*
X2582500Y5132126D01*
D02*
G37*
G36*
X2328500D02*
X2243500D01*
X2224574Y5129634D01*
X2206937Y5122329D01*
X2191792Y5110708D01*
X2180172Y5095563D01*
X2172866Y5077927D01*
X2170375Y5059000D01*
Y4934000D01*
X2172866Y4915073D01*
X2180172Y4897437D01*
X2191792Y4882292D01*
X2206937Y4870671D01*
X2224574Y4863366D01*
X2243500Y4860874D01*
X2328500D01*
X2347426Y4863366D01*
X2365063Y4870671D01*
X2380208Y4882292D01*
X2391828Y4897437D01*
X2399134Y4915073D01*
X2401625Y4934000D01*
Y5059000D01*
X2399134Y5077927D01*
X2391828Y5095563D01*
X2380208Y5110708D01*
X2365063Y5122329D01*
X2347426Y5129634D01*
X2328500Y5132126D01*
D02*
G37*
G36*
X2152000Y4986500D02*
X2042000D01*
Y4856500D01*
X2092000D01*
X2152000Y4916500D01*
Y4986500D01*
D02*
G37*
G36*
X2022000D02*
X1912000D01*
Y4916500D01*
X1972000Y4856500D01*
X2022000D01*
Y4986500D01*
D02*
G37*
G36*
X2381250Y4258072D02*
X2340000D01*
Y4170000D01*
X2448072D01*
Y4191250D01*
X2445795Y4208545D01*
X2439119Y4224661D01*
X2428500Y4238500D01*
X2414661Y4249119D01*
X2398545Y4255795D01*
X2381250Y4258072D01*
D02*
G37*
G36*
X2320000D02*
X2278750D01*
X2261455Y4255795D01*
X2245339Y4249119D01*
X2231500Y4238500D01*
X2220881Y4224661D01*
X2214205Y4208545D01*
X2211928Y4191250D01*
Y4170000D01*
X2320000D01*
Y4258072D01*
D02*
G37*
G36*
X2448072Y4150000D02*
X2340000D01*
Y4061928D01*
X2381250D01*
X2398545Y4064205D01*
X2414661Y4070881D01*
X2428500Y4081500D01*
X2439119Y4095339D01*
X2445795Y4111455D01*
X2448072Y4128750D01*
Y4150000D01*
D02*
G37*
G36*
X2320000D02*
X2211928D01*
Y4128750D01*
X2214205Y4111455D01*
X2220881Y4095339D01*
X2231500Y4081500D01*
X2245339Y4070881D01*
X2261455Y4064205D01*
X2278750Y4061928D01*
X2320000D01*
Y4150000D01*
D02*
G37*
G36*
X2381250Y3973029D02*
X2278750D01*
X2262761Y3970923D01*
X2247861Y3964752D01*
X2235066Y3954934D01*
X2225248Y3942139D01*
X2219077Y3927240D01*
X2216971Y3911250D01*
Y3868807D01*
X2212654Y3864489D01*
X2202596Y3856772D01*
X2193780Y3845283D01*
X2188238Y3831903D01*
X2186348Y3817545D01*
X2188238Y3803187D01*
X2193780Y3789808D01*
X2202596Y3778319D01*
X2214085Y3769503D01*
X2227465Y3763961D01*
X2241823Y3762071D01*
X2244163D01*
X2258521Y3763961D01*
X2271900Y3769503D01*
X2283389Y3778319D01*
X2292041Y3786972D01*
X2381250D01*
X2397239Y3789077D01*
X2412139Y3795248D01*
X2424934Y3805066D01*
X2434752Y3817861D01*
X2440923Y3832761D01*
X2443028Y3848750D01*
Y3911250D01*
X2440923Y3927240D01*
X2434752Y3942139D01*
X2424934Y3954934D01*
X2412139Y3964752D01*
X2397239Y3970923D01*
X2381250Y3973029D01*
D02*
G37*
G36*
X2511250Y3318072D02*
X2470000D01*
Y3230000D01*
X2578072D01*
Y3251250D01*
X2575795Y3268545D01*
X2569119Y3284661D01*
X2558500Y3298500D01*
X2544661Y3309119D01*
X2528545Y3315795D01*
X2511250Y3318072D01*
D02*
G37*
G36*
X2450000D02*
X2408750D01*
X2391455Y3315795D01*
X2375339Y3309119D01*
X2361500Y3298500D01*
X2350881Y3284661D01*
X2344205Y3268545D01*
X2341928Y3251250D01*
Y3230000D01*
X2450000D01*
Y3318072D01*
D02*
G37*
G36*
X2578072Y3210000D02*
X2470000D01*
Y3121928D01*
X2511250D01*
X2528545Y3124205D01*
X2544661Y3130881D01*
X2558500Y3141500D01*
X2569119Y3155339D01*
X2575795Y3171455D01*
X2578072Y3188750D01*
Y3210000D01*
D02*
G37*
G36*
X2450000D02*
X2341928D01*
Y3188750D01*
X2344205Y3171455D01*
X2350881Y3155339D01*
X2361500Y3141500D01*
X2375339Y3130881D01*
X2391455Y3124205D01*
X2408750Y3121928D01*
X2450000D01*
Y3210000D01*
D02*
G37*
G36*
X2511250Y3033028D02*
X2408750D01*
X2392761Y3030923D01*
X2377861Y3024752D01*
X2365066Y3014934D01*
X2355248Y3002139D01*
X2349077Y2987239D01*
X2346971Y2971250D01*
Y2908750D01*
X2349077Y2892761D01*
X2355248Y2877861D01*
X2365066Y2865066D01*
X2377861Y2855248D01*
X2392761Y2849077D01*
X2408750Y2846971D01*
X2511250D01*
X2527239Y2849077D01*
X2542139Y2855248D01*
X2554934Y2865066D01*
X2555707Y2866074D01*
X2557926Y2866366D01*
X2571305Y2871908D01*
X2582794Y2880724D01*
X2591611Y2892213D01*
X2597152Y2905592D01*
X2599043Y2919950D01*
X2597152Y2934308D01*
X2591611Y2947687D01*
X2582794Y2959176D01*
X2573028Y2968942D01*
Y2971250D01*
X2570923Y2987239D01*
X2564752Y3002139D01*
X2554934Y3014934D01*
X2542139Y3024752D01*
X2527239Y3030923D01*
X2511250Y3033028D01*
D02*
G37*
G36*
X2619727Y2085434D02*
X2600830D01*
X2583372Y2078203D01*
X2570010Y2064841D01*
X2562779Y2047382D01*
Y2028486D01*
X2570010Y2011028D01*
X2583372Y1997666D01*
X2600830Y1990434D01*
X2619727D01*
X2637185Y1997666D01*
X2650547Y2011028D01*
X2657778Y2028486D01*
Y2047382D01*
X2650547Y2064841D01*
X2637185Y2078203D01*
X2619727Y2085434D01*
D02*
G37*
G36*
X1881548Y1522274D02*
X1862652D01*
X1845194Y1515043D01*
X1831832Y1501681D01*
X1824600Y1484223D01*
Y1465326D01*
X1831832Y1447868D01*
X1845194Y1434506D01*
X1862652Y1427275D01*
X1881548D01*
X1899007Y1434506D01*
X1912369Y1447868D01*
X1919600Y1465326D01*
Y1484223D01*
X1912369Y1501681D01*
X1899007Y1515043D01*
X1881548Y1522274D01*
D02*
G37*
G36*
X1966231Y1068969D02*
X1947334D01*
X1929876Y1061738D01*
X1916514Y1048376D01*
X1909283Y1030917D01*
Y1012021D01*
X1916514Y994563D01*
X1929876Y981201D01*
X1947334Y973969D01*
X1966231D01*
X1983689Y981201D01*
X1997051Y994563D01*
X2004282Y1012021D01*
Y1030917D01*
X1997051Y1048376D01*
X1983689Y1061738D01*
X1966231Y1068969D01*
D02*
G37*
G36*
X2559880Y958443D02*
X2540983D01*
X2523525Y951212D01*
X2510163Y937850D01*
X2502932Y920392D01*
Y901495D01*
X2510163Y884037D01*
X2523525Y870675D01*
X2540983Y863444D01*
X2559880D01*
X2577338Y870675D01*
X2590700Y884037D01*
X2597931Y901495D01*
Y920392D01*
X2590700Y937850D01*
X2577338Y951212D01*
X2559880Y958443D01*
D02*
G37*
G36*
X1550000Y835000D02*
X1410000D01*
X1340000Y765000D01*
Y625000D01*
X1410000Y555000D01*
X1550000D01*
X1620000Y625000D01*
Y765000D01*
X1550000Y835000D01*
D02*
G37*
G36*
X2074500Y605169D02*
X2042000D01*
Y474500D01*
X2152669D01*
Y527000D01*
X2150005Y547232D01*
X2142196Y566084D01*
X2129773Y582274D01*
X2113584Y594696D01*
X2094732Y602505D01*
X2074500Y605169D01*
D02*
G37*
G36*
X2022000D02*
X1989500D01*
X1969268Y602505D01*
X1950416Y594696D01*
X1934227Y582274D01*
X1921804Y566084D01*
X1913995Y547232D01*
X1911331Y527000D01*
Y474500D01*
X2022000D01*
Y605169D01*
D02*
G37*
G36*
X1535000Y490777D02*
X1490000D01*
Y355000D01*
X1625777D01*
Y400000D01*
X1622684Y423495D01*
X1613615Y445388D01*
X1599189Y464189D01*
X1580389Y478615D01*
X1558495Y487684D01*
X1535000Y490777D01*
D02*
G37*
G36*
X1470000D02*
X1425000D01*
X1401505Y487684D01*
X1379612Y478615D01*
X1360811Y464189D01*
X1346385Y445388D01*
X1337317Y423495D01*
X1334223Y400000D01*
Y355000D01*
X1470000D01*
Y490777D01*
D02*
G37*
G36*
X3344500Y600126D02*
X3259500D01*
X3240574Y597634D01*
X3222937Y590329D01*
X3207792Y578708D01*
X3196172Y563563D01*
X3188866Y545927D01*
X3186375Y527000D01*
Y402000D01*
X3188866Y383073D01*
X3196172Y365437D01*
X3207792Y350292D01*
X3222937Y338671D01*
X3240574Y331366D01*
X3259500Y328874D01*
X3344500D01*
X3363426Y331366D01*
X3381063Y338671D01*
X3396208Y350292D01*
X3407828Y365437D01*
X3415134Y383073D01*
X3417625Y402000D01*
Y527000D01*
X3415134Y545927D01*
X3407828Y563563D01*
X3396208Y578708D01*
X3381063Y590329D01*
X3363426Y597634D01*
X3344500Y600126D01*
D02*
G37*
G36*
X3090500D02*
X3005500D01*
X2986574Y597634D01*
X2968937Y590329D01*
X2953792Y578708D01*
X2942172Y563563D01*
X2934866Y545927D01*
X2932375Y527000D01*
Y402000D01*
X2934866Y383073D01*
X2942172Y365437D01*
X2953792Y350292D01*
X2968937Y338671D01*
X2986574Y331366D01*
X3005500Y328874D01*
X3090500D01*
X3109426Y331366D01*
X3127063Y338671D01*
X3142208Y350292D01*
X3153828Y365437D01*
X3161134Y383073D01*
X3163625Y402000D01*
Y527000D01*
X3161134Y545927D01*
X3153828Y563563D01*
X3142208Y578708D01*
X3127063Y590329D01*
X3109426Y597634D01*
X3090500Y600126D01*
D02*
G37*
G36*
X2836500D02*
X2751500D01*
X2732574Y597634D01*
X2714937Y590329D01*
X2699792Y578708D01*
X2688172Y563563D01*
X2680866Y545927D01*
X2678375Y527000D01*
Y402000D01*
X2680866Y383073D01*
X2688172Y365437D01*
X2699792Y350292D01*
X2714937Y338671D01*
X2732574Y331366D01*
X2751500Y328874D01*
X2836500D01*
X2855426Y331366D01*
X2873063Y338671D01*
X2888208Y350292D01*
X2899828Y365437D01*
X2907134Y383073D01*
X2909625Y402000D01*
Y527000D01*
X2907134Y545927D01*
X2899828Y563563D01*
X2888208Y578708D01*
X2873063Y590329D01*
X2855426Y597634D01*
X2836500Y600126D01*
D02*
G37*
G36*
X2582500D02*
X2497500D01*
X2478574Y597634D01*
X2460937Y590329D01*
X2445792Y578708D01*
X2434172Y563563D01*
X2426866Y545927D01*
X2424375Y527000D01*
Y402000D01*
X2426866Y383073D01*
X2434172Y365437D01*
X2445792Y350292D01*
X2460937Y338671D01*
X2478574Y331366D01*
X2497500Y328874D01*
X2582500D01*
X2601426Y331366D01*
X2619063Y338671D01*
X2634208Y350292D01*
X2645828Y365437D01*
X2653134Y383073D01*
X2655625Y402000D01*
Y527000D01*
X2653134Y545927D01*
X2645828Y563563D01*
X2634208Y578708D01*
X2619063Y590329D01*
X2601426Y597634D01*
X2582500Y600126D01*
D02*
G37*
G36*
X2328500D02*
X2243500D01*
X2224574Y597634D01*
X2206937Y590329D01*
X2191792Y578708D01*
X2180172Y563563D01*
X2172866Y545927D01*
X2170375Y527000D01*
Y402000D01*
X2172866Y383073D01*
X2180172Y365437D01*
X2191792Y350292D01*
X2206937Y338671D01*
X2224574Y331366D01*
X2243500Y328874D01*
X2328500D01*
X2347426Y331366D01*
X2365063Y338671D01*
X2380208Y350292D01*
X2391828Y365437D01*
X2399134Y383073D01*
X2401625Y402000D01*
Y527000D01*
X2399134Y545927D01*
X2391828Y563563D01*
X2380208Y578708D01*
X2365063Y590329D01*
X2347426Y597634D01*
X2328500Y600126D01*
D02*
G37*
G36*
X1625777Y335000D02*
X1490000D01*
Y199223D01*
X1535000D01*
X1558495Y202317D01*
X1580389Y211385D01*
X1599189Y225811D01*
X1613615Y244612D01*
X1622684Y266505D01*
X1625777Y290000D01*
Y335000D01*
D02*
G37*
G36*
X1470000D02*
X1334223D01*
Y290000D01*
X1337317Y266505D01*
X1346385Y244612D01*
X1360811Y225811D01*
X1379612Y211385D01*
X1401505Y202317D01*
X1425000Y199223D01*
X1470000D01*
Y335000D01*
D02*
G37*
G36*
X2152669Y454500D02*
X1911331D01*
Y402000D01*
X1913995Y381768D01*
X1921804Y362915D01*
X1934227Y346726D01*
X1950416Y334304D01*
X1969268Y326495D01*
X1976824Y325500D01*
X1975841Y310500D01*
X1972000D01*
X1912000Y250500D01*
Y180500D01*
X2152000D01*
Y250500D01*
X2092000Y310500D01*
X2088159D01*
X2087176Y325500D01*
X2094732Y326495D01*
X2113584Y334304D01*
X2129773Y346726D01*
X2142196Y362915D01*
X2150005Y381768D01*
X2152669Y402000D01*
Y454500D01*
D02*
G37*
G36*
X6677541Y875879D02*
X6658645D01*
X6641186Y868648D01*
X6627824Y855286D01*
X6620593Y837828D01*
Y818931D01*
X6627824Y801473D01*
X6641186Y788111D01*
X6658645Y780880D01*
X6677541D01*
X6694999Y788111D01*
X6708361Y801473D01*
X6715593Y818931D01*
Y837828D01*
X6708361Y855286D01*
X6694999Y868648D01*
X6677541Y875879D01*
D02*
G37*
%LPD*%
D66*
X4038072Y3862450D02*
D03*
Y4142450D02*
D03*
X2460000Y3220000D02*
D03*
Y2940000D02*
D03*
X2330000Y4160000D02*
D03*
Y3880000D02*
D03*
X3410000Y2370000D02*
D03*
Y2090000D02*
D03*
D67*
X5460000Y2380000D02*
D03*
X5180000D02*
D03*
X7300000Y3330000D02*
D03*
X7020000D02*
D03*
X5820000Y2820000D02*
D03*
X6100000D02*
D03*
D68*
X7024731Y3325269D02*
X7119288D01*
X7020000Y3330000D02*
X7024731Y3325269D01*
X6415725Y4094467D02*
X6420934Y4089257D01*
X6937957Y4082159D02*
X6938426D01*
X6420934Y4089257D02*
X6930859D01*
X6937957Y4082159D01*
X6625565Y1350935D02*
Y1434435D01*
X6391872Y1668127D02*
X6625565Y1434435D01*
X6391872Y1668127D02*
Y1995771D01*
X7210000Y3325000D02*
X7295000D01*
X6615000Y1340370D02*
X6625565Y1350935D01*
X2450000Y3210000D02*
X2460000Y3220000D01*
X2350000Y3210000D02*
X2450000D01*
X3410000Y2090000D02*
X3412216D01*
X3453859Y2131644D01*
Y2169371D01*
X5401488Y1770850D02*
X5806169Y1366169D01*
X5460000Y2371456D02*
Y2380000D01*
X5403661Y2315116D02*
X5460000Y2371456D01*
X3430000Y2350000D02*
X3520000D01*
X3410000Y2370000D02*
X3430000Y2350000D01*
X3970000Y959500D02*
Y1242696D01*
X3904042Y1308653D02*
X3970000Y1242696D01*
X5806169Y983831D02*
Y1366169D01*
Y983831D02*
X5854327Y935673D01*
X5806169Y1366169D02*
X5847338Y1325000D01*
X5854999D01*
X7295000Y3325000D02*
X7300000Y3330000D01*
X7140000Y2130000D02*
X7152358Y2117643D01*
Y1507069D02*
Y2117643D01*
D69*
X3259697Y1020304D02*
Y1115924D01*
Y1020304D02*
X3452291Y827709D01*
X2127080Y1183054D02*
X2130000Y1185974D01*
Y1647391D01*
X1960000Y1817392D02*
X2130000Y1647391D01*
D70*
X6802913Y3878659D02*
X7122363D01*
X7362427Y3638596D01*
X8420000Y2740000D02*
X8422625Y2737375D01*
X8569185D01*
X2820000Y3170000D02*
X3170000Y2820000D01*
Y2020000D02*
Y2820000D01*
X2820000Y3170000D02*
Y4740000D01*
X2920000Y4840000D01*
Y5142500D01*
X3048000Y5270500D01*
X3170000Y2020000D02*
X3390000Y1800000D01*
Y1030000D02*
Y1800000D01*
X7804298Y1845702D02*
Y1887032D01*
X7830469Y1913203D02*
Y2564325D01*
X7804298Y1887032D02*
X7830469Y1913203D01*
Y2564325D02*
X7849778Y2583633D01*
Y2631825D01*
D73*
X5410000Y1014220D02*
X5493139Y1097360D01*
X5410000Y880000D02*
Y1014220D01*
X6577115Y4989615D02*
X6604000Y5016500D01*
X6577115Y4544365D02*
Y4989615D01*
X6273627Y4240877D02*
X6577115Y4544365D01*
X6587273Y3820726D02*
X6800335Y4033788D01*
X6888137D01*
X6392651Y3820726D02*
X6587273D01*
X6133627Y3117881D02*
X6250296Y3001213D01*
X6238627Y3161373D02*
Y4258775D01*
X6203627Y3146876D02*
X6350000Y3000503D01*
X6203627Y4383627D02*
X6410000Y4590000D01*
X6168627Y3132379D02*
Y4408627D01*
X6203627Y3146876D02*
Y4383627D01*
X6168627Y4408627D02*
X6351000Y4591000D01*
X6273627Y3176373D02*
Y4240877D01*
X6098627Y3103384D02*
Y4496330D01*
X5986658Y4668403D02*
X6133627Y4521434D01*
X6168627Y3132379D02*
X6312648Y2988358D01*
X6133627Y3117881D02*
Y4521434D01*
X6098627Y3103384D02*
X6209290Y2992721D01*
X6238627Y4258775D02*
X6480000Y4500148D01*
X6273627Y3176373D02*
X6440000Y3010000D01*
X5969054Y4625903D02*
X6098627Y4496330D01*
X6238627Y3161373D02*
X6390000Y3010000D01*
X6624225Y4358044D02*
X6849131Y4582950D01*
X6888137Y4033788D02*
X6888489Y4034141D01*
X7630316Y630272D02*
X7633186Y627402D01*
X7590000Y1010000D02*
X7627697Y972303D01*
X7630316Y630272D02*
Y640878D01*
X7627697Y643497D02*
X7630316Y640878D01*
X7627697Y643497D02*
Y972303D01*
X7630000Y830000D02*
X7680000D01*
X7567401Y627402D02*
X7633186D01*
X6490986Y919014D02*
Y1111819D01*
X6300000Y1610000D02*
X6304059D01*
X6490986Y1111819D02*
Y1335355D01*
X6290000Y2060000D02*
Y2180000D01*
X6329318Y2219318D01*
X6304059Y1610000D02*
X6311559Y1602500D01*
X6313354D01*
X6516142Y1399712D01*
Y1366250D02*
Y1399712D01*
X6290000Y1624059D02*
X6302030Y1612030D01*
X6516142Y1366250D02*
X6519012Y1363380D01*
X6490986Y1335355D02*
X6519012Y1363380D01*
X6290000Y1624059D02*
Y1820000D01*
Y2060000D02*
X6291380D01*
X6311611Y2039769D01*
X6311611D01*
X7500000Y560000D02*
X7567401Y627402D01*
X7411598Y848953D02*
X7437173Y823379D01*
X7411598Y848953D02*
Y923963D01*
X7372298Y963263D02*
X7411598Y923963D01*
X7610000Y1030000D02*
X7650000D01*
X7382148Y1188825D02*
Y1210306D01*
X7385017Y1213176D01*
X7372298Y963263D02*
Y1178976D01*
X7382148Y1188825D01*
X7550000Y1200000D02*
Y1770000D01*
Y1050000D02*
Y1200000D01*
X7550332Y1200332D02*
X7649561D01*
X7550000Y1200000D02*
X7550332Y1200332D01*
X7590000Y1010000D02*
X7610000Y1030000D01*
X7350000Y2160000D02*
X7407969D01*
X7439112Y2191143D01*
X7379937Y2010000D02*
X7386235Y2003702D01*
X7350000Y2010000D02*
X7379937D01*
X7386235Y2003702D02*
X7430295D01*
X7363054Y2466946D02*
X7455922D01*
X7350000Y2480000D02*
X7363054Y2466946D01*
X7513485Y2663485D02*
X7610000Y2760000D01*
X7445931Y2654781D02*
X7449990D01*
X7458695Y2663485D01*
X7513485D01*
X7443061Y2651911D02*
X7445931Y2654781D01*
X7422460Y2651911D02*
X7443061D01*
X7385955Y2615955D02*
X7386505D01*
X7422460Y2651911D01*
X7350000Y2580000D02*
X7385955Y2615955D01*
X7651751Y3391751D02*
Y3676000D01*
X5670000Y4230000D02*
X5689965Y4249965D01*
X5670000Y2680000D02*
Y4230000D01*
Y2680000D02*
X5924349Y2425651D01*
X5689965Y4249965D02*
Y4420035D01*
X5720000Y2690000D02*
Y3560035D01*
X5724965Y3565000D02*
Y4435036D01*
X5720000Y3560035D02*
X5724965Y3565000D01*
X5502391Y4607609D02*
X5689965Y4420035D01*
X5552870Y4607130D02*
X5724965Y4435036D01*
X5499863Y4632256D02*
X5502391Y4629728D01*
Y4607609D02*
Y4629728D01*
X5552870Y4607130D02*
Y4627130D01*
X5550000Y4630000D02*
X5552870Y4627130D01*
X6436872Y1726491D02*
X6920999Y1242365D01*
X6436857Y2014427D02*
Y2282433D01*
X6436872Y1726491D02*
Y2014411D01*
X6436857Y2014427D02*
X6436872Y2014411D01*
X6507867Y1763719D02*
Y2331629D01*
X6472867Y1747132D02*
X6960000Y1260000D01*
X6472867Y1747132D02*
Y2297428D01*
X6507867Y1763719D02*
X6863166Y1408420D01*
X6874438D01*
X6909461Y1373397D01*
X6920999Y759001D02*
Y1242365D01*
X7500000Y383435D02*
Y560000D01*
X7436565Y320000D02*
X7500000Y383435D01*
X6470000Y320000D02*
X7436565D01*
X3480314D02*
X5460000D01*
X3351358Y239858D02*
X3400172D01*
X3480314Y320000D01*
X3302000Y190500D02*
X3351358Y239858D01*
X3500000Y571216D02*
Y773271D01*
X3636230Y909500D02*
X4399500D01*
X3500000Y773271D02*
X3636230Y909500D01*
X3501063Y499437D02*
X3556000Y444500D01*
X3501063Y499437D02*
Y570153D01*
X3500000Y571216D02*
X3501063Y570153D01*
X5693131Y946869D02*
X5809130Y830870D01*
X5693131Y946869D02*
Y1190478D01*
X5312067Y1571542D02*
X5693131Y1190478D01*
X5734435Y955565D02*
X5810000Y880000D01*
X5734435Y955565D02*
Y1198672D01*
X5348999Y1584108D02*
X5734435Y1198672D01*
X6997919Y795281D02*
X7190000Y987361D01*
X6963499Y795281D02*
X6997919D01*
X7190000Y987361D02*
Y1370000D01*
X6480000Y4500148D02*
Y5146500D01*
X6351000Y4591000D02*
Y4624083D01*
X5950862Y4668403D02*
X5986658D01*
X5908991Y4626532D02*
X5950862Y4668403D01*
X3560000Y3053000D02*
X3665000Y2948000D01*
X3560000Y3053000D02*
Y3680000D01*
X3010000Y4230000D02*
X3560000Y3680000D01*
X5141408Y4549718D02*
X5312067Y4379058D01*
Y1571542D02*
Y4379058D01*
X5209939Y4555019D02*
X5348999Y4415959D01*
Y1584108D02*
Y4415959D01*
X3788609Y3820000D02*
X4135000Y3473609D01*
X3100000Y4260000D02*
X3540000Y3820000D01*
X3788609D01*
X3710000Y3770000D02*
X4100000Y3380000D01*
X3060000Y4240000D02*
X3530000Y3770000D01*
X3710000D01*
X3010000Y4230000D02*
Y4550000D01*
X3900000Y2748000D02*
X3921470D01*
X4135000Y2965000D02*
Y3473609D01*
X3987462Y2817462D02*
X4135000Y2965000D01*
X3921470Y2748000D02*
X3987462Y2813991D01*
Y2817462D01*
X4038000Y2948000D02*
X4100000Y3010000D01*
X3935000Y2948000D02*
X4038000D01*
X4100000Y3010000D02*
Y3380000D01*
X3900000Y2948000D02*
X3935000D01*
X3060000Y4240000D02*
Y4590000D01*
X3100000Y4260000D02*
Y4545941D01*
X2953051Y4606949D02*
X3010000Y4550000D01*
X2938364Y4609819D02*
X2941234Y4606949D01*
X2953051D01*
X3060000Y4590000D02*
X3094019Y4624019D01*
X3100000Y4545941D02*
X3110000Y4555941D01*
Y4560000D01*
X3094019Y4624019D02*
X3139476D01*
X3665000Y2948000D02*
X3700000D01*
X7610000Y3350000D02*
X7651751Y3391751D01*
X7610000Y2760000D02*
Y3350000D01*
X7981234Y2760000D02*
X8131039Y2610196D01*
X7610000Y2760000D02*
X7981234D01*
X7350000Y2480000D02*
Y2580000D01*
Y2010000D02*
Y2160000D01*
Y2480000D01*
Y1970000D02*
Y2010000D01*
Y1970000D02*
X7550000Y1770000D01*
Y1050000D02*
X7590000Y1010000D01*
X6290000Y1828927D02*
Y2060000D01*
X6209290Y2510000D02*
X6436857Y2282433D01*
X6250296Y2520000D02*
X6472867Y2297428D01*
X6312648Y2526848D02*
X6507867Y2331629D01*
X6577867Y2031630D02*
Y2360623D01*
X6542867Y2017133D02*
X7190000Y1370000D01*
X6390000Y2548491D02*
X6577867Y2360623D01*
Y2031630D02*
X6699498Y1910000D01*
X6542867Y2017133D02*
Y2346126D01*
X6350000Y2538993D02*
X6542867Y2346126D01*
X6209290Y2510000D02*
Y2992721D01*
X6250296Y2520000D02*
Y3001213D01*
X6699498Y1910000D02*
X6860000D01*
X6312648Y2526848D02*
Y2988358D01*
X6350000Y2538993D02*
Y3000503D01*
X6390000Y2548491D02*
Y3010000D01*
X6490986Y919014D02*
X6550000Y860000D01*
Y691523D02*
Y860000D01*
X6469871Y611393D02*
X6550000Y691523D01*
X5410000Y880000D02*
X5460000Y830000D01*
Y320000D02*
Y830000D01*
Y320000D02*
X6470000D01*
Y611264D01*
X6469871Y611393D02*
X6470000Y611264D01*
X6920999Y759001D02*
X7053827Y626174D01*
X7157111D01*
X7159078Y624207D01*
X7880000Y2340000D02*
X7992625Y2452625D01*
X7880000Y1920000D02*
Y2340000D01*
X7992625Y2452625D02*
X8067375D01*
X8070000Y2450000D01*
X5924349Y1319318D02*
Y2425651D01*
X5880474Y1275444D02*
X5924349Y1319318D01*
X5960246Y1274947D02*
Y2449754D01*
X5914765Y1229467D02*
X5960246Y1274947D01*
X5910706Y1229467D02*
X5914765D01*
X4860000Y1370000D02*
Y1460000D01*
X4399500Y909500D02*
X4860000Y1370000D01*
X7064341Y1005659D02*
X7141946D01*
X6960000Y1110000D02*
X7064341Y1005659D01*
X5810000Y880000D02*
X5870000D01*
X5905687Y844313D01*
Y817822D02*
Y844313D01*
Y817822D02*
X5908557Y814952D01*
X5809130Y830870D02*
X5847336D01*
X5720000Y2690000D02*
X5960246Y2449754D01*
X6610000Y2640000D02*
X6670000D01*
X6440000Y2810000D02*
X6610000Y2640000D01*
X6960000Y1110000D02*
Y1260000D01*
X6440000Y2810000D02*
Y3010000D01*
X6928753Y1978753D02*
X6965772D01*
X6860000Y1910000D02*
X6928753Y1978753D01*
X6480000Y5146500D02*
X6604000Y5270500D01*
X6849131Y4582950D02*
Y4627216D01*
D74*
X7410000Y4700000D02*
X7462605Y4647395D01*
Y3068563D02*
Y4647395D01*
X7114042Y2720000D02*
X7462605Y3068563D01*
X7717485Y1060480D02*
Y2377515D01*
X7707500Y1050495D02*
X7717485Y1060480D01*
X7650000Y2445000D02*
X7717485Y2377515D01*
X6860000Y2574492D02*
X7005508Y2720000D01*
X6851993Y2566485D02*
X6860000Y2574492D01*
X6797500Y2566485D02*
X6851993D01*
X6860000Y2574492D02*
Y2740000D01*
X8420000Y2740000D02*
Y2816579D01*
X5639290Y4382866D02*
X5639965D01*
X5610000Y3655761D02*
Y4353576D01*
X5495072Y3540833D02*
X5610000Y3655761D01*
Y4353576D02*
X5639290Y4382866D01*
X8420000Y667664D02*
Y2740000D01*
X8342336Y590000D02*
X8420000Y667664D01*
X7910000Y590000D02*
X8342336D01*
X3306442Y681860D02*
X3452291Y827709D01*
X2507710Y681860D02*
X3306442D01*
X2339569Y850000D02*
X2507710Y681860D01*
X5180000Y2398915D02*
X5246126Y2465041D01*
X5180000Y2363383D02*
Y2398915D01*
X5260000Y1516838D02*
X5603529Y1173309D01*
X5226852Y2326359D02*
X5260000Y2293211D01*
X5217024Y2326359D02*
X5226852D01*
X5260000Y1516838D02*
Y2293211D01*
X5180000Y2363383D02*
X5217024Y2326359D01*
X5401082Y1771256D02*
Y2210489D01*
X3260000Y1540000D02*
X3330000Y1470000D01*
X3226163Y1529716D02*
X3260000D01*
X3123929Y1427481D02*
X3226163Y1529716D01*
X3123929Y1107554D02*
Y1427481D01*
X3017681Y1001305D02*
X3123929Y1107554D01*
X3260000Y1540000D02*
Y1685217D01*
X2445217Y2500000D02*
X3260000Y1685217D01*
X2387393Y2500000D02*
X2445217D01*
X2384554Y2502839D02*
X2387393Y2500000D01*
X2381848Y2502839D02*
X2384554D01*
X3584082Y959500D02*
X3970000D01*
X4319500D01*
X8229907Y3006671D02*
X8420000Y2816579D01*
X8117549Y3006671D02*
X8229907D01*
X8117549D02*
Y3192451D01*
X8050000Y3260000D02*
X8117549Y3192451D01*
X7850000Y530000D02*
X7910000Y590000D01*
X6750000Y2850000D02*
X6860000Y2740000D01*
X6851993Y2566485D02*
X6870000Y2548478D01*
Y2320000D02*
Y2548478D01*
X6750000Y2200000D02*
X6870000Y2320000D01*
X7005508Y2720000D02*
X7114042D01*
X5603529Y1110515D02*
Y1173309D01*
X4319500Y959500D02*
X4359500D01*
X4780000Y1380000D01*
X3452291Y827709D02*
X3584082Y959500D01*
X2127080Y1183054D02*
X2339569Y970564D01*
Y850000D02*
Y970564D01*
X7313016Y4603016D02*
X7410000Y4700000D01*
X6913016Y4603016D02*
X7313016D01*
X2523518Y2940000D02*
X2543568Y2919950D01*
X2460000Y2940000D02*
X2523518D01*
X2306617Y3880000D02*
X2330000D01*
X2244163Y3817545D02*
X2306617Y3880000D01*
X2241823Y3817545D02*
X2244163D01*
X4038072Y3862450D02*
X4038763Y3863141D01*
Y3960794D01*
X4039453Y3961484D01*
X4038072Y4142450D02*
X4038818Y4141705D01*
Y4047943D02*
Y4141705D01*
Y4047943D02*
X4039563Y4047198D01*
X5791735Y2848265D02*
X5820000Y2820000D01*
X5791735Y2848265D02*
Y2912054D01*
X5789822Y2913968D02*
X5791735Y2912054D01*
X6066358Y2853641D02*
X6100000Y2820000D01*
X6066358Y2853641D02*
Y2920935D01*
X6060000Y2927294D02*
X6066358Y2920935D01*
X6060000Y2927294D02*
Y2930000D01*
D81*
X8113000Y2275000D02*
D03*
X8263000Y455000D02*
D03*
X8113000Y5005000D02*
D03*
X8263000Y3185000D02*
D03*
D82*
X2032000Y170500D02*
D03*
Y4996500D02*
D03*
D83*
X2286000Y170500D02*
D03*
X2540000D02*
D03*
X2794000D02*
D03*
X3048000D02*
D03*
X3302000D02*
D03*
X3556000D02*
D03*
X3810000D02*
D03*
X4064000D02*
D03*
X4318000D02*
D03*
X4572000D02*
D03*
X4826000D02*
D03*
X5080000D02*
D03*
X5334000D02*
D03*
X5588000D02*
D03*
X5842000D02*
D03*
X6096000D02*
D03*
X6350000D02*
D03*
X6604000D02*
D03*
X6858000D02*
D03*
X7112000D02*
D03*
X7366000D02*
D03*
X7620000D02*
D03*
X2032000Y464500D02*
D03*
X2286000D02*
D03*
X2540000D02*
D03*
X2794000D02*
D03*
X3048000D02*
D03*
X3302000D02*
D03*
X3556000D02*
D03*
X3810000D02*
D03*
X4064000D02*
D03*
X4318000D02*
D03*
X4572000D02*
D03*
X4826000D02*
D03*
X5080000D02*
D03*
X5334000D02*
D03*
X5588000D02*
D03*
X5842000D02*
D03*
X6096000D02*
D03*
X6350000D02*
D03*
X6604000D02*
D03*
X6858000D02*
D03*
X7112000D02*
D03*
X7366000D02*
D03*
X7620000D02*
D03*
X2286000Y4996500D02*
D03*
X2540000D02*
D03*
X2794000D02*
D03*
X3048000D02*
D03*
X3302000D02*
D03*
X3556000D02*
D03*
X3810000D02*
D03*
X4064000D02*
D03*
X4318000D02*
D03*
X4572000D02*
D03*
X4826000D02*
D03*
X5080000D02*
D03*
X5334000D02*
D03*
X5588000D02*
D03*
X5842000D02*
D03*
X6096000D02*
D03*
X6350000D02*
D03*
X6604000D02*
D03*
X6858000D02*
D03*
X7112000D02*
D03*
X7366000D02*
D03*
X7620000D02*
D03*
X2032000Y5290500D02*
D03*
X2286000D02*
D03*
X2540000D02*
D03*
X2794000D02*
D03*
X3048000D02*
D03*
X3302000D02*
D03*
X3556000D02*
D03*
X3810000D02*
D03*
X4064000D02*
D03*
X4318000D02*
D03*
X4572000D02*
D03*
X4826000D02*
D03*
X5080000D02*
D03*
X5334000D02*
D03*
X5588000D02*
D03*
X5842000D02*
D03*
X6096000D02*
D03*
X6350000D02*
D03*
X6604000D02*
D03*
X6858000D02*
D03*
X7112000D02*
D03*
X7366000D02*
D03*
X7620000D02*
D03*
D84*
X3920000Y2548000D02*
D03*
Y2748000D02*
D03*
Y2948000D02*
D03*
Y3148000D02*
D03*
Y3348000D02*
D03*
X3680000Y2548000D02*
D03*
Y2748000D02*
D03*
Y2948000D02*
D03*
Y3148000D02*
D03*
D85*
Y3348000D02*
D03*
D86*
X1460500Y5143500D02*
D03*
D87*
X1480000Y345000D02*
D03*
D88*
Y695000D02*
D03*
D89*
X8480000Y5340000D02*
D03*
X8505434Y138008D02*
D03*
X1250000Y120000D02*
D03*
X1210000Y1880000D02*
D03*
X1200000Y4080000D02*
D03*
X7240929Y2241556D02*
D03*
X7222160Y2303605D02*
D03*
X7150000Y4130000D02*
D03*
X7261104Y4282825D02*
D03*
X5245030Y1398108D02*
D03*
X8194093Y4442446D02*
D03*
X8208769Y4394648D02*
D03*
X8211155Y4088846D02*
D03*
X7335000Y3525000D02*
D03*
X6913922Y3746037D02*
D03*
X7119288Y3325269D02*
D03*
X6847227Y3410935D02*
D03*
X7378139Y4058678D02*
D03*
X7520656Y4099404D02*
D03*
X7290000Y4224024D02*
D03*
X7344231Y3790014D02*
D03*
X6931671Y3949987D02*
D03*
X7362427Y3638596D02*
D03*
X6788310Y4147500D02*
D03*
X6808750Y3972500D02*
D03*
X6044903Y4135789D02*
D03*
X6415725Y4094467D02*
D03*
X6318619Y3585892D02*
D03*
X6624225Y4358044D02*
D03*
X6888489Y4034141D02*
D03*
X6938426Y4082159D02*
D03*
X6874515Y3941800D02*
D03*
X6390801Y3979282D02*
D03*
X6389432Y3928233D02*
D03*
X6389152Y3878234D02*
D03*
X6392651Y3820726D02*
D03*
X6390368Y3579410D02*
D03*
X6804181Y3826477D02*
D03*
X7347745Y3949908D02*
D03*
X7345109Y3847507D02*
D03*
X7388744Y3682242D02*
D03*
X6802913Y3878659D02*
D03*
X6906429Y3655645D02*
D03*
X6861531Y3804879D02*
D03*
X6857500Y3632472D02*
D03*
X6377072Y3510077D02*
D03*
X6379912Y3458244D02*
D03*
X6425115Y3380763D02*
D03*
X6850392Y3479013D02*
D03*
X5310584Y1184630D02*
D03*
X5333995Y1030168D02*
D03*
X5334007Y980168D02*
D03*
X5542259Y972754D02*
D03*
X5536309Y1139368D02*
D03*
X5493139Y1097360D02*
D03*
X5275076Y1241599D02*
D03*
X6490986Y1111819D02*
D03*
X6358347Y1443955D02*
D03*
X6342677Y2267500D02*
D03*
X6329318Y2219318D02*
D03*
X6339316Y830684D02*
D03*
X6327098Y1500277D02*
D03*
X6544840Y1440914D02*
D03*
X6519012Y1363380D02*
D03*
X6340000Y1200000D02*
D03*
X6358075Y772333D02*
D03*
X6360226Y938720D02*
D03*
X6427969Y1060192D02*
D03*
X6340000Y1270000D02*
D03*
Y1660000D02*
D03*
X6086516Y1719997D02*
D03*
X6091832Y1666353D02*
D03*
X6101729Y1889729D02*
D03*
X6082317Y1936769D02*
D03*
X6290000Y1820000D02*
D03*
X6079641Y2160608D02*
D03*
X6099988Y2289995D02*
D03*
X6090000Y2100000D02*
D03*
X6340000Y2090000D02*
D03*
X6311611Y2039769D02*
D03*
X7424361Y770318D02*
D03*
X7633186Y627402D02*
D03*
X7443210Y715847D02*
D03*
X7710039Y884245D02*
D03*
X7454770Y873355D02*
D03*
X7437173Y823379D02*
D03*
X7367773Y881230D02*
D03*
X7680000Y830000D02*
D03*
X7650000Y1030000D02*
D03*
Y1080000D02*
D03*
X7410621Y1435631D02*
D03*
X7458773Y1264965D02*
D03*
X7385017Y1213176D02*
D03*
X7649561Y1200332D02*
D03*
X7650561Y1250322D02*
D03*
X7440000Y1080000D02*
D03*
X7439112Y2191143D02*
D03*
X7458939Y2238790D02*
D03*
X7432363Y2054452D02*
D03*
X7430295Y2003702D02*
D03*
X7240000Y2110000D02*
D03*
Y2050000D02*
D03*
X7249985Y2519995D02*
D03*
X7245099Y2582718D02*
D03*
X7455007Y2518799D02*
D03*
X7455922Y2466946D02*
D03*
X7183075Y2593718D02*
D03*
X7445931Y2654781D02*
D03*
X7452604Y2712784D02*
D03*
X7246253Y2770894D02*
D03*
X7240000Y2720000D02*
D03*
X7651751Y3676000D02*
D03*
X7210000Y3325000D02*
D03*
X8268795Y2781968D02*
D03*
X6801229Y3169430D02*
D03*
X5600865Y3493579D02*
D03*
X5912935Y2959168D02*
D03*
X2380667Y1287523D02*
D03*
X8569185Y2737375D02*
D03*
X8552500Y2559739D02*
D03*
X5639965Y4382866D02*
D03*
X5439190Y3644282D02*
D03*
X5543187Y3694652D02*
D03*
X6909461Y1373397D02*
D03*
X4599494Y1619981D02*
D03*
X4510000Y2670000D02*
D03*
X2350000Y3210000D02*
D03*
X8336372Y684779D02*
D03*
X3950000Y2250000D02*
D03*
X3795090Y2117655D02*
D03*
X4008448Y1334383D02*
D03*
X4109413Y1779007D02*
D03*
X5091511Y4826774D02*
D03*
X4731207Y4827546D02*
D03*
X5969054Y4625903D02*
D03*
X6583957Y1223066D02*
D03*
X3440000Y3630000D02*
D03*
X3000000Y2200000D02*
D03*
Y2430000D02*
D03*
X2410000Y1930000D02*
D03*
Y1700000D02*
D03*
X3554238Y1637718D02*
D03*
X6981659Y2564787D02*
D03*
X6574714Y923815D02*
D03*
X5584281Y2736198D02*
D03*
X5246126Y2465041D02*
D03*
X4306654Y1298722D02*
D03*
X4220000Y1480000D02*
D03*
X4230000Y1540000D02*
D03*
X4330000Y2220000D02*
D03*
X5391499Y3954002D02*
D03*
X5401082Y2210489D02*
D03*
X5401488Y1770850D02*
D03*
X5395308Y2711469D02*
D03*
X4364802Y2633201D02*
D03*
X5160000Y1700000D02*
D03*
X5463722Y1916669D02*
D03*
X5632761Y1943620D02*
D03*
X4750000Y3410000D02*
D03*
X4850000Y3450000D02*
D03*
X4960000Y3240000D02*
D03*
X4966787Y956458D02*
D03*
X4444097Y3326817D02*
D03*
X3139476Y4624019D02*
D03*
X2927766Y4177072D02*
D03*
X3110000Y4560000D02*
D03*
X3259993Y3139994D02*
D03*
X2980000Y3170001D02*
D03*
X2938364Y4609819D02*
D03*
X3392500Y2550000D02*
D03*
X4089577Y3458928D02*
D03*
X3499875Y3182500D02*
D03*
X4089999Y2717500D02*
D03*
X3520000Y2350000D02*
D03*
X2610278Y2037934D02*
D03*
X3453859Y2169371D02*
D03*
X4048113Y1964887D02*
D03*
X3239578Y1866066D02*
D03*
X3900347Y1212274D02*
D03*
X3390000Y1030000D02*
D03*
X2722076Y3263632D02*
D03*
X7417279Y1163852D02*
D03*
X8225547Y4147272D02*
D03*
X8196010Y3966066D02*
D03*
X8205223Y4024776D02*
D03*
X6962354Y1377731D02*
D03*
X7780000Y1400000D02*
D03*
X6925887Y1458315D02*
D03*
X7804298Y1845702D02*
D03*
X6792748Y2418006D02*
D03*
X6338042Y1867057D02*
D03*
X6550367Y1920716D02*
D03*
X6391872Y1995771D02*
D03*
X6490000Y2550000D02*
D03*
X6300000Y1610000D02*
D03*
X6550000Y860000D02*
D03*
X6668093Y828380D02*
D03*
X5410000Y880000D02*
D03*
X6469871Y611393D02*
D03*
X6981610Y601044D02*
D03*
X7159078Y624207D02*
D03*
X8223537Y2606359D02*
D03*
X8117549Y3006671D02*
D03*
X7717762Y736535D02*
D03*
X3259697Y1115924D02*
D03*
X6940000Y2947500D02*
D03*
X7852918Y2962686D02*
D03*
X8181422Y2878977D02*
D03*
X8181230Y2945002D02*
D03*
X7849778Y2631825D02*
D03*
X7880000Y1920000D02*
D03*
X7650000Y2280000D02*
D03*
Y2445000D02*
D03*
X7529112Y2444793D02*
D03*
X8131039Y2610196D02*
D03*
X8070000Y2450000D02*
D03*
X8130000Y2510000D02*
D03*
X8340407Y2047135D02*
D03*
X8274077Y1960350D02*
D03*
X8250991Y1910622D02*
D03*
X8343944Y1938175D02*
D03*
X8340906Y1869523D02*
D03*
X4500000Y4500000D02*
D03*
X5101347Y4503003D02*
D03*
X4751347D02*
D03*
X4921347Y2563003D02*
D03*
X6731497Y875833D02*
D03*
X5628845Y1664897D02*
D03*
X5592089Y1702985D02*
D03*
X5641227Y2324889D02*
D03*
X5825260Y2235833D02*
D03*
X5620000Y2000000D02*
D03*
X5619286Y2054045D02*
D03*
X5982366Y4273059D02*
D03*
X8182685Y4642287D02*
D03*
X5990551Y3539929D02*
D03*
X5960045Y2706612D02*
D03*
X6573796Y2813468D02*
D03*
X7185789Y2899534D02*
D03*
X6794371Y2714635D02*
D03*
X6380000Y3180000D02*
D03*
X6949095Y4828738D02*
D03*
X7329264Y4827195D02*
D03*
X7850000Y4630000D02*
D03*
X6787656Y1992762D02*
D03*
X6680000Y2280001D02*
D03*
X5986360Y1060716D02*
D03*
X5908597Y763530D02*
D03*
X7471172Y1554359D02*
D03*
X6778295Y1595643D02*
D03*
X7364207Y1548600D02*
D03*
X6970983Y993664D02*
D03*
X6843436Y1057733D02*
D03*
X7820000Y1050000D02*
D03*
X5894331Y1178451D02*
D03*
X5910706Y1229467D02*
D03*
X5880474Y1275444D02*
D03*
X5862353Y1446317D02*
D03*
X5720000Y1290000D02*
D03*
X4823740Y1240134D02*
D03*
X4822417Y1140418D02*
D03*
X4870496Y1065889D02*
D03*
X4916830Y958541D02*
D03*
X5307534Y757266D02*
D03*
X3515675Y1155029D02*
D03*
X2680532Y600491D02*
D03*
X6670672Y2714062D02*
D03*
X4860000Y1460000D02*
D03*
X5468170Y1578802D02*
D03*
X5972225Y3738184D02*
D03*
X8050000Y3260000D02*
D03*
X7850000Y530000D02*
D03*
X7141946Y1005659D02*
D03*
X4780000Y1380000D02*
D03*
X3343313Y718731D02*
D03*
X4319500Y959500D02*
D03*
X3901347Y1308653D02*
D03*
X3260339Y800579D02*
D03*
X3470000Y1050000D02*
D03*
X3198847Y941388D02*
D03*
X2127080Y1183054D02*
D03*
X1960000Y1817392D02*
D03*
X5599722Y1768096D02*
D03*
X5597932Y2191787D02*
D03*
X5847336Y830870D02*
D03*
X5854327Y935673D02*
D03*
X5854999Y1325000D02*
D03*
X6002746Y1790909D02*
D03*
Y2210001D02*
D03*
X6963499Y795281D02*
D03*
X6750000Y2200000D02*
D03*
X6797500Y2566485D02*
D03*
X6750000Y2850000D02*
D03*
X6670000Y2640000D02*
D03*
X6682471Y2585249D02*
D03*
X7410000Y4700000D02*
D03*
X6913016Y4603016D02*
D03*
X5403661Y2315116D02*
D03*
X5122333Y2713076D02*
D03*
X2543568Y2919950D02*
D03*
X5814897Y2701733D02*
D03*
X6260000Y1290000D02*
D03*
Y887379D02*
D03*
X5831296Y1867204D02*
D03*
X6089273Y1402302D02*
D03*
X6090000Y990000D02*
D03*
X5594827Y2111606D02*
D03*
X7147500Y1156486D02*
D03*
X7152358Y1507069D02*
D03*
X7154477Y845000D02*
D03*
X6615000Y1340370D02*
D03*
X7140000Y2130000D02*
D03*
X7000924Y2869064D02*
D03*
X6970000Y2213213D02*
D03*
X8190000Y1660000D02*
D03*
X5603879Y1110165D02*
D03*
X7707500Y1050495D02*
D03*
X8350383Y3520454D02*
D03*
X4560639Y4052602D02*
D03*
X5580000Y2950000D02*
D03*
X5490000Y3100000D02*
D03*
X4640052Y3398326D02*
D03*
X5527472Y2810000D02*
D03*
X4900000Y3990000D02*
D03*
X4800000Y3989014D02*
D03*
X5495072Y3540833D02*
D03*
X4558761Y3037421D02*
D03*
X4399547Y3283233D02*
D03*
X4175870Y718223D02*
D03*
X2550432Y910944D02*
D03*
X3330000Y1470000D02*
D03*
X3340380Y1746653D02*
D03*
X2241823Y3817545D02*
D03*
X3168890Y3903603D02*
D03*
X3490000Y4100000D02*
D03*
X3640000Y1930000D02*
D03*
X3017681Y1001305D02*
D03*
X5810000Y3060000D02*
D03*
X5170000Y3600000D02*
D03*
X4610000Y4180000D02*
D03*
X4999571Y3840468D02*
D03*
X7550000Y4480000D02*
D03*
X6965772Y1978753D02*
D03*
X1810833Y1870415D02*
D03*
X6849131Y4627216D02*
D03*
X6530000Y4670000D02*
D03*
X6410000Y4590000D02*
D03*
X6398170Y4489057D02*
D03*
X3931452Y832573D02*
D03*
X6692653Y4336911D02*
D03*
X7179667Y4373121D02*
D03*
X7047500Y4490000D02*
D03*
X7200000Y4480000D02*
D03*
X5968082Y4340141D02*
D03*
X5750000Y4510000D02*
D03*
X5424918Y4327451D02*
D03*
X5080000Y3960000D02*
D03*
X6844695Y4195084D02*
D03*
X4360000Y4721722D02*
D03*
X5908991Y4626532D02*
D03*
X6160000Y4590000D02*
D03*
X7210790Y4721611D02*
D03*
X7540000Y4580000D02*
D03*
X5550000Y4630000D02*
D03*
X5499863Y4632256D02*
D03*
X5141408Y4549718D02*
D03*
X5209939Y4555019D02*
D03*
X5908557Y814952D02*
D03*
X4120000Y4570000D02*
D03*
X6680000Y4840000D02*
D03*
X5240000Y4850000D02*
D03*
X4390000D02*
D03*
X3620000Y4550000D02*
D03*
X4022208Y4695489D02*
D03*
X4010000Y4530000D02*
D03*
X5713689Y4890134D02*
D03*
X7035770Y4389633D02*
D03*
X6351000Y4624083D02*
D03*
X4083501Y779788D02*
D03*
X2721526Y4827756D02*
D03*
X2821915Y4830749D02*
D03*
X1956782Y1021469D02*
D03*
X1872100Y1474775D02*
D03*
X3148932Y742512D02*
D03*
X3835270Y1182957D02*
D03*
X3885916Y1140456D02*
D03*
X4279925Y716551D02*
D03*
X6753371Y2114523D02*
D03*
X6759394Y2034384D02*
D03*
X4510801Y3693668D02*
D03*
X4510639Y3765770D02*
D03*
X4713598Y2973046D02*
D03*
X4709536Y2907273D02*
D03*
X4562262Y3101914D02*
D03*
X5100000Y830000D02*
D03*
X5522500Y780000D02*
D03*
X5412500D02*
D03*
X5178937Y821950D02*
D03*
X4430000Y3690000D02*
D03*
X5273930Y624879D02*
D03*
X8180000Y4710000D02*
D03*
X8263173Y3560225D02*
D03*
X8262746Y3497006D02*
D03*
X8342706Y3417398D02*
D03*
X8338790Y3573566D02*
D03*
X8237078Y837239D02*
D03*
X8279247Y752676D02*
D03*
X8244326Y924809D02*
D03*
X8254941Y1004912D02*
D03*
X8340000Y750000D02*
D03*
X8186743Y839696D02*
D03*
X8339120Y4628445D02*
D03*
X8190097Y1000173D02*
D03*
X8336335Y1164376D02*
D03*
X8339832Y1564061D02*
D03*
X8335876Y1646753D02*
D03*
X8339173Y1805640D02*
D03*
X8339531Y3655497D02*
D03*
Y3895251D02*
D03*
X8340000Y4775000D02*
D03*
X8336858Y4295000D02*
D03*
X8338650Y4535000D02*
D03*
X8188231Y1717282D02*
D03*
X8338507Y1721834D02*
D03*
X8190960Y1472841D02*
D03*
X8190000Y1420000D02*
D03*
X8191135Y1312606D02*
D03*
X8185072Y1261180D02*
D03*
X8335341Y4680295D02*
D03*
X8333828Y4389101D02*
D03*
X8333073Y4441828D02*
D03*
X8190000Y3720000D02*
D03*
X8330000D02*
D03*
X4660000Y3540000D02*
D03*
X5452481Y3430081D02*
D03*
X5211075Y3725690D02*
D03*
X4617952Y4340233D02*
D03*
X5122086Y2843916D02*
D03*
X5122718Y3168584D02*
D03*
X5120000Y2970000D02*
D03*
X4399284Y2814947D02*
D03*
X2007255Y4699313D02*
D03*
X2356010Y4700798D02*
D03*
X3480000Y4680000D02*
D03*
X3455458Y4401433D02*
D03*
X3679868Y4307891D02*
D03*
X3995327Y3694868D02*
D03*
X3679400Y3694491D02*
D03*
X3910010Y4305052D02*
D03*
X2872337Y4410493D02*
D03*
X2199302Y4269783D02*
D03*
X2639250Y4282943D02*
D03*
X3329814Y3813335D02*
D03*
X3437287Y3448980D02*
D03*
X4280000Y1860000D02*
D03*
X3259728Y1310946D02*
D03*
X2720000Y960000D02*
D03*
X3000433Y801168D02*
D03*
X2409956Y630605D02*
D03*
X1499738Y1226361D02*
D03*
X2064939Y1368211D02*
D03*
X2008492Y1298202D02*
D03*
X2250000Y1580000D02*
D03*
X2415559Y1525693D02*
D03*
X2510000Y2630000D02*
D03*
X2299407Y2977139D02*
D03*
X2365367Y3034777D02*
D03*
D90*
X1620500Y5283500D02*
D03*
Y5003500D02*
D03*
X1300500D02*
D03*
Y5283500D02*
D03*
X2339569Y850000D02*
D03*
X6060000Y2930000D02*
D03*
X2381848Y2502839D02*
D03*
X5789822Y2913968D02*
D03*
X4039453Y3961484D02*
D03*
X4039563Y4047198D02*
D03*
%TF.MD5,a9e8906840c93b1b14efe1a51071af9f*%
M02*
