%TF.GenerationSoftware,Altium Limited,Altium Designer,25.3.3 (18)*%
G04 Layer_Color=255*
%FSLAX45Y45*%
%MOMM*%
%TF.SameCoordinates,3F5801E6-D28E-45E5-A6F2-2741A7385EEC*%
%TF.FilePolarity,Positive*%
%TF.FileFunction,Pads,Top*%
%TF.Part,Single*%
G01*
G75*
%TA.AperFunction,SMDPad,CuDef*%
%ADD10R,0.52000X0.15000*%
G04:AMPARAMS|DCode=11|XSize=0.15mm|YSize=0.52mm|CornerRadius=0.0375mm|HoleSize=0mm|Usage=FLASHONLY|Rotation=90.000|XOffset=0mm|YOffset=0mm|HoleType=Round|Shape=RoundedRectangle|*
%AMROUNDEDRECTD11*
21,1,0.15000,0.44500,0,0,90.0*
21,1,0.07500,0.52000,0,0,90.0*
1,1,0.07500,0.22250,0.03750*
1,1,0.07500,0.22250,-0.03750*
1,1,0.07500,-0.22250,-0.03750*
1,1,0.07500,-0.22250,0.03750*
%
%ADD11ROUNDEDRECTD11*%
G04:AMPARAMS|DCode=12|XSize=0.23mm|YSize=0.7mm|CornerRadius=0.0575mm|HoleSize=0mm|Usage=FLASHONLY|Rotation=90.000|XOffset=0mm|YOffset=0mm|HoleType=Round|Shape=RoundedRectangle|*
%AMROUNDEDRECTD12*
21,1,0.23000,0.58500,0,0,90.0*
21,1,0.11500,0.70000,0,0,90.0*
1,1,0.11500,0.29250,0.05750*
1,1,0.11500,0.29250,-0.05750*
1,1,0.11500,-0.29250,-0.05750*
1,1,0.11500,-0.29250,0.05750*
%
%ADD12ROUNDEDRECTD12*%
G04:AMPARAMS|DCode=13|XSize=2.5mm|YSize=1.65mm|CornerRadius=0.165mm|HoleSize=0mm|Usage=FLASHONLY|Rotation=90.000|XOffset=0mm|YOffset=0mm|HoleType=Round|Shape=RoundedRectangle|*
%AMROUNDEDRECTD13*
21,1,2.50000,1.32000,0,0,90.0*
21,1,2.17000,1.65000,0,0,90.0*
1,1,0.33000,0.66000,1.08500*
1,1,0.33000,0.66000,-1.08500*
1,1,0.33000,-0.66000,-1.08500*
1,1,0.33000,-0.66000,1.08500*
%
%ADD13ROUNDEDRECTD13*%
%ADD14R,0.70000X0.23000*%
G04:AMPARAMS|DCode=15|XSize=0.55mm|YSize=0.8mm|CornerRadius=0.1375mm|HoleSize=0mm|Usage=FLASHONLY|Rotation=0.000|XOffset=0mm|YOffset=0mm|HoleType=Round|Shape=RoundedRectangle|*
%AMROUNDEDRECTD15*
21,1,0.55000,0.52500,0,0,0.0*
21,1,0.27500,0.80000,0,0,0.0*
1,1,0.27500,0.13750,-0.26250*
1,1,0.27500,-0.13750,-0.26250*
1,1,0.27500,-0.13750,0.26250*
1,1,0.27500,0.13750,0.26250*
%
%ADD15ROUNDEDRECTD15*%
G04:AMPARAMS|DCode=16|XSize=0.23mm|YSize=0.67mm|CornerRadius=0.0575mm|HoleSize=0mm|Usage=FLASHONLY|Rotation=90.000|XOffset=0mm|YOffset=0mm|HoleType=Round|Shape=RoundedRectangle|*
%AMROUNDEDRECTD16*
21,1,0.23000,0.55500,0,0,90.0*
21,1,0.11500,0.67000,0,0,90.0*
1,1,0.11500,0.27750,0.05750*
1,1,0.11500,0.27750,-0.05750*
1,1,0.11500,-0.27750,-0.05750*
1,1,0.11500,-0.27750,0.05750*
%
%ADD16ROUNDEDRECTD16*%
G04:AMPARAMS|DCode=17|XSize=0.23mm|YSize=0.67mm|CornerRadius=0.0575mm|HoleSize=0mm|Usage=FLASHONLY|Rotation=0.000|XOffset=0mm|YOffset=0mm|HoleType=Round|Shape=RoundedRectangle|*
%AMROUNDEDRECTD17*
21,1,0.23000,0.55500,0,0,0.0*
21,1,0.11500,0.67000,0,0,0.0*
1,1,0.11500,0.05750,-0.27750*
1,1,0.11500,-0.05750,-0.27750*
1,1,0.11500,-0.05750,0.27750*
1,1,0.11500,0.05750,0.27750*
%
%ADD17ROUNDEDRECTD17*%
G04:AMPARAMS|DCode=18|XSize=1mm|YSize=1.5mm|CornerRadius=0.25mm|HoleSize=0mm|Usage=FLASHONLY|Rotation=0.000|XOffset=0mm|YOffset=0mm|HoleType=Round|Shape=RoundedRectangle|*
%AMROUNDEDRECTD18*
21,1,1.00000,1.00000,0,0,0.0*
21,1,0.50000,1.50000,0,0,0.0*
1,1,0.50000,0.25000,-0.50000*
1,1,0.50000,-0.25000,-0.50000*
1,1,0.50000,-0.25000,0.50000*
1,1,0.50000,0.25000,0.50000*
%
%ADD18ROUNDEDRECTD18*%
G04:AMPARAMS|DCode=19|XSize=0.22mm|YSize=0.58mm|CornerRadius=0.055mm|HoleSize=0mm|Usage=FLASHONLY|Rotation=90.000|XOffset=0mm|YOffset=0mm|HoleType=Round|Shape=RoundedRectangle|*
%AMROUNDEDRECTD19*
21,1,0.22000,0.47000,0,0,90.0*
21,1,0.11000,0.58000,0,0,90.0*
1,1,0.11000,0.23500,0.05500*
1,1,0.11000,0.23500,-0.05500*
1,1,0.11000,-0.23500,-0.05500*
1,1,0.11000,-0.23500,0.05500*
%
%ADD19ROUNDEDRECTD19*%
%ADD20R,0.58000X0.22000*%
G04:AMPARAMS|DCode=21|XSize=0.35mm|YSize=1.15mm|CornerRadius=0.0875mm|HoleSize=0mm|Usage=FLASHONLY|Rotation=90.000|XOffset=0mm|YOffset=0mm|HoleType=Round|Shape=RoundedRectangle|*
%AMROUNDEDRECTD21*
21,1,0.35000,0.97500,0,0,90.0*
21,1,0.17500,1.15000,0,0,90.0*
1,1,0.17500,0.48750,0.08750*
1,1,0.17500,0.48750,-0.08750*
1,1,0.17500,-0.48750,-0.08750*
1,1,0.17500,-0.48750,0.08750*
%
%ADD21ROUNDEDRECTD21*%
%ADD22R,1.15000X0.35000*%
G04:AMPARAMS|DCode=23|XSize=0.55mm|YSize=0.9mm|CornerRadius=0.1375mm|HoleSize=0mm|Usage=FLASHONLY|Rotation=270.000|XOffset=0mm|YOffset=0mm|HoleType=Round|Shape=RoundedRectangle|*
%AMROUNDEDRECTD23*
21,1,0.55000,0.62500,0,0,270.0*
21,1,0.27500,0.90000,0,0,270.0*
1,1,0.27500,-0.31250,-0.13750*
1,1,0.27500,-0.31250,0.13750*
1,1,0.27500,0.31250,0.13750*
1,1,0.27500,0.31250,-0.13750*
%
%ADD23ROUNDEDRECTD23*%
%ADD24R,0.90000X0.55000*%
G04:AMPARAMS|DCode=25|XSize=1.4mm|YSize=1.3mm|CornerRadius=0.325mm|HoleSize=0mm|Usage=FLASHONLY|Rotation=90.000|XOffset=0mm|YOffset=0mm|HoleType=Round|Shape=RoundedRectangle|*
%AMROUNDEDRECTD25*
21,1,1.40000,0.65000,0,0,90.0*
21,1,0.75000,1.30000,0,0,90.0*
1,1,0.65000,0.32500,0.37500*
1,1,0.65000,0.32500,-0.37500*
1,1,0.65000,-0.32500,-0.37500*
1,1,0.65000,-0.32500,0.37500*
%
%ADD25ROUNDEDRECTD25*%
%ADD26R,0.70000X0.33000*%
G04:AMPARAMS|DCode=27|XSize=0.33mm|YSize=0.7mm|CornerRadius=0.0825mm|HoleSize=0mm|Usage=FLASHONLY|Rotation=270.000|XOffset=0mm|YOffset=0mm|HoleType=Round|Shape=RoundedRectangle|*
%AMROUNDEDRECTD27*
21,1,0.33000,0.53500,0,0,270.0*
21,1,0.16500,0.70000,0,0,270.0*
1,1,0.16500,-0.26750,-0.08250*
1,1,0.16500,-0.26750,0.08250*
1,1,0.16500,0.26750,0.08250*
1,1,0.16500,0.26750,-0.08250*
%
%ADD27ROUNDEDRECTD27*%
G04:AMPARAMS|DCode=28|XSize=0.25mm|YSize=0.7mm|CornerRadius=0.0625mm|HoleSize=0mm|Usage=FLASHONLY|Rotation=90.000|XOffset=0mm|YOffset=0mm|HoleType=Round|Shape=RoundedRectangle|*
%AMROUNDEDRECTD28*
21,1,0.25000,0.57500,0,0,90.0*
21,1,0.12500,0.70000,0,0,90.0*
1,1,0.12500,0.28750,0.06250*
1,1,0.12500,0.28750,-0.06250*
1,1,0.12500,-0.28750,-0.06250*
1,1,0.12500,-0.28750,0.06250*
%
%ADD28ROUNDEDRECTD28*%
%ADD29R,0.70000X0.25000*%
G04:AMPARAMS|DCode=30|XSize=0.55mm|YSize=0.8mm|CornerRadius=0.1375mm|HoleSize=0mm|Usage=FLASHONLY|Rotation=90.000|XOffset=0mm|YOffset=0mm|HoleType=Round|Shape=RoundedRectangle|*
%AMROUNDEDRECTD30*
21,1,0.55000,0.52500,0,0,90.0*
21,1,0.27500,0.80000,0,0,90.0*
1,1,0.27500,0.26250,0.13750*
1,1,0.27500,0.26250,-0.13750*
1,1,0.27500,-0.26250,-0.13750*
1,1,0.27500,-0.26250,0.13750*
%
%ADD30ROUNDEDRECTD30*%
G04:AMPARAMS|DCode=31|XSize=0.22mm|YSize=0.55mm|CornerRadius=0.055mm|HoleSize=0mm|Usage=FLASHONLY|Rotation=180.000|XOffset=0mm|YOffset=0mm|HoleType=Round|Shape=RoundedRectangle|*
%AMROUNDEDRECTD31*
21,1,0.22000,0.44000,0,0,180.0*
21,1,0.11000,0.55000,0,0,180.0*
1,1,0.11000,-0.05500,0.22000*
1,1,0.11000,0.05500,0.22000*
1,1,0.11000,0.05500,-0.22000*
1,1,0.11000,-0.05500,-0.22000*
%
%ADD31ROUNDEDRECTD31*%
G04:AMPARAMS|DCode=32|XSize=0.2mm|YSize=1mm|CornerRadius=0.05mm|HoleSize=0mm|Usage=FLASHONLY|Rotation=270.000|XOffset=0mm|YOffset=0mm|HoleType=Round|Shape=RoundedRectangle|*
%AMROUNDEDRECTD32*
21,1,0.20000,0.90000,0,0,270.0*
21,1,0.10000,1.00000,0,0,270.0*
1,1,0.10000,-0.45000,-0.05000*
1,1,0.10000,-0.45000,0.05000*
1,1,0.10000,0.45000,0.05000*
1,1,0.10000,0.45000,-0.05000*
%
%ADD32ROUNDEDRECTD32*%
G04:AMPARAMS|DCode=33|XSize=0.2mm|YSize=0.65mm|CornerRadius=0.05mm|HoleSize=0mm|Usage=FLASHONLY|Rotation=270.000|XOffset=0mm|YOffset=0mm|HoleType=Round|Shape=RoundedRectangle|*
%AMROUNDEDRECTD33*
21,1,0.20000,0.55000,0,0,270.0*
21,1,0.10000,0.65000,0,0,270.0*
1,1,0.10000,-0.27500,-0.05000*
1,1,0.10000,-0.27500,0.05000*
1,1,0.10000,0.27500,0.05000*
1,1,0.10000,0.27500,-0.05000*
%
%ADD33ROUNDEDRECTD33*%
%ADD34R,1.20000X0.35000*%
G04:AMPARAMS|DCode=35|XSize=0.35mm|YSize=1.2mm|CornerRadius=0.0875mm|HoleSize=0mm|Usage=FLASHONLY|Rotation=270.000|XOffset=0mm|YOffset=0mm|HoleType=Round|Shape=RoundedRectangle|*
%AMROUNDEDRECTD35*
21,1,0.35000,1.02500,0,0,270.0*
21,1,0.17500,1.20000,0,0,270.0*
1,1,0.17500,-0.51250,-0.08750*
1,1,0.17500,-0.51250,0.08750*
1,1,0.17500,0.51250,0.08750*
1,1,0.17500,0.51250,-0.08750*
%
%ADD35ROUNDEDRECTD35*%
G04:AMPARAMS|DCode=36|XSize=0.35mm|YSize=1.15mm|CornerRadius=0.0875mm|HoleSize=0mm|Usage=FLASHONLY|Rotation=0.000|XOffset=0mm|YOffset=0mm|HoleType=Round|Shape=RoundedRectangle|*
%AMROUNDEDRECTD36*
21,1,0.35000,0.97500,0,0,0.0*
21,1,0.17500,1.15000,0,0,0.0*
1,1,0.17500,0.08750,-0.48750*
1,1,0.17500,-0.08750,-0.48750*
1,1,0.17500,-0.08750,0.48750*
1,1,0.17500,0.08750,0.48750*
%
%ADD36ROUNDEDRECTD36*%
%ADD37R,0.35000X1.15000*%
G04:AMPARAMS|DCode=38|XSize=2.55mm|YSize=1.1mm|CornerRadius=0.275mm|HoleSize=0mm|Usage=FLASHONLY|Rotation=0.000|XOffset=0mm|YOffset=0mm|HoleType=Round|Shape=RoundedRectangle|*
%AMROUNDEDRECTD38*
21,1,2.55000,0.55000,0,0,0.0*
21,1,2.00000,1.10000,0,0,0.0*
1,1,0.55000,1.00000,-0.27500*
1,1,0.55000,-1.00000,-0.27500*
1,1,0.55000,-1.00000,0.27500*
1,1,0.55000,1.00000,0.27500*
%
%ADD38ROUNDEDRECTD38*%
G04:AMPARAMS|DCode=39|XSize=0.23mm|YSize=0.85mm|CornerRadius=0.0575mm|HoleSize=0mm|Usage=FLASHONLY|Rotation=0.000|XOffset=0mm|YOffset=0mm|HoleType=Round|Shape=RoundedRectangle|*
%AMROUNDEDRECTD39*
21,1,0.23000,0.73500,0,0,0.0*
21,1,0.11500,0.85000,0,0,0.0*
1,1,0.11500,0.05750,-0.36750*
1,1,0.11500,-0.05750,-0.36750*
1,1,0.11500,-0.05750,0.36750*
1,1,0.11500,0.05750,0.36750*
%
%ADD39ROUNDEDRECTD39*%
%ADD40R,0.23000X0.85000*%
%ADD41O,0.60000X0.80000*%
G04:AMPARAMS|DCode=42|XSize=0.6mm|YSize=0.7mm|CornerRadius=0.15mm|HoleSize=0mm|Usage=FLASHONLY|Rotation=180.000|XOffset=0mm|YOffset=0mm|HoleType=Round|Shape=RoundedRectangle|*
%AMROUNDEDRECTD42*
21,1,0.60000,0.40000,0,0,180.0*
21,1,0.30000,0.70000,0,0,180.0*
1,1,0.30000,-0.15000,0.20000*
1,1,0.30000,0.15000,0.20000*
1,1,0.30000,0.15000,-0.20000*
1,1,0.30000,-0.15000,-0.20000*
%
%ADD42ROUNDEDRECTD42*%
G04:AMPARAMS|DCode=43|XSize=0.6mm|YSize=0.7mm|CornerRadius=0.15mm|HoleSize=0mm|Usage=FLASHONLY|Rotation=90.000|XOffset=0mm|YOffset=0mm|HoleType=Round|Shape=RoundedRectangle|*
%AMROUNDEDRECTD43*
21,1,0.60000,0.40000,0,0,90.0*
21,1,0.30000,0.70000,0,0,90.0*
1,1,0.30000,0.20000,0.15000*
1,1,0.30000,0.20000,-0.15000*
1,1,0.30000,-0.20000,-0.15000*
1,1,0.30000,-0.20000,0.15000*
%
%ADD43ROUNDEDRECTD43*%
G04:AMPARAMS|DCode=44|XSize=0.6mm|YSize=0.6mm|CornerRadius=0.15mm|HoleSize=0mm|Usage=FLASHONLY|Rotation=0.000|XOffset=0mm|YOffset=0mm|HoleType=Round|Shape=RoundedRectangle|*
%AMROUNDEDRECTD44*
21,1,0.60000,0.30000,0,0,0.0*
21,1,0.30000,0.60000,0,0,0.0*
1,1,0.30000,0.15000,-0.15000*
1,1,0.30000,-0.15000,-0.15000*
1,1,0.30000,-0.15000,0.15000*
1,1,0.30000,0.15000,0.15000*
%
%ADD44ROUNDEDRECTD44*%
G04:AMPARAMS|DCode=45|XSize=0.6mm|YSize=0.6mm|CornerRadius=0.15mm|HoleSize=0mm|Usage=FLASHONLY|Rotation=270.000|XOffset=0mm|YOffset=0mm|HoleType=Round|Shape=RoundedRectangle|*
%AMROUNDEDRECTD45*
21,1,0.60000,0.30000,0,0,270.0*
21,1,0.30000,0.60000,0,0,270.0*
1,1,0.30000,-0.15000,-0.15000*
1,1,0.30000,-0.15000,0.15000*
1,1,0.30000,0.15000,0.15000*
1,1,0.30000,0.15000,-0.15000*
%
%ADD45ROUNDEDRECTD45*%
G04:AMPARAMS|DCode=46|XSize=0.9mm|YSize=0.8mm|CornerRadius=0.2mm|HoleSize=0mm|Usage=FLASHONLY|Rotation=180.000|XOffset=0mm|YOffset=0mm|HoleType=Round|Shape=RoundedRectangle|*
%AMROUNDEDRECTD46*
21,1,0.90000,0.40000,0,0,180.0*
21,1,0.50000,0.80000,0,0,180.0*
1,1,0.40000,-0.25000,0.20000*
1,1,0.40000,0.25000,0.20000*
1,1,0.40000,0.25000,-0.20000*
1,1,0.40000,-0.25000,-0.20000*
%
%ADD46ROUNDEDRECTD46*%
%ADD47R,0.70000X0.24000*%
%ADD48O,0.30000X1.70000*%
G04:AMPARAMS|DCode=49|XSize=2.2mm|YSize=0.5mm|CornerRadius=0.125mm|HoleSize=0mm|Usage=FLASHONLY|Rotation=180.000|XOffset=0mm|YOffset=0mm|HoleType=Round|Shape=RoundedRectangle|*
%AMROUNDEDRECTD49*
21,1,2.20000,0.25000,0,0,180.0*
21,1,1.95000,0.50000,0,0,180.0*
1,1,0.25000,-0.97500,0.12500*
1,1,0.25000,0.97500,0.12500*
1,1,0.25000,0.97500,-0.12500*
1,1,0.25000,-0.97500,-0.12500*
%
%ADD49ROUNDEDRECTD49*%
G04:AMPARAMS|DCode=50|XSize=2.2mm|YSize=0.7mm|CornerRadius=0.175mm|HoleSize=0mm|Usage=FLASHONLY|Rotation=180.000|XOffset=0mm|YOffset=0mm|HoleType=Round|Shape=RoundedRectangle|*
%AMROUNDEDRECTD50*
21,1,2.20000,0.35000,0,0,180.0*
21,1,1.85000,0.70000,0,0,180.0*
1,1,0.35000,-0.92500,0.17500*
1,1,0.35000,0.92500,0.17500*
1,1,0.35000,0.92500,-0.17500*
1,1,0.35000,-0.92500,-0.17500*
%
%ADD50ROUNDEDRECTD50*%
%TA.AperFunction,SMDPad,SMDef*%
%ADD51C,0.30000*%
%TA.AperFunction,SMDPad,CuDef*%
G04:AMPARAMS|DCode=52|XSize=3mm|YSize=1mm|CornerRadius=0.25mm|HoleSize=0mm|Usage=FLASHONLY|Rotation=90.000|XOffset=0mm|YOffset=0mm|HoleType=Round|Shape=RoundedRectangle|*
%AMROUNDEDRECTD52*
21,1,3.00000,0.50000,0,0,90.0*
21,1,2.50000,1.00000,0,0,90.0*
1,1,0.50000,0.25000,1.25000*
1,1,0.50000,0.25000,-1.25000*
1,1,0.50000,-0.25000,-1.25000*
1,1,0.50000,-0.25000,1.25000*
%
%ADD52ROUNDEDRECTD52*%
%TA.AperFunction,SMDPad,SMDef*%
G04:AMPARAMS|DCode=53|XSize=3.8mm|YSize=1mm|CornerRadius=0.25mm|HoleSize=0mm|Usage=FLASHONLY|Rotation=90.000|XOffset=0mm|YOffset=0mm|HoleType=Round|Shape=RoundedRectangle|*
%AMROUNDEDRECTD53*
21,1,3.80000,0.50000,0,0,90.0*
21,1,3.30000,1.00000,0,0,90.0*
1,1,0.50000,0.25000,1.65000*
1,1,0.50000,0.25000,-1.65000*
1,1,0.50000,-0.25000,-1.65000*
1,1,0.50000,-0.25000,1.65000*
%
%ADD53ROUNDEDRECTD53*%
%TA.AperFunction,SMDPad,CuDef*%
G04:AMPARAMS|DCode=54|XSize=1.6mm|YSize=1mm|CornerRadius=0.25mm|HoleSize=0mm|Usage=FLASHONLY|Rotation=180.000|XOffset=0mm|YOffset=0mm|HoleType=Round|Shape=RoundedRectangle|*
%AMROUNDEDRECTD54*
21,1,1.60000,0.50000,0,0,180.0*
21,1,1.10000,1.00000,0,0,180.0*
1,1,0.50000,-0.55000,0.25000*
1,1,0.50000,0.55000,0.25000*
1,1,0.50000,0.55000,-0.25000*
1,1,0.50000,-0.55000,-0.25000*
%
%ADD54ROUNDEDRECTD54*%
G04:AMPARAMS|DCode=55|XSize=3mm|YSize=1mm|CornerRadius=0.25mm|HoleSize=0mm|Usage=FLASHONLY|Rotation=0.000|XOffset=0mm|YOffset=0mm|HoleType=Round|Shape=RoundedRectangle|*
%AMROUNDEDRECTD55*
21,1,3.00000,0.50000,0,0,0.0*
21,1,2.50000,1.00000,0,0,0.0*
1,1,0.50000,1.25000,-0.25000*
1,1,0.50000,-1.25000,-0.25000*
1,1,0.50000,-1.25000,0.25000*
1,1,0.50000,1.25000,0.25000*
%
%ADD55ROUNDEDRECTD55*%
%TA.AperFunction,SMDPad,SMDef*%
G04:AMPARAMS|DCode=56|XSize=3.8mm|YSize=1mm|CornerRadius=0.25mm|HoleSize=0mm|Usage=FLASHONLY|Rotation=0.000|XOffset=0mm|YOffset=0mm|HoleType=Round|Shape=RoundedRectangle|*
%AMROUNDEDRECTD56*
21,1,3.80000,0.50000,0,0,0.0*
21,1,3.30000,1.00000,0,0,0.0*
1,1,0.50000,1.65000,-0.25000*
1,1,0.50000,-1.65000,-0.25000*
1,1,0.50000,-1.65000,0.25000*
1,1,0.50000,1.65000,0.25000*
%
%ADD56ROUNDEDRECTD56*%
%TA.AperFunction,SMDPad,CuDef*%
G04:AMPARAMS|DCode=57|XSize=1.6mm|YSize=1mm|CornerRadius=0.25mm|HoleSize=0mm|Usage=FLASHONLY|Rotation=90.000|XOffset=0mm|YOffset=0mm|HoleType=Round|Shape=RoundedRectangle|*
%AMROUNDEDRECTD57*
21,1,1.60000,0.50000,0,0,90.0*
21,1,1.10000,1.00000,0,0,90.0*
1,1,0.50000,0.25000,0.55000*
1,1,0.50000,0.25000,-0.55000*
1,1,0.50000,-0.25000,-0.55000*
1,1,0.50000,-0.25000,0.55000*
%
%ADD57ROUNDEDRECTD57*%
G04:AMPARAMS|DCode=58|XSize=2.8mm|YSize=1.3mm|CornerRadius=0.325mm|HoleSize=0mm|Usage=FLASHONLY|Rotation=90.000|XOffset=0mm|YOffset=0mm|HoleType=Round|Shape=RoundedRectangle|*
%AMROUNDEDRECTD58*
21,1,2.80000,0.65000,0,0,90.0*
21,1,2.15000,1.30000,0,0,90.0*
1,1,0.65000,0.32500,1.07500*
1,1,0.65000,0.32500,-1.07500*
1,1,0.65000,-0.32500,-1.07500*
1,1,0.65000,-0.32500,1.07500*
%
%ADD58ROUNDEDRECTD58*%
G04:AMPARAMS|DCode=59|XSize=2.8mm|YSize=1.3mm|CornerRadius=0.325mm|HoleSize=0mm|Usage=FLASHONLY|Rotation=0.000|XOffset=0mm|YOffset=0mm|HoleType=Round|Shape=RoundedRectangle|*
%AMROUNDEDRECTD59*
21,1,2.80000,0.65000,0,0,0.0*
21,1,2.15000,1.30000,0,0,0.0*
1,1,0.65000,1.07500,-0.32500*
1,1,0.65000,-1.07500,-0.32500*
1,1,0.65000,-1.07500,0.32500*
1,1,0.65000,1.07500,0.32500*
%
%ADD59ROUNDEDRECTD59*%
G04:AMPARAMS|DCode=60|XSize=3.6mm|YSize=2mm|CornerRadius=0.5mm|HoleSize=0mm|Usage=FLASHONLY|Rotation=180.000|XOffset=0mm|YOffset=0mm|HoleType=Round|Shape=RoundedRectangle|*
%AMROUNDEDRECTD60*
21,1,3.60000,1.00000,0,0,180.0*
21,1,2.60000,2.00000,0,0,180.0*
1,1,1.00000,-1.30000,0.50000*
1,1,1.00000,1.30000,0.50000*
1,1,1.00000,1.30000,-0.50000*
1,1,1.00000,-1.30000,-0.50000*
%
%ADD60ROUNDEDRECTD60*%
%ADD61R,0.80000X0.80000*%
G04:AMPARAMS|DCode=62|XSize=0.8mm|YSize=0.8mm|CornerRadius=0.2mm|HoleSize=0mm|Usage=FLASHONLY|Rotation=90.000|XOffset=0mm|YOffset=0mm|HoleType=Round|Shape=RoundedRectangle|*
%AMROUNDEDRECTD62*
21,1,0.80000,0.40000,0,0,90.0*
21,1,0.40000,0.80000,0,0,90.0*
1,1,0.40000,0.20000,0.20000*
1,1,0.40000,0.20000,-0.20000*
1,1,0.40000,-0.20000,-0.20000*
1,1,0.40000,-0.20000,0.20000*
%
%ADD62ROUNDEDRECTD62*%
%ADD63R,0.70000X0.50000*%
G04:AMPARAMS|DCode=64|XSize=0.5mm|YSize=0.7mm|CornerRadius=0.125mm|HoleSize=0mm|Usage=FLASHONLY|Rotation=90.000|XOffset=0mm|YOffset=0mm|HoleType=Round|Shape=RoundedRectangle|*
%AMROUNDEDRECTD64*
21,1,0.50000,0.45000,0,0,90.0*
21,1,0.25000,0.70000,0,0,90.0*
1,1,0.25000,0.22500,0.12500*
1,1,0.25000,0.22500,-0.12500*
1,1,0.25000,-0.22500,-0.12500*
1,1,0.25000,-0.22500,0.12500*
%
%ADD64ROUNDEDRECTD64*%
G04:AMPARAMS|DCode=65|XSize=0.8mm|YSize=0.8mm|CornerRadius=0.2mm|HoleSize=0mm|Usage=FLASHONLY|Rotation=180.000|XOffset=0mm|YOffset=0mm|HoleType=Round|Shape=RoundedRectangle|*
%AMROUNDEDRECTD65*
21,1,0.80000,0.40000,0,0,180.0*
21,1,0.40000,0.80000,0,0,180.0*
1,1,0.40000,-0.20000,0.20000*
1,1,0.40000,0.20000,0.20000*
1,1,0.40000,0.20000,-0.20000*
1,1,0.40000,-0.20000,-0.20000*
%
%ADD65ROUNDEDRECTD65*%
G04:AMPARAMS|DCode=66|XSize=1.65mm|YSize=1.25mm|CornerRadius=0.3125mm|HoleSize=0mm|Usage=FLASHONLY|Rotation=0.000|XOffset=0mm|YOffset=0mm|HoleType=Round|Shape=RoundedRectangle|*
%AMROUNDEDRECTD66*
21,1,1.65000,0.62500,0,0,0.0*
21,1,1.02500,1.25000,0,0,0.0*
1,1,0.62500,0.51250,-0.31250*
1,1,0.62500,-0.51250,-0.31250*
1,1,0.62500,-0.51250,0.31250*
1,1,0.62500,0.51250,0.31250*
%
%ADD66ROUNDEDRECTD66*%
G04:AMPARAMS|DCode=67|XSize=1.65mm|YSize=1.25mm|CornerRadius=0.3125mm|HoleSize=0mm|Usage=FLASHONLY|Rotation=270.000|XOffset=0mm|YOffset=0mm|HoleType=Round|Shape=RoundedRectangle|*
%AMROUNDEDRECTD67*
21,1,1.65000,0.62500,0,0,270.0*
21,1,1.02500,1.25000,0,0,270.0*
1,1,0.62500,-0.31250,-0.51250*
1,1,0.62500,-0.31250,0.51250*
1,1,0.62500,0.31250,0.51250*
1,1,0.62500,0.31250,-0.51250*
%
%ADD67ROUNDEDRECTD67*%
%TA.AperFunction,ComponentPad*%
G04:AMPARAMS|DCode=81|XSize=1.55mm|YSize=1.6mm|CornerRadius=0.3875mm|HoleSize=0mm|Usage=FLASHONLY|Rotation=270.000|XOffset=0mm|YOffset=0mm|HoleType=Round|Shape=RoundedRectangle|*
%AMROUNDEDRECTD81*
21,1,1.55000,0.82500,0,0,270.0*
21,1,0.77500,1.60000,0,0,270.0*
1,1,0.77500,-0.41250,-0.38750*
1,1,0.77500,-0.41250,0.38750*
1,1,0.77500,0.41250,0.38750*
1,1,0.77500,0.41250,-0.38750*
%
%ADD81ROUNDEDRECTD81*%
G04:AMPARAMS|DCode=82|XSize=1.7mm|YSize=2.1mm|CornerRadius=0mm|HoleSize=0mm|Usage=FLASHONLY|Rotation=0.000|XOffset=0mm|YOffset=0mm|HoleType=Round|Shape=Octagon|*
%AMOCTAGOND82*
4,1,8,-0.42500,1.05000,0.42500,1.05000,0.85000,0.62500,0.85000,-0.62500,0.42500,-1.05000,-0.42500,-1.05000,-0.85000,-0.62500,-0.85000,0.62500,-0.42500,1.05000,0.0*
%
%ADD82OCTAGOND82*%

G04:AMPARAMS|DCode=83|XSize=1.7mm|YSize=2.1mm|CornerRadius=0.425mm|HoleSize=0mm|Usage=FLASHONLY|Rotation=0.000|XOffset=0mm|YOffset=0mm|HoleType=Round|Shape=RoundedRectangle|*
%AMROUNDEDRECTD83*
21,1,1.70000,1.25001,0,0,0.0*
21,1,0.85000,2.10000,0,0,0.0*
1,1,0.85000,0.42500,-0.62500*
1,1,0.85000,-0.42500,-0.62500*
1,1,0.85000,-0.42500,0.62500*
1,1,0.85000,0.42500,0.62500*
%
%ADD83ROUNDEDRECTD83*%
G04:AMPARAMS|DCode=84|XSize=1.4mm|YSize=1.7mm|CornerRadius=0.35mm|HoleSize=0mm|Usage=FLASHONLY|Rotation=270.000|XOffset=0mm|YOffset=0mm|HoleType=Round|Shape=RoundedRectangle|*
%AMROUNDEDRECTD84*
21,1,1.40000,1.00000,0,0,270.0*
21,1,0.70000,1.70000,0,0,270.0*
1,1,0.70000,-0.50000,-0.35000*
1,1,0.70000,-0.50000,0.35000*
1,1,0.70000,0.50000,0.35000*
1,1,0.70000,0.50000,-0.35000*
%
%ADD84ROUNDEDRECTD84*%
G04:AMPARAMS|DCode=85|XSize=1.4mm|YSize=1.7mm|CornerRadius=0mm|HoleSize=0mm|Usage=FLASHONLY|Rotation=270.000|XOffset=0mm|YOffset=0mm|HoleType=Round|Shape=Octagon|*
%AMOCTAGOND85*
4,1,8,0.85000,0.35000,0.85000,-0.35000,0.50000,-0.70000,-0.50000,-0.70000,-0.85000,-0.35000,-0.85000,0.35000,-0.50000,0.70000,0.50000,0.70000,0.85000,0.35000,0.0*
%
%ADD85OCTAGOND85*%

G04:AMPARAMS|DCode=86|XSize=4mm|YSize=3.6mm|CornerRadius=0.54mm|HoleSize=0mm|Usage=FLASHONLY|Rotation=0.000|XOffset=0mm|YOffset=0mm|HoleType=Round|Shape=RoundedRectangle|*
%AMROUNDEDRECTD86*
21,1,4.00000,2.52000,0,0,0.0*
21,1,2.92000,3.60000,0,0,0.0*
1,1,1.08000,1.46000,-1.26000*
1,1,1.08000,-1.46000,-1.26000*
1,1,1.08000,-1.46000,1.26000*
1,1,1.08000,1.46000,1.26000*
%
%ADD86ROUNDEDRECTD86*%
G04:AMPARAMS|DCode=87|XSize=2.2mm|YSize=2.2mm|CornerRadius=0.55mm|HoleSize=0mm|Usage=FLASHONLY|Rotation=270.000|XOffset=0mm|YOffset=0mm|HoleType=Round|Shape=RoundedRectangle|*
%AMROUNDEDRECTD87*
21,1,2.20000,1.10000,0,0,270.0*
21,1,1.10000,2.20000,0,0,270.0*
1,1,1.10000,-0.55000,-0.55000*
1,1,1.10000,-0.55000,0.55000*
1,1,1.10000,0.55000,0.55000*
1,1,1.10000,0.55000,-0.55000*
%
%ADD87ROUNDEDRECTD87*%
G04:AMPARAMS|DCode=88|XSize=2.2mm|YSize=2.2mm|CornerRadius=0mm|HoleSize=0mm|Usage=FLASHONLY|Rotation=270.000|XOffset=0mm|YOffset=0mm|HoleType=Round|Shape=Octagon|*
%AMOCTAGOND88*
4,1,8,-0.55000,-1.10000,0.55000,-1.10000,1.10000,-0.55000,1.10000,0.55000,0.55000,1.10000,-0.55000,1.10000,-1.10000,0.55000,-1.10000,-0.55000,-0.55000,-1.10000,0.0*
%
%ADD88OCTAGOND88*%

D10*
X7506000Y748000D02*
D03*
X5386000Y1018000D02*
D03*
X6406000Y808000D02*
D03*
X6156000Y2128000D02*
D03*
X5366000Y1218000D02*
D03*
X6406000Y978000D02*
D03*
X6156000Y2328000D02*
D03*
X6406000Y1238000D02*
D03*
X7296000Y2088000D02*
D03*
X7506000Y908000D02*
D03*
X6406000Y1488000D02*
D03*
X7296000Y2278000D02*
D03*
X7506000Y1118000D02*
D03*
X6156000Y1698000D02*
D03*
X7296000Y2558000D02*
D03*
X7506000Y1298000D02*
D03*
X6156000Y1928000D02*
D03*
X7296000Y2758000D02*
D03*
D11*
X7506000Y710000D02*
D03*
Y672000D02*
D03*
X7594000Y748000D02*
D03*
Y710000D02*
D03*
Y672000D02*
D03*
X5386000Y980000D02*
D03*
Y942000D02*
D03*
X5474000Y1018000D02*
D03*
Y980000D02*
D03*
Y942000D02*
D03*
X6406000Y770000D02*
D03*
Y732000D02*
D03*
X6494000Y808000D02*
D03*
Y770000D02*
D03*
Y732000D02*
D03*
X6156000Y2090000D02*
D03*
Y2052000D02*
D03*
X6244000Y2128000D02*
D03*
Y2090000D02*
D03*
Y2052000D02*
D03*
X5366000Y1180000D02*
D03*
Y1142000D02*
D03*
X5454000Y1218000D02*
D03*
Y1180000D02*
D03*
Y1142000D02*
D03*
X6406000Y940000D02*
D03*
Y902000D02*
D03*
X6494000Y978000D02*
D03*
Y940000D02*
D03*
Y902000D02*
D03*
X6156000Y2290000D02*
D03*
Y2252000D02*
D03*
X6244000Y2328000D02*
D03*
Y2290000D02*
D03*
Y2252000D02*
D03*
X6406000Y1200000D02*
D03*
Y1162000D02*
D03*
X6494000Y1238000D02*
D03*
Y1200000D02*
D03*
Y1162000D02*
D03*
X7296000Y2050000D02*
D03*
Y2012000D02*
D03*
X7384000Y2088000D02*
D03*
Y2050000D02*
D03*
Y2012000D02*
D03*
X7506000Y870000D02*
D03*
Y832000D02*
D03*
X7594000Y908000D02*
D03*
Y870000D02*
D03*
Y832000D02*
D03*
X6406000Y1450000D02*
D03*
Y1412000D02*
D03*
X6494000Y1488000D02*
D03*
Y1450000D02*
D03*
Y1412000D02*
D03*
X7296000Y2240000D02*
D03*
Y2202000D02*
D03*
X7384000Y2278000D02*
D03*
Y2240000D02*
D03*
Y2202000D02*
D03*
X7506000Y1080000D02*
D03*
Y1042000D02*
D03*
X7594000Y1118000D02*
D03*
Y1080000D02*
D03*
Y1042000D02*
D03*
X6156000Y1660000D02*
D03*
Y1622000D02*
D03*
X6244000Y1698000D02*
D03*
Y1660000D02*
D03*
Y1622000D02*
D03*
X7296000Y2520000D02*
D03*
Y2482000D02*
D03*
X7384000Y2558000D02*
D03*
Y2520000D02*
D03*
Y2482000D02*
D03*
X7506000Y1260000D02*
D03*
Y1222000D02*
D03*
X7594000Y1298000D02*
D03*
Y1260000D02*
D03*
Y1222000D02*
D03*
X6156000Y1890000D02*
D03*
Y1852000D02*
D03*
X6244000Y1928000D02*
D03*
Y1890000D02*
D03*
Y1852000D02*
D03*
X7296000Y2720000D02*
D03*
Y2682000D02*
D03*
X7384000Y2758000D02*
D03*
Y2720000D02*
D03*
Y2682000D02*
D03*
D12*
X6753000Y3830000D02*
D03*
Y3880000D02*
D03*
Y3930000D02*
D03*
Y3980000D02*
D03*
Y4030000D02*
D03*
X6443000Y3830000D02*
D03*
Y3880000D02*
D03*
Y3930000D02*
D03*
Y3980000D02*
D03*
X7293000Y3800000D02*
D03*
Y3850000D02*
D03*
Y3900000D02*
D03*
Y3950000D02*
D03*
Y4000000D02*
D03*
X6983000Y3800000D02*
D03*
Y3850000D02*
D03*
Y3900000D02*
D03*
Y3950000D02*
D03*
X3085000Y3940000D02*
D03*
Y3990000D02*
D03*
Y4040000D02*
D03*
Y4090000D02*
D03*
Y4140000D02*
D03*
X2775000Y3940000D02*
D03*
Y3990000D02*
D03*
Y4040000D02*
D03*
Y4090000D02*
D03*
X3465000Y1255000D02*
D03*
Y1205000D02*
D03*
Y1155000D02*
D03*
X3755000Y1305000D02*
D03*
Y1255000D02*
D03*
Y1205000D02*
D03*
Y1155000D02*
D03*
X6755000Y3430000D02*
D03*
Y3480000D02*
D03*
Y3530000D02*
D03*
Y3580000D02*
D03*
Y3630000D02*
D03*
X6445000Y3430000D02*
D03*
Y3480000D02*
D03*
Y3530000D02*
D03*
Y3580000D02*
D03*
D13*
X6598000Y3930000D02*
D03*
X7138000Y3900000D02*
D03*
X2930000Y4040000D02*
D03*
X6600000Y3530000D02*
D03*
D14*
X6443000Y4030000D02*
D03*
X6983000Y4000000D02*
D03*
X2775000Y4140000D02*
D03*
X3465000Y1305000D02*
D03*
X6445000Y3630000D02*
D03*
D15*
X5305000Y3532500D02*
D03*
X5115000D02*
D03*
Y3787500D02*
D03*
X5210000D02*
D03*
X5305000D02*
D03*
D16*
X6752000Y4490000D02*
D03*
Y4290000D02*
D03*
Y4440000D02*
D03*
Y4390000D02*
D03*
Y4340000D02*
D03*
X6988000Y4290000D02*
D03*
Y4340000D02*
D03*
Y4390000D02*
D03*
Y4440000D02*
D03*
Y4490000D02*
D03*
X7246998Y4580001D02*
D03*
Y4380001D02*
D03*
Y4530001D02*
D03*
Y4480001D02*
D03*
Y4430001D02*
D03*
X7482998Y4380001D02*
D03*
Y4430001D02*
D03*
Y4480001D02*
D03*
Y4530001D02*
D03*
Y4580001D02*
D03*
D17*
X6845000Y4247000D02*
D03*
X6895000D02*
D03*
Y4533000D02*
D03*
X6845000D02*
D03*
X7339998Y4337001D02*
D03*
X7389998D02*
D03*
Y4623001D02*
D03*
X7339998D02*
D03*
D18*
X6870000Y4390000D02*
D03*
X7364998Y4480001D02*
D03*
D19*
X7103000Y695000D02*
D03*
Y745000D02*
D03*
Y795000D02*
D03*
Y845000D02*
D03*
X7017000Y695000D02*
D03*
Y745000D02*
D03*
Y795000D02*
D03*
X6043000Y1175000D02*
D03*
Y1225000D02*
D03*
Y1275000D02*
D03*
Y1325000D02*
D03*
X5957000Y1175000D02*
D03*
Y1225000D02*
D03*
Y1275000D02*
D03*
X5773000Y1665000D02*
D03*
Y1715000D02*
D03*
Y1765001D02*
D03*
Y1815000D02*
D03*
X5687001Y1665000D02*
D03*
Y1715000D02*
D03*
Y1765001D02*
D03*
X7103000Y1005000D02*
D03*
Y1055000D02*
D03*
Y1105000D02*
D03*
Y1155000D02*
D03*
X7017000Y1005000D02*
D03*
Y1055000D02*
D03*
Y1105000D02*
D03*
X5773000Y2085000D02*
D03*
Y2135000D02*
D03*
Y2185000D02*
D03*
Y2235000D02*
D03*
X5687001Y2085000D02*
D03*
Y2135000D02*
D03*
Y2185000D02*
D03*
X7103000Y1355000D02*
D03*
Y1405000D02*
D03*
Y1455000D02*
D03*
Y1505000D02*
D03*
X7017000Y1355000D02*
D03*
Y1405000D02*
D03*
Y1455000D02*
D03*
X6923000Y2015001D02*
D03*
Y2065000D02*
D03*
Y2115001D02*
D03*
Y2165000D02*
D03*
X6837001Y2015001D02*
D03*
Y2065000D02*
D03*
Y2115001D02*
D03*
X6933000Y2415000D02*
D03*
Y2465000D02*
D03*
Y2515000D02*
D03*
Y2565000D02*
D03*
X6847001Y2415000D02*
D03*
Y2465000D02*
D03*
Y2515000D02*
D03*
X6933000Y2715000D02*
D03*
Y2765000D02*
D03*
Y2815000D02*
D03*
Y2865000D02*
D03*
X6847001Y2715000D02*
D03*
Y2765000D02*
D03*
Y2815000D02*
D03*
X6043000Y765000D02*
D03*
Y815000D02*
D03*
Y865000D02*
D03*
Y915000D02*
D03*
X5957000Y765000D02*
D03*
Y815000D02*
D03*
Y865000D02*
D03*
X5003000Y1065000D02*
D03*
Y1115000D02*
D03*
Y1165000D02*
D03*
Y1215000D02*
D03*
X4917001Y1065000D02*
D03*
Y1115000D02*
D03*
Y1165000D02*
D03*
D20*
X7017000Y845000D02*
D03*
X5957000Y1325000D02*
D03*
X5687001Y1815000D02*
D03*
X7017000Y1155000D02*
D03*
X5687001Y2235000D02*
D03*
X7017000Y1505000D02*
D03*
X6837001Y2165000D02*
D03*
X6847001Y2565000D02*
D03*
Y2865000D02*
D03*
X5957000Y915000D02*
D03*
X4917001Y1215000D02*
D03*
D21*
X3902500Y1572500D02*
D03*
Y1637500D02*
D03*
Y1702500D02*
D03*
Y1767500D02*
D03*
X3477500Y1572500D02*
D03*
Y1637500D02*
D03*
Y1702500D02*
D03*
X4142501Y2052501D02*
D03*
Y2117501D02*
D03*
Y2182501D02*
D03*
Y2247501D02*
D03*
X3717501Y2052501D02*
D03*
Y2117501D02*
D03*
Y2182501D02*
D03*
X4917500Y4327500D02*
D03*
Y4262500D02*
D03*
Y4197500D02*
D03*
Y4132500D02*
D03*
X5342500Y4327500D02*
D03*
Y4262500D02*
D03*
Y4197500D02*
D03*
D22*
X3477500Y1767500D02*
D03*
X3717501Y2247501D02*
D03*
X5342500Y4132500D02*
D03*
D23*
X2650001Y3075000D02*
D03*
Y3170001D02*
D03*
Y3265000D02*
D03*
X2910001D02*
D03*
Y3170001D02*
D03*
X3200000Y895000D02*
D03*
Y800000D02*
D03*
Y705000D02*
D03*
X2940000D02*
D03*
Y800000D02*
D03*
D24*
X2910001Y3075000D02*
D03*
X2940000Y895000D02*
D03*
D25*
X3610000Y1230000D02*
D03*
D26*
X8230000Y2815000D02*
D03*
D27*
Y2880000D02*
D03*
Y2945000D02*
D03*
X8030000D02*
D03*
Y2880000D02*
D03*
Y2815000D02*
D03*
D28*
X8379999Y2509999D02*
D03*
Y2559999D02*
D03*
Y2609999D02*
D03*
Y2659999D02*
D03*
X8080000Y2509999D02*
D03*
Y2559999D02*
D03*
Y2609999D02*
D03*
D29*
Y2659999D02*
D03*
D30*
X6997500Y3265000D02*
D03*
Y3075000D02*
D03*
X6742500D02*
D03*
Y3170000D02*
D03*
Y3265000D02*
D03*
D31*
X2585000Y1357500D02*
D03*
X2485000D02*
D03*
X2635000D02*
D03*
X2535000D02*
D03*
D32*
X2490000Y1425000D02*
D03*
Y1525000D02*
D03*
X2630000Y1475000D02*
D03*
D33*
X2472500D02*
D03*
X2647500Y1525000D02*
D03*
Y1425000D02*
D03*
D34*
X5205000Y2712500D02*
D03*
D35*
Y2777500D02*
D03*
Y2842500D02*
D03*
Y2907500D02*
D03*
Y2972500D02*
D03*
Y3037500D02*
D03*
Y3102500D02*
D03*
Y3167500D02*
D03*
X4635000Y2712500D02*
D03*
Y2777500D02*
D03*
Y2842500D02*
D03*
Y2907500D02*
D03*
Y2972500D02*
D03*
Y3037500D02*
D03*
Y3102500D02*
D03*
Y3167500D02*
D03*
D36*
X5722500Y3187500D02*
D03*
X5787500D02*
D03*
X5852500D02*
D03*
X5917500D02*
D03*
X5722500Y3612500D02*
D03*
X5787500D02*
D03*
X5852500D02*
D03*
D37*
X5917500D02*
D03*
D38*
X4560000Y3970000D02*
D03*
D39*
X4460000Y3825000D02*
D03*
X4510000D02*
D03*
X4560000D02*
D03*
X4610000D02*
D03*
X4660000D02*
D03*
X4460000Y4115000D02*
D03*
X4510000D02*
D03*
X4560000D02*
D03*
X4610000D02*
D03*
D40*
X4660000D02*
D03*
D41*
X5140000Y3320000D02*
D03*
X4900000Y3690000D02*
D03*
X4780000Y4140000D02*
D03*
X5080000Y3910000D02*
D03*
D42*
X1875000Y1420000D02*
D03*
X2065000D02*
D03*
X1970000Y1640000D02*
D03*
D43*
X3570000Y900000D02*
D03*
Y710000D02*
D03*
X3790000Y805000D02*
D03*
D44*
X3040000Y4680000D02*
D03*
Y4780000D02*
D03*
X3140000Y4680000D02*
D03*
Y4780000D02*
D03*
X5580001Y4240000D02*
D03*
Y4340000D02*
D03*
X5680001D02*
D03*
Y4240000D02*
D03*
X6470000Y4680000D02*
D03*
Y4780000D02*
D03*
X6350000D02*
D03*
Y4680000D02*
D03*
X6250000D02*
D03*
Y4780000D02*
D03*
X6150000D02*
D03*
Y4680000D02*
D03*
X7220000Y990000D02*
D03*
Y1090000D02*
D03*
X6160000Y1440000D02*
D03*
Y1340000D02*
D03*
Y1140000D02*
D03*
Y1240000D02*
D03*
X5900000Y2360001D02*
D03*
Y2260001D02*
D03*
X7040000Y1980000D02*
D03*
Y2080000D02*
D03*
Y2280000D02*
D03*
Y2180000D02*
D03*
X7040000Y2390000D02*
D03*
Y2490000D02*
D03*
X7040001Y2700000D02*
D03*
Y2800000D02*
D03*
X3440000Y4000000D02*
D03*
Y4100000D02*
D03*
Y3800000D02*
D03*
Y3900000D02*
D03*
X2940000Y4780000D02*
D03*
Y4680000D02*
D03*
X3040000Y3260000D02*
D03*
Y3160000D02*
D03*
X3140000D02*
D03*
Y3260000D02*
D03*
X3430000Y4780000D02*
D03*
Y4680000D02*
D03*
X2710000Y790000D02*
D03*
Y690000D02*
D03*
X2820000Y790000D02*
D03*
Y690000D02*
D03*
X3460000Y900000D02*
D03*
Y800000D02*
D03*
X4730000Y4780000D02*
D03*
Y4680000D02*
D03*
X2720000Y4780000D02*
D03*
Y4680000D02*
D03*
X4840000Y4780000D02*
D03*
Y4680000D02*
D03*
X2820000Y4780000D02*
D03*
Y4680000D02*
D03*
X4320000Y781000D02*
D03*
Y681000D02*
D03*
X4210000Y780000D02*
D03*
Y680000D02*
D03*
X5970000Y4680000D02*
D03*
Y4780000D02*
D03*
X5870000Y4680000D02*
D03*
Y4780000D02*
D03*
X4580000Y780000D02*
D03*
Y680000D02*
D03*
X4690000D02*
D03*
Y780000D02*
D03*
X5220000D02*
D03*
Y680000D02*
D03*
X6750000Y4780000D02*
D03*
Y4680000D02*
D03*
X6850000Y4780000D02*
D03*
Y4680000D02*
D03*
X5570000Y780000D02*
D03*
Y680000D02*
D03*
X5350000Y780000D02*
D03*
Y680000D02*
D03*
X5460000D02*
D03*
Y780000D02*
D03*
X5640000Y4780000D02*
D03*
Y4680000D02*
D03*
X5110000Y780000D02*
D03*
Y680000D02*
D03*
X5360000Y4780000D02*
D03*
Y4680000D02*
D03*
X4970000Y780000D02*
D03*
Y680000D02*
D03*
X5750000Y4680000D02*
D03*
Y4780000D02*
D03*
X4860000Y780000D02*
D03*
Y680000D02*
D03*
X4040000Y780000D02*
D03*
Y680000D02*
D03*
X3930000Y681000D02*
D03*
Y781000D02*
D03*
X3900000Y4780000D02*
D03*
Y4680000D02*
D03*
X3650000D02*
D03*
Y4780000D02*
D03*
X3760000D02*
D03*
Y4680000D02*
D03*
X3310000D02*
D03*
Y4780000D02*
D03*
X7970000Y2480000D02*
D03*
Y2580000D02*
D03*
X8340000Y2870000D02*
D03*
Y2770000D02*
D03*
X7320000Y790000D02*
D03*
Y690000D02*
D03*
X7220000D02*
D03*
Y790000D02*
D03*
X7320000Y1090000D02*
D03*
Y990000D02*
D03*
X6260000Y1240000D02*
D03*
Y1140000D02*
D03*
Y1340000D02*
D03*
Y1440000D02*
D03*
X6000000Y1840000D02*
D03*
Y1940000D02*
D03*
X5900000D02*
D03*
Y1840000D02*
D03*
X6000000Y2160001D02*
D03*
Y2060001D02*
D03*
X5900000D02*
D03*
Y2160001D02*
D03*
X6000000Y2260001D02*
D03*
Y2360001D02*
D03*
X7140000Y2080000D02*
D03*
Y1980000D02*
D03*
Y2180000D02*
D03*
Y2280000D02*
D03*
X7140000Y2490000D02*
D03*
Y2390000D02*
D03*
X7140000Y2800000D02*
D03*
Y2700000D02*
D03*
X6260000Y830000D02*
D03*
Y730000D02*
D03*
X6160000D02*
D03*
Y830000D02*
D03*
X6260000Y930000D02*
D03*
Y1030000D02*
D03*
X6160000Y1030000D02*
D03*
Y930000D02*
D03*
X6000000Y1740000D02*
D03*
Y1640000D02*
D03*
X5900000D02*
D03*
Y1740000D02*
D03*
X5090000Y4780000D02*
D03*
Y4680000D02*
D03*
X4980000Y4780000D02*
D03*
Y4680000D02*
D03*
X2810000Y1160000D02*
D03*
Y1260000D02*
D03*
X2910000D02*
D03*
Y1160000D02*
D03*
X3010000Y1260000D02*
D03*
Y1160000D02*
D03*
X5000000Y3530000D02*
D03*
Y3430000D02*
D03*
Y3690000D02*
D03*
Y3790000D02*
D03*
X4430000Y3480000D02*
D03*
Y3580000D02*
D03*
X6040000Y3640000D02*
D03*
Y3540000D02*
D03*
X5760000Y3060000D02*
D03*
Y2960000D02*
D03*
X5600000Y3640000D02*
D03*
Y3540000D02*
D03*
X5480000Y4240000D02*
D03*
Y4340000D02*
D03*
X6020000D02*
D03*
Y4240000D02*
D03*
X5480000Y4140000D02*
D03*
Y4040000D02*
D03*
X5860000Y2960000D02*
D03*
Y3060000D02*
D03*
X4900000Y3530000D02*
D03*
Y3430000D02*
D03*
X6950000Y4680000D02*
D03*
Y4780000D02*
D03*
X3350000Y900000D02*
D03*
Y800000D02*
D03*
X7530000Y2290000D02*
D03*
Y2390000D02*
D03*
X6620000Y1000000D02*
D03*
Y1100000D02*
D03*
X6610000Y1460000D02*
D03*
Y1560000D02*
D03*
X7530000Y2600000D02*
D03*
Y2500000D02*
D03*
X7730000Y1280000D02*
D03*
Y1380000D02*
D03*
X7850000Y610000D02*
D03*
Y710000D02*
D03*
Y4780000D02*
D03*
Y4680000D02*
D03*
X3550000Y3800000D02*
D03*
Y3900000D02*
D03*
X3561188Y4000000D02*
D03*
Y4100000D02*
D03*
X3590000Y2250000D02*
D03*
Y2350000D02*
D03*
X4280000Y2010000D02*
D03*
Y1910000D02*
D03*
X3590000Y2050000D02*
D03*
Y2150000D02*
D03*
X3530000Y4780000D02*
D03*
Y4680000D02*
D03*
X8490000Y2660000D02*
D03*
Y2560000D02*
D03*
X7770000Y950000D02*
D03*
Y1050000D02*
D03*
X5590000Y1190000D02*
D03*
Y1290000D02*
D03*
X6320000Y3640000D02*
D03*
Y3740000D02*
D03*
X7110000Y3060000D02*
D03*
Y3160000D02*
D03*
X2360000Y1430000D02*
D03*
Y1530000D02*
D03*
X5450000Y2810000D02*
D03*
Y2710000D02*
D03*
X5340000Y2810000D02*
D03*
Y2710000D02*
D03*
X5650000Y3060000D02*
D03*
Y2960000D02*
D03*
X5970000Y3060000D02*
D03*
Y2960000D02*
D03*
X5890000Y2750000D02*
D03*
Y2850000D02*
D03*
X4580000Y3680000D02*
D03*
Y3580000D02*
D03*
X4780000Y3700000D02*
D03*
Y3600000D02*
D03*
X4680000Y3700000D02*
D03*
Y3600000D02*
D03*
D45*
X5870000Y3850000D02*
D03*
X5970000D02*
D03*
X5770000D02*
D03*
X5670000D02*
D03*
X5910000Y4240000D02*
D03*
X5810000D02*
D03*
X5230000Y1040000D02*
D03*
X5130000D02*
D03*
X7320000Y1450000D02*
D03*
X7220000D02*
D03*
X7900000Y2690000D02*
D03*
X7800000D02*
D03*
X7900000Y2800000D02*
D03*
X7800000D02*
D03*
X3210000Y4190000D02*
D03*
X3310000D02*
D03*
Y4090000D02*
D03*
X3210000D02*
D03*
X4290000Y1470000D02*
D03*
X4390000D02*
D03*
X1860000Y1300000D02*
D03*
X1960000D02*
D03*
X1960000Y1760000D02*
D03*
X1860000D02*
D03*
X1960000Y1190000D02*
D03*
X1860000D02*
D03*
X3360000Y1360000D02*
D03*
X3260000D02*
D03*
X3360000Y1260000D02*
D03*
X3260000D02*
D03*
Y1160000D02*
D03*
X3360000D02*
D03*
X3960000Y1250000D02*
D03*
X3860000D02*
D03*
X4680001Y1040000D02*
D03*
X4780000D02*
D03*
X5720000Y1160000D02*
D03*
X5820000D02*
D03*
X6780000Y1250000D02*
D03*
X6880000D02*
D03*
X7320000Y3160000D02*
D03*
X7220000D02*
D03*
X5720000Y770000D02*
D03*
X5820000D02*
D03*
X6630001Y2390000D02*
D03*
X6730001D02*
D03*
X7320000Y3050000D02*
D03*
X7220000D02*
D03*
X5230000Y1140000D02*
D03*
X5130000D02*
D03*
X6780000Y790000D02*
D03*
X6880000D02*
D03*
X7320000Y1350000D02*
D03*
X7220000D02*
D03*
X6780000D02*
D03*
X6880000D02*
D03*
X6780000Y1110000D02*
D03*
X6880000D02*
D03*
X6780000Y1450000D02*
D03*
X6880000D02*
D03*
X4680001Y1140000D02*
D03*
X4780000D02*
D03*
X4680001Y1240000D02*
D03*
X4780000D02*
D03*
X5450000Y2210000D02*
D03*
X5550000D02*
D03*
X6600001Y2030001D02*
D03*
X6700000D02*
D03*
X6600001Y2130001D02*
D03*
X6700000D02*
D03*
X6610001Y2750000D02*
D03*
X6710001D02*
D03*
X1960000Y1080000D02*
D03*
X1860000D02*
D03*
X5450001Y1670000D02*
D03*
X5550000D02*
D03*
X5450001Y1770000D02*
D03*
X5550000D02*
D03*
X5910000Y4340000D02*
D03*
X5810000D02*
D03*
X5450000Y2110000D02*
D03*
X5550000D02*
D03*
X5870000Y3740000D02*
D03*
X5770000D02*
D03*
X4500000Y3000000D02*
D03*
X4400000D02*
D03*
X5490000Y3290000D02*
D03*
X5590000D02*
D03*
X4410000Y4230000D02*
D03*
X4510000D02*
D03*
X4500000Y3130000D02*
D03*
X4400000D02*
D03*
X4770000Y4240000D02*
D03*
X4670000D02*
D03*
X5080001Y4010000D02*
D03*
X5180000D02*
D03*
X5380000D02*
D03*
X5280000D02*
D03*
X6880000Y890000D02*
D03*
X6780000D02*
D03*
X7220000D02*
D03*
X7320000D02*
D03*
X7220000Y1190000D02*
D03*
X7320000D02*
D03*
X5780000Y2360000D02*
D03*
X5680001D02*
D03*
X5780000Y1940000D02*
D03*
X5680001D02*
D03*
X4770000Y4340000D02*
D03*
X4670000D02*
D03*
X7040001Y2590000D02*
D03*
X7140000D02*
D03*
X7220000Y1550000D02*
D03*
X7320000D02*
D03*
X7430000Y4780000D02*
D03*
X7330000D02*
D03*
X6440000Y4150000D02*
D03*
X6540000D02*
D03*
X7010000Y4120000D02*
D03*
X7110000D02*
D03*
X7850000Y3330000D02*
D03*
X7750000D02*
D03*
X7790000Y2210000D02*
D03*
X7690000D02*
D03*
X3080000Y4280000D02*
D03*
X2980000D02*
D03*
X3230000Y3860000D02*
D03*
X3330000D02*
D03*
X5300000Y3430000D02*
D03*
X5400000D02*
D03*
X7040001Y2900000D02*
D03*
X7140000D02*
D03*
X3340000Y1820000D02*
D03*
X3240000D02*
D03*
X2510000Y3190000D02*
D03*
X2410000D02*
D03*
X3140000Y3040000D02*
D03*
X3040000D02*
D03*
X1960000Y1870000D02*
D03*
X1860000D02*
D03*
X2820000Y910000D02*
D03*
X2720000D02*
D03*
X3860000Y1350000D02*
D03*
X3960000D02*
D03*
X6710001Y2850000D02*
D03*
X6610001D02*
D03*
X5550000Y2310000D02*
D03*
X5450000D02*
D03*
X6050000Y1440000D02*
D03*
X5950000D02*
D03*
X6930000Y2280001D02*
D03*
X6830001D02*
D03*
X5050000Y3290000D02*
D03*
X4950001D02*
D03*
X6880000Y1550000D02*
D03*
X6780000D02*
D03*
X5550000Y1870000D02*
D03*
X5450001D02*
D03*
X5820000Y1360000D02*
D03*
X5720000D02*
D03*
X5820000Y970000D02*
D03*
X5720000D02*
D03*
X5130000Y1240000D02*
D03*
X5230000D02*
D03*
X6050000Y1030000D02*
D03*
X5950000D02*
D03*
X6390001Y2330000D02*
D03*
X6490000D02*
D03*
X6390001Y1920000D02*
D03*
X6490000D02*
D03*
X7900000Y2910000D02*
D03*
X7800000D02*
D03*
X7110000Y3270000D02*
D03*
X7210000D02*
D03*
X7110000Y3380000D02*
D03*
X7210000D02*
D03*
X4500000Y2870000D02*
D03*
X4400000D02*
D03*
X4500000Y2760000D02*
D03*
X4400000D02*
D03*
X4900000Y3940000D02*
D03*
X4800000D02*
D03*
X4900000Y4040000D02*
D03*
X4800000D02*
D03*
X4590000Y3480000D02*
D03*
X4690000D02*
D03*
X5340000Y3050000D02*
D03*
X5440000D02*
D03*
X5560000Y3740000D02*
D03*
X5660000D02*
D03*
X5100000Y3430000D02*
D03*
X5200000D02*
D03*
X4500000Y3230000D02*
D03*
X4400000D02*
D03*
X5280000Y3910000D02*
D03*
X5180000D02*
D03*
D46*
X2300000Y2210000D02*
D03*
Y2370000D02*
D03*
X2550000Y690000D02*
D03*
Y850000D02*
D03*
X2270000D02*
D03*
Y690000D02*
D03*
D47*
X5930000Y4010000D02*
D03*
X5690000D02*
D03*
D48*
X5995000D02*
D03*
X5625000D02*
D03*
D49*
X8466000Y605000D02*
D03*
Y685000D02*
D03*
Y765000D02*
D03*
Y845000D02*
D03*
Y925000D02*
D03*
Y1005000D02*
D03*
Y1085000D02*
D03*
Y1165000D02*
D03*
Y1245000D02*
D03*
Y1325000D02*
D03*
Y1405000D02*
D03*
Y1485000D02*
D03*
Y1565000D02*
D03*
Y1645000D02*
D03*
Y1725000D02*
D03*
Y1805000D02*
D03*
Y1885000D02*
D03*
Y1965000D02*
D03*
Y2045000D02*
D03*
X8060000Y605000D02*
D03*
Y685000D02*
D03*
Y765000D02*
D03*
Y845000D02*
D03*
Y925000D02*
D03*
Y1005000D02*
D03*
Y1085000D02*
D03*
Y1165000D02*
D03*
Y1245000D02*
D03*
Y1325000D02*
D03*
Y1405000D02*
D03*
Y1485000D02*
D03*
Y1565000D02*
D03*
Y1645000D02*
D03*
Y1725000D02*
D03*
Y1805000D02*
D03*
Y1885000D02*
D03*
Y1965000D02*
D03*
Y2045000D02*
D03*
X8466000Y2125000D02*
D03*
X8060000D02*
D03*
X8466000Y3335000D02*
D03*
Y3415000D02*
D03*
Y3495000D02*
D03*
Y3575000D02*
D03*
Y3655000D02*
D03*
Y3735000D02*
D03*
Y3815000D02*
D03*
Y3895000D02*
D03*
Y3975000D02*
D03*
Y4055000D02*
D03*
Y4135000D02*
D03*
Y4215000D02*
D03*
Y4295000D02*
D03*
Y4375000D02*
D03*
Y4455000D02*
D03*
Y4535000D02*
D03*
Y4615000D02*
D03*
Y4695000D02*
D03*
Y4775000D02*
D03*
X8060000Y3335000D02*
D03*
Y3415000D02*
D03*
Y3495000D02*
D03*
Y3575000D02*
D03*
Y3655000D02*
D03*
Y3735000D02*
D03*
Y3815000D02*
D03*
Y3895000D02*
D03*
Y3975000D02*
D03*
Y4055000D02*
D03*
Y4135000D02*
D03*
Y4215000D02*
D03*
Y4295000D02*
D03*
Y4375000D02*
D03*
Y4455000D02*
D03*
Y4535000D02*
D03*
Y4615000D02*
D03*
Y4695000D02*
D03*
Y4775000D02*
D03*
X8466000Y4855000D02*
D03*
X8060000D02*
D03*
D50*
X1630000Y1225000D02*
D03*
Y1375000D02*
D03*
Y1525000D02*
D03*
Y1675000D02*
D03*
D51*
X4090000Y2670000D02*
D03*
Y2610000D02*
D03*
X3500000Y2550000D02*
D03*
X3440000D02*
D03*
X4090000Y3410000D02*
D03*
Y3350000D02*
D03*
X7860000Y2340000D02*
D03*
Y2280000D02*
D03*
X7830000Y4940000D02*
D03*
X7890000D02*
D03*
X3500000Y3290000D02*
D03*
Y3230000D02*
D03*
D52*
X4265000Y4370000D02*
D03*
X6170000Y2665000D02*
D03*
D53*
X4265000Y3815000D02*
D03*
Y3220000D02*
D03*
X6170000D02*
D03*
Y3815000D02*
D03*
D54*
X4435000Y4470000D02*
D03*
X6000000Y2565000D02*
D03*
D55*
X6070000Y4470000D02*
D03*
X4365000Y2565000D02*
D03*
D56*
X5515000Y4470000D02*
D03*
X4920000D02*
D03*
Y2565000D02*
D03*
X5515000D02*
D03*
D57*
X6170000Y4300000D02*
D03*
X4265000Y2735000D02*
D03*
D58*
X3045000Y3680000D02*
D03*
X2815000D02*
D03*
X2855000Y2830000D02*
D03*
X2625000D02*
D03*
D59*
X2390000Y3665000D02*
D03*
Y3895000D02*
D03*
X2390000Y4315000D02*
D03*
Y4085000D02*
D03*
X2540000Y2415000D02*
D03*
Y2185000D02*
D03*
D60*
X2910000Y1580000D02*
D03*
Y1920000D02*
D03*
D61*
X7620000Y1700000D02*
D03*
Y3600000D02*
D03*
X4250000Y1350000D02*
D03*
X4430000Y4700000D02*
D03*
X2420000D02*
D03*
X4080000D02*
D03*
X2070000D02*
D03*
X7620000Y2100000D02*
D03*
Y4000000D02*
D03*
D62*
X7780000Y1700000D02*
D03*
Y3600000D02*
D03*
X4410000Y1350000D02*
D03*
X4590000Y4700000D02*
D03*
X2580000D02*
D03*
X4240000D02*
D03*
X2230000D02*
D03*
X7780000Y2100000D02*
D03*
Y4000000D02*
D03*
X2800000Y4350000D02*
D03*
X2640000D02*
D03*
X3220000Y3450000D02*
D03*
X3380000D02*
D03*
X3090000Y4390000D02*
D03*
X2930000D02*
D03*
X2650000Y2570000D02*
D03*
X2490000D02*
D03*
X2460000Y2920000D02*
D03*
X2300000D02*
D03*
X3420000Y1930000D02*
D03*
X3580000D02*
D03*
X4160000Y1920000D02*
D03*
X4000000D02*
D03*
X2540000Y1230000D02*
D03*
X2380000D02*
D03*
X4600000Y3350000D02*
D03*
X4760000D02*
D03*
X2990000Y1380000D02*
D03*
X2830000D02*
D03*
X5350000Y2930000D02*
D03*
X5510000D02*
D03*
X5350000Y3170000D02*
D03*
X5510000D02*
D03*
D63*
X3315000Y1000000D02*
D03*
X2515000Y3080000D02*
D03*
X3145000Y2930000D02*
D03*
X3315000Y680000D02*
D03*
D64*
X3465000Y1000000D02*
D03*
X2365000Y3080000D02*
D03*
X2995000Y2930000D02*
D03*
X3465000Y680000D02*
D03*
D65*
X2640000Y3900000D02*
D03*
Y3740000D02*
D03*
X5440000Y3540000D02*
D03*
Y3700000D02*
D03*
X2640000Y4060000D02*
D03*
Y4220000D02*
D03*
X4040000Y1620000D02*
D03*
Y1780000D02*
D03*
X4180000Y1620000D02*
D03*
Y1780000D02*
D03*
X3340000Y1529999D02*
D03*
Y1690000D02*
D03*
X2410000Y850000D02*
D03*
Y690000D02*
D03*
X2140000Y4110000D02*
D03*
Y4270000D02*
D03*
X6020000Y2850000D02*
D03*
Y2690000D02*
D03*
X2060000Y850000D02*
D03*
Y690000D02*
D03*
X2250000Y1360000D02*
D03*
Y1520000D02*
D03*
X5630000Y2850000D02*
D03*
Y2690000D02*
D03*
X5760000Y2850000D02*
D03*
Y2690000D02*
D03*
X6310000Y2950000D02*
D03*
Y3110000D02*
D03*
D66*
X3730000Y4390000D02*
D03*
Y4110000D02*
D03*
X3950000Y3610000D02*
D03*
Y3890000D02*
D03*
X3730000Y3610000D02*
D03*
Y3890000D02*
D03*
X3950000Y4390000D02*
D03*
Y4110000D02*
D03*
X4330000Y2420000D02*
D03*
Y2140000D02*
D03*
X3410000Y2370000D02*
D03*
Y2090000D02*
D03*
X3310000Y3230000D02*
D03*
Y2950000D02*
D03*
D67*
X3520000Y3630000D02*
D03*
X3240000D02*
D03*
X3540000Y4360000D02*
D03*
X3260000D02*
D03*
X3080000Y2430000D02*
D03*
X2800000D02*
D03*
X3080000Y2200000D02*
D03*
X2800000D02*
D03*
X2330000Y1930000D02*
D03*
X2610000D02*
D03*
X2330000Y1700000D02*
D03*
X2610000D02*
D03*
D81*
X8113000Y2275000D02*
D03*
X8263000Y455000D02*
D03*
X8113000Y5005000D02*
D03*
X8263000Y3185000D02*
D03*
D82*
X2032000Y170500D02*
D03*
Y4996500D02*
D03*
D83*
X2286000Y170500D02*
D03*
X2540000D02*
D03*
X2794000D02*
D03*
X3048000D02*
D03*
X3302000D02*
D03*
X3556000D02*
D03*
X3810000D02*
D03*
X4064000D02*
D03*
X4318000D02*
D03*
X4572000D02*
D03*
X4826000D02*
D03*
X5080000D02*
D03*
X5334000D02*
D03*
X5588000D02*
D03*
X5842000D02*
D03*
X6096000D02*
D03*
X6350000D02*
D03*
X6604000D02*
D03*
X6858000D02*
D03*
X7112000D02*
D03*
X7366000D02*
D03*
X7620000D02*
D03*
X2032000Y464500D02*
D03*
X2286000D02*
D03*
X2540000D02*
D03*
X2794000D02*
D03*
X3048000D02*
D03*
X3302000D02*
D03*
X3556000D02*
D03*
X3810000D02*
D03*
X4064000D02*
D03*
X4318000D02*
D03*
X4572000D02*
D03*
X4826000D02*
D03*
X5080000D02*
D03*
X5334000D02*
D03*
X5588000D02*
D03*
X5842000D02*
D03*
X6096000D02*
D03*
X6350000D02*
D03*
X6604000D02*
D03*
X6858000D02*
D03*
X7112000D02*
D03*
X7366000D02*
D03*
X7620000D02*
D03*
X2286000Y4996500D02*
D03*
X2540000D02*
D03*
X2794000D02*
D03*
X3048000D02*
D03*
X3302000D02*
D03*
X3556000D02*
D03*
X3810000D02*
D03*
X4064000D02*
D03*
X4318000D02*
D03*
X4572000D02*
D03*
X4826000D02*
D03*
X5080000D02*
D03*
X5334000D02*
D03*
X5588000D02*
D03*
X5842000D02*
D03*
X6096000D02*
D03*
X6350000D02*
D03*
X6604000D02*
D03*
X6858000D02*
D03*
X7112000D02*
D03*
X7366000D02*
D03*
X7620000D02*
D03*
X2032000Y5290500D02*
D03*
X2286000D02*
D03*
X2540000D02*
D03*
X2794000D02*
D03*
X3048000D02*
D03*
X3302000D02*
D03*
X3556000D02*
D03*
X3810000D02*
D03*
X4064000D02*
D03*
X4318000D02*
D03*
X4572000D02*
D03*
X4826000D02*
D03*
X5080000D02*
D03*
X5334000D02*
D03*
X5588000D02*
D03*
X5842000D02*
D03*
X6096000D02*
D03*
X6350000D02*
D03*
X6604000D02*
D03*
X6858000D02*
D03*
X7112000D02*
D03*
X7366000D02*
D03*
X7620000D02*
D03*
D84*
X3920000Y2548000D02*
D03*
Y2748000D02*
D03*
Y2948000D02*
D03*
Y3148000D02*
D03*
Y3348000D02*
D03*
X3680000Y2548000D02*
D03*
Y2748000D02*
D03*
Y2948000D02*
D03*
Y3148000D02*
D03*
D85*
Y3348000D02*
D03*
D86*
X1460500Y5143500D02*
D03*
D87*
X1480000Y345000D02*
D03*
D88*
Y695000D02*
D03*
%TF.MD5,4365f244258642db1740e2a9fbd46e7f*%
M02*
