%TF.GenerationSoftware,Altium Limited,Altium Designer,25.3.3 (18)*%
G04 Layer_Color=0*
%FSLAX45Y45*%
%MOMM*%
%TF.SameCoordinates,3F5801E6-D28E-45E5-A6F2-2741A7385EEC*%
%TF.FilePolarity,Positive*%
%TF.FileFunction,Plated,1,6,PTH,Drill*%
%TF.Part,Single*%
G01*
G75*
%TA.AperFunction,ComponentDrill*%
%ADD635C,1.20000*%
%ADD636C,1.10000*%
%ADD637C,0.80000*%
%ADD638C,3.20000*%
%TA.AperFunction,ViaDrill,NotFilled*%
%ADD639C,0.20000*%
%ADD640C,0.25000*%
%ADD641C,0.30000*%
D635*
X8113000Y2275000D02*
D03*
X8263000Y455000D02*
D03*
X8113000Y5005000D02*
D03*
X8263000Y3185000D02*
D03*
X1480000Y345000D02*
D03*
Y695000D02*
D03*
D636*
X2032000Y190500D02*
D03*
X2286000D02*
D03*
X2540000D02*
D03*
X2794000D02*
D03*
X3048000D02*
D03*
X3302000D02*
D03*
X3556000D02*
D03*
X3810000D02*
D03*
X4064000D02*
D03*
X4318000D02*
D03*
X4572000D02*
D03*
X4826000D02*
D03*
X5080000D02*
D03*
X5334000D02*
D03*
X5588000D02*
D03*
X5842000D02*
D03*
X6096000D02*
D03*
X6350000D02*
D03*
X6604000D02*
D03*
X6858000D02*
D03*
X7112000D02*
D03*
X7366000D02*
D03*
X7620000D02*
D03*
X2032000Y444500D02*
D03*
X2286000D02*
D03*
X2540000D02*
D03*
X2794000D02*
D03*
X3048000D02*
D03*
X3302000D02*
D03*
X3556000D02*
D03*
X3810000D02*
D03*
X4064000D02*
D03*
X4318000D02*
D03*
X4572000D02*
D03*
X4826000D02*
D03*
X5080000D02*
D03*
X5334000D02*
D03*
X5588000D02*
D03*
X5842000D02*
D03*
X6096000D02*
D03*
X6350000D02*
D03*
X6604000D02*
D03*
X6858000D02*
D03*
X7112000D02*
D03*
X7366000D02*
D03*
X7620000D02*
D03*
X2032000Y5016500D02*
D03*
X2286000D02*
D03*
X2540000D02*
D03*
X2794000D02*
D03*
X3048000D02*
D03*
X3302000D02*
D03*
X3556000D02*
D03*
X3810000D02*
D03*
X4064000D02*
D03*
X4318000D02*
D03*
X4572000D02*
D03*
X4826000D02*
D03*
X5080000D02*
D03*
X5334000D02*
D03*
X5588000D02*
D03*
X5842000D02*
D03*
X6096000D02*
D03*
X6350000D02*
D03*
X6604000D02*
D03*
X6858000D02*
D03*
X7112000D02*
D03*
X7366000D02*
D03*
X7620000D02*
D03*
X2032000Y5270500D02*
D03*
X2286000D02*
D03*
X2540000D02*
D03*
X2794000D02*
D03*
X3048000D02*
D03*
X3302000D02*
D03*
X3556000D02*
D03*
X3810000D02*
D03*
X4064000D02*
D03*
X4318000D02*
D03*
X4572000D02*
D03*
X4826000D02*
D03*
X5080000D02*
D03*
X5334000D02*
D03*
X5588000D02*
D03*
X5842000D02*
D03*
X6096000D02*
D03*
X6350000D02*
D03*
X6604000D02*
D03*
X6858000D02*
D03*
X7112000D02*
D03*
X7366000D02*
D03*
X7620000D02*
D03*
D637*
X3900000Y2548000D02*
D03*
Y2748000D02*
D03*
Y2948000D02*
D03*
Y3148000D02*
D03*
Y3348000D02*
D03*
X3700000Y2548000D02*
D03*
Y2748000D02*
D03*
Y2948000D02*
D03*
Y3148000D02*
D03*
Y3348000D02*
D03*
D638*
X1460500Y5143500D02*
D03*
D639*
X8480000Y5340000D02*
D03*
X8505434Y138008D02*
D03*
X1250000Y120000D02*
D03*
X1210000Y1880000D02*
D03*
X1200000Y4080000D02*
D03*
X7240929Y2241556D02*
D03*
X7222160Y2303605D02*
D03*
X7150000Y4130000D02*
D03*
X7261104Y4282825D02*
D03*
X5245030Y1398108D02*
D03*
X8194093Y4442446D02*
D03*
X8208769Y4394648D02*
D03*
X8211155Y4088846D02*
D03*
X7335000Y3525000D02*
D03*
X6913922Y3746037D02*
D03*
X7119288Y3325269D02*
D03*
X6847227Y3410935D02*
D03*
X7378139Y4058678D02*
D03*
X7520656Y4099404D02*
D03*
X7290000Y4224024D02*
D03*
X7344231Y3790014D02*
D03*
X6931671Y3949987D02*
D03*
X7362427Y3638596D02*
D03*
X6788310Y4147500D02*
D03*
X6808750Y3972500D02*
D03*
X6044903Y4135789D02*
D03*
X6415725Y4094467D02*
D03*
X6318619Y3585892D02*
D03*
X6624225Y4358044D02*
D03*
X6888489Y4034141D02*
D03*
X6938426Y4082159D02*
D03*
X6874515Y3941800D02*
D03*
X6390801Y3979282D02*
D03*
X6389432Y3928233D02*
D03*
X6389152Y3878234D02*
D03*
X6392651Y3820726D02*
D03*
X6390368Y3579410D02*
D03*
X6804181Y3826477D02*
D03*
X7347745Y3949908D02*
D03*
X7345109Y3847507D02*
D03*
X7388744Y3682242D02*
D03*
X6802913Y3878659D02*
D03*
X6906429Y3655645D02*
D03*
X6861531Y3804879D02*
D03*
X6857500Y3632472D02*
D03*
X6377072Y3510077D02*
D03*
X6379912Y3458244D02*
D03*
X6425115Y3380763D02*
D03*
X6850392Y3479013D02*
D03*
X5310584Y1184630D02*
D03*
X5333995Y1030168D02*
D03*
X5334007Y980168D02*
D03*
X5542259Y972754D02*
D03*
X5536309Y1139368D02*
D03*
X5493139Y1097360D02*
D03*
X5275076Y1241599D02*
D03*
X6490986Y1111819D02*
D03*
X6358347Y1443955D02*
D03*
X6342677Y2267500D02*
D03*
X6329318Y2219318D02*
D03*
X6339316Y830684D02*
D03*
X6327098Y1500277D02*
D03*
X6544840Y1440914D02*
D03*
X6519012Y1363380D02*
D03*
X6340000Y1200000D02*
D03*
X6358075Y772333D02*
D03*
X6360226Y938720D02*
D03*
X6427969Y1060192D02*
D03*
X6340000Y1270000D02*
D03*
Y1660000D02*
D03*
X6086516Y1719997D02*
D03*
X6091832Y1666353D02*
D03*
X6101729Y1889729D02*
D03*
X6082317Y1936769D02*
D03*
X6290000Y1820000D02*
D03*
X6079641Y2160608D02*
D03*
X6099988Y2289995D02*
D03*
X6090000Y2100000D02*
D03*
X6340000Y2090000D02*
D03*
X6311611Y2039769D02*
D03*
X7424361Y770318D02*
D03*
X7633186Y627402D02*
D03*
X7443210Y715847D02*
D03*
X7710039Y884245D02*
D03*
X7454770Y873355D02*
D03*
X7437173Y823379D02*
D03*
X7367773Y881230D02*
D03*
X7680000Y830000D02*
D03*
X7650000Y1030000D02*
D03*
Y1080000D02*
D03*
X7410621Y1435631D02*
D03*
X7458773Y1264965D02*
D03*
X7385017Y1213176D02*
D03*
X7649561Y1200332D02*
D03*
X7650561Y1250322D02*
D03*
X7440000Y1080000D02*
D03*
X7439112Y2191143D02*
D03*
X7458939Y2238790D02*
D03*
X7432363Y2054452D02*
D03*
X7430295Y2003702D02*
D03*
X7240000Y2110000D02*
D03*
Y2050000D02*
D03*
X7249985Y2519995D02*
D03*
X7245099Y2582718D02*
D03*
X7455007Y2518799D02*
D03*
X7455922Y2466946D02*
D03*
X7183075Y2593718D02*
D03*
X7445931Y2654781D02*
D03*
X7452604Y2712784D02*
D03*
X7246253Y2770894D02*
D03*
X7240000Y2720000D02*
D03*
X7651751Y3676000D02*
D03*
X7210000Y3325000D02*
D03*
X8268795Y2781968D02*
D03*
X6801229Y3169430D02*
D03*
X5600865Y3493579D02*
D03*
X5912935Y2959168D02*
D03*
X2380667Y1287523D02*
D03*
X8569185Y2737375D02*
D03*
X8552500Y2559739D02*
D03*
X5639965Y4382866D02*
D03*
X5439190Y3644282D02*
D03*
X5543187Y3694652D02*
D03*
X6909461Y1373397D02*
D03*
X4599494Y1619981D02*
D03*
X4510000Y2670000D02*
D03*
X2350000Y3210000D02*
D03*
X8336372Y684779D02*
D03*
X3950000Y2250000D02*
D03*
X3795090Y2117655D02*
D03*
X4008448Y1334383D02*
D03*
X4109413Y1779007D02*
D03*
X5091511Y4826774D02*
D03*
X4731207Y4827546D02*
D03*
X5969054Y4625903D02*
D03*
X6583957Y1223066D02*
D03*
X3440000Y3630000D02*
D03*
X3000000Y2200000D02*
D03*
Y2430000D02*
D03*
X2410000Y1930000D02*
D03*
Y1700000D02*
D03*
X3554238Y1637718D02*
D03*
X6981659Y2564787D02*
D03*
X6574714Y923815D02*
D03*
X5584281Y2736198D02*
D03*
X5246126Y2465041D02*
D03*
X4306654Y1298722D02*
D03*
X4220000Y1480000D02*
D03*
X4230000Y1540000D02*
D03*
X4330000Y2220000D02*
D03*
X5391499Y3954002D02*
D03*
X5401082Y2210489D02*
D03*
X5401488Y1770850D02*
D03*
X5395308Y2711469D02*
D03*
X4364802Y2633201D02*
D03*
X5160000Y1700000D02*
D03*
X5463722Y1916669D02*
D03*
X5632761Y1943620D02*
D03*
X4750000Y3410000D02*
D03*
X4850000Y3450000D02*
D03*
X4960000Y3240000D02*
D03*
X4966787Y956458D02*
D03*
X4444097Y3326817D02*
D03*
X3139476Y4624019D02*
D03*
X2927766Y4177072D02*
D03*
X3110000Y4560000D02*
D03*
X3259993Y3139994D02*
D03*
X2980000Y3170001D02*
D03*
X2938364Y4609819D02*
D03*
X3392500Y2550000D02*
D03*
X4089577Y3458928D02*
D03*
X3499875Y3182500D02*
D03*
X4089999Y2717500D02*
D03*
X3520000Y2350000D02*
D03*
X2610278Y2037934D02*
D03*
X3453859Y2169371D02*
D03*
X4048113Y1964887D02*
D03*
X3239578Y1866066D02*
D03*
X3900347Y1212274D02*
D03*
X3390000Y1030000D02*
D03*
X2722076Y3263632D02*
D03*
X7417279Y1163852D02*
D03*
X8225547Y4147272D02*
D03*
X8196010Y3966066D02*
D03*
X8205223Y4024776D02*
D03*
X6962354Y1377731D02*
D03*
X7780000Y1400000D02*
D03*
X6925887Y1458315D02*
D03*
X7804298Y1845702D02*
D03*
X6792748Y2418006D02*
D03*
X6338042Y1867057D02*
D03*
X6550367Y1920716D02*
D03*
X6391872Y1995771D02*
D03*
X6490000Y2550000D02*
D03*
X6300000Y1610000D02*
D03*
X6550000Y860000D02*
D03*
X6668093Y828380D02*
D03*
X5410000Y880000D02*
D03*
X6469871Y611393D02*
D03*
X6981610Y601044D02*
D03*
X7159078Y624207D02*
D03*
X8223537Y2606359D02*
D03*
X8117549Y3006671D02*
D03*
X7717762Y736535D02*
D03*
X3259697Y1115924D02*
D03*
X6940000Y2947500D02*
D03*
X7852918Y2962686D02*
D03*
X8181422Y2878977D02*
D03*
X8181230Y2945002D02*
D03*
X7849778Y2631825D02*
D03*
X7880000Y1920000D02*
D03*
X7650000Y2280000D02*
D03*
Y2445000D02*
D03*
X7529112Y2444793D02*
D03*
X8131039Y2610196D02*
D03*
X8070000Y2450000D02*
D03*
X8130000Y2510000D02*
D03*
X8340407Y2047135D02*
D03*
X8274077Y1960350D02*
D03*
X8250991Y1910622D02*
D03*
X8343944Y1938175D02*
D03*
X8340906Y1869523D02*
D03*
X4500000Y4500000D02*
D03*
X5101347Y4503003D02*
D03*
X4751347D02*
D03*
X4921347Y2563003D02*
D03*
X6731497Y875833D02*
D03*
X5628845Y1664897D02*
D03*
X5592089Y1702985D02*
D03*
X5641227Y2324889D02*
D03*
X5825260Y2235833D02*
D03*
X5620000Y2000000D02*
D03*
X5619286Y2054045D02*
D03*
X5982366Y4273059D02*
D03*
X8182685Y4642287D02*
D03*
X5990551Y3539929D02*
D03*
X5960045Y2706612D02*
D03*
X6573796Y2813468D02*
D03*
X7185789Y2899534D02*
D03*
X6794371Y2714635D02*
D03*
X6380000Y3180000D02*
D03*
X6949095Y4828738D02*
D03*
X7329264Y4827195D02*
D03*
X7850000Y4630000D02*
D03*
X6787656Y1992762D02*
D03*
X6680000Y2280001D02*
D03*
X5986360Y1060716D02*
D03*
X5908597Y763530D02*
D03*
X7471172Y1554359D02*
D03*
X6778295Y1595643D02*
D03*
X7364207Y1548600D02*
D03*
X6970983Y993664D02*
D03*
X6843436Y1057733D02*
D03*
X7820000Y1050000D02*
D03*
X5894331Y1178451D02*
D03*
X5910706Y1229467D02*
D03*
X5880474Y1275444D02*
D03*
X5862353Y1446317D02*
D03*
X5720000Y1290000D02*
D03*
X4823740Y1240134D02*
D03*
X4822417Y1140418D02*
D03*
X4870496Y1065889D02*
D03*
X4916830Y958541D02*
D03*
X5307534Y757266D02*
D03*
X3515675Y1155029D02*
D03*
X2680532Y600491D02*
D03*
X6670672Y2714062D02*
D03*
X4860000Y1460000D02*
D03*
X5468170Y1578802D02*
D03*
X5972225Y3738184D02*
D03*
X8050000Y3260000D02*
D03*
X7850000Y530000D02*
D03*
X7141946Y1005659D02*
D03*
X4780000Y1380000D02*
D03*
X3343313Y718731D02*
D03*
X4319500Y959500D02*
D03*
X3901347Y1308653D02*
D03*
X3260339Y800579D02*
D03*
X3470000Y1050000D02*
D03*
X3198847Y941388D02*
D03*
X2127080Y1183054D02*
D03*
X1960000Y1817392D02*
D03*
X5599722Y1768096D02*
D03*
X5597932Y2191787D02*
D03*
X5847336Y830870D02*
D03*
X5854327Y935673D02*
D03*
X5854999Y1325000D02*
D03*
X6002746Y1790909D02*
D03*
Y2210001D02*
D03*
X6963499Y795281D02*
D03*
X6750000Y2200000D02*
D03*
X6797500Y2566485D02*
D03*
X6750000Y2850000D02*
D03*
X6670000Y2640000D02*
D03*
X6682471Y2585249D02*
D03*
X7410000Y4700000D02*
D03*
X6913016Y4603016D02*
D03*
X5403661Y2315116D02*
D03*
X5122333Y2713076D02*
D03*
X2543568Y2919950D02*
D03*
X5814897Y2701733D02*
D03*
X6260000Y1290000D02*
D03*
Y887379D02*
D03*
X5831296Y1867204D02*
D03*
X6089273Y1402302D02*
D03*
X6090000Y990000D02*
D03*
X5594827Y2111606D02*
D03*
X7147500Y1156486D02*
D03*
X7152358Y1507069D02*
D03*
X7154477Y845000D02*
D03*
X6615000Y1340370D02*
D03*
X7140000Y2130000D02*
D03*
X7000924Y2869064D02*
D03*
X6970000Y2213213D02*
D03*
X8190000Y1660000D02*
D03*
X5603879Y1110165D02*
D03*
X7707500Y1050495D02*
D03*
X8350383Y3520454D02*
D03*
X4560639Y4052602D02*
D03*
X5580000Y2950000D02*
D03*
X5490000Y3100000D02*
D03*
X4640052Y3398326D02*
D03*
X5527472Y2810000D02*
D03*
X4900000Y3990000D02*
D03*
X4800000Y3989014D02*
D03*
X5495072Y3540833D02*
D03*
X4558761Y3037421D02*
D03*
X4399547Y3283233D02*
D03*
X4175870Y718223D02*
D03*
X2550432Y910944D02*
D03*
X3330000Y1470000D02*
D03*
X3340380Y1746653D02*
D03*
X2241823Y3817545D02*
D03*
X3168890Y3903603D02*
D03*
X3490000Y4100000D02*
D03*
X3640000Y1930000D02*
D03*
X3017681Y1001305D02*
D03*
X5810000Y3060000D02*
D03*
X5170000Y3600000D02*
D03*
X4610000Y4180000D02*
D03*
X4999571Y3840468D02*
D03*
X7550000Y4480000D02*
D03*
X6965772Y1978753D02*
D03*
X1810833Y1870415D02*
D03*
X6849131Y4627216D02*
D03*
X6530000Y4670000D02*
D03*
X6410000Y4590000D02*
D03*
X6398170Y4489057D02*
D03*
X3931452Y832573D02*
D03*
X6692653Y4336911D02*
D03*
X7179667Y4373121D02*
D03*
X7047500Y4490000D02*
D03*
X7200000Y4480000D02*
D03*
X5968082Y4340141D02*
D03*
X5750000Y4510000D02*
D03*
X5424918Y4327451D02*
D03*
X5080000Y3960000D02*
D03*
X6844695Y4195084D02*
D03*
X4360000Y4721722D02*
D03*
X5908991Y4626532D02*
D03*
X6160000Y4590000D02*
D03*
X7210790Y4721611D02*
D03*
X7540000Y4580000D02*
D03*
X5550000Y4630000D02*
D03*
X5499863Y4632256D02*
D03*
X5141408Y4549718D02*
D03*
X5209939Y4555019D02*
D03*
X5908557Y814952D02*
D03*
X4120000Y4570000D02*
D03*
X6680000Y4840000D02*
D03*
X5240000Y4850000D02*
D03*
X4390000D02*
D03*
X3620000Y4550000D02*
D03*
X4022208Y4695489D02*
D03*
X4010000Y4530000D02*
D03*
X5713689Y4890134D02*
D03*
X7035770Y4389633D02*
D03*
X6351000Y4624083D02*
D03*
X4083501Y779788D02*
D03*
X2721526Y4827756D02*
D03*
X2821915Y4830749D02*
D03*
X1956782Y1021469D02*
D03*
X1872100Y1474775D02*
D03*
X3148932Y742512D02*
D03*
X3835270Y1182957D02*
D03*
X3885916Y1140456D02*
D03*
X4279925Y716551D02*
D03*
X6753371Y2114523D02*
D03*
X6759394Y2034384D02*
D03*
X4510801Y3693668D02*
D03*
X4510639Y3765770D02*
D03*
X4713598Y2973046D02*
D03*
X4709536Y2907273D02*
D03*
X4562262Y3101914D02*
D03*
X5100000Y830000D02*
D03*
X5522500Y780000D02*
D03*
X5412500D02*
D03*
X5178937Y821950D02*
D03*
X4430000Y3690000D02*
D03*
X5273930Y624879D02*
D03*
X8180000Y4710000D02*
D03*
X8263173Y3560225D02*
D03*
X8262746Y3497006D02*
D03*
X8342706Y3417398D02*
D03*
X8338790Y3573566D02*
D03*
X8237078Y837239D02*
D03*
X8279247Y752676D02*
D03*
X8244326Y924809D02*
D03*
X8254941Y1004912D02*
D03*
X8340000Y750000D02*
D03*
X8186743Y839696D02*
D03*
X8339120Y4628445D02*
D03*
X8190097Y1000173D02*
D03*
X8336335Y1164376D02*
D03*
X8339832Y1564061D02*
D03*
X8335876Y1646753D02*
D03*
X8339173Y1805640D02*
D03*
X8339531Y3655497D02*
D03*
Y3895251D02*
D03*
X8340000Y4775000D02*
D03*
X8336858Y4295000D02*
D03*
X8338650Y4535000D02*
D03*
X8188231Y1717282D02*
D03*
X8338507Y1721834D02*
D03*
X8190960Y1472841D02*
D03*
X8190000Y1420000D02*
D03*
X8191135Y1312606D02*
D03*
X8185072Y1261180D02*
D03*
X8335341Y4680295D02*
D03*
X8333828Y4389101D02*
D03*
X8333073Y4441828D02*
D03*
X8190000Y3720000D02*
D03*
X8330000D02*
D03*
X4660000Y3540000D02*
D03*
X5452481Y3430081D02*
D03*
X5211075Y3725690D02*
D03*
X4617952Y4340233D02*
D03*
X5122086Y2843916D02*
D03*
X5122718Y3168584D02*
D03*
X5120000Y2970000D02*
D03*
X4399284Y2814947D02*
D03*
X2007255Y4699313D02*
D03*
X2356010Y4700798D02*
D03*
X3480000Y4680000D02*
D03*
X3455458Y4401433D02*
D03*
X3679868Y4307891D02*
D03*
X3995327Y3694868D02*
D03*
X3679400Y3694491D02*
D03*
X3910010Y4305052D02*
D03*
X2872337Y4410493D02*
D03*
X2199302Y4269783D02*
D03*
X2639250Y4282943D02*
D03*
X3329814Y3813335D02*
D03*
X3437287Y3448980D02*
D03*
X4280000Y1860000D02*
D03*
X3259728Y1310946D02*
D03*
X2720000Y960000D02*
D03*
X3000433Y801168D02*
D03*
X2409956Y630605D02*
D03*
X1499738Y1226361D02*
D03*
X2064939Y1368211D02*
D03*
X2008492Y1298202D02*
D03*
X2250000Y1580000D02*
D03*
X2415559Y1525693D02*
D03*
X2510000Y2630000D02*
D03*
X2299407Y2977139D02*
D03*
X2365367Y3034777D02*
D03*
D640*
X1620500Y5283500D02*
D03*
Y5003500D02*
D03*
X1300500D02*
D03*
Y5283500D02*
D03*
D641*
X2339569Y850000D02*
D03*
X6060000Y2930000D02*
D03*
X2381848Y2502839D02*
D03*
X5789822Y2913968D02*
D03*
X4039453Y3961484D02*
D03*
X4039563Y4047198D02*
D03*
%TF.MD5,ac523a13d1bab74b80cefcd0160b9799*%
M02*
